<svg width="22" height="22" viewBox="0 0 22 22" fill="none" xmlns="http://www.w3.org/2000/svg">
<path d="M11 0.5C5.20859 0.5 0.5 5.20859 0.5 11C0.5 16.7914 5.20859 21.5 11 21.5C16.7914 21.5 21.5 16.7914 21.5 11C21.5 5.20859 16.7914 0.5 11 0.5Z" fill="#FF5A5F"/>
<path d="M11 13.765C10.3116 12.8991 9.90667 12.1401 9.77169 11.4907C9.63671 10.963 9.6907 10.5436 9.92017 10.2324C10.1631 9.86706 10.5276 9.69117 11 9.69117C11.4724 9.69117 11.8369 9.86706 12.0798 10.2324C12.3093 10.5436 12.3633 10.963 12.2283 11.4907C12.0798 12.1536 11.6749 12.9113 11 13.765ZM14.7686 15.7675C13.6213 16.2681 12.4861 15.4698 11.5143 14.3874C13.1219 12.3701 13.4188 10.8006 12.7291 9.78453C12.3241 9.20274 11.7437 8.91861 11 8.91861C9.50173 8.91861 8.67701 10.1904 9.00096 11.6665C9.18993 12.4648 9.68935 13.3727 10.4857 14.3874C9.88839 15.0509 9.10472 15.8035 8.16409 15.8892C6.8008 16.0922 5.73312 14.7662 6.21904 13.3984L9.67586 6.2248C9.97089 5.68552 10.335 5.22359 10.9987 5.22359C11.4846 5.22359 11.8625 5.50772 12.0245 5.73773L15.7783 13.3984C16.146 14.324 15.6796 15.3731 14.7686 15.7675ZM16.5098 13.1278L13.296 6.42775C12.6886 5.183 12.2567 4.4375 11 4.4375C9.75819 4.4375 9.23042 5.30342 8.69051 6.42775L5.49015 13.1278C4.80176 15.0233 6.21904 16.6875 7.93463 16.6875C8.04262 16.6875 8.14982 16.674 8.25857 16.674C9.14944 16.5657 10.0686 15.9975 11 14.9814C11.9314 15.9961 12.8506 16.5657 13.7414 16.674C13.8502 16.674 13.9574 16.6875 14.0654 16.6875C15.781 16.6889 17.1982 15.0233 16.5098 13.1278Z" fill="white"/>
</svg>
