<svg width="17" height="20" viewBox="0 0 17 20" fill="none" xmlns="http://www.w3.org/2000/svg">
<path fill-rule="evenodd" clip-rule="evenodd" d="M13.6031 10.6257C13.578 8.09383 15.668 6.87884 15.7614 6.81869C14.5866 5.10027 12.7564 4.86407 12.1042 4.8375C10.5467 4.68026 9.06562 5.75501 8.27433 5.75501C7.48522 5.75501 6.2658 4.8611 4.97441 4.88475C3.27702 4.90984 1.71212 5.872 0.837083 7.39225C-0.926399 10.4519 0.386018 14.9867 2.10485 17.4676C2.94448 18.6826 3.94579 20.0475 5.2608 19.9987C6.52672 19.9489 7.00579 19.1787 8.5371 19.1787C10.068 19.1787 10.498 19.9988 11.8381 19.9725C13.2007 19.9475 14.064 18.7339 14.8981 17.5149C15.8633 16.105 16.2589 14.7416 16.2829 14.6715C16.2526 14.6578 13.6259 13.6518 13.5993 10.6268L13.603 10.6257H13.6031ZM11.086 3.19361C11.7835 2.34732 12.2548 1.17255 12.126 0C11.121 0.0409661 9.90232 0.669864 9.1808 1.51506C8.53306 2.26539 7.96726 3.46119 8.11859 4.60974C9.24096 4.69723 10.3869 4.03952 11.0848 3.19508L11.086 3.19361Z" fill="#212121"/>
</svg>
