<svg width="18" height="17" viewBox="0 0 18 17" fill="none" xmlns="http://www.w3.org/2000/svg">
<path fill-rule="evenodd" clip-rule="evenodd" d="M8.96524 7.78013C8.55676 7.78013 8.01502 7.5748 7.87886 6.96098L6.92863 1.29681C6.86056 1.15992 6.72512 0.956045 6.52161 0.956045C6.25001 0.956045 6.11459 1.0922 6.04651 1.29681L5.0282 5.66489C4.75661 6.96098 4.41693 7.23475 3.73831 7.57552C2.78809 8.12162 1.43085 7.98474 0.00552216 7.98474V4.02659C-0.0625575 1.77447 0.480624 0.40994 2.65338 0.273051C5.0282 0 7.06553 0 8.96669 0C10.9345 0 12.9711 0 15.3481 0.273051C17.5194 0.40994 18.0626 1.77447 17.9945 4.02659V7.98474C16.5684 7.98474 15.2105 8.1209 14.2617 7.57552C13.5823 7.23475 13.2434 6.96098 12.9718 5.66489L11.9535 1.29681C11.8854 1.09147 11.75 0.956045 11.4784 0.956045C11.2749 0.956045 11.1387 1.16065 11.0714 1.29681L10.1211 6.96098C9.98281 7.5748 9.43962 7.78013 8.96524 7.78013Z" fill="#6FB353"/>
<path fill-rule="evenodd" clip-rule="evenodd" d="M8.96524 9.21934C8.55676 9.21934 8.01503 9.42397 7.87887 10.0386L6.92863 15.7031C6.86055 15.84 6.72512 16.0446 6.5216 16.0446C6.25001 16.0446 6.11459 15.9077 6.04651 15.7031L5.02821 11.3355C4.75661 10.0386 4.41693 9.76549 3.7383 9.42397C2.78809 8.87783 1.43085 9.01545 0.00552221 9.01545V12.9739C-0.0625575 15.2254 0.480619 16.5908 2.65337 16.7269C5.0282 17 7.13361 17 8.96669 17C10.8664 17 12.9711 17 15.3481 16.7269C17.5194 16.59 18.0626 15.2254 17.9945 12.9739V9.01545C16.5684 9.01545 15.2105 8.87783 14.2617 9.42397C13.5823 9.76549 13.2434 10.0386 12.9718 11.3355L11.9535 15.7031C11.8854 15.9077 11.75 16.0446 11.4784 16.0446C11.2749 16.0446 11.1387 15.84 11.0714 15.7031L10.1211 10.0386C9.98281 9.42397 9.43963 9.21934 8.96524 9.21934Z" fill="#33348E"/>
</svg>
