<svg width="29" height="9" viewBox="0 0 29 9" fill="none" xmlns="http://www.w3.org/2000/svg">
<path d="M10.166 8.52323L11.6389 0.170753H13.9946L12.5207 8.52323H10.166ZM21.0315 0.350808C20.5648 0.18159 19.8334 0 18.9202 0C16.5924 0 14.9528 1.13281 14.9388 2.75641C14.9256 3.95663 16.1094 4.62616 17.0029 5.02569C17.9199 5.43508 18.2281 5.69616 18.2238 6.06178C18.218 6.62161 17.4915 6.8774 16.8145 6.8774C15.8716 6.8774 15.3707 6.7508 14.597 6.43895L14.2934 6.30626L13.9628 8.17605C14.513 8.40918 15.5305 8.61117 16.5869 8.62162C19.0632 8.62162 20.6707 7.50178 20.689 5.76797C20.6978 4.81782 20.0703 4.09475 18.7111 3.4986C17.8878 3.11225 17.3835 2.85437 17.3888 2.46316C17.3888 2.11598 17.8157 1.74469 18.7379 1.74469C19.5082 1.73317 20.0663 1.89552 20.5011 2.0647L20.7122 2.16112L21.0315 0.350808ZM27.0935 0.170625H25.2732C24.7093 0.170625 24.2873 0.319405 24.0396 0.86328L20.5411 8.51773H23.0148C23.0148 8.51773 23.4192 7.48847 23.5107 7.26255C23.7811 7.26255 26.1841 7.26614 26.5277 7.26614C26.5982 7.55853 26.8142 8.51773 26.8142 8.51773H29.0002L27.0935 0.170369V0.170625ZM24.2054 5.56415C24.4002 5.08291 25.144 3.22929 25.144 3.22929C25.13 3.25156 25.3373 2.7457 25.4563 2.4321L25.6155 3.15228C25.6155 3.15228 26.0666 5.14606 26.1609 5.56415H24.2054ZM8.16617 0.170625L5.85984 5.86666L5.61406 4.70911C5.18472 3.37478 3.84701 1.92914 2.35156 1.20538L4.46037 8.50996L6.95283 8.50723L10.6615 0.170539H8.16617" fill="#0E4595"/>
<path d="M3.67072 0.000177226H0.028825L0 0.18005C2.83332 0.895654 4.70808 2.625 5.48649 4.7027L4.69454 0.729869C4.55782 0.182479 4.16134 0.0191222 3.67081 0" fill="#F2AE14"/>
</svg>
