<svg width="27" height="27" viewBox="0 0 27 27" fill="none" xmlns="http://www.w3.org/2000/svg">
<path d="M18.2992 22.5H8.69922C8.30154 22.4996 7.92029 22.3414 7.63908 22.0602C7.35788 21.779 7.1997 21.3977 7.19922 21V6.30005H19.7992V21C19.7987 21.3977 19.6406 21.779 19.3594 22.0602C19.0782 22.3414 18.6969 22.4996 18.2992 22.5ZM7.79922 6.90005V21C7.79922 21.2387 7.89404 21.4677 8.06282 21.6364C8.23161 21.8052 8.46052 21.9 8.69922 21.9H18.2992C18.5379 21.9 18.7668 21.8052 18.9356 21.6364C19.1044 21.4677 19.1992 21.2387 19.1992 21V6.90005H7.79922Z" fill="black"/>
<path d="M18.3008 22.65H8.70078C8.26334 22.6495 7.84398 22.4755 7.53467 22.1661C7.22535 21.8568 7.05134 21.4375 7.05078 21V6.15002H19.9508V21C19.9502 21.4375 19.7762 21.8568 19.4669 22.1661C19.1576 22.4755 18.7382 22.6495 18.3008 22.65ZM7.35078 6.45002V21C7.35118 21.3579 7.49354 21.7011 7.74663 21.9542C7.99971 22.2073 8.34286 22.3496 8.70078 22.35H18.3008C18.6587 22.3496 19.0018 22.2073 19.2549 21.9542C19.508 21.7011 19.6504 21.3579 19.6508 21V6.45002H7.35078ZM18.3008 22.05H8.70078C8.4223 22.05 8.15523 21.9394 7.95832 21.7425C7.76141 21.5456 7.65078 21.2785 7.65078 21V6.75002H19.3508V21C19.3508 21.2785 19.2402 21.5456 19.0432 21.7425C18.8463 21.9394 18.5793 22.05 18.3008 22.05ZM7.95078 7.05002V21C7.95078 21.1989 8.0298 21.3897 8.17045 21.5304C8.3111 21.671 8.50187 21.75 8.70078 21.75H18.3008C18.4997 21.75 18.6905 21.671 18.8311 21.5304C18.9718 21.3897 19.0508 21.1989 19.0508 21V7.05002H7.95078Z" fill="black"/>
<path d="M22.8813 12.6H19.5V12H22.8813C23.0189 11.9998 23.1508 11.9451 23.248 11.8478C23.3453 11.7505 23.3999 11.6186 23.4 11.481V5.619C23.3999 5.48143 23.3453 5.34951 23.248 5.25221C23.1508 5.1549 23.0189 5.10016 22.8813 5.1H4.119C3.9814 5.10016 3.84948 5.15489 3.75219 5.25219C3.65489 5.34948 3.60016 5.4814 3.6 5.619V11.481C3.60016 11.6186 3.65489 11.7505 3.75219 11.8478C3.84948 11.9451 3.9814 11.9998 4.119 12H7.2V6.6H7.8V12.6H4.119C3.82234 12.5996 3.53795 12.4816 3.32819 12.2718C3.11842 12.062 3.0004 11.7777 3 11.481V5.619C3.0004 5.32234 3.11842 5.03795 3.32819 4.82819C3.53795 4.61842 3.82234 4.5004 4.119 4.5H22.8813C23.1779 4.5004 23.4623 4.61843 23.672 4.8282C23.8817 5.03798 23.9997 5.32237 24 5.619V11.481C23.9997 11.7776 23.8817 12.062 23.672 12.2718C23.4623 12.4816 23.1779 12.5996 22.8813 12.6Z" fill="black"/>
<path d="M22.8809 12.75H19.3496V11.85H22.8809C22.9787 11.8498 23.0724 11.8109 23.1416 11.7417C23.2107 11.6725 23.2495 11.5788 23.2496 11.481V5.61898C23.2495 5.52119 23.2107 5.42742 23.1416 5.35825C23.0724 5.28907 22.9787 5.25013 22.8809 5.24998H4.11861C4.02079 5.25013 3.92703 5.28906 3.85786 5.35823C3.7887 5.4274 3.74977 5.52116 3.74961 5.61898V11.481C3.74977 11.5788 3.7887 11.6726 3.85786 11.7417C3.92703 11.8109 4.02079 11.8498 4.11861 11.85H7.04961V6.44998H7.94961V12.75H4.11861C3.78215 12.7497 3.45956 12.6159 3.22164 12.3779C2.98373 12.14 2.84993 11.8174 2.84961 11.481V5.61898C2.84993 5.28251 2.98373 4.95992 3.22164 4.72201C3.45956 4.48409 3.78215 4.35029 4.11861 4.34998H22.8809C23.2173 4.35037 23.5398 4.48421 23.7777 4.72211C24.0155 4.96002 24.1493 5.28257 24.1496 5.61898V11.481C24.1493 11.8174 24.0155 12.1399 23.7777 12.3778C23.5398 12.6157 23.2173 12.7496 22.8809 12.75ZM19.6496 12.45H22.8809C23.1378 12.4497 23.384 12.3475 23.5656 12.1658C23.7472 11.9841 23.8494 11.7378 23.8496 11.481V5.61898C23.8494 5.36211 23.7472 5.11582 23.5656 4.93416C23.384 4.7525 23.1378 4.65029 22.8809 4.64998H4.11861C3.86171 4.65029 3.61543 4.75249 3.43377 4.93414C3.25212 5.11579 3.14993 5.36208 3.14961 5.61898V11.481C3.14993 11.7379 3.25212 11.9842 3.43377 12.1658C3.61543 12.3475 3.86171 12.4497 4.11861 12.45H7.64961V6.74998H7.34961V12.15H4.11861C3.94125 12.1497 3.77123 12.0792 3.64582 11.9538C3.52041 11.8284 3.44985 11.6583 3.44961 11.481V5.61898C3.44985 5.44162 3.52041 5.27159 3.64582 5.14618C3.77123 5.02077 3.94125 4.95021 4.11861 4.94998H22.8809C23.0582 4.95021 23.2282 5.02078 23.3536 5.1462C23.479 5.27162 23.5495 5.44165 23.5496 5.61898V11.481C23.5495 11.6583 23.479 11.8283 23.3536 11.9537C23.2282 12.0792 23.0582 12.1497 22.8809 12.15H19.6496V12.45Z" fill="black"/>
<path d="M7.49961 10.5H5.09961V6.30005H7.49961V6.90005H5.69961V9.90005H7.49961V10.5Z" fill="black"/>
<path d="M7.64922 10.65H4.94922V6.15002H7.64922V7.05002H5.84922V9.75002H7.64922V10.65ZM5.24922 10.35H7.34922V10.05H5.54922V6.75002H7.34922V6.45002H5.24922V10.35ZM21.8992 10.5H19.4992V9.90002H21.2992V6.90002H19.4992V6.30002H21.8992V10.5Z" fill="black"/>
<path d="M22.0496 10.65H19.3496V9.75002H21.1496V7.05002H19.3496V6.15002H22.0496V10.65ZM19.6496 10.35H21.7496V6.45002H19.6496V6.75002H21.4496V10.05H19.6496V10.35ZM17.0996 22.5H14.0996V6.30002H17.0996V22.5ZM14.6996 21.9H16.4996V6.90002H14.6996V21.9Z" fill="black"/>
<path d="M17.25 22.65H13.95V6.15002H17.25V22.65ZM14.25 22.35H16.95V6.45002H14.25V22.35ZM16.65 22.05H14.55V6.75002H16.65V22.05ZM14.85 21.75H16.35V7.05002H14.85V21.75ZM9 15.3123H9.6V20.5971H9V15.3123Z" fill="black"/>
<path d="M9.74961 20.7472H8.84961V15.1624H9.74961V20.7472ZM9.14961 20.4472H9.44961V15.4624H9.14961V20.4472ZM10.7996 17.9548H11.3996V20.5975H10.7996V17.9548Z" fill="black"/>
<path d="M11.5504 20.7471H10.6504V17.8047H11.5504V20.7471ZM10.9504 20.4471H11.2504V18.1047H10.9504V20.4471Z" fill="black"/>
</svg>
