<svg width="24" height="24" viewBox="0 0 24 24" fill="none" xmlns="http://www.w3.org/2000/svg">
<path d="M6.5 11.5C6.36739 11.5 6.24021 11.4473 6.14645 11.3536C6.05268 11.2598 6 11.1326 6 11V4C6 3.60218 5.84196 3.22064 5.56066 2.93934C5.27936 2.65804 4.89782 2.5 4.5 2.5C4.10218 2.5 3.72064 2.65804 3.43934 2.93934C3.15804 3.22064 3 3.60218 3 4V10.5H5C5.13261 10.5 5.25979 10.5527 5.35355 10.6464C5.44732 10.7402 5.5 10.8674 5.5 11C5.5 11.1326 5.44732 11.2598 5.35355 11.3536C5.25979 11.4473 5.13261 11.5 5 11.5H2.5C2.36739 11.5 2.24021 11.4473 2.14645 11.3536C2.05268 11.2598 2 11.1326 2 11V4C2 3.33696 2.26339 2.70107 2.73223 2.23223C3.20107 1.76339 3.83696 1.5 4.5 1.5C5.16304 1.5 5.79893 1.76339 6.26777 2.23223C6.73661 2.70107 7 3.33696 7 4V11C7 11.1326 6.94732 11.2598 6.85355 11.3536C6.75979 11.4473 6.63261 11.5 6.5 11.5ZM18.5 22.5H9.5C9.40948 22.5 9.32065 22.4755 9.243 22.4289C9.16534 22.3824 9.10177 22.3157 9.05906 22.2359C9.01636 22.1561 8.99612 22.0662 9.00051 21.9757C9.00491 21.8853 9.03376 21.7978 9.084 21.7225L9.124 21.6625C9.19581 21.5548 9.30657 21.4792 9.433 21.4515C9.87667 21.3519 10.2734 21.1046 10.5581 20.75C10.8428 20.3955 10.9986 19.9547 11 19.5V17.5C11 17.3674 11.0527 17.2402 11.1464 17.1464C11.2402 17.0527 11.3674 17 11.5 17H21.5C21.6326 17 21.7598 17.0527 21.8536 17.1464C21.9473 17.2402 22 17.3674 22 17.5V19C21.9989 19.9279 21.6299 20.8176 20.9737 21.4737C20.3176 22.1299 19.4279 22.4989 18.5 22.5ZM11.2305 21.5H18.5C19.1628 21.4992 19.7982 21.2356 20.2669 20.7669C20.7356 20.2982 20.9992 19.6628 21 19V18H12V19.5C11.9981 20.2386 11.7242 20.9506 11.2305 21.5Z" fill="black"/>
<path d="M18.5 22.5H9C8.20459 22.4992 7.44199 22.1829 6.87956 21.6204C6.31712 21.058 6.00079 20.2954 6 19.5V4C6 3.60218 5.84196 3.22064 5.56066 2.93934C5.27936 2.65804 4.89782 2.5 4.5 2.5C4.36739 2.5 4.24021 2.44732 4.14645 2.35355C4.05268 2.25979 4 2.13261 4 2C4 1.86739 4.05268 1.74021 4.14645 1.64645C4.24021 1.55268 4.36739 1.5 4.5 1.5H15C16.3256 1.50146 17.5966 2.02871 18.5339 2.96607C19.4713 3.90344 19.9985 5.17436 20 6.5V17.5C20 17.6326 19.9473 17.7598 19.8536 17.8536C19.7598 17.9473 19.6326 18 19.5 18C19.3674 18 19.2402 17.9473 19.1464 17.8536C19.0527 17.7598 19 17.6326 19 17.5V6.5C18.9988 5.4395 18.577 4.42278 17.8271 3.67289C17.0772 2.923 16.0605 2.50119 15 2.5H6.5C6.82543 2.93228 7.00098 3.45892 7 4V19.5C7 20.0304 7.21071 20.5391 7.58579 20.9142C7.96086 21.2893 8.46957 21.5 9 21.5H18.5C18.6326 21.5 18.7598 21.5527 18.8536 21.6464C18.9473 21.7402 19 21.8674 19 22C19 22.1326 18.9473 22.2598 18.8536 22.3536C18.7598 22.4473 18.6326 22.5 18.5 22.5Z" fill="black"/>
<path d="M12.5 8C12.2033 8 11.9133 7.91203 11.6666 7.74721C11.42 7.58238 11.2277 7.34811 11.1142 7.07403C11.0006 6.79994 10.9709 6.49834 11.0288 6.20737C11.0867 5.91639 11.2296 5.64912 11.4393 5.43934C11.6491 5.22956 11.9164 5.0867 12.2074 5.02882C12.4983 4.97094 12.7999 5.00065 13.074 5.11418C13.3481 5.22771 13.5824 5.41997 13.7472 5.66665C13.912 5.91332 14 6.20333 14 6.5C14 6.63261 13.9473 6.75979 13.8536 6.85355C13.7598 6.94732 13.6326 7 13.5 7C13.3674 7 13.2402 6.94732 13.1464 6.85355C13.0527 6.75979 13 6.63261 13 6.5C13 6.40111 12.9707 6.30444 12.9157 6.22222C12.8608 6.13999 12.7827 6.0759 12.6913 6.03806C12.6 6.00022 12.4994 5.99032 12.4025 6.00961C12.3055 6.0289 12.2164 6.07652 12.1464 6.14645C12.0765 6.21637 12.0289 6.30547 12.0096 6.40246C11.9903 6.49945 12.0002 6.59998 12.0381 6.69134C12.0759 6.78271 12.14 6.86079 12.2222 6.91574C12.3044 6.97068 12.4011 7 12.5 7C12.6326 7 12.7598 7.05268 12.8536 7.14645C12.9473 7.24022 13 7.36739 13 7.5C13 7.63261 12.9473 7.75979 12.8536 7.85355C12.7598 7.94732 12.6326 8 12.5 8Z" fill="black"/>
<path d="M12.5 10C12.1022 10 11.7206 9.84196 11.4393 9.56066C11.158 9.27935 11 8.89782 11 8.5C11 8.36739 11.0527 8.24021 11.1464 8.14644C11.2402 8.05267 11.3674 8 11.5 8C11.6326 8 11.7598 8.05267 11.8536 8.14644C11.9473 8.24021 12 8.36739 12 8.5C12 8.59889 12.0293 8.69556 12.0843 8.77778C12.1392 8.86001 12.2173 8.92409 12.3087 8.96194C12.4 8.99978 12.5006 9.00968 12.5975 8.99039C12.6945 8.9711 12.7836 8.92348 12.8536 8.85355C12.9235 8.78362 12.9711 8.69453 12.9904 8.59754C13.0097 8.50055 12.9998 8.40002 12.9619 8.30865C12.9241 8.21729 12.86 8.1392 12.7778 8.08426C12.6956 8.02932 12.5989 8 12.5 8C12.3674 8 12.2402 7.94732 12.1464 7.85355C12.0527 7.75978 12 7.6326 12 7.5C12 7.36739 12.0527 7.24021 12.1464 7.14644C12.2402 7.05267 12.3674 7 12.5 7C12.8978 7 13.2794 7.15803 13.5607 7.43934C13.842 7.72064 14 8.10217 14 8.5C14 8.89782 13.842 9.27935 13.5607 9.56066C13.2794 9.84196 12.8978 10 12.5 10ZM12.5 6C12.3674 6 12.2402 5.94732 12.1464 5.85355C12.0527 5.75978 12 5.6326 12 5.5V4.8335C12 4.70089 12.0527 4.57371 12.1464 4.47994C12.2402 4.38617 12.3674 4.3335 12.5 4.3335C12.6326 4.3335 12.7598 4.38617 12.8536 4.47994C12.9473 4.57371 13 4.70089 13 4.8335V5.5C13 5.6326 12.9473 5.75978 12.8536 5.85355C12.7598 5.94732 12.6326 6 12.5 6Z" fill="black"/>
<path d="M12.5 10.6665C12.3674 10.6665 12.2402 10.6138 12.1464 10.5201C12.0527 10.4263 12 10.2991 12 10.1665V9.5C12 9.36739 12.0527 9.24021 12.1464 9.14645C12.2402 9.05268 12.3674 9 12.5 9C12.6326 9 12.7598 9.05268 12.8536 9.14645C12.9473 9.24021 13 9.36739 13 9.5V10.1665C13 10.2991 12.9473 10.4263 12.8536 10.5201C12.7598 10.6138 12.6326 10.6665 12.5 10.6665ZM17 13H15C14.8674 13 14.7402 12.9473 14.6464 12.8536C14.5527 12.7598 14.5 12.6326 14.5 12.5C14.5 12.3674 14.5527 12.2402 14.6464 12.1464C14.7402 12.0527 14.8674 12 15 12H17C17.1326 12 17.2598 12.0527 17.3536 12.1464C17.4473 12.2402 17.5 12.3674 17.5 12.5C17.5 12.6326 17.4473 12.7598 17.3536 12.8536C17.2598 12.9473 17.1326 13 17 13ZM13.5 13H9C8.86739 13 8.74021 12.9473 8.64645 12.8536C8.55268 12.7598 8.5 12.6326 8.5 12.5C8.5 12.3674 8.55268 12.2402 8.64645 12.1464C8.74021 12.0527 8.86739 12 9 12H13.5C13.6326 12 13.7598 12.0527 13.8536 12.1464C13.9473 12.2402 14 12.3674 14 12.5C14 12.6326 13.9473 12.7598 13.8536 12.8536C13.7598 12.9473 13.6326 13 13.5 13ZM10.5 15.5H9C8.86739 15.5 8.74021 15.4473 8.64645 15.3536C8.55268 15.2598 8.5 15.1326 8.5 15C8.5 14.8674 8.55268 14.7402 8.64645 14.6464C8.74021 14.5527 8.86739 14.5 9 14.5H10.5C10.6326 14.5 10.7598 14.5527 10.8536 14.6464C10.9473 14.7402 11 14.8674 11 15C11 15.1326 10.9473 15.2598 10.8536 15.3536C10.7598 15.4473 10.6326 15.5 10.5 15.5ZM17 15.5H12C11.8674 15.5 11.7402 15.4473 11.6464 15.3536C11.5527 15.2598 11.5 15.1326 11.5 15C11.5 14.8674 11.5527 14.7402 11.6464 14.6464C11.7402 14.5527 11.8674 14.5 12 14.5H17C17.1326 14.5 17.2598 14.5527 17.3536 14.6464C17.4473 14.7402 17.5 14.8674 17.5 15C17.5 15.1326 17.4473 15.2598 17.3536 15.3536C17.2598 15.4473 17.1326 15.5 17 15.5Z" fill="black"/>
</svg>
