<svg width="25" height="25" viewBox="0 0 25 25" fill="none" xmlns="http://www.w3.org/2000/svg">
<path d="M22.5 19H4.5C4.36739 19 4.24021 18.9473 4.14645 18.8536C4.05268 18.7598 4 18.6326 4 18.5V8.5C4 8.36739 4.05268 8.24021 4.14645 8.14645C4.24021 8.05268 4.36739 8 4.5 8H22.5C22.6326 8 22.7598 8.05268 22.8536 8.14645C22.9473 8.24021 23 8.36739 23 8.5V18.5C23 18.6326 22.9473 18.7598 22.8536 18.8536C22.7598 18.9473 22.6326 19 22.5 19ZM5 18H22V9H5V18Z" fill="black"/>
<path d="M2.5 17C2.36739 17 2.24021 16.9473 2.14645 16.8536C2.05268 16.7598 2 16.6326 2 16.5V6.5C2 6.36739 2.05268 6.24021 2.14645 6.14645C2.24021 6.05268 2.36739 6 2.5 6H20.5C20.6326 6 20.7598 6.05268 20.8536 6.14645C20.9473 6.24021 21 6.36739 21 6.5C21 6.63261 20.9473 6.75979 20.8536 6.85355C20.7598 6.94732 20.6326 7 20.5 7H3V16.5C3 16.6326 2.94732 16.7598 2.85355 16.8536C2.75979 16.9473 2.63261 17 2.5 17Z" fill="black"/>
<path d="M13.5 12C13.3674 12 13.2402 11.9473 13.1464 11.8536C13.0527 11.7598 13 11.6326 13 11.5V10.5C13 10.3674 13.0527 10.2402 13.1464 10.1464C13.2402 10.0527 13.3674 10 13.5 10C13.6326 10 13.7598 10.0527 13.8536 10.1464C13.9473 10.2402 14 10.3674 14 10.5V11.5C14 11.6326 13.9473 11.7598 13.8536 11.8536C13.7598 11.9473 13.6326 12 13.5 12ZM13.5 17C13.3674 17 13.2402 16.9473 13.1464 16.8536C13.0527 16.7598 13 16.6326 13 16.5V15.5C13 15.3674 13.0527 15.2402 13.1464 15.1464C13.2402 15.0527 13.3674 15 13.5 15C13.6326 15 13.7598 15.0527 13.8536 15.1464C13.9473 15.2402 14 15.3674 14 15.5V16.5C14 16.6326 13.9473 16.7598 13.8536 16.8536C13.7598 16.9473 13.6326 17 13.5 17Z" fill="black"/>
<path d="M14 16H12.5C12.3674 16 12.2402 15.9473 12.1464 15.8536C12.0527 15.7598 12 15.6326 12 15.5C12 15.3674 12.0527 15.2402 12.1464 15.1464C12.2402 15.0527 12.3674 15 12.5 15H14C14.1326 15 14.2598 14.9473 14.3536 14.8536C14.4473 14.7598 14.5 14.6326 14.5 14.5C14.5 14.3674 14.4473 14.2402 14.3536 14.1464C14.2598 14.0527 14.1326 14 14 14H13C12.6022 14 12.2206 13.842 11.9393 13.5607C11.658 13.2794 11.5 12.8978 11.5 12.5C11.5 12.1022 11.658 11.7206 11.9393 11.4393C12.2206 11.158 12.6022 11 13 11H14.46C14.5926 11 14.7198 11.0527 14.8136 11.1464C14.9073 11.2402 14.96 11.3674 14.96 11.5C14.96 11.6326 14.9073 11.7598 14.8136 11.8536C14.7198 11.9473 14.5926 12 14.46 12H13C12.8674 12 12.7402 12.0527 12.6464 12.1464C12.5527 12.2402 12.5 12.3674 12.5 12.5C12.5 12.6326 12.5527 12.7598 12.6464 12.8536C12.7402 12.9473 12.8674 13 13 13H14C14.3978 13 14.7794 13.158 15.0607 13.4393C15.342 13.7206 15.5 14.1022 15.5 14.5C15.5 14.8978 15.342 15.2794 15.0607 15.5607C14.7794 15.842 14.3978 16 14 16Z" fill="black"/>
</svg>
