<svg width="32" height="32" viewBox="0 0 32 32" fill="none" xmlns="http://www.w3.org/2000/svg">
<path d="M28.8155 8.36499H3.18555C2.52251 8.36499 1.88662 8.62838 1.41778 9.09722C0.948939 9.56606 0.685547 10.2019 0.685547 10.865V21.14C0.685547 21.803 0.948939 22.4389 1.41778 22.9078C1.88662 23.3766 2.52251 23.64 3.18555 23.64H28.8155C29.4786 23.64 30.1145 23.3766 30.5833 22.9078C31.0522 22.4389 31.3155 21.803 31.3155 21.14V10.86C31.3142 10.1978 31.0502 9.56322 30.5816 9.09546C30.1129 8.6277 29.4777 8.36499 28.8155 8.36499ZM29.7006 21.14C29.694 21.3703 29.5979 21.5891 29.4327 21.7497C29.2674 21.9103 29.046 22.0001 28.8155 22H3.18555C2.9551 22.0001 2.7337 21.9103 2.56843 21.7497C2.40316 21.5891 2.30706 21.3703 2.30055 21.14L2.30055 14.5C2.30055 13.6602 2.30055 13.8033 2.30055 13.6144C2.30055 13.3086 2.30055 13.5664 2.30055 13.2461C2.30055 13.2461 2.30055 13.1819 2.30055 12.9379C2.30055 12.6939 2.30253 12.6628 2.30055 12.5C2.30055 12.1738 2.30055 11.983 2.30055 11.7622C2.30055 11.5415 2.30055 11.6302 2.30055 11.27L2.30055 10.845C2.31085 10.6173 2.40862 10.4023 2.57349 10.2449C2.73835 10.0875 2.9576 9.99976 3.18555 9.99999H28.8155C29.0503 9.99999 29.2754 10.0932 29.4413 10.2592C29.6073 10.4252 29.7006 10.6503 29.7006 10.885V21.14Z" fill="black" stroke="white"/>
<path d="M21.2557 15.74H10.7007C10.3666 15.74 10.0957 16.0109 10.0957 16.345C10.0957 16.6791 10.3666 16.95 10.7007 16.95H21.2557C21.5898 16.95 21.8607 16.6791 21.8607 16.345C21.8607 16.0109 21.5898 15.74 21.2557 15.74Z" fill="black"/>
<path d="M19.2007 18.84H10.7007C10.3666 18.84 10.0957 19.1108 10.0957 19.445C10.0957 19.7791 10.3666 20.05 10.7007 20.05H19.2007C19.5348 20.05 19.8057 19.7791 19.8057 19.445C19.8057 19.1108 19.5348 18.84 19.2007 18.84Z" fill="black"/>
<path d="M19.105 12H10.605C10.2709 12 10 12.2709 10 12.605C10 12.9391 10.2709 13.21 10.605 13.21H19.105C19.4391 13.21 19.71 12.9391 19.71 12.605C19.71 12.2709 19.4391 12 19.105 12Z" fill="black"/>
<path d="M5.965 13.05C5.4033 13.05 4.85422 13.2166 4.38718 13.5287C3.92015 13.8407 3.55614 14.2843 3.34118 14.8032C3.12623 15.3222 3.06999 15.8932 3.17957 16.4441C3.28915 16.995 3.55964 17.5011 3.95682 17.8982C4.354 18.2954 4.86004 18.5659 5.41094 18.6755C5.96185 18.7851 6.53288 18.7288 7.05182 18.5139C7.57076 18.2989 8.01431 17.9349 8.32638 17.4679C8.63844 17.0008 8.805 16.4517 8.805 15.89C8.80368 15.1372 8.50404 14.4156 7.97172 13.8833C7.43941 13.351 6.71781 13.0514 5.965 13.05ZM6.86 17.255C6.71622 17.4177 6.52881 17.5357 6.32 17.595V18.16H5.6V17.66C5.35555 17.6335 5.12084 17.5496 4.915 17.4151L4.79 17.325L5.05 16.6L5.265 16.745C5.44679 16.8625 5.65859 16.925 5.875 16.925C6.11 16.925 6.27 16.81 6.27 16.635C6.27 16.46 6.195 16.375 5.83 16.225C5.36 16.04 4.875 15.77 4.875 15.17C4.87517 14.9467 4.9501 14.7299 5.08784 14.5541C5.22558 14.3783 5.4182 14.2536 5.635 14.2V13.65H6.35V14.15C6.5457 14.1762 6.73431 14.2408 6.905 14.34L7.055 14.425L6.785 15.135L6.575 15C6.41389 14.9023 6.22844 14.852 6.04 14.855C5.735 14.855 5.71 15.03 5.71 15.085C5.71 15.14 5.745 15.28 6.21 15.47C6.835 15.725 7.115 16.065 7.115 16.575C7.11677 16.8245 7.02793 17.0661 6.865 17.255H6.86ZM22.195 19.84H28.965V20.245H22.195V19.84ZM25.5 18.7901C25.5039 18.8343 25.4922 18.8784 25.4669 18.9149C25.4416 18.9514 25.4043 18.9779 25.3616 18.9897C25.3188 19.0016 25.2732 18.9982 25.2328 18.9799C25.1923 18.9617 25.1595 18.9299 25.14 18.89L25.11 18.835C25.0702 18.751 25.0546 18.6575 25.065 18.5651C25.067 18.5484 25.067 18.5317 25.065 18.515C24.9849 17.9284 24.7877 17.3639 24.485 16.855C24.4239 16.723 24.3199 16.6155 24.19 16.55C24.01 16.495 23.8 16.66 23.69 16.84C23.4057 17.3639 23.2937 17.964 23.37 18.555C23.3714 18.6046 23.3533 18.6527 23.3197 18.6892C23.2861 18.7256 23.2395 18.7475 23.19 18.75C23.165 18.7507 23.1402 18.7465 23.1169 18.7375C23.0936 18.7286 23.0723 18.7151 23.0542 18.698C23.0361 18.6808 23.0215 18.6602 23.0114 18.6374C23.0012 18.6146 22.9957 18.59 22.995 18.5651C22.9177 17.8886 23.0541 17.205 23.385 16.61C23.4778 16.4431 23.6213 16.3099 23.7948 16.2299C23.9683 16.1499 24.1627 16.1272 24.35 16.165C24.572 16.2653 24.7498 16.4431 24.85 16.665C25.1147 17.1115 25.3055 17.5977 25.415 18.105H25.465C25.6945 18.0231 25.9428 18.0092 26.18 18.0651C26.3444 18.1036 26.5156 18.1036 26.68 18.0651C26.7446 18.0395 26.8066 18.0077 26.865 17.97C26.9293 17.9306 26.9961 17.8955 27.065 17.865C27.2225 17.8029 27.3932 17.7818 27.5611 17.8036C27.729 17.8255 27.8887 17.8896 28.025 17.99C28.0478 18.0078 28.0663 18.0306 28.0791 18.0566C28.0918 18.0826 28.0984 18.1111 28.0984 18.14C28.0984 18.169 28.0918 18.1975 28.0791 18.2235C28.0663 18.2495 28.0478 18.2723 28.025 18.2901C27.9916 18.3144 27.9513 18.3276 27.91 18.3276C27.8687 18.3276 27.8284 18.3144 27.795 18.2901C27.7157 18.233 27.6234 18.1966 27.5264 18.1844C27.4295 18.1722 27.331 18.1844 27.24 18.22C27.1884 18.2436 27.1383 18.2703 27.09 18.3C27.0095 18.3503 26.924 18.3922 26.835 18.425C26.6085 18.4816 26.3715 18.4816 26.145 18.425C25.9815 18.3794 25.8085 18.3794 25.645 18.425C25.5896 18.4331 25.5386 18.4595 25.5 18.5C25.4802 18.5194 25.465 18.5428 25.4555 18.5688C25.446 18.5948 25.4424 18.6225 25.445 18.65V18.7451L25.5 18.7901Z" fill="black"/>
</svg>
