<svg width="22" height="20" viewBox="0 0 22 20" fill="none" xmlns="http://www.w3.org/2000/svg">
<path d="M18.2771 14.5531L18.4005 14.7093L18.2771 14.5531L16.6829 15.8125C16.5159 15.9444 16.4201 16.1288 16.4201 16.3256C16.4201 16.5224 16.5159 16.7068 16.6829 16.8387C17.0046 17.0929 17.5109 17.0929 17.8326 16.8387C17.8326 16.8387 17.8326 16.8387 17.8326 16.8387L18.0078 16.7003C17.927 17.4718 17.0925 18.1406 15.9824 18.1406H14.707C14.2909 18.1406 13.8693 18.4143 13.8693 18.8443C13.8693 19.2744 14.2909 19.5481 14.707 19.5481H15.9824C17.9372 19.5481 19.6108 18.3182 19.6869 16.6931L19.8713 16.8387C20.193 17.0929 20.6993 17.0929 21.021 16.8387C21.1881 16.7068 21.2838 16.5224 21.2838 16.3256C21.2838 16.1288 21.1881 15.9444 21.021 15.8125L19.4268 14.5531L19.3042 14.7083L19.4268 14.5531C19.1051 14.299 18.5988 14.299 18.2771 14.5531Z" fill="#FF8926" stroke="white" stroke-width="0.4"/>
<path d="M16.4444 9.18182V13.5455H17.2222C17.6518 13.5455 18 13.8711 18 14.2727C18 14.6744 17.6518 15 17.2222 15H4.77778C4.34822 15 4 14.6744 4 14.2727C4 13.8711 4.34822 13.5455 4.77778 13.5455H5.55556V9.18182H4.77778C4.34822 9.18182 4 8.85621 4 8.45454V6.63636C4 6.36089 4.16645 6.10907 4.42995 5.98587L10.6522 3.07678C10.8711 2.97441 11.1289 2.97441 11.3478 3.07678L17.57 5.98587C17.8335 6.10907 18 6.36089 18 6.63636V8.45454C18 8.85621 17.6518 9.18182 17.2222 9.18182H16.4444ZM14.8889 9.18182H13.3333V13.5455H14.8889V9.18182ZM11.7778 9.18182H10.2222V13.5455H11.7778V9.18182ZM8.66667 9.18182H7.11111V13.5455H8.66667V9.18182ZM5.55556 7.72727H16.4444V7.08584L11 4.54038L5.55556 7.08584V7.72727Z" fill="#FF8926"/>
<path d="M2.31388 3.49042L2.12961 3.34473C1.80787 3.09035 1.30146 3.09035 0.979722 3.34473C0.812707 3.47678 0.716992 3.66128 0.716992 3.85813C0.716992 4.05498 0.812707 4.23948 0.979722 4.37153L1.10376 4.21464L0.979722 4.37153L2.57393 5.632C2.89566 5.88638 3.40208 5.88638 3.72381 5.632L5.31802 4.37153C5.48503 4.23948 5.58075 4.05498 5.58075 3.85813C5.58075 3.66128 5.48503 3.47678 5.31802 3.34473C4.99628 3.09035 4.48987 3.09035 4.16813 3.34473C4.16813 3.34473 4.16813 3.34473 4.16813 3.34473L3.99297 3.48322C4.0737 2.71078 4.90838 2.04138 6.01844 2.04138H7.29381C7.7101 2.04138 8.13149 1.76735 8.13149 1.33719C8.13149 0.907043 7.7101 0.633008 7.29381 0.633008H6.01844C4.06339 0.633008 2.3899 1.86413 2.31388 3.49042Z" fill="#FF8926" stroke="white" stroke-width="0.4"/>
</svg>