<svg width="20" height="20" viewBox="0 0 20 20" fill="none" xmlns="http://www.w3.org/2000/svg">
<path d="M1.17647 18.8235V15.2941H0.588235C0.263362 15.2941 0 15.0308 0 14.7059V13.2353C0 13.0125 0.125889 12.8088 0.325174 12.7092L5.03106 10.3562C5.19666 10.2734 5.39157 10.2734 5.55718 10.3562L10.2631 12.7092C10.4623 12.8088 10.5882 13.0125 10.5882 13.2353V14.7059C10.5882 15.0308 10.3249 15.2941 10 15.2941H9.41177V18.8235H10C10.3249 18.8235 10.5882 19.0869 10.5882 19.4118C10.5882 19.7366 10.3249 20 10 20H0.588235C0.263362 20 0 19.7366 0 19.4118C0 19.0869 0.263362 18.8235 0.588235 18.8235H1.17647ZM1.17647 14.1176H9.41177V13.5988L5.29412 11.54L1.17647 13.5988V14.1176ZM8.23529 18.8235V15.2941H7.05882V18.8235H8.23529ZM5.88235 15.2941H4.70588V18.8235H5.88235V15.2941ZM3.52941 15.2941H2.35294V18.8235H3.52941V15.2941ZM18.8235 5V8.52941H19.4118C19.7366 8.52941 20 8.79277 20 9.11765C20 9.44252 19.7366 9.70588 19.4118 9.70588H10C9.67513 9.70588 9.41177 9.44252 9.41177 9.11765C9.41177 8.79277 9.67513 8.52941 10 8.52941H10.5882V5H10C9.67513 5 9.41177 4.73664 9.41177 4.41176V2.94118C9.41177 2.71837 9.53765 2.51469 9.73694 2.41504L14.4428 0.0621018C14.6084 -0.0207006 14.8033 -0.0207006 14.9689 0.0621018L19.6748 2.41504C19.8741 2.51469 20 2.71837 20 2.94118V4.41176C20 4.73664 19.7366 5 19.4118 5H18.8235ZM17.6471 5H16.4706V8.52941H17.6471V5ZM15.2941 5H14.1176V8.52941H15.2941V5ZM12.9412 5H11.7647V8.52941H12.9412V5ZM10.5882 3.82353H18.8235V3.30472L14.7059 1.2459L10.5882 3.30472V3.82353ZM16.1765 14.0672L15.7101 14.5336C15.4803 14.7633 15.1079 14.7633 14.8782 14.5336C14.6485 14.3039 14.6485 13.9314 14.8782 13.7017L16.3488 12.2311C16.5785 12.0014 16.9509 12.0014 17.1806 12.2311L18.6512 13.7017C18.881 13.9314 18.881 14.3039 18.6512 14.5336C18.4215 14.7633 18.0491 14.7633 17.8194 14.5336L17.3529 14.0672V14.4118C17.3529 16.1986 15.9045 17.6471 14.1176 17.6471H12.9412C12.6163 17.6471 12.3529 17.3837 12.3529 17.0588C12.3529 16.734 12.6163 16.4706 12.9412 16.4706H14.1176C15.2547 16.4706 16.1765 15.5488 16.1765 14.4118V14.0672ZM2.64706 5.93281V5.58823C2.64706 3.80143 4.09555 2.35294 5.88235 2.35294H7.05882C7.3837 2.35294 7.64706 2.6163 7.64706 2.94118C7.64706 3.26605 7.3837 3.52941 7.05882 3.52941H5.88235C4.7453 3.52941 3.82353 4.45118 3.82353 5.58823V5.93281L4.28995 5.46641C4.51967 5.23669 4.8921 5.23669 5.12182 5.46641C5.35154 5.69613 5.35154 6.06858 5.12182 6.2983L3.65123 7.76889C3.42151 7.99861 3.04908 7.99861 2.81936 7.76889L1.34877 6.2983C1.11905 6.06858 1.11905 5.69613 1.34877 5.46641C1.57849 5.23669 1.95092 5.23669 2.18064 5.46641L2.64706 5.93281Z" fill="#FF8926"/>
</svg>