<svg width="25" height="22" viewBox="0 0 25 22" fill="none" xmlns="http://www.w3.org/2000/svg">
<path d="M18.4728 9.16439V15.2804H19.6274C20.265 15.2804 20.782 15.7368 20.782 16.2998C20.782 16.8627 20.265 17.3191 19.6274 17.3191H1.15455C0.516911 17.3191 0 16.8627 0 16.2998C0 15.7368 0.516911 15.2804 1.15455 15.2804H2.30911V9.16439H1.15455C0.516911 9.16439 0 8.70802 0 8.14505V5.5967C0 5.2106 0.247087 4.85765 0.638232 4.68498L9.87465 0.607615C10.1997 0.464128 10.5823 0.464128 10.9073 0.607615L20.1437 4.68498C20.5349 4.85765 20.782 5.2106 20.782 5.5967V8.14505C20.782 8.70802 20.265 9.16439 19.6274 9.16439H18.4728ZM16.1637 9.16439H13.8546V15.2804H16.1637V9.16439ZM11.5455 9.16439H9.23642V15.2804H11.5455V9.16439ZM6.92732 9.16439H4.61821V15.2804H6.92732V9.16439ZM2.30911 7.12571H18.4728V6.22668L10.391 2.65899L2.30911 6.22668V7.12571Z" fill="#FF8926"/>
<rect x="10.5531" y="11.7006" width="13.166" height="9.53296" rx="0.9" fill="white" stroke="#FF8926" stroke-width="0.2"/>
<path d="M22.913 21.4998H11.2913C10.7023 21.4998 10.2266 21.0013 10.2266 20.3841V12.479C10.2266 11.8618 10.7023 11.3633 11.2913 11.3633H22.9356C23.5246 11.3633 24.0004 11.8618 24.0004 12.479V20.3841C23.9777 21.0013 23.502 21.4998 22.913 21.4998ZM11.3895 11.9527C11.0497 11.9527 10.7778 12.2376 10.7778 12.5937V20.2695C10.7778 20.6255 11.0497 20.9104 11.3895 20.9104H22.7921C23.132 20.9104 23.4038 20.6255 23.4038 20.2695V12.5937C23.4038 12.2376 23.132 11.9527 22.7921 11.9527H11.3895Z" fill="#FF8926" stroke="#FF8926" stroke-width="0.2"/>
<path d="M19.6962 16.1963C18.9486 16.1963 18.3369 15.5554 18.3369 14.772C18.3369 13.9886 18.9486 13.3477 19.6962 13.3477C20.4438 13.3477 21.0554 13.9886 21.0554 14.772C21.0554 15.5554 20.4438 16.1963 19.6962 16.1963ZM19.6962 13.8224C19.1978 13.8224 18.79 14.2497 18.79 14.772C18.79 15.2942 19.1978 15.7215 19.6962 15.7215C20.1946 15.7215 20.6023 15.2942 20.6023 14.772C20.6023 14.2497 20.1946 13.8224 19.6962 13.8224Z" fill="#FF8926" stroke="#FF8926" stroke-width="0.2"/>
<path d="M21.2597 16.1963C20.8972 16.1963 20.58 16.0539 20.3082 15.7928C20.2176 15.6978 20.2176 15.5554 20.3082 15.4604C20.3988 15.3655 20.5347 15.3655 20.6254 15.4604C20.7839 15.6266 21.0105 15.7215 21.2597 15.7215C21.7581 15.7215 22.1658 15.2942 22.1658 14.772C22.1658 14.2497 21.7581 13.8224 21.2597 13.8224C21.0331 13.8224 20.8066 13.9174 20.6254 14.0836C20.5347 14.1785 20.3988 14.1785 20.3082 14.0836C20.2176 13.9886 20.2176 13.8462 20.3082 13.7512C20.5574 13.4901 20.8972 13.3477 21.2597 13.3477C22.0073 13.3477 22.6189 13.9886 22.6189 14.772C22.6189 15.5554 22.0073 16.1963 21.2597 16.1963Z" fill="#FF8926" stroke="#FF8926" stroke-width="0.2"/>
<path d="M22.369 19.4995H21.2136C21.0777 19.4995 20.9871 19.3801 20.9871 19.2009C20.9871 19.0218 21.0777 18.9023 21.2136 18.9023H22.369C22.5049 18.9023 22.5955 19.0218 22.5955 19.2009C22.5955 19.3801 22.5049 19.4995 22.369 19.4995ZM20.0583 19.4995H18.9029C18.767 19.4995 18.6764 19.3801 18.6764 19.2009C18.6764 19.0218 18.767 18.9023 18.9029 18.9023H20.0583C20.1942 18.9023 20.2848 19.0218 20.2848 19.2009C20.2848 19.3801 20.1942 19.4995 20.0583 19.4995ZM17.7475 19.4995H16.5922C16.4562 19.4995 16.3656 19.3801 16.3656 19.2009C16.3656 19.0218 16.4562 18.9023 16.5922 18.9023H17.7475C17.8835 18.9023 17.9741 19.0218 17.9741 19.2009C17.9741 19.3801 17.8835 19.4995 17.7475 19.4995ZM15.4368 19.4995H14.2814C14.1455 19.4995 14.0549 19.3801 14.0549 19.2009C14.0549 19.0218 14.1455 18.9023 14.2814 18.9023H15.4368C15.5727 18.9023 15.6633 19.0218 15.6633 19.2009C15.6633 19.3801 15.5501 19.4995 15.4368 19.4995ZM13.1261 19.4995H11.9707C11.8348 19.4995 11.7441 19.3801 11.7441 19.2009C11.7441 19.0218 11.8348 18.9023 11.9707 18.9023H13.1261C13.262 18.9023 13.3526 19.0218 13.3526 19.2009C13.3526 19.3801 13.2393 19.4995 13.1261 19.4995Z" fill="#FF8926" stroke="#FF8926" stroke-width="0.2"/>
<path d="M15.9807 14.7046H12.6279C12.492 14.7046 12.4014 14.5852 12.4014 14.406C12.4014 14.2269 12.492 14.1074 12.6279 14.1074H15.9807C16.1167 14.1074 16.2073 14.2269 16.2073 14.406C16.2073 14.5852 16.094 14.7046 15.9807 14.7046Z" fill="#FF8926" stroke="#FF8926" stroke-width="0.2"/>
<path d="M15.0972 15.7964H12.6279C12.492 15.7964 12.4014 15.677 12.4014 15.4978C12.4014 15.3187 12.492 15.1992 12.6279 15.1992H15.0972C15.2332 15.1992 15.3238 15.3187 15.3238 15.4978C15.3238 15.677 15.2105 15.7964 15.0972 15.7964Z" fill="#FF8926" stroke="#FF8926" stroke-width="0.2"/>
</svg>
