<svg width="18" height="31" viewBox="0 0 18 31" fill="none" xmlns="http://www.w3.org/2000/svg">
<path d="M8.96875 31C13.9141 31 17.9375 26.9766 17.9375 22.0312C17.9375 17.0859 13.9141 13.0625 8.96875 13.0625C4.02338 13.0625 0 17.0859 0 22.0312C0 26.9766 4.02338 31 8.96875 31ZM8.96875 14.0875C13.3488 14.0875 16.9125 17.6512 16.9125 22.0312C16.9125 26.4113 13.3488 29.975 8.96875 29.975C4.58867 29.975 1.025 26.4113 1.025 22.0312C1.025 17.6512 4.58867 14.0875 8.96875 14.0875Z" fill="#0D0D0D"/>
<path d="M8.9687 24.8043C8.32679 24.8043 7.8043 24.2962 7.8043 23.6715H6.7793C6.7793 24.6872 7.49577 25.539 8.4562 25.7673V26.6335H9.4812V25.7673C10.4416 25.539 11.1581 24.6872 11.1581 23.6712C11.1581 22.4814 10.1759 21.5136 8.9687 21.5136C8.32679 21.5136 7.8043 21.0052 7.8043 20.3807C7.8043 19.756 8.32679 19.2476 8.9687 19.2476C9.6106 19.2476 10.1331 19.756 10.1331 20.3807H11.1581C11.1581 19.3649 10.4416 18.5131 9.4812 18.2846V17.4187H8.4562V18.2848C7.49577 18.5129 6.7793 19.3649 6.7793 20.3807C6.7793 21.5705 7.7615 22.5383 8.9687 22.5383C9.6106 22.5383 10.1331 23.0467 10.1331 23.6715C10.1331 24.2962 9.6106 24.8043 8.9687 24.8043Z" fill="#0D0D0D"/>
<path d="M8.60063 5.28654L8.4375 5.45529V10.9359C8.4375 11.0851 8.49679 11.2282 8.60226 11.3337C8.70773 11.4391 8.85083 11.4984 9 11.4984C9.14917 11.4984 9.29227 11.4391 9.39774 11.3337C9.50321 11.2282 9.5625 11.0851 9.5625 10.9359V5.45529L9.39938 5.28654C9.34706 5.23383 9.28485 5.19198 9.21634 5.16341C9.14777 5.13483 9.07425 5.12015 9 5.12015C8.92575 5.12015 8.85223 5.13483 8.78366 5.16341C8.71515 5.19198 8.65294 5.23383 8.60063 5.28654Z" fill="#0D0D0D"/>
<path d="M4.62299 8.47039C4.6753 8.52309 4.73751 8.56494 4.80603 8.59346C4.87459 8.62204 4.94811 8.63672 5.02236 8.63672C5.09661 8.63672 5.17013 8.62204 5.2387 8.59346C5.30721 8.56494 5.36942 8.52309 5.42174 8.47039L8.43674 5.45539L8.59986 5.28664C8.65218 5.23387 8.71439 5.19202 8.7829 5.16351C8.85147 5.13493 8.92499 5.12025 8.99924 5.12025C9.07349 5.12025 9.14701 5.13493 9.21557 5.16351C9.28409 5.19202 9.3463 5.23387 9.39861 5.28664L9.56174 5.45539L12.5767 8.47039C12.629 8.52309 12.6912 8.56494 12.7598 8.59346C12.8283 8.62204 12.9019 8.63672 12.9761 8.63672C13.0504 8.63672 13.1239 8.62204 13.1924 8.59346C13.261 8.56494 13.3232 8.52309 13.3755 8.47039C13.4803 8.36497 13.5391 8.22238 13.5391 8.07382C13.5391 7.92521 13.4803 7.78262 13.3755 7.67726L10.1917 4.49351C9.87533 4.17744 9.44642 3.99997 8.99924 3.99997C8.55205 3.99997 8.12314 4.17744 7.80674 4.49351L4.62299 7.67726C4.51825 7.78262 4.45941 7.92521 4.45941 8.07382C4.45941 8.22238 4.51825 8.36497 4.62299 8.47039Z" fill="#0D0D0D"/>
</svg>
