<svg width="22" height="14" viewBox="0 0 22 14" fill="none" xmlns="http://www.w3.org/2000/svg">
<path d="M20.4917 0H1.53059C0.685341 0 0 1.04985 0 1.82144V12.6028C0 13.3744 0.685341 14 1.53059 14H20.4688C21.3141 14 21.9994 13.3744 21.9994 12.6028V1.82144C22.0223 1.04985 21.3369 0 20.4917 0ZM21 12.0068C21 12.5564 20.5564 13.003 20.0068 13.0068L2.17427 13.1289C1.61932 13.1327 1.16742 12.6839 1.16742 12.1289V2C1.16742 1.44772 1.61513 1 2.16742 1H20C20.5523 1 21 1.44772 21 2V12.0068ZM6.4879 9.16666C6.25945 9.4169 5.98531 9.58373 5.64264 9.66715C5.50557 9.70885 5.43704 9.77142 5.43704 9.91739C5.43704 10.0634 5.43704 10.1885 5.43704 10.3345C5.43704 10.4596 5.3685 10.5222 5.23144 10.5222C5.07152 10.5222 4.91161 10.5222 4.7517 10.5222C4.61463 10.5222 4.5461 10.4387 4.5461 10.3136C4.5461 10.2093 4.5461 10.1051 4.5461 10.0217C4.5461 9.79227 4.5461 9.79227 4.2948 9.75056C3.99782 9.70885 3.70084 9.64629 3.4267 9.52117C3.2211 9.4169 3.19826 9.3752 3.24395 9.16666C3.28964 9.02068 3.33533 8.85385 3.38102 8.70788C3.44955 8.54105 3.49524 8.52019 3.678 8.60361C3.97498 8.74958 4.2948 8.833 4.63747 8.87471C4.84308 8.89556 5.07152 8.87471 5.27713 8.79129C5.64264 8.64532 5.71117 8.2491 5.39135 7.99885C5.27713 7.91544 5.1629 7.85288 5.02583 7.81117C4.70601 7.68605 4.36334 7.58178 4.04351 7.41495C3.54093 7.14385 3.2211 6.76848 3.26679 6.20543C3.31248 5.57982 3.70084 5.1836 4.34049 4.97507C4.59178 4.89165 4.61463 4.89165 4.61463 4.64141C4.61463 4.55799 4.61463 4.47458 4.61463 4.39116C4.61463 4.20348 4.66032 4.16177 4.86592 4.16177C4.93445 4.16177 5.00299 4.16177 5.04868 4.16177C5.48273 4.16177 5.48273 4.16177 5.48273 4.55799C5.48273 4.84994 5.48273 4.84994 5.80255 4.89165C6.031 4.93336 6.25945 4.99592 6.4879 5.07933C6.60212 5.12104 6.64781 5.20446 6.62496 5.32958C6.57927 5.49641 6.51074 5.68409 6.46505 5.85092C6.41936 6.01775 6.35083 6.0386 6.19091 5.95519C5.84824 5.80921 5.48273 5.74665 5.11721 5.76751C5.02583 5.76751 4.91161 5.78836 4.82023 5.83007C4.50041 5.95519 4.43187 6.28885 4.72885 6.49739C4.86592 6.60165 5.02583 6.66421 5.18575 6.72678C5.48273 6.83104 5.75686 6.93531 6.031 7.08129C6.85341 7.47751 7.1047 8.47849 6.4879 9.16666ZM18.1844 4.34945V5.01677C18.1844 5.12104 18.093 5.22531 17.9559 5.22531H8.6353C8.52107 5.22531 8.40685 5.1419 8.40685 5.01677V4.34945C8.40685 4.24519 8.49823 4.14092 8.6353 4.14092H17.9559C18.093 4.14092 18.1844 4.24519 18.1844 4.34945ZM8.42969 6.76848V6.10116C8.42969 5.9969 8.52107 5.89263 8.65814 5.89263H14.0038C14.118 5.89263 14.2322 5.97604 14.2322 6.10116V6.76848C14.2322 6.87275 14.1409 6.97702 14.0038 6.97702H8.6353C8.52107 6.97702 8.42969 6.89361 8.42969 6.76848ZM18.0473 8.2908C18.093 8.37422 18.0702 8.45763 18.0473 8.54105C18.0473 8.5619 18.0016 8.64532 17.9331 8.70788C17.8646 8.77044 17.796 8.833 17.6818 8.85385C17.3163 8.99983 16.9051 9.12495 16.4482 9.18751C16.0827 9.25007 15.7628 9.1458 15.5344 8.93727L15.4202 8.99983C15.2146 9.08324 15.0318 9.1458 14.8491 9.22922C14.6206 9.33349 14.415 9.43776 14.1866 9.56288C14.0266 9.64629 13.8439 9.72971 13.684 9.81312C13.5469 9.87569 13.387 9.93825 13.2271 9.97995C12.9986 10.0425 12.7702 9.97995 12.6331 9.83398C12.5189 9.72971 12.4732 9.58373 12.4961 9.43776C12.4961 9.4169 12.4961 9.39605 12.4961 9.3752C12.1534 9.60459 11.8336 9.85483 11.4909 10.0842C11.2853 10.2302 11.1025 10.3345 10.8969 10.4596C10.7827 10.5221 10.6685 10.5639 10.5771 10.5847C10.2573 10.6473 9.96029 10.4804 9.86891 10.1885C9.82322 10.0008 9.86891 9.83398 9.89175 9.72971C9.9146 9.688 9.9146 9.62544 9.93744 9.58373C9.68615 9.85483 9.45771 10.1468 9.22926 10.4387L9.06935 10.6473C9.00081 10.7307 8.93228 10.8141 8.88659 10.8975C8.86374 10.9392 8.8409 11.0018 8.81805 11.0435L8.77236 11.1269V11.1478C8.72668 11.2937 8.58961 11.3772 8.42969 11.3772C8.40685 11.3772 8.384 11.3772 8.36116 11.3772C8.1784 11.3354 8.04133 11.1686 8.06418 11.0018C8.06418 10.9809 8.06418 10.9601 8.08702 10.9184C8.15556 10.689 8.26978 10.5013 8.384 10.3345C8.93228 9.50032 9.43486 8.85385 9.93744 8.26995C10.0974 8.08227 10.2801 7.91544 10.4629 7.74861L10.4857 7.72775C10.5771 7.64434 10.7142 7.56092 10.8512 7.54007C11.0568 7.47751 11.2624 7.54007 11.3995 7.66519C11.4909 7.76946 11.5594 7.91544 11.5366 8.06141C11.5137 8.18653 11.4909 8.33251 11.4452 8.43678C11.3767 8.60361 11.3081 8.77044 11.2396 8.93727C11.1939 9.06239 11.1482 9.18751 11.0797 9.31263C11.2396 9.18751 11.4223 9.06239 11.5823 8.91641C11.8107 8.72873 12.0392 8.5619 12.2904 8.37422C12.4275 8.26995 12.5646 8.20739 12.7017 8.12397L12.7702 8.08227C12.9073 8.0197 13.0443 8.0197 13.09 8.0197C13.2271 8.0197 13.3641 8.08227 13.4784 8.16568C13.5698 8.26995 13.6154 8.39507 13.6154 8.52019C13.6154 8.62446 13.5926 8.74958 13.5469 8.89556C13.5469 8.91641 13.5469 8.93727 13.5241 8.93727C13.6154 8.89556 13.684 8.85385 13.7754 8.79129C13.9124 8.70788 14.0495 8.62446 14.1866 8.5619C14.5521 8.35336 14.8719 8.20739 15.1917 8.10312C15.4659 8.0197 15.7172 8.01971 15.9228 8.14483C16.0141 8.20739 16.1055 8.26995 16.1969 8.37422C16.2197 8.39507 16.2197 8.39507 16.2654 8.39507C16.2883 8.39507 16.3111 8.39507 16.3111 8.39507C16.5167 8.37422 16.6995 8.2908 16.9051 8.22824L16.9965 8.20739C17.0421 8.18653 17.0878 8.16568 17.1335 8.16568C17.2021 8.14483 17.2706 8.10312 17.3391 8.08227C17.4305 8.04056 17.5447 8.04056 17.6133 8.0197C17.6361 8.0197 17.659 8.0197 17.6818 8.0197C17.7732 8.0197 17.8646 8.06141 17.8874 8.06141C17.9559 8.14483 18.0245 8.20739 18.0473 8.2908Z" fill="#FF8926"/>
</svg>
