<svg width="28" height="28" viewBox="0 0 28 28" fill="none" xmlns="http://www.w3.org/2000/svg">
<path d="M22.1409 0.00012207L28.0008 5.86001H1.83594V4.33944H24.3291L21.0656 1.07595L22.1409 0.00012207Z" fill="black"/>
<path d="M15.0292 12.0835H13.5425C13.3059 12.0835 13.079 12.1775 12.9117 12.3447C12.7444 12.512 12.6504 12.7389 12.6504 12.9755C12.6504 13.2121 12.7444 13.439 12.9117 13.6063C13.079 13.7736 13.3059 13.8676 13.5425 13.8676H14.1372C14.3738 13.8676 14.6007 13.9616 14.7679 14.1289C14.9352 14.2962 15.0292 14.5231 15.0292 14.7597C15.0292 14.9963 14.9352 15.2232 14.7679 15.3904C14.6007 15.5577 14.3738 15.6517 14.1372 15.6517H12.6504M13.8398 15.6517V16.5438M13.8398 11.1914V12.0835" stroke="black" stroke-width="0.736961" stroke-linecap="round" stroke-linejoin="round"/>
<path d="M5.85945 27.2695L6.93523 26.1937L3.67173 22.9302H26.1649V21.4097H0L5.85945 27.2695Z" fill="black"/>
<circle cx="13.6244" cy="13.6244" r="5.59567" stroke="black" stroke-width="1.45974"/>
</svg>
