<svg width="32" height="32" viewBox="0 0 32 32" fill="none" xmlns="http://www.w3.org/2000/svg">
<path d="M23.5125 21.246C23.0707 21.246 22.7125 20.8878 22.7125 20.446C22.7125 20.0042 23.0707 19.646 23.5125 19.646C23.9543 19.646 24.3125 20.0042 24.3125 20.446C24.3125 20.8878 23.9543 21.246 23.5125 21.246Z" fill="black"/>
<path d="M13.5074 15.4165C16.8939 13.874 19.6794 15.344 19.7969 15.4075C19.8546 15.4388 19.9056 15.4812 19.9469 15.5322C19.9882 15.5832 20.0191 15.6419 20.0378 15.7049C20.0564 15.7678 20.0625 15.8338 20.0557 15.8992C20.0488 15.9645 20.0292 16.0278 19.9979 16.0855C19.9665 16.1432 19.9242 16.1942 19.8731 16.2355C19.8221 16.2769 19.7634 16.3078 19.7005 16.3264C19.6375 16.3451 19.5715 16.3512 19.5062 16.3443C19.4409 16.3375 19.3776 16.3178 19.3199 16.2865C19.2959 16.274 16.8604 14.988 13.9219 16.3265C13.8025 16.3738 13.6695 16.3733 13.5504 16.3253C13.4313 16.2772 13.3352 16.1853 13.2821 16.0684C13.2289 15.9515 13.2227 15.8187 13.2647 15.6973C13.3067 15.576 13.3933 15.4755 13.5074 15.4165ZM16.6309 11.503C14.0114 11.503 11.8809 9.3715 11.8809 6.7515C11.8809 4.1315 14.0109 2 16.6309 2C19.2509 2 21.3809 4.1315 21.3809 6.7515C21.3809 9.3715 19.2504 11.503 16.6309 11.503ZM16.6309 3C14.5629 3 12.8809 4.683 12.8809 6.7515C12.8809 8.82 14.5629 10.503 16.6309 10.503C18.6989 10.503 20.3809 8.82 20.3809 6.7515C20.3809 4.683 18.6994 3 16.6309 3Z" fill="black"/>
<path d="M4.21466 16.0165C4.67716 14.943 5.44866 14.8045 6.01466 14.8755C6.92716 14.991 7.43166 15.6725 7.33167 16.654C7.26866 17.2675 6.88766 17.6795 6.28766 17.784C6.22229 17.7969 6.155 17.7967 6.08974 17.7832C6.02448 17.7697 5.96257 17.7434 5.90765 17.7056C5.85273 17.6679 5.80591 17.6196 5.76993 17.5635C5.73395 17.5074 5.70955 17.4447 5.69815 17.379C5.68675 17.3134 5.68859 17.2461 5.70356 17.1812C5.71853 17.1163 5.74633 17.055 5.78532 17.0009C5.82431 16.9469 5.8737 16.9012 5.93061 16.8665C5.98751 16.8319 6.05077 16.8089 6.11666 16.799C6.26516 16.7725 6.31766 16.7335 6.33666 16.552C6.39966 15.9325 6.06766 15.89 5.88866 15.8675C5.63816 15.8355 5.37416 15.8515 5.14866 16.3705C4.92266 17.0585 4.94866 17.608 5.23016 18.0505C5.60216 18.637 6.34416 18.9195 6.82117 19.0465C7.07416 18.1105 7.59166 17.1535 8.49866 16.2195C12.5452 12.0545 18.1797 13.026 18.4002 13.0665C18.4932 13.08 20.6202 13.4025 22.4502 14.505C22.9992 14.2285 24.2407 13.885 26.3062 14.7545C26.3819 14.7858 26.4505 14.8322 26.5077 14.8909C26.5649 14.9496 26.6095 15.0194 26.6387 15.096C26.6967 15.248 26.6887 15.4185 26.6172 15.5635C26.4362 15.9335 25.8257 17.0205 24.7532 17.427C25.2712 18.2105 25.9602 19.415 26.0212 20.357C26.2822 20.533 26.7987 20.8125 27.3462 20.761C27.4292 20.753 27.513 20.7622 27.5923 20.788C27.6716 20.8138 27.7448 20.8557 27.8072 20.911C27.8671 20.9653 27.9152 21.0314 27.9483 21.1051C27.9814 21.1789 27.9989 21.2587 27.9997 21.3395C28.0062 21.98 27.9317 24.152 26.6892 25.2185C26.1632 25.67 25.5117 25.8635 24.7502 25.7935C24.4517 26.1835 23.7742 26.827 22.4037 27.1625V29.4055C22.4037 29.7335 22.1367 30 21.8077 30H19.3777C19.1137 30 18.8847 29.8305 18.8077 29.576L18.3327 28.0005C17.5647 28.2065 16.1377 28.4805 14.8117 28.153V29.4055C14.8117 29.7335 14.5447 30 14.2162 30H11.5522C11.3327 30 11.1317 29.88 11.0282 29.6885L9.16916 26.2695C8.79116 25.868 6.38066 23.1745 6.64417 20.0345C6.01917 19.8775 4.96166 19.4895 4.38916 18.592C3.94066 17.889 3.87716 17.0365 4.21466 16.0165ZM9.92316 25.6115L11.7917 29H13.8112V27.595C13.8112 27.3985 13.9077 27.216 14.0702 27.106C14.1509 27.0512 14.2439 27.0171 14.3409 27.0066C14.438 26.9962 14.5361 27.0097 14.6267 27.046C16.0942 27.631 18.0452 27.053 18.4217 26.932C18.5736 26.8839 18.7385 26.8979 18.8802 26.971C18.9502 27.008 19.0121 27.0585 19.0624 27.1196C19.1128 27.1807 19.1504 27.2512 19.1732 27.327L19.6782 29H21.4032V26.8345C21.4032 26.5525 21.6057 26.308 21.8872 26.2525C23.4742 25.9455 23.9557 25.21 24.0347 25.0675C24.0941 24.9606 24.1853 24.8747 24.2956 24.8218C24.406 24.769 24.5301 24.7518 24.6507 24.7725C25.2307 24.868 25.6817 24.7645 26.0372 24.4595C26.6737 23.9135 26.9412 22.7425 26.9912 21.7595C26.1352 21.6855 25.4527 21.1945 25.2382 21.023C25.0892 20.9025 25.0107 20.722 25.0242 20.532C25.0672 19.822 24.2812 18.461 23.5952 17.512C23.4727 17.342 23.4492 17.118 23.5347 16.928C23.5791 16.8313 23.6482 16.748 23.7352 16.6866C23.8221 16.6251 23.9237 16.5877 24.0297 16.578C24.7162 16.514 25.2187 15.9305 25.4947 15.512C23.6987 14.879 22.8777 15.3995 22.7857 15.4645C22.6893 15.534 22.574 15.5724 22.4552 15.5747C22.3364 15.5771 22.2197 15.5432 22.1207 15.4775C20.4332 14.3885 18.2757 14.059 18.2377 14.053C18.1862 14.042 12.8827 13.142 9.21616 16.916C5.44466 20.799 9.45766 25.135 9.92316 25.6115Z" fill="black"/>
<path d="M15.8481 7.92195C16.056 8.06734 16.3024 8.14773 16.5561 8.15295C16.8656 8.15295 17.0576 7.98445 17.0576 7.71345C17.0576 7.50245 16.9586 7.31795 16.4751 7.10345C15.9091 6.84795 15.3321 6.48845 15.3321 5.74895C15.3321 5.16345 15.6886 4.68845 16.2521 4.50545V3.78345H17.1451V4.45345C17.3805 4.48903 17.6061 4.57241 17.8081 4.69845L17.9991 4.81945L17.6591 5.64945L17.3821 5.50645L17.38 5.50537C17.2342 5.42947 17.0373 5.32695 16.7611 5.32695C16.4671 5.32695 16.3336 5.51295 16.3336 5.68595C16.3336 5.84945 16.3751 5.96845 16.9491 6.23595C17.5041 6.48995 18.0711 6.85845 18.0711 7.66245C18.0711 8.27645 17.6886 8.78895 17.1051 8.97645V9.71945H16.2116V9.03445C15.8956 8.98795 15.5896 8.87145 15.3866 8.71645L15.2246 8.59195L15.5686 7.72495L15.8481 7.92195Z" fill="black"/>
</svg>
