<svg width="24" height="25" viewBox="0 0 24 25" fill="none" xmlns="http://www.w3.org/2000/svg">
<path d="M2.29412 22.2059V18.3235H1.64706C1.2897 18.3235 1 18.0338 1 17.6765V16.0588C1 15.8137 1.13848 15.5897 1.35769 15.4801L6.53416 12.8918C6.71633 12.8008 6.93073 12.8008 7.1129 12.8918L12.2894 15.4801C12.5086 15.5897 12.6471 15.8137 12.6471 16.0588V17.6765C12.6471 18.0338 12.3574 18.3235 12 18.3235H11.3529V22.2059H12C12.3574 22.2059 12.6471 22.4956 12.6471 22.8529C12.6471 23.2103 12.3574 23.5 12 23.5H1.64706C1.2897 23.5 1 23.2103 1 22.8529C1 22.4956 1.2897 22.2059 1.64706 22.2059H2.29412ZM2.29412 17.0294H11.3529V16.4587L6.82353 14.194L2.29412 16.4587V17.0294ZM10.0588 22.2059V18.3235H8.76471V22.2059H10.0588ZM7.47059 18.3235H6.17647V22.2059H7.47059V18.3235ZM4.88235 18.3235H3.58824V22.2059H4.88235V18.3235ZM21.7059 7V10.8824H22.3529C22.7103 10.8824 23 11.1721 23 11.5294C23 11.8868 22.7103 12.1765 22.3529 12.1765H12C11.6426 12.1765 11.3529 11.8868 11.3529 11.5294C11.3529 11.1721 11.6426 10.8824 12 10.8824H12.6471V7H12C11.6426 7 11.3529 6.7103 11.3529 6.35294V4.73529C11.3529 4.49021 11.4914 4.26615 11.7106 4.15655L16.8871 1.56831C17.0693 1.47723 17.2837 1.47723 17.4658 1.56831L22.6423 4.15655C22.8615 4.26615 23 4.49021 23 4.73529V6.35294C23 6.7103 22.7103 7 22.3529 7H21.7059ZM20.4118 7H19.1176V10.8824H20.4118V7ZM17.8235 7H16.5294V10.8824H17.8235V7ZM15.2353 7H13.9412V10.8824H15.2353V7ZM12.6471 5.70588H21.7059V5.13519L17.1765 2.87049L12.6471 5.13519V5.70588ZM18.7941 16.9739L18.2811 17.487C18.0284 17.7396 17.6187 17.7396 17.366 17.487C17.1133 17.2343 17.1133 16.8246 17.366 16.5719L18.9836 14.9542C19.2363 14.7015 19.646 14.7015 19.8987 14.9542L21.5164 16.5719C21.769 16.8246 21.769 17.2343 21.5164 17.487C21.2637 17.7396 20.854 17.7396 20.6013 17.487L20.0882 16.9739V17.3529C20.0882 19.3184 18.4949 20.9118 16.5294 20.9118H15.2353C14.8779 20.9118 14.5882 20.6221 14.5882 20.2647C14.5882 19.9073 14.8779 19.6176 15.2353 19.6176H16.5294C17.7802 19.6176 18.7941 18.6037 18.7941 17.3529V16.9739ZM3.91176 8.02609V7.64706C3.91176 5.68157 5.5051 4.08823 7.47059 4.08823H8.76471C9.12207 4.08823 9.41177 4.37793 9.41177 4.73529C9.41177 5.09265 9.12207 5.38235 8.76471 5.38235H7.47059C6.21983 5.38235 5.20588 6.3963 5.20588 7.64706V8.02609L5.71894 7.51305C5.97163 7.26035 6.38131 7.26035 6.634 7.51305C6.88669 7.76574 6.88669 8.17544 6.634 8.42813L5.01635 10.0458C4.76366 10.2985 4.35399 10.2985 4.10129 10.0458L2.48365 8.42813C2.23095 8.17544 2.23095 7.76574 2.48365 7.51305C2.73634 7.26035 3.14601 7.26035 3.39871 7.51305L3.91176 8.02609Z" fill="#FF8926"/>
</svg>
