<svg width="22" height="22" viewBox="0 0 22 22" fill="none" xmlns="http://www.w3.org/2000/svg">
<mask id="mask0_2587_17926" style="mask-type:luminance" maskUnits="userSpaceOnUse" x="0" y="0" width="22" height="22">
<path d="M0 0H21.9996V22H0V0Z" fill="white"/>
</mask>
<g mask="url(#mask0_2587_17926)">
<path d="M2.14587 0.374878H19.8542C20.0867 0.374861 20.317 0.420653 20.5319 0.509638C20.7468 0.598624 20.942 0.72906 21.1065 0.8935C21.2709 1.05794 21.4014 1.25316 21.4904 1.46802C21.5794 1.68288 21.6253 1.91317 21.6253 2.14574V19.8544C21.6253 20.087 21.5794 20.3172 21.4904 20.5321C21.4014 20.7469 21.271 20.9421 21.1065 21.1066C20.9421 21.271 20.7468 21.4014 20.532 21.4904C20.3171 21.5794 20.0868 21.6252 19.8543 21.6251H2.14561C1.67604 21.6251 1.2257 21.4386 0.893645 21.1066C0.561595 20.7746 0.375033 20.3242 0.375 19.8547V2.14562C0.375033 1.67598 0.561621 1.22558 0.893719 0.893508C1.22582 0.561434 1.67623 0.374878 2.14587 0.374878Z" fill="#FDB913"/>
<path d="M19.8542 0.374801C20.3238 0.374934 20.7742 0.561576 21.1062 0.893683C21.4382 1.22579 21.6248 1.67617 21.6248 2.14579V19.8543C21.6248 20.3239 21.4382 20.7743 21.1062 21.1064C20.7742 21.4385 20.3238 21.6251 19.8542 21.6252H2.14567C1.9131 21.6252 1.6828 21.5795 1.46793 21.4905C1.25305 21.4015 1.05781 21.2711 0.893364 21.1066C0.728914 20.9422 0.598475 20.7469 0.509498 20.5321C0.420522 20.3172 0.374751 20.0869 0.374801 19.8543V2.14579C0.374751 1.91322 0.420521 1.68291 0.509496 1.46803C0.598471 1.25315 0.728908 1.05791 0.893357 0.893446C1.05781 0.728986 1.25304 0.598535 1.46792 0.509544C1.68279 0.420554 1.91309 0.374767 2.14567 0.374801H19.8542ZM19.8542 0H2.14567C1.57676 0.000601554 1.03134 0.226873 0.629071 0.62916C0.226807 1.03145 0.000568084 1.57689 0 2.14579L0 19.8543C0.000634846 20.4232 0.226899 20.9686 0.629153 21.3708C1.03141 21.7731 1.5768 21.9994 2.14567 22H19.8542C20.423 21.9993 20.9684 21.773 21.3706 21.3708C21.7728 20.9685 21.999 20.4232 21.9996 19.8543V2.14579C21.9991 1.57692 21.7729 1.0315 21.3707 0.629213C20.9685 0.226925 20.4231 0.000635022 19.8542 0Z" fill="white"/>
<path d="M12.2395 11.2294L12.2378 7.42474L13.2309 7.18906V7.68795C13.2309 7.68795 13.4882 7.03202 14.0851 6.87978C14.1743 6.85105 14.2691 6.84468 14.3613 6.86122V7.83199C14.1825 7.83432 14.0059 7.8711 13.841 7.9403C13.474 8.08522 13.2893 8.40145 13.2893 8.88418L13.29 10.985L12.2395 11.2294ZM7.00432 12.4667C7.00432 12.4667 6.84273 12.2246 6.84273 11.3684V9.47422L6.33185 9.59579V8.81526L6.844 8.69432V7.84348L7.89998 7.59416V8.44488L8.64604 8.26764V9.04716L7.89998 9.22427C7.89998 9.22427 7.89871 10.7764 7.89998 11.1532C7.89998 12.0304 8.13276 12.1988 8.13276 12.1988L7.00432 12.4667ZM8.7565 10.2032C8.7565 9.52686 8.85282 9.0334 9.0596 8.65468C9.30576 8.20527 9.70909 7.9124 10.2969 7.77859C11.4553 7.51513 11.8736 8.20086 11.8573 9.12037C11.8511 9.44922 11.8526 9.60942 11.8526 9.60942L9.8116 10.0891V10.1219C9.8116 10.7645 9.9463 11.0694 10.3534 10.9829C10.7051 10.9088 10.8029 10.6885 10.8307 10.4161C10.8353 10.3722 10.8374 10.2604 10.8374 10.2604L11.7935 10.0313C11.7935 10.0313 11.7958 10.1096 11.7944 10.1974C11.7861 10.5625 11.6799 11.4681 10.351 11.7824C9.09217 12.0812 8.75663 11.3124 8.75663 10.2031M10.3393 8.48729C10.0011 8.56404 9.82372 8.8958 9.81602 9.44544L10.8427 9.20091C10.8445 9.17605 10.8447 9.12126 10.8445 9.03542C10.8427 8.62047 10.7145 8.40145 10.3393 8.48729ZM17.9356 7.9783C17.896 6.81956 18.1966 5.89992 19.4894 5.60704C20.3133 5.41983 20.6263 5.63419 20.7847 5.84134C20.9371 6.03903 20.9959 6.30565 20.9959 6.67906L20.9968 6.7476L19.9854 6.98796L19.9846 6.84721C19.9854 6.40436 19.8623 6.23596 19.5406 6.3165C19.1581 6.41257 19.0036 6.77563 19.0036 7.49746C19.0036 7.75372 19.0049 7.79967 19.0049 7.83426C19.0049 8.56783 19.105 8.90362 19.5458 8.81134C19.9283 8.73232 19.9806 8.39653 19.9868 8.10214C19.9875 8.05594 19.9894 7.90798 19.9894 7.90798L20.9993 7.66939C20.9993 7.66939 21.0003 7.744 21.0003 7.82694C20.9978 8.78887 20.4908 9.39507 19.541 9.61611C18.2324 9.92287 17.9762 9.1667 17.9355 7.9783M14.4392 9.60058C14.4392 8.71919 14.9555 8.44046 15.7327 8.11893C16.4315 7.82984 16.4467 7.68631 16.4496 7.4351C16.4534 7.22365 16.3554 7.04275 16.0075 7.13149C15.8915 7.15487 15.7868 7.21675 15.7103 7.3071C15.6339 7.39745 15.5902 7.51097 15.5864 7.62925C15.5807 7.69418 15.5785 7.75937 15.5798 7.82454L14.5999 8.05594C14.5933 7.86066 14.6162 7.6655 14.6676 7.47701C14.8241 6.94996 15.2891 6.59536 16.0914 6.40967C17.1339 6.16943 17.4813 6.62692 17.4826 7.33852V9.02368C17.4826 9.83867 17.6339 9.95809 17.6339 9.95809L16.672 10.1857C16.6189 10.0745 16.5758 9.95893 16.5431 9.84018C16.5431 9.84018 16.3323 10.3709 15.6061 10.5416C14.8432 10.7215 14.4392 10.2487 14.4392 9.60058ZM16.4429 8.39703C16.2807 8.51071 16.1096 8.61094 15.9311 8.69672C15.6105 8.85338 15.4655 9.04665 15.4655 9.34432C15.4655 9.6021 15.6252 9.77138 15.9155 9.69968C16.2268 9.62116 16.4429 9.33069 16.4429 8.9271V8.39703ZM1.48292 15.1337C1.37313 15.1336 1.26541 15.1039 1.17109 15.0477C1.07678 14.9915 0.999358 14.9109 0.946989 14.8144C0.894619 14.7179 0.869236 14.609 0.87351 14.4993C0.877784 14.3896 0.911559 14.2831 0.971277 14.191L0.978094 14.1821L0.989455 14.1791L2.42592 13.84V14.9309L2.40357 14.936C2.13894 14.9998 1.87379 15.0613 1.60815 15.1207C1.56698 15.1294 1.525 15.1338 1.48292 15.1337ZM1.48292 16.5292C1.3213 16.5292 1.16627 16.4651 1.05192 16.3508C0.937562 16.2366 0.873231 16.0817 0.873064 15.9201C0.872734 15.8023 0.906875 15.687 0.971277 15.5884L0.978094 15.5783L0.989455 15.5753L2.42592 15.2364V16.3272L2.40357 16.333C2.07775 16.4113 1.68831 16.5014 1.60815 16.5174C1.56689 16.5254 1.52495 16.5293 1.48292 16.5292ZM1.48292 17.9274C1.32123 17.9273 1.16619 17.863 1.05184 17.7487C0.937497 17.6344 0.873198 17.4793 0.873064 17.3176C0.872633 17.1999 0.906783 17.0846 0.971277 16.9861L0.978094 16.9752L2.42592 16.6339V17.7246L2.40357 17.7306C2.05945 17.8134 1.67733 17.8997 1.60815 17.9149C1.56692 17.9232 1.52497 17.9274 1.48292 17.9274ZM2.42579 7.43068V13.534L1.31338 13.7971L1.313 7.69363L2.42579 7.43068ZM4.08506 13.2778C4.0863 13.1868 4.06945 13.0965 4.0355 13.0122C4.00155 12.9278 3.95118 12.851 3.8873 12.7863C3.82343 12.7215 3.74733 12.6701 3.66342 12.635C3.57951 12.5999 3.48947 12.5819 3.39852 12.5819C3.30757 12.5819 3.21752 12.5999 3.13362 12.635C3.04971 12.6701 2.97361 12.7215 2.90973 12.7863C2.84586 12.851 2.79548 12.9278 2.76154 13.0122C2.72759 13.0965 2.71074 13.1868 2.71197 13.2778L2.71324 18.9825C2.71384 19.4751 2.90969 19.9474 3.25789 20.2958C3.60609 20.6443 4.07822 20.8405 4.57083 20.8414C5.09055 20.8414 6.51426 20.8389 6.51426 20.8389L6.51489 18.4591L6.51552 15.8052C6.51569 15.6572 6.47933 15.5115 6.40967 15.381C6.34002 15.2505 6.23923 15.1392 6.11623 15.057L4.38425 13.8804L4.38374 16.552C4.38374 16.5714 4.37992 16.5906 4.3725 16.6085C4.36508 16.6264 4.3542 16.6427 4.34048 16.6564C4.32677 16.6702 4.31049 16.681 4.29257 16.6885C4.27465 16.6959 4.25544 16.6997 4.23604 16.6997C4.21665 16.6997 4.19744 16.6959 4.17952 16.6885C4.1616 16.681 4.14532 16.6702 4.13161 16.6564C4.11789 16.6427 4.10701 16.6264 4.09959 16.6085C4.09217 16.5906 4.08835 16.5714 4.08835 16.552C4.08835 16.5233 4.08506 13.6306 4.08506 13.2778ZM5.01228 9.02166C4.80181 9.0705 4.60435 9.1642 4.43341 9.29636C4.26248 9.42852 4.12208 9.59602 4.02182 9.78742V9.35846L3.01987 9.59553L3.02113 12.3349C3.19687 12.2654 3.3884 12.2459 3.57455 12.2784C3.7607 12.311 3.93424 12.3943 4.07598 12.5193V10.7507C4.07598 10.327 4.28679 9.98851 4.588 9.92211C4.81459 9.87237 5.00382 9.95342 5.00382 10.357L5.00458 12.9376L6.05993 12.6901V9.96024C6.05993 9.29837 5.80506 8.83571 5.01228 9.02166ZM20.3459 5.11522C20.2168 5.11535 20.0906 5.07718 19.9832 5.00554C19.8759 4.93391 19.7921 4.83203 19.7427 4.71281C19.6932 4.59358 19.6802 4.46236 19.7054 4.33575C19.7305 4.20914 19.7927 4.09284 19.8839 4.00155C19.9752 3.91027 20.0915 3.84811 20.2181 3.82295C20.3447 3.79778 20.4759 3.81073 20.5951 3.86017C20.7144 3.90961 20.8163 3.99331 20.8879 4.10067C20.9596 4.20804 20.9978 4.33425 20.9977 4.46333C20.9975 4.63616 20.9288 4.80187 20.8066 4.9241C20.6844 5.04634 20.5187 5.11499 20.3459 5.11522ZM20.3459 3.89273C20.2331 3.89271 20.1228 3.92614 20.029 3.9888C19.9351 4.05147 19.862 4.14055 19.8188 4.24478C19.7756 4.34901 19.7643 4.46371 19.7863 4.57437C19.8082 4.68504 19.8625 4.7867 19.9423 4.8665C20.0221 4.94629 20.1237 5.00065 20.2344 5.02268C20.345 5.04472 20.4597 5.03345 20.564 4.9903C20.6682 4.94714 20.7573 4.87404 20.82 4.78024C20.8827 4.68644 20.9162 4.57616 20.9163 4.46333C20.9161 4.31208 20.856 4.16706 20.7491 4.06009C20.6421 3.95312 20.4972 3.89293 20.3459 3.89273Z" fill="#231F20"/>
<path d="M20.1074 4.07453H20.3886C20.416 4.07159 20.4438 4.07487 20.4698 4.08415C20.4959 4.09342 20.5195 4.10844 20.5389 4.12809C20.5583 4.14774 20.573 4.17152 20.582 4.19765C20.591 4.22379 20.5939 4.2516 20.5907 4.27904C20.5907 4.38243 20.5448 4.46183 20.4581 4.47534V4.47685C20.537 4.48493 20.5785 4.52849 20.5826 4.64046C20.5841 4.69095 20.5849 4.75357 20.5873 4.8023C20.5873 4.81602 20.5908 4.8295 20.5974 4.84152C20.604 4.85354 20.6136 4.86371 20.6251 4.8711H20.4813C20.4676 4.85004 20.4602 4.82552 20.4599 4.8004C20.4555 4.75281 20.4566 4.70787 20.4544 4.65005C20.4523 4.5632 20.4257 4.52508 20.3384 4.52508H20.2344V4.87097H20.1074V4.07453ZM20.3362 4.42926C20.3534 4.43084 20.3708 4.42856 20.3871 4.4226C20.4034 4.41663 20.4181 4.40713 20.4303 4.39478C20.4425 4.38243 20.4517 4.36753 20.4574 4.35116C20.4631 4.33479 20.4651 4.31736 20.4633 4.30012C20.4633 4.21516 20.4267 4.17047 20.3429 4.17047H20.2344V4.42926H20.3362Z" fill="#231F20"/>
</g>
</svg>
