<svg width="40" height="40" viewBox="0 0 40 40" fill="none" xmlns="http://www.w3.org/2000/svg">
<rect x="0.5" y="0.5" width="39" height="39" rx="19.5" fill="white"/>
<rect x="0.5" y="0.5" width="39" height="39" rx="19.5" stroke="#016B83"/>
<path fill-rule="evenodd" clip-rule="evenodd" d="M25.3667 20.6257C25.3421 18.0938 27.3958 16.8788 27.4876 16.8187C26.3332 15.1003 24.5348 14.8641 23.894 14.8375C22.3635 14.6803 20.9081 15.755 20.1306 15.755C19.3552 15.755 18.1569 14.8611 16.888 14.8848C15.2201 14.9098 13.6824 15.872 12.8225 17.3922C11.0897 20.4519 12.3793 24.9867 14.0683 27.4676C14.8933 28.6826 15.8772 30.0475 17.1694 29.9987C18.4133 29.9489 18.8841 29.1787 20.3888 29.1787C21.8931 29.1787 22.3156 29.9988 23.6325 29.9725C24.9714 29.9475 25.8197 28.7339 26.6393 27.5149C27.5877 26.105 27.9764 24.7416 28 24.6715C27.9702 24.6578 25.3892 23.6518 25.3631 20.6268L25.3667 20.6257H25.3667ZM22.8934 13.1936C23.5788 12.3473 24.0419 11.1726 23.9154 10C22.9278 10.041 21.7303 10.6699 21.0213 11.5151C20.3848 12.2654 19.8288 13.4612 19.9775 14.6097C21.0804 14.6972 22.2065 14.0395 22.8923 13.1951L22.8934 13.1936Z" fill="#212121"/>
</svg>
