<svg width="27" height="27" viewBox="0 0 27 27" fill="none" xmlns="http://www.w3.org/2000/svg">
<path d="M7.78516 11.8125C8.01815 11.8125 8.20703 11.6236 8.20703 11.3906C8.20703 11.1576 8.01815 10.9688 7.78516 10.9688C7.55216 10.9688 7.36328 11.1576 7.36328 11.3906C7.36328 11.6236 7.55216 11.8125 7.78516 11.8125Z" fill="black"/>
<path d="M23.0556 19.2375L18.5871 13.2789C18.9204 13.0511 19.1406 12.6681 19.1406 12.2344C19.1406 11.9087 19.0141 11.6151 18.8116 11.3906C19.0141 11.1662 19.1406 10.8726 19.1406 10.5469C19.1406 10.2212 19.0141 9.92756 18.8116 9.70312C19.0141 9.47869 19.1406 9.18506 19.1406 8.85938C19.1406 8.53369 19.0141 8.24006 18.8116 8.01562C19.0141 7.79119 19.1406 7.49756 19.1406 7.17188C19.1406 6.52472 18.6513 5.99653 18.0244 5.92144L18.3146 4.75959L18.7306 3.50831C18.7449 3.46528 18.7525 3.42056 18.7525 3.375V2.95312C18.7525 2.25534 18.1847 1.6875 17.4869 1.6875C17.1612 1.6875 16.8676 1.81406 16.6431 2.01656C16.4187 1.81406 16.1251 1.6875 15.7994 1.6875C15.4737 1.6875 15.1801 1.81406 14.9556 2.01656C14.7312 1.81406 14.4376 1.6875 14.1119 1.6875C13.4141 1.6875 12.8463 2.25534 12.8463 2.95312V3.375C12.8463 3.42056 12.8539 3.46528 12.8682 3.50831L13.1053 4.21875H12.0371C11.8776 4.21875 11.7317 4.30903 11.66 4.45163L10.9326 5.90625H10.3496H9.89314V5.48438C9.89314 5.2515 9.70414 5.0625 9.47127 5.0625H3.59961C3.36673 5.0625 3.17773 5.2515 3.17773 5.48438C3.17773 5.71725 3.36589 5.90625 3.59961 5.90625H5.67439V12.6562H3.59961C3.36673 12.6562 3.17773 12.8453 3.17773 13.0781C3.17773 13.311 3.36589 13.5 3.59961 13.5H9.47127C9.70414 13.5 9.89314 13.311 9.89314 13.0781V12.6562H11.0179L11.7384 13.3768C11.8101 13.4485 11.9063 13.4873 12.0067 13.4949L7.69939 19.2375C6.83117 20.396 6.69364 21.9198 7.3408 23.2141C7.98795 24.5084 9.28986 25.3125 10.7369 25.3125H20.0181C21.4652 25.3125 22.7662 24.5084 23.4142 23.2141C24.0614 21.9198 23.9239 20.3951 23.0556 19.2375ZM13.69 2.95312C13.69 2.72109 13.879 2.53125 14.1119 2.53125C14.3448 2.53125 14.5338 2.72109 14.5338 2.95312V3.375C14.5338 3.60787 14.7228 3.79688 14.9556 3.79688C15.1885 3.79688 15.3775 3.60787 15.3775 3.375V2.95312C15.3775 2.72109 15.5665 2.53125 15.7994 2.53125C16.0323 2.53125 16.2213 2.72109 16.2213 2.95312V3.375C16.2213 3.60787 16.4103 3.79688 16.6431 3.79688C16.876 3.79688 17.065 3.60787 17.065 3.375V2.95312C17.065 2.72109 17.254 2.53125 17.4869 2.53125C17.7198 2.53125 17.9088 2.72109 17.9088 2.95312V3.30666L17.5088 4.50731C17.5071 4.51238 17.5088 4.51828 17.5071 4.52419C17.5055 4.52925 17.5012 4.53347 17.5004 4.53938L17.157 5.90625H14.441L14.0984 4.53853C14.0967 4.53263 14.0925 4.52756 14.0908 4.52166C14.0891 4.51659 14.0908 4.51153 14.0891 4.50731L13.6892 3.30666L13.69 2.95312ZM9.04939 12.6562H6.51814V5.90625H9.04939V6.32812V12.2344V12.6562ZM11.492 11.9365C11.4532 11.8977 11.406 11.8665 11.3545 11.8446C11.3022 11.8235 11.2482 11.8125 11.1934 11.8125H9.89314V6.75H10.3496H11.1934C11.2668 6.75 11.3326 6.72638 11.3925 6.69347C11.4085 6.68503 11.4212 6.67491 11.4355 6.66478C11.4828 6.63019 11.5216 6.58884 11.5511 6.53822C11.5562 6.52978 11.5663 6.52641 11.5705 6.51713L12.2978 5.0625H13.361L13.7035 6.43022C13.7069 6.44203 13.7136 6.45216 13.7179 6.46312C13.7246 6.48338 13.733 6.50194 13.7432 6.5205C13.7575 6.5475 13.7744 6.57197 13.7938 6.59559C13.8065 6.61078 13.8191 6.62597 13.8335 6.63863C13.841 6.64538 13.8461 6.65381 13.8537 6.66056C13.8545 6.66141 13.8562 6.66141 13.8571 6.66225C13.8748 6.67575 13.895 6.68334 13.9145 6.69347C13.9296 6.70191 13.9431 6.71203 13.96 6.71794C14.0073 6.73819 14.0579 6.75 14.111 6.75H17.486H17.8733C18.1062 6.75 18.2952 6.93984 18.2952 7.17188C18.2952 7.40391 18.107 7.59375 17.8742 7.59375H15.8939C15.661 7.59375 15.472 7.78275 15.472 8.01562C15.472 8.2485 15.661 8.4375 15.8939 8.4375H17.8742C18.107 8.4375 18.296 8.62734 18.296 8.85938C18.296 9.09141 18.107 9.28125 17.8742 9.28125H15.8939C15.661 9.28125 15.472 9.47025 15.472 9.70312C15.472 9.936 15.661 10.125 15.8939 10.125H17.8742C18.107 10.125 18.296 10.3148 18.296 10.5469C18.296 10.7789 18.107 10.9688 17.8742 10.9688H15.8939C15.661 10.9688 15.472 11.1578 15.472 11.3906C15.472 11.6235 15.661 11.8125 15.8939 11.8125H17.8742C18.107 11.8125 18.296 12.0023 18.296 12.2344C18.296 12.4664 18.107 12.6562 17.8742 12.6562H17.0996H16.4432H15.8947H14.3135H12.8471H12.2126L11.492 11.9365ZM22.6591 22.8361C22.1478 23.8579 21.1614 24.4688 20.0181 24.4688H10.7369C9.59445 24.4688 8.60642 23.8587 8.09595 22.8361C7.58464 21.8143 7.68927 20.6575 8.37439 19.7429L13.0572 13.5H13.7373L13.3778 14.6391C13.3078 14.8618 13.431 15.0981 13.6529 15.1681C13.6951 15.1816 13.7381 15.1875 13.7795 15.1875C13.9583 15.1875 14.1254 15.0719 14.1819 14.8922L14.6224 13.5H14.9565V14.7656C14.9565 14.9985 15.1455 15.1875 15.3784 15.1875C15.6112 15.1875 15.8002 14.9985 15.8002 14.7656V13.5H15.8947H16.1344L16.574 14.8922C16.644 15.1141 16.8819 15.2373 17.103 15.1672C17.3249 15.0972 17.4489 14.861 17.3789 14.6382L17.0178 13.5H17.0988H17.697L22.3798 19.7429C23.0658 20.6575 23.1704 21.8143 22.6591 22.8361Z" fill="black"/>
<path d="M15.5 20.6665C15.2033 20.6665 14.9133 20.5785 14.6666 20.4137C14.42 20.2489 14.2277 20.0146 14.1142 19.7405C14.0006 19.4664 13.9709 19.1648 14.0288 18.8739C14.0867 18.5829 14.2296 18.3156 14.4393 18.1058C14.6491 17.8961 14.9164 17.7532 15.2074 17.6953C15.4983 17.6374 15.7999 17.6672 16.074 17.7807C16.3481 17.8942 16.5824 18.0865 16.7472 18.3331C16.912 18.5798 17 18.8698 17 19.1665C17 19.2991 16.9473 19.4263 16.8536 19.5201C16.7598 19.6138 16.6326 19.6665 16.5 19.6665C16.3674 19.6665 16.2402 19.6138 16.1464 19.5201C16.0527 19.4263 16 19.2991 16 19.1665C16 19.0676 15.9707 18.9709 15.9157 18.8887C15.8608 18.8065 15.7827 18.7424 15.6913 18.7046C15.6 18.6667 15.4994 18.6568 15.4025 18.6761C15.3055 18.6954 15.2164 18.743 15.1464 18.813C15.0765 18.8829 15.0289 18.972 15.0096 19.069C14.9903 19.166 15.0002 19.2665 15.0381 19.3578C15.0759 19.4492 15.14 19.5273 15.2222 19.5822C15.3044 19.6372 15.4011 19.6665 15.5 19.6665C15.6326 19.6665 15.7598 19.7192 15.8536 19.813C15.9473 19.9067 16 20.0339 16 20.1665C16 20.2991 15.9473 20.4263 15.8536 20.5201C15.7598 20.6138 15.6326 20.6665 15.5 20.6665Z" fill="black"/>
<path d="M15.5 22.6665C15.1022 22.6665 14.7206 22.5085 14.4393 22.2272C14.158 21.9459 14 21.5643 14 21.1665C14 21.0339 14.0527 20.9067 14.1464 20.8129C14.2402 20.7192 14.3674 20.6665 14.5 20.6665C14.6326 20.6665 14.7598 20.7192 14.8536 20.8129C14.9473 20.9067 15 21.0339 15 21.1665C15 21.2654 15.0293 21.3621 15.0843 21.4443C15.1392 21.5265 15.2173 21.5906 15.3087 21.6284C15.4 21.6663 15.5006 21.6762 15.5975 21.6569C15.6945 21.6376 15.7836 21.59 15.8536 21.5201C15.9235 21.4501 15.9711 21.361 15.9904 21.264C16.0097 21.1671 15.9998 21.0665 15.9619 20.9752C15.9241 20.8838 15.86 20.8057 15.7778 20.7508C15.6956 20.6958 15.5989 20.6665 15.5 20.6665C15.3674 20.6665 15.2402 20.6138 15.1464 20.5201C15.0527 20.4263 15 20.2991 15 20.1665C15 20.0339 15.0527 19.9067 15.1464 19.8129C15.2402 19.7192 15.3674 19.6665 15.5 19.6665C15.8978 19.6665 16.2794 19.8245 16.5607 20.1058C16.842 20.3871 17 20.7687 17 21.1665C17 21.5643 16.842 21.9459 16.5607 22.2272C16.2794 22.5085 15.8978 22.6665 15.5 22.6665ZM15.5 18.6665C15.3674 18.6665 15.2402 18.6138 15.1464 18.5201C15.0527 18.4263 15 18.2991 15 18.1665V17.5C15 17.3674 15.0527 17.2402 15.1464 17.1464C15.2402 17.0527 15.3674 17 15.5 17C15.6326 17 15.7598 17.0527 15.8536 17.1464C15.9473 17.2402 16 17.3674 16 17.5V18.1665C16 18.2991 15.9473 18.4263 15.8536 18.5201C15.7598 18.6138 15.6326 18.6665 15.5 18.6665Z" fill="black"/>
<path d="M15.5 23.333C15.3674 23.333 15.2402 23.2803 15.1464 23.1866C15.0527 23.0928 15 22.9656 15 22.833V22.1665C15 22.0339 15.0527 21.9067 15.1464 21.813C15.2402 21.7192 15.3674 21.6665 15.5 21.6665C15.6326 21.6665 15.7598 21.7192 15.8536 21.813C15.9473 21.9067 16 22.0339 16 22.1665V22.833C16 22.9656 15.9473 23.0928 15.8536 23.1866C15.7598 23.2803 15.6326 23.333 15.5 23.333Z" fill="black"/>
</svg>
