<svg width="24" height="25" viewBox="0 0 24 25" fill="none" xmlns="http://www.w3.org/2000/svg">
<path d="M19.9492 17.4816L19.9492 17.4816L18.2101 18.8554C18.0317 18.9963 17.9303 19.1924 17.9303 19.4009C17.9303 19.6095 18.0317 19.8056 18.2101 19.9465C18.5544 20.2185 19.0974 20.2185 19.4418 19.9465L19.666 19.7693C19.6034 20.6411 18.6713 21.3991 17.4346 21.3991H16.0433C15.5952 21.3991 15.1477 21.6933 15.1477 22.1486C15.1477 22.604 15.5952 22.8982 16.0433 22.8982H17.4346C19.5757 22.8982 21.3996 21.5426 21.4592 19.7655L21.6883 19.9465C22.0327 20.2185 22.5757 20.2185 22.9201 19.9465C23.0984 19.8056 23.1998 19.6095 23.1998 19.4009C23.1998 19.1924 23.0984 18.9963 22.9201 18.8554L21.1809 17.4816L21.1809 17.4816C20.8366 17.2095 20.2935 17.2095 19.9492 17.4816Z" fill="#FF8926" stroke="white" stroke-width="0.4"/>
<path d="M17.4444 11.6818V16.0455H18.2222C18.6518 16.0455 19 16.3711 19 16.7727C19 17.1744 18.6518 17.5 18.2222 17.5H5.77778C5.34822 17.5 5 17.1744 5 16.7727C5 16.3711 5.34822 16.0455 5.77778 16.0455H6.55556V11.6818H5.77778C5.34822 11.6818 5 11.3562 5 10.9545V9.13636C5 8.86089 5.16645 8.60907 5.42995 8.48587L11.6522 5.57678C11.8711 5.47441 12.1289 5.47441 12.3478 5.57678L18.57 8.48587C18.8335 8.60907 19 8.86089 19 9.13636V10.9545C19 11.3562 18.6518 11.6818 18.2222 11.6818H17.4444ZM15.8889 11.6818H14.3333V16.0455H15.8889V11.6818ZM12.7778 11.6818H11.2222V16.0455H12.7778V11.6818ZM9.66667 11.6818H8.11111V16.0455H9.66667V11.6818ZM6.55556 10.2273H17.4444V9.58584L12 7.04038L6.55556 9.58584V10.2273Z" fill="#FF8926"/>
<path d="M6.56522 2.3C4.42387 2.3 2.60012 3.65687 2.54062 5.43541L2.31158 5.25432C2.31158 5.25432 2.31158 5.25432 2.31158 5.25432C1.9672 4.98204 1.42408 4.98204 1.07971 5.25432C0.901375 5.39532 0.8 5.59156 0.8 5.80013C0.8 6.00871 0.901375 6.20494 1.07971 6.34594L2.81884 7.721C3.16322 7.99328 3.70634 7.99328 4.05071 7.721L5.78984 6.34594C5.96818 6.20494 6.06955 6.00871 6.06955 5.80013C6.06955 5.59156 5.96818 5.39532 5.78984 5.25432C5.44547 4.98204 4.90235 4.98204 4.55798 5.25432C4.55798 5.25432 4.55798 5.25432 4.55798 5.25432L4.33378 5.43158C4.39636 4.5587 5.32862 3.80004 6.56522 3.80004H7.95652C8.40484 3.80004 8.85218 3.50549 8.85218 3.05002C8.85218 2.59456 8.40484 2.3 7.95652 2.3H6.56522Z" fill="#FF8926" stroke="white" stroke-width="0.4"/>
</svg>
