<svg width="26" height="26" viewBox="0 0 26 26" fill="none" xmlns="http://www.w3.org/2000/svg">
<path d="M13.4832 22.1543L14.1909 21.7072C14.5639 22.5491 15.1356 23.2887 15.8577 23.8621C16.6106 24.4599 17.5026 24.8576 18.4505 25.0182C19.3984 25.1787 20.3715 25.0968 21.2793 24.7802C22.1871 24.4636 23.0001 23.9225 23.6426 23.2073C24.2851 22.4921 24.7362 21.626 24.954 20.6896C25.1718 19.7532 25.1493 18.7769 24.8884 17.8515C24.6275 16.9262 24.1368 16.0818 23.462 15.3971C22.8046 14.7301 21.9933 14.2356 21.1 13.9569V3.39414V3.39402C21.0992 2.73125 20.8356 2.09584 20.3669 1.62719C19.8983 1.15854 19.2629 0.894913 18.6001 0.894141H18.6L3.4 0.89414L3.39965 0.894141C2.73741 0.896447 2.10296 1.16054 1.63468 1.62882C1.1664 2.0971 0.902306 2.73155 0.9 3.39379V3.39414V9.79414C0.9 10.0328 0.994821 10.2618 1.1636 10.4305C1.33239 10.5993 1.56131 10.6941 1.8 10.6941H4.9L4.9 21.1439L5 21.1441H4.9V21.1439C4.89955 21.3049 4.9424 21.4629 5.02407 21.6016C5.10575 21.7403 5.22325 21.8544 5.36424 21.932C5.50523 22.0097 5.66451 22.0479 5.82537 22.0428C5.98614 22.0377 6.14257 21.9894 6.27828 21.903C6.27836 21.903 6.27844 21.9029 6.27852 21.9029L7.30224 21.2603L8.72621 22.1595L8.72684 22.1599C8.87028 22.249 9.03576 22.2962 9.2046 22.2962C9.37344 22.2962 9.53892 22.249 9.68236 22.1599L9.68297 22.1595L11.1064 21.2612L12.5192 22.1543C12.5193 22.1544 12.5194 22.1545 12.5196 22.1545C12.6633 22.2467 12.8305 22.2957 13.0012 22.2957C13.172 22.2957 13.3391 22.2467 13.4829 22.1545C13.483 22.1544 13.4831 22.1544 13.4832 22.1543ZM3.4356 1.89494V1.89497L3.43793 1.89491C3.47469 1.89406 3.51148 1.89557 3.54805 1.89943C3.92769 1.95061 4.27527 2.13961 4.52459 2.43049C4.7742 2.7217 4.90785 3.09463 4.90002 3.4781L4.9 3.4781V3.48014V9.69494H1.9V3.39517C1.90184 2.9972 2.061 2.61611 2.34276 2.33506C2.62455 2.05397 3.00608 1.89576 3.40408 1.89494H3.4356ZM5.9 20.963V3.48014V3.48004C5.89943 2.90672 5.71254 2.35117 5.37062 1.89574H18.6C18.9978 1.89574 19.3794 2.05378 19.6607 2.33508C19.942 2.61639 20.1 2.99792 20.1 3.39574V13.7441C19.2086 13.6293 18.3022 13.7277 17.4554 14.0321C16.5722 14.3495 15.7815 14.881 15.1541 15.579C14.5267 16.2769 14.0822 17.1196 13.8604 18.0314C13.6443 18.9195 13.646 19.8463 13.8648 20.733L13.0002 21.2767L11.5871 20.3831C11.587 20.383 11.5868 20.3829 11.5867 20.3829C11.4429 20.2909 11.2757 20.2421 11.105 20.2421C10.9342 20.2421 10.7671 20.2909 10.6232 20.3829C10.6231 20.383 10.623 20.383 10.6229 20.3831L9.20433 21.281L7.7833 20.384C7.78317 20.384 7.78304 20.3839 7.78291 20.3838C7.63927 20.2915 7.47214 20.2424 7.3014 20.2424C7.13065 20.2424 6.9635 20.2915 6.81986 20.3838C6.81974 20.3839 6.81962 20.384 6.8195 20.384L5.9 20.963ZM19.3999 24.0961C18.4704 24.0961 17.5617 23.8205 16.7888 23.304C16.0159 22.7876 15.4135 22.0536 15.0578 21.1948C14.702 20.3359 14.609 19.3909 14.7903 18.4792C14.9717 17.5675 15.4193 16.73 16.0766 16.0727C16.7339 15.4154 17.5714 14.9678 18.4831 14.7865C19.3948 14.6051 20.3398 14.6982 21.1986 15.0539C22.0574 15.4096 22.7915 16.012 23.3079 16.785C23.8243 17.5578 24.1 18.4665 24.1 19.396C24.0985 20.6421 23.6029 21.8368 22.7218 22.7179C21.8406 23.599 20.646 24.0947 19.3999 24.0961Z" fill="#FF8926" stroke="#FF8926" stroke-width="0.2"/>
<mask id="path-2-outside-1_18610_82843" maskUnits="userSpaceOnUse" x="6" y="3.99414" width="17" height="19" fill="black">
<rect fill="white" x="6" y="3.99414" width="17" height="19"/>
<path d="M7.4 9.79494H18.6C18.7061 9.79494 18.8078 9.7528 18.8828 9.67778C18.9579 9.60277 19 9.50103 19 9.39494C19 9.28885 18.9579 9.18711 18.8828 9.1121C18.8078 9.03708 18.7061 8.99494 18.6 8.99494H7.4C7.29391 8.99494 7.19217 9.03708 7.11716 9.1121C7.04214 9.18711 7 9.28885 7 9.39494C7 9.50103 7.04214 9.60277 7.11716 9.67778C7.19217 9.7528 7.29391 9.79494 7.4 9.79494ZM13 16.9953H7.4C7.29391 16.9953 7.19217 17.0375 7.11716 17.1125C7.04214 17.1875 7 17.2893 7 17.3953C7 17.5014 7.04214 17.6032 7.11716 17.6782C7.19217 17.7532 7.29391 17.7953 7.4 17.7953H13C13.1061 17.7953 13.2078 17.7532 13.2828 17.6782C13.3579 17.6032 13.4 17.5014 13.4 17.3953C13.4 17.2893 13.3579 17.1875 13.2828 17.1125C13.2078 17.0375 13.1061 16.9953 13 16.9953ZM7.4 11.7949H8.6C8.70609 11.7949 8.80783 11.7528 8.88284 11.6778C8.95786 11.6028 9 11.501 9 11.3949C9 11.2889 8.95786 11.1871 8.88284 11.1121C8.80783 11.0371 8.70609 10.9949 8.6 10.9949H7.4C7.29391 10.9949 7.19217 11.0371 7.11716 11.1121C7.04214 11.1871 7 11.2889 7 11.3949C7 11.501 7.04214 11.6028 7.11716 11.6778C7.19217 11.7528 7.29391 11.7949 7.4 11.7949ZM17 10.9949H10.2C10.0939 10.9949 9.99217 11.0371 9.91716 11.1121C9.84214 11.1871 9.8 11.2889 9.8 11.3949C9.8 11.501 9.84214 11.6028 9.91716 11.6778C9.99217 11.7528 10.0939 11.7949 10.2 11.7949H17C17.1061 11.7949 17.2078 11.7528 17.2828 11.6778C17.3579 11.6028 17.4 11.501 17.4 11.3949C17.4 11.2889 17.3579 11.1871 17.2828 11.1121C17.2078 11.0371 17.1061 10.9949 17 10.9949ZM7.4 13.7953H8.6C8.70609 13.7953 8.80783 13.7532 8.88284 13.6782C8.95786 13.6032 9 13.5014 9 13.3953C9 13.2893 8.95786 13.1875 8.88284 13.1125C8.80783 13.0375 8.70609 12.9953 8.6 12.9953H7.4C7.29391 12.9953 7.19217 13.0375 7.11716 13.1125C7.04214 13.1875 7 13.2893 7 13.3953C7 13.5014 7.04214 13.6032 7.11716 13.6782C7.19217 13.7532 7.29391 13.7953 7.4 13.7953ZM16.6 12.9949H10.2C10.0939 12.9949 9.99217 13.0371 9.91716 13.1121C9.84214 13.1871 9.8 13.2889 9.8 13.3949C9.8 13.501 9.84214 13.6028 9.91716 13.6778C9.99217 13.7528 10.0939 13.7949 10.2 13.7949H16.6C16.7061 13.7949 16.8078 13.7528 16.8828 13.6778C16.9579 13.6028 17 13.501 17 13.3949C17 13.2889 16.9579 13.1871 16.8828 13.1121C16.8078 13.0371 16.7061 12.9949 16.6 12.9949ZM7.4 15.7953H8.6C8.70609 15.7953 8.80783 15.7532 8.88284 15.6782C8.95786 15.6032 9 15.5014 9 15.3953C9 15.2893 8.95786 15.1875 8.88284 15.1125C8.80783 15.0375 8.70609 14.9953 8.6 14.9953H7.4C7.29391 14.9953 7.19217 15.0375 7.11716 15.1125C7.04214 15.1875 7 15.2893 7 15.3953C7 15.5014 7.04214 15.6032 7.11716 15.6782C7.19217 15.7532 7.29391 15.7953 7.4 15.7953ZM14.2 14.9953H10.2C10.0939 14.9953 9.99217 15.0375 9.91716 15.1125C9.84214 15.1875 9.8 15.2893 9.8 15.3953C9.8 15.5014 9.84214 15.6032 9.91716 15.6782C9.99217 15.7532 10.0939 15.7953 10.2 15.7953H14.2C14.3061 15.7953 14.4078 15.7532 14.4828 15.6782C14.5579 15.6032 14.6 15.5014 14.6 15.3953C14.6 15.2893 14.5579 15.1875 14.4828 15.1125C14.4078 15.0375 14.3061 14.9953 14.2 14.9953ZM7.4 5.79414H11C11.1061 5.79414 11.2078 5.752 11.2828 5.67698C11.3579 5.60197 11.4 5.50023 11.4 5.39414C11.4 5.28805 11.3579 5.18631 11.2828 5.1113C11.2078 5.03628 11.1061 4.99414 11 4.99414H7.4C7.29391 4.99414 7.19217 5.03628 7.11716 5.1113C7.04214 5.18631 7 5.28805 7 5.39414C7 5.50023 7.04214 5.60197 7.11716 5.67698C7.19217 5.752 7.29391 5.79414 7.4 5.79414ZM7.4 7.79454H14.6C14.7061 7.79454 14.8078 7.7524 14.8828 7.67738C14.9579 7.60237 15 7.50063 15 7.39454C15 7.28845 14.9579 7.18671 14.8828 7.1117C14.8078 7.03668 14.7061 6.99454 14.6 6.99454H7.4C7.29391 6.99454 7.19217 7.03668 7.11716 7.1117C7.04214 7.18671 7 7.28845 7 7.39454C7 7.50063 7.04214 7.60237 7.11716 7.67738C7.19217 7.7524 7.29391 7.79454 7.4 7.79454ZM21.0724 17.1661L18.5456 20.7761L17.6828 19.9129C17.6076 19.8379 17.5057 19.7959 17.3994 19.796C17.2932 19.7962 17.1914 19.8385 17.1164 19.9137C17.0414 19.989 16.9993 20.0909 16.9995 20.1971C16.9996 20.3033 17.042 20.4051 17.1172 20.4801L18.3172 21.6801C18.3924 21.7547 18.4941 21.7964 18.6 21.7961C18.6116 21.7967 18.6232 21.7967 18.6348 21.7961C18.693 21.791 18.7494 21.7732 18.8 21.744C18.8505 21.7148 18.8941 21.6748 18.9276 21.6269L21.7276 17.6269C21.7589 17.584 21.7813 17.5352 21.7935 17.4835C21.8057 17.4318 21.8075 17.3781 21.7988 17.3257C21.79 17.2733 21.7709 17.2231 21.7426 17.1782C21.7142 17.1332 21.6772 17.0944 21.6336 17.0639C21.5901 17.0334 21.5409 17.0119 21.489 17.0006C21.4371 16.9894 21.3834 16.9885 21.3311 16.9983C21.2789 17.008 21.2291 17.028 21.1847 17.0572C21.1402 17.0863 21.1021 17.1241 21.0724 17.1681V17.1661Z"/>
</mask>
<path d="M7.4 9.79494H18.6C18.7061 9.79494 18.8078 9.7528 18.8828 9.67778C18.9579 9.60277 19 9.50103 19 9.39494C19 9.28885 18.9579 9.18711 18.8828 9.1121C18.8078 9.03708 18.7061 8.99494 18.6 8.99494H7.4C7.29391 8.99494 7.19217 9.03708 7.11716 9.1121C7.04214 9.18711 7 9.28885 7 9.39494C7 9.50103 7.04214 9.60277 7.11716 9.67778C7.19217 9.7528 7.29391 9.79494 7.4 9.79494ZM13 16.9953H7.4C7.29391 16.9953 7.19217 17.0375 7.11716 17.1125C7.04214 17.1875 7 17.2893 7 17.3953C7 17.5014 7.04214 17.6032 7.11716 17.6782C7.19217 17.7532 7.29391 17.7953 7.4 17.7953H13C13.1061 17.7953 13.2078 17.7532 13.2828 17.6782C13.3579 17.6032 13.4 17.5014 13.4 17.3953C13.4 17.2893 13.3579 17.1875 13.2828 17.1125C13.2078 17.0375 13.1061 16.9953 13 16.9953ZM7.4 11.7949H8.6C8.70609 11.7949 8.80783 11.7528 8.88284 11.6778C8.95786 11.6028 9 11.501 9 11.3949C9 11.2889 8.95786 11.1871 8.88284 11.1121C8.80783 11.0371 8.70609 10.9949 8.6 10.9949H7.4C7.29391 10.9949 7.19217 11.0371 7.11716 11.1121C7.04214 11.1871 7 11.2889 7 11.3949C7 11.501 7.04214 11.6028 7.11716 11.6778C7.19217 11.7528 7.29391 11.7949 7.4 11.7949ZM17 10.9949H10.2C10.0939 10.9949 9.99217 11.0371 9.91716 11.1121C9.84214 11.1871 9.8 11.2889 9.8 11.3949C9.8 11.501 9.84214 11.6028 9.91716 11.6778C9.99217 11.7528 10.0939 11.7949 10.2 11.7949H17C17.1061 11.7949 17.2078 11.7528 17.2828 11.6778C17.3579 11.6028 17.4 11.501 17.4 11.3949C17.4 11.2889 17.3579 11.1871 17.2828 11.1121C17.2078 11.0371 17.1061 10.9949 17 10.9949ZM7.4 13.7953H8.6C8.70609 13.7953 8.80783 13.7532 8.88284 13.6782C8.95786 13.6032 9 13.5014 9 13.3953C9 13.2893 8.95786 13.1875 8.88284 13.1125C8.80783 13.0375 8.70609 12.9953 8.6 12.9953H7.4C7.29391 12.9953 7.19217 13.0375 7.11716 13.1125C7.04214 13.1875 7 13.2893 7 13.3953C7 13.5014 7.04214 13.6032 7.11716 13.6782C7.19217 13.7532 7.29391 13.7953 7.4 13.7953ZM16.6 12.9949H10.2C10.0939 12.9949 9.99217 13.0371 9.91716 13.1121C9.84214 13.1871 9.8 13.2889 9.8 13.3949C9.8 13.501 9.84214 13.6028 9.91716 13.6778C9.99217 13.7528 10.0939 13.7949 10.2 13.7949H16.6C16.7061 13.7949 16.8078 13.7528 16.8828 13.6778C16.9579 13.6028 17 13.501 17 13.3949C17 13.2889 16.9579 13.1871 16.8828 13.1121C16.8078 13.0371 16.7061 12.9949 16.6 12.9949ZM7.4 15.7953H8.6C8.70609 15.7953 8.80783 15.7532 8.88284 15.6782C8.95786 15.6032 9 15.5014 9 15.3953C9 15.2893 8.95786 15.1875 8.88284 15.1125C8.80783 15.0375 8.70609 14.9953 8.6 14.9953H7.4C7.29391 14.9953 7.19217 15.0375 7.11716 15.1125C7.04214 15.1875 7 15.2893 7 15.3953C7 15.5014 7.04214 15.6032 7.11716 15.6782C7.19217 15.7532 7.29391 15.7953 7.4 15.7953ZM14.2 14.9953H10.2C10.0939 14.9953 9.99217 15.0375 9.91716 15.1125C9.84214 15.1875 9.8 15.2893 9.8 15.3953C9.8 15.5014 9.84214 15.6032 9.91716 15.6782C9.99217 15.7532 10.0939 15.7953 10.2 15.7953H14.2C14.3061 15.7953 14.4078 15.7532 14.4828 15.6782C14.5579 15.6032 14.6 15.5014 14.6 15.3953C14.6 15.2893 14.5579 15.1875 14.4828 15.1125C14.4078 15.0375 14.3061 14.9953 14.2 14.9953ZM7.4 5.79414H11C11.1061 5.79414 11.2078 5.752 11.2828 5.67698C11.3579 5.60197 11.4 5.50023 11.4 5.39414C11.4 5.28805 11.3579 5.18631 11.2828 5.1113C11.2078 5.03628 11.1061 4.99414 11 4.99414H7.4C7.29391 4.99414 7.19217 5.03628 7.11716 5.1113C7.04214 5.18631 7 5.28805 7 5.39414C7 5.50023 7.04214 5.60197 7.11716 5.67698C7.19217 5.752 7.29391 5.79414 7.4 5.79414ZM7.4 7.79454H14.6C14.7061 7.79454 14.8078 7.7524 14.8828 7.67738C14.9579 7.60237 15 7.50063 15 7.39454C15 7.28845 14.9579 7.18671 14.8828 7.1117C14.8078 7.03668 14.7061 6.99454 14.6 6.99454H7.4C7.29391 6.99454 7.19217 7.03668 7.11716 7.1117C7.04214 7.18671 7 7.28845 7 7.39454C7 7.50063 7.04214 7.60237 7.11716 7.67738C7.19217 7.7524 7.29391 7.79454 7.4 7.79454ZM21.0724 17.1661L18.5456 20.7761L17.6828 19.9129C17.6076 19.8379 17.5057 19.7959 17.3994 19.796C17.2932 19.7962 17.1914 19.8385 17.1164 19.9137C17.0414 19.989 16.9993 20.0909 16.9995 20.1971C16.9996 20.3033 17.042 20.4051 17.1172 20.4801L18.3172 21.6801C18.3924 21.7547 18.4941 21.7964 18.6 21.7961C18.6116 21.7967 18.6232 21.7967 18.6348 21.7961C18.693 21.791 18.7494 21.7732 18.8 21.744C18.8505 21.7148 18.8941 21.6748 18.9276 21.6269L21.7276 17.6269C21.7589 17.584 21.7813 17.5352 21.7935 17.4835C21.8057 17.4318 21.8075 17.3781 21.7988 17.3257C21.79 17.2733 21.7709 17.2231 21.7426 17.1782C21.7142 17.1332 21.6772 17.0944 21.6336 17.0639C21.5901 17.0334 21.5409 17.0119 21.489 17.0006C21.4371 16.9894 21.3834 16.9885 21.3311 16.9983C21.2789 17.008 21.2291 17.028 21.1847 17.0572C21.1402 17.0863 21.1021 17.1241 21.0724 17.1681V17.1661Z" fill="#FF8926"/>
<path d="M7.4 9.79494H18.6C18.7061 9.79494 18.8078 9.7528 18.8828 9.67778C18.9579 9.60277 19 9.50103 19 9.39494C19 9.28885 18.9579 9.18711 18.8828 9.1121C18.8078 9.03708 18.7061 8.99494 18.6 8.99494H7.4C7.29391 8.99494 7.19217 9.03708 7.11716 9.1121C7.04214 9.18711 7 9.28885 7 9.39494C7 9.50103 7.04214 9.60277 7.11716 9.67778C7.19217 9.7528 7.29391 9.79494 7.4 9.79494ZM13 16.9953H7.4C7.29391 16.9953 7.19217 17.0375 7.11716 17.1125C7.04214 17.1875 7 17.2893 7 17.3953C7 17.5014 7.04214 17.6032 7.11716 17.6782C7.19217 17.7532 7.29391 17.7953 7.4 17.7953H13C13.1061 17.7953 13.2078 17.7532 13.2828 17.6782C13.3579 17.6032 13.4 17.5014 13.4 17.3953C13.4 17.2893 13.3579 17.1875 13.2828 17.1125C13.2078 17.0375 13.1061 16.9953 13 16.9953ZM7.4 11.7949H8.6C8.70609 11.7949 8.80783 11.7528 8.88284 11.6778C8.95786 11.6028 9 11.501 9 11.3949C9 11.2889 8.95786 11.1871 8.88284 11.1121C8.80783 11.0371 8.70609 10.9949 8.6 10.9949H7.4C7.29391 10.9949 7.19217 11.0371 7.11716 11.1121C7.04214 11.1871 7 11.2889 7 11.3949C7 11.501 7.04214 11.6028 7.11716 11.6778C7.19217 11.7528 7.29391 11.7949 7.4 11.7949ZM17 10.9949H10.2C10.0939 10.9949 9.99217 11.0371 9.91716 11.1121C9.84214 11.1871 9.8 11.2889 9.8 11.3949C9.8 11.501 9.84214 11.6028 9.91716 11.6778C9.99217 11.7528 10.0939 11.7949 10.2 11.7949H17C17.1061 11.7949 17.2078 11.7528 17.2828 11.6778C17.3579 11.6028 17.4 11.501 17.4 11.3949C17.4 11.2889 17.3579 11.1871 17.2828 11.1121C17.2078 11.0371 17.1061 10.9949 17 10.9949ZM7.4 13.7953H8.6C8.70609 13.7953 8.80783 13.7532 8.88284 13.6782C8.95786 13.6032 9 13.5014 9 13.3953C9 13.2893 8.95786 13.1875 8.88284 13.1125C8.80783 13.0375 8.70609 12.9953 8.6 12.9953H7.4C7.29391 12.9953 7.19217 13.0375 7.11716 13.1125C7.04214 13.1875 7 13.2893 7 13.3953C7 13.5014 7.04214 13.6032 7.11716 13.6782C7.19217 13.7532 7.29391 13.7953 7.4 13.7953ZM16.6 12.9949H10.2C10.0939 12.9949 9.99217 13.0371 9.91716 13.1121C9.84214 13.1871 9.8 13.2889 9.8 13.3949C9.8 13.501 9.84214 13.6028 9.91716 13.6778C9.99217 13.7528 10.0939 13.7949 10.2 13.7949H16.6C16.7061 13.7949 16.8078 13.7528 16.8828 13.6778C16.9579 13.6028 17 13.501 17 13.3949C17 13.2889 16.9579 13.1871 16.8828 13.1121C16.8078 13.0371 16.7061 12.9949 16.6 12.9949ZM7.4 15.7953H8.6C8.70609 15.7953 8.80783 15.7532 8.88284 15.6782C8.95786 15.6032 9 15.5014 9 15.3953C9 15.2893 8.95786 15.1875 8.88284 15.1125C8.80783 15.0375 8.70609 14.9953 8.6 14.9953H7.4C7.29391 14.9953 7.19217 15.0375 7.11716 15.1125C7.04214 15.1875 7 15.2893 7 15.3953C7 15.5014 7.04214 15.6032 7.11716 15.6782C7.19217 15.7532 7.29391 15.7953 7.4 15.7953ZM14.2 14.9953H10.2C10.0939 14.9953 9.99217 15.0375 9.91716 15.1125C9.84214 15.1875 9.8 15.2893 9.8 15.3953C9.8 15.5014 9.84214 15.6032 9.91716 15.6782C9.99217 15.7532 10.0939 15.7953 10.2 15.7953H14.2C14.3061 15.7953 14.4078 15.7532 14.4828 15.6782C14.5579 15.6032 14.6 15.5014 14.6 15.3953C14.6 15.2893 14.5579 15.1875 14.4828 15.1125C14.4078 15.0375 14.3061 14.9953 14.2 14.9953ZM7.4 5.79414H11C11.1061 5.79414 11.2078 5.752 11.2828 5.67698C11.3579 5.60197 11.4 5.50023 11.4 5.39414C11.4 5.28805 11.3579 5.18631 11.2828 5.1113C11.2078 5.03628 11.1061 4.99414 11 4.99414H7.4C7.29391 4.99414 7.19217 5.03628 7.11716 5.1113C7.04214 5.18631 7 5.28805 7 5.39414C7 5.50023 7.04214 5.60197 7.11716 5.67698C7.19217 5.752 7.29391 5.79414 7.4 5.79414ZM7.4 7.79454H14.6C14.7061 7.79454 14.8078 7.7524 14.8828 7.67738C14.9579 7.60237 15 7.50063 15 7.39454C15 7.28845 14.9579 7.18671 14.8828 7.1117C14.8078 7.03668 14.7061 6.99454 14.6 6.99454H7.4C7.29391 6.99454 7.19217 7.03668 7.11716 7.1117C7.04214 7.18671 7 7.28845 7 7.39454C7 7.50063 7.04214 7.60237 7.11716 7.67738C7.19217 7.7524 7.29391 7.79454 7.4 7.79454ZM21.0724 17.1661L18.5456 20.7761L17.6828 19.9129C17.6076 19.8379 17.5057 19.7959 17.3994 19.796C17.2932 19.7962 17.1914 19.8385 17.1164 19.9137C17.0414 19.989 16.9993 20.0909 16.9995 20.1971C16.9996 20.3033 17.042 20.4051 17.1172 20.4801L18.3172 21.6801C18.3924 21.7547 18.4941 21.7964 18.6 21.7961C18.6116 21.7967 18.6232 21.7967 18.6348 21.7961C18.693 21.791 18.7494 21.7732 18.8 21.744C18.8505 21.7148 18.8941 21.6748 18.9276 21.6269L21.7276 17.6269C21.7589 17.584 21.7813 17.5352 21.7935 17.4835C21.8057 17.4318 21.8075 17.3781 21.7988 17.3257C21.79 17.2733 21.7709 17.2231 21.7426 17.1782C21.7142 17.1332 21.6772 17.0944 21.6336 17.0639C21.5901 17.0334 21.5409 17.0119 21.489 17.0006C21.4371 16.9894 21.3834 16.9885 21.3311 16.9983C21.2789 17.008 21.2291 17.028 21.1847 17.0572C21.1402 17.0863 21.1021 17.1241 21.0724 17.1681V17.1661Z" stroke="#FF8926" stroke-width="0.4" mask="url(#path-2-outside-1_18610_82843)"/>
</svg>
