<svg width="26" height="26" viewBox="0 0 26 26" fill="none" xmlns="http://www.w3.org/2000/svg">
<mask id="path-1-outside-1_18610_82862" maskUnits="userSpaceOnUse" x="0" y="0" width="26" height="26" fill="black">
<rect fill="white" width="26" height="26"/>
<path d="M24.4565 11.478L24.247 11.2338C23.7842 10.6932 23.4926 9.60559 23.623 8.90575L23.6824 8.58972C23.782 8.06055 23.6787 7.49584 23.3923 7C23.1059 6.50416 22.6687 6.13244 22.1611 5.95375L21.8572 5.84683C21.1855 5.61025 20.3894 4.81413 20.1528 4.1425L20.0459 3.83927C19.7281 2.93617 18.7869 2.28067 17.8069 2.28067C17.6736 2.28067 17.5403 2.29314 17.4107 2.31728L17.0942 2.37663C16.9822 2.39748 16.857 2.40813 16.7229 2.40813C16.0322 2.40813 15.209 2.13236 14.7659 1.75262L14.522 1.54352C14.1133 1.19298 13.5728 1 13 1C12.4272 1 11.8867 1.19298 11.478 1.54347L11.2341 1.75258C10.791 2.13236 9.96775 2.40808 9.27709 2.40808C9.14233 2.40808 9.01783 2.39744 8.90575 2.37658L8.58934 2.31723C8.45841 2.29295 8.32552 2.28082 8.19236 2.281C7.21309 2.281 6.27194 2.93617 5.95333 3.83922L5.84711 4.14245C5.61053 4.81408 4.81366 5.6102 4.14278 5.84678L3.83884 5.9537C3.33128 6.13239 2.89403 6.50411 2.60763 6.99995C2.32122 7.4958 2.218 8.0605 2.31756 8.58967L2.37616 8.9057C2.50727 9.60555 2.21575 10.6932 1.75286 11.2337L1.54338 11.478C1.19261 11.8871 1 12.4276 1 13C1 13.5724 1.19336 14.1133 1.54347 14.522L1.75295 14.7659C2.21584 15.3064 2.50736 16.394 2.37625 17.0942L2.31766 17.4107C2.21805 17.9395 2.32131 18.5042 2.60772 19C2.89412 19.4958 3.33137 19.8672 3.83964 20.0459L4.14287 20.1528C4.81375 20.3894 5.61062 21.1855 5.8472 21.8571L5.95413 22.1611C6.27198 23.0634 7.21314 23.7189 8.19241 23.7189C8.32717 23.7189 8.46048 23.7064 8.58939 23.6823L8.9058 23.623C9.01787 23.6024 9.14237 23.5922 9.27714 23.5922C9.9678 23.5922 10.7911 23.8676 11.2334 24.247L11.4781 24.4565C11.8867 24.8066 12.4272 25 13 25C13.5728 25 14.1133 24.8066 14.522 24.4565L14.7659 24.247C15.209 23.8676 16.0322 23.5922 16.7229 23.5922C16.8577 23.5922 16.9822 23.6025 17.0942 23.623L17.4099 23.683C17.5396 23.7065 17.6728 23.719 17.8069 23.719C18.7869 23.719 19.728 23.0635 20.0459 22.1611L20.1528 21.8572C20.3894 21.1855 21.1855 20.3894 21.8572 20.1528L22.1611 20.0459C22.6687 19.8672 23.1059 19.4959 23.3923 19C23.6787 18.5042 23.7812 17.9395 23.6824 17.4107L23.623 17.0943C23.4927 16.3941 23.7842 15.3064 24.247 14.7667L24.4565 14.522C24.8066 14.1133 25 13.5728 25 13C25 12.4276 24.8066 11.8871 24.4565 11.478ZM23.697 13.8716L23.4883 14.1148C22.8254 14.8882 22.4534 16.2776 22.6401 17.2781L22.6995 17.5938C22.8137 18.206 22.4153 18.896 21.8286 19.1026L21.5254 19.2095C20.5652 19.5479 19.5478 20.5652 19.2095 21.5254L19.1033 21.8286C18.9238 22.3362 18.3672 22.7192 17.8069 22.7192C17.7351 22.7192 17.6634 22.7126 17.5945 22.7002L17.2781 22.6402C17.106 22.6079 16.9192 22.5918 16.7229 22.5918C15.7883 22.5918 14.7402 22.9522 14.1155 23.4883L13.8708 23.6978C13.6431 23.8926 13.334 23.9996 13 23.9996C12.666 23.9996 12.3569 23.8927 12.1292 23.6978L11.8845 23.4883C11.259 22.9522 10.2116 22.5918 9.27709 22.5918C9.08078 22.5918 8.89403 22.608 8.72191 22.6402L8.4055 22.6995C8.33524 22.7128 8.26387 22.7195 8.19236 22.7193C7.63277 22.7193 7.07542 22.3362 6.89669 21.8287L6.78977 21.5254C6.45213 20.5645 5.4348 19.5479 4.47456 19.2095L4.17133 19.1026C3.58473 18.896 3.18555 18.206 3.30053 17.5938L3.35988 17.2781C3.54663 16.2769 3.17458 14.8882 2.51172 14.1148L2.30298 13.8716C1.89794 13.3988 1.89794 12.6012 2.30298 12.1288L2.51172 11.8845C3.17458 11.1118 3.54662 9.72241 3.35912 8.72191L3.30053 8.4055C3.18555 7.7943 3.58469 7.10364 4.17137 6.89706L4.47461 6.79014C5.4348 6.45175 6.45217 5.4348 6.78981 4.47461L6.89673 4.17137C7.07542 3.66381 7.63281 3.28075 8.19241 3.28075C8.26492 3.28075 8.33669 3.28736 8.40555 3.30016L8.72195 3.3595C8.89408 3.39175 9.08083 3.4082 9.27714 3.4082C10.2117 3.4082 11.2591 3.04783 11.8846 2.51209L12.1292 2.30261C12.357 2.10742 12.6661 2.00013 13 2.00013C13.334 2.00013 13.6431 2.10742 13.8709 2.30261L14.1155 2.51209C14.7403 3.04787 15.7884 3.4082 16.723 3.4082C16.9193 3.4082 17.106 3.3917 17.2781 3.3595L17.5945 3.30016C17.6634 3.28736 17.7352 3.28075 17.8069 3.28075C18.3672 3.28075 18.9246 3.66344 19.1033 4.17137L19.2095 4.47461C19.5479 5.4348 20.5653 6.4518 21.5254 6.79014L21.8287 6.89706C22.4154 7.10359 22.8145 7.7943 22.6995 8.4055L22.6402 8.72191C22.4534 9.72241 22.8255 11.1118 23.4883 11.8849L23.6971 12.1288C24.1021 12.6012 24.1021 13.3988 23.697 13.8716Z"/>
</mask>
<path d="M24.4565 11.478L24.247 11.2338C23.7842 10.6932 23.4926 9.60559 23.623 8.90575L23.6824 8.58972C23.782 8.06055 23.6787 7.49584 23.3923 7C23.1059 6.50416 22.6687 6.13244 22.1611 5.95375L21.8572 5.84683C21.1855 5.61025 20.3894 4.81413 20.1528 4.1425L20.0459 3.83927C19.7281 2.93617 18.7869 2.28067 17.8069 2.28067C17.6736 2.28067 17.5403 2.29314 17.4107 2.31728L17.0942 2.37663C16.9822 2.39748 16.857 2.40813 16.7229 2.40813C16.0322 2.40813 15.209 2.13236 14.7659 1.75262L14.522 1.54352C14.1133 1.19298 13.5728 1 13 1C12.4272 1 11.8867 1.19298 11.478 1.54347L11.2341 1.75258C10.791 2.13236 9.96775 2.40808 9.27709 2.40808C9.14233 2.40808 9.01783 2.39744 8.90575 2.37658L8.58934 2.31723C8.45841 2.29295 8.32552 2.28082 8.19236 2.281C7.21309 2.281 6.27194 2.93617 5.95333 3.83922L5.84711 4.14245C5.61053 4.81408 4.81366 5.6102 4.14278 5.84678L3.83884 5.9537C3.33128 6.13239 2.89403 6.50411 2.60763 6.99995C2.32122 7.4958 2.218 8.0605 2.31756 8.58967L2.37616 8.9057C2.50727 9.60555 2.21575 10.6932 1.75286 11.2337L1.54338 11.478C1.19261 11.8871 1 12.4276 1 13C1 13.5724 1.19336 14.1133 1.54347 14.522L1.75295 14.7659C2.21584 15.3064 2.50736 16.394 2.37625 17.0942L2.31766 17.4107C2.21805 17.9395 2.32131 18.5042 2.60772 19C2.89412 19.4958 3.33137 19.8672 3.83964 20.0459L4.14287 20.1528C4.81375 20.3894 5.61062 21.1855 5.8472 21.8571L5.95413 22.1611C6.27198 23.0634 7.21314 23.7189 8.19241 23.7189C8.32717 23.7189 8.46048 23.7064 8.58939 23.6823L8.9058 23.623C9.01787 23.6024 9.14237 23.5922 9.27714 23.5922C9.9678 23.5922 10.7911 23.8676 11.2334 24.247L11.4781 24.4565C11.8867 24.8066 12.4272 25 13 25C13.5728 25 14.1133 24.8066 14.522 24.4565L14.7659 24.247C15.209 23.8676 16.0322 23.5922 16.7229 23.5922C16.8577 23.5922 16.9822 23.6025 17.0942 23.623L17.4099 23.683C17.5396 23.7065 17.6728 23.719 17.8069 23.719C18.7869 23.719 19.728 23.0635 20.0459 22.1611L20.1528 21.8572C20.3894 21.1855 21.1855 20.3894 21.8572 20.1528L22.1611 20.0459C22.6687 19.8672 23.1059 19.4959 23.3923 19C23.6787 18.5042 23.7812 17.9395 23.6824 17.4107L23.623 17.0943C23.4927 16.3941 23.7842 15.3064 24.247 14.7667L24.4565 14.522C24.8066 14.1133 25 13.5728 25 13C25 12.4276 24.8066 11.8871 24.4565 11.478ZM23.697 13.8716L23.4883 14.1148C22.8254 14.8882 22.4534 16.2776 22.6401 17.2781L22.6995 17.5938C22.8137 18.206 22.4153 18.896 21.8286 19.1026L21.5254 19.2095C20.5652 19.5479 19.5478 20.5652 19.2095 21.5254L19.1033 21.8286C18.9238 22.3362 18.3672 22.7192 17.8069 22.7192C17.7351 22.7192 17.6634 22.7126 17.5945 22.7002L17.2781 22.6402C17.106 22.6079 16.9192 22.5918 16.7229 22.5918C15.7883 22.5918 14.7402 22.9522 14.1155 23.4883L13.8708 23.6978C13.6431 23.8926 13.334 23.9996 13 23.9996C12.666 23.9996 12.3569 23.8927 12.1292 23.6978L11.8845 23.4883C11.259 22.9522 10.2116 22.5918 9.27709 22.5918C9.08078 22.5918 8.89403 22.608 8.72191 22.6402L8.4055 22.6995C8.33524 22.7128 8.26387 22.7195 8.19236 22.7193C7.63277 22.7193 7.07542 22.3362 6.89669 21.8287L6.78977 21.5254C6.45213 20.5645 5.4348 19.5479 4.47456 19.2095L4.17133 19.1026C3.58473 18.896 3.18555 18.206 3.30053 17.5938L3.35988 17.2781C3.54663 16.2769 3.17458 14.8882 2.51172 14.1148L2.30298 13.8716C1.89794 13.3988 1.89794 12.6012 2.30298 12.1288L2.51172 11.8845C3.17458 11.1118 3.54662 9.72241 3.35912 8.72191L3.30053 8.4055C3.18555 7.7943 3.58469 7.10364 4.17137 6.89706L4.47461 6.79014C5.4348 6.45175 6.45217 5.4348 6.78981 4.47461L6.89673 4.17137C7.07542 3.66381 7.63281 3.28075 8.19241 3.28075C8.26492 3.28075 8.33669 3.28736 8.40555 3.30016L8.72195 3.3595C8.89408 3.39175 9.08083 3.4082 9.27714 3.4082C10.2117 3.4082 11.2591 3.04783 11.8846 2.51209L12.1292 2.30261C12.357 2.10742 12.6661 2.00013 13 2.00013C13.334 2.00013 13.6431 2.10742 13.8709 2.30261L14.1155 2.51209C14.7403 3.04787 15.7884 3.4082 16.723 3.4082C16.9193 3.4082 17.106 3.3917 17.2781 3.3595L17.5945 3.30016C17.6634 3.28736 17.7352 3.28075 17.8069 3.28075C18.3672 3.28075 18.9246 3.66344 19.1033 4.17137L19.2095 4.47461C19.5479 5.4348 20.5653 6.4518 21.5254 6.79014L21.8287 6.89706C22.4154 7.10359 22.8145 7.7943 22.6995 8.4055L22.6402 8.72191C22.4534 9.72241 22.8255 11.1118 23.4883 11.8849L23.6971 12.1288C24.1021 12.6012 24.1021 13.3988 23.697 13.8716Z" fill="#FF8926"/>
<path d="M24.4565 11.478L24.247 11.2338C23.7842 10.6932 23.4926 9.60559 23.623 8.90575L23.6824 8.58972C23.782 8.06055 23.6787 7.49584 23.3923 7C23.1059 6.50416 22.6687 6.13244 22.1611 5.95375L21.8572 5.84683C21.1855 5.61025 20.3894 4.81413 20.1528 4.1425L20.0459 3.83927C19.7281 2.93617 18.7869 2.28067 17.8069 2.28067C17.6736 2.28067 17.5403 2.29314 17.4107 2.31728L17.0942 2.37663C16.9822 2.39748 16.857 2.40813 16.7229 2.40813C16.0322 2.40813 15.209 2.13236 14.7659 1.75262L14.522 1.54352C14.1133 1.19298 13.5728 1 13 1C12.4272 1 11.8867 1.19298 11.478 1.54347L11.2341 1.75258C10.791 2.13236 9.96775 2.40808 9.27709 2.40808C9.14233 2.40808 9.01783 2.39744 8.90575 2.37658L8.58934 2.31723C8.45841 2.29295 8.32552 2.28082 8.19236 2.281C7.21309 2.281 6.27194 2.93617 5.95333 3.83922L5.84711 4.14245C5.61053 4.81408 4.81366 5.6102 4.14278 5.84678L3.83884 5.9537C3.33128 6.13239 2.89403 6.50411 2.60763 6.99995C2.32122 7.4958 2.218 8.0605 2.31756 8.58967L2.37616 8.9057C2.50727 9.60555 2.21575 10.6932 1.75286 11.2337L1.54338 11.478C1.19261 11.8871 1 12.4276 1 13C1 13.5724 1.19336 14.1133 1.54347 14.522L1.75295 14.7659C2.21584 15.3064 2.50736 16.394 2.37625 17.0942L2.31766 17.4107C2.21805 17.9395 2.32131 18.5042 2.60772 19C2.89412 19.4958 3.33137 19.8672 3.83964 20.0459L4.14287 20.1528C4.81375 20.3894 5.61062 21.1855 5.8472 21.8571L5.95413 22.1611C6.27198 23.0634 7.21314 23.7189 8.19241 23.7189C8.32717 23.7189 8.46048 23.7064 8.58939 23.6823L8.9058 23.623C9.01787 23.6024 9.14237 23.5922 9.27714 23.5922C9.9678 23.5922 10.7911 23.8676 11.2334 24.247L11.4781 24.4565C11.8867 24.8066 12.4272 25 13 25C13.5728 25 14.1133 24.8066 14.522 24.4565L14.7659 24.247C15.209 23.8676 16.0322 23.5922 16.7229 23.5922C16.8577 23.5922 16.9822 23.6025 17.0942 23.623L17.4099 23.683C17.5396 23.7065 17.6728 23.719 17.8069 23.719C18.7869 23.719 19.728 23.0635 20.0459 22.1611L20.1528 21.8572C20.3894 21.1855 21.1855 20.3894 21.8572 20.1528L22.1611 20.0459C22.6687 19.8672 23.1059 19.4959 23.3923 19C23.6787 18.5042 23.7812 17.9395 23.6824 17.4107L23.623 17.0943C23.4927 16.3941 23.7842 15.3064 24.247 14.7667L24.4565 14.522C24.8066 14.1133 25 13.5728 25 13C25 12.4276 24.8066 11.8871 24.4565 11.478ZM23.697 13.8716L23.4883 14.1148C22.8254 14.8882 22.4534 16.2776 22.6401 17.2781L22.6995 17.5938C22.8137 18.206 22.4153 18.896 21.8286 19.1026L21.5254 19.2095C20.5652 19.5479 19.5478 20.5652 19.2095 21.5254L19.1033 21.8286C18.9238 22.3362 18.3672 22.7192 17.8069 22.7192C17.7351 22.7192 17.6634 22.7126 17.5945 22.7002L17.2781 22.6402C17.106 22.6079 16.9192 22.5918 16.7229 22.5918C15.7883 22.5918 14.7402 22.9522 14.1155 23.4883L13.8708 23.6978C13.6431 23.8926 13.334 23.9996 13 23.9996C12.666 23.9996 12.3569 23.8927 12.1292 23.6978L11.8845 23.4883C11.259 22.9522 10.2116 22.5918 9.27709 22.5918C9.08078 22.5918 8.89403 22.608 8.72191 22.6402L8.4055 22.6995C8.33524 22.7128 8.26387 22.7195 8.19236 22.7193C7.63277 22.7193 7.07542 22.3362 6.89669 21.8287L6.78977 21.5254C6.45213 20.5645 5.4348 19.5479 4.47456 19.2095L4.17133 19.1026C3.58473 18.896 3.18555 18.206 3.30053 17.5938L3.35988 17.2781C3.54663 16.2769 3.17458 14.8882 2.51172 14.1148L2.30298 13.8716C1.89794 13.3988 1.89794 12.6012 2.30298 12.1288L2.51172 11.8845C3.17458 11.1118 3.54662 9.72241 3.35912 8.72191L3.30053 8.4055C3.18555 7.7943 3.58469 7.10364 4.17137 6.89706L4.47461 6.79014C5.4348 6.45175 6.45217 5.4348 6.78981 4.47461L6.89673 4.17137C7.07542 3.66381 7.63281 3.28075 8.19241 3.28075C8.26492 3.28075 8.33669 3.28736 8.40555 3.30016L8.72195 3.3595C8.89408 3.39175 9.08083 3.4082 9.27714 3.4082C10.2117 3.4082 11.2591 3.04783 11.8846 2.51209L12.1292 2.30261C12.357 2.10742 12.6661 2.00013 13 2.00013C13.334 2.00013 13.6431 2.10742 13.8709 2.30261L14.1155 2.51209C14.7403 3.04787 15.7884 3.4082 16.723 3.4082C16.9193 3.4082 17.106 3.3917 17.2781 3.3595L17.5945 3.30016C17.6634 3.28736 17.7352 3.28075 17.8069 3.28075C18.3672 3.28075 18.9246 3.66344 19.1033 4.17137L19.2095 4.47461C19.5479 5.4348 20.5653 6.4518 21.5254 6.79014L21.8287 6.89706C22.4154 7.10359 22.8145 7.7943 22.6995 8.4055L22.6402 8.72191C22.4534 9.72241 22.8255 11.1118 23.4883 11.8849L23.6971 12.1288C24.1021 12.6012 24.1021 13.3988 23.697 13.8716Z" stroke="#FF8926" stroke-width="0.4" mask="url(#path-1-outside-1_18610_82862)"/>
<path d="M8.42422 18.4248L8.42393 18.4251C8.31545 18.5327 8.16605 18.6006 7.99974 18.6006C7.66815 18.6006 7.40028 18.3314 7.40024 17.9997M8.42422 18.4248L17.5757 7.57584L7.5762 17.5757C7.5762 17.5757 7.57619 17.5757 7.57619 17.5757C7.52033 17.6313 7.47603 17.6974 7.44583 17.7701C7.41564 17.8429 7.40015 17.9209 7.40024 17.9997M8.42422 18.4248L18.4238 8.42456C18.4238 8.42455 18.4238 8.42454 18.4238 8.42454C18.4797 8.36892 18.5241 8.30277 18.5543 8.22991L18.4619 8.19162M8.42422 18.4248L18.4619 8.19162M7.40024 17.9997C7.40024 17.9997 7.40024 17.9996 7.40024 17.9996H7.50024L7.40024 17.9998C7.40024 17.9997 7.40024 17.9997 7.40024 17.9997ZM17.7705 7.44557C17.8434 7.4154 17.9215 7.39991 18.0004 7.4L18.0002 7.5V7.4C18.3318 7.4 18.5997 7.66907 18.5997 8.00025M17.7705 7.44557L18.5997 8.00025M17.7705 7.44557C17.6976 7.47573 17.6315 7.51998 17.5758 7.57578L17.7705 7.44557ZM18.5997 8.00025C18.5999 8.07905 18.5844 8.15711 18.5543 8.22991L18.4619 8.19162M18.5997 8.00025L18.4619 8.19162M9.99999 12.6003C11.4359 12.6003 12.5997 11.4359 12.5997 10.0001C12.5997 8.56431 11.4359 7.4 9.99999 7.4C8.56414 7.4 7.40024 8.56431 7.40024 10.0001C7.40024 11.4359 8.56414 12.6003 9.99999 12.6003ZM9.99999 8.60013C10.7717 8.60013 11.4 9.22812 11.4 10.0001C11.4 10.7721 10.7717 11.4001 9.99999 11.4001C9.22829 11.4001 8.59999 10.7721 8.59999 10.0001C8.59999 9.22812 9.22829 8.60013 9.99999 8.60013ZM16 13.4C14.5641 13.4 13.4002 14.5643 13.4002 16.0001C13.4002 17.4359 14.5641 18.6006 16 18.6006C17.4359 18.6006 18.5997 17.4359 18.5997 16.0001C18.5997 14.5643 17.4359 13.4 16 13.4ZM16 17.4001C15.2283 17.4001 14.6 16.7725 14.6 16.0001C14.6 15.2278 15.2283 14.6001 16 14.6001C16.7717 14.6001 17.4 15.2278 17.4 16.0001C17.4 16.7725 16.7717 17.4001 16 17.4001Z" fill="#FF8926" stroke="#FF8926" stroke-width="0.2"/>
</svg>
