<svg width="40" height="40" viewBox="0 0 40 40" fill="none" xmlns="http://www.w3.org/2000/svg">
<rect width="40" height="40" rx="20" fill="white"/>
<path d="M21.4321 18.2803C21.2438 18.1146 21.0326 18.001 20.7988 17.9425C20.5682 17.8808 20.2889 17.8516 19.9641 17.8516H18.717C18.5124 17.8516 18.363 17.897 18.2688 17.9912C18.1779 18.0822 18.1292 18.2315 18.1292 18.4394V21.9048C18.1292 22.0574 18.1421 22.1808 18.1681 22.275C18.1941 22.3692 18.2526 22.4439 18.3403 22.4959C18.4279 22.5478 18.5611 22.5738 18.7332 22.5738H19.9804C20.198 22.5738 20.3928 22.5608 20.565 22.5316C20.7371 22.5056 20.8995 22.4569 21.0489 22.3854C21.1983 22.3172 21.3379 22.2263 21.4646 22.1126C21.627 21.9632 21.7569 21.7943 21.8608 21.6092C21.9615 21.4208 22.0395 21.2097 22.0882 20.9759C22.1369 20.7421 22.1629 20.4822 22.1629 20.1997C22.1694 19.3423 21.9225 18.6992 21.4321 18.2803ZM20.7209 21.593C20.6494 21.6547 20.5682 21.7034 20.4708 21.7391C20.3734 21.7749 20.2792 21.7943 20.1915 21.8041C20.1005 21.8138 19.9771 21.8171 19.818 21.8171H19.0937V18.6115H19.727C20.0193 18.6115 20.2694 18.644 20.474 18.7057C20.6786 18.7707 20.854 18.9168 20.9937 19.1474C21.1333 19.378 21.2048 19.7288 21.2048 20.1964C21.1983 20.8557 21.0391 21.3234 20.7209 21.593Z" fill="black"/>
<path d="M29.9412 12.3166L29.938 12.3101L29.9347 12.3036L29.9315 12.2971L29.925 12.2841L29.9217 12.2776L29.9088 12.2614L29.9055 12.2549L29.9023 12.2484L29.899 12.2451L29.8958 12.2419L29.8925 12.2386L29.8893 12.2354L29.886 12.2289L29.8828 12.2256V12.2224L29.8795 12.2191L29.8763 12.2159L29.873 12.2127L29.8698 12.2094L29.8665 12.2062L29.8633 12.2029L29.86 12.1997L29.8568 12.1964L29.8535 12.1932L29.8503 12.1899L29.847 12.1867L29.8438 12.1834L29.8406 12.1802L29.8373 12.1769L29.8308 12.1704L29.8243 12.1639L24.839 7.17538C24.826 7.16239 24.813 7.1494 24.8 7.13965L24.7968 7.13641C24.7903 7.12991 24.7838 7.12666 24.7773 7.12017L24.7708 7.11692L24.7676 7.11367L24.7611 7.10718L24.7578 7.10393L24.7448 7.09743L24.7383 7.09418C24.7318 7.08769 24.7221 7.08444 24.7156 7.08119L24.7026 7.0747L24.6961 7.07145L24.6929 7.06496C24.6117 7.02273 24.5207 7 24.4265 7H11.8382C11.3511 7 10.9094 7.19162 10.5781 7.5034C10.5651 7.51315 10.5521 7.52614 10.5391 7.53913C10.2079 7.8704 10 8.33158 10 8.83823V31.6667C10 32.1701 10.2046 32.6281 10.5359 32.9593L10.5391 32.9626C10.8736 33.2971 11.3316 33.5017 11.835 33.5017H28.1615C28.6681 33.5017 29.126 33.2938 29.4606 32.9626C29.7918 32.6313 29.9997 32.1701 29.9997 31.6635V12.5796C30.0029 12.4855 29.9802 12.3978 29.9412 12.3166ZM25.0014 8.96814L28.0348 12.0015H25.8101C25.586 12.0015 25.3846 11.9106 25.2385 11.7645L25.2352 11.7612C25.0891 11.6151 24.9981 11.4137 24.9981 11.1896V8.96814H25.0014ZM28.85 31.6667C28.85 31.8551 28.772 32.024 28.6486 32.1506C28.5252 32.2741 28.3531 32.352 28.1647 32.352H11.8382C11.6499 32.352 11.4777 32.2773 11.3543 32.1539L11.3511 32.1506C11.2277 32.0272 11.153 31.8583 11.153 31.6667V8.83498C11.153 8.64661 11.2309 8.47773 11.3543 8.35107C11.3608 8.34457 11.3706 8.33483 11.377 8.32833C11.4972 8.21791 11.6596 8.14971 11.8382 8.14971H23.8452V11.1896C23.8452 11.7287 24.066 12.2191 24.4233 12.5764C24.7805 12.9304 25.271 13.1513 25.8068 13.1513H28.8467V31.6667H28.85Z" fill="black"/>
<path d="M16.8982 18.2023C16.7585 18.0789 16.5896 17.988 16.398 17.936C16.2031 17.8808 15.9238 17.8516 15.5601 17.8516H14.3324C14.1213 17.8516 13.9687 17.897 13.8712 17.988C13.7738 18.0789 13.7251 18.2283 13.7251 18.4394V22.0801C13.7251 22.2685 13.7706 22.4114 13.8583 22.5088C13.9459 22.6063 14.0629 22.655 14.2058 22.655C14.3422 22.655 14.4558 22.6063 14.5468 22.5056C14.6377 22.4082 14.6832 22.262 14.6832 22.0704V20.7323H15.5601C16.1479 20.7323 16.5896 20.6089 16.8852 20.3621C17.1807 20.112 17.3301 19.7483 17.3301 19.2676C17.3301 19.0435 17.2944 18.8389 17.2197 18.657C17.145 18.4784 17.0378 18.3257 16.8982 18.2023ZM16.2389 19.7093C16.1577 19.8165 16.044 19.8944 15.8914 19.9399C15.7387 19.9886 15.5503 20.0113 15.3262 20.0113H14.6832V18.5661H15.3262C15.7549 18.5661 16.0375 18.6375 16.1739 18.7772C16.2973 18.9071 16.359 19.076 16.359 19.2871C16.359 19.4624 16.3168 19.6054 16.2389 19.7093Z" fill="black"/>
<path d="M23.2411 17.91C23.1534 17.949 23.0917 18.014 23.0495 18.1016C23.0105 18.1893 22.9878 18.2998 22.9878 18.4394V22.0704C22.9878 22.2653 23.0333 22.4114 23.121 22.5088C23.2086 22.6063 23.3256 22.655 23.4685 22.655C23.6081 22.655 23.7218 22.6063 23.8095 22.5121C23.8972 22.4179 23.9426 22.2718 23.9426 22.0736V20.518H25.5178C25.6607 20.518 25.7711 20.4855 25.8426 20.4205C25.914 20.3556 25.953 20.2679 25.953 20.1575C25.953 20.047 25.9173 19.9594 25.8458 19.8944C25.7744 19.8294 25.6639 19.797 25.5178 19.797H23.9426V18.5888H25.8263C25.979 18.5888 26.0927 18.5531 26.1673 18.4881C26.242 18.4199 26.2778 18.329 26.2778 18.2186C26.2778 18.1081 26.2388 18.0204 26.1673 17.9522C26.0927 17.884 25.979 17.8516 25.8263 17.8516H23.5756C23.4392 17.8516 23.3288 17.871 23.2411 17.91Z" fill="black"/>
</svg>
