<svg width="18" height="31" viewBox="0 0 18 31" fill="none" xmlns="http://www.w3.org/2000/svg">
<path d="M8.96875 17.9375C13.9141 17.9375 17.9375 13.9141 17.9375 8.96875C17.9375 4.02338 13.9141 0 8.96875 0C4.02338 0 0 4.02338 0 8.96875C0 13.9141 4.02338 17.9375 8.96875 17.9375ZM8.96875 1.025C13.3488 1.025 16.9125 4.58867 16.9125 8.96875C16.9125 13.3488 13.3488 16.9125 8.96875 16.9125C4.58867 16.9125 1.025 13.3488 1.025 8.96875C1.025 4.58867 4.58867 1.025 8.96875 1.025Z" fill="black"/>
<path d="M8.9687 11.7418C8.32679 11.7418 7.8043 11.2337 7.8043 10.609H6.7793C6.7793 11.6247 7.49577 12.4765 8.4562 12.7048V13.571H9.4812V12.7048C10.4416 12.4765 11.1581 11.6247 11.1581 10.6087C11.1581 9.41893 10.1759 8.45108 8.9687 8.45108C8.32679 8.45108 7.8043 7.94268 7.8043 7.31819C7.8043 6.69346 8.32679 6.18506 8.9687 6.18506C9.6106 6.18506 10.1331 6.69346 10.1331 7.31819H11.1581C11.1581 6.30242 10.4416 5.45064 9.4812 5.22207V4.3562H8.4562V5.22233C7.49577 5.45039 6.7793 6.30242 6.7793 7.31819C6.7793 8.50796 7.7615 9.47582 8.9687 9.47582C9.6106 9.47582 10.1331 9.98422 10.1331 10.609C10.1331 11.2337 9.6106 11.7418 8.9687 11.7418Z" fill="black"/>
<path d="M8.60063 25.7135L8.4375 25.5447V20.0641C8.4375 19.9149 8.49679 19.7718 8.60226 19.6663C8.70773 19.5609 8.85083 19.5016 9 19.5016C9.14917 19.5016 9.29227 19.5609 9.39774 19.6663C9.50321 19.7718 9.5625 19.9149 9.5625 20.0641V25.5447L9.39938 25.7135C9.34706 25.7662 9.28485 25.808 9.21634 25.8366C9.14777 25.8652 9.07425 25.8798 9 25.8798C8.92575 25.8798 8.85223 25.8652 8.78366 25.8366C8.71515 25.808 8.65294 25.7662 8.60063 25.7135Z" fill="black"/>
<path d="M4.62299 22.5296C4.6753 22.4769 4.73751 22.4351 4.80603 22.4065C4.87459 22.378 4.94811 22.3633 5.02236 22.3633C5.09661 22.3633 5.17013 22.378 5.2387 22.4065C5.30721 22.4351 5.36942 22.4769 5.42174 22.5296L8.43674 25.5446L8.59986 25.7134C8.65218 25.7661 8.71439 25.808 8.7829 25.8365C8.85147 25.8651 8.92499 25.8798 8.99924 25.8798C9.07349 25.8798 9.14701 25.8651 9.21557 25.8365C9.28409 25.808 9.3463 25.7661 9.39861 25.7134L9.56174 25.5446L12.5767 22.5296C12.629 22.4769 12.6912 22.4351 12.7598 22.4065C12.8283 22.378 12.9019 22.3633 12.9761 22.3633C13.0504 22.3633 13.1239 22.378 13.1924 22.4065C13.261 22.4351 13.3232 22.4769 13.3755 22.5296C13.4803 22.635 13.5391 22.7776 13.5391 22.9262C13.5391 23.0748 13.4803 23.2174 13.3755 23.3227L10.1917 26.5065C9.87533 26.8226 9.44642 27 8.99924 27C8.55205 27 8.12314 26.8226 7.80674 26.5065L4.62299 23.3227C4.51825 23.2174 4.45941 23.0748 4.45941 22.9262C4.45941 22.7776 4.51825 22.635 4.62299 22.5296Z" fill="black"/>
</svg>
