<svg width="24" height="24" viewBox="0 0 24 24" fill="none" xmlns="http://www.w3.org/2000/svg">
<path d="M14.8995 3C15.4299 3 15.9386 3.21071 16.3137 3.58579L20.4142 7.68629C20.7893 8.06136 21 8.57007 21 9.1005V14.8995C21 15.4299 20.7893 15.9386 20.4142 16.3137L16.3137 20.4142C15.9386 20.7893 15.4299 21 14.8995 21H9.10051C8.57007 21 8.06136 20.7893 7.68629 20.4142L3.58579 16.3137C3.21071 15.9386 3 15.4299 3 14.8995L3 9.10051C3 8.57007 3.21071 8.06136 3.58579 7.68629L7.68629 3.58579C8.06136 3.21071 8.57007 3 9.1005 3L14.8995 3Z" stroke="#DE3924" stroke-width="1.5" stroke-linecap="round" stroke-linejoin="round"/>
<path d="M7 11C7 10.7348 7.10536 10.4804 7.29289 10.2929C7.48043 10.1054 7.73478 10 8 10H16C16.2652 10 16.5196 10.1054 16.7071 10.2929C16.8946 10.4804 17 10.7348 17 11V13C17 13.2652 16.8946 13.5196 16.7071 13.7071C16.5196 13.8946 16.2652 14 16 14H8C7.73478 14 7.48043 13.8946 7.29289 13.7071C7.10536 13.5196 7 13.2652 7 13V11Z" stroke="#DE3924" stroke-width="1.5" stroke-linecap="round" stroke-linejoin="round"/>
</svg>
