<svg width="20" height="20" viewBox="0 0 20 20" fill="none" xmlns="http://www.w3.org/2000/svg">
<path d="M15.9954 7.02844e-06H3.99949C3.46919 7.02844e-06 2.96062 0.228262 2.58564 0.634555C2.21066 1.04085 2 1.5919 2 2.16648V18.1617C2.00016 18.4224 2.06537 18.6781 2.18873 18.9018C2.3121 19.1255 2.48902 19.3089 2.70075 19.4325C2.91248 19.5562 3.15114 19.6155 3.39144 19.6041C3.63173 19.5928 3.86471 19.5112 4.0657 19.368L6.73135 17.5051L9.18411 19.6715C9.42265 19.8839 9.72183 20 10.0306 20C10.3393 20 10.6385 19.8839 10.877 19.6715L13.3298 17.5051L15.9628 19.368C16.1634 19.5031 16.3934 19.5781 16.6294 19.5853C16.8655 19.5924 17.099 19.5316 17.3062 19.4089C17.5134 19.2862 17.6868 19.1061 17.8087 18.8869C17.9306 18.6678 17.9966 18.4176 18 18.1617V2.16648C18 1.88151 17.9481 1.59934 17.8473 1.33613C17.7465 1.07292 17.5988 0.833845 17.4126 0.632597C17.2264 0.431349 17.0053 0.271884 16.7622 0.163334C16.519 0.0547835 16.2584 -0.000718826 15.9954 7.02844e-06ZM16.6616 18.1617L14.0285 16.2911C13.7912 16.1237 13.5108 16.0426 13.228 16.0594C12.9453 16.0763 12.6748 16.1903 12.4558 16.3849L9.99695 18.5513L7.53807 16.3849C7.30092 16.1756 7.0046 16.061 6.69876 16.0604C6.43928 16.0621 6.18535 16.1419 5.96538 16.2911L3.33231 18.1617V2.16648C3.33231 1.97505 3.40251 1.79146 3.52743 1.6561C3.65236 1.52074 3.8218 1.44469 3.99848 1.44469H15.9954C16.1721 1.44469 16.3415 1.52074 16.4665 1.6561C16.5914 1.79146 16.6616 1.97505 16.6616 2.16648V18.1617ZM14.9952 4.33295C14.9952 4.42774 14.9779 4.5216 14.9445 4.60917C14.911 4.69674 14.8619 4.77631 14.8001 4.84334C14.7382 4.91036 14.6648 4.96353 14.5839 4.9998C14.5031 5.03607 14.4165 5.05475 14.329 5.05475H5.66693C5.49012 5.05475 5.32054 4.97864 5.19551 4.84318C5.07049 4.70771 5.00025 4.52398 5.00025 4.3324C5.00025 4.14083 5.07049 3.9571 5.19551 3.82163C5.32054 3.68617 5.49012 3.61006 5.66693 3.61006H14.3249C14.5016 3.61006 14.6711 3.68611 14.796 3.82147C14.9209 3.95683 14.9911 4.14042 14.9911 4.33185L14.9952 4.33295ZM14.9952 8.6659C14.9952 8.85734 14.925 9.04093 14.8001 9.17629C14.6751 9.31165 14.5057 9.38769 14.329 9.38769H5.66693C5.49012 9.38769 5.32054 9.31159 5.19551 9.17612C5.07049 9.04066 5.00025 8.85693 5.00025 8.66535C5.00025 8.47378 5.07049 8.29004 5.19551 8.15458C5.32054 8.01911 5.49012 7.94301 5.66693 7.94301H14.3249C14.5016 7.94301 14.6711 8.01906 14.796 8.15442C14.9209 8.28978 14.9911 8.47337 14.9911 8.6648L14.9952 8.6659ZM14.9952 11.5542C14.9952 11.649 14.9779 11.7428 14.9445 11.8304C14.911 11.918 14.8619 11.9975 14.8001 12.0645C14.7382 12.1316 14.6648 12.1847 14.5839 12.221C14.5031 12.2573 14.4165 12.276 14.329 12.276H5.66693C5.49012 12.276 5.32054 12.1999 5.19551 12.0644C5.07049 11.9289 5.00025 11.7452 5.00025 11.5536C5.00025 11.362 5.07049 11.1783 5.19551 11.0428C5.32054 10.9074 5.49012 10.8313 5.66693 10.8313H14.3249C14.4124 10.8313 14.499 10.8499 14.5799 10.8862C14.6607 10.9225 14.7341 10.9757 14.796 11.0427C14.8578 11.1097 14.9069 11.1893 14.9404 11.2768C14.9739 11.3644 14.9911 11.4583 14.9911 11.5531L14.9952 11.5542ZM14.9952 14.4424C14.9952 14.6339 14.925 14.8175 14.8001 14.9528C14.6751 15.0882 14.5057 15.1642 14.329 15.1642H5.66693C5.49012 15.1642 5.32054 15.0881 5.19551 14.9527C5.07049 14.8172 5.00025 14.6335 5.00025 14.4419C5.00025 14.2503 5.07049 14.0666 5.19551 13.9311C5.32054 13.7956 5.49012 13.7195 5.66693 13.7195H14.3249C14.5016 13.7195 14.6711 13.7956 14.796 13.9309C14.9209 14.0663 14.9911 14.2499 14.9911 14.4413L14.9952 14.4424Z" fill="white"/>
</svg>
