<svg width="20" height="20" viewBox="0 0 20 20" fill="none" xmlns="http://www.w3.org/2000/svg">
<path fill-rule="evenodd" clip-rule="evenodd" d="M5.93506 3.28656L4.587 7.17452C4.5538 7.50593 4.76341 7.84554 5.20403 8.18776C5.70145 8.57377 6.47128 8.94659 7.49992 9.3C7.65987 8.79252 7.93797 8.33024 8.31135 7.95115L8.24735 7.78154C7.87173 6.7853 7.70733 6.34688 7.26731 6.20148C7.23279 6.19082 7.20075 6.17338 7.17305 6.15018C7.14535 6.12699 7.12256 6.0985 7.10601 6.06639C7.08946 6.03427 7.07949 5.99918 7.07666 5.96317C7.07384 5.92715 7.07823 5.89093 7.08958 5.85663C7.10093 5.82234 7.11901 5.79065 7.14275 5.76342C7.1665 5.7362 7.19544 5.71398 7.22788 5.69808C7.26032 5.68217 7.2956 5.6729 7.33167 5.6708C7.36773 5.6687 7.40385 5.67382 7.43792 5.68585C8.12475 5.91466 8.31795 6.42589 8.75657 7.59053C8.83297 7.79334 8.91778 8.01815 9.02198 8.28436L9.02338 8.28696C9.09115 8.44601 9.21898 8.57187 9.37907 8.63716C9.53916 8.70244 9.71855 8.70187 9.87822 8.63558L9.88562 8.63258L9.92202 8.61438H9.92402C10.0701 8.53869 10.1824 8.4108 10.2385 8.25613C10.2947 8.10146 10.2906 7.93132 10.227 7.77954L9.25639 5.47025C9.22844 5.40349 9.22815 5.32836 9.25558 5.26139C9.28302 5.19442 9.33594 5.14109 9.4027 5.11313C9.46945 5.08518 9.54458 5.08489 9.61156 5.11232C9.67853 5.13976 9.73186 5.19268 9.75981 5.25944L10.4698 6.94951C10.9657 6.91224 11.4636 6.98441 11.9285 7.16092C12.0325 7.20052 12.1345 7.24531 12.2341 7.29512C12.1877 6.92931 12.1385 6.57609 12.0901 6.27208C12.0495 5.97984 11.991 5.69036 11.9151 5.40524C11.7904 5.08798 11.5833 4.80977 11.3151 4.59941C11.0437 4.35766 10.7172 4.18599 10.3642 4.09939C8.08014 3.65477 6.49608 3.38136 5.93466 3.28656H5.93506ZM3.83497 7.68474C3.80468 7.76935 3.74236 7.83868 3.66144 7.87778C3.58051 7.91688 3.48747 7.92261 3.40235 7.89375L2.0475 7.42393C1.96306 7.39344 1.89396 7.33104 1.85506 7.25013C1.81617 7.16923 1.81057 7.07629 1.83949 6.99131L3.64936 1.7711C3.66401 1.72925 3.68679 1.69071 3.71637 1.65769C3.74596 1.62467 3.78178 1.59782 3.82177 1.57869C3.86188 1.55893 3.90549 1.54728 3.9501 1.54439C3.99472 1.54151 4.03946 1.54746 4.08178 1.56189L5.43724 2.03191C5.52179 2.06228 5.59105 2.12461 5.63014 2.20551C5.66922 2.28641 5.675 2.37941 5.64624 2.46452L5.50364 2.87594C5.49941 2.88605 5.49581 2.8964 5.49284 2.90694L4.06878 7.01131C4.06487 7.02093 4.06147 7.03074 4.05858 7.04071L3.83537 7.68474H3.83497ZM8.90558 12.4997H12.5399L12.5799 12.4657C12.9007 12.1879 13.1551 11.8416 13.3244 11.4524C13.4936 11.0632 13.5734 10.641 13.5579 10.2169C13.5424 9.79282 13.432 9.37758 13.2348 9.0018C13.0375 8.62601 12.7585 8.29924 12.4183 8.04555C12.4129 8.04175 12.4077 8.03795 12.4027 8.03395C11.9077 7.67078 11.3083 7.47786 10.6944 7.48413L10.7517 7.61973V7.62353C10.8559 7.91272 10.8454 8.23087 10.7223 8.51254C10.5991 8.79421 10.3727 9.01798 10.0896 9.1378L10.039 9.1592H10.0352C9.74995 9.26186 9.43642 9.25301 9.15739 9.13441C8.87836 9.01581 8.65442 8.79622 8.53036 8.51957C8.10585 9.0369 7.87782 9.68762 7.88657 10.3568C7.89531 11.0259 8.14027 11.6705 8.57816 12.1765C8.6387 12.2463 8.7025 12.3129 8.76957 12.3765C8.81451 12.4196 8.85984 12.4602 8.90558 12.4983V12.4997ZM2.99534 12.4997C2.92302 12.4998 2.85368 12.5286 2.80256 12.5797C2.75144 12.6309 2.72273 12.7002 2.72273 12.7725V18.7268C2.72267 18.7626 2.72968 18.7981 2.74336 18.8313C2.75703 18.8644 2.7771 18.8945 2.80242 18.9199C2.82773 18.9453 2.8578 18.9654 2.8909 18.9791C2.92401 18.9929 2.95949 19 2.99534 19H18.4506C18.5229 19 18.5923 18.9713 18.6435 18.9201C18.6946 18.8689 18.7234 18.7995 18.7234 18.7272V12.7719C18.7232 12.6997 18.6944 12.6305 18.6433 12.5794C18.5921 12.5284 18.5228 12.4997 18.4506 12.4997H13.3082C13.8273 11.8843 14.1097 11.1038 14.1045 10.2986C14.0993 9.49351 13.8069 8.71667 13.28 8.10795C13.1436 7.95029 12.993 7.80547 12.8301 7.67534C12.7701 7.16272 12.6991 6.63529 12.6277 6.18668C12.5832 5.86763 12.5183 5.55177 12.4333 5.24104C12.2783 4.826 12.0139 4.46062 11.6681 4.18359C11.3249 3.88188 10.9128 3.66929 10.468 3.56457C8.30315 3.14315 6.75149 2.87314 6.11666 2.76454L6.15966 2.64033C6.23558 2.41918 6.22067 2.17694 6.11819 1.96677C6.01571 1.7566 5.83404 1.59567 5.61304 1.51929L4.25799 1.04847C4.04006 0.973125 3.8013 0.986017 3.59276 1.08439C3.38421 1.18276 3.22241 1.3588 3.14194 1.57489V1.57669L1.32507 6.8145C1.24871 7.03579 1.26327 7.27833 1.36557 7.48889C1.46787 7.69945 1.64954 7.86081 1.87069 7.93755L3.22595 8.40737C3.42109 8.47466 3.63363 8.4715 3.82669 8.39843C4.01974 8.32536 4.18111 8.18699 4.28279 8.00735C4.44465 8.24142 4.64352 8.44759 4.87161 8.61777C5.42424 9.04679 6.26487 9.45401 7.37791 9.83262C7.30877 10.3055 7.34076 10.7877 7.47178 11.2473C7.6028 11.7068 7.82985 12.1334 8.13795 12.4987L2.99534 12.4997ZM18.1778 14.4628V18.4542H3.26815V14.4622L18.1778 14.4628ZM3.26815 13.9168V13.0446H18.1778V13.9168H3.26815Z" fill="white"/>
</svg>
