<svg width="20" height="20" viewBox="0 0 20 20" fill="none" xmlns="http://www.w3.org/2000/svg">
<path d="M1.23058 14.51L1.2268 14.5039L1.22604 14.5024L1.22302 14.4971L1.22226 14.4956L1.22 14.4903L1.21924 14.4888L1.21697 14.4835L1.21622 14.482L1.21395 14.4767L1.21319 14.4752L1.21092 14.4699L1.21017 14.4684L1.20866 14.4631L1.2079 14.4616L1.20639 14.4563L1.20412 14.4495L1.20336 14.448L1.20185 14.4412L1.20034 14.4382C1.13532 14.2144 1.08543 13.9853 1.05141 13.7517C1.01814 13.5173 1 13.2784 1 13.0388C1 11.712 1.51862 10.5085 2.35703 9.63677C2.88473 9.08792 3.53943 8.66984 4.27199 8.43549C4.06107 8.31377 3.86829 8.1656 3.69742 7.99474L3.68154 7.97735C3.19241 7.4799 2.89076 6.79797 2.89076 6.0465C2.89076 5.28671 3.19922 4.59874 3.69743 4.0997L3.69894 4.09819C4.1979 3.60074 4.88587 3.29228 5.64497 3.29228C6.40476 3.29228 7.09273 3.60074 7.59176 4.0997C8.09072 4.59715 8.39918 5.28663 8.39918 6.04708C8.39918 6.80612 8.09072 7.49484 7.59252 7.9931L7.59101 7.99462C7.42015 8.16472 7.22737 8.31289 7.0172 8.43385C7.15102 8.47694 7.28181 8.52533 7.41032 8.58052C7.89492 8.7869 8.33795 9.07721 8.72427 9.43102C9.10151 9.16717 9.56041 9.01294 10.0548 9.01294C10.5228 9.01294 10.9583 9.15053 11.3227 9.38867C11.7067 9.0447 12.1467 8.76496 12.6245 8.56614C12.7417 8.51699 12.8612 8.47315 12.9829 8.43459C12.7727 8.31287 12.5792 8.1647 12.4083 7.99385L12.4068 7.99233C11.9093 7.49337 11.6009 6.8054 11.6009 6.04631C11.6009 5.28576 11.9093 4.59704 12.4075 4.09816L12.4249 4.08228C12.9224 3.59315 13.6043 3.2915 14.3558 3.2915C15.1156 3.2915 15.8035 3.59996 16.3026 4.09817L16.3041 4.09968C16.8015 4.59864 17.11 5.28661 17.11 6.04571C17.11 6.8055 16.8015 7.49347 16.3026 7.9925C16.1317 8.16336 15.9389 8.31153 15.728 8.43325C16.4598 8.66836 17.1153 9.08568 17.643 9.63454C18.4814 10.507 19 11.7098 19 13.0365C19 13.2762 18.9826 13.5159 18.9486 13.751C18.9146 13.9876 18.8632 14.2205 18.7974 14.4473L18.7951 14.4533V14.4548C18.7891 14.4737 18.7815 14.4911 18.7717 14.5085L18.7679 14.5145L18.7656 14.5183C18.5706 14.8774 18.2024 15.1889 17.7019 15.452C16.7494 15.954 15.2661 16.3055 13.5742 16.5066C13.5575 16.5104 13.5409 16.5119 13.525 16.5127C12.4092 16.6427 11.2033 16.7085 9.99972 16.7085C8.83396 16.7092 7.66585 16.6472 6.57952 16.5255C6.56289 16.5248 6.54625 16.5233 6.52962 16.5202C4.79459 16.3214 3.27044 15.9661 2.29753 15.4528C1.79326 15.1866 1.42283 14.8729 1.22854 14.5093L1.23058 14.51ZM12.3613 5.18319C12.6441 5.26031 12.9382 5.25879 13.2118 5.18471C13.5679 5.08945 13.8915 4.87323 14.1183 4.5542C14.2105 4.42416 14.392 4.39317 14.522 4.48616C14.5492 4.50506 14.5719 4.52849 14.59 4.5542C14.8161 4.87323 15.1396 5.08945 15.4965 5.18471C15.7724 5.25879 16.068 5.26031 16.3515 5.18168C16.2419 4.92917 16.0862 4.70161 15.8942 4.50958C15.5018 4.11647 14.9575 3.87377 14.3564 3.87377C13.7622 3.87377 13.2239 4.11117 12.8331 4.49596L12.8195 4.51032C12.6274 4.70235 12.4717 4.92991 12.3621 5.18242L12.3613 5.18319ZM16.5081 5.73886C16.1218 5.84697 15.7211 5.84546 15.3461 5.74491C14.9764 5.64587 14.6317 5.45083 14.3535 5.17033C14.0745 5.45081 13.7305 5.64586 13.3608 5.74491C12.9881 5.8447 12.5889 5.84621 12.2034 5.74037C12.189 5.84092 12.1822 5.94374 12.1822 6.04806C12.1822 6.64909 12.4256 7.19342 12.8172 7.58502C13.2111 7.97891 13.7547 8.22159 14.355 8.22159C14.9552 8.22159 15.4988 7.97816 15.8927 7.58502C16.2866 7.19266 16.5292 6.64909 16.5292 6.04806C16.5292 5.94297 16.5217 5.84018 16.5081 5.73886ZM18.2514 14.2553C18.3051 14.0671 18.3474 13.872 18.3762 13.6709C18.4049 13.4675 18.42 13.2559 18.42 13.0389C18.42 11.8663 17.9634 10.8049 17.2263 10.0383C16.4914 9.27472 15.4761 8.80146 14.3557 8.80146C13.822 8.80146 13.3132 8.90806 12.8475 9.10311C12.4544 9.26717 12.0915 9.49245 11.7702 9.76915C12.152 10.185 12.3848 10.7384 12.3848 11.3447C12.3848 11.9865 12.124 12.5686 11.7029 12.9905L11.7014 12.992C11.5766 13.116 11.4383 13.2264 11.2886 13.3201C11.681 13.469 12.0461 13.6845 12.3727 13.9521C12.9866 14.4556 13.4621 15.1436 13.723 15.9078C15.2524 15.7135 16.5777 15.3907 17.4335 14.9401C17.8274 14.7322 18.1109 14.5032 18.2515 14.2544L18.2514 14.2553ZM13.1318 15.9767C12.8974 15.3613 12.5043 14.8095 12.0046 14.3989C11.458 13.9506 10.7836 13.6739 10.0556 13.6739C9.32384 13.6739 8.64492 13.9521 8.09684 14.4035C7.59788 14.814 7.20475 15.3681 6.97341 15.9866C7.9411 16.0826 8.97073 16.1302 10.0013 16.1302C11.0688 16.131 12.1347 16.0795 13.1328 15.9767L13.1318 15.9767ZM6.38059 15.9208C6.63913 15.1534 7.11468 14.4624 7.72854 13.9568C8.05665 13.6869 8.42483 13.4691 8.82097 13.3194C8.67203 13.2257 8.53292 13.1153 8.40894 12.9913L8.40743 12.9898C7.98633 12.568 7.72552 11.9858 7.72552 11.344C7.72552 10.7626 7.93948 10.2304 8.29253 9.82139C7.96442 9.52807 7.5902 9.28766 7.18421 9.11454C6.71095 8.91268 6.19158 8.80079 5.6465 8.80079C4.52608 8.80079 3.51003 9.2733 2.77594 10.0376C2.03883 10.805 1.5822 11.8656 1.5822 13.0382C1.5822 13.2544 1.59732 13.4661 1.62605 13.6695C1.65478 13.8706 1.69711 14.0672 1.75079 14.2561C1.8914 14.5041 2.17491 14.7332 2.56804 14.9403C3.44273 15.4007 4.80727 15.7273 6.38054 15.9201L6.38059 15.9208ZM8.89581 10.0337L8.89429 10.0353L8.88976 10.039C8.86557 10.061 8.84137 10.0836 8.81869 10.1071C8.50193 10.4238 8.30688 10.8616 8.30688 11.3447C8.30688 11.8285 8.50268 12.2662 8.81794 12.5815C9.1347 12.8982 9.57243 13.0933 10.0555 13.0933C10.5394 13.0933 10.9771 12.8975 11.2923 12.5822C11.6091 12.2655 11.8042 11.8277 11.8042 11.3447C11.8042 10.8608 11.6083 10.4231 11.2923 10.1071C11.253 10.0678 11.2114 10.03 11.1684 9.99443L11.1638 9.99065C10.8622 9.7442 10.4766 9.59601 10.0555 9.59601C9.61021 9.59601 9.20349 9.76158 8.89579 10.0345L8.89581 10.0337ZM7.18344 4.50882C6.79108 4.11571 6.24751 3.87301 5.64648 3.87301C5.04545 3.87301 4.50112 4.11644 4.10876 4.50805C3.71487 4.90193 3.4722 5.4455 3.4722 6.04652C3.4722 6.64074 3.70959 7.17902 4.09438 7.56987L4.10875 7.58348C4.50263 7.97737 5.0462 8.22005 5.64646 8.22005C6.24749 8.22005 6.79182 7.97662 7.18342 7.58501C7.57731 7.19112 7.81999 6.64755 7.81999 6.04729C7.81999 5.44704 7.57656 4.90345 7.18342 4.50958L7.18344 4.50882Z" fill="white"/>
</svg>
