<svg width="20" height="20" viewBox="0 0 20 20" fill="none" xmlns="http://www.w3.org/2000/svg">
<path d="M9.32238 0.00177305C9.15078 0.00604615 8.98717 0.0781123 8.86474 0.203353L7.53101 1.53612C7.46918 1.5969 7.4198 1.67007 7.38584 1.75124C7.35187 1.8324 7.33403 1.91988 7.33339 2.00841V4.0492C5.90668 4.18365 4.57662 4.85726 3.59434 5.94287C2.61205 7.02847 2.04551 8.45093 2.00169 9.94168C1.99629 10.0243 2.00386 10.1073 2.02409 10.1874L4.69154 19.5167C4.73407 19.6583 4.81933 19.7817 4.93464 19.8688C5.04996 19.9558 5.18918 20.0018 5.3316 19.9999H17.3327C17.5061 20.0034 17.6736 19.9353 17.7987 19.8104C17.9238 19.6854 17.9962 19.5139 18 19.3335V14.6688C17.9834 13.9479 17.6937 13.263 17.1939 12.7637C16.6942 12.2643 16.0251 11.991 15.3325 12.0033H13.4588L13.978 10.1882C13.9971 10.1014 14.0041 10.0122 13.9988 9.92335C13.9505 8.43628 13.3821 7.01878 12.4006 5.93724C11.4191 4.85571 10.092 4.1846 8.66872 4.05004V2.28746L9.80803 1.15211C9.90445 1.05783 9.97044 0.934754 9.99693 0.799821C10.0234 0.664889 10.0091 0.524726 9.95595 0.398611C9.90279 0.272497 9.81341 0.166627 9.7001 0.0955639C9.58679 0.0245004 9.45431 -0.00826559 9.32238 0.00177305ZM7.33419 5.39363V9.33944H3.40182C3.55938 8.32758 4.02778 7.39618 4.73677 6.68492C5.44576 5.97366 6.35713 5.52087 7.33419 5.39446V5.39363ZM8.66872 5.39363C9.64623 5.51961 10.5581 5.97233 11.2675 6.68381C11.9768 7.39529 12.4453 8.32713 12.6027 9.33944H8.66872V5.39363ZM3.55303 10.6697H12.4523L12.0714 12.0025H11.3362C10.6436 11.9902 9.9745 12.2635 9.47478 12.7629C8.97506 13.2622 8.6853 13.9471 8.66872 14.668V18.6663H5.83805L3.55303 10.6697ZM11.337 13.3352H15.3373C15.5096 13.3292 15.6812 13.3592 15.8421 13.4233C16.003 13.4875 16.1499 13.5845 16.2742 13.7087C16.3985 13.8329 16.4977 13.9818 16.5658 14.1466C16.634 14.3113 16.6698 14.4886 16.6711 14.668V16.0007H10.0024V14.668C10.0037 14.4886 10.0395 14.3113 10.1077 14.1466C10.1758 13.9818 10.275 13.8329 10.3993 13.7087C10.5236 13.5845 10.6705 13.4875 10.8314 13.4233C10.9924 13.3592 11.1648 13.3292 11.337 13.3352ZM10.0024 17.3277H16.6695V18.6604H10.0024V17.3277Z" fill="white"/>
</svg>
