<svg width="20" height="20" viewBox="0 0 20 20" fill="none" xmlns="http://www.w3.org/2000/svg">
<g clip-path="url(#clip0_20432_105275)">
<path d="M15.1231 5.47657H6.80065C6.73595 5.47631 6.67185 5.48794 6.61202 5.5108C6.5522 5.53365 6.49784 5.56728 6.4521 5.60973C6.40635 5.65219 6.3701 5.70264 6.34547 5.75816C6.32085 5.81369 6.30832 5.87319 6.3086 5.93323V10.3558C6.30832 10.4158 6.32085 10.4753 6.34547 10.5309C6.3701 10.5864 6.40635 10.6368 6.4521 10.6793C6.49784 10.7217 6.5522 10.7554 6.61202 10.7782C6.67185 10.8011 6.73595 10.8127 6.80065 10.8125H15.1231C15.1878 10.8127 15.2519 10.8011 15.3117 10.7782C15.3716 10.7554 15.4259 10.7217 15.4717 10.6793C15.5174 10.6368 15.5536 10.5864 15.5783 10.5309C15.6029 10.4753 15.6154 10.4158 15.6151 10.3558V5.93323C15.6154 5.87319 15.6029 5.81369 15.5783 5.75816C15.5536 5.70264 15.5174 5.65219 15.4717 5.60973C15.4259 5.56728 15.3716 5.53365 15.3117 5.5108C15.2519 5.48794 15.1878 5.47631 15.1231 5.47657ZM14.631 9.89914H7.29802V6.38988H14.631V9.89914Z" fill="white" stroke="white" stroke-width="0.371134"/>
<path d="M19.5048 19.0887H17.8362V4.50323C17.8357 3.8395 17.5513 3.20309 17.0456 2.73376C16.5399 2.26442 15.8541 2.00052 15.139 2H6.78357C6.06839 2.00052 5.38265 2.26442 4.87694 2.73376C4.37122 3.20309 4.08686 3.8395 4.0863 4.50323V16.7886H3.86206C3.38918 16.7883 2.93576 16.6139 2.60138 16.3036C2.26701 15.9933 2.07904 15.5724 2.07876 15.1336V12.7605H2.68028C2.74497 12.7608 2.80909 12.7492 2.86891 12.7263C2.92874 12.7035 2.98309 12.6698 3.02884 12.6274C3.07459 12.5849 3.11082 12.5345 3.13545 12.479C3.16008 12.4234 3.17261 12.3639 3.17233 12.3039V7.81425C3.17261 7.7542 3.16008 7.69471 3.13545 7.63918C3.11082 7.58366 3.07459 7.53322 3.02884 7.49076C2.98309 7.4483 2.92874 7.41468 2.86891 7.39182C2.80909 7.36896 2.74497 7.35733 2.68028 7.35759H2.07876V6.17403C2.08099 6.07461 2.12526 5.98 2.20201 5.91061C2.27876 5.84123 2.38184 5.80264 2.48898 5.80318H2.68028C2.81092 5.80318 2.93621 5.75502 3.02859 5.66928C3.12097 5.58355 3.17286 5.46727 3.17286 5.34603C3.17286 5.22479 3.12097 5.10851 3.02859 5.02278C2.93621 4.93704 2.81092 4.88888 2.68028 4.88888H2.48898C2.12128 4.88886 1.76843 5.02354 1.50714 5.26364C1.24584 5.50373 1.09723 5.82984 1.09359 6.17107V7.35463H0.492066C0.427369 7.35437 0.363255 7.366 0.303429 7.38886C0.243603 7.41172 0.189251 7.44535 0.143503 7.4878C0.0977555 7.53026 0.0615172 7.58071 0.0368887 7.63623C0.0122603 7.69175 -0.000276662 7.75125 4.63064e-06 7.81129V12.2999C-0.000276662 12.36 0.0122603 12.4195 0.0368887 12.475C0.0615172 12.5305 0.0977555 12.581 0.143503 12.6234C0.189251 12.6659 0.243603 12.6995 0.303429 12.7224C0.363255 12.7452 0.427369 12.7569 0.492066 12.7566H1.09359V15.1296C1.09443 15.8108 1.38638 16.4639 1.90539 16.9456C2.42439 17.4272 3.12807 17.6982 3.86206 17.699H4.0863V19.0857H2.41777C2.28713 19.0857 2.16184 19.1339 2.06946 19.2196C1.97709 19.3053 1.92519 19.4216 1.92519 19.5429C1.92519 19.6641 1.97709 19.7804 2.06946 19.8661C2.16184 19.9518 2.28713 20 2.41777 20H19.5101C19.5748 19.9997 19.6387 19.9875 19.6984 19.9643C19.758 19.941 19.8121 19.907 19.8576 19.8644C19.9031 19.8217 19.9391 19.7711 19.9635 19.7155C19.9879 19.6599 20.0003 19.6004 20 19.5404C19.9996 19.4804 19.9866 19.421 19.9615 19.3656C19.9364 19.3103 19.8998 19.2601 19.8538 19.2179C19.8079 19.1756 19.7534 19.1422 19.6935 19.1196C19.6336 19.0969 19.5694 19.0854 19.5048 19.0857V19.0887ZM0.989437 8.27091H2.19353V11.8462H0.989437V8.27091ZM5.07148 19.0877V4.50323C5.07148 4.08182 5.25186 3.67767 5.57294 3.37969C5.89402 3.08171 6.3295 2.9143 6.78357 2.9143H15.1443C15.5983 2.9143 16.0338 3.08171 16.3549 3.37969C16.676 3.67767 16.8564 4.08182 16.8564 4.50323V19.0887L5.07148 19.0877Z" fill="white" stroke="white" stroke-width="0.371134"/>
</g>
<defs>
<clipPath id="clip0_20432_105275">
<rect width="20" height="20" fill="white"/>
</clipPath>
</defs>
</svg>
