<svg width="20" height="20" viewBox="0 0 20 20" fill="none" xmlns="http://www.w3.org/2000/svg">
<g clip-path="url(#clip0_20432_105284)">
<path d="M17.7148 11.6236H16.8289C16.7586 10.5286 16.3394 9.499 15.6485 8.72419C14.9576 7.94938 14.0414 7.48144 13.0684 7.40644V6.8286C13.8913 6.82701 14.6843 6.48152 15.2937 5.85913C15.857 5.0465 16.1187 4.01977 16.0238 2.99457C16.0165 2.91908 15.9856 2.84894 15.9367 2.79663C15.8878 2.74432 15.824 2.71323 15.7567 2.70886C14.8423 2.65509 13.9451 3.00262 13.2538 3.67834C13.0511 3.92286 12.89 4.20722 12.7785 4.51727C12.6639 4.20406 12.4993 3.91717 12.2928 3.67085C11.5948 2.99622 10.6923 2.65119 9.77376 2.70779C9.70614 2.71251 9.64222 2.74417 9.59345 2.79711C9.54468 2.85005 9.51425 2.92081 9.5076 2.99671C9.42288 4.02794 9.69534 5.05615 10.2681 5.86662C10.8807 6.48589 11.6748 6.82883 12.4981 6.82967V7.40751C11.5291 7.48895 10.6185 7.95998 9.93248 8.7346C9.24646 9.50922 8.8308 10.5357 8.76141 11.6268H6.98384L7.01521 11.0767C7.03958 10.8634 7.02342 10.6467 6.96778 10.4409C6.91215 10.2352 6.81831 10.045 6.69249 9.88316C6.56667 9.72129 6.41173 9.59136 6.23794 9.50197C6.06416 9.41258 5.87548 9.36577 5.68441 9.36465H5.19202V8.33632C5.46294 8.45327 5.75498 8.49466 6.04319 8.45694C6.33141 8.41922 6.60723 8.30352 6.84709 8.11973C7.08696 7.93594 7.28373 7.68951 7.4206 7.4015C7.55747 7.11349 7.63037 6.79247 7.63308 6.46585C7.63207 6.01245 7.49356 5.57303 7.24049 5.2203C7.41372 4.97892 7.53436 4.69524 7.59274 4.39197C7.65113 4.0887 7.64564 3.77425 7.57672 3.4738C7.5078 3.17334 7.37736 2.89521 7.19584 2.66168C7.01432 2.42814 6.78676 2.24568 6.53137 2.12889C6.54454 2.03653 6.55121 1.94314 6.55133 1.8496C6.55133 1.35906 6.37822 0.888604 6.07009 0.541736C5.76195 0.194868 5.34404 0 4.90827 0C4.4725 0 4.05458 0.194868 3.74645 0.541736C3.43832 0.888604 3.26521 1.35906 3.26521 1.8496C3.26516 1.94311 3.27152 2.03648 3.28422 2.12889C3.02883 2.24568 2.80127 2.42814 2.61975 2.66168C2.43823 2.89521 2.30779 3.17334 2.23887 3.4738C2.16995 3.77425 2.16446 4.0887 2.22284 4.39197C2.28123 4.69524 2.40186 4.97892 2.57509 5.2203C2.32202 5.57303 2.18352 6.01245 2.18251 6.46585C2.18527 6.79234 2.25817 7.11322 2.39499 7.40111C2.53181 7.689 2.72849 7.93535 2.96822 8.11912C3.20796 8.30289 3.48364 8.41862 3.77173 8.45645C4.05981 8.49427 4.35175 8.45305 4.62262 8.33632V9.36465H4.13023C3.94071 9.36511 3.75341 9.41055 3.58055 9.49802C3.40769 9.58548 3.25315 9.71299 3.12703 9.87223C3.00091 10.0315 2.90604 10.2189 2.84861 10.4222C2.79117 10.6255 2.77247 10.8401 2.79373 11.0521L2.82319 11.6225H1.28517C1.24772 11.6225 1.21064 11.6308 1.17604 11.6469C1.14144 11.6631 1.11001 11.6867 1.08352 11.7165C1.05704 11.7463 1.03604 11.7817 1.02171 11.8207C1.00737 11.8596 1 11.9013 1 11.9435V19.679C1 19.7211 1.00737 19.7629 1.02171 19.8018C1.03604 19.8408 1.05704 19.8762 1.08352 19.906C1.11001 19.9358 1.14144 19.9594 1.17604 19.9756C1.21064 19.9917 1.24772 20 1.28517 20H17.7148C17.7905 20 17.863 19.9662 17.9165 19.906C17.97 19.8458 18 19.7641 18 19.679V11.9435C17.9997 11.8585 17.9696 11.7772 17.9161 11.7172C17.8627 11.6572 17.7903 11.6236 17.7148 11.6236ZM13.6673 4.11706C14.1674 3.62425 14.8088 3.3514 15.4734 3.34876C15.5048 4.09465 15.2962 4.82829 14.8859 5.41505C14.3859 5.90787 13.7445 6.18072 13.0798 6.18336C13.0487 5.43733 13.2567 4.70368 13.6673 4.11706ZM10.6797 5.42147C10.2621 4.83517 10.0453 4.09974 10.0684 3.34876C10.736 3.35019 11.3809 3.6213 11.8859 4.11278C12.3032 4.6988 12.5201 5.43381 12.4971 6.18443C11.83 6.18304 11.1855 5.91233 10.6806 5.42147H10.6797ZM12.7947 8.02707C13.6675 8.02855 14.5081 8.39903 15.1498 9.06512C15.7915 9.7312 16.1875 10.6443 16.2595 11.6236H15.0808C15.0115 11.0379 14.7559 10.5004 14.3614 10.1108C13.9669 9.72118 13.4602 9.50588 12.9354 9.50483C12.8979 9.50483 12.8608 9.51313 12.8262 9.52927C12.7916 9.5454 12.7602 9.56904 12.7337 9.59885C12.7072 9.62866 12.6862 9.66405 12.6719 9.703C12.6576 9.74195 12.6502 9.78369 12.6502 9.82585C12.6502 9.868 12.6576 9.90975 12.6719 9.9487C12.6862 9.98764 12.7072 10.023 12.7337 10.0528C12.7602 10.0827 12.7916 10.1063 12.8262 10.1224C12.8608 10.1386 12.8979 10.1469 12.9354 10.1469C13.3096 10.1474 13.6718 10.2957 13.959 10.5659C14.2461 10.8361 14.4399 11.2112 14.5067 11.6257H9.3308C9.40231 10.6461 9.79817 9.73243 10.4399 9.06591C11.0817 8.39938 11.9215 8.0286 12.7947 8.02707ZM3.98194 7.83446C3.65738 7.83788 3.3449 7.69609 3.11318 7.44026C2.88146 7.18442 2.74946 6.83548 2.7462 6.47013C2.746 6.2796 2.78193 6.09121 2.8516 5.91756C2.92127 5.74391 3.02307 5.58901 3.15019 5.4632C3.17991 5.4331 3.20367 5.3963 3.21993 5.35519C3.2362 5.31408 3.2446 5.26958 3.2446 5.22458C3.2446 5.17958 3.2362 5.13508 3.21993 5.09397C3.20367 5.05286 3.17991 5.01606 3.15019 4.98595C3.02307 4.86015 2.92127 4.70525 2.8516 4.5316C2.78193 4.35795 2.746 4.16956 2.7462 3.97903C2.74733 3.67154 2.8407 3.37349 3.01117 3.13323C3.18164 2.89297 3.41921 2.72457 3.68536 2.65536C3.72384 2.64471 3.75992 2.62515 3.7913 2.59792C3.82269 2.5707 3.84869 2.53641 3.86765 2.49725C3.88661 2.45809 3.89811 2.41491 3.90142 2.37046C3.90473 2.32601 3.89978 2.28128 3.88688 2.23911C3.84809 2.11535 3.82816 1.98511 3.82795 1.85388C3.82795 1.53305 3.94116 1.22536 4.14269 0.998491C4.34422 0.771627 4.61756 0.644177 4.90257 0.644177C5.18757 0.644177 5.46091 0.771627 5.66244 0.998491C5.86397 1.22536 5.97719 1.53305 5.97719 1.85388C5.97688 1.9851 5.95695 2.11533 5.91825 2.23911C5.90535 2.28128 5.9004 2.32601 5.90371 2.37046C5.90702 2.41491 5.91852 2.45809 5.93748 2.49725C5.95644 2.53641 5.98244 2.5707 6.01383 2.59792C6.04522 2.62515 6.0813 2.64471 6.11977 2.65536C6.38592 2.72457 6.62349 2.89297 6.79396 3.13323C6.96443 3.37349 7.0578 3.67154 7.05893 3.97903C7.05913 4.16956 7.0232 4.35795 6.95353 4.5316C6.88386 4.70525 6.78206 4.86015 6.65494 4.98595C6.62523 5.01606 6.60146 5.05286 6.5852 5.09397C6.56893 5.13508 6.56053 5.17958 6.56053 5.22458C6.56053 5.26958 6.56893 5.31408 6.5852 5.35519C6.60146 5.3963 6.62523 5.4331 6.65494 5.4632C6.78206 5.58901 6.88386 5.74391 6.95353 5.91756C7.0232 6.09121 7.05913 6.2796 7.05893 6.47013C7.05576 6.71442 6.99523 6.95341 6.88348 7.16285C6.77173 7.37229 6.61275 7.54471 6.42267 7.66262C6.23258 7.78053 6.01817 7.83973 5.8012 7.8342C5.58422 7.82867 5.37241 7.75862 5.18726 7.63115V3.46754C5.18726 3.3824 5.15722 3.30075 5.10374 3.24054C5.05026 3.18034 4.97772 3.14652 4.90209 3.14652C4.82646 3.14652 4.75392 3.18034 4.70044 3.24054C4.64696 3.30075 4.61692 3.3824 4.61692 3.46754V7.62794C4.42584 7.76041 4.20633 7.8318 3.98194 7.83446ZM3.54563 10.2956C3.61757 10.2025 3.70655 10.128 3.80648 10.0772C3.9064 10.0264 4.01489 10.0005 4.12452 10.0013H5.67776C5.78762 10.0005 5.89635 10.0265 5.99645 10.0774C6.09655 10.1284 6.18564 10.2032 6.2576 10.2967C6.33284 10.3934 6.38875 10.5072 6.42154 10.6303C6.45434 10.7534 6.46327 10.8831 6.44772 11.0104L6.41255 11.6203H3.39068L3.35741 10.9922C3.34322 10.8677 3.35266 10.7413 3.3851 10.6212C3.41755 10.5011 3.47226 10.3901 3.54563 10.2956ZM17.424 19.3548H1.56939V12.2634H17.4306L17.424 19.3548Z" fill="white" stroke="white" stroke-width="0.618557"/>
</g>
<defs>
<clipPath id="clip0_20432_105284">
<rect width="20" height="20" fill="white"/>
</clipPath>
</defs>
</svg>
