<svg width="26" height="24" viewBox="0 0 26 24" fill="none" xmlns="http://www.w3.org/2000/svg">
<path fill-rule="evenodd" clip-rule="evenodd" d="M2.26861 8.74646C2.06839 8.86044 1.8332 8.88631 1.61479 8.81838C1.39638 8.75045 1.21264 8.59428 1.10399 8.38423C0.995339 8.17418 0.970679 7.92745 1.03543 7.69832C1.10019 7.4692 1.24906 7.27644 1.44928 7.16246L11.7494 1.32255C12.1245 1.11083 12.5437 1 12.9696 1C13.3956 1 13.8148 1.11083 14.1899 1.32255L24.5719 7.16492C24.7647 7.28201 24.9065 7.47318 24.9674 7.69799C25.0282 7.92279 25.0033 8.16362 24.898 8.36952C24.7926 8.57542 24.6151 8.73026 24.4028 8.8013C24.1906 8.87233 23.9604 8.85399 23.7608 8.75014L13.3787 2.90777C13.2537 2.83706 13.114 2.80003 12.972 2.80003C12.83 2.80003 12.6902 2.83706 12.5652 2.90777L2.26861 8.74646Z" fill="#607D8B" stroke="#607D8B" stroke-width="0.247423"/>
<path fill-rule="evenodd" clip-rule="evenodd" d="M3.53243 10.8935C3.53243 10.6548 3.62282 10.4259 3.78372 10.2571C3.94462 10.0883 4.16283 9.99349 4.39038 9.99349C4.61792 9.99349 4.83615 10.0883 4.99705 10.2571C5.15794 10.4259 5.24834 10.6548 5.24834 10.8935V19.8941C5.24834 20.1328 5.33873 20.3617 5.49962 20.5305C5.66052 20.6993 5.87875 20.7941 6.10629 20.7941H19.8383C20.0658 20.7941 20.284 20.6993 20.4449 20.5305C20.6058 20.3617 20.6962 20.1328 20.6962 19.8941V6.84146C20.6962 6.60275 20.7866 6.37382 20.9475 6.20503C21.1084 6.03623 21.3266 5.94141 21.5542 5.94141C21.7817 5.94141 21.9999 6.03623 22.1608 6.20503C22.3217 6.37382 22.4121 6.60275 22.4121 6.84146V19.8965C22.4121 20.613 22.1408 21.3001 21.6579 21.8067C21.175 22.3133 20.52 22.5979 19.8371 22.5979H6.10629C5.42335 22.5979 4.76838 22.3133 4.28547 21.8067C3.80255 21.3001 3.53125 20.613 3.53125 19.8965L3.53243 10.8935Z" fill="#607D8B" stroke="#607D8B" stroke-width="0.247423"/>
<path fill-rule="evenodd" clip-rule="evenodd" d="M19.4482 4.80066C19.4482 5.03937 19.3578 5.2683 19.1969 5.4371C19.036 5.60589 18.8178 5.70072 18.5903 5.70072C18.3627 5.70072 18.1445 5.60589 17.9836 5.4371C17.8227 5.2683 17.7323 5.03937 17.7323 4.80066V2.09927C17.7323 1.86056 17.8227 1.63163 17.9836 1.46284C18.1445 1.29405 18.3627 1.19922 18.5903 1.19922C18.8178 1.19922 19.036 1.29405 19.1969 1.46284C19.3578 1.63163 19.4482 1.86056 19.4482 2.09927V4.80066Z" fill="#607D8B" stroke="#607D8B" stroke-width="0.247423"/>
</svg>
