<svg width="20" height="20" viewBox="0 0 20 20" fill="none" xmlns="http://www.w3.org/2000/svg">
<path d="M9.15502 4.15986H11.5611C11.6207 4.15986 11.6722 4.1497 11.7149 4.12869C11.7576 4.10769 11.7976 4.07381 11.8342 4.02638C11.8701 3.9803 11.8931 3.93287 11.9026 3.88612C11.9128 3.83801 11.9107 3.78448 11.8958 3.72824C11.7779 3.26274 11.4127 2.90903 10.9262 2.66917C10.4221 2.42117 9.79126 2.29718 9.155 2.29718C8.51874 2.29718 7.88792 2.42186 7.38379 2.66917C6.89728 2.90836 6.53275 3.26274 6.41417 3.72824C6.39926 3.78516 6.39723 3.83869 6.4074 3.88612C6.41756 3.93287 6.43992 3.9803 6.47583 4.02638C6.51242 4.07313 6.5524 4.10769 6.59509 4.12869C6.6371 4.14969 6.68927 4.15986 6.7489 4.15986H9.15502ZM6.00357 11.0556C5.78336 11.0556 5.60515 10.8774 5.60515 10.6572C5.60515 10.437 5.78335 10.2588 6.00357 10.2588H9.40983C9.63004 10.2588 9.80826 10.437 9.80826 10.6572C9.80826 10.8774 9.63006 11.0556 9.40983 11.0556H6.00357ZM6.00357 8.0695C5.78336 8.0695 5.60515 7.89131 5.60515 7.67108C5.60515 7.45085 5.78335 7.27266 6.00357 7.27266H12.3065C12.5267 7.27266 12.7049 7.45085 12.7049 7.67108C12.7049 7.89131 12.5267 8.0695 12.3065 8.0695H6.00357ZM15.5988 15.6971C15.9843 15.6971 16.3346 15.8543 16.588 16.1077L16.5894 16.1091C16.8428 16.3625 17 16.7128 17 17.0984C17 17.4846 16.8428 17.8342 16.5894 18.0876L16.588 18.089C16.3346 18.3424 15.9843 18.4996 15.5988 18.4996C15.2125 18.4996 14.8629 18.3424 14.6095 18.089L14.6081 18.0876C14.3547 17.8342 14.1975 17.4846 14.1975 17.0984C14.1975 16.7128 14.3547 16.3625 14.6081 16.1091L14.6095 16.1077C14.8629 15.8543 15.2132 15.6971 15.5988 15.6971ZM16.027 16.6701C15.9179 16.561 15.7661 16.494 15.5988 16.494C15.4314 16.494 15.2796 16.5617 15.1705 16.6701C15.0614 16.7792 14.9944 16.931 14.9944 17.0984C14.9944 17.2657 15.0621 17.4175 15.1705 17.5266C15.2796 17.6357 15.4314 17.7028 15.5988 17.7028C15.7661 17.7028 15.9179 17.6357 16.027 17.5266C16.1361 17.4175 16.2032 17.2657 16.2032 17.0984C16.2032 16.931 16.1354 16.7792 16.027 16.6701ZM12.3302 12.5057C12.7171 12.5057 13.0674 12.6629 13.3208 12.9163C13.5742 13.1697 13.7314 13.5207 13.7314 13.9069C13.7314 14.2925 13.5742 14.6421 13.3208 14.8962L13.3195 14.8975C13.066 15.1509 12.7157 15.3082 12.3302 15.3082C11.9433 15.3082 11.593 15.151 11.3396 14.8975C11.0862 14.6441 10.929 14.2931 10.929 13.9069C10.929 13.522 11.0862 13.1717 11.3396 12.917L11.3423 12.9143C11.5971 12.6615 11.946 12.505 12.3302 12.505L12.3302 12.5057ZM12.7577 13.48C12.6486 13.3709 12.4969 13.3025 12.3302 13.3025C12.1622 13.3025 12.0111 13.3696 11.9026 13.478L11.9013 13.4794C11.7929 13.5878 11.7258 13.7382 11.7258 13.9069C11.7258 14.0743 11.7936 14.2247 11.9026 14.3345C12.0117 14.4436 12.1635 14.5113 12.3302 14.5113C12.4976 14.5113 12.6493 14.4442 12.7584 14.3351C12.8675 14.226 12.9346 14.0743 12.9346 13.9069C12.9346 13.7395 12.8668 13.5884 12.7578 13.4794L12.7577 13.48ZM15.3055 13.5986C15.4614 13.4428 15.7135 13.4428 15.8693 13.5986C16.0251 13.7545 16.0251 14.0065 15.8693 14.1624L12.6243 17.408C12.4685 17.5638 12.2164 17.5638 12.0606 17.408C11.9048 17.2522 11.9048 17.0001 12.0606 16.8443L15.3055 13.5986ZM12.4441 2.98764H13.4002C13.9267 2.98764 14.4044 3.20176 14.7499 3.54801C15.0962 3.89425 15.3103 4.37195 15.3103 4.89775V10.6823C15.3103 10.9025 15.1321 11.0808 14.9119 11.0808C14.6917 11.0808 14.5134 10.9026 14.5134 10.6823V4.89775C14.5134 4.59148 14.3881 4.31299 14.1869 4.11106C13.9849 3.90914 13.7065 3.78379 13.4002 3.78379H12.7036C12.707 3.87256 12.6989 3.96131 12.6806 4.04737C12.6453 4.21609 12.5722 4.37396 12.4624 4.5149C12.3533 4.65516 12.2185 4.76493 12.0633 4.84082C11.9075 4.9167 11.7387 4.956 11.5612 4.956H6.74906C6.57154 4.956 6.40281 4.9167 6.24697 4.84082C6.09181 4.76493 5.95696 4.65584 5.84787 4.5149C5.7381 4.37396 5.66492 4.21608 5.62969 4.04737C5.6114 3.96064 5.60394 3.87255 5.60666 3.78379H4.9101C4.60384 3.78379 4.32535 3.90915 4.12342 4.11106C3.9215 4.31299 3.79683 4.59146 3.79683 4.89775V15.9958C3.79683 16.3021 3.92218 16.5806 4.12342 16.7825C4.32535 16.9844 4.60382 17.1091 4.9101 17.1091H9.87543C10.0956 17.1091 10.2739 17.2873 10.2739 17.5075C10.2739 17.7277 10.0957 17.9059 9.87543 17.9059H4.9101C4.38431 17.9059 3.90592 17.6918 3.56037 17.3456C3.21412 16.9993 3 16.5216 3 15.9958V4.89776C3 4.37197 3.21412 3.89358 3.56037 3.54803C3.90661 3.20178 4.38431 2.98766 4.9101 2.98766H5.86617C6.12366 2.54452 6.53495 2.20167 7.0323 1.95706C7.65093 1.65282 8.40644 1.50037 9.15512 1.50037C9.9052 1.50037 10.66 1.65282 11.2779 1.95706C11.7753 2.20235 12.1866 2.54518 12.4441 2.98764Z" fill="white"/>
</svg>
