<svg width="20" height="20" viewBox="0 0 20 20" fill="none" xmlns="http://www.w3.org/2000/svg">
<g clip-path="url(#clip0_20432_105304)">
<path fill-rule="evenodd" clip-rule="evenodd" d="M2.63837 4.29623V5.765H0.78401C0.575314 5.76587 0.375514 5.84547 0.228509 5.98633C0.0815036 6.12718 -0.000683474 6.31776 4.28192e-06 6.5162V18.8273C0.00064108 19.1366 0.128842 19.4334 0.357076 19.6539C0.470248 19.7636 0.605273 19.8506 0.754255 19.91C0.903237 19.9695 1.06319 20 1.22474 20H11.3383C11.4999 19.9999 11.6598 19.9693 11.8087 19.9099C11.9577 19.8504 12.0927 19.7634 12.206 19.6539C12.4347 19.4322 12.5624 19.1338 12.5614 18.8232V6.5162C12.5618 6.41798 12.5419 6.32064 12.5028 6.22973C12.4637 6.13882 12.4061 6.05613 12.3334 5.98638C12.2607 5.91662 12.1742 5.86117 12.079 5.82319C11.9837 5.7852 11.8815 5.76543 11.7782 5.765H10.3637V4.29623H10.845C11.028 4.29623 11.2035 4.22711 11.3329 4.10407C11.4623 3.98104 11.535 3.81417 11.535 3.64017V2.65607C11.535 2.48207 11.4623 2.31519 11.3329 2.19216C11.2035 2.06912 11.028 2 10.845 2H1.72068C1.53768 2 1.36218 2.06912 1.23278 2.19216C1.10338 2.31519 1.03068 2.48207 1.03068 2.65607V3.64017C1.03068 3.81417 1.10338 3.98104 1.23278 4.10407C1.36218 4.22711 1.53768 4.29623 1.72068 4.29623H2.63837ZM11.8731 16.7311V18.8265C11.8737 18.9649 11.817 19.0981 11.7152 19.1971C11.6662 19.245 11.6076 19.283 11.5429 19.3091C11.4781 19.3351 11.4086 19.3487 11.3383 19.3489H1.22474C1.15447 19.3487 1.08494 19.3351 1.02022 19.3091C0.955507 19.283 0.896902 19.245 0.847835 19.1971C0.745603 19.0982 0.688304 18.9651 0.688274 18.8265V16.7311H11.8731ZM0.688274 9.81293V16.0743H11.8731V9.81293H0.688274ZM6.02883 12.5536H4.58588C4.49438 12.5536 4.40663 12.5882 4.34193 12.6497C4.27723 12.7112 4.24088 12.7947 4.24088 12.8817C4.24088 12.9687 4.27723 13.0521 4.34193 13.1136C4.40663 13.1752 4.49438 13.2097 4.58588 13.2097H6.02883V14.5817C6.02883 14.6687 6.06518 14.7521 6.12988 14.8137C6.19458 14.8752 6.28233 14.9097 6.37383 14.9097C6.46533 14.9097 6.55308 14.8752 6.61778 14.8137C6.68248 14.7521 6.71883 14.6687 6.71883 14.5817V13.2105H8.16005C8.25155 13.2105 8.3393 13.176 8.404 13.1145C8.4687 13.0529 8.50505 12.9695 8.50505 12.8825C8.50505 12.7955 8.4687 12.7121 8.404 12.6505C8.3393 12.589 8.25155 12.5545 8.16005 12.5545H6.7171V11.1857C6.7171 11.0987 6.68075 11.0153 6.61605 10.9538C6.55135 10.8923 6.4636 10.8577 6.3721 10.8577C6.2806 10.8577 6.19285 10.8923 6.12815 10.9538C6.06345 11.0153 6.02711 11.0987 6.02711 11.1857V12.5561L6.02883 12.5536ZM3.32664 4.29623H9.67459V6.09221C9.67459 6.13529 9.68351 6.17795 9.70085 6.21775C9.71819 6.25755 9.7436 6.29371 9.77564 6.32417C9.80767 6.35463 9.84571 6.37879 9.88756 6.39528C9.92942 6.41176 9.97428 6.42025 10.0196 6.42025H11.7791L11.8739 6.51702V9.16096H0.688274V6.5162L0.78401 6.41943H2.98251C3.02781 6.41943 3.07267 6.41094 3.11453 6.39446C3.15639 6.37797 3.19442 6.35381 3.22646 6.32335C3.25849 6.29289 3.2839 6.25673 3.30124 6.21693C3.31858 6.17713 3.3275 6.13447 3.3275 6.09139L3.32664 4.29623ZM1.72068 3.64017H10.845V2.65607H1.72068V3.64017ZM19.4492 12.7923C19.1259 12.4861 18.6882 12.3141 18.2318 12.3141C17.7755 12.3141 17.3377 12.4861 17.0144 12.7923L14.5813 15.1074C14.2598 15.4147 14.0793 15.8306 14.0793 16.2641C14.0793 16.6976 14.2598 17.1135 14.5813 17.4208C14.9045 17.7263 15.3417 17.8978 15.7974 17.8978C16.2531 17.8978 16.6903 17.7263 17.0135 17.4208L19.4484 15.1074C19.7704 14.8 19.9513 14.3837 19.9513 13.9498C19.9513 13.5159 19.7713 13.0997 19.4492 12.7923ZM16.0424 14.644L17.5026 16.0324L16.5288 16.96C16.3349 17.1435 16.0724 17.2465 15.7987 17.2465C15.5251 17.2465 15.2626 17.1435 15.0686 16.96C14.8756 16.7755 14.7672 16.5259 14.7672 16.2658C14.7672 16.0056 14.8756 15.756 15.0686 15.5716L16.0424 14.644ZM17.9882 15.5699L16.528 14.1815L17.5017 13.2573C17.5949 13.1555 17.7091 13.073 17.8373 13.015C17.9654 12.9569 18.1047 12.9246 18.2466 12.9199C18.3885 12.9152 18.5298 12.9383 18.6619 12.9878C18.7939 13.0373 18.9139 13.1121 19.0142 13.2075C19.1146 13.303 19.1933 13.417 19.2453 13.5426C19.2973 13.6681 19.3217 13.8025 19.3168 13.9374C19.3119 14.0723 19.2778 14.2048 19.2168 14.3266C19.1557 14.4485 19.069 14.5571 18.9619 14.6457L17.9882 15.5699ZM19.4984 8.53852C19.8197 8.23122 20 7.81551 20 7.3822C20 6.9489 19.8197 6.53319 19.4984 6.22589C19.1752 5.92016 18.7378 5.74853 18.2818 5.74853C17.8259 5.74853 17.3885 5.92016 17.0653 6.22589L14.6296 8.53934C14.3083 8.84665 14.128 9.26235 14.128 9.69566C14.128 10.129 14.3083 10.5447 14.6296 10.852C14.9528 11.1575 15.39 11.3289 15.8457 11.3289C16.3014 11.3289 16.7386 11.1575 17.0618 10.852L19.4984 8.53852ZM16.0915 8.07599L17.5517 9.4644L16.5771 10.387C16.4839 10.4888 16.3697 10.5713 16.2416 10.6293C16.1134 10.6874 15.9741 10.7197 15.8322 10.7244C15.6904 10.729 15.549 10.7059 15.417 10.6564C15.2849 10.607 15.165 10.5322 15.0646 10.4367C14.9642 10.3413 14.8856 10.2273 14.8335 10.1017C14.7815 9.97613 14.7572 9.84173 14.7621 9.70685C14.767 9.57197 14.801 9.43949 14.8621 9.31765C14.9231 9.1958 15.0099 9.0872 15.1169 8.99859L16.0915 8.07599ZM18.0373 9.00187L16.5771 7.61347L17.5509 6.68759C17.7448 6.50406 18.0073 6.40102 18.281 6.40102C18.5546 6.40102 18.8171 6.50406 19.0111 6.68759C19.2041 6.87201 19.3125 7.12161 19.3125 7.38179C19.3125 7.64198 19.2041 7.89158 19.0111 8.07599L18.0373 9.00187Z" fill="white" stroke="white" stroke-width="0.247423"/>
</g>
<defs>
<clipPath id="clip0_20432_105304">
<rect width="20" height="20" fill="white"/>
</clipPath>
</defs>
</svg>
