<svg width="20" height="20" viewBox="0 0 20 20" fill="none" xmlns="http://www.w3.org/2000/svg">
<g clip-path="url(#clip0_20432_105287)">
<path d="M19.7925 16.3509H14.4333C15.9446 15.1525 16.9748 13.4696 17.3419 11.5993C17.709 9.72911 17.3893 7.792 16.4393 6.13025C15.4894 4.4685 13.9703 3.18905 12.1505 2.51795C10.3306 1.84686 8.32714 1.82731 6.49401 2.46276C4.66087 3.09821 3.11605 4.34776 2.13248 5.99064C1.14891 7.63353 0.789891 9.56402 1.11885 11.441C1.44781 13.3181 2.44358 15.0208 3.93023 16.2484C5.41688 17.4761 7.29873 18.1496 9.24331 18.15C9.44988 18.15 9.65733 18.1378 9.8639 18.124H19.7934C19.8482 18.124 19.9008 18.1026 19.9395 18.0647C19.9782 18.0268 20 17.9753 20 17.9216V16.5532C20 16.5266 19.9946 16.5002 19.9842 16.4756C19.9738 16.451 19.9585 16.4287 19.9392 16.4099C19.9199 16.3911 19.897 16.3762 19.8719 16.3661C19.8467 16.356 19.8197 16.3508 19.7925 16.3509ZM9.85149 17.7185C9.71939 17.7185 9.58552 17.735 9.44988 17.7384H9.24331C7.36557 17.7387 5.54975 17.0807 4.1245 15.8834C2.69924 14.6861 1.75872 13.0286 1.47315 11.211C1.18758 9.3934 1.57583 7.5357 2.56764 5.97415C3.55945 4.4126 5.08928 3.25038 6.88025 2.69782C8.67123 2.14525 10.605 2.23887 12.3316 2.96172C14.0582 3.68458 15.4635 4.9889 16.2933 6.63863C17.123 8.28836 17.3223 10.1745 16.8551 11.9557C16.3879 13.7369 15.285 15.2954 13.7462 16.3492C13.6451 16.4204 13.5396 16.4872 13.4376 16.5515C13.3357 16.6157 13.2098 16.6896 13.0945 16.7538C12.0989 17.3042 10.9916 17.6326 9.85149 17.7159V17.7185ZM19.586 17.7185H11.895C12.5976 17.4867 13.265 17.1631 13.8792 16.7564H19.586V17.7185Z" fill="white" stroke="white" stroke-width="0.494846"/>
<path d="M16.0689 10.0725C16.0689 8.75016 15.6685 7.45754 14.9184 6.35807C14.1683 5.2586 13.1021 4.40167 11.8547 3.89564C10.6073 3.38962 9.23475 3.25722 7.91053 3.51519C6.58631 3.77316 5.36994 4.40991 4.41523 5.34493C3.46051 6.27995 2.81035 7.47124 2.54694 8.76815C2.28354 10.0651 2.41873 11.4093 2.93541 12.631C3.4521 13.8527 4.32708 14.8968 5.4497 15.6315C6.57232 16.3661 7.89216 16.7582 9.24233 16.7582H9.4489C9.94176 16.7439 10.4315 16.676 10.9091 16.5559C12.3835 16.1923 13.6918 15.3571 14.6266 14.1826C15.5613 13.0081 16.0689 11.5616 16.0689 10.0725ZM9.24233 16.3527C7.97405 16.3527 6.73425 15.9844 5.67972 15.2943C4.62518 14.6042 3.80327 13.6234 3.31792 12.4758C2.83258 11.3283 2.70559 10.0655 2.95302 8.84725C3.20044 7.629 3.81118 6.50997 4.70799 5.63166C5.60479 4.75335 6.7474 4.15521 7.9913 3.91288C9.23521 3.67056 10.5246 3.79493 11.6963 4.27027C12.868 4.7456 13.8695 5.55056 14.5741 6.58335C15.2788 7.61613 15.6549 8.83036 15.6549 10.0725C15.6549 10.8972 15.489 11.7139 15.1667 12.4758C14.8445 13.2378 14.3721 13.9301 13.7767 14.5133C13.1812 15.0965 12.4743 15.5591 11.6963 15.8747C10.9183 16.1903 10.0844 16.3527 9.24233 16.3527Z" fill="white" stroke="white" stroke-width="0.494846"/>
<path d="M9.24069 8.3755C9.60559 8.3755 9.96229 8.26953 10.2657 8.07098C10.5691 7.87244 10.8056 7.59024 10.9452 7.26008C11.0848 6.92991 11.1214 6.56661 11.0502 6.2161C10.979 5.8656 10.8033 5.54364 10.5453 5.29095C10.2872 5.03825 9.95851 4.86616 9.60062 4.79644C9.24274 4.72672 8.87178 4.7625 8.53466 4.89926C8.19754 5.03602 7.9094 5.26762 7.70668 5.56476C7.50395 5.8619 7.39575 6.21124 7.39575 6.56861C7.39575 6.80589 7.44347 7.04085 7.53619 7.26008C7.62891 7.4793 7.7648 7.67849 7.93612 7.84627C8.10744 8.01406 8.31082 8.14715 8.53466 8.23796C8.7585 8.32876 8.99841 8.3755 9.24069 8.3755ZM9.24069 5.16286C9.52388 5.16286 9.8007 5.24511 10.0362 5.39919C10.2716 5.55327 10.4551 5.77228 10.5635 6.02851C10.6719 6.28474 10.7002 6.56669 10.645 6.83871C10.5897 7.11072 10.4534 7.36058 10.2531 7.55669C10.0529 7.7528 9.79777 7.88636 9.52002 7.94046C9.24228 7.99457 8.95439 7.9668 8.69276 7.86067C8.43114 7.75453 8.20752 7.5748 8.05019 7.3442C7.89286 7.1136 7.80889 6.84248 7.80889 6.56514C7.81006 6.19398 7.96143 5.83842 8.22982 5.57639C8.49821 5.31435 8.86172 5.16721 9.24069 5.16721V5.16286Z" fill="white" stroke="white" stroke-width="0.494846"/>
<path d="M9.24069 11.7617C8.8758 11.7617 8.5191 11.8677 8.2157 12.0662C7.9123 12.2648 7.67583 12.547 7.53619 12.8771C7.39655 13.2073 7.36002 13.5706 7.4312 13.9211C7.50239 14.2716 7.6781 14.5936 7.93612 14.8463C8.19414 15.099 8.52288 15.2711 8.88076 15.3408C9.23865 15.4105 9.6096 15.3747 9.94672 15.238C10.2838 15.1012 10.572 14.8696 10.7747 14.5725C10.9774 14.2753 11.0856 13.926 11.0856 13.5686C11.0856 13.0894 10.8913 12.6298 10.5453 12.2909C10.1993 11.9521 9.73 11.7617 9.24069 11.7617ZM9.24069 14.9744C8.95751 14.9744 8.68069 14.8921 8.44523 14.738C8.20977 14.5839 8.02625 14.3649 7.91788 14.1087C7.80951 13.8525 7.78115 13.5705 7.8364 13.2985C7.89165 13.0265 8.02802 12.7766 8.22826 12.5805C8.4285 12.3844 8.68362 12.2509 8.96136 12.1968C9.2391 12.1426 9.52699 12.1704 9.78862 12.2766C10.0502 12.3827 10.2739 12.5624 10.4312 12.793C10.5885 13.0236 10.6725 13.2947 10.6725 13.5721C10.6716 13.9434 10.5203 14.2992 10.2519 14.5614C9.98347 14.8236 9.61982 14.9709 9.24069 14.9709V14.9744Z" fill="white" stroke="white" stroke-width="0.494846"/>
<path d="M12.8181 8.26562C12.4532 8.26562 12.0965 8.37159 11.7931 8.57014C11.4897 8.76868 11.2532 9.05088 11.1136 9.38105C10.9739 9.71121 10.9374 10.0745 11.0086 10.425C11.0798 10.7755 11.2555 11.0975 11.5135 11.3502C11.7715 11.6029 12.1003 11.775 12.4582 11.8447C12.816 11.9144 13.187 11.8786 13.5241 11.7419C13.8612 11.6051 14.1494 11.3735 14.3521 11.0764C14.5548 10.7792 14.663 10.4299 14.663 10.0725C14.663 9.5933 14.4687 9.13371 14.1227 8.79485C13.7767 8.45599 13.3074 8.26562 12.8181 8.26562ZM12.8181 11.4783C12.5349 11.4783 12.2581 11.396 12.0226 11.2419C11.7872 11.0878 11.6036 10.8688 11.4953 10.6126C11.3869 10.3564 11.3586 10.0744 11.4138 9.80242C11.469 9.5304 11.6054 9.28054 11.8056 9.08443C12.0059 8.88832 12.261 8.75477 12.5388 8.70066C12.8165 8.64655 13.1044 8.67432 13.366 8.78046C13.6276 8.88659 13.8513 9.06632 14.0086 9.29693C14.1659 9.52753 14.2499 9.79864 14.2499 10.076C14.249 10.4473 14.0977 10.8031 13.8293 11.0653C13.5609 11.3275 13.1972 11.4748 12.8181 11.4748V11.4783Z" fill="white" stroke="white" stroke-width="0.494846"/>
<path d="M5.66709 8.26562C5.30219 8.26562 4.94549 8.37159 4.64209 8.57014C4.33869 8.76868 4.10222 9.05088 3.96258 9.38105C3.82294 9.71121 3.78641 10.0745 3.85759 10.425C3.92878 10.7755 4.1045 11.0975 4.36252 11.3502C4.62054 11.6029 4.94927 11.775 5.30716 11.8447C5.66504 11.9144 6.036 11.8786 6.37312 11.7419C6.71023 11.6051 6.99837 11.3735 7.2011 11.0764C7.40382 10.7792 7.51203 10.4299 7.51203 10.0725C7.51203 9.5933 7.31765 9.13371 6.97166 8.79485C6.62566 8.45599 6.1564 8.26562 5.66709 8.26562ZM5.66709 11.4783C5.38421 11.4776 5.10787 11.3948 4.87296 11.2405C4.63804 11.0861 4.45508 10.8671 4.34715 10.611C4.23922 10.3549 4.21116 10.0733 4.26652 9.80157C4.32188 9.52988 4.45817 9.28034 4.6582 9.08444C4.85823 8.88853 5.11302 8.75505 5.39044 8.70083C5.66785 8.64662 5.95544 8.67409 6.21692 8.77979C6.47841 8.8855 6.70206 9.06469 6.85966 9.29476C7.01725 9.52483 7.10173 9.79547 7.10244 10.0725C7.10244 10.257 7.06528 10.4396 6.99311 10.6099C6.92093 10.7803 6.81515 10.935 6.68182 11.0653C6.54849 11.1956 6.39023 11.2988 6.2161 11.369C6.04198 11.4393 5.85541 11.4752 5.66709 11.4748V11.4783Z" fill="white" stroke="white" stroke-width="0.494846"/>
<path d="M8.2605 10.0714C8.2605 10.2617 8.31811 10.4477 8.42605 10.6059C8.53399 10.7641 8.6874 10.8874 8.8669 10.9602C9.04639 11.0331 9.2439 11.0521 9.43445 11.015C9.625 10.9779 9.80004 10.8863 9.93741 10.7517C10.0748 10.6172 10.1683 10.4457 10.2063 10.2591C10.2442 10.0725 10.2247 9.87906 10.1504 9.70327C10.076 9.52747 9.9501 9.37722 9.78856 9.27151C9.62702 9.1658 9.4371 9.10937 9.24281 9.10938C8.98229 9.10937 8.73243 9.21073 8.54821 9.39115C8.36399 9.57157 8.2605 9.81628 8.2605 10.0714ZM9.81199 10.0714C9.81199 10.1817 9.77861 10.2895 9.71606 10.3811C9.65352 10.4728 9.56463 10.5442 9.46063 10.5864C9.35662 10.6286 9.24218 10.6397 9.13177 10.6182C9.02136 10.5966 8.91995 10.5436 8.84034 10.4656C8.76074 10.3876 8.70654 10.2883 8.68457 10.1802C8.66261 10.072 8.67388 9.95996 8.71696 9.85811C8.76004 9.75625 8.833 9.66919 8.9266 9.60794C9.0202 9.54669 9.13024 9.51399 9.24281 9.51399C9.31756 9.51399 9.39157 9.52841 9.46063 9.55643C9.52968 9.58444 9.59243 9.6255 9.64528 9.67726C9.69813 9.72903 9.74006 9.79048 9.76866 9.85811C9.79726 9.92574 9.81199 9.99823 9.81199 10.0714Z" fill="white" stroke="white" stroke-width="0.494846"/>
</g>
<defs>
<clipPath id="clip0_20432_105287">
<rect width="20" height="20" fill="white"/>
</clipPath>
</defs>
</svg>
