<svg width="20" height="20" viewBox="0 0 20 20" fill="none" xmlns="http://www.w3.org/2000/svg">
<path d="M3.07276 1.97693L8.62088 1.97269C9.20117 1.96965 9.78125 2.20359 10.1957 2.61808L18.3169 10.7393C19.1763 11.5986 19.1763 12.9967 18.3169 13.856L12.8442 19.3287C12.4279 19.7451 11.8745 19.9741 11.286 19.9741C10.6974 19.9741 10.144 19.7449 9.72767 19.3287L8.85785 18.4589C8.69994 18.301 8.69994 18.0448 8.85785 17.8869C9.01556 17.7292 9.27194 17.7292 9.42964 17.8869L10.2995 18.757C10.5629 19.0204 10.9133 19.1656 11.2858 19.1656C11.6582 19.1656 12.0088 19.0204 12.2722 18.757L17.7451 13.284C18.0086 13.0206 18.1538 12.6702 18.1538 12.2976C18.1538 11.9249 18.0088 11.5747 17.7451 11.3113L9.62395 3.18987C9.36151 2.92743 8.99635 2.77215 8.62432 2.78125L3.07357 2.78549C2.36126 2.7859 1.78056 3.36618 1.77935 4.0785L1.77005 9.63835C1.76722 10.0096 1.91623 10.3729 2.17868 10.6354L2.97895 11.4356C3.13686 11.5935 3.13686 11.8497 2.97895 12.0076C2.82124 12.1653 2.56486 12.1653 2.40715 12.0076L1.60688 11.2073C1.19219 10.7927 0.957039 10.2186 0.961487 9.63471L0.970385 4.07729C0.972406 2.91995 1.91563 1.97774 3.07276 1.97693Z" fill="white"/>
<path d="M3.40048 6.22597C3.40048 5.22249 4.21693 4.40625 5.2202 4.40625C6.22347 4.40625 7.03992 5.22249 7.03992 6.22597C7.03992 7.22944 6.22347 8.04569 5.2202 8.04569C4.21693 8.04569 3.40048 7.22944 3.40048 6.22597ZM6.23115 6.22597C6.23115 5.66853 5.77764 5.21501 5.2202 5.21501C4.66276 5.21501 4.20925 5.66853 4.20925 6.22597C4.20925 6.78341 4.66276 7.23692 5.2202 7.23692C5.77764 7.23692 6.23115 6.78341 6.23115 6.22597Z" fill="white"/>
<path d="M8.65747 15.7263C8.65747 17.6216 7.11556 19.1636 5.22023 19.1636C3.32489 19.1636 1.78298 17.6216 1.78298 15.7263C1.78298 13.831 3.32489 12.2891 5.22023 12.2891C7.11556 12.2891 8.65747 13.831 8.65747 15.7263ZM5.22023 13.0978C3.77092 13.0978 2.59175 14.277 2.59175 15.7263C2.59175 17.1756 3.77092 18.3548 5.22023 18.3548C6.66953 18.3548 7.84871 17.1756 7.84871 15.7263C7.84871 14.277 6.66953 13.0978 5.22023 13.0978Z" fill="white"/>
<path d="M6.63554 16.133H3.80486C3.58165 16.133 3.40048 15.9518 3.40048 15.7286C3.40048 15.5054 3.58165 15.3242 3.80486 15.3242H6.63554C6.85875 15.3242 7.03992 15.5054 7.03992 15.7286C7.03992 15.9518 6.85875 16.133 6.63554 16.133Z" fill="white"/>
</svg>
