<svg width="20" height="20" viewBox="0 0 20 20" fill="none" xmlns="http://www.w3.org/2000/svg">
<g clip-path="url(#clip0_22551_261735)">
<mask id="path-1-outside-1_22551_261735" maskUnits="userSpaceOnUse" x="0" y="-0.0884399" width="20" height="20" fill="black">
<rect fill="white" y="-0.0884399" width="20" height="20"/>
<path d="M6.98088 1.12026C6.84605 0.985427 6.66747 0.91156 6.47741 0.91156H3.29299C2.59229 0.91156 2.02211 1.48174 2.02211 2.18244C2.02211 2.26779 2.09096 2.33664 2.17631 2.33664H3.44504V3.54082H3.35181C2.61883 3.54082 2.02212 4.13681 2.02212 4.86979V5.83299C1.42326 6.1005 0.992212 6.71372 1.00011 7.39434V18.1731C1.00011 18.6286 1.37089 18.9993 1.82632 18.9993H6.58991C7.04533 18.9993 7.41612 18.6286 7.41612 18.1731V15.5166V10.2674V7.39434C7.42329 6.70797 6.99369 6.10122 6.39697 5.83443V4.86979C6.39697 4.13681 5.80098 3.54082 5.068 3.54082H4.97118L4.9719 2.33664H6.18254L7.29134 3.44544C7.32146 3.47556 7.36091 3.49062 7.40035 3.49062C7.4398 3.49062 7.47924 3.47556 7.50936 3.44544C8.0028 2.97281 8.0028 2.12149 7.50936 1.64884L6.98088 1.12026ZM7.10783 15.3624H1.30927V10.4223H7.10783V15.3624ZM6.59073 18.6909H1.82714C1.5417 18.6909 1.30933 18.4585 1.30933 18.1731V15.6708H7.10788V18.1731C7.10788 18.4585 6.87618 18.6909 6.59073 18.6909ZM7.10783 7.39435V10.1133H1.30927V7.39435C1.3021 6.80265 1.70086 6.27336 2.23948 6.079C2.31048 6.05318 2.38364 6.0331 2.45894 6.02019C2.46037 6.02019 2.46109 6.02019 2.46253 6.01947C2.5407 6.00584 2.62175 5.99867 2.70422 5.99867C2.80248 6.008 3.13956 6.00369 3.56773 5.99867H5.41514C5.68553 6.00656 5.91144 6.02019 6.05129 6.04385C6.09073 6.0539 6.1309 6.06394 6.17034 6.07469C6.17752 6.07828 6.18541 6.08115 6.19043 6.08473C6.7398 6.28125 7.10783 6.80768 7.10783 7.39435ZM6.08868 4.86981V5.73116C6.07793 5.72327 6.0392 5.71682 5.97823 5.71108C5.89217 5.69745 5.80467 5.68885 5.71502 5.68956H5.39658C4.85868 5.68167 4.11207 5.68598 3.53907 5.68956H2.70496C2.5773 5.68741 2.4525 5.70247 2.33129 5.72973V4.86909C2.33129 4.30608 2.78886 3.84851 3.35186 3.84851H5.06813C5.63113 3.84923 6.08868 4.30752 6.08868 4.86981ZM3.7549 3.54083V2.35531H4.66359V3.54083H3.7549ZM7.39116 3.10907L6.35553 2.07344C6.32684 2.04475 6.2874 2.02825 6.24652 2.02825L2.34348 2.02754C2.41735 1.56996 2.8154 1.21998 3.29306 1.21998H6.47674C6.58432 1.21998 6.68616 1.26229 6.76219 1.33832L7.29004 1.86617C7.62211 2.18605 7.66586 2.74258 7.39116 3.10907ZM18.7904 17.6174H18.5085C18.6491 17.2237 18.6483 16.878 18.502 16.6097C17.9634 15.7319 16.3691 16.0876 15.7258 16.2432C15.3629 16.3644 14.9992 16.3981 14.6371 16.3831V9.11717C14.6371 8.42938 14.2189 7.8133 13.5964 7.55368V6.77767C13.6036 6.13362 13.0592 5.59572 12.4231 5.60147C12.1304 5.62514 10.2743 5.53764 10.0362 5.67175C9.57291 5.83958 9.26163 6.28423 9.26163 6.77767V7.55368C8.63696 7.81976 8.22097 8.43441 8.22097 9.11718V18.2601C8.22097 18.7162 8.59247 19.0877 9.04861 19.0877H11.7617C11.7639 19.0877 11.766 19.0884 11.7689 19.0884H17.6277C18.3578 19.092 18.9731 18.5032 18.9997 17.7767C19.0068 17.6626 18.8929 17.5987 18.7904 17.6174ZM15.8132 16.5394C17.1365 16.1916 18.796 16.2146 18.1793 17.6167H11.2182C11.0554 17.2244 11.0525 16.9303 11.1859 16.7266C11.1945 16.7137 11.2046 16.7008 11.2146 16.6886C11.2232 16.6771 11.234 16.6671 11.2433 16.6563C11.3623 16.5308 11.5395 16.4484 11.7554 16.4017C11.7948 16.3938 11.835 16.3852 11.8773 16.3795C11.8866 16.3781 11.8967 16.3773 11.9067 16.3759C12.2187 16.3372 12.6103 16.3573 13.0614 16.4261C13.2364 16.4562 13.4114 16.495 13.5814 16.5394C13.6 16.5452 13.6187 16.5488 13.6373 16.5538C13.9141 16.6284 14.2312 16.7073 14.4327 16.6915C14.8953 16.723 15.3621 16.6728 15.8132 16.5394ZM9.56925 6.77763C9.56351 6.30857 9.96658 5.90265 10.4364 5.90981H12.4215C12.8898 5.90622 13.2922 6.30426 13.2864 6.77763V7.44965C13.2778 7.4475 13.2685 7.4475 13.2599 7.44535C13.2312 7.43961 13.2018 7.43531 13.1724 7.43172C13.1466 7.42813 13.1207 7.42383 13.0942 7.42168C13.0677 7.41953 13.0404 7.41881 13.0132 7.41738C12.9866 7.41594 12.9615 7.41307 12.935 7.41307C12.8711 7.41738 12.4387 7.41451 11.9044 7.41164C11.3442 7.40447 10.6715 7.39729 10.1544 7.41451C9.82019 7.42025 9.58782 7.43029 9.56988 7.44893L9.56925 6.77763ZM9.46023 7.80107C9.46095 7.80035 9.4631 7.79963 9.46382 7.79891C9.46525 7.7982 9.46669 7.79891 9.46812 7.7982C9.51331 7.7817 9.56351 7.77166 9.61228 7.76019C9.75214 7.73939 9.97159 7.72719 10.2327 7.72002H12.0214C12.4739 7.72504 12.8339 7.72935 12.9351 7.72074C13.0003 7.72074 13.0642 7.72648 13.1266 7.73508C13.194 7.74584 13.2593 7.7609 13.3245 7.7774C13.3532 7.78601 13.3819 7.79533 13.4099 7.80609C13.9592 8.00331 14.3286 8.52974 14.3286 9.11569V12.0353H13.0534C12.3341 10.8685 10.5246 10.8677 9.80456 12.0353H8.52938V9.11569C8.52866 8.52759 8.90441 7.99831 9.46023 7.80107ZM8.52931 12.346H9.89056C9.94507 12.346 9.99599 12.3166 10.024 12.2692C10.3151 11.7701 10.8538 11.4602 11.4289 11.4602C12.0041 11.4602 12.5428 11.7701 12.8339 12.2692C12.8612 12.3166 12.9121 12.346 12.9673 12.346H14.3286V13.8299L12.9666 13.8291C12.9121 13.8291 12.8612 13.8585 12.8332 13.9059C12.542 14.4051 12.0034 14.7149 11.4282 14.7149C10.853 14.7149 10.3151 14.405 10.0232 13.9059C9.99599 13.8585 9.94507 13.8291 9.88985 13.8291H8.52859C8.52931 13.0883 8.52931 13.0237 8.52931 12.346ZM9.04784 18.7793C8.76168 18.7793 8.52931 18.5469 8.52931 18.2607V14.1383H9.80449C10.1602 14.6869 10.7741 15.024 11.429 15.024C12.0838 15.024 12.6977 14.6869 13.0534 14.1383H14.3286V16.3602C14.155 16.3409 13.9815 16.3136 13.8086 16.2792C13.5913 16.2247 13.3762 16.1616 13.1581 16.1286C13.1287 16.1228 13.0986 16.1171 13.0678 16.1121C12.565 16.0232 11.9367 16.0038 11.4662 16.168C11.4634 16.1687 11.4612 16.1695 11.4584 16.1709C11.4361 16.1788 11.4146 16.1874 11.3924 16.196C11.3802 16.201 11.368 16.2053 11.3565 16.2103C11.3415 16.2168 11.3264 16.2247 11.312 16.2311C11.2956 16.239 11.2783 16.2469 11.2626 16.2555C11.2511 16.2613 11.2403 16.2684 11.2296 16.2749C11.2116 16.2857 11.1937 16.2957 11.1758 16.3072C11.1657 16.3136 11.1564 16.3208 11.1464 16.3273C11.1299 16.3394 11.1127 16.3509 11.0969 16.3638C11.0868 16.3717 11.0775 16.3803 11.0675 16.3889C11.0531 16.4011 11.0395 16.4133 11.0259 16.4269C11.0151 16.4377 11.0051 16.4492 10.995 16.4599C10.9843 16.4714 10.9735 16.4836 10.9635 16.4958C10.952 16.5101 10.9413 16.5252 10.9305 16.5403C10.9233 16.5503 10.9162 16.5603 10.909 16.5711C10.8975 16.5897 10.8867 16.6091 10.8767 16.6285C10.8724 16.6371 10.8681 16.645 10.8638 16.6536C10.853 16.6765 10.843 16.7002 10.8344 16.7246C10.8322 16.731 10.8294 16.7375 10.8272 16.7439C10.8179 16.7705 10.8107 16.7985 10.8043 16.8264C10.8028 16.8322 10.8014 16.8372 10.8007 16.8429C10.7942 16.8716 10.7899 16.9024 10.7863 16.9333C10.7856 16.9397 10.7849 16.9455 10.7842 16.9519C10.7813 16.9813 10.7799 17.0115 10.7799 17.0423C10.7799 17.0531 10.7792 17.0631 10.7799 17.0739C10.7806 17.0997 10.782 17.1262 10.7842 17.1528C10.7856 17.1721 10.7871 17.1908 10.7892 17.2108C10.7914 17.2281 10.7942 17.246 10.7964 17.2632C10.8014 17.2969 10.8079 17.3321 10.815 17.3679C10.815 17.3693 10.8157 17.3708 10.8165 17.3729C10.833 17.4511 10.8545 17.5322 10.8839 17.6189C10.8781 17.6196 10.8702 17.6196 10.8631 17.6196H10.7957C10.7254 17.6175 10.6386 17.6132 10.5654 17.6196H10.5489C10.5389 17.6196 10.5303 17.6239 10.521 17.6254C10.5181 17.6261 10.5152 17.6268 10.5124 17.6268C10.5009 17.6297 10.4901 17.6318 10.4801 17.6369C10.4614 17.644 10.445 17.6533 10.4363 17.6663C10.4069 17.6971 10.3919 17.738 10.394 17.7796C10.3969 17.8441 10.4055 17.9072 10.417 17.9689C10.4191 17.9818 10.422 17.994 10.4249 18.0062C10.4363 18.0586 10.45 18.1095 10.4672 18.1597C10.4701 18.169 10.4729 18.1783 10.4765 18.1877C10.4973 18.2443 10.5217 18.2995 10.5497 18.3533C10.5554 18.3648 10.5626 18.3748 10.5683 18.3863C10.5913 18.4272 10.6164 18.4674 10.6436 18.5061C10.6537 18.5204 10.6644 18.5355 10.6752 18.5498C10.7074 18.5914 10.7412 18.6323 10.7777 18.6703C10.7835 18.6761 10.7878 18.6818 10.7935 18.6875C10.8265 18.7205 10.8609 18.7521 10.8975 18.7815L9.04784 18.7793ZM17.6276 18.78H11.771C11.7696 18.78 11.7689 18.7793 11.7682 18.7793C11.7359 18.78 11.7051 18.7742 11.6728 18.7714C11.5796 18.7635 11.4892 18.747 11.4067 18.7169C11.401 18.7147 11.3967 18.7118 11.3909 18.7104C11.3422 18.6918 11.2948 18.6702 11.2496 18.6444C11.241 18.6394 11.2331 18.6344 11.2245 18.6294C11.1801 18.6028 11.1378 18.5741 11.0983 18.5419C11.094 18.5383 11.0897 18.5354 11.0854 18.5318C10.9993 18.4601 10.9248 18.3747 10.8645 18.2801C10.8538 18.2629 10.8444 18.2457 10.8344 18.2277C10.8193 18.2005 10.8057 18.1725 10.7928 18.1438C10.7828 18.1201 10.772 18.0965 10.7634 18.0721C10.7505 18.0348 10.7397 17.9961 10.7304 17.9573C10.7275 17.9466 10.7239 17.9358 10.7218 17.9251H18.6713C18.5766 18.4235 18.1297 18.7828 17.6276 18.78Z"/>
</mask>
<path d="M6.98088 1.12026C6.84605 0.985427 6.66747 0.91156 6.47741 0.91156H3.29299C2.59229 0.91156 2.02211 1.48174 2.02211 2.18244C2.02211 2.26779 2.09096 2.33664 2.17631 2.33664H3.44504V3.54082H3.35181C2.61883 3.54082 2.02212 4.13681 2.02212 4.86979V5.83299C1.42326 6.1005 0.992212 6.71372 1.00011 7.39434V18.1731C1.00011 18.6286 1.37089 18.9993 1.82632 18.9993H6.58991C7.04533 18.9993 7.41612 18.6286 7.41612 18.1731V15.5166V10.2674V7.39434C7.42329 6.70797 6.99369 6.10122 6.39697 5.83443V4.86979C6.39697 4.13681 5.80098 3.54082 5.068 3.54082H4.97118L4.9719 2.33664H6.18254L7.29134 3.44544C7.32146 3.47556 7.36091 3.49062 7.40035 3.49062C7.4398 3.49062 7.47924 3.47556 7.50936 3.44544C8.0028 2.97281 8.0028 2.12149 7.50936 1.64884L6.98088 1.12026ZM7.10783 15.3624H1.30927V10.4223H7.10783V15.3624ZM6.59073 18.6909H1.82714C1.5417 18.6909 1.30933 18.4585 1.30933 18.1731V15.6708H7.10788V18.1731C7.10788 18.4585 6.87618 18.6909 6.59073 18.6909ZM7.10783 7.39435V10.1133H1.30927V7.39435C1.3021 6.80265 1.70086 6.27336 2.23948 6.079C2.31048 6.05318 2.38364 6.0331 2.45894 6.02019C2.46037 6.02019 2.46109 6.02019 2.46253 6.01947C2.5407 6.00584 2.62175 5.99867 2.70422 5.99867C2.80248 6.008 3.13956 6.00369 3.56773 5.99867H5.41514C5.68553 6.00656 5.91144 6.02019 6.05129 6.04385C6.09073 6.0539 6.1309 6.06394 6.17034 6.07469C6.17752 6.07828 6.18541 6.08115 6.19043 6.08473C6.7398 6.28125 7.10783 6.80768 7.10783 7.39435ZM6.08868 4.86981V5.73116C6.07793 5.72327 6.0392 5.71682 5.97823 5.71108C5.89217 5.69745 5.80467 5.68885 5.71502 5.68956H5.39658C4.85868 5.68167 4.11207 5.68598 3.53907 5.68956H2.70496C2.5773 5.68741 2.4525 5.70247 2.33129 5.72973V4.86909C2.33129 4.30608 2.78886 3.84851 3.35186 3.84851H5.06813C5.63113 3.84923 6.08868 4.30752 6.08868 4.86981ZM3.7549 3.54083V2.35531H4.66359V3.54083H3.7549ZM7.39116 3.10907L6.35553 2.07344C6.32684 2.04475 6.2874 2.02825 6.24652 2.02825L2.34348 2.02754C2.41735 1.56996 2.8154 1.21998 3.29306 1.21998H6.47674C6.58432 1.21998 6.68616 1.26229 6.76219 1.33832L7.29004 1.86617C7.62211 2.18605 7.66586 2.74258 7.39116 3.10907ZM18.7904 17.6174H18.5085C18.6491 17.2237 18.6483 16.878 18.502 16.6097C17.9634 15.7319 16.3691 16.0876 15.7258 16.2432C15.3629 16.3644 14.9992 16.3981 14.6371 16.3831V9.11717C14.6371 8.42938 14.2189 7.8133 13.5964 7.55368V6.77767C13.6036 6.13362 13.0592 5.59572 12.4231 5.60147C12.1304 5.62514 10.2743 5.53764 10.0362 5.67175C9.57291 5.83958 9.26163 6.28423 9.26163 6.77767V7.55368C8.63696 7.81976 8.22097 8.43441 8.22097 9.11718V18.2601C8.22097 18.7162 8.59247 19.0877 9.04861 19.0877H11.7617C11.7639 19.0877 11.766 19.0884 11.7689 19.0884H17.6277C18.3578 19.092 18.9731 18.5032 18.9997 17.7767C19.0068 17.6626 18.8929 17.5987 18.7904 17.6174ZM15.8132 16.5394C17.1365 16.1916 18.796 16.2146 18.1793 17.6167H11.2182C11.0554 17.2244 11.0525 16.9303 11.1859 16.7266C11.1945 16.7137 11.2046 16.7008 11.2146 16.6886C11.2232 16.6771 11.234 16.6671 11.2433 16.6563C11.3623 16.5308 11.5395 16.4484 11.7554 16.4017C11.7948 16.3938 11.835 16.3852 11.8773 16.3795C11.8866 16.3781 11.8967 16.3773 11.9067 16.3759C12.2187 16.3372 12.6103 16.3573 13.0614 16.4261C13.2364 16.4562 13.4114 16.495 13.5814 16.5394C13.6 16.5452 13.6187 16.5488 13.6373 16.5538C13.9141 16.6284 14.2312 16.7073 14.4327 16.6915C14.8953 16.723 15.3621 16.6728 15.8132 16.5394ZM9.56925 6.77763C9.56351 6.30857 9.96658 5.90265 10.4364 5.90981H12.4215C12.8898 5.90622 13.2922 6.30426 13.2864 6.77763V7.44965C13.2778 7.4475 13.2685 7.4475 13.2599 7.44535C13.2312 7.43961 13.2018 7.43531 13.1724 7.43172C13.1466 7.42813 13.1207 7.42383 13.0942 7.42168C13.0677 7.41953 13.0404 7.41881 13.0132 7.41738C12.9866 7.41594 12.9615 7.41307 12.935 7.41307C12.8711 7.41738 12.4387 7.41451 11.9044 7.41164C11.3442 7.40447 10.6715 7.39729 10.1544 7.41451C9.82019 7.42025 9.58782 7.43029 9.56988 7.44893L9.56925 6.77763ZM9.46023 7.80107C9.46095 7.80035 9.4631 7.79963 9.46382 7.79891C9.46525 7.7982 9.46669 7.79891 9.46812 7.7982C9.51331 7.7817 9.56351 7.77166 9.61228 7.76019C9.75214 7.73939 9.97159 7.72719 10.2327 7.72002H12.0214C12.4739 7.72504 12.8339 7.72935 12.9351 7.72074C13.0003 7.72074 13.0642 7.72648 13.1266 7.73508C13.194 7.74584 13.2593 7.7609 13.3245 7.7774C13.3532 7.78601 13.3819 7.79533 13.4099 7.80609C13.9592 8.00331 14.3286 8.52974 14.3286 9.11569V12.0353H13.0534C12.3341 10.8685 10.5246 10.8677 9.80456 12.0353H8.52938V9.11569C8.52866 8.52759 8.90441 7.99831 9.46023 7.80107ZM8.52931 12.346H9.89056C9.94507 12.346 9.99599 12.3166 10.024 12.2692C10.3151 11.7701 10.8538 11.4602 11.4289 11.4602C12.0041 11.4602 12.5428 11.7701 12.8339 12.2692C12.8612 12.3166 12.9121 12.346 12.9673 12.346H14.3286V13.8299L12.9666 13.8291C12.9121 13.8291 12.8612 13.8585 12.8332 13.9059C12.542 14.4051 12.0034 14.7149 11.4282 14.7149C10.853 14.7149 10.3151 14.405 10.0232 13.9059C9.99599 13.8585 9.94507 13.8291 9.88985 13.8291H8.52859C8.52931 13.0883 8.52931 13.0237 8.52931 12.346ZM9.04784 18.7793C8.76168 18.7793 8.52931 18.5469 8.52931 18.2607V14.1383H9.80449C10.1602 14.6869 10.7741 15.024 11.429 15.024C12.0838 15.024 12.6977 14.6869 13.0534 14.1383H14.3286V16.3602C14.155 16.3409 13.9815 16.3136 13.8086 16.2792C13.5913 16.2247 13.3762 16.1616 13.1581 16.1286C13.1287 16.1228 13.0986 16.1171 13.0678 16.1121C12.565 16.0232 11.9367 16.0038 11.4662 16.168C11.4634 16.1687 11.4612 16.1695 11.4584 16.1709C11.4361 16.1788 11.4146 16.1874 11.3924 16.196C11.3802 16.201 11.368 16.2053 11.3565 16.2103C11.3415 16.2168 11.3264 16.2247 11.312 16.2311C11.2956 16.239 11.2783 16.2469 11.2626 16.2555C11.2511 16.2613 11.2403 16.2684 11.2296 16.2749C11.2116 16.2857 11.1937 16.2957 11.1758 16.3072C11.1657 16.3136 11.1564 16.3208 11.1464 16.3273C11.1299 16.3394 11.1127 16.3509 11.0969 16.3638C11.0868 16.3717 11.0775 16.3803 11.0675 16.3889C11.0531 16.4011 11.0395 16.4133 11.0259 16.4269C11.0151 16.4377 11.0051 16.4492 10.995 16.4599C10.9843 16.4714 10.9735 16.4836 10.9635 16.4958C10.952 16.5101 10.9413 16.5252 10.9305 16.5403C10.9233 16.5503 10.9162 16.5603 10.909 16.5711C10.8975 16.5897 10.8867 16.6091 10.8767 16.6285C10.8724 16.6371 10.8681 16.645 10.8638 16.6536C10.853 16.6765 10.843 16.7002 10.8344 16.7246C10.8322 16.731 10.8294 16.7375 10.8272 16.7439C10.8179 16.7705 10.8107 16.7985 10.8043 16.8264C10.8028 16.8322 10.8014 16.8372 10.8007 16.8429C10.7942 16.8716 10.7899 16.9024 10.7863 16.9333C10.7856 16.9397 10.7849 16.9455 10.7842 16.9519C10.7813 16.9813 10.7799 17.0115 10.7799 17.0423C10.7799 17.0531 10.7792 17.0631 10.7799 17.0739C10.7806 17.0997 10.782 17.1262 10.7842 17.1528C10.7856 17.1721 10.7871 17.1908 10.7892 17.2108C10.7914 17.2281 10.7942 17.246 10.7964 17.2632C10.8014 17.2969 10.8079 17.3321 10.815 17.3679C10.815 17.3693 10.8157 17.3708 10.8165 17.3729C10.833 17.4511 10.8545 17.5322 10.8839 17.6189C10.8781 17.6196 10.8702 17.6196 10.8631 17.6196H10.7957C10.7254 17.6175 10.6386 17.6132 10.5654 17.6196H10.5489C10.5389 17.6196 10.5303 17.6239 10.521 17.6254C10.5181 17.6261 10.5152 17.6268 10.5124 17.6268C10.5009 17.6297 10.4901 17.6318 10.4801 17.6369C10.4614 17.644 10.445 17.6533 10.4363 17.6663C10.4069 17.6971 10.3919 17.738 10.394 17.7796C10.3969 17.8441 10.4055 17.9072 10.417 17.9689C10.4191 17.9818 10.422 17.994 10.4249 18.0062C10.4363 18.0586 10.45 18.1095 10.4672 18.1597C10.4701 18.169 10.4729 18.1783 10.4765 18.1877C10.4973 18.2443 10.5217 18.2995 10.5497 18.3533C10.5554 18.3648 10.5626 18.3748 10.5683 18.3863C10.5913 18.4272 10.6164 18.4674 10.6436 18.5061C10.6537 18.5204 10.6644 18.5355 10.6752 18.5498C10.7074 18.5914 10.7412 18.6323 10.7777 18.6703C10.7835 18.6761 10.7878 18.6818 10.7935 18.6875C10.8265 18.7205 10.8609 18.7521 10.8975 18.7815L9.04784 18.7793ZM17.6276 18.78H11.771C11.7696 18.78 11.7689 18.7793 11.7682 18.7793C11.7359 18.78 11.7051 18.7742 11.6728 18.7714C11.5796 18.7635 11.4892 18.747 11.4067 18.7169C11.401 18.7147 11.3967 18.7118 11.3909 18.7104C11.3422 18.6918 11.2948 18.6702 11.2496 18.6444C11.241 18.6394 11.2331 18.6344 11.2245 18.6294C11.1801 18.6028 11.1378 18.5741 11.0983 18.5419C11.094 18.5383 11.0897 18.5354 11.0854 18.5318C10.9993 18.4601 10.9248 18.3747 10.8645 18.2801C10.8538 18.2629 10.8444 18.2457 10.8344 18.2277C10.8193 18.2005 10.8057 18.1725 10.7928 18.1438C10.7828 18.1201 10.772 18.0965 10.7634 18.0721C10.7505 18.0348 10.7397 17.9961 10.7304 17.9573C10.7275 17.9466 10.7239 17.9358 10.7218 17.9251H18.6713C18.5766 18.4235 18.1297 18.7828 17.6276 18.78Z" fill="white"/>
<path d="M6.98088 1.12026C6.84605 0.985427 6.66747 0.91156 6.47741 0.91156H3.29299C2.59229 0.91156 2.02211 1.48174 2.02211 2.18244C2.02211 2.26779 2.09096 2.33664 2.17631 2.33664H3.44504V3.54082H3.35181C2.61883 3.54082 2.02212 4.13681 2.02212 4.86979V5.83299C1.42326 6.1005 0.992212 6.71372 1.00011 7.39434V18.1731C1.00011 18.6286 1.37089 18.9993 1.82632 18.9993H6.58991C7.04533 18.9993 7.41612 18.6286 7.41612 18.1731V15.5166V10.2674V7.39434C7.42329 6.70797 6.99369 6.10122 6.39697 5.83443V4.86979C6.39697 4.13681 5.80098 3.54082 5.068 3.54082H4.97118L4.9719 2.33664H6.18254L7.29134 3.44544C7.32146 3.47556 7.36091 3.49062 7.40035 3.49062C7.4398 3.49062 7.47924 3.47556 7.50936 3.44544C8.0028 2.97281 8.0028 2.12149 7.50936 1.64884L6.98088 1.12026ZM7.10783 15.3624H1.30927V10.4223H7.10783V15.3624ZM6.59073 18.6909H1.82714C1.5417 18.6909 1.30933 18.4585 1.30933 18.1731V15.6708H7.10788V18.1731C7.10788 18.4585 6.87618 18.6909 6.59073 18.6909ZM7.10783 7.39435V10.1133H1.30927V7.39435C1.3021 6.80265 1.70086 6.27336 2.23948 6.079C2.31048 6.05318 2.38364 6.0331 2.45894 6.02019C2.46037 6.02019 2.46109 6.02019 2.46253 6.01947C2.5407 6.00584 2.62175 5.99867 2.70422 5.99867C2.80248 6.008 3.13956 6.00369 3.56773 5.99867H5.41514C5.68553 6.00656 5.91144 6.02019 6.05129 6.04385C6.09073 6.0539 6.1309 6.06394 6.17034 6.07469C6.17752 6.07828 6.18541 6.08115 6.19043 6.08473C6.7398 6.28125 7.10783 6.80768 7.10783 7.39435ZM6.08868 4.86981V5.73116C6.07793 5.72327 6.0392 5.71682 5.97823 5.71108C5.89217 5.69745 5.80467 5.68885 5.71502 5.68956H5.39658C4.85868 5.68167 4.11207 5.68598 3.53907 5.68956H2.70496C2.5773 5.68741 2.4525 5.70247 2.33129 5.72973V4.86909C2.33129 4.30608 2.78886 3.84851 3.35186 3.84851H5.06813C5.63113 3.84923 6.08868 4.30752 6.08868 4.86981ZM3.7549 3.54083V2.35531H4.66359V3.54083H3.7549ZM7.39116 3.10907L6.35553 2.07344C6.32684 2.04475 6.2874 2.02825 6.24652 2.02825L2.34348 2.02754C2.41735 1.56996 2.8154 1.21998 3.29306 1.21998H6.47674C6.58432 1.21998 6.68616 1.26229 6.76219 1.33832L7.29004 1.86617C7.62211 2.18605 7.66586 2.74258 7.39116 3.10907ZM18.7904 17.6174H18.5085C18.6491 17.2237 18.6483 16.878 18.502 16.6097C17.9634 15.7319 16.3691 16.0876 15.7258 16.2432C15.3629 16.3644 14.9992 16.3981 14.6371 16.3831V9.11717C14.6371 8.42938 14.2189 7.8133 13.5964 7.55368V6.77767C13.6036 6.13362 13.0592 5.59572 12.4231 5.60147C12.1304 5.62514 10.2743 5.53764 10.0362 5.67175C9.57291 5.83958 9.26163 6.28423 9.26163 6.77767V7.55368C8.63696 7.81976 8.22097 8.43441 8.22097 9.11718V18.2601C8.22097 18.7162 8.59247 19.0877 9.04861 19.0877H11.7617C11.7639 19.0877 11.766 19.0884 11.7689 19.0884H17.6277C18.3578 19.092 18.9731 18.5032 18.9997 17.7767C19.0068 17.6626 18.8929 17.5987 18.7904 17.6174ZM15.8132 16.5394C17.1365 16.1916 18.796 16.2146 18.1793 17.6167H11.2182C11.0554 17.2244 11.0525 16.9303 11.1859 16.7266C11.1945 16.7137 11.2046 16.7008 11.2146 16.6886C11.2232 16.6771 11.234 16.6671 11.2433 16.6563C11.3623 16.5308 11.5395 16.4484 11.7554 16.4017C11.7948 16.3938 11.835 16.3852 11.8773 16.3795C11.8866 16.3781 11.8967 16.3773 11.9067 16.3759C12.2187 16.3372 12.6103 16.3573 13.0614 16.4261C13.2364 16.4562 13.4114 16.495 13.5814 16.5394C13.6 16.5452 13.6187 16.5488 13.6373 16.5538C13.9141 16.6284 14.2312 16.7073 14.4327 16.6915C14.8953 16.723 15.3621 16.6728 15.8132 16.5394ZM9.56925 6.77763C9.56351 6.30857 9.96658 5.90265 10.4364 5.90981H12.4215C12.8898 5.90622 13.2922 6.30426 13.2864 6.77763V7.44965C13.2778 7.4475 13.2685 7.4475 13.2599 7.44535C13.2312 7.43961 13.2018 7.43531 13.1724 7.43172C13.1466 7.42813 13.1207 7.42383 13.0942 7.42168C13.0677 7.41953 13.0404 7.41881 13.0132 7.41738C12.9866 7.41594 12.9615 7.41307 12.935 7.41307C12.8711 7.41738 12.4387 7.41451 11.9044 7.41164C11.3442 7.40447 10.6715 7.39729 10.1544 7.41451C9.82019 7.42025 9.58782 7.43029 9.56988 7.44893L9.56925 6.77763ZM9.46023 7.80107C9.46095 7.80035 9.4631 7.79963 9.46382 7.79891C9.46525 7.7982 9.46669 7.79891 9.46812 7.7982C9.51331 7.7817 9.56351 7.77166 9.61228 7.76019C9.75214 7.73939 9.97159 7.72719 10.2327 7.72002H12.0214C12.4739 7.72504 12.8339 7.72935 12.9351 7.72074C13.0003 7.72074 13.0642 7.72648 13.1266 7.73508C13.194 7.74584 13.2593 7.7609 13.3245 7.7774C13.3532 7.78601 13.3819 7.79533 13.4099 7.80609C13.9592 8.00331 14.3286 8.52974 14.3286 9.11569V12.0353H13.0534C12.3341 10.8685 10.5246 10.8677 9.80456 12.0353H8.52938V9.11569C8.52866 8.52759 8.90441 7.99831 9.46023 7.80107ZM8.52931 12.346H9.89056C9.94507 12.346 9.99599 12.3166 10.024 12.2692C10.3151 11.7701 10.8538 11.4602 11.4289 11.4602C12.0041 11.4602 12.5428 11.7701 12.8339 12.2692C12.8612 12.3166 12.9121 12.346 12.9673 12.346H14.3286V13.8299L12.9666 13.8291C12.9121 13.8291 12.8612 13.8585 12.8332 13.9059C12.542 14.4051 12.0034 14.7149 11.4282 14.7149C10.853 14.7149 10.3151 14.405 10.0232 13.9059C9.99599 13.8585 9.94507 13.8291 9.88985 13.8291H8.52859C8.52931 13.0883 8.52931 13.0237 8.52931 12.346ZM9.04784 18.7793C8.76168 18.7793 8.52931 18.5469 8.52931 18.2607V14.1383H9.80449C10.1602 14.6869 10.7741 15.024 11.429 15.024C12.0838 15.024 12.6977 14.6869 13.0534 14.1383H14.3286V16.3602C14.155 16.3409 13.9815 16.3136 13.8086 16.2792C13.5913 16.2247 13.3762 16.1616 13.1581 16.1286C13.1287 16.1228 13.0986 16.1171 13.0678 16.1121C12.565 16.0232 11.9367 16.0038 11.4662 16.168C11.4634 16.1687 11.4612 16.1695 11.4584 16.1709C11.4361 16.1788 11.4146 16.1874 11.3924 16.196C11.3802 16.201 11.368 16.2053 11.3565 16.2103C11.3415 16.2168 11.3264 16.2247 11.312 16.2311C11.2956 16.239 11.2783 16.2469 11.2626 16.2555C11.2511 16.2613 11.2403 16.2684 11.2296 16.2749C11.2116 16.2857 11.1937 16.2957 11.1758 16.3072C11.1657 16.3136 11.1564 16.3208 11.1464 16.3273C11.1299 16.3394 11.1127 16.3509 11.0969 16.3638C11.0868 16.3717 11.0775 16.3803 11.0675 16.3889C11.0531 16.4011 11.0395 16.4133 11.0259 16.4269C11.0151 16.4377 11.0051 16.4492 10.995 16.4599C10.9843 16.4714 10.9735 16.4836 10.9635 16.4958C10.952 16.5101 10.9413 16.5252 10.9305 16.5403C10.9233 16.5503 10.9162 16.5603 10.909 16.5711C10.8975 16.5897 10.8867 16.6091 10.8767 16.6285C10.8724 16.6371 10.8681 16.645 10.8638 16.6536C10.853 16.6765 10.843 16.7002 10.8344 16.7246C10.8322 16.731 10.8294 16.7375 10.8272 16.7439C10.8179 16.7705 10.8107 16.7985 10.8043 16.8264C10.8028 16.8322 10.8014 16.8372 10.8007 16.8429C10.7942 16.8716 10.7899 16.9024 10.7863 16.9333C10.7856 16.9397 10.7849 16.9455 10.7842 16.9519C10.7813 16.9813 10.7799 17.0115 10.7799 17.0423C10.7799 17.0531 10.7792 17.0631 10.7799 17.0739C10.7806 17.0997 10.782 17.1262 10.7842 17.1528C10.7856 17.1721 10.7871 17.1908 10.7892 17.2108C10.7914 17.2281 10.7942 17.246 10.7964 17.2632C10.8014 17.2969 10.8079 17.3321 10.815 17.3679C10.815 17.3693 10.8157 17.3708 10.8165 17.3729C10.833 17.4511 10.8545 17.5322 10.8839 17.6189C10.8781 17.6196 10.8702 17.6196 10.8631 17.6196H10.7957C10.7254 17.6175 10.6386 17.6132 10.5654 17.6196H10.5489C10.5389 17.6196 10.5303 17.6239 10.521 17.6254C10.5181 17.6261 10.5152 17.6268 10.5124 17.6268C10.5009 17.6297 10.4901 17.6318 10.4801 17.6369C10.4614 17.644 10.445 17.6533 10.4363 17.6663C10.4069 17.6971 10.3919 17.738 10.394 17.7796C10.3969 17.8441 10.4055 17.9072 10.417 17.9689C10.4191 17.9818 10.422 17.994 10.4249 18.0062C10.4363 18.0586 10.45 18.1095 10.4672 18.1597C10.4701 18.169 10.4729 18.1783 10.4765 18.1877C10.4973 18.2443 10.5217 18.2995 10.5497 18.3533C10.5554 18.3648 10.5626 18.3748 10.5683 18.3863C10.5913 18.4272 10.6164 18.4674 10.6436 18.5061C10.6537 18.5204 10.6644 18.5355 10.6752 18.5498C10.7074 18.5914 10.7412 18.6323 10.7777 18.6703C10.7835 18.6761 10.7878 18.6818 10.7935 18.6875C10.8265 18.7205 10.8609 18.7521 10.8975 18.7815L9.04784 18.7793ZM17.6276 18.78H11.771C11.7696 18.78 11.7689 18.7793 11.7682 18.7793C11.7359 18.78 11.7051 18.7742 11.6728 18.7714C11.5796 18.7635 11.4892 18.747 11.4067 18.7169C11.401 18.7147 11.3967 18.7118 11.3909 18.7104C11.3422 18.6918 11.2948 18.6702 11.2496 18.6444C11.241 18.6394 11.2331 18.6344 11.2245 18.6294C11.1801 18.6028 11.1378 18.5741 11.0983 18.5419C11.094 18.5383 11.0897 18.5354 11.0854 18.5318C10.9993 18.4601 10.9248 18.3747 10.8645 18.2801C10.8538 18.2629 10.8444 18.2457 10.8344 18.2277C10.8193 18.2005 10.8057 18.1725 10.7928 18.1438C10.7828 18.1201 10.772 18.0965 10.7634 18.0721C10.7505 18.0348 10.7397 17.9961 10.7304 17.9573C10.7275 17.9466 10.7239 17.9358 10.7218 17.9251H18.6713C18.5766 18.4235 18.1297 18.7828 17.6276 18.78Z" stroke="white" stroke-width="0.5" mask="url(#path-1-outside-1_22551_261735)"/>
</g>
<defs>
<clipPath id="clip0_22551_261735">
<rect width="20" height="20" fill="white"/>
</clipPath>
</defs>
</svg>
