<svg width="20" height="20" viewBox="0 0 20 20" fill="none" xmlns="http://www.w3.org/2000/svg">
<path d="M10.1289 9.86999H13.1337C13.21 9.86999 13.2814 9.90099 13.3338 9.9534C13.3873 10.007 13.4155 10.0797 13.4155 10.1535V10.1539L13.4094 11.3087H14.0894C14.2456 11.3087 14.3713 11.4345 14.3713 11.5906V12.4179C14.9068 12.5299 15.3117 13.0012 15.3117 13.5709V15.3718C15.3117 15.9295 14.9239 16.3955 14.4043 16.5197L14.3996 18.7931L10.1289 9.86999ZM10.1289 9.86999V7.0284C10.2583 7.03551 10.3874 7.04002 10.5152 7.04002C12.0202 7.04002 13.3638 6.5761 14.3485 5.6987L14.3044 5.64924L14.3485 5.6987C15.4917 4.68001 16.1135 3.12554 16.1583 1.21357L16.1583 1.21341C16.1605 1.10979 16.1054 1.0132 16.0156 0.961661L16.0156 0.961659L16.015 0.96132C15.925 0.910821 15.8141 0.912927 15.726 0.967984L15.726 0.967983L15.7256 0.968224C15.3394 1.21299 14.8659 1.24256 14.3363 1.27353L14.3406 1.3484L10.1289 9.86999ZM9.53556 6.49921C9.51711 6.19837 9.51168 5.66344 9.61946 4.97949L9.61946 4.97946C9.73989 4.21738 9.97554 3.3777 10.5988 2.68851C11.2233 1.99796 12.2279 1.46826 13.8663 1.30771L9.53556 6.49921ZM9.53556 6.49921C9.31103 5.95877 8.97959 5.43137 8.45205 5.00823C7.76507 4.45719 6.75452 4.09011 5.23713 4.09011H5.21613C5.05924 4.09011 4.90099 4.09664 4.74536 4.1031M9.53556 6.49921L4.74536 4.1031M4.74536 4.1031C4.21546 4.1243 3.74109 4.14276 3.33257 3.93802L3.33252 3.93799C3.24023 3.89183 3.12889 3.89933 3.0437 3.96022L3.0873 4.02123M4.74536 4.1031L4.74032 4.17836C4.21815 4.19926 3.72578 4.21897 3.29897 4.00507C3.23111 3.97112 3.14951 3.97678 3.0873 4.02123M3.0873 4.02123C3.0251 4.06488 2.99197 4.14005 3.00167 4.21522M3.0873 4.02123L3.04423 3.95984C2.95933 4.0194 2.91414 4.12171 2.92723 4.22441M3.00167 4.21522L2.92723 4.22441M3.00167 4.21522C3.23434 6.09848 4.00104 7.56146 5.21862 8.44644L3.00167 4.21522ZM2.92723 4.22441C3.16175 6.12258 3.93599 7.60689 5.17452 8.5071L5.17455 8.50712C6.07284 9.15938 7.19562 9.49539 8.42275 9.49539C8.7953 9.49539 9.17799 9.46285 9.56687 9.39988M2.92723 4.22441L9.56687 9.39988M9.56687 9.39988V9.86834H4.77508C4.2277 9.86834 3.78165 10.31 3.77429 10.8564C3.77376 10.8599 3.77341 10.8638 3.77341 10.868V10.8696V10.8712V18.0729C3.77341 18.6251 4.22302 19.075 4.77508 19.075H14.1178C14.2729 19.075 14.3995 18.9495 14.3996 18.7932L9.56687 9.39988ZM14.3694 1.83703L14.3693 1.83703L14.3663 1.83721L14.3694 1.83703ZM14.3694 1.83703L14.3812 1.83632C14.7721 1.81303 15.1837 1.7885 15.5717 1.65925C15.4535 3.22597 14.9139 4.43915 13.9733 5.27871C13.0257 6.1231 11.6858 6.54288 10.1741 6.4681C10.5609 4.6027 12.1343 3.17653 14.1057 2.95779L14.1059 2.95776C14.2596 2.9402 14.3721 2.80181 14.3546 2.64628M14.3694 1.83703L10.2172 4.82789M10.2172 4.82789C11.0097 3.50559 12.405 2.57914 14.0431 2.39729L14.0437 2.39723C14.2025 2.38091 14.3379 2.49199 14.3546 2.64628M10.2172 4.82789C10.3444 4.15873 10.5667 3.52494 11.049 3.01324C11.5877 2.44169 12.4611 2.01194 13.9214 1.86914L10.2172 4.82789ZM14.3546 2.64628C14.3546 2.64636 14.3546 2.64644 14.3546 2.64652L14.28 2.6545L14.3545 2.64605C14.3545 2.64613 14.3546 2.64621 14.3546 2.64628ZM3.77421 10.8656C3.77421 10.8654 3.77421 10.8653 3.77421 10.8652V10.8656ZM5.14022 5.75739C7.1234 5.77855 8.83132 7.04064 9.40201 8.85799C7.90452 9.08297 6.53105 8.79944 5.50422 8.05364L5.50423 8.05363C4.48381 7.31237 3.82639 6.15872 3.55294 4.61186C3.95566 4.70249 4.37102 4.6855 4.76596 4.66934L4.7676 4.66927L4.76776 4.66927C4.9178 4.66281 5.06762 4.65721 5.21634 4.6564H5.23797C6.69611 4.6564 7.6027 4.99771 8.19259 5.51227C8.72056 5.97281 9.00376 6.57969 9.19635 7.23122C8.27611 5.99404 6.79504 5.21081 5.14665 5.19357L5.14665 5.19341L5.14179 5.19367C4.98872 5.20201 4.86387 5.31372 4.86163 5.47199C4.85942 5.62782 4.98507 5.75519 5.13996 5.75738L5.14022 5.75739ZM14.3705 13.0082C14.5912 13.1025 14.7463 13.3207 14.7464 13.5746C14.7463 13.8283 14.5913 14.046 14.3705 14.1408V13.0082ZM14.0531 15.9919V15.9927H12.6351C12.2944 15.9927 12.0169 15.7152 12.0169 15.3742C12.0169 15.0333 12.2944 14.7557 12.6351 14.7557H14.1281C14.3562 14.7557 14.5669 14.6884 14.7463 14.5754V15.3734C14.7463 15.7144 14.4688 15.9919 14.1281 15.9919H14.0531ZM3.78172 10.8333L3.78163 10.8334L3.78172 10.8333ZM12.8458 11.3088H10.129V10.4348H12.8507L12.8458 11.3088ZM4.77347 10.4348H9.56526V11.3088H4.77347C4.53219 11.3088 4.33625 11.1129 4.33544 10.8722C4.33625 10.6313 4.53234 10.4348 4.77347 10.4348ZM4.77348 18.5138C4.53215 18.5138 4.33544 18.317 4.33544 18.0755V11.7714C4.46778 11.8363 4.61633 11.8727 4.77347 11.8727H13.8076V14.1929H12.636C11.9847 14.1929 11.4542 14.7227 11.4542 15.3752C11.4542 16.0268 11.9838 16.5575 12.636 16.5575H13.8398L13.8361 18.5147L4.77348 18.5138Z" fill="white" stroke="white" stroke-width="0.15"/>
<path d="M12.6355 14.9484C12.4018 14.9484 12.2114 15.1387 12.2114 15.3725C12.2114 15.6062 12.4018 15.7965 12.6355 15.7965C12.8692 15.7965 13.0595 15.6062 13.0595 15.3725C13.0595 15.1387 12.8692 14.9484 12.6355 14.9484Z" fill="white" stroke="white" stroke-width="0.15"/>
</svg>
