<svg width="20" height="20" viewBox="0 0 20 20" fill="none" xmlns="http://www.w3.org/2000/svg">
<path d="M1.42217 2.95072C1.18955 2.95072 1 2.7619 1 2.52855C1 2.29594 1.18882 2.10638 1.42217 2.10638H4.18281C4.39964 2.10638 4.57768 2.26936 4.60209 2.479L4.91944 4.14323H18.5778C18.8104 4.14323 19 4.33205 19 4.5654C19 4.60058 18.9957 4.63504 18.9878 4.66735L17.8951 11.4126C17.8656 11.5949 17.7235 11.7321 17.5504 11.7608V11.7615L6.72511 13.6182L6.83208 14.1818H6.83782C7.35046 14.1818 7.81425 14.39 8.15025 14.7253C8.39149 14.9665 8.56595 15.2731 8.64564 15.6156H14.2379C14.3176 15.2724 14.4928 14.9658 14.7333 14.7253C15.0693 14.3893 15.5331 14.1818 16.0457 14.1818C16.5576 14.1818 17.0214 14.39 17.3581 14.7253C17.6941 15.0613 17.9016 15.5251 17.9016 16.0377C17.9016 16.5496 17.6934 17.0141 17.3581 17.3502C17.0221 17.6862 16.5583 17.8936 16.0457 17.8936C15.5338 17.8936 15.0693 17.6854 14.7333 17.3502C14.492 17.1089 14.3176 16.8023 14.2379 16.4599H8.64564C8.56595 16.8031 8.39077 17.1096 8.15025 17.3502C7.81425 17.6862 7.35044 17.8936 6.83782 17.8936C6.32591 17.8936 5.8614 17.6854 5.5254 17.3502C5.1894 17.0141 4.98191 16.5503 4.98191 16.0377C4.98191 15.5251 5.19011 15.0613 5.5254 14.7253C5.66683 14.5839 5.83125 14.4654 6.01217 14.3749L5.82118 13.3734C5.81903 13.3648 5.81759 13.3554 5.81544 13.3468L5.814 13.3353L4.16412 4.67532C4.1591 4.65522 4.15479 4.63584 4.15263 4.61502L3.83529 2.95078L1.42217 2.95072ZM8.074 6.32231C8.09554 6.09113 8.30088 5.92168 8.53206 5.94322C8.76324 5.96548 8.93269 6.1701 8.91114 6.40128L8.56294 10.0069C8.54068 10.238 8.33606 10.4075 8.10488 10.3859C7.8737 10.3644 7.70425 10.1591 7.72579 9.92787L8.074 6.32304V6.32231ZM10.2954 6.88949C10.3169 6.65831 10.5223 6.48886 10.7534 6.51041C10.9846 6.53195 11.1541 6.73729 11.1325 6.96847L10.8934 9.4389C10.8719 9.67008 10.6666 9.83952 10.4354 9.81798C10.2042 9.79644 10.0348 9.5911 10.0563 9.35992L10.2954 6.88949ZM12.5714 6.88949C12.5929 6.65831 12.7982 6.48886 13.0294 6.51041C13.2606 6.53195 13.43 6.73729 13.4085 6.96847L13.1694 9.4389C13.1472 9.67008 12.9425 9.83952 12.7114 9.81798C12.4802 9.79644 12.3107 9.5911 12.3323 9.35992L12.5714 6.88949ZM14.8473 6.88949C14.8696 6.65831 15.0742 6.48886 15.3054 6.51041C15.5366 6.53195 15.706 6.73729 15.6845 6.96847L15.4454 9.4389C15.4231 9.67008 15.2185 9.83952 14.9873 9.81798C14.7561 9.79644 14.5867 9.5911 14.6082 9.35992L14.8473 6.88949ZM5.08011 4.98755L6.567 12.7911L17.1117 10.9832L18.0831 4.98757L5.08011 4.98755ZM6.83697 15.026C6.55768 15.026 6.30425 15.1395 6.12116 15.3218C5.93808 15.5049 5.82464 15.7577 5.82464 16.0377C5.82464 16.3169 5.93808 16.5704 6.12116 16.7535C6.30424 16.9365 6.55697 17.0493 6.83697 17.0493C7.11625 17.0493 7.36969 16.9358 7.55277 16.7535C7.73585 16.5704 7.84929 16.3176 7.84929 16.0377C7.84929 15.7584 7.73585 15.5049 7.55277 15.3218C7.36968 15.1388 7.11696 15.026 6.83697 15.026ZM16.0441 15.026C15.7649 15.026 15.5114 15.1395 15.3283 15.3218C15.1453 15.5049 15.0325 15.7577 15.0325 16.0377C15.0325 16.3169 15.146 16.5704 15.3283 16.7535C15.5114 16.9365 15.7641 17.0493 16.0441 17.0493C16.3234 17.0493 16.5769 16.9358 16.7599 16.7535C16.943 16.5704 17.0557 16.3176 17.0557 16.0377C17.0557 15.7584 16.943 15.5049 16.7599 15.3218C16.5769 15.1388 16.3241 15.026 16.0441 15.026Z" fill="white"/>
</svg>
