<svg width="20" height="20" viewBox="0 0 20 20" fill="none" xmlns="http://www.w3.org/2000/svg">
<path fill-rule="evenodd" clip-rule="evenodd" d="M4.45602 17.0268H2.36459C2.1637 17.0268 2 16.8639 2 16.6622V2.0639C2 1.79084 2.11161 1.54232 2.29091 1.36301C2.47097 1.18295 2.71874 1.07135 2.99181 1.07135H12.9114C13.1123 1.07135 13.276 1.2343 13.276 1.43594V3.58928H14.8817C15.1949 3.58928 15.4792 3.71725 15.6845 3.92261C15.8906 4.12871 16.0178 4.41219 16.0178 4.72543V15.8698H17.6354C17.8363 15.8698 18 16.0328 18 16.2344V17.7285C18 18.0588 17.8653 18.3587 17.6473 18.5759C17.4308 18.7932 17.1302 18.9286 16.7998 18.9286H7.10269C6.99704 18.9286 6.89212 18.9227 6.78945 18.9108C6.74183 18.9137 6.69422 18.9063 6.64957 18.8914C6.06178 18.794 5.53424 18.512 5.12947 18.1072C4.82888 17.8059 4.59591 17.4375 4.45602 17.0268ZM12.0387 12.5632C12.1585 12.5632 12.2671 12.5148 12.3453 12.4359C12.4234 12.3578 12.4725 12.2492 12.4725 12.1294C12.4725 12.0096 12.4241 11.901 12.3453 11.8228C12.2671 11.7447 12.1585 11.6956 12.0387 11.6956C11.9189 11.6956 11.8103 11.744 11.7321 11.8228C11.6533 11.9017 11.6049 12.0096 11.6049 12.1294C11.6049 12.2492 11.6533 12.3578 11.7321 12.4359C11.8103 12.5148 11.9189 12.5632 12.0387 12.5632ZM12.8601 12.9516C13.0707 12.741 13.2009 12.4508 13.2009 12.1294C13.2009 11.8087 13.0707 11.5178 12.8601 11.3072C12.6496 11.0967 12.3594 10.9664 12.038 10.9664C11.7173 10.9664 11.4264 11.0967 11.2158 11.3072C11.0052 11.5178 10.875 11.808 10.875 12.1294C10.875 12.4501 11.0052 12.741 11.2158 12.9516C11.4264 13.1621 11.7165 13.2924 12.038 13.2924C12.3594 13.2924 12.6503 13.1621 12.8601 12.9516ZM12.2939 8.39576L7.9977 12.692C7.85559 12.8341 7.85559 13.0647 7.9977 13.2076C8.13981 13.3497 8.37046 13.3497 8.51332 13.2076L12.8095 8.91138C12.9516 8.76927 12.9516 8.53862 12.8095 8.39576C12.6667 8.25365 12.436 8.25365 12.2939 8.39576ZM8.76856 9.40395C8.88835 9.40395 8.99698 9.35559 9.07511 9.27672C9.15324 9.19785 9.20235 9.08996 9.20235 8.97017C9.20235 8.85037 9.15398 8.74175 9.07511 8.66361C8.99624 8.58474 8.88836 8.53638 8.76856 8.53638C8.64876 8.53638 8.54014 8.58474 8.46201 8.66361C8.38314 8.74174 8.33478 8.85037 8.33478 8.97017C8.33478 9.08996 8.38314 9.19858 8.46201 9.27672C8.54013 9.35559 8.64876 9.40395 8.76856 9.40395ZM9.58999 9.79235C9.80056 9.58178 9.93077 9.29161 9.93077 8.97018C9.93077 8.64949 9.80056 8.35858 9.58999 8.14801C9.37942 7.93743 9.08925 7.80722 8.76782 7.80722C8.44713 7.80722 8.15622 7.93743 7.94565 8.14801C7.73507 8.35858 7.60486 8.64875 7.60486 8.97018C7.60486 9.29086 7.73507 9.58178 7.94565 9.79235C8.15622 10.0029 8.44639 10.1331 8.76782 10.1331C9.08925 10.1331 9.38016 10.0029 9.58999 9.79235ZM15.2894 15.8697V4.7253C15.2894 4.61369 15.2433 4.51175 15.1696 4.43735C15.096 4.36369 14.994 4.31756 14.8824 4.31756H5.32585C5.24698 4.31756 5.17481 4.3503 5.12198 4.40313C5.06916 4.45595 5.03642 4.52813 5.03642 4.60699V16.1301C5.03642 16.6985 5.26931 17.2156 5.6443 17.5914C5.93373 17.8808 6.30726 18.0854 6.72467 18.1643C6.8958 18.0661 7.01558 17.9225 7.08552 17.761H7.08627C7.13612 17.6442 7.16067 17.5192 7.16067 17.3949C7.16067 17.2699 7.13538 17.1442 7.08552 17.0274C7.00442 16.8369 6.85488 16.6717 6.6376 16.5742C6.50144 16.5214 6.40396 16.389 6.40396 16.2342C6.40396 16.0333 6.56691 15.8696 6.76855 15.8696L15.2894 15.8697ZM7.68008 18.1992H16.7999C16.9294 18.1992 17.0469 18.1464 17.1325 18.0601C17.2181 17.9745 17.2716 17.857 17.2716 17.7275V16.598H15.6541L7.6853 16.5988C7.71134 16.6456 7.7344 16.694 7.75524 16.7431C7.84304 16.9492 7.88693 17.1717 7.88693 17.3956C7.88693 17.6196 7.84304 17.8421 7.75524 18.0474L7.75449 18.0489H7.75524C7.73292 18.0995 7.70761 18.1501 7.68008 18.1992ZM12.5477 3.58911V1.80042H2.99189C2.91971 1.80042 2.85424 1.83018 2.80588 1.8778C2.75826 1.92542 2.72849 1.99164 2.72849 2.06381V16.2981H4.31257C4.30885 16.2423 4.30736 16.1865 4.30736 16.13L4.30811 4.6069C4.30811 4.32638 4.42269 4.07193 4.60721 3.88741C4.79174 3.7029 5.0462 3.58831 5.3267 3.58831L12.5477 3.58911Z" fill="white"/>
</svg>
