<svg width="20" height="20" viewBox="0 0 20 20" fill="none" xmlns="http://www.w3.org/2000/svg">
<g clip-path="url(#clip0_20432_105272)">
<path d="M19.1548 6.75029C18.7962 6.3537 18.3598 6.03508 17.8729 5.8142C17.3859 5.59332 16.8588 5.4749 16.3241 5.46629C15.9327 5.42537 15.5371 5.46178 15.1597 5.57346C13.0448 6.23216 11.015 7.13794 9.11229 8.27205C8.98638 8.32974 8.87946 8.39109 8.77567 8.43271L7.02546 9.18621C6.96224 9.21469 6.92157 9.22847 6.85834 9.25694C6.37027 9.39361 4.69302 9.78944 3.487 8.68449C3.46791 8.68146 3.47093 8.66237 3.45248 8.65945L2.61866 8.02182C2.56252 7.97751 2.49505 7.94989 2.42396 7.94209C2.35288 7.93429 2.28103 7.94663 2.21662 7.97771L0.212793 8.96503C0.161994 8.98975 0.117646 9.02596 0.0832597 9.07079C0.0488729 9.11561 0.025391 9.16782 0.0146722 9.22329C0.00317194 9.28024 0.00478491 9.33905 0.0193889 9.39527C0.0339929 9.4515 0.0612046 9.50367 0.0989617 9.54781L3.48169 13.4875C3.54148 13.5573 3.62329 13.6045 3.71359 13.6215C3.7459 13.6297 3.77992 13.6283 3.81144 13.6174C3.83053 13.6204 5.38626 13.4976 7.52458 13.1356C7.24343 13.9263 6.87563 14.6835 6.4279 15.3932C6.37864 15.4223 6.33889 15.465 6.31352 15.5163C6.28814 15.5675 6.27823 15.625 6.285 15.6818C6.28557 15.7978 6.33047 15.9092 6.4105 15.9933C6.53002 16.1043 6.68458 16.1701 6.84747 16.1792C7.18808 16.2195 7.53167 16.2285 7.87392 16.2061C9.28163 16.1571 10.422 14.2371 10.5535 14.025L11.563 12.3179C15.1091 11.4203 17.6381 10.2063 19.0545 8.73905C19.3065 8.47446 19.4552 8.12823 19.4736 7.76329C19.492 7.39835 19.3789 7.03891 19.1548 6.75029ZM9.83411 13.6574C9.56498 14.1209 8.63958 15.433 7.79921 15.4545C7.62564 15.4662 7.45143 15.4646 7.27811 15.4496C7.99644 14.0501 8.6096 12.5991 9.11251 11.1085L12.0995 9.81177L9.83411 13.6574ZM18.4945 8.22177C17.2857 9.4694 15.1312 10.5477 12.0785 11.4067L13.3805 9.19923C13.4216 9.12832 13.4394 9.04629 13.4314 8.96471C13.4234 8.88314 13.3899 8.80616 13.3358 8.74463C13.2849 8.68192 13.2139 8.63883 13.1348 8.62273C13.0557 8.60663 12.9735 8.61853 12.9022 8.65639L8.6658 10.4774C8.61746 10.4974 8.57385 10.5273 8.53774 10.5652C8.50164 10.6031 8.47385 10.648 8.45614 10.6973C8.22167 11.321 8.01993 11.8533 7.82854 12.3286C5.95051 12.6535 4.42675 12.8009 3.91386 12.8554L0.989508 9.45663L2.33899 8.79491L2.97854 9.28762C4.47414 10.6524 6.49135 10.1943 7.06486 10.0125C7.15065 9.9883 7.23395 9.95606 7.31365 9.91617L9.08842 9.14764C9.21433 9.08995 9.36235 9.0162 9.51228 8.94274C11.3648 7.8428 13.3385 6.96104 15.3938 6.31508C15.6731 6.22266 15.97 6.19644 16.2612 6.23848C17.1264 6.25073 17.9515 6.60518 18.5559 7.22428C18.6641 7.37215 18.7172 7.55319 18.706 7.73607C18.6947 7.91894 18.62 8.09214 18.4945 8.22569L18.4945 8.22177Z" fill="white" stroke="white" stroke-width="0.247423"/>
</g>
<defs>
<clipPath id="clip0_20432_105272">
<rect width="20" height="20" fill="white"/>
</clipPath>
</defs>
</svg>
