<svg width="40" height="41" viewBox="0 0 40 41" fill="none" xmlns="http://www.w3.org/2000/svg">
<g clip-path="url(#clip0_980_7784)">
<rect y="0.287109" width="40" height="40" rx="20" fill="white"/>
<path d="M29.1798 26.4084C28.9269 26.32 28.6543 26.3044 28.3929 26.3634C28.1316 26.4225 27.8921 26.5537 27.7016 26.7422C26.0804 28.3634 23.3624 29.3171 20.406 29.3171C17.4496 29.3171 14.7316 28.3634 13.1104 26.7422C12.9199 26.5537 12.6804 26.4225 12.4191 26.3634C12.1577 26.3044 11.8851 26.32 11.6322 26.4084C5.33788 28.6018 2 33.6086 2 40.8566C2 41.236 2.15072 41.5999 2.41899 41.8681C2.68726 42.1364 3.05112 42.2871 3.43052 42.2871H37.3815C37.7609 42.2871 38.1247 42.1364 38.393 41.8681C38.6613 41.5999 38.812 41.236 38.812 40.8566C38.812 33.6086 35.4741 28.6018 29.1798 26.4084Z" fill="#BCBCBC"/>
<path d="M11.7752 17.0623C11.7752 22.4983 15.6376 26.8852 20.406 26.8852C25.1744 26.8852 29.0368 22.4983 29.0368 17.11C29.0368 11.7217 25.1744 7.28711 20.406 7.28711C15.6376 7.28711 11.7752 11.674 11.7752 17.0623Z" fill="#BCBCBC"/>
</g>
<defs>
<clipPath id="clip0_980_7784">
<rect y="0.287109" width="40" height="40" rx="20" fill="white"/>
</clipPath>
</defs>
</svg>
