<svg width="102" height="36" viewBox="0 0 102 36" fill="none" xmlns="http://www.w3.org/2000/svg">
<path d="M24.481 4L24.8967 7.54515L28.633 6.92141L31.8899 21.2355L15.2472 19.8371L15.1346 19.6805L15.6861 16.8606L8 19.2221L10.1511 5.32871L24.481 4ZM24.8188 7.62348L17.4301 8.87966L15.7554 16.7881L25.4886 14.0117L24.8188 7.62348Z" fill="url(#paint0_linear_12031_233083)"/>
<path d="M76.8772 9.64781C80.3507 9.29097 83.0908 11.4436 82.779 15.0845C82.3517 20.0367 74.7262 20.8461 72.8869 16.3958C71.6078 13.3061 73.5683 9.99014 76.8772 9.65071V9.64781ZM77.4316 11.873C74.3595 12.2182 74.6915 17.1298 77.6886 17.0717C80.9715 17.0079 80.6943 11.5074 77.4316 11.873Z" fill="#1D468D"/>
<path d="M46.9118 19.1593H44.3507V18.1178L43.7906 18.7038C42.5981 19.6206 40.1352 19.49 38.986 18.5356C37.6636 17.436 37.681 15.2051 39.1795 14.2825C39.5866 14.0331 40.6001 13.6704 41.062 13.6704H44.2121C44.1255 11.1406 40.8195 11.5613 39.3989 12.6898C39.3701 12.6753 39.3527 12.6492 39.3296 12.6289C39.2344 12.5448 38.4865 11.0739 38.4288 10.8912C38.4086 10.8215 38.3768 10.7577 38.3999 10.6852C39.1189 10.2964 39.806 9.98601 40.6116 9.81194C42.7858 9.33906 45.7511 9.55664 46.6375 11.9646C46.7155 12.1763 46.9118 12.8204 46.9118 13.009V19.1593ZM44.2121 15.2689H41.8936C41.8445 15.2689 41.4403 15.3908 41.3565 15.4227C40.4817 15.7447 40.4875 16.8848 41.2901 17.2649C42.0928 17.6449 43.3719 17.4448 43.9378 16.6934C44.2872 16.2292 44.2237 15.8201 44.215 15.2689H44.2121Z" fill="#1D468D"/>
<path d="M71.4279 10.3958L70.5271 12.4092C70.2008 12.2641 69.889 12.0813 69.5425 11.9711C68.7398 11.7158 67.12 11.504 66.4068 11.9885C65.89 12.3395 66.0026 12.9111 66.5541 13.1634C68.0959 13.8713 71.35 13.3172 71.6878 15.7948C72.2162 19.6793 66.7418 19.6967 64.2615 18.8003C64.0248 18.7162 63.2134 18.4551 63.2683 18.1533C63.5339 17.5325 63.8919 16.9407 64.0912 16.2966C65.2374 16.9552 66.6032 17.3149 67.9342 17.1989C68.3356 17.1641 69.0054 17.0219 69.0747 16.5345C69.1613 15.9253 68.6763 15.8151 68.1912 15.6903C66.658 15.2987 63.7909 15.4089 63.4848 13.2563C62.8929 9.0932 68.9073 9.05258 71.4308 10.39L71.4279 10.3958Z" fill="#1D468D"/>
<path d="M50.099 9.75781L52.6254 16.0822L55.2211 9.75781H57.9208L53.9767 19.1081C53.8612 19.1777 51.6119 19.169 51.3059 19.1458C51.2279 19.14 51.15 19.1516 51.1009 19.0733L47.2578 9.76071H50.0961L50.099 9.75781Z" fill="#1D468D"/>
<path d="M38.8137 26.805L41.5827 34.4494L44.5913 26.8021C44.8194 26.8514 45.5066 26.7209 45.6336 26.8746L48.4719 34.4523L51.3448 26.8079H52.5228L49.1244 35.9058C48.7809 35.8739 48.3102 35.9696 47.9868 35.9116C47.9089 35.8971 47.854 35.8797 47.8194 35.8013L45.01 28.5457L42.1977 35.9029L41.0601 35.9145L37.5664 26.805H38.8137Z" fill="#1D468D"/>
<path d="M86.8674 22.9766V28.2595C87.5719 27.3601 88.5883 26.8089 89.7374 26.7277C91.3139 26.6175 92.8615 27.0497 93.5978 28.5583C93.7364 28.8397 93.9991 29.6752 93.9991 29.9624V35.9039H92.7518V30.3802C92.7518 30.1655 92.5786 29.5476 92.4862 29.3242C91.6171 27.2151 88.1956 27.4733 87.2428 29.3677C87.1417 29.5679 86.8645 30.4005 86.8645 30.5862V35.9039H85.6172V22.9766H86.8645H86.8674Z" fill="#1D468D"/>
<path d="M61.9392 31.7308H54.2531C54.5101 34.9249 58.6332 35.8649 60.6572 33.6774L61.3502 34.4404L61.356 34.5129C60.175 35.9722 57.8883 36.2739 56.1616 35.7575C51.2098 34.2721 52.2031 26.2158 58.0962 26.7264C59.8834 26.8801 61.9392 28.7223 61.9392 30.5819V31.7279V31.7308ZM54.357 30.8285H60.6572C60.7843 30.8285 60.6948 30.4166 60.6745 30.3237C59.9296 26.9672 55.0875 26.9672 54.3397 30.3237C54.3137 30.434 54.2271 30.7966 54.357 30.8285Z" fill="#1D468D"/>
<path d="M70.8732 35.9005H69.6951V34.5805C69.2389 35.1491 68.7221 35.5611 68.0176 35.7815C66.3689 36.3008 63.8309 35.9527 63.2881 34.0264C62.9416 32.7963 63.4729 31.5778 64.6423 31.073C64.8155 30.9976 65.572 30.7597 65.7135 30.7597H69.6258V29.753C69.6258 29.7211 69.5161 29.3382 69.4901 29.2628C68.8751 27.4177 66.2938 27.6468 64.8675 28.3141L63.9464 28.8827C63.9522 28.639 63.3949 28.0878 63.4902 27.9108C63.5855 27.7339 64.5181 27.2523 64.752 27.1566C66.5306 26.4226 69.5825 26.4081 70.5382 28.4185C70.6277 28.6071 70.8703 29.3034 70.8703 29.4745V35.9034L70.8732 35.9005ZM69.6258 31.662H66.4064C66.1495 31.662 65.4536 31.8505 65.2024 31.9811C64.0388 32.5787 64.2813 34.2323 65.4247 34.7342C66.7125 35.2971 68.5719 34.9373 69.3371 33.7014C69.3833 33.6289 69.6258 33.188 69.6258 33.156V31.662Z" fill="#1D468D"/>
<path d="M61.7309 9.75781H59.0312V19.14H61.7309V9.75781Z" fill="#1D468D"/>
<path d="M80.1487 24.7812V26.7975H82.9177V27.839H80.1487V33.6412C80.1487 33.7631 80.3999 34.2882 80.4952 34.4071C80.9399 34.9699 81.9331 34.9699 82.551 34.732C82.6665 34.6885 83.0794 34.4042 83.1256 34.4419C83.2786 35.0628 83.8416 35.2658 83.0592 35.6604C81.9995 36.1971 80.2065 36.1217 79.4269 35.1295C79.271 34.9322 78.9014 34.2127 78.9014 33.9894V27.839H77.2383V26.7975H78.9014V24.7812H80.1487Z" fill="#1D468D"/>
<path d="M75.3762 22.9766H74.1289V35.9039H75.3762V22.9766Z" fill="#1D468D"/>
<path d="M59.1264 5.89667C59.9233 5.09597 61.904 5.37737 62.0744 6.60744C62.4064 9.00376 58.7914 9.1169 58.6846 7.0165C58.6673 6.65386 58.8723 6.14907 59.1264 5.89667Z" fill="#1D468D"/>
<defs>
<linearGradient id="paint0_linear_12031_233083" x1="32.9377" y1="18.3605" x2="7.96221" y2="18.5042" gradientUnits="userSpaceOnUse">
<stop stop-color="#1D468D"/>
<stop offset="1" stop-color="#00B1D5"/>
</linearGradient>
</defs>
</svg>
