<svg width="24" height="22" viewBox="0 0 24 22" fill="none" xmlns="http://www.w3.org/2000/svg">
<g clip-path="url(#clip0_5532_98483)">
<path fill-rule="evenodd" clip-rule="evenodd" d="M18.3327 6.51389C18.3327 6.56592 18.3287 6.61776 18.321 6.66936C18.5031 6.64967 18.6881 6.63957 18.8754 6.63957C21.7011 6.63957 24 8.93839 24 11.7641C24 16.6215 19.4997 20.5453 19.3081 20.7099L18.8705 21.0859L18.4374 20.705C18.3694 20.6453 17.7587 20.1016 16.9993 19.2116C16.7285 19.2443 16.4171 19.2443 16.1203 19.2443H2.21381C1.44263 19.2443 0.737818 18.8776 0.333265 18.2625C-0.0744484 17.6474 -0.109214 16.8963 0.235288 16.2487L1.26247 14.3266C1.51848 13.8505 1.90407 13.4513 2.38132 13.1733L2.52986 13.0876V9.18417L2.27702 9.1339C0.959059 8.87663 0.00140558 7.77362 0.00140558 6.51389C0.00140558 5.52622 0.57979 4.62429 1.509 4.15707L6.93254 1.43652C7.61838 1.09054 8.38956 0.910156 9.16706 0.910156C9.94456 0.910156 10.7157 1.0935 11.4016 1.43652L16.8251 4.15707C17.7543 4.62429 18.3327 5.52622 18.3327 6.51389ZM13.7508 11.7641C13.7508 12.0929 13.7722 12.4181 13.8121 12.7386H10.1184V9.19008L14.4487 9.18444C14.0052 9.94256 13.7508 10.8242 13.7508 11.7641ZM2.21381 17.47H15.6887C15.1202 16.6034 14.5848 15.6015 14.2215 14.5129H4.00901C3.56337 14.5129 3.15882 14.7465 2.9597 15.1191L1.93252 17.0412C1.82506 17.2394 1.97992 17.47 2.21381 17.47ZM4.42937 12.7386V9.19008H8.22205V12.7386H4.42937ZM15.4756 7.41581H2.86172C2.33075 7.41581 1.89775 7.01069 1.89775 6.51389C1.89775 6.1827 2.0937 5.87811 2.4066 5.71843L7.83014 2.99788C8.65189 2.58684 9.68856 2.58684 10.5071 2.99788L15.9307 5.71843C16.2436 5.87515 16.4395 6.17974 16.4395 6.51389C16.4395 7.01069 16.0065 7.41581 15.4756 7.41581ZM18.8754 7.96683C16.7814 7.96683 15.0781 9.67015 15.0781 11.7641C15.0781 15.1248 17.7985 18.2014 18.8789 19.2906C19.9598 18.216 22.6723 15.1783 22.6723 11.7641C22.6727 9.67015 20.9689 7.96683 18.8754 7.96683ZM17.1886 11.5989C17.1886 12.6691 18.0597 13.5398 19.1299 13.5398C20.2002 13.5398 21.0708 12.6686 21.0708 11.5989C21.0708 10.5282 20.2002 9.65751 19.1299 9.65751C18.0593 9.65751 17.1886 10.5286 17.1886 11.5989ZM18.5159 11.5989C18.5159 11.2604 18.7915 10.9848 19.1299 10.9848C19.4684 10.9848 19.7436 11.2604 19.7436 11.5989C19.7436 11.9373 19.4684 12.2125 19.1299 12.2125C18.7915 12.2125 18.5159 11.9373 18.5159 11.5989Z" fill="#2D2D2D"/>
</g>
<defs>
<clipPath id="clip0_5532_98483">
<rect width="24" height="21" fill="white" transform="translate(0 0.5)"/>
</clipPath>
</defs>
</svg>
