<svg width="24" height="24" viewBox="0 0 24 24" fill="none" xmlns="http://www.w3.org/2000/svg">
<path d="M19.1603 5.01166H13.0423L9.81686 2.78461C9.68887 2.70781 9.53528 2.65662 9.38169 2.65662H4.15963C2.03497 2.65662 0.319885 4.3717 0.319885 6.49636V17.5036C0.319885 19.6283 2.03497 21.3434 4.15963 21.3434H19.1603C21.2849 21.3434 23 19.6283 23 17.5036V8.85141C23 6.72675 21.2593 5.01166 19.1603 5.01166ZM21.4641 17.5036C21.4641 18.7836 20.4402 19.8075 19.1603 19.8075H4.15963C2.87972 19.8075 1.85578 18.7836 1.85578 17.5036V6.49636C1.85578 5.21645 2.87972 4.19252 4.15963 4.19252H9.12571L12.3511 6.41957C12.4791 6.49636 12.6327 6.54756 12.7863 6.54756H19.1347C20.4146 6.54756 21.4385 7.57149 21.4385 8.85141V17.5036H21.4641Z" fill="#487F82"/>
</svg>
