<svg width="1253" height="939" viewBox="0 0 1253 939" fill="none" xmlns="http://www.w3.org/2000/svg">
<g opacity="0.1">
<path d="M30.2507 720.677C126.192 715.434 576.37 654.008 753.056 355.507C891.864 121.003 1161.66 372.592 1201.5 169.71" stroke="white" stroke-miterlimit="10"/>
<path d="M35.4055 729.032C138.57 714.954 562.14 645.8 745.266 361.373C889.789 136.902 1155.82 365.767 1197.14 163.22" stroke="white" stroke-miterlimit="10"/>
<path d="M40.5549 737.394C150.948 714.474 547.982 637.605 737.472 367.244C887.77 152.799 1149.98 358.944 1192.79 156.734" stroke="white" stroke-miterlimit="10"/>
<path d="M45.7072 745.753C163.324 713.995 533.908 629.422 729.68 373.11C885.813 168.697 1144.14 352.12 1188.43 150.244" stroke="white" stroke-miterlimit="10"/>
<path d="M50.8611 754.112C175.703 713.514 519.922 621.262 721.896 378.98C883.927 184.607 1138.31 345.299 1184.08 143.759" stroke="white" stroke-miterlimit="10"/>
<path d="M56.0092 762.471C188.069 713.039 506.021 613.136 714.101 384.842C882.097 200.527 1132.47 338.47 1179.72 137.265" stroke="white" stroke-miterlimit="10"/>
<path d="M61.1607 770.83C200.441 712.563 492.211 605.05 706.313 390.708C880.342 216.477 1126.63 331.646 1175.36 130.776" stroke="white" stroke-miterlimit="10"/>
<path d="M66.3116 779.189C212.81 712.088 478.499 597.027 698.527 396.573C878.66 232.465 1120.79 324.823 1171.01 124.288" stroke="white" stroke-miterlimit="10"/>
<path d="M71.4633 787.548C225.179 711.614 464.878 589.064 690.738 402.439C877.05 248.494 1114.95 317.999 1166.65 117.801" stroke="white" stroke-miterlimit="10"/>
<path d="M76.6125 795.907C237.545 711.14 451.344 581.173 682.953 408.296C875.504 264.57 1109.11 311.169 1162.29 111.308" stroke="white" stroke-miterlimit="10"/>
<path d="M81.7639 804.268C249.911 710.668 437.902 573.369 675.173 414.163C874.039 280.726 1103.28 304.349 1157.94 104.821" stroke="white" stroke-miterlimit="10"/>
<path d="M86.9135 812.626C262.273 710.194 424.537 565.654 667.389 420.024C872.636 296.943 1097.44 297.523 1153.58 98.3302" stroke="white" stroke-miterlimit="10"/>
<path d="M92.0659 820.985C274.638 709.724 411.257 558.036 659.61 425.886C871.299 313.241 1091.6 290.695 1149.23 91.8431" stroke="white" stroke-miterlimit="10"/>
<path d="M97.2174 829.345C286.999 709.254 398.044 550.525 651.829 431.746C870.019 329.629 1085.77 283.876 1144.87 85.3544" stroke="white" stroke-miterlimit="10"/>
<path d="M102.37 837.705C299.362 708.785 384.892 543.122 644.052 437.607C868.793 346.103 1079.93 277.044 1140.51 78.8645" stroke="white" stroke-miterlimit="10"/>
<path d="M107.519 846.064C311.718 708.315 371.787 535.826 636.272 443.465C867.61 362.679 1074.09 270.224 1136.16 72.3816" stroke="white" stroke-miterlimit="10"/>
<path d="M112.669 854.423C324.076 707.847 358.724 528.639 628.496 449.323C866.465 379.352 1068.25 263.399 1131.8 65.8909" stroke="white" stroke-miterlimit="10"/>
<path d="M117.821 862.782C336.433 707.379 345.695 521.57 620.725 455.177C865.355 396.124 1062.42 256.57 1127.45 59.3966" stroke="white" stroke-miterlimit="10"/>
<path d="M122.972 871.139C348.789 706.914 332.684 514.603 612.946 461.035C864.258 413.001 1056.58 249.745 1123.09 52.9098" stroke="white" stroke-miterlimit="10"/>
<path d="M128.124 879.498C361.142 706.446 319.682 507.74 605.175 466.892C863.176 429.976 1050.74 242.923 1118.73 46.4196" stroke="white" stroke-miterlimit="10"/>
<path d="M133.275 887.858C373.493 705.978 306.677 500.975 597.403 472.747C862.099 447.048 1044.91 236.095 1114.38 39.9312" stroke="white" stroke-miterlimit="10"/>
<path d="M138.425 896.218C385.845 705.517 293.66 494.298 589.632 478.604C861.016 464.21 1039.07 229.272 1110.02 33.4444" stroke="white" stroke-miterlimit="10"/>
<path d="M143.575 904.578C398.193 705.055 280.622 487.705 581.856 484.458C859.914 481.46 1033.23 222.447 1105.66 26.957" stroke="white" stroke-miterlimit="10"/>
<path d="M148.727 912.935C410.544 704.593 267.56 481.186 574.093 490.309C858.803 498.783 1027.4 215.619 1101.31 20.4654" stroke="white" stroke-miterlimit="10"/>
<path d="M153.878 921.295C422.892 704.132 254.459 474.736 566.328 496.162C857.665 516.178 1021.57 208.793 1096.95 13.977" stroke="white" stroke-miterlimit="10"/>
<path d="M159.028 929.655C435.236 703.671 241.321 468.338 558.559 502.015C856.487 533.64 1015.73 201.967 1092.59 7.48847" stroke="white" stroke-miterlimit="10"/>
<path d="M164.181 938.015C447.581 703.211 228.137 461.99 550.798 507.864C855.279 551.157 1009.89 195.142 1088.24 1.00005" stroke="white" stroke-miterlimit="10"/>
</g>
</svg>
