<svg width="87" height="703" viewBox="0 0 87 703" fill="none" xmlns="http://www.w3.org/2000/svg">
<circle cx="4.35" cy="4.35" r="4.35" fill="#FFFEF9"/>
<circle cx="56.5492" cy="4.35" r="4.35" fill="#FFFEF9"/>
<circle cx="30.4496" cy="4.35" r="4.35" fill="#FFFEF9"/>
<circle cx="82.6508" cy="4.35" r="4.35" fill="#FFFEF9"/>
<circle cx="4.35" cy="30.0502" r="4.35" fill="#FFFEF9"/>
<circle cx="56.5492" cy="30.0502" r="4.35" fill="#FFFEF9"/>
<circle cx="30.4496" cy="30.0502" r="4.35" fill="#FFFEF9"/>
<circle cx="82.6508" cy="30.0502" r="4.35" fill="#FFFEF9"/>
<circle cx="4.35" cy="55.7499" r="4.35" fill="#FFFEF9"/>
<circle cx="56.5492" cy="55.7499" r="4.35" fill="#FFFEF9"/>
<circle cx="30.4496" cy="55.7499" r="4.35" fill="#FFFEF9"/>
<circle cx="82.6508" cy="55.7499" r="4.35" fill="#FFFEF9"/>
<circle cx="4.35" cy="81.4501" r="4.35" fill="#FFFEF9"/>
<circle cx="56.5492" cy="81.4501" r="4.35" fill="#FFFEF9"/>
<circle cx="30.4496" cy="81.4501" r="4.35" fill="#FFFEF9"/>
<circle cx="82.6508" cy="81.4501" r="4.35" fill="#FFFEF9"/>
<circle cx="4.35" cy="107.15" r="4.35" fill="#FFFEF9"/>
<circle cx="56.5492" cy="107.15" r="4.35" fill="#FFFEF9"/>
<circle cx="30.4496" cy="107.15" r="4.35" fill="#FFFEF9"/>
<circle cx="82.6508" cy="107.15" r="4.35" fill="#FFFEF9"/>
<circle cx="4.35" cy="132.85" r="4.35" fill="#FFFEF9"/>
<circle cx="56.5492" cy="132.85" r="4.35" fill="#FFFEF9"/>
<circle cx="30.4496" cy="132.85" r="4.35" fill="#FFFEF9"/>
<circle cx="82.6508" cy="132.85" r="4.35" fill="#FFFEF9"/>
<circle cx="4.35" cy="158.55" r="4.35" fill="#FFFEF9"/>
<circle cx="56.5492" cy="158.55" r="4.35" fill="#FFFEF9"/>
<circle cx="30.4496" cy="158.55" r="4.35" fill="#FFFEF9"/>
<circle cx="82.6508" cy="158.55" r="4.35" fill="#FFFEF9"/>
<circle cx="4.35" cy="184.25" r="4.35" fill="#FFFEF9"/>
<circle cx="56.5492" cy="184.25" r="4.35" fill="#FFFEF9"/>
<circle cx="30.4496" cy="184.25" r="4.35" fill="#FFFEF9"/>
<circle cx="82.6508" cy="184.25" r="4.35" fill="#FFFEF9"/>
<circle cx="4.35" cy="209.95" r="4.35" fill="#FFFEF9"/>
<circle cx="56.5492" cy="209.95" r="4.35" fill="#FFFEF9"/>
<circle cx="30.4496" cy="209.95" r="4.35" fill="#FFFEF9"/>
<circle cx="82.6508" cy="209.95" r="4.35" fill="#FFFEF9"/>
<circle cx="4.35" cy="235.65" r="4.35" fill="#FFFEF9"/>
<circle cx="56.5492" cy="235.65" r="4.35" fill="#FFFEF9"/>
<circle cx="30.4496" cy="235.65" r="4.35" fill="#FFFEF9"/>
<circle cx="82.6508" cy="235.65" r="4.35" fill="#FFFEF9"/>
<circle cx="4.35" cy="261.35" r="4.35" fill="#FFFEF9"/>
<circle cx="56.5492" cy="261.35" r="4.35" fill="#FFFEF9"/>
<circle cx="30.4496" cy="261.35" r="4.35" fill="#FFFEF9"/>
<circle cx="82.6508" cy="261.35" r="4.35" fill="#FFFEF9"/>
<circle cx="4.35" cy="287.05" r="4.35" fill="#FFFEF9"/>
<circle cx="56.5492" cy="287.05" r="4.35" fill="#FFFEF9"/>
<circle cx="30.4496" cy="287.05" r="4.35" fill="#FFFEF9"/>
<circle cx="82.6508" cy="287.05" r="4.35" fill="#FFFEF9"/>
<circle cx="4.35" cy="312.75" r="4.35" fill="#FFFEF9"/>
<circle cx="56.5492" cy="312.75" r="4.35" fill="#FFFEF9"/>
<circle cx="30.4496" cy="312.75" r="4.35" fill="#FFFEF9"/>
<circle cx="82.6508" cy="312.75" r="4.35" fill="#FFFEF9"/>
<circle cx="4.35" cy="338.45" r="4.35" fill="#FFFEF9"/>
<circle cx="56.5492" cy="338.45" r="4.35" fill="#FFFEF9"/>
<circle cx="30.4496" cy="338.45" r="4.35" fill="#FFFEF9"/>
<circle cx="82.6508" cy="338.45" r="4.35" fill="#FFFEF9"/>
<circle cx="4.35" cy="364.15" r="4.35" fill="#FFFEF9"/>
<circle cx="56.5492" cy="364.15" r="4.35" fill="#FFFEF9"/>
<circle cx="30.4496" cy="364.15" r="4.35" fill="#FFFEF9"/>
<circle cx="82.6508" cy="364.15" r="4.35" fill="#FFFEF9"/>
<circle cx="4.35" cy="389.85" r="4.35" fill="#FFFEF9"/>
<circle cx="56.5492" cy="389.85" r="4.35" fill="#FFFEF9"/>
<circle cx="30.4496" cy="389.85" r="4.35" fill="#FFFEF9"/>
<circle cx="82.6508" cy="389.85" r="4.35" fill="#FFFEF9"/>
<circle cx="56.5492" cy="415.55" r="4.35" fill="#FFFEF9"/>
<circle cx="4.35" cy="415.55" r="4.35" fill="#FFFEF9"/>
<circle cx="82.6508" cy="415.55" r="4.35" fill="#FFFEF9"/>
<circle cx="30.4496" cy="415.55" r="4.35" fill="#FFFEF9"/>
<circle cx="4.35" cy="441.25" r="4.35" fill="#FFFEF9"/>
<circle cx="56.5492" cy="441.25" r="4.35" fill="#FFFEF9"/>
<circle cx="30.4496" cy="441.25" r="4.35" fill="#FFFEF9"/>
<circle cx="82.6508" cy="441.25" r="4.35" fill="#FFFEF9"/>
<circle cx="4.35" cy="466.95" r="4.35" fill="#FFFEF9"/>
<circle cx="56.5492" cy="466.95" r="4.35" fill="#FFFEF9"/>
<circle cx="30.4496" cy="466.95" r="4.35" fill="#FFFEF9"/>
<circle cx="82.6508" cy="466.95" r="4.35" fill="#FFFEF9"/>
<circle cx="4.35" cy="492.65" r="4.35" fill="#FFFEF9"/>
<circle cx="56.5492" cy="492.65" r="4.35" fill="#FFFEF9"/>
<circle cx="30.4496" cy="492.65" r="4.35" fill="#FFFEF9"/>
<circle cx="82.6508" cy="492.65" r="4.35" fill="#FFFEF9"/>
<circle cx="4.35" cy="518.35" r="4.35" fill="#FFFEF9"/>
<circle cx="56.5492" cy="518.35" r="4.35" fill="#FFFEF9"/>
<circle cx="30.4496" cy="518.35" r="4.35" fill="#FFFEF9"/>
<circle cx="82.6508" cy="518.35" r="4.35" fill="#FFFEF9"/>
<circle cx="56.5492" cy="544.35" r="4.35" fill="#FFFEF9"/>
<circle cx="30.4496" cy="544.35" r="4.35" fill="#FFFEF9"/>
<circle cx="82.6508" cy="544.05" r="4.35" fill="#FFFEF9"/>
<circle cx="4.35" cy="544.05" r="4.35" fill="#FFFEF9"/>
<circle cx="4.35" cy="570.05" r="4.35" fill="#FFFEF9"/>
<circle cx="56.5492" cy="570.05" r="4.35" fill="#FFFEF9"/>
<circle cx="30.4496" cy="570.05" r="4.35" fill="#FFFEF9"/>
<circle cx="82.6508" cy="570.05" r="4.35" fill="#FFFEF9"/>
<circle cx="4.35" cy="595.75" r="4.35" fill="#FFFEF9"/>
<circle cx="56.5492" cy="595.75" r="4.35" fill="#FFFEF9"/>
<circle cx="30.4496" cy="595.75" r="4.35" fill="#FFFEF9"/>
<circle cx="82.6508" cy="595.75" r="4.35" fill="#FFFEF9"/>
<circle cx="4.35" cy="621.45" r="4.35" fill="#FFFEF9"/>
<circle cx="56.5492" cy="621.45" r="4.35" fill="#FFFEF9"/>
<circle cx="30.4496" cy="621.45" r="4.35" fill="#FFFEF9"/>
<circle cx="82.6508" cy="621.45" r="4.35" fill="#FFFEF9"/>
<circle cx="4.35" cy="647.15" r="4.35" fill="#FFFEF9"/>
<circle cx="56.5492" cy="647.15" r="4.35" fill="#FFFEF9"/>
<circle cx="30.4496" cy="647.15" r="4.35" fill="#FFFEF9"/>
<circle cx="82.6508" cy="647.15" r="4.35" fill="#FFFEF9"/>
<circle cx="4.35" cy="672.85" r="4.35" fill="#FFFEF9"/>
<circle cx="56.5492" cy="672.85" r="4.35" fill="#FFFEF9"/>
<circle cx="30.4496" cy="672.85" r="4.35" fill="#FFFEF9"/>
<circle cx="82.6508" cy="672.85" r="4.35" fill="#FFFEF9"/>
<circle cx="4.35" cy="698.55" r="4.35" fill="#FFFEF9"/>
<circle cx="56.5492" cy="698.55" r="4.35" fill="#FFFEF9"/>
<circle cx="30.4496" cy="698.55" r="4.35" fill="#FFFEF9"/>
<circle cx="82.6508" cy="698.55" r="4.35" fill="#FFFEF9"/>
</svg>
