<svg width="1366" height="96" viewBox="0 0 1366 96" fill="none" xmlns="http://www.w3.org/2000/svg">
<g opacity="0.1">
<path d="M1366 185.689C1276.33 140.109 835.063 -42.6097 508.993 117.817C252.829 243.848 149.061 -109.649 0 41.2223" stroke="white" stroke-miterlimit="10"/>
<path d="M1365.99 175.934C1264.87 134.063 843.357 -28.2466 519.305 116.916C263.564 231.479 150.537 -100.832 0.322754 48.9838" stroke="white" stroke-miterlimit="10"/>
<path d="M1366 166.174C1253.41 128.014 851.591 -13.9347 529.622 116.01C274.245 219.081 152.014 -92.0166 0.646484 56.741" stroke="white" stroke-miterlimit="10"/>
<path d="M1365.99 156.416C1241.95 121.969 859.757 0.325966 539.936 115.11C284.872 206.651 153.491 -83.2 0.969238 64.5028" stroke="white" stroke-miterlimit="10"/>
<path d="M1365.99 146.657C1230.49 115.921 867.857 14.5197 550.246 114.201C295.443 194.174 154.966 -74.3888 1.29004 72.2563" stroke="white" stroke-miterlimit="10"/>
<path d="M1366 136.902C1219.05 109.877 875.9 28.6427 560.561 113.307C305.968 181.661 156.445 -65.5643 1.61719 80.026" stroke="white" stroke-miterlimit="10"/>
<path d="M1365.99 127.149C1207.6 103.835 883.88 42.6868 570.869 112.408C316.441 169.085 157.92 -56.7424 1.93945 87.7911" stroke="white" stroke-miterlimit="10"/>
<path d="M1365.99 117.387C1196.15 97.7831 891.808 56.6184 581.177 111.5C326.87 156.432 159.397 -47.9324 2.26367 95.5454" stroke="white" stroke-miterlimit="10"/>
<path d="M1365.99 107.632C1184.7 91.7387 899.688 70.4588 591.488 110.601C337.256 143.712 160.876 -39.1118 2.59033 103.309" stroke="white" stroke-miterlimit="10"/>
<path d="M1365.99 97.8747C1173.25 85.6921 907.526 84.1886 601.789 109.703C347.61 130.917 162.348 -30.2904 2.90967 111.072" stroke="white" stroke-miterlimit="10"/>
<path d="M1366 88.1147C1161.81 79.644 915.333 97.7976 612.094 108.794C357.937 118.011 163.825 -21.4803 3.23389 118.828" stroke="white" stroke-miterlimit="10"/>
<path d="M1366 78.3589C1150.37 73.5991 923.12 111.291 622.397 107.893C368.24 105.022 165.302 -12.6621 3.55469 126.59" stroke="white" stroke-miterlimit="10"/>
<path d="M1366 68.6023C1138.93 67.5524 930.884 124.66 632.699 106.991C378.531 91.9321 166.776 -3.84092 3.88086 134.35" stroke="white" stroke-miterlimit="10"/>
<path d="M1365.99 58.8459C1127.49 61.5079 938.644 137.905 642.997 106.091C388.818 78.7376 168.252 4.97275 4.20117 142.112" stroke="white" stroke-miterlimit="10"/>
<path d="M1366 49.0881C1116.05 55.4609 946.413 151.026 653.296 105.188C399.107 65.44 169.726 13.7977 4.52832 149.876" stroke="white" stroke-miterlimit="10"/>
<path d="M1365.99 39.3271C1104.61 49.4118 954.196 164.025 663.593 104.283C409.411 52.0288 171.202 22.6038 4.85107 157.625" stroke="white" stroke-miterlimit="10"/>
<path d="M1366 29.5725C1093.18 43.3681 962.003 176.918 673.888 103.383C419.735 38.5222 172.676 31.4231 5.17969 165.393" stroke="white" stroke-miterlimit="10"/>
<path d="M1366 19.8176C1081.75 37.324 969.846 189.693 684.177 102.484C430.084 24.9137 174.146 40.2431 5.49365 173.156" stroke="white" stroke-miterlimit="10"/>
<path d="M1365.99 10.0598C1070.31 31.2732 977.728 202.367 694.474 101.58C440.479 11.2046 175.624 49.0602 5.82129 180.915" stroke="white" stroke-miterlimit="10"/>
<path d="M1365.99 0.301758C1058.89 25.2299 985.662 214.952 704.765 100.677C450.917 -2.59285 177.104 57.8761 6.14551 188.677" stroke="white" stroke-miterlimit="10"/>
<path d="M1365.99 -9.45605C1047.46 19.1869 993.651 227.455 715.054 99.7753C461.402 -16.4731 178.573 66.6932 6.46826 196.437" stroke="white" stroke-miterlimit="10"/>
<path d="M1365.99 -19.2139C1036.03 13.138 1001.7 239.89 725.342 98.8714C471.942 -30.4286 180.047 75.5073 6.7915 204.195" stroke="white" stroke-miterlimit="10"/>
<path d="M1366 -28.9717C1024.61 7.0901 1009.81 252.263 735.636 97.9714C482.55 -44.4487 181.527 84.3264 7.12109 211.957" stroke="white" stroke-miterlimit="10"/>
<path d="M1365.99 -38.7266C1013.18 1.04414 1017.99 264.59 745.915 97.0704C493.207 -58.5234 182.996 93.1445 7.43945 219.719" stroke="white" stroke-miterlimit="10"/>
<path d="M1365.99 -48.4844C1001.76 -5.0028 1026.25 276.877 756.196 96.1675C503.926 -72.6461 184.467 101.962 7.76172 227.479" stroke="white" stroke-miterlimit="10"/>
<path d="M1366 -58.2451C990.343 -11.0517 1034.56 289.135 766.482 95.2626C514.721 -86.8089 185.941 110.776 8.08594 235.237" stroke="white" stroke-miterlimit="10"/>
<path d="M1365.99 -68C978.925 -17.0947 1042.94 301.383 776.759 94.3626C525.574 -100.995 187.415 119.595 8.40967 243" stroke="white" stroke-miterlimit="10"/>
</g>
</svg>
