<svg width="131" height="74" viewBox="0 0 131 74" fill="none" xmlns="http://www.w3.org/2000/svg">
<path d="M45.0099 48.8809C44.882 48.497 41.491 38.3562 40.8512 36.4688C41.3311 36.2129 41.7469 35.925 42.1628 35.5731C43.5384 34.2935 44.5301 32.4061 44.5301 29.6549V24.5045C44.5301 20.8577 42.4507 18.3305 38.1001 19.2262L30.6784 20.7617C30.6784 20.7617 31.6701 21.1776 31.6701 21.5614C31.6701 21.9453 31.7021 51.0242 31.7021 51.5041C31.7021 51.9519 30.7104 52.7197 30.7104 52.7197L36.6925 51.5041C36.6925 51.5041 35.7008 51.0562 35.7008 50.7043C35.7008 50.3204 35.7008 38.0683 35.7008 38.0683L37.0444 37.7804C37.0764 37.7804 37.0764 37.7804 37.1084 37.7804C37.1404 37.7804 37.1404 37.7804 37.1724 37.7804C37.4283 38.5481 41.0432 49.7126 41.1071 49.9686C41.2031 50.2565 40.3394 50.7683 40.3394 50.7683L41.2991 50.5764L41.7149 50.4804L45.2658 49.7446L46.2575 49.5527C46.2575 49.5207 45.1379 49.2968 45.0099 48.8809ZM38.1321 33.8776L35.7008 34.3894V23.4169L38.1321 22.905C39.8915 22.5531 40.5633 23.9287 40.5633 25.3043V30.4547C40.5633 31.8622 39.8915 33.5257 38.1321 33.8776ZM15.995 23.7688V28.4393C15.995 28.4393 16.5708 27.3196 16.9867 27.2237C17.4026 27.1277 19.8658 26.6159 19.8658 26.6159C19.8658 26.6159 19.8978 53.3915 19.8978 53.9033C19.8978 54.3832 18.9061 55.1189 18.9061 55.1189L24.8882 53.9033C24.8882 53.9033 23.8965 53.5514 23.8965 53.1036C23.8965 52.6557 23.8645 25.8161 23.8645 25.8161C23.8645 25.8161 26.3278 25.3043 26.7436 25.2403C27.1595 25.1763 27.7353 26.04 27.7353 26.04V21.3695L15.995 23.7688ZM59.2135 14.9075L50.992 16.603C50.992 16.603 52.0797 16.9229 51.9837 17.4027C51.8878 17.8826 49.2646 47.8892 49.2646 47.8892L48.2729 49.1048L54.0951 47.9212L53.1034 47.1214L53.6792 40.2436L57.518 39.4439L58.1578 46.0658L57.1661 47.2814L63.1482 46.0658L62.1565 45.266L59.2135 14.9075ZM53.9671 36.5967L55.4706 19.4501L55.6306 19.4181L57.1341 35.9569L53.9671 36.5967ZM73.449 11.9644L66.0273 13.5C66.0273 13.5 66.923 13.7559 67.019 14.2997C67.115 14.8436 67.051 43.3146 67.051 44.2424C67.051 45.1701 66.0593 45.458 66.0593 45.458L73.481 43.9225C77.8316 43.0267 79.911 39.6358 79.911 36.0209L79.879 17.2428C79.847 13.5959 77.7996 11.0687 73.449 11.9644ZM73.449 40.3716L71.0178 40.8834L70.9858 16.2831L73.417 15.7713C75.1765 15.4194 75.8483 16.7949 75.8483 18.1705L75.8802 36.9486C75.8802 38.3562 75.2404 40.0197 73.449 40.3716ZM94.8183 35.829L89.476 36.9166V26.0081L92.9629 25.3043L93.9546 25.6882V20.8577L92.9629 21.6254L89.476 22.3292V12.2843L94.3385 11.2927L95.3302 11.6765V7.42188L84.4856 9.62918C84.4856 9.62918 85.4453 9.94908 85.4772 10.4289C85.5092 10.9408 85.5092 39.6998 85.5092 40.3716C85.5092 41.0114 84.5175 41.5872 84.5175 41.5872L95.842 39.2519V34.9972L94.8183 35.829ZM12.892 50.0965L12.86 30.9025C12.86 27.2877 10.3967 24.8244 6.42999 25.6242C2.68716 26.3919 0 29.6869 0 33.5257L0.0319895 52.7197C0.0319895 56.3026 2.43124 58.7018 6.27004 58.03C7.74158 60.2693 9.14914 62.0288 11.1645 61.6129C11.8683 61.4849 12.2202 61.293 12.5081 61.0051V57.998C12.2202 58.158 11.9323 58.254 11.6124 58.3179C11.1325 58.4139 10.6207 57.6461 10.2048 57.0703C10.0129 56.8784 9.8849 56.6864 9.78893 56.4305C11.7723 54.927 12.892 52.5917 12.892 50.0965ZM6.49397 54.3192C4.73452 54.6711 4.06273 53.2955 4.06273 51.9199L4.03074 32.726C4.03074 31.3184 4.70253 29.6869 6.46198 29.303C8.22143 28.9511 8.89321 30.3267 8.89321 31.7023L8.92521 50.8963C8.89322 52.3038 8.25342 53.9673 6.49397 54.3192Z" fill="#1A1A1A"/>
<path d="M99.5547 38.5159L131.001 31.99V26.0398L99.5547 32.5658V38.5159ZM99.5547 25.2401L131.001 18.7141V12.764L99.5547 19.29V25.2401ZM99.5547 6.52596V12.4761L131.001 5.95014V0L99.5547 6.52596Z" fill="#C6007E"/>
</svg>
