<svg width="24" height="24" viewBox="0 0 24 24" fill="none" xmlns="http://www.w3.org/2000/svg">
<path d="M2 12C2 12.7956 2.31607 13.5587 2.87868 14.1213C3.44129 14.6839 4.20435 15 5 15C5.79565 15 6.55871 14.6839 7.12132 14.1213C7.68393 13.5587 8 12.7956 8 12C8 11.2044 7.68393 10.4413 7.12132 9.87868C6.55871 9.31607 5.79565 9 5 9C4.20435 9 3.44129 9.31607 2.87868 9.87868C2.31607 10.4413 2 11.2044 2 12Z" stroke="white" stroke-width="1.5" stroke-linecap="round" stroke-linejoin="round"/>
<path d="M14 6C14 6.79565 14.3161 7.55871 14.8787 8.12132C15.4413 8.68393 16.2044 9 17 9C17.7956 9 18.5587 8.68393 19.1213 8.12132C19.6839 7.55871 20 6.79565 20 6C20 5.20435 19.6839 4.44129 19.1213 3.87868C18.5587 3.31607 17.7956 3 17 3C16.2044 3 15.4413 3.31607 14.8787 3.87868C14.3161 4.44129 14 5.20435 14 6Z" stroke="white" stroke-width="1.5" stroke-linecap="round" stroke-linejoin="round"/>
<path d="M14 18C14 18.7956 14.3161 19.5587 14.8787 20.1213C15.4413 20.6839 16.2044 21 17 21C17.7956 21 18.5587 20.6839 19.1213 20.1213C19.6839 19.5587 20 18.7956 20 18C20 17.2044 19.6839 16.4413 19.1213 15.8787C18.5587 15.3161 17.7956 15 17 15C16.2044 15 15.4413 15.3161 14.8787 15.8787C14.3161 16.4413 14 17.2044 14 18Z" stroke="white" stroke-width="1.5" stroke-linecap="round" stroke-linejoin="round"/>
<path d="M7.69922 10.7L14.2992 7.30005" stroke="white" stroke-width="1.5" stroke-linecap="round" stroke-linejoin="round"/>
<path d="M7.69922 13.3L14.2992 16.7" stroke="white" stroke-width="1.5" stroke-linecap="round" stroke-linejoin="round"/>
</svg>
