<svg width="1069" height="273" viewBox="0 0 1069 273" fill="none" xmlns="http://www.w3.org/2000/svg">
<g opacity="0.2">
<path d="M1067.77 221.774C997.746 182.108 653.14 23.0963 398.497 162.708C198.446 272.387 117.408 -35.2448 1 96.0513" stroke="white" stroke-miterlimit="10"/>
<path d="M1067.77 213.284C988.798 176.846 659.617 35.5953 406.55 161.923C206.83 261.622 118.561 -27.572 1.25195 102.805" stroke="white" stroke-miterlimit="10"/>
<path d="M1067.77 204.792C979.846 171.583 666.046 48.0518 414.606 161.137C215.17 250.834 119.714 -19.8992 1.50391 109.558" stroke="white" stroke-miterlimit="10"/>
<path d="M1067.77 196.301C970.899 166.322 672.424 60.4624 422.66 160.353C223.469 240.017 120.867 -12.2263 1.75586 116.313" stroke="white" stroke-miterlimit="10"/>
<path d="M1067.77 187.808C961.949 161.06 678.749 72.8159 430.711 159.564C231.724 229.16 122.019 -4.557 2.00586 123.061" stroke="white" stroke-miterlimit="10"/>
<path d="M1067.77 179.317C953.014 155.799 685.033 85.104 438.769 158.783C239.946 218.268 123.176 3.12012 2.26367 129.82" stroke="white" stroke-miterlimit="10"/>
<path d="M1067.77 170.826C944.069 150.537 691.264 97.3224 446.819 157.998C248.124 207.321 124.329 10.7938 2.51562 136.575" stroke="white" stroke-miterlimit="10"/>
<path d="M1067.77 162.335C935.128 145.275 697.455 109.451 454.868 157.212C256.268 196.314 125.481 18.4655 2.76758 143.327" stroke="white" stroke-miterlimit="10"/>
<path d="M1067.77 153.844C926.188 140.013 703.609 121.494 462.921 156.428C264.38 185.243 126.636 26.1402 3.02344 150.082" stroke="white" stroke-miterlimit="10"/>
<path d="M1067.77 145.352C917.247 134.75 709.729 133.442 470.965 155.646C272.464 174.107 127.785 33.8164 3.27148 156.837" stroke="white" stroke-miterlimit="10"/>
<path d="M1067.77 136.861C908.312 129.489 715.827 145.288 479.013 154.858C280.529 162.878 128.939 41.4858 3.52539 163.59" stroke="white" stroke-miterlimit="10"/>
<path d="M1067.77 128.37C899.376 124.228 721.907 157.029 487.059 154.072C288.575 151.574 130.091 49.1585 3.77539 170.343" stroke="white" stroke-miterlimit="10"/>
<path d="M1067.77 119.879C890.442 118.965 727.972 168.663 495.105 153.286C296.613 140.182 131.244 56.8348 4.03125 177.096" stroke="white" stroke-miterlimit="10"/>
<path d="M1067.77 111.387C881.506 113.704 734.03 180.189 503.145 152.503C304.645 128.698 132.394 64.5039 4.2793 183.85" stroke="white" stroke-miterlimit="10"/>
<path d="M1067.77 102.894C872.573 108.44 740.097 191.605 511.188 151.715C312.68 117.124 133.546 72.1819 4.53516 190.605" stroke="white" stroke-miterlimit="10"/>
<path d="M1067.77 94.4043C863.644 103.181 746.176 202.923 519.23 150.932C320.727 105.458 134.698 79.8507 4.78711 197.353" stroke="white" stroke-miterlimit="10"/>
<path d="M1067.77 85.9131C854.714 97.9187 752.273 214.141 527.271 150.147C328.791 93.7016 135.851 87.5235 5.04492 204.111" stroke="white" stroke-miterlimit="10"/>
<path d="M1067.77 77.4219C845.787 92.6569 758.399 225.256 535.307 149.363C336.874 81.8568 137 95.1972 5.29102 210.865" stroke="white" stroke-miterlimit="10"/>
<path d="M1067.77 68.9314C836.857 87.3924 764.552 236.288 543.346 148.577C344.989 69.9276 138.152 102.872 5.54492 217.618" stroke="white" stroke-miterlimit="10"/>
<path d="M1067.77 60.4395C827.933 82.1333 770.75 247.239 551.384 147.791C353.142 57.9204 139.308 110.544 5.79883 224.373" stroke="white" stroke-miterlimit="10"/>
<path d="M1067.77 51.9482C819.01 76.8749 776.99 258.121 559.421 147.007C361.332 45.8416 140.457 118.217 6.05273 231.127" stroke="white" stroke-miterlimit="10"/>
<path d="M1067.77 43.457C810.084 71.6113 783.273 268.943 567.453 146.221C369.561 33.6974 141.606 125.888 6.30273 237.88" stroke="white" stroke-miterlimit="10"/>
<path d="M1067.77 34.9648C801.164 66.3477 789.612 279.71 575.492 145.437C377.845 21.496 142.762 133.563 6.56055 244.633" stroke="white" stroke-miterlimit="10"/>
<path d="M1067.77 26.4746C792.244 61.0852 796 290.436 583.521 144.652C386.169 9.24633 143.911 141.236 6.81055 251.388" stroke="white" stroke-miterlimit="10"/>
<path d="M1067.77 17.9832C783.324 55.8231 802.444 301.13 591.55 143.867C394.541 -3.04368 145.06 148.909 7.0625 258.141" stroke="white" stroke-miterlimit="10"/>
<path d="M1067.77 9.49121C774.405 50.5614 808.936 311.8 599.582 143.082C402.969 -15.3665 146.21 156.582 7.31445 264.895" stroke="white" stroke-miterlimit="10"/>
<path d="M1067.77 1C765.488 45.3005 815.483 322.456 607.607 142.296C411.445 -27.7141 147.36 164.255 7.56641 271.649" stroke="white" stroke-miterlimit="10"/>
</g>
</svg>
