<svg width="24" height="24" viewBox="0 0 24 24" fill="none" xmlns="http://www.w3.org/2000/svg">
<path fill-rule="evenodd" clip-rule="evenodd" d="M6.54418 8.78717C6.89565 9.13864 7.4655 9.13864 7.81697 8.78717L11.1314 5.47278V14.942C11.1314 15.439 11.5343 15.842 12.0314 15.842C12.5284 15.842 12.9314 15.439 12.9314 14.942V5.47285L16.2457 8.78717C16.5971 9.13864 17.167 9.13864 17.5185 8.78717C17.8699 8.43569 17.8699 7.86585 17.5185 7.51437L12.6677 2.66363C12.3162 2.31216 11.7464 2.31216 11.3949 2.66363L6.54418 7.51437C6.19271 7.86585 6.19271 8.43569 6.54418 8.78717ZM3.3 14.0418C3.79706 14.0418 4.2 14.4447 4.2 14.9418V18.8224C4.2 19.0983 4.3096 19.3629 4.5047 19.558C4.69979 19.7531 4.9644 19.8627 5.2403 19.8627H18.8224C19.0983 19.8627 19.3629 19.7531 19.558 19.558C19.7531 19.3629 19.8627 19.0983 19.8627 18.8224V14.9418C19.8627 14.4447 20.2656 14.0418 20.7627 14.0418C21.2597 14.0418 21.6627 14.4447 21.6627 14.9418V18.8224C21.6627 19.5757 21.3634 20.2981 20.8308 20.8308C20.2981 21.3635 19.5757 21.6627 18.8224 21.6627H5.2403C4.48701 21.6627 3.76456 21.3635 3.23191 20.8308C2.69925 20.2981 2.4 19.5757 2.4 18.8224V14.9418C2.4 14.4447 2.80295 14.0418 3.3 14.0418Z" fill="#487F82"/>
</svg>
