<svg width="24" height="24" viewBox="0 0 24 24" fill="none" xmlns="http://www.w3.org/2000/svg">
<path d="M9 4.92853V10.0714C9 11.1709 10.9346 12 13.5 12C16.0654 12 18 11.1709 18 10.0714V4.92853C18 3.82906 16.0654 3 13.5 3C10.9346 3 9 3.82906 9 4.92853ZM13.5 3.77141C15.7153 3.77141 17.129 4.45672 17.129 4.92853C17.129 5.4004 15.7153 6.08571 13.5 6.08571C11.2848 6.08571 9.87099 5.4004 9.87099 4.92853C9.87099 4.45672 11.2848 3.77141 13.5 3.77141ZM9.87099 6.09751C10.6765 6.56496 11.9771 6.85713 13.5 6.85713C15.0229 6.85713 16.3235 6.56496 17.129 6.09751V7.49997C17.129 7.97184 15.7153 8.65712 13.5 8.65712C11.2848 8.65712 9.87099 7.97184 9.87099 7.49997V6.09751ZM9.87099 8.66895C10.6765 9.13639 11.9771 9.42856 13.5 9.42856C15.0229 9.42856 16.3235 9.13639 17.129 8.66895V10.0714C17.129 10.5433 15.7153 11.2286 13.5 11.2286C11.2848 11.2286 9.87099 10.5433 9.87099 10.0714V8.66895Z" fill="#FF8926" stroke="#FF8926" stroke-width="0.5"/>
<path d="M20.1718 6.62371C20.0721 6.48553 19.9641 6.35227 19.8484 6.22461L19.3083 6.69636C19.9564 7.41111 20.3133 8.33228 20.3133 9.29031C20.3133 11.4425 18.5297 13.1935 16.3373 13.1935H9.46987V11.1827C9.46987 11.0498 9.39423 10.9281 9.27386 10.8672C9.15373 10.8064 9.00866 10.8168 8.89828 10.894L2.15132 15.6252C2.05635 15.6918 2 15.7994 2 15.9139C2 16.0285 2.05635 16.1361 2.15132 16.2027L8.89828 20.9339C8.96077 20.9777 9.03443 21 9.10843 21C9.16504 21 9.22171 20.9869 9.27386 20.9607C9.39423 20.8998 9.46987 20.778 9.46987 20.6451V18.6344H15.8611C17.5931 18.6344 19.1618 17.9581 20.2786 16.7297C21.387 15.5107 21.9984 13.801 22 11.9153C22.0016 9.96486 21.3185 7.98808 20.1718 6.62371ZM19.7394 16.2571C18.7615 17.3326 17.3844 17.9247 15.8607 17.9247H9.10843C8.90877 17.9247 8.74699 18.0835 8.74699 18.2795V19.9557L2.98327 15.9139L8.74699 11.8722V13.5483C8.74699 13.7444 8.90877 13.9032 9.10843 13.9032H16.3373C18.7405 13.9032 20.7283 12.1228 21.0035 9.83503C21.1825 10.5074 21.2777 11.2125 21.2771 11.9146C21.2756 13.626 20.7295 15.1682 19.7394 16.2571Z" fill="#FF8926" stroke="#FF8926" stroke-width="0.75"/>
</svg>
