<svg width="20" height="20" viewBox="0 0 20 20" fill="none" xmlns="http://www.w3.org/2000/svg">
<path d="M7.15251 1.04984C7.10958 1.0492 7.06695 1.05709 7.0271 1.07307C6.98725 1.08906 6.95097 1.11278 6.92038 1.14292C6.88979 1.17305 6.8655 1.20897 6.84892 1.24858C6.83234 1.28819 6.8238 1.33069 6.8238 1.37363C6.8238 1.41656 6.83234 1.4591 6.84892 1.49871C6.8655 1.53832 6.88979 1.5742 6.92038 1.60433C6.95097 1.63447 6.98725 1.65823 7.0271 1.67422C7.06695 1.6902 7.10958 1.69809 7.15251 1.69745H15.2479V5.25945C15.2473 5.30236 15.2552 5.34497 15.2712 5.38479C15.2872 5.42461 15.311 5.46086 15.3411 5.49142C15.3713 5.52199 15.4072 5.54623 15.4467 5.5628C15.4863 5.57936 15.5288 5.5879 15.5717 5.5879C15.6147 5.5879 15.6571 5.57936 15.6967 5.5628C15.7363 5.54623 15.7722 5.52199 15.8024 5.49142C15.8325 5.46086 15.8562 5.42461 15.8722 5.38479C15.8882 5.34497 15.8962 5.30236 15.8956 5.25945V1.37363C15.8955 1.28775 15.8614 1.2054 15.8007 1.14467C15.74 1.08395 15.6576 1.04985 15.5717 1.04984H7.15251ZM5.85725 2.34509C5.77137 2.3451 5.68901 2.37923 5.62829 2.43996C5.56756 2.50068 5.53344 2.58303 5.53343 2.66891V5.25945C5.53282 5.30235 5.54075 5.34493 5.55675 5.38475C5.57275 5.42457 5.59651 5.46083 5.62664 5.49139C5.65677 5.52195 5.69267 5.5462 5.73226 5.56276C5.77185 5.57932 5.81433 5.58786 5.85725 5.58786C5.90016 5.58786 5.94265 5.57932 5.98224 5.56276C6.02183 5.5462 6.05773 5.52195 6.08786 5.49139C6.11799 5.46083 6.14174 5.42457 6.15774 5.38475C6.17374 5.34493 6.18167 5.30235 6.18106 5.25945V2.99273H13.9527V5.25945C13.9521 5.30235 13.96 5.34494 13.976 5.38475C13.992 5.42457 14.0157 5.46083 14.0459 5.49139C14.076 5.52194 14.1119 5.5462 14.1515 5.56276C14.1911 5.57932 14.2336 5.58786 14.2765 5.58786C14.3194 5.58786 14.3619 5.57932 14.4015 5.56276C14.441 5.5462 14.4769 5.52194 14.5071 5.49139C14.5372 5.46083 14.561 5.42457 14.577 5.38475C14.593 5.34494 14.6009 5.30235 14.6003 5.25945V2.66891C14.6003 2.58303 14.5662 2.50068 14.5054 2.43996C14.4447 2.37923 14.3624 2.3451 14.2765 2.34509H5.85725ZM8.09677 3.64034C8.03997 3.64039 7.98418 3.6554 7.93501 3.68381C7.88583 3.71223 7.84499 3.75306 7.81659 3.80225C7.61827 4.14556 7.333 4.43072 6.98997 4.62951C6.9409 4.65799 6.90018 4.69888 6.87187 4.74805C6.84357 4.79723 6.82868 4.85297 6.8287 4.9097V5.25945C6.82809 5.30235 6.83602 5.34493 6.85202 5.38475C6.86802 5.42457 6.89178 5.46083 6.9219 5.49139C6.95203 5.52194 6.98794 5.5462 7.02752 5.56276C7.06711 5.57932 7.1096 5.58786 7.15251 5.58786C7.19543 5.58786 7.23791 5.57932 7.2775 5.56276C7.31709 5.5462 7.35299 5.52194 7.38312 5.49139C7.41325 5.46083 7.43701 5.42457 7.45301 5.38475C7.46901 5.34493 7.47694 5.30235 7.47633 5.25945V5.0659C7.7837 4.85766 8.0451 4.59559 8.25298 4.28798H11.8795C12.0877 4.59536 12.3498 4.85674 12.6574 5.06463V5.25945C12.6568 5.30235 12.6647 5.34494 12.6807 5.38475C12.6967 5.42457 12.7205 5.46083 12.7506 5.49139C12.7807 5.52194 12.8166 5.5462 12.8562 5.56276C12.8958 5.57932 12.9383 5.58786 12.9812 5.58786C13.0241 5.58786 13.0666 5.57932 13.1062 5.56276C13.1458 5.5462 13.1817 5.52194 13.2118 5.49139C13.2419 5.46083 13.2657 5.42457 13.2817 5.38475C13.2977 5.34494 13.3056 5.30235 13.305 5.25945V4.90843C13.305 4.85163 13.29 4.79585 13.2616 4.74667C13.2332 4.69749 13.1923 4.65664 13.1431 4.62824C12.7998 4.42991 12.5147 4.14468 12.3159 3.80165C12.2874 3.75258 12.2465 3.71186 12.1973 3.68355C12.1482 3.65525 12.0924 3.64032 12.0357 3.64034H8.09677ZM5.20961 6.23087C3.95946 6.23087 2.9429 7.24744 2.9429 8.49759V10.4405C2.94229 10.4834 2.95022 10.526 2.96622 10.5658C2.98222 10.6056 3.00598 10.6419 3.03611 10.6725C3.06624 10.703 3.10214 10.7273 3.14173 10.7438C3.18132 10.7604 3.2238 10.7689 3.26672 10.7689C3.30963 10.7689 3.35211 10.7604 3.3917 10.7438C3.43129 10.7273 3.46719 10.703 3.49732 10.6725C3.52745 10.6419 3.55121 10.6056 3.56721 10.5658C3.58321 10.526 3.59114 10.4834 3.59053 10.4405V8.49759C3.59053 7.59502 4.30704 6.87852 5.20961 6.87852H17.5146V9.46905C17.514 9.51196 17.522 9.55454 17.538 9.59436C17.554 9.63418 17.5777 9.67043 17.6079 9.70099C17.638 9.73155 17.6739 9.75581 17.7135 9.77237C17.7531 9.78893 17.7955 9.79747 17.8385 9.79747C17.8814 9.79747 17.9239 9.78893 17.9634 9.77237C18.003 9.75581 18.0389 9.73155 18.0691 9.70099C18.0992 9.67043 18.1229 9.63418 18.1389 9.59436C18.1549 9.55454 18.1629 9.51196 18.1623 9.46905V6.55469C18.1623 6.46882 18.1281 6.38647 18.0674 6.32574C18.0067 6.26502 17.9243 6.23088 17.8385 6.23087H5.20961ZM15.8956 10.4405C14.6454 10.4405 13.6288 11.4571 13.6288 12.7072C13.6288 13.9574 14.6454 14.9739 15.8956 14.9739H18.8099C18.8958 14.9739 18.9781 14.9398 19.0389 14.8791C19.0996 14.8183 19.1337 14.736 19.1337 14.6501V10.7643C19.1337 10.6785 19.0996 10.5961 19.0389 10.5353C18.9781 10.4746 18.8958 10.4405 18.8099 10.4405H15.8956ZM15.8956 11.0881H18.4861V14.3263H15.8956C14.993 14.3263 14.2765 13.6098 14.2765 12.7072C14.2765 11.8046 14.993 11.0881 15.8956 11.0881ZM4.8858 11.4119C2.74357 11.4119 1 13.1555 1 15.2978C1 17.44 2.74357 19.1835 4.8858 19.1835C7.02803 19.1835 8.7716 17.44 8.7716 15.2978C8.7716 13.1555 7.02803 11.4119 4.8858 11.4119ZM4.8858 12.0596C6.67802 12.0596 8.12396 13.5055 8.12396 15.2978C8.12396 17.09 6.67802 18.5359 4.8858 18.5359C3.09357 18.5359 1.64763 17.09 1.64763 15.2978C1.64763 13.5055 3.09357 12.0596 4.8858 12.0596ZM15.8956 12.0596C15.5417 12.0596 15.2479 12.3534 15.2479 12.7072C15.2479 13.0611 15.5417 13.3548 15.8956 13.3548C16.2494 13.3548 16.5432 13.0611 16.5432 12.7072C16.5432 12.3534 16.2494 12.0596 15.8956 12.0596ZM4.88074 13.0266C4.79497 13.0279 4.71323 13.0633 4.65347 13.1248C4.59371 13.1863 4.56081 13.2691 4.56198 13.3548V13.6787C4.0294 13.6787 3.59053 14.1175 3.59053 14.6501C3.59053 15.1827 4.0294 15.6216 4.56198 15.6216H5.20961C5.39461 15.6216 5.53343 15.7604 5.53343 15.9454C5.53343 16.1304 5.39461 16.2692 5.20961 16.2692H4.93576C4.91759 16.266 4.89919 16.2644 4.88074 16.2643C4.86504 16.2648 4.8494 16.2664 4.83394 16.2692H4.23816C4.19527 16.2686 4.15268 16.2766 4.11288 16.2926C4.07308 16.3086 4.03685 16.3323 4.00631 16.3624C3.97577 16.3926 3.95151 16.4285 3.93496 16.4681C3.91841 16.5077 3.90988 16.5501 3.90988 16.593C3.90988 16.6359 3.91841 16.6784 3.93496 16.718C3.95151 16.7576 3.97577 16.7934 4.00631 16.8236C4.03685 16.8537 4.07308 16.8774 4.11288 16.8934C4.15268 16.9095 4.19527 16.9174 4.23816 16.9168H4.56198V17.2407C4.56137 17.2836 4.5693 17.3261 4.5853 17.366C4.6013 17.4058 4.62506 17.442 4.65519 17.4726C4.68532 17.5032 4.72122 17.5274 4.76081 17.544C4.8004 17.5605 4.84288 17.5691 4.8858 17.5691C4.92871 17.5691 4.9712 17.5605 5.01079 17.544C5.05037 17.5274 5.08628 17.5032 5.11641 17.4726C5.14654 17.442 5.17029 17.4058 5.18629 17.366C5.20229 17.3261 5.21022 17.2836 5.20961 17.2407V16.9168C5.74219 16.9168 6.18106 16.4779 6.18106 15.9454C6.18106 15.4128 5.74219 14.9739 5.20961 14.9739H4.56198C4.37698 14.9739 4.23816 14.8351 4.23816 14.6501C4.23816 14.4651 4.37698 14.3263 4.56198 14.3263H4.83141C4.86638 14.3321 4.90206 14.3321 4.93703 14.3263H5.53343C5.57636 14.3269 5.619 14.319 5.65885 14.3031C5.6987 14.2871 5.73497 14.2633 5.76556 14.2332C5.79615 14.2031 5.82044 14.1671 5.83702 14.1275C5.8536 14.0879 5.86214 14.0454 5.86214 14.0025C5.86214 13.9595 5.8536 13.917 5.83702 13.8774C5.82044 13.8378 5.79615 13.8019 5.76556 13.7718C5.73497 13.7416 5.6987 13.7179 5.65885 13.7019C5.619 13.6859 5.57636 13.678 5.53343 13.6787H5.20961V13.3548C5.21021 13.3115 5.2021 13.2685 5.18578 13.2284C5.16945 13.1883 5.14524 13.1518 5.11457 13.1212C5.0839 13.0906 5.04741 13.0665 5.00724 13.0502C4.96708 13.034 4.92406 13.0259 4.88074 13.0266ZM17.8334 15.6171C17.7476 15.6185 17.6659 15.6538 17.6061 15.7153C17.5464 15.7769 17.5135 15.8596 17.5146 15.9454V18.5359H8.44778C8.40485 18.5353 8.36221 18.5432 8.32236 18.5592C8.28251 18.5752 8.24624 18.5989 8.21565 18.629C8.18506 18.6591 8.16077 18.6951 8.14419 18.7347C8.12761 18.7743 8.11907 18.8168 8.11907 18.8597C8.11907 18.9027 8.12761 18.9452 8.14419 18.9848C8.16077 19.0244 8.18506 19.0603 8.21565 19.0904C8.24624 19.1206 8.28251 19.1443 8.32236 19.1603C8.36221 19.1763 8.40485 19.1842 8.44778 19.1835H17.8385C17.9243 19.1835 18.0067 19.1494 18.0674 19.0887C18.1281 19.028 18.1623 18.9456 18.1623 18.8597V15.9454C18.1629 15.902 18.1548 15.8591 18.1384 15.8189C18.1221 15.7788 18.0979 15.7424 18.0672 15.7117C18.0366 15.6811 18.0001 15.657 17.9599 15.6407C17.9197 15.6245 17.8767 15.6165 17.8334 15.6171Z" fill="#FF8926" stroke="#FF8926" stroke-width="0.3"/>
</svg>
