<svg width="375" height="310" viewBox="0 0 375 310" fill="none" xmlns="http://www.w3.org/2000/svg">
<g clip-path="url(#clip0_27165_180170)">
<mask id="mask0_27165_180170" style="mask-type:luminance" maskUnits="userSpaceOnUse" x="0" y="55" width="392" height="205">
<path d="M326.263 55.3696H328.876V55.3919H326.263V55.3696ZM326.214 55.3919H328.925V55.4142H326.214V55.3919ZM326.165 55.4142H328.974V55.4356H326.165V55.4142ZM326.141 55.4356H328.998V55.4579H326.141V55.4356ZM326.116 55.4579H329.023V55.4793H326.116V55.4579ZM326.092 55.4793H329.047V55.5016H326.092V55.4793ZM326.067 55.5016H329.072V55.5239H326.067V55.5016ZM326.043 55.5239H329.096V55.5453H326.043V55.5239ZM326.019 55.5453H329.12V55.5891H326.019V55.5453ZM325.994 55.5891H329.145V55.6336H325.994V55.5891ZM325.97 55.6336H329.169V55.6551H325.97V55.6336ZM61.379 55.6551H63.9923V55.6773H61.379V55.6551ZM61.3304 55.6773H64.0657V55.6988H61.3304V55.6773ZM325.945 55.6551H329.194V55.6988H325.945V55.6551ZM61.2807 55.6988H64.0896V55.7211H61.2807V55.6988ZM61.2569 55.7211H64.1144V55.7434H61.2569V55.7211ZM325.92 55.6988H329.218V55.7434H325.92V55.6988ZM61.2321 55.7434H64.1392V55.7648H61.2321V55.7434ZM61.2082 55.7648H64.163V55.7871H61.2082V55.7648ZM61.1834 55.7871H64.1878V55.8085H61.1834V55.7871ZM325.897 55.7434H329.243V55.8085H325.897V55.7434ZM61.1586 55.8085H64.2117V55.8308H61.1586V55.8085ZM325.872 55.8085H329.267V55.8531H325.872V55.8085ZM61.1348 55.8308H64.2365V55.8531H61.1348V55.8308ZM61.1348 55.8531H64.2613V55.8745H61.1348V55.8531ZM61.11 55.8745H64.2613V55.8968H61.11V55.8745ZM61.11 55.8968H64.2852V55.9182H61.11V55.8968ZM325.848 55.8531H329.291V55.9182H325.848V55.8531ZM61.0861 55.9182H64.2852V55.9405H61.0861V55.9182ZM61.0613 55.9405H64.31V55.9628H61.0613V55.9405ZM61.0613 55.9628H64.3338V55.9842H61.0613V55.9628ZM325.823 55.9182H329.316V55.9842H325.823V55.9182ZM61.0365 55.9842H64.3338V56.0065H61.0365V55.9842ZM61.0365 56.0065H64.3586V56.0502H61.0365V56.0065ZM325.798 55.9842H329.34V56.0502H325.798V55.9842ZM61.0126 56.0502H64.3586V56.0725H61.0126V56.0502ZM61.0126 56.0725H64.3834V56.0939H61.0126V56.0725ZM325.774 56.0502H329.365V56.1376H325.774V56.0502ZM60.9878 56.0939H64.3834V56.1376H60.9878V56.0939ZM60.9878 56.1376H64.4073V56.1599H60.9878V56.1376ZM60.964 56.1599H64.4073V56.1822H60.964V56.1599ZM60.964 56.1822H64.4321V56.2036H60.964V56.1822ZM325.75 56.1376H329.39V56.2259H325.75V56.1376ZM60.9392 56.2036H64.4321V56.2474H60.9392V56.2036ZM60.9392 56.2474H64.4559V56.2696H60.9392V56.2474ZM325.726 56.2259H329.413V56.3356H325.726V56.2259ZM60.9144 56.2696H64.4559V56.3356H60.9144V56.2696ZM60.9144 56.3356H64.4807V56.3571H60.9144V56.3356ZM60.8905 56.3571H64.4807V56.4017H60.8905V56.3571ZM60.8905 56.4017H64.5055V56.4454H60.8905V56.4017ZM325.701 56.3356H329.438V56.4668H325.701V56.3356ZM60.8657 56.4454H64.5055V56.4891H60.8657V56.4454ZM60.8657 56.4891H64.5294V56.5328H60.8657V56.4891ZM325.676 56.4668H329.462V56.5765H325.676V56.4668ZM60.8419 56.5328H64.5294V56.5988H60.8419V56.5328ZM60.8419 56.5988H64.5542V56.6425H60.8419V56.5988ZM60.8171 56.6425H64.5542V56.7085H60.8171V56.6425ZM60.8171 56.7085H64.5781V56.7745H60.8171V56.7085ZM325.652 56.5765H329.487V56.7959H325.652V56.5765ZM60.7923 56.7745H64.5781V56.8405H60.7923V56.7745ZM60.7923 56.8405H64.6029V56.9057H60.7923V56.8405ZM60.7684 56.9057H64.6029V57.0377H60.7684V56.9057ZM325.628 56.7959H329.512V57.1037H325.628V56.7959ZM60.7684 57.0377H64.6277V57.1251H60.7684V57.0377ZM60.7436 57.1251H64.6277V57.3008H60.7436V57.1251ZM60.7436 57.3008H64.6515V57.4988H60.7436V57.3008ZM325.604 57.1037H329.535V57.63H325.604V57.1037ZM60.7197 57.4988H64.6515V57.7834H60.7197V57.4988ZM325.628 57.63H329.512V57.9154H325.628V57.63ZM60.7436 57.7834H64.6515V57.9814H60.7436V57.7834ZM325.652 57.9154H329.487V58.1348H325.652V57.9154ZM60.7436 57.9814H64.6277V58.1571H60.7436V57.9814ZM60.7684 58.1571H64.6277V58.2445H60.7684V58.1571ZM325.676 58.1348H329.462V58.2668H325.676V58.1348ZM60.7684 58.2445H64.6029V58.3765H60.7684V58.2445ZM325.701 58.2668H329.438V58.398H325.701V58.2668ZM60.7923 58.3765H64.6029V58.4417H60.7923V58.3765ZM325.726 58.398H329.413V58.5077H325.726V58.398ZM60.7923 58.4417H64.5781V58.53H60.7923V58.4417ZM325.75 58.5077H329.39V58.5737H325.75V58.5077ZM60.8171 58.53H64.5781V58.5737H60.8171V58.53ZM60.8171 58.5737H64.5542V58.6397H60.8171V58.5737ZM325.774 58.5737H329.365V58.6611H325.774V58.5737ZM60.8419 58.6397H64.5542V58.7057H60.8419V58.6397ZM325.798 58.6611H329.34V58.7494H325.798V58.6611ZM60.8419 58.7057H64.5294V58.7708H60.8419V58.7057ZM60.8657 58.7708H64.5294V58.7931H60.8657V58.7708ZM325.823 58.7494H329.316V58.8154H325.823V58.7494ZM60.8657 58.7931H64.5055V58.8591H60.8657V58.7931ZM325.848 58.8154H329.291V58.8591H325.848V58.8154ZM60.8905 58.8591H64.5055V58.8806H60.8905V58.8591ZM60.8905 58.8806H64.4807V58.9251H60.8905V58.8806ZM325.872 58.8591H329.267V58.9251H325.872V58.8591ZM325.897 58.9251H329.243V58.9688H325.897V58.9251ZM60.9144 58.9251H64.4807V58.9688H60.9144V58.9251ZM60.9144 58.9688H64.4559V59.0126H60.9144V58.9688ZM325.92 58.9688H329.218V59.0348H325.92V58.9688ZM325.945 59.0348H329.194V59.0563H325.945V59.0348ZM60.9392 59.0126H64.4559V59.0563H60.9392V59.0126ZM60.9392 59.0563H64.4321V59.0786H60.9392V59.0563ZM325.97 59.0563H329.169V59.1H325.97V59.0563ZM60.964 59.0786H64.4321V59.1H60.964V59.0786ZM60.964 59.1H64.4073V59.1446H60.964V59.1ZM325.994 59.1H329.145V59.1446H325.994V59.1ZM326.019 59.1446H329.12V59.166H326.019V59.1446ZM60.9878 59.1446H64.4073V59.166H60.9878V59.1446ZM60.9878 59.166H64.3834V59.1883H60.9878V59.166ZM326.043 59.166H329.096V59.2097H326.043V59.166ZM61.0126 59.1883H64.3834V59.2097H61.0126V59.1883ZM326.067 59.2097H329.072V59.232H326.067V59.2097ZM61.0126 59.2097H64.3586V59.2543H61.0126V59.2097ZM326.092 59.232H329.047V59.2543H326.092V59.232ZM326.141 59.2543H328.998V59.2757H326.141V59.2543ZM61.0365 59.2543H64.3586V59.2757H61.0365V59.2543ZM61.0365 59.2757H64.3338V59.298H61.0365V59.2757ZM326.165 59.2757H328.974V59.298H326.165V59.2757ZM326.19 59.298H328.95V59.3194H326.19V59.298ZM61.0613 59.298H64.3338V59.3194H61.0613V59.298ZM61.0613 59.3194H64.31V59.3417H61.0613V59.3194ZM326.238 59.3194H328.901V59.3417H326.238V59.3194ZM61.0861 59.3417H64.2852V59.364H61.0861V59.3417ZM61.11 59.364H64.2852V59.3854H61.11V59.364ZM61.11 59.3854H64.2613V59.4077H61.11V59.3854ZM326.482 59.3417H328.632V59.4077H326.482V59.3417ZM61.1348 59.4077H64.2613V59.4291H61.1348V59.4077ZM61.1348 59.4291H64.2365V59.4514H61.1348V59.4291ZM61.1586 59.4514H64.2365V59.4737H61.1586V59.4514ZM61.1834 59.4737H64.2117V59.4951H61.1834V59.4737ZM61.2082 59.4951H64.1878V59.5174H61.2082V59.4951ZM61.2321 59.5174H64.163V59.5389H61.2321V59.5174ZM61.2569 59.5389H64.1392V59.5611H61.2569V59.5389ZM61.2807 59.5611H64.1144V59.5834H61.2807V59.5611ZM61.3056 59.5834H64.0657V59.6049H61.3056V59.5834ZM61.379 59.6049H64.0171V59.6271H61.379V59.6049ZM61.6471 59.6271H63.7967V59.6486H61.6471V59.6271ZM326.459 59.4077H328.632V59.6931H326.459V59.4077ZM326.459 59.6931H328.657V59.7583H326.459V59.6931ZM61.6233 59.6486H63.7967V59.9777H61.6233V59.6486ZM61.6233 59.9777H63.8215V60.066H61.6233V59.9777ZM326.434 59.7583H328.657V60.0874H326.434V59.7583ZM326.434 60.0874H328.681V60.132H326.434V60.0874ZM61.5985 60.066H63.8215V60.3514H61.5985V60.066ZM61.5985 60.3514H63.8453V60.4612H61.5985V60.3514ZM326.409 60.132H328.681V60.4826H326.409V60.132ZM61.5746 60.4612H63.8453V60.702H61.5746V60.4612ZM61.5746 60.702H63.8701V60.8555H61.5746V60.702ZM326.385 60.4826H328.705V60.8555H326.385V60.4826ZM326.36 60.8555H328.705V60.8777H326.36V60.8555ZM61.5498 60.8555H63.8701V61.0749H61.5498V60.8555ZM326.36 60.8777H328.729V61.2069H326.36V60.8777ZM61.5498 61.0749H63.8949V61.2506H61.5498V61.0749ZM326.336 61.2069H328.729V61.2729H326.336V61.2069ZM61.525 61.2506H63.8949V61.4263H61.525V61.2506ZM326.336 61.2729H328.754V61.5798H326.336V61.2729ZM61.525 61.4263H63.9188V61.6458H61.525V61.4263ZM326.312 61.5798H328.754V61.668H326.312V61.5798ZM61.5011 61.6458H63.9188V61.7992H61.5011V61.6458ZM326.312 61.668H328.779V61.9312H326.312V61.668ZM61.5011 61.7992H63.9436V62.0409H61.5011V61.7992ZM326.287 61.9312H328.779V62.0846H326.287V61.9312ZM61.4763 62.0409H63.9436V62.1721H61.4763V62.0409ZM326.287 62.0846H328.803V62.3041H326.287V62.0846ZM61.4763 62.1721H63.9674V62.4361H61.4763V62.1721ZM326.263 62.3041H328.803V62.4798H326.263V62.3041ZM61.4525 62.4361H63.9674V62.5235H61.4525V62.4361ZM326.263 62.4798H328.828V62.6769H326.263V62.4798ZM61.4525 62.5235H63.9923V62.8526H61.4525V62.5235ZM326.238 62.6769H328.828V62.8749H326.238V62.6769ZM61.4277 62.8526H63.9923V62.8964H61.4277V62.8526ZM326.238 62.8749H328.851V63.0284H326.238V62.8749ZM61.4277 62.8964H64.0171V63.2478H61.4277V62.8964ZM326.214 63.0284H328.851V63.2692H326.214V63.0284ZM326.214 63.2692H328.876V63.4012H326.214V63.2692ZM61.4029 63.2478H64.0409V63.6207H61.4029V63.2478ZM61.4029 63.6207H64.0657V63.6429H61.4029V63.6207ZM326.19 63.4012H328.876V63.6644H326.19V63.4012ZM326.19 63.6644H328.901V63.7527H326.19V63.6644ZM61.379 63.6429H64.0657V63.9721H61.379V63.6429ZM61.379 63.9721H64.0896V64.0372H61.379V63.9721ZM326.165 63.7527H328.901V64.0818H326.165V63.7527ZM326.165 64.0818H328.925V64.1255H326.165V64.0818ZM61.3542 64.0372H64.0896V64.345H61.3542V64.0372ZM61.3542 64.345H64.1144V64.4324H61.3542V64.345ZM326.141 64.1255H328.925V64.4761H326.141V64.1255ZM61.3304 64.4324H64.1144V64.6955H61.3304V64.4324ZM61.3304 64.6955H64.1392V64.8275H61.3304V64.6955ZM326.116 64.4761H328.95V64.8498H326.116V64.4761ZM326.092 64.8498H328.95V64.8713H326.092V64.8498ZM61.3056 64.8275H64.1392V65.0693H61.3056V64.8275ZM326.092 64.8713H328.974V65.2004H326.092V64.8713ZM61.3056 65.0693H64.163V65.2441H61.3056V65.0693ZM326.067 65.2004H328.974V65.2664H326.067V65.2004ZM61.2807 65.2441H64.163V65.4198H61.2807V65.2441ZM326.067 65.2664H328.998V65.5733H326.067V65.2664ZM61.2807 65.4198H64.1878V65.6393H61.2807V65.4198ZM326.043 65.5733H328.998V65.6616H326.043V65.5733ZM61.2569 65.6393H64.1878V65.7927H61.2569V65.6393ZM326.043 65.6616H329.023V65.9247H326.043V65.6616ZM61.2569 65.7927H64.2117V66.0344H61.2569V65.7927ZM326.019 65.9247H329.023V66.0781H326.019V65.9247ZM61.2321 66.0344H64.2117V66.1441H61.2321V66.0344ZM326.019 66.0781H329.047V66.2976H326.019V66.0781ZM61.2321 66.1441H64.2365V66.4296H61.2321V66.1441ZM325.994 66.2976H329.047V66.4733H325.994V66.2976ZM61.2082 66.4296H64.2365V66.517H61.2082V66.4296ZM325.994 66.4733H329.072V66.6704H325.994V66.4733ZM272.822 59.6486H273.824V66.715H272.822V59.6486ZM61.2082 66.517H64.2613V66.8247H61.2082V66.517ZM325.97 66.6704H329.072V66.8684H325.97V66.6704ZM61.1834 66.8247H64.2613V66.8899H61.1834V66.8247ZM116.432 59.9126H117.457V66.9996H116.432V59.9126ZM325.97 66.8684H329.096V67.0219H325.97V66.8684ZM61.1834 66.8899H64.2852V67.219H61.1834V66.8899ZM61.1586 67.219H64.2852V67.2413H61.1586V67.219ZM325.945 67.0219H329.096V67.2636H325.945V67.0219ZM325.945 67.2636H329.12V67.3947H325.945V67.2636ZM61.1586 67.2413H64.31V67.6142H61.1586V67.2413ZM325.92 67.3947H329.12V67.6579H325.92V67.3947ZM325.92 67.6579H329.145V67.7462H325.92V67.6579ZM61.1348 67.6142H64.3338V67.9656H61.1348V67.6142ZM61.1348 67.9656H64.3586V68.0316H61.1348V67.9656ZM325.897 67.7462H329.145V68.053H325.897V67.7462ZM325.897 68.053H329.169V68.119H325.897V68.053ZM61.11 68.0316H64.3586V68.3385H61.11V68.0316ZM61.11 68.3385H64.3834V68.4259H61.11V68.3385ZM325.872 68.119H329.169V68.4705H325.872V68.119ZM61.0861 68.4259H64.3834V68.6899H61.0861V68.4259ZM61.0861 68.6899H64.4073V68.8211H61.0861V68.6899ZM325.848 68.4705H329.194V68.8433H325.848V68.4705ZM325.823 68.8433H329.194V68.8648H325.823V68.8433ZM61.0613 68.8211H64.4073V69.0628H61.0613V68.8211ZM325.823 68.8648H329.218V69.1939H325.823V68.8648ZM61.0613 69.0628H64.4321V69.2162H61.0613V69.0628ZM325.798 69.1939H329.218V69.2599H325.798V69.1939ZM61.0365 69.2162H64.4321V69.4134H61.0365V69.2162ZM325.798 69.2599H329.243V69.5676H325.798V69.2599ZM61.0365 69.4134H64.4559V69.6114H61.0365V69.4134ZM325.774 69.5676H329.243V69.6551H325.774V69.5676ZM61.0126 69.6114H64.4559V69.7871H61.0126V69.6114ZM325.774 69.6551H329.267V69.9405H325.774V69.6551ZM61.0126 69.7871H64.4807V70.0065H61.0126V69.7871ZM325.75 69.9405H329.267V70.0502H325.75V69.9405ZM60.9878 70.0065H64.4807V70.1377H60.9878V70.0065ZM325.75 70.0502H329.291V70.2911H325.75V70.0502ZM60.9878 70.1377H64.5055V70.4008H60.9878V70.1377ZM325.726 70.2911H329.291V70.4668H325.726V70.2911ZM60.964 70.4008H64.5055V70.5105H60.964V70.4008ZM325.726 70.4668H329.316V70.6202H325.726V70.4668ZM323.869 70.6202H330.904V70.6648H323.869V70.6202ZM323.844 70.6648H330.904V70.6862H323.844V70.6648ZM60.964 70.5105H64.5294V70.8182H60.964V70.5105ZM323.844 70.6862H330.927V70.8397H323.844V70.6862ZM60.9392 70.8182H64.5294V70.862H60.9392V70.8182ZM323.844 70.8397H330.952V70.8842H323.844V70.8397ZM60.9392 70.862H64.5542V70.9057H60.9392V70.862ZM59.3516 70.9057H66.4099V70.994H59.3516V70.9057ZM323.821 70.8842H330.952V70.994H323.821V70.8842ZM323.821 70.994H330.977V71.0814H323.821V70.994ZM59.3268 70.994H66.4099V71.1251H59.3268V70.994ZM59.3268 71.1251H66.4347V71.1474H59.3268V71.1251ZM323.796 71.0814H330.977V71.1474H323.796V71.0814ZM323.796 71.1474H331.001V71.3008H323.796V71.1474ZM59.3029 71.1474H66.4347V71.3231H59.3029V71.1474ZM59.2781 71.3231H66.4347V71.3445H59.2781V71.3231ZM59.2781 71.3445H66.4595V71.4765H59.2781V71.3445ZM323.772 71.3008H331.026V71.4765H323.772V71.3008ZM323.772 71.4765H331.05V71.5203H323.772V71.4765ZM59.2543 71.4765H66.4595V71.564H59.2543V71.4765ZM59.2543 71.564H66.4834V71.63H59.2543V71.564ZM323.747 71.5203H331.05V71.63H323.747V71.5203ZM323.747 71.63H331.074V71.7397H323.747V71.63ZM59.2295 71.63H66.4834V71.762H59.2295V71.63ZM59.2295 71.762H66.5082V71.7834H59.2295V71.762ZM323.722 71.7397H331.074V71.7834H323.722V71.7397ZM59.2047 71.7834H66.5082V71.9368H59.2047V71.7834ZM323.722 71.7834H331.099V71.9368H323.722V71.7834ZM323.722 71.9368H331.123V71.9591H323.722V71.9368ZM59.1808 71.9368H66.5082V71.9814H59.1808V71.9368ZM59.1808 71.9814H66.532V72.0911H59.1808V71.9814ZM323.698 71.9591H331.123V72.0911H323.698V71.9591ZM323.698 72.0911H331.148V72.1563H323.698V72.0911ZM59.156 72.0911H66.532V72.2008H59.156V72.0911ZM59.156 72.2008H66.5568V72.266H59.156V72.2008ZM323.674 72.1563H331.148V72.266H323.674V72.1563ZM323.674 72.266H331.172V72.3757H323.674V72.266ZM59.1322 72.266H66.5568V72.4203H59.1322V72.266ZM323.65 72.3757H331.172V72.4203H323.65V72.3757ZM59.1073 72.4203H66.5816V72.5737H59.1073V72.4203ZM323.65 72.4203H331.197V72.5737H323.65V72.4203ZM323.65 72.5737H331.221V72.5951H323.65V72.5737ZM59.0825 72.5737H66.5816V72.6397H59.0825V72.5737ZM59.0825 72.6397H66.6055V72.7271H59.0825V72.6397ZM323.625 72.5951H331.221V72.7271H323.625V72.5951ZM323.625 72.7271H331.245V72.8146H323.625V72.7271ZM59.0587 72.7271H66.6055V72.8369H59.0587V72.7271ZM59.0587 72.8369H66.6303V72.8806H59.0587V72.8369ZM323.6 72.8146H331.245V72.8806H323.6V72.8146ZM59.0339 72.8806H66.6303V73.034H59.0339V72.8806ZM323.6 72.8806H331.27V73.034H323.6V72.8806ZM59.01 73.034H66.6303V73.0563H59.01V73.034ZM59.01 73.0563H66.6541V73.2097H59.01V73.0563ZM323.576 73.034H331.294V73.2097H323.576V73.034ZM323.576 73.2097H331.319V73.232H323.576V73.2097ZM58.9852 73.2097H66.6541V73.2757H58.9852V73.2097ZM58.9852 73.2757H66.6789V73.3631H58.9852V73.2757ZM323.551 73.232H331.319V73.3631H323.551V73.232ZM323.551 73.3631H331.343V73.4514H323.551V73.3631ZM58.9604 73.3631H66.6789V73.4952H58.9604V73.3631ZM58.9604 73.4952H66.7038V73.5174H58.9604V73.4952ZM323.528 73.4514H331.343V73.5174H323.528V73.4514ZM58.9366 73.5174H66.7038V73.6709H58.9366V73.5174ZM323.528 73.5174H331.367V73.6709H323.528V73.5174ZM58.9118 73.6709H66.7038V73.7146H58.9118V73.6709ZM58.9118 73.7146H66.7276V73.8243H58.9118V73.7146ZM323.503 73.6709H331.392V73.8243H323.503V73.6709ZM323.503 73.8243H331.416V73.8903H323.503V73.8243ZM58.8879 73.8243H66.7276V73.9117H58.8879V73.8243ZM58.8879 73.9117H66.7524V73.9777H58.8879V73.9117ZM323.478 73.8903H331.416V74H323.478V73.8903ZM323.478 74H331.441V74.1097H323.478V74ZM58.8631 73.9777H66.7524V74.1312H58.8631V73.9777ZM58.8631 74.1312H66.7763V74.1535H58.8631V74.1312ZM323.454 74.1097H331.441V74.1535H323.454V74.1097ZM58.8383 74.1535H66.7763V74.3069H58.8383V74.1535ZM323.454 74.1535H331.466V74.3069H323.454V74.1535ZM58.8144 74.3069H66.7763V74.3506H58.8144V74.3069ZM58.8144 74.3506H66.8011V74.4603H58.8144V74.3506ZM323.429 74.3069H331.489V74.4603H323.429V74.3069ZM323.429 74.4603H331.514V74.5263H323.429V74.4603ZM58.7896 74.4603H66.8011V74.57H58.7896V74.4603ZM58.7896 74.57H66.8259V74.6146H58.7896V74.57ZM323.405 74.5263H331.514V74.6146H323.405V74.5263ZM323.405 74.6146H331.538V74.7457H323.405V74.6146ZM58.7658 74.6146H66.8259V74.768H58.7658V74.6146ZM323.381 74.7457H331.538V74.768H323.381V74.7457ZM58.741 74.768H66.8497V74.9438H58.741V74.768ZM323.381 74.768H331.563V74.9438H323.381V74.768ZM323.381 74.9438H331.588V74.9652H323.381V74.9438ZM58.7162 74.9438H66.8497V74.9875H58.7162V74.9438ZM58.7162 74.9875H66.8745V75.0972H58.7162V74.9875ZM323.356 74.9652H331.588V75.0972H323.356V74.9652ZM323.356 75.0972H331.612V75.1846H323.356V75.0972ZM58.6923 75.0972H66.8745V75.2069H58.6923V75.0972ZM58.6923 75.2069H66.8984V75.2506H58.6923V75.2069ZM323.332 75.1846H331.612V75.2506H323.332V75.1846ZM323.332 75.2506H331.636V75.3826H323.332V75.2506ZM58.6675 75.2506H66.8984V75.404H58.6675V75.2506ZM323.307 75.3826H331.636V75.404H323.307V75.3826ZM58.6437 75.404H66.8984V75.4263H58.6437V75.404ZM58.6437 75.4263H66.9232V75.5575H58.6437V75.4263ZM323.307 75.404H331.66V75.5575H323.307V75.404ZM323.307 75.5575H331.685V75.6021H323.307V75.5575ZM58.6189 75.5575H66.9232V75.6458H58.6189V75.5575ZM58.6189 75.6458H66.948V75.7118H58.6189V75.6458ZM323.283 75.6021H331.685V75.7332H323.283V75.6021ZM323.283 75.7332H331.71V75.8215H323.283V75.7332ZM58.594 75.7118H66.948V75.8429H58.594V75.7118ZM58.594 75.8429H66.9719V75.8866H58.594V75.8429ZM323.259 75.8215H331.71V75.8866H323.259V75.8215ZM58.5702 75.8866H66.9719V76.0409H58.5702V75.8866ZM323.259 75.8866H331.734V76.0409H323.259V75.8866ZM58.5454 76.0409H66.9719V76.0623H58.5454V76.0409ZM58.5454 76.0623H66.9967V76.1944H58.5454V76.0623ZM323.234 76.0409H331.758V76.1944H323.234V76.0409ZM323.234 76.1944H331.782V76.2604H323.234V76.1944ZM58.5215 76.1944H66.9967V76.2818H58.5215V76.1944ZM58.5215 76.2818H67.0205V76.3478H58.5215V76.2818ZM323.21 76.2604H331.782V76.3478H323.21V76.2604ZM323.21 76.3478H331.807V76.4575H323.21V76.3478ZM58.4967 76.3478H67.0205V76.5012H58.4967V76.3478ZM323.185 76.4575H331.807V76.5012H323.185V76.4575ZM58.4719 76.5012H67.0453V76.6546H58.4719V76.5012ZM323.185 76.5012H331.832V76.6769H323.185V76.5012ZM58.4481 76.6546H67.0453V76.7206H58.4481V76.6546ZM58.4481 76.7206H67.0701V76.8304H58.4481V76.7206ZM323.161 76.6769H331.856V76.8304H323.161V76.6769ZM323.161 76.8304H331.881V76.8964H323.161V76.8304ZM58.4233 76.8304H67.0701V76.9187H58.4233V76.8304ZM58.4233 76.9187H67.094V76.9838H58.4233V76.9187ZM323.136 76.8964H331.881V76.9838H323.136V76.8964ZM323.136 76.9838H331.904V77.1158H323.136V76.9838ZM58.3994 76.9838H67.094V77.1381H58.3994V76.9838ZM323.112 77.1158H331.904V77.1381H323.112V77.1158ZM58.3746 77.1381H67.1188V77.2915H58.3746V77.1381ZM323.112 77.1381H331.929V77.2915H323.112V77.1381ZM323.112 77.2915H331.954V77.3129H323.112V77.2915ZM58.3498 77.2915H67.1188V77.3575H58.3498V77.2915ZM58.3498 77.3575H67.1426V77.4449H58.3498V77.3575ZM323.088 77.3129H331.954V77.4672H323.088V77.3129ZM323.088 77.4672H331.978V77.5324H323.088V77.4672ZM58.326 77.4449H67.1426V77.577H58.326V77.4449ZM58.326 77.577H67.1674V77.5984H58.326V77.577ZM323.063 77.5324H331.978V77.6207H323.063V77.5324ZM323.063 77.6207H332.003V77.7518H323.063V77.6207ZM58.3011 77.5984H67.1674V77.7741H58.3011V77.5984ZM323.039 77.7518H332.003V77.7741H323.039V77.7518ZM58.2773 77.7741H67.1922V77.9275H58.2773V77.7741ZM323.039 77.7741H332.027V77.9275H323.039V77.7741ZM323.039 77.9275H332.051V77.9712H323.039V77.9275ZM58.2525 77.9275H67.1922V77.9935H58.2525V77.9275ZM58.2525 77.9935H67.2161V78.081H58.2525V77.9935ZM323.014 77.9712H332.051V78.081H323.014V77.9712ZM323.014 78.081H332.076V78.1907H323.014V78.081ZM58.2277 78.081H67.2161V78.213H58.2277V78.081ZM58.2277 78.213H67.2409V78.2353H58.2277V78.213ZM322.99 78.1907H332.076V78.2353H322.99V78.1907ZM322.99 78.2353H332.1V78.345H322.99V78.2353ZM58.2038 78.2353H67.2409V78.3887H58.2038V78.2353ZM317.69 78.345H334.86V78.3887H317.69V78.345ZM58.179 78.3887H67.2409V78.4324H58.179V78.3887ZM317.666 78.3887H334.885V78.4547H317.666V78.3887ZM317.641 78.4547H334.909V78.4984H317.641V78.4547ZM317.616 78.4984H334.934V78.5421H317.616V78.4984ZM58.179 78.4324H67.2648V78.5644H58.179V78.4324ZM317.592 78.5421H334.958V78.5858H317.592V78.5421ZM317.592 78.5858H334.982V78.6081H317.592V78.5858ZM58.1552 78.5644H67.2648V78.6295H58.1552V78.5644ZM317.567 78.6081H334.982V78.6295H317.567V78.6081ZM55.4189 78.6295H72.5656V78.6518H55.4189V78.6295ZM317.567 78.6295H335.007V78.6518H317.567V78.6295ZM55.395 78.6518H72.5656V78.6741H55.395V78.6518ZM317.544 78.6518H335.007V78.6741H317.544V78.6518ZM55.395 78.6741H72.5895V78.6955H55.395V78.6741ZM317.544 78.6741H335.031V78.7178H317.544V78.6741ZM55.3702 78.6955H72.5895V78.7178H55.3702V78.6955ZM55.3702 78.7178H72.6143V78.7393H55.3702V78.7178ZM317.519 78.7178H335.031V78.7393H317.519V78.7178ZM270.038 66.715H276.925V78.7615H270.038V66.715ZM317.519 78.7393H335.056V78.7615H317.519V78.7393ZM55.3464 78.7393H72.6143V78.7615H55.3464V78.7393ZM55.3464 78.7615H72.6382V78.7838H55.3464V78.7615ZM317.494 78.7615H335.056V78.7838H317.494V78.7615ZM317.494 78.7838H335.08V78.8053H317.494V78.7838ZM55.3215 78.7838H72.6382V78.8275H55.3215V78.7838ZM317.47 78.8053H335.08V78.8275H317.47V78.8053ZM55.2967 78.8275H72.663V78.8713H55.2967V78.8275ZM317.47 78.8275H335.104V78.8713H317.47V78.8275ZM317.445 78.8713H335.129V78.915H317.445V78.8713ZM55.2729 78.8713H72.6878V78.9373H55.2729V78.8713ZM317.421 78.915H335.153V78.9587H317.421V78.915ZM55.2481 78.9373H72.7116V78.981H55.2481V78.9373ZM317.421 78.9587H335.178V78.981H317.421V78.9587ZM55.2242 78.981H72.7364V79.0247H55.2242V78.981ZM317.397 78.981H335.178V79.0247H317.397V78.981ZM113.33 66.9996H120.217V79.047H113.33V66.9996ZM55.1994 79.0247H72.7603V79.0684H55.1994V79.0247ZM317.372 79.0247H335.202V79.0684H317.372V79.0247ZM55.1746 79.0684H72.7603V79.0907H55.1746V79.0684ZM55.1746 79.0907H72.7851V79.113H55.1746V79.0907ZM317.348 79.0684H335.227V79.113H317.348V79.0684ZM317.348 79.113H335.251V79.1344H317.348V79.113ZM55.1508 79.113H72.7851V79.1344H55.1508V79.113ZM55.1508 79.1344H72.8099V79.1567H55.1508V79.1344ZM317.323 79.1344H335.251V79.1567H317.323V79.1344ZM317.323 79.1567H335.275V79.1781H317.323V79.1567ZM55.126 79.1567H72.8099V79.2004H55.126V79.1567ZM317.299 79.1781H335.275V79.2004H317.299V79.1781ZM55.126 79.2004H72.8337V79.2227H55.126V79.2004ZM317.299 79.2004H335.3V79.2441H317.299V79.2004ZM55.1021 79.2227H72.8337V79.2441H55.1021V79.2227ZM55.1021 79.2441H72.8585V79.2664H55.1021V79.2441ZM317.275 79.2441H335.3V79.2664H317.275V79.2441ZM317.275 79.2664H335.324V79.2878H317.275V79.2664ZM55.0773 79.2664H72.8585V79.2878H55.0773V79.2664ZM55.0773 79.2878H72.8824V79.3101H55.0773V79.2878ZM317.25 79.2878H335.324V79.3101H317.25V79.2878ZM317.25 79.3101H335.349V79.3324H317.25V79.3101ZM55.0525 79.3101H72.8824V79.3538H55.0525V79.3101ZM317.226 79.3324H335.349V79.3538H317.226V79.3324ZM55.0286 79.3538H72.9072V79.3976H55.0286V79.3538ZM317.226 79.3538H335.374V79.3976H317.226V79.3538ZM317.201 79.3976H335.397V79.4421H317.201V79.3976ZM55.0038 79.3976H72.932V79.4636H55.0038V79.3976ZM317.177 79.4421H335.422V79.4858H317.177V79.4421ZM54.98 79.4636H72.9559V79.5073H54.98V79.4636ZM317.177 79.4858H335.446V79.5073H317.177V79.4858ZM54.9552 79.5073H72.9807V79.5519H54.9552V79.5073ZM317.152 79.5073H335.446V79.5519H317.152V79.5073ZM54.9304 79.5519H73.0045V79.5956H54.9304V79.5519ZM317.128 79.5519H335.471V79.5956H317.128V79.5519ZM54.9065 79.5956H73.0045V79.617H54.9065V79.5956ZM54.9065 79.617H73.0293V79.6393H54.9065V79.617ZM317.104 79.5956H335.496V79.6393H317.104V79.5956ZM317.104 79.6393H335.519V79.6616H317.104V79.6393ZM54.8817 79.6393H73.0293V79.6616H54.8817V79.6393ZM54.8817 79.6616H73.0541V79.683H54.8817V79.6616ZM317.079 79.6616H335.519V79.683H317.079V79.6616ZM317.079 79.683H335.544V79.7053H317.079V79.683ZM54.8579 79.683H73.0541V79.7267H54.8579V79.683ZM317.055 79.7053H335.544V79.7267H317.055V79.7053ZM54.8579 79.7267H73.078V79.749H54.8579V79.7267ZM317.055 79.7267H335.568V79.7713H317.055V79.7267ZM54.8331 79.749H73.078V79.7713H54.8331V79.749ZM54.8331 79.7713H73.1028V79.7927H54.8331V79.7713ZM317.03 79.7713H335.593V79.815H317.03V79.7713ZM54.8082 79.7927H73.1028V79.815H54.8082V79.7927ZM54.8082 79.815H73.1266V79.8364H54.8082V79.815ZM317.006 79.815H335.593V79.8364H317.006V79.815ZM317.006 79.8364H335.618V79.8587H317.006V79.8364ZM54.7844 79.8364H73.1266V79.881H54.7844V79.8364ZM316.982 79.8587H335.618V79.881H316.982V79.8587ZM54.7596 79.881H73.1514V79.9247H54.7596V79.881ZM316.982 79.881H335.642V79.9247H316.982V79.881ZM54.7357 79.9247H73.1763V79.9684H54.7357V79.9247ZM316.957 79.9247H335.666V79.9684H316.957V79.9247ZM54.7109 79.9684H73.1763V79.9907H54.7109V79.9684ZM316.933 79.9684H335.69V80.0121H316.933V79.9684ZM54.7109 79.9907H73.2001V80.0344H54.7109V79.9907ZM316.933 80.0121H335.715V80.0344H316.933V80.0121ZM316.908 80.0344H335.715V80.0559H316.908V80.0344ZM54.6861 80.0344H73.2249V80.0781H54.6861V80.0344ZM316.908 80.0559H335.74V80.0781H316.908V80.0559ZM54.6623 80.0781H73.2249V80.1004H54.6623V80.0781ZM54.6623 80.1004H73.2488V80.1219H54.6623V80.1004ZM316.883 80.0781H335.74V80.1219H316.883V80.0781ZM316.883 80.1219H335.764V80.1441H316.883V80.1219ZM54.6375 80.1219H73.2488V80.1441H54.6375V80.1219ZM54.6375 80.1441H73.2736V80.1656H54.6375V80.1441ZM316.86 80.1441H335.764V80.1656H316.86V80.1441ZM316.86 80.1656H335.789V80.1879H316.86V80.1656ZM54.6136 80.1656H73.2736V80.1879H54.6136V80.1656ZM54.6136 80.1879H73.2984V80.2101H54.6136V80.1879ZM316.835 80.1879H335.789V80.2101H316.835V80.1879ZM316.835 80.2101H335.812V80.2316H316.835V80.2101ZM54.5888 80.2101H73.2984V80.2539H54.5888V80.2101ZM316.811 80.2316H335.812V80.2539H316.811V80.2316ZM316.811 80.2539H335.837V80.2976H316.811V80.2539ZM54.564 80.2539H73.3222V80.2976H54.564V80.2539ZM54.564 80.2976H73.347V80.3199H54.564V80.2976ZM316.786 80.2976H335.862V80.3413H316.786V80.2976ZM54.5402 80.3199H73.347V80.3636H54.5402V80.3199ZM316.761 80.3413H335.862V80.3636H316.761V80.3413ZM54.5153 80.3636H73.3709V80.4073H54.5153V80.3636ZM316.761 80.3636H335.886V80.4073H316.761V80.3636ZM54.4915 80.4073H73.3957V80.451H54.4915V80.4073ZM316.737 80.4073H335.911V80.451H316.737V80.4073ZM54.4667 80.451H73.4205V80.4947H54.4667V80.451ZM316.713 80.451H335.935V80.4947H316.713V80.451ZM54.4419 80.4947H73.4205V80.517H54.4419V80.4947ZM316.689 80.4947H335.959V80.5393H316.689V80.4947ZM54.4419 80.517H73.4444V80.5607H54.4419V80.517ZM316.689 80.5393H335.984V80.5607H316.689V80.5393ZM316.664 80.5607H335.984V80.583H316.664V80.5607ZM54.418 80.5607H73.4692V80.6044H54.418V80.5607ZM316.664 80.583H336.008V80.6044H316.664V80.583ZM54.3932 80.6044H73.4692V80.6267H54.3932V80.6044ZM54.3932 80.6267H73.493V80.649H54.3932V80.6267ZM316.639 80.6044H336.008V80.649H316.639V80.6044ZM316.639 80.649H336.033V80.6704H316.639V80.649ZM54.3694 80.649H73.493V80.6704H54.3694V80.649ZM54.3694 80.6704H73.5178V80.6927H54.3694V80.6704ZM316.615 80.6704H336.033V80.6927H316.615V80.6704ZM316.615 80.6927H336.057V80.7142H316.615V80.6927ZM54.3446 80.6927H73.5178V80.7142H54.3446V80.6927ZM54.3446 80.7142H73.5426V80.7364H54.3446V80.7142ZM316.59 80.7142H336.057V80.7364H316.59V80.7142ZM316.59 80.7364H336.081V80.7587H316.59V80.7364ZM54.3198 80.7364H73.5426V80.7802H54.3198V80.7364ZM316.567 80.7587H336.081V80.7802H316.567V80.7587ZM316.567 80.7802H336.106V80.8239H316.567V80.7802ZM54.2959 80.7802H73.5665V80.8239H54.2959V80.7802ZM54.2959 80.8239H73.5913V80.8462H54.2959V80.8239ZM316.542 80.8239H336.13V80.8684H316.542V80.8239ZM54.2711 80.8462H73.5913V80.8899H54.2711V80.8462ZM54.2472 80.8899H73.6151V80.9336H54.2472V80.8899ZM316.517 80.8684H336.155V80.9336H316.517V80.8684ZM54.2224 80.9336H73.6399V80.9782H54.2224V80.9336ZM316.493 80.9336H336.179V80.9782H316.493V80.9336ZM54.1976 80.9782H73.6647V81.0219H54.1976V80.9782ZM316.468 80.9782H336.204V81.0219H316.468V80.9782ZM54.1738 81.0219H73.6647V81.0433H54.1738V81.0219ZM54.1738 81.0433H73.6886V81.0656H54.1738V81.0433ZM316.445 81.0219H336.228V81.0656H316.445V81.0219ZM316.445 81.0656H336.252V81.0879H316.445V81.0656ZM54.149 81.0656H73.6886V81.0879H54.149V81.0656ZM316.42 81.0879H336.252V81.1093H316.42V81.0879ZM54.149 81.0879H73.7134V81.1316H54.149V81.0879ZM316.42 81.1093H336.277V81.1316H316.42V81.1093ZM54.1251 81.1316H73.7134V81.153H54.1251V81.1316ZM316.395 81.1316H336.277V81.153H316.395V81.1316ZM54.1251 81.153H73.7373V81.1753H54.1251V81.153ZM316.395 81.153H336.301V81.1976H316.395V81.153ZM54.1003 81.1753H73.7373V81.1976H54.1003V81.1753ZM54.1003 81.1976H73.7621V81.219H54.1003V81.1976ZM316.371 81.1976H336.301V81.219H316.371V81.1976ZM316.371 81.219H336.326V81.2413H316.371V81.219ZM54.0755 81.219H73.7621V81.2413H54.0755V81.219ZM54.0755 81.2413H73.7869V81.2627H54.0755V81.2413ZM316.346 81.2413H336.326V81.2627H316.346V81.2413ZM316.346 81.2627H336.35V81.285H316.346V81.2627ZM54.0517 81.2627H73.7869V81.3073H54.0517V81.2627ZM316.322 81.285H336.35V81.3073H316.322V81.285ZM54.0269 81.3073H73.8107V81.351H54.0269V81.3073ZM316.322 81.3073H336.374V81.351H316.322V81.3073ZM316.298 81.351H336.399V81.3947H316.298V81.351ZM54.003 81.351H73.8355V81.417H54.003V81.351ZM53.9782 81.417H73.8594V81.4607H53.9782V81.417ZM316.273 81.3947H336.423V81.4607H316.273V81.3947ZM53.9534 81.4607H73.8842V81.5045H53.9534V81.4607ZM316.249 81.4607H336.448V81.5045H316.249V81.4607ZM53.9295 81.5045H73.909V81.5482H53.9295V81.5045ZM316.224 81.5045H336.473V81.5482H316.224V81.5045ZM53.9047 81.5482H73.909V81.5705H53.9047V81.5482ZM53.9047 81.5705H73.9328V81.5919H53.9047V81.5705ZM316.2 81.5482H336.496V81.5919H316.2V81.5482ZM316.2 81.5919H336.521V81.6142H316.2V81.5919ZM53.8809 81.5919H73.9328V81.6142H53.8809V81.5919ZM316.175 81.6142H336.521V81.6365H316.175V81.6142ZM53.8809 81.6142H73.9576V81.6579H53.8809V81.6142ZM316.175 81.6365H336.545V81.6579H316.175V81.6365ZM53.8561 81.6579H73.9576V81.6802H53.8561V81.6579ZM316.151 81.6579H336.545V81.6802H316.151V81.6579ZM53.8561 81.6802H73.9815V81.7016H53.8561V81.6802ZM316.151 81.6802H336.57V81.7239H316.151V81.6802ZM53.8313 81.7016H73.9815V81.7239H53.8313V81.7016ZM53.8313 81.7239H74.0063V81.7462H53.8313V81.7239ZM316.127 81.7239H336.57V81.7462H316.127V81.7239ZM316.127 81.7462H336.595V81.7676H316.127V81.7462ZM53.8074 81.7462H74.0063V81.7676H53.8074V81.7462ZM53.8074 81.7676H74.0311V81.7899H53.8074V81.7676ZM316.102 81.7676H336.595V81.7899H316.102V81.7676ZM316.102 81.7899H336.619V81.8113H316.102V81.7899ZM53.7826 81.7899H74.0311V81.8336H53.7826V81.7899ZM316.078 81.8113H336.619V81.8336H316.078V81.8113ZM53.7588 81.8336H74.055V81.8773H53.7588V81.8336ZM316.078 81.8336H336.643V81.8773H316.078V81.8336ZM316.053 81.8773H336.667V81.921H316.053V81.8773ZM53.734 81.8773H74.0798V81.9433H53.734V81.8773ZM316.029 81.921H336.692V81.9656H316.029V81.921ZM53.7091 81.9433H74.1036V81.987H53.7091V81.9433ZM316.029 81.9656H336.717V81.987H316.029V81.9656ZM53.6853 81.987H74.1284V82.0308H53.6853V81.987ZM316.005 81.987H336.717V82.0308H316.005V81.987ZM53.6605 82.0308H74.1532V82.0753H53.6605V82.0308ZM315.98 82.0308H336.741V82.0753H315.98V82.0308ZM53.6366 82.0753H74.1532V82.0968H53.6366V82.0753ZM53.6366 82.0968H74.1771V82.119H53.6366V82.0968ZM315.956 82.0753H336.766V82.119H315.956V82.0753ZM315.956 82.119H336.789V82.1405H315.956V82.119ZM53.6118 82.119H74.1771V82.1405H53.6118V82.119ZM53.6118 82.1405H74.2019V82.1628H53.6118V82.1405ZM315.931 82.1405H336.789V82.1628H315.931V82.1405ZM315.931 82.1628H336.814V82.185H315.931V82.1628ZM53.587 82.1628H74.2019V82.2065H53.587V82.1628ZM315.906 82.185H336.814V82.2065H315.906V82.185ZM53.587 82.2065H74.2257V82.2288H53.587V82.2065ZM315.906 82.2065H336.839V82.2502H315.906V82.2065ZM53.5632 82.2288H74.2257V82.2502H53.5632V82.2288ZM53.5632 82.2502H74.2506V82.2725H53.5632V82.2502ZM315.883 82.2502H336.863V82.2948H315.883V82.2502ZM53.5384 82.2725H74.2506V82.2948H53.5384V82.2725ZM53.5384 82.2948H74.2754V82.3162H53.5384V82.2948ZM315.858 82.2948H336.863V82.3162H315.858V82.2948ZM53.5145 82.3162H74.2754V82.3599H53.5145V82.3162ZM315.858 82.3162H336.888V82.3599H315.858V82.3162ZM53.4897 82.3599H74.2992V82.4045H53.4897V82.3599ZM315.834 82.3599H336.911V82.4045H315.834V82.3599ZM53.4649 82.4045H74.324V82.4482H53.4649V82.4045ZM315.809 82.4045H336.936V82.4482H315.809V82.4045ZM53.441 82.4482H74.324V82.4696H53.441V82.4482ZM315.784 82.4482H336.961V82.4919H315.784V82.4482ZM53.441 82.4696H74.3479V82.5142H53.441V82.4696ZM315.784 82.4919H336.985V82.5142H315.784V82.4919ZM53.4162 82.5142H74.3727V82.5579H53.4162V82.5142ZM315.76 82.5142H336.985V82.5579H315.76V82.5142ZM53.3924 82.5579H74.3975V82.6016H53.3924V82.5579ZM315.736 82.5579H337.01V82.6016H315.736V82.5579ZM315.736 82.6016H337.034V82.6239H315.736V82.6016ZM53.3676 82.6016H74.3975V82.6239H53.3676V82.6016ZM53.3676 82.6239H74.4213V82.6453H53.3676V82.6239ZM315.712 82.6239H337.034V82.6453H315.712V82.6239ZM315.712 82.6453H337.058V82.6676H315.712V82.6453ZM53.3428 82.6453H74.4213V82.6676H53.3428V82.6453ZM53.3428 82.6676H74.4461V82.6891H53.3428V82.6676ZM315.687 82.6676H337.058V82.6891H315.687V82.6676ZM315.687 82.6891H337.083V82.7113H315.687V82.6891ZM53.3189 82.6891H74.4461V82.7336H53.3189V82.6891ZM315.662 82.7113H337.083V82.7336H315.662V82.7113ZM53.3189 82.7336H74.47V82.7551H53.3189V82.7336ZM315.662 82.7336H337.107V82.7773H315.662V82.7336ZM53.2941 82.7551H74.47V82.7773H53.2941V82.7551ZM53.2941 82.7773H74.4948V82.7988H53.2941V82.7773ZM315.638 82.7773H337.132V82.8211H315.638V82.7773ZM53.2703 82.7988H74.4948V82.8433H53.2703V82.7988ZM315.613 82.8211H337.132V82.8433H315.613V82.8211ZM53.2455 82.8433H74.5196V82.8871H53.2455V82.8433ZM315.613 82.8433H337.156V82.8871H315.613V82.8433ZM53.2207 82.8871H74.5435V82.9308H53.2207V82.8871ZM315.59 82.8871H337.181V82.9308H315.59V82.8871ZM53.1968 82.9308H74.5683V82.9745H53.1968V82.9308ZM315.565 82.9308H337.205V82.9745H315.565V82.9308ZM53.172 82.9745H74.5683V82.9968H53.172V82.9745ZM315.54 82.9745H337.229V83.0182H315.54V82.9745ZM53.172 82.9968H74.5921V83.0405H53.172V82.9968ZM315.54 83.0182H337.254V83.0405H315.54V83.0182ZM315.516 83.0405H337.254V83.0628H315.516V83.0405ZM53.1481 83.0405H74.6169V83.0842H53.1481V83.0405ZM315.516 83.0628H337.278V83.0842H315.516V83.0628ZM53.1233 83.0842H74.6169V83.1065H53.1233V83.0842ZM53.1233 83.1065H74.6417V83.1279H53.1233V83.1065ZM315.491 83.0842H337.278V83.1279H315.491V83.0842ZM315.491 83.1279H337.303V83.1502H315.491V83.1279ZM53.0985 83.1279H74.6417V83.1502H53.0985V83.1279ZM53.0985 83.1502H74.6656V83.1725H53.0985V83.1502ZM315.468 83.1502H337.303V83.1725H315.468V83.1502ZM315.468 83.1725H337.327V83.1939H315.468V83.1725ZM53.0747 83.1725H74.6656V83.1939H53.0747V83.1725ZM53.0747 83.1939H74.6904V83.2162H53.0747V83.1939ZM315.443 83.1939H337.327V83.2162H315.443V83.1939ZM315.443 83.2162H337.351V83.2376H315.443V83.2162ZM53.0499 83.2162H74.6904V83.2599H53.0499V83.2162ZM315.418 83.2376H337.351V83.2599H315.418V83.2376ZM315.418 83.2599H337.376V83.3036H315.418V83.2599ZM53.026 83.2599H74.7142V83.3036H53.026V83.2599ZM53.026 83.3036H74.739V83.3259H53.026V83.3036ZM315.394 83.3036H337.4V83.3474H315.394V83.3036ZM53.0012 83.3259H74.739V83.3696H53.0012V83.3259ZM52.9764 83.3696H74.7638V83.4134H52.9764V83.3696ZM315.369 83.3474H337.425V83.4134H315.369V83.3474ZM52.9526 83.4134H74.7877V83.4571H52.9526V83.4134ZM315.345 83.4134H337.45V83.4571H315.345V83.4134ZM52.9278 83.4571H74.8125V83.5016H52.9278V83.4571ZM315.321 83.4571H337.473V83.5016H315.321V83.4571ZM52.9039 83.5016H74.8125V83.5231H52.9039V83.5016ZM52.9039 83.5231H74.8364V83.5454H52.9039V83.5231ZM315.296 83.5016H337.498V83.5454H315.296V83.5016ZM315.296 83.5454H337.522V83.5668H315.296V83.5454ZM52.8791 83.5454H74.8364V83.5668H52.8791V83.5454ZM315.272 83.5668H337.522V83.5891H315.272V83.5668ZM52.8791 83.5668H74.8612V83.6114H52.8791V83.5668ZM315.272 83.5891H337.547V83.6114H315.272V83.5891ZM52.8543 83.6114H74.8612V83.6328H52.8543V83.6114ZM52.8543 83.6328H74.886V83.6551H52.8543V83.6328ZM315.247 83.6114H337.547V83.6551H315.247V83.6114ZM315.247 83.6551H337.572V83.6765H315.247V83.6551ZM52.8304 83.6551H74.886V83.6765H52.8304V83.6551ZM52.8304 83.6765H74.9098V83.6988H52.8304V83.6765ZM315.223 83.6765H337.572V83.6988H315.223V83.6765ZM315.223 83.6988H337.596V83.7211H315.223V83.6988ZM52.8056 83.6988H74.9098V83.7211H52.8056V83.6988ZM52.8056 83.7211H74.9346V83.7425H52.8056V83.7211ZM315.198 83.7211H337.596V83.7425H315.198V83.7211ZM315.198 83.7425H337.62V83.7648H315.198V83.7425ZM52.7818 83.7425H74.9346V83.7862H52.7818V83.7425ZM315.174 83.7648H337.62V83.7862H315.174V83.7648ZM315.174 83.7862H337.644V83.8308H315.174V83.7862ZM52.757 83.7862H74.9585V83.8308H52.757V83.7862ZM52.757 83.8308H74.9833V83.8522H52.757V83.8308ZM315.15 83.8308H337.669V83.8745H315.15V83.8308ZM52.7322 83.8522H74.9833V83.8959H52.7322V83.8522ZM52.7083 83.8959H75.0081V83.9405H52.7083V83.8959ZM315.125 83.8745H337.694V83.9405H315.125V83.8745ZM52.6835 83.9405H75.0319V83.9842H52.6835V83.9405ZM315.101 83.9405H337.718V83.9842H315.101V83.9405ZM52.6597 83.9842H75.0568V84.0279H52.6597V83.9842ZM315.076 83.9842H337.742V84.0279H315.076V83.9842ZM52.6348 84.0279H75.0568V84.0502H52.6348V84.0279ZM52.6348 84.0502H75.0806V84.0717H52.6348V84.0502ZM315.052 84.0279H337.766V84.0717H315.052V84.0279ZM315.052 84.0717H337.791V84.0939H315.052V84.0717ZM52.61 84.0717H75.0806V84.0939H52.61V84.0717ZM315.028 84.0939H337.791V84.1154H315.028V84.0939ZM52.61 84.0939H75.1054V84.1377H52.61V84.0939ZM315.028 84.1154H337.816V84.1377H315.028V84.1154ZM52.5862 84.1377H75.1054V84.1599H52.5862V84.1377ZM315.003 84.1377H337.816V84.1599H315.003V84.1377ZM52.5862 84.1599H75.1302V84.1814H52.5862V84.1599ZM315.003 84.1599H337.84V84.2037H315.003V84.1599ZM52.5614 84.1814H75.1302V84.2037H52.5614V84.1814ZM52.5614 84.2037H75.1541V84.2251H52.5614V84.2037ZM314.979 84.2037H337.84V84.2251H314.979V84.2037ZM314.979 84.2251H337.865V84.2474H314.979V84.2251ZM52.5375 84.2251H75.1541V84.2474H52.5375V84.2251ZM52.5375 84.2474H75.1789V84.2697H52.5375V84.2474ZM314.954 84.2474H337.865V84.2697H314.954V84.2474ZM52.5127 84.2697H75.1789V84.3134H52.5127V84.2697ZM314.954 84.2697H337.888V84.3134H314.954V84.2697ZM52.4879 84.3134H75.2027V84.3571H52.4879V84.3134ZM314.929 84.3134H337.913V84.3571H314.929V84.3134ZM314.906 84.3571H337.938V84.4008H314.906V84.3571ZM52.4641 84.3571H75.2275V84.4231H52.4641V84.3571ZM314.881 84.4008H337.962V84.4445H314.881V84.4008ZM52.4393 84.4231H75.2523V84.4668H52.4393V84.4231ZM314.881 84.4445H337.987V84.4668H314.881V84.4445ZM52.4154 84.4668H75.2762V84.5105H52.4154V84.4668ZM314.857 84.4668H337.987V84.5105H314.857V84.4668ZM52.3906 84.5105H75.301V84.5542H52.3906V84.5105ZM314.832 84.5105H338.011V84.5542H314.832V84.5105ZM314.832 84.5542H338.035V84.5765H314.832V84.5542ZM52.3658 84.5542H75.301V84.5765H52.3658V84.5542ZM52.3658 84.5765H75.3248V84.5988H52.3658V84.5765ZM314.807 84.5765H338.035V84.5988H314.807V84.5765ZM314.807 84.5988H338.06V84.6202H314.807V84.5988ZM52.3419 84.5988H75.3248V84.6202H52.3419V84.5988ZM52.3419 84.6202H75.3497V84.6425H52.3419V84.6202ZM314.783 84.6202H338.06V84.6425H314.783V84.6202ZM314.783 84.6425H338.084V84.664H314.783V84.6425ZM52.3171 84.6425H75.3497V84.6862H52.3171V84.6425ZM314.759 84.664H338.084V84.6862H314.759V84.664ZM52.3171 84.6862H75.3745V84.7085H52.3171V84.6862ZM314.759 84.6862H338.109V84.73H314.759V84.6862ZM52.2933 84.7085H75.3745V84.73H52.2933V84.7085ZM52.2933 84.73H75.3983V84.7522H52.2933V84.73ZM314.735 84.73H338.109V84.7522H314.735V84.73ZM314.735 84.7522H338.133V84.7737H314.735V84.7522ZM52.2685 84.7522H75.3983V84.7737H52.2685V84.7522ZM52.2685 84.7737H75.4231V84.796H52.2685V84.7737ZM314.71 84.7737H338.133V84.796H314.71V84.7737ZM52.2437 84.796H75.4231V84.8397H52.2437V84.796ZM314.71 84.796H338.158V84.8397H314.71V84.796ZM52.2198 84.8397H75.447V84.8834H52.2198V84.8397ZM314.685 84.8397H338.182V84.8834H314.685V84.8397ZM314.661 84.8834H338.206V84.928H314.661V84.8834ZM52.195 84.8834H75.4718V84.9494H52.195V84.8834ZM314.637 84.928H338.231V84.9717H314.637V84.928ZM52.1712 84.9494H75.4966V84.9931H52.1712V84.9494ZM314.637 84.9717H338.255V84.9931H314.637V84.9717ZM52.1464 84.9931H75.5204V85.0377H52.1464V84.9931ZM314.613 84.9931H338.255V85.0377H314.613V84.9931ZM52.1216 85.0377H75.5452V85.0814H52.1216V85.0377ZM314.588 85.0377H338.28V85.0814H314.588V85.0377ZM314.588 85.0814H338.304V85.1028H314.588V85.0814ZM52.0977 85.0814H75.5452V85.1028H52.0977V85.0814ZM52.0977 85.1028H75.5691V85.1251H52.0977V85.1028ZM314.563 85.1028H338.304V85.1251H314.563V85.1028ZM314.563 85.1251H338.328V85.1474H314.563V85.1251ZM52.0729 85.1251H75.5691V85.1474H52.0729V85.1251ZM52.0729 85.1474H75.5939V85.1688H52.0729V85.1474ZM314.539 85.1474H338.328V85.1688H314.539V85.1474ZM314.539 85.1688H338.353V85.1911H314.539V85.1688ZM52.049 85.1688H75.5939V85.2125H52.049V85.1688ZM314.514 85.1911H338.353V85.2125H314.514V85.1911ZM52.049 85.2125H75.6187V85.2348H52.049V85.2125ZM314.514 85.2125H338.377V85.2571H314.514V85.2125ZM52.0242 85.2348H75.6187V85.2571H52.0242V85.2348ZM52.0242 85.2571H75.6426V85.2785H52.0242V85.2571ZM314.491 85.2571H338.402V85.3008H314.491V85.2571ZM51.9994 85.2785H75.6426V85.3008H51.9994V85.2785ZM51.9994 85.3008H75.6674V85.3223H51.9994V85.3008ZM314.466 85.3008H338.402V85.3223H314.466V85.3008ZM51.9756 85.3223H75.6674V85.3668H51.9756V85.3223ZM314.466 85.3223H338.427V85.3668H314.466V85.3223ZM51.9508 85.3668H75.6912V85.4105H51.9508V85.3668ZM314.441 85.3668H338.45V85.4105H314.441V85.3668ZM51.9269 85.4105H75.716V85.4543H51.9269V85.4105ZM314.417 85.4105H338.475V85.4543H314.417V85.4105ZM51.9021 85.4543H75.716V85.4765H51.9021V85.4543ZM314.392 85.4543H338.499V85.498H314.392V85.4543ZM51.9021 85.4765H75.7408V85.5203H51.9021V85.4765ZM314.392 85.498H338.524V85.5203H314.392V85.498ZM314.368 85.5203H338.524V85.5417H314.368V85.5203ZM51.8773 85.5203H75.7647V85.564H51.8773V85.5203ZM51.8535 85.564H75.7647V85.5863H51.8535V85.564ZM51.8535 85.5863H75.7895V85.6077H51.8535V85.5863ZM51.8286 85.6077H75.7895V85.63H51.8286V85.6077ZM51.8286 85.63H75.8133V85.6514H51.8286V85.63ZM51.8048 85.6514H75.8133V85.6737H51.8048V85.6514ZM51.8048 85.6737H75.8381V85.696H51.8048V85.6737ZM51.78 85.696H75.8381V85.7397H51.78V85.696ZM51.7552 85.7397H75.863V85.7834H51.7552V85.7397ZM51.7552 85.7834H75.8868V85.8057H51.7552V85.7834ZM51.7313 85.8057H75.8868V85.8271H51.7313V85.8057ZM263.126 78.7615H283.691V89.8206H263.126V78.7615ZM106.564 79.047H127.13V90.1061H106.564V79.047ZM253.6 89.8206H294.12V104.984H253.6V89.8206ZM96.1353 90.1061H136.655V105.247H96.1353V90.1061ZM24.5953 124.667H44.2332V124.711H24.5953V124.667ZM24.5715 124.711H44.2332V124.733H24.5715V124.711ZM24.5466 124.733H44.2332V124.777H24.5466V124.733ZM24.5218 124.777H44.2332V124.82H24.5218V124.777ZM24.498 124.82H44.2332V124.865H24.498V124.82ZM24.4732 124.865H44.2332V124.886H24.4732V124.865ZM24.4493 124.886H44.2332V124.93H24.4493V124.886ZM24.4245 124.93H44.2332V124.975H24.4245V124.93ZM24.3997 124.975H44.2332V125.018H24.3997V124.975ZM24.3759 125.018H44.2332V125.04H24.3759V125.018ZM24.3511 125.04H44.2332V125.084H24.3511V125.04ZM24.3272 125.084H44.2332V125.128H24.3272V125.084ZM24.3024 125.128H44.2332V125.172H24.3024V125.128ZM24.2776 125.172H44.2332V125.194H24.2776V125.172ZM24.2537 125.194H44.2332V125.238H24.2537V125.194ZM24.2289 125.238H44.2332V125.281H24.2289V125.238ZM24.2051 125.281H44.2332V125.325H24.2051V125.281ZM24.1803 125.325H44.2332V125.347H24.1803V125.325ZM24.1555 125.347H44.2332V125.391H24.1555V125.347ZM24.1316 125.391H44.2332V125.435H24.1316V125.391ZM24.1068 125.435H44.2332V125.479H24.1068V125.435ZM24.083 125.479H44.2332V125.501H24.083V125.479ZM24.0582 125.501H44.2332V125.545H24.0582V125.501ZM24.0333 125.545H44.2332V125.588H24.0333V125.545ZM24.0095 125.588H44.2332V125.633H24.0095V125.588ZM23.9847 125.633H44.2332V125.654H23.9847V125.633ZM23.9608 125.654H44.2332V125.698H23.9608V125.654ZM23.936 125.698H44.2332V125.743H23.936V125.698ZM23.9112 125.743H44.2332V125.786H23.9112V125.743ZM23.8874 125.786H44.2332V125.808H23.8874V125.786ZM23.8626 125.808H44.2332V125.852H23.8626V125.808ZM23.8387 125.852H44.2332V125.896H23.8387V125.852ZM23.8139 125.896H44.2332V125.94H23.8139V125.896ZM23.7891 125.94H44.2332V125.962H23.7891V125.94ZM23.7653 125.962H44.2332V126.006H23.7653V125.962ZM23.7404 126.006H44.2332V126.049H23.7404V126.006ZM23.7166 126.049H44.2332V126.093H23.7166V126.049ZM23.6918 126.093H44.2332V126.115H23.6918V126.093ZM23.667 126.115H44.2332V126.159H23.667V126.115ZM23.6431 126.159H44.2332V126.203H23.6431V126.159ZM23.6183 126.203H44.2332V126.247H23.6183V126.203ZM23.5945 126.247H44.2332V126.269H23.5945V126.247ZM23.5697 126.269H44.2332V126.313H23.5697V126.269ZM23.5449 126.313H44.2332V126.356H23.5449V126.313ZM23.521 126.356H44.2332V126.401H23.521V126.356ZM23.4962 126.401H44.2332V126.422H23.4962V126.401ZM23.4723 126.422H44.2332V126.466H23.4723V126.422ZM23.4475 126.466H44.2332V126.511H23.4475V126.466ZM23.4227 126.511H44.2332V126.554H23.4227V126.511ZM23.3989 126.554H44.2332V126.576H23.3989V126.554ZM23.3741 126.576H44.2332V126.62H23.3741V126.576ZM23.3502 126.62H44.2332V126.664H23.3502V126.62ZM23.3254 126.664H44.2332V126.708H23.3254V126.664ZM23.3006 126.708H44.2332V126.73H23.3006V126.708ZM23.2768 126.73H44.2332V126.774H23.2768V126.73ZM23.252 126.774H44.2332V126.817H23.252V126.774ZM23.2281 126.817H44.2332V126.861H23.2281V126.817ZM23.2033 126.861H44.2332V126.883H23.2033V126.861ZM23.1785 126.883H44.2332V126.927H23.1785V126.883ZM23.1546 126.927H44.2332V126.971H23.1546V126.927ZM23.1298 126.971H44.2332V127.015H23.1298V126.971ZM23.106 127.015H44.2332V127.037H23.106V127.015ZM23.0812 127.037H44.2332V127.081H23.0812V127.037ZM23.0564 127.081H44.2332V127.124H23.0564V127.081ZM23.0325 127.124H44.2332V127.169H23.0325V127.124ZM23.0077 127.169H44.2332V127.19H23.0077V127.169ZM22.9839 127.19H44.2332V127.234H22.9839V127.19ZM22.9591 127.234H44.2332V127.279H22.9591V127.234ZM22.9342 127.279H44.2332V127.3H22.9342V127.279ZM22.9104 127.3H44.2332V127.344H22.9104V127.3ZM22.8856 127.344H44.2332V127.388H22.8856V127.344ZM22.8617 127.388H44.2332V127.432H22.8617V127.388ZM22.8369 127.432H44.2332V127.453H22.8369V127.432ZM22.8121 127.453H44.2332V127.498H22.8121V127.453ZM22.7883 127.498H44.2332V127.542H22.7883V127.498ZM22.7635 127.542H44.2332V127.585H22.7635V127.542ZM22.7396 127.585H44.2332V127.608H22.7396V127.585ZM22.7148 127.608H44.2332V127.651H22.7148V127.608ZM22.69 127.651H44.2332V127.695H22.69V127.651ZM22.6661 127.695H44.2332V127.739H22.6661V127.695ZM0 76.4575H22.6413V127.739H0V76.4575ZM346.022 124.381H356.598V131.448H346.022V124.381ZM0 127.739H44.2332V131.732H0V127.739ZM343.75 131.448H356.598V137.043H343.75V131.448ZM0 131.732H46.5287V137.328H0V131.732ZM223.436 104.984H294.12V162.607H223.436V104.984ZM185.553 162.607H294.12V162.87H185.553V162.607ZM96.1353 105.247H166.819V162.87H96.1353V105.247ZM339.696 137.043H356.598V165.745H339.696V137.043ZM310.411 85.5417H339.526V175.598H310.411V85.5417ZM339.696 165.745H368.322V175.598H339.696V165.745ZM96.1353 162.87H294.12V175.598H96.1353V162.87ZM50.7295 85.8271H79.8434V175.883H50.7295V85.8271ZM96.1353 175.598H368.322V175.883H96.1353V175.598ZM0 137.328H50.5588V175.883H0V137.328ZM0 175.883H368.322V212.616H0V175.883ZM0 212.616H381.73V243.336H0V212.616ZM0 243.336H391.891V259.421H0V243.336Z" fill="white"/>
</mask>
<g mask="url(#mask0_27165_180170)">
<mask id="mask1_27165_180170" style="mask-type:luminance" maskUnits="userSpaceOnUse" x="-159" y="55" width="551" height="205">
<path d="M-144.616 180.866V154.244H-105.892V128.127H-76.4102V113.778H-43.9371V128.127H-32.2457V162.108H-18.8275V76.4685H22.6236V127.807L24.6148 124.682H44.2135V131.739H46.5033V137.341H50.5486V175.898H50.7471V85.8407H51.7374L55.4192 78.6491H58.1641L59.3653 70.9124H60.9567L61.6484 59.6184H61.4519C61.0598 59.6184 60.7411 58.7355 60.7411 57.6435C60.7411 56.5549 61.0598 55.6686 61.4519 55.6686H63.9249C64.3189 55.6686 64.6376 56.5549 64.6376 57.6435C64.6376 58.7355 64.3189 59.6184 63.9249 59.6184H63.7703L64.5298 70.9124H66.3835L67.2632 78.6491H72.5507L75.8814 85.8407H79.8333V175.898H96.1443V90.117H106.573V79.0511H113.34V67.0148H116.437V59.9321H117.432V67.0148H120.201V79.0511H127.124V90.117H136.637V105.267H166.804V162.89H185.572V162.607H223.452V104.984H253.62V89.8342H263.134V78.7682H270.055V66.732H272.825V59.6484H273.819V66.732H276.916V78.7682H283.682V89.8342H294.114V175.617H310.425V85.5569H314.376L317.705 78.3662H322.994L323.872 70.6295H325.726L326.486 59.3347H326.332C325.939 59.3347 325.619 58.451 325.619 57.3624C325.619 56.272 325.939 55.3849 326.332 55.3849H328.804C329.197 55.3849 329.517 56.272 329.517 57.3624C329.517 58.451 329.197 59.3347 328.804 59.3347H328.608L329.299 70.6295H330.893L332.092 78.3662H334.837L338.519 85.5569H339.509V175.617H339.707V137.059H343.755V131.456H346.042V124.399H356.589V165.758H368.317V212.633H381.722V243.345H391.871V259.403H-158.832V180.866H-144.616Z" fill="white"/>
</mask>
<g mask="url(#mask1_27165_180170)">
<path d="M-0.00109863 60.5208V265.566H391.871V60.5208H-0.00109863Z" fill="#041F26"/>
</g>
</g>
<mask id="mask2_27165_180170" style="mask-type:luminance" maskUnits="userSpaceOnUse" x="173" y="89" width="530" height="171">
<path d="M173.658 89.1846H702.937V259.465H173.658V89.1846Z" fill="white"/>
</mask>
<g mask="url(#mask2_27165_180170)">
<mask id="mask3_27165_180170" style="mask-type:luminance" maskUnits="userSpaceOnUse" x="173" y="89" width="530" height="171">
<path d="M187.44 193.881V171.672H224.632V149.88H252.948V137.91H284.136V149.88H295.364V178.231H308.253V106.783H348.065V149.614L349.977 147.008H368.799V152.895H370.999V157.569H374.885V189.736H375.073V114.601H376.026L379.563 108.602H382.198L383.351 102.147H384.88L385.544 92.7263H385.356C384.98 92.7263 384.672 91.9892 384.672 91.078C384.672 90.1694 384.98 89.4305 385.356 89.4305H387.733C388.109 89.4305 388.417 90.1694 388.417 91.078C388.417 91.9892 388.109 92.7263 387.733 92.7263H387.584L388.312 102.147H390.092L390.937 108.602H396.017L399.214 114.601H403.01V189.736H418.676V118.169H428.692V108.938H435.192V98.897H438.166V92.9869H439.122V98.897H441.781V108.938H448.43V118.169H457.567V130.809H486.539V178.885H504.567V178.647H540.948V130.574H569.922V117.933H579.057V108.701H585.708V98.6596H588.368V92.7503H589.323V98.6596H592.298V108.701H598.795V117.933H608.814V189.501H624.48V114.367H628.275L631.472 108.365H636.553L637.398 101.912H639.176L639.906 92.4889H639.757C639.379 92.4889 639.073 91.7517 639.073 90.8414C639.073 89.9328 639.379 89.1931 639.757 89.1931H642.133C642.51 89.1931 642.815 89.9328 642.815 90.8414C642.815 91.7517 642.51 92.4889 642.133 92.4889H641.943L642.607 101.912H644.137L645.289 108.365H647.927L651.464 114.367H652.413V189.501H652.604V157.331H656.49V152.658H658.688V146.77H668.817V181.276H680.082V220.383H692.956V246.005H702.701V259.403H173.787V193.881H187.44Z" fill="white"/>
</mask>
<g mask="url(#mask3_27165_180170)">
<mask id="mask4_27165_180170" style="mask-type:luminance" maskUnits="userSpaceOnUse" x="173" y="89" width="530" height="171">
<path d="M187.439 193.881V171.672H224.631V149.88H252.947V137.91H284.135V149.88H295.363V178.231H308.252V106.783H348.064V149.614L349.976 147.008H368.798V152.895H370.998V157.569H374.884V189.736H375.072V114.601H376.025L379.562 108.602H382.197L383.35 102.147H384.879L385.543 92.7263H385.355C384.979 92.7263 384.671 91.9892 384.671 91.078C384.671 90.1694 384.979 89.4305 385.355 89.4305H387.732C388.108 89.4305 388.416 90.1694 388.416 91.078C388.416 91.9892 388.108 92.7263 387.732 92.7263H387.583L388.311 102.147H390.091L390.936 108.602H396.016L399.213 114.601H403.009V189.736H418.675V118.169H428.691V108.938H435.191V98.897H438.165V92.9869H439.121V98.897H441.781V108.938H448.429V118.169H457.566V130.809H486.538V178.885H504.566V178.647H540.947V130.574H569.921V117.933H579.056V108.701H585.707V98.6596H588.367V92.7503H589.322V98.6596H592.297V108.701H598.794V117.933H608.813V189.501H624.479V114.367H628.274L631.471 108.365H636.552L637.397 101.912H639.175L639.905 92.4889H639.756C639.378 92.4889 639.072 91.7517 639.072 90.8414C639.072 89.9328 639.378 89.1931 639.756 89.1931H642.132C642.509 89.1931 642.814 89.9328 642.814 90.8414C642.814 91.7517 642.509 92.4889 642.132 92.4889H641.942L642.606 101.912H644.136L645.288 108.365H647.926L651.463 114.367H652.412V189.501H652.603V157.331H656.489V152.658H658.687V146.77H668.816V181.276H680.081V220.383H692.955V246.005H702.7V259.403H173.786V193.881H187.439Z" fill="white"/>
</mask>
<g mask="url(#mask4_27165_180170)">
<path d="M173.786 89.1931V259.403H702.7V89.1931H173.786Z" fill="#041F26"/>
</g>
</g>
</g>
<mask id="mask5_27165_180170" style="mask-type:luminance" maskUnits="userSpaceOnUse" x="94" y="125" width="79" height="135">
<path d="M94.5227 125.172H172.681V259.465H94.5227V125.172Z" fill="white"/>
</mask>
<g mask="url(#mask5_27165_180170)">
<mask id="mask6_27165_180170" style="mask-type:luminance" maskUnits="userSpaceOnUse" x="94" y="125" width="79" height="135">
<path d="M94.7147 259.403V252.199H108.748V174.662H113.884L119.586 168.784H138.409V252.199H144.684V144.26H145.635L149.171 139.718H151.808L152.961 134.833H154.489L155.154 127.702H154.965C154.588 127.702 154.282 127.144 154.282 126.456C154.282 125.768 154.588 125.209 154.965 125.209H157.341C157.719 125.209 158.024 125.768 158.024 126.456C158.024 127.144 157.719 127.702 157.341 127.702H157.192L157.922 134.833H159.701L160.545 139.718H165.625L168.823 144.26H172.618V259.403H94.7147Z" fill="white"/>
</mask>
<g mask="url(#mask6_27165_180170)">
<mask id="mask7_27165_180170" style="mask-type:luminance" maskUnits="userSpaceOnUse" x="94" y="125" width="79" height="135">
<path d="M94.7137 259.403V252.199H108.747V174.662H113.883L119.585 168.784H138.408V252.199H144.683V144.26H145.634L149.17 139.718H151.807L152.96 134.833H154.488L155.153 127.702H154.964C154.587 127.702 154.281 127.144 154.281 126.456C154.281 125.768 154.587 125.209 154.964 125.209H157.34C157.718 125.209 158.023 125.768 158.023 126.456C158.023 127.144 157.718 127.702 157.34 127.702H157.191L157.921 134.833H159.7L160.545 139.718H165.624L168.822 144.26H172.617V259.403H94.7137Z" fill="white"/>
</mask>
<g mask="url(#mask7_27165_180170)">
<path d="M94.7137 125.209V259.403H172.617V125.209H94.7137Z" fill="#041F26"/>
</g>
</g>
</g>
</g>
<defs>
<clipPath id="clip0_27165_180170">
<rect width="375" height="227" fill="white" transform="translate(0 32)"/>
</clipPath>
</defs>
</svg>
