<svg width="20" height="21" viewBox="0 0 20 21" fill="none" xmlns="http://www.w3.org/2000/svg">
<g id="Icon">
<path id="Vector" d="M15 7.16663C15 5.84054 14.4732 4.56877 13.5355 3.63109C12.5979 2.69341 11.3261 2.16663 10 2.16663C8.67392 2.16663 7.40215 2.69341 6.46447 3.63109C5.52678 4.56877 5 5.84054 5 7.16663C5 13 2.5 14.6666 2.5 14.6666H17.5C17.5 14.6666 15 13 15 7.16663Z" stroke="white" stroke-width="1.66667" stroke-linecap="round" stroke-linejoin="round"/>
<path id="Vector_2" d="M11.4419 18C11.2954 18.2526 11.0851 18.4622 10.8321 18.6079C10.5791 18.7537 10.2922 18.8304 10.0003 18.8304C9.70828 18.8304 9.42142 18.7537 9.1684 18.6079C8.91539 18.4622 8.7051 18.2526 8.55859 18" stroke="white" stroke-width="1.66667" stroke-linecap="round" stroke-linejoin="round"/>
</g>
</svg>
