<svg width="20" height="20" viewBox="0 0 20 20" fill="none" xmlns="http://www.w3.org/2000/svg">
<g id="Icon" clip-path="url(#clip0_1010_11386)">
<path id="Vector" d="M13.4973 10.5H1.47585C0.670841 10.5 0 9.93182 0 9.25C0 8.56818 0.670841 8 1.47585 8H13.5241C14.3292 8 15 8.56818 15 9.25C14.9732 9.93182 14.3292 10.5 13.4973 10.5Z" fill="white"/>
<path id="Vector_2" d="M9.33791 19.5H1.66209C0.755494 19.5 0 18.9318 0 18.25C0 17.5682 0.755494 17 1.66209 17H9.33791C10.2445 17 11 17.5682 11 18.25C11 18.9545 10.2445 19.5 9.33791 19.5Z" fill="white"/>
<path id="Vector_3" d="M18.4741 2.5H1.49864C0.681199 2.5 0 1.93182 0 1.25C0 0.568182 0.681199 0 1.49864 0H18.5014C19.3188 0 20 0.568182 20 1.25C19.9728 1.93182 19.3188 2.5 18.4741 2.5Z" fill="white"/>
</g>
<defs>
<clipPath id="clip0_1010_11386">
<rect width="20" height="20" fill="white"/>
</clipPath>
</defs>
</svg>
