<svg width="24" height="24" viewBox="0 0 24 24" fill="none" xmlns="http://www.w3.org/2000/svg">
<path d="M1 7.5559L1 7.55551C0.999937 7.39249 1.03143 7.23148 1.09224 7.08182C1.15304 6.93219 1.24172 6.79741 1.35233 6.68471C1.46289 6.57204 1.59317 6.48367 1.73523 6.42372C1.87725 6.36379 2.02882 6.33319 2.18143 6.33319H6.54514C6.88245 6.33319 7.19702 6.16315 7.38178 5.88095L9.26798 3H14.7319L16.6173 5.8808C16.802 6.16308 17.1166 6.33319 17.454 6.33319H21.8177H21.8181C21.9708 6.33313 22.1224 6.36368 22.2644 6.42359C22.4066 6.48351 22.5369 6.57187 22.6475 6.68453L23.3611 5.98395L22.6475 6.68454C22.7582 6.79724 22.8469 6.93205 22.9077 7.08171C22.9686 7.23139 23.0001 7.39245 23 7.55551V7.5559V19.7782C23 19.9411 22.9685 20.1021 22.9076 20.2517C22.8468 20.4013 22.7581 20.536 22.6475 20.6487C22.5369 20.7613 22.4067 20.8496 22.2647 20.9095L22.6534 21.8309L22.2647 20.9095C22.1227 20.9694 21.9711 21 21.8186 21H2.18143C1.87408 21 1.57552 20.8758 1.35249 20.6487C1.12885 20.4209 1 20.1081 1 19.7782L1 7.5559Z" stroke="white" stroke-width="2" stroke-linecap="round" stroke-linejoin="round"/>
<path d="M14.4284 13.3046C14.4284 14.6983 13.3239 15.7967 11.9999 15.7967C10.6758 15.7967 9.57129 14.6983 9.57129 13.3046C9.57129 11.9109 10.6758 10.8125 11.9999 10.8125C13.3239 10.8125 14.4284 11.9109 14.4284 13.3046Z" stroke="white" stroke-width="2" stroke-linecap="round" stroke-linejoin="round"/>
</svg>
