<svg width="139" height="106" viewBox="0 0 139 106" fill="none" xmlns="http://www.w3.org/2000/svg">
<g clip-path="url(#clip0_9582_55124)">
<path d="M124.471 9.89844H54.1921C53.8153 9.89844 53.5098 10.2058 53.5098 10.5849V105.317C53.5098 105.696 53.8153 106.003 54.1921 106.003H124.471C124.848 106.003 125.154 105.696 125.154 105.317V10.5849C125.154 10.2058 124.848 9.89844 124.471 9.89844Z" fill="#F6FFFE"/>
<path d="M124.471 106.003H54.1921C54.0112 106.003 53.8378 105.931 53.7098 105.802C53.5819 105.673 53.51 105.499 53.5098 105.317V10.5849C53.51 10.4029 53.5819 10.2284 53.7098 10.0997C53.8378 9.97104 54.0112 9.89865 54.1921 9.89844H124.471C124.652 9.89865 124.826 9.97104 124.954 10.0997C125.082 10.2284 125.154 10.4029 125.154 10.5849V105.317C125.154 105.499 125.082 105.673 124.954 105.802C124.826 105.931 124.652 106.003 124.471 106.003ZM54.1921 10.2417C54.1016 10.2418 54.0149 10.278 53.951 10.3423C53.887 10.4067 53.851 10.4939 53.8509 10.5849V105.317C53.851 105.408 53.887 105.495 53.951 105.56C54.0149 105.624 54.1016 105.66 54.1921 105.66H124.471C124.562 105.66 124.649 105.624 124.713 105.56C124.777 105.495 124.813 105.408 124.813 105.317V10.5849C124.813 10.4939 124.777 10.4067 124.713 10.3423C124.649 10.278 124.562 10.2418 124.471 10.2417H54.1921Z" fill="#CACACA"/>
<path d="M114.407 31.4102H64.2559C63.9166 31.4102 63.5912 31.2746 63.3513 31.0332C63.1113 30.7918 62.9766 30.4644 62.9766 30.1231C62.9766 29.7817 63.1113 29.4543 63.3513 29.2129C63.5912 28.9715 63.9166 28.8359 64.2559 28.8359H114.407C114.746 28.8359 115.071 28.9715 115.311 29.2129C115.551 29.4543 115.686 29.7817 115.686 30.1231C115.686 30.4644 115.551 30.7918 115.311 31.0332C115.071 31.2746 114.746 31.4102 114.407 31.4102Z" fill="#E6E6E6"/>
<path d="M114.407 39.7383H64.2559C63.9166 39.7383 63.5912 39.6027 63.3513 39.3613C63.1113 39.1199 62.9766 38.7925 62.9766 38.4512C62.9766 38.1098 63.1113 37.7824 63.3513 37.5411C63.5912 37.2997 63.9166 37.1641 64.2559 37.1641H114.407C114.746 37.1641 115.071 37.2997 115.311 37.5411C115.551 37.7824 115.686 38.1098 115.686 38.4512C115.686 38.7925 115.551 39.1199 115.311 39.3613C115.071 39.6027 114.746 39.7383 114.407 39.7383Z" fill="#E6E6E6"/>
<path d="M114.407 48.0586H64.2559C63.9166 48.0586 63.5912 47.923 63.3513 47.6816C63.1113 47.4402 62.9766 47.1129 62.9766 46.7715C62.9766 46.4301 63.1113 46.1027 63.3513 45.8614C63.5912 45.62 63.9166 45.4844 64.2559 45.4844H114.407C114.746 45.4844 115.071 45.62 115.311 45.8614C115.551 46.1027 115.686 46.4301 115.686 46.7715C115.686 47.1129 115.551 47.4402 115.311 47.6816C115.071 47.923 114.746 48.0586 114.407 48.0586Z" fill="#E6E6E6"/>
<path d="M114.407 56.3867H64.2559C63.9166 56.3867 63.5912 56.2511 63.3513 56.0098C63.1113 55.7684 62.9766 55.441 62.9766 55.0996C62.9766 54.7583 63.1113 54.4309 63.3513 54.1895C63.5912 53.9481 63.9166 53.8125 64.2559 53.8125H114.407C114.746 53.8125 115.071 53.9481 115.311 54.1895C115.551 54.4309 115.686 54.7583 115.686 55.0996C115.686 55.441 115.551 55.7684 115.311 56.0098C115.071 56.2511 114.746 56.3867 114.407 56.3867Z" fill="#E6E6E6"/>
<path d="M114.407 64.7071H64.2559C63.9166 64.7071 63.5912 64.5714 63.3513 64.3301C63.1113 64.0887 62.9766 63.7613 62.9766 63.4199C62.9766 63.0786 63.1113 62.7512 63.3513 62.5098C63.5912 62.2684 63.9166 62.1328 64.2559 62.1328H114.407C114.746 62.1328 115.071 62.2684 115.311 62.5098C115.551 62.7512 115.686 63.0786 115.686 63.4199C115.686 63.7613 115.551 64.0887 115.311 64.3301C115.071 64.5714 114.746 64.7071 114.407 64.7071Z" fill="#E6E6E6"/>
<path d="M64.1864 47.4515C64.1557 47.5589 64.1336 47.6686 64.1201 47.7795L55.231 52.2935L53.2052 50.9635L50.8105 53.777L54.1694 56.4821C54.4407 56.7006 54.7752 56.8247 55.1226 56.8357C55.4701 56.8467 55.8116 56.744 56.0961 56.5431L65.3675 49.9944C65.7599 50.1662 66.1951 50.2137 66.615 50.1306C67.0349 50.0475 67.4198 49.8377 67.7183 49.5292C68.0169 49.2207 68.215 48.828 68.2863 48.4034C68.3577 47.9789 68.2988 47.5425 68.1177 47.1524C67.9365 46.7623 67.6415 46.437 67.2721 46.2196C66.9026 46.0023 66.4761 45.9033 66.0493 45.9357C65.6226 45.9682 65.2158 46.1306 64.883 46.4013C64.5502 46.6721 64.3072 47.0384 64.1864 47.4515Z" fill="#FFB6B6"/>
<path d="M54.9412 52.4617L51.9944 55.967C51.9106 56.0667 51.8063 56.1471 51.6888 56.2027C51.5713 56.2582 51.4433 56.2876 51.3135 56.2889C51.1836 56.2902 51.0551 56.2633 50.9365 56.2101C50.8179 56.1569 50.7121 56.0786 50.6264 55.9806L47.6208 52.5447C47.1158 52.1103 46.8026 51.4921 46.7501 50.8258C46.6975 50.1594 46.9097 49.4993 47.3403 48.9902C47.7708 48.481 48.3845 48.1645 49.0467 48.11C49.7089 48.0555 50.3656 48.2674 50.8727 48.6993L54.7274 51.1022C54.8377 51.171 54.932 51.263 55.0039 51.3718C55.0757 51.4806 55.1234 51.6037 55.1437 51.7327C55.164 51.8617 55.1564 51.9936 55.1214 52.1194C55.0865 52.2452 55.025 52.362 54.9412 52.4617Z" fill="#6C63FF"/>
<path d="M43.846 103.842H45.9374L46.9322 95.7266H43.8457L43.846 103.842Z" fill="#FFB6B6"/>
<path d="M43.3105 103.164L47.4291 103.164C48.1251 103.164 48.7929 103.442 49.2851 103.937C49.7773 104.433 50.0538 105.104 50.0539 105.805V105.89L43.3107 105.891L43.3105 103.164Z" fill="#2F2E41"/>
<path d="M43.373 81.253L43.9677 83.27L51.9841 81.9223L51.1063 78.9453L43.373 81.253Z" fill="#FFB6B6"/>
<path d="M43.8774 80.5391L45.0485 84.5115C45.2464 85.1829 45.1711 85.9061 44.8392 86.5216C44.5073 87.1372 43.9459 87.5949 43.2786 87.794L43.1968 87.8184L41.2793 81.3144L43.8774 80.5391Z" fill="#2F2E41"/>
<path d="M114.835 83.418H81.5637C81.0949 83.418 80.7148 82.8417 80.7148 82.1309C80.7148 81.42 81.0949 80.8438 81.5637 80.8438H114.835C115.304 80.8438 115.684 81.42 115.684 82.1309C115.684 82.8417 115.304 83.418 114.835 83.418Z" fill="#E6E6E6"/>
<path d="M114.835 90.8008H81.5637C81.0949 90.8008 80.7148 90.2245 80.7148 89.5137C80.7148 88.8028 81.0949 88.2266 81.5637 88.2266H114.835C115.304 88.2266 115.684 88.8028 115.684 89.5137C115.684 90.2245 115.304 90.8008 114.835 90.8008Z" fill="#E6E6E6"/>
<path d="M64.9786 77.1006C64.6768 77.6067 64.2507 78.0263 63.7413 78.319C63.2319 78.6118 62.6562 78.7679 62.0696 78.7723L49.5005 82.8206L48.9258 79.467L56.5366 75.3124L49.1629 69.9695L54.5652 63.6094L64.3774 72.8102C64.9507 73.348 65.3233 74.0674 65.4327 74.8484C65.5422 75.6293 65.3819 76.4243 64.9786 77.1006Z" fill="#2F2E41"/>
<path d="M46.7499 100.029H43.6465C40.8601 80.8132 38.0238 61.544 46.4052 54.3516L56.2902 55.9706L55.0258 64.4122L49.5087 70.7723L46.7499 100.029Z" fill="#2F2E41"/>
<path d="M55.6837 59.4605C51.5 62.3287 46.0956 61.6543 43.8398 57.3805C47.0809 51.8888 47.7632 47.9416 45.1542 46.1396C44.7361 44.6398 44.8921 43.0367 45.5915 41.6469C46.2908 40.2571 47.4827 39.1817 48.9317 38.6328L53.8741 40.7143C58.0704 44.1559 58.8969 47.8838 57.3224 51.8157L55.6837 59.4605Z" fill="#EF9A07"/>
<path d="M138.5 105.656H0.5V105.999H138.5V105.656Z" fill="#CACACA"/>
<path d="M26.6571 97.8315C27.2918 98.056 27.9732 98.1122 28.6357 97.9948C29.2982 97.8774 29.9195 97.5903 30.4398 97.1612C31.7647 96.0424 32.1797 94.1993 32.5179 92.4932L33.5176 87.4453L31.4249 88.8946C29.9198 89.9373 28.3807 91.0134 27.3386 92.5236C26.2965 94.0338 25.8416 96.0954 26.679 97.7296" fill="#12486B"/>
<path d="M26.9807 104.294C26.7166 102.363 26.4463 100.408 26.6314 98.4558C26.7955 96.7225 27.321 95.0299 28.3911 93.6418C28.959 92.9065 29.6501 92.2764 30.4333 91.78C30.638 91.6502 30.8256 91.976 30.6221 92.105C29.267 92.9666 28.2189 94.2389 27.6289 95.7385C26.9773 97.4061 26.8726 99.2238 26.985 100.995C27.0532 102.067 27.1968 103.131 27.3418 104.194C27.3533 104.242 27.3461 104.293 27.3219 104.335C27.2976 104.378 27.2581 104.411 27.2112 104.425C27.1633 104.438 27.1123 104.432 27.0692 104.407C27.026 104.383 26.9944 104.342 26.9811 104.294H26.9807Z" fill="#F2F2F2"/>
<path d="M10.1934 101.403C10.5166 101.787 10.9327 102.081 11.4016 102.257C11.8706 102.432 12.3765 102.483 12.8706 102.404C14.1387 102.188 15.0943 101.163 15.9491 100.196L18.478 97.3359L16.5932 97.4741C15.238 97.5735 13.8482 97.6814 12.6151 98.256C11.382 98.8305 10.3194 99.9809 10.2457 101.346" fill="#12486B"/>
<path d="M8.02316 105.396C8.46753 104.32 8.91564 103.229 9.59746 102.279C10.1823 101.418 10.9988 100.742 11.9515 100.331C12.4654 100.125 13.0112 100.01 13.5643 99.9923C13.7086 99.9875 13.7078 100.213 13.5643 100.217C12.6064 100.25 11.6834 100.587 10.9283 101.181C10.0909 101.843 9.49067 102.748 9.01611 103.696C8.7292 104.269 8.48356 104.862 8.23895 105.454C8.23041 105.483 8.21159 105.506 8.18627 105.521C8.16096 105.536 8.13102 105.541 8.10248 105.534C8.0739 105.526 8.04954 105.507 8.03469 105.482C8.01984 105.456 8.0157 105.425 8.02316 105.396Z" fill="#F2F2F2"/>
<path d="M28.877 101.196C29.1491 101.612 29.5233 101.951 29.9634 102.179C30.4034 102.408 30.8946 102.518 31.3894 102.5C32.6613 102.44 33.7216 101.547 34.676 100.698L37.4991 98.1908L35.6308 98.1008C34.2871 98.0361 32.9088 97.9757 31.6289 98.3926C30.3491 98.8094 29.1688 99.8127 28.9348 101.145" fill="#12486B"/>
<path d="M26.2355 105.404C27.5036 103.147 28.9747 100.638 31.603 99.8359C32.3339 99.6136 33.1002 99.534 33.8607 99.6013C34.1004 99.622 34.0405 99.9938 33.8013 99.973C32.5265 99.8665 31.2542 100.205 30.1985 100.932C29.1827 101.628 28.3917 102.595 27.7222 103.621C27.3128 104.249 26.9448 104.904 26.5774 105.558C26.46 105.767 26.1168 105.616 26.2355 105.404Z" fill="#F2F2F2"/>
<path d="M135.194 101.883C134.705 102.056 134.179 102.099 133.668 102.009C133.156 101.918 132.677 101.697 132.275 101.366C131.253 100.502 130.932 99.0799 130.672 97.7629L129.9 93.8672L131.516 94.9861C132.677 95.7908 133.865 96.6211 134.669 97.7866C135.473 98.952 135.824 100.543 135.178 101.804" fill="#12486B"/>
<path d="M134.749 105.576C134.891 104.535 135.037 103.481 134.938 102.428C134.873 101.49 134.544 100.59 133.989 99.8326C133.682 99.436 133.31 99.0963 132.887 98.8286C132.777 98.7588 132.676 98.9343 132.785 99.0038C133.516 99.4685 134.081 100.155 134.399 100.963C134.751 101.862 134.807 102.843 134.746 103.798C134.71 104.375 134.632 104.949 134.554 105.522C134.548 105.548 134.552 105.576 134.565 105.599C134.578 105.622 134.599 105.639 134.625 105.647C134.65 105.654 134.678 105.65 134.701 105.637C134.724 105.624 134.742 105.602 134.749 105.576Z" fill="#F2F2F2"/>
<path d="M40.2396 62.8481C40.5005 62.7871 40.745 62.6693 40.9558 62.503C41.1666 62.3367 41.3386 62.1259 41.4597 61.8854C41.5808 61.645 41.648 61.3808 41.6566 61.1114C41.6652 60.842 41.615 60.574 41.5095 60.3263L48.2649 44.9714L44.4004 43.9922L38.9752 59.3934C38.5733 59.5993 38.2604 59.9464 38.0958 60.3688C37.9312 60.7913 37.9264 61.2599 38.0822 61.6857C38.2381 62.1115 38.5438 62.4651 38.9414 62.6793C39.339 62.8935 39.8009 62.9536 40.2396 62.8481Z" fill="#FFB6B6"/>
<path d="M47.3509 47.7159L43.5925 45.9459C43.4855 45.8956 43.3906 45.8226 43.3142 45.732C43.2379 45.6414 43.1818 45.5353 43.1498 45.421C43.1179 45.3066 43.1108 45.1867 43.129 45.0693C43.1473 44.952 43.1905 44.8399 43.2557 44.7409L45.5398 41.2704C45.7993 40.7217 46.2643 40.299 46.833 40.0947C47.4017 39.8903 48.0277 39.9211 48.5739 40.1803C49.12 40.4395 49.5418 40.9059 49.7468 41.4774C49.9518 42.0488 49.9233 42.6787 49.6676 43.2291L48.4864 47.2042C48.4526 47.318 48.3947 47.4231 48.3169 47.5124C48.239 47.6017 48.1429 47.6731 48.0351 47.7216C47.9274 47.7702 47.8105 47.7948 47.6924 47.7938C47.5743 47.7928 47.4579 47.7663 47.3509 47.7159Z" fill="#EF9A07"/>
<path d="M55.6867 37.4993H45.793C45.5895 37.4991 45.3944 37.4176 45.2505 37.2729C45.1066 37.1281 45.0256 36.9318 45.0254 36.727V32.4366C45.0254 30.9119 45.6274 29.4496 46.6991 28.3714C47.7708 27.2932 49.2243 26.6875 50.7399 26.6875C52.2554 26.6875 53.7089 27.2932 54.7806 28.3714C55.8523 29.4496 56.4543 30.9119 56.4543 32.4366V36.727C56.4541 36.9318 56.3731 37.1281 56.2292 37.2729C56.0853 37.4176 55.8902 37.4991 55.6867 37.4993Z" fill="#2F2E41"/>
<path d="M52.1525 37.4379C54.4664 37.4379 56.3422 35.5508 56.3422 33.2229C56.3422 30.895 54.4664 29.0078 52.1525 29.0078C49.8387 29.0078 47.9629 30.895 47.9629 33.2229C47.9629 35.5508 49.8387 37.4379 52.1525 37.4379Z" fill="#FFB6B6"/>
<path d="M57.8078 32.8602H51.758L51.696 31.9864L51.3858 32.8602H50.4542L50.3313 31.1283L49.7165 32.8602H47.9141V32.7744C47.9154 31.5687 48.3921 30.4127 49.2395 29.5601C50.087 28.7075 51.236 28.2279 52.4344 28.2266H53.2874C54.4858 28.2279 55.6348 28.7075 56.4823 29.5601C57.3297 30.4127 57.8064 31.5686 57.8078 32.7744V32.8602Z" fill="#2F2E41"/>
</g>
<defs>
<clipPath id="clip0_9582_55124">
<rect width="138" height="106" fill="white" transform="translate(0.5)"/>
</clipPath>
</defs>
</svg>
