<svg width="26" height="20" viewBox="0 0 26 20" fill="none" xmlns="http://www.w3.org/2000/svg">
<path d="M19.5 13.125C20.5989 13.125 21.4898 12.2296 21.4898 11.125C21.4898 10.0204 20.5989 9.12499 19.5 9.12499C18.401 9.12499 17.5102 10.0204 17.5102 11.125C17.5102 12.2296 18.401 13.125 19.5 13.125Z" fill="#016B83"/>
<path d="M19.5 13.125C17.8955 13.125 16.5573 14.2702 16.25 15.7917H22.75C22.4427 14.2702 21.1044 13.125 19.5 13.125Z" fill="#016B83"/>
<path d="M3.65625 11.6667C3.43188 11.6667 3.25 11.8532 3.25 12.0833C3.25 12.3135 3.43188 12.5 3.65625 12.5H12.5938C12.8181 12.5 13 12.3135 13 12.0833C13 11.8532 12.8181 11.6667 12.5938 11.6667H3.65625Z" fill="#016B83"/>
<path d="M3.25 14.5833C3.25 14.3532 3.43188 14.1667 3.65625 14.1667H9.34375C9.56812 14.1667 9.75 14.3532 9.75 14.5833C9.75 14.8135 9.56812 15 9.34375 15H3.65625C3.43188 15 3.25 14.8135 3.25 14.5833Z" fill="#016B83"/>
<path d="M3.25 4.44444C3.25 3.8308 3.73502 3.33333 4.33333 3.33333H4.875V8.33333H4.33333C3.73502 8.33333 3.25 7.83587 3.25 7.22222V4.44444Z" fill="#016B83"/>
<path d="M5.6875 3.33333H7.3125V5.83333H5.6875V3.33333Z" fill="#016B83"/>
<path d="M9.75 6.66667H5.6875V8.33333H8.66667C9.26497 8.33333 9.75 7.83587 9.75 7.22222V6.66667Z" fill="#016B83"/>
<path d="M8.125 3.33333H8.66667C9.26497 3.33333 9.75 3.8308 9.75 4.44444V5.83333H8.125V3.33333Z" fill="#016B83"/>
<path fill-rule="evenodd" clip-rule="evenodd" d="M3.25 0C1.45507 0 0 1.49238 0 3.33333V16.6667C0 18.5076 1.45507 20 3.25 20H22.75C24.5449 20 26 18.5076 26 16.6667V3.33333C26 1.49238 24.5449 0 22.75 0H3.25ZM2.70833 1.66667C2.11002 1.66667 1.625 2.16413 1.625 2.77778V17.2222C1.625 17.8359 2.11002 18.3333 2.70833 18.3333H23.2917C23.89 18.3333 24.375 17.8359 24.375 17.2222V2.77778C24.375 2.16413 23.89 1.66667 23.2917 1.66667H2.70833Z" fill="#016B83"/>
</svg>
