<svg width="18" height="25" viewBox="0 0 18 25" fill="none" xmlns="http://www.w3.org/2000/svg">
<path d="M14.0213 24.6142H3.3384C2.45301 24.6142 1.60398 24.2624 0.977794 23.6364C0.351844 23.0102 0 22.1612 0 21.2758V6.0259C0 5.14051 0.351862 4.29124 0.977794 3.66529C1.60398 3.0391 2.45301 2.6875 3.3384 2.6875H14.0213C14.9067 2.6875 15.7557 3.03913 16.3819 3.66529C17.0078 4.29124 17.3597 5.14051 17.3597 6.0259V21.2758C17.3597 22.1612 17.0078 23.0102 16.3819 23.6364C15.7557 24.2624 14.9067 24.6142 14.0213 24.6142ZM3.3384 4.02286C2.80722 4.02286 2.29771 4.23407 1.92208 4.60969C1.54645 4.98531 1.33549 5.49484 1.33549 6.026V21.2759C1.33549 21.8071 1.54647 22.3166 1.92208 22.6922C2.2977 23.0679 2.80724 23.2788 3.3384 23.2788H14.0213C14.5525 23.2788 15.062 23.0678 15.4376 22.6922C15.8132 22.3166 16.0242 21.8071 16.0242 21.2759V6.026C16.0242 5.49483 15.8132 4.98532 15.4376 4.60969C15.062 4.23406 14.5524 4.02286 14.0213 4.02286H3.3384Z" fill="#016B83"/>
<path d="M0.667858 7.64048C0.298995 7.64048 0 7.34148 0 6.97262V4.68933C0.00069856 4.06058 0.177447 3.44465 0.510214 2.91116C0.842981 2.37767 1.31852 1.94827 1.88295 1.67136C2.38711 1.45596 2.92483 1.32951 3.47203 1.29738H3.83251L5.87567 0.963673L12.5525 0.00215419C13.4621 -0.0304477 14.3458 0.308142 15.0006 0.940364C15.6554 1.57239 16.025 2.44378 16.0243 3.35379C16.0243 3.72265 15.7255 4.02141 15.3567 4.02141C14.9878 4.02141 14.689 3.72264 14.689 3.35379C14.689 2.82261 14.4781 2.3131 14.1022 1.93747C13.7266 1.56185 13.2171 1.35088 12.6859 1.35088L6.0091 2.29887L4.00618 2.57924H3.60541C3.20697 2.5995 2.81433 2.68519 2.44365 2.83306C2.1018 3.00515 1.81609 3.27132 1.61978 3.59988C1.42347 3.92869 1.32497 4.30643 1.33545 4.68921V6.9725C1.33545 7.14972 1.26512 7.31947 1.13984 7.44476C1.01456 7.57004 0.844799 7.64037 0.667817 7.64037L0.667858 7.64048Z" fill="#016B83"/>
<path d="M8.67993 18.1899C7.47578 18.1899 6.321 17.7116 5.46958 16.8602C4.61799 16.0086 4.13965 14.8538 4.13965 13.6497C4.13965 12.4455 4.61796 11.2907 5.46958 10.4393C6.32094 9.58796 7.47572 9.10938 8.67993 9.10938C9.88414 9.10938 11.0389 9.58792 11.8903 10.4393C12.7419 11.2907 13.2202 12.4454 13.2202 13.6497C13.2202 14.8538 12.7419 16.0086 11.8903 16.8602C11.0389 17.7115 9.88414 18.1899 8.67993 18.1899ZM8.67993 10.4448V10.445C7.82995 10.445 7.01467 10.7827 6.41364 11.3837C5.81261 11.9847 5.47495 12.7998 5.47495 13.6498C5.47495 14.4997 5.81261 15.315 6.41364 15.9161C7.01467 16.5171 7.82995 16.8547 8.67993 16.8547C9.52991 16.8547 10.3452 16.5171 10.9462 15.9161C11.5473 15.315 11.8849 14.4997 11.8849 13.6498C11.8849 12.7998 11.5473 11.9847 10.9462 11.3837C10.3452 10.7827 9.52991 10.445 8.67993 10.445V10.4448Z" fill="#016B83"/>
<path d="M8.67932 18.1899C8.31047 18.1899 8.01172 17.8912 8.01172 17.5223V9.77723C8.01172 9.40837 8.31048 9.10938 8.67932 9.10938C9.04817 9.10938 9.34693 9.40838 9.34693 9.77723V17.5223V17.5221C9.34693 17.6993 9.2766 17.8691 9.15133 17.9943C9.02628 18.1194 8.85629 18.1897 8.67931 18.1897L8.67932 18.1899Z" fill="#016B83"/>
<path d="M11.7906 12.9837H5.56801C5.19915 12.9837 4.90039 12.6849 4.90039 12.3161C4.90039 11.9472 5.19916 11.6484 5.56801 11.6484H11.8043H11.804C12.1729 11.6484 12.4719 11.9472 12.4719 12.3161C12.4719 12.6849 12.1729 12.9837 11.804 12.9837H11.7906Z" fill="#016B83"/>
<path d="M11.7906 15.6556H5.56801C5.19915 15.6556 4.90039 15.3566 4.90039 14.9879C4.90039 14.6191 5.19916 14.3203 5.56801 14.3203H11.8043H11.804C12.1729 14.3203 12.4719 14.6191 12.4719 14.9879C12.4719 15.3566 12.1729 15.6556 11.804 15.6556H11.7906Z" fill="#016B83"/>
<path d="M12.6729 7.64018H4.66078C4.29215 7.64018 3.99316 7.34118 3.99316 6.97232C3.99316 6.60368 4.29216 6.30469 4.66078 6.30469H12.6729C13.0416 6.30469 13.3406 6.60369 13.3406 6.97232C13.3406 7.34118 13.0416 7.64018 12.6729 7.64018Z" fill="#016B83"/>
<path d="M10.8572 20.9917H6.51723C6.1486 20.9917 5.84961 20.6927 5.84961 20.3239C5.84961 19.9552 6.14861 19.6562 6.51723 19.6562H10.8572C11.2261 19.6562 11.5249 19.9553 11.5249 20.3239C11.5249 20.6927 11.2261 20.9917 10.8572 20.9917Z" fill="#016B83"/>
</svg>
