<svg width="210" height="210" viewBox="0 0 210 210" fill="none" xmlns="http://www.w3.org/2000/svg">
<path d="M172.581 115.709L178.19 115.592L180.953 115.545C181.872 115.525 182.786 115.529 183.703 115.521L183.515 115.709L183.493 111.009L183.702 111.219L178.141 111.192C176.288 111.19 174.434 111.145 172.581 111.123L172.695 111.009C172.687 111.778 172.659 112.551 172.64 113.334L172.581 115.709ZM172.581 115.709L172.521 113.384C172.502 112.599 172.474 111.807 172.466 111.009L172.465 110.896L172.581 110.894C174.434 110.873 176.288 110.827 178.141 110.825L183.702 110.799L183.913 110.798L183.912 111.009L183.889 115.709L183.889 115.897L183.702 115.896C182.765 115.888 181.825 115.893 180.89 115.873L178.093 115.826L172.581 115.709Z" fill="#EBEBEB"/>
<path d="M178.785 121.635L184.394 121.518L187.157 121.471C188.076 121.451 188.99 121.455 189.907 121.448L189.719 121.635L189.697 116.935L189.906 117.145L184.346 117.118C182.492 117.116 180.638 117.071 178.785 117.049L178.899 116.935C178.891 117.704 178.863 118.477 178.844 119.26L178.785 121.635ZM178.785 121.635L178.725 119.31C178.706 118.526 178.678 117.733 178.67 116.935L178.669 116.822L178.785 116.82C180.638 116.799 182.492 116.754 184.346 116.752L189.906 116.725L190.117 116.724L190.116 116.935L190.094 121.635L190.093 121.823L189.906 121.822C188.969 121.815 188.029 121.819 187.094 121.799L184.297 121.752L178.785 121.635Z" fill="#EBEBEB"/>
<path d="M166.354 121.635H177.476V116.935H166.354V121.635Z" fill="#EBEBEB"/>
<path d="M20.0936 154.076L25.7032 153.958L28.4663 153.911C29.3853 153.892 30.2992 153.896 31.2157 153.888L31.0283 154.076L31.0057 149.376L31.2152 149.585L25.6544 149.559C23.801 149.557 21.9471 149.512 20.0936 149.49L20.2083 149.375C20.2003 150.144 20.1722 150.918 20.1533 151.701L20.0936 154.076ZM20.0936 154.076L20.034 151.751C20.0151 150.966 19.987 150.173 19.979 149.376L19.9777 149.262L20.0936 149.261C21.9471 149.24 23.801 149.194 25.6544 149.192L31.2152 149.166L31.4261 149.165L31.4252 149.376L31.4026 154.076L31.4017 154.264L31.2152 154.263C30.2778 154.255 29.3383 154.26 28.4033 154.24L25.6057 154.193L20.0936 154.076Z" fill="#EBEBEB"/>
<path d="M26.2976 160.002H37.4196V155.302H26.2976V160.002Z" fill="#EBEBEB"/>
<path d="M48.9094 66.302L54.5189 66.1848L57.2821 66.1378C58.2011 66.118 59.115 66.1222 60.0314 66.1147L59.8441 66.302L59.8214 61.6022L60.031 61.8118L54.4702 61.7853C52.6168 61.7832 50.7629 61.7379 48.9094 61.7164L49.0241 61.6018C49.0161 62.3708 48.988 63.1444 48.9691 63.9269L48.9094 66.302ZM48.9094 66.302L48.8498 63.9769C48.8309 63.1927 48.8027 62.3998 48.7948 61.6022L48.7935 61.4888L48.9094 61.4875C50.7629 61.4661 52.6168 61.4208 54.4702 61.4187L60.031 61.3922L60.2419 61.3914L60.2406 61.6022L60.2179 66.302L60.2171 66.4906L60.0306 66.4889C59.0932 66.4813 58.1536 66.4855 57.2187 66.4658L54.4211 66.4188L48.9094 66.302Z" fill="#EBEBEB"/>
<path d="M26.2442 25.6795H37.3662V20.9797H26.2442V25.6795Z" fill="#EBEBEB"/>
<path d="M20.0403 31.6054L25.6498 31.4882L28.413 31.4412C29.332 31.4214 30.2459 31.4256 31.1623 31.4181L30.975 31.6054L30.9523 26.9056L31.1619 27.1152L25.6011 27.0887C23.7476 27.0866 21.8938 27.0413 20.0403 27.0198L20.155 26.9052C20.147 27.6742 20.1188 28.4478 20.0999 29.2303L20.0403 31.6054ZM20.0403 31.6054L19.9807 29.2803C19.9618 28.4961 19.9336 27.7032 19.9256 26.9056L19.9244 26.7922L20.0403 26.7909C21.8938 26.7695 23.7476 26.7242 25.6011 26.7221L31.1619 26.6956L31.3727 26.6948L31.3719 26.9056L31.3492 31.6054L31.3484 31.794L31.1619 31.7923C30.2245 31.7847 29.2849 31.7889 28.35 31.7692L25.5528 31.7226L20.0403 31.6054Z" fill="#EBEBEB"/>
<path d="M172.581 25.6792L178.19 25.562L180.953 25.515C181.872 25.4952 182.786 25.4994 183.703 25.4919L183.515 25.6792L183.493 20.9794L183.702 21.189L178.141 21.1625C176.288 21.1604 174.434 21.1155 172.581 21.0936L172.695 20.979C172.687 21.748 172.659 22.5216 172.64 23.3041L172.581 25.6792ZM172.581 25.6792L172.521 23.3541C172.502 22.5699 172.474 21.777 172.466 20.9794L172.465 20.866L172.581 20.8647C174.434 20.8433 176.288 20.798 178.141 20.7959L183.702 20.7694L183.913 20.7686L183.912 20.9794L183.889 25.6792L183.889 25.8678L183.702 25.8665C182.765 25.859 181.825 25.8632 180.89 25.8434L178.093 25.7964L172.581 25.6792Z" fill="#EBEBEB"/>
<path d="M155.001 84.4501H166.123V79.7503H155.001V84.4501Z" fill="#EBEBEB"/>
<path d="M36.6353 50.148C37.0612 49.8838 37.5938 49.8985 38.023 50.1576C38.1394 50.2278 38.2582 50.2954 38.3788 50.3605C38.501 50.426 38.6236 50.4878 38.7471 50.5461C39.1986 50.7595 39.5048 51.1934 39.5203 51.6927L39.5732 53.3992L45.1315 53.2266L45.079 51.521C45.0635 51.0203 45.3373 50.5621 45.7771 50.3219C46.019 50.19 46.2542 50.0447 46.4818 49.8863C46.8913 49.602 47.4222 49.5621 47.8619 49.7981L49.3626 50.6028L51.9918 45.7006L50.4911 44.8959C50.0514 44.6603 49.791 44.1962 49.8011 43.6972C49.807 43.4204 49.7977 43.1441 49.7738 42.8694C49.7305 42.3704 49.9607 41.8887 50.3861 41.6245L51.836 40.7244L48.9048 35.9986L47.447 36.9016C47.0232 37.1641 46.4932 37.149 46.0664 36.8915C45.9501 36.821 45.8312 36.7538 45.7107 36.6891C45.5897 36.6244 45.4679 36.5627 45.3449 36.5047C44.8917 36.2909 44.5851 35.855 44.57 35.3543L44.5183 33.6466L38.96 33.8192L39.0142 35.5211C39.0302 36.0213 38.7568 36.4799 38.3174 36.7202C38.0747 36.8529 37.8386 36.999 37.6102 37.1582C37.2002 37.4434 36.6689 37.4833 36.2288 37.2473L34.729 36.443L32.0998 41.3452L33.6 42.1495C34.0402 42.3855 34.301 42.8501 34.2901 43.3494C34.2838 43.6275 34.2926 43.9051 34.3165 44.1806C34.3594 44.6796 34.1284 45.1609 33.7029 45.4242L32.2556 46.3209L35.1868 51.0464L36.6353 50.148ZM38.0285 41.3708C39.2175 39.1541 41.9819 38.3195 44.1987 39.5085C46.4159 40.6976 47.2462 43.4599 46.0572 45.6767C44.8682 47.8934 42.1096 48.7263 39.8929 47.5373C37.6761 46.3482 36.8395 43.588 38.0285 41.3708Z" fill="#EBEBEB"/>
<path d="M182.285 107.326C182.461 107.021 182.795 106.854 183.145 106.872C183.241 106.877 183.336 106.879 183.432 106.879C183.529 106.879 183.626 106.877 183.721 106.872C184.07 106.854 184.403 107.021 184.578 107.324L185.175 108.36L188.55 106.413L187.953 105.377C187.777 105.073 187.795 104.699 187.987 104.406C188.092 104.244 188.189 104.076 188.278 103.904C188.436 103.593 188.751 103.392 189.1 103.392H190.293V99.495H189.1C188.751 99.495 188.436 99.2947 188.278 98.9835C188.189 98.8104 188.092 98.6429 187.987 98.4812C187.795 98.1876 187.777 97.8138 187.953 97.5097L188.55 96.474L185.175 94.5269L184.574 95.5672C184.4 95.8696 184.067 96.0359 183.718 96.0179C183.624 96.0132 183.528 96.0107 183.432 96.0107C183.335 96.0107 183.24 96.0132 183.145 96.0179C182.794 96.0359 182.461 95.8683 182.285 95.5643L181.688 94.5269L178.314 96.474L178.911 97.5068C179.086 97.8104 179.069 98.1842 178.878 98.4778C178.772 98.6403 178.675 98.8088 178.586 98.9822C178.428 99.2939 178.113 99.4946 177.763 99.4946H176.571V103.392H177.763C178.113 103.392 178.428 103.592 178.586 103.904C178.675 104.078 178.772 104.246 178.878 104.409C179.069 104.703 179.086 105.076 178.911 105.38L178.314 106.412L181.688 108.36L182.285 107.326ZM180.239 101.445C180.239 99.6828 181.67 98.2523 183.432 98.2523C185.194 98.2523 186.622 99.6828 186.622 101.445C186.622 103.207 185.194 104.635 183.432 104.635C181.67 104.635 180.239 103.207 180.239 101.445Z" fill="#EBEBEB"/>
<path d="M20.7409 57.8205C21.0449 57.9961 21.2121 58.33 21.194 58.6803C21.189 58.7756 21.1869 58.871 21.1869 58.9671C21.1869 59.0642 21.189 59.1608 21.194 59.2561C21.2117 59.6055 21.0454 59.9382 20.7421 60.1129L19.7064 60.7106L21.6535 64.0848L22.6892 63.4876C22.9929 63.3125 23.3667 63.3297 23.6607 63.5216C23.8224 63.627 23.99 63.7245 24.1626 63.8123C24.4738 63.971 24.6742 64.2856 24.6742 64.635V65.8278H28.5713V64.635C28.5713 64.2856 28.7717 63.971 29.0829 63.8123C29.2559 63.7241 29.4235 63.627 29.5852 63.5216C29.8788 63.3297 30.2526 63.3125 30.5563 63.4876L31.592 64.0848L33.5391 60.7106L32.4992 60.1095C32.1968 59.9348 32.0305 59.6026 32.0485 59.2536C32.0536 59.1587 32.0557 59.0629 32.0557 58.9667C32.0557 58.8705 32.0531 58.7752 32.0485 58.6799C32.0305 58.3292 32.198 57.9957 32.5021 57.8205L33.5395 57.2233L31.5924 53.849L30.5596 54.4458C30.256 54.6214 29.8822 54.6042 29.5886 54.4131C29.426 54.3072 29.258 54.2098 29.0842 54.1216C28.7725 53.9633 28.5718 53.6483 28.5718 53.2984V52.106H24.6746V53.2984C24.6746 53.6483 24.4742 53.9633 24.1622 54.1216C23.9883 54.2098 23.8199 54.3072 23.6578 54.4131C23.3638 54.6046 22.9904 54.6214 22.6867 54.4458L21.6539 53.849L19.7068 57.2233L20.7409 57.8205ZM26.6209 55.7743C28.3832 55.7743 29.8137 57.2048 29.8137 58.9671C29.8137 60.7295 28.3832 62.1566 26.6209 62.1566C24.8585 62.1566 23.431 60.7295 23.431 58.9671C23.4314 57.2048 24.859 55.7743 26.6209 55.7743Z" fill="#EBEBEB"/>
<path d="M55.4215 198.648C72.2629 198.648 85.9156 196.694 85.9156 194.284C85.9156 191.875 72.2629 189.921 55.4215 189.921C38.5801 189.921 24.9274 191.875 24.9274 194.284C24.9274 196.694 38.5801 198.648 55.4215 198.648Z" fill="#EBEBEB"/>
<path d="M166.388 147.517C163.28 141.128 157.84 137.846 151.709 139.66C145.578 141.473 144.628 150.021 149.205 152.18C153.781 154.339 158.358 148.035 160.776 146.74C163.194 145.445 166.388 147.517 166.388 147.517Z" fill="#0066A5"/>
<path d="M169.398 164.526C169.382 163.756 169.352 162.986 169.325 162.216C169.27 160.678 169.218 159.14 169.161 157.602C169.057 154.79 168.754 152.028 167.588 149.435C166.543 147.11 164.85 145.073 162.657 143.752C161.841 143.26 160.968 142.883 160.065 142.634C159.307 141.784 158.121 141.235 157.04 140.972C155.622 140.627 154.165 140.703 152.727 140.864C152.675 140.87 152.677 140.951 152.729 140.945C154.09 140.778 155.487 140.86 156.81 141.236C157.377 141.396 157.931 141.602 158.453 141.875C158.792 142.052 159.1 142.259 159.404 142.477C158.178 142.231 156.91 142.223 155.657 142.514C155.211 142.617 154.78 142.769 154.357 142.943C154.029 142.858 153.662 142.849 153.336 142.856C152.889 142.866 152.442 142.937 152.008 143.045C151.115 143.268 150.28 143.691 149.486 144.147C149.441 144.173 149.483 144.241 149.529 144.216C150.302 143.79 151.13 143.483 151.99 143.288C152.408 143.194 152.828 143.132 153.255 143.103C153.491 143.087 153.725 143.098 153.96 143.108C152.236 143.922 150.785 145.306 149.995 147.058C149.974 147.106 150.045 147.145 150.066 147.097C150.986 145.02 152.947 143.601 155.118 143.048C155.253 143.013 155.392 142.995 155.528 142.968C155.48 143.167 155.488 143.394 155.463 143.587C155.421 143.897 155.369 144.207 155.307 144.514C155.178 145.146 155.013 145.774 154.808 146.385C154.599 147.004 154.354 147.612 154.065 148.199C153.77 148.797 153.46 149.435 153.029 149.948C152.991 149.993 153.062 150.046 153.094 149.996C153.462 149.419 153.891 148.888 154.227 148.288C154.548 147.714 154.828 147.119 155.058 146.504C155.291 145.88 155.477 145.242 155.605 144.589C155.672 144.245 155.726 143.898 155.766 143.549C155.789 143.348 155.837 143.12 155.804 142.915C156.524 142.802 157.256 142.795 157.982 142.871C157.71 144.394 157.417 145.983 156.563 147.307C156.535 147.351 156.61 147.393 156.634 147.346C157.016 146.629 157.406 145.931 157.688 145.166C157.954 144.443 158.161 143.668 158.213 142.895C159.477 143.06 160.713 143.484 161.813 144.102C163.935 145.296 165.545 147.168 166.605 149.345C167.756 151.709 168.218 154.253 168.381 156.859C168.585 160.125 168.627 163.411 168.954 166.668C168.975 166.881 169.313 166.952 169.354 166.712C169.476 165.992 169.413 165.254 169.398 164.526Z" fill="#263238"/>
<path d="M162.213 143.24C162.041 142.986 161.742 142.782 161.507 142.588C161.252 142.377 160.991 142.173 160.718 141.987C160.173 141.618 159.587 141.341 158.952 141.168C158.901 141.154 158.881 141.236 158.932 141.247C159.571 141.385 160.152 141.72 160.675 142.104C160.935 142.295 161.185 142.499 161.427 142.711C161.653 142.908 161.877 143.173 162.141 143.317C162.187 143.342 162.245 143.286 162.213 143.24Z" fill="#263238"/>
<path d="M152.292 145.556C151.792 146.163 151.285 146.776 150.866 147.442C150.444 148.111 150.082 148.803 149.805 149.544C149.797 149.566 149.832 149.579 149.843 149.559C150.596 148.203 151.354 146.807 152.35 145.612C152.384 145.572 152.325 145.515 152.292 145.556Z" fill="#263238"/>
<path d="M158.98 144.923C158.912 145.322 158.797 145.711 158.629 146.079C158.465 146.436 158.253 146.777 158.037 147.104C158.022 147.125 158.055 147.148 158.072 147.13C158.625 146.541 158.933 145.732 159.059 144.943C159.067 144.892 158.988 144.871 158.98 144.923Z" fill="#263238"/>
<path d="M168.964 147.675C168.964 147.675 173.365 142.143 181.862 144.103C189.937 145.967 193.663 160.774 185.503 162.546C177.344 164.317 178.782 150.615 175.809 148.29C173.627 146.584 170.489 146.95 168.964 147.675Z" fill="#0066A5"/>
<path d="M188.423 152.19C187.866 151.71 187.29 151.25 186.673 150.848C186.096 150.473 185.469 150.121 184.806 149.917C184.473 149.417 184.11 148.936 183.699 148.492C182.94 147.675 182.074 146.99 181.132 146.448C181.216 146.443 181.3 146.433 181.385 146.431C181.836 146.416 182.284 146.413 182.735 146.444C183.648 146.507 184.524 146.719 185.357 147.097C185.405 147.118 185.44 147.044 185.392 147.024C184.555 146.668 183.671 146.39 182.774 146.234C182.339 146.159 181.889 146.116 181.447 146.121C181.209 146.123 180.97 146.139 180.733 146.162C180.689 146.166 180.643 146.169 180.597 146.173C179.82 145.78 178.999 145.479 178.148 145.272C178.227 145.251 178.305 145.226 178.385 145.208C178.799 145.113 179.221 145.051 179.644 145.002C180.496 144.901 181.336 144.922 182.186 145.041C182.238 145.048 182.252 144.967 182.201 144.961C181.353 144.856 180.484 144.824 179.631 144.857C178.931 144.884 178.188 144.963 177.494 145.134C176.985 145.042 176.469 144.979 175.945 144.957C172.982 144.832 169.754 145.939 167.93 148.373C166.1 150.816 165.749 154.062 165.426 157.002C164.978 161.094 164.772 165.244 165.102 169.351C165.121 169.594 165.462 169.549 165.47 169.318C165.581 165.827 165.704 162.335 166.038 158.855C166.193 157.245 166.365 155.627 166.632 154.031C166.861 152.666 167.188 151.304 167.803 150.058C168.446 148.757 169.42 147.71 170.671 146.975C171.904 146.25 173.313 145.849 174.733 145.725C176.022 145.614 177.311 145.747 178.544 146.082C178.49 146.327 178.501 146.583 178.523 146.834C178.549 147.15 178.613 147.461 178.709 147.762C178.8 148.047 178.923 148.323 179.064 148.586C179.222 148.878 179.42 149.138 179.595 149.418C179.623 149.462 179.694 149.412 179.661 149.37C179.295 148.91 179.108 148.266 179.003 147.696C178.95 147.41 178.916 147.12 178.901 146.829C178.89 146.611 178.909 146.39 178.899 146.172C180.238 146.583 181.501 147.246 182.608 148.131C182.815 148.296 183.014 148.471 183.209 148.651C182.919 148.889 182.684 149.247 182.489 149.536C182.199 149.964 181.943 150.409 181.733 150.882C181.318 151.815 181.098 152.83 180.947 153.837C180.94 153.888 181.02 153.903 181.027 153.851C181.164 152.857 181.53 151.937 181.994 151.051C182.219 150.622 182.469 150.203 182.747 149.806C182.89 149.602 183.038 149.4 183.193 149.204C183.276 149.099 183.367 148.992 183.446 148.879C184.441 149.852 185.264 151.008 185.856 152.272C185.851 152.275 185.845 152.275 185.84 152.279C185.42 152.67 185.123 153.213 184.844 153.71C184.538 154.255 184.275 154.828 184.049 155.41C183.612 156.534 183.325 157.707 183.035 158.875C183.022 158.925 183.104 158.941 183.115 158.889C183.349 157.699 183.8 156.571 184.32 155.478C184.573 154.945 184.841 154.421 185.123 153.904C185.389 153.417 185.714 152.935 185.921 152.418C186.482 153.66 186.824 154.996 186.891 156.354C186.893 156.406 186.976 156.399 186.972 156.347C186.803 154.23 186.174 152.123 185.065 150.307C185.584 150.529 186.106 150.742 186.606 151.012C187.242 151.355 187.84 151.762 188.373 152.253C188.409 152.288 188.463 152.224 188.423 152.19Z" fill="#263238"/>
<path d="M182.193 152.504C181.938 153.342 181.617 154.157 181.387 155.004C181.166 155.819 181.013 156.657 181.012 157.502C181.012 157.525 181.049 157.526 181.052 157.504C181.301 155.825 181.669 154.12 182.269 152.528C182.29 152.474 182.21 152.447 182.193 152.504Z" fill="#263238"/>
<path d="M187.575 150.423C187.236 150.104 186.867 149.828 186.45 149.619C186.035 149.412 185.588 149.292 185.147 149.158C185.098 149.144 185.081 149.227 185.133 149.238C185.576 149.337 185.987 149.543 186.386 149.754C186.785 149.965 187.176 150.196 187.54 150.463C187.568 150.484 187.599 150.446 187.575 150.423Z" fill="#263238"/>
<path d="M173.148 140.286C173.148 140.286 173.96 130.347 181.349 127.126C187.519 124.436 191.052 131.369 186.69 135.613C183.161 139.046 177.502 137.497 173.148 140.286Z" fill="#0066A5"/>
<path d="M185.323 129.051C184.204 129.528 183.095 130.001 182.037 130.607C181.15 131.113 180.302 131.686 179.485 132.3C179.608 132.049 179.715 131.786 179.838 131.54C180.031 131.156 180.238 130.781 180.466 130.417C180.936 129.668 181.453 128.968 182.094 128.357C182.131 128.321 182.071 128.263 182.035 128.301C181.424 128.926 180.823 129.578 180.322 130.295C180.068 130.657 179.831 131.032 179.619 131.419C179.427 131.773 179.209 132.165 179.123 132.564C179.096 132.584 179.068 132.602 179.041 132.623C177.745 133.644 176.574 134.814 175.512 136.076C175.533 135.978 175.553 135.881 175.579 135.791C175.717 135.306 175.867 134.825 176.027 134.347C176.362 133.341 176.776 132.336 177.361 131.448C177.39 131.405 177.318 131.364 177.29 131.409C176.731 132.33 176.172 133.243 175.744 134.236C175.539 134.711 175.367 135.205 175.234 135.705C175.154 136.002 175.025 136.362 174.993 136.703C174.671 137.111 174.355 137.523 174.056 137.947C170.885 142.463 169.292 147.925 168.911 153.39C168.797 155.02 168.774 156.653 168.828 158.286C168.883 159.92 168.942 161.592 169.261 163.199C169.281 163.302 169.442 163.271 169.44 163.171C169.403 161.735 169.254 160.305 169.227 158.868C169.199 157.429 169.25 155.988 169.365 154.553C169.597 151.696 170.139 148.838 170.977 146.096C171.833 143.293 173.099 140.593 174.734 138.146C175.045 138.084 175.354 138 175.66 137.921C176.029 137.826 176.398 137.731 176.765 137.629C177.471 137.431 178.171 137.207 178.825 136.873C178.871 136.85 178.828 136.778 178.782 136.805C178.138 137.182 177.421 137.38 176.693 137.525C176.115 137.64 175.514 137.715 174.935 137.849C175.471 137.068 176.042 136.312 176.653 135.591C178.057 135.728 179.487 135.604 180.857 135.277C181.587 135.103 182.309 134.876 183.008 134.607C183.749 134.322 184.449 133.956 185.179 133.65C185.234 133.628 185.196 133.547 185.146 133.577C183.893 134.337 182.318 134.728 180.885 134.972C179.563 135.196 178.235 135.278 176.899 135.301C177.424 134.699 177.966 134.112 178.545 133.561C180.485 131.712 182.791 130.014 185.346 129.129C185.396 129.111 185.37 129.031 185.323 129.051Z" fill="#263238"/>
<path d="M179.31 129.082C178.98 129.501 178.671 129.944 178.404 130.407C178.122 130.897 177.916 131.407 177.752 131.948C177.747 131.966 177.774 131.976 177.783 131.96C178.029 131.472 178.237 130.967 178.487 130.481C178.734 130.001 179.024 129.554 179.369 129.138C179.402 129.097 179.342 129.041 179.31 129.082Z" fill="#263238"/>
<path d="M186.181 132.39C185.701 132.668 185.191 132.853 184.666 133.022C184.159 133.185 183.645 133.332 183.123 133.436C183.098 133.441 183.104 133.483 183.13 133.48C183.674 133.416 184.209 133.311 184.727 133.13C185.242 132.95 185.735 132.699 186.223 132.459C186.269 132.437 186.226 132.363 186.181 132.39Z" fill="#263238"/>
<path d="M167.404 138.498C167.357 138.927 166.286 134.889 160.039 131.305C154.365 128.049 147.593 119.582 153.156 114.233C157.646 109.916 169.476 119.327 167.404 138.498Z" fill="#0066A5"/>
<path d="M171.704 161.646C171.611 157.445 171.283 153.248 170.713 149.085C170.189 145.255 169.365 141.487 168.073 137.841C167.608 136.527 167.078 135.234 166.501 133.962C166.562 133.477 166.498 132.943 166.475 132.475C166.445 131.839 166.387 131.204 166.329 130.57C166.27 129.936 166.206 129.301 166.13 128.669C166.055 128.041 165.921 127.405 165.895 126.774C165.892 126.716 165.801 126.728 165.815 126.786C165.968 127.434 165.988 128.135 166.039 128.798C166.087 129.41 166.122 130.024 166.141 130.638C166.16 131.253 166.157 131.868 166.157 132.483C166.157 132.704 166.146 132.94 166.137 133.177C165.55 131.935 164.92 130.713 164.238 129.523C164.661 126.932 164.112 124.225 163.583 121.693C163.572 121.642 163.495 121.665 163.505 121.716C163.781 123.035 163.887 124.385 163.917 125.731C163.941 126.794 163.892 127.858 163.887 128.922C163.737 128.667 163.588 128.412 163.434 128.16C162.624 126.837 161.759 125.54 160.839 124.282C160.939 123.677 160.868 123.036 160.779 122.438C160.678 121.757 160.524 121.078 160.326 120.42C160.127 119.757 159.898 119.108 159.634 118.469C159.364 117.812 159.003 117.191 158.742 116.532C158.721 116.477 158.639 116.514 158.669 116.565C159.023 117.157 159.24 117.87 159.451 118.524C159.656 119.16 159.831 119.813 159.962 120.468C160.094 121.126 160.202 121.784 160.295 122.449C160.356 122.889 160.394 123.344 160.47 123.789C159.127 121.994 157.672 120.281 156.096 118.698C156.058 118.661 156.006 118.718 156.04 118.757C158.411 121.451 160.558 124.308 162.392 127.397C162.46 127.512 162.525 127.63 162.593 127.745C162.249 127.529 161.853 127.358 161.529 127.178C160.924 126.842 160.317 126.507 159.708 126.178C159.116 125.859 158.526 125.536 157.938 125.21C157.635 125.042 157.336 124.867 157.028 124.709C156.678 124.53 156.284 124.359 155.969 124.122C155.921 124.087 155.87 124.159 155.921 124.187C156.522 124.518 157.054 125.009 157.634 125.38C158.219 125.753 158.812 126.111 159.418 126.449C160.529 127.069 161.735 127.515 162.829 128.155C163.587 129.483 164.286 130.846 164.931 132.232C164.267 131.807 163.59 131.403 162.902 131.018C162.459 130.77 162.015 130.526 161.566 130.289C161.132 130.061 160.682 129.85 160.307 129.529C160.268 129.495 160.214 129.551 160.251 129.588C160.958 130.28 161.803 130.762 162.652 131.258C163.454 131.727 164.265 132.179 165.1 132.589C165.768 134.052 166.373 135.545 166.908 137.06C169.537 144.506 170.504 152.41 170.965 160.26C171.103 162.601 171.174 164.94 171.203 167.284C171.232 169.625 171.108 171.962 171.113 174.302C171.113 174.371 171.227 174.387 171.237 174.316C171.518 172.24 171.567 170.129 171.658 168.039C171.75 165.911 171.751 163.774 171.704 161.646Z" fill="#263238"/>
<path d="M160.354 127.938C159.206 127.467 158.113 126.831 157.034 126.221C155.949 125.607 154.896 124.946 153.882 124.22C153.865 124.208 153.844 124.236 153.86 124.249C154.82 125.019 155.829 125.738 156.887 126.366C157.986 127.019 159.146 127.5 160.314 128.009C160.362 128.03 160.402 127.958 160.354 127.938Z" fill="#263238"/>
<path d="M162.164 119.521C162.071 119.158 161.957 118.801 161.834 118.447C161.848 118.438 161.858 118.424 161.85 118.405C161.771 118.204 161.688 118.004 161.606 117.804C161.596 117.777 161.586 117.751 161.577 117.732C161.561 117.694 161.545 117.655 161.53 117.617C161.525 117.605 161.505 117.61 161.51 117.623C161.532 117.692 161.549 117.762 161.571 117.831C161.582 117.87 161.588 117.905 161.604 117.945C162.03 119.332 162.312 120.754 162.53 122.187C162.537 122.232 162.606 122.234 162.603 122.186C162.549 121.284 162.387 120.396 162.164 119.521Z" fill="#263238"/>
<path d="M178.305 163.156L177.86 168.44L176.495 184.556H161.876L160.512 168.44L160.066 163.156H178.305Z" fill="#37474F"/>
<path d="M178.305 163.156L177.86 168.44H160.512L160.066 163.156H178.305Z" fill="#263238"/>
<path d="M179.74 161.036H158.632V166.105H179.74V161.036Z" fill="#37474F"/>
<path d="M19.9261 184.556L41.1944 184.453L62.4628 184.416L105 184.346L147.537 184.416L168.806 184.453L190.074 184.556L168.806 184.658L147.537 184.695L105 184.765L62.4628 184.695L41.1944 184.658L19.9261 184.556Z" fill="#263238"/>
<path d="M140.496 23.7585H69.4953C65.5305 23.7585 62.3133 27.0303 62.3133 31.0749V177.239C62.3133 181.275 65.5305 184.556 69.4953 184.556H140.496C144.465 184.556 147.687 181.275 147.687 177.239V31.0749C147.687 27.0303 144.465 23.7585 140.496 23.7585ZM143.197 172.72C143.197 176.567 140.316 179.679 136.763 179.679H73.2417C69.6801 179.679 66.7989 176.567 66.7989 172.72V36.6147C66.7989 28.7775 69.6801 28.3953 73.2417 28.3953H85.9635C86.7027 28.3953 87.3075 29.2353 87.3075 30.2769V30.7263C87.3075 33.1665 88.6431 33.1749 90.2853 33.1749H119.71C121.365 33.1749 122.688 33.1665 122.688 30.7263V30.2769C122.688 29.2353 123.285 28.3953 124.037 28.3953H136.763C140.316 28.3953 143.197 29.4369 143.197 36.6147V172.72Z" fill="#263238"/>
<path d="M109.011 30.127H100.985C100.711 30.127 100.49 29.9052 100.49 29.6314C100.49 29.3576 100.711 29.1358 100.985 29.1358H109.011C109.285 29.1358 109.507 29.3576 109.507 29.6314C109.507 29.9052 109.285 30.127 109.011 30.127Z" fill="white"/>
<path d="M143.198 36.6147V172.72C143.198 176.567 140.317 179.679 136.763 179.679H73.2425C69.6809 179.679 66.7997 176.567 66.7997 172.72V36.6147C66.7997 28.7775 69.6809 28.3953 73.2425 28.3953H85.9643C86.7035 28.3953 87.3083 29.2353 87.3083 30.2769V30.7263C87.3083 33.1665 88.6439 33.1749 90.2861 33.1749H119.711C121.366 33.1749 122.689 33.1665 122.689 30.7263V30.2769C122.689 29.2353 123.286 28.3953 124.037 28.3953H136.763C140.317 28.3953 143.198 29.4369 143.198 36.6147Z" fill="white"/>
<path d="M74.5319 41.8122L72.2749 39.6971L74.5319 37.5828L74.8822 37.9558L73.0233 39.6971L74.8822 41.4393L74.5319 41.8122Z" fill="#C7C7C7"/>
<path d="M137.281 38.3804C137.281 38.6257 137.083 38.8243 136.837 38.8243C136.592 38.8243 136.393 38.6257 136.393 38.3804C136.393 38.1351 136.592 37.9365 136.837 37.9365C137.083 37.9365 137.281 38.1351 137.281 38.3804Z" fill="#C7C7C7"/>
<path d="M137.281 39.9596C137.281 40.2049 137.083 40.4036 136.837 40.4036C136.592 40.4036 136.393 40.2049 136.393 39.9596C136.393 39.7143 136.592 39.5157 136.837 39.5157C137.083 39.5157 137.281 39.7143 137.281 39.9596Z" fill="#C7C7C7"/>
<path d="M137.281 41.5388C137.281 41.7841 137.083 41.9827 136.837 41.9827C136.592 41.9827 136.393 41.7841 136.393 41.5388C136.393 41.2935 136.592 41.0948 136.837 41.0948C137.083 41.0948 137.281 41.2935 137.281 41.5388Z" fill="#C7C7C7"/>
<path d="M83.7694 31.4521C83.7283 31.4928 83.6875 31.5336 83.6464 31.5743C83.6233 31.5974 83.5997 31.6209 83.5766 31.6445C83.2465 31.324 82.853 31.1531 82.3927 31.1531C81.9323 31.1531 81.5392 31.3236 81.2062 31.6461C81.1843 31.6235 81.1625 31.5999 81.1398 31.5768C81.0995 31.5361 81.0592 31.4954 81.0184 31.4546C81.0176 31.4538 81.0159 31.4534 81.0146 31.4525C81.0146 31.4517 81.0146 31.4504 81.0146 31.4496C81.0176 31.4471 81.0209 31.445 81.0239 31.4424C81.0755 31.3962 81.1259 31.3488 81.1793 31.3047C81.2897 31.2135 81.4103 31.1384 81.5388 31.0754C81.6904 31.001 81.8492 30.9456 82.0155 30.9153C82.094 30.9006 82.1743 30.8935 82.2536 30.8838C82.2805 30.8805 82.4565 30.8801 82.462 30.8801C82.5161 30.8843 82.5703 30.8864 82.6245 30.8922C82.7744 30.9086 82.9198 30.9447 83.0617 30.9968C83.1642 31.0342 83.2629 31.0808 83.3574 31.135C83.4574 31.1925 83.5519 31.2576 83.6396 31.3324C83.6837 31.3702 83.7262 31.4101 83.7694 31.4492C83.7694 31.45 83.7694 31.4513 83.7694 31.4521Z" fill="#C7C7C7"/>
<path d="M81.5963 32.0305C81.5312 31.9662 81.4674 31.9028 81.4019 31.8377C81.6232 31.6206 81.8849 31.4824 82.1923 31.4408C82.6518 31.3786 83.0466 31.5181 83.3813 31.8348C83.3154 31.9003 83.2511 31.9641 83.1865 32.0288C82.9668 31.8154 82.7018 31.6999 82.3918 31.7004C82.0823 31.7012 81.8177 31.8163 81.5963 32.0305Z" fill="#C7C7C7"/>
<path d="M82.9924 32.2245C82.9286 32.2887 82.8643 32.3526 82.7992 32.4177C82.6875 32.3089 82.5514 32.2488 82.3918 32.2488C82.2326 32.2492 82.0974 32.3089 81.9844 32.4185C81.9197 32.3538 81.8555 32.2896 81.7916 32.2257C82.0991 31.9036 82.6522 31.878 82.9924 32.2245Z" fill="#C7C7C7"/>
<path d="M82.5665 32.5932C82.5665 32.6898 82.4884 32.768 82.3918 32.768C82.2956 32.768 82.2175 32.6898 82.2175 32.5932C82.2175 32.4971 82.2956 32.4189 82.3918 32.4189C82.4884 32.4185 82.5665 32.4966 82.5665 32.5932Z" fill="#C7C7C7"/>
<path d="M71.7809 31.8238C71.7809 31.5441 72.0077 31.3177 72.287 31.3177C72.5668 31.3177 72.7936 31.5445 72.7936 31.8238C72.7936 32.1035 72.5668 32.3299 72.287 32.3299C72.0077 32.3299 71.7809 32.1035 71.7809 31.8238Z" fill="#C7C7C7"/>
<path d="M73.3757 31.8238C73.3757 31.5441 73.6025 31.3177 73.8822 31.3177C74.1619 31.3177 74.3883 31.5445 74.3883 31.8238C74.3883 32.1035 74.1615 32.3299 73.8822 32.3299C73.6025 32.3299 73.3757 32.1035 73.3757 31.8238Z" fill="#C7C7C7"/>
<path d="M74.9704 31.8238C74.9704 31.5441 75.1972 31.3177 75.4769 31.3177C75.7567 31.3177 75.9835 31.5445 75.9835 31.8238C75.9835 32.1035 75.7567 32.3299 75.4769 32.3299C75.1972 32.3299 74.9704 32.1035 74.9704 31.8238Z" fill="#C7C7C7"/>
<path d="M76.5652 31.8238C76.5652 31.5441 76.792 31.3177 77.0713 31.3177C77.351 31.3177 77.5778 31.5445 77.5778 31.8238C77.5778 32.1035 77.351 32.3299 77.0713 32.3299C76.792 32.3299 76.5652 32.1035 76.5652 31.8238Z" fill="#C7C7C7"/>
<path d="M78.1599 31.8238C78.1599 31.5441 78.3867 31.3177 78.6664 31.3177C78.9461 31.3177 79.1725 31.5445 79.1725 31.8238C79.1725 32.1035 78.9457 32.3299 78.6664 32.3299C78.3867 32.3299 78.1599 32.1035 78.1599 31.8238Z" fill="#C7C7C7"/>
<path d="M137.469 32.9317H133.341V31.0165H137.469V32.9317ZM133.557 32.7159H137.253V31.2324H133.557V32.7159Z" fill="#C7C7C7"/>
<path d="M136.343 31.3438H133.686V32.6046H136.343V31.3438Z" fill="#C7C7C7"/>
<path d="M137.835 31.4634H137.469V32.4849H137.835V31.4634Z" fill="#C7C7C7"/>
<path d="M78.4081 171.359H77.8273V174.026H76.742V172.667H74.8201V174.026H73.7348V171.359H73.1539L75.781 168.644L78.4081 171.359Z" fill="#EBEBEB"/>
<path d="M136.849 168.644H130.516V169.549H136.849V168.644Z" fill="#EBEBEB"/>
<path d="M136.849 170.882H130.516V171.788H136.849V170.882Z" fill="#EBEBEB"/>
<path d="M136.849 173.121H130.516V174.027H136.849V173.121Z" fill="#EBEBEB"/>
<path d="M106.801 170.976L105 172.898L103.199 170.976L103.517 170.677L105 172.26L106.483 170.677L106.801 170.976Z" fill="#EBEBEB"/>
<path d="M105 174.883C103.197 174.883 101.729 173.415 101.729 171.612C101.729 169.808 103.197 168.341 105 168.341C106.803 168.341 108.271 169.808 108.271 171.612C108.271 173.415 106.803 174.883 105 174.883ZM105 168.773C103.435 168.773 102.161 170.046 102.161 171.612C102.161 173.177 103.435 174.45 105 174.45C106.565 174.45 107.839 173.177 107.839 171.612C107.839 170.046 106.565 168.773 105 168.773Z" fill="#EBEBEB"/>
<path d="M100.117 159.856C100.117 160.46 99.6274 160.949 99.0234 160.949C98.4194 160.949 97.9301 160.459 97.9301 159.856C97.9301 159.252 98.4199 158.763 99.0234 158.763C99.6274 158.762 100.117 159.252 100.117 159.856Z" fill="#DBDBDB"/>
<path d="M106.772 159.856C106.772 160.769 106.031 161.51 105.118 161.51C104.204 161.51 103.464 160.769 103.464 159.856C103.464 158.942 104.204 158.202 105.118 158.202C106.031 158.202 106.772 158.942 106.772 159.856Z" fill="#0066A5"/>
<path d="M112.305 159.856C112.305 160.46 111.816 160.949 111.212 160.949C110.608 160.949 110.119 160.459 110.119 159.856C110.119 159.252 110.608 158.763 111.212 158.763C111.816 158.762 112.305 159.252 112.305 159.856Z" fill="#DBDBDB"/>
<path d="M119.503 129.432H90.0266V138.805H119.503V129.432Z" fill="#0066A5"/>
<path d="M98.2578 135.431V132.892C98.2578 132.762 98.3611 132.655 98.4946 132.655C98.6278 132.655 98.7357 132.762 98.7357 132.892V135.19H99.9016C100.026 135.19 100.139 135.297 100.139 135.431C100.139 135.56 100.027 135.667 99.9016 135.667H98.5077C98.4988 135.667 98.4988 135.667 98.4988 135.667C98.4946 135.667 98.4946 135.667 98.4946 135.667C98.3611 135.668 98.2578 135.56 98.2578 135.431Z" fill="white"/>
<path d="M102.885 133.03C103.152 133.314 103.32 133.693 103.32 134.119C103.32 134.545 103.152 134.928 102.885 135.208C102.631 135.487 102.252 135.668 101.856 135.668C101.443 135.668 101.065 135.487 100.802 135.208C100.535 134.928 100.376 134.545 100.376 134.119C100.376 133.693 100.535 133.314 100.802 133.03C101.064 132.746 101.443 132.57 101.856 132.57C102.252 132.57 102.631 132.746 102.885 133.03ZM102.829 134.119C102.829 133.826 102.713 133.555 102.537 133.366C102.356 133.172 102.115 133.06 101.857 133.06C101.581 133.06 101.341 133.172 101.16 133.366C100.979 133.555 100.867 133.826 100.867 134.119C100.867 134.411 100.979 134.683 101.16 134.867C101.341 135.061 101.582 135.177 101.857 135.177C102.115 135.177 102.356 135.061 102.537 134.867C102.713 134.682 102.829 134.411 102.829 134.119Z" fill="white"/>
<path d="M104.036 134.123C104.036 133.258 104.75 132.57 105.624 132.57C105.99 132.57 106.338 132.694 106.605 132.906C106.717 132.987 106.734 133.146 106.652 133.254C106.57 133.357 106.411 133.379 106.304 133.292C106.118 133.15 105.882 133.06 105.624 133.06C105.314 133.06 105.043 133.176 104.849 133.374C104.647 133.568 104.526 133.83 104.526 134.123C104.526 134.407 104.647 134.669 104.849 134.863C105.042 135.061 105.314 135.178 105.624 135.178C105.839 135.178 106.041 135.113 106.213 135.014V134.425H105.598C105.465 134.425 105.352 134.313 105.352 134.179C105.352 134.042 105.465 133.939 105.598 133.939H106.446C106.45 133.939 106.45 133.939 106.45 133.939C106.454 133.939 106.454 133.939 106.454 133.939C106.592 133.939 106.704 134.042 106.704 134.179V135.131C106.704 135.161 106.695 135.178 106.691 135.204C106.686 135.212 106.686 135.216 106.682 135.225V135.229C106.67 135.269 106.644 135.303 106.601 135.332C106.329 135.544 105.99 135.668 105.624 135.668C104.75 135.668 104.036 134.983 104.036 134.123Z" fill="white"/>
<path d="M107.705 132.892C107.705 132.759 107.808 132.656 107.941 132.656C108.071 132.656 108.182 132.759 108.182 132.892V135.431C108.182 135.565 108.071 135.668 107.941 135.668C107.808 135.668 107.705 135.565 107.705 135.431V132.892Z" fill="white"/>
<path d="M109.461 135.431C109.461 135.56 109.353 135.667 109.229 135.667C109.095 135.667 108.992 135.56 108.992 135.431V132.931C108.992 132.931 108.992 132.931 108.992 132.927C108.988 132.853 109.022 132.776 109.087 132.728C109.194 132.655 109.34 132.677 109.413 132.78L110.804 134.704V132.931C110.804 132.806 110.906 132.699 111.036 132.699C111.164 132.699 111.272 132.806 111.272 132.931V135.431C111.272 135.56 111.164 135.667 111.036 135.667C110.967 135.667 110.902 135.633 110.859 135.581C110.851 135.573 110.842 135.565 110.838 135.556L109.46 133.645V135.431H109.461Z" fill="white"/>
<path d="M112.122 56.8654V59.9352H109.95V56.8654C109.95 53.9427 107.73 51.5659 104.999 51.5659C102.268 51.5659 100.048 53.9427 100.048 56.8654V64.5519H97.8755V56.8654C97.8755 52.6793 101.071 49.2752 104.999 49.2752C108.927 49.2752 112.122 52.6793 112.122 56.8654Z" fill="#C7C7C7"/>
<path d="M97.8759 59.9428L100.048 60.0302V64.5515H97.8759V59.9428Z" fill="#A6A6A6"/>
<path d="M114.906 61.9747H95.0922V79.9503H114.906V61.9747Z" fill="#0066A5"/>
<path opacity="0.1" d="M114.906 61.9747H104.999V79.9503H114.906V61.9747Z" fill="black"/>
<path d="M105.837 71.6209L106.667 75.5554H103.147L103.976 71.6209C103.48 71.3071 103.147 70.7611 103.147 70.1341C103.147 69.1529 103.935 68.3738 104.906 68.3738C105.877 68.3738 106.666 69.1529 106.666 70.1341C106.667 70.7611 106.333 71.3071 105.837 71.6209Z" fill="#263238"/>
<path d="M130.516 99.7891H79.4837V108.525H130.516V99.7891Z" fill="white"/>
<path d="M130.726 108.735H79.2742V99.5795H130.726V108.735ZM79.6942 108.315H130.306V99.9995H79.6942V108.315Z" fill="#EBEBEB"/>
<path d="M84.7812 102.199H84.3612V105.932H84.7812V102.199Z" fill="#37474F"/>
<path d="M86.4372 103.855H82.7047V104.275H86.4372V103.855Z" fill="#37474F"/>
<path d="M85.7511 102.598L83.1104 105.237L83.4073 105.534L86.048 102.895L85.7511 102.598Z" fill="#37474F"/>
<path d="M83.3989 102.596L83.1019 102.893L85.7415 105.533L86.0384 105.236L83.3989 102.596Z" fill="#37474F"/>
<path d="M91.1156 102.199H90.6956V105.932H91.1156V102.199Z" fill="#37474F"/>
<path d="M92.7717 103.855H89.0392V104.275H92.7717V103.855Z" fill="#37474F"/>
<path d="M92.0858 102.598L89.4454 105.237L89.7423 105.534L92.3827 102.895L92.0858 102.598Z" fill="#37474F"/>
<path d="M89.7335 102.592L89.4365 102.889L92.0758 105.528L92.3728 105.231L89.7335 102.592Z" fill="#37474F"/>
<path d="M97.4501 102.199H97.0301V105.932H97.4501V102.199Z" fill="#37474F"/>
<path d="M99.1061 103.855H95.3736V104.275H99.1061V103.855Z" fill="#37474F"/>
<path d="M98.41 102.597L95.7699 105.236L96.0668 105.533L98.7069 102.895L98.41 102.597Z" fill="#37474F"/>
<path d="M96.0677 102.591L95.7708 102.888L98.41 105.528L98.707 105.231L96.0677 102.591Z" fill="#37474F"/>
<path d="M103.785 102.199H103.365V105.932H103.785V102.199Z" fill="#37474F"/>
<path d="M105.441 103.855H101.708V104.275H105.441V103.855Z" fill="#37474F"/>
<path d="M104.755 102.597L102.115 105.236L102.411 105.533L105.052 102.894L104.755 102.597Z" fill="#37474F"/>
<path d="M102.402 102.596L102.105 102.893L104.745 105.533L105.041 105.236L102.402 102.596Z" fill="#37474F"/>
<path d="M110.119 102.199H109.699V105.932H110.119V102.199Z" fill="#37474F"/>
<path d="M111.775 103.855H108.042V104.275H111.775V103.855Z" fill="#37474F"/>
<path d="M111.09 102.598L108.45 105.236L108.746 105.533L111.387 102.895L111.09 102.598Z" fill="#37474F"/>
<path d="M108.736 102.591L108.439 102.888L111.078 105.527L111.375 105.23L108.736 102.591Z" fill="#37474F"/>
<path d="M116.453 102.199H116.033V105.932H116.453V102.199Z" fill="#37474F"/>
<path d="M118.109 103.855H114.377V104.275H118.109V103.855Z" fill="#37474F"/>
<path d="M117.413 102.598L114.773 105.236L115.07 105.533L117.71 102.895L117.413 102.598Z" fill="#37474F"/>
<path d="M115.07 102.591L114.773 102.888L117.412 105.527L117.709 105.23L115.07 102.591Z" fill="#37474F"/>
<path d="M126.158 105.506C124.752 105.506 123.872 104.31 123.835 104.26L123.746 104.137L123.835 104.013C123.872 103.963 124.752 102.767 126.158 102.767C127.565 102.767 128.441 103.963 128.478 104.014L128.566 104.137L128.478 104.259C128.441 104.31 127.565 105.506 126.158 105.506ZM124.277 104.137C124.526 104.418 125.216 105.086 126.158 105.086C127.101 105.086 127.788 104.418 128.036 104.137C127.788 103.855 127.101 103.187 126.158 103.187C125.216 103.187 124.526 103.855 124.277 104.137Z" fill="#EBEBEB"/>
<path d="M126.157 105.082C126.679 105.082 127.102 104.659 127.102 104.137C127.102 103.614 126.679 103.191 126.157 103.191C125.634 103.191 125.211 103.614 125.211 104.137C125.211 104.659 125.634 105.082 126.157 105.082Z" fill="#EBEBEB"/>
<path d="M127.726 102.237L124.37 105.594L124.667 105.891L128.023 102.534L127.726 102.237Z" fill="#EBEBEB"/>
<path d="M91.2773 90.6889H90.6074V91.8707C90.6074 92.0341 90.4714 92.1702 90.3025 92.1702C90.1396 92.1702 90.0031 92.0341 90.0031 91.8707V88.6577C90.0031 88.4889 90.1396 88.3583 90.3025 88.3583H90.308H91.2773C91.9258 88.3583 92.4483 88.8812 92.4483 89.5292C92.4483 90.166 91.9258 90.6889 91.2773 90.6889ZM90.6074 90.0845H91.2773C91.5932 90.0845 91.8385 89.8342 91.8435 89.5288C91.838 89.213 91.5928 88.9627 91.2773 88.9627H90.6074V90.0845Z" fill="#0066A5"/>
<path d="M94.7428 91.2714H93.4193L93.153 91.9795C93.1039 92.0996 92.9892 92.1702 92.8695 92.1702C92.8313 92.1702 92.7986 92.1647 92.7662 92.1538C92.6079 92.0938 92.5314 91.9199 92.586 91.762L93.7893 88.5544C93.8385 88.4343 93.9582 88.3583 94.0779 88.3637C94.2035 88.3583 94.3177 88.4343 94.3664 88.5544L95.5697 91.762C95.6243 91.9199 95.5479 92.0942 95.39 92.1538C95.3631 92.1647 95.3249 92.1702 95.2867 92.1702C95.167 92.1702 95.0527 92.0996 95.0086 91.9795L94.7428 91.2714ZM94.5193 90.6725L94.0779 89.5015L93.6373 90.6725H94.5193Z" fill="#0066A5"/>
<path d="M96.1061 91.2223C96.2039 91.1026 96.3837 91.0862 96.5038 91.184C96.7432 91.3802 97.1569 91.6087 97.5437 91.6032C97.8159 91.6032 98.0612 91.5217 98.2246 91.402C98.3879 91.2819 98.4593 91.1458 98.4593 91.0097C98.4593 90.9392 98.443 90.89 98.4102 90.8354C98.3774 90.7813 98.3287 90.7267 98.2468 90.6721C98.0885 90.5687 97.8222 90.4759 97.5005 90.4163H97.4896C97.2338 90.3671 96.9944 90.302 96.7873 90.2038C96.5807 90.1059 96.4005 89.9698 96.2808 89.7791C96.1993 89.6485 96.1556 89.4961 96.1556 89.3327C96.1556 89.0059 96.3404 88.7228 96.5912 88.5376C96.847 88.3524 97.1792 88.2491 97.5332 88.2491C98.0561 88.2491 98.4425 88.5049 98.7202 88.6846C98.8457 88.7716 98.8835 88.9459 98.7966 89.0714C98.7151 89.2021 98.5408 89.2403 98.4098 89.1529C98.1322 88.9677 97.865 88.8043 97.5332 88.8043C97.288 88.8043 97.0704 88.8808 96.923 88.9895C96.7764 89.0987 96.7163 89.2184 96.7163 89.3327C96.7163 89.3982 96.7268 89.4415 96.7546 89.4851C96.7814 89.5288 96.8302 89.5775 96.9011 89.6267C97.0427 89.7245 97.288 89.8119 97.582 89.8665H97.5929C97.8705 89.9211 98.1263 89.9917 98.3447 90.0954C98.5677 90.2042 98.7638 90.3461 98.889 90.5473C98.9705 90.6779 99.02 90.8417 99.02 91.0102C99.02 91.3588 98.8235 91.6582 98.5513 91.8544C98.2846 92.0505 97.9306 92.1647 97.5437 92.1647C96.9557 92.1593 96.4601 91.8653 96.1498 91.62C96.0296 91.5221 96.0133 91.3424 96.1061 91.2223Z" fill="#0066A5"/>
<path d="M99.6857 91.2223C99.7836 91.1026 99.9634 91.0862 100.083 91.184C100.323 91.3802 100.737 91.6087 101.123 91.6032C101.396 91.6032 101.641 91.5217 101.804 91.402C101.968 91.2819 102.039 91.1458 102.039 91.0097C102.039 90.9392 102.022 90.89 101.989 90.8354C101.957 90.7813 101.908 90.7267 101.826 90.6721C101.668 90.5687 101.401 90.4759 101.08 90.4163H101.069C100.813 90.3671 100.574 90.302 100.367 90.2038C100.16 90.1059 99.9797 89.9698 99.86 89.7791C99.7785 89.6485 99.7349 89.4961 99.7349 89.3327C99.7349 89.0059 99.9197 88.7228 100.17 88.5376C100.426 88.3524 100.758 88.2491 101.112 88.2491C101.635 88.2491 102.022 88.5049 102.299 88.6846C102.425 88.7716 102.463 88.9459 102.376 89.0714C102.294 89.2021 102.12 89.2403 101.989 89.1529C101.711 88.9677 101.445 88.8043 101.112 88.8043C100.867 88.8043 100.65 88.8808 100.502 88.9895C100.355 89.0987 100.296 89.2184 100.296 89.3327C100.296 89.3982 100.306 89.4415 100.334 89.4851C100.361 89.5288 100.409 89.5775 100.48 89.6267C100.622 89.7245 100.867 89.8119 101.161 89.8665H101.172C101.45 89.9211 101.706 89.9917 101.924 90.0954C102.147 90.2042 102.343 90.3461 102.468 90.5473C102.55 90.6779 102.599 90.8417 102.599 91.0102C102.599 91.3588 102.402 91.6582 102.13 91.8544C101.864 92.0505 101.509 92.1647 101.123 92.1647C100.535 92.1593 100.039 91.8653 99.7286 91.62C99.6093 91.5221 99.5929 91.3424 99.6857 91.2223Z" fill="#0066A5"/>
<path d="M108.325 88.8098L106.99 91.9846C106.984 92.0009 106.974 92.0228 106.963 92.0337L106.958 92.0392C106.952 92.0501 106.941 92.061 106.931 92.0719C106.931 92.0828 106.925 92.0828 106.925 92.0883C106.914 92.0938 106.898 92.1047 106.887 92.1152H106.881C106.865 92.1261 106.854 92.1425 106.832 92.1479H106.827C106.827 92.1479 106.821 92.1479 106.821 92.1534C106.81 92.1534 106.794 92.1589 106.777 92.1643C106.772 92.1643 106.767 92.1643 106.767 92.1643C106.75 92.1698 106.734 92.1698 106.712 92.1698C106.696 92.1698 106.68 92.1698 106.663 92.1643C106.652 92.1643 106.647 92.1643 106.647 92.1643C106.63 92.1589 106.62 92.1534 106.609 92.1534C106.603 92.1479 106.603 92.1479 106.598 92.1479C106.576 92.1425 106.559 92.1261 106.549 92.1152C106.543 92.1152 106.543 92.1152 106.543 92.1152C106.527 92.1043 106.516 92.0933 106.505 92.0883C106.499 92.0828 106.499 92.0828 106.494 92.0719C106.489 92.061 106.478 92.0501 106.473 92.0392C106.462 92.0392 106.462 92.0337 106.462 92.0337C106.451 92.0228 106.446 92.0009 106.44 91.9846L105.726 90.2966L105.013 91.9846C105.007 92.0009 104.997 92.0228 104.991 92.0337C104.985 92.0337 104.985 92.0392 104.985 92.0392C104.975 92.0501 104.963 92.061 104.953 92.0719C104.953 92.0828 104.947 92.0828 104.947 92.0883C104.937 92.0938 104.925 92.1047 104.914 92.1152C104.904 92.1152 104.904 92.1152 104.904 92.1152C104.887 92.1261 104.871 92.1425 104.861 92.1479C104.855 92.1479 104.855 92.1479 104.855 92.1479C104.855 92.1479 104.849 92.1479 104.849 92.1534C104.827 92.1534 104.816 92.1589 104.806 92.1643C104.8 92.1643 104.795 92.1643 104.789 92.1643C104.773 92.1698 104.756 92.1698 104.74 92.1698C104.724 92.1698 104.702 92.1698 104.686 92.1643C104.68 92.1643 104.675 92.1643 104.669 92.1643C104.653 92.1589 104.642 92.1534 104.631 92.1534C104.626 92.1479 104.626 92.1479 104.62 92.1479C104.604 92.1425 104.582 92.1261 104.572 92.1152C104.566 92.1152 104.566 92.1152 104.566 92.1152C104.55 92.1043 104.544 92.0933 104.528 92.0883C104.522 92.0828 104.522 92.0828 104.517 92.0719C104.506 92.061 104.501 92.0501 104.49 92.0392V92.0337C104.479 92.0228 104.474 92.0009 104.462 91.9846L103.123 88.8098C103.063 88.6628 103.128 88.483 103.286 88.423C103.433 88.3574 103.613 88.4284 103.673 88.5809L104.741 91.1026L105.443 89.4305C105.492 89.3108 105.606 89.2453 105.726 89.2453C105.84 89.2453 105.955 89.3108 106.01 89.4305L106.712 91.1026L107.774 88.5809C107.84 88.4284 108.014 88.3579 108.172 88.423C108.319 88.483 108.39 88.6628 108.325 88.8098Z" fill="#0066A5"/>
<path d="M112.124 88.8316C112.461 89.1911 112.673 89.6704 112.673 90.2092C112.673 90.7485 112.461 91.2332 112.124 91.5872C111.802 91.9409 111.323 92.1698 110.822 92.1698C110.299 92.1698 109.82 91.9409 109.487 91.5872C109.15 91.2332 108.948 90.7485 108.948 90.2092C108.948 89.6704 109.15 89.1907 109.487 88.8316C109.82 88.4721 110.299 88.2491 110.822 88.2491C111.323 88.2491 111.802 88.4725 112.124 88.8316ZM112.053 90.2096C112.053 89.8392 111.905 89.4965 111.682 89.2567C111.453 89.0118 111.148 88.8698 110.822 88.8698C110.473 88.8698 110.169 89.0114 109.94 89.2567C109.711 89.4965 109.569 89.8392 109.569 90.2096C109.569 90.5801 109.711 90.9232 109.94 91.1572C110.169 91.4024 110.473 91.5494 110.822 91.5494C111.148 91.5494 111.453 91.4024 111.682 91.1572C111.905 90.9228 112.053 90.5801 112.053 90.2096Z" fill="#0066A5"/>
<path d="M116.27 91.7179C116.324 91.8758 116.238 92.0446 116.08 92.0992C116.057 92.1047 116.014 92.1152 115.959 92.1152C115.959 92.1152 115.959 92.1152 115.954 92.1152C115.899 92.1152 115.818 92.1043 115.741 92.0555C115.671 92.0119 115.611 91.9413 115.567 91.8649C115.491 91.7069 115.453 91.5108 115.453 91.2113C115.447 91.1076 115.426 91.037 115.388 90.9774C115.355 90.9173 115.29 90.8632 115.224 90.8195C115.111 90.743 114.969 90.6998 114.92 90.6889H114.277V91.8707C114.277 92.0341 114.141 92.1702 113.972 92.1702C113.804 92.1702 113.673 92.0341 113.673 91.8707V88.6577C113.673 88.4889 113.803 88.3583 113.972 88.3583C113.972 88.3583 113.972 88.3583 113.978 88.3583H114.947C115.596 88.3583 116.113 88.8812 116.113 89.5292C116.113 89.8888 115.95 90.2046 115.688 90.4222C115.759 90.4768 115.824 90.5423 115.879 90.6238C115.988 90.7817 116.059 90.9833 116.059 91.2118C116.053 91.3751 116.07 91.4789 116.081 91.5331C116.167 91.5599 116.238 91.6255 116.27 91.7179ZM115.508 89.5288C115.508 89.213 115.257 88.9627 114.946 88.9627H114.277V90.0845H114.946C115.257 90.0845 115.508 89.8337 115.508 89.5288Z" fill="#0066A5"/>
<path d="M117.154 91.8703V88.6573C117.154 88.4885 117.285 88.3578 117.454 88.3578H118.097C119.148 88.3578 119.997 89.213 119.997 90.2583C119.997 91.3146 119.148 92.1698 118.097 92.1698H117.454C117.285 92.1702 117.154 92.0337 117.154 91.8703ZM117.759 91.5658H118.096C118.815 91.5603 119.393 90.9828 119.393 90.2588C119.393 89.5452 118.815 88.9626 118.096 88.9626H117.759V91.5658Z" fill="#0066A5"/>
<path d="M182.304 42.1163C182.304 42.1163 179.101 67.7611 173.836 73.5319C167.516 80.4544 162.93 79.4426 160.378 83.0113C160.373 83.0113 160.373 83.0168 160.373 83.0168C157.821 79.4426 153.235 80.4598 146.91 73.5319C141.645 67.7611 138.448 42.1163 138.448 42.1163C152.32 35.3821 160.373 27.8351 160.373 27.8351C160.373 27.8351 160.373 27.8351 160.378 27.8405C160.626 28.072 168.646 35.49 182.304 42.1163Z" fill="#ABABAB"/>
<path d="M160.378 27.8405V83.0113C160.373 83.0113 160.373 83.0168 160.373 83.0168C157.821 79.4426 153.235 80.4598 146.91 73.5319C141.645 67.7611 138.448 42.1163 138.448 42.1163C152.32 35.3821 160.373 27.8351 160.373 27.8351C160.373 27.8351 160.373 27.8351 160.378 27.8405Z" fill="#818181"/>
<path d="M178.901 44.1823C178.901 44.1823 176.195 65.8459 171.748 70.7226C166.405 76.579 162.529 75.7185 160.373 78.7349C158.217 75.7185 154.34 76.579 148.997 70.7226C144.55 65.8455 141.85 44.1823 141.85 44.1823C153.568 38.4918 160.373 32.117 160.373 32.117C160.373 32.117 167.183 38.4918 178.901 44.1823Z" fill="#818181"/>
<path d="M141.856 44.1836C141.856 44.1836 144.561 65.8447 149.009 70.7238C154.347 76.5752 158.22 75.7206 160.378 78.7286V32.1233C160.17 32.3186 153.392 38.5808 141.856 44.1836Z" fill="#ABABAB"/>
<path d="M166.448 61.5011C169.803 58.1464 169.803 52.7074 166.448 49.3528C163.094 45.9981 157.655 45.9981 154.3 49.3528C150.945 52.7074 150.945 58.1464 154.3 61.5011C157.655 64.8558 163.094 64.8558 166.448 61.5011Z" fill="#0066A5"/>
<path d="M159.397 61.0071L155.571 57.0284L156.99 55.6638L159.099 57.8571L163.646 50.8821L165.296 51.9578L159.397 61.0071Z" fill="white"/>
<path d="M33.7524 103.775H63.2208V97.6711H33.7524V103.775Z" fill="#C7C7C7"/>
<path d="M55.3127 103.725L56.1389 111.524L66.3247 184.534H69.2391L61.199 111.524L60.5451 103.725H55.3127Z" fill="#C7C7C7"/>
<path d="M27.7309 184.534H30.6495L40.8353 111.524L41.6615 103.725H36.4287L35.7752 111.524L27.7309 184.534Z" fill="#C7C7C7"/>
<path d="M32.6503 160.683H65.155V158.851H32.6503V160.683Z" fill="#C7C7C7"/>
<path d="M61.199 111.247H56.1389L55.3127 103.725H60.5451L61.199 111.247Z" fill="#A6A6A6"/>
<path d="M35.7752 111.247H40.8353L41.6615 103.725H36.4287L35.7752 111.247Z" fill="#A6A6A6"/>
<path d="M37.687 68.3415C38.926 68.9875 39.1637 71.2173 43.0878 71.0972C43.6477 71.0799 44.1029 70.8578 44.6174 71.0459C45.3667 71.3219 45.9614 71.9208 46.6288 72.358C47.1794 72.7205 47.7758 72.9586 48.4155 73.0472C49.6297 73.2182 50.8809 72.8826 51.928 72.237C52.5706 71.8418 53.1107 71.2937 53.7319 70.867C54.319 70.4634 58.1045 69.5331 58.7366 67.4222C59.1373 66.084 59.0755 64.5578 57.485 62.5997C57.167 62.2083 56.813 61.8349 56.7664 61.299C56.7252 60.8441 56.9079 60.451 57.057 60.0407C57.2258 59.5795 57.4081 59.1011 57.2863 58.5963C57.1641 58.0872 56.7659 57.7449 56.453 57.3674C55.865 56.6597 55.9742 55.6328 56.4581 54.3711C56.8709 53.2946 56.6714 52.0817 56.0792 51.1236C55.7185 50.5411 55.2124 50.1144 54.7252 49.6515C54.0091 48.9724 53.8768 48.3403 53.5618 47.381C52.954 45.5309 52.0019 44.7027 50.8775 44.1348C49.8662 43.6241 49.9006 43.8186 48.8149 43.9836C47.733 43.3087 46.3991 43.0315 45.1492 43.1903C43.9652 43.3415 42.9874 44.1369 42.0928 44.8971C41.2936 45.5771 40.5644 46.3083 40.5208 47.4537C40.4947 48.1143 40.6568 48.7708 40.6253 49.4298C40.5859 50.2685 40.1184 50.8011 39.5585 51.332C38.7811 52.0712 38.11 52.9565 37.926 54.0737C37.7811 54.9696 38.6606 56.3573 37.6303 57.6807C36.7206 58.8487 35.1212 60.1931 34.6996 61.6644C33.3913 66.2285 36.4997 67.7225 37.687 68.3415Z" fill="#263238"/>
<path d="M52.8776 70.804C54.6785 70.531 57.4493 70.8691 58.4056 68.8636C59.12 68.2496 59.5904 67.3965 59.5329 66.2869C59.4779 65.223 58.858 64.2999 58.1713 63.5544C57.7744 63.1235 57.3031 62.6946 57.028 62.1575C56.9243 61.7564 56.8504 61.3477 56.8037 60.9361C56.8533 60.4111 57.0507 59.8949 57.2342 59.4081C57.2389 59.396 57.2191 59.388 57.2137 59.3993C56.8231 60.2271 56.456 61.1495 56.8214 62.0718C56.8743 62.2049 56.939 62.3309 57.0112 62.4523C57.1397 62.934 57.3161 63.4028 57.5467 63.861C58.1402 65.0382 58.6816 66.1 58.6026 67.4742C58.5719 68.0076 58.4573 68.4411 58.2788 68.7972C57.5253 69.5112 56.5169 69.8607 55.4938 70.0035C55.4673 70.0073 55.4673 70.0505 55.4946 70.0476C56.3825 69.9497 57.338 69.6393 58.0973 69.1026C57.0507 70.6003 54.6189 70.3974 52.8595 70.7431C52.8221 70.7515 52.8406 70.8099 52.8776 70.804ZM58.5425 68.5242C58.5472 68.5108 58.5526 68.4982 58.5568 68.4843C58.8974 67.418 58.7521 66.1651 58.3309 65.1411C58.0423 64.4393 57.6156 63.8118 57.335 63.105C57.2867 62.9836 57.2431 62.861 57.2011 62.7371C57.6034 63.2856 58.1482 63.7451 58.5417 64.2801C59.3998 65.4469 59.6513 66.8388 58.8512 68.1047C58.7567 68.255 58.6534 68.3945 58.5425 68.5242Z" fill="#263238"/>
<path d="M33.8054 66.1567C33.8293 66.1941 33.8848 66.1601 33.8621 66.121C33.1002 64.8005 33.3165 63.4431 33.9268 62.2293C33.6344 64.042 33.9902 66.0719 35.645 67.0437C35.6727 67.0601 35.6962 67.016 35.6689 66.9996C33.9557 65.974 33.6979 63.6321 34.1611 61.8013C34.5387 61.1633 35.0108 60.5732 35.4866 60.0612C36.2741 59.2133 37.2523 58.3779 37.8336 57.3354C37.7315 57.9045 37.4254 58.4081 36.8613 58.8605C36.8327 58.8836 36.8605 58.9348 36.8911 58.9121C37.4144 58.5299 37.842 58.0137 37.9835 57.3451C38.0121 57.2099 38.0251 57.0755 38.0268 56.9419C38.1704 56.6093 38.2738 56.2569 38.3145 55.8751C38.3158 55.8621 38.2943 55.8596 38.2927 55.8722C38.2473 56.2086 38.1541 56.5248 38.0247 56.8251C38.0033 56.2569 37.7861 55.7029 37.6387 55.1556C37.2166 53.5844 38.0083 52.6579 38.9815 51.8141C39.06 51.7646 39.1402 51.7154 39.2217 51.6654C39.74 51.3496 40.2335 50.9943 40.5182 50.4676C40.5859 50.3975 40.6518 50.3265 40.7148 50.2534C40.7177 50.25 40.7131 50.2454 40.7102 50.2484C40.6594 50.3013 40.606 50.3521 40.5523 50.4029C40.6211 50.2639 40.6762 50.1131 40.7131 49.9485C40.7144 49.9422 40.7051 49.938 40.703 49.9443C40.5943 50.224 40.4418 50.4584 40.2612 50.6629C39.8744 50.9859 39.4443 51.2828 39.0348 51.5987C38.2712 52.0644 37.4963 52.5117 37.2002 53.4462C36.9193 54.3337 37.1356 55.293 37.207 56.1985C37.317 57.5992 36.8096 58.7697 35.5425 59.3262C35.5207 59.3359 35.5177 59.3577 35.5412 59.3493C35.6349 59.3162 35.7374 59.2918 35.8256 59.2485C35.0784 59.8592 34.4371 60.5199 34.1036 61.5111C33.2317 62.9 32.8558 64.6741 33.8054 66.1567ZM37.0696 58.28C36.926 58.3934 36.7828 58.5039 36.6404 58.6127C36.839 58.3796 37.0003 58.1095 37.1087 57.8054C37.4615 56.8146 37.1687 55.7344 37.1448 54.7134C37.1192 53.6352 37.4984 52.9805 38.1041 52.4483C37.8231 52.7734 37.5946 53.1401 37.4632 53.5806C37.2389 54.3333 37.4732 55.0343 37.69 55.76C37.8428 56.2724 37.9042 56.7407 37.8567 57.1725C37.6442 57.5648 37.3729 57.9306 37.0696 58.28ZM34.4354 61.0335C34.8415 60.1948 35.5244 59.5812 36.2351 58.9949C36.2863 58.9562 36.3355 58.9151 36.3833 58.8731C36.5849 58.708 36.7878 58.5434 36.9852 58.3758C36.1628 59.3002 35.1372 60.1188 34.4354 61.0335Z" fill="#263238"/>
<path d="M36.3623 67.3146C36.3716 67.3146 36.3716 67.3293 36.3628 67.3293C36.3535 67.3293 36.3531 67.3146 36.3623 67.3146Z" fill="#263238"/>
<path d="M54.4753 49.3811C55.1368 49.9628 55.797 50.5848 56.3951 51.2379C56.8084 51.6894 57.0734 52.1968 57.1066 52.8305C57.1402 53.4736 56.91 53.9944 56.5656 54.5059C56.4291 54.7084 56.2939 54.9163 56.1712 55.1275C56.1506 55.5089 56.1897 55.8902 56.3514 56.2737C56.6433 56.9663 57.2981 57.3917 57.6009 58.094C58.0898 59.228 57.5467 60.16 57.0688 61.1734C57.0654 61.1801 57.0562 61.1743 57.0591 61.1675C57.4039 60.3364 57.8873 59.5165 57.6206 58.5795C57.401 57.8075 56.8386 57.3947 56.4157 56.7685C56.1485 56.3724 56.0276 55.9125 56.0045 55.4383C55.6273 56.2002 55.4929 57.0053 56.1611 57.8096C56.191 57.8453 56.1452 57.8966 56.112 57.8626C55.2674 57.0066 55.49 55.9705 56.0057 55.0649C56.0343 54.5257 56.1721 53.9851 56.3564 53.5147C56.3774 53.4614 56.4518 53.5004 56.4421 53.5517C56.3674 53.9469 56.2687 54.3396 56.212 54.7315C56.2414 54.6874 56.2712 54.6433 56.3018 54.5996C56.9747 53.639 57.2368 52.5193 56.464 51.4916C55.886 50.7226 55.0943 50.119 54.4496 49.4096C54.432 49.3903 54.4568 49.3647 54.4753 49.3811Z" fill="#263238"/>
<path d="M59.5262 128.683C59.5262 128.683 52.0027 145.391 51.9968 145.403C50.5411 148.591 49.3219 151.411 48.8275 152.929C48.8237 152.937 48.82 152.944 48.82 152.954C48.6326 153.526 48.5507 153.909 48.6053 154.046C48.6091 154.057 48.6091 154.067 48.615 154.074C49.2702 155.15 74.4051 167.526 75.4265 167.662C76.4501 167.804 76.918 164.897 76.3253 163.638C75.7256 162.376 68.2252 153.336 68.2252 153.336L75.587 136.564L59.5262 128.683Z" fill="#EB9481"/>
<path d="M53.542 141.973C53.542 141.973 52.0027 145.391 51.9968 145.403C50.5411 148.591 49.3219 151.411 48.8275 152.929C48.8237 152.937 48.82 152.944 48.82 152.954C48.6671 153.534 48.5885 153.928 48.6053 154.046C48.6091 154.057 48.6091 154.067 48.615 154.074C49.2702 155.151 74.4051 167.526 75.4265 167.662C76.4501 167.804 76.918 164.897 76.3253 163.638C75.7256 162.376 68.2252 153.336 68.2252 153.336L69.8405 149.877L53.542 141.973Z" fill="#EBEBEB"/>
<path d="M75.4202 167.627C74.3967 167.492 49.2521 155.142 48.5944 154.064C48.3374 153.659 49.9233 149.89 51.97 145.391C51.9918 145.344 52.0136 145.297 52.0355 145.251L68.3466 153.037L68.2051 153.309C68.2051 153.309 75.7155 162.34 76.3144 163.603C76.907 164.858 76.4425 167.766 75.4202 167.627Z" fill="#263238"/>
<path d="M76.2468 166.914C76.6118 167.308 75.7722 168.772 75.3879 168.734C75.0036 168.696 47.6469 155.109 47.2319 154.776C46.817 154.442 47.8099 152.855 48.3928 153.035C48.9762 153.215 76.2468 166.914 76.2468 166.914Z" fill="#0066A5"/>
<path d="M69.544 154.027C68.0291 152.896 65.8631 152.15 64.0051 152.713C63.9328 152.735 63.9652 152.836 64.0273 152.846C65.9278 153.135 67.628 153.557 69.4336 154.234C69.5612 154.282 69.6528 154.108 69.544 154.027Z" fill="white"/>
<path d="M70.392 155.344C68.8771 154.214 66.7111 153.468 64.853 154.03C64.7808 154.052 64.8131 154.154 64.8753 154.163C66.7758 154.452 68.476 154.875 70.2815 155.551C70.4092 155.599 70.5004 155.425 70.392 155.344Z" fill="white"/>
<path d="M71.2396 156.661C69.7246 155.53 67.5587 154.784 65.7006 155.347C65.6284 155.369 65.6607 155.471 65.7229 155.48C67.6234 155.77 69.3235 156.192 71.1291 156.868C71.2568 156.916 71.3479 156.742 71.2396 156.661Z" fill="white"/>
<path d="M54.8041 150.105C53.429 148.299 50.6188 150.433 51.996 152.243C53.3715 154.05 56.1817 151.915 54.8041 150.105Z" fill="white"/>
<path d="M63.9614 114.158C63.7946 119.017 54.4265 140.008 54.4265 140.008L70.8548 147.569C70.8548 147.569 84.1138 124.233 82.882 113.481C81.8336 104.359 58.8811 87.4881 55.196 82.732C54.6504 82.0276 54.8369 79.1863 54.8369 79.1863H39.9319V82.732C45.6254 94.8103 62.6485 109.302 63.9085 113.554C63.953 113.706 63.9706 113.909 63.961 114.15L63.9614 114.158Z" fill="#37474F"/>
<path d="M70.7612 144.058C68.0576 142.763 68.8523 143.095 66.1336 141.83C64.8035 141.211 58.1246 138.084 56.779 137.733C56.7491 137.725 56.7273 137.773 56.7529 137.791C57.9046 138.571 64.6548 141.539 65.9975 142.131C68.741 143.341 67.9669 142.963 70.7238 144.141C70.7755 144.163 70.812 144.083 70.7612 144.058Z" fill="#263238"/>
<path d="M43.6964 85.2797C48.2219 92.1227 53.1972 98.6411 58.7383 104.696C60.0877 106.171 61.4779 107.606 62.8694 109.041C64.0475 110.256 65.2449 111.604 65.5385 113.33C65.8648 115.251 65.1113 117.169 64.5149 118.959C63.8572 120.934 63.1945 122.907 62.4931 124.866C61.7362 126.98 58.6463 134.605 58.1356 135.633C57.8798 136.148 62.2264 125.153 62.9311 123.102C63.6271 121.077 64.3537 119.048 64.9522 116.992C65.2579 115.942 65.4998 114.834 65.3869 113.735C65.2756 112.655 64.8026 111.691 64.1584 110.83C62.9513 109.217 61.3775 107.85 60.005 106.379C57.1582 103.329 54.4408 100.158 51.8599 96.8797C48.9355 93.1643 46.1719 89.3087 43.6468 85.3103C43.6267 85.278 43.6758 85.2482 43.6964 85.2797Z" fill="#263238"/>
<path d="M34.847 165.109C34.847 165.109 34.1145 183.426 34.1145 183.439C34.1972 186.942 34.3316 190.012 34.5496 191.593C34.5496 191.602 34.5492 191.61 34.5534 191.619C34.6349 192.216 34.7281 192.596 34.8373 192.695C34.8457 192.703 34.8499 192.712 34.8583 192.717C35.9176 193.398 63.9332 193.556 64.9118 193.232C65.8946 192.913 65.0458 190.094 63.9635 189.22C62.8727 188.346 52.1774 183.489 52.1774 183.489L52.7365 165.186L34.847 165.109Z" fill="#EB9481"/>
<path d="M34.2594 179.814C34.2594 179.814 34.1149 183.426 34.1145 183.439C34.1972 186.942 34.3316 190.012 34.5496 191.593C34.5496 191.602 34.5492 191.61 34.5534 191.619C34.6693 192.208 34.7705 192.596 34.8373 192.695C34.8457 192.703 34.8499 192.712 34.8583 192.717C35.9176 193.398 63.9332 193.556 64.9118 193.232C65.8946 192.913 65.0458 190.094 63.9635 189.22C62.8727 188.346 52.1774 183.489 52.1774 183.489L52.2904 179.784L34.2594 179.814Z" fill="#EBEBEB"/>
<path d="M64.8913 193.204C63.9114 193.529 35.8978 193.399 34.8352 192.716C34.427 192.464 34.2077 188.38 34.0847 183.44C34.0838 183.388 34.083 183.336 34.0822 183.285L52.156 183.167L52.1476 183.473C52.1476 183.473 62.848 188.319 63.9383 189.193C65.0198 190.064 65.872 192.882 64.8913 193.204Z" fill="#263238"/>
<path d="M65.3239 192.201C65.8245 192.397 65.7082 194.08 65.3457 194.213C64.9832 194.347 34.44 194.07 33.9213 193.951C33.4026 193.832 33.6025 191.971 34.2056 191.878C34.8083 191.785 65.3239 192.201 65.3239 192.201Z" fill="#0066A5"/>
<path d="M53.6663 183.535C51.8099 183.18 49.5356 183.454 48.1097 184.771C48.0543 184.822 48.1278 184.9 48.1883 184.881C50.0241 184.312 51.7381 183.949 53.6579 183.769C53.7932 183.757 53.7995 183.56 53.6663 183.535Z" fill="white"/>
<path d="M55.004 184.349C53.1472 183.994 50.8733 184.269 49.4474 185.586C49.392 185.637 49.4655 185.715 49.526 185.696C51.3622 185.126 53.0758 184.763 54.9961 184.584C55.1309 184.571 55.1372 184.375 55.004 184.349Z" fill="white"/>
<path d="M56.3417 185.164C54.4849 184.809 52.211 185.083 50.7847 186.401C50.7293 186.451 50.8028 186.529 50.8633 186.511C52.6991 185.941 54.4131 185.578 56.3329 185.398C56.4686 185.386 56.4745 185.189 56.3417 185.164Z" fill="white"/>
<path d="M38.6933 186.443C36.6673 185.419 35.0708 188.566 37.1003 189.592C39.1268 190.617 40.7232 187.47 38.6933 186.443Z" fill="white"/>
<path d="M52.6676 177.6L34.3577 177.75C34.3577 177.75 37.406 102.961 35.3653 100.52C30.508 94.71 31.2829 86.9647 34.553 79.1863H51.2476C51.2476 79.1863 50.4479 90.998 50.526 91.3403C55.6492 113.729 52.6676 177.6 52.6676 177.6Z" fill="#37474F"/>
<path d="M51.6592 173.85C47.6666 173.539 37.1465 173.882 35.8189 174.084C35.7895 174.088 35.7882 174.141 35.8172 174.147C37.133 174.416 49.1967 174.035 51.6571 173.941C51.7112 173.939 51.7133 173.854 51.6592 173.85Z" fill="#263238"/>
<path d="M51.6331 83.7761C51.4664 85.89 51.5504 89.4969 50.3273 89.5532C49.1434 89.6078 49.3189 85.1957 49.2853 84.1818C49.2551 83.262 48.9388 83.3876 48.9044 84.4721C48.8107 87.4146 48.8859 90.0102 50.4508 89.8901C52.0451 89.7678 52.0002 85.2079 51.9624 84.1663C51.9427 83.6295 51.686 83.1092 51.6331 83.7761Z" fill="#263238"/>
<path d="M50.4076 89.6931C50.3345 90.1026 50.3475 91.6112 50.4542 91.9199C50.4748 91.98 50.7108 91.9338 50.7343 91.885C50.8805 91.5789 50.7637 90.132 50.8049 89.7435C50.8318 89.486 50.4525 89.4402 50.4076 89.6931Z" fill="#263238"/>
<path d="M50.925 92.2946C51.4462 94.1443 51.98 97.6794 51.8545 98.6114C51.8431 98.6954 51.7171 98.7239 51.702 98.6353C51.5344 97.6441 50.7952 92.8784 50.7209 92.3778C50.6411 91.8452 50.7797 91.7792 50.925 92.2946Z" fill="#263238"/>
<path d="M47.7141 93.7528C47.9417 93.5029 48.2282 93.3026 48.4932 93.0934C48.7658 92.8779 49.0405 92.6688 49.3248 92.4684C49.904 92.0602 50.5029 91.6864 51.1115 91.3239C51.7066 90.9695 52.3173 90.6469 52.9351 90.334C53.5832 90.0056 54.2724 89.7594 54.9209 89.4339C54.9578 89.4155 54.9919 89.4688 54.9549 89.4894C54.3383 89.8296 53.7701 90.2555 53.1733 90.6276C52.5731 91.0014 51.98 91.3865 51.3799 91.7612C50.7935 92.127 50.2131 92.5012 49.6243 92.862C49.3156 93.051 49.0048 93.2345 48.6923 93.4172C48.4021 93.5869 48.1198 93.7784 47.8094 93.909C47.717 93.9468 47.6557 93.8171 47.7141 93.7528Z" fill="#263238"/>
<path d="M37.1154 138.688C37.3859 132.693 37.8151 126.016 37.9029 120.015C37.9466 117.014 37.9684 114.013 37.9676 111.013C37.9667 108.035 37.9886 104.059 37.8323 101.085C37.753 99.5736 35.091 98.4077 34.5492 94.0035C34.2107 91.253 34.3623 88.9295 35.1326 86.525C35.3212 85.9362 35.5463 85.3612 35.7995 84.7971C35.8168 84.7589 35.8722 84.7917 35.8558 84.8295C34.7873 87.2949 34.3472 90.0043 34.5656 92.6826C34.6752 94.0266 34.8793 95.366 35.3905 96.6344C36.1057 98.4081 37.8651 99.8508 37.9571 100.793C38.0944 102.203 38.1163 103.422 38.1343 104.834C38.1528 106.305 38.1662 107.776 38.1738 109.247C38.1893 112.247 38.1818 115.248 38.149 118.248C38.0839 124.22 37.9289 130.191 37.6774 136.157C37.4258 142.124 35.8802 172.005 35.7802 172.683C35.7693 172.757 35.6446 172.741 35.6496 172.666C35.8499 169.677 36.8449 144.683 37.1154 138.688Z" fill="#263238"/>
<path d="M47.0056 65.4008C50.9783 73.6004 56.0238 82.4788 60.7459 83.8728C65.2373 85.1987 73.9502 74.1645 76.6823 71.2598C77.6677 70.2123 69.6826 64.2067 68.444 65.1185C66.1097 66.8372 61.9118 71.5155 61.207 71.3505C60.4737 71.1758 54.6294 65.6028 49.3219 60.9C46.1042 58.0491 44.2537 59.7207 47.0056 65.4008Z" fill="#EB9481"/>
<path d="M83.614 66.0791C84.7048 65.6213 93.1153 65.3537 93.1123 63.5305C93.109 61.7077 82.4099 62.2172 82.4099 62.2172L83.614 66.0791Z" fill="#EB9481"/>
<path d="M67.486 66.2916C68.956 64.4654 70.2479 62.4956 71.526 62.1344C72.4109 61.8845 81.9315 62.2957 83.4191 62.2054C84.9068 62.1151 90.2135 62.252 90.3357 63.5561C90.5087 65.3999 84.2281 65.3831 83.5577 66.3252C81.2431 69.5785 72.4437 74.3888 72.4437 74.3888L67.486 66.2916Z" fill="#EB9481"/>
<path d="M90.4756 63.5822C90.405 63.2424 90.1438 62.9568 89.867 62.7623C89.2168 62.305 88.3609 62.2667 87.596 62.205C86.4406 62.1117 85.2634 62.0761 84.1075 62.1777C84.0819 62.1798 84.0827 62.2176 84.1084 62.2176C84.9794 62.2302 85.8476 62.2403 86.7166 62.3134C87.4969 62.3789 88.3243 62.4331 89.0749 62.6741C89.4134 62.7829 89.749 62.9417 89.9825 63.2189C90.1408 63.407 90.2416 63.6658 90.161 63.9207C89.9073 64.7237 88.3235 64.9619 87.5923 65.1253C86.6359 65.339 85.6447 65.5268 84.685 65.7233C84.643 65.7321 84.6628 65.7956 84.7043 65.7872C85.7018 65.5894 86.7539 65.5133 87.7548 65.3323C88.5662 65.1853 89.4352 65.0207 90.0908 64.4827C90.3643 64.2588 90.5507 63.9442 90.4756 63.5822Z" fill="#263238"/>
<path d="M92.9456 62.0987L92.8889 62.3885C92.828 62.6998 92.5268 62.9026 92.2156 62.8417L75.6697 59.6115L75.9461 58.1953L92.492 61.4255C92.8036 61.4864 93.0065 61.7879 92.9456 62.0987Z" fill="#0066A5"/>
<path opacity="0.1" d="M75.9469 58.1921L75.6703 59.6089L77.6672 59.9987L77.9438 58.5819L75.9469 58.1921Z" fill="black"/>
<path d="M69.6255 56.3913L69.1349 58.9038C68.9615 59.7912 69.1648 60.6652 69.6322 61.3612C70.0997 62.0559 70.8334 62.5725 71.7209 62.7459C73.4975 63.0928 75.2165 61.9336 75.563 60.1587L76.0536 57.6463C76.2271 56.7588 76.0238 55.8848 75.5563 55.1901C75.0889 54.4954 74.3551 53.9788 73.4664 53.8054C71.6911 53.4589 69.972 54.6164 69.6255 56.3913ZM75.0263 57.0213C74.8805 57.7685 74.2274 58.3074 73.4206 58.4363C74.1195 58.8609 74.5223 59.6043 74.3761 60.3515C74.1812 61.3503 73.0787 61.9786 71.9149 61.7514C70.7511 61.5241 69.9674 60.5279 70.1623 59.5291C70.308 58.782 70.9611 58.2431 71.7679 58.1137C71.0686 57.6908 70.6663 56.9457 70.8124 56.1985C71.0077 55.1981 72.1081 54.5727 73.2719 54.7999C74.4358 55.0272 75.2216 56.0209 75.0263 57.0213Z" fill="#0066A5"/>
<path d="M76.7252 57.6811L76.1981 60.3809C76.1699 60.5245 76.0309 60.6182 75.8877 60.5901L75.7541 60.564C75.6105 60.5359 75.5168 60.3969 75.545 60.2536L76.0721 57.5539C76.1002 57.4102 76.2392 57.3166 76.3825 57.3447L76.516 57.3708C76.6597 57.3985 76.7533 57.5375 76.7252 57.6811Z" fill="#0066A5"/>
<path d="M77.3783 57.8084L76.8512 60.5081C76.823 60.6518 76.684 60.7454 76.5408 60.7173L76.4072 60.6913C76.2636 60.6631 76.1699 60.5241 76.1981 60.3805L76.7252 57.6807C76.7533 57.5371 76.8923 57.4434 77.0356 57.4715L77.1691 57.4976C77.3128 57.5261 77.4064 57.6652 77.3783 57.8084Z" fill="#0066A5"/>
<path d="M88.5347 60.0487L89.0274 60.1449L89.3067 58.7139L89.7275 58.7958L89.5818 59.5418L90.0732 59.6379L90.2189 58.892L90.5919 58.9647L90.3617 60.1445L90.8544 60.2406L91.085 59.0613L91.6138 59.1642L91.3063 60.74L91.7994 60.8362L92.1068 59.2604L92.6071 59.3582L92.2139 61.3717L87.8123 60.5124L88.2055 58.4989L88.814 58.6178L88.5347 60.0487Z" fill="#0066A5"/>
<path d="M32.1548 81.7152L55.6 82.1003L53.7625 75.0805C53.7625 75.0805 55.7819 72.5063 54.818 68.9594C54.2573 66.8951 51.5873 63.7963 49.9523 61.8307C45.9686 57.0427 42.5069 59.207 41.4028 60.4388C37.1851 65.1424 32.1548 81.7152 32.1548 81.7152Z" fill="#0066A5"/>
<path d="M43.6989 63.1562L43.717 61.8177L44.6044 62.8106L45.5629 62.5119L45.0937 63.3637L45.5448 63.837L44.848 63.9072L44.8358 64.8119L44.0689 64.1752L43.4456 64.6934L43.5158 63.929L42.6069 63.509L43.6989 63.1562ZM53.6878 78.1612L52.949 78.8369L52.2707 78.477L52.508 79.2523L51.6243 79.7135L52.4538 80.0747L52.2488 80.7446L52.8599 80.5119L53.4643 81.2738L53.5597 80.2746L54.8184 79.8399L53.5907 79.3056L53.6878 78.1612ZM45.1172 73.177L45.8338 74.6046L46.5436 73.24L47.8981 73.4731L47.1773 72.0376L48.1837 71.0795L46.7599 71.1303L46.4751 69.7364L45.7237 71.1803L43.8287 71.0363L44.9459 72.19L43.911 72.9817L45.1172 73.177ZM50.7062 64.9228L51.0502 64.3448L50.405 64.4024L50.1808 63.869L49.8351 64.4503L49.2673 64.3108L49.6083 64.8043L49.1786 65.2214L49.8611 65.1605L50.24 65.8652L50.3958 65.2075L50.9111 65.3948L50.7062 64.9228ZM39.7123 80.204L40.0562 79.6261L39.4111 79.6837L39.1868 79.1502L38.8412 79.7315L38.2733 79.5921L38.6144 80.0856L38.1847 80.5026L38.8672 80.4417L39.2461 81.1465L39.4019 80.4888L39.9172 80.6761L39.7123 80.204ZM43.5666 69.7918L43.9106 69.2139L43.2655 69.2714L43.0412 68.738L42.6955 69.3193L42.1277 69.1799L42.4687 69.6734L42.0391 70.0904L42.7216 70.0295L43.1004 70.7343L43.2562 70.0766L43.7716 70.2639L43.5666 69.7918ZM39.3935 71.3521L39.2742 70.9737L39.0461 71.2803L38.7232 71.1698L38.8433 71.5503L38.5589 71.7456L38.9101 71.7893L38.9248 72.1426L39.1658 71.8179L39.6249 71.9279L39.3964 71.6012L39.6812 71.4479L39.3935 71.3521ZM50.2744 80.3624L50.1551 79.9839L49.9271 80.2905L49.6041 80.1801L49.7242 80.5606L49.4399 80.7559L49.791 80.7996L49.8057 81.1528L50.0468 80.8281L50.5058 80.9382L50.2774 80.6114L50.5621 80.4581L50.2744 80.3624ZM53.5303 69.384L53.8259 69.1194L53.4526 69.0379L53.4202 68.6981L53.1229 68.964L52.828 68.7851L52.9326 69.1232L52.6172 69.2819L53.012 69.368L53.1006 69.8317L53.3043 69.489L53.5613 69.6855L53.5303 69.384ZM47.6431 76.4782L47.9388 76.2136L47.5654 76.1321L47.5331 75.7923L47.2357 76.0582L46.9409 75.8793L47.0455 76.2174L46.73 76.3762L47.1248 76.4622L47.2135 76.9259L47.4172 76.5832L47.6742 76.7798L47.6431 76.4782ZM35.5391 78.7025L35.8348 78.4379L35.4614 78.3564L35.4291 78.0167L35.1317 78.2825L34.8369 78.1036L34.9415 78.4417L34.6261 78.6005L35.0209 78.6866L35.1095 79.1502L35.3132 78.8075L35.5702 79.0041L35.5391 78.7025Z" fill="white"/>
<path d="M47.4898 74.6672C48.4911 74.5895 49.502 74.5454 50.5054 74.6168C51.0044 74.6525 51.4987 74.7109 51.9939 74.7797C52.2409 74.8142 52.4874 74.8402 52.7352 74.865C52.9897 74.8906 53.261 74.9078 53.5156 74.87C53.5387 74.8667 53.5441 74.9007 53.5214 74.9053C53.2766 74.9566 53.0426 75.0053 52.7923 75.0238C52.5546 75.0414 52.3139 75.0338 52.0762 75.0191C51.5697 74.9881 51.0649 74.933 50.5588 74.8969C49.5373 74.8234 48.5167 74.7503 47.4923 74.7508C47.4453 74.7503 47.4424 74.6706 47.4898 74.6672Z" fill="#263238"/>
<path d="M45.2113 75.9835C46.0047 75.7541 46.8212 75.5593 47.636 75.4215C48.0459 75.3522 48.4562 75.3073 48.8704 75.2724C49.0682 75.256 49.266 75.243 49.4642 75.2325C49.6822 75.2207 49.9019 75.2384 50.1194 75.2237C50.1421 75.222 50.1484 75.2569 50.1253 75.259C49.9204 75.2791 49.7179 75.3333 49.5146 75.3652C49.3105 75.3971 49.1056 75.4278 48.9014 75.4597C48.4924 75.524 48.0841 75.5924 47.6742 75.6525C46.8535 75.773 46.0379 75.9016 45.2222 76.0503C45.1781 76.0591 45.1702 75.9956 45.2113 75.9835Z" fill="#263238"/>
<path d="M43.6989 60.1596C43.7972 60.5775 45.7976 63.289 47.7091 63.1966C48.3315 63.1655 48.3126 59.7606 48.3126 59.7606L48.3689 59.509L49.1509 55.9856L45.0093 53.3371L44.4108 52.9864C44.4108 52.9864 44.2604 53.9646 44.0853 55.1843C44.0769 55.241 44.0685 55.2972 44.0601 55.3581C44.0483 55.427 44.0366 55.4917 44.0286 55.5564C44 55.7382 43.9719 55.9239 43.9475 56.1099C43.9286 56.2511 43.9089 56.3884 43.8946 56.5375C43.8761 56.6866 43.861 56.8319 43.8425 56.981C43.6913 58.4552 43.6594 59.9819 43.6989 60.1596Z" fill="#EB9481"/>
<path d="M44.0853 55.1842C45.0988 57.9861 47.3399 59.1255 48.3689 59.5086L49.1509 55.9852L45.0093 53.3367L44.4108 52.986C44.4108 52.986 44.26 53.9646 44.0853 55.1842Z" fill="#263238"/>
<path d="M54.1099 50.237C55.3375 56.4514 51.7541 57.8886 50.4139 58.1515C49.1971 58.3905 45.024 59.0495 43.1605 52.9952C41.2973 46.9409 43.7984 44.4058 46.5524 43.7119C49.3063 43.0185 52.8822 44.0227 54.1099 50.237Z" fill="#EB9481"/>
<path d="M52.2925 49.2883C52.148 49.3261 52.0082 49.337 51.8612 49.3597C51.6953 49.3853 51.5655 49.4227 51.4072 49.3483C51.3219 49.3088 51.2765 49.1782 51.3076 49.0921C51.3794 48.8909 51.5747 48.8095 51.7734 48.7704C51.9889 48.728 52.1657 48.7507 52.3589 48.854C52.5458 48.9535 52.4836 49.2383 52.2925 49.2883Z" fill="#263238"/>
<path d="M47.8792 50.5592C48.0278 50.5428 48.1622 50.5033 48.308 50.4722C48.4722 50.437 48.6066 50.426 48.7284 50.3C48.7939 50.2324 48.7897 50.0947 48.7301 50.0249C48.5915 49.8628 48.3798 49.8557 48.1803 49.8901C47.964 49.9275 47.8069 50.0115 47.6629 50.1766C47.523 50.3366 47.6826 50.5802 47.8792 50.5592Z" fill="#263238"/>
<path d="M48.8141 51.3555C48.8086 51.3396 48.7838 51.3807 48.7868 51.3984C48.8641 51.8226 48.8813 52.322 48.5163 52.5215C48.505 52.5278 48.5096 52.5488 48.5234 52.545C48.985 52.4081 48.9556 51.7453 48.8141 51.3555Z" fill="#263238"/>
<path d="M48.3668 50.967C47.6729 51.0174 47.825 52.4017 48.468 52.3547C49.1005 52.3089 48.9485 50.9246 48.3668 50.967Z" fill="#263238"/>
<path d="M48.103 51.0699C47.9909 51.1615 47.8876 51.3127 47.7435 51.3429C47.5768 51.3782 47.4335 51.2471 47.308 51.1199C47.2949 51.1064 47.2844 51.1199 47.2861 51.1384C47.3113 51.4038 47.4432 51.6646 47.7317 51.673C47.9951 51.6806 48.1555 51.4252 48.1925 51.1514C48.1992 51.1014 48.1484 51.0329 48.103 51.0699Z" fill="#263238"/>
<path d="M51.4441 50.9545C51.4458 50.9377 51.4798 50.9713 51.4811 50.9889C51.5113 51.4194 51.618 51.9074 52.0208 52.0099C52.0334 52.0133 52.0342 52.0347 52.0195 52.0343C51.5395 52.0162 51.4038 51.3673 51.4441 50.9545Z" fill="#263238"/>
<path d="M51.7814 50.4672C52.4664 50.3442 52.6613 51.723 52.0271 51.8369C51.403 51.949 51.2077 50.5706 51.7814 50.4672Z" fill="#263238"/>
<path d="M52.0817 50.5172C52.201 50.5747 52.3274 50.6923 52.4588 50.6827C52.6109 50.6713 52.7016 50.5063 52.7776 50.3496C52.7856 50.3332 52.7978 50.3433 52.8011 50.3618C52.8457 50.6243 52.7974 50.9112 52.5517 50.9973C52.3274 51.0762 52.1258 50.8742 52.0258 50.6205C52.0069 50.5735 52.0338 50.4941 52.0817 50.5172Z" fill="#263238"/>
<path d="M49.594 54.9784C49.7036 55.0725 49.8154 55.2048 49.9724 55.2078C50.1232 55.2107 50.2942 55.1317 50.4281 55.07C50.4416 55.0641 50.4559 55.0776 50.4483 55.091C50.3471 55.2632 50.1186 55.3821 49.917 55.3598C49.72 55.3384 49.6129 55.1758 49.5541 55.0007C49.5453 54.9763 49.5781 54.9646 49.594 54.9784Z" fill="#263238"/>
<path d="M51.1955 53.2127C51.1955 53.2127 51.3618 53.8415 51.3988 54.143C51.4021 54.1712 51.3307 54.1935 51.2291 54.2119C51.2245 54.214 51.2219 54.2161 51.2173 54.2136C50.6948 54.3614 50.1362 54.243 49.7595 53.8478C49.7351 53.8209 49.7696 53.7852 49.7994 53.8007C50.2324 54.0443 50.681 54.0662 51.1543 54.0162C51.1657 53.9301 50.8339 52.949 50.8809 52.9397C51.0443 52.9057 51.3824 52.9784 51.5848 53.0116C51.2765 51.6919 50.7595 50.4324 50.4718 49.114C50.4626 49.0665 50.5289 49.0443 50.5483 49.085C51.1837 50.3668 51.5722 51.8776 51.9254 53.2321C51.9708 53.4005 51.3223 53.2497 51.1955 53.2127Z" fill="#263238"/>
<path d="M51.1846 54.1044C51.1846 54.1044 50.9657 54.55 50.5936 54.7642C50.4567 54.8436 50.3026 54.8932 50.1287 54.8793C49.7725 54.852 49.707 54.5416 49.7204 54.2632C49.7309 54.0343 49.7981 53.8264 49.7981 53.8264C49.7981 53.8264 50.3798 54.2006 51.1846 54.1044Z" fill="#263238"/>
<path d="M50.5936 54.7642C50.4567 54.8436 50.3026 54.8931 50.1287 54.8793C49.7725 54.852 49.707 54.5416 49.7204 54.2631C50.0921 54.2342 50.4979 54.4156 50.5936 54.7642Z" fill="#FF9ABB"/>
<path d="M43.853 53.5437C45.0408 53.5256 44.9618 50.8108 44.9618 50.8108C44.9618 50.8108 49.8154 49.2635 49.6637 45.1563C49.6637 45.1563 50.8813 47.6154 53.6508 48.4142C53.6508 48.4142 52.8486 44.0017 49.2076 43.6384C49.2076 43.6384 44.6153 42.6682 42.651 46.4801C40.6867 50.2916 43.0559 53.5559 43.853 53.5437Z" fill="#263238"/>
<path d="M49.639 44.8547C49.7931 45.4629 49.7923 46.1093 49.6789 46.7338C49.565 47.3584 49.3319 47.9703 48.9716 48.5012C48.8926 48.641 48.7784 48.7561 48.6835 48.8846L48.5344 49.0724C48.4798 49.1303 48.4222 49.1858 48.3647 49.2412C48.2488 49.3508 48.137 49.4651 48.0173 49.5697C47.8909 49.6667 47.7624 49.7603 47.6335 49.8527C47.5688 49.8985 47.5062 49.9468 47.4398 49.9901L47.2328 50.106L46.8195 50.3357C46.531 50.4617 46.2365 50.573 45.9438 50.6789C46.2118 50.5138 46.4911 50.379 46.7523 50.2139L47.1358 49.9552L47.3269 49.8267C47.3873 49.7797 47.444 49.7276 47.5024 49.6784C47.6183 49.5781 47.7343 49.4794 47.8531 49.3836C47.9632 49.2786 48.0644 49.1648 48.1706 49.056L48.3286 48.8922L48.4672 48.712C48.5554 48.589 48.662 48.4789 48.7351 48.3458C49.0816 47.8477 49.3076 47.276 49.4668 46.6885C49.5449 46.3932 49.5944 46.09 49.6226 45.7838C49.6558 45.4763 49.6583 45.1668 49.639 44.8547Z" fill="#263238"/>
<path d="M42.0034 49.8065L41.7102 50.4029L43.6745 51.8418L44.3071 50.4991L42.0034 49.8065ZM43.5389 51.2257L42.1785 50.3462L42.2436 50.2055L43.7703 50.7557L43.5389 51.2257Z" fill="#0066A5"/>
<path d="M42.0857 48.7523L42.0386 49.4151L44.4003 50.0077L44.4801 48.5259L42.0857 48.7523ZM44.0429 49.4886L42.4515 49.1862L42.4586 49.0316L44.0798 48.9661L44.0429 49.4886Z" fill="#0066A5"/>
<path d="M44.7619 53.0069C44.7619 53.0069 43.1735 51.1909 42.3347 51.778C41.4964 52.3652 42.84 55.1019 43.9295 55.3778C45.019 55.6538 45.2941 54.65 45.2941 54.65L44.7619 53.0069Z" fill="#EB9481"/>
<path d="M42.7396 52.5534C42.7224 52.5538 42.722 52.5777 42.7371 52.5819C43.5036 52.7995 43.9643 53.4379 44.3121 54.1145C44.0643 53.8667 43.7506 53.7499 43.415 54.0494C43.3973 54.0654 43.4188 54.0931 43.4389 54.0868C43.7325 53.9898 43.9555 54.0183 44.1848 54.2367C44.3474 54.3917 44.4692 54.5967 44.5935 54.7823C44.6351 54.844 44.7497 54.7962 44.7166 54.7231C44.714 54.7176 44.7111 54.7122 44.7086 54.7067C44.6254 53.7688 43.7548 52.5382 42.7396 52.5534Z" fill="#263238"/>
<path d="M40.005 61.8223C34.6639 71.0392 26.6771 92.1887 25.2349 95.2144C24.2558 97.2678 34.9902 102.68 35.4459 101.186C36.0297 99.2741 43.4797 74.639 43.9656 63.6485C44.1907 58.5543 41.7136 58.8747 40.005 61.8223Z" fill="#EB9481"/>
<path d="M31.0813 105.889C31.6457 105.395 31.9087 105.688 31.6625 106.998C31.4164 108.324 29.3307 113.285 31.1283 113.866C32.9309 114.452 35.7676 107.383 36.01 105.17C36.2578 102.957 35.8697 99.2922 35.8697 99.2922C35.041 100.556 32.7386 103.43 31.0813 105.889Z" fill="#EB9481"/>
<path d="M34.2317 113.594L20.7686 111.176C20.3658 111.14 20.0941 110.861 20.1629 110.554L21.3952 105.06C21.4641 104.753 21.8471 104.533 22.2499 104.569L35.713 106.987C36.1166 107.024 36.3875 107.302 36.3187 107.609L35.0864 113.103C35.0179 113.41 34.6353 113.63 34.2317 113.594Z" fill="#A6A6A6"/>
<path d="M34.385 112.945L20.9219 110.526C20.5191 110.49 20.2474 110.211 20.3162 109.904L21.5485 104.41C21.6174 104.103 22.0009 103.883 22.4036 103.919L35.8667 106.337C36.2704 106.373 36.5413 106.652 36.4724 106.958L35.2401 112.453C35.1712 112.761 34.7886 112.981 34.385 112.945Z" fill="#C7C7C7"/>
<path d="M34.1351 111.205C33.8226 111.087 33.5278 111.203 33.4769 111.463C33.4261 111.724 33.6382 112.03 33.9507 112.148C34.2632 112.266 34.558 112.151 34.6088 111.89C34.6601 111.63 34.448 111.323 34.1351 111.205Z" fill="#263238"/>
<path d="M25.9497 94.2471C23.2075 97.9431 20.7808 102.297 20.7241 107.103C20.7131 108.046 21.1789 108.593 21.1789 108.593C21.1155 110.747 22.113 111.424 22.113 111.424C22.6678 113.448 23.7838 114 23.7838 114C23.7838 114 23.9455 115.733 25.166 115.709C26.3504 115.686 27.0585 112.843 28.1266 110.765C30.5743 106.003 35.0272 100.595 35.8697 99.2918L25.9497 94.2471Z" fill="#EB9481"/>
<path d="M26.8271 104.648C26.1349 106.063 25.4176 107.436 24.9207 108.938C24.3755 110.586 24.1269 112.263 23.8316 113.964C23.8224 114.017 23.7476 114.01 23.7485 113.957C23.7955 110.792 25.0026 107.237 26.7637 104.616C26.8061 104.551 26.8619 104.576 26.8271 104.648Z" fill="#263238"/>
<path d="M24.1681 102.753C23.5708 104.168 22.5368 106.661 22.1642 111.428C22.163 111.444 22.1361 111.447 22.1353 111.43C21.9656 108.302 22.6573 105.475 24.1004 102.724C24.1454 102.639 24.208 102.658 24.1681 102.753Z" fill="#263238"/>
<path d="M22.7199 101.761C21.7959 104.205 21.5225 105.863 21.1911 108.584C21.1894 108.6 21.1621 108.601 21.1621 108.583C21.2142 105.451 21.588 104.321 22.6401 101.717C22.6766 101.628 22.756 101.666 22.7199 101.761Z" fill="#263238"/>
</svg>
