<svg width="241" height="179" viewBox="0 0 241 179" fill="none" xmlns="http://www.w3.org/2000/svg">
<path d="M216.452 164.9H200.554V165.02H216.452V164.9Z" fill="#FCE6E9"/>
<path d="M159.486 166.203H155.313V166.323H159.486V166.203Z" fill="#FCE6E9"/>
<path d="M200.073 160.443H190.861V160.563H200.073V160.443Z" fill="#FCE6E9"/>
<path d="M46.4129 161.25H25.6803V161.37H46.4129V161.25Z" fill="#FCE6E9"/>
<path d="M53.7267 161.25H50.6869V161.37H53.7267V161.25Z" fill="#FCE6E9"/>
<path d="M108.571 163.276H63.6061V163.396H108.571V163.276Z" fill="#FCE6E9"/>
<path d="M114.932 135.767H22.2448C20.7343 135.767 19.505 134.538 19.505 133.027V2.73984C19.505 1.22928 20.7343 0 22.2448 0H114.932C116.442 0 117.672 1.22928 117.672 2.73984V133.027C117.672 134.538 116.442 135.767 114.932 135.767ZM22.2448 0.12048C20.8 0.12048 19.625 1.29552 19.625 2.74032V133.028C19.625 134.472 20.8 135.648 22.2448 135.648H114.932C116.377 135.648 117.552 134.472 117.552 133.028V2.73984C117.552 1.29552 116.377 0.12 114.932 0.12L22.2448 0.12048Z" fill="#FCE6E9"/>
<path d="M218.755 135.767H126.067C124.557 135.767 123.328 134.538 123.328 133.027V2.73984C123.328 1.22928 124.557 0 126.067 0H218.755C220.266 0 221.495 1.22928 221.495 2.73984V133.027C221.495 134.538 220.265 135.767 218.755 135.767ZM126.067 0.12048C124.623 0.12048 123.448 1.29552 123.448 2.74032V133.028C123.448 134.472 124.623 135.648 126.067 135.648H218.755C220.2 135.648 221.375 134.472 221.375 133.028V2.73984C221.375 1.29552 220.2 0.12 218.755 0.12L126.067 0.12048Z" fill="#FCE6E9"/>
<path d="M240.5 157.174H0.5V157.294H240.5V157.174Z" fill="#FCE6E9"/>
<path d="M57.7791 124.703C57.3735 120.068 52.6412 118.332 47.0333 118.823C41.426 119.313 37.0666 121.844 37.4722 126.48L57.7791 124.703Z" fill="#FF000D"/>
<path d="M46.848 116.704C49.4506 116.477 50.2815 114.278 50.0535 111.676C49.826 109.073 48.626 107.052 46.0234 107.28C43.4208 107.508 42.59 109.706 42.818 112.309C43.0455 114.911 44.2455 116.932 46.848 116.704Z" fill="#FF000D"/>
<path d="M163.748 25.9291C163.874 27.3643 162.812 28.6296 161.377 28.7548C159.942 28.8806 158.676 27.8188 158.551 26.3836C158.425 24.9484 159.487 23.6832 160.922 23.5574C162.358 23.4321 163.623 24.4939 163.748 25.9291Z" fill="#F7B3BC"/>
<path d="M178.183 24.6664C178.309 26.1016 177.247 27.3669 175.812 27.4921C174.377 27.6179 173.111 26.5561 172.986 25.1209C172.86 23.6857 173.922 22.4205 175.357 22.2947C176.792 22.1694 178.057 23.2312 178.183 24.6664Z" fill="#F7B3BC"/>
<path d="M192.618 23.4033C192.744 24.8385 191.682 26.1038 190.247 26.2295C188.812 26.3553 187.546 25.2935 187.421 23.8583C187.295 22.4231 188.357 21.1578 189.792 21.0321C191.227 20.9063 192.492 21.9681 192.618 23.4033Z" fill="#F7B3BC"/>
<path d="M165.035 40.6426C165.161 42.0778 164.099 43.3431 162.664 43.4689C161.229 43.5946 159.964 42.5329 159.838 41.0977C159.712 39.6625 160.774 38.3972 162.209 38.2719C163.645 38.1457 164.91 39.2069 165.035 40.6426Z" fill="#F7B3BC"/>
<path d="M179.47 39.3793C179.596 40.8145 178.534 42.0798 177.099 42.2055C175.664 42.3313 174.399 41.2695 174.273 39.8343C174.147 38.3991 175.209 37.1338 176.644 37.0081C178.079 36.8828 179.345 37.9446 179.47 39.3793Z" fill="#F7B3BC"/>
<path d="M193.905 38.1165C194.031 39.5517 192.969 40.817 191.534 40.9423C190.099 41.068 188.834 40.0063 188.708 38.5711C188.582 37.1359 189.644 35.8706 191.079 35.7448C192.514 35.62 193.78 36.6818 193.905 38.1165Z" fill="#F7B3BC"/>
<path d="M166.323 55.3554C166.449 56.7906 165.387 58.0559 163.952 58.1817C162.517 58.3074 161.251 57.2457 161.126 55.8105C161 54.3753 162.062 53.11 163.497 52.9842C164.932 52.8585 166.197 53.9202 166.323 55.3554Z" fill="#F7B3BC"/>
<path d="M180.758 54.0928C180.883 55.528 179.822 56.7933 178.387 56.9191C176.951 57.0448 175.686 55.9831 175.56 54.5479C175.435 53.1127 176.496 51.8474 177.931 51.7221C179.367 51.5959 180.632 52.6576 180.758 54.0928Z" fill="#F7B3BC"/>
<path d="M195.193 52.8296C195.318 54.2648 194.257 55.53 192.821 55.6553C191.386 55.7806 190.121 54.7193 189.995 53.2841C189.869 51.8489 190.931 50.5836 192.366 50.4584C193.802 50.3326 195.067 51.3944 195.193 52.8296Z" fill="#F7B3BC"/>
<path d="M192.074 53.6768L162.416 56.2717L188.712 24.3195L161.769 26.6768C161.455 26.7041 161.177 26.4713 161.15 26.1565C161.122 25.8416 161.355 25.5641 161.67 25.5368L191.327 22.9419L165.032 54.8941L191.974 52.5368C192.289 52.5094 192.567 52.7422 192.594 53.0566C192.621 53.3715 192.389 53.6494 192.074 53.6768Z" fill="#0066A5"/>
<path d="M192.528 110.714C192.43 110.431 192.177 110.221 191.879 110.202C190.518 110.111 189.369 109.602 188.46 108.688C187.273 107.497 186.576 105.685 186.463 103.533C186.442 103.132 186.106 102.82 185.705 102.817C185.26 102.815 184.906 103.19 184.93 103.633C185.067 106.157 185.92 108.316 187.371 109.773C188.504 110.911 189.966 111.577 191.631 111.723C191.66 111.725 191.698 111.729 191.741 111.732C192.293 111.776 192.709 111.237 192.528 110.714Z" fill="#FF000D"/>
<path d="M190.995 119.927C184.633 119.37 180.045 115.034 178.593 108.268C178.501 107.837 178.776 107.412 179.211 107.337C179.612 107.267 180.005 107.521 180.09 107.92C181.391 114.005 185.475 117.902 191.128 118.397C197.328 118.939 203.987 114.86 205.18 104.577C205.229 104.16 205.592 103.852 206.01 103.889C206.437 103.926 206.758 104.308 206.707 104.734C205.565 114.429 199.19 120.644 190.995 119.927Z" fill="#FF000D"/>
<path d="M178.993 101.525C178.565 101.488 178.244 101.106 178.295 100.68C179.438 90.9837 185.813 84.7696 194.008 85.4862C201.188 86.1146 206.03 91.4901 206.784 99.5877C206.824 100.015 206.492 100.388 206.063 100.413H206.062C205.644 100.438 205.291 100.122 205.251 99.7058C204.559 92.4102 200.25 87.5742 193.874 87.0165C187.673 86.4741 181.014 90.5526 179.822 100.837C179.774 101.254 179.41 101.561 178.993 101.525Z" fill="#FF000D"/>
<path d="M191.307 115.814C190.124 115.71 189.015 115.434 187.997 114.99C187.583 114.809 187.412 114.31 187.628 113.913C187.817 113.567 188.238 113.417 188.598 113.576C189.556 113.996 190.613 114.244 191.753 114.306C196.456 114.575 201.419 111.245 201.905 103.197C202.205 98.2404 200.507 94.2367 197.337 92.322C196.997 92.1166 196.871 91.687 197.046 91.3308C197.246 90.9262 197.751 90.7769 198.136 91.0097C201.805 93.2244 203.775 97.7431 203.439 103.29C202.97 111.05 198.128 116.211 191.665 115.841C191.546 115.833 191.426 115.824 191.307 115.814Z" fill="#FF000D"/>
<path d="M184.468 111.027C184.096 111.281 183.588 111.162 183.363 110.773C182.002 108.419 181.365 105.384 181.563 102.124C182.011 94.7009 186.462 89.6556 192.506 89.5563C192.954 89.5491 193.316 89.9239 193.291 90.3718V90.3737C193.268 90.7726 192.943 91.0865 192.544 91.0942C188.062 91.1825 183.559 94.5703 183.097 102.217C182.917 105.185 183.485 107.924 184.702 110.019C184.902 110.363 184.796 110.802 184.468 111.027Z" fill="#FF000D"/>
<path d="M194.962 110.399C194.806 110.043 194.943 109.632 195.276 109.432C197.294 108.216 198.534 105.665 198.555 102.591C198.572 100.128 197.857 98.045 196.542 96.725C195.529 95.7064 194.218 95.1938 192.647 95.1966C190.28 95.2029 188.364 96.4994 187.302 98.7808C187.135 99.1398 186.72 99.3098 186.348 99.173C185.925 99.0174 185.724 98.5302 185.915 98.1222C187.228 95.3195 189.692 93.6678 192.642 93.6597C194.61 93.6568 196.336 94.3398 197.631 95.6406C199.237 97.2534 200.111 99.725 200.091 102.601C200.067 106.229 198.538 109.271 196.049 110.759C195.657 110.993 195.146 110.817 194.962 110.399Z" fill="#FF000D"/>
<path d="M189.432 104.756C188.996 104.931 188.508 104.678 188.396 104.221C188.345 104.013 188.303 103.799 188.27 103.578C187.835 100.706 189.379 98.2047 191.861 97.7612C193.142 97.5313 194.285 97.8327 195.158 98.6122C195.512 98.929 195.485 99.494 195.098 99.771L195.05 99.805C194.76 100.013 194.376 99.9663 194.105 99.733C193.584 99.2862 192.923 99.1316 192.132 99.2732C190.24 99.6116 189.521 101.58 189.789 103.348C189.815 103.521 189.847 103.688 189.887 103.848C189.978 104.225 189.792 104.611 189.432 104.756Z" fill="#FF000D"/>
<path d="M191.971 107.711C191.969 107.711 191.966 107.711 191.964 107.711C191.435 107.664 191.143 107.071 191.425 106.62L191.49 106.516C191.632 106.29 191.885 106.166 192.151 106.184C192.378 106.2 192.619 106.185 192.871 106.14C194.523 105.845 195.281 104.307 195.268 102.744C195.264 102.354 195.535 102.017 195.92 101.959C196.371 101.89 196.796 102.225 196.805 102.681C196.851 105.186 195.376 107.253 193.141 107.653C192.738 107.725 192.346 107.744 191.971 107.711Z" fill="#FF000D"/>
<path d="M192.312 104.875C191.494 104.804 190.884 104.253 190.663 103.466C190.535 103.01 190.917 102.568 191.389 102.61L191.565 102.625C191.838 102.649 192.064 102.836 192.155 103.095C192.2 103.222 192.285 103.331 192.445 103.344C192.814 103.377 192.879 102.847 192.889 102.741C192.895 102.665 192.911 102.371 192.786 102.197C192.662 102.027 192.578 101.833 192.596 101.624C192.656 100.941 193.519 100.666 193.954 101.196C194.3 101.617 194.478 102.207 194.419 102.875C194.31 104.131 193.423 104.973 192.312 104.875Z" fill="#FF000D"/>
<path d="M177.876 87.6965C177.453 87.6595 177.141 87.2871 177.178 86.8642L177.76 80.2085L184.416 80.7907C184.839 80.8277 185.151 81.2002 185.114 81.6231C185.077 82.0459 184.705 82.3584 184.282 82.3215L179.157 81.8731L178.708 86.9981C178.672 87.421 178.299 87.7335 177.876 87.6965Z" fill="#FF000D"/>
<path d="M209.522 90.4652C209.099 90.4282 208.786 90.0557 208.823 89.6328L209.272 84.5079L204.147 84.0596C203.724 84.0226 203.411 83.6501 203.448 83.2272C203.485 82.8044 203.858 82.4919 204.28 82.5288L210.936 83.1111L210.354 89.7668C210.317 90.1897 209.944 90.5021 209.522 90.4652Z" fill="#FF000D"/>
<path d="M207.162 126.249L200.507 125.667C200.084 125.63 199.771 125.257 199.808 124.834C199.845 124.411 200.218 124.099 200.641 124.136L205.766 124.584L206.214 119.459C206.251 119.036 206.623 118.724 207.046 118.761C207.469 118.798 207.782 119.17 207.745 119.593L207.162 126.249Z" fill="#FF000D"/>
<path d="M180.641 123.929L173.986 123.346L174.568 116.691C174.605 116.268 174.977 115.955 175.4 115.992C175.823 116.029 176.136 116.402 176.099 116.825L175.65 121.95L180.775 122.398C181.198 122.435 181.511 122.807 181.474 123.23C181.437 123.653 181.064 123.966 180.641 123.929Z" fill="#FF000D"/>
<path d="M36.3704 109.524C36.1107 109.546 35.8813 109.354 35.8587 109.094L35.5006 105.002L39.5926 104.644C39.8528 104.621 40.0817 104.813 40.1043 105.074C40.1269 105.333 39.9349 105.563 39.6747 105.585L36.5235 105.861L36.799 109.012C36.8225 109.272 36.6301 109.501 36.3704 109.524Z" fill="#0066A5"/>
<path d="M55.8277 107.821C55.5681 107.844 55.3386 107.652 55.3161 107.392L55.0405 104.241L51.8893 104.516C51.6297 104.539 51.4002 104.347 51.3777 104.087C51.3551 103.827 51.5471 103.597 51.8073 103.575L55.8993 103.217L56.2573 107.309C56.2799 107.569 56.0879 107.799 55.8277 107.821Z" fill="#0066A5"/>
<path d="M57.8438 125.442L53.7518 125.8C53.4921 125.823 53.2626 125.631 53.2401 125.371C53.2175 125.111 53.4095 124.882 53.6697 124.859L56.8209 124.584L56.5454 121.432C56.5228 121.172 56.7148 120.943 56.975 120.921C57.2346 120.898 57.4641 121.09 57.4866 121.35L57.8438 125.442Z" fill="#0066A5"/>
<path d="M41.537 126.868L37.445 127.227L37.0869 123.134C37.0643 122.874 37.2563 122.645 37.5165 122.622C37.7762 122.6 38.0056 122.792 38.0282 123.052L38.3037 126.203L41.4549 125.928C41.7146 125.905 41.944 126.097 41.9666 126.357C41.9891 126.616 41.7966 126.845 41.537 126.868Z" fill="#0066A5"/>
<path d="M55.4998 41.2781L39.8369 42.6485L39.5163 38.9832C39.1837 35.1806 42.0065 31.8168 45.8086 31.4842C49.6112 31.1515 52.975 33.9744 53.3077 37.7765L53.4939 39.9062L55.7537 39.7085L55.5675 37.5787C55.1259 32.5301 50.6595 28.7827 45.6109 29.2243C40.5622 29.6659 36.8149 34.1323 37.2565 39.181L37.579 42.8674C35.7565 43.2226 34.459 44.9035 34.6241 46.7942L35.743 59.5829C35.9201 61.6051 37.7029 63.1008 39.7251 62.9242L57.2595 61.3901C59.2817 61.2134 60.7774 59.4307 60.6008 57.4085L59.4819 44.6198C59.3048 42.5971 57.5221 41.101 55.4998 41.2781ZM48.8465 51.1325L49.232 55.536C49.2953 56.2589 48.7606 56.8958 48.0377 56.9592C47.3149 57.0226 46.6779 56.4878 46.6145 55.765L46.2291 51.3614C45.6541 51.0072 45.2437 50.401 45.1803 49.6762C45.0737 48.4594 45.9742 47.3866 47.191 47.28C48.4078 47.1734 49.4806 48.0739 49.5872 49.2907C49.6501 50.015 49.351 50.6837 48.8465 51.1325Z" fill="#FCE6E9"/>
<path d="M82.3138 48.6917L80.7303 46.1103C79.8725 46.2289 79.1708 46.2289 78.313 46.1103L76.7295 48.6917L76.4256 48.6111C75.4052 48.3399 74.4207 47.9309 73.5 47.3967L73.2279 47.2388L73.8994 44.4365C73.9536 44.2095 74.1816 44.0698 74.4087 44.1241C74.6357 44.1783 74.7754 44.4063 74.7207 44.6333L74.1965 46.8193C74.8805 47.1917 75.5996 47.4903 76.3407 47.7101L77.8872 45.1882L78.1671 45.2338C79.0637 45.3802 79.9786 45.3802 80.8752 45.2338L81.1551 45.1882L82.7016 47.7101C83.4428 47.4898 84.1618 47.1917 84.8458 46.8193L84.1575 43.9465L84.3879 43.7813C85.0157 43.3301 85.5754 42.7969 86.0559 42.1935C86.1984 42.014 86.4524 41.9717 86.6381 42.1057C86.8311 42.2444 86.8762 42.518 86.7288 42.7042C86.2565 43.3004 85.7141 43.8341 85.1103 44.2969L85.8154 47.2388L85.5437 47.3967C84.6231 47.9309 83.6386 48.3399 82.6181 48.6111L82.3138 48.6917ZM72.6082 43.0561C72.4752 42.9039 72.3466 42.7474 72.2232 42.5866L69.2808 43.2913L69.1229 43.0196C68.5887 42.0989 68.1797 41.1145 67.9085 40.094L67.8279 39.7901L70.4093 38.2066C70.3498 37.7765 70.321 37.3791 70.321 36.998C70.321 36.6173 70.3503 36.2194 70.4093 35.7893L67.8279 34.2063L67.9085 33.9025C68.1797 32.882 68.5887 31.8975 69.1229 30.9769L69.2808 30.7052L72.2228 31.4098C72.7157 30.7666 73.2893 30.1935 73.9325 29.7001L73.3988 27.4738C73.3445 27.2473 73.4842 27.0197 73.7103 26.9655L73.7117 26.965C73.9383 26.9108 74.1658 27.0505 74.22 27.2765L74.8844 30.05L74.652 30.217C73.9148 30.7479 73.2682 31.3945 72.7378 32.1317L72.5722 32.3617L69.6994 31.6733C69.3274 32.3573 69.0293 33.0764 68.809 33.8175L71.33 35.3636L71.2844 35.6434C71.2037 36.1383 71.1644 36.5813 71.1644 36.9975C71.1644 37.4146 71.2037 37.8572 71.2844 38.3516L71.33 38.6309L68.8085 40.178C69.0284 40.9196 69.3269 41.6381 69.6989 42.3221L72.5717 41.6338L72.7373 41.8637C72.8933 42.0807 73.0608 42.2914 73.2375 42.4935C73.3844 42.6615 73.3805 42.9125 73.2197 43.0676L73.2044 43.0825C73.0354 43.2471 72.7637 43.2337 72.6082 43.0561ZM89.762 43.2917L88.6772 43.0321C88.4501 42.9778 88.3104 42.7498 88.3647 42.5228C88.4189 42.2962 88.6469 42.1561 88.874 42.2103L89.3424 42.3226C89.7144 41.6386 90.0125 40.9196 90.2328 40.1785L87.7114 38.6314L87.757 38.3521C87.8376 37.8577 87.877 37.4146 87.877 36.998C87.877 36.5813 87.8376 36.1388 87.757 35.6439L87.7114 35.3641L90.2324 33.818C90.0125 33.0764 89.714 32.3578 89.342 31.6738L86.4692 32.3621L86.3036 32.1322C85.7732 31.3949 85.1266 30.7484 84.3893 30.2175L84.157 30.0505L84.8453 27.1777C84.1613 26.8057 83.4423 26.5071 82.7012 26.2868L81.1546 28.8082L80.8748 28.7631C79.9776 28.6177 79.0628 28.6177 78.1656 28.7631L77.8863 28.8082L76.3397 26.2873C76.2437 26.3156 76.1477 26.3458 76.0517 26.377C75.8376 26.4471 75.6072 26.3319 75.53 26.1207C75.4484 25.8985 75.564 25.6479 75.7887 25.5745C75.9994 25.5053 76.212 25.4425 76.4237 25.3863L76.728 25.3052L78.3116 27.8871C79.1732 27.7676 79.8668 27.7676 80.7284 27.8871L82.3119 25.3052L82.6162 25.3858C83.6367 25.6575 84.6212 26.0665 85.5418 26.6002L85.8135 26.7581L85.1084 29.7005C85.7516 30.194 86.3252 30.7671 86.8181 31.4103L89.76 30.7057L89.918 30.9773C90.4522 31.898 90.8612 32.8825 91.1324 33.9029L91.213 34.2068L88.6316 35.7898C88.6911 36.2199 88.7199 36.6178 88.7199 36.9985C88.7199 37.3796 88.6906 37.777 88.6316 38.2071L91.213 39.7906L91.1324 40.0945C90.8612 41.1149 90.4522 42.0994 89.918 43.0201L89.762 43.2917ZM79.4031 41.1111C77.2584 41.0506 75.47 39.2631 75.4085 37.1185C75.3466 34.957 76.9618 33.1517 79.0464 32.9113C79.2984 32.882 79.5216 33.0793 79.5216 33.3332C79.5216 33.5463 79.3628 33.7253 79.1511 33.7493C77.3127 33.9577 75.9317 35.6962 76.3167 37.6565C76.5668 38.9295 77.5925 39.9553 78.866 40.2039C80.9554 40.6124 82.7919 39.0159 82.7919 36.998C82.7919 36.3226 82.5836 35.6689 82.2 35.1212C82.0791 34.9484 82.1117 34.7122 82.2701 34.5725C82.4597 34.405 82.7554 34.4401 82.8999 34.6479C83.3775 35.3343 83.6367 36.1527 83.6367 36.998C83.6357 39.3063 81.7258 41.1764 79.4031 41.1111Z" fill="#FF000D"/>
<path d="M52.4909 83.8272L51.468 82.1597C50.9141 82.2365 50.4605 82.2365 49.9066 82.1597L48.8837 83.8272L48.6874 83.7749C48.0279 83.5997 47.3919 83.3357 46.7971 82.9901L46.6215 82.8879L47.0554 81.0773C47.0904 80.9309 47.2378 80.8402 47.3842 80.8757C47.5306 80.9107 47.6208 81.0581 47.5858 81.2045L47.2474 82.6167C47.6895 82.8571 48.1536 83.0501 48.6327 83.1922L49.6315 81.5631L49.8125 81.5928C50.3919 81.6874 50.9827 81.6874 51.5621 81.5928L51.7431 81.5631L52.7424 83.1922C53.2215 83.0501 53.6856 82.8571 54.1277 82.6167L53.6827 80.761L53.8315 80.6539C54.2371 80.3626 54.5986 80.0179 54.9091 79.6282C55.0013 79.5125 55.1655 79.4851 55.2855 79.5715C55.4098 79.6613 55.4391 79.8379 55.344 79.9584C55.0387 80.3434 54.6883 80.6885 54.2981 80.9875L54.7536 82.8879L54.5779 82.9901C53.9832 83.3352 53.3472 83.5992 52.6877 83.7749L52.4909 83.8272ZM46.2207 80.1869C46.1347 80.0885 46.0517 79.9877 45.972 79.8835L44.0712 80.3391L43.9695 80.1634C43.6243 79.5687 43.3603 78.9327 43.1851 78.2731L43.1328 78.0768L44.8003 77.0539C44.7619 76.776 44.7432 76.5192 44.7432 76.273C44.7432 76.0272 44.7619 75.7699 44.8003 75.492L43.1328 74.4691L43.1851 74.2728C43.3603 73.6133 43.6243 72.9778 43.9695 72.3826L44.0712 72.2069L45.972 72.6624C46.2903 72.2467 46.6608 71.8767 47.0765 71.5579L46.7319 70.1199C46.6968 69.9735 46.7871 69.8266 46.933 69.7915L46.9339 69.7911C47.0803 69.756 47.2272 69.8463 47.2623 69.9927L47.6914 71.7845L47.5411 71.8925C47.065 72.2352 46.6474 72.6528 46.3047 73.1295L46.1976 73.2783L44.3415 72.8338C44.1015 73.2759 43.9085 73.74 43.7664 74.2191L45.3951 75.2179L45.3658 75.3989C45.3135 75.7186 45.2885 76.0047 45.2885 76.2739C45.2885 76.5432 45.3139 76.8293 45.3658 77.149L45.3955 77.3295L43.7669 78.3288C43.909 78.8079 44.1019 79.272 44.3419 79.7141L46.1981 79.2696L46.3051 79.4184C46.4059 79.5586 46.5139 79.6949 46.6282 79.8255C46.7232 79.9339 46.7203 80.0962 46.6167 80.196L46.6066 80.2056C46.4967 80.3098 46.3215 80.3011 46.2207 80.1869ZM57.3024 80.3386L56.6016 80.1711C56.4552 80.136 56.3645 79.9887 56.3995 79.8423C56.4346 79.6959 56.5819 79.6056 56.7283 79.6407L57.0312 79.7131C57.2712 79.2711 57.4642 78.8069 57.6063 78.3279L55.9776 77.3285L56.0074 77.148C56.0592 76.8288 56.0847 76.5423 56.0847 76.273C56.0847 76.0037 56.0592 75.7176 56.0074 75.3979L55.9781 75.217L57.6067 74.2181C57.4647 73.7391 57.2717 73.2749 57.0317 72.8328L55.1755 73.2773L55.0685 73.1285C54.7258 72.6523 54.3082 72.2343 53.832 71.8915L53.6818 71.7835L54.1267 69.9274C53.6847 69.6869 53.2205 69.4944 52.7415 69.3519L51.7426 70.9805L51.5621 70.9512C50.9827 70.8571 50.3919 70.8571 49.812 70.9512L49.6315 70.9805L48.6327 69.3519C48.5707 69.3701 48.5083 69.3898 48.4469 69.4099C48.3087 69.4551 48.1599 69.3807 48.1099 69.2443C48.0571 69.1008 48.132 68.9391 48.277 68.8915C48.4133 68.8469 48.5506 68.8061 48.6869 68.7701L48.8837 68.7178L49.9066 70.3858C50.4634 70.3085 50.9112 70.3085 51.468 70.3858L52.4909 68.7178L52.6872 68.7701C53.3463 68.9458 53.9823 69.2098 54.5775 69.5544L54.7531 69.6567L54.2976 71.5575C54.7133 71.8762 55.0834 72.2463 55.4021 72.6619L57.3029 72.2064L57.4047 72.3821C57.7498 72.9768 58.0138 73.6128 58.189 74.2723L58.2413 74.4687L56.5738 75.4915C56.6122 75.7695 56.6309 76.0263 56.6309 76.2725C56.6309 76.5187 56.6122 76.7755 56.5738 77.0535L58.2413 78.0763L58.189 78.2727C58.0138 78.9322 57.7498 79.5682 57.4047 80.1629L57.3024 80.3386ZM50.6107 78.9298C49.225 78.8909 48.0701 77.736 48.0303 76.3503C47.9899 74.9539 49.0335 73.7875 50.3803 73.632C50.5431 73.6133 50.6871 73.741 50.6871 73.9047C50.6871 74.0424 50.5843 74.1581 50.4475 74.1735C49.26 74.3079 48.3677 75.4311 48.6163 76.6978C48.7776 77.52 49.4405 78.1829 50.2632 78.3437C51.613 78.6077 52.7995 77.5762 52.7995 76.2725C52.7995 75.8362 52.6651 75.4138 52.4175 75.06C52.3392 74.9487 52.3603 74.7955 52.4626 74.7053C52.5855 74.5968 52.776 74.6199 52.8696 74.7543C53.1783 75.1978 53.3458 75.7263 53.3458 76.2725C53.3448 77.7639 52.1107 78.9725 50.6107 78.9298Z" fill="#0066A5"/>
<path d="M120.5 178.591C171.899 178.591 213.567 176.157 213.567 173.156C213.567 170.154 171.899 167.721 120.5 167.721C69.1007 167.721 27.4333 170.154 27.4333 173.156C27.4333 176.157 69.1007 178.591 120.5 178.591Z" fill="#F5F5F5"/>
<path d="M174.956 43.6201H159.327L148.272 169.98H163.901C168.346 169.98 172.278 166.364 172.667 161.919L182.312 51.6808C182.701 47.236 179.401 43.6201 174.956 43.6201Z" fill="#001F31"/>
<path d="M171.767 43.6201H118.871C114.427 43.6201 110.494 47.236 110.106 51.6808L100.461 161.919C100.072 166.364 103.372 169.98 107.817 169.98H160.712C165.157 169.98 169.089 166.364 169.478 161.919L179.122 51.6808C179.511 47.236 176.212 43.6201 171.767 43.6201Z" fill="#0066A5"/>
<path d="M171.767 43.6201H118.871C114.427 43.6201 110.494 47.236 110.106 51.6808L100.461 161.919C100.072 166.364 103.372 169.98 107.817 169.98H160.712C165.157 169.98 169.089 166.364 169.478 161.919L179.122 51.6808C179.511 47.236 176.212 43.6201 171.767 43.6201Z" fill="#001F31"/>
<path d="M171.541 46.2026H157.595C156.772 46.2026 156 46.7426 155.695 47.5308C154.568 50.4444 151.713 52.4398 148.671 52.4398H140.425C137.383 52.4398 134.877 50.4439 134.259 47.5308C134.092 46.7426 133.414 46.2031 132.591 46.2031H118.645C115.62 46.2031 112.953 48.6554 112.688 51.6809L103.044 161.919C102.779 164.945 105.017 167.397 108.042 167.397H160.938C163.963 167.397 166.63 164.945 166.895 161.919L176.54 51.6809C176.804 48.6554 174.566 46.2026 171.541 46.2026Z" fill="#CCE0ED"/>
<path d="M158.364 106.083H121.344C120.247 106.083 119.435 105.193 119.531 104.096L119.716 101.978C119.812 100.88 120.78 99.9907 121.878 99.9907H158.897C159.995 99.9907 160.807 100.881 160.711 101.978L160.525 104.096C160.429 105.193 159.462 106.083 158.364 106.083Z" fill="#CCE0ED"/>
<path d="M157.564 115.223H120.545C119.447 115.223 118.635 114.333 118.731 113.235L118.917 111.117C119.013 110.019 119.98 109.13 121.078 109.13H158.097C159.195 109.13 160.007 110.02 159.911 111.117L159.726 113.235C159.63 114.333 158.662 115.223 157.564 115.223Z" fill="#CCE0ED"/>
<path d="M147.116 48.2676C147.009 49.4849 145.937 50.4713 144.719 50.4713C143.502 50.4713 142.602 49.4849 142.709 48.2676C142.815 47.0504 143.888 46.064 145.105 46.064C146.322 46.064 147.223 47.0504 147.116 48.2676Z" fill="black"/>
<path d="M146.116 48.2678C146.058 48.9326 145.472 49.4716 144.807 49.4716C144.142 49.4716 143.65 48.9326 143.708 48.2678C143.766 47.603 144.352 47.064 145.017 47.064C145.683 47.064 146.174 47.603 146.116 48.2678Z" fill="black"/>
<g opacity="0.8">
<path d="M165.029 51.9432C164.673 51.9432 164.409 51.6542 164.44 51.2976L164.543 50.1173C164.574 49.7606 164.889 49.4717 165.245 49.4717C165.602 49.4717 165.866 49.7606 165.835 50.1173L165.732 51.2976C165.7 51.6542 165.386 51.9432 165.029 51.9432Z" fill="#CCE0ED"/>
<path d="M170.195 51.9436C169.838 51.9436 169.574 51.6547 169.606 51.298L169.848 48.5279C169.879 48.1713 170.194 47.8823 170.55 47.8823C170.907 47.8823 171.171 48.1713 171.14 48.5279L170.897 51.298C170.866 51.6547 170.552 51.9436 170.195 51.9436Z" fill="#CCE0ED"/>
<path d="M167.612 51.9437C167.256 51.9437 166.992 51.6547 167.023 51.298L167.196 49.3228C167.227 48.9662 167.541 48.6772 167.898 48.6772C168.254 48.6772 168.518 48.9662 168.487 49.3228L168.314 51.298C168.283 51.6547 167.969 51.9437 167.612 51.9437Z" fill="#CCE0ED"/>
</g>
<g opacity="0.8">
<path d="M120.805 51.9437H117.563C117.36 51.9437 117.211 51.78 117.229 51.5779L117.381 49.8369C117.399 49.6349 117.577 49.4712 117.779 49.4712H121.021C121.223 49.4712 121.372 49.6349 121.355 49.8369L121.202 51.5779C121.185 51.78 121.007 51.9437 120.805 51.9437Z" fill="#CCE0ED"/>
<path d="M122.309 51.4712C122.106 51.4712 121.957 51.3075 121.975 51.1054L122.045 50.3091C122.062 50.107 122.24 49.9434 122.442 49.9434C122.644 49.9434 122.793 50.107 122.776 50.3091L122.706 51.1054C122.689 51.3075 122.511 51.4712 122.309 51.4712Z" fill="#CCE0ED"/>
</g>
<path d="M152.27 92.1599C158.729 85.9771 159.373 76.1672 153.708 70.2489C148.043 64.3306 138.214 64.545 131.755 70.7279C125.296 76.9107 124.652 86.7206 130.317 92.6389C135.982 98.5572 145.811 98.3427 152.27 92.1599Z" fill="#CCE0ED"/>
<path d="M142.062 80.8452C137.99 80.8452 134.552 82.3947 134.258 85.7619L133.931 89.4987H148.681L149.007 85.7619C149.302 82.3947 146.136 80.8452 142.062 80.8452Z" fill="#0066A5"/>
<path d="M142.197 79.3062C144.087 79.3062 144.959 77.7741 145.124 75.8838C145.29 73.9936 144.686 72.4614 142.796 72.4614C140.905 72.4614 140.034 73.9936 139.868 75.8838C139.703 77.7741 140.307 79.3062 142.197 79.3062Z" fill="#0066A5"/>
<path d="M156.674 102.927C155.668 102.927 154.819 103.31 154.747 104.142L154.666 105.065H158.309L158.39 104.142C158.462 103.31 157.68 102.927 156.674 102.927Z" fill="#0066A5"/>
<path d="M156.708 102.547C157.175 102.547 157.39 102.169 157.43 101.702C157.471 101.235 157.322 100.857 156.855 100.857C156.388 100.857 156.173 101.236 156.133 101.702C156.092 102.169 156.241 102.547 156.708 102.547Z" fill="#0066A5"/>
<path d="M145.457 124.362H131.053C129.371 124.362 128.126 122.998 128.273 121.315C128.421 119.633 129.904 118.269 131.586 118.269H145.991C147.673 118.269 148.918 119.633 148.77 121.315C148.623 122.998 147.14 124.362 145.457 124.362Z" fill="#0066A5"/>
<path d="M143.72 158.336H128.303C126.525 158.336 125.21 156.895 125.366 155.117L126.349 143.873C126.505 142.095 128.072 140.653 129.85 140.653H145.266C147.044 140.653 148.359 142.095 148.204 143.873L147.22 155.117C147.065 156.895 145.497 158.336 143.72 158.336Z" fill="#0066A5"/>
<path d="M138.965 146.713C139.059 145.643 138.267 144.775 137.197 144.775C136.127 144.775 135.184 145.643 135.091 146.713C135.035 147.35 135.297 147.91 135.741 148.263L135.403 152.135C135.347 152.77 135.817 153.285 136.452 153.285C137.088 153.285 137.648 152.77 137.704 152.135L138.043 148.263C138.549 147.91 138.909 147.35 138.965 146.713Z" fill="#CCE0ED"/>
<path d="M145.403 142.994H143.416L143.903 137.43C144.195 134.087 141.714 131.368 138.37 131.368C135.027 131.368 132.069 134.087 131.777 137.43L131.29 142.994H129.304L129.79 137.43C130.179 132.992 134.106 129.381 138.544 129.381C142.983 129.381 146.278 132.992 145.89 137.43L145.403 142.994Z" fill="#0066A5"/>
<path d="M156.918 111.448L156.965 110.914C157.013 110.368 156.608 109.925 156.062 109.925C155.516 109.925 155.034 110.369 154.986 110.914L154.94 111.448C154.722 111.448 154.53 111.624 154.511 111.842L154.387 113.261C154.367 113.479 154.529 113.656 154.747 113.656H156.724C156.942 113.656 157.134 113.479 157.153 113.261L157.278 111.842C157.297 111.624 157.136 111.448 156.918 111.448ZM156.041 110.169C156.452 110.169 156.756 110.503 156.721 110.914L156.674 111.447H155.184L155.23 110.914C155.266 110.503 155.63 110.169 156.041 110.169Z" fill="#0066A5"/>
<path d="M127.147 112.016L126.456 111.873C126.375 111.856 126.332 111.771 126.367 111.69L126.654 111.01C126.716 110.864 126.538 110.756 126.427 110.872L125.905 111.41C125.843 111.473 125.743 111.473 125.693 111.41L125.265 110.872C125.174 110.757 124.977 110.864 125.013 111.01L125.182 111.69C125.202 111.771 125.145 111.856 125.06 111.873L124.345 112.016C124.191 112.047 124.172 112.262 124.321 112.293L125.011 112.435C125.093 112.452 125.135 112.538 125.101 112.619L124.813 113.298C124.751 113.444 124.929 113.552 125.041 113.437L125.563 112.899C125.624 112.835 125.724 112.835 125.774 112.899L126.202 113.437C126.294 113.552 126.49 113.444 126.454 113.298L126.285 112.619C126.265 112.538 126.322 112.452 126.407 112.435L127.123 112.293C127.276 112.262 127.295 112.046 127.147 112.016Z" fill="#263238"/>
<path d="M131.689 112.016L130.998 111.873C130.917 111.856 130.875 111.771 130.909 111.69L131.196 111.01C131.258 110.864 131.081 110.756 130.969 110.872L130.447 111.41C130.385 111.473 130.286 111.473 130.235 111.41L129.808 110.872C129.716 110.757 129.52 110.864 129.556 111.01L129.724 111.69C129.744 111.771 129.687 111.856 129.602 111.873L128.887 112.016C128.733 112.047 128.715 112.262 128.862 112.293L129.553 112.435C129.634 112.452 129.677 112.538 129.642 112.619L129.355 113.298C129.293 113.444 129.471 113.552 129.582 113.437L130.104 112.899C130.166 112.835 130.265 112.835 130.316 112.899L130.744 113.437C130.835 113.552 131.032 113.444 130.996 113.298L130.827 112.619C130.807 112.538 130.865 112.452 130.949 112.435L131.664 112.293C131.818 112.262 131.837 112.046 131.689 112.016Z" fill="#263238"/>
<path d="M136.231 112.016L135.541 111.873C135.459 111.856 135.417 111.771 135.451 111.69L135.739 111.01C135.801 110.864 135.623 110.756 135.511 110.872L134.989 111.41C134.928 111.473 134.828 111.473 134.778 111.41L134.35 110.872C134.258 110.757 134.062 110.864 134.098 111.01L134.267 111.69C134.287 111.771 134.23 111.856 134.145 111.873L133.429 112.016C133.276 112.047 133.257 112.262 133.405 112.293L134.095 112.435C134.177 112.452 134.219 112.538 134.185 112.619L133.897 113.298C133.836 113.444 134.013 113.552 134.125 113.437L134.647 112.899C134.709 112.835 134.808 112.835 134.858 112.899L135.286 113.437C135.378 113.552 135.574 113.444 135.538 113.298L135.37 112.619C135.349 112.538 135.407 112.452 135.492 112.435L136.207 112.293C136.361 112.262 136.38 112.046 136.231 112.016Z" fill="#263238"/>
<path d="M140.774 112.016L140.084 111.873C140.002 111.856 139.96 111.771 139.994 111.69L140.281 111.01C140.343 110.864 140.166 110.756 140.054 110.872L139.532 111.41C139.47 111.473 139.371 111.473 139.32 111.41L138.893 110.872C138.801 110.757 138.605 110.864 138.641 111.01L138.809 111.69C138.829 111.771 138.772 111.856 138.687 111.873L137.972 112.016C137.818 112.047 137.8 112.262 137.948 112.293L138.638 112.435C138.72 112.452 138.762 112.538 138.728 112.619L138.441 113.298C138.379 113.444 138.556 113.552 138.668 113.437L139.19 112.899C139.252 112.835 139.351 112.835 139.402 112.899L139.829 113.437C139.921 113.552 140.117 113.444 140.081 113.298L139.913 112.619C139.893 112.538 139.95 112.452 140.035 112.435L140.75 112.293C140.903 112.262 140.922 112.046 140.774 112.016Z" fill="#263238"/>
<path d="M145.316 112.016L144.626 111.873C144.544 111.856 144.502 111.771 144.536 111.69L144.824 111.01C144.885 110.864 144.708 110.756 144.596 110.872L144.074 111.41C144.012 111.473 143.913 111.473 143.863 111.41L143.435 110.872C143.343 110.757 143.147 110.864 143.183 111.01L143.351 111.69C143.372 111.771 143.314 111.856 143.229 111.873L142.514 112.016C142.361 112.047 142.342 112.262 142.49 112.293L143.18 112.435C143.262 112.452 143.304 112.538 143.27 112.619L142.982 113.298C142.921 113.444 143.098 113.552 143.21 113.437L143.732 112.899C143.793 112.835 143.892 112.835 143.943 112.899L144.371 113.437C144.463 113.552 144.659 113.444 144.623 113.298L144.454 112.619C144.434 112.538 144.492 112.452 144.576 112.435L145.292 112.293C145.445 112.262 145.464 112.046 145.316 112.016Z" fill="#263238"/>
<path d="M149.858 112.016L149.168 111.873C149.087 111.856 149.044 111.771 149.078 111.69L149.366 111.01C149.427 110.864 149.25 110.756 149.138 110.872L148.617 111.41C148.555 111.473 148.456 111.473 148.405 111.41L147.977 110.872C147.886 110.757 147.689 110.864 147.725 111.01L147.894 111.69C147.914 111.771 147.856 111.856 147.772 111.873L147.057 112.016C146.903 112.047 146.884 112.262 147.032 112.293L147.722 112.435C147.804 112.452 147.846 112.538 147.812 112.619L147.525 113.298C147.463 113.444 147.64 113.552 147.752 113.437L148.274 112.899C148.336 112.835 148.435 112.835 148.486 112.899L148.913 113.437C149.005 113.552 149.201 113.444 149.165 113.298L148.997 112.619C148.977 112.538 149.034 112.452 149.119 112.435L149.834 112.293C149.988 112.262 150.007 112.046 149.858 112.016Z" fill="#263238"/>
<path d="M138.91 102.077H130.381C129.851 102.077 129.384 102.507 129.337 103.037C129.291 103.567 129.683 103.996 130.213 103.996H138.742C139.272 103.996 139.739 103.567 139.785 103.037C139.832 102.507 139.44 102.077 138.91 102.077Z" fill="#263238"/>
<path d="M147.567 102.077H142.618C142.089 102.077 141.621 102.507 141.575 103.037C141.528 103.567 141.921 103.996 142.45 103.996H147.399C147.929 103.996 148.396 103.567 148.443 103.037C148.489 102.507 148.097 102.077 147.567 102.077Z" fill="#263238"/>
<path d="M154.101 145.59C150.885 146.874 148.066 148.747 146.136 150.877C145.005 149.914 143.397 149.246 141.468 148.94L141.242 148.904L141.143 150.036L141.27 150.084C143.173 150.803 144.722 152.078 145.75 153.772L145.911 154.039L146.089 153.753C148.067 150.587 150.951 147.935 154.209 146.284L154.319 146.228L154.385 145.476L154.101 145.59Z" fill="#263238"/>
<path d="M111.21 51.0825C110.61 52.1371 110.215 53.3136 110.105 54.5601L102.957 136.266H125.074L129.518 119.23L128.055 102.193L132.499 85.1563L131.037 68.1196L135.48 51.083H111.21V51.0825Z" fill="black"/>
<path d="M129.116 63.3193L133.56 46.2822H77.6283L73.1845 63.3193L74.6475 80.356L70.2037 97.3926L71.6662 114.43L67.2224 131.466H123.154L127.598 114.43L126.135 97.3926L130.579 80.356L129.116 63.3193Z" fill="#0066A5"/>
<path opacity="0.7" d="M129.116 63.3193L133.56 46.2822H77.6283L73.1845 63.3193L74.6475 80.356L70.2037 97.3926L71.6662 114.43L67.2224 131.466H123.154L127.598 114.43L126.135 97.3926L130.579 80.356L129.116 63.3193Z" fill="white"/>
<path opacity="0.5" d="M129.116 63.3193H73.1844L77.6283 46.2822H133.56L129.116 63.3193Z" fill="white"/>
<path opacity="0.5" d="M126.135 97.3926H70.2037L74.6476 80.356H130.579L126.135 97.3926Z" fill="white"/>
<path opacity="0.5" d="M123.154 131.466H67.2224L71.6663 114.43H127.598L123.154 131.466Z" fill="white"/>
<path d="M121.632 70.4394C121.151 70.5896 120.536 70.6799 119.866 70.6799C118.878 70.6799 118.01 70.4845 117.517 70.1903C117.382 70.1092 117.233 70.0688 117.084 70.0688C116.946 70.0688 116.808 70.1077 116.68 70.1773C116.671 70.1826 116.66 70.1845 116.651 70.1903C116.646 70.1937 116.639 70.196 116.634 70.1994C116.451 70.306 116.22 70.3996 115.952 70.4749C115.49 70.6041 114.92 70.6804 114.303 70.6804C114.135 70.6804 113.971 70.6746 113.811 70.6641C113.333 70.6314 112.896 70.5527 112.536 70.4404C112.474 70.4207 112.41 70.4092 112.348 70.4049C111.913 70.3761 111.522 70.7101 111.522 71.1719V71.6922H89.782C88.0996 71.6922 86.7355 73.0559 86.7355 74.7388V77.8088C86.7355 79.4912 88.0996 80.8554 89.782 80.8554H114.515C114.57 80.8554 114.623 80.8501 114.677 80.8472C114.944 81.068 115.222 81.2884 115.516 81.5116C115.868 81.7785 116.239 82.0492 116.628 82.3314C116.899 82.5277 117.27 82.5277 117.541 82.3314C120.651 80.0759 122.648 78.5202 122.648 74.2458V71.1724C122.647 70.6439 122.136 70.282 121.632 70.4394Z" fill="black"/>
<path d="M114.042 79.1627H89.3093C87.6269 79.1627 86.2627 77.799 86.2627 76.1162V73.0461C86.2627 71.3637 87.6264 69.9995 89.3093 69.9995H114.042C115.725 69.9995 117.089 71.3632 117.089 73.0461V76.1162C117.089 77.7986 115.725 79.1627 114.042 79.1627Z" fill="#0066A5"/>
<path d="M119.393 68.9879C118.406 68.9879 117.538 68.7925 117.044 68.4983C116.773 68.3365 116.45 68.3365 116.179 68.4983C115.685 68.7925 114.818 68.9879 113.83 68.9879C113.159 68.9879 112.544 68.8976 112.064 68.7479C111.56 68.5904 111.048 68.9519 111.048 69.4799V72.5533C111.048 76.8277 113.045 78.3834 116.155 80.6389C116.426 80.8352 116.797 80.8352 117.068 80.6389C120.178 78.3834 122.175 76.8277 122.175 72.5533V69.4799C122.175 68.9519 121.664 68.5904 121.16 68.7479C120.679 68.8976 120.064 68.9879 119.393 68.9879Z" fill="#0066A5"/>
<path opacity="0.3" d="M119.393 68.9879C118.406 68.9879 117.538 68.7925 117.044 68.4983C116.773 68.3365 116.45 68.3365 116.179 68.4983C115.685 68.7925 114.818 68.9879 113.83 68.9879C113.159 68.9879 112.544 68.8976 112.064 68.7479C111.56 68.5904 111.048 68.9519 111.048 69.4799V72.5533C111.048 76.8277 113.045 78.3834 116.155 80.6389C116.426 80.8352 116.797 80.8352 117.068 80.6389C120.178 78.3834 122.175 76.8277 122.175 72.5533V69.4799C122.175 68.9519 121.664 68.5904 121.16 68.7479C120.679 68.8976 120.064 68.9879 119.393 68.9879Z" fill="white"/>
<path opacity="0.2" d="M116.179 68.4984C115.685 68.7926 114.818 68.988 113.83 68.988C113.159 68.988 112.544 68.8978 112.064 68.748C111.56 68.5906 111.048 68.952 111.048 69.4795V72.5534C111.048 76.8278 113.045 78.3835 116.155 80.639C116.29 80.7369 116.451 80.7864 116.612 80.7864V68.377C116.463 68.377 116.314 68.4173 116.179 68.4984Z" fill="white"/>
<path d="M121.069 71.7141C119.059 72.5454 117.339 73.7584 116.211 75.1379C115.424 74.5144 114.344 74.0814 113.078 73.8832L112.93 73.8601V74.5936L113.014 74.6243C114.288 75.0899 115.363 75.9165 116.125 77.0133L116.244 77.1856L116.343 77.0008C117.445 74.9502 119.162 73.2323 121.179 72.1638L121.248 72.1273V71.6401L121.069 71.7141Z" fill="#263238"/>
<path d="M132.572 51.0735H130.45C129.273 51.0735 128.403 50.1197 128.506 48.9427L128.691 46.8207C128.795 45.6437 129.832 44.6899 131.009 44.6899H133.131C134.308 44.6899 135.178 45.6442 135.075 46.8207L134.89 48.9427C134.786 50.1197 133.749 51.0735 132.572 51.0735Z" fill="#0066A5"/>
<path d="M133.454 46.8165L132.994 46.3115L131.834 47.3771L130.862 46.3115L130.313 46.8165L131.285 47.8821L130.127 48.9477L130.587 49.4526L131.746 48.387L132.719 49.4526L133.268 48.9477L132.295 47.8821L133.454 46.8165Z" fill="white"/>
<path d="M85.1583 69.3799C86.3885 70.7176 87.5641 72.1034 88.7247 73.5021C89.8868 74.8994 91.0201 76.3216 92.1394 77.7564C92.1884 77.8188 92.1687 77.7933 92.1802 77.812C92.1855 77.8202 92.1865 77.8336 92.1932 77.8404C92.2057 77.8543 92.2124 77.8773 92.2273 77.8898C92.2493 77.9253 92.2815 77.9508 92.3137 77.9844C92.3818 78.0453 92.4749 78.0919 92.5786 78.1111C92.63 78.1188 92.6842 78.1264 92.7394 78.1207C92.7692 78.1245 92.7956 78.1154 92.8268 78.1144C92.8431 78.1149 92.8551 78.1063 92.8709 78.1044C92.8954 78.0938 92.8801 78.1154 92.9463 78.076L94.1487 77.4242C95.7615 76.5703 97.3873 75.7356 99.0687 74.9863L100.474 76.7268C99.1196 77.9733 97.7089 79.5324 96.2852 80.6748L95.21 81.52C95.1826 81.545 95.0669 81.6208 94.9945 81.6693C94.9114 81.7226 94.8303 81.7802 94.7425 81.8272C94.5682 81.9232 94.3925 82.0192 94.2058 82.0932C93.8372 82.2525 93.4436 82.3538 93.0447 82.4152C92.2445 82.5343 91.4132 82.4536 90.637 82.1757C90.2501 82.0365 89.8753 81.8508 89.534 81.6136C89.3593 81.5004 89.1994 81.3674 89.0401 81.2335C88.9599 81.1668 88.8884 81.0924 88.8135 81.0199L88.6225 80.8264C87.3524 79.5237 86.0962 78.2085 84.8684 76.8684C83.6396 75.5292 82.4252 74.178 81.2655 72.7783L85.1583 69.3799Z" fill="#B55B52"/>
<path d="M98.415 76.0459L99.5339 72.4521L102.479 73.92C102.479 73.92 102.05 76.5422 99.9059 76.9968L98.415 76.0459Z" fill="#B55B52"/>
<path d="M100.716 71.4556L103.372 72.1871L102.48 73.9199L99.5344 72.452L100.716 71.4556Z" fill="#B55B52"/>
<path d="M69.6649 70.3594C69.3442 71.8863 68.9526 73.3959 68.5422 74.9012C68.1337 76.4069 67.6878 77.9036 67.2241 79.3959L67.0513 79.9556L66.9649 80.2354C66.9466 80.2964 66.9346 80.3117 66.9183 80.3525C66.8655 80.4941 66.8338 80.6477 66.8276 80.809C66.8194 81.1287 66.8953 81.4844 67.1046 81.7935C67.1218 81.8434 67.2874 82.0172 67.4166 82.1573L67.815 82.5903L68.6007 83.4701C69.1182 84.0639 69.6337 84.6596 70.1233 85.286L68.4505 87.2223C67.7598 86.8292 67.0954 86.4053 66.4326 85.9796L65.4481 85.3301L64.9614 84.9984C64.7958 84.8832 64.6628 84.806 64.3978 84.5866C63.4849 83.8124 62.8028 82.7132 62.5527 81.4925C62.425 80.8834 62.3938 80.2484 62.4649 79.6196C62.4836 79.4689 62.5119 79.2932 62.535 79.164L62.5858 78.8756L62.6876 78.2986C62.9569 76.7593 63.2439 75.2242 63.5679 73.6978C63.8905 72.1714 64.2318 70.6493 64.6436 69.1445L69.6649 70.3594Z" fill="#B55B52"/>
<path d="M68.4797 85.149L70.4602 84.1362L71.3338 87.5025C71.3338 87.5025 69.7445 88.1116 68.5143 87.3292L68.4797 85.149Z" fill="#B55B52"/>
<path d="M73.1969 83.0596L73.2866 86.1474L71.0753 87.5937L70.3082 84.2015L73.1969 83.0596Z" fill="#B55B52"/>
<path d="M79.6722 54.4881C79.7206 54.7262 79.8857 54.8932 80.0413 54.8615C80.1968 54.8299 80.2837 54.6115 80.2352 54.3734C80.1867 54.1353 80.0216 53.9683 79.8661 53.9999C79.711 54.0316 79.6242 54.25 79.6722 54.4881Z" fill="#263238"/>
<path d="M79.864 54.8975C79.864 54.8975 80.6839 56.1599 81.4139 56.7008C81.0727 57.1794 80.321 57.1453 80.321 57.1453L79.864 54.8975Z" fill="#A02724"/>
<path d="M78.5326 53.3437C78.498 53.3437 78.463 53.3312 78.4356 53.3057C78.378 53.2525 78.3742 53.1622 78.4279 53.1041C78.9631 52.5248 79.6126 52.628 79.6409 52.6323C79.7186 52.6457 79.7705 52.7192 79.7575 52.7969C79.7441 52.8742 79.6697 52.9261 79.5938 52.9136C79.5722 52.9102 79.0644 52.8358 78.6377 53.2976C78.6094 53.3283 78.571 53.3437 78.5326 53.3437Z" fill="#263238"/>
<path d="M72.7499 57.834C73.2794 60.0357 73.8079 64.0701 71.9181 65.5389C71.9181 65.5389 72.6563 67.7724 77.6757 67.7724C83.1947 67.7724 80.3133 66.3338 80.3133 66.3338C77.3013 65.7477 77.3786 63.1313 77.9032 61.4205L72.7499 57.834Z" fill="#B55B52"/>
<path d="M71.3301 65.9475C71.0013 65.3355 70.6389 64.6356 71.3882 64.4163C72.2123 64.1748 77.5072 63.7275 79.0624 64.1806C78.5843 65.0307 79.3936 66.0756 79.3936 66.0756L71.3301 65.9475Z" fill="#263238"/>
<path d="M75.7139 168.944H79.1771L79.5217 161.974H76.059L75.7139 168.944Z" fill="#B55B52"/>
<path d="M53.7382 167.984L57.2455 168.169L59.3772 161.303L55.8694 161.117L53.7382 167.984Z" fill="#B55B52"/>
<path d="M57.1384 167.892L53.8336 167.176C53.7136 167.15 53.5912 167.211 53.5399 167.323L52.3927 169.812C52.2736 170.07 52.4311 170.373 52.71 170.428C53.8677 170.658 54.4432 170.712 55.8962 171.026C56.7904 171.22 58.8084 171.712 60.0434 171.979C61.2511 172.241 61.7037 171.06 61.2223 170.841C59.0632 169.854 58.1613 168.985 57.5767 168.176C57.4716 168.031 57.3146 167.93 57.1384 167.892Z" fill="#263238"/>
<path d="M78.9939 168.596H75.7074C75.5845 168.596 75.4779 168.681 75.451 168.801L74.8563 171.476C74.7949 171.754 75.0051 172.016 75.2893 172.011C76.4749 171.991 78.188 171.922 79.6784 171.922C81.4208 171.922 82.9256 172.017 84.969 172.017C86.2045 172.017 86.5472 170.768 86.0302 170.654C83.6758 170.139 81.7534 170.084 79.7187 168.83C79.4979 168.694 79.2536 168.596 78.9939 168.596Z" fill="#263238"/>
<path d="M65.6479 66.5564C63.0343 67.7992 62.3239 75.3328 62.3239 75.3328L68.7895 78.3203C68.7895 78.3203 70.3941 75.9563 70.517 72.2392C70.6456 68.3449 68.32 65.2859 65.6479 66.5564Z" fill="#2D2D2D"/>
<path d="M69.1552 71.2026C67.9878 73.0146 68.0982 75.8183 68.5024 78.1876L68.788 78.3215C68.788 78.3215 70.3945 75.9546 70.5179 72.2385C70.5251 72.0062 70.5241 71.7753 70.516 71.5506L69.1552 71.2026Z" fill="black"/>
<path d="M83.6903 66.3745C83.6903 66.3745 86.8938 69.9927 83.8684 92.3881C79.018 92.3881 70.1308 92.3881 67.7706 92.3881C67.6597 89.917 69.2125 77.8628 66.8289 66.2194C66.8289 66.2194 69.5884 65.6655 72.2178 65.5388C74.2746 65.4399 77.2525 65.3742 79.0607 65.5388C81.4449 65.7567 83.6903 66.3745 83.6903 66.3745Z" fill="#0066A5"/>
<path d="M83.6903 66.3745C83.6903 66.3745 86.8938 69.9927 83.8684 92.3881C79.018 92.3881 70.1308 92.3881 67.7706 92.3881C67.6597 89.917 69.2125 77.8628 66.8289 66.2194C66.8289 66.2194 69.5884 65.6655 72.2178 65.5388C74.2746 65.4399 77.2525 65.3742 79.0607 65.5388C81.4449 65.7567 83.6903 66.3745 83.6903 66.3745Z" fill="#96C9EC"/>
<path d="M85.0969 73.2196L85.0355 73.1663L81.8339 71.4556C81.5085 76.3852 83.7121 79.4754 85.023 80.8271C85.2035 77.6687 85.1992 75.1775 85.0969 73.2196Z" fill="black"/>
<path d="M79.5214 161.976L79.3443 165.568H75.8796L76.0568 161.976H79.5214Z" fill="black"/>
<path d="M55.8683 161.119L59.3771 161.305L58.2765 164.844L54.7677 164.659L55.8683 161.119Z" fill="black"/>
<path d="M71.6354 55.5967C72.4087 58.482 72.7144 60.21 74.4952 61.4095C77.1731 63.2138 80.5077 61.1431 80.6118 58.085C80.7059 55.3327 79.4253 51.077 76.3293 50.4952C73.2789 49.9226 70.8621 52.7114 71.6354 55.5967Z" fill="#B55B52"/>
<path d="M78.1577 92.3882C78.1577 92.3882 74.742 115.388 72.8671 124.005C70.8137 133.441 59.8034 164.66 59.8034 164.66L54.4159 163.494C54.4159 163.494 61.3202 138.053 63.0434 124.861C63.7159 119.713 64.5276 111.414 65.5548 104.496C66.5493 97.7954 67.7705 92.3882 67.7705 92.3882H78.1577Z" fill="#2D2D2D"/>
<path d="M61.0931 162.861C61.1161 162.866 60.0889 164.81 60.0889 164.81L54.0275 163.497L54.5387 161.675L61.0931 162.861Z" fill="#0066A5"/>
<path d="M61.0931 162.861C61.1161 162.866 60.0889 164.81 60.0889 164.81L54.0275 163.497L54.5387 161.675L61.0931 162.861Z" fill="white"/>
<path d="M75.9991 100.583C72.0496 101.357 72.4677 116.085 72.9429 123.66C74.082 118.306 75.749 108.002 76.888 100.689C76.626 100.558 76.3307 100.518 75.9991 100.583Z" fill="black"/>
<path d="M83.8681 92.3882C83.8681 92.3882 85.4747 114.891 85.1473 124.069C84.807 133.615 80.2806 164.873 80.2806 164.873H75.182C75.182 164.873 74.9948 134.173 74.7683 124.797C74.5211 114.576 73.287 92.3882 73.287 92.3882H83.8681Z" fill="#2D2D2D"/>
<path d="M81.2614 162.842C81.2849 162.842 80.9738 164.959 80.9738 164.959H74.7718L74.6042 163.07L81.2614 162.842Z" fill="#0066A5"/>
<path d="M81.2614 162.842C81.2849 162.842 80.9738 164.959 80.9738 164.959H74.7718L74.6042 163.07L81.2614 162.842Z" fill="white"/>
<path d="M81.8113 70.5898C81.8113 76.6287 85.0249 79.1151 85.0249 79.1151L90.2482 74.0089C90.2482 74.0089 88.4722 70.9489 86.03 68.1399C83.0122 64.6695 81.8113 66.7066 81.8113 70.5898Z" fill="#2D2D2D"/>
<path d="M80.4291 59.1777C80.2966 59.5478 79.9486 60.1752 79.0745 60.4253C77.7996 60.7901 77.7828 61.8705 77.7828 61.8705L77.7987 61.8907C79.015 61.4889 80.0278 60.4838 80.4291 59.1777Z" fill="black"/>
<path d="M79.075 49.8616C80.1511 48.5047 78.4956 48.4399 78.4956 48.4399C78.9257 46.8199 76.9894 47.692 76.9894 47.692C75.8268 46.0898 75.1711 48.0395 75.1711 48.0395C73.9654 46.6821 73.7436 48.9007 73.7436 48.9007C72.5345 47.1789 71.9187 49.6624 71.9187 49.6624C70.8051 47.8744 70.1235 50.2039 70.1235 50.2039C67.8243 49.3807 68.9172 51.7701 68.9172 51.7701C66.9545 51.8253 68.5289 53.3436 68.5289 53.3436C66.1779 53.3493 68.251 54.6957 68.251 54.6957C66.3838 55.9207 68.7276 56.2504 68.7276 56.2504C67.2041 58.6327 69.8201 57.749 69.8201 57.749C68.7603 60.1067 71.1103 59.068 71.1103 59.068C70.9577 61.3432 72.2719 60.724 72.9036 60.3026C73.0255 60.761 73.2531 61.2463 73.6755 61.3015C74.4953 61.4085 74.6547 59.861 74.6547 59.861C74.6547 59.861 75.4155 60.4528 76.0534 60.1322C76.6913 59.8115 76.4508 58.9999 76.4508 58.9999C76.4508 58.9999 76.939 59.3642 77.3863 59.0167C77.6599 58.804 77.6614 57.2762 77.3124 56.7391L78.5619 56.2499C78.5619 56.2499 79.4892 56.1194 79.075 54.8968C78.6612 53.6747 79.0121 52.7095 79.0121 52.7095C80.4223 52.0485 79.2655 51.2536 79.2655 51.2536C80.8961 50.1971 79.075 49.8616 79.075 49.8616Z" fill="#263238"/>
<path d="M76.5437 55.7171C76.74 56.4746 77.2378 57.1255 77.7581 57.5128C78.5415 58.0955 79.1261 57.5219 79.0704 56.6359C79.0205 55.8381 78.5525 54.5738 77.6885 54.3371C76.838 54.1039 76.3196 54.8512 76.5437 55.7171Z" fill="#B55B52"/>
</svg>
