<svg width="139" height="178" viewBox="0 0 139 178" fill="none" xmlns="http://www.w3.org/2000/svg">
<path d="M139 177.888C139 177.949 107.881 178 69.5034 178C31.1123 178 0 177.95 0 177.888C0 177.826 31.1119 177.776 69.5034 177.776C107.881 177.776 139 177.827 139 177.888Z" fill="#263238"/>
<path d="M108.677 125.341C101.754 120.709 100.184 112.11 100.458 104.38C100.503 103.09 100.355 101.729 100.996 100.597C101.637 99.4652 103.132 98.6917 104.338 99.2351C105.338 99.6863 105.774 100.801 106.334 101.723C107.078 102.949 108.188 103.964 109.493 104.613C110.351 105.039 111.412 105.3 112.259 104.853C113.421 104.238 113.558 102.701 113.55 101.417C113.534 99.0257 113.519 96.6335 113.503 94.2423C113.495 92.9593 113.491 91.6488 113.908 90.4311C114.324 89.2133 115.245 88.0818 116.519 87.7397C117.794 87.3981 119.37 88.1016 119.639 89.358C119.751 89.8808 119.64 90.4233 119.677 90.956C119.715 91.4887 119.974 92.078 120.502 92.2266C121.037 92.3772 121.573 92.0132 121.973 91.6376C123.356 90.3422 124.295 88.6729 125.172 87.013C126.049 85.3532 126.9 83.6538 128.155 82.2404C129.409 80.8269 131.145 79.7074 133.063 79.6031C134.982 79.4993 137.027 80.6333 137.512 82.4378C137.998 84.247 136.896 86.0825 135.697 87.547C133.918 89.7198 131.813 91.6415 129.47 93.2323C129.048 93.5194 128.59 93.8298 128.428 94.3049C128.138 95.1604 128.984 96.0103 129.866 96.2914C130.864 96.6099 131.948 96.5108 132.992 96.6284C134.037 96.746 135.169 97.1877 135.564 98.1333C136.113 99.445 134.967 100.82 133.84 101.72C131.584 103.523 129.007 104.948 126.258 105.912C125.273 106.258 124.235 106.561 123.441 107.224C122.646 107.888 122.166 109.041 122.646 109.945C123.127 110.849 124.359 111.139 125.392 110.955C126.424 110.772 127.348 110.235 128.332 109.879C130.173 109.214 132.551 109.335 133.73 110.859C134.505 111.861 134.574 113.256 134.182 114.45C133.79 115.644 132.995 116.673 132.151 117.622C129.2 120.938 125.422 123.608 121.151 125.026C116.88 126.444 112.922 126.828 108.677 125.341Z" fill="#016B83"/>
<path d="M135.576 80.6775C135.579 80.6805 135.535 80.7221 135.446 80.7994C135.347 80.8839 135.215 80.9964 135.048 81.1393C134.697 81.4364 134.18 81.8746 133.53 82.4562C132.228 83.6156 130.399 85.36 128.412 87.7466C127.415 88.936 126.379 90.2825 125.295 91.7475C124.212 93.215 123.066 94.7899 121.926 96.4888C120.786 98.1869 119.644 100.007 118.62 101.973C118.104 102.954 117.643 103.981 117.173 105.027C116.706 106.074 116.232 107.135 115.752 108.21C113.848 112.513 112.174 116.673 110.977 120.559C109.774 124.441 109.058 128.039 108.745 131.088C108.423 134.138 108.489 136.628 108.619 138.336C108.689 139.191 108.758 139.854 108.82 140.301C108.846 140.516 108.866 140.684 108.882 140.811C108.895 140.926 108.899 140.986 108.895 140.987C108.891 140.987 108.878 140.929 108.857 140.815C108.836 140.689 108.807 140.521 108.771 140.308C108.692 139.862 108.608 139.2 108.523 138.344C108.364 136.634 108.271 134.136 108.571 131.072C108.863 128.01 109.565 124.394 110.76 120.496C111.948 116.595 113.62 112.423 115.526 108.116C116.006 107.041 116.481 105.979 116.949 104.932C117.419 103.888 117.884 102.853 118.405 101.868C119.438 99.8914 120.588 98.0671 121.737 96.3686C122.884 94.6684 124.039 93.0953 125.129 91.632C126.223 90.17 127.269 88.8261 128.277 87.6401C130.287 85.2596 132.142 83.5272 133.465 82.388C134.127 81.8158 134.654 81.3883 135.016 81.1028C135.19 80.9676 135.327 80.8612 135.43 80.7809C135.524 80.7092 135.574 80.674 135.576 80.6775Z" fill="#263238"/>
<path d="M118.476 101.858C118.459 101.861 118.413 101.666 118.345 101.311C118.274 100.956 118.19 100.44 118.096 99.8009C117.906 98.5231 117.708 96.7503 117.496 94.7947C117.285 92.8378 117.06 91.0728 116.851 89.8014C116.749 89.1657 116.66 88.6515 116.594 88.2969C116.53 87.942 116.503 87.7437 116.519 87.7398C116.536 87.7364 116.595 87.9278 116.688 88.2776C116.783 88.627 116.898 89.1378 117.023 89.7722C117.277 91.041 117.53 92.8104 117.741 94.769C117.944 96.6992 118.128 98.4454 118.269 99.7799C118.336 100.382 118.394 100.89 118.44 101.297C118.479 101.656 118.493 101.856 118.476 101.858Z" fill="#263238"/>
<path d="M135.701 98.775C135.702 98.7913 135.457 98.8188 135.014 98.854C134.572 98.8918 133.932 98.9428 133.144 99.0304C131.566 99.1935 129.395 99.4918 127.015 99.9215C124.635 100.355 122.498 100.836 120.963 101.226C120.194 101.416 119.576 101.586 119.148 101.701C118.72 101.817 118.481 101.874 118.476 101.859C118.47 101.843 118.7 101.756 119.119 101.612C119.539 101.47 120.152 101.275 120.917 101.063C122.444 100.63 124.582 100.122 126.97 99.6867C129.357 99.2562 131.54 98.9827 133.127 98.8626C133.92 98.7965 134.564 98.7703 135.009 98.7617C135.454 98.7544 135.7 98.7583 135.701 98.775Z" fill="#263238"/>
<path d="M110.972 120.192C110.964 120.196 110.924 120.126 110.854 119.991C110.774 119.829 110.677 119.632 110.56 119.394C110.306 118.874 109.96 118.114 109.545 117.168C108.714 115.278 107.652 112.633 106.521 109.699C105.389 106.763 104.354 104.112 103.565 102.208C103.179 101.283 102.861 100.521 102.624 99.9553C102.523 99.7098 102.44 99.5072 102.372 99.3407C102.316 99.1994 102.291 99.1235 102.299 99.1196C102.307 99.1166 102.347 99.1857 102.417 99.3213C102.497 99.4827 102.594 99.6793 102.712 99.918C102.965 100.437 103.311 101.198 103.726 102.144C104.558 104.034 105.62 106.679 106.751 109.614C107.882 112.549 108.917 115.2 109.706 117.104C110.093 118.029 110.41 118.791 110.647 119.356C110.748 119.602 110.831 119.805 110.9 119.971C110.955 120.113 110.98 120.189 110.972 120.192Z" fill="#263238"/>
<path d="M133.862 113.126C133.865 113.134 133.786 113.165 133.635 113.216C133.456 113.273 133.236 113.344 132.971 113.429C132.357 113.62 131.528 113.877 130.519 114.19C128.45 114.833 125.602 115.752 122.457 116.772C119.31 117.793 116.451 118.688 114.367 119.29C113.325 119.591 112.479 119.827 111.892 119.978C111.62 120.046 111.396 120.102 111.214 120.148C111.058 120.185 110.975 120.2 110.973 120.192C110.97 120.184 111.049 120.154 111.2 120.102C111.378 120.045 111.598 119.975 111.865 119.889C112.478 119.699 113.307 119.441 114.315 119.128C116.385 118.486 119.233 117.566 122.379 116.545C125.525 115.525 128.384 114.63 130.468 114.028C131.51 113.727 132.355 113.491 132.943 113.34C133.215 113.272 133.439 113.215 133.621 113.169C133.777 113.133 133.86 113.118 133.862 113.126Z" fill="#263238"/>
<path d="M124.525 9.004L122.215 9.79509L121.228 6.90675C119.407 1.57907 113.594 -1.27149 108.278 0.550192C102.959 2.37273 100.115 8.18931 101.936 13.517L102.923 16.4053L100.606 17.199C98.8048 17.8162 97.8296 19.8053 98.4467 21.6111L104.871 40.4078C105.498 42.2411 107.487 43.2184 109.289 42.6012L133.208 34.4058C135.038 33.7787 136.015 31.7849 135.388 29.952L128.963 11.1553C128.345 9.34954 126.355 8.37646 124.525 9.004ZM106.294 12.0233C105.296 9.10359 106.853 5.91522 109.77 4.91596C112.684 3.91755 115.867 5.48126 116.865 8.40093L117.853 11.2897L107.281 14.9116L106.294 12.0233ZM119.742 28.7004L121.383 33.5005C121.452 33.7036 121.331 33.9109 121.126 33.9813L118.83 34.7676C118.655 34.8277 118.43 34.7389 118.361 34.5359L116.72 29.7357C114.942 29.6636 113.292 28.5351 112.675 26.7293C111.882 24.4076 113.123 21.8691 115.449 21.072C117.774 20.2753 120.308 21.5201 121.101 23.8423C121.718 25.6481 121.105 27.5526 119.742 28.7004Z" fill="#016B83"/>
<path d="M122.114 9.74313C122.136 9.80108 117.835 11.3438 112.507 13.1878C107.178 15.0326 102.842 16.4809 102.82 16.4229C102.798 16.365 107.099 14.8227 112.428 12.9779C117.755 11.1339 122.093 9.68519 122.114 9.74313Z" fill="#263238"/>
<path d="M127.194 10.5342C127.198 10.5329 127.215 10.5711 127.245 10.6467C127.279 10.7342 127.322 10.845 127.376 10.9832C127.491 11.2961 127.651 11.7314 127.854 12.2842C128.266 13.4333 128.852 15.0682 129.574 17.0822C130.293 19.1155 131.148 21.5287 132.095 24.2075C132.564 25.5523 133.075 26.9495 133.566 28.4252C133.793 29.1669 133.981 29.9597 133.902 30.7809C133.862 31.1882 133.746 31.5981 133.539 31.969C133.328 32.3373 133.034 32.6613 132.692 32.9253C132.004 33.4529 131.197 33.7611 130.418 34.0375C129.636 34.3066 128.865 34.5719 128.108 34.8324C126.593 35.3514 125.132 35.8523 123.74 36.33C120.958 37.2786 118.451 38.1337 116.339 38.8539C114.242 39.5605 112.539 40.1339 111.343 40.537C110.765 40.7267 110.309 40.8765 109.981 40.9838C109.835 41.0293 109.718 41.0658 109.625 41.0946C109.544 41.1186 109.502 41.1289 109.501 41.125C109.5 41.1216 109.539 41.104 109.617 41.0731C109.708 41.0388 109.823 40.9954 109.965 40.9413C110.29 40.8246 110.741 40.6615 111.313 40.455C112.503 40.0356 114.197 39.4394 116.284 38.705C118.39 37.9719 120.891 37.1018 123.668 36.1364C125.058 35.6548 126.518 35.1501 128.031 34.6264C128.787 34.365 129.557 34.0989 130.338 33.8289C131.111 33.5546 131.896 33.2503 132.546 32.7515C132.868 32.5025 133.14 32.2021 133.335 31.863C133.526 31.5213 133.633 31.1431 133.672 30.7598C133.747 29.9885 133.569 29.218 133.347 28.4875C132.864 27.0263 132.353 25.6167 131.892 24.2736C130.962 21.5896 130.124 19.1704 129.418 17.1329C128.726 15.1094 128.163 13.4668 127.769 12.3125C127.583 11.7541 127.437 11.3141 127.332 10.9982C127.287 10.857 127.251 10.7441 127.224 10.6544C127.2 10.5758 127.19 10.5355 127.194 10.5342Z" fill="#263238"/>
<path d="M114.576 4.61508C114.565 4.63397 114.338 4.49962 113.898 4.32964C113.456 4.16825 112.788 3.97981 111.942 3.95406C111.1 3.92444 110.077 4.04892 109.055 4.47644C108.037 4.89881 107.034 5.64868 106.316 6.66898C105.584 7.68541 105.263 8.86152 105.263 9.92817C105.254 10.9995 105.491 11.9537 105.719 12.7367C105.955 13.5205 106.197 14.1424 106.356 14.5742C106.517 15.006 106.604 15.246 106.588 15.252C106.574 15.2571 106.459 15.0284 106.271 14.606C106.086 14.1828 105.82 13.5681 105.561 12.7822C105.31 11.9971 105.05 11.0309 105.048 9.92688C105.036 8.8289 105.364 7.59527 106.122 6.54321C106.867 5.48557 107.911 4.71424 108.97 4.28715C110.033 3.85576 111.088 3.74502 111.95 3.79567C112.817 3.84246 113.495 4.06008 113.934 4.24937C114.15 4.3511 114.316 4.43437 114.421 4.50434C114.527 4.57087 114.581 4.60821 114.576 4.61508Z" fill="#263238"/>
<path d="M114.78 21.4111C114.777 21.4055 114.855 21.3686 115.007 21.3029C115.158 21.2355 115.389 21.1492 115.698 21.0647C116.005 20.9724 116.399 20.9054 116.863 20.8792C117.326 20.8574 117.872 20.9033 118.435 21.1037C119.58 21.4892 120.636 22.6104 121.154 24.0959C121.403 24.8463 121.425 25.7176 121.174 26.5602C120.907 27.3994 120.417 28.2042 119.709 28.8806L119.738 28.7669C120.334 30.3315 120.982 32.0342 121.657 33.8057L121.697 33.9134L121.584 33.9499C121.259 34.0542 120.91 34.1663 120.559 34.2787C119.804 34.5208 119.06 34.7595 118.33 34.9938L118.219 35.029L118.183 34.923C117.569 33.1434 116.896 31.4655 116.408 29.8619L116.505 29.9349C115.587 29.876 114.763 29.5073 114.106 29.0266C113.447 28.5411 112.942 27.9385 112.601 27.3045C112.267 26.6684 112.098 25.9932 112.126 25.3712C112.143 24.7497 112.293 24.1869 112.502 23.7126C112.92 22.7559 113.543 22.1541 114.005 21.8257C114.475 21.4965 114.78 21.4111 114.78 21.4111C114.791 21.4304 114.495 21.5381 114.047 21.8777C113.607 22.2167 113.013 22.8194 112.622 23.7594C112.232 24.6767 112.062 25.9953 112.76 27.2259C113.095 27.8342 113.589 28.4123 114.226 28.8755C114.861 29.3339 115.654 29.6795 116.516 29.7301L116.592 29.7344L116.613 29.8031C117.107 31.3955 117.783 33.0666 118.403 34.8535L118.256 34.7831C118.986 34.5487 119.73 34.3092 120.485 34.0667C120.836 33.9542 121.184 33.8422 121.51 33.7379L121.437 33.8817C120.767 32.1085 120.123 30.404 119.531 28.8386L119.507 28.7755L119.561 28.7248C120.231 28.09 120.719 27.3028 120.977 26.5044C121.221 25.6987 121.207 24.8707 120.975 24.1479C120.485 22.7061 119.478 21.6098 118.386 21.2248C117.847 21.023 117.319 20.9681 116.865 20.9797C116.411 20.9951 116.022 21.0505 115.716 21.1312C115.101 21.2832 114.788 21.43 114.78 21.4111Z" fill="#263238"/>
<path d="M100.93 145.346L56.1689 145.148C50.7854 145.124 46.4406 140.926 46.4635 135.77L46.9381 28.2871C46.9609 23.1276 51.3469 18.9636 56.7331 18.9877L101.494 19.1855C106.878 19.2096 111.222 23.4079 111.199 28.5639L110.724 136.046C110.702 141.206 106.317 145.37 100.93 145.346Z" fill="#455A64"/>
<path d="M101.43 22.895L92.7522 22.8568C91.5883 22.8516 90.6405 23.7925 90.6356 24.9575L90.6284 26.4654C90.6235 27.6307 89.6757 28.5712 88.5118 28.566L71.5958 28.4914C70.432 28.4862 69.4927 27.5372 69.4976 26.3718L69.5043 24.8639C69.5092 23.6985 68.5699 22.7495 67.4061 22.7443L64.3538 22.7306L56.7582 22.6971C52.9862 22.6804 49.9142 25.5966 49.8981 29.2099L49.4351 134.12C49.419 137.732 52.4619 140.672 56.2321 140.689L100.904 140.886C104.676 140.903 107.747 137.987 107.764 134.374L108.227 29.4627C108.243 25.852 105.201 22.9121 101.43 22.895Z" fill="white"/>
<path d="M95.6921 127.226L62.4739 127.08C62.1302 127.078 61.8528 126.72 61.8551 126.279L61.8918 117.955C61.8936 117.514 62.1741 117.158 62.5179 117.16L95.736 117.307C96.0802 117.308 96.3576 117.667 96.3553 118.108L96.3186 126.431C96.3168 126.872 96.0362 127.228 95.6921 127.226Z" fill="#016B83"/>
<path d="M70.1975 110.113L74.1415 110.127L74.1381 110.767L70.9541 110.755L70.9446 112.571L73.9126 112.582L73.9092 113.222L70.9413 113.211L70.9309 115.187L74.1389 115.199L74.1355 115.839L70.1676 115.825L70.1975 110.113ZM74.9678 111.706L75.6078 111.709L75.6044 112.365L75.6204 112.365C75.9057 111.864 76.355 111.615 76.9683 111.618C77.2403 111.619 77.4668 111.657 77.6477 111.732C77.8287 111.807 77.9748 111.912 78.0861 112.046C78.1974 112.18 78.2739 112.34 78.3156 112.527C78.3626 112.708 78.3856 112.911 78.3844 113.135L78.3701 115.855L77.6901 115.852L77.7048 113.052C77.7061 112.796 77.6325 112.593 77.484 112.444C77.3354 112.294 77.1305 112.218 76.8692 112.217C76.6612 112.217 76.4797 112.248 76.3247 112.311C76.175 112.375 76.0492 112.465 75.9473 112.582C75.8453 112.699 75.7672 112.837 75.7131 112.997C75.6643 113.152 75.6394 113.322 75.6384 113.509L75.6261 115.845L74.9461 115.842L74.9678 111.706ZM79.3891 111.723L80.0291 111.725L80.0245 112.597L80.0405 112.597C80.2076 112.262 80.4116 112.014 80.6524 111.855C80.8933 111.696 81.1977 111.623 81.5656 111.635L81.5618 112.355C81.2898 112.354 81.0576 112.39 80.8652 112.464C80.6729 112.538 80.5176 112.647 80.3995 112.79C80.2814 112.934 80.1952 113.11 80.1408 113.317C80.0864 113.52 80.0585 113.754 80.0571 114.021L80.0474 115.861L79.3674 115.859L79.3891 111.723ZM70.3977 131.762C70.3964 132.012 70.4272 132.236 70.4902 132.434C70.5585 132.626 70.651 132.789 70.7676 132.923C70.8843 133.051 71.0197 133.151 71.174 133.22C71.3337 133.29 71.5015 133.326 71.6775 133.326C71.8535 133.327 72.019 133.293 72.174 133.224C72.3344 133.155 72.4736 133.057 72.5916 132.93C72.7096 132.797 72.8011 132.634 72.8661 132.443C72.9365 132.246 72.9723 132.022 72.9737 131.771C72.975 131.52 72.9415 131.299 72.8731 131.107C72.8102 130.909 72.7204 130.743 72.6037 130.61C72.4871 130.476 72.349 130.374 72.1893 130.304C72.035 130.234 71.8699 130.199 71.6939 130.198C71.5179 130.198 71.3497 130.232 71.1894 130.3C71.0343 130.369 70.8978 130.47 70.7798 130.603C70.6617 130.736 70.5675 130.901 70.4972 131.098C70.4322 131.29 70.399 131.511 70.3977 131.762ZM69.6777 131.759C69.6793 131.455 69.7234 131.172 69.8101 130.911C69.8969 130.645 70.0261 130.416 70.1977 130.225C70.3694 130.028 70.5809 129.874 70.8322 129.763C71.0834 129.652 71.3717 129.597 71.697 129.598C72.0277 129.6 72.3154 129.657 72.5602 129.77C72.8102 129.882 73.0201 130.038 73.1897 130.236C73.3594 130.428 73.4862 130.658 73.5701 130.925C73.6541 131.187 73.6953 131.47 73.6937 131.774C73.6921 132.078 73.6479 132.36 73.5612 132.621C73.4745 132.882 73.3453 133.111 73.1736 133.308C73.0019 133.499 72.7905 133.65 72.5392 133.761C72.2933 133.867 72.0051 133.919 71.6744 133.918C71.3491 133.917 71.0613 133.863 70.8112 133.755C70.5612 133.642 70.3513 133.489 70.1816 133.297C70.012 133.099 69.8852 132.869 69.8012 132.607C69.7173 132.346 69.6761 132.063 69.6777 131.759ZM74.5545 128.129L75.2345 128.131L75.2046 133.843L74.5246 133.841L74.5545 128.129ZM76.328 128.135L77.008 128.138L76.978 133.85L76.298 133.847L76.328 128.135Z" fill="white"/>
<path d="M68.8207 53.7236L57.2958 53.675L57.2857 55.7006L68.8106 55.7491L68.8207 53.7236Z" fill="#016B83"/>
<path opacity="0.1" d="M68.8207 53.7236L57.2958 53.675L57.2857 55.7006L68.8106 55.7491L68.8207 53.7236Z" fill="black"/>
<path d="M102.617 66.1555C102.615 66.147 102.713 66.1607 102.88 66.0963C103.037 66.0379 103.285 65.8546 103.314 65.5186C103.313 64.8339 103.31 63.839 103.308 62.5616C103.308 61.9181 103.307 61.2043 103.307 60.4231C103.307 60.2274 103.307 60.0282 103.307 59.8243C103.313 59.6157 103.313 59.4221 103.182 59.262C103.064 59.1028 102.862 59.001 102.652 59.0002C102.422 58.9997 102.188 58.9993 101.95 58.9989C100.043 58.9955 97.8735 58.9912 95.4769 58.9869C85.8763 58.9525 72.6274 58.9057 57.9937 58.8538C57.8006 58.8525 57.6119 58.9431 57.4999 59.0929C57.3753 59.2448 57.3807 59.4238 57.3834 59.6539C57.3816 60.0896 57.3793 60.5235 57.3775 60.9566C57.3735 61.8224 57.3695 62.6822 57.3659 63.5355C57.3641 63.9626 57.3619 64.3875 57.3596 64.8112C57.3668 65.0142 57.339 65.2572 57.3784 65.4147C57.4228 65.5868 57.559 65.7328 57.7284 65.8014C57.8167 65.8358 57.8992 65.8478 58.0058 65.8469L58.3339 65.8486L58.9877 65.8516C59.4229 65.8538 59.8562 65.8559 60.2878 65.8581C63.7389 65.8757 67.0682 65.8929 70.2401 65.9087C76.5809 65.9457 82.292 65.9791 87.0912 66.007C91.8814 66.0431 95.761 66.0727 98.4516 66.0929C99.7862 66.1079 100.825 66.1195 101.54 66.1276C101.887 66.1341 102.154 66.1388 102.343 66.1422C102.524 66.1474 102.617 66.1555 102.617 66.1555C102.617 66.1555 102.524 66.1628 102.343 66.1654C102.153 66.1671 101.887 66.1697 101.54 66.1731C100.825 66.1749 99.7853 66.1774 98.4507 66.1804C95.7596 66.177 91.8805 66.1719 87.0899 66.1659C82.2907 66.1513 76.5796 66.1341 70.2383 66.1152C67.0668 66.1032 63.7376 66.0907 60.2864 66.0779C59.8549 66.0761 59.4215 66.0744 58.9864 66.0727L58.3321 66.0701L58.0041 66.0688C57.892 66.071 57.7531 66.0542 57.6384 66.0062C57.404 65.9117 57.2171 65.7109 57.1544 65.4718C57.119 65.3503 57.127 65.2275 57.1266 65.1284L57.1279 64.8112C57.1297 64.3875 57.1315 63.9621 57.1333 63.5355C57.1369 62.6817 57.1405 61.822 57.1441 60.9566C57.1459 60.524 57.1477 60.0896 57.1494 59.6539C57.153 59.5423 57.1427 59.4444 57.1611 59.3109C57.1808 59.1856 57.2315 59.0641 57.3108 58.962C57.4645 58.7547 57.7289 58.628 57.9942 58.631C72.6274 58.7083 85.8763 58.7787 95.4764 58.8293C97.874 58.8461 100.043 58.8611 101.95 58.8744C102.188 58.8761 102.422 58.8778 102.652 58.88C102.903 58.8821 103.141 59.0058 103.279 59.1946C103.432 59.3796 103.431 59.6329 103.422 59.8252C103.42 60.0291 103.419 60.2287 103.417 60.424C103.409 61.2052 103.403 61.919 103.397 62.562C103.381 63.8411 103.368 64.8374 103.359 65.5224C103.32 65.8804 103.052 66.0641 102.886 66.1178C102.713 66.177 102.617 66.1555 102.617 66.1555Z" fill="#E0E0E0"/>
<path d="M81.471 61.5544L60.389 61.4657L60.3795 63.3591L81.4615 63.4478L81.471 61.5544Z" fill="#016B83"/>
<path opacity="0.2" d="M81.471 61.5544L60.389 61.4657L60.3795 63.3591L81.4615 63.4478L81.471 61.5544Z" fill="white"/>
<path d="M68.7394 72.2079L57.2145 72.1594L57.2044 74.185L68.7293 74.2335L68.7394 72.2079Z" fill="#016B83"/>
<path opacity="0.1" d="M68.7394 72.2079L57.2145 72.1594L57.2044 74.185L68.7293 74.2335L68.7394 72.2079Z" fill="black"/>
<path d="M102.321 84.6389C102.32 84.6311 102.415 84.6393 102.587 84.5908C102.749 84.5397 103.012 84.4109 103.154 84.1045C103.231 83.9534 103.239 83.7701 103.232 83.5602C103.231 83.3516 103.23 83.1241 103.229 82.8781C103.228 82.3841 103.227 81.8153 103.226 81.1766C103.226 80.5358 103.225 79.8241 103.225 79.0459C103.225 78.851 103.225 78.6523 103.225 78.4493C103.235 78.2441 103.209 78.0539 103.094 77.8827C102.987 77.7144 102.812 77.5809 102.607 77.5213C102.407 77.4603 102.167 77.4934 101.93 77.4843C100.03 77.4809 97.8682 77.4766 95.4787 77.4723C85.9117 77.4384 72.7085 77.3912 58.126 77.3397C57.7209 77.3303 57.3467 77.6466 57.3077 78.0303C57.2942 78.4385 57.3005 78.8897 57.296 79.3155C57.292 80.1778 57.2879 81.035 57.2844 81.8853C57.2826 82.3107 57.2803 82.7348 57.2785 83.1567C57.2862 83.3675 57.2548 83.5877 57.3068 83.7559C57.3574 83.9336 57.4757 84.092 57.6339 84.1959C57.7984 84.3019 57.9763 84.341 58.1914 84.3332L58.8435 84.3363C59.2773 84.3384 59.7088 84.3405 60.139 84.3427C63.5785 84.3599 66.8961 84.377 70.0564 84.3929C76.3757 84.4298 82.0667 84.4633 86.8492 84.4912C91.6229 84.5273 95.4885 84.5565 98.1702 84.5766C99.5003 84.5916 100.536 84.6032 101.248 84.6114C101.594 84.6178 101.859 84.6225 102.048 84.626C102.229 84.6307 102.321 84.6389 102.321 84.6389C102.321 84.6389 102.229 84.6462 102.048 84.6487C101.859 84.6505 101.593 84.653 101.248 84.6565C100.536 84.6582 99.4999 84.6608 98.1698 84.6642C95.4885 84.6608 91.6224 84.6556 86.8483 84.6496C82.0658 84.6354 76.3748 84.6183 70.0555 84.5994C66.8948 84.5874 63.5772 84.5749 60.1381 84.562C59.7079 84.5603 59.2764 84.5586 58.8426 84.5569L58.1905 84.5543C57.9714 84.5655 57.702 84.5148 57.504 84.3792C57.3009 84.2461 57.1495 84.0431 57.084 83.8147C57.0173 83.5744 57.0572 83.3653 57.0473 83.1559C57.0491 82.7339 57.0504 82.3098 57.0522 81.8845C57.0558 81.0337 57.0598 80.1769 57.063 79.3142C57.0684 78.8772 57.0594 78.4626 57.076 78.0037C57.1257 77.5097 57.607 77.1032 58.1269 77.1156C72.7094 77.1929 85.9122 77.2629 95.4791 77.3135C97.8682 77.3303 100.03 77.3453 101.93 77.359C102.165 77.371 102.402 77.3345 102.644 77.4058C102.878 77.4758 103.076 77.6294 103.197 77.8217C103.326 78.0102 103.353 78.251 103.34 78.4493C103.339 78.6523 103.337 78.851 103.336 79.0463C103.328 79.8245 103.322 80.5362 103.316 81.1771C103.309 81.8162 103.303 82.3845 103.297 82.8786C103.294 83.1245 103.292 83.352 103.289 83.5602C103.293 83.7649 103.28 83.968 103.197 84.1229C103.039 84.4418 102.762 84.5672 102.593 84.6127C102.415 84.6552 102.321 84.6389 102.321 84.6389Z" fill="#E0E0E0"/>
<path d="M68.6528 91.4885L57.1279 91.4399L57.1177 93.4655L68.6426 93.514L68.6528 91.4885Z" fill="#016B83"/>
<path opacity="0.1" d="M68.6528 91.4885L57.1279 91.4399L57.1177 93.4655L68.6426 93.514L68.6528 91.4885Z" fill="black"/>
<path d="M102.235 103.917C102.235 103.91 102.33 103.918 102.501 103.87C102.664 103.819 102.926 103.689 103.069 103.383C103.145 103.232 103.153 103.048 103.146 102.839C103.145 102.63 103.145 102.402 103.144 102.157C103.143 101.662 103.142 101.094 103.141 100.455C103.14 99.8142 103.14 99.1025 103.14 98.3239C103.14 98.1294 103.14 97.9303 103.14 97.7268C103.15 97.5216 103.124 97.3319 103.009 97.1607C102.901 96.9924 102.726 96.8589 102.522 96.7988C102.322 96.7383 102.082 96.7713 101.845 96.7619C99.9448 96.758 97.7825 96.7542 95.3935 96.7499C85.8261 96.716 72.6234 96.6692 58.0408 96.6172C57.6352 96.6078 57.2615 96.9241 57.2225 97.3079C57.209 97.7161 57.2153 98.1672 57.2113 98.593C57.2073 99.4554 57.2032 100.313 57.1996 101.163C57.1978 101.588 57.1956 102.011 57.1938 102.434C57.2014 102.645 57.1696 102.865 57.2216 103.033C57.2722 103.211 57.3905 103.37 57.5487 103.473C57.7132 103.579 57.8911 103.619 58.1062 103.611L58.7583 103.614C59.1921 103.616 59.6236 103.618 60.0539 103.62C63.4929 103.638 66.8105 103.655 69.9713 103.67C76.2905 103.708 81.9815 103.741 86.7641 103.769C91.5377 103.805 95.4034 103.834 98.085 103.854C99.4151 103.869 100.451 103.881 101.163 103.889C101.508 103.895 101.775 103.9 101.963 103.904C102.143 103.91 102.235 103.917 102.235 103.917C102.235 103.917 102.143 103.925 101.963 103.927C101.774 103.929 101.508 103.931 101.162 103.935C100.45 103.937 99.4142 103.939 98.0841 103.943C95.4029 103.939 91.5372 103.934 86.7627 103.928C81.9802 103.914 76.2892 103.897 69.9699 103.878C66.8092 103.866 63.4916 103.853 60.0525 103.84C59.6223 103.839 59.1907 103.837 58.7569 103.835L58.1049 103.832C57.8857 103.843 57.6164 103.792 57.4183 103.657C57.2153 103.524 57.0638 103.321 56.9984 103.093C56.9321 102.852 56.9715 102.643 56.9617 102.434C56.9635 102.012 56.9653 101.588 56.9671 101.163C56.9706 100.312 56.9742 99.4549 56.9778 98.5926C56.9832 98.1561 56.9742 97.7414 56.9908 97.2821C57.0405 96.7881 57.5219 96.3816 58.0417 96.3945C72.6243 96.4717 85.8265 96.5417 95.394 96.5923C97.7826 96.6091 99.9444 96.6241 101.845 96.6374C102.079 96.649 102.316 96.613 102.559 96.6842C102.793 96.7542 102.99 96.9078 103.112 97.1006C103.24 97.289 103.268 97.5298 103.255 97.7281C103.253 97.9311 103.252 98.1299 103.25 98.3247C103.243 99.1034 103.236 99.815 103.231 100.455C103.223 101.095 103.218 101.663 103.212 102.157C103.209 102.403 103.206 102.631 103.203 102.839C103.207 103.044 103.194 103.247 103.111 103.402C102.953 103.72 102.676 103.846 102.507 103.892C102.33 103.933 102.235 103.917 102.235 103.917Z" fill="#E0E0E0"/>
<path d="M81.3903 80.0388L60.3078 79.9501L60.2983 81.8434L81.3807 81.9322L81.3903 80.0388Z" fill="#016B83"/>
<path opacity="0.2" d="M81.3903 80.0388L60.3078 79.9501L60.2983 81.8434L81.3807 81.9322L81.3903 80.0388Z" fill="white"/>
<path d="M62.2193 100.413C62.217 100.933 61.8025 101.353 61.2934 101.351C60.7843 101.348 60.3738 100.925 60.376 100.405C60.3783 99.8854 60.7928 99.4652 61.3019 99.4678C61.811 99.4699 62.2215 99.8932 62.2193 100.413Z" fill="#016B83"/>
<path d="M65.0753 100.426C65.073 100.946 64.6585 101.366 64.1494 101.364C63.6403 101.361 63.2298 100.938 63.2321 100.418C63.2343 99.8981 63.6488 99.4783 64.1579 99.4805C64.667 99.4822 65.0775 99.9059 65.0753 100.426Z" fill="#016B83"/>
<path d="M67.9313 100.439C67.9291 100.959 67.5145 101.379 67.0054 101.376C66.4963 101.374 66.0858 100.951 66.0881 100.431C66.0903 99.9108 66.5049 99.491 67.014 99.4932C67.5226 99.4953 67.9335 99.9185 67.9313 100.439Z" fill="#016B83"/>
<path d="M70.7869 100.451C70.7846 100.971 70.3701 101.391 69.8615 101.389C69.3524 101.386 68.9414 100.963 68.9441 100.443C68.9463 99.9231 69.3609 99.5034 69.87 99.5055C70.3786 99.5081 70.7896 99.9313 70.7869 100.451Z" fill="#016B83"/>
<path d="M73.6433 100.464C73.6411 100.984 73.2266 101.404 72.7175 101.401C72.2084 101.399 71.7975 100.976 71.7997 100.456C71.8024 99.9356 72.2169 99.5158 72.7256 99.518C73.2346 99.5205 73.6451 99.9438 73.6433 100.464Z" fill="#016B83"/>
<path d="M76.4989 100.476C76.4966 100.997 76.0821 101.417 75.573 101.414C75.0639 101.412 74.6534 100.989 74.6556 100.469C74.6579 99.9485 75.0724 99.5292 75.5811 99.5309C76.0906 99.533 76.5011 99.9567 76.4989 100.476Z" fill="#016B83"/>
<path d="M79.3553 100.489C79.3526 101.009 78.9381 101.429 78.4295 101.427C77.9204 101.424 77.5099 101.001 77.5121 100.481C77.5143 99.9609 77.9289 99.5416 78.4375 99.5437C78.9462 99.5459 79.3571 99.9691 79.3553 100.489Z" fill="#016B83"/>
<path d="M82.2109 100.501C82.2087 101.022 81.7942 101.441 81.2855 101.439C80.7764 101.437 80.3655 101.014 80.3682 100.494C80.3704 99.9738 80.785 99.554 81.2936 99.5562C81.8027 99.5583 82.2132 99.9815 82.2109 100.501Z" fill="#016B83"/>
<path d="M85.067 100.515C85.0647 101.034 84.6502 101.454 84.1415 101.452C83.6325 101.45 83.2215 101.027 83.2238 100.507C83.2265 99.9867 83.641 99.5674 84.1496 99.5691C84.6587 99.5708 85.0692 99.9945 85.067 100.515Z" fill="#016B83"/>
<g opacity="0.2">
<path d="M62.2193 100.413C62.217 100.933 61.8025 101.353 61.2934 101.351C60.7843 101.348 60.3738 100.925 60.376 100.405C60.3783 99.8854 60.7928 99.4652 61.3019 99.4678C61.811 99.4699 62.2215 99.8932 62.2193 100.413Z" fill="white"/>
<path d="M65.0753 100.426C65.073 100.946 64.6585 101.366 64.1494 101.364C63.6403 101.361 63.2298 100.938 63.2321 100.418C63.2343 99.8981 63.6488 99.4783 64.1579 99.4805C64.667 99.4822 65.0775 99.9059 65.0753 100.426Z" fill="white"/>
<path d="M67.9313 100.439C67.9291 100.959 67.5145 101.379 67.0054 101.376C66.4963 101.374 66.0858 100.951 66.0881 100.431C66.0903 99.9108 66.5049 99.491 67.014 99.4932C67.5226 99.4953 67.9335 99.9185 67.9313 100.439Z" fill="white"/>
<path d="M70.7869 100.451C70.7846 100.971 70.3701 101.391 69.8615 101.389C69.3524 101.386 68.9414 100.963 68.9441 100.443C68.9463 99.9231 69.3609 99.5034 69.87 99.5055C70.3786 99.5081 70.7896 99.9313 70.7869 100.451Z" fill="white"/>
<path d="M73.6433 100.464C73.6411 100.984 73.2266 101.404 72.7175 101.401C72.2084 101.399 71.7975 100.976 71.7997 100.456C71.8024 99.9356 72.2169 99.5158 72.7256 99.518C73.2346 99.5205 73.6451 99.9438 73.6433 100.464Z" fill="white"/>
<path d="M76.4989 100.476C76.4966 100.997 76.0821 101.417 75.573 101.414C75.0639 101.412 74.6534 100.989 74.6556 100.469C74.6579 99.9485 75.0724 99.5292 75.5811 99.5309C76.0906 99.533 76.5011 99.9567 76.4989 100.476Z" fill="white"/>
<path d="M79.3553 100.489C79.3526 101.009 78.9381 101.429 78.4295 101.427C77.9204 101.424 77.5099 101.001 77.5121 100.481C77.5143 99.9609 77.9289 99.5416 78.4375 99.5437C78.9462 99.5459 79.3571 99.9691 79.3553 100.489Z" fill="white"/>
<path d="M82.2109 100.501C82.2087 101.022 81.7942 101.441 81.2855 101.439C80.7764 101.437 80.3655 101.014 80.3682 100.494C80.3704 99.9738 80.785 99.554 81.2936 99.5562C81.8027 99.5583 82.2132 99.9815 82.2109 100.501Z" fill="white"/>
<path d="M85.067 100.515C85.0647 101.034 84.6502 101.454 84.1415 101.452C83.6325 101.45 83.2215 101.027 83.2238 100.507C83.2265 99.9867 83.641 99.5674 84.1496 99.5691C84.6587 99.5708 85.0692 99.9945 85.067 100.515Z" fill="white"/>
</g>
<path d="M81.0109 38.5471C81.6141 38.3046 82.0429 37.7092 82.0465 37.0074C82.0505 36.088 81.3241 35.3394 80.4238 35.3351C79.5239 35.3312 78.7908 36.0734 78.7872 36.9928C78.784 37.701 79.216 38.3041 79.8255 38.5471C77.3173 38.9089 77.4311 41.52 77.4311 41.52L83.3618 41.5461C83.3618 41.5461 83.4971 38.9068 81.0109 38.5471Z" fill="#016B83"/>
<path opacity="0.1" d="M81.0109 38.5471C81.6141 38.3046 82.0429 37.7092 82.0465 37.0074C82.0505 36.088 81.3241 35.3394 80.4238 35.3351C79.5239 35.3312 78.7908 36.0734 78.7872 36.9928C78.784 37.701 79.216 38.3041 79.8255 38.5471C77.3173 38.9089 77.4311 41.52 77.4311 41.52L83.3618 41.5461C83.3618 41.5461 83.4971 38.9068 81.0109 38.5471Z" fill="black"/>
<path d="M90.6515 43.2511L69.5023 43.1609L69.4903 45.5831L90.6395 45.6733L90.6515 43.2511Z" fill="#016B83"/>
<path opacity="0.2" d="M90.6515 43.2511L69.5023 43.1609L69.4903 45.5831L90.6395 45.6733L90.6515 43.2511Z" fill="white"/>
<path d="M21.5367 30.607C21.5367 30.6113 21.4659 30.6186 21.3288 30.6293C21.1804 30.6396 20.9783 30.6538 20.7189 30.6718C20.4495 30.6761 20.1219 30.7323 19.7356 30.7976C19.5434 30.8349 19.331 30.8499 19.1141 30.9113C18.8963 30.9693 18.6646 31.0306 18.4194 31.0959C17.4523 31.3882 16.2876 31.8526 15.1148 32.666C13.9452 33.473 12.7751 34.6272 11.8631 36.133C11.3836 36.873 11.0358 37.7276 10.7235 38.626C10.4694 39.5402 10.2444 40.5116 10.2274 41.5353C10.1799 42.0457 10.2337 42.5642 10.2561 43.0913C10.2704 43.3549 10.3296 43.6158 10.365 43.8815C10.4026 44.1472 10.4434 44.4142 10.5223 44.6765C10.749 45.7436 11.203 46.7896 11.7771 47.7919C12.9248 49.8041 14.8536 51.5378 17.2354 52.5427C18.427 53.0462 19.7446 53.3179 21.0845 53.3707C22.4258 53.4522 23.7998 53.2458 25.1021 52.817L25.4961 52.6783L25.548 52.6603L25.5951 52.683C27.5235 53.6209 29.4146 54.5403 31.2471 55.4314L31.079 55.5688C30.4754 53.7746 29.8905 52.0353 29.329 50.366L29.3075 50.3016L29.3573 50.254C30.7819 48.8877 31.7745 47.2279 32.3249 45.5285C32.8765 43.824 32.9706 42.0882 32.7555 40.4974C32.5404 38.9033 31.9964 37.4537 31.2708 36.2338C30.5457 35.0105 29.6441 34.0168 28.7186 33.2408C27.7825 32.4703 26.8118 31.9483 25.942 31.5487C25.051 31.1916 24.2569 30.9628 23.5968 30.8409C23.267 30.7868 22.9735 30.7392 22.7176 30.6975C22.4639 30.6804 22.2479 30.6662 22.0691 30.6542C21.9024 30.6417 21.7711 30.6323 21.6716 30.625C21.5824 30.616 21.5367 30.6104 21.5367 30.607C21.5367 30.604 21.5824 30.6031 21.6721 30.6044C21.7715 30.607 21.9033 30.6108 22.0709 30.6151C22.2506 30.622 22.4684 30.6306 22.7238 30.6405C22.982 30.6774 23.2782 30.7194 23.6112 30.7671C24.278 30.8787 25.0824 31.098 25.9872 31.4491C26.8701 31.8428 27.8578 32.3621 28.8123 33.1347C29.7561 33.9125 30.677 34.9139 31.4205 36.1506C32.164 37.3838 32.725 38.853 32.9509 40.4717C33.1768 42.0865 33.088 43.8515 32.5323 45.5878C31.978 47.3189 30.9715 49.0131 29.5213 50.4089L29.5495 50.2969C30.1133 51.9649 30.7012 53.7038 31.3076 55.4971L31.3963 55.7594L31.1395 55.6349C29.3062 54.7447 27.415 53.8265 25.4857 52.8895L25.5848 52.8942L25.1824 53.0359C23.8509 53.4745 22.4455 53.6844 21.0747 53.6012C19.7056 53.5467 18.3585 53.2672 17.1418 52.7513C14.7088 51.7224 12.7464 49.9488 11.5826 47.8962C11 46.8737 10.5424 45.8071 10.3143 44.7207C10.2354 44.4537 10.1951 44.182 10.1575 43.9116C10.1225 43.6416 10.0638 43.3755 10.0499 43.1076C10.0289 42.5719 9.97642 42.0444 10.0271 41.5263C10.049 40.4863 10.2816 39.4999 10.5451 38.5732C10.8669 37.6623 11.2254 36.7974 11.7161 36.0493C12.6505 34.5276 13.8452 33.3665 15.0369 32.56C16.2312 31.747 17.4138 31.2903 18.3934 31.0087C18.6413 30.9469 18.8761 30.8881 19.0966 30.8332C19.3157 30.7748 19.5304 30.7628 19.7244 30.7293C20.1148 30.6705 20.4446 30.6216 20.7157 30.625C20.9765 30.6164 21.18 30.6104 21.3292 30.6053C21.4664 30.6027 21.5367 30.6031 21.5367 30.607Z" fill="#016B83"/>
<path d="M24.0925 40.6292H23.2643L21.457 38.2165V36.633C21.457 36.633 20.1771 36.5575 20.3272 38.6311C20.4778 40.7048 20.3151 40.1768 20.3151 40.1768C20.3151 40.1768 17.5971 40.1867 17.3712 40.4129C17.2068 40.5773 17.1328 43.1634 17.1042 44.5658C17.0898 45.2719 17.542 45.9286 18.2276 46.0956C18.3249 46.1196 18.4235 46.1333 18.5203 46.1333C19.1983 46.1333 22.662 45.6054 22.662 45.6054H24.0925V40.6292Z" fill="#016B83"/>
<path d="M26.4632 40.1945L25.9541 45.62H24.5357V40.3039L26.4632 40.1945Z" fill="#016B83"/>
<path d="M34.7208 175.832V172.159L27.8503 172.115L27.7934 177.663L28.2191 177.694C30.1143 177.811 37.8636 177.982 39.1332 177.605C40.5498 177.186 34.7208 175.832 34.7208 175.832Z" fill="#575757"/>
<path d="M39.2959 177.261C39.2959 177.323 36.7258 177.373 33.5565 177.373C30.3859 177.373 27.8167 177.323 27.8167 177.261C27.8167 177.199 30.3859 177.149 33.5565 177.149C36.7258 177.15 39.2959 177.2 39.2959 177.261Z" fill="#263238"/>
<path d="M34.8413 176.581C34.7849 176.553 34.8333 176.359 34.9807 176.168C35.1277 175.976 35.3074 175.874 35.3522 175.917C35.3984 175.961 35.3043 176.123 35.1685 176.3C35.0327 176.477 34.8992 176.611 34.8413 176.581Z" fill="#263238"/>
<path d="M35.2796 176.824C35.22 176.802 35.251 176.584 35.3859 176.356C35.5203 176.126 35.6991 175.989 35.7488 176.026C35.8004 176.065 35.7139 176.252 35.5889 176.465C35.4638 176.678 35.341 176.846 35.2796 176.824Z" fill="#263238"/>
<path d="M29.8867 177.245C29.8598 177.263 29.7576 177.166 29.6088 177.005C29.4591 176.845 29.2633 176.618 29.006 176.427C28.7511 176.236 28.4701 176.14 28.2626 176.115C28.0537 176.088 27.9166 176.12 27.905 176.087C27.8929 176.063 28.0206 175.972 28.2684 175.957C28.5122 175.941 28.8568 176.03 29.1486 176.249C29.4385 176.466 29.624 176.724 29.7419 176.912C29.8593 177.1 29.9122 177.227 29.8867 177.245Z" fill="#263238"/>
<path d="M34.8624 175.891C34.896 175.943 34.7781 176.071 34.5819 176.139C34.386 176.209 34.2095 176.184 34.2005 176.124C34.1902 176.062 34.3296 175.991 34.5012 175.93C34.6733 175.869 34.8283 175.838 34.8624 175.891Z" fill="#263238"/>
<path d="M34.7548 175.536C34.7611 175.598 34.5778 175.651 34.3461 175.653C34.114 175.656 33.9294 175.609 33.9343 175.547C33.9388 175.485 34.1216 175.433 34.343 175.43C34.5639 175.427 34.7486 175.475 34.7548 175.536Z" fill="#263238"/>
<path d="M51.6386 175.832L51.6391 172.159L44.7686 172.115L44.7117 177.607L45.1374 177.637C47.0326 177.754 54.7819 177.982 56.0519 177.605C57.4681 177.186 51.6386 175.832 51.6386 175.832Z" fill="#575757"/>
<path d="M56.2142 177.27C56.2142 177.331 53.6445 177.382 50.4748 177.382C47.3042 177.382 44.735 177.331 44.735 177.27C44.735 177.208 47.3042 177.157 50.4748 177.157C53.6441 177.157 56.2142 177.208 56.2142 177.27Z" fill="#263238"/>
<path d="M51.7596 176.581C51.7031 176.553 51.7515 176.359 51.8994 176.168C52.0464 175.976 52.2261 175.874 52.2709 175.917C52.3171 175.961 52.223 176.123 52.0872 176.3C51.951 176.477 51.817 176.611 51.7596 176.581Z" fill="#263238"/>
<path d="M52.1979 176.824C52.1383 176.802 52.1692 176.584 52.3041 176.356C52.4386 176.126 52.6174 175.989 52.6671 176.026C52.7187 176.065 52.6322 176.252 52.5076 176.465C52.3821 176.678 52.2589 176.846 52.1979 176.824Z" fill="#263238"/>
<path d="M46.8045 177.245C46.7776 177.263 46.6754 177.166 46.5266 177.005C46.3774 176.845 46.1811 176.618 45.9239 176.427C45.6689 176.236 45.3884 176.14 45.1804 176.115C44.9716 176.088 44.8345 176.12 44.8228 176.087C44.8107 176.063 44.9384 175.972 45.1858 175.957C45.4296 175.941 45.7747 176.03 46.066 176.249C46.3564 176.466 46.541 176.724 46.6593 176.912C46.7776 177.1 46.8305 177.227 46.8045 177.245Z" fill="#263238"/>
<path d="M51.7807 175.891C51.8143 175.943 51.6964 176.071 51.5006 176.139C51.3043 176.209 51.1282 176.184 51.1188 176.124C51.1085 176.062 51.2478 175.991 51.4195 175.93C51.5916 175.869 51.7466 175.838 51.7807 175.891Z" fill="#263238"/>
<path d="M51.6727 175.536C51.679 175.598 51.4957 175.651 51.264 175.653C51.0318 175.656 50.8476 175.609 50.8521 175.547C50.8566 175.485 51.0399 175.433 51.2613 175.43C51.4822 175.427 51.6664 175.475 51.6727 175.536Z" fill="#263238"/>
<path d="M76.9484 66.8505C76.7691 66.6737 76.3282 66.7569 76.3282 66.7569C76.3282 66.7569 76.4052 66.2551 76.3237 66.0126C76.2426 65.7701 75.6779 65.8169 75.6779 65.8169C75.6779 65.8169 75.643 65.5834 75.6922 65.2065C75.7048 65.1121 75.6501 65.0426 75.5609 64.9906C75.2934 64.8357 74.7166 64.843 74.7166 64.843C74.3707 64.606 75.7707 62.7311 76.2896 62.131C76.8027 61.5383 76.7162 61.0631 76.2533 61.064C75.9378 61.0644 74.3035 62.8668 73.8047 63.472C73.3063 64.0768 71.9691 65.7598 71.9238 64.4167C71.8781 63.0736 71.3148 62.0576 70.9625 61.8847C70.6103 61.7117 70.2303 62.1177 70.4252 62.4907C70.583 62.7921 70.6825 63.3728 70.7389 63.8119C70.7855 64.1742 70.7698 64.5416 70.6874 64.8975C70.4535 65.9036 70.202 66.5569 70.0842 66.8363L70.0497 66.8179C70.0497 66.8179 60.2681 75.8014 59.5631 76.4427C58.9286 77.0195 46.2183 75.7602 43.672 75.5013C42.976 75.4266 41.9453 75.2927 41.0521 75.3305C39.9475 75.3769 39.7512 75.5271 38.6456 75.5413C35.2604 75.5846 32.4393 75.9001 30.3397 76.2405C27.8015 76.6517 25.7203 78.3824 24.9347 80.7307C22.3646 88.4128 16.5504 106.6 15.5143 116.817C14.6982 118.287 13.7862 120.004 13.4156 120.969C12.6955 122.847 12.8702 122.911 13.1131 122.955C13.7647 123.07 14.5104 119.698 14.7887 120.511C15.0675 121.326 13.3762 124.535 14.0623 124.629C14.9568 124.751 15.6698 121.207 15.7531 120.911C15.8343 120.624 16.2855 120.721 16.1955 120.984C16.0655 121.362 14.8044 125.367 15.6819 125.495C16.1681 125.567 16.2206 124.718 16.2206 124.718C16.2206 124.718 17.1124 120.888 17.5242 120.962C17.9428 121.037 17.4982 123.302 17.2916 124.056C17.0877 124.801 17.375 125.197 17.7944 125.009C18.0803 124.882 18.7691 122.587 18.9547 121.837C19.1406 121.087 19.6116 119.021 20.2444 120.22C20.8772 121.42 21.8349 122.113 22.2306 122.128C22.6259 122.143 22.7917 121.622 22.4506 121.362C22.175 121.152 21.8291 120.666 21.5844 120.29C21.3827 119.981 21.2348 119.641 21.1533 119.285C20.8382 117.912 20.8409 117.113 20.8409 117.113L20.7679 116.672C21.7712 111.91 24.664 97.9405 28.8192 89.0158L30.5302 92.3883L31.2728 94.8848L26.7129 105.675L46.1681 105.43L43.2678 94.7251L46.7915 83.5628H46.7911C50.6048 83.6444 60.3998 83.7804 62.0458 83.0756C64.0979 82.1974 74.7184 69.3744 74.7184 69.3744H74.718C75.4355 68.8271 76.165 68.2386 76.7033 67.7249C76.7041 67.724 77.3374 67.2334 76.9484 66.8505Z" fill="#FFBE9D"/>
<path d="M25.8664 97.7307C26.4297 95.8854 29.3301 86.7607 29.3301 86.7607C29.3301 86.7607 30.7534 94.1998 30.3792 95.0956C29.9481 96.1279 29.1558 97.3092 29.1558 97.3092C25.8664 102.108 26.298 104.506 26.298 104.506L46.1686 103.925C46.217 101.264 44.5719 95.0754 44.2282 94.0895C43.884 93.1035 45.025 89.8675 45.025 89.8675C45.025 89.8675 47.2706 87.6831 47.1837 86.5589C47.0084 84.2943 46.792 83.5629 46.792 83.5629L58.8829 83.9891L58.5028 76.1311L41.1225 74.4652C40.5211 76.1045 35.048 75.3014 35.048 75.3014C29.1392 75.4872 28.7816 76.5281 26.3172 78.3554C23.8533 80.1826 19.7954 95.8764 19.7954 95.8764L25.8664 97.7307Z" fill="#016B83"/>
<path d="M37.6181 95.8746C37.6176 95.9042 37.2179 95.9296 36.5708 95.9253C35.9241 95.9214 35.0301 95.8828 34.0477 95.7888C33.0649 95.6935 32.1812 95.5609 31.5462 95.4411C30.9116 95.3218 30.5249 95.2209 30.5307 95.1917C30.537 95.1604 30.9336 95.2063 31.5726 95.2853C32.2117 95.3647 33.0936 95.472 34.071 95.566C35.048 95.66 35.9344 95.7231 36.577 95.7673C37.2201 95.8119 37.6185 95.8424 37.6181 95.8746Z" fill="#263238"/>
<path d="M38.9782 94.256C38.9867 94.2835 38.5766 94.4325 37.8932 94.6102C37.2103 94.7874 36.2508 94.9836 35.177 95.1064C34.1028 95.2278 33.1219 95.2532 32.4142 95.2334C31.7062 95.2141 31.2715 95.1604 31.2733 95.1325C31.2746 95.0995 31.7111 95.0965 32.4138 95.0754C33.1165 95.0544 34.0854 95.0051 35.1492 94.8844C36.2122 94.763 37.1668 94.5934 37.8551 94.4565C38.5435 94.3191 38.9688 94.2238 38.9782 94.256Z" fill="#263238"/>
<path d="M45.6622 87.0359C45.6932 87.0423 45.6421 87.4132 45.5264 88.0068C45.4108 88.6004 45.2293 89.416 45.0003 90.3105C44.7709 91.2055 44.5383 92.0094 44.3541 92.5867C44.1699 93.1645 44.0364 93.516 44.0054 93.5079C43.9741 93.4993 44.0516 93.1332 44.1946 92.546C44.364 91.8759 44.5589 91.1067 44.7736 90.2577C44.9932 89.41 45.1921 88.6421 45.3656 87.9729C45.522 87.3883 45.6304 87.0294 45.6622 87.0359Z" fill="#263238"/>
<path d="M26.0748 96.6375C26.0578 96.6971 24.6873 96.3911 23.014 95.9537C21.3402 95.5159 19.9975 95.1137 20.0146 95.0536C20.0316 94.9939 21.4016 95.3004 23.0754 95.7378C24.7487 96.1752 26.0918 96.5782 26.0748 96.6375Z" fill="#263238"/>
<path d="M47.0111 83.462C47.0111 83.4723 46.8269 83.4907 46.4966 83.4594C46.1681 83.4272 45.6873 83.3538 45.1302 83.1473C44.5728 82.9473 43.9391 82.6129 43.3471 82.1073C42.7551 81.6038 42.2258 80.911 41.8884 80.0959C41.5456 79.2812 41.4331 78.4322 41.4868 77.6763C41.5388 76.9217 41.7477 76.2396 42.1004 75.7619C42.4495 75.2777 42.9124 75.0434 43.2346 74.9622C43.3977 74.9206 43.5295 74.9107 43.6173 74.9129C43.7056 74.915 43.7509 74.9245 43.7509 74.9313C43.7518 74.9524 43.5649 74.9425 43.2619 75.0451C42.9644 75.1472 42.5458 75.388 42.2375 75.8503C41.6276 76.7689 41.4573 78.4459 42.1057 80.0135C42.4306 80.7973 42.9303 81.4626 43.4923 81.9554C44.0538 82.4503 44.6579 82.7881 45.1921 83.001C46.2685 83.4285 47.0192 83.4143 47.0111 83.462Z" fill="#263238"/>
<path d="M57.4569 83.832C57.3928 83.832 57.3439 82.0609 57.3484 79.8766C57.3529 77.6913 57.4089 75.9211 57.473 75.9211C57.5375 75.9216 57.5859 77.6922 57.5815 79.877C57.5774 82.0614 57.5214 83.8324 57.4569 83.832Z" fill="#263238"/>
<path d="M41.0163 74.9437C41.0651 73.9857 41.17 72.9036 41.17 72.9036C41.17 72.9036 43.6429 72.6426 43.793 70.1955C43.9431 67.7484 43.793 62.1061 43.793 62.1061L39.2887 59.9093L34.334 63.6544L35.0847 75.8881L39.6436 76.1658C40.3625 76.2096 40.9796 75.661 41.0163 74.9437Z" fill="#FFBE9D"/>
<path d="M41.4618 68.2602C41.4689 68.2619 41.4694 68.3061 41.4228 68.3653C41.3771 68.4229 41.2771 68.4881 41.1382 68.4855C40.8509 68.4722 40.5749 68.1683 40.4732 67.7975C40.4221 67.609 40.4225 67.418 40.4611 67.2536C40.4915 67.0918 40.5892 66.9291 40.7299 66.8849C40.7972 66.8609 40.8671 66.8634 40.9204 66.8892C40.9728 66.9145 41.0051 66.9527 41.0217 66.9879C41.0553 67.0609 41.0293 67.1051 41.0226 67.1017C41.0123 67.1012 41.015 67.0609 40.9773 67.015C40.9419 66.9682 40.8577 66.9257 40.7644 66.972C40.6694 67.0132 40.6045 67.1296 40.5803 67.2785C40.552 67.4262 40.5556 67.5957 40.6009 67.7636C40.6905 68.0958 40.9312 68.3679 41.1449 68.3924C41.2507 68.4053 41.3385 68.3662 41.386 68.3293C41.4353 68.2907 41.4523 68.2559 41.4618 68.2602Z" fill="#EB996E"/>
<path d="M45.3288 60.7854C44.9846 59.6591 43.7343 59.0994 42.5951 58.7903C40.8621 58.3199 38.9849 58.1117 37.2918 58.7088C35.5987 59.3059 33.5624 60.3562 33.5628 62.1478C32.5634 62.0689 31.9925 62.9076 31.5959 63.9468C31.3615 64.5606 31.2074 65.2439 31.1711 65.9208L31.1545 65.9157C31.0259 68.2606 30.3438 71.4915 28.7565 73.226C27.8799 74.1836 26.6179 74.8451 26.1071 76.0379C25.6629 77.0745 25.8928 78.2996 25.4729 79.346C25.1023 80.2698 24.2818 80.9256 23.6934 81.7292C22.4121 83.4796 22.3247 85.9524 23.2663 87.9059C24.2078 89.8593 26.0734 91.2887 28.1443 91.9437C30.2152 92.5987 32.4711 92.5266 34.5787 92.0012C36.1347 91.6132 37.6485 90.9711 38.8885 89.9559C40.1285 88.9408 41.08 87.5299 41.3636 85.9546C41.6791 84.2011 41.1669 82.4207 40.79 80.6793C39.5979 75.17 39.9385 74.8837 41.4429 69.7732C41.477 69.6831 41.4981 69.5891 41.5241 69.4964C41.5438 69.4285 41.563 69.3637 41.5832 69.2942L41.5801 69.2933C41.6222 69.0933 41.6495 68.8899 41.6504 68.6821C41.2148 68.8465 40.6887 68.737 40.3544 68.4134C40.0205 68.0898 39.896 67.5678 40.0479 67.1287C40.2227 66.6235 40.7066 66.2861 41.2036 66.0856C41.7006 65.8852 42.2353 65.786 42.7233 65.5641C43.7581 65.0924 44.4755 64.1137 44.9636 63.0883C45.3064 62.3693 45.5614 61.546 45.3288 60.7854Z" fill="#263238"/>
<path d="M41.6388 68.3644C41.6545 68.358 41.7414 68.5177 41.8745 68.7885C42.0076 69.0594 42.186 69.4418 42.3845 69.8814L42.4217 69.9646L42.3267 69.9724C42.1775 69.9848 42.0264 69.9973 41.8705 70.0101C41.5577 70.0295 41.2968 70.0655 40.9939 70.0625C40.946 70.0543 40.8926 70.0123 40.8783 69.9651C40.8622 69.9187 40.8666 69.8797 40.8716 69.8457C40.8846 69.7784 40.9002 69.7286 40.9137 69.6715L40.993 69.3676C41.092 68.9967 41.1629 68.7692 41.1817 68.7735C41.2005 68.7778 41.1638 69.0126 41.0894 69.3882L41.0271 69.6951C41.0042 69.799 40.9648 69.9539 41.023 69.9419C41.2462 69.9329 41.5639 69.8973 41.8588 69.8762C42.0148 69.8642 42.1658 69.853 42.315 69.8414L42.2577 69.9324C42.0659 69.4908 41.9032 69.1014 41.7921 68.8216C41.6823 68.5422 41.6231 68.3709 41.6388 68.3644Z" fill="#016B83"/>
<path d="M26.2979 104.506L46.1686 103.926L54.811 136.264L53.2192 173.358H42.7018L44.005 137.054L36.3184 114.542L37.5029 174.796L26.8846 174.947L25.766 118.31C25.7194 116.736 25.1785 113.184 25.3797 111.623L26.2979 104.506Z" fill="#263238"/>
<path d="M38.9651 114.999C38.9611 115.028 38.5882 115.011 37.9904 114.943C37.3926 114.876 36.5703 114.755 35.6695 114.582C34.7687 114.408 33.9616 114.215 33.3831 114.055C32.8045 113.896 32.4536 113.775 32.4617 113.745C32.4796 113.683 33.9222 114.018 35.7156 114.363C37.5078 114.71 38.9737 114.935 38.9651 114.999Z" fill="#455A64"/>
<path d="M53.1237 171.323C53.1237 171.385 50.7423 171.435 47.8061 171.435C44.8685 171.435 42.488 171.385 42.488 171.323C42.488 171.262 44.8685 171.212 47.8061 171.212C50.7423 171.212 53.1237 171.262 53.1237 171.323Z" fill="#455A64"/>
<path d="M37.4078 173.231C37.4078 173.293 35.0981 173.343 32.2488 173.343C29.3991 173.343 27.0894 173.293 27.0894 173.231C27.0894 173.169 29.3991 173.119 32.2488 173.119C35.0981 173.119 37.4078 173.169 37.4078 173.231Z" fill="#455A64"/>
<path d="M36.0401 173.076C35.9756 173.077 35.6964 159.911 35.4163 143.672C35.1362 127.428 34.9614 114.262 35.026 114.261C35.0905 114.26 35.3697 127.424 35.6498 143.668C35.9299 159.907 36.1047 173.075 36.0401 173.076Z" fill="#455A64"/>
<path d="M51.7112 171.323C51.7072 171.323 51.7059 171.264 51.7063 171.148C51.7086 171.021 51.7121 170.851 51.7162 170.634C51.7301 170.17 51.7502 169.506 51.7758 168.658C51.8385 166.93 51.9281 164.45 52.0393 161.39C52.2844 155.245 52.6228 146.774 52.9965 137.417C53.0001 137.331 53.0037 137.245 53.0068 137.165L53.0104 137.197C50.6554 128.164 48.5267 120 46.9833 114.081C46.226 111.133 45.6125 108.744 45.1849 107.079C44.9797 106.261 44.8197 105.621 44.7077 105.174C44.6575 104.964 44.6185 104.799 44.5894 104.677C44.5638 104.564 44.5526 104.507 44.5567 104.506C44.5602 104.505 44.5791 104.561 44.6122 104.672C44.6467 104.792 44.6933 104.956 44.7529 105.163C44.8753 105.608 45.0496 106.245 45.2728 107.059C45.7173 108.719 46.355 111.102 47.1424 114.043C48.7029 119.958 50.8553 128.117 53.2363 137.143L53.2403 137.158L53.2399 137.174C53.2367 137.254 53.2327 137.34 53.2296 137.427C52.8294 146.782 52.4668 155.251 52.2038 161.397C52.0617 164.455 51.9465 166.933 51.8663 168.661C51.8215 169.509 51.787 170.172 51.7628 170.636C51.7489 170.853 51.7381 171.023 51.7301 171.149C51.7216 171.265 51.7153 171.324 51.7112 171.323Z" fill="#455A64"/>
<path d="M48.2834 136.41C48.2941 136.471 47.254 136.693 45.9598 136.906C44.9936 137.065 44.1591 137.174 43.7948 137.194L43.7943 137.107C43.9153 137.138 43.9803 137.163 43.9776 137.179C43.9754 137.194 43.905 137.199 43.78 137.194L43.5084 137.183L43.7795 137.107C44.13 137.008 44.9546 136.845 45.9208 136.686C47.2141 136.473 48.2722 136.349 48.2834 136.41Z" fill="#455A64"/>
<path d="M48.0822 137.644C48.0732 137.707 47.1397 137.638 45.9903 137.553C44.8408 137.466 43.9073 137.396 43.9086 137.333C43.91 137.272 44.8515 137.243 46.0086 137.33C47.1648 137.415 48.0907 137.584 48.0822 137.644Z" fill="#455A64"/>
<path opacity="0.2" d="M26.2097 105.189C26.6901 105.837 27.3753 106.064 28.1716 106.189C28.9675 106.314 29.78 106.23 30.5813 106.145C35.7103 105.6 41.1454 105.097 46.1686 103.925C39.6665 104.274 32.8 104.156 26.2979 104.505C26.2979 104.505 26.2424 104.934 26.2294 105.037" fill="black"/>
<g opacity="0.2">
<path d="M32.9121 113.967L36.5752 127.588L36.3189 114.541L32.9121 113.967Z" fill="black"/>
</g>
</svg>
