<svg width="179" height="184" viewBox="0 0 179 184" fill="none" xmlns="http://www.w3.org/2000/svg">
<path d="M163.316 116.808C139.585 155.717 98.1472 168.635 55.5262 163.158C5.06368 156.674 1.76089 104.127 1.69337 103.633C-5.11028 53.8439 18.8306 22.8911 31.7366 11.4206C49.4542 -4.32624 79.3503 -3.90499 92.7498 13.4044C101.462 24.6589 109.237 22.8415 116.469 21.9737C123.704 21.1056 162.493 20.8502 173.718 48.3786C184.148 73.9565 176.077 95.8861 163.316 116.808Z" fill="#CCE0ED"/>
<path opacity="0.5" d="M42.8327 79.4501C44.4763 80.3666 46.2327 80.9911 48.0306 81.3237L49.0587 85.7344L52.1521 85.5895L55.2454 85.4445L55.8565 80.957C57.6155 80.4576 59.3058 79.6715 60.8565 78.6053L64.7028 80.9975L66.7876 78.7077L68.8725 76.4179L66.131 72.8122C67.0475 71.1687 67.672 69.4123 68.0046 67.6142L72.4153 66.5861L72.2704 63.4927L72.1254 60.3994L67.6379 59.7883C67.1386 58.0293 66.3525 56.3391 65.2863 54.7883L67.6786 50.942L65.3888 48.8571L63.0989 46.7724L59.4931 49.5138C57.8495 48.5974 56.0931 47.9728 54.2952 47.6402L53.2671 43.2295L50.1737 43.3745L47.0804 43.5194L46.4693 48.007C44.7103 48.5062 43.02 49.2924 41.4693 50.3585L37.623 47.9664L35.5381 50.2562L33.4533 52.5461L36.1948 56.1518C35.2783 57.7954 34.6538 59.5518 34.3212 61.3499L29.9105 62.378L30.0554 65.4713L30.2004 68.5646L34.6879 69.1757C35.1872 70.9348 35.9734 72.625 37.0395 74.1757L34.6473 78.022L36.9372 80.1069L39.227 82.1918L42.8327 79.4501ZM42.5723 56.6606C46.8919 51.9161 54.2399 51.5718 58.9843 55.8914C63.7288 60.211 64.0731 67.559 59.7535 72.3034C55.4339 77.0478 48.0859 77.3922 43.3415 73.0726C38.597 68.753 38.2526 61.405 42.5723 56.6606Z" fill="#FF000D"/>
<path d="M130.443 53.7442C129.285 53.3481 128.089 53.1519 126.899 53.1473L125.73 50.4434L123.767 50.8946L121.804 51.3457L121.933 54.2886C120.865 54.812 119.874 55.5111 119.006 56.3731L116.267 55.2877L115.198 56.9948L114.129 58.7019L116.301 60.692C115.905 61.8501 115.709 63.0466 115.704 64.236L113 65.405L113.451 67.368L113.903 69.331L116.845 69.2022C117.369 70.2701 118.068 71.2608 118.93 72.1297L117.844 74.8687L119.552 75.9377L121.259 77.0067L123.249 74.8343C124.407 75.2305 125.603 75.4267 126.793 75.4313L127.962 78.1351L129.925 77.6839L131.888 77.2327L131.759 74.2897C132.827 73.7663 133.818 73.0674 134.686 72.2053L137.425 73.2907L138.494 71.5837L139.563 69.8766L137.391 67.8865C137.787 66.7283 137.983 65.5319 137.988 64.3426L140.692 63.1735L140.241 61.2104L139.789 59.2474L136.846 59.3762C136.323 58.3083 135.624 57.3176 134.762 56.4486L135.848 53.7096L134.14 52.6406L132.433 51.5716L130.443 53.7442ZM133.251 68.2998C131.036 71.8369 126.373 72.9087 122.836 70.6937C119.299 68.4788 118.227 63.8158 120.442 60.2787C122.657 56.7416 127.32 55.6699 130.857 57.8848C134.394 60.0998 135.466 64.7627 133.251 68.2998Z" fill="#FF000D"/>
<path d="M23.7213 80.9388C23.3961 80.3913 22.9883 79.91 22.5188 79.5071L22.9676 78.0417L22.0378 77.5585L21.1081 77.0752L20.1666 78.2844C19.567 78.1315 18.9389 78.0742 18.304 78.1227L17.5851 76.769L16.586 77.0848L15.5868 77.4004L15.7762 78.9214C15.2287 79.2466 14.7474 79.6544 14.3445 80.124L12.8791 79.6751L12.3958 80.6049L11.9125 81.5346L13.1217 82.4761C12.9689 83.0757 12.9116 83.7038 12.9601 84.3387L11.6064 85.0577L11.9221 86.0568L12.2378 87.0561L13.7588 86.8668C14.084 87.4142 14.4918 87.8955 14.9613 88.2983L14.5125 89.7637L15.4423 90.247L16.372 90.7303L17.3135 89.5211C17.913 89.6739 18.5412 89.7312 19.1761 89.6827L19.8949 91.0364L20.8941 90.7207L21.8933 90.405L21.7039 88.884C22.2514 88.5588 22.7327 88.151 23.1356 87.6815L24.601 88.1303L25.0843 87.2006L25.5675 86.2708L24.3583 85.3294C24.5112 84.7298 24.5684 84.1016 24.5199 83.4667L25.8736 82.7479L25.5579 81.7487L25.2422 80.7496L23.7213 80.9388ZM19.9243 87.6514C17.8541 88.3055 15.6454 87.1575 14.9914 85.0871C14.3372 83.0168 15.4852 80.8082 17.5556 80.1542C19.6258 79.5001 21.8345 80.6481 22.4885 82.7184C23.1427 84.7887 21.9946 86.9972 19.9243 87.6514Z" fill="#FF000D"/>
<path d="M142.798 93.107C141.736 93.2041 140.714 93.4739 139.766 93.8937L137.873 92.1583L136.471 93.2163L135.07 94.2741L136.22 96.57C135.557 97.3667 135.017 98.2756 134.633 99.2709L132.067 99.3823L131.824 101.121L131.581 102.86L134.018 103.67C134.115 104.733 134.385 105.755 134.805 106.703L133.07 108.596L134.128 109.997L135.185 111.398L137.481 110.248C138.278 110.912 139.187 111.451 140.182 111.836L140.294 114.402L142.033 114.645L143.772 114.887L144.582 112.45C145.644 112.353 146.666 112.083 147.614 111.664L149.507 113.399L150.908 112.341L152.31 111.283L151.16 108.987C151.823 108.191 152.363 107.282 152.747 106.286L155.313 106.175L155.556 104.436L155.799 102.697L153.362 101.887C153.265 100.824 152.995 99.8022 152.575 98.8543L154.31 96.9615L153.253 95.5602L152.195 94.1588L149.899 95.3091C149.102 94.6456 148.193 94.1061 147.198 93.7216L147.087 91.1558L145.348 90.9128L143.609 90.6699L142.798 93.107ZM150.214 103.69C149.711 107.293 146.382 109.806 142.779 109.303C139.175 108.799 136.663 105.471 137.166 101.867C137.669 98.2645 140.998 95.7515 144.601 96.2548C148.204 96.758 150.717 100.087 150.214 103.69Z" fill="#FF000D"/>
<path d="M155.398 40.1865C154.92 40.23 154.461 40.3513 154.035 40.54L153.184 39.7601L152.555 40.2355L151.925 40.711L152.442 41.7428C152.144 42.1008 151.901 42.5093 151.728 42.9567L150.575 43.0067L150.466 43.7883L150.357 44.5699L151.452 44.934C151.496 45.4116 151.617 45.8708 151.806 46.2969L151.026 47.1476L151.501 47.7774L151.977 48.4073L153.009 47.8903C153.367 48.1885 153.775 48.431 154.222 48.6038L154.272 49.757L155.054 49.8661L155.836 49.9753L156.2 48.8799C156.677 48.8363 157.137 48.7151 157.563 48.5264L158.413 49.3063L159.043 48.8309L159.673 48.3554L159.156 47.3236C159.454 46.9656 159.697 46.5571 159.869 46.1097L161.023 46.0596L161.132 45.2781L161.241 44.4965L160.145 44.1324C160.102 43.6548 159.981 43.1956 159.792 42.7695L160.572 41.9189L160.096 41.2891L159.621 40.6592L158.589 41.1762C158.231 40.878 157.823 40.6355 157.375 40.4627L157.325 39.3096L156.544 39.2004L155.762 39.0913L155.398 40.1865ZM158.731 44.9428C158.505 46.5622 157.008 47.6916 155.389 47.4653C153.77 47.2391 152.64 45.743 152.867 44.1237C153.093 42.5043 154.589 41.3749 156.208 41.6012C157.828 41.8273 158.957 43.3235 158.731 44.9428Z" fill="#FF000D"/>
<path d="M56.285 19.7835C57.8685 19.6928 61.5805 19.5346 64.8076 19.8067C66.1427 19.9192 67.2953 18.8528 67.2654 17.5132C67.2531 16.965 67.0564 16.3272 66.5476 15.6045C64.5883 12.8218 61.1825 15.4793 61.2152 16.8918C61.2152 16.8918 60.5267 14.7649 58.4355 15.1373C56.3442 15.5096 57.0838 18.6029 57.0838 18.6029C57.0838 18.6029 56.4089 18.4603 55.9411 18.7796C55.481 19.0937 55.729 19.8153 56.285 19.7835Z" fill="white"/>
<path d="M131.914 43.776C130.274 40.8827 127.119 42.4065 127.119 42.4065C125.344 38.8768 122.339 41.3348 122.339 41.3348C122.339 41.3348 122.782 34.3229 116.564 34.4075C111.142 34.4812 111.011 41.642 111.011 41.642C109.854 41.6374 109.145 41.9348 108.712 42.3323C108.26 42.7483 108.288 43.3715 108.607 43.776H131.914Z" fill="white"/>
<path d="M39.545 40.0411C38.2288 37.7192 35.6973 38.9421 35.6973 38.9421C34.2727 36.1094 31.8608 38.082 31.8608 38.082C31.8608 38.082 32.2169 32.4548 27.2265 32.5226C22.8753 32.5818 22.7697 38.3286 22.7697 38.3286C21.8418 38.3248 21.2723 38.5635 20.9252 38.8825C20.5619 39.2163 20.5847 39.7165 20.8411 40.0411H39.545Z" fill="white"/>
<path d="M38.0823 122.874C37.981 124.313 25.8737 183.676 25.8737 183.676H66.286C66.286 183.676 68.6628 145.06 75.4958 134.023C82.3288 122.986 38.0823 122.874 38.0823 122.874Z" fill="#FFB294"/>
<path d="M75.136 96.5891C71.9528 95.6732 60.5687 102.584 57.628 104.049C55.7575 104.981 48.6283 108.37 43.6866 110.714L43.2911 110.363L39.5633 112.668C39.0439 112.914 38.747 113.055 38.747 113.055L38.8398 113.116L38.7664 113.161L37.4032 132.517C37.0943 136.903 39.8647 140.916 44.074 142.186C47.6105 143.253 58.0602 144.861 62.3805 145.417C66.8125 145.987 70.9796 143.343 72.4377 139.234C72.4379 139.233 84.4174 119.411 85.7529 118.017C88.1322 115.535 90.6822 105.152 90.6822 105.152C90.6822 105.152 78.3192 97.5051 75.136 96.5891Z" fill="#FFB294"/>
<path d="M73.4715 138.118C73.4239 138.127 73.3731 138.119 73.3287 138.091C73.2334 138.032 73.204 137.907 73.263 137.812L85.1407 118.444C85.1998 118.349 85.3247 118.319 85.42 118.378C85.5153 118.437 85.5448 118.562 85.4858 118.657L73.6081 138.025C73.5765 138.076 73.5261 138.108 73.4715 138.118Z" fill="#010103"/>
<path d="M90.5599 54.0364C90.5599 54.0364 95.8334 51.4508 98.1031 55.4319C100.373 59.4129 95.8667 63.3578 94.3786 64.0598C92.8907 64.7617 90.5599 54.0364 90.5599 54.0364Z" fill="#FFB294"/>
<path d="M92.2781 63.5266C92.2781 63.5266 97.5515 60.941 99.8213 64.922C102.091 68.903 97.5849 72.848 96.0967 73.55C94.6088 74.2519 92.2781 63.5266 92.2781 63.5266Z" fill="#FFB294"/>
<path d="M92.148 72.2244C92.148 72.2244 97.4214 69.6388 99.6912 73.6199C101.961 77.6008 97.4548 81.5458 95.9666 82.2478C94.4785 82.9497 92.148 72.2244 92.148 72.2244Z" fill="#FFB294"/>
<path d="M53.7707 85.3293C53.7269 85.3373 53.6802 85.3309 53.638 85.3081C53.5395 85.2547 53.503 85.1315 53.5564 85.033L55.6206 81.2258C60.1597 74.211 59.214 70.3577 59.2039 70.3196C58.4239 67.0927 57.0005 65.4435 55.9435 64.6273C54.8027 63.7464 53.8311 63.6195 53.8215 63.6183C53.7104 63.6048 53.631 63.5039 53.6443 63.3928C53.6576 63.2817 53.7579 63.2024 53.8691 63.2152C53.9123 63.2202 54.9416 63.3496 56.1676 64.2876C57.2847 65.1422 58.7865 66.865 59.5972 70.2193C59.6396 70.3757 60.6126 74.2548 55.9656 81.4394L53.9131 85.2262C53.8825 85.2826 53.8292 85.3188 53.7707 85.3293Z" fill="#010103"/>
<path d="M54.588 65.2905C54.9992 65.4657 55.4287 66.0357 55.412 66.5039L55.4562 66.3698C55.6495 65.7829 55.2116 65.017 54.6958 64.7972C53.8719 64.446 53.0752 64.2187 52.3566 64.0723C52.2409 64.2041 52.1395 64.3561 52.0492 64.5263C52.8184 64.6704 53.687 64.9064 54.588 65.2905Z" fill="#FCB6A9"/>
<path d="M44.9305 119.752C44.8679 119.763 44.8012 119.742 44.7565 119.691C43.2549 117.958 42.7991 114.334 42.7804 114.18C42.768 114.078 42.8407 113.986 42.9426 113.973C43.0446 113.961 43.1374 114.033 43.1498 114.135C43.1543 114.172 43.6108 117.8 45.0378 119.447C45.1051 119.525 45.0967 119.642 45.0191 119.709C44.993 119.732 44.9622 119.746 44.9305 119.752Z" fill="#010103"/>
<path d="M47.3929 120.488C47.344 120.497 47.2917 120.486 47.2487 120.454C45.4085 119.086 44.1815 115.646 44.1302 115.5C44.096 115.403 44.147 115.297 44.2439 115.263C44.341 115.228 44.4472 115.28 44.4813 115.376C44.4934 115.411 45.722 118.856 47.4708 120.156C47.5532 120.217 47.5704 120.334 47.509 120.416C47.4797 120.456 47.4378 120.48 47.3929 120.488Z" fill="#010103"/>
<path d="M91.6684 28.0332C91.6647 28.0068 91.6605 27.9807 91.6556 27.9547C91.5041 27.0733 90.7158 26.4439 89.8227 26.4902C89.7963 26.4912 89.7698 26.4928 89.7432 26.495C89.7344 26.4959 89.7258 26.4956 89.717 26.4966L50.5269 30.8679C50.5181 30.8689 50.5098 30.871 50.501 30.8721C50.4746 30.8759 50.4484 30.8801 50.4224 30.8849C49.541 31.0364 48.9108 31.8241 48.9572 32.7172C48.9581 32.7436 48.9598 32.77 48.962 32.7966C48.9628 32.8055 48.9626 32.8141 48.9635 32.8229L58.0525 114.308C58.147 115.156 58.9108 115.766 59.7576 115.671L99.3986 111.25C100.245 111.155 100.856 110.392 100.761 109.544L91.6726 28.0591C91.6716 28.0504 91.6695 28.0419 91.6684 28.0332Z" fill="white"/>
<path d="M48.231 32.3941L51.1915 29.8419L89.3876 25.6812L93.0656 28.2535C93.0656 28.2535 93.1224 31.6981 92.9182 31.7735C92.7141 31.8488 48.4478 37.3079 48.3735 36.6259C48.2991 35.9438 48.231 32.3941 48.231 32.3941Z" fill="#0066A5"/>
<path d="M56.0052 96.2637L58.0524 114.308C58.1469 115.156 58.9107 115.765 59.7575 115.671L99.3985 111.249C100.245 111.155 100.856 110.392 100.761 109.544L98.7265 91.6099L56.0052 96.2637Z" fill="#0066A5"/>
<g opacity="0.5">
<path d="M52.5281 33.7476C52.5548 33.987 52.4353 34.2089 52.2404 34.3238C52.1708 34.3653 52.0907 34.3933 52.0043 34.4029C51.9188 34.4124 51.8353 34.4028 51.7575 34.3777C51.5421 34.3093 51.3758 34.1186 51.3491 33.8792C51.3128 33.5535 51.5479 33.2601 51.8728 33.2239C52.1987 33.1876 52.4918 33.422 52.5281 33.7476Z" fill="white"/>
<path d="M54.3521 33.544C54.3788 33.7834 54.2592 34.0053 54.0643 34.1202C53.9947 34.1617 53.9146 34.1897 53.8283 34.1993C53.742 34.2089 53.6577 34.1994 53.5807 34.1741C53.3653 34.105 53.1998 33.9149 53.1731 33.6756C53.1368 33.3499 53.3712 33.0566 53.6968 33.0203C54.0226 32.984 54.3157 33.2184 54.3521 33.544Z" fill="white"/>
<path d="M56.1759 33.3408C56.2026 33.5802 56.083 33.8021 55.8881 33.9171C55.8185 33.9586 55.7384 33.9866 55.6521 33.9962C55.5658 34.0058 55.4814 33.9962 55.4044 33.9711C55.189 33.902 55.0235 33.7118 54.9968 33.4725C54.9605 33.1468 55.1949 32.8535 55.5205 32.8172C55.8463 32.7807 56.1396 33.0151 56.1759 33.3408Z" fill="white"/>
</g>
<path d="M100.667 108.701C100.814 110.014 99.8677 111.197 98.5551 111.344L60.602 115.577C59.2887 115.723 58.1049 114.778 57.9584 113.465L49.0633 33.7168C48.8998 32.2512 49.9554 30.9315 51.4201 30.7681L88.8236 26.5961C90.2884 26.4327 91.6088 27.4874 91.7723 28.953L100.667 108.701ZM88.7047 24.8191L51.1448 29.0085C48.7282 29.278 46.9869 31.4558 47.2565 33.8732L56.2431 114.442C56.5128 116.859 58.6912 118.6 61.1078 118.33L98.6676 114.141C101.085 113.871 102.826 111.693 102.556 109.276L93.5694 28.7075C93.2997 26.2899 91.1221 24.5493 88.7047 24.8191Z" fill="#20111D"/>
<g opacity="0.5">
<path d="M94.7171 79.8234L57.2398 83.9062L57.3556 84.9687L94.8328 80.8858L94.7171 79.8234Z" fill="#0066A5"/>
</g>
<g opacity="0.5">
<path d="M95.1066 83.401L57.6293 87.4839L57.7451 88.5463L95.2224 84.4634L95.1066 83.401Z" fill="#0066A5"/>
</g>
<g opacity="0.5">
<path d="M95.4965 86.9786L58.0192 91.0615L58.135 92.1239L95.6122 88.0411L95.4965 86.9786Z" fill="#0066A5"/>
</g>
<path d="M89.6189 55.7457C90.0667 57.9925 90.0511 60.2238 89.6381 62.3406C89.6276 62.3902 89.6179 62.4397 89.6083 62.4892C89.6061 62.4998 89.6041 62.5104 89.6017 62.5202C89.1982 64.4755 88.4561 66.3293 87.4271 68.0043C87.3961 68.0538 87.3652 68.1032 87.3342 68.1519C87.3015 68.2051 87.2684 68.2567 87.234 68.3095C84.8207 72.0596 80.9471 74.8644 76.2265 75.805C73.6464 76.3191 71.0864 76.2222 68.6963 75.6141C68.249 75.5003 67.8076 75.3684 67.3735 75.2188C67.2997 75.1936 67.2258 75.1685 67.1525 75.1415C66.9542 75.0706 66.7576 74.996 66.562 74.9178C66.4945 74.8905 66.4279 74.863 66.3613 74.8355C64.9956 74.2678 63.7107 73.5253 62.539 72.6311C62.1134 72.3066 61.7035 71.9628 61.3101 71.5989C60.4565 70.8094 59.6793 69.9309 58.9978 68.9739C57.6401 67.0697 56.6544 64.8546 56.1676 62.4118C54.3268 53.1747 60.3231 44.1939 69.5601 42.3532C78.7982 40.5121 87.7782 46.5085 89.6189 55.7457Z" fill="#0066A5"/>
<path d="M66.0523 52.4286C66.0523 52.4286 64.1867 49.7389 67.0712 46.6313C69.9556 43.5237 71.3078 47.5985 72.6844 47.7368C74.061 47.8752 76.3232 46.9544 77.66 49.221C78.9968 51.4875 78.8449 53.367 80.2886 53.487C81.7322 53.607 86.8923 56.2387 86.5897 61.0256C86.2871 65.8124 81.7925 66.3985 81.7925 66.3985C81.7925 66.3985 64.4689 70.4126 62.4388 66.0917C60.4086 61.7708 61.7286 59.4894 63.6575 57.5408C64.8427 56.3432 67.4329 55.0484 66.0523 52.4286Z" fill="#010103"/>
<path d="M68.1275 53.5113C68.1275 53.5113 67.8194 59.9997 69.0365 61.3085C69.0365 61.3085 69.6382 62.0098 70.8977 61.9059L71.3008 65.9059L76.9454 65.337L75.6228 52.2139L68.1275 53.5113Z" fill="#FFB294"/>
<path d="M70.4773 58.3446C70.501 58.3422 70.5207 58.3236 70.5234 58.2988C70.5265 58.2705 70.5061 58.245 70.4778 58.2417C70.1394 58.2041 69.8896 57.8174 69.816 57.6902C70.2612 57.3916 70.5152 57.0362 70.5714 56.633C70.663 55.9758 70.1979 55.4366 70.178 55.4141C70.1593 55.3927 70.1266 55.3905 70.1051 55.4092C70.0836 55.428 70.0814 55.4607 70.1003 55.4822C70.1048 55.4874 70.5542 56.0095 70.4688 56.6193C70.415 57.0033 70.163 57.3432 69.7197 57.6299L69.6806 57.6551L69.7015 57.6966C69.7138 57.7209 70.0079 58.2935 70.4663 58.3445C70.4701 58.3449 70.4737 58.345 70.4773 58.3446Z" fill="#FF000D"/>
<path d="M71.0598 63.5146L70.8977 61.9057C70.8977 61.9057 73.6016 61.4715 75.1641 60.252C75.1641 60.252 73.1189 62.6578 71.0598 63.5146Z" fill="#FF000D"/>
<path d="M73.3554 55.3154C73.3811 55.3129 73.4058 55.3007 73.4238 55.2795C73.4608 55.236 73.4556 55.1708 73.4121 55.1338C73.3975 55.1217 71.9435 53.9062 70.836 54.9987C70.7953 55.0387 70.7948 55.1042 70.8349 55.1448C70.875 55.1855 70.9405 55.186 70.9811 55.1458C71.9535 54.1872 73.2244 55.2457 73.278 55.2913C73.3004 55.3102 73.3285 55.3182 73.3554 55.3154Z" fill="#2F0E1B"/>
<path d="M69.758 55.4512C69.7869 55.4484 69.8142 55.4334 69.8322 55.4078C69.8651 55.3612 69.8539 55.2968 69.8073 55.2639C69.7653 55.2343 68.7705 54.5432 68.2402 55.1C68.2009 55.1413 68.2025 55.2066 68.2437 55.246C68.285 55.2856 68.3505 55.2841 68.3898 55.2425C68.7975 54.8152 69.6793 55.4267 69.6881 55.4329C69.7093 55.4478 69.7342 55.4536 69.758 55.4512Z" fill="#2F0E1B"/>
<path d="M68.6614 56.3672C68.6773 56.5254 68.8186 56.6407 68.9768 56.6247C69.135 56.6088 69.2503 56.4676 69.2344 56.3094C69.2184 56.1512 69.0773 56.0359 68.9191 56.0518C68.7608 56.0679 68.6455 56.209 68.6614 56.3672Z" fill="#010103"/>
<path d="M71.5054 56.0365C71.5213 56.1948 71.6625 56.3101 71.8208 56.2942C71.979 56.2783 72.0943 56.137 72.0784 55.9788C72.0624 55.8206 71.9213 55.7053 71.7631 55.7212C71.6048 55.7371 71.4894 55.8783 71.5054 56.0365Z" fill="#010103"/>
<path d="M74.9658 56.9701C75.0553 57.8572 75.8468 58.5039 76.7339 58.4145C77.621 58.3251 78.2676 57.5335 78.1782 56.6464C78.0888 55.7594 77.2973 55.1128 76.4101 55.2021C75.5231 55.2916 74.8764 56.0832 74.9658 56.9701Z" fill="#FFB294"/>
<path d="M76.7907 57.7876C77.1279 57.7536 77.3275 57.4777 77.3761 57.217C77.4336 56.9087 77.3037 56.6278 77.045 56.5013C76.6768 56.3212 76.3744 56.4788 76.2139 56.6036C76.2657 56.4257 76.3584 56.29 76.4905 56.1992C76.7877 55.9949 77.1887 56.0818 77.1928 56.0828C77.2207 56.089 77.2482 56.0714 77.2545 56.0437C77.2608 56.0158 77.2433 55.9882 77.2154 55.9818C77.1972 55.9776 76.766 55.8841 76.4318 56.1139C76.2387 56.2467 76.1197 56.459 76.0781 56.7451L76.0514 56.9286L76.1693 56.7854C76.1835 56.7679 76.5252 56.3621 76.9996 56.5943C77.2618 56.7225 77.3115 56.9997 77.2745 57.1982C77.2358 57.4064 77.0812 57.658 76.7723 57.6855C76.7443 57.6875 76.7228 57.7129 76.7252 57.7414C76.7276 57.7699 76.7527 57.7909 76.7811 57.7884C76.7844 57.7882 76.7876 57.788 76.7907 57.7876Z" fill="#FF000D"/>
<path d="M68.1275 53.5113C68.1275 53.5113 68.3669 50.9899 71.6472 50.3843C74.9275 49.7788 75.6228 52.2139 75.6228 52.2139L71.9253 53.36L68.3693 53.4694L68.1275 53.5113Z" fill="#FFB294"/>
<path d="M67.9165 51.417C67.9165 51.417 70.1766 53.2239 72.8004 52.4982C72.8004 52.4982 74.0197 55.6694 75.9363 55.3242C77.853 54.979 76.3463 50.5673 76.3463 50.5673C76.3463 50.5673 72.5866 49.4603 72.358 49.4833C72.1295 49.5063 68.2753 49.6639 68.2753 49.6639L67.9165 51.417Z" fill="#010103"/>
<path d="M70.0414 59.1074C70.0693 59.0933 71.9234 58.521 71.9234 58.521C71.9234 58.521 71.9077 59.3594 71.2191 59.5738C70.5305 59.7884 70.0414 59.1074 70.0414 59.1074Z" fill="#FBFDFA"/>
<path d="M86.8892 62.0321C87.7935 62.0361 88.7127 62.1918 89.6083 62.4888C89.6061 62.4994 89.6041 62.51 89.6017 62.5198C89.1982 64.4751 88.4561 66.329 87.427 68.004C87.3961 68.0534 87.3652 68.1029 87.3342 68.1516C87.3015 68.2048 87.2684 68.2564 87.234 68.3091C84.8207 72.0593 80.9471 74.864 76.2265 75.8047C73.6464 76.3188 71.0864 76.2218 68.6963 75.6138C68.249 75.5 67.8076 75.368 67.3735 75.2185C67.2997 75.1932 67.2258 75.1681 67.1525 75.1411C66.9542 75.0703 66.7576 74.9957 66.562 74.9174C66.4945 74.8902 66.4279 74.8627 66.3613 74.8352C64.9956 74.2675 63.7107 73.5249 62.539 72.6308C62.1134 72.3063 61.7035 71.9625 61.31 71.5986C60.4565 70.809 59.6793 69.9305 58.9978 68.9736C59.7145 68.2576 61.2547 67.5243 63.0442 66.8527C64.4331 66.3313 65.972 65.8464 67.394 65.4356C68.875 65.0062 70.2288 64.6575 71.1512 64.4287C71.9152 64.24 72.3832 64.134 72.3832 64.134C72.3832 64.134 74.2757 63.7662 76.7439 63.3389C77.8578 63.1458 79.0898 62.941 80.318 62.7506C80.3221 62.7498 80.3246 62.7501 80.3263 62.7498L80.3271 62.7496C81.2679 62.6045 82.2056 62.4695 83.0873 62.3557C84.3921 62.1883 85.5724 62.0685 86.453 62.0391C86.523 62.0361 86.5905 62.0347 86.6557 62.0335C86.6633 62.0329 86.6709 62.033 86.6777 62.0334C86.731 62.0321 86.7826 62.0311 86.8327 62.0313C86.8516 62.031 86.8704 62.0315 86.8892 62.0321Z" fill="#F7597F"/>
<path d="M89.6382 62.3401C89.6277 62.3898 89.618 62.4392 89.6084 62.4887C89.6062 62.4993 89.6042 62.5099 89.6018 62.5197C89.2563 62.4179 88.9096 62.3443 88.5659 62.3025C87.9689 62.2304 87.2501 62.2021 86.412 62.2197C85.4803 62.2398 84.4042 62.3158 83.189 62.4476C83.139 62.4524 83.0936 62.4165 83.0878 62.3658C83.0871 62.3625 83.0873 62.3592 83.0875 62.3557C83.0875 62.309 83.1228 62.2689 83.1696 62.2646C84.4089 62.1307 85.5062 62.0547 86.4536 62.0365C86.522 62.0348 86.5898 62.0341 86.656 62.0336C86.6635 62.033 86.6712 62.0331 86.678 62.0335C86.7499 62.0319 86.8205 62.0323 86.8892 62.0322C87.5336 62.032 88.1008 62.0617 88.5881 62.1208C88.9364 62.1633 89.2873 62.2369 89.6382 62.3401Z" fill="#010103"/>
<path d="M67.3933 65.4351C67.3933 65.4351 75.0213 70.5108 80.3276 62.7495C80.3276 62.7495 72.6264 63.4037 67.3933 65.4351Z" fill="#FFB294"/>
<path d="M86.0349 97.8195C85.9816 97.8253 69.1629 99.7094 69.1194 99.7156L69.114 99.7162V99.7163C66.9653 100.023 65.4316 101.981 65.6685 104.156C65.9103 106.376 67.9061 107.98 70.1263 107.738C70.1818 107.732 70.2367 107.724 70.2915 107.715L86.7752 105.871C86.8203 105.867 86.8655 105.864 86.9108 105.859C89.1309 105.618 90.7347 103.622 90.4928 101.402C90.251 99.1815 88.2551 97.5777 86.0349 97.8195Z" fill="#0066A5"/>
<path d="M52.96 85.6255L55.7677 110.18L38.2918 118.773C38.2918 118.773 35.1864 99.0692 36.4798 95.5946C37.7732 92.1198 40.8705 85.439 41.5516 81.689C42.2328 77.9389 46.2646 75.169 49.2597 71.6801C52.2548 68.1912 50.6427 63.0429 54.1336 63.5443C57.6244 64.0456 61.3101 70.6319 58.6329 75.8765C55.9557 81.1214 52.96 85.6255 52.96 85.6255Z" fill="#FFB294"/>
<path d="M38.492 119.879C38.49 119.879 38.4881 119.879 38.486 119.88C38.3752 119.896 38.2719 119.82 38.2552 119.709C38.2425 119.625 36.9823 111.24 36.2124 103.656C35.5337 96.9715 36.2433 95.3424 37.4188 92.6433C37.6 92.2273 37.7874 91.7971 37.9836 91.3158C38.7325 89.4784 39.4003 87.3458 40.0461 85.2834C40.6465 83.366 41.2137 81.555 41.7727 80.2372C42.9216 77.5297 48.3631 72.5008 48.5942 72.288C48.6767 72.2121 48.805 72.2174 48.8809 72.2998C48.9568 72.3822 48.9515 72.5106 48.8691 72.5865C48.8132 72.638 43.2611 77.7686 42.1464 80.3957C41.595 81.6952 41.0308 83.497 40.4335 85.4047C39.7852 87.4751 39.1148 89.6159 38.3595 91.469C38.1615 91.9548 37.9732 92.3872 37.791 92.8054C36.6419 95.4437 35.9483 97.0362 36.6162 103.615C37.3852 111.189 38.6439 119.565 38.6566 119.649C38.6728 119.757 38.5995 119.859 38.492 119.879Z" fill="#010103"/>
<path d="M54.7043 64.8791C53.8769 64.5264 53.0728 64.279 52.3278 64.1055C51.2897 65.3443 51.4497 68.2921 49.9192 70.7733C49.9195 70.7733 49.9204 70.7735 49.9204 70.7735C49.9204 70.7735 51.2987 71.219 52.5765 70.9876C53.8543 70.7563 54.1989 70.1941 54.1989 70.1941L55.3847 66.595C55.6148 65.8965 55.3181 65.1406 54.7043 64.8791Z" fill="#F78A5E"/>
<path d="M48.0062 81.0527C47.9681 81.0595 47.9278 81.0557 47.8896 81.0391C46.0641 80.2481 43.6855 80.1027 43.6618 80.1013C43.5499 80.0948 43.4644 79.9989 43.4709 79.8871C43.4773 79.7752 43.5736 79.6896 43.6851 79.6962C43.7853 79.7019 46.1601 79.8474 48.051 80.6667C48.1538 80.7113 48.201 80.8309 48.1565 80.9336C48.1284 80.9983 48.0707 81.041 48.0062 81.0527Z" fill="#010103"/>
<path d="M47.054 82.6274C47.0159 82.6343 46.9756 82.6305 46.9374 82.6139C45.1119 81.8229 42.7333 81.6774 42.7095 81.6761C42.5977 81.6696 42.5122 81.5737 42.5186 81.4617C42.5251 81.3499 42.6215 81.2648 42.7329 81.2708C42.8331 81.2766 45.2079 81.4221 47.0987 82.2415C47.2016 82.2861 47.2488 82.4056 47.2042 82.5084C47.1763 82.573 47.1186 82.6156 47.054 82.6274Z" fill="#010103"/>
<path d="M130.061 66.856L89.8493 71.2363C89.0386 71.3247 88.4531 72.0534 88.5414 72.8641L90.2787 88.8126C90.3671 89.6234 91.0958 90.2089 91.9064 90.1206L97.0927 89.5556L95.6556 95.2651L103.392 88.8695L132.118 85.7402C132.929 85.6519 133.515 84.9231 133.426 84.1125L131.689 68.164C131.601 67.3533 130.872 66.7677 130.061 66.856Z" fill="#FF000D"/>
<path d="M101.932 74.6511C101.932 75.0164 101.835 75.2911 101.64 75.4751C101.445 75.6564 101.168 75.7471 100.808 75.7471C100.44 75.7471 100.152 75.6604 99.9439 75.4871C99.7386 75.3111 99.6359 75.0324 99.6359 74.6511V72.8271H100.016V74.6511C100.016 74.9071 100.084 75.1018 100.22 75.2351C100.356 75.3658 100.552 75.4311 100.808 75.4311C101.051 75.4311 101.235 75.3658 101.36 75.2351C101.488 75.1018 101.552 74.9071 101.552 74.6511V72.8271H101.932V74.6511ZM102.775 72.8271H103.179L104.683 75.1431H104.691V72.8271H105.051V75.6831H104.635L103.143 73.3911H103.135V75.6831H102.775V72.8271ZM105.905 72.8271H107.877V73.1471H106.285V74.0551H107.769V74.3751H106.285V75.3631H107.889V75.6831H105.905V72.8271ZM108.587 72.8271H108.991L110.495 75.1431H110.503V72.8271H110.863V75.6831H110.447L108.955 73.3911H108.947V75.6831H108.587V72.8271ZM111.717 72.8271H113.061C113.333 72.8271 113.545 72.8938 113.697 73.0271C113.852 73.1604 113.929 73.3431 113.929 73.5751C113.929 73.7484 113.889 73.9004 113.809 74.0311C113.732 74.1618 113.607 74.2511 113.433 74.2991V74.3071C113.516 74.3231 113.583 74.3498 113.633 74.3871C113.687 74.4244 113.728 74.4698 113.757 74.5231C113.789 74.5738 113.812 74.6311 113.825 74.6951C113.841 74.7591 113.853 74.8258 113.861 74.8951C113.867 74.9644 113.871 75.0351 113.873 75.1071C113.876 75.1791 113.883 75.2498 113.893 75.3191C113.904 75.3884 113.919 75.4551 113.937 75.5191C113.959 75.5804 113.989 75.6351 114.029 75.6831H113.605C113.579 75.6538 113.56 75.6138 113.549 75.5631C113.541 75.5124 113.536 75.4564 113.533 75.3951C113.531 75.3311 113.528 75.2631 113.525 75.1911C113.523 75.1191 113.515 75.0484 113.501 74.9791C113.491 74.9098 113.477 74.8444 113.461 74.7831C113.445 74.7191 113.42 74.6644 113.385 74.6191C113.351 74.5711 113.305 74.5338 113.249 74.5071C113.193 74.4778 113.119 74.4631 113.025 74.4631H112.097V75.6831H111.717V72.8271ZM112.889 74.1431C112.977 74.1431 113.061 74.1364 113.141 74.1231C113.221 74.1098 113.291 74.0844 113.349 74.0471C113.411 74.0071 113.459 73.9551 113.493 73.8911C113.531 73.8244 113.549 73.7391 113.549 73.6351C113.549 73.4911 113.509 73.3738 113.429 73.2831C113.349 73.1924 113.22 73.1471 113.041 73.1471H112.097V74.1431H112.889ZM114.916 74.2551C114.916 74.3991 114.934 74.5418 114.972 74.6831C115.009 74.8218 115.068 74.9471 115.148 75.0591C115.228 75.1711 115.33 75.2618 115.456 75.3311C115.581 75.3978 115.73 75.4311 115.904 75.4311C116.077 75.4311 116.226 75.3978 116.352 75.3311C116.477 75.2618 116.58 75.1711 116.66 75.0591C116.74 74.9471 116.798 74.8218 116.836 74.6831C116.873 74.5418 116.892 74.3991 116.892 74.2551C116.892 74.1111 116.873 73.9698 116.836 73.8311C116.798 73.6898 116.74 73.5631 116.66 73.4511C116.58 73.3391 116.477 73.2498 116.352 73.1831C116.226 73.1138 116.077 73.0791 115.904 73.0791C115.73 73.0791 115.581 73.1138 115.456 73.1831C115.33 73.2498 115.228 73.3391 115.148 73.4511C115.068 73.5631 115.009 73.6898 114.972 73.8311C114.934 73.9698 114.916 74.1111 114.916 74.2551ZM114.536 74.2551C114.536 74.0604 114.564 73.8738 114.62 73.6951C114.678 73.5138 114.765 73.3538 114.88 73.2151C114.994 73.0764 115.137 72.9658 115.308 72.8831C115.478 72.8004 115.677 72.7591 115.904 72.7591C116.13 72.7591 116.329 72.8004 116.5 72.8831C116.67 72.9658 116.813 73.0764 116.928 73.2151C117.042 73.3538 117.128 73.5138 117.184 73.6951C117.242 73.8738 117.272 74.0604 117.272 74.2551C117.272 74.4498 117.242 74.6378 117.184 74.8191C117.128 74.9978 117.042 75.1564 116.928 75.2951C116.813 75.4338 116.67 75.5444 116.5 75.6271C116.329 75.7071 116.13 75.7471 115.904 75.7471C115.677 75.7471 115.478 75.7071 115.308 75.6271C115.137 75.5444 114.994 75.4338 114.88 75.2951C114.765 75.1564 114.678 74.9978 114.62 74.8191C114.564 74.6378 114.536 74.4498 114.536 74.2551ZM117.975 72.8271H118.355V75.3631H119.867V75.6831H117.975V72.8271ZM120.437 72.8271H120.817V75.3631H122.329V75.6831H120.437V72.8271ZM95.0921 82.5151V83.6831H94.7121V82.5151L93.6081 80.8271H94.0601L94.9161 82.1871L95.7521 80.8271H96.1841L95.0921 82.5151ZM96.9659 82.2551C96.9659 82.3991 96.9845 82.5418 97.0219 82.6831C97.0592 82.8218 97.1179 82.9471 97.1979 83.0591C97.2779 83.1711 97.3805 83.2618 97.5059 83.3311C97.6312 83.3978 97.7805 83.4311 97.9539 83.4311C98.1272 83.4311 98.2765 83.3978 98.4019 83.3311C98.5272 83.2618 98.6299 83.1711 98.7099 83.0591C98.7899 82.9471 98.8485 82.8218 98.8859 82.6831C98.9232 82.5418 98.9419 82.3991 98.9419 82.2551C98.9419 82.1111 98.9232 81.9698 98.8859 81.8311C98.8485 81.6898 98.7899 81.5631 98.7099 81.4511C98.6299 81.3391 98.5272 81.2498 98.4019 81.1831C98.2765 81.1138 98.1272 81.0791 97.9539 81.0791C97.7805 81.0791 97.6312 81.1138 97.5059 81.1831C97.3805 81.2498 97.2779 81.3391 97.1979 81.4511C97.1179 81.5631 97.0592 81.6898 97.0219 81.8311C96.9845 81.9698 96.9659 82.1111 96.9659 82.2551ZM96.5859 82.2551C96.5859 82.0604 96.6139 81.8738 96.6699 81.6951C96.7285 81.5138 96.8152 81.3538 96.9299 81.2151C97.0445 81.0764 97.1872 80.9658 97.3579 80.8831C97.5285 80.8004 97.7272 80.7591 97.9539 80.7591C98.1805 80.7591 98.3792 80.8004 98.5499 80.8831C98.7205 80.9658 98.8632 81.0764 98.9779 81.2151C99.0925 81.3538 99.1779 81.5138 99.2339 81.6951C99.2925 81.8738 99.3219 82.0604 99.3219 82.2551C99.3219 82.4498 99.2925 82.6378 99.2339 82.8191C99.1779 82.9978 99.0925 83.1564 98.9779 83.2951C98.8632 83.4338 98.7205 83.5444 98.5499 83.6271C98.3792 83.7071 98.1805 83.7471 97.9539 83.7471C97.7272 83.7471 97.5285 83.7071 97.3579 83.6271C97.1872 83.5444 97.0445 83.4338 96.9299 83.2951C96.8152 83.1564 96.7285 82.9978 96.6699 82.8191C96.6139 82.6378 96.5859 82.4498 96.5859 82.2551ZM102.305 82.6511C102.305 83.0164 102.208 83.2911 102.013 83.4751C101.818 83.6564 101.541 83.7471 101.181 83.7471C100.813 83.7471 100.525 83.6604 100.317 83.4871C100.112 83.3111 100.009 83.0324 100.009 82.6511V80.8271H100.389V82.6511C100.389 82.9071 100.457 83.1018 100.593 83.2351C100.729 83.3658 100.925 83.4311 101.181 83.4311C101.424 83.4311 101.608 83.3658 101.733 83.2351C101.861 83.1018 101.925 82.9071 101.925 82.6511V80.8271H102.305V82.6511ZM103.152 80.8271H104.496C104.768 80.8271 104.98 80.8938 105.132 81.0271C105.286 81.1604 105.364 81.3431 105.364 81.5751C105.364 81.7484 105.324 81.9004 105.244 82.0311C105.166 82.1618 105.041 82.2511 104.868 82.2991V82.3071C104.95 82.3231 105.017 82.3498 105.068 82.3871C105.121 82.4244 105.162 82.4698 105.192 82.5231C105.224 82.5738 105.246 82.6311 105.26 82.6951C105.276 82.7591 105.288 82.8258 105.296 82.8951C105.301 82.9644 105.305 83.0351 105.308 83.1071C105.31 83.1791 105.317 83.2498 105.328 83.3191C105.338 83.3884 105.353 83.4551 105.372 83.5191C105.393 83.5804 105.424 83.6351 105.464 83.6831H105.04C105.013 83.6538 104.994 83.6138 104.984 83.5631C104.976 83.5124 104.97 83.4564 104.968 83.3951C104.965 83.3311 104.962 83.2631 104.96 83.1911C104.957 83.1191 104.949 83.0484 104.936 82.9791C104.925 82.9098 104.912 82.8444 104.896 82.7831C104.88 82.7191 104.854 82.6644 104.82 82.6191C104.785 82.5711 104.74 82.5338 104.684 82.5071C104.628 82.4778 104.553 82.4631 104.46 82.4631H103.532V83.6831H103.152V80.8271ZM104.324 82.1431C104.412 82.1431 104.496 82.1364 104.576 82.1231C104.656 82.1098 104.725 82.0844 104.784 82.0471C104.845 82.0071 104.893 81.9551 104.928 81.8911C104.965 81.8244 104.984 81.7391 104.984 81.6351C104.984 81.4911 104.944 81.3738 104.864 81.2831C104.784 81.1924 104.654 81.1471 104.476 81.1471H103.532V82.1431H104.324ZM107.975 82.5031H108.943L108.467 81.1711H108.459L107.975 82.5031ZM108.259 80.8271H108.679L109.795 83.6831H109.375L109.063 82.8231H107.855L107.535 83.6831H107.147L108.259 80.8271ZM112.325 81.6871C112.282 81.4844 112.188 81.3324 112.041 81.2311C111.897 81.1298 111.725 81.0791 111.525 81.0791C111.354 81.0791 111.208 81.1111 111.085 81.1751C110.965 81.2391 110.865 81.3258 110.785 81.4351C110.708 81.5418 110.65 81.6644 110.613 81.8031C110.576 81.9418 110.557 82.0858 110.557 82.2351C110.557 82.3978 110.576 82.5524 110.613 82.6991C110.65 82.8431 110.708 82.9698 110.785 83.0791C110.865 83.1858 110.966 83.2711 111.089 83.3351C111.212 83.3991 111.358 83.4311 111.529 83.4311C111.654 83.4311 111.765 83.4111 111.861 83.3711C111.96 83.3284 112.044 83.2711 112.113 83.1991C112.185 83.1244 112.241 83.0364 112.281 82.9351C112.321 82.8338 112.345 82.7244 112.353 82.6071H112.733C112.696 82.9671 112.572 83.2471 112.361 83.4471C112.15 83.6471 111.862 83.7471 111.497 83.7471C111.276 83.7471 111.082 83.7098 110.917 83.6351C110.752 83.5578 110.614 83.4524 110.505 83.3191C110.396 83.1858 110.313 83.0284 110.257 82.8471C110.204 82.6658 110.177 82.4711 110.177 82.2631C110.177 82.0551 110.206 81.8604 110.265 81.6791C110.324 81.4951 110.409 81.3351 110.521 81.1991C110.636 81.0631 110.777 80.9564 110.945 80.8791C111.116 80.7991 111.31 80.7591 111.529 80.7591C111.678 80.7591 111.82 80.7791 111.953 80.8191C112.086 80.8591 112.205 80.9178 112.309 80.9951C112.413 81.0724 112.5 81.1698 112.569 81.2871C112.638 81.4018 112.684 81.5351 112.705 81.6871H112.325ZM115.452 81.6871C115.409 81.4844 115.314 81.3324 115.168 81.2311C115.024 81.1298 114.852 81.0791 114.652 81.0791C114.481 81.0791 114.334 81.1111 114.212 81.1751C114.092 81.2391 113.992 81.3258 113.912 81.4351C113.834 81.5418 113.777 81.6644 113.74 81.8031C113.702 81.9418 113.684 82.0858 113.684 82.2351C113.684 82.3978 113.702 82.5524 113.74 82.6991C113.777 82.8431 113.834 82.9698 113.912 83.0791C113.992 83.1858 114.093 83.2711 114.216 83.3351C114.338 83.3991 114.485 83.4311 114.656 83.4311C114.781 83.4311 114.892 83.4111 114.988 83.3711C115.086 83.3284 115.17 83.2711 115.24 83.1991C115.312 83.1244 115.368 83.0364 115.408 82.9351C115.448 82.8338 115.472 82.7244 115.48 82.6071H115.86C115.822 82.9671 115.698 83.2471 115.488 83.4471C115.277 83.6471 114.989 83.7471 114.624 83.7471C114.402 83.7471 114.209 83.7098 114.044 83.6351C113.878 83.5578 113.741 83.4524 113.632 83.3191C113.522 83.1858 113.44 83.0284 113.384 82.8471C113.33 82.6658 113.304 82.4711 113.304 82.2631C113.304 82.0551 113.333 81.8604 113.392 81.6791C113.45 81.4951 113.536 81.3351 113.648 81.1991C113.762 81.0631 113.904 80.9564 114.072 80.8791C114.242 80.7991 114.437 80.7591 114.656 80.7591C114.805 80.7591 114.946 80.7791 115.08 80.8191C115.213 80.8591 115.332 80.9178 115.436 80.9951C115.54 81.0724 115.626 81.1698 115.696 81.2871C115.765 81.4018 115.81 81.5351 115.832 81.6871H115.452ZM116.79 82.2551C116.79 82.3991 116.809 82.5418 116.846 82.6831C116.884 82.8218 116.942 82.9471 117.022 83.0591C117.102 83.1711 117.205 83.2618 117.33 83.3311C117.456 83.3978 117.605 83.4311 117.778 83.4311C117.952 83.4311 118.101 83.3978 118.226 83.3311C118.352 83.2618 118.454 83.1711 118.534 83.0591C118.614 82.9471 118.673 82.8218 118.71 82.6831C118.748 82.5418 118.766 82.3991 118.766 82.2551C118.766 82.1111 118.748 81.9698 118.71 81.8311C118.673 81.6898 118.614 81.5631 118.534 81.4511C118.454 81.3391 118.352 81.2498 118.226 81.1831C118.101 81.1138 117.952 81.0791 117.778 81.0791C117.605 81.0791 117.456 81.1138 117.33 81.1831C117.205 81.2498 117.102 81.3391 117.022 81.4511C116.942 81.5631 116.884 81.6898 116.846 81.8311C116.809 81.9698 116.79 82.1111 116.79 82.2551ZM116.41 82.2551C116.41 82.0604 116.438 81.8738 116.494 81.6951C116.553 81.5138 116.64 81.3538 116.754 81.2151C116.869 81.0764 117.012 80.9658 117.182 80.8831C117.353 80.8004 117.552 80.7591 117.778 80.7591C118.005 80.7591 118.204 80.8004 118.374 80.8831C118.545 80.9658 118.688 81.0764 118.802 81.2151C118.917 81.3538 119.002 81.5138 119.058 81.6951C119.117 81.8738 119.146 82.0604 119.146 82.2551C119.146 82.4498 119.117 82.6378 119.058 82.8191C119.002 82.9978 118.917 83.1564 118.802 83.2951C118.688 83.4338 118.545 83.5444 118.374 83.6271C118.204 83.7071 118.005 83.7471 117.778 83.7471C117.552 83.7471 117.353 83.7071 117.182 83.6271C117.012 83.5444 116.869 83.4338 116.754 83.2951C116.64 83.1564 116.553 82.9978 116.494 82.8191C116.438 82.6378 116.41 82.4498 116.41 82.2551ZM122.129 82.6511C122.129 83.0164 122.032 83.2911 121.837 83.4751C121.643 83.6564 121.365 83.7471 121.005 83.7471C120.637 83.7471 120.349 83.6604 120.141 83.4871C119.936 83.3111 119.833 83.0324 119.833 82.6511V80.8271H120.213V82.6511C120.213 82.9071 120.281 83.1018 120.417 83.2351C120.553 83.3658 120.749 83.4311 121.005 83.4311C121.248 83.4311 121.432 83.3658 121.557 83.2351C121.685 83.1018 121.749 82.9071 121.749 82.6511V80.8271H122.129V82.6511ZM122.972 80.8271H123.376L124.88 83.1431H124.888V80.8271H125.248V83.6831H124.832L123.34 81.3911H123.332V83.6831H122.972V80.8271ZM126.751 81.1471H125.799V80.8271H128.083V81.1471H127.131V83.6831H126.751V81.1471Z" fill="white"/>
<path d="M71.6513 105.109C71.6975 105.563 71.6112 105.917 71.3924 106.171C71.1732 106.421 70.8398 106.569 70.3921 106.614C69.9344 106.661 69.5653 106.589 69.2847 106.4C69.0071 106.207 68.8442 105.873 68.796 105.399L68.5655 103.131L69.0381 103.083L69.2686 105.351C69.301 105.67 69.4101 105.903 69.5961 106.052C69.7818 106.197 70.0338 106.253 70.3521 106.221C70.6539 106.19 70.8745 106.086 71.0138 105.908C71.1561 105.726 71.2111 105.475 71.1788 105.157L70.9482 102.889L71.4208 102.841L71.6513 105.109ZM72.4688 102.734L72.9712 102.683L75.1343 105.373L75.1443 105.372L74.8515 102.492L75.2992 102.447L75.6602 105.998L75.1429 106.051L72.9977 103.389L72.9878 103.39L73.2775 106.24L72.8298 106.286L72.4688 102.734ZM76.3621 102.338L78.8145 102.089L78.855 102.487L76.8752 102.688L76.9899 103.818L78.8354 103.63L78.8759 104.028L77.0304 104.216L77.1552 105.444L79.15 105.241L79.1904 105.639L76.7231 105.89L76.3621 102.338ZM79.6966 102L80.199 101.949L82.3621 104.639L82.3721 104.638L82.0793 101.757L82.527 101.712L82.888 105.264L82.3707 105.316L80.2255 102.654L80.2156 102.655L80.5053 105.506L80.0576 105.551L79.6966 102ZM83.5899 101.604L85.2613 101.434C85.5996 101.4 85.8717 101.456 86.0775 101.602C86.2867 101.749 86.406 101.966 86.4353 102.255C86.4572 102.47 86.4267 102.664 86.3437 102.837C86.2641 103.009 86.1195 103.136 85.91 103.218L85.911 103.228C86.0158 103.237 86.1021 103.262 86.1698 103.302C86.2409 103.341 86.298 103.393 86.3412 103.455C86.3874 103.514 86.4229 103.583 86.4475 103.66C86.4755 103.738 86.4989 103.819 86.5176 103.905C86.533 103.99 86.5469 104.078 86.5593 104.167C86.5717 104.256 86.5889 104.343 86.611 104.428C86.633 104.513 86.6597 104.594 86.691 104.671C86.7253 104.745 86.7703 104.809 86.8261 104.863L86.2988 104.917C86.262 104.884 86.2337 104.836 86.214 104.775C86.1977 104.713 86.184 104.644 86.1729 104.568C86.1615 104.489 86.1496 104.404 86.1372 104.315C86.1247 104.226 86.1059 104.139 86.0805 104.055C86.0585 103.97 86.0336 103.89 86.006 103.816C85.978 103.738 85.9396 103.674 85.8908 103.622C85.8416 103.566 85.7805 103.526 85.7075 103.499C85.6341 103.47 85.5394 103.461 85.4233 103.473L84.2693 103.59L84.4235 105.108L83.9509 105.156L83.5899 101.604ZM85.2138 103.092C85.3232 103.081 85.4268 103.062 85.5246 103.036C85.6224 103.009 85.7054 102.969 85.7737 102.915C85.8449 102.857 85.898 102.787 85.933 102.703C85.971 102.615 85.9835 102.506 85.9703 102.377C85.9521 102.198 85.8876 102.057 85.7766 101.955C85.6657 101.852 85.4991 101.812 85.2769 101.834L84.103 101.954L84.2288 103.192L85.2138 103.092ZM87.7478 102.975C87.766 103.155 87.8072 103.33 87.8715 103.501C87.9355 103.668 88.0243 103.817 88.1379 103.946C88.2516 104.075 88.3907 104.175 88.5553 104.245C88.7196 104.312 88.9095 104.335 89.1251 104.313C89.3407 104.291 89.5222 104.231 89.6696 104.132C89.8167 104.03 89.9329 103.904 90.0182 103.755C90.1036 103.606 90.1607 103.442 90.1896 103.265C90.2182 103.085 90.2233 102.905 90.2051 102.726C90.1869 102.547 90.1459 102.373 90.0819 102.206C90.0176 102.034 89.9286 101.884 89.815 101.755C89.7014 101.626 89.5624 101.528 89.3981 101.461C89.2335 101.39 89.0434 101.366 88.8278 101.388C88.6123 101.41 88.4309 101.472 88.2838 101.574C88.1364 101.673 88.02 101.797 87.9347 101.946C87.8494 102.096 87.7924 102.261 87.7638 102.441C87.7349 102.618 87.7296 102.796 87.7478 102.975ZM87.2752 103.024C87.2506 102.781 87.2619 102.546 87.3089 102.316C87.3589 102.084 87.4465 101.874 87.5716 101.687C87.6966 101.5 87.8601 101.344 88.0619 101.22C88.2637 101.095 88.5055 101.019 88.7874 100.99C89.0693 100.962 89.3215 100.988 89.5442 101.069C89.7669 101.15 89.9583 101.27 90.1185 101.428C90.2786 101.586 90.4049 101.774 90.4975 101.992C90.593 102.207 90.6531 102.436 90.6777 102.678C90.7023 102.92 90.6896 103.157 90.6395 103.39C90.5925 103.619 90.5064 103.828 90.3814 104.015C90.2563 104.201 90.0928 104.357 89.8911 104.482C89.6889 104.603 89.4469 104.677 89.165 104.706C88.8832 104.735 88.631 104.71 88.4087 104.632C88.186 104.551 87.9946 104.431 87.8345 104.273C87.6743 104.115 87.5465 103.929 87.451 103.714C87.3584 103.496 87.2998 103.266 87.2752 103.024ZM91.3715 100.813L91.8441 100.765L92.1646 103.919L94.0449 103.728L94.0854 104.126L91.7325 104.365L91.3715 100.813ZM94.4341 100.502L94.9066 100.454L95.2272 103.607L97.1075 103.416L97.1479 103.814L94.7951 104.053L94.4341 100.502Z" fill="white"/>
<path d="M161.973 183.676H124.037C124.01 183.638 123.983 183.6 123.957 183.562C122.609 181.64 121.336 180.635 120.238 180.267C119.66 180.074 119.064 179.835 118.453 179.557C118.453 179.557 118.452 179.556 118.451 179.556C116.864 178.834 115.179 177.846 113.462 176.707C111.563 175.447 109.624 174.002 107.735 172.525C104.97 170.362 102.31 168.132 100.041 166.315C94.2803 161.7 94.5133 162.654 89.845 159.108C88.6892 158.23 86.9592 157.122 85.211 156.06C85.2093 156.059 85.2083 156.058 85.2065 156.057C85.202 156.054 85.1939 156.05 85.1831 156.043C82.8128 154.604 80.4136 153.25 79.3653 152.665C79.1946 152.57 79.0601 152.495 78.9671 152.444C78.9553 152.438 78.9454 152.432 78.9364 152.427C78.9319 152.424 78.9274 152.422 78.9237 152.42C78.9074 152.411 78.8975 152.405 78.8949 152.403C78.894 152.403 78.8921 152.403 78.8913 152.402C78.8443 152.375 78.8055 152.332 78.7928 152.28C78.4993 151.131 80.5987 148.853 80.5987 148.853C84.9456 145.016 97.112 151.593 97.112 151.593C97.112 151.593 106.58 157.804 108.777 154.502C108.777 154.502 108.777 154.502 108.777 154.501C108.798 154.47 108.819 154.438 108.838 154.405C110.915 150.888 104.141 136.295 104.141 136.295C104.141 136.295 88.2801 104.085 87.6932 103.183C86.0092 100.594 85.8819 96.9221 88.5338 95.5108C89.8603 94.8048 91.2445 95.1939 92.2973 95.7592C93.2472 96.2693 94.0427 97.0242 94.6405 97.9217L111.049 122.586C111.097 122.561 111.146 122.536 111.194 122.513C115.196 120.583 122.375 123.845 122.375 123.845H122.376C122.428 123.826 122.481 123.809 122.536 123.792C125.443 122.91 131.005 124.671 131.005 124.671C131.005 124.671 131.058 124.647 131.163 124.617C131.707 124.461 133.672 124.138 137.32 126.027C140.076 127.454 144.696 141.777 148.162 153.179C150.179 159.814 151.804 165.46 152.445 167.002C153.252 168.942 157.568 176.316 161.973 183.676Z" fill="#FFB294"/>
<path d="M85.2855 153.607C85.453 154.471 85.314 155.511 85.2114 156.06C85.2114 156.06 79.0162 152.468 78.8946 152.404C79.0018 152.053 79.187 151.745 79.3286 151.383C79.5733 150.759 80.2885 150.447 80.9835 150.64C81.0175 150.649 81.0509 150.659 81.084 150.671L84.433 151.866C84.433 151.866 85.02 152.239 85.2855 153.607Z" fill="#F78A5E"/>
<path d="M80.9936 150.624C80.9914 150.623 80.9893 150.623 80.9874 150.624C80.5054 150.606 79.9313 151.058 79.7601 151.494C79.6062 151.889 79.4718 152.295 79.3638 152.673C79.3638 152.673 78.9154 152.415 78.895 152.403C78.9949 152.067 79.1119 151.724 79.2488 151.375C79.4648 150.825 80.2453 150.364 80.8539 150.575L80.9936 150.624Z" fill="#FDC9BC"/>
<g opacity="0.5">
<path d="M92.3152 96.5501C92.3152 96.5501 95.1914 100.546 95.2075 101.454C95.2237 102.362 90.8319 104.711 89.9945 104.483C89.157 104.256 87.0916 99.1434 87.0049 98.7324C86.9182 98.3215 89.1522 94.8333 92.3152 96.5501Z" fill="#F78A5E"/>
<path d="M92.3151 96.5501C92.3151 96.5501 92.3687 96.6247 92.4593 96.7526C89.4626 95.7153 87.2581 98.7983 87.2219 99.3467C87.0991 99.0296 87.0201 98.8056 87.0047 98.7324C86.9181 98.3216 89.1522 94.8333 92.3151 96.5501Z" fill="#FDC9BC"/>
</g>
<path d="M108.209 157.107C108.25 157.056 109.218 155.796 109.377 151.919C109.57 147.208 103.506 134.649 103.248 134.116C103.099 133.817 88.4561 104.288 87.1095 101.683C85.849 99.2451 87.1938 97.0091 87.2909 96.8537C88.2672 95.7392 89.3229 95.1977 90.4289 95.2438C92.5106 95.3301 94.1137 97.4775 94.1298 97.4992L110.915 122.675L114.378 127.847L114.646 127.667L111.183 122.496L94.3942 97.3141C94.3213 97.2146 92.6816 95.0153 90.4441 94.9211C89.2318 94.87 88.0863 95.4517 87.0398 96.6503L87.0264 96.668C87.0103 96.6924 85.434 99.145 86.8227 101.831C88.168 104.434 102.81 133.961 102.958 134.258C103.02 134.387 109.244 147.275 109.054 151.906C108.901 155.655 107.965 156.895 107.956 156.907L108.209 157.107Z" fill="#1D1D1B"/>
<path d="M126.287 129.819L126.553 129.637L122.483 123.716L122.443 123.698C115.484 120.519 111.164 122.359 110.984 122.438L111.114 122.734C111.157 122.715 115.476 120.886 122.268 123.973L126.287 129.819Z" fill="#1D1D1B"/>
<path d="M134.518 130.216L134.787 130.036L131.113 124.541L131.069 124.522C127.013 122.796 122.391 123.677 122.344 123.686L122.407 124.003C122.452 123.994 126.947 123.14 130.898 124.8L134.518 130.216Z" fill="#1D1D1B"/>
<path d="M148.007 153.225L148.317 153.134C148.022 152.129 141.048 128.49 137.776 126.149C134.493 123.799 131.007 124.505 130.972 124.513L131.039 124.828C131.073 124.821 134.424 124.147 137.589 126.411C140.77 128.688 147.935 152.98 148.007 153.225Z" fill="#1D1D1B"/>
<path d="M124.346 183.676H123.97C123.153 182.501 121.972 181.17 120.51 180.537C119.881 180.265 119.188 179.934 118.453 179.557C118.453 179.557 118.452 179.556 118.451 179.556C116.9 178.763 115.165 177.768 113.462 176.707C111.324 175.373 109.237 173.934 107.634 172.651L107.735 172.525L107.836 172.399C111.351 175.211 117.198 178.661 120.623 180.234C122.239 180.976 123.506 182.446 124.346 183.676Z" fill="#1D1D1B"/>
</svg>
