<svg width="243" height="196" viewBox="0 0 243 196" fill="none" xmlns="http://www.w3.org/2000/svg">
<path d="M0.5 94.0434C0.5 61.3255 42.2864 -8.59003 101.722 0.872469C144.432 7.67219 126.694 54.892 205.907 72.4865C267.594 86.1878 249.907 173.813 163.283 178.567C67.182 183.839 0.5 155.379 0.5 94.0434Z" fill="#FFF2E7"/>
<path d="M205.874 116.346C178.329 138.886 196.888 177.572 207.741 173.997C217.432 170.805 193.993 120.056 159.368 124.063C102.354 130.662 86.2936 156.975 47.4433 146.685C8.32238 136.323 0.725323 92.9586 38.7038 68.2096C76.5498 43.5476 16.3603 1.35007 11.6242 14.9644C8.92256 22.7307 38.7984 41.7862 60.1181 23.6549C81.4378 5.52364 109.669 3.20136 127.401 36.1888C145.133 69.1762 181.314 49.6412 204.419 45.1065C227.525 40.5712 265.077 67.9018 205.874 116.346Z" fill="#FFF2E7" stroke="#014B5C" stroke-width="0.25" stroke-miterlimit="10"/>
<path d="M179.695 99.2902C201.979 99.2902 220.043 81.2563 220.043 59.0103C220.043 36.7644 201.979 18.7305 179.695 18.7305C157.412 18.7305 139.348 36.7644 139.348 59.0103C139.348 81.2563 157.412 99.2902 179.695 99.2902Z" fill="white"/>
<path d="M182.965 98.3254C205.248 98.3254 223.312 80.2915 223.312 58.0455C223.312 35.7995 205.248 17.7656 182.965 17.7656C160.681 17.7656 142.617 35.7995 142.617 58.0455C142.617 80.2915 160.681 98.3254 182.965 98.3254Z" fill="#F3F5F4"/>
<path d="M179.695 99.2902C201.979 99.2902 220.043 81.2563 220.043 59.0103C220.043 36.7644 201.979 18.7305 179.695 18.7305C157.412 18.7305 139.348 36.7644 139.348 59.0103C139.348 81.2563 157.412 99.2902 179.695 99.2902Z" stroke="#014B5C" stroke-width="0.25" stroke-miterlimit="10"/>
<mask id="mask0_5532_95529" style="mask-type:luminance" maskUnits="userSpaceOnUse" x="142" y="17" width="82" height="82">
<path d="M182.963 98.3254C205.246 98.3254 223.311 80.2915 223.311 58.0455C223.311 35.7995 205.246 17.7656 182.963 17.7656C160.679 17.7656 142.615 35.7995 142.615 58.0455C142.615 80.2915 160.679 98.3254 182.963 98.3254Z" fill="white"/>
</mask>
<g mask="url(#mask0_5532_95529)">
<path d="M172.591 99.2851H165.92L166.446 84.6836H172.262L172.591 99.2851Z" fill="#FFB5A8"/>
<path d="M168.74 59.9336L161.787 83.8706L164.176 86.2375L161.787 89.1154L174.448 90.5301L168.74 59.9336Z" fill="#FFB84F"/>
<path d="M172.591 99.8121H192.28L199.071 57.0126L188.146 56.3281L175.875 57.0126L168.74 59.9352L172.591 99.8121Z" fill="#FFB84F"/>
<path d="M179.201 63.393L188.147 56.3295L184.872 45.5078L175.369 46.7514L179.201 63.393Z" fill="#FFB5A8"/>
<path d="M177.324 55.2402L181.701 49.7893L175.369 46.75L177.324 55.2402Z" fill="#5F281C"/>
<path d="M168.936 40.9929C168.495 45.9699 170.136 52.0703 175.122 52.5098C180.107 52.9499 186.139 47.0298 186.579 42.0527C187.02 37.0757 188.861 28.8018 182.101 28.2049C172.275 27.3379 169.377 36.0153 168.936 40.9929Z" fill="#FFB5A8"/>
<path d="M177.967 36.5742C177.967 36.5742 178.189 38.2968 180.193 39.352" stroke="#422E2D" stroke-miterlimit="10"/>
<path d="M170.424 36.8769C170.424 36.8769 171.714 37.3021 172.81 36.5742" stroke="#422E2D" stroke-miterlimit="10"/>
<path d="M172.068 45.5078C172.068 45.5078 174.388 45.739 177.833 45.5078C177.833 45.5078 176.081 47.6555 173.485 47.4375C172.888 47.3871 172.068 45.5078 172.068 45.5078Z" fill="white"/>
<path d="M177.834 42.0524C178.222 42.0524 178.536 41.4854 178.536 40.786C178.536 40.0865 178.222 39.5195 177.834 39.5195C177.447 39.5195 177.133 40.0865 177.133 40.786C177.133 41.4854 177.447 42.0524 177.834 42.0524Z" fill="#422E2D"/>
<path d="M171.561 41.2712C171.949 41.2712 172.263 40.7041 172.263 40.0047C172.263 39.3053 171.949 38.7383 171.561 38.7383C171.174 38.7383 170.859 39.3053 170.859 40.0047C170.859 40.7041 171.174 41.2712 171.561 41.2712Z" fill="#422E2D"/>
<path d="M173.779 40.7891C173.779 40.7891 173.244 42.9105 170.742 42.7491C170.742 42.7491 173.908 46.7968 173.779 40.7891Z" fill="#9A2532"/>
<path d="M188.147 44.0817C194.34 36.6868 196.697 35.0902 188.147 29.1689C188.147 29.1689 187.311 23.5446 179.956 25.3553C168.619 28.1462 170.701 29.1689 170.334 35.3374C170.334 35.3374 176.446 36.1197 181.381 33.2412C181.381 33.2412 181.552 36.7074 183.582 38.4769L183.23 42.1852L188.147 44.0817Z" fill="#422E2D"/>
<path d="M188.146 29.1675C188.146 29.1675 188.892 27.6161 188.146 26" stroke="#422E2D" stroke-miterlimit="10"/>
<path d="M187.646 30.0215C187.646 30.0215 190.34 28.8243 190.564 27.5859" stroke="#422E2D" stroke-miterlimit="10"/>
<path d="M189.295 44.4596C190.024 42.5332 189.4 40.5129 187.901 39.947C186.402 39.3811 184.596 40.484 183.866 42.4104C183.136 44.3368 183.76 46.3572 185.259 46.923C186.758 47.4889 188.565 46.386 189.295 44.4596Z" fill="#FFB5A8"/>
<path d="M189.921 57.0143L187.646 51.2812L174.951 54.2319L178.535 65.0272L189.921 57.0143Z" fill="#FFB84F"/>
<path d="M175.369 55.4888L182.479 55.1094L175.875 57.0122L175.369 55.4888Z" fill="#FFD788"/>
<path d="M199.07 57.0117L200.686 88.6858L190.697 93.9158L189.92 57.0117H199.07Z" fill="#FFB84F"/>
<path d="M186.509 51.8143L183.182 50.779C182.788 50.656 182.568 50.2371 182.69 49.8434L185.343 41.3491C185.466 40.9554 185.885 40.7357 186.28 40.8581L189.607 41.8934C190.001 42.0164 190.221 42.4353 190.099 42.829L187.446 51.3232C187.323 51.7175 186.903 51.9373 186.509 51.8143Z" fill="#016B83"/>
<path d="M187.415 52.0968L183.92 51.0095C183.526 50.8864 183.306 50.4675 183.428 50.0738L186.081 41.5796C186.204 41.1859 186.624 40.9661 187.018 41.0886L190.513 42.1759C190.907 42.2989 191.127 42.7178 191.004 43.1116L188.352 51.6058C188.229 52.0001 187.81 52.2198 187.415 52.0968Z" fill="#E8DFCF"/>
<path d="M187.211 43.0518C187.502 43.0518 187.738 42.8164 187.738 42.5259C187.738 42.2355 187.502 42 187.211 42C186.92 42 186.684 42.2355 186.684 42.5259C186.684 42.8164 186.92 43.0518 187.211 43.0518Z" fill="#016B83"/>
<path d="M198.676 87.3341L189.069 51.6055L187.61 52.2664C187.61 52.2664 186.248 79.8745 192.479 90.4106L198.676 87.3341Z" fill="#FFB5A8"/>
<path d="M189.069 51.6025L191.922 45.3516C191.922 45.3516 184.41 47.1279 187.61 52.2634L189.069 51.6025Z" fill="#FFB5A8"/>
<path d="M191.922 45.3528L188.578 42.4336C188.578 42.4336 187.401 44.385 191.323 45.727L191.922 45.3528Z" fill="#FFB5A8"/>
<path d="M187.604 47.7795L189.503 46.5394L187.519 44.082C187.519 44.082 186.816 45.3542 188.624 46.6452L187.604 47.7795Z" fill="#FFB5A8"/>
<path d="M191.322 45.7267L187.797 42.9375C187.797 42.9375 186.78 44.7138 190.778 45.9465L191.322 45.7267Z" fill="#FFB5A8"/>
<path d="M172.589 99.8106L168.738 59.9336L174.949 99.8106H172.589Z" fill="#FFD788"/>
</g>
<path d="M100.516 165.918H68.4219V170.621H100.516V165.918Z" fill="#86593E"/>
<path d="M112.779 193.71H108.783L89.959 141.359H93.9556L112.779 193.71Z" fill="#B58E67"/>
<path d="M80.5469 193.71H84.5435L89.2491 141.359H85.2526L80.5469 193.71Z" fill="#B58E67"/>
<path d="M57.0176 193.71H61.0142L79.838 141.359H75.8414L57.0176 193.71Z" fill="#B58E67"/>
<path d="M95.2568 104.324H62.0775C61.3701 104.324 60.7969 104.896 60.7969 105.603V139.794C60.7969 140.918 61.7089 141.828 62.8341 141.828H98.3638V107.426C98.3638 105.713 96.9725 104.324 95.2568 104.324Z" fill="#FFB84F"/>
<path d="M108.642 146.822H77.1484V141.828H108.642C110.023 141.828 111.143 142.946 111.143 144.326C111.143 145.704 110.023 146.822 108.642 146.822Z" fill="#FFB84F"/>
<path d="M63.4968 136.462V106.438C63.4968 105.271 62.5486 104.324 61.3792 104.324C60.2098 104.324 59.2617 105.271 59.2617 106.438V136.857C59.2617 142.361 63.7306 146.822 69.2434 146.822H76.5774C77.9589 146.822 79.079 145.704 79.079 144.325C79.079 142.946 77.9589 141.827 76.5774 141.827H68.872C65.9032 141.828 63.4968 139.426 63.4968 136.462Z" fill="#FFD788"/>
<path d="M97.4644 141.359H80.5873C72.691 141.359 67.0796 133.686 69.4838 126.177L72.2708 117.474L97.0225 114.488L97.4644 141.359Z" fill="#016B83"/>
<path d="M99.9855 82.0234L107.1 107.326H99.9855L92.502 94.6746L99.9855 82.0234Z" fill="#EFEBDF"/>
<path d="M106.773 106.164L125.019 109.687L124.524 111.205C124.524 111.205 108.332 115.058 99.9844 107.326L106.773 106.164Z" fill="#5F281C"/>
<path d="M125.018 109.688L132.867 108.977L130.692 110.931C128.966 112.483 126.381 112.598 124.523 111.207L125.018 109.688Z" fill="#5F281C"/>
<path d="M132.866 108.977L134.292 112.177C134.292 112.177 132.222 112.647 132.258 109.523L132.866 108.977Z" fill="#5F281C"/>
<path d="M131.132 109.395L132.424 112.774C132.424 112.774 130.035 113.04 131.132 109.395Z" fill="#5F281C"/>
<path d="M132.867 108.977L135.535 111.085C135.535 111.085 133.735 112.033 132.682 109.393L132.867 108.977Z" fill="#5F281C"/>
<path d="M129.075 111.25H95.9297V113.601H129.075V111.25Z" fill="white"/>
<path d="M99.9844 82.0225L92.1116 78.8516H82.8183L70.9375 82.3779L76.2795 104.914L71.4064 117.077H94.4183L92.6539 104.351L92.7278 104.126C93.1492 102.843 94.0984 101.824 95.3068 101.216C97.3647 100.182 98.557 98.7889 98.7256 97.3067C98.8001 96.6492 98.7399 95.8909 98.5914 95.0898C97.9202 91.477 98.1025 87.7561 99.2489 84.2647L99.9844 82.0225Z" fill="white"/>
<path d="M95.7205 101.907C97.0062 101.26 98.1435 99.8598 98.5012 98.1836C98.5012 98.1836 95.6798 100.714 85.8947 99.8043C74.6071 98.7541 81.6482 107.082 77.6172 117.081H94.4164L92.652 104.354L92.7259 104.13C93.1478 102.846 94.5127 102.515 95.7205 101.907Z" fill="#EFEBDF"/>
<path d="M90.682 85.062L82.8184 78.8528L86.9846 70.4336H94.0503L90.682 85.062Z" fill="#FFB5A8"/>
<path d="M92.3319 77.8966L88.4844 73.105L94.0505 70.4336L92.3319 77.8966Z" fill="#5F281C"/>
<path d="M86.5879 53.1499C86.5879 53.1499 88.4337 51.6328 90.7421 51.6328C92.7576 51.6328 97.9362 53.7571 99.8617 58.6128C101.787 63.4685 102.514 67.5751 100.592 73.0781L92.0921 70.4342L86.5879 53.1499Z" fill="#422E2D"/>
<path d="M99.7068 65.3762C100.094 69.7513 98.6514 75.1134 94.2691 75.5003C89.8867 75.8871 83.3455 70.6829 82.958 66.3079C82.5705 61.9329 82.1916 54.6593 88.1338 54.1351C96.7707 53.3729 99.3193 61.0007 99.7068 65.3762Z" fill="#FFB5A8"/>
<path d="M96.248 61.8476C96.248 61.8476 97.4679 61.2135 98.4539 62.0673" stroke="#422E2D" stroke-miterlimit="10"/>
<path d="M82.4023 65.6197C82.4023 65.6197 92.717 65.5024 94.9922 56.5154C94.9922 56.5154 96.5617 56.7844 98.7245 59.2091C98.7245 59.2091 97.6881 53.8984 89.0919 53.8984C80.3249 53.8979 82.4023 65.6197 82.4023 65.6197Z" fill="#422E2D"/>
<path d="M94.8313 55.8398C94.8313 55.8398 96.5303 62.8387 85.5254 65.1713" stroke="#422E2D" stroke-miterlimit="10"/>
<path d="M86.5887 63.9899C86.5887 63.9899 84.8942 69.3406 87.4457 74.4247C87.4457 74.4247 79.0667 75.5189 73.5419 69.3406C73.406 63.765 76.1965 58.3542 79.7041 54.7563C82.6391 51.7462 90.9756 50.7641 93.0903 56.5149C93.0903 56.5149 87.3419 56.3472 86.5887 63.9899Z" fill="#422E2D"/>
<path d="M101.409 73.4548C101.409 73.4548 105.316 62.5348 96.7812 55.2148" stroke="#422E2D" stroke-miterlimit="10"/>
<path d="M72.6797 68.534C72.6797 68.534 73.5349 51.6325 88.0658 52.8738" stroke="#422E2D" stroke-miterlimit="10"/>
<path d="M96.9521 69.3398C96.9521 69.3398 94.9126 69.543 91.8848 69.3398C91.8848 69.3398 93.4245 71.2278 95.7065 71.0361C96.2316 70.992 96.9521 69.3398 96.9521 69.3398Z" fill="white"/>
<path d="M91.8824 66.3082C92.2231 66.3082 92.4992 65.8098 92.4992 65.1951C92.4992 64.5804 92.2231 64.082 91.8824 64.082C91.5418 64.082 91.2656 64.5804 91.2656 65.1951C91.2656 65.8098 91.5418 66.3082 91.8824 66.3082Z" fill="#422E2D"/>
<path d="M97.398 65.6207C97.7387 65.6207 98.0148 65.1223 98.0148 64.5076C98.0148 63.8929 97.7387 63.3945 97.398 63.3945C97.0574 63.3945 96.7812 63.8929 96.7812 64.5076C96.7812 65.1223 97.0574 65.6207 97.398 65.6207Z" fill="#422E2D"/>
<path d="M95.4487 65.1914C95.4487 65.1914 95.9188 67.0564 98.1188 66.9139C98.1188 66.9139 95.3347 70.4723 95.4487 65.1914Z" fill="#9A2532"/>
<path d="M85.3963 70.6028C86.7141 70.1053 87.2625 68.3293 86.6211 66.6358C85.9797 64.9424 84.3914 63.9729 83.0736 64.4704C81.7558 64.9678 81.2075 66.7439 81.8489 68.4373C82.4903 70.1307 84.0785 71.1003 85.3963 70.6028Z" fill="#FFB5A8"/>
<path d="M83.964 58.5234H82.7207V65.1681H83.964V58.5234Z" fill="#016B83"/>
<path d="M83.1379 58.5234H81.8945V65.1681H83.1379V58.5234Z" fill="#016B83"/>
<path d="M84.6741 60.0253V56.808C84.6741 55.4328 85.4875 54.0651 86.6667 53.3549C87.2829 52.9835 89.029 51.8984 89.029 51.8984C89.029 51.8984 85.9994 51.9013 84.6535 52.4169L84.2992 52.5525C82.8765 53.0979 81.9375 54.4622 81.9375 55.9833V60.0253H84.6741Z" fill="#016B83"/>
<path d="M83.846 60.0235V56.8062C83.846 55.4311 84.6147 54.1715 85.8386 53.5408L89.0292 51.8967L88.0529 51.8149C86.6164 51.6941 85.1713 51.8996 83.8254 52.4158L83.4711 52.5514C82.0483 53.0968 81.1094 54.4611 81.1094 55.9821V60.0241H83.846V60.0235Z" fill="#016B83"/>
<path d="M83.0685 70.215C85.0123 70.215 86.5881 68.6418 86.5881 66.7012C86.5881 64.7607 85.0123 63.1875 83.0685 63.1875C81.1246 63.1875 79.5488 64.7607 79.5488 66.7012C79.5488 68.6418 81.1246 70.215 83.0685 70.215Z" fill="#016B83"/>
<path d="M82.3751 70.215C84.319 70.215 85.8948 68.6418 85.8948 66.7012C85.8948 64.7607 84.319 63.1875 82.3751 63.1875C80.4313 63.1875 78.8555 64.7607 78.8555 66.7012C78.8555 68.6418 80.4313 70.215 82.3751 70.215Z" fill="#F1EADF"/>
<path d="M82.3761 68.9049C83.5956 68.9049 84.5842 67.9179 84.5842 66.7005C84.5842 65.483 83.5956 64.4961 82.3761 64.4961C81.1566 64.4961 80.168 65.483 80.168 66.7005C80.168 67.9179 81.1566 68.9049 82.3761 68.9049Z" fill="#016B83"/>
<path d="M82.3756 67.701C82.9294 67.701 83.3782 67.2529 83.3782 66.7001C83.3782 66.1473 82.9294 65.6992 82.3756 65.6992C81.8219 65.6992 81.373 66.1473 81.373 66.7001C81.373 67.2529 81.8219 67.701 82.3756 67.701Z" fill="#F1EADF"/>
<path d="M94.8933 73.7356L86.516 72.7736L82.1445 66.8718L82.6054 66.5312L86.829 72.2334L94.9586 73.1673L94.8933 73.7356Z" fill="#F1EADF"/>
<path d="M95.0771 74.0266H93.0215C92.8174 74.0266 92.6523 73.8618 92.6523 73.6581V72.8529C92.6523 72.6492 92.8174 72.4844 93.0215 72.4844H95.0771C95.2812 72.4844 95.4463 72.6492 95.4463 72.8529V73.6581C95.4463 73.8618 95.2812 74.0266 95.0771 74.0266Z" fill="#016B83"/>
<path d="M76.8777 95.9531L75.2738 100.672L74.3223 97.4096L76.8777 95.9531Z" fill="#EFEBDF"/>
<path d="M70.939 82.3789L60.8008 107.63H69.1763L76.8783 95.952L70.939 82.3789Z" fill="white"/>
<path d="M115.599 113.599H108.334C108.334 111.596 109.96 109.973 111.967 109.973C113.972 109.973 115.599 111.596 115.599 113.599Z" fill="#016B83"/>
<path d="M70.3732 105.816L105.631 109.688L105.136 111.207C105.136 111.207 77.62 120.589 60.8008 107.631L70.3732 105.816Z" fill="#FFB5A8"/>
<path d="M105.631 109.688L113.48 108.977L111.305 110.931C109.579 112.483 106.995 112.598 105.137 111.207L105.631 109.688Z" fill="#FFB5A8"/>
<path d="M113.48 108.977L114.905 112.177C114.905 112.177 112.835 112.647 112.872 109.523L113.48 108.977Z" fill="#FFB5A8"/>
<path d="M111.745 109.395L113.037 112.774C113.037 112.774 110.649 113.04 111.745 109.395Z" fill="#FFB5A8"/>
<path d="M113.48 108.977L116.148 111.085C116.148 111.085 114.349 112.033 113.295 109.393L113.48 108.977Z" fill="#FFB5A8"/>
<path d="M146.142 103.338H113.846C111.823 103.338 110.216 101.641 110.33 99.6252L111.592 78.6858C111.696 76.8236 113.239 75.3672 115.107 75.3672H147.403C149.426 75.3672 151.032 77.064 150.919 79.0795L149.657 100.019C149.553 101.881 148.01 103.338 146.142 103.338Z" fill="#014B5C"/>
<path d="M148.163 103.338H115.867C113.845 103.338 112.238 101.641 112.351 99.6252L113.613 78.6858C113.717 76.8236 115.261 75.3672 117.129 75.3672H149.425C151.447 75.3672 153.054 77.064 152.94 79.0795L151.679 100.019C151.574 101.881 150.031 103.338 148.163 103.338Z" fill="#016B83"/>
<path d="M136.951 95.4219H126.872L131.104 110.865C131.242 111.372 130.861 111.872 130.334 111.872H120.5V113.637H131.842H138.572C140.259 113.637 141.484 112.035 141.041 110.411L136.951 95.4219ZM136.177 108.089C134.918 108.089 133.898 107.07 133.898 105.814C133.898 104.557 134.918 103.538 136.177 103.538C137.436 103.538 138.456 104.557 138.456 105.814C138.456 107.07 137.436 108.089 136.177 108.089Z" fill="#014B5C"/>
<path d="M135.136 89.3633H129.365C127.989 89.3633 126.873 90.4775 126.873 91.8515V95.4213H137.629V91.8515C137.629 90.4769 136.513 89.3633 135.136 89.3633Z" fill="#014B5C"/>
<path d="M136.792 89.3633H131.022C129.645 89.3633 128.529 90.4775 128.529 91.8515V95.4213H139.285V91.8515C139.285 90.4769 138.169 89.3633 136.792 89.3633Z" fill="#E3E3E3"/>
<path d="M143.369 110.269L139.318 95.4219H128.529L129.136 97.6457H129.131L132.936 111.591C133.208 112.588 132.492 113.562 131.48 113.637H131.842H133.499H138.533H140.792C142.553 113.636 143.832 111.965 143.369 110.269ZM137.006 108.089C135.747 108.089 134.727 107.07 134.727 105.814C134.727 104.557 135.747 103.538 137.006 103.538C138.265 103.538 139.285 104.557 139.285 105.814C139.285 107.07 138.265 108.089 137.006 108.089Z" fill="#E3E3E3"/>
<path d="M136.792 89.3633H131.022C129.645 89.3633 128.529 90.4775 128.529 91.8515V95.4213H139.285V91.8515C139.285 90.4769 138.169 89.3633 136.792 89.3633Z" fill="#016B83"/>
<path d="M143.369 110.269L139.318 95.4219H128.529L129.136 97.6457H129.131L132.936 111.591C133.208 112.588 132.492 113.562 131.48 113.637H131.842H133.499H138.533H140.792C142.553 113.636 143.832 111.965 143.369 110.269ZM137.006 108.089C135.747 108.089 134.727 107.07 134.727 105.814C134.727 104.557 135.747 103.538 137.006 103.538C138.265 103.538 139.285 104.557 139.285 105.814C139.285 107.07 138.265 108.089 137.006 108.089Z" fill="#016B83"/>
<path d="M143.369 110.269L139.318 95.4213H139.285V91.8515C139.285 90.4775 138.169 89.3633 136.792 89.3633H131.021" stroke="#F3F5F4" stroke-miterlimit="10" stroke-linecap="round" stroke-linejoin="round"/>
<path d="M139.316 95.4219L143.367 110.269C143.83 111.965 142.551 113.636 140.791 113.636" stroke="#F3F5F4" stroke-miterlimit="10" stroke-linecap="round" stroke-linejoin="round"/>
<path d="M116.648 94.0406C116.644 94.0406 116.639 94.0406 116.634 94.04C116.494 94.0326 116.387 93.9124 116.395 93.7734L117.09 81.3957C117.098 81.2561 117.216 81.1456 117.357 81.1571C117.497 81.1645 117.604 81.2847 117.596 81.4237L116.901 93.8014C116.894 93.9365 116.782 94.0406 116.648 94.0406Z" fill="#D1CEC7"/>
<path d="M118.301 94.0406C118.296 94.0406 118.291 94.0406 118.286 94.04C118.146 94.0326 118.039 93.9124 118.047 93.7734L118.743 81.3957C118.75 81.2561 118.867 81.1456 119.01 81.1571C119.15 81.1645 119.257 81.2847 119.249 81.4237L118.553 93.8014C118.546 93.9365 118.434 94.0406 118.301 94.0406Z" fill="#D1CEC7"/>
<path d="M119.953 94.0406C119.948 94.0406 119.943 94.0406 119.939 94.04C119.799 94.0326 119.692 93.9124 119.7 93.7734L120.395 81.3957C120.402 81.2561 120.518 81.1456 120.662 81.1571C120.802 81.1645 120.909 81.2847 120.901 81.4237L120.206 93.8014C120.198 93.9365 120.087 94.0406 119.953 94.0406Z" fill="#D1CEC7"/>
<path d="M121.605 94.0406C121.601 94.0406 121.596 94.0406 121.591 94.04C121.451 94.0326 121.344 93.9124 121.352 93.7734L122.047 81.3957C122.055 81.2561 122.176 81.1456 122.314 81.1571C122.454 81.1645 122.562 81.2847 122.553 81.4237L121.858 93.8014C121.851 93.9365 121.739 94.0406 121.605 94.0406Z" fill="#D1CEC7"/>
<path d="M123.258 94.0406C123.253 94.0406 123.248 94.0406 123.243 94.04C123.104 94.0326 122.996 93.9124 123.004 93.7734L123.7 81.3957C123.707 81.2561 123.827 81.1456 123.967 81.1571C124.107 81.1645 124.214 81.2847 124.206 81.4237L123.51 93.8014C123.504 93.9365 123.391 94.0406 123.258 94.0406Z" fill="#D1CEC7"/>
<path d="M142.433 94.0406C142.429 94.0406 142.424 94.0406 142.419 94.04C142.279 94.0326 142.172 93.9124 142.18 93.7734L142.875 81.3957C142.883 81.2561 143.003 81.1456 143.143 81.1571C143.282 81.1645 143.39 81.2847 143.382 81.4237L142.686 93.8014C142.679 93.9365 142.566 94.0406 142.433 94.0406Z" fill="#D1CEC7"/>
<path d="M144.086 94.0406C144.081 94.0406 144.076 94.0406 144.072 94.04C143.932 94.0326 143.824 93.9124 143.832 93.7734L144.528 81.3957C144.535 81.2561 144.654 81.1456 144.795 81.1571C144.935 81.1645 145.042 81.2847 145.034 81.4237L144.339 93.8014C144.331 93.9365 144.219 94.0406 144.086 94.0406Z" fill="#D1CEC7"/>
<path d="M145.738 94.0406C145.734 94.0406 145.728 94.0406 145.724 94.04C145.584 94.0326 145.477 93.9124 145.485 93.7734L146.18 81.3957C146.188 81.2561 146.305 81.1456 146.447 81.1571C146.587 81.1645 146.694 81.2847 146.686 81.4237L145.991 93.8014C145.984 93.9365 145.872 94.0406 145.738 94.0406Z" fill="#D1CEC7"/>
<path d="M147.391 94.0406C147.386 94.0406 147.381 94.0406 147.376 94.04C147.236 94.0326 147.129 93.9124 147.137 93.7734L147.832 81.3957C147.84 81.2561 147.956 81.1456 148.1 81.1571C148.239 81.1645 148.347 81.2847 148.339 81.4237L147.643 93.8014C147.636 93.9365 147.524 94.0406 147.391 94.0406Z" fill="#D1CEC7"/>
<path d="M149.043 94.0406C149.038 94.0406 149.033 94.0406 149.029 94.04C148.889 94.0326 148.781 93.9124 148.789 93.7734L149.485 81.3957C149.492 81.2561 149.614 81.1456 149.752 81.1571C149.892 81.1645 149.999 81.2847 149.991 81.4237L149.296 93.8014C149.288 93.9365 149.176 94.0406 149.043 94.0406Z" fill="#D1CEC7"/>
<path d="M113.447 123.406H102.162L96.5938 183.591H98.337C111.431 148.62 115.191 132.886 116.271 126.76C116.58 125.009 115.228 123.406 113.447 123.406Z" fill="#016B83"/>
<path d="M96.8066 181.299C96.8066 181.299 109.308 149.134 106.089 127.399C105.884 126.015 102.163 123.406 102.163 123.406L96.8066 181.299Z" fill="#016B83"/>
<path d="M102.52 123.406H92.9378L70.4355 181.299L71.8446 183.591C88.0613 158.707 102.867 136.623 105.933 128.299C106.808 125.924 105.055 123.406 102.52 123.406Z" fill="#016B83"/>
<path d="M89.2494 133.449C83.7716 134.789 78.0032 132.888 76.8768 129.461C75.599 125.573 78.8561 123.405 78.8561 123.405L76.4543 116.969L72.2708 117.473L69.4838 126.177C67.0796 133.686 72.691 141.358 80.5873 141.358H85.9585L70.4342 181.298C93.7207 144.306 89.2494 133.449 89.2494 133.449Z" fill="#016B83"/>
<path d="M72.0039 118.312H97.0622L97.1723 123.406H70.373L72.0039 118.312Z" fill="#014B5C"/>
<path d="M98.3367 183.589V190.762L102.836 191.25H96.9609L96.5941 186.863L94.5195 184.147L96.8062 181.297L98.3367 183.589Z" fill="#FFB5A8"/>
<path d="M102.837 191.25L102.136 193.708H97.4925C96.6934 193.708 96.0456 193.061 96.0456 192.263V187.428L93.6719 184.346L96.8063 181.297L96.9611 191.25H102.837Z" fill="#E8DFCF"/>
<path d="M93.6719 184.348V193.709L95.3044 185.386L93.6719 184.348Z" fill="#E8DFCF"/>
<path d="M71.9662 183.589V190.762L76.4649 191.25H70.5898L70.223 186.863L68.1484 184.147L70.4351 181.297L71.9662 183.589Z" fill="#FFB5A8"/>
<path d="M76.4656 191.25L75.7646 193.708H71.1214C70.3223 193.708 69.6745 193.061 69.6745 192.263V187.428L67.3008 184.346L70.4352 181.297L70.59 191.25H76.4656Z" fill="#E8DFCF"/>
<path d="M67.3008 184.348V193.709L68.9333 185.386L67.3008 184.348Z" fill="#E8DFCF"/>
<path d="M66.2093 193.709H51.5357C49.2118 193.709 47.3281 191.829 47.3281 189.509V118.312H70.4163V189.509C70.4168 191.828 68.5332 193.709 66.2093 193.709Z" fill="#E8DFCF"/>
<path d="M62.9163 193.709H48.2427C45.9188 193.709 44.0352 191.829 44.0352 189.509V118.312H67.1233V189.509C67.1233 191.828 65.2396 193.709 62.9163 193.709Z" fill="#016B83"/>
<path d="M155.647 193.709H140.973C138.649 193.709 136.766 191.829 136.766 189.509V118.312H159.854V189.509C159.854 191.828 157.971 193.709 155.647 193.709Z" fill="#E8DFCF"/>
<path d="M152.354 193.709H137.68C135.356 193.709 133.473 191.829 133.473 189.509V118.312H156.561V189.509C156.561 191.828 154.678 193.709 152.354 193.709Z" fill="#016B83"/>
<path d="M37.1594 120.86H154.281C155.755 120.86 156.949 119.668 156.949 118.197V116.264C156.949 114.794 155.755 113.602 154.281 113.602H37.1594C35.6862 113.602 34.4922 114.794 34.4922 116.264V118.197C34.4922 119.668 35.6862 120.86 37.1594 120.86Z" fill="#016B83"/>
<path d="M90.2102 120.86H171.937C173.41 120.86 174.604 119.668 174.604 118.197V116.264C174.604 114.794 173.41 113.602 171.937 113.602H90.2102C88.737 113.602 87.543 114.794 87.543 116.264V118.197C87.543 119.668 88.737 120.86 90.2102 120.86Z" fill="#E8DFCF"/>
<path d="M67.1233 120.859H44.0352V125.104H67.1233V120.859Z" fill="#014B5C"/>
<path d="M156.561 120.859H133.473V125.104H156.561V120.859Z" fill="#014B5C"/>
<path d="M164.254 43.7519L158.359 39.0398H121.041C118.556 39.0398 116.541 37.0283 116.541 34.5469V28.3835C116.541 25.9022 118.556 23.8906 121.041 23.8906H159.753C162.239 23.8906 164.254 25.9022 164.254 28.3835V43.7519Z" fill="white" stroke="#014B5C" stroke-width="0.25" stroke-miterlimit="10"/>
<path d="M121.865 27.6367H148" stroke="#014B5C" stroke-width="0.25" stroke-miterlimit="10"/>
<path d="M121.865 31.1016H148" stroke="#014B5C" stroke-width="0.25" stroke-miterlimit="10"/>
<path d="M121.865 34.5664H148" stroke="#014B5C" stroke-width="0.25" stroke-miterlimit="10"/>
<path d="M106.312 64.8222L112.207 60.1101H149.525C152.01 60.1101 154.025 58.0986 154.025 55.6172V49.4538C154.025 46.9725 152.01 44.9609 149.525 44.9609H110.813C108.327 44.9609 106.312 46.9725 106.312 49.4538V64.8222Z" fill="white" stroke="#014B5C" stroke-width="0.25" stroke-miterlimit="10"/>
<path d="M148.699 48.707H122.564" stroke="#014B5C" stroke-width="0.25" stroke-miterlimit="10"/>
<path d="M148.699 52.1719H122.564" stroke="#014B5C" stroke-width="0.25" stroke-miterlimit="10"/>
<path d="M148.699 55.6367H122.564" stroke="#014B5C" stroke-width="0.25" stroke-miterlimit="10"/>
<path d="M199.232 37.2002L199.384 37.1671C201.774 38.596 203.33 38.5273 204.112 37.3113L204.136 37.2746C204.799 36.2434 204.468 35.0165 203.139 34.1643C201.977 33.4187 200.686 33.3197 199.196 33.6911L198.76 31.3299C200.612 30.8005 202.529 30.8589 204.522 32.1368C207.105 33.7929 207.933 36.3538 206.452 38.6561L206.429 38.6927C204.935 41.0133 202.581 40.987 200.308 40.0233L199.175 41.3784L197.68 40.4198L199.232 37.2002ZM196.151 41.625L198.623 43.2102L196.988 45.7517L194.516 44.1665L196.151 41.625Z" fill="#016B83"/>
<path d="M39.9655 141.527C36.6385 141.527 33.9414 144.22 33.9414 147.541V186.38C33.9414 187.248 34.6465 187.952 35.5161 187.952H44.415C45.2846 187.952 45.9896 187.248 45.9896 186.38V147.541C45.9896 144.22 43.2926 141.527 39.9655 141.527Z" fill="#A7DAC5"/>
<path d="M45.2971 165.3H41.3321C39.6926 165.3 38.3633 163.973 38.3633 162.336C38.3633 160.699 39.6926 159.372 41.3321 159.372H45.2971C47.5041 159.372 49.2994 157.58 49.2994 155.377V151.229C49.2994 149.593 50.6288 148.266 52.2682 148.266C53.9077 148.266 55.237 149.593 55.237 151.229V155.377C55.237 160.848 50.7778 165.3 45.2971 165.3Z" fill="#A7DAC5"/>
<path d="M39.0048 173.108H34.85C29.3693 173.108 24.9102 168.656 24.9102 163.184V159.226C24.9102 157.589 26.2395 156.262 27.8789 156.262C29.5184 156.262 30.8477 157.589 30.8477 159.226V163.184C30.8477 165.387 32.6431 167.18 34.85 167.18H39.0048C40.6443 167.18 41.9736 168.507 41.9736 170.143C41.9736 171.78 40.6443 173.108 39.0048 173.108Z" fill="#A7DAC5"/>
<path d="M37.0323 148.277H36.5371V150.339H37.0323V148.277Z" fill="#F3F5F4"/>
<path d="M43.3428 145.184H42.8477V147.245H43.3428V145.184Z" fill="#F3F5F4"/>
<path d="M39.8272 157.168H39.332V159.229H39.8272V157.168Z" fill="#F3F5F4"/>
<path d="M41.5791 150.922H41.084V152.984H41.5791V150.922Z" fill="#F3F5F4"/>
<path d="M44.2842 168.57H43.7891V170.632H44.2842V168.57Z" fill="#F3F5F4"/>
<path d="M51.0303 150.199H50.5352V152.261H51.0303V150.199Z" fill="#F3F5F4"/>
<path d="M37.0323 163.707H36.5371V165.769H37.0323V163.707Z" fill="#F3F5F4"/>
<path d="M37.5479 172.516H37.0527V174.578H37.5479V172.516Z" fill="#F3F5F4"/>
<path d="M42.1944 163.238H41.6992V165.3H42.1944V163.238Z" fill="#F3F5F4"/>
<path d="M27.1436 163.656H26.6484V165.718H27.1436V163.656Z" fill="#F3F5F4"/>
<path d="M29.5166 159.809H29.0215V161.87H29.5166V159.809Z" fill="#F3F5F4"/>
<path d="M30.6065 165.719H30.1113V167.781H30.6065V165.719Z" fill="#F3F5F4"/>
<path d="M44.7198 155.379H44.2246V157.441H44.7198V155.379Z" fill="#F3F5F4"/>
<path d="M52.0615 158.195H51.5664V160.257H52.0615V158.195Z" fill="#F3F5F4"/>
<path d="M50.1728 176.547H29.9726C29.4269 176.547 29.0062 177.027 29.0784 177.567L31.1713 193.209C31.3851 194.806 32.7505 196 34.3653 196H46.1281C47.7698 196 49.149 194.767 49.3307 193.138L51.0694 177.547C51.129 177.014 50.7105 176.547 50.1728 176.547Z" fill="#F3F5F4"/>
<path d="M50.1302 185.974L50.4839 182.805H29.7793L30.2035 185.974H50.1302Z" fill="#014B5C"/>
<path d="M30.1663 100.953C32.9333 100.953 35.1764 98.7132 35.1764 95.9509C35.1764 93.1885 32.9333 90.9492 30.1663 90.9492C27.3993 90.9492 25.1562 93.1885 25.1562 95.9509C25.1562 98.7132 27.3993 100.953 30.1663 100.953Z" fill="#F3F5F4" stroke="#014B5C" stroke-width="0.25" stroke-miterlimit="10"/>
<path d="M186.504 112.632C189.271 112.632 191.514 110.393 191.514 107.631C191.514 104.868 189.271 102.629 186.504 102.629C183.737 102.629 181.494 104.868 181.494 107.631C181.494 110.393 183.737 112.632 186.504 112.632Z" fill="#F3F5F4" stroke="#014B5C" stroke-width="0.25" stroke-miterlimit="10"/>
<path d="M180.775 141.873C182.158 141.873 183.28 140.753 183.28 139.372C183.28 137.991 182.158 136.871 180.775 136.871C179.391 136.871 178.27 137.991 178.27 139.372C178.27 140.753 179.391 141.873 180.775 141.873Z" fill="#F3F5F4" stroke="#014B5C" stroke-width="0.25" stroke-miterlimit="10"/>
<path d="M215.116 61.3242L213.187 69.241L207.186 63.2493L215.116 61.3242Z" fill="#F3F5F4" stroke="#014B5C" stroke-width="0.25" stroke-miterlimit="10"/>
<path d="M81.3461 38.9982L74.375 43.2348V34.7617L81.3461 38.9982Z" fill="#F3F5F4" stroke="#014B5C" stroke-width="0.25" stroke-miterlimit="10"/>
<path d="M215.61 136.873L208.639 141.11V132.637L215.61 136.873Z" fill="#F3F5F4" stroke="#014B5C" stroke-width="0.25" stroke-miterlimit="10"/>
<path d="M223.264 121.416H190.169C188.145 121.416 186.504 119.778 186.504 117.757V111.222C186.504 109.201 188.145 107.562 190.169 107.562H223.264C225.288 107.562 226.929 109.201 226.929 111.222V117.757C226.929 119.778 225.289 121.416 223.264 121.416Z" fill="white" stroke="#014B5C" stroke-width="0.25" stroke-miterlimit="10"/>
<path d="M219.783 111.023H193.648" stroke="#014B5C" stroke-width="0.25" stroke-miterlimit="10"/>
<path d="M219.783 114.488H193.648" stroke="#014B5C" stroke-width="0.25" stroke-miterlimit="10"/>
<path d="M219.783 117.953H193.648" stroke="#014B5C" stroke-width="0.25" stroke-miterlimit="10"/>
<path d="M59.8867 77.0059H26.7922C24.7681 77.0059 23.127 75.3675 23.127 73.3468V66.8114C23.127 64.7908 24.7681 63.1523 26.7922 63.1523H59.8873C61.9114 63.1523 63.5525 64.7908 63.5525 66.8114V73.3468C63.552 75.3675 61.9114 77.0059 59.8867 77.0059Z" fill="white" stroke="#014B5C" stroke-width="0.25" stroke-miterlimit="10"/>
<path d="M56.4058 66.6133H30.2715" stroke="#014B5C" stroke-width="0.25" stroke-miterlimit="10"/>
<path d="M56.4058 70.0781H30.2715" stroke="#014B5C" stroke-width="0.25" stroke-miterlimit="10"/>
<path d="M56.4058 73.543H30.2715" stroke="#014B5C" stroke-width="0.25" stroke-miterlimit="10"/>
</svg>
