<svg width="24" height="24" viewBox="0 0 24 24" fill="none" xmlns="http://www.w3.org/2000/svg">
<path d="M12 23.9999C10.1003 23.9999 8.289 23.5702 6.61688 22.7238C2.53725 20.6815 0 16.5715 0 11.9999C0 8.73215 1.29 5.67778 3.63263 3.39815C5.9745 1.12003 9.0705 -0.0788493 12.3364 0.00402575C18.7676 0.180651 24 5.6639 24 12.2264V15.3749C24 17.6493 22.1494 19.4999 19.875 19.4999C18.0052 19.4999 16.422 18.2493 15.9176 16.5408C14.8657 17.4494 13.4959 17.9999 12 17.9999C8.69175 17.9999 6 15.3082 6 11.9999C6 8.69165 8.69175 5.9999 12 5.9999C15.3082 5.9999 18 8.69165 18 11.9999V15.3749C18 16.4088 18.8411 17.2499 19.875 17.2499C20.9089 17.2499 21.75 16.4088 21.75 15.3749V12.2264C21.75 6.87103 17.4994 2.3969 12.2745 2.25365C9.61912 2.18353 7.104 3.16003 5.20125 5.0114C3.29813 6.86315 2.25 9.3449 2.25 11.9999C2.25 15.7143 4.311 19.0537 7.62862 20.7138C8.98762 21.4019 10.4565 21.7499 12 21.7499C13.5435 21.7499 15.0124 21.4019 16.3669 20.716L17.3835 22.7238C15.711 23.5702 13.8997 23.9999 12 23.9999ZM12 8.2499C9.93225 8.2499 8.25 9.93215 8.25 11.9999C8.25 14.0677 9.93225 15.7499 12 15.7499C14.0677 15.7499 15.75 14.0677 15.75 11.9999C15.75 9.93215 14.0677 8.2499 12 8.2499Z" fill="black"/>
</svg>
