<svg width="16" height="24" viewBox="0 0 16 24" fill="none" xmlns="http://www.w3.org/2000/svg">
<path d="M7.81291 0C3.55252 0 0 3.23318 0 7.81291C0 9.55276 0.672937 11.6016 1.39516 12.9489L7.07173 23.5521C7.1427 23.6872 7.24927 23.8004 7.3799 23.8793C7.51054 23.9583 7.66027 24 7.81291 24C7.96555 24 8.11528 23.9583 8.24592 23.8793C8.37655 23.8004 8.48312 23.6872 8.55409 23.5521L14.2307 12.9489C14.9529 11.6016 15.6258 9.55273 15.6258 7.81291C15.6258 3.23318 12.0733 0 7.81291 0ZM7.81291 1.6742C11.2578 1.6742 13.9516 4.07095 13.9516 7.81291C13.9516 9.07227 13.3273 11.0915 12.757 12.1554L7.81291 21.3722L2.8688 12.1554C2.2985 11.0915 1.6742 9.07227 1.6742 7.81291C1.6742 4.07095 4.36803 1.6742 7.81291 1.6742ZM7.81291 3.90646C5.66534 3.90646 3.90646 5.66536 3.90646 7.81291C3.90646 9.96046 5.66535 11.7194 7.81291 11.7194C9.96047 11.7194 11.7194 9.96046 11.7194 7.81291C11.7194 5.66536 9.96048 3.90646 7.81291 3.90646ZM7.81291 5.58065C9.05566 5.58065 10.0452 6.57021 10.0452 7.81291C10.0452 9.05567 9.05567 10.0452 7.81291 10.0452C6.57016 10.0452 5.58065 9.05567 5.58065 7.81291C5.58065 6.57021 6.57016 5.58065 7.81291 5.58065Z" fill="black"/>
</svg>
