<svg width="24" height="24" viewBox="0 0 24 24" fill="none" xmlns="http://www.w3.org/2000/svg">
<path d="M23.3319 15.9479C23.7641 14.711 24 13.3821 24 11.9997C24 10.6172 23.7643 9.28901 23.3319 8.05211C23.3217 8.0151 23.3089 7.97879 23.2938 7.94402C21.6274 3.31725 17.194 0 11.9999 0C6.80583 0 2.37238 3.31707 0.705989 7.94402C0.69077 7.97861 0.677971 8.0151 0.66794 8.05211C0.235733 9.28901 0 10.6172 0 11.9997C0 13.3821 0.235733 14.711 0.66794 15.9479C0.67849 15.9849 0.690943 16.0212 0.705989 16.056C2.37307 20.6828 6.80583 24 11.9999 24C17.194 24 21.6274 20.6829 23.2938 16.056C23.3089 16.0212 23.3217 15.9849 23.3319 15.9479ZM11.9997 22.2797C11.5428 22.2797 10.8059 21.4525 10.19 19.605C9.89267 18.7134 9.65521 17.6882 9.48174 16.5734H14.5179C14.345 17.6884 14.107 18.7131 13.8097 19.605C13.1936 21.4525 12.4567 22.2797 11.9997 22.2797ZM9.27281 14.8531C9.18979 13.936 9.14621 12.9791 9.14621 11.9997C9.14621 11.0204 9.18979 10.064 9.27281 9.14685H14.7268C14.8093 10.064 14.8529 11.0204 14.8529 11.9997C14.8529 12.9791 14.8093 13.936 14.7268 14.8531H9.27281ZM1.71983 11.9997C1.71983 11.0103 1.86027 10.0529 2.12298 9.14685H7.54744C7.46685 10.083 7.42603 11.0421 7.42603 11.9997C7.42603 12.9579 7.46685 13.917 7.54744 14.8531H2.12298C1.86027 13.9466 1.71983 12.9897 1.71983 11.9997ZM11.9997 1.72028C12.4567 1.72028 13.1936 2.54747 13.8095 4.39503C14.1068 5.28656 14.3448 6.31178 14.5177 7.42657H9.48156C9.65469 6.31108 9.8925 5.28639 10.1898 4.39503C10.8059 2.5473 11.5428 1.72028 11.9997 1.72028ZM16.4522 9.14685H21.8765C22.1387 10.0527 22.2796 11.0103 22.2796 11.9997C22.2796 12.9897 22.1387 13.9473 21.8765 14.8531H16.4522C16.5328 13.917 16.5731 12.9579 16.5731 11.9997C16.5729 11.0421 16.5326 10.083 16.4522 9.14685ZM21.2046 7.42675H16.255C15.9487 5.31683 15.424 3.4243 14.6876 2.07758C17.5423 2.85133 19.9076 4.82739 21.2046 7.42675ZM9.3119 2.07741C8.57547 3.42412 8.05091 5.31665 7.74444 7.42657H2.79507C4.09187 4.82739 6.45715 2.85133 9.3119 2.07741ZM2.79507 16.5733H7.74461C8.05091 18.6832 8.57564 20.5757 9.31207 21.9224C6.45716 21.148 4.09187 19.1726 2.79507 16.5733ZM14.6876 21.9224C15.424 20.5757 15.9486 18.6832 16.255 16.5733H21.2046C19.9076 19.1726 17.5423 21.148 14.6876 21.9224Z" fill="#303038"/>
<path d="M19.2605 8.12891H4.59233C2.44669 8.12891 0.691406 9.88429 0.691406 12.0298C0.691406 14.1754 2.44687 15.9306 4.59233 15.9306H19.2605C21.406 15.9306 23.1615 14.1752 23.1615 12.0298C23.1615 9.88429 21.406 8.12891 19.2605 8.12891Z" fill="white" stroke="#303038" stroke-width="1.4" stroke-miterlimit="10"/>
<path d="M6.93918 13L6.15518 10.864H6.62718L7.29918 12.748H7.07518L7.77918 10.864H8.19918L8.88318 12.748H8.66318L9.35518 10.864H9.79918L9.01118 13H8.53118L7.90718 11.332H8.05518L7.41918 13H6.93918ZM10.572 13L9.78799 10.864H10.26L10.932 12.748H10.708L11.412 10.864H11.832L12.516 12.748H12.296L12.988 10.864H13.432L12.644 13H12.164L11.54 11.332H11.688L11.052 13H10.572ZM14.2048 13L13.4208 10.864H13.8928L14.5648 12.748H14.3408L15.0448 10.864H15.4648L16.1488 12.748H15.9288L16.6208 10.864H17.0648L16.2768 13H15.7968L15.1728 11.332H15.3208L14.6848 13H14.2048Z" fill="#303038"/>
</svg>
