<svg width="41" height="44" viewBox="0 0 41 44" fill="none" xmlns="http://www.w3.org/2000/svg">
<path fill-rule="evenodd" clip-rule="evenodd" d="M26.9516 44C26.8517 44 26.7517 43.9891 26.6629 43.956C23.1193 42.9991 20.809 41.701 18.4097 39.336C15.3106 36.278 13.5999 32.197 13.5999 27.8521C13.5999 24.277 16.6658 21.373 20.4424 21.373C24.2191 21.373 27.2848 24.277 27.2848 27.8521C27.2848 30.206 29.362 32.131 31.9057 32.131C34.4495 32.131 36.5266 30.217 36.5266 27.8521C36.5266 19.558 29.3065 12.815 20.4313 12.815C14.1109 12.815 8.34591 16.291 5.74666 21.6811C4.88025 23.4631 4.44704 25.5421 4.44704 27.8521C4.44704 29.5681 4.60252 32.2741 5.92442 35.783C6.1354 36.355 5.84663 36.982 5.26899 37.202C4.69145 37.411 4.0583 37.1251 3.83607 36.553C2.74753 33.66 2.21436 30.8221 2.21436 27.8521C2.21436 25.212 2.72535 22.8141 3.7361 20.735C6.70191 14.597 13.2555 10.6261 20.4202 10.6261C30.5172 10.6261 38.7371 18.359 38.7371 27.8631C38.7371 31.438 35.6602 34.342 31.8947 34.342C28.1291 34.342 25.0522 31.438 25.0522 27.8631C25.0522 25.509 22.975 23.584 20.4313 23.584C17.8875 23.584 15.8104 25.498 15.8104 27.8631C15.8104 31.6141 17.2878 35.1451 19.9647 37.785C22.0641 39.853 24.108 40.9971 27.2404 41.8441C27.8292 42.009 28.1846 42.6141 28.0179 43.1971C27.8847 43.681 27.4404 44 26.9516 44ZM31.4282 39.4569C28.7846 39.4569 26.463 38.7969 24.5414 37.5099C21.2423 35.288 19.2651 31.6799 19.2651 27.852C19.2651 27.247 19.7649 26.752 20.3759 26.752C20.9868 26.752 21.4867 27.247 21.4867 27.852C21.4867 30.943 23.0973 33.869 25.7965 35.6839C27.3627 36.74 29.2066 37.2569 31.4282 37.2569C31.9613 37.2569 32.8611 37.2019 33.7497 37.0479C34.3496 36.938 34.9271 37.3449 35.0383 37.9389C35.1494 38.5329 34.7383 39.105 34.1385 39.215C32.8389 39.446 31.7392 39.4569 31.4282 39.4569ZM15.5106 43.5275C15.2219 43.5275 14.9441 43.4174 14.722 43.1974C12.8003 41.2724 11.7562 40.0514 10.2566 37.4004C8.72365 34.6945 7.91284 31.3834 7.91284 27.8414C7.91284 21.3074 13.5557 15.9834 20.498 15.9834C27.4405 15.9834 33.0833 21.2964 33.0833 27.8414C33.0833 28.4465 32.5835 28.9415 31.9725 28.9415C31.3617 28.9415 30.8618 28.4465 30.8618 27.8414C30.8618 22.5175 26.2187 18.1835 20.498 18.1835C14.7887 18.1835 10.1344 22.5175 10.1344 27.8414C10.1344 31.0094 10.8453 33.9354 12.1894 36.3224C13.6223 38.8524 14.5776 39.9415 16.2882 41.6465C16.7214 42.0755 16.7214 42.7794 16.2771 43.1974C16.0771 43.4285 15.7884 43.5275 15.5106 43.5275ZM1.61471 16.9844C1.39258 16.9844 1.17036 16.9184 0.970414 16.7864C0.470664 16.4344 0.348407 15.7525 0.703825 15.2574C2.90319 12.1774 5.71352 9.75741 9.04588 8.05244C16.0327 4.47741 24.9634 4.46638 31.9614 8.03037C35.2827 9.72441 38.0819 12.1224 40.2923 15.1804C40.6478 15.6753 40.5367 16.3574 40.0369 16.7094C39.5371 17.0613 38.8372 16.9514 38.4818 16.4564C36.4824 13.6844 33.9498 11.5064 30.9506 9.98841C24.5747 6.74337 16.4326 6.75441 10.0678 10.0104C7.0575 11.5503 4.51386 13.7395 2.52559 16.5334C2.30336 16.8304 1.95909 16.9844 1.61471 16.9844ZM33.4056 5.43406C33.2279 5.43406 33.0612 5.39003 32.8946 5.3131C28.6403 3.1351 24.9413 2.20007 20.5204 2.20007C16.1106 2.20007 11.9563 3.24503 8.14623 5.30206C7.60201 5.58813 6.93543 5.40106 6.63552 4.86203C6.34675 4.3231 6.53555 3.6631 7.07987 3.3661C11.223 1.13303 15.744 0 20.5204 0C25.2524 0 29.3844 1.03403 33.9165 3.35507C34.4608 3.6301 34.6719 4.30113 34.3942 4.84006C34.1943 5.2141 33.8054 5.43406 33.4056 5.43406Z" fill="#12486B"/>
</svg>
