<svg width="24" height="17" viewBox="0 0 24 17" fill="none" xmlns="http://www.w3.org/2000/svg">
<g id="Group 1000002329">
<g id="Group 1000002324">
<g id="Group 1000002317">
<rect id="Rectangle 34624383" x="0.394531" y="0.397949" width="23.2895" height="16.2982" rx="1" fill="none"/>
<g id="Group">
<path id="Vector" d="M22.1053 16.974H1.85526C0.828947 16.974 0 16.1392 0 15.1057V1.86834C0 0.834789 0.828947 0 1.85526 0H22.1447C23.1711 0 24 0.834789 24 1.86834V15.1057C23.9605 16.1392 23.1316 16.974 22.1053 16.974ZM2.02631 0.987061C1.43421 0.987061 0.960526 1.46408 0.960526 2.06036V14.9138C0.960526 15.51 1.43421 15.9871 2.02631 15.9871H21.8947C22.4868 15.9871 22.9605 15.51 22.9605 14.9138V2.06036C22.9605 1.46408 22.4868 0.987061 21.8947 0.987061H2.02631Z" fill="#FF8926"/>
</g>
<g id="Group_2">
<path id="Vector_2" d="M16.4993 8.09322C15.1966 8.09322 14.1309 7.01992 14.1309 5.70811C14.1309 4.3963 15.1966 3.323 16.4993 3.323C17.8019 3.323 18.8677 4.3963 18.8677 5.70811C18.8677 7.01992 17.8019 8.09322 16.4993 8.09322ZM16.4993 4.11803C15.6309 4.11803 14.9203 4.83357 14.9203 5.70811C14.9203 6.58265 15.6309 7.29818 16.4993 7.29818C17.3677 7.29818 18.0782 6.58265 18.0782 5.70811C18.0782 4.83357 17.3677 4.11803 16.4993 4.11803Z" fill="#FF8926"/>
</g>
<g id="Group_3">
<path id="Vector_3" d="M19.2236 8.09346C18.592 8.09346 18.0394 7.85495 17.5657 7.41768C17.4078 7.25867 17.4078 7.02016 17.5657 6.86116C17.7236 6.70215 17.9604 6.70215 18.1183 6.86116C18.3946 7.13942 18.7894 7.29842 19.2236 7.29842C20.092 7.29842 20.8025 6.58289 20.8025 5.70835C20.8025 4.83381 20.092 4.11828 19.2236 4.11828C18.8288 4.11828 18.4341 4.27729 18.1183 4.55555C17.9604 4.71456 17.7236 4.71456 17.5657 4.55555C17.4078 4.39654 17.4078 4.15803 17.5657 3.99902C17.9999 3.56175 18.592 3.32324 19.2236 3.32324C20.5262 3.32324 21.592 4.39654 21.592 5.70835C21.592 7.02016 20.5262 8.09346 19.2236 8.09346Z" fill="#FF8926"/>
</g>
<g id="Group_4">
<path id="Vector_4" d="M21.1577 13.625H19.1445C18.9077 13.625 18.7498 13.425 18.7498 13.125C18.7498 12.825 18.9077 12.625 19.1445 12.625H21.1577C21.3945 12.625 21.5524 12.825 21.5524 13.125C21.5524 13.425 21.3945 13.625 21.1577 13.625ZM17.1314 13.625H15.1182C14.8814 13.625 14.7235 13.425 14.7235 13.125C14.7235 12.825 14.8814 12.625 15.1182 12.625H17.1314C17.3682 12.625 17.5261 12.825 17.5261 13.125C17.5261 13.425 17.3682 13.625 17.1314 13.625ZM13.1051 13.625H11.0919C10.8551 13.625 10.6972 13.425 10.6972 13.125C10.6972 12.825 10.8551 12.625 11.0919 12.625H13.1051C13.3419 12.625 13.4998 12.825 13.4998 13.125C13.4998 13.425 13.3419 13.625 13.1051 13.625ZM9.07874 13.625H7.06558C6.82874 13.625 6.67085 13.425 6.67085 13.125C6.67085 12.825 6.82874 12.625 7.06558 12.625H9.07874C9.31558 12.625 9.47348 12.825 9.47348 13.125C9.47348 13.425 9.27611 13.625 9.07874 13.625ZM5.05243 13.625H3.03927C2.80243 13.625 2.64453 13.425 2.64453 13.125C2.64453 12.825 2.80243 12.625 3.03927 12.625H5.05243C5.28927 12.625 5.44716 12.825 5.44716 13.125C5.44716 13.425 5.24979 13.625 5.05243 13.625Z" fill="#FF8926"/>
</g>
<g id="Group_5">
<path id="Vector_5" d="M10.0259 5.59497H4.1838C3.94696 5.59497 3.78906 5.39497 3.78906 5.09497C3.78906 4.79497 3.94696 4.59497 4.1838 4.59497H10.0259C10.2627 4.59497 10.4206 4.79497 10.4206 5.09497C10.4206 5.39497 10.2233 5.59497 10.0259 5.59497Z" fill="#FF8926"/>
</g>
<g id="Group_6">
<path id="Vector_6" d="M8.48643 7.42285H4.1838C3.94696 7.42285 3.78906 7.22285 3.78906 6.92285C3.78906 6.62285 3.94696 6.42285 4.1838 6.42285H8.48643C8.72327 6.42285 8.88117 6.62285 8.88117 6.92285C8.88117 7.22285 8.6838 7.42285 8.48643 7.42285Z" fill="#FF8926"/>
</g>
</g>
</g>
</g>
</svg>
