<svg width="24" height="24" viewBox="0 0 24 24" fill="none" xmlns="http://www.w3.org/2000/svg">
<g id="Icon" clip-path="url(#clip0_739_6700)">
<path id="Vector" d="M3 17.1571C3 21.5187 6.11538 23.8379 12 23.8379C17.8846 23.8379 21 21.5187 21 17.1571C21 14.1802 17.9192 10.5802 15.1154 7.94943C15.5654 7.70712 15.8077 7.29173 15.8077 6.84173C15.8077 6.28789 15.4615 5.83789 14.9769 5.66481C15.6 4.79942 15.9462 4.03789 15.9462 3.38019C15.9462 3.34558 15.9462 3.31096 15.9462 3.27635C14.5615 -0.946729 11.8269 1.75327 8.29615 3.06866C8.15769 3.10327 8.05385 3.24173 8.05385 3.38019C8.05385 4.03789 8.36538 4.79942 9.02308 5.66481C8.50385 5.83789 8.19231 6.3225 8.19231 6.84173C8.19231 7.32635 8.46923 7.74173 8.88462 7.94943C6.11538 10.5802 3 14.1802 3 17.1571ZM15.2538 3.44942C15.2192 4.00327 14.8731 4.76481 14.1808 5.59558H9.85385C9.23077 4.83404 8.85 4.17635 8.78077 3.6225C12.3808 2.20327 14.1808 0.160963 15.2538 3.44942ZM9.47308 6.28789C10.4769 6.28789 13.5577 6.28789 14.5615 6.28789C14.8731 6.28789 15.1154 6.53019 15.1154 6.84173C15.1154 7.15327 14.8385 7.39558 14.5615 7.39558C13.2808 7.39558 10.4769 7.39558 9.47308 7.39558C9.16154 7.39558 8.91923 7.15327 8.91923 6.84173C8.91923 6.53019 9.16154 6.28789 9.47308 6.28789ZM9.75 8.08789H14.25C16.5692 10.234 20.3077 14.1456 20.3077 17.1571C20.3077 21.1379 17.5038 23.1456 12 23.1456C6.49615 23.1456 3.69231 21.1379 3.69231 17.1571C3.69231 14.1456 7.43077 10.234 9.75 8.08789Z" fill="#FF8926" stroke="#FF8926" stroke-width="0.75"/>
<path id="Vector_2" d="M9.88795 17.1917L9.0918 18.1263C9.88795 18.8186 10.788 19.1994 11.7572 19.3032V20.0994H12.4495V19.3032C13.7995 19.234 14.9072 18.4725 14.9072 17.0878C14.9072 15.634 13.8687 15.1494 12.4841 14.8378H12.4495V12.7955C13.0033 12.8648 13.5226 13.0725 14.0072 13.4186L14.6995 12.4148C13.9726 11.9302 13.2456 11.6532 12.4149 11.584V11.0302H11.7226V11.584C10.3726 11.6532 9.3341 12.4494 9.3341 13.7648C9.3341 15.184 10.338 15.634 11.7226 15.9455V18.0571C11.0995 18.0571 10.4764 17.7455 9.88795 17.1917ZM12.4495 16.2225C13.1072 16.4302 13.5918 16.6032 13.5918 17.2609C13.5918 17.8494 13.038 18.1263 12.4495 18.1955V16.2225ZM10.7187 13.6955C10.7187 13.1417 11.2033 12.8302 11.7572 12.7955V14.6648C11.1341 14.4917 10.7187 14.3186 10.7187 13.6955Z" fill="#FF8926" stroke="#FF8926" stroke-width="0.25"/>
</g>
<defs>
<clipPath id="clip0_739_6700">
<rect width="24" height="24" fill="white"/>
</clipPath>
</defs>
</svg>
