<svg width="24" height="24" viewBox="0 0 24 24" fill="none" xmlns="http://www.w3.org/2000/svg">
<path d="M20.1675 14.2017C20.0978 14.2047 20.0291 14.1848 19.9722 14.1452C19.9153 14.1056 19.8735 14.0486 19.8533 13.9831L18.0557 8.28006C18.0058 8.11827 17.8929 7.98221 17.7415 7.90129L14.778 6.30001C14.6865 6.25108 14.5847 6.22366 14.4805 6.21992C14.3763 6.21618 14.2727 6.23622 14.1778 6.27845L10.3815 7.96596C10.3061 7.99949 10.2201 8.00244 10.1424 7.97418C10.0647 7.94592 10.0016 7.88874 9.96672 7.81507C9.94929 7.77829 9.93945 7.73849 9.93776 7.69797C9.93607 7.65745 9.94257 7.617 9.95688 7.57894C9.97118 7.54089 9.99302 7.50597 10.0211 7.47621C10.0493 7.44645 10.0831 7.42242 10.1207 7.40551L13.9138 5.71492C14.0976 5.6346 14.2977 5.59672 14.4987 5.6042C14.6998 5.61167 14.8964 5.6643 15.0734 5.75803L18.0369 7.35932C18.3341 7.51661 18.5565 7.78202 18.656 8.09838L20.4692 13.8014C20.4938 13.8794 20.4857 13.9638 20.4468 14.036C20.4079 14.1081 20.3414 14.1622 20.2618 14.1863C20.2314 14.1962 20.1996 14.2014 20.1675 14.2017Z" fill="#FF8926" stroke="#FF8926" stroke-width="0.4"/>
<path d="M15.5974 17.7682H15.5503C14.3564 17.5689 13.2252 17.1032 12.2443 16.4071C10.3211 15.0511 8.92231 13.0976 8.27523 10.8642L7.67185 8.83793C7.56186 8.45107 7.60792 8.03758 7.80048 7.68307C7.99305 7.32857 8.31737 7.06021 8.7063 6.93358C9.09522 6.80694 9.51895 6.83172 9.88974 7.00278C10.2605 7.17385 10.55 7.4781 10.6982 7.85253L11.2513 9.30908C11.4092 9.31955 11.5672 9.28923 11.7095 9.22115C11.8518 9.15306 11.9733 9.0496 12.062 8.92108C12.094 8.87523 12.1381 8.83872 12.1895 8.81541C12.241 8.7921 12.2979 8.78286 12.3543 8.78866C12.3543 8.78866 13.3756 8.87797 13.8785 8.20358C13.9163 8.15342 13.9687 8.11569 14.0289 8.09537C14.089 8.07506 14.1541 8.07311 14.2154 8.0898C14.2767 8.10649 14.3314 8.14102 14.3722 8.18883C14.4131 8.23664 14.4381 8.29547 14.4441 8.35755C14.5023 8.70025 14.6374 9.02603 14.8395 9.31145C15.0417 9.59686 15.3059 9.83479 15.6132 10.0081C15.6694 10.0414 15.7135 10.091 15.7394 10.1501C15.7654 10.2092 15.7718 10.2748 15.7577 10.3376C15.7438 10.4002 15.7102 10.457 15.6618 10.5001C15.6134 10.5431 15.5524 10.5703 15.4875 10.5778C15.1321 10.6158 14.8065 10.7899 14.5817 11.0622C14.3568 11.3345 14.2509 11.6828 14.287 12.0313C14.29 12.0939 14.2735 12.1559 14.2396 12.209C14.2057 12.2622 14.156 12.3039 14.0973 12.3287C14.0385 12.3534 13.9735 12.3601 13.9108 12.3476C13.8481 12.3352 13.7908 12.3043 13.7465 12.2592C13.4947 12.023 13.186 11.8531 12.8492 11.7653C12.5123 11.6775 12.1583 11.6747 11.8201 11.7572C11.7442 11.7784 11.663 11.7708 11.5925 11.736C11.5221 11.7012 11.4676 11.6417 11.4398 11.5694L10.7327 9.72172C10.7314 9.71564 10.7314 9.70933 10.7327 9.70325L10.1042 8.08348C10.0307 7.86785 9.8805 7.68529 9.6811 7.56904C9.4817 7.4528 9.24631 7.41061 9.01783 7.45016C8.78935 7.48972 8.58296 7.60838 8.43628 7.78454C8.28959 7.96069 8.21236 8.18262 8.21866 8.4099C8.21835 8.50071 8.23212 8.59105 8.25951 8.67781L8.88175 10.6856C9.48844 12.7823 10.8008 14.6163 12.6057 15.8898C13.5068 16.5327 14.5464 16.9646 15.6446 17.1523C15.6859 17.1554 15.7261 17.1663 15.7631 17.1846C15.8 17.2029 15.8329 17.2281 15.8599 17.2588C15.8869 17.2896 15.9074 17.3252 15.9204 17.3638C15.9333 17.4023 15.9384 17.4429 15.9353 17.4834C15.9322 17.5238 15.921 17.5632 15.9023 17.5994C15.8837 17.6356 15.8579 17.6679 15.8266 17.6943C15.7952 17.7208 15.7588 17.7409 15.7195 17.7536C15.6802 17.7663 15.6387 17.7712 15.5974 17.7682ZM12.3323 11.0859C12.8176 11.0901 13.2925 11.2243 13.7056 11.4739C13.7647 11.1908 13.8907 10.9251 14.0735 10.6984C14.2563 10.4716 14.4909 10.29 14.7584 10.1682C14.3975 9.8453 14.1215 9.44176 13.9539 8.9919C13.512 9.27948 12.9915 9.42875 12.4611 9.41994C12.2118 9.70981 11.8564 9.89225 11.4712 9.92804L11.9301 11.1167C12.0631 11.0959 12.1976 11.0856 12.3323 11.0859Z" fill="#FF8926" stroke="#FF8926" stroke-width="0.4"/>
<path d="M16.5637 20.6249C16.5168 20.625 16.4704 20.6149 16.428 20.5952C16.3855 20.5755 16.3482 20.5467 16.3186 20.5109L15.3255 19.3069C15.0545 18.9767 14.9282 18.5546 14.9741 18.1333C15.02 17.7119 15.2346 17.3256 15.5707 17.0589L19.656 13.841C19.9933 13.5762 20.4238 13.4529 20.8536 13.4979C21.2833 13.5429 21.6775 13.7525 21.9501 14.0812L22.9306 15.2852C22.9567 15.3167 22.9762 15.3529 22.9879 15.3919C22.9997 15.4308 23.0035 15.4716 22.9991 15.5119C22.9947 15.5523 22.9823 15.5914 22.9624 15.627C22.9426 15.6626 22.9157 15.694 22.8834 15.7194L16.7585 20.5571C16.7033 20.6006 16.6346 20.6245 16.5637 20.6249ZM15.8158 18.922L16.6108 19.8858L22.2392 15.433L21.4473 14.4692C21.2793 14.2665 21.0363 14.1372 20.7713 14.1095C20.5063 14.0818 20.241 14.158 20.0331 14.3214L15.9666 17.5362C15.7598 17.7009 15.6279 17.939 15.5996 18.1986C15.5713 18.4583 15.649 18.7183 15.8158 18.922Z" fill="#FF8926" stroke="#FF8926" stroke-width="0.4"/>
<path d="M5.81225 12.8103C4.87782 12.8099 3.9637 12.543 3.1814 12.0422C2.3991 11.5415 1.78242 10.8284 1.40659 9.99011C1.03075 9.15179 0.912003 8.22441 1.06483 7.3211C1.21765 6.41778 1.63543 5.57756 2.26723 4.90292C2.89902 4.22829 3.71751 3.74839 4.62288 3.52177C5.52824 3.29515 6.48134 3.3316 7.36592 3.62667C8.2505 3.92175 9.02834 4.46269 9.60455 5.18352C10.1808 5.90435 10.5305 6.77392 10.611 7.68616C10.6181 7.76783 10.5917 7.84892 10.5378 7.91158C10.4839 7.97424 10.4068 8.01334 10.3234 8.02028C10.2401 8.02722 10.1573 8.00143 10.0934 7.94859C10.0294 7.89575 9.98954 7.82018 9.98245 7.73851C9.90271 6.81973 9.50982 5.95396 8.86701 5.28052C8.2242 4.60709 7.36886 4.16516 6.43864 4.02586C5.50842 3.88656 4.55743 4.05799 3.7387 4.51255C2.91997 4.96712 2.28112 5.67839 1.92497 6.5319C1.56882 7.38541 1.51608 8.33151 1.77524 9.21795C2.03439 10.1044 2.59037 10.8796 3.3537 11.4189C4.11703 11.9581 5.04331 12.23 5.98348 12.1908C6.92365 12.1517 7.82303 11.8037 8.53687 11.2028C8.60021 11.1493 8.68265 11.1227 8.76604 11.1288C8.84943 11.1348 8.92695 11.1731 8.98154 11.2352C9.03613 11.2972 9.06333 11.378 9.05714 11.4597C9.05095 11.5415 9.01189 11.6174 8.94855 11.6709C8.07539 12.4053 6.96295 12.8095 5.81225 12.8103Z" fill="#FF8926" stroke="#FF8926" stroke-width="0.4"/>
<path d="M5.71205 8.22208C5.43844 8.22269 5.17079 8.14374 4.94299 7.99523C4.71519 7.84672 4.53747 7.63532 4.43233 7.38779C4.32719 7.14026 4.29936 6.86773 4.35236 6.6047C4.40536 6.34166 4.5368 6.09995 4.73005 5.91015C4.92331 5.72035 5.16968 5.591 5.43799 5.53847C5.7063 5.48594 5.98449 5.51259 6.23733 5.61505C6.49018 5.71751 6.70632 5.89118 6.85839 6.11406C7.01047 6.33694 7.09164 6.59903 7.09165 6.86714C7.09165 6.94881 7.05854 7.02714 6.9996 7.08489C6.94067 7.14264 6.86073 7.17508 6.77739 7.17508C6.69404 7.17508 6.61411 7.14264 6.55517 7.08489C6.49624 7.02714 6.46313 6.94881 6.46313 6.86714C6.46313 6.72084 6.41881 6.57783 6.3358 6.45623C6.25278 6.33462 6.1348 6.2399 5.99681 6.18405C5.85881 6.12821 5.707 6.11375 5.56061 6.14252C5.41422 6.17129 5.27984 6.24198 5.17448 6.34565C5.06913 6.44931 4.99755 6.58129 4.9688 6.72486C4.94005 6.86842 4.95544 7.01712 5.01301 7.15211C5.07057 7.2871 5.16773 7.40231 5.29218 7.48314C5.41662 7.56398 5.56275 7.60681 5.71205 7.6062C5.7954 7.6062 5.87533 7.63864 5.93427 7.69639C5.9932 7.75414 6.02631 7.83247 6.02631 7.91414C6.02631 7.99581 5.9932 8.07413 5.93427 8.13188C5.87533 8.18963 5.7954 8.22208 5.71205 8.22208Z" fill="#FF8926"/>
<path d="M5.71086 10.3217C5.34468 10.3217 4.99345 10.1794 4.73423 9.92598C4.47501 9.67255 4.32896 9.32871 4.32813 8.96989C4.32812 8.88822 4.36123 8.80989 4.42017 8.75214C4.4791 8.69439 4.55904 8.66195 4.64238 8.66195C4.72573 8.66195 4.80566 8.69439 4.8646 8.75214C4.92353 8.80989 4.95664 8.88822 4.95664 8.96989C4.9585 9.11565 5.00431 9.25762 5.08831 9.37794C5.17231 9.49825 5.29074 9.59154 5.42871 9.64606C5.56668 9.70059 5.71802 9.71391 5.8637 9.68436C6.00937 9.65481 6.14288 9.5837 6.24742 9.47999C6.35196 9.37627 6.42286 9.24457 6.4512 9.10147C6.47955 8.95836 6.46407 8.81024 6.40672 8.67573C6.34937 8.54122 6.25271 8.42634 6.12889 8.34553C6.00507 8.26473 5.85963 8.2216 5.71086 8.22159C5.62751 8.22159 5.54758 8.18915 5.48865 8.1314C5.42971 8.07365 5.3966 7.99532 5.3966 7.91365C5.3966 7.83198 5.42971 7.75366 5.48865 7.69591C5.54758 7.63816 5.62751 7.60571 5.71086 7.60571C6.07675 7.60571 6.42766 7.74814 6.68638 8.00166C6.94511 8.25519 7.09046 8.59904 7.09046 8.95757C7.09046 9.3161 6.94511 9.65995 6.68638 9.91348C6.42766 10.167 6.07675 10.3094 5.71086 10.3094V10.3217Z" fill="#FF8926"/>
<path d="M5.70879 6.14304C5.62544 6.14304 5.54551 6.11059 5.48658 6.05284C5.42764 5.99509 5.39453 5.91677 5.39453 5.8351V5.40706C5.39453 5.32539 5.42764 5.24706 5.48658 5.18931C5.54551 5.13156 5.62544 5.09912 5.70879 5.09912C5.79214 5.09912 5.87207 5.13156 5.931 5.18931C5.98994 5.24706 6.02305 5.32539 6.02305 5.40706V5.8351C6.02305 5.91677 5.98994 5.99509 5.931 6.05284C5.87207 6.11059 5.79214 6.14304 5.70879 6.14304Z" fill="#FF8926"/>
<path d="M5.70879 10.7526C5.62544 10.7526 5.54551 10.7201 5.48658 10.6624C5.42764 10.6046 5.39453 10.5263 5.39453 10.4446V10.0135C5.39453 9.93184 5.42764 9.85351 5.48658 9.79576C5.54551 9.73801 5.62544 9.70557 5.70879 9.70557C5.79214 9.70557 5.87207 9.73801 5.931 9.79576C5.98994 9.85351 6.02305 9.93184 6.02305 10.0135V10.4446C6.02305 10.5263 5.98994 10.6046 5.931 10.6624C5.87207 10.7201 5.79214 10.7526 5.70879 10.7526Z" fill="#FF8926"/>
</svg>
