<svg width="48" height="48" viewBox="0 0 48 48" fill="none" xmlns="http://www.w3.org/2000/svg">
<path d="M19.16 11.0958C19.64 10.8758 20.144 10.6818 20.664 10.5238C24.424 9.37977 28.576 10.1378 31.552 12.5238C34.528 14.9038 35.876 18.5378 35.092 22.0618H37.072C40.898 22.0618 44 25.1818 44 29.0338C44 30.9478 43.234 32.6818 41.994 33.9418M36 36.0078H13.314C8.17 35.9998 4 31.9858 4 27.0338C4 22.0838 8.17 18.0698 13.314 18.0698C13.574 16.9058 14.054 15.8138 14.714 14.8298" stroke="#F04E39" stroke-width="3" stroke-linecap="round" stroke-linejoin="round"/>
<path d="M6 6L42 42" stroke="#F04E39" stroke-width="3" stroke-linecap="round" stroke-linejoin="round"/>
</svg>
