<svg width="65" height="64" viewBox="0 0 65 64" fill="none" xmlns="http://www.w3.org/2000/svg">
<rect x="0.5" width="64" height="64" rx="32" fill="#FFF9E6"/>
<circle opacity="0.07" cx="33" cy="32" r="32" fill="#FF8926"/>
<path d="M22.5 25H24.8333H43.5" stroke="black" stroke-width="2" stroke-linecap="round" stroke-linejoin="round"/>
<path d="M41.1673 24.9999V41.3333C41.1673 41.9521 40.9215 42.5456 40.4839 42.9832C40.0463 43.4208 39.4528 43.6666 38.834 43.6666H27.1673C26.5485 43.6666 25.955 43.4208 25.5174 42.9832C25.0798 42.5456 24.834 41.9521 24.834 41.3333V24.9999M28.334 24.9999V22.6666C28.334 22.0477 28.5798 21.4543 29.0174 21.0167C29.455 20.5791 30.0485 20.3333 30.6673 20.3333H35.334C35.9528 20.3333 36.5463 20.5791 36.9839 21.0167C37.4215 21.4543 37.6673 22.0477 37.6673 22.6666V24.9999" stroke="black" stroke-width="2" stroke-linecap="round" stroke-linejoin="round"/>
<path d="M30.666 30.8333V37.8333" stroke="black" stroke-width="2" stroke-linecap="round" stroke-linejoin="round"/>
<path d="M35.334 30.8333V37.8333" stroke="black" stroke-width="2" stroke-linecap="round" stroke-linejoin="round"/>
</svg>
