<svg width="106" height="106" viewBox="0 0 106 106" fill="none" xmlns="http://www.w3.org/2000/svg">
<circle cx="53" cy="53" r="35" fill="#E5AD4F"/>
<circle opacity="0.14" cx="53" cy="53" r="43" fill="#E5AD4F"/>
<circle opacity="0.07" cx="53" cy="53" r="53" fill="#E5AD4F"/>
<path d="M54.5 37.5C55.237 37.5 55.849 37.9516 55.9759 38.5479L56 38.7778V59.2222C56 59.9285 55.3291 60.5 54.5 60.5C53.763 60.5 53.151 60.0484 53.0241 59.4521L53 59.2222V38.7778C53 38.0715 53.6709 37.5 54.5 37.5Z" fill="white"/>
<path d="M54.5 62.5C55.237 62.5 55.849 63.0301 55.9759 63.7302L56 64V67C56 67.8291 55.3291 68.5 54.5 68.5C53.763 68.5 53.151 67.9699 53.0241 67.2698L53 67V64C53 63.1709 53.6709 62.5 54.5 62.5Z" fill="white"/>
</svg>
