<svg width="181" height="180" viewBox="0 0 181 180" fill="none" xmlns="http://www.w3.org/2000/svg">
<path d="M30.4981 117.092L25.7731 117.192L23.3751 117.232C22.5737 117.249 21.7684 117.246 20.9649 117.252L20.8051 117.254L20.8043 117.092L20.7849 113.064L20.7842 112.883L20.9649 112.884L25.7313 112.906C27.32 112.908 28.909 112.947 30.4977 112.965L30.5971 112.966L30.596 113.064C30.5891 113.747 30.565 114.427 30.5488 115.099L30.4981 117.092ZM30.4981 117.092L30.4469 115.056C30.4307 114.385 30.4066 113.722 30.3998 113.063L30.4981 113.161C28.9094 113.18 27.3203 113.219 25.7317 113.22L20.9653 113.243L21.1449 113.064L21.1255 117.092L20.9649 116.931C21.7504 116.938 22.5338 116.934 23.3215 116.951L25.6899 116.991L30.4981 117.092Z" fill="#EBEBEB"/>
<path d="M25.1807 122.17L20.4557 122.271L18.0577 122.311C17.2564 122.328 16.451 122.324 15.6475 122.331L15.4877 122.332L15.487 122.17L15.4675 118.142L15.4668 117.961L15.6475 117.962L20.4139 117.984C22.0026 117.986 23.5916 118.025 25.1803 118.043L25.2797 118.044L25.2786 118.142C25.2718 118.825 25.2476 119.505 25.2314 120.177L25.1807 122.17ZM25.1807 122.17L25.1296 120.135C25.1134 119.464 25.0892 118.801 25.0824 118.142L25.1807 118.24C23.592 118.258 22.003 118.297 20.4143 118.299L15.6479 118.322L15.8275 118.142L15.8081 122.17L15.6475 122.01C16.433 122.016 17.2164 122.013 18.0041 122.03L20.3725 122.07L25.1807 122.17Z" fill="#EBEBEB"/>
<path d="M93.6849 131.44L88.9599 131.54L86.562 131.58C85.7606 131.597 84.9553 131.594 84.1518 131.6L83.9919 131.601L83.9912 131.44L83.9718 127.411L83.9707 127.23L84.1514 127.231L88.9178 127.254C90.5065 127.256 92.0955 127.295 93.6842 127.313L93.7836 127.314L93.7825 127.411C93.7757 128.095 93.7515 128.775 93.7353 129.447L93.6849 131.44ZM93.6849 131.44L93.6338 129.404C93.6176 128.733 93.5935 128.07 93.5867 127.411L93.6849 127.509C92.0963 127.528 90.5072 127.567 88.9185 127.569L84.1521 127.591L84.3318 127.412L84.3123 131.44L84.1518 131.279C84.9373 131.286 85.7207 131.282 86.5083 131.299L88.8768 131.34L93.6849 131.44Z" fill="#EBEBEB"/>
<path d="M88.3672 136.518L83.6422 136.618L81.2442 136.658C80.4429 136.675 79.6376 136.672 78.834 136.678L78.6742 136.679L78.6735 136.518L78.654 132.489L78.6533 132.309L78.834 132.309L83.6004 132.332C85.1891 132.334 86.7782 132.372 88.3668 132.391L88.4662 132.392L88.4651 132.489C88.4583 133.173 88.4342 133.853 88.418 134.525L88.3672 136.518ZM88.3672 136.518L88.3161 134.482C88.2999 133.812 88.2758 133.148 88.2689 132.489L88.3672 132.588C86.7785 132.606 85.1895 132.645 83.6008 132.647L78.8344 132.669L79.014 132.49L78.9946 136.518L78.834 136.358C79.6196 136.364 80.4029 136.36 81.1906 136.377L83.559 136.418L88.3672 136.518Z" fill="#EBEBEB"/>
<path d="M83.0703 131.44L78.3453 131.54L75.9474 131.58C75.146 131.597 74.3407 131.594 73.5372 131.6L73.3773 131.601L73.3766 131.44L73.3572 127.411L73.3564 127.23L73.5372 127.231L78.3036 127.254C79.8922 127.256 81.4813 127.295 83.07 127.313L83.1693 127.314L83.1682 127.411C83.1614 128.095 83.1373 128.775 83.1211 129.447L83.0703 131.44ZM83.0703 131.44L83.0192 129.404C83.003 128.733 82.9789 128.07 82.972 127.411L83.0703 127.509C81.4816 127.528 79.8926 127.567 78.3039 127.569L73.5375 127.591L73.7172 127.412L73.6977 131.44L73.5372 131.279C74.3227 131.286 75.106 131.282 75.8937 131.299L78.2622 131.34L83.0703 131.44Z" fill="#EBEBEB"/>
<path d="M165.882 122.17L161.157 122.271L158.759 122.311C157.958 122.328 157.152 122.324 156.349 122.331L156.189 122.332L156.188 122.17L156.169 118.142L156.168 117.961L156.349 117.962L161.115 117.984C162.704 117.986 164.293 118.025 165.881 118.043L165.981 118.044L165.98 118.142C165.973 118.825 165.949 119.505 165.933 120.177L165.882 122.17ZM165.882 122.17L165.831 120.135C165.815 119.464 165.79 118.801 165.784 118.142L165.882 118.24C164.293 118.258 162.704 118.297 161.115 118.299L156.349 118.322L156.529 118.142L156.509 122.17L156.349 122.01C157.134 122.016 157.918 122.013 158.705 122.03L161.074 122.07L165.882 122.17Z" fill="#EBEBEB"/>
<path d="M160.564 20.49L155.839 20.5905L153.442 20.6308C152.64 20.6477 151.835 20.6441 151.031 20.6506L150.871 20.652L150.871 20.4904L150.851 16.462L150.851 16.2812L151.031 16.282L155.798 16.3047C157.386 16.3065 158.975 16.345 160.564 16.3637L160.663 16.3648L160.662 16.462C160.656 17.1456 160.631 17.8253 160.615 18.4974L160.564 20.49ZM160.564 20.49L160.513 18.4546C160.497 17.7839 160.473 17.1208 160.466 16.4616L160.564 16.5599C158.976 16.5783 157.387 16.6171 155.798 16.6189L151.032 16.6416L151.211 16.462L151.192 20.4904L151.031 20.3298C151.817 20.3363 152.6 20.3327 153.388 20.3496L155.756 20.3899L160.564 20.49Z" fill="#A8F3EE"/>
<path d="M165.882 25.5681L161.157 25.6686L158.759 25.7089C157.958 25.7258 157.152 25.7222 156.349 25.7287L156.189 25.7301L156.188 25.5685L156.169 21.5401L156.168 21.3594L156.349 21.3601L161.115 21.3828C162.704 21.3846 164.293 21.4231 165.881 21.4418L165.981 21.4429L165.98 21.5401C165.973 22.2237 165.949 22.9034 165.933 23.5755L165.882 25.5681ZM165.882 25.5681L165.831 23.5327C165.815 22.862 165.79 22.1989 165.784 21.5397L165.882 21.638C164.293 21.6564 162.704 21.6953 161.115 21.6971L156.349 21.7197L156.529 21.5401L156.509 25.5685L156.349 25.4079C157.134 25.4144 157.918 25.4108 158.705 25.4277L161.074 25.4681L165.882 25.5681Z" fill="#A8F3EE"/>
<path d="M25.1807 20.49L20.4557 20.5905L18.0577 20.6308C17.2564 20.6477 16.451 20.6441 15.6475 20.6506L15.4877 20.652L15.487 20.4904L15.4675 16.462L15.4668 16.2812L15.6475 16.282L20.4139 16.3047C22.0026 16.3065 23.5916 16.345 25.1803 16.3637L25.2797 16.3648L25.2786 16.462C25.2718 17.1456 25.2476 17.8253 25.2314 18.4974L25.1807 20.49ZM25.1807 20.49L25.1296 18.4546C25.1134 17.7839 25.0892 17.1208 25.0824 16.4616L25.1807 16.5599C23.592 16.5783 22.003 16.6171 20.4143 16.6189L15.6479 16.6416L15.8275 16.462L15.8081 20.4904L15.6475 20.3298C16.433 20.3363 17.2164 20.3327 18.0041 20.3496L20.3725 20.3899L25.1807 20.49Z" fill="#A8F3EE"/>
<path d="M26.1364 0H25.7764V31.5508H26.1364V0Z" fill="#12486B"/>
<path d="M36.912 42.1143L36.0307 44.0511H15.8794L15.001 42.1143L23.5801 36.1758H28.3329L36.912 42.1143Z" fill="#EBEBEB"/>
<path d="M28.928 30.4531L28.3325 36.1742H23.5798L22.9844 30.4531H28.928Z" fill="#DBDBDB"/>
<path d="M36.9114 42.1133L36.0301 44.0504H15.8788L15 42.1133H36.9114Z" fill="#DBDBDB"/>
<path d="M49.6598 0H49.2998V25.3012H49.6598V0Z" fill="#12486B"/>
<path d="M60.4358 35.864L59.5545 37.8011H39.4032L38.5244 35.864L47.1036 29.9258H51.8567L60.4358 35.864Z" fill="#EBEBEB"/>
<path d="M52.4514 24.2031L51.8563 29.9242H47.1033L46.5078 24.2031H52.4514Z" fill="#DBDBDB"/>
<path d="M60.4345 35.8633L59.5532 37.8001H39.4018L38.5234 35.8633H60.4345Z" fill="#DBDBDB"/>
<path d="M151.641 86.8477H114.189V138.676H151.641V86.8477Z" fill="#DBDBDB"/>
<path d="M153.456 84.9258H112.375V86.8489H153.456V84.9258Z" fill="#EBEBEB"/>
<path d="M166.375 84.9258H153.455V86.8489H166.375V84.9258Z" fill="#DBDBDB"/>
<path d="M164.329 86.8477H151.641V138.676H164.329V86.8477Z" fill="#EBEBEB"/>
<path d="M147.608 110.836H118.224V94.2305H147.608V110.836ZM118.314 110.746H147.518V94.3205H118.314V110.746Z" fill="#A6A6A6"/>
<path d="M134.536 99.082H128.814V102.37H134.536V99.082Z" fill="#A6A6A6"/>
<path d="M136.271 102.167H130.46V99.2852H136.271V102.167ZM130.55 102.077H136.181V99.3752H130.55V102.077Z" fill="#A6A6A6"/>
<path d="M147.608 131.699H118.224V115.094H147.608V131.699ZM118.314 131.609H147.518V115.184H118.314V131.609Z" fill="#A6A6A6"/>
<path d="M134.536 119.945H128.814V123.234H134.536V119.945Z" fill="#A6A6A6"/>
<path d="M136.271 123.031H130.46V120.148H136.271V123.031ZM130.55 122.941H136.181V120.238H130.55V122.941Z" fill="#A6A6A6"/>
<path d="M157.994 16.1875H120.125V37.376H157.994V16.1875Z" fill="#DBDBDB"/>
<path d="M113.039 37.3743H120.125V29.9961L113.039 37.3743Z" fill="#DBDBDB"/>
<path d="M149.932 27.25H124.596V27.7065H149.932V27.25Z" fill="white"/>
<path d="M144.722 29.7188H124.596V30.1752H144.722V29.7188Z" fill="white"/>
<path d="M146.241 22.3203H124.596V22.7768H146.241V22.3203Z" fill="white"/>
<path d="M152.857 19.8555H124.596V20.3119H152.857V19.8555Z" fill="white"/>
<path d="M146.809 32.1836H124.596V32.6401H146.809V32.1836Z" fill="white"/>
<path d="M100.217 165.625C134.242 165.625 161.824 162.612 161.824 158.896C161.824 155.18 134.242 152.168 100.217 152.168C66.1927 152.168 38.6104 155.18 38.6104 158.896C38.6104 162.612 66.1927 165.625 100.217 165.625Z" fill="#EBEBEB"/>
<path d="M31.8219 99.5769C32.1106 101.553 32.0026 103.589 31.5209 105.523C31.2948 106.429 30.9841 107.302 30.6097 108.152C30.1367 109.24 29.6424 110.302 29.7616 111.493C29.8764 111.569 29.4822 111.557 29.4693 111.441C26.2883 109.63 22.2088 109.298 19.7608 106.337C18.6012 104.934 18.0162 103.157 17.739 101.379C17.4381 99.4437 17.3542 97.3006 17.8539 95.393C18.2747 93.7795 19.2175 92.2232 20.7339 91.4326C22.2988 90.6187 24.3486 90.6867 25.9963 91.1983C29.5513 92.302 31.3189 96.1378 31.8219 99.5769Z" fill="#016B83"/>
<path d="M33.455 123.123C33.0208 121.677 32.587 120.229 32.1413 118.786C31.2683 115.959 30.3611 113.142 29.3567 110.358C28.7551 108.691 28.1205 107.04 27.4527 105.404C27.5664 104.377 27.6114 103.353 27.8325 102.329C28.0985 101.096 28.4848 99.9045 28.8444 98.6978C28.8664 98.6236 28.7461 98.5843 28.7159 98.6549C28.0017 100.317 27.0696 102.445 27.0466 104.415C26.2697 102.564 25.4399 100.739 24.5464 98.9418C24.496 97.41 24.4402 95.9254 24.6864 94.3839C24.6976 94.3144 24.5917 94.2939 24.5791 94.363C24.3401 95.6572 24.1716 97.0453 24.2678 98.3863C23.5838 97.0363 22.8637 95.7026 22.0969 94.3896C22.0278 94.2712 21.8644 94.3921 21.9249 94.5088C23.1204 96.8106 24.2292 99.1607 25.2696 101.542C23.8285 100.264 22.0836 99.2968 20.2822 98.6538C20.203 98.6258 20.1432 98.7402 20.2239 98.7737C22.2741 99.6305 23.9952 100.842 25.6185 102.345C26.3662 104.089 27.0786 105.848 27.7569 107.618C25.7664 105.667 23.0427 104.383 20.4078 103.695C20.3178 103.672 20.2944 103.809 20.3805 103.835C23.4293 104.753 25.7981 106.482 28.1169 108.558C28.3861 109.275 28.6507 109.992 28.9099 110.711C29.8924 113.437 30.8237 116.182 31.7165 118.938C32.1445 120.26 32.5658 121.583 32.9794 122.91C33.4243 124.336 33.7721 125.842 34.3513 127.22C34.4068 127.352 34.643 127.321 34.6131 127.164C34.3521 125.798 33.8549 124.455 33.455 123.123Z" fill="#263238"/>
<path d="M28.1776 96.7895C27.6077 97.6628 27.2272 98.6229 27.0317 99.645C27.0266 99.6713 27.0677 99.6867 27.0774 99.6601C27.432 98.6978 27.8489 97.7687 28.3194 96.8582C28.3673 96.7653 28.2312 96.707 28.1776 96.7895Z" fill="#263238"/>
<path d="M22.503 103.418C21.6797 102.95 20.5867 102.58 19.6482 102.457C19.6223 102.454 19.6061 102.492 19.6331 102.503C20.0921 102.693 20.5741 102.826 21.0389 103.005C21.5054 103.184 21.9601 103.402 22.4317 103.566C22.5296 103.6 22.5966 103.472 22.503 103.418Z" fill="#263238"/>
<path d="M20.9039 95.446C20.6148 95.2545 20.3067 95.0086 19.9855 94.879C19.9351 94.8585 19.8909 94.9211 19.9326 94.9597C20.1871 95.194 20.5421 95.3683 20.8377 95.5468C20.8963 95.5818 20.9615 95.4838 20.9039 95.446Z" fill="#263238"/>
<path d="M42.5467 110.381C40.2556 111.061 37.9527 111.69 35.662 112.362C35.463 112.422 31.5901 105 32.9898 101.177C34.2836 97.6384 37.2453 94.9899 40.7769 93.7878C42.4128 93.232 44.4241 92.7654 46.1521 93.1467C47.6886 93.4869 48.774 94.7443 49.2733 96.1894C49.9533 98.1535 49.7265 100.496 49.3568 102.502C49.013 104.361 48.3326 106.192 47.1025 107.653C45.8853 109.099 44.3323 109.852 42.5467 110.381Z" fill="#016B83"/>
<path d="M45.8679 103.328C44.4091 104.063 42.931 104.596 41.3758 105.096C40.402 105.409 39.3108 105.692 38.377 106.182C39.3443 104.025 40.4059 101.913 41.5331 99.8199C43.0131 99.3915 44.5697 98.7237 45.6857 97.6761C45.7465 97.6193 45.6684 97.5332 45.6022 97.5797C44.3814 98.4422 43.035 98.9603 41.6843 99.5435C41.9892 98.9804 42.2963 98.4177 42.6102 97.8565C42.6977 97.7006 42.4828 97.5455 42.3777 97.697C41.1771 99.4297 40.0967 101.266 39.1222 103.164C38.8803 101.49 38.7935 99.8585 38.8867 98.1549C38.8889 98.1114 38.8266 98.1081 38.8201 98.1503C38.5368 99.9517 38.5501 101.858 38.8767 103.655C38.0731 105.258 37.3413 106.901 36.6835 108.565C36.4222 107.565 36.0823 106.581 35.8559 105.574C35.5297 104.124 35.3767 102.646 35.5269 101.163C35.5312 101.12 35.4675 101.117 35.4603 101.159C35.016 103.788 35.4214 106.757 36.4215 109.255C36.0384 110.256 35.673 111.261 35.3389 112.268C33.6282 117.423 32.5738 122.738 32.298 128.165C32.2915 128.29 32.4773 128.302 32.4917 128.179C33.1141 122.856 34.2132 117.558 35.9059 112.47C36.5705 110.472 37.3351 108.533 38.1743 106.63C39.5272 106.23 40.8754 105.687 42.2045 105.227C43.5016 104.778 44.8303 104.258 45.9193 103.406C45.9618 103.372 45.915 103.304 45.8679 103.328Z" fill="#263238"/>
<path d="M48.004 101.171C46.6029 101.669 45.2749 102.367 43.8748 102.872C43.8093 102.896 43.8475 103 43.9133 102.986C45.3944 102.68 46.8635 102.223 48.0569 101.251C48.103 101.214 48.0526 101.154 48.004 101.171Z" fill="#263238"/>
<path d="M36.5634 98.1473C36.5803 98.0732 36.4716 98.0303 36.4489 98.1066C36.0648 99.3983 35.7995 100.769 36.1732 102.089C36.1879 102.141 36.2693 102.142 36.2722 102.083C36.3395 100.753 36.2653 99.4584 36.5634 98.1473Z" fill="#263238"/>
<path d="M42.3527 95.164C41.8833 95.7634 41.7141 96.6148 41.7447 97.3603C41.7468 97.4096 41.8253 97.4381 41.8386 97.3801C42.0093 96.6414 42.2948 95.9678 42.5216 95.25C42.555 95.1445 42.4193 95.079 42.3527 95.164Z" fill="#263238"/>
<path d="M15.2946 113.653C15.9664 115.785 17.5623 118.732 20.0898 118.755C21.7282 118.77 23.3784 118.576 25.0208 118.553C26.7797 118.526 28.5423 118.53 30.2973 118.635C30.4409 118.642 30.0867 113.368 25.8592 110.799C24.6748 110.08 23.2269 109.852 21.8834 109.561C20.3458 109.226 18.7618 109.001 17.1854 109.071C16.2148 109.11 15.407 109.316 15.0614 110.31C14.7003 111.35 14.9721 112.64 15.2946 113.653Z" fill="#016B83"/>
<path d="M17.113 110.984C18.1401 111.248 19.1765 111.551 20.2075 111.879C19.9321 111.593 19.6632 111.303 19.3558 111.048C18.913 110.679 18.4259 110.386 17.9511 110.063C17.9115 110.036 17.9352 109.96 17.986 109.98C18.9234 110.348 19.8983 111.118 20.479 111.962C21.7638 112.378 23.0364 112.835 24.2611 113.338C25.1305 113.695 25.9323 114.121 26.6829 114.613C26.4132 114.092 26.167 113.556 25.8066 113.089C25.2457 112.362 24.4865 111.957 23.7521 111.44C23.6826 111.391 23.7417 111.294 23.818 111.328C25.4769 112.065 26.4856 113.262 27.1145 114.903C27.9817 115.521 28.7755 116.243 29.5125 117.08C32.3093 120.256 34.5118 124.483 34.5201 128.796C34.5204 128.899 34.3552 128.928 34.3354 128.821C33.5416 124.537 31.8499 120.69 29.0016 117.365C28.8015 117.131 28.5963 116.908 28.3867 116.694C27.6178 116.613 26.8557 116.51 26.0763 116.522C25.1763 116.536 24.2835 116.654 23.3874 116.727C21.9118 116.847 20.2799 116.865 18.949 116.122C18.8903 116.089 18.9299 115.988 18.9958 116.011C21.9633 117.09 25.0755 115.722 28.0501 116.365C26.7811 115.148 25.3397 114.231 23.6635 113.536C23.5728 113.499 23.4814 113.463 23.3907 113.427C21.4863 113.656 19.4757 114.152 17.6209 113.533C17.5659 113.514 17.5878 113.431 17.6451 113.445C19.4371 113.892 21.1558 113.33 22.9245 113.24C20.9988 112.491 19.0365 111.894 17.104 111.15C16.9409 111.087 16.9373 110.938 17.113 110.984Z" fill="#263238"/>
<path d="M16.273 112.86C17.2029 113.013 18.1105 113.018 19.045 113.07C19.0663 113.071 19.0731 113.103 19.0504 113.109C18.1389 113.314 17.1417 113.188 16.2539 112.93C16.2075 112.917 16.2277 112.852 16.273 112.86Z" fill="#263238"/>
<path d="M22.5332 111.031C23.0387 111.206 23.5095 111.635 23.9052 111.985C23.9534 112.028 23.8886 112.114 23.8353 112.076C23.6028 111.906 23.3634 111.747 23.1218 111.591C22.9015 111.449 22.6553 111.335 22.4537 111.168C22.3907 111.116 22.458 111.005 22.5332 111.031Z" fill="#263238"/>
<path d="M37.4599 117.898C37.429 117.968 37.5298 118.034 37.5686 117.96C37.5726 117.96 37.5726 117.96 37.5726 117.956C37.5881 117.976 37.6075 117.995 37.6385 117.999C39.347 118.368 41.0632 118.745 42.8023 118.9C44.2002 119.024 45.8116 119.102 47.0345 118.29C48.6923 117.192 49.7834 114.252 48.8863 112.385C47.8265 110.168 44.6308 111.372 43.0273 112.16C40.562 113.363 38.582 115.397 37.4599 117.898Z" fill="#016B83"/>
<path d="M36.2203 118.923C37.1607 118.003 38.2007 117.237 39.3037 116.576C40.0597 115.293 41.22 114.227 42.4307 113.389C42.4912 113.348 42.543 113.443 42.4872 113.486C41.4432 114.29 40.6285 115.233 39.8524 116.258C41.0861 115.57 42.3904 115.003 43.7209 114.498C44.1843 113.649 44.9388 112.853 45.7989 112.416C45.8161 112.407 45.8381 112.431 45.8208 112.444C45.0706 113.032 44.4683 113.641 43.9438 114.414C44.7297 114.121 45.5235 113.847 46.3169 113.584C46.3885 113.56 46.4152 113.669 46.3475 113.695C44.9352 114.247 43.4913 114.829 42.0916 115.501C43.8581 115.738 45.4489 115.793 47.2453 115.486C47.2925 115.478 47.3134 115.545 47.2655 115.559C45.5321 116.054 43.5445 116.145 41.7971 115.641C40.9043 116.079 40.0331 116.558 39.2033 117.093C39.8977 117.003 40.5961 117.125 41.2999 117.265C42.5272 117.508 43.7274 117.725 44.9838 117.682C45.0306 117.68 45.0429 117.757 44.995 117.765C42.8577 118.133 40.837 117.162 38.7187 117.414C37.9343 117.954 37.1927 118.549 36.5127 119.216C35.1814 120.523 34.1161 122.085 33.2953 123.756C32.4036 125.57 31.9201 127.494 31.1994 129.369C31.1677 129.452 31.0533 129.42 31.0677 129.333C31.6858 125.636 33.5268 121.559 36.2203 118.923Z" fill="#263238"/>
<path d="M42.6656 113.852C42.7902 113.597 43.0084 113.38 43.2132 113.189C43.3921 113.021 43.6106 112.804 43.8443 112.716C43.8659 112.708 43.8778 112.737 43.8648 112.752C43.6898 112.951 43.4458 113.096 43.2568 113.287C43.0663 113.479 42.9086 113.703 42.716 113.891C42.689 113.917 42.6502 113.884 42.6656 113.852Z" fill="#263238"/>
<path d="M46.1912 115.003C46.508 114.923 46.8435 114.929 47.1657 114.863C47.4918 114.796 47.7946 114.68 48.1103 114.58C48.1517 114.567 48.1762 114.627 48.1395 114.649C47.6193 114.958 46.7985 115.221 46.1912 115.102C46.1404 115.092 46.1436 115.014 46.1912 115.003Z" fill="#263238"/>
<path d="M27.4131 124.773L27.6935 127.959L28.6454 138.716H37.0694L38.2588 127.959L38.6102 124.773H27.4131Z" fill="#455A64"/>
<path d="M27.4131 124.773L27.6935 127.959H38.2588L38.6102 124.773H27.4131Z" fill="#263238"/>
<path d="M26.579 126.492H39.4443V123.908H26.579V126.492Z" fill="#455A64"/>
<path d="M14.8896 138.676L33.7925 138.588L52.695 138.557L90.5005 138.496L128.306 138.556L147.208 138.588L166.111 138.676L147.208 138.764L128.306 138.796L90.5005 138.855L52.695 138.795L33.7925 138.763L14.8896 138.676Z" fill="#263238"/>
<path d="M110.039 27.1172H51.8444C48.595 27.1172 45.958 29.7988 45.958 33.1137V152.907C45.958 156.215 48.5946 158.903 51.8444 158.903H110.039C113.288 158.903 115.932 156.215 115.932 152.907V33.1137C115.932 29.7988 113.288 27.1172 110.039 27.1172ZM112.248 149.203C112.248 152.356 109.887 154.907 106.975 154.907H54.9148C51.9959 154.907 49.6343 152.356 49.6343 149.203V37.654C49.6343 31.2309 51.9956 30.9177 54.9148 30.9177H65.3447C65.9506 30.9177 66.4463 31.606 66.4463 32.4599V32.8282C66.4463 34.828 67.5411 34.8352 68.8835 34.8352H92.9999C94.356 34.8352 95.444 34.8284 95.444 32.8282V32.4599C95.444 31.6064 95.9328 30.9177 96.5488 30.9177H106.975C109.888 30.9177 112.249 31.7713 112.249 37.654V149.203H112.248Z" fill="#263238"/>
<path d="M112.249 37.6543V149.203C112.249 152.356 109.888 154.907 106.975 154.907H54.9152C51.9964 154.907 49.6348 152.356 49.6348 149.203V37.6543C49.6348 31.2312 51.996 30.918 54.9152 30.918H65.3452C65.951 30.918 66.4468 31.6063 66.4468 32.4602V32.8285C66.4468 34.8283 67.5415 34.8355 68.884 34.8355H93.0004C94.3565 34.8355 95.4444 34.8286 95.4444 32.8285V32.4602C95.4444 31.6067 95.9333 30.918 96.5493 30.918H106.976C109.888 30.9176 112.249 31.7715 112.249 37.6543Z" fill="white"/>
<path d="M63.5443 33.423C63.5108 33.4565 63.477 33.4896 63.4435 33.5231C63.4244 33.5422 63.4054 33.5613 63.3863 33.5803C63.1156 33.3175 62.7933 33.1775 62.4161 33.1775C62.0388 33.1775 61.7166 33.3172 61.4437 33.5814C61.4257 33.5627 61.4077 33.5433 61.3893 33.5245C61.3562 33.4911 61.3231 33.4579 61.29 33.4245C61.2893 33.4237 61.2882 33.4234 61.2871 33.4227C61.2871 33.4219 61.2871 33.4209 61.2871 33.4201C61.2896 33.418 61.2921 33.4162 61.2947 33.414C61.3371 33.3762 61.3782 33.3373 61.4221 33.3013C61.5125 33.2268 61.6118 33.1653 61.7166 33.1134C61.8408 33.0522 61.9707 33.0072 62.1072 32.982C62.1716 32.9701 62.2372 32.964 62.3023 32.9561C62.3246 32.9536 62.4686 32.9529 62.473 32.9532C62.5172 32.9565 62.5619 32.9586 62.6061 32.9633C62.7293 32.9766 62.8484 33.0065 62.9643 33.049C63.0482 33.0796 63.1292 33.1177 63.2066 33.1624C63.2887 33.2095 63.3661 33.2632 63.4381 33.3244C63.4745 33.3553 63.509 33.3881 63.5447 33.4201C63.5443 33.4212 63.5443 33.4219 63.5443 33.423Z" fill="white"/>
<path d="M61.7636 33.8974C61.7103 33.8445 61.6581 33.7926 61.6045 33.7393C61.7859 33.5615 62.0001 33.4481 62.2521 33.4143C62.6287 33.3631 62.9523 33.4776 63.2267 33.7372C63.1727 33.7912 63.1201 33.8434 63.0668 33.8963C62.8868 33.7213 62.6697 33.627 62.4156 33.627C62.1614 33.627 61.9451 33.7213 61.7636 33.8974Z" fill="white"/>
<path d="M62.9077 34.0566C62.8551 34.1092 62.8026 34.1614 62.7493 34.2147C62.6575 34.1257 62.5463 34.0764 62.4156 34.0764C62.2853 34.0764 62.1744 34.1254 62.0819 34.2154C62.029 34.1625 61.9764 34.1099 61.9238 34.0573C62.1755 33.7938 62.6287 33.7726 62.9077 34.0566Z" fill="white"/>
<path d="M62.5583 34.3578C62.5583 34.437 62.4942 34.5007 62.4154 34.5007C62.3365 34.5007 62.2725 34.4366 62.2725 34.3578C62.2725 34.2789 62.3365 34.2148 62.4154 34.2148C62.4942 34.2148 62.5583 34.2789 62.5583 34.3578Z" fill="white"/>
<path d="M53.7188 33.7276C53.7188 33.4983 53.9045 33.3125 54.1338 33.3125C54.3631 33.3125 54.5489 33.4983 54.5489 33.7276C54.5489 33.9569 54.3631 34.1427 54.1338 34.1427C53.9045 34.1427 53.7188 33.9565 53.7188 33.7276Z" fill="white"/>
<path d="M55.0254 33.7276C55.0254 33.4983 55.2112 33.3125 55.4405 33.3125C55.6694 33.3125 55.8556 33.4983 55.8556 33.7276C55.8556 33.9569 55.6698 34.1427 55.4405 34.1427C55.2115 34.1423 55.0254 33.9565 55.0254 33.7276Z" fill="white"/>
<path d="M56.333 33.7276C56.333 33.4983 56.5188 33.3125 56.7481 33.3125C56.9774 33.3125 57.1632 33.4983 57.1632 33.7276C57.1632 33.9569 56.9774 34.1427 56.7481 34.1427C56.5188 34.1423 56.333 33.9565 56.333 33.7276Z" fill="white"/>
<path d="M57.6396 33.7276C57.6396 33.4983 57.8254 33.3125 58.0547 33.3125C58.284 33.3125 58.4698 33.4983 58.4698 33.7276C58.4698 33.9569 58.284 34.1427 58.0547 34.1427C57.8254 34.1423 57.6396 33.9565 57.6396 33.7276Z" fill="white"/>
<path d="M58.9463 33.7276C58.9463 33.4983 59.132 33.3125 59.3614 33.3125C59.5907 33.3125 59.7764 33.4983 59.7764 33.7276C59.7764 33.9569 59.5907 34.1427 59.3614 34.1427C59.132 34.1423 58.9463 33.9565 58.9463 33.7276Z" fill="white"/>
<path d="M107.553 34.6352H104.175V33.0703H107.553V34.6352ZM104.347 34.4628H107.381V33.2424H104.347V34.4628Z" fill="white"/>
<path d="M106.633 33.3359H104.455V34.3691H106.633V33.3359Z" fill="white"/>
<path d="M107.855 33.4336H107.555V34.2706H107.855V33.4336Z" fill="white"/>
<path d="M84.2328 32.3363H77.6545C77.4298 32.3363 77.248 32.1545 77.248 31.9299C77.248 31.7056 77.4298 31.5234 77.6545 31.5234H84.2328C84.4574 31.5234 84.6392 31.7052 84.6392 31.9299C84.6392 32.1542 84.4574 32.3363 84.2328 32.3363Z" fill="white"/>
<path d="M120.586 155.256C119.898 154.762 106.453 136.168 106.389 135.134C106.361 134.744 108.957 132.627 112.163 130.161C112.854 129.625 122.346 118.738 122.346 118.738L131.142 130.829L120.868 142.122C120.868 142.122 122.83 151.545 122.78 152.683C122.727 153.819 121.272 155.746 120.586 155.256Z" fill="#AD6359"/>
<path d="M120.585 155.254C119.899 154.762 106.453 136.168 106.391 135.134C106.362 134.741 108.957 132.627 112.165 130.161C112.406 129.972 113.728 128.512 115.347 126.695L124.049 138.629L120.871 142.122C120.871 142.122 122.83 151.544 122.78 152.682C122.728 153.818 121.273 155.745 120.585 155.254Z" fill="#EBEBEB"/>
<path d="M120.602 155.33C119.911 154.835 106.389 136.137 106.324 135.098C106.3 134.712 108.845 132.728 111.823 130.099C112.541 129.465 113.181 128.65 113.985 128.043L122.816 140.181L120.883 142.124C120.883 142.124 122.858 151.598 122.807 152.745C122.753 153.888 121.292 155.825 120.602 155.33Z" fill="#FF8926"/>
<path d="M121.155 154.521C118.966 151.331 109.833 138.672 107.426 135.685C107.406 135.661 107.389 135.673 107.406 135.699C109.508 138.908 118.743 151.494 121.104 154.559C121.154 154.623 121.202 154.588 121.155 154.521Z" fill="#263238"/>
<path d="M121.898 142.064C121.236 140.664 119.956 139.293 118.396 138.985C118.336 138.974 118.319 139.06 118.361 139.091C119.625 140.03 120.693 140.989 121.739 142.171C121.813 142.255 121.946 142.164 121.898 142.064Z" fill="#263238"/>
<path d="M122.005 143.341C121.344 141.942 120.064 140.57 118.503 140.263C118.443 140.251 118.427 140.337 118.468 140.368C119.732 141.307 120.8 142.266 121.846 143.449C121.92 143.533 122.053 143.442 122.005 143.341Z" fill="#263238"/>
<path d="M122.113 144.619C121.451 143.218 120.171 141.847 118.611 141.54C118.55 141.528 118.534 141.614 118.576 141.645C119.839 142.585 120.908 143.543 121.954 144.727C122.027 144.81 122.16 144.719 122.113 144.619Z" fill="#263238"/>
<path d="M122.221 145.896C121.559 144.496 120.278 143.125 118.718 142.818C118.658 142.806 118.642 142.892 118.683 142.923C119.947 143.862 121.015 144.82 122.061 146.004C122.135 146.087 122.268 145.996 122.221 145.896Z" fill="#263238"/>
<path d="M126.398 142.275C126.714 141.308 125.762 140.623 124.957 140.421C123.653 140.093 122.031 140.155 120.758 140.564C120.726 140.574 120.723 140.602 120.734 140.625C120.643 140.697 120.605 140.853 120.72 140.93C121.834 141.676 122.932 142.611 124.241 142.993C125.006 143.216 126.098 143.19 126.398 142.275ZM122.64 141.715C122.083 141.362 121.547 140.983 120.978 140.651C121.797 140.625 122.611 140.564 123.432 140.621C123.824 140.648 124.226 140.683 124.611 140.764C125.21 140.889 126.972 141.828 125.461 142.589C124.628 143.009 123.303 142.137 122.64 141.715Z" fill="#263238"/>
<path d="M118.813 137.198C119.115 138.528 119.982 139.68 120.659 140.837C120.73 140.957 120.888 140.928 120.965 140.841C120.987 140.853 121.015 140.852 121.027 140.821C121.513 139.575 121.672 137.96 121.425 136.639C121.272 135.823 120.645 134.831 119.66 135.088C118.728 135.333 118.637 136.421 118.813 137.198ZM119.29 136.005C120.141 134.543 120.972 136.358 121.061 136.964C121.118 137.353 121.129 137.756 121.132 138.149C121.14 138.972 121.029 139.781 120.954 140.597C120.656 140.009 120.311 139.451 119.992 138.874C119.611 138.186 118.821 136.811 119.29 136.005Z" fill="#263238"/>
<path d="M129.388 107.976C128.556 112.09 114.908 125.021 114.908 125.021L126.809 138.759C126.809 138.759 147.621 118.053 146.357 108.963C145.257 101.056 133.419 69.2578 133.419 69.2578H119.761C119.761 69.2578 130.207 103.93 129.388 107.976Z" fill="#263238"/>
<path d="M129.388 107.976C128.556 112.09 114.908 125.021 114.908 125.021L126.809 138.759C126.809 138.759 147.621 118.053 146.357 108.963C145.257 101.056 133.419 69.2578 133.419 69.2578H119.761C119.761 69.2578 130.207 103.93 129.388 107.976Z" fill="#252A2E"/>
<path d="M128.162 135.495C126.581 133.526 127.062 134.069 125.459 132.118C124.675 131.163 119.513 124.896 118.626 124.134C118.606 124.117 118.573 124.145 118.586 124.167C119.181 125.175 124.451 131.352 125.253 132.291C126.894 134.21 126.444 133.641 128.106 135.542C128.137 135.577 128.192 135.532 128.162 135.495Z" fill="#263238"/>
<path d="M131.084 105.972C130.889 104.945 130.667 103.922 130.449 102.9C130.005 100.811 129.535 98.7278 129.04 96.6509C128.057 92.5314 126.992 88.4343 125.831 84.3609C124.667 80.2734 123.436 76.1939 122.019 72.1864C121.844 71.691 121.663 71.1978 121.483 70.7046C121.469 70.6672 121.411 70.6838 121.423 70.7226C122.65 74.7374 123.915 78.7402 125.066 82.7776C126.213 86.7988 127.273 90.8412 128.273 94.901C128.775 96.9393 129.242 98.9859 129.699 101.035C129.923 102.041 130.143 103.049 130.357 104.058C130.573 105.081 130.865 106.128 130.929 107.174C130.991 108.203 130.656 109.114 130.126 109.981C129.614 110.819 129.012 111.607 128.429 112.397C127.263 113.979 119.569 122.881 119.211 123.217C119.183 123.243 119.226 123.283 119.255 123.258C120.746 121.919 126.755 115.195 127.953 113.616C128.546 112.834 129.123 112.041 129.69 111.241C130.22 110.492 130.754 109.728 131.047 108.85C131.361 107.906 131.267 106.932 131.084 105.972Z" fill="#263238"/>
<path d="M131.056 69.2578L128.577 101.798C126.21 90.6602 119.763 69.2578 119.763 69.2578H131.056Z" fill="#263238"/>
<path d="M155.109 158.688C154.305 158.953 131.359 158.861 130.486 158.304C130.154 158.096 129.974 154.751 129.87 150.708C129.845 149.834 126.641 135.75 126.641 135.75L141.592 135.766L144.664 150.722C144.664 150.722 153.433 154.688 154.323 155.4C155.21 156.112 155.91 158.423 155.109 158.688Z" fill="#AD6359"/>
<path d="M155.107 158.689C154.305 158.953 131.36 158.861 130.487 158.302C130.153 158.094 129.973 154.752 129.871 150.706C129.861 150.4 129.46 148.472 128.946 146.094H143.716L144.666 150.72C144.666 150.72 153.433 154.689 154.323 155.399C155.209 156.11 155.91 158.421 155.107 158.689Z" fill="#EBEBEB"/>
<path d="M155.179 158.72C154.372 158.986 131.297 158.894 130.419 158.335C130.092 158.127 129.99 154.901 129.62 150.947C129.531 149.993 129.249 148.996 129.232 147.988L144.243 148.004L144.674 150.711C144.674 150.711 153.493 154.698 154.39 155.415C155.282 156.132 155.986 158.453 155.179 158.72Z" fill="#FF8926"/>
<path d="M155.179 158.72C154.372 158.986 131.297 158.894 130.419 158.335C130.092 158.127 129.99 154.901 129.62 150.947C129.531 149.993 129.249 148.996 129.232 147.988L144.243 148.004L144.674 150.711C144.674 150.711 153.493 154.698 154.39 155.415C155.282 156.132 155.986 158.453 155.179 158.72Z" fill="#FF8926"/>
<path d="M154.852 157.795C150.984 157.685 135.375 157.605 131.543 157.79C131.512 157.791 131.512 157.812 131.543 157.814C135.374 158.007 150.984 157.961 154.852 157.859C154.934 157.856 154.934 157.798 154.852 157.795Z" fill="#263238"/>
<path d="M145.223 149.854C143.702 149.564 141.839 149.79 140.672 150.87C140.627 150.912 140.687 150.975 140.736 150.96C142.24 150.493 143.643 150.194 145.216 150.046C145.327 150.036 145.332 149.875 145.223 149.854Z" fill="#263238"/>
<path d="M146.319 150.522C144.798 150.232 142.935 150.458 141.768 151.538C141.723 151.58 141.783 151.643 141.832 151.628C143.336 151.161 144.739 150.862 146.312 150.714C146.423 150.704 146.428 150.543 146.319 150.522Z" fill="#263238"/>
<path d="M147.415 151.186C145.894 150.896 144.032 151.122 142.865 152.202C142.819 152.244 142.879 152.307 142.929 152.292C144.432 151.825 145.836 151.526 147.409 151.378C147.519 151.368 147.524 151.207 147.415 151.186Z" fill="#263238"/>
<path d="M148.511 151.854C146.99 151.564 145.128 151.79 143.96 152.87C143.915 152.912 143.975 152.975 144.025 152.96C145.529 152.493 146.932 152.194 148.505 152.046C148.615 152.036 148.62 151.875 148.511 151.854Z" fill="#263238"/>
<path d="M148.048 146.346C147.453 145.519 146.338 145.885 145.701 146.417C144.668 147.278 143.762 148.624 143.343 149.894C143.332 149.925 143.353 149.944 143.378 149.949C143.382 150.065 143.486 150.188 143.616 150.14C144.875 149.68 146.278 149.344 147.357 148.511C147.988 148.025 148.611 147.127 148.048 146.346ZM145.382 149.052C144.768 149.294 144.146 149.504 143.542 149.768C144.004 149.091 144.434 148.397 144.964 147.767C145.216 147.467 145.482 147.162 145.774 146.899C146.228 146.488 148.024 145.619 147.749 147.288C147.598 148.208 146.113 148.764 145.382 149.052Z" fill="#263238"/>
<path d="M139.475 149.483C140.728 150.022 142.17 150.001 143.503 150.136C143.642 150.15 143.711 150.005 143.687 149.892C143.71 149.881 143.725 149.857 143.707 149.829C142.987 148.703 141.775 147.622 140.562 147.044C139.813 146.687 138.642 146.609 138.27 147.556C137.919 148.453 138.744 149.168 139.475 149.483ZM138.793 148.395C138.113 146.846 140.069 147.244 140.611 147.529C140.959 147.712 141.291 147.941 141.61 148.17C142.28 148.649 142.868 149.215 143.483 149.756C142.832 149.65 142.178 149.6 141.524 149.518C140.744 149.42 139.167 149.249 138.793 148.395Z" fill="#263238"/>
<path d="M133.269 69.2588C133.253 69.5454 132.49 72.1608 132.095 76.0736C131.811 78.9316 131.454 81.4603 131.073 81.7749C130.641 82.1299 128.483 83.5166 127.756 83.9598C127.756 83.9598 134.486 104.359 136.223 111.159C138.74 121.017 143.901 145.011 143.901 145.011L127.835 145.009C127.835 145.009 123.818 122.434 121.683 113.049C119.852 105.003 112.838 80.8652 112.838 80.8652C110.287 74.5908 113.406 69.2584 113.406 69.2584C113.406 69.2584 133.271 69.248 133.269 69.2588Z" fill="#252A2E"/>
<path d="M142.31 141.901C139.957 141.885 140.633 141.854 138.279 141.866C137.128 141.872 129.561 141.919 128.488 142.126C128.464 142.131 128.465 142.174 128.489 142.178C129.568 142.352 137.132 142.164 138.283 142.134C140.636 142.073 139.96 142.064 142.311 141.974C142.355 141.973 142.354 141.901 142.31 141.901Z" fill="#263238"/>
<path d="M132.211 80.9714C130.645 81.7973 129.175 82.8539 127.78 83.9382C127.725 83.9807 127.779 84.0674 127.839 84.0296C129.341 83.0886 130.88 82.1724 132.328 81.15C132.442 81.0697 132.332 80.9081 132.211 80.9714Z" fill="#263238"/>
<path d="M130.985 69.8714C130.972 69.8163 130.872 69.8192 130.882 69.8793C131.192 71.788 131.331 73.4879 131.447 75.2984C131.501 76.139 131.545 80.8236 130.056 80.7128C129.806 80.6944 129.647 80.4762 129.553 80.1195C129.44 79.6904 129.521 79.1298 129.525 78.6849C129.536 77.701 129.515 76.7189 129.447 75.7376C129.32 73.9055 129.046 72.0958 128.547 70.3271C128.53 70.2692 128.445 70.2868 128.455 70.3466C128.845 72.8496 129.168 75.3585 129.179 77.8961C129.184 79.1154 128.862 81.0029 130.137 80.9925C131.435 80.982 131.79 77.8497 131.817 77.0037C131.894 74.6432 131.527 72.1638 130.985 69.8714Z" fill="#263238"/>
<path d="M130.113 80.8283C130.031 81.1563 129.976 81.4925 129.937 81.828C129.907 82.0887 129.855 82.3734 129.924 82.6294C129.937 82.6791 130.005 82.6733 130.027 82.6351C130.162 82.395 130.188 82.0919 130.243 81.8237C130.307 81.513 130.377 81.2034 130.432 80.8913C130.468 80.6843 130.163 80.6263 130.113 80.8283Z" fill="#263238"/>
<path d="M126.397 136.32C126.349 135.868 126.293 135.416 126.234 134.966C126.12 134.1 124.807 127.074 124.115 123.652C123.724 121.717 123.269 119.805 122.79 117.894C122.756 117.761 122.582 117.825 122.603 117.955C122.895 119.704 123.175 121.454 123.508 123.196C123.839 124.932 125.702 133.884 125.877 134.854C125.965 135.339 126.055 135.822 126.152 136.305C126.248 136.785 126.387 137.258 126.46 137.743C126.467 137.789 126.531 137.768 126.525 137.722C126.455 137.26 126.447 136.786 126.397 136.32Z" fill="#263238"/>
<path d="M137.913 117.268C137.378 114.602 136.657 111.971 135.932 109.352C134.472 104.08 132.753 98.8851 131.039 93.6918C130.545 92.1952 130.052 90.6987 129.557 89.2026C129.309 88.4548 128.098 84.4207 127.948 84.0376C127.933 83.9988 127.875 84.0153 127.885 84.0567C128.232 85.4308 128.709 87.4346 129.109 88.795C129.506 90.1396 129.938 91.4742 130.356 92.8123C131.177 95.4424 132.011 98.0683 132.808 100.706C134.383 105.919 135.947 111.13 137.225 116.426C137.583 117.909 137.94 119.39 138.267 120.88C138.593 122.368 138.872 123.866 139.184 125.356C139.193 125.397 139.261 125.386 139.257 125.345C138.988 122.628 138.45 119.942 137.913 117.268Z" fill="#263238"/>
<path d="M127.926 131.213C127.042 126.128 125.983 121.07 124.809 116.044C123.63 110.993 122.316 105.974 120.87 100.993C119.423 96.012 117.819 91.0757 116.097 86.1837C115.281 83.8649 114.451 81.5422 113.915 79.1388C113.386 76.7632 113.117 74.1935 113.67 71.7973C113.811 71.1882 113.988 70.5935 114.219 70.0125C114.235 69.9725 114.177 69.9387 114.16 69.9793C112.227 74.4811 113.481 79.4056 114.952 83.8444C115.758 86.2762 116.618 88.6893 117.413 91.125C118.229 93.6249 119.01 96.1362 119.758 98.6573C121.241 103.653 122.617 108.679 123.85 113.743C125.083 118.806 126.181 123.901 127.148 129.021C128.118 134.16 128.065 133.739 128.891 138.902C128.999 139.573 129.084 140.248 129.172 140.923C129.177 140.96 129.236 140.959 129.232 140.921C128.613 135.806 128.809 136.291 127.926 131.213Z" fill="#263238"/>
<path d="M143.288 31.3469L141.782 41.2443C141.706 41.5377 141.871 41.7545 142.149 41.7278L147.136 41.2487C147.414 41.222 147.702 40.9617 147.778 40.6683L149.284 30.7709C149.36 30.4767 149.195 30.2607 148.917 30.2874L143.931 30.7665C143.652 30.7932 143.364 31.0527 143.288 31.3469Z" fill="#455A64"/>
<path d="M143.88 31.2848L142.374 41.1823C142.298 41.4757 142.463 41.6924 142.741 41.6657L147.728 41.1866C148.006 41.1599 148.294 40.8997 148.37 40.6059L149.876 30.7084C149.952 30.4143 149.787 30.1979 149.509 30.2249L144.522 30.7041C144.244 30.7311 143.956 30.9907 143.88 31.2848Z" fill="#37474F"/>
<path d="M145.29 31.5935C145.307 31.8279 145.131 32.032 144.896 32.0493C144.662 32.0665 144.458 31.8905 144.441 31.6561C144.423 31.4218 144.599 31.2177 144.834 31.2004C145.068 31.1831 145.272 31.3591 145.29 31.5935Z" fill="#263238"/>
<path d="M129.317 47.3212C132.666 53.0892 140.609 60.859 143.236 60.6646C144.485 60.5721 146.74 60.6762 148.253 59.099C151.554 55.6574 154.02 49.4114 154.33 45.9313C154.441 44.6936 148.281 42.5703 147.492 43.6392C145.645 46.1419 143.659 50.9104 143.293 50.9144C141.942 50.9295 135.712 47.0217 131.73 44.6223C126.734 41.612 127.983 45.0226 129.317 47.3212Z" fill="#AD6359"/>
<path d="M153.928 39.6194C153.085 37.1998 152.497 36.7081 152.87 34.2878C153.114 32.6998 152.205 31.8621 151.212 33.2056C149.587 35.4034 150.019 38.7536 150.504 39.8721L153.928 39.6194Z" fill="#AD6359"/>
<path d="M154.133 47.0158C154.133 47.0158 154.937 43.4712 154.293 40.8036C153.849 38.959 152.433 35.0537 147.016 33.3999C145.731 33.0075 143.622 33.3599 145.488 34.7628C146.813 35.7593 147.955 35.9908 148.62 36.7108C148.62 36.7108 145.991 37.4772 145.648 38.7797C145.495 39.3618 145.114 40.9606 144.995 42.2472C144.995 42.2472 145.268 42.3484 145.633 42.4276C145.633 42.4276 145.428 43.6746 146.462 45.2935L154.133 47.0158Z" fill="#AD6359"/>
<path d="M153.588 39.1141C152.777 38.5392 151.036 37.3494 149.274 36.8713C147.317 36.3403 143.403 35.845 143.026 37.2936C142.749 38.356 144.227 38.6767 144.227 38.6767C144.227 38.6767 142.566 38.8128 142.526 39.8273C142.49 40.7518 143.648 40.931 143.648 40.931C143.648 40.931 142.654 41.187 142.791 42.0838C142.955 43.1627 145.01 42.4495 146.12 43.3988C146.37 43.6123 153.588 39.1141 153.588 39.1141Z" fill="#AD6359"/>
<path d="M149.057 39.0334C148.206 38.6176 146.029 38.1701 144.256 38.6468C144.215 38.6576 144.202 38.6936 144.241 38.6914C146.305 38.5816 148.239 38.8772 149.052 39.0518C149.063 39.0543 149.067 39.0381 149.057 39.0334Z" fill="#263238"/>
<path d="M148.464 40.9914C147.692 40.7084 145.427 40.3473 143.648 40.8917C143.608 40.9039 143.597 40.941 143.635 40.9374C145.786 40.7336 147.637 40.8841 148.46 41.0101C148.471 41.0119 148.474 40.995 148.464 40.9914Z" fill="#263238"/>
<path d="M138.346 48.0067L134.658 55.9907C134.658 55.9907 128.762 48.3235 127.664 45.5795C126.429 42.4911 128.279 42.535 131.195 43.7558C134.111 44.9765 138.346 48.0067 138.346 48.0067Z" fill="#FF8926"/>
<path opacity="0.1" d="M138.346 48.0067L134.658 55.9907C134.658 55.9907 128.762 48.3235 127.664 45.5795C126.429 42.4911 128.279 42.535 131.195 43.7558C134.111 44.9765 138.346 48.0067 138.346 48.0067Z" fill="black"/>
<path d="M136.772 47.6192C136.165 48.5721 134.746 51.6872 134.507 52.1998C134.381 52.4702 133.924 53.5703 133.796 53.8385C133.779 53.8727 133.836 53.8918 133.852 53.8576C134.097 53.3453 134.395 52.8572 134.644 52.3452C134.899 51.8218 136.451 48.7172 136.812 47.6386C136.819 47.6152 136.786 47.5976 136.772 47.6192Z" fill="#263238"/>
<path d="M111.824 73.0598C111.824 73.058 135.716 73.8755 135.716 73.8773C135.699 74.3457 135.021 55.1185 129.205 43.6226C128.808 42.8389 125.082 41.8838 123.374 43.3533C115.891 49.793 111.813 73.3636 111.824 73.0598Z" fill="#FF8926"/>
<path opacity="0.1" d="M122.964 43.7266L129.387 44.0016C129.409 44.0347 129.427 44.0718 129.441 44.1056L122.861 43.8256C122.893 43.7906 122.928 43.7586 122.964 43.7266ZM121.184 45.8293L130.379 46.2152C130.368 46.181 130.354 46.1472 130.337 46.1134L121.255 45.726C121.23 45.7609 121.205 45.7951 121.184 45.8293ZM119.902 47.8446L131.179 48.3212C131.168 48.287 131.157 48.2528 131.143 48.2186L119.959 47.7427C119.937 47.7773 119.919 47.8111 119.902 47.8446ZM118.832 49.87L131.872 50.4247C131.861 50.3869 131.85 50.3527 131.839 50.3185L118.878 49.7695C118.864 49.803 118.846 49.8365 118.832 49.87ZM117.901 51.9018L132.475 52.5196C132.468 52.485 132.458 52.4508 132.447 52.4162L117.944 51.8017C117.93 51.8352 117.916 51.8683 117.901 51.9018ZM117.07 53.9408L133.009 54.6144C133.001 54.5798 132.991 54.5456 132.984 54.5107L117.109 53.8375C117.095 53.871 117.081 53.9081 117.07 53.9408ZM116.317 55.9792L133.478 56.706C133.471 56.6714 133.464 56.6369 133.456 56.602L116.352 55.8766C116.342 55.9093 116.331 55.9421 116.317 55.9792ZM115.624 58.0214L133.897 58.7951C133.89 58.7605 133.883 58.726 133.875 58.6914L115.659 57.9188C115.649 57.9552 115.639 57.988 115.624 58.0214ZM114.992 60.0648L134.266 60.8824C134.263 60.8474 134.256 60.8129 134.248 60.778L115.02 59.9626C115.01 59.9993 114.999 60.032 114.992 60.0648ZM114.395 62.1078L134.597 62.9632C134.59 62.9286 134.586 62.8969 134.579 62.8624L114.424 62.0092C114.416 62.0419 114.406 62.0747 114.395 62.1078ZM113.844 64.1566L134.881 65.0486C134.881 65.0134 134.874 64.982 134.871 64.9471L113.87 64.0583C113.862 64.091 113.852 64.1242 113.844 64.1566ZM113.326 66.2057L135.134 67.1309C135.134 67.0988 135.13 67.0639 135.123 67.0294L113.351 66.1078C113.344 66.1402 113.336 66.1726 113.326 66.2057ZM112.842 68.258L135.354 69.2088L135.344 69.1109L112.864 68.1569C112.857 68.1893 112.85 68.2256 112.842 68.258ZM112.388 70.3111L135.535 71.2914C135.531 71.2565 135.528 71.2216 135.528 71.1859L112.409 70.2064C112.402 70.2424 112.395 70.2784 112.388 70.3111ZM111.969 72.3638L135.681 73.3664C135.678 73.3348 135.678 73.2995 135.674 73.2646L111.986 72.263C111.979 72.2958 111.972 72.3318 111.969 72.3638Z" fill="black"/>
<path d="M128.668 46.4714C127.539 46.7789 125.123 45.5178 124.257 43.919C124.198 43.8089 124.371 42.6572 124.515 41.2478C124.599 40.3921 124.672 39.4374 124.676 38.5615C124.676 38.3815 130.164 39.9209 130.164 39.9209C130.164 39.9209 129.616 41.7547 129.618 43.2822C129.62 43.4096 129.632 43.5288 129.654 43.6418C129.656 43.6584 129.661 43.6782 129.662 43.7012C129.771 44.3849 129.875 46.1428 128.668 46.4714Z" fill="#AD6359"/>
<path d="M129.656 43.6399C129.656 43.6576 129.661 43.6785 129.661 43.6997C129.49 43.7224 129.303 43.7314 129.099 43.7267C125.866 43.6407 125.03 39.5892 124.87 38.5625C125.846 38.7069 130.164 39.9193 130.164 39.9193C130.164 39.9193 129.616 41.755 129.617 43.2825C129.621 43.4088 129.632 43.528 129.656 43.6399Z" fill="#263238"/>
<path d="M123.687 31.7343C123.146 33.6981 124.327 39.2957 125.747 40.5125C127.804 42.2762 131.097 42.3604 132.576 39.9045C134.01 37.5238 132.34 30.2558 130.762 29.1581C128.437 27.541 124.486 28.8334 123.687 31.7343Z" fill="#AD6359"/>
<path d="M129.267 34.9561C129.261 34.9424 129.241 34.9802 129.245 34.9953C129.335 35.3701 129.375 35.8147 129.059 36.0105C129.049 36.0166 129.054 36.0353 129.066 36.031C129.471 35.8863 129.412 35.2966 129.267 34.9561Z" fill="#263238"/>
<path d="M128.849 34.6315C128.233 34.7103 128.436 35.9379 129.007 35.8645C129.569 35.7925 129.366 34.5653 128.849 34.6315Z" fill="#263238"/>
<path d="M131.478 34.6528C131.479 34.6376 131.511 34.6657 131.513 34.6816C131.564 35.0639 131.687 35.4926 132.051 35.5621C132.063 35.5643 132.065 35.5834 132.052 35.5837C131.622 35.5942 131.465 35.0228 131.478 34.6528Z" fill="#263238"/>
<path d="M131.752 34.1999C132.355 34.0523 132.606 35.2705 132.047 35.4073C131.496 35.542 131.246 34.3234 131.752 34.1999Z" fill="#263238"/>
<path d="M128.271 34.1487C128.431 34.0789 128.567 33.9878 128.719 33.9025C128.889 33.806 129.035 33.747 129.127 33.5645C129.177 33.4665 129.124 33.3143 129.034 33.2574C128.823 33.1249 128.584 33.1908 128.374 33.2984C128.146 33.4151 128 33.5634 127.897 33.7977C127.797 34.0245 128.06 34.2405 128.271 34.1487Z" fill="#263238"/>
<path d="M132.124 33.5021C131.95 33.5024 131.788 33.4736 131.616 33.4564C131.421 33.4366 131.263 33.4409 131.106 33.3106C131.021 33.2407 131.008 33.0802 131.068 32.9916C131.208 32.7857 131.453 32.7504 131.689 32.7644C131.945 32.7796 132.138 32.857 132.326 33.0301C132.508 33.1979 132.355 33.5014 132.124 33.5021Z" fill="#263238"/>
<path d="M129.499 38.539C129.605 38.6128 129.717 38.7205 129.856 38.7093C129.991 38.6985 130.136 38.6132 130.249 38.5459C130.26 38.5394 130.275 38.5498 130.269 38.5628C130.194 38.7252 130.002 38.8508 129.821 38.849C129.643 38.8476 129.534 38.7129 129.466 38.5624C129.456 38.5412 129.484 38.5282 129.499 38.539Z" fill="#263238"/>
<path d="M129.711 37.3378C129.979 37.6327 130.321 37.7612 130.67 37.7706C130.826 37.776 130.986 37.7547 131.14 37.7148C131.17 37.709 131.2 37.7007 131.227 37.6899C131.254 37.682 131.278 37.6744 131.308 37.6633C131.351 37.6496 131.369 37.6089 131.37 37.5657L131.37 37.5628C131.367 37.5488 131.365 37.5376 131.359 37.5247C131.359 37.5247 131.359 37.5247 131.359 37.5218L131.353 37.4887C131.313 37.1946 131.21 36.7543 131.21 36.7543C131.326 36.7903 131.912 36.9451 131.878 36.7935C131.593 35.54 131.276 34.1461 130.727 32.9592C130.711 32.9192 130.649 32.9394 130.659 32.9804C130.886 34.1958 131.325 35.3632 131.572 36.5808C131.386 36.5433 131.082 36.4681 130.93 36.4965C130.89 36.5156 131.142 37.3443 131.15 37.4779C131.15 37.4779 131.151 37.4833 131.15 37.4923C130.669 37.6366 130.273 37.5495 129.741 37.2982C129.709 37.281 129.683 37.3116 129.711 37.3378Z" fill="#263238"/>
<path d="M130.942 37.5956C130.942 37.5956 130.74 37.9887 130.406 38.1741C130.283 38.2429 130.145 38.2846 129.991 38.2699C129.674 38.2404 129.62 37.9632 129.636 37.7155C129.649 37.5121 129.712 37.3281 129.712 37.3281C129.712 37.3281 130.224 37.6694 130.942 37.5956Z" fill="#263238"/>
<path d="M130.406 38.1752C130.283 38.244 130.145 38.2857 129.991 38.271C129.674 38.2415 129.62 37.9643 129.636 37.7166C129.968 37.6957 130.326 37.8635 130.406 38.1752Z" fill="#FF99BA"/>
<path d="M131.881 30.889C131.593 30.4408 131.273 29.994 130.967 29.9462C130.661 29.8983 130.586 30.6374 129.933 30.7904C129.051 30.997 128.484 30.2486 127.222 30.3663C125.41 30.5358 124.867 32.162 125.241 34.7115C125.575 36.9885 124.238 37.4273 124.238 37.4273C124.238 37.4273 122.585 32.5565 123.725 30.6669C124.865 28.7772 127.982 27.5136 130.416 28.7387C131.303 29.1855 131.881 30.889 131.881 30.889Z" fill="#263238"/>
<path d="M125.236 36.3445C125.236 36.3445 123.879 34.587 123.075 35.0791C122.272 35.5716 123.353 38.1615 124.338 38.4761C125.324 38.7907 125.633 37.8843 125.633 37.8843L125.236 36.3445Z" fill="#AD6359"/>
<path d="M123.404 35.8125C123.388 35.8118 123.386 35.8338 123.4 35.8388C124.092 36.0818 124.479 36.6945 124.76 37.3353C124.546 37.0934 124.265 36.9688 123.94 37.2252C123.923 37.2385 123.941 37.2655 123.96 37.2608C124.235 37.1881 124.438 37.2266 124.637 37.4404C124.777 37.592 124.878 37.7871 124.982 37.9646C125.016 38.0236 125.124 37.9862 125.098 37.9174C125.096 37.9124 125.094 37.907 125.092 37.902C125.068 37.0351 124.338 35.8554 123.404 35.8125Z" fill="#263238"/>
<path d="M119.981 46.4123C116.512 51.0048 109.161 60.0189 109.849 64.2283C110.615 68.9134 113.638 76.2919 115.594 78.4239C116.064 78.9351 118.712 78.7057 120.746 77.688C122.407 76.8568 123.565 75.3203 123.558 74.7144C123.543 73.3666 119.102 64.9707 118.785 64.0138C118.469 63.0565 122.64 53.4071 124.09 48.7415C125.918 42.8559 122.918 42.525 119.981 46.4123Z" fill="#AD6359"/>
<path d="M122.205 55.1812L113.547 53.6361C113.547 53.6361 119.47 45.9904 121.847 44.2332C124.522 42.2557 124.948 44.0561 124.506 47.1867C124.063 50.3172 122.205 55.1812 122.205 55.1812Z" fill="#FF8926"/>
<path opacity="0.1" d="M122.205 55.1812L113.547 53.6361C113.547 53.6361 119.47 45.9904 121.847 44.2332C124.522 42.2557 124.948 44.0561 124.506 47.1867C124.063 50.3172 122.205 55.1812 122.205 55.1812Z" fill="black"/>
<path d="M122.18 53.562C121.104 53.2157 117.731 52.6328 117.175 52.5309C116.881 52.4773 115.701 52.3142 115.409 52.2584C115.372 52.2512 115.368 52.3106 115.405 52.3175C115.962 52.4244 116.51 52.5893 117.068 52.7005C117.639 52.8146 121.036 53.5289 122.171 53.6052C122.195 53.607 122.204 53.5699 122.18 53.562Z" fill="#263238"/>
<path d="M123.561 51.6588C123.754 51.2369 123.947 50.8146 124.126 50.3859C124.13 50.3769 124.117 50.3719 124.112 50.3801C123.958 50.6851 123.811 50.9928 123.666 51.3021C123.854 50.6469 124.03 49.9888 124.175 49.326C124.178 49.3163 124.162 49.3124 124.159 49.3217C123.792 50.2858 123.48 51.27 123.137 52.2431C122.8 53.1978 122.48 54.1565 122.161 55.117C121.958 55.1123 121.757 55.1037 121.554 55.0918C121.516 55.0896 121.511 55.1422 121.547 55.1508C121.764 55.1998 121.979 55.2495 122.194 55.3082C122.244 55.3222 122.3 55.3082 122.321 55.2542C122.779 54.0784 123.197 52.8756 123.561 51.6588Z" fill="#263238"/>
<path d="M115.188 78.5394C116.079 78.6136 116.944 78.5318 117.789 78.3835C118.633 78.2255 119.455 77.9818 120.248 77.6596C121.823 77.0864 123.03 75.7926 123.77 74.1719C123.688 75.0686 123.312 75.9416 122.746 76.6771C122.185 77.4176 121.382 77.9987 120.515 78.3281C119.666 78.6586 118.769 78.89 117.856 78.9408C116.95 78.9926 116.014 78.9077 115.188 78.5394Z" fill="#263238"/>
<path d="M64.8989 87.1242L66.1377 87.7056L65.5805 88.5139L64.3303 87.8732L64.3532 89.0655H63.2848L63.2963 87.8633L62.0457 88.5136L61.5 87.7052L62.7392 87.1238L61.5 86.5325L62.0457 85.7241L63.2963 86.3744L63.2848 85.1719H64.3532L64.3303 86.3744L65.5805 85.7241L66.1377 86.5325L64.8989 87.1242Z" fill="#EF9A07"/>
<path d="M66.0876 93H60.9124C59.5823 93 58.5 92.0729 58.5 90.9334V83.0666C58.5 81.9271 59.5823 81 60.9124 81H66.0876C67.4177 81 68.5 81.9271 68.5 83.0666V90.9334C68.5 92.0729 67.4177 93 66.0876 93ZM60.9124 81.1459C59.6762 81.1459 58.6707 82.0076 58.6707 83.0663V90.9331C58.6707 91.9921 59.6765 92.8535 60.9124 92.8535H66.0876C67.3238 92.8535 68.3293 91.9921 68.3293 90.9331V83.0663C68.3293 82.0073 67.3235 81.1459 66.0876 81.1459H60.9124Z" fill="#263238"/>
<path d="M78.2302 93H73.055C71.7249 93 70.6426 92.0729 70.6426 90.9334V83.0666C70.6426 81.9271 71.7249 81 73.055 81H78.2302C79.5603 81 80.6426 81.9271 80.6426 83.0666V90.9334C80.6426 92.0729 79.5603 93 78.2302 93ZM73.0547 81.1459C71.8184 81.1459 70.8129 82.0076 70.8129 83.0663V90.9331C70.8129 91.9921 71.8187 92.8535 73.0547 92.8535H78.2298C79.4661 92.8535 80.4715 91.9921 80.4715 90.9331V83.0663C80.4715 82.0073 79.4657 81.1459 78.2298 81.1459H73.0547Z" fill="#263238"/>
<path d="M90.0387 93H84.8636C83.5335 93 82.4512 92.0729 82.4512 90.9334V83.0666C82.4512 81.9271 83.5335 81 84.8636 81H90.0387C91.3689 81 92.4512 81.9271 92.4512 83.0666V90.9334C92.4515 92.0729 91.3692 93 90.0387 93ZM84.8636 81.1459C83.6273 81.1459 82.6219 82.0076 82.6219 83.0663V90.9331C82.6219 91.9921 83.6277 92.8535 84.8636 92.8535H90.0387C91.275 92.8535 92.2805 91.9921 92.2805 90.9331V83.0663C92.2805 82.0073 91.2747 81.1459 90.0387 81.1459H84.8636Z" fill="#263238"/>
<path d="M101.981 93H96.806C95.4755 93 94.3936 92.0729 94.3936 90.9334V83.0666C94.3936 81.9271 95.4758 81 96.806 81H101.981C103.311 81 104.394 81.9271 104.394 83.0666V90.9334C104.394 92.0729 103.312 93 101.981 93ZM96.806 81.1459C95.5697 81.1459 94.5643 82.0076 94.5643 83.0663V90.9331C94.5643 91.9921 95.5697 92.8535 96.806 92.8535H101.981C103.217 92.8535 104.223 91.9921 104.223 90.9331V83.0663C104.223 82.0073 103.217 81.1459 101.981 81.1459H96.806Z" fill="#263238"/>
</svg>
