<svg width="137" height="100" viewBox="0 0 137 100" fill="none" xmlns="http://www.w3.org/2000/svg">
<mask id="mask0_6457_83693" style="mask-type:luminance" maskUnits="userSpaceOnUse" x="0" y="0" width="137" height="100">
<path d="M137 0H0V100H137V0Z" fill="white"/>
</mask>
<g mask="url(#mask0_6457_83693)">
<path d="M130.819 99.8589L131.246 99.8505C131.081 95.099 130.574 90.3654 129.728 85.6866C127.879 75.6694 124.805 69.0905 120.59 66.1328L120.344 66.4826C130.19 73.3915 130.814 99.5949 130.819 99.8589Z" fill="#2F2E41"/>
<path d="M125.474 99.7572L125.901 99.7489C125.892 99.2756 125.625 88.1219 121.231 85.0391L120.986 85.3888C125.202 88.3473 125.472 99.6435 125.474 99.7572Z" fill="#2F2E41"/>
<path d="M117.912 66.5235C119.092 66.5235 120.05 65.5669 120.05 64.3868C120.05 63.2067 119.092 62.25 117.912 62.25C116.731 62.25 115.774 63.2067 115.774 64.3868C115.774 65.5669 116.731 66.5235 117.912 66.5235Z" fill="#EF9A07"/>
<path d="M118.97 84.8985C120.151 84.8985 121.108 83.9419 121.108 82.7618C121.108 81.5817 120.151 80.625 118.97 80.625C117.79 80.625 116.832 81.5817 116.832 82.7618C116.832 83.9419 117.79 84.8985 118.97 84.8985Z" fill="#EF9A07"/>
<path d="M126.47 67.8045C126.068 70.3695 127.116 72.6636 127.116 72.6636C127.116 72.6636 128.814 70.7991 129.216 68.2341C129.618 65.6692 128.571 63.375 128.571 63.375C128.571 63.375 126.872 65.2395 126.47 67.8045Z" fill="#2F2E41"/>
<path d="M119.482 74.0268C121.939 74.8691 124.382 74.2382 124.382 74.2382C124.382 74.2382 122.841 72.2416 120.383 71.3993C117.926 70.5569 115.483 71.1878 115.483 71.1878C115.483 71.1878 117.024 73.1844 119.482 74.0268Z" fill="#2F2E41"/>
<path d="M119.403 90.3024C120.515 90.6515 121.699 90.7026 122.837 90.4506C122.115 89.5312 121.141 88.8401 120.035 88.4608C118.928 88.0814 117.735 88.0299 116.6 88.3126C117.344 89.2096 118.31 89.8958 119.403 90.3024Z" fill="#2F2E41"/>
<path d="M69.5066 33.1593L55.7222 25.9957C55.7222 25.9957 51.0932 20.901 48.1861 18.5998C45.279 16.2986 44.3841 17.9891 44.3841 17.9891L43.1621 20.0246L46.1154 24.1297L54.0927 30.881L68.3469 36.4608C68.5698 36.8256 68.8918 37.1197 69.2753 37.309C69.6588 37.4982 70.0882 37.5748 70.5136 37.5298C70.9389 37.4849 71.3428 37.3203 71.6782 37.0551C72.0137 36.7898 72.267 36.435 72.4086 36.0316C72.5503 35.6283 72.5746 35.1931 72.4786 34.7765C72.3826 34.3599 72.1703 33.9791 71.8664 33.6783C71.5625 33.3775 71.1795 33.1691 70.7617 33.0772C70.344 32.9853 69.9088 33.0138 69.5066 33.1593Z" fill="#DBA192"/>
<path d="M33.6518 26.9637L32.8357 21.9739L30.5314 21.3981C30.5314 21.3981 28.7025 20.8351 28.2751 24.5167C27.8476 28.1983 28.179 35.0721 28.179 35.0721L23.5004 49.8788C23.1112 50.0597 22.7815 50.3474 22.5496 50.7083C22.3177 51.0693 22.1931 51.4886 22.1905 51.9176C22.1878 52.3465 22.3071 52.7674 22.5345 53.1312C22.762 53.495 23.0881 53.7868 23.475 53.9725C23.8619 54.1582 24.2936 54.2303 24.7199 54.1803C25.1462 54.1303 25.5495 53.9603 25.8829 53.6901C26.2162 53.4199 26.4659 53.0606 26.6029 52.654C26.7398 52.2475 26.7584 51.8105 26.6564 51.3938L32.7878 37.3751L33.6518 26.9637Z" fill="#DBA192"/>
<path d="M52.7115 96.9911L55.7268 96.9909L57.1614 85.3672L52.7109 85.3674L52.7115 96.9911Z" fill="#DBA192"/>
<path d="M51.9424 96.0081L57.8808 96.0078C58.8844 96.0079 59.8473 96.4064 60.557 97.1156C61.2667 97.8249 61.6654 98.7869 61.6655 99.7899V99.9128L51.9426 99.9132L51.9424 96.0081Z" fill="#2F2E41"/>
<path d="M19.8227 96.9911L22.8382 96.9909L24.2726 85.3672L19.8223 85.3674L19.8227 96.9911Z" fill="#DBA192"/>
<path d="M19.0537 96.0081L24.9921 96.0078C25.9957 96.0079 26.9586 96.4064 27.6683 97.1156C28.378 97.8249 28.7767 98.7869 28.7768 99.7899V99.9128L19.0539 99.9132L19.0537 96.0081Z" fill="#2F2E41"/>
<path d="M34.7092 16.9986L29.7078 21.2656L33.8123 34.2468L34.7384 37.1456C34.7384 37.1456 29.0833 42.3566 25.5843 56.9132C22.0853 71.4697 16.3613 90.8121 16.3613 90.8121L28.4437 94.2686L38.2735 61.34L49.8358 87.1736L51.1707 94.8143L61.46 91.7823L59.0329 72.6194L46.8973 39.4482L48.1579 30.6551C48.1579 30.6551 50.0509 26.2663 46.7623 21.6196L45.7308 17.2534L42.0356 16.3438L34.7092 16.9986Z" fill="#002027"/>
<path d="M43.0185 14.679H29.4964C29.2183 14.6787 28.9516 14.5681 28.7549 14.3716C28.5583 14.175 28.4476 13.9085 28.4473 13.6305V7.8055C28.4473 5.73535 29.2702 3.74999 30.7349 2.28618C32.1995 0.822363 34.1861 0 36.2575 0C38.3288 0 40.3154 0.822363 41.7801 2.28618C43.2447 3.74999 44.0676 5.73535 44.0676 7.8055V13.6305C44.0673 13.9085 43.9567 14.175 43.76 14.3716C43.5633 14.5681 43.2966 14.6787 43.0185 14.679Z" fill="#2F2E41"/>
<path d="M42.8864 11.5625C44.4033 8.78925 43.3835 5.31212 40.6086 3.79612C37.8337 2.28013 34.3545 3.29933 32.8376 6.07258C31.3207 8.84584 32.3405 12.3229 35.1154 13.8389C37.8903 15.3549 41.3695 14.3357 42.8864 11.5625Z" fill="#DBA192"/>
<path d="M45.9147 8.38474H37.6463L37.5615 7.19835L37.1375 8.38474H35.8644L35.6964 6.03336L34.8561 8.38474H32.3926V8.26824C32.3945 6.63124 33.046 5.0618 34.2042 3.90426C35.3624 2.74672 36.9328 2.0956 38.5708 2.09375H39.7365C41.3745 2.09559 42.9449 2.74671 44.1031 3.90425C45.2613 5.0618 45.9128 6.63123 45.9147 8.26824V8.38474Z" fill="#2F2E41"/>
<path d="M37.5791 15.764C37.5169 15.764 37.4547 15.7585 37.3934 15.7477L31.3389 14.68V4.67969H38.0038L37.8388 4.87196C35.543 7.54782 37.2726 11.8868 38.5079 14.235C38.599 14.407 38.6396 14.6011 38.625 14.7952C38.6105 14.9892 38.5414 15.1752 38.4258 15.3317C38.3289 15.4656 38.2017 15.5745 38.0545 15.6497C37.9073 15.7248 37.7444 15.764 37.5791 15.764Z" fill="#2F2E41"/>
<path d="M87.6493 68.1935L34.5875 86.9428C33.2755 87.4047 31.8339 87.3276 30.5787 86.7285C29.3236 86.1294 28.3574 85.0572 27.8923 83.7471L18.777 57.981C18.3148 56.6699 18.3919 55.229 18.9914 53.9746C19.5908 52.7202 20.6637 51.7546 21.9746 51.2897L75.0363 32.5404C76.3483 32.0785 77.79 32.1556 79.0451 32.7547C80.3003 33.3538 81.2665 34.426 81.7316 35.7361L90.8469 61.5022C91.309 62.8133 91.2319 64.2542 90.6325 65.5086C90.033 66.763 88.9602 67.7286 87.6493 68.1935Z" fill="white"/>
<path d="M90.847 61.5L90.8952 61.6363C91.338 62.8885 91.2649 64.2651 90.692 65.4634C90.1191 66.6617 89.0934 67.5835 87.8405 68.026L34.5135 86.8691C33.2609 87.3116 31.8836 87.2387 30.6848 86.6664C29.4859 86.0942 28.5635 85.0695 28.1205 83.8177L28.0723 83.6814L90.847 61.5Z" fill="#F2F2F2"/>
<path d="M31.2762 57.2754C27.759 59.5884 23.2513 57.8477 21.6748 55.3122L21.9261 55.1695C24.9204 53.3042 29.3672 54.3434 31.2762 57.2754Z" fill="#016B83"/>
<path d="M75.3513 63.8338C74.4904 64.138 73.7153 64.1241 73.0472 63.7924C71.5371 63.0425 70.8286 60.8192 70.2592 59.0327C70.0936 58.513 69.9371 58.022 69.7778 57.6208L69.7755 57.6147C69.4983 56.8187 69.5466 55.9456 69.9098 55.1849C70.273 54.4243 70.9219 53.8376 71.7155 53.5524L78.8527 51.0304C79.7125 50.7266 80.4868 50.7405 81.1543 51.0717C82.664 51.8205 83.3731 54.0431 83.943 55.8289C84.1092 56.3497 84.2661 56.8416 84.426 57.2435C84.7047 58.0402 84.6574 58.9148 84.2942 59.6768C83.931 60.4388 83.2815 61.0267 82.4868 61.3125L75.3513 63.8338ZM70.0745 57.5066C70.2375 57.9175 70.3952 58.4124 70.5622 58.9363C71.1133 60.6656 71.7992 62.8178 73.1886 63.5078C73.785 63.8039 74.4578 63.8125 75.2453 63.5343L82.3804 61.0131C83.0951 60.7563 83.6796 60.228 84.0068 59.543C84.3341 58.858 84.3777 58.0717 84.1282 57.3547C83.9665 56.9487 83.8079 56.4517 83.64 55.9254C83.0884 54.1968 82.4019 52.0453 81.0129 51.3563C80.4172 51.0607 79.7451 51.0522 78.9587 51.33L71.8219 53.8518C71.108 54.1086 70.5241 54.6363 70.197 55.3205C69.8699 56.0047 69.8259 56.7902 70.0745 57.5066Z" fill="#3F3D56"/>
<path d="M29.7964 58.1013C28.5423 58.5359 27.1912 58.6101 25.897 58.3155C24.0068 57.9007 22.2914 56.7728 21.4203 55.3722L21.333 55.2318L21.7253 55.009C24.7646 53.117 29.3222 54.1427 31.2895 57.1633L31.3758 57.2958L31.2437 57.3827C30.7922 57.6799 30.3062 57.9212 29.7964 58.1013ZM21.7803 55.3433C22.6328 56.6092 24.2192 57.6219 25.9652 58.0051C27.6624 58.4013 29.4474 58.1134 30.9338 57.2038C29.0094 54.4219 24.746 53.4991 21.8908 55.2804L21.7803 55.3433Z" fill="#3F3D56"/>
<path d="M31.6606 76.601C31.215 76.7773 30.7299 76.829 30.2571 76.7505C29.7844 76.672 29.3419 76.4664 28.9773 76.1557C28.5504 75.7829 28.2268 75.3065 28.0377 74.7724C27.8486 74.2383 27.8003 73.6645 27.8974 73.1064C27.9877 72.6261 28.2092 72.1802 28.5375 71.818C28.8657 71.4558 29.2879 71.1916 29.7572 71.0545L39.2669 67.6942C39.7183 67.5073 40.2125 67.4485 40.6951 67.5244C41.1777 67.6003 41.6299 67.8079 42.002 68.1243C42.4286 68.4973 42.7519 68.9738 42.9408 69.5079C43.1297 70.0419 43.1778 70.6156 43.0804 71.1737C42.8927 72.1544 42.2301 72.8769 41.2202 73.2227L31.7103 76.583C31.6938 76.5891 31.6772 76.5951 31.6606 76.601ZM29.8164 71.3702C29.4106 71.4954 29.0466 71.7287 28.7636 72.0451C28.4805 72.3615 28.289 72.749 28.2098 73.1659C28.1222 73.6688 28.1658 74.1857 28.3362 74.6668C28.5066 75.148 28.7981 75.5772 29.1826 75.913C29.5123 76.1922 29.9128 76.3746 30.3399 76.4401C30.767 76.5057 31.2038 76.4517 31.6021 76.2842L41.1165 72.9223C41.532 72.8026 41.9061 72.5702 42.1977 72.2511C42.4892 71.9319 42.6866 71.5383 42.7681 71.1139C42.8558 70.6112 42.8125 70.0943 42.6423 69.6132C42.4721 69.132 42.1808 68.7028 41.7965 68.3668C41.4663 68.0879 41.0656 67.9054 40.6384 67.8395C40.2111 67.7736 39.774 67.8267 39.3751 67.9931L29.8601 71.3552C29.8455 71.3601 29.8308 71.3651 29.8164 71.3702Z" fill="#3F3D56"/>
<path d="M75.4152 56.2544L72.4173 57.3137C72.2186 57.3839 72 57.3724 71.8098 57.2816C71.6195 57.1908 71.4732 57.0282 71.4029 56.8295C71.3326 56.6309 71.3442 56.4124 71.435 56.2223C71.5259 56.0322 71.6886 55.8859 71.8874 55.8157L74.8852 54.7564C75.084 54.6862 75.3025 54.6977 75.4928 54.7885C75.683 54.8793 75.8294 55.0419 75.8996 55.2406C75.9699 55.4392 75.9584 55.6577 75.8675 55.8478C75.7766 56.0379 75.6139 56.1842 75.4152 56.2544Z" fill="#FF8926"/>
<path d="M76.2628 58.6529L73.265 59.7121C73.0662 59.7824 72.8477 59.7708 72.6574 59.68C72.4672 59.5892 72.3208 59.4266 72.2505 59.2279C72.1803 59.0293 72.1918 58.8109 72.2827 58.6207C72.3735 58.4306 72.5363 58.2843 72.735 58.2141L75.7329 57.1548C75.9316 57.0846 76.1502 57.0961 76.3404 57.1869C76.5307 57.2778 76.677 57.4404 76.7473 57.639C76.8176 57.8377 76.806 58.0561 76.7152 58.2462C76.6243 58.4363 76.4616 58.5826 76.2628 58.6529Z" fill="#FF8926"/>
<path d="M77.1114 61.0434L74.1136 62.1027C74.0152 62.1375 73.9109 62.1525 73.8066 62.147C73.7024 62.1415 73.6002 62.1155 73.506 62.0706C73.4118 62.0256 73.3274 61.9625 73.2576 61.885C73.1878 61.8074 73.1339 61.7168 73.0991 61.6185C73.0644 61.5201 73.0493 61.4159 73.0548 61.3117C73.0603 61.2075 73.0863 61.1054 73.1313 61.0113C73.1763 60.9171 73.2394 60.8328 73.317 60.763C73.3946 60.6932 73.4852 60.6394 73.5836 60.6047L76.5815 59.5454C76.6799 59.5106 76.7842 59.4955 76.8884 59.5011C76.9927 59.5066 77.0948 59.5325 77.189 59.5775C77.2832 59.6225 77.3676 59.6855 77.4375 59.7631C77.5073 59.8406 77.5611 59.9312 77.5959 60.0296C77.6307 60.1279 77.6458 60.2322 77.6403 60.3364C77.6347 60.4405 77.6088 60.5426 77.5638 60.6368C77.5188 60.7309 77.4557 60.8153 77.3781 60.885C77.3004 60.9548 77.2098 61.0086 77.1114 61.0434Z" fill="#FF8926"/>
<path d="M80.6613 54.4029L77.6634 55.4621C77.565 55.4969 77.4607 55.512 77.3565 55.5065C77.2522 55.501 77.1501 55.475 77.0559 55.43C76.9617 55.3851 76.8773 55.322 76.8074 55.2444C76.7376 55.1669 76.6838 55.0763 76.649 54.978C76.6142 54.8796 76.5991 54.7753 76.6046 54.6712C76.6102 54.567 76.6362 54.4649 76.6811 54.3708C76.7261 54.2766 76.7892 54.1923 76.8669 54.1225C76.9445 54.0527 77.0351 53.9989 77.1335 53.9641L80.1313 52.9048C80.3301 52.8346 80.5486 52.8462 80.7389 52.937C80.9291 53.0278 81.0755 53.1904 81.1458 53.389C81.216 53.5877 81.2045 53.8061 81.1136 53.9962C81.0228 54.1864 80.86 54.3326 80.6613 54.4029Z" fill="#FF8926"/>
<path d="M81.5089 56.7934L78.5111 57.8527C78.4127 57.8875 78.3084 57.9025 78.2041 57.897C78.0999 57.8915 77.9977 57.8655 77.9035 57.8206C77.8093 57.7756 77.7249 57.7125 77.6551 57.635C77.5853 57.5574 77.5315 57.4669 77.4967 57.3685C77.4619 57.2701 77.4468 57.1659 77.4523 57.0617C77.4578 56.9575 77.4838 56.8554 77.5288 56.7613C77.5738 56.6672 77.6369 56.5828 77.7145 56.513C77.7921 56.4433 77.8827 56.3894 77.9811 56.3547L80.979 55.2954C81.0774 55.2606 81.1817 55.2455 81.286 55.2511C81.3902 55.2566 81.4923 55.2826 81.5865 55.3275C81.6807 55.3725 81.7651 55.4355 81.835 55.5131C81.9048 55.5907 81.9586 55.6812 81.9934 55.7796C82.0282 55.8779 82.0433 55.9822 82.0378 56.0864C82.0323 56.1906 82.0063 56.2926 81.9613 56.3868C81.9163 56.4809 81.8532 56.5653 81.7756 56.6351C81.698 56.7048 81.6074 56.7586 81.5089 56.7934Z" fill="#FF8926"/>
<path d="M82.3576 59.1918L79.3598 60.2511C79.161 60.3214 78.9424 60.3098 78.7522 60.219C78.562 60.1282 78.4156 59.9656 78.3453 59.7669C78.275 59.5683 78.2866 59.3499 78.3775 59.1597C78.4683 58.9696 78.631 58.8233 78.8298 58.7531L81.8276 57.6938C81.9261 57.659 82.0304 57.644 82.1346 57.6495C82.2389 57.655 82.341 57.681 82.4352 57.7259C82.5294 57.7709 82.6138 57.834 82.6836 57.9115C82.7534 57.9891 82.8073 58.0796 82.8421 58.178C82.8769 58.2764 82.892 58.3806 82.8864 58.4848C82.8809 58.589 82.8549 58.6911 82.8099 58.7852C82.765 58.8793 82.7018 58.9637 82.6242 59.0335C82.5466 59.1033 82.456 59.1571 82.3576 59.1918Z" fill="#FF8926"/>
<path d="M83.7163 41.3438L20.9414 63.5252L21.0474 63.8248L83.8223 41.6433L83.7163 41.3438Z" fill="#3F3D56"/>
<path d="M87.6493 68.1935L34.5875 86.9428C33.2755 87.4047 31.8339 87.3276 30.5787 86.7285C29.3236 86.1294 28.3574 85.0572 27.8923 83.7471L18.777 57.981C18.3148 56.6699 18.3919 55.229 18.9914 53.9746C19.5908 52.7202 20.6637 51.7546 21.9746 51.2897L75.0363 32.5404C76.3483 32.0785 77.79 32.1556 79.0451 32.7547C80.3003 33.3538 81.2665 34.426 81.7316 35.7361L90.8469 61.5022C91.309 62.8133 91.2319 64.2542 90.6325 65.5086C90.033 66.763 88.9602 67.7286 87.6493 68.1935ZM22.0806 51.5893C20.8491 52.026 19.8413 52.9331 19.2782 54.1115C18.7151 55.2899 18.6426 56.6434 19.0768 57.8751L28.1921 83.6412C28.629 84.8719 29.5366 85.8791 30.7157 86.4419C31.8948 87.0047 33.2491 87.0771 34.4816 86.6432L87.5433 67.8939C88.7747 67.4572 89.7825 66.5501 90.3456 65.3717C90.9088 64.1933 90.9811 62.8398 90.5471 61.6081L81.4318 35.842C80.9949 34.6113 80.0872 33.6041 78.9081 33.0413C77.729 32.4785 76.3746 32.4061 75.1423 32.84L22.0806 51.5893Z" fill="#3F3D56"/>
<path d="M157.786 99.9977H0.213802C0.157099 99.9977 0.102717 99.9752 0.0626211 99.9351C0.0225254 99.895 0 99.8407 0 99.784C0 99.7273 0.0225254 99.673 0.0626211 99.6329C0.102717 99.5928 0.157099 99.5703 0.213802 99.5703H157.786C157.843 99.5703 157.897 99.5928 157.937 99.6329C157.977 99.673 158 99.7273 158 99.784C158 99.8407 157.977 99.895 157.937 99.9351C157.897 99.9752 157.843 99.9977 157.786 99.9977Z" fill="#CBCBCB"/>
</g>
</svg>
