<svg width="401" height="210" viewBox="0 0 401 210" fill="none" xmlns="http://www.w3.org/2000/svg">
<path d="M24.9277 209.497C24.9277 209.497 -21.6169 159.584 17.0563 105.545C51.3699 57.5986 91.376 60.8759 120.728 80.3332C133.229 88.6201 169.272 81.3544 199.949 32.5671C241.784 -33.9658 386.798 6.3866 360.358 108.749C347.562 158.285 399.299 160.086 372.937 209.602L24.9277 209.497Z" fill="#F6FFFE"/>
<path d="M244.921 156.263L248.491 156.85C248.775 156.896 249.027 157.015 249.225 157.182C249.434 157.357 249.583 157.584 249.647 157.831C249.667 157.907 249.678 157.984 249.681 158.063C249.684 158.134 249.68 158.206 249.668 158.279L241.454 208.001C241.348 208.642 240.68 209.074 239.95 208.988C239.927 208.985 239.903 208.981 239.879 208.978L236.309 208.391C236.286 208.387 236.262 208.383 236.239 208.378C235.52 208.227 235.026 207.603 235.132 206.962L243.346 157.24C243.358 157.168 243.377 157.098 243.403 157.032C243.431 156.958 243.466 156.888 243.51 156.823C243.65 156.609 243.864 156.442 244.118 156.343C244.36 156.249 244.636 156.217 244.921 156.263Z" fill="#FFB93E"/>
<path d="M245.82 181.492L241.42 208.13C241.325 208.702 240.666 209.078 239.937 208.989C239.914 208.985 239.89 208.982 239.867 208.978L236.296 208.392C236.273 208.388 236.249 208.384 236.226 208.379C235.507 208.231 235.003 207.664 235.098 207.092L238.958 183.725C240.881 183.658 243.598 183.211 245.82 181.492Z" fill="#FFA412"/>
<path d="M242.539 162.098L242.446 162.664L248.767 163.708L248.861 163.142L242.539 162.098Z" fill="#FFA412"/>
<path d="M242.203 163.997L242.11 164.562L248.432 165.603L248.525 165.037L242.203 163.997Z" fill="#FFA412"/>
<path d="M241.852 166.309L241.758 166.875L248.08 167.917L248.173 167.352L241.852 166.309Z" fill="#FFA412"/>
<path d="M241.258 169.801L241.165 170.367L247.486 171.409L247.58 170.843L241.258 169.801Z" fill="#FFA412"/>
<path d="M240.633 173.512L240.54 174.078L246.861 175.12L246.955 174.554L240.633 173.512Z" fill="#FFA412"/>
<path d="M239.703 179.223L239.61 179.789L245.932 180.83L246.025 180.264L239.703 179.223Z" fill="#FFA412"/>
<path d="M238.813 184.575L238.719 185.141L245.041 186.184L245.134 185.619L238.813 184.575Z" fill="#FFA412"/>
<path d="M238.039 189.317L237.946 189.883L244.268 190.925L244.361 190.359L238.039 189.317Z" fill="#FFA412"/>
<path d="M242.828 160.262L242.735 160.828L249.057 161.869L249.15 161.303L242.828 160.262Z" fill="#FFA412"/>
<path d="M243.039 159.044L242.946 159.609L249.268 160.651L249.361 160.085L243.039 159.044Z" fill="#FFA412"/>
<path d="M243.211 157.895L243.118 158.461L249.44 159.501L249.533 158.936L243.211 157.895Z" fill="#FFA412"/>
<path d="M243.266 157.593L249.588 158.631L249.646 158.278C249.658 158.205 249.662 158.134 249.66 158.062L243.381 157.031C243.356 157.098 243.336 157.167 243.324 157.24L243.266 157.593Z" fill="#FFA412"/>
<path d="M243.477 156.824L249.614 157.832C249.55 157.584 249.401 157.357 249.192 157.183L244.085 156.344C243.831 156.443 243.617 156.61 243.477 156.824Z" fill="#FFA412"/>
<path d="M251.413 156.263L254.983 156.85C255.267 156.896 255.519 157.015 255.717 157.182C255.926 157.357 256.075 157.584 256.139 157.831C256.159 157.907 256.17 157.984 256.173 158.063C256.176 158.134 256.172 158.206 256.16 158.279L247.946 208.001C247.84 208.642 247.172 209.074 246.442 208.988C246.419 208.985 246.395 208.981 246.372 208.978L242.801 208.391C242.778 208.387 242.754 208.383 242.731 208.378C242.012 208.227 241.518 207.603 241.624 206.962L249.838 157.24C249.85 157.168 249.869 157.098 249.895 157.032C249.923 156.958 249.959 156.888 250.002 156.823C250.142 156.609 250.357 156.442 250.611 156.343C250.852 156.249 251.128 156.217 251.413 156.263Z" fill="#FFB93E"/>
<path d="M252.313 181.492L247.912 208.13C247.818 208.702 247.159 209.078 246.43 208.989C246.406 208.985 246.382 208.982 246.359 208.978L242.788 208.392C242.765 208.388 242.741 208.384 242.718 208.379C241.999 208.231 241.496 207.664 241.59 207.092L245.45 183.725C247.373 183.658 250.09 183.211 252.313 181.492Z" fill="#FFA412"/>
<path d="M249.032 162.098L248.938 162.664L255.259 163.708L255.353 163.142L249.032 162.098Z" fill="#FFA412"/>
<path d="M248.734 164.005L248.641 164.57L254.963 165.611L255.056 165.045L248.734 164.005Z" fill="#FFA412"/>
<path d="M248.344 166.309L248.25 166.875L254.572 167.917L254.665 167.352L248.344 166.309Z" fill="#FFA412"/>
<path d="M247.75 169.794L247.657 170.359L253.979 171.401L254.072 170.835L247.75 169.794Z" fill="#FFA412"/>
<path d="M247.149 173.512L247.055 174.078L253.377 175.12L253.471 174.554L247.149 173.512Z" fill="#FFA412"/>
<path d="M246.196 179.247L246.102 179.812L252.423 180.855L252.517 180.289L246.196 179.247Z" fill="#FFA412"/>
<path d="M245.305 184.544L245.211 185.109L251.533 186.151L251.627 185.585L245.305 184.544Z" fill="#FFA412"/>
<path d="M244.531 189.309L244.438 189.875L250.76 190.917L250.853 190.351L244.531 189.309Z" fill="#FFA412"/>
<path d="M249.321 160.286L249.227 160.852L255.548 161.894L255.642 161.328L249.321 160.286Z" fill="#FFA412"/>
<path d="M249.531 159.067L249.438 159.633L255.76 160.673L255.853 160.108L249.531 159.067Z" fill="#FFA412"/>
<path d="M249.703 157.895L249.61 158.461L255.932 159.501L256.025 158.936L249.703 157.895Z" fill="#FFA412"/>
<path d="M249.758 157.593L256.08 158.631L256.139 158.278C256.151 158.205 256.155 158.134 256.152 158.062L249.874 157.031C249.848 157.098 249.828 157.167 249.817 157.24L249.758 157.593Z" fill="#FFA412"/>
<path d="M250 156.824L256.137 157.832C256.073 157.584 255.924 157.357 255.716 157.183L250.609 156.344C250.355 156.443 250.141 156.61 250 156.824Z" fill="#FFA412"/>
<path d="M227.693 204L227.687 207.613C227.686 207.901 227.609 208.168 227.476 208.391C227.337 208.624 227.136 208.808 226.902 208.91C226.83 208.942 226.756 208.966 226.679 208.981C226.608 208.996 226.537 209.003 226.463 209.003L176.008 208.884C175.357 208.882 174.822 208.293 174.791 207.56C174.79 207.536 174.79 207.512 174.79 207.488L174.796 203.874C174.796 203.85 174.797 203.826 174.798 203.803C174.832 203.07 175.369 202.483 176.02 202.484L226.475 202.604C226.548 202.604 226.62 202.612 226.69 202.627C226.767 202.642 226.842 202.666 226.913 202.699C227.147 202.803 227.347 202.987 227.485 203.221C227.617 203.444 227.694 203.712 227.693 204Z" fill="#FFB93E"/>
<path d="M202.908 208.948L175.877 208.884C175.296 208.882 174.819 208.293 174.791 207.56C174.79 207.536 174.79 207.512 174.79 207.488L174.796 203.874C174.796 203.851 174.797 203.827 174.798 203.803C174.829 203.07 175.308 202.483 175.889 202.484L199.6 202.541C199.975 204.425 200.853 207.033 202.908 208.948Z" fill="#FFA412"/>
<path d="M220.992 202.601L220.977 209L221.55 209.001L221.566 202.602L220.992 202.601Z" fill="#FFA412"/>
<path d="M219.063 202.593L219.047 208.992L219.621 208.994L219.636 202.594L219.063 202.593Z" fill="#FFA412"/>
<path d="M216.705 202.569L216.688 208.969L217.261 208.97L217.278 202.571L216.705 202.569Z" fill="#FFA412"/>
<path d="M213.132 202.562L213.118 208.961L213.691 208.962L213.706 202.563L213.132 202.562Z" fill="#FFA412"/>
<path d="M209.391 202.569L209.375 208.969L209.949 208.97L209.964 202.571L209.391 202.569Z" fill="#FFA412"/>
<path d="M203.61 202.554L203.594 208.953L204.168 208.954L204.183 202.555L203.61 202.554Z" fill="#FFA412"/>
<path d="M198.196 202.546L198.18 208.945L198.754 208.947L198.769 202.547L198.196 202.546Z" fill="#FFA412"/>
<path d="M193.345 202.523L193.329 208.922L193.902 208.923L193.919 202.524L193.345 202.523Z" fill="#FFA412"/>
<path d="M222.836 202.601L222.821 209L223.394 209.001L223.41 202.602L222.836 202.601Z" fill="#FFA412"/>
<path d="M224.053 202.601L224.04 209L224.613 209.001L224.626 202.602L224.053 202.601Z" fill="#FFA412"/>
<path d="M225.25 202.609L225.235 209.008L225.808 209.009L225.824 202.61L225.25 202.609Z" fill="#FFA412"/>
<path d="M226.137 202.602L226.125 209.001L226.484 209.002C226.557 209.002 226.629 208.994 226.699 208.98L226.711 202.625C226.641 202.61 226.569 202.603 226.495 202.602L226.137 202.602Z" fill="#FFA412"/>
<path d="M226.91 202.703L226.899 208.914C227.133 208.812 227.334 208.628 227.473 208.395L227.482 203.226C227.344 202.991 227.144 202.807 226.91 202.703Z" fill="#FFA412"/>
<path d="M222.303 197.586L222.296 201.199C222.295 201.487 222.218 201.754 222.085 201.976C221.946 202.21 221.746 202.394 221.511 202.496C221.44 202.528 221.365 202.552 221.288 202.567C221.218 202.582 221.146 202.589 221.073 202.589L170.617 202.47C169.967 202.468 169.432 201.879 169.4 201.146C169.4 201.122 169.399 201.098 169.399 201.074L169.406 197.46C169.406 197.436 169.406 197.412 169.407 197.389C169.442 196.656 169.978 196.069 170.629 196.07L221.084 196.19C221.117 196.19 221.149 196.192 221.181 196.195C221.194 196.196 221.208 196.197 221.222 196.199C221.237 196.201 221.252 196.203 221.267 196.206C221.278 196.208 221.289 196.21 221.3 196.213C221.376 196.228 221.451 196.252 221.523 196.285C221.533 196.289 221.544 196.294 221.554 196.3C221.564 196.304 221.575 196.309 221.585 196.315C221.606 196.326 221.627 196.338 221.647 196.349C221.658 196.356 221.67 196.364 221.682 196.372C221.693 196.379 221.703 196.385 221.713 196.393C221.732 196.406 221.751 196.42 221.77 196.434C221.792 196.451 221.812 196.469 221.833 196.488C221.849 196.502 221.864 196.516 221.88 196.532C221.881 196.532 221.882 196.533 221.883 196.535C221.893 196.545 221.904 196.556 221.914 196.566C221.944 196.599 221.974 196.634 222.002 196.671C222.011 196.681 222.018 196.692 222.026 196.703C222.034 196.714 222.041 196.725 222.049 196.737C222.065 196.76 222.08 196.784 222.094 196.808C222.227 197.03 222.303 197.298 222.303 197.586Z" fill="#FFB93E"/>
<path d="M197.517 202.534L170.486 202.47C169.905 202.468 169.428 201.879 169.4 201.146C169.4 201.122 169.399 201.098 169.399 201.074L169.406 197.46C169.406 197.437 169.406 197.413 169.407 197.389C169.438 196.656 169.917 196.069 170.498 196.07L194.209 196.127C194.219 196.179 194.23 196.231 194.242 196.284C194.634 198.155 195.518 200.672 197.517 202.534Z" fill="#FFA412"/>
<path d="M215.601 196.163L215.586 202.562L216.16 202.564L216.175 196.165L215.601 196.163Z" fill="#FFA412"/>
<path d="M213.64 196.163L213.625 202.562L214.199 202.564L214.214 196.165L213.64 196.163Z" fill="#FFA412"/>
<path d="M211.352 196.171L211.336 202.57L211.91 202.572L211.925 196.173L211.352 196.171Z" fill="#FFA412"/>
<path d="M207.774 196.163L207.758 202.562L208.332 202.564L208.347 196.165L207.774 196.163Z" fill="#FFA412"/>
<path d="M203.998 196.148L203.985 202.547L204.558 202.548L204.572 196.149L203.998 196.148Z" fill="#FFA412"/>
<path d="M198.189 196.132L198.172 202.531L198.746 202.533L198.762 196.134L198.189 196.132Z" fill="#FFA412"/>
<path d="M192.805 196.124L192.79 202.523L193.363 202.525L193.378 196.126L192.805 196.124Z" fill="#FFA412"/>
<path d="M187.951 196.109L187.938 202.508L188.511 202.509L188.525 196.11L187.951 196.109Z" fill="#FFA412"/>
<path d="M217.445 196.171L217.43 202.57L218.004 202.572L218.018 196.172L217.445 196.171Z" fill="#FFA412"/>
<path d="M218.664 196.187L218.649 202.586L219.222 202.587L219.238 196.188L218.664 196.187Z" fill="#FFA412"/>
<path d="M219.86 196.194L219.844 202.594L220.418 202.595L220.433 196.196L219.86 196.194Z" fill="#FFA412"/>
<path d="M220.715 196.188L220.704 202.587L221.062 202.588C221.136 202.588 221.207 202.58 221.277 202.566L221.289 196.211C221.219 196.196 221.147 196.189 221.074 196.188L220.715 196.188Z" fill="#FFA412"/>
<path d="M221.52 196.281L221.508 202.492C221.742 202.39 221.943 202.206 222.082 201.973L222.092 196.804C221.953 196.569 221.754 196.385 221.52 196.281Z" fill="#FFA412"/>
<path d="M224.927 191.351L224.921 194.965C224.92 195.253 224.843 195.52 224.71 195.742C224.571 195.976 224.371 196.159 224.136 196.262C224.065 196.294 223.99 196.318 223.913 196.333C223.843 196.347 223.771 196.355 223.697 196.355L173.242 196.235C173.04 196.235 172.848 196.177 172.68 196.076C172.323 195.862 172.069 195.452 172.029 194.973C172.027 194.953 172.026 194.932 172.025 194.911C172.024 194.887 172.024 194.863 172.024 194.839L172.03 191.226C172.03 191.202 172.031 191.178 172.032 191.154C172.066 190.421 172.603 189.834 173.254 189.836L223.709 189.955C223.783 189.956 223.854 189.964 223.924 189.978C224.001 189.994 224.076 190.018 224.148 190.05C224.382 190.154 224.581 190.339 224.72 190.573C224.851 190.796 224.928 191.063 224.927 191.351Z" fill="#FFB93E"/>
<path d="M200.142 196.299L173.111 196.235C172.93 196.235 172.76 196.177 172.609 196.076C172.291 195.862 172.064 195.452 172.029 194.974C172.027 194.953 172.026 194.932 172.025 194.912C172.024 194.888 172.024 194.864 172.024 194.84L172.03 191.226C172.03 191.202 172.031 191.178 172.032 191.154C172.063 190.422 172.543 189.834 173.123 189.836L196.834 189.892C197.199 191.725 198.04 194.242 199.977 196.141C200.031 196.194 200.086 196.247 200.142 196.299Z" fill="#FFA412"/>
<path d="M226.146 184.953L226.14 188.566C226.139 188.854 226.062 189.121 225.929 189.343C225.79 189.577 225.59 189.761 225.355 189.863C225.284 189.896 225.209 189.919 225.132 189.934C225.061 189.949 224.99 189.957 224.916 189.956L174.461 189.837C173.81 189.835 173.276 189.246 173.244 188.513C173.243 188.489 173.243 188.465 173.243 188.441L173.249 184.827C173.249 184.803 173.25 184.78 173.251 184.756C173.282 184.077 173.744 183.525 174.328 183.447C174.375 183.44 174.423 183.438 174.473 183.438L224.928 183.557C225.002 183.557 225.073 183.565 225.143 183.58C225.22 183.595 225.295 183.619 225.366 183.652C225.601 183.756 225.8 183.94 225.939 184.175C226.07 184.397 226.147 184.665 226.146 184.953Z" fill="#FFB93E"/>
<path d="M201.361 189.901L174.33 189.837C173.75 189.835 173.272 189.246 173.244 188.513C173.243 188.489 173.243 188.465 173.243 188.441L173.249 184.828C173.249 184.804 173.25 184.78 173.251 184.756C173.279 184.078 173.692 183.525 174.213 183.447C174.255 183.44 174.298 183.438 174.342 183.438L198.053 183.494C198.054 183.497 198.054 183.501 198.055 183.504C198.432 185.387 199.31 187.989 201.361 189.901Z" fill="#FFA412"/>
<path d="M222.459 178.554L222.452 182.168C222.451 182.456 222.374 182.723 222.241 182.945C222.102 183.179 221.902 183.362 221.668 183.465C221.596 183.497 221.521 183.521 221.444 183.536C221.421 183.54 221.397 183.545 221.373 183.548C221.36 183.55 221.347 183.551 221.333 183.553C221.321 183.554 221.307 183.555 221.294 183.556C221.272 183.557 221.25 183.558 221.229 183.558L170.773 183.438C170.123 183.437 169.588 182.847 169.556 182.114C169.556 182.091 169.555 182.066 169.555 182.043L169.562 178.429C169.562 178.405 169.562 178.381 169.563 178.357C169.564 178.337 169.565 178.318 169.567 178.299C169.616 177.709 169.992 177.223 170.484 177.081C170.496 177.078 170.509 177.075 170.521 177.071C170.606 177.05 170.695 177.039 170.785 177.039L221.24 177.159C221.277 177.159 221.314 177.161 221.35 177.164C221.366 177.167 221.382 177.168 221.398 177.171H221.399C221.418 177.174 221.437 177.178 221.455 177.181C221.532 177.197 221.607 177.221 221.679 177.254C221.913 177.357 222.112 177.542 222.251 177.776C222.383 177.999 222.459 178.266 222.459 178.554Z" fill="#FFB93E"/>
<path d="M197.673 183.502L170.642 183.438C170.062 183.437 169.585 182.848 169.556 182.115C169.556 182.091 169.555 182.067 169.555 182.043L169.562 178.429C169.562 178.405 169.562 178.381 169.563 178.358C169.564 178.337 169.565 178.318 169.567 178.299C169.612 177.696 169.961 177.203 170.414 177.073C170.43 177.068 170.445 177.064 170.461 177.061C170.524 177.046 170.588 177.039 170.654 177.039L194.365 177.095C194.368 177.111 194.371 177.125 194.375 177.141C194.754 179.019 195.632 181.594 197.662 183.492C197.666 183.495 197.67 183.499 197.673 183.502Z" fill="#FFA412"/>
<path d="M222.373 172.203L222.366 175.816C222.366 176.104 222.288 176.371 222.156 176.593C222.016 176.827 221.816 177.011 221.582 177.113C221.526 177.139 221.467 177.159 221.408 177.173H221.406C221.39 177.177 221.375 177.182 221.358 177.184C221.288 177.199 221.217 177.207 221.143 177.206L170.688 177.087C170.634 177.087 170.581 177.083 170.53 177.074C170.509 177.072 170.489 177.068 170.47 177.063C169.921 176.949 169.498 176.412 169.471 175.763C169.47 175.739 169.469 175.715 169.469 175.691L169.476 172.077C169.476 172.053 169.477 172.03 169.477 172.006C169.512 171.273 170.049 170.686 170.699 170.688L221.155 170.807C221.187 170.807 221.219 170.809 221.251 170.812C221.264 170.813 221.279 170.815 221.292 170.817C221.307 170.818 221.323 170.82 221.338 170.824C221.348 170.825 221.359 170.827 221.37 170.83C221.447 170.845 221.522 170.869 221.593 170.902C221.604 170.907 221.614 170.911 221.625 170.917C221.635 170.921 221.646 170.927 221.656 170.932C221.677 170.943 221.697 170.955 221.717 170.966C221.739 170.98 221.761 170.994 221.783 171.01C221.803 171.023 221.821 171.037 221.84 171.051C221.862 171.068 221.883 171.086 221.903 171.105C221.919 171.118 221.934 171.133 221.95 171.149C221.951 171.149 221.952 171.15 221.953 171.152C221.963 171.162 221.974 171.173 221.984 171.183C222.015 171.216 222.044 171.251 222.072 171.288C222.081 171.298 222.089 171.309 222.096 171.32C222.104 171.332 222.112 171.342 222.12 171.354C222.135 171.377 222.151 171.401 222.165 171.425C222.297 171.648 222.374 171.915 222.373 172.203Z" fill="#FFB93E"/>
<path d="M197.587 177.151L170.557 177.087C170.535 177.087 170.513 177.086 170.492 177.084C170.469 177.083 170.446 177.08 170.423 177.076C169.904 176.993 169.496 176.439 169.471 175.763C169.47 175.739 169.469 175.715 169.469 175.691L169.476 172.078C169.476 172.054 169.477 172.03 169.477 172.006C169.508 171.273 169.987 170.686 170.568 170.688L194.279 170.744C194.29 170.796 194.3 170.848 194.312 170.902C194.701 172.756 195.575 175.247 197.539 177.105C197.555 177.121 197.571 177.135 197.587 177.151Z" fill="#FFA412"/>
<path d="M224.99 165.968L224.983 169.582C224.983 169.87 224.905 170.137 224.773 170.359C224.633 170.593 224.433 170.776 224.199 170.879C224.127 170.911 224.052 170.935 223.975 170.95C223.905 170.965 223.834 170.972 223.76 170.972L173.305 170.852C173.102 170.852 172.911 170.794 172.742 170.693C172.385 170.479 172.131 170.069 172.092 169.591C172.09 169.57 172.088 169.549 172.088 169.528C172.087 169.504 172.086 169.481 172.086 169.457L172.093 165.843C172.093 165.819 172.094 165.795 172.094 165.771C172.129 165.038 172.666 164.451 173.316 164.453L223.772 164.573C223.845 164.573 223.917 164.581 223.987 164.595C224.064 164.611 224.139 164.635 224.21 164.668C224.444 164.771 224.644 164.956 224.782 165.19C224.914 165.413 224.99 165.68 224.99 165.968Z" fill="#FFB93E"/>
<path d="M200.205 170.916L173.174 170.853C172.993 170.852 172.822 170.795 172.672 170.693C172.353 170.479 172.127 170.069 172.092 169.591C172.09 169.57 172.088 169.55 172.088 169.529C172.087 169.505 172.086 169.481 172.086 169.457L172.093 165.843C172.093 165.82 172.094 165.795 172.094 165.772C172.126 165.039 172.605 164.452 173.185 164.453L196.897 164.509C197.262 166.343 198.102 168.86 200.039 170.758C200.093 170.812 200.149 170.864 200.205 170.916Z" fill="#FFA412"/>
<path d="M229.091 159.578L229.085 163.191C229.084 163.479 229.007 163.746 228.874 163.968C228.735 164.202 228.535 164.386 228.301 164.488C228.229 164.521 228.154 164.544 228.077 164.559C228.007 164.574 227.935 164.581 227.861 164.581L177.406 164.462C176.756 164.46 176.221 163.871 176.189 163.138C176.189 163.114 176.188 163.09 176.188 163.066L176.195 159.452C176.195 159.428 176.195 159.404 176.196 159.381C176.228 158.703 176.689 158.15 177.274 158.072C177.321 158.065 177.369 158.062 177.418 158.062L227.873 158.182C227.947 158.182 228.018 158.19 228.089 158.205C228.165 158.22 228.24 158.245 228.312 158.277C228.546 158.381 228.745 158.565 228.884 158.8C229.015 159.022 229.092 159.29 229.091 159.578Z" fill="#FFB93E"/>
<path d="M204.306 164.526L177.275 164.462C176.695 164.46 176.218 163.871 176.189 163.138C176.189 163.114 176.188 163.09 176.188 163.066L176.195 159.453C176.195 159.429 176.195 159.405 176.196 159.381C176.224 158.704 176.637 158.15 177.158 158.072C177.2 158.065 177.243 158.062 177.287 158.062L200.999 158.119C200.999 158.122 201 158.126 201.001 158.129C201.377 160.013 202.255 162.614 204.306 164.526Z" fill="#FFA412"/>
<path d="M222.49 153.171L222.483 156.785C222.483 157.073 222.405 157.34 222.273 157.562C222.133 157.796 221.933 157.979 221.699 158.082C221.627 158.114 221.553 158.138 221.475 158.153C221.452 158.158 221.428 158.162 221.405 158.165C221.386 158.168 221.367 158.17 221.348 158.171C221.338 158.172 221.329 158.173 221.32 158.174C221.3 158.174 221.28 158.175 221.26 158.175L170.805 158.055C170.154 158.054 169.619 157.464 169.588 156.732C169.587 156.708 169.586 156.684 169.586 156.66L169.593 153.046C169.593 153.022 169.594 152.998 169.594 152.974C169.629 152.242 170.166 151.655 170.816 151.656L221.272 151.776C221.293 151.776 221.315 151.777 221.337 151.778C221.388 151.782 221.438 151.788 221.487 151.799C221.564 151.814 221.639 151.838 221.71 151.871C221.747 151.887 221.782 151.905 221.816 151.925C221.838 151.937 221.859 151.95 221.879 151.964C221.881 151.965 221.883 151.966 221.886 151.968C221.906 151.982 221.927 151.997 221.947 152.012C221.951 152.015 221.954 152.018 221.957 152.02C221.976 152.034 221.994 152.049 222.011 152.066C222.055 152.103 222.095 152.143 222.133 152.187C222.145 152.2 222.156 152.214 222.167 152.228C222.169 152.23 222.171 152.232 222.173 152.235C222.181 152.244 222.187 152.252 222.194 152.262C222.195 152.263 222.197 152.265 222.198 152.267C222.21 152.283 222.222 152.3 222.234 152.318C222.25 152.343 222.267 152.367 222.282 152.393C222.414 152.616 222.491 152.884 222.49 153.171Z" fill="#FFB93E"/>
<path d="M197.705 158.12L170.674 158.056C170.093 158.054 169.616 157.465 169.588 156.732C169.587 156.708 169.586 156.684 169.586 156.66L169.593 153.046C169.593 153.023 169.594 152.999 169.594 152.975C169.626 152.242 170.105 151.655 170.686 151.656L194.397 151.713C194.406 151.761 194.416 151.81 194.428 151.86C194.818 153.728 195.7 156.245 197.694 158.11C197.697 158.113 197.701 158.117 197.705 158.12Z" fill="#FFA412"/>
<path d="M226.209 146.929L226.202 150.543C226.202 150.831 226.124 151.098 225.991 151.32C225.852 151.554 225.652 151.737 225.418 151.84C225.346 151.872 225.271 151.896 225.194 151.911C225.124 151.926 225.052 151.933 224.979 151.933L174.524 151.813C174.328 151.813 174.142 151.759 173.979 151.664C173.611 151.453 173.349 151.034 173.31 150.546C173.309 150.528 173.307 150.508 173.307 150.489C173.306 150.465 173.305 150.441 173.305 150.418L173.312 146.804C173.312 146.78 173.313 146.756 173.313 146.732C173.345 146.054 173.807 145.501 174.391 145.424C174.438 145.417 174.486 145.414 174.535 145.414L224.991 145.534C225.064 145.534 225.136 145.542 225.206 145.556C225.283 145.572 225.358 145.596 225.429 145.629C225.663 145.732 225.862 145.917 226.001 146.151C226.133 146.374 226.209 146.641 226.209 146.929Z" fill="#FFB93E"/>
<path d="M201.423 151.878L174.392 151.813C174.218 151.813 174.052 151.759 173.906 151.664C173.578 151.453 173.345 151.035 173.31 150.547C173.309 150.528 173.307 150.509 173.307 150.49C173.306 150.466 173.305 150.442 173.305 150.418L173.312 146.804C173.312 146.78 173.313 146.756 173.313 146.733C173.342 146.055 173.754 145.502 174.275 145.424C174.317 145.417 174.36 145.414 174.404 145.414L198.116 145.47C198.116 145.473 198.117 145.477 198.118 145.48C198.484 147.316 199.328 149.833 201.269 151.729C201.319 151.779 201.371 151.829 201.423 151.878Z" fill="#FFA412"/>
<path d="M222.521 140.531L222.515 144.145C222.514 144.433 222.437 144.7 222.304 144.922C222.165 145.156 221.965 145.339 221.73 145.442C221.659 145.474 221.584 145.497 221.507 145.513C221.483 145.517 221.459 145.522 221.436 145.525C221.423 145.526 221.41 145.528 221.396 145.529C221.383 145.531 221.37 145.532 221.356 145.532C221.334 145.534 221.313 145.535 221.291 145.535L170.836 145.415C170.185 145.413 169.651 144.824 169.619 144.091C169.618 144.067 169.618 144.043 169.618 144.019L169.624 140.406C169.624 140.382 169.625 140.358 169.626 140.334C169.66 139.601 170.197 139.014 170.848 139.016L221.303 139.135C221.377 139.136 221.448 139.143 221.518 139.158C221.595 139.174 221.67 139.198 221.741 139.23C221.975 139.334 222.175 139.518 222.313 139.753C222.445 139.976 222.522 140.243 222.521 140.531Z" fill="#FFB93E"/>
<path d="M197.736 145.479L170.705 145.415C170.125 145.414 169.647 144.824 169.619 144.091C169.618 144.067 169.618 144.044 169.618 144.02L169.624 140.406C169.624 140.382 169.625 140.358 169.626 140.334C169.657 139.601 170.136 139.014 170.717 139.016L194.428 139.072C194.803 140.954 195.678 143.555 197.725 145.469C197.728 145.472 197.732 145.476 197.736 145.479Z" fill="#FFA412"/>
<path d="M218.227 189.944L218.211 196.344L218.785 196.345L218.8 189.946L218.227 189.944Z" fill="#FFA412"/>
<path d="M216.264 189.937L216.25 196.336L216.824 196.337L216.837 189.938L216.264 189.937Z" fill="#FFA412"/>
<path d="M213.936 189.921L213.922 196.32L214.496 196.322L214.509 189.922L213.936 189.921Z" fill="#FFA412"/>
<path d="M210.375 189.929L210.36 196.328L210.933 196.329L210.949 189.93L210.375 189.929Z" fill="#FFA412"/>
<path d="M206.594 189.921L206.579 196.32L207.152 196.322L207.167 189.922L206.594 189.921Z" fill="#FFA412"/>
<path d="M200.821 189.905L200.805 196.305L201.378 196.306L201.394 189.907L200.821 189.905Z" fill="#FFA412"/>
<path d="M195.397 189.882L195.383 196.281L195.957 196.282L195.97 189.883L195.397 189.882Z" fill="#FFA412"/>
<path d="M190.586 189.882L190.571 196.281L191.144 196.283L191.159 189.883L190.586 189.882Z" fill="#FFA412"/>
<path d="M220.078 189.952L220.063 196.352L220.636 196.353L220.652 189.954L220.078 189.952Z" fill="#FFA412"/>
<path d="M221.264 189.945L221.25 196.344L221.824 196.345L221.837 189.946L221.264 189.945Z" fill="#FFA412"/>
<path d="M222.461 189.952L222.446 196.352L223.019 196.353L223.035 189.954L222.461 189.952Z" fill="#FFA412"/>
<path d="M223.348 189.953L223.336 196.352L223.695 196.353C223.768 196.353 223.84 196.346 223.91 196.331L223.922 189.977C223.851 189.962 223.78 189.954 223.706 189.954L223.348 189.953Z" fill="#FFA412"/>
<path d="M224.152 190.047L224.141 196.258C224.375 196.156 224.576 195.972 224.715 195.739L224.724 190.569C224.586 190.335 224.386 190.151 224.152 190.047Z" fill="#FFA412"/>
<path d="M202.039 183.507L202.024 189.906L202.597 189.908L202.613 183.508L202.039 183.507Z" fill="#FFA412"/>
<path d="M196.625 183.476L196.61 189.875L197.183 189.876L197.198 183.477L196.625 183.476Z" fill="#FFA412"/>
<path d="M191.805 183.484L191.79 189.883L192.363 189.884L192.379 183.485L191.805 183.484Z" fill="#FFA412"/>
<path d="M221.822 189.947L221.834 183.548L221.331 183.547C221.358 183.543 221.384 183.54 221.411 183.534L221.422 177.18C221.387 177.172 221.352 177.167 221.316 177.163L221.328 170.962L221.551 170.962L221.54 177.11C221.774 177.007 221.974 176.824 222.114 176.59L222.123 171.421C222.009 171.227 221.851 171.071 221.669 170.963L221.869 170.963L221.881 164.564L221.307 164.562L221.296 170.821C221.236 170.81 221.175 170.804 221.113 170.803L220.754 170.802L220.743 177.202L220.849 177.202L220.837 183.555L221.195 183.556C221.218 183.556 221.239 183.554 221.261 183.553L221.249 189.946L221.822 189.947Z" fill="#FFA412"/>
<path d="M222.516 183.554L222.5 189.953L223.074 189.954L223.089 183.555L222.516 183.554Z" fill="#FFA412"/>
<path d="M223.681 183.546L223.665 189.945L224.238 189.947L224.255 183.548L223.681 183.546Z" fill="#FFA412"/>
<path d="M224.559 183.555L224.547 189.954L224.906 189.955C224.979 189.955 225.051 189.947 225.121 189.933L225.132 183.578C225.062 183.563 224.991 183.556 224.917 183.556L224.559 183.555Z" fill="#FFA412"/>
<path d="M225.363 183.648L225.352 189.86C225.587 189.757 225.787 189.574 225.926 189.34L225.936 184.171C225.797 183.937 225.597 183.752 225.363 183.648Z" fill="#FFA412"/>
<path d="M216.293 183.543L216.305 177.144L216.199 177.144L216.211 170.79L215.637 170.789L215.626 177.188L215.732 177.189L215.72 183.532L215.161 183.531L215.149 189.93L215.722 189.931L215.734 183.542L216.293 183.543Z" fill="#FFA412"/>
<path d="M212.016 177.136L211.91 177.136L211.921 170.783L211.348 170.781L211.336 177.18L211.443 177.181L211.431 183.534L211.572 183.534L211.561 189.924L212.134 189.925L212.146 183.526L212.005 183.525L212.016 177.136Z" fill="#FFA412"/>
<path d="M221.652 177.25L221.641 183.462C221.876 183.359 222.076 183.175 222.215 182.942L222.225 177.773C222.086 177.538 221.886 177.354 221.652 177.25Z" fill="#FFA412"/>
<path d="M208.382 170.775L207.809 170.773L207.797 177.173L207.903 177.173L207.892 183.516L207.828 183.516L207.817 189.915L208.39 189.917L208.402 183.527L208.465 183.528L208.477 177.129L208.371 177.128L208.382 170.775Z" fill="#FFA412"/>
<path d="M204.609 170.767L204.036 170.766L204.024 177.165L204.13 177.165L204.118 183.519L204.692 183.52L204.703 177.121L204.598 177.12L204.609 170.767Z" fill="#FFA412"/>
<path d="M198.797 170.751L198.223 170.75L198.211 177.149L198.318 177.149L198.306 183.503L198.88 183.504L198.891 177.105L198.785 177.105L198.797 170.751Z" fill="#FFA412"/>
<path d="M193.39 170.736L192.817 170.734L192.805 177.134L192.911 177.134L192.9 183.487L193.473 183.489L193.485 177.089L193.379 177.089L193.39 170.736Z" fill="#FFA412"/>
<path d="M188.562 170.728L187.989 170.727L187.977 177.126L188.083 177.126L188.072 183.48L188.645 183.481L188.657 177.082L188.551 177.082L188.562 170.728Z" fill="#FFA412"/>
<path d="M218.054 170.798L217.481 170.797L217.469 177.196L217.575 177.196L217.564 183.539H217.484L217.473 189.939L218.046 189.94L218.058 183.551L218.137 183.551L218.149 177.152L218.043 177.152L218.054 170.798Z" fill="#FFA412"/>
<path d="M219.278 170.799L218.816 170.797L218.828 164.556L218.254 164.555L218.243 170.954L218.704 170.955L218.693 177.196L218.799 177.197L218.787 183.55L219.361 183.551L219.372 177.152L219.266 177.152L219.278 170.799Z" fill="#FFA412"/>
<path d="M216.328 164.554L216.313 170.953L216.886 170.954L216.902 164.555L216.328 164.554Z" fill="#FFA412"/>
<path d="M213.987 170.788L213.707 170.788L213.696 177.187L213.802 177.187L213.79 183.54L214.364 183.542L214.375 177.143L214.269 177.142L214.281 170.947L214.56 170.947L214.571 164.548L213.998 164.547L213.987 170.788Z" fill="#FFA412"/>
<path d="M210.408 164.531L210.391 170.93L210.965 170.931L210.981 164.532L210.408 164.531Z" fill="#FFA412"/>
<path d="M206.649 164.531L206.633 170.93L207.207 170.931L207.222 164.532L206.649 164.531Z" fill="#FFA412"/>
<path d="M200.851 164.507L200.836 170.906L201.41 170.908L201.425 164.508L200.851 164.507Z" fill="#FFA412"/>
<path d="M195.428 164.499L195.415 170.898L195.988 170.9L196.001 164.501L195.428 164.499Z" fill="#FFA412"/>
<path d="M190.61 164.499L190.594 170.898L191.168 170.9L191.183 164.501L190.61 164.499Z" fill="#FFA412"/>
<path d="M220.081 170.804L219.873 170.804L219.861 177.202L219.968 177.203L219.956 183.546L219.418 183.545L219.407 189.944L219.98 189.945L219.992 183.556L220.53 183.558L220.541 177.158L220.435 177.158L220.446 170.963L220.654 170.963L220.665 164.564L220.092 164.562L220.081 170.804Z" fill="#FFA412"/>
<path d="M222.516 164.569L222.5 170.969L223.074 170.97L223.089 164.571L222.516 164.569Z" fill="#FFA412"/>
<path d="M223.933 170.949L223.945 164.594C223.875 164.579 223.803 164.571 223.73 164.571L223.371 164.57L223.36 170.97L223.718 170.971C223.792 170.971 223.863 170.963 223.933 170.949Z" fill="#FFA412"/>
<path d="M224.738 170.356L224.748 165.187C224.609 164.952 224.41 164.768 224.176 164.664L224.165 170.876C224.399 170.773 224.599 170.589 224.738 170.356Z" fill="#FFA412"/>
<path d="M222.391 158.171L222.375 164.57L222.949 164.572L222.964 158.172L222.391 158.171Z" fill="#FFA412"/>
<path d="M214.563 158.156L214.547 164.555L215.121 164.556L215.136 158.157L214.563 158.156Z" fill="#FFA412"/>
<path d="M210.789 158.14L210.774 164.539L211.347 164.54L211.363 158.141L210.789 158.14Z" fill="#FFA412"/>
<path d="M205.016 158.132L205 164.531L205.574 164.533L205.589 158.133L205.016 158.132Z" fill="#FFA412"/>
<path d="M199.602 158.116L199.586 164.516L200.16 164.517L200.175 158.118L199.602 158.116Z" fill="#FFA412"/>
<path d="M194.741 158.101L194.727 164.5L195.3 164.501L195.314 158.102L194.741 158.101Z" fill="#FFA412"/>
<path d="M224.235 158.179L224.219 164.578L224.793 164.579L224.808 158.18L224.235 158.179Z" fill="#FFA412"/>
<path d="M225.461 158.179L225.446 164.578L226.019 164.579L226.034 158.18L225.461 158.179Z" fill="#FFA412"/>
<path d="M226.617 158.171L226.602 164.57L227.175 164.572L227.19 158.173L226.617 158.171Z" fill="#FFA412"/>
<path d="M227.512 158.18L227.5 164.579L227.859 164.58C227.932 164.58 228.004 164.572 228.074 164.558L228.086 158.203C228.016 158.188 227.944 158.181 227.87 158.18L227.512 158.18Z" fill="#FFA412"/>
<path d="M228.316 158.273L228.305 164.485C228.539 164.382 228.74 164.199 228.879 163.965L228.889 158.796C228.75 158.562 228.55 158.377 228.316 158.273Z" fill="#FFA412"/>
<path d="M215.752 158.157L216.325 158.159L216.337 151.759L215.777 151.758L215.789 145.516L216.348 145.518L216.36 139.118L215.786 139.117L215.775 145.506L215.215 145.505L215.204 151.904L215.763 151.905L215.752 158.157Z" fill="#FFA412"/>
<path d="M213.822 151.749L213.805 158.148L214.379 158.15L214.395 151.751L213.822 151.749Z" fill="#FFA412"/>
<path d="M204.18 151.741L204.165 158.141L204.738 158.142L204.753 151.743L204.18 151.741Z" fill="#FFA412"/>
<path d="M198.382 151.71L198.368 158.109L198.941 158.111L198.956 151.711L198.382 151.71Z" fill="#FFA412"/>
<path d="M192.961 151.71L192.946 158.109L193.519 158.111L193.535 151.712L192.961 151.71Z" fill="#FFA412"/>
<path d="M188.109 151.687L188.094 158.086L188.668 158.087L188.683 151.688L188.109 151.687Z" fill="#FFA412"/>
<path d="M217.6 158.165L218.107 158.166L218.096 164.555L218.669 164.557L218.681 158.157L218.173 158.156L218.185 151.767L218.105 151.767L218.117 145.525L218.196 145.525L218.208 139.126L217.634 139.125L217.623 145.514L217.543 145.514L217.532 151.913L217.611 151.913L217.6 158.165Z" fill="#FFA412"/>
<path d="M218.825 151.765L218.813 158.164L219.386 158.165L219.398 151.766L218.825 151.765Z" fill="#FFA412"/>
<path d="M221.813 151.926L221.914 151.926L221.925 145.527L221.422 145.525C221.449 145.522 221.476 145.519 221.502 145.513L221.514 139.158C221.444 139.144 221.372 139.136 221.298 139.136L220.94 139.135L220.929 145.534L221.287 145.535C221.309 145.535 221.33 145.533 221.352 145.532L221.34 151.78C221.319 151.778 221.297 151.776 221.276 151.776L220.917 151.776L220.906 158.165L220.592 158.164L220.604 151.775L220.066 151.774L220.078 145.532L220.615 145.533L220.627 139.134L220.053 139.133L220.042 145.522L219.504 145.521L219.493 151.92L220.03 151.921L220.019 158.173L220.455 158.174L220.443 164.563L221.017 164.565L221.028 158.175L221.264 158.176C221.338 158.176 221.409 158.168 221.479 158.154L221.491 151.925L221.714 151.925L221.703 158.083C221.937 157.98 222.137 157.797 222.276 157.563L222.286 152.394C222.168 152.194 222.003 152.034 221.813 151.926Z" fill="#FFA412"/>
<path d="M202.1 145.476L202.086 151.875L202.66 151.876L202.673 145.477L202.1 145.476Z" fill="#FFA412"/>
<path d="M196.688 145.468L196.672 151.867L197.246 151.869L197.261 145.469L196.688 145.468Z" fill="#FFA412"/>
<path d="M191.867 145.46L191.852 151.859L192.426 151.861L192.441 145.461L191.867 145.46Z" fill="#FFA412"/>
<path d="M222.546 145.515L222.532 151.914L223.105 151.915L223.12 145.516L222.546 145.515Z" fill="#FFA412"/>
<path d="M223.766 145.531L223.75 151.93L224.324 151.931L224.339 145.532L223.766 145.531Z" fill="#FFA412"/>
<path d="M224.621 145.531L224.61 151.931L224.968 151.931C225.042 151.932 225.113 151.924 225.184 151.91L225.195 145.555C225.125 145.54 225.053 145.532 224.98 145.532L224.621 145.531Z" fill="#FFA412"/>
<path d="M225.988 151.317L225.998 146.148C225.859 145.913 225.66 145.729 225.426 145.625L225.415 151.836C225.649 151.734 225.849 151.55 225.988 151.317Z" fill="#FFA412"/>
<path d="M213.86 139.116L213.844 145.516L214.418 145.517L214.433 139.118L213.86 139.116Z" fill="#FFA412"/>
<path d="M212.101 139.111L211.527 139.109L211.516 145.509L211.657 145.509L211.646 151.75L211.504 151.75L211.493 158.149L212.066 158.15L212.078 151.899L212.219 151.899L212.231 145.5L212.089 145.5L212.101 139.111Z" fill="#FFA412"/>
<path d="M207.959 145.491L207.895 145.491L207.883 151.89L207.947 151.89L207.935 158.142L208.509 158.143L208.521 151.744L208.457 151.744L208.468 145.502L208.532 145.502L208.543 139.103L207.97 139.102L207.959 145.491Z" fill="#FFA412"/>
<path d="M204.211 139.101L204.196 145.5L204.769 145.501L204.785 139.102L204.211 139.101Z" fill="#FFA412"/>
<path d="M198.406 139.085L198.391 145.484L198.965 145.486L198.98 139.087L198.406 139.085Z" fill="#FFA412"/>
<path d="M192.994 139.062L192.977 145.461L193.551 145.462L193.567 139.063L192.994 139.062Z" fill="#FFA412"/>
<path d="M188.139 139.054L188.125 145.453L188.699 145.454L188.713 139.055L188.139 139.054Z" fill="#FFA412"/>
<path d="M218.853 139.124L218.836 145.523L219.41 145.525L219.427 139.126L218.853 139.124Z" fill="#FFA412"/>
<path d="M221.738 139.227L221.727 145.438C221.961 145.335 222.162 145.152 222.301 144.918L222.31 139.749C222.172 139.515 221.972 139.33 221.738 139.227Z" fill="#FFA412"/>
<path d="M238.579 156.282L242.142 156.914C242.426 156.965 242.676 157.087 242.872 157.256C243.078 157.434 243.224 157.662 243.285 157.91C243.305 157.986 243.315 158.064 243.317 158.143C243.319 158.214 243.314 158.286 243.301 158.358L234.45 207.971C234.336 208.611 233.662 209.035 232.934 208.939C232.911 208.936 232.887 208.932 232.863 208.928L229.301 208.296C229.277 208.292 229.254 208.287 229.231 208.282C228.514 208.122 228.028 207.492 228.142 206.852L236.992 157.239C236.998 157.207 237.005 157.176 237.014 157.145C237.017 157.132 237.021 157.118 237.026 157.105C237.03 157.091 237.035 157.076 237.04 157.062C237.044 157.052 237.048 157.042 237.052 157.031C237.081 156.958 237.118 156.889 237.162 156.824C237.168 156.814 237.175 156.805 237.182 156.795C237.188 156.786 237.196 156.777 237.203 156.768C237.217 156.75 237.232 156.731 237.247 156.713C237.256 156.703 237.265 156.692 237.275 156.683C237.284 156.673 237.292 156.664 237.301 156.656C237.317 156.639 237.334 156.623 237.352 156.606C237.373 156.588 237.394 156.571 237.415 156.554C237.432 156.541 237.449 156.528 237.467 156.515C237.468 156.515 237.469 156.514 237.47 156.513C237.482 156.505 237.495 156.496 237.507 156.488C237.544 156.463 237.584 156.44 237.625 156.419C237.637 156.413 237.649 156.407 237.661 156.401C237.673 156.395 237.686 156.39 237.698 156.384C237.724 156.373 237.75 156.362 237.776 156.352C238.019 156.261 238.295 156.232 238.579 156.282Z" fill="#FFB93E"/>
<path d="M239.157 181.523L234.416 208.103C234.314 208.674 233.65 209.041 232.923 208.942C232.899 208.939 232.875 208.935 232.852 208.931L229.289 208.299C229.266 208.295 229.242 208.29 229.219 208.285C228.501 208.128 228.006 207.555 228.108 206.984L232.267 183.669C232.32 183.668 232.374 183.666 232.428 183.664C234.34 183.602 236.975 183.168 239.157 181.523Z" fill="#FFA412"/>
<path d="M236.109 162.076L236.008 162.641L242.315 163.765L242.416 163.201L236.109 162.076Z" fill="#FFA412"/>
<path d="M235.757 163.982L235.657 164.547L241.965 165.668L242.065 165.104L235.757 163.982Z" fill="#FFA412"/>
<path d="M235.367 166.256L235.266 166.82L241.574 167.943L241.675 167.378L235.367 166.256Z" fill="#FFA412"/>
<path d="M234.742 169.771L234.641 170.336L240.949 171.458L241.05 170.894L234.742 169.771Z" fill="#FFA412"/>
<path d="M234.054 173.49L233.954 174.055L240.261 175.176L240.362 174.611L234.054 173.49Z" fill="#FFA412"/>
<path d="M233.078 179.178L232.977 179.742L239.285 180.865L239.386 180.301L233.078 179.178Z" fill="#FFA412"/>
<path d="M232.093 184.506L231.993 185.07L238.301 186.191L238.401 185.627L232.093 184.506Z" fill="#FFA412"/>
<path d="M231.258 189.271L231.157 189.836L237.464 190.96L237.565 190.396L231.258 189.271Z" fill="#FFA412"/>
<path d="M236.429 160.248L236.329 160.812L242.636 161.935L242.737 161.37L236.429 160.248Z" fill="#FFA412"/>
<path d="M236.679 159.06L236.579 159.625L242.886 160.748L242.987 160.184L236.679 159.06Z" fill="#FFA412"/>
<path d="M236.851 157.889L236.75 158.453L243.058 159.576L243.159 159.011L236.851 157.889Z" fill="#FFA412"/>
<path d="M236.899 157.591L243.207 158.71L243.27 158.358C243.283 158.286 243.288 158.214 243.286 158.142L237.022 157.031C236.995 157.098 236.975 157.167 236.962 157.239L236.899 157.591Z" fill="#FFA412"/>
<path d="M237.133 156.824L243.257 157.91C243.196 157.662 243.05 157.433 242.843 157.255L237.748 156.352C237.493 156.447 237.276 156.611 237.133 156.824Z" fill="#FFA412"/>
<path d="M358.818 208.943H337.136C335.974 207.959 337.94 205.723 339.994 205.573C340.886 205.505 342.014 205.692 343.303 205.964C343.602 202.006 345.306 184.212 351.727 184.927C358.948 185.728 351.727 192.763 349.686 196.929C348.174 200.014 346.579 204.438 345.85 206.526C346.436 206.653 347.043 206.777 347.663 206.891C348.62 203.956 352.181 194.084 356.709 194.659C362.026 195.333 359.889 199.291 356.121 201.641C353.356 203.368 349.961 205.824 348.348 207.011C349.715 207.233 351.141 207.383 352.588 207.35C356.302 207.262 358.115 208.355 358.818 208.943Z" fill="#82B378"/>
<path d="M76.0974 208.223C75.2364 206.872 72.6444 203.365 69.193 203.829C65.4319 204.335 73.3466 206.812 75.7696 208.233C75.2316 208.241 74.7687 208.198 74.429 208.077C72.8091 207.5 70.0349 208.606 69.1479 208.994H84.5698C84.463 208.625 84.1853 208.024 83.4669 207.585C83.2137 207.431 82.7046 207.409 82.0478 207.459C82.9647 206.38 83.6015 202.931 81.0488 203.818C79.1839 204.466 79.189 206.574 79.372 207.82C78.9752 207.883 78.5727 207.945 78.1754 208.003C77.4075 204.094 74.692 192.639 69.1874 192.334C63.6072 192.024 73.9194 204.213 77.3528 208.112C76.913 208.165 76.4894 208.205 76.0974 208.223Z" fill="#82B378"/>
<path d="M229.01 110.927C237.683 102.264 237.683 88.2199 229.01 79.5576C220.337 70.8952 206.275 70.8952 197.603 79.5576C188.93 88.2199 188.93 102.264 197.603 110.927C206.275 119.589 220.337 119.589 229.01 110.927Z" fill="#E2810E"/>
<path d="M233.094 101.806C236.209 89.9576 229.118 77.8299 217.255 74.7182C205.392 71.6066 193.249 78.6894 190.134 90.5381C187.018 102.387 194.11 114.515 205.973 117.626C217.836 120.738 229.978 113.655 233.094 101.806Z" fill="#FFB93E"/>
<path d="M211.763 116.613C204.623 116.613 197.692 112.837 194.008 106.163C191.399 101.436 190.789 95.976 192.291 90.7904C193.793 85.605 197.227 81.3137 201.96 78.7078C206.694 76.1016 212.16 75.4929 217.352 76.9928C222.543 78.493 226.84 81.9227 229.449 86.6502C234.835 96.4094 231.268 108.726 221.497 114.106C218.408 115.806 215.063 116.613 211.763 116.613ZM211.701 77.3933C208.531 77.3933 205.396 78.1926 202.543 79.7635C198.092 82.2142 194.863 86.249 193.451 91.1254C192.038 96.0016 192.612 101.135 195.065 105.581C198.529 111.856 205.047 115.407 211.761 115.408C214.864 115.408 218.009 114.649 220.914 113.049C230.102 107.991 233.457 96.4088 228.392 87.232C225.938 82.7864 221.898 79.5613 217.016 78.1509C215.263 77.6444 213.477 77.3933 211.701 77.3933Z" fill="#FFA412"/>
<path d="M233.708 83.306C232.779 82.6509 230.672 81.2093 230.563 81.5304C230.484 81.7614 230.596 82.1539 230.849 82.5623C229.575 82.0869 228.281 81.7748 225.221 82.3619C224.608 82.4796 224.052 82.8272 223.716 83.3517C223.404 83.8368 223.287 84.4433 224.068 84.9285C225.629 85.8982 225.177 85.3171 227.347 86.7294C229.517 88.1415 232.174 88.502 233.761 87.5109L235.892 87.1562L236.156 83.6563C236.156 83.6563 234.942 83.5119 233.708 83.306Z" fill="#FFB27D"/>
<path d="M289.522 53.9492C289.522 53.9492 284.5 59.9004 278.104 57.411C278.104 57.411 276.728 54.0873 276.709 51.6372C276.706 51.3356 276.703 51.0434 276.698 50.7656C276.664 48.0065 276.571 46.4584 276.571 46.4584C276.571 46.4584 276.573 46.4577 276.577 46.4571C276.868 46.3359 286.355 42.4458 286.347 42.7691C286.184 50.2308 289.522 53.9492 289.522 53.9492Z" fill="#FFB27D"/>
<path d="M285.394 44.5464C284.479 46.2401 281.34 49.5533 276.698 50.7638C276.664 48.0046 276.571 46.4566 276.571 46.4566C276.571 46.4566 276.573 46.4558 276.577 46.4552C276.84 46.3848 285.666 44.0473 285.394 44.5464Z" fill="#ED975D"/>
<path d="M274.597 46.1709C274.597 46.1709 285.266 48.6759 286.726 42.0162C288.185 35.3566 290.545 31.1948 283.795 29.3139C277.046 27.4329 275.161 29.6838 274.132 31.7882C273.104 33.8928 271.86 45.3478 274.597 46.1709Z" fill="#FFB27D"/>
<path d="M286.368 43.8337C286.513 43.9268 288.809 44.6312 293.156 35.9813C293.838 34.6235 294.304 31.686 292.713 29.0906C291.122 26.4952 285.481 24.4545 280.795 23.5663C276.109 22.6784 274.983 25.312 273.88 27.9591C272.721 30.7379 269.375 33.0255 269.375 33.0255C273.417 35.2802 278.284 32.0553 279.97 32.5857C281.657 33.1159 282.252 35.7704 282.379 36.6212C282.505 37.4721 282.7 38.1791 284.82 37.4192C286.941 36.6593 285.779 40.4204 285.439 41.1396C285.439 41.1396 285.151 43.0553 286.368 43.8337Z" fill="#A9453D"/>
<path d="M313.838 209.913H320.297C321.651 209.913 323.156 208.559 323.533 206.08C323.909 203.598 326.693 202.246 327.296 200.216C327.898 198.187 324.812 195.329 324.812 195.329L324.295 194.667L323.759 193.977L318.642 195.179C318.642 195.179 318.516 196.396 318.437 197.946C318.382 199.065 318.352 200.359 318.416 201.493C318.566 204.2 317.657 207.114 315.25 207.641C312.841 208.167 313.838 209.913 313.838 209.913Z" fill="#2C3A64"/>
<path d="M268.868 209.913H285.991C286.155 209.881 286.279 209.846 286.355 209.808C287.498 209.236 287.14 204.864 287.003 203.514C286.976 203.264 286.957 203.117 286.957 203.117C286.957 203.117 280.936 198.307 280.108 201.99C280.081 202.105 280.051 202.218 280.019 202.329V202.33C278.974 205.777 274.301 207.342 271.602 207.778C269.54 208.113 269.005 209.313 268.868 209.913Z" fill="#2C3A64"/>
<path d="M272.321 111.282C272.321 111.282 273.235 122.677 274.31 136.374C275.771 154.982 277.527 177.838 277.701 182.168C278.002 189.686 279.207 201.713 279.207 201.713C279.207 201.713 282.066 204.57 287.787 203.366C287.787 203.366 292.885 186.197 294.342 168.032C294.365 167.735 294.387 167.435 294.41 167.135C295.764 148.643 297.871 109.703 297.871 109.703L272.321 111.282Z" fill="#263238"/>
<path d="M272.321 111.282C272.321 111.282 273.235 122.677 274.31 136.374L294.342 168.032C294.365 167.735 294.387 167.435 294.41 167.135C295.764 148.643 297.871 109.703 297.871 109.703L272.321 111.282Z" fill="#263238"/>
<path d="M276.485 112.637C276.485 112.637 292.967 153.907 303.805 173.301C314.643 192.695 318.03 198.107 318.03 198.107C318.03 198.107 324.239 195.627 324.804 193.935C324.804 193.935 320.659 156.494 313.401 147.367C309.3 142.209 304.483 126.732 304.257 121.32C304.031 115.907 302.789 105.195 302.789 105.195L276.485 112.637Z" fill="#263238"/>
<path d="M314.084 105.135L314.258 107.789C314.258 107.789 312.505 112.505 317.416 114.923C317.416 114.923 319.517 115.77 319.603 114.136C319.688 112.501 319.419 113.116 319.59 110.815C319.761 108.513 318.855 106.338 317.331 105.605L316.08 104.164L314.084 105.135Z" fill="#FFB27D"/>
<path d="M316.015 107.072C314.191 107.657 313.898 107.525 313.898 107.525C313.898 107.525 305.019 91.3784 304.119 89.9001C303.22 88.4221 285.266 71.7935 285.266 71.7935L289.88 54.6094C289.88 54.6094 310.3 81.0202 312.505 84.8099C316.149 91.0725 318.284 105.617 318.284 105.617C318.284 105.617 317.448 106.613 316.015 107.072Z" fill="#016B83"/>
<path d="M268.858 78.539C268.922 82.0679 269.127 86.0351 269.404 90.0643C269.421 90.3033 269.438 90.5423 269.455 90.781C269.632 93.2772 269.824 95.7791 270.044 98.2186C270.133 99.1967 270.227 100.164 270.325 101.114L270.34 101.242C270.347 101.597 270.391 101.983 270.43 102.334C271.33 111.473 272.274 118.692 272.449 118.803C272.658 118.942 272.894 119.012 273.152 118.982C275.551 118.681 282.71 119.225 288.571 117.951C293.516 116.909 297.775 114.934 302.287 112.27C302.886 111.917 304.252 110.98 304.14 110.28C304.031 109.511 303.829 108.399 303.573 107.001C302.684 102.141 301.15 93.7794 300.626 83.9941C300.524 82.1714 300.376 80.3711 300.184 78.6011C299.681 73.9904 298.874 69.6114 297.794 65.7213C295.784 58.4942 292.831 52.96 289.126 50.795C288.642 50.524 286.038 52.1795 283.646 53.7124C281.436 55.1271 279.111 55.5183 276.849 55.3208L274.858 57.5198C272.447 60.3189 269.88 64.0453 269.18 69.3424C269.127 69.7336 269.082 70.1493 269.044 70.5913C268.85 72.749 268.803 75.4803 268.858 78.539Z" fill="#016B83"/>
<path d="M268.858 78.5441C268.922 82.073 269.127 86.0402 269.404 90.0694C269.421 90.3084 269.438 90.5474 269.455 90.7861C283.16 82.2177 285.271 66.5391 285.271 66.5391C278.529 66.8344 273.172 68.3826 269.044 70.5964C268.85 72.7541 268.803 75.4855 268.858 78.5441Z" fill="#016B83"/>
<path d="M234.201 85.2895C234.06 83.2591 235.112 82.9214 235.112 82.9214C235.112 82.9214 255.776 79.1811 257.533 78.6292C259.29 78.0773 274.31 62.4705 274.31 62.4705C274.31 62.4705 280.068 55.9853 284.782 57.4175C288.879 58.6619 290.48 61.8535 291.025 64.894C291.675 68.5174 290.003 72.1631 286.861 74.0878C279.809 78.4078 265.692 86.9197 262.367 87.8933C254.967 90.0604 235.084 88.067 235.084 88.067C235.084 88.067 234.312 86.884 234.201 85.2895Z" fill="#016B83"/>
<path opacity="0.2" d="M258.551 124.933V201.649C258.551 206.124 254.886 209.786 250.406 209.786H171.453C170.768 209.786 170.101 209.702 169.462 209.544C168.095 209.206 166.857 208.528 165.846 207.605C165.124 206.947 164.518 206.163 164.062 205.291C164.038 205.244 164.014 205.198 163.991 205.15C163.518 204.201 163.222 203.15 163.146 202.042C163.132 201.853 163.125 201.662 163.125 201.469V125.425C163.125 121.122 165.352 117.143 168.984 114.826C168.984 114.826 168.986 114.825 168.993 114.821C172.017 112.887 174.023 109.5 174.023 105.646C174.023 104.503 173.846 103.403 173.52 102.367H248.157C247.83 103.403 247.654 104.503 247.654 105.646C247.654 109.341 249.496 112.606 252.314 114.573C252.316 114.573 252.316 114.575 252.317 114.575C252.505 114.706 252.697 114.831 252.893 114.949C252.894 114.95 252.894 114.95 252.894 114.95C256.391 117.077 258.551 120.844 258.551 124.933Z" fill="#ED9F4A"/>
<path opacity="0.2" d="M258.527 124.933V201.649C258.527 205.931 255.17 209.469 250.956 209.765C250.767 209.78 250.575 209.786 250.381 209.786H215.617C211.037 209.786 207.29 206.044 207.29 201.469V125.425C207.29 121.122 209.516 117.143 213.148 114.826C216.179 112.894 218.188 109.504 218.188 105.646C218.188 104.503 218.012 103.403 217.685 102.367H248.133C247.806 103.403 247.629 104.503 247.629 105.646C247.629 108.675 248.867 111.414 250.865 113.385C251.469 113.982 252.141 114.509 252.87 114.95C256.367 117.077 258.527 120.844 258.527 124.933Z" fill="#ED9F4A"/>
<path opacity="0.6" d="M252.314 114.573C249.876 113.115 239.315 107.947 212.457 108.166C181.694 108.418 169.37 114.628 168.993 114.821C172.017 112.887 174.023 109.5 174.023 105.646C174.023 104.503 173.846 103.403 173.52 102.367H248.157C247.83 103.403 247.654 104.503 247.654 105.646C247.654 109.341 249.496 112.606 252.314 114.573Z" fill="#ED9F4A"/>
<path d="M249.832 101.834V105.314C249.832 105.657 249.552 105.937 249.209 105.937H172.437C172.093 105.937 171.813 105.657 171.813 105.314V101.834C171.813 101.492 172.093 101.211 172.437 101.211H249.209C249.551 101.211 249.832 101.492 249.832 101.834Z" fill="#2B478B"/>
<path d="M249.83 101.834V105.314C249.83 105.657 249.55 105.937 249.208 105.937H220.148C219.806 105.937 219.524 105.657 219.524 105.314V101.834C219.524 101.492 219.806 101.211 220.148 101.211H249.208C249.55 101.211 249.83 101.492 249.83 101.834Z" fill="#233862"/>
<path d="M198.624 119.064C198.624 119.064 196.645 121.846 194.831 121.885C193.017 121.924 190.258 120.595 190.258 120.595C190.258 120.595 188.592 116.888 189.722 115.437C189.722 115.437 190.854 114.94 192.039 115.817C192.242 115.969 192.449 116.159 192.652 116.404C192.94 116.749 193.263 116.946 193.605 117.049C194.899 117.442 196.436 116.517 197.01 117.41C197.346 117.929 197.711 118.319 198.011 118.593C198.366 118.909 198.624 119.064 198.624 119.064Z" fill="#F9DDBF"/>
<path d="M172.836 139.131C172.836 139.131 179.83 122.205 192.42 121.883C192.42 121.883 204.04 123.172 204.686 139.131H172.836Z" fill="#F9DDBF"/>
<path d="M188.963 122.402C188.963 122.402 194.009 123.522 195.566 122.864C195.566 122.864 195.801 120.756 193.676 121.052C192.221 121.254 191.274 120.556 190.717 120.273C189.928 119.872 188.753 121.52 188.963 122.402Z" fill="#F1A34F"/>
<path d="M193.377 119.228C193.054 119.47 192.063 115.82 192.063 115.82C192.266 115.972 192.473 116.162 192.676 116.407C192.964 116.752 193.286 116.949 193.629 117.052C193.632 117.158 193.69 118.993 193.377 119.228Z" fill="#E5C1A1"/>
<path d="M198.037 118.589C197.966 118.631 195.633 120.027 195.316 120.027C194.993 120.027 197.037 117.406 197.037 117.406C197.373 117.925 197.737 118.315 198.037 118.589Z" fill="#E5C1A1"/>
<path d="M179.651 134.407C179.522 134.296 184.601 126.938 186 126.884C187.399 126.83 190.541 128.496 192.817 128.711C195.092 128.926 197.298 128.281 197.728 129.625C198.158 130.968 199.342 135.731 198.616 136.493C197.889 137.255 182.444 136.79 179.651 134.407Z" fill="#E5C1A1"/>
<path opacity="0.5" d="M174 203.99C173.595 204.203 173.187 204.404 172.777 204.598C172.387 204.824 171.99 205.045 171.585 205.256C169.719 206.236 167.795 207.016 165.838 207.606C165.116 206.947 164.51 206.164 164.054 205.291C163.743 205.457 163.432 205.617 163.118 205.772V147.891C164.557 148.082 165.98 148.369 167.375 148.746C175.204 150.859 182.176 155.834 186.417 163.152C194.84 177.691 189.28 195.975 174 203.99Z" fill="#E2810E"/>
<path d="M179.301 160.867C170.878 145.604 151.661 140.052 136.38 148.466C121.098 156.879 115.539 176.073 123.963 191.335C132.387 206.598 151.603 212.15 166.885 203.737C182.166 195.323 187.725 176.13 179.301 160.867Z" fill="#E2810E"/>
<path d="M165.658 204.377C165.269 204.614 164.873 204.844 164.471 205.065C164.334 205.14 164.198 205.214 164.062 205.286C163.75 205.452 163.439 205.611 163.125 205.766C148.08 213.147 129.728 207.482 121.549 192.663C113.747 178.529 117.941 161.021 130.742 151.828C131.763 151.095 132.837 150.414 133.966 149.794C134.37 149.571 134.779 149.357 135.189 149.155C135.587 148.956 135.99 148.767 136.393 148.588C137.63 148.038 138.887 147.574 140.156 147.194C142.042 146.626 143.957 146.244 145.876 146.042C151.828 145.412 157.816 146.498 163.125 149.092C168.759 151.844 173.629 156.294 176.887 162.195C185.089 177.057 180.035 195.643 165.658 204.377Z" fill="#FFB93E"/>
<path d="M149.435 206.521C146.748 206.521 144.046 206.142 141.394 205.375C134.008 203.241 127.896 198.362 124.184 191.636C120.472 184.911 119.605 177.144 121.741 169.767C123.878 162.39 128.763 156.285 135.497 152.578C142.23 148.87 150.007 148.004 157.393 150.138C164.779 152.272 170.891 157.151 174.603 163.877C178.315 170.602 179.182 178.369 177.046 185.746C174.909 193.123 170.024 199.228 163.29 202.935C158.975 205.312 154.23 206.521 149.435 206.521ZM125.688 190.808C129.179 197.133 134.926 201.721 141.872 203.728C148.817 205.734 156.129 204.92 162.461 201.433C168.793 197.947 173.387 192.207 175.396 185.269C177.406 178.332 176.59 171.029 173.099 164.705C169.609 158.38 163.861 153.792 156.916 151.785C149.97 149.779 142.658 150.593 136.326 154.08C129.994 157.566 125.4 163.306 123.391 170.244C121.382 177.181 122.198 184.484 125.688 190.808Z" fill="#FFA412"/>
<path d="M125.741 66.3376C125.837 65.951 117.325 70.1799 116.894 70.6581C112.902 75.0808 114.04 80.8521 116.324 80.9076C117.789 80.943 117.505 83.3758 117.505 83.3758L133.825 76.4803C133.825 76.4803 131.86 65.0355 125.741 66.3376Z" fill="#2C3A64"/>
<path d="M127.735 67.2326C127.735 67.2326 128.318 60.8828 121.215 60.8828C121.215 60.8828 123.368 61.4659 124.481 62.6324C124.481 62.6324 119.951 59.9755 115.02 64.0576C110.09 68.1397 113.153 78.3775 111.654 80.3212C110.155 82.2652 104.316 82.654 105.029 88.9392C105.743 95.2242 123.56 103.096 122.416 108.296C122.416 108.296 129.398 98.0452 124.405 93.3668C124.405 93.3668 126.839 95.6562 127.087 98.3777C127.087 98.3777 127.747 93.0643 124.362 91.3651C121.366 89.8612 118.912 84.3608 119.172 83.3779C119.431 82.3949 127.735 67.2326 127.735 67.2326Z" fill="#2C3A64"/>
<path d="M121.297 97.1082C120.202 91.8399 113.363 90.2064 110.127 94.5083C109.545 95.2821 109.135 96.1965 109.002 97.2762C108.263 103.256 117.836 127.614 119.207 129.819C121.703 133.834 136.4 147.598 136.4 147.598L139.109 145.959C139.109 145.959 128.684 128.332 127.07 126.682C125.204 124.775 123.377 107.111 121.297 97.1082Z" fill="#ED985F"/>
<path d="M135.352 145.965C135.352 145.965 139.305 143.372 140.802 143.539C142.298 143.706 146.63 144.951 146.682 145.587C146.735 146.223 141.856 146.619 141.529 146.967C141.201 147.315 137.888 149.524 136.687 148.831C135.486 148.139 135.352 145.965 135.352 145.965Z" fill="#ED985F"/>
<path d="M107.787 204.534L104.255 204.016C104.255 204.016 92.3807 194.591 90.6123 177.004C90.432 175.214 90.3943 173.397 90.528 171.566C90.5436 171.355 90.5201 171.144 90.4047 170.966C90.4047 170.965 90.4033 170.964 90.4008 170.961C90.0206 170.379 89.0747 168.921 87.7941 166.848C86.5318 164.806 84.3715 160.944 81.9944 156.61C77.7128 148.806 72.7279 139.473 71.0178 136.5C65.5696 127.026 68.1957 120.655 68.1957 120.655C68.1957 120.655 83.3944 119.155 87.5592 115.516L89.0593 117.825C89.0593 117.825 92.3521 132.386 92.1967 132.453C92.3587 132.948 92.5234 133.452 92.6909 133.966C95.2898 141.977 98.279 151.99 99.9088 160.146C100.825 164.734 101.31 168.732 101.049 171.456C100.96 172.391 101.069 173.826 101.318 175.599C102.789 186.049 107.787 204.534 107.787 204.534Z" fill="#263238"/>
<path d="M115.206 208.993H100.472C100.472 208.993 100.119 206.751 100.888 205.049C101.626 203.416 102.677 203.364 101.023 200.805C101.959 201.767 104.969 202.166 107.099 201.88C107.36 202.302 108.781 205.138 109.653 205.763C110.616 206.454 114.91 206.208 115.206 208.993Z" fill="#233862"/>
<path d="M92.6909 133.965C91.4037 141.055 88.3636 152.855 81.9944 156.61C77.7128 148.806 72.7279 139.473 71.0178 136.5C65.5696 127.026 68.1957 120.655 68.1957 120.655C68.1957 120.655 83.3944 119.155 87.5592 115.516L89.0593 117.825C89.0593 117.825 92.3521 132.386 92.1967 132.453C92.3586 132.948 92.5234 133.452 92.6909 133.965Z" fill="#263238"/>
<path d="M119.72 93.8359C119.72 93.8359 121.803 95.9995 122.755 98.5915C122.755 98.5915 119.431 108.123 111.665 109.318C111.665 109.318 117.809 93.8319 119.72 93.8359Z" fill="#ED7D2B"/>
<path d="M82.3744 121.751L82.4244 118.998C76.9339 119.69 63.493 112.445 63.493 112.445C63.493 112.445 57.7488 116.261 56.9626 127.158C56.5789 132.477 54.1507 154.971 53.8822 161.688C53.7843 164.122 53.7517 165.86 53.7407 166.554C53.7418 166.558 53.7416 166.559 53.7415 166.561C53.7381 166.773 53.6386 166.96 53.5079 167.127C52.3718 168.57 51.3864 170.097 50.5329 171.682C42.1549 187.251 46.5361 208.406 46.5361 208.406L48.4818 207.912C48.4818 207.912 55.5656 185.982 60.1955 176.496C60.9815 174.887 61.6954 173.635 62.2925 172.911C64.0333 170.799 65.8689 167.212 67.6784 162.896C71.0986 154.736 74.4191 143.969 76.7872 135.632C76.9545 135.662 82.3744 121.751 82.3744 121.751Z" fill="#263238"/>
<path d="M114.488 103.377C105.512 101.319 111.247 88.722 111.767 88.9435C113.01 88.6905 115.742 86.5095 118.185 82.25L118.515 82.5358L124.028 87.3634C124.028 87.3634 122.754 89.2408 121.682 91.0798C120.844 92.5195 120.132 93.9381 120.245 94.425C120.689 94.7739 116.882 103.926 114.488 103.377Z" fill="#FFB27D"/>
<path d="M124.038 87.3667C124.038 87.3667 122.763 89.2418 121.691 91.0831C118.264 88.9728 118.26 84.7347 118.524 82.5391L124.038 87.3667Z" fill="#ED985F"/>
<path d="M124.185 89.7825C124.185 89.7825 115.863 85.1572 118.826 80.0254C121.79 74.8934 122.711 70.8402 128.15 73.5762C133.589 76.3121 133.481 78.86 132.909 80.8133C132.337 82.7663 126.426 90.8533 124.185 89.7825Z" fill="#FFB27D"/>
<path d="M134.323 77.8199C133.942 75.5413 132.783 75.3237 131.975 75.476C128.901 70.3997 123.88 72.3807 123.88 72.3807C121.198 75.742 117.321 76.3157 117.321 76.3157C117.321 76.3157 118.287 78.1105 122.266 79.2214C123.481 79.5607 124.861 79.3552 126.191 78.9078C123.43 80.4453 120.543 81.0342 120.543 81.0342C125.787 81.5134 130.776 76.7255 131.294 76.2134C131.535 76.9554 131.96 78.5087 131.706 79.6443C131.361 81.1877 129.989 83.9831 130.826 84.3448C130.826 84.3448 134.894 81.2371 134.323 77.8199Z" fill="#2C3A64"/>
<path d="M58.2374 208.998H43.5033C43.5033 208.998 43.1501 206.755 43.9196 205.054C44.6571 203.421 45.812 202.679 45.5355 200.703C46.4718 201.666 47.9976 202.744 50.1278 202.458C50.3889 202.88 51.8126 205.142 52.6845 205.768C53.6473 206.459 57.9408 206.213 58.2374 208.998Z" fill="#233862"/>
<path d="M115.553 113.367C113.657 114.028 110.996 114.39 108.274 114.685C104.4 115.108 100.399 115.397 98.3039 116.231C97.5398 116.536 97.0285 116.912 96.8689 117.392C95.9607 120.12 91.958 124.329 91.958 124.329C66.3017 123.163 63.4849 112.445 63.4849 112.445C80.7464 92.3968 109.974 86.5939 109.974 86.5939C109.974 86.5939 112.061 85.7099 117.318 89.8827C120.827 92.669 120.365 93.7381 120.365 93.7381C120.365 93.7381 121.132 111.423 115.553 113.367Z" fill="#FF8926"/>
<path d="M108.272 114.683C104.398 115.106 100.398 115.395 98.3024 116.229C97.4461 103.449 103.485 93.8359 103.485 93.8359C103.485 93.8359 107.424 109.847 108.272 114.683Z" fill="#ED7D2B"/>
<path d="M112.251 91.3672C112.251 91.3672 102.54 92.3254 101.762 98.6271C100.984 104.929 111.071 130.596 112.516 132.92C115.146 137.151 130.634 151.655 130.634 151.655L133.488 149.928C133.488 149.928 122.503 131.353 120.802 129.615C118.132 126.886 115.538 93.5502 112.251 91.3672Z" fill="#FFB27D"/>
<path d="M102.037 102.413C102.063 102.556 110.999 105.329 116.749 102.413C116.749 102.413 117.98 89.1605 111.114 89.8798C104.249 90.599 100.183 92.7587 100.01 96.0418C99.8373 99.3247 102.037 102.413 102.037 102.413Z" fill="#F99746"/>
<path d="M129.766 149.81C129.766 149.81 133.249 146.615 134.753 146.539C136.257 146.463 140.733 146.994 140.888 147.613C141.042 148.232 136.291 149.409 136.024 149.805C135.757 150.201 132.844 152.914 131.547 152.424C130.249 151.934 129.766 149.81 129.766 149.81Z" fill="#FFB27D"/>
<path d="M399.696 209.998H0.602179C0.352842 209.998 0.148926 209.794 0.148926 209.545V209.39C0.148926 209.141 0.352688 208.938 0.602179 208.938H399.696C399.945 208.938 400.149 209.141 400.149 209.39V209.545C400.149 209.794 399.945 209.998 399.696 209.998Z" fill="#2E3552"/>
</svg>
