<svg width="105" height="57" viewBox="0 0 105 57" fill="none" xmlns="http://www.w3.org/2000/svg">
<path d="M6.5017 55.9641C6.5017 55.9641 -5.71627 42.8459 4.43546 28.6435C13.4428 16.0423 23.9444 16.9036 31.6492 22.0174C34.9308 24.1953 44.3919 22.2858 52.4447 9.46354C63.4264 -8.02256 101.493 2.58282 94.5521 29.4856C91.1932 42.5046 104.774 42.9778 97.8542 55.9916L6.5017 55.9641Z" fill="#F6FFFE"/>
<path d="M64.2495 41.9723L65.1867 42.1264C65.2614 42.1387 65.3274 42.17 65.3794 42.2137C65.4342 42.2597 65.4734 42.3193 65.4901 42.3844C65.4954 42.4043 65.4984 42.4247 65.4991 42.4453C65.4999 42.4641 65.4989 42.4829 65.4957 42.502L63.3396 55.5699C63.3117 55.7383 63.1363 55.852 62.9448 55.8293C62.9386 55.8285 62.9324 55.8277 62.9262 55.8267L61.989 55.6726C61.9828 55.6715 61.9766 55.6703 61.9705 55.6692C61.7819 55.6293 61.6521 55.4655 61.68 55.297L63.8362 42.2291C63.8393 42.21 63.8444 42.1918 63.8512 42.1742C63.8585 42.155 63.8678 42.1366 63.8793 42.1195C63.916 42.0632 63.9723 42.0193 64.039 41.9933C64.1023 41.9686 64.1748 41.9601 64.2495 41.9723Z" fill="#FFB93E"/>
<path d="M64.4891 48.603L63.3339 55.604C63.3091 55.7543 63.1361 55.8531 62.9448 55.8296C62.9386 55.8287 62.9323 55.8279 62.9262 55.8269L61.989 55.6728C61.9828 55.6718 61.9766 55.6706 61.9705 55.6694C61.7817 55.6304 61.6496 55.4814 61.6744 55.3311L62.6876 49.1899C63.1924 49.1722 63.9058 49.0547 64.4891 48.603Z" fill="#FFA412"/>
<path d="M63.6286 43.5048L63.604 43.6533L65.2633 43.9276L65.2878 43.7791L63.6286 43.5048Z" fill="#FFA412"/>
<path d="M63.5445 44.0053L63.52 44.1538L65.1795 44.4273L65.2039 44.2787L63.5445 44.0053Z" fill="#FFA412"/>
<path d="M63.444 44.6127L63.4194 44.7612L65.0787 45.0352L65.1032 44.8867L63.444 44.6127Z" fill="#FFA412"/>
<path d="M63.2935 45.5287L63.269 45.6772L64.9285 45.951L64.953 45.8025L63.2935 45.5287Z" fill="#FFA412"/>
<path d="M63.131 46.5043L63.1064 46.6528L64.7659 46.9266L64.7904 46.7781L63.131 46.5043Z" fill="#FFA412"/>
<path d="M62.8834 48.0063L62.8589 48.1548L64.5183 48.4282L64.5428 48.2797L62.8834 48.0063Z" fill="#FFA412"/>
<path d="M62.6535 49.4125L62.6289 49.561L64.2882 49.8353L64.3128 49.6868L62.6535 49.4125Z" fill="#FFA412"/>
<path d="M62.4474 50.6596L62.4229 50.8081L64.0823 51.0819L64.1068 50.9334L62.4474 50.6596Z" fill="#FFA412"/>
<path d="M63.7056 43.0229L63.6812 43.1714L65.3406 43.4448L65.3651 43.2963L63.7056 43.0229Z" fill="#FFA412"/>
<path d="M63.7579 42.703L63.7334 42.8516L65.3929 43.1254L65.4174 42.9768L63.7579 42.703Z" fill="#FFA412"/>
<path d="M63.8077 42.4013L63.7832 42.5498L65.4426 42.8233L65.4671 42.6748L63.8077 42.4013Z" fill="#FFA412"/>
<path d="M63.8213 42.3214L65.4808 42.5943L65.4961 42.5015C65.4993 42.4824 65.5003 42.4636 65.4996 42.4448L63.8515 42.1738C63.8448 42.1914 63.8397 42.2096 63.8366 42.2287L63.8213 42.3214Z" fill="#FFA412"/>
<path d="M63.8794 42.1189L65.4903 42.3838C65.4735 42.3187 65.4343 42.2591 65.3796 42.2131L64.0391 41.9927C63.9724 42.0188 63.9162 42.0627 63.8794 42.1189Z" fill="#FFA412"/>
<path d="M65.9497 41.9723L66.8869 42.1264C66.9616 42.1387 67.0276 42.17 67.0796 42.2137C67.1344 42.2597 67.1736 42.3193 67.1903 42.3844C67.1956 42.4043 67.1986 42.4247 67.1993 42.4453C67.2001 42.4641 67.199 42.4829 67.1959 42.502L65.0398 55.5699C65.0119 55.7383 64.8365 55.852 64.645 55.8293C64.6388 55.8285 64.6326 55.8277 64.6264 55.8267L63.6892 55.6726C63.6831 55.6715 63.6768 55.6703 63.6707 55.6692C63.4821 55.6293 63.3524 55.4655 63.3802 55.297L65.5364 42.2291C65.5395 42.21 65.5446 42.1918 65.5514 42.1742C65.5587 42.155 65.568 42.1366 65.5795 42.1195C65.6162 42.0632 65.6725 42.0193 65.7392 41.9933C65.8025 41.9686 65.875 41.9601 65.9497 41.9723Z" fill="#FFB93E"/>
<path d="M66.1893 48.603L65.0341 55.604C65.0093 55.7543 64.8363 55.8531 64.645 55.8296C64.6388 55.8287 64.6325 55.8279 64.6264 55.8269L63.6892 55.6728C63.683 55.6718 63.6768 55.6706 63.6707 55.6694C63.4819 55.6304 63.3498 55.4814 63.3746 55.3311L64.3878 49.1899C64.8926 49.1722 65.6059 49.0547 66.1893 48.603Z" fill="#FFA412"/>
<path d="M65.3283 43.5048L65.3037 43.6533L66.963 43.9276L66.9875 43.7791L65.3283 43.5048Z" fill="#FFA412"/>
<path d="M65.2457 44.0067L65.2212 44.1553L66.8806 44.4287L66.9051 44.2802L65.2457 44.0067Z" fill="#FFA412"/>
<path d="M65.1437 44.6132L65.1191 44.7617L66.7785 45.0357L66.803 44.8872L65.1437 44.6132Z" fill="#FFA412"/>
<path d="M64.9913 45.5273L64.9668 45.6758L66.6262 45.9496L66.6507 45.8011L64.9913 45.5273Z" fill="#FFA412"/>
<path d="M64.8302 46.5043L64.8057 46.6528L66.4651 46.9266L66.4896 46.7781L64.8302 46.5043Z" fill="#FFA412"/>
<path d="M64.5826 48.0126L64.5581 48.1611L66.2174 48.4351L66.2419 48.2866L64.5826 48.0126Z" fill="#FFA412"/>
<path d="M64.3512 49.4047L64.3267 49.5532L65.9861 49.827L66.0106 49.6785L64.3512 49.4047Z" fill="#FFA412"/>
<path d="M64.1451 50.6576L64.1206 50.8062L65.78 51.08L65.8046 50.9314L64.1451 50.6576Z" fill="#FFA412"/>
<path d="M65.4049 43.0287L65.3804 43.1772L67.0396 43.4512L67.0642 43.3027L65.4049 43.0287Z" fill="#FFA412"/>
<path d="M65.46 42.7094L65.4355 42.8579L67.095 43.1314L67.1195 42.9828L65.46 42.7094Z" fill="#FFA412"/>
<path d="M65.5074 42.4013L65.4829 42.5498L67.1424 42.8233L67.1669 42.6747L65.5074 42.4013Z" fill="#FFA412"/>
<path d="M65.5205 42.3214L67.1801 42.5943L67.1953 42.5015C67.1985 42.4824 67.1996 42.4636 67.1987 42.4448L65.5508 42.1738C65.544 42.1914 65.5389 42.2096 65.5358 42.2287L65.5205 42.3214Z" fill="#FFA412"/>
<path d="M65.5791 42.1189L67.19 42.3838C67.1732 42.3187 67.134 42.2591 67.0793 42.2131L65.7388 41.9927C65.6721 42.0188 65.6159 42.0627 65.5791 42.1189Z" fill="#FFA412"/>
<path d="M59.7319 54.5188L59.7302 55.4686C59.73 55.5443 59.7098 55.6145 59.6749 55.6729C59.6383 55.7343 59.5858 55.7825 59.5243 55.8094C59.5054 55.8179 59.4858 55.8241 59.4656 55.8281C59.4472 55.8319 59.4284 55.8339 59.4091 55.8339L46.1645 55.8025C45.9938 55.8021 45.8534 55.6471 45.8451 55.4545C45.8449 55.4482 45.8447 55.4419 45.8447 55.4357L45.8465 54.4859C45.8465 54.4796 45.8467 54.4733 45.8469 54.467C45.8559 54.2745 45.9968 54.1202 46.1676 54.1206L59.4121 54.152C59.4314 54.1521 59.4502 54.1541 59.4686 54.158C59.4888 54.1621 59.5084 54.1685 59.5272 54.177C59.5887 54.2042 59.641 54.2527 59.6773 54.3143C59.712 54.3728 59.732 54.4431 59.7319 54.5188Z" fill="#FFB93E"/>
<path d="M53.2258 55.8193L46.1302 55.8025C45.9778 55.8021 45.8525 55.6472 45.845 55.4546C45.8449 55.4483 45.8447 55.442 45.8447 55.4357L45.8465 54.4859C45.8465 54.4797 45.8467 54.4734 45.8469 54.4671C45.855 54.2745 45.9809 54.1202 46.1333 54.1206L52.3575 54.1354C52.4559 54.6307 52.6864 55.316 53.2258 55.8193Z" fill="#FFA412"/>
<path d="M57.9728 54.1512L57.9688 55.833L58.1193 55.8334L58.1233 54.1516L57.9728 54.1512Z" fill="#FFA412"/>
<path d="M57.4635 54.1497L57.4595 55.8315L57.61 55.8319L57.614 54.1501L57.4635 54.1497Z" fill="#FFA412"/>
<path d="M56.8481 54.1443L56.8438 55.8262L56.9943 55.8266L56.9987 54.1447L56.8481 54.1443Z" fill="#FFA412"/>
<path d="M55.9106 54.1419L55.9067 55.8237L56.0573 55.8241L56.0611 54.1423L55.9106 54.1419Z" fill="#FFA412"/>
<path d="M54.9254 54.1438L54.9214 55.8257L55.0719 55.826L55.0759 54.1442L54.9254 54.1438Z" fill="#FFA412"/>
<path d="M53.4069 54.1404L53.4028 55.8223L53.5534 55.8226L53.5574 54.1408L53.4069 54.1404Z" fill="#FFA412"/>
<path d="M51.9855 54.137L51.9814 55.8188L52.132 55.8192L52.136 54.1374L51.9855 54.137Z" fill="#FFA412"/>
<path d="M50.7134 54.1312L50.709 55.813L50.8595 55.8134L50.8639 54.1316L50.7134 54.1312Z" fill="#FFA412"/>
<path d="M58.4581 54.1521L58.4541 55.834L58.6046 55.8343L58.6087 54.1525L58.4581 54.1521Z" fill="#FFA412"/>
<path d="M58.776 54.1512L58.7725 55.833L58.923 55.8333L58.9265 54.1515L58.776 54.1512Z" fill="#FFA412"/>
<path d="M59.088 54.1536L59.084 55.8354L59.2345 55.8358L59.2385 54.154L59.088 54.1536Z" fill="#FFA412"/>
<path d="M59.318 54.1528L59.3149 55.8347L59.409 55.8349C59.4283 55.835 59.4471 55.833 59.4655 55.8292L59.4686 54.159C59.4502 54.1551 59.4313 54.1531 59.4121 54.1531L59.318 54.1528Z" fill="#FFA412"/>
<path d="M59.5274 54.1777L59.5244 55.8102C59.5859 55.7832 59.6385 55.735 59.6751 55.6736L59.6775 54.3151C59.6412 54.2534 59.5888 54.205 59.5274 54.1777Z" fill="#FFA412"/>
<path d="M58.3188 52.8338L58.3171 53.7835C58.3169 53.8592 58.2966 53.9294 58.2618 53.9878C58.2252 54.0492 58.1727 54.0974 58.1112 54.1244C58.0924 54.1329 58.0727 54.1391 58.0525 54.1431C58.0341 54.1469 58.0153 54.1489 57.996 54.1488L44.7514 54.1174C44.5807 54.117 44.4403 53.9621 44.432 53.7694C44.4318 53.7631 44.4316 53.7569 44.4316 53.7506L44.4334 52.8008C44.4334 52.7946 44.4336 52.7883 44.4338 52.782C44.4428 52.5894 44.5837 52.4351 44.7545 52.4355L57.9991 52.467C58.0076 52.467 58.016 52.4674 58.0244 52.4683C58.0279 52.4685 58.0316 52.4689 58.0352 52.4695C58.0391 52.4699 58.0431 52.4705 58.0471 52.4713C58.0499 52.4717 58.0527 52.4723 58.0556 52.473C58.0757 52.4771 58.0954 52.4834 58.1141 52.4919C58.1169 52.4931 58.1197 52.4944 58.1224 52.4958C58.1251 52.497 58.128 52.4984 58.1306 52.4999C58.1359 52.5027 58.1414 52.5058 58.1467 52.5088C58.1497 52.5107 58.1529 52.5127 58.1559 52.5147C58.1587 52.5166 58.1614 52.5182 58.164 52.5203C58.1692 52.5237 58.1741 52.5274 58.1791 52.5312C58.1847 52.5357 58.1902 52.5404 58.1955 52.5452C58.1997 52.5489 58.2038 52.5528 58.2079 52.5568C58.2081 52.557 58.2084 52.5572 58.2086 52.5576C58.2113 52.5602 58.2141 52.5631 58.2167 52.5659C58.2248 52.5745 58.2327 52.5838 58.2399 52.5933C58.2422 52.5961 58.2443 52.599 58.2463 52.6019C58.2484 52.6047 58.2503 52.6077 58.2524 52.6108C58.2565 52.6168 58.2605 52.6231 58.2642 52.6294C58.2989 52.6879 58.319 52.7581 58.3188 52.8338Z" fill="#FFB93E"/>
<path d="M51.8127 54.1343L44.717 54.1174C44.5646 54.117 44.4394 53.9622 44.432 53.7695C44.4318 53.7632 44.4316 53.7569 44.4316 53.7507L44.4334 52.8009C44.4334 52.7946 44.4336 52.7883 44.4338 52.7821C44.4419 52.5895 44.5677 52.4352 44.7201 52.4355L50.9442 52.4503C50.947 52.4641 50.9498 52.4778 50.9528 52.4918C51.0559 52.9834 51.288 53.645 51.8127 54.1343Z" fill="#FFA412"/>
<path d="M56.5551 52.4608L56.5513 54.1426L56.7018 54.1429L56.7057 52.4611L56.5551 52.4608Z" fill="#FFA412"/>
<path d="M56.0454 52.4598L56.0415 54.1416L56.192 54.1419L56.1959 52.4601L56.0454 52.4598Z" fill="#FFA412"/>
<path d="M55.4396 52.4627L55.4355 54.1445L55.5861 54.1449L55.5901 52.4631L55.4396 52.4627Z" fill="#FFA412"/>
<path d="M54.5026 52.4603L54.4985 54.1421L54.649 54.1425L54.6531 52.4606L54.5026 52.4603Z" fill="#FFA412"/>
<path d="M53.5099 52.4564L53.5063 54.1382L53.6569 54.1385L53.6604 52.4567L53.5099 52.4564Z" fill="#FFA412"/>
<path d="M51.9912 52.4515L51.9868 54.1333L52.1373 54.1337L52.1417 52.4519L51.9912 52.4515Z" fill="#FFA412"/>
<path d="M50.5724 52.451L50.5684 54.1328L50.7189 54.1332L50.7229 52.4514L50.5724 52.451Z" fill="#FFA412"/>
<path d="M49.3004 52.4461L49.2969 54.1279L49.4474 54.1282L49.4509 52.4464L49.3004 52.4461Z" fill="#FFA412"/>
<path d="M57.04 52.4622L57.0361 54.144L57.1867 54.1444L57.1905 52.4625L57.04 52.4622Z" fill="#FFA412"/>
<path d="M57.3654 52.4671L57.3613 54.1489L57.5118 54.1493L57.5159 52.4674L57.3654 52.4671Z" fill="#FFA412"/>
<path d="M57.6749 52.4681L57.6709 54.1499L57.8214 54.1503L57.8255 52.4684L57.6749 52.4681Z" fill="#FFA412"/>
<path d="M57.9049 52.4668L57.9019 54.1487L57.9959 54.1489C58.0152 54.1489 58.034 54.1469 58.0525 54.1431L58.0555 52.473C58.0371 52.4691 58.0183 52.4671 57.999 52.467L57.9049 52.4668Z" fill="#FFA412"/>
<path d="M58.1143 52.4922L58.1113 54.1246C58.1728 54.0976 58.2254 54.0494 58.262 53.988L58.2645 52.6295C58.2281 52.5679 58.1757 52.5194 58.1143 52.4922Z" fill="#FFA412"/>
<path d="M59.0063 51.1941L59.0046 52.1439C59.0044 52.2196 58.9841 52.2897 58.9493 52.3481C58.9127 52.4095 58.8602 52.4578 58.7987 52.4847C58.7799 52.4932 58.7602 52.4994 58.74 52.5034C58.7216 52.5072 58.7028 52.5092 58.6834 52.5092L45.4389 52.4777C45.3858 52.4776 45.3355 52.4625 45.2912 52.4359C45.1976 52.3796 45.1309 52.2718 45.1205 52.1461C45.1199 52.1406 45.1196 52.1352 45.1195 52.1298C45.1193 52.1235 45.1191 52.1172 45.1191 52.1109L45.1208 51.1611C45.1208 51.1549 45.1211 51.1486 45.1213 51.1423C45.1303 50.9498 45.2712 50.7955 45.442 50.7959L58.6865 50.8273C58.7058 50.8274 58.7246 50.8295 58.743 50.8333C58.7632 50.8374 58.7828 50.8437 58.8016 50.8523C58.863 50.8795 58.9154 50.928 58.9517 50.9896C58.9864 51.0482 59.0064 51.1184 59.0063 51.1941Z" fill="#FFB93E"/>
<path d="M52.5002 52.4946L45.4045 52.4777C45.3571 52.4776 45.3123 52.4625 45.2728 52.4359C45.1892 52.3797 45.1296 52.2719 45.1205 52.1462C45.1199 52.1407 45.1196 52.1353 45.1195 52.1299C45.1193 52.1236 45.1191 52.1173 45.1191 52.111L45.1208 51.1612C45.1208 51.155 45.1211 51.1487 45.1213 51.1424C45.1294 50.9498 45.2553 50.7955 45.4076 50.7959L51.6319 50.8107C51.7277 51.2925 51.9483 51.954 52.4567 52.453C52.471 52.467 52.4854 52.4808 52.5002 52.4946Z" fill="#FFA412"/>
<path d="M59.3266 49.5135L59.3249 50.4632C59.3248 50.5389 59.3044 50.6091 59.2696 50.6674C59.233 50.7289 59.1805 50.7771 59.1189 50.8041C59.1002 50.8125 59.0805 50.8187 59.0603 50.8228C59.0419 50.8266 59.0231 50.8286 59.0038 50.8285L45.7593 50.797C45.5885 50.7967 45.4481 50.6417 45.4398 50.4491C45.4396 50.4428 45.4395 50.4365 45.4395 50.4303L45.4412 49.4805C45.4412 49.4742 45.4414 49.468 45.4416 49.4617C45.4498 49.2834 45.5711 49.1382 45.7244 49.1178C45.7368 49.116 45.7494 49.1152 45.7624 49.1152L59.0069 49.1467C59.0262 49.1467 59.0449 49.1488 59.0633 49.1526C59.0835 49.1568 59.1032 49.163 59.122 49.1716C59.1834 49.1989 59.2358 49.2473 59.2721 49.3089C59.3067 49.3675 59.3268 49.4377 59.3266 49.5135Z" fill="#FFB93E"/>
<path d="M52.8205 50.8134L45.7249 50.7966C45.5725 50.7962 45.4472 50.6413 45.4398 50.4487C45.4396 50.4424 45.4395 50.4361 45.4395 50.4298L45.4412 49.4801C45.4412 49.4738 45.4414 49.4675 45.4416 49.4613C45.449 49.2832 45.5573 49.1378 45.6942 49.1173C45.7051 49.1155 45.7165 49.1147 45.728 49.1147L51.9522 49.1295C51.9524 49.1304 51.9525 49.1314 51.9527 49.1322C52.0515 49.6271 52.282 50.3109 52.8205 50.8134Z" fill="#FFA412"/>
<path d="M58.3559 47.8318L58.3542 48.7816C58.354 48.8572 58.3337 48.9274 58.2989 48.9858C58.2623 49.0472 58.2098 49.0955 58.1483 49.1224C58.1295 49.1309 58.1098 49.1371 58.0896 49.1412C58.0834 49.1423 58.0772 49.1435 58.071 49.1443C58.0676 49.1447 58.0641 49.1451 58.0605 49.1455C58.0572 49.1459 58.0536 49.1461 58.0501 49.1463C58.0444 49.1467 58.0388 49.1469 58.033 49.1469L44.7885 49.1154C44.6177 49.115 44.4774 48.9601 44.4691 48.7675C44.4689 48.7612 44.4687 48.7549 44.4688 48.7487L44.4705 47.7989C44.4705 47.7926 44.4707 47.7863 44.4709 47.78C44.471 47.7748 44.4714 47.7697 44.4718 47.7647C44.4848 47.6097 44.5835 47.4821 44.7126 47.4447C44.7158 47.4437 44.7191 47.4429 44.7223 47.4421C44.7446 47.4365 44.7678 47.4336 44.7916 47.4336L58.0361 47.465C58.0458 47.4651 58.0554 47.4657 58.0648 47.4665C58.0691 47.4671 58.0733 47.4675 58.0776 47.4681H58.0777C58.0827 47.469 58.0876 47.47 58.0926 47.471C58.1128 47.4751 58.1324 47.4814 58.1512 47.49C58.2126 47.5173 58.265 47.5657 58.3013 47.6273C58.336 47.6859 58.356 47.7561 58.3559 47.8318Z" fill="#FFB93E"/>
<path d="M51.8498 49.1323L44.7542 49.1154C44.6018 49.115 44.4765 48.9602 44.4691 48.7676C44.4689 48.7613 44.4687 48.755 44.4688 48.7487L44.4705 47.799C44.4705 47.7927 44.4707 47.7864 44.4709 47.7801C44.471 47.7748 44.4714 47.7698 44.4718 47.7647C44.4836 47.6063 44.5754 47.4767 44.6943 47.4426C44.6984 47.4411 44.7024 47.4402 44.7066 47.4394C44.723 47.4355 44.7398 47.4336 44.7572 47.4336L50.9814 47.4484C50.9822 47.4524 50.983 47.4562 50.9839 47.4603C51.0835 47.9538 51.3139 48.6306 51.8469 49.1296C51.8478 49.1304 51.8488 49.1315 51.8498 49.1323Z" fill="#FFA412"/>
<path d="M58.3311 46.1619L58.3293 47.1117C58.3292 47.1873 58.3089 47.2575 58.2741 47.3159C58.2375 47.3774 58.1849 47.4255 58.1234 47.4525C58.1088 47.4591 58.0933 47.4644 58.0777 47.4682H58.0773C58.0731 47.4694 58.069 47.4704 58.0647 47.4712C58.0463 47.475 58.0275 47.477 58.0082 47.4769L44.7636 47.4455C44.7497 47.4455 44.7357 47.4445 44.7222 47.4422C44.7169 47.4415 44.7116 47.4405 44.7065 47.4393C44.5625 47.4092 44.4515 47.2681 44.4442 47.0975C44.444 47.0913 44.4438 47.085 44.4439 47.0787L44.4456 46.129C44.4456 46.1227 44.4458 46.1164 44.446 46.1101C44.455 45.9175 44.5959 45.7632 44.7667 45.7637L58.0113 45.7951C58.0197 45.7951 58.0283 45.7955 58.0366 45.7964C58.0401 45.7968 58.0438 45.7972 58.0474 45.7976C58.0513 45.798 58.0553 45.7986 58.0593 45.7994C58.0621 45.7998 58.0649 45.8005 58.0678 45.8011C58.0879 45.8052 58.1076 45.8115 58.1263 45.82C58.1291 45.8213 58.1318 45.8225 58.1347 45.8239C58.1373 45.8251 58.1401 45.8265 58.1428 45.828C58.1483 45.8309 58.1536 45.8339 58.1589 45.837C58.1648 45.8406 58.1706 45.8443 58.1762 45.8483C58.1814 45.8518 58.1863 45.8554 58.1913 45.8593C58.1969 45.8637 58.2024 45.8685 58.2077 45.8733C58.2119 45.8769 58.216 45.8808 58.2201 45.8849C58.2203 45.885 58.2206 45.8853 58.2208 45.8857C58.2234 45.8883 58.2263 45.8912 58.2289 45.894C58.2371 45.9026 58.2448 45.9119 58.2521 45.9214C58.2544 45.9242 58.2565 45.9271 58.2584 45.9299C58.2606 45.9329 58.2625 45.9358 58.2646 45.9389C58.2686 45.9449 58.2727 45.9512 58.2764 45.9575C58.3112 46.016 58.3312 46.0862 58.3311 46.1619Z" fill="#FFB93E"/>
<path d="M51.8249 47.4624L44.7293 47.4456C44.7236 47.4455 44.7179 47.4453 44.7124 47.4449C44.7063 47.4445 44.7002 47.4437 44.6942 47.4426C44.5578 47.4208 44.451 47.2753 44.4442 47.0976C44.444 47.0913 44.4438 47.0851 44.4439 47.0788L44.4456 46.129C44.4456 46.1228 44.4458 46.1165 44.446 46.1102C44.4541 45.9176 44.5798 45.7633 44.7323 45.7637L50.9564 45.7784C50.9592 45.7922 50.962 45.806 50.965 45.8199C51.0672 46.3074 51.2965 46.9621 51.8122 47.4503C51.8164 47.4545 51.8207 47.4583 51.8249 47.4624Z" fill="#FFA412"/>
<path d="M59.0181 44.5232L59.0163 45.473C59.0162 45.5486 58.9958 45.6188 58.961 45.6772C58.9244 45.7386 58.872 45.7869 58.8104 45.8138C58.7915 45.8223 58.7719 45.8285 58.7517 45.8325C58.7333 45.8363 58.7145 45.8383 58.6952 45.8382L45.4507 45.8068C45.3974 45.8067 45.3472 45.7916 45.303 45.765C45.2094 45.7087 45.1426 45.6009 45.1322 45.4752C45.1317 45.4698 45.1313 45.4643 45.1312 45.4588C45.131 45.4526 45.1309 45.4463 45.1309 45.44L45.1326 44.4903C45.1326 44.484 45.1328 44.4777 45.133 44.4714C45.142 44.2788 45.2829 44.1246 45.4537 44.125L58.6982 44.1564C58.7176 44.1564 58.7363 44.1585 58.7548 44.1624C58.775 44.1665 58.7946 44.1728 58.8134 44.1814C58.8748 44.2086 58.9271 44.2571 58.9635 44.3187C58.9981 44.3772 59.0181 44.4476 59.0181 44.5232Z" fill="#FFB93E"/>
<path d="M52.5119 45.8232L45.4163 45.8064C45.3688 45.8062 45.324 45.7912 45.2845 45.7646C45.2009 45.7083 45.1414 45.6006 45.1322 45.4748C45.1317 45.4694 45.1313 45.4639 45.1312 45.4585C45.131 45.4522 45.1309 45.4459 45.1309 45.4396L45.1326 44.4899C45.1326 44.4836 45.1328 44.4773 45.133 44.4711C45.1412 44.2784 45.267 44.1241 45.4193 44.1245L51.6436 44.1393C51.7394 44.6211 51.96 45.2826 52.4684 45.7816C52.4827 45.7957 52.4972 45.8095 52.5119 45.8232Z" fill="#FFA412"/>
<path d="M60.1035 42.844L60.1018 43.7938C60.1016 43.8694 60.0813 43.9396 60.0465 43.998C60.0099 44.0594 59.9574 44.1077 59.8958 44.1346C59.877 44.1431 59.8574 44.1493 59.8372 44.1533C59.8188 44.1571 59.7999 44.1591 59.7806 44.159L46.5361 44.1276C46.3653 44.1272 46.2249 43.9723 46.2166 43.7796C46.2165 43.7734 46.2163 43.7671 46.2163 43.7608L46.2181 42.8111C46.2181 42.8048 46.2182 42.7985 46.2184 42.7922C46.2267 42.6142 46.3479 42.4688 46.5013 42.4484C46.5137 42.4466 46.5264 42.4458 46.5392 42.4458L59.7837 42.4773C59.8031 42.4773 59.8218 42.4794 59.8402 42.4832C59.8604 42.4873 59.88 42.4936 59.8988 42.5022C59.9602 42.5295 60.0126 42.5779 60.049 42.6396C60.0835 42.698 60.1036 42.7683 60.1035 42.844Z" fill="#FFB93E"/>
<path d="M53.5974 44.144L46.5017 44.1272C46.3494 44.1268 46.2241 43.9719 46.2166 43.7793C46.2165 43.773 46.2163 43.7667 46.2163 43.7605L46.2181 42.8107C46.2181 42.8044 46.2182 42.7981 46.2184 42.7919C46.2258 42.6138 46.3342 42.4684 46.471 42.4479C46.482 42.4461 46.4933 42.4453 46.5048 42.4453L52.7291 42.4601C52.7292 42.4609 52.7294 42.4619 52.7296 42.4627C52.8284 42.9579 53.0589 43.6416 53.5974 44.144Z" fill="#FFA412"/>
<path d="M58.3676 41.1604L58.3659 42.1102C58.3658 42.1859 58.3454 42.2561 58.3106 42.3144C58.274 42.3759 58.2215 42.4241 58.16 42.451C58.1412 42.4595 58.1216 42.4657 58.1013 42.4697C58.0952 42.4709 58.0889 42.4721 58.0828 42.4729C58.0778 42.4737 58.0728 42.4741 58.0678 42.4745C58.0654 42.4747 58.0629 42.4749 58.0604 42.4751C58.0553 42.4753 58.0501 42.4755 58.0448 42.4755L44.8003 42.444C44.6295 42.4436 44.4891 42.2887 44.4808 42.0961C44.4806 42.0898 44.4805 42.0835 44.4805 42.0772L44.4822 41.1275C44.4822 41.1212 44.4824 41.1149 44.4826 41.1086C44.4917 40.9161 44.6326 40.7618 44.8033 40.7622L58.0478 40.7936C58.0535 40.7936 58.0592 40.7938 58.0649 40.7943C58.0783 40.7951 58.0914 40.797 58.1044 40.7996C58.1246 40.8037 58.1442 40.8101 58.163 40.8186C58.1725 40.8229 58.1819 40.8276 58.1907 40.8329C58.1964 40.8361 58.2019 40.8393 58.2072 40.843C58.2078 40.8432 58.2084 40.8436 58.209 40.8442C58.2145 40.8479 58.2198 40.8518 58.2251 40.8558C58.2261 40.8564 58.227 40.8572 58.2277 40.8578C58.2326 40.8615 58.2374 40.8655 58.242 40.8698C58.2534 40.8795 58.264 40.8901 58.2738 40.9017C58.277 40.9051 58.28 40.9087 58.2829 40.9124C58.2834 40.913 58.2839 40.9136 58.2845 40.9144C58.2865 40.9167 58.2882 40.9189 58.29 40.9213C58.2903 40.9217 58.2907 40.9223 58.291 40.9228C58.2942 40.927 58.2974 40.9315 58.3004 40.9361C58.3048 40.9426 58.309 40.9491 58.3131 40.956C58.3477 41.0145 58.3678 41.0848 58.3676 41.1604Z" fill="#FFB93E"/>
<path d="M51.8615 42.4609L44.7659 42.4441C44.6136 42.4437 44.4882 42.2888 44.4808 42.0962C44.4806 42.09 44.4805 42.0836 44.4805 42.0773L44.4822 41.1276C44.4822 41.1213 44.4824 41.1151 44.4826 41.1088C44.4907 40.9162 44.6166 40.7619 44.769 40.7622L50.9932 40.777C50.9957 40.7897 50.9983 40.8027 51.0013 40.8159C51.1036 41.3068 51.3352 41.9681 51.8587 42.4582C51.8595 42.4591 51.8606 42.4601 51.8615 42.4609Z" fill="#FFA412"/>
<path d="M59.3447 39.5198L59.343 40.4696C59.3429 40.5452 59.3225 40.6154 59.2877 40.6738C59.2511 40.7352 59.1986 40.7834 59.1371 40.8104C59.1182 40.8189 59.0986 40.825 59.0784 40.8291C59.06 40.8329 59.0412 40.8349 59.0218 40.8348L45.7774 40.8034C45.726 40.8033 45.6773 40.7892 45.6343 40.7642C45.5378 40.7087 45.469 40.5987 45.4587 40.4704C45.4584 40.4655 45.458 40.4605 45.4579 40.4554C45.4577 40.4492 45.4575 40.4429 45.4575 40.4366L45.4593 39.4868C45.4593 39.4805 45.4595 39.4743 45.4597 39.468C45.4679 39.2898 45.5892 39.1445 45.7425 39.1241C45.7549 39.1223 45.7675 39.1215 45.7804 39.1216L59.025 39.1531C59.0443 39.1531 59.0631 39.1552 59.0815 39.159C59.1017 39.1631 59.1213 39.1694 59.1401 39.1779C59.2015 39.2052 59.2538 39.2537 59.2902 39.3153C59.3248 39.3739 59.3448 39.4441 59.3447 39.5198Z" fill="#FFB93E"/>
<path d="M52.8386 40.8203L45.7429 40.8034C45.6971 40.8034 45.6537 40.7892 45.6153 40.7643C45.5292 40.7088 45.4679 40.5988 45.4587 40.4705C45.4584 40.4656 45.458 40.4606 45.4579 40.4555C45.4577 40.4493 45.4575 40.443 45.4575 40.4367L45.4593 39.487C45.4593 39.4807 45.4595 39.4744 45.4597 39.4681C45.4671 39.2901 45.5754 39.1447 45.7122 39.1241C45.7232 39.1224 45.7345 39.1216 45.746 39.1216L51.9702 39.1363C51.9704 39.1372 51.9706 39.1382 51.9708 39.139C52.067 39.6214 52.2884 40.2829 52.7979 40.7813C52.8112 40.7945 52.8248 40.8074 52.8386 40.8203Z" fill="#FFA412"/>
<path d="M58.374 37.8382L58.3723 38.788C58.3721 38.8636 58.3518 38.9338 58.317 38.9921C58.2804 39.0536 58.2279 39.1018 58.1663 39.1288C58.1475 39.1372 58.1279 39.1435 58.1077 39.1475C58.1015 39.1487 58.0953 39.1499 58.0891 39.1507C58.0857 39.1511 58.0822 39.1515 58.0786 39.1518C58.0752 39.1522 58.0717 39.1524 58.0681 39.1527C58.0625 39.1531 58.0568 39.1533 58.0511 39.1533L44.8066 39.1218C44.6358 39.1214 44.4955 38.9665 44.4871 38.7739C44.4869 38.7676 44.4868 38.7613 44.4868 38.755L44.4885 37.8052C44.4885 37.799 44.4887 37.7927 44.4889 37.7864C44.498 37.5938 44.6389 37.4395 44.8097 37.4399L58.0542 37.4714C58.0735 37.4715 58.0923 37.4735 58.1107 37.4774C58.1309 37.4815 58.1505 37.4878 58.1693 37.4963C58.2307 37.5236 58.2831 37.5721 58.3194 37.6337C58.3541 37.6923 58.3741 37.7625 58.374 37.8382Z" fill="#FFB93E"/>
<path d="M51.8679 39.1386L44.7722 39.1218C44.6199 39.1214 44.4946 38.9666 44.4871 38.7739C44.4869 38.7677 44.4868 38.7614 44.4868 38.7551L44.4885 37.8053C44.4885 37.7991 44.4887 37.7927 44.4889 37.7865C44.4971 37.5939 44.623 37.4396 44.7753 37.4399L50.9995 37.4547C51.0979 37.9493 51.3276 38.6329 51.865 39.136C51.8659 39.1368 51.8669 39.1378 51.8679 39.1386Z" fill="#FFA412"/>
<path d="M57.2472 50.825L57.2432 52.5068L57.3937 52.5072L57.3977 50.8253L57.2472 50.825Z" fill="#FFA412"/>
<path d="M56.735 50.8221L56.7314 52.5039L56.882 52.5042L56.8855 50.8224L56.735 50.8221Z" fill="#FFA412"/>
<path d="M56.1222 50.8192L56.1187 52.501L56.2692 52.5013L56.2727 50.8195L56.1222 50.8192Z" fill="#FFA412"/>
<path d="M55.1896 50.8201L55.1855 52.502L55.3361 52.5023L55.3401 50.8205L55.1896 50.8201Z" fill="#FFA412"/>
<path d="M54.1993 50.8177L54.1953 52.4995L54.3458 52.4999L54.3499 50.818L54.1993 50.8177Z" fill="#FFA412"/>
<path d="M52.6808 50.8142L52.6768 52.4961L52.8272 52.4965L52.8313 50.8146L52.6808 50.8142Z" fill="#FFA412"/>
<path d="M51.2569 50.8094L51.2534 52.4912L51.4039 52.4915L51.4075 50.8097L51.2569 50.8094Z" fill="#FFA412"/>
<path d="M49.9899 50.8079L49.9858 52.4897L50.1363 52.4901L50.1404 50.8083L49.9899 50.8079Z" fill="#FFA412"/>
<path d="M57.7321 50.826L57.728 52.5078L57.8786 52.5082L57.8826 50.8264L57.7321 50.826Z" fill="#FFA412"/>
<path d="M58.0499 50.8255L58.0464 52.5073L58.1969 52.5076L58.2004 50.8258L58.0499 50.8255Z" fill="#FFA412"/>
<path d="M58.3619 50.828L58.3579 52.5098L58.5084 52.5101L58.5125 50.8283L58.3619 50.828Z" fill="#FFA412"/>
<path d="M58.5919 50.8267L58.5889 52.5085L58.6829 52.5088C58.7022 52.5088 58.721 52.5068 58.7394 52.503L58.7425 50.8329C58.7241 50.829 58.7053 50.8269 58.6859 50.8269L58.5919 50.8267Z" fill="#FFA412"/>
<path d="M58.8013 50.8521L58.7983 52.4845C58.8598 52.4575 58.9124 52.4093 58.949 52.3479L58.9515 50.9894C58.915 50.9278 58.8627 50.8793 58.8013 50.8521Z" fill="#FFA412"/>
<path d="M53.0011 49.1331L52.9971 50.8149L53.1476 50.8153L53.1516 49.1335L53.0011 49.1331Z" fill="#FFA412"/>
<path d="M51.5747 49.1258L51.5708 50.8076L51.7213 50.808L51.7252 49.1262L51.5747 49.1258Z" fill="#FFA412"/>
<path d="M50.3102 49.1267L50.3062 50.8086L50.4567 50.809L50.4608 49.1271L50.3102 49.1267Z" fill="#FFA412"/>
<path d="M58.1969 50.8259L58.2 49.144L58.068 49.1437C58.075 49.1428 58.082 49.1419 58.089 49.1404L58.092 47.4704C58.0828 47.4684 58.0735 47.4669 58.0641 47.4659L58.0671 45.8362L58.1257 45.8363L58.1228 47.4519C58.1843 47.425 58.2369 47.3768 58.2734 47.3153L58.2759 45.9568C58.2459 45.9059 58.2045 45.8648 58.1566 45.8364L58.2092 45.8365L58.2123 44.1547L58.0617 44.1543L58.0588 45.7992C58.043 45.7964 58.0271 45.7946 58.0107 45.7945L57.9166 45.7943L57.9136 47.4761L57.9415 47.4762L57.9384 49.146L58.0324 49.1462C58.0382 49.1462 58.0439 49.1457 58.0495 49.1454L58.0465 50.8255L58.1969 50.8259Z" fill="#FFA412"/>
<path d="M58.3727 49.1458L58.3687 50.8276L58.5192 50.828L58.5232 49.1461L58.3727 49.1458Z" fill="#FFA412"/>
<path d="M58.6797 49.1444L58.6753 50.8262L58.8258 50.8266L58.8302 49.1448L58.6797 49.1444Z" fill="#FFA412"/>
<path d="M58.9122 49.1455L58.9092 50.8274L59.0032 50.8276C59.0225 50.8276 59.0413 50.8257 59.0597 50.8218L59.0627 49.1517C59.0444 49.1478 59.0256 49.1458 59.0063 49.1458L58.9122 49.1455Z" fill="#FFA412"/>
<path d="M59.1216 49.1709L59.1187 50.8034C59.1802 50.7764 59.2327 50.7282 59.2693 50.6667L59.2718 49.3082C59.2354 49.2466 59.183 49.1981 59.1216 49.1709Z" fill="#FFA412"/>
<path d="M56.7413 49.1431L56.7444 47.4613L56.7166 47.4612L56.7196 45.7914L56.5691 45.791L56.566 47.4729L56.5939 47.4729L56.5908 49.1401L56.444 49.1397L56.4409 50.8216L56.5914 50.8219L56.5945 49.1428L56.7413 49.1431Z" fill="#FFA412"/>
<path d="M55.6242 47.4588L55.5963 47.4587L55.5994 45.7889L55.4489 45.7886L55.4458 47.4704L55.4737 47.4704L55.4706 49.1403L55.5078 49.1404L55.5047 50.8195L55.6552 50.8199L55.6583 49.1381L55.6212 49.138L55.6242 47.4588Z" fill="#FFA412"/>
<path d="M58.1509 47.4893L58.1479 49.1218C58.2095 49.0948 58.262 49.0465 58.2986 48.9851L58.3011 47.6267C58.2647 47.565 58.2123 47.5165 58.1509 47.4893Z" fill="#FFA412"/>
<path d="M54.6624 45.7865L54.5118 45.7861L54.5088 47.4679L54.5366 47.468L54.5336 49.1352L54.5169 49.1352L54.5139 50.817L54.6644 50.8174L54.6675 49.1381L54.6841 49.1382L54.6871 47.4564L54.6594 47.4563L54.6624 45.7865Z" fill="#FFA412"/>
<path d="M53.6722 45.7841L53.5216 45.7837L53.5186 47.4655L53.5464 47.4656L53.5434 49.1354L53.6939 49.1358L53.6969 47.4539L53.6691 47.4539L53.6722 45.7841Z" fill="#FFA412"/>
<path d="M52.1536 45.7806L52.0031 45.7803L52 47.462L52.0279 47.4621L52.0249 49.1319L52.1754 49.1323L52.1784 47.4504L52.1506 47.4504L52.1536 45.7806Z" fill="#FFA412"/>
<path d="M50.7322 45.7772L50.5817 45.7769L50.5786 47.4587L50.6064 47.4587L50.6034 49.1286L50.754 49.1289L50.757 47.4471L50.7291 47.447L50.7322 45.7772Z" fill="#FFA412"/>
<path d="M49.4627 45.7743L49.3122 45.7739L49.3091 47.4558L49.337 47.4558L49.3339 49.1257L49.4844 49.126L49.4875 47.4442L49.4597 47.4441L49.4627 45.7743Z" fill="#FFA412"/>
<path d="M57.2048 45.7928L57.0543 45.7925L57.0513 47.4742L57.0791 47.4743L57.0761 49.1415H57.0552L57.0522 50.8233L57.2027 50.8236L57.2058 49.1445L57.2266 49.1445L57.2297 47.4627L57.2018 47.4626L57.2048 45.7928Z" fill="#FFA412"/>
<path d="M57.5252 45.7934L57.404 45.793L57.407 44.1527L57.2565 44.1523L57.2534 45.8342L57.3746 45.8345L57.3715 47.4748L57.3994 47.4749L57.3964 49.1446L57.5469 49.145L57.55 47.4632L57.5221 47.4632L57.5252 45.7934Z" fill="#FFA412"/>
<path d="M56.7496 44.1527L56.7456 45.8345L56.8961 45.8348L56.9001 44.153L56.7496 44.1527Z" fill="#FFA412"/>
<path d="M56.133 45.7902L56.0596 45.7901L56.0566 47.4719L56.0844 47.472L56.0814 49.1417L56.2319 49.1421L56.235 47.4603L56.2072 47.4602L56.2101 45.8319L56.2834 45.832L56.2865 44.1502L56.136 44.1499L56.133 45.7902Z" fill="#FFA412"/>
<path d="M55.1977 44.1453L55.1934 45.8271L55.3439 45.8275L55.3483 44.1457L55.1977 44.1453Z" fill="#FFA412"/>
<path d="M54.2116 44.1463L54.2075 45.8281L54.3581 45.8285L54.3621 44.1467L54.2116 44.1463Z" fill="#FFA412"/>
<path d="M52.6884 44.1395L52.6846 45.8213L52.8351 45.8216L52.839 44.1398L52.6884 44.1395Z" fill="#FFA412"/>
<path d="M51.2677 44.1365L51.2642 45.8184L51.4147 45.8187L51.4182 44.1369L51.2677 44.1365Z" fill="#FFA412"/>
<path d="M50.0021 44.1365L49.998 45.8184L50.1486 45.8187L50.1526 44.1369L50.0021 44.1365Z" fill="#FFA412"/>
<path d="M57.7384 45.7937L57.684 45.7936L57.6809 47.4753L57.7087 47.4754L57.7057 49.1427L57.5646 49.1423L57.5615 50.8241L57.7121 50.8244L57.7151 49.1453L57.8563 49.1456L57.8593 47.4638L57.8314 47.4637L57.8344 45.8354L57.8889 45.8355L57.8919 44.1537L57.7414 44.1533L57.7384 45.7937Z" fill="#FFA412"/>
<path d="M58.3742 44.1565L58.3701 45.8384L58.5206 45.8387L58.5247 44.1569L58.3742 44.1565Z" fill="#FFA412"/>
<path d="M58.7516 45.8321L58.7547 44.162C58.7363 44.1581 58.7175 44.156 58.6982 44.156L58.6041 44.1558L58.6011 45.8376L58.6952 45.8379C58.7145 45.8379 58.7332 45.8359 58.7516 45.8321Z" fill="#FFA412"/>
<path d="M58.9612 45.6765L58.9636 44.318C58.9273 44.2564 58.8749 44.208 58.8135 44.1807L58.8105 45.8132C58.8721 45.7862 58.9245 45.738 58.9612 45.6765Z" fill="#FFA412"/>
<path d="M58.3444 42.4744L58.3403 44.1562L58.4909 44.1566L58.4949 42.4748L58.3444 42.4744Z" fill="#FFA412"/>
<path d="M56.2872 42.4696L56.2832 44.1514L56.4337 44.1517L56.4377 42.4699L56.2872 42.4696Z" fill="#FFA412"/>
<path d="M55.297 42.4671L55.293 44.1489L55.4435 44.1493L55.4475 42.4674L55.297 42.4671Z" fill="#FFA412"/>
<path d="M53.7785 42.4637L53.7744 44.1455L53.9249 44.1459L53.9289 42.464L53.7785 42.4637Z" fill="#FFA412"/>
<path d="M52.3571 42.4602L52.353 44.1421L52.5036 44.1425L52.5076 42.4606L52.3571 42.4602Z" fill="#FFA412"/>
<path d="M51.0851 42.4559L51.0815 44.1377L51.2321 44.138L51.2356 42.4562L51.0851 42.4559Z" fill="#FFA412"/>
<path d="M58.8297 42.4754L58.8257 44.1572L58.9762 44.1576L58.9802 42.4757L58.8297 42.4754Z" fill="#FFA412"/>
<path d="M59.15 42.4764L59.146 44.1582L59.2965 44.1586L59.3005 42.4768L59.15 42.4764Z" fill="#FFA412"/>
<path d="M59.4541 42.4735L59.4502 44.1553L59.6007 44.1556L59.6045 42.4738L59.4541 42.4735Z" fill="#FFA412"/>
<path d="M59.6895 42.4761L59.6865 44.1579L59.7805 44.1581C59.7999 44.1582 59.8186 44.1562 59.8371 44.1524L59.8401 42.4822C59.8217 42.4784 59.8029 42.4763 59.7836 42.4763L59.6895 42.4761Z" fill="#FFA412"/>
<path d="M59.8989 42.5015L59.896 44.134C59.9575 44.107 60.0101 44.0587 60.0466 43.9973L60.0491 42.6388C60.0127 42.5772 59.9603 42.5287 59.8989 42.5015Z" fill="#FFA412"/>
<path d="M56.6033 42.4718L56.7538 42.4722L56.7569 40.7904L56.61 40.79L56.613 39.1496L56.7599 39.1499L56.763 37.4681L56.6124 37.4678L56.6094 39.1469L56.4626 39.1466L56.4595 40.8284L56.6063 40.8288L56.6033 42.4718Z" fill="#FFA412"/>
<path d="M56.0947 40.7865L56.0903 42.4683L56.2409 42.4687L56.2452 40.7869L56.0947 40.7865Z" fill="#FFA412"/>
<path d="M53.5612 40.784L53.5571 42.4658L53.7077 42.4662L53.7117 40.7843L53.5612 40.784Z" fill="#FFA412"/>
<path d="M52.038 40.7766L52.0342 42.4585L52.1847 42.4588L52.1885 40.777L52.038 40.7766Z" fill="#FFA412"/>
<path d="M50.6207 40.7767L50.6167 42.4585L50.7672 42.4589L50.7713 40.777L50.6207 40.7767Z" fill="#FFA412"/>
<path d="M49.3471 40.7703L49.3433 42.4521L49.4938 42.4525L49.4977 40.7707L49.3471 40.7703Z" fill="#FFA412"/>
<path d="M57.0882 42.4727L57.2214 42.4731L57.2184 44.1523L57.3689 44.1526L57.372 42.4708L57.2387 42.4705L57.2417 40.7913L57.2209 40.7912L57.2239 39.1508L57.2447 39.1509L57.2478 37.4691L57.0972 37.4688L57.0942 39.1479L57.0734 39.1478L57.0703 40.8297L57.0911 40.8297L57.0882 42.4727Z" fill="#FFA412"/>
<path d="M57.4093 40.7899L57.4062 42.4717L57.5567 42.472L57.5598 40.7901L57.4093 40.7899Z" fill="#FFA412"/>
<path d="M58.1891 40.8324L58.2156 40.8325L58.2186 39.1506L58.0866 39.1503C58.0936 39.1494 58.1007 39.1485 58.1076 39.1471L58.1106 37.4769C58.0922 37.4731 58.0734 37.471 58.0541 37.471L57.96 37.4707L57.957 39.1526L58.051 39.1528C58.0568 39.1528 58.0624 39.1523 58.0681 39.1519L58.0651 40.7941C58.0594 40.7937 58.0538 40.7932 58.0481 40.7932L57.954 40.793L57.951 42.4722L57.8687 42.472L57.8718 40.7928L57.7307 40.7925L57.7336 39.1521L57.8748 39.1524L57.8778 37.4706L57.7273 37.4702L57.7242 39.1494L57.5831 39.1491L57.5801 40.8309L57.7212 40.8312L57.7182 42.4743L57.8326 42.4746L57.8296 44.1537L57.9802 44.1541L57.9832 42.4749L58.045 42.475C58.0643 42.4751 58.0831 42.4731 58.1016 42.4693L58.1045 40.8322L58.1631 40.8323L58.1602 42.4506C58.2217 42.4237 58.2742 42.3754 58.3108 42.314L58.3134 40.9555C58.2823 40.9029 58.2391 40.8608 58.1891 40.8324Z" fill="#FFA412"/>
<path d="M53.0172 39.138L53.0137 40.8198L53.1642 40.8201L53.1677 39.1383L53.0172 39.138Z" fill="#FFA412"/>
<path d="M51.5978 39.136L51.5938 40.8179L51.7443 40.8182L51.7483 39.1364L51.5978 39.136Z" fill="#FFA412"/>
<path d="M50.3283 39.1331L50.3242 40.8149L50.4748 40.8153L50.4788 39.1335L50.3283 39.1331Z" fill="#FFA412"/>
<path d="M58.3857 39.1487L58.3818 40.8306L58.5323 40.8309L58.5362 39.1491L58.3857 39.1487Z" fill="#FFA412"/>
<path d="M58.7003 39.1527L58.6963 40.8345L58.8468 40.8348L58.8508 39.153L58.7003 39.1527Z" fill="#FFA412"/>
<path d="M58.9303 39.1523L58.9272 40.8342L59.0213 40.8344C59.0406 40.8345 59.0594 40.8325 59.0779 40.8287L59.0809 39.1586C59.0625 39.1547 59.0437 39.1527 59.0244 39.1526L58.9303 39.1523Z" fill="#FFA412"/>
<path d="M59.2873 40.6731L59.2898 39.3146C59.2534 39.253 59.2011 39.2045 59.1397 39.1772L59.1367 40.8097C59.1982 40.7827 59.2507 40.7346 59.2873 40.6731Z" fill="#FFA412"/>
<path d="M56.1051 37.4676L56.1011 39.1494L56.2516 39.1498L56.2556 37.468L56.1051 37.4676Z" fill="#FFA412"/>
<path d="M55.6421 37.4652L55.4915 37.4648L55.4885 39.1467L55.5256 39.1467L55.5227 40.7871L55.4855 40.7871L55.4824 42.4688L55.6329 42.4692L55.636 40.8262L55.6731 40.8263L55.6761 39.1445L55.639 39.1443L55.6421 37.4652Z" fill="#FFA412"/>
<path d="M54.552 39.1421L54.5353 39.1421L54.5322 40.8239L54.5489 40.8239L54.5459 42.467L54.6965 42.4673L54.6995 40.7855L54.6828 40.7854L54.6858 39.1451L54.7025 39.1451L54.7055 37.4633L54.555 37.4629L54.552 39.1421Z" fill="#FFA412"/>
<path d="M53.567 37.4612L53.563 39.1431L53.7135 39.1434L53.7176 37.4616L53.567 37.4612Z" fill="#FFA412"/>
<path d="M52.0485 37.4578L52.0444 39.1396L52.195 39.14L52.199 37.4582L52.0485 37.4578Z" fill="#FFA412"/>
<path d="M50.6245 37.4524L50.6201 39.1343L50.7707 39.1347L50.7751 37.4528L50.6245 37.4524Z" fill="#FFA412"/>
<path d="M49.3556 37.45L49.3521 39.1318L49.5026 39.1322L49.5062 37.4503L49.3556 37.45Z" fill="#FFA412"/>
<path d="M57.4155 37.4676L57.4111 39.1494L57.5617 39.1498L57.566 37.468L57.4155 37.4676Z" fill="#FFA412"/>
<path d="M58.1689 37.4961L58.166 39.1286C58.2275 39.1016 58.2801 39.0534 58.3167 38.9919L58.3191 37.6334C58.2827 37.5718 58.2304 37.5233 58.1689 37.4961Z" fill="#FFA412"/>
<path d="M62.5821 41.9791L63.5172 42.1452C63.5917 42.1585 63.6573 42.1906 63.7088 42.235C63.763 42.2817 63.8014 42.3418 63.8173 42.407C63.8224 42.4269 63.8251 42.4474 63.8255 42.468C63.8261 42.4869 63.8248 42.5057 63.8214 42.5247L61.4982 55.5639C61.4683 55.7321 61.2913 55.8435 61.1002 55.8183C61.094 55.8174 61.0878 55.8165 61.0816 55.8154L60.1464 55.6493C60.1403 55.6483 60.1341 55.647 60.128 55.6457C59.9399 55.6034 59.8123 55.438 59.8422 55.2698L62.1655 42.2306C62.167 42.2222 62.1688 42.2139 62.1711 42.2059C62.1719 42.2024 62.173 42.1988 62.1742 42.1954C62.1753 42.1916 62.1766 42.1877 62.1781 42.184C62.179 42.1814 62.1801 42.1787 62.1812 42.176C62.1887 42.1568 62.1983 42.1385 62.21 42.1215C62.2116 42.119 62.2133 42.1166 62.2152 42.114C62.2169 42.1115 62.2188 42.109 62.2207 42.1067C62.2244 42.1019 62.2283 42.0971 62.2323 42.0924C62.2346 42.0897 62.2371 42.0869 62.2396 42.0843C62.2419 42.0818 62.244 42.0795 62.2465 42.0772C62.2507 42.0728 62.2552 42.0685 62.2598 42.0643C62.2653 42.0596 62.2708 42.0549 62.2765 42.0505C62.2808 42.047 62.2853 42.0437 62.29 42.0403C62.2902 42.0402 62.2905 42.0399 62.2909 42.0398C62.294 42.0376 62.2973 42.0353 62.3005 42.0332C62.3103 42.0267 62.3209 42.0206 62.3315 42.0151C62.3347 42.0134 62.3378 42.0118 62.341 42.0104C62.3441 42.0088 62.3475 42.0074 62.3508 42.0058C62.3575 42.0029 62.3644 41.9999 62.3712 41.9974C62.4348 41.9735 62.5075 41.9659 62.5821 41.9791Z" fill="#FFB93E"/>
<path d="M62.7366 48.6123L61.4919 55.5979C61.4652 55.7481 61.291 55.8445 61.1 55.8185C61.0938 55.8176 61.0875 55.8167 61.0814 55.8156L60.1462 55.6495C60.14 55.6484 60.1339 55.6471 60.1277 55.6459C59.9394 55.6045 59.8092 55.454 59.836 55.3038L60.9277 49.1762C60.9418 49.1758 60.9558 49.1754 60.9701 49.1749C61.4721 49.1585 62.1638 49.0445 62.7366 48.6123Z" fill="#FFA412"/>
<path d="M61.9351 43.5032L61.9087 43.6514L63.5643 43.9469L63.5907 43.7987L61.9351 43.5032Z" fill="#FFA412"/>
<path d="M61.8462 44.0041L61.8198 44.1523L63.4756 44.447L63.5019 44.2988L61.8462 44.0041Z" fill="#FFA412"/>
<path d="M61.7398 44.6023L61.7134 44.7505L63.3691 45.0455L63.3955 44.8973L61.7398 44.6023Z" fill="#FFA412"/>
<path d="M61.5752 45.5242L61.5488 45.6724L63.2046 45.9674L63.231 45.8192L61.5752 45.5242Z" fill="#FFA412"/>
<path d="M61.4009 46.5032L61.3745 46.6514L63.0303 46.946L63.0566 46.7978L61.4009 46.5032Z" fill="#FFA412"/>
<path d="M61.1412 47.9978L61.1147 48.146L62.7705 48.4412L62.7969 48.293L61.1412 47.9978Z" fill="#FFA412"/>
<path d="M60.8848 49.3972L60.8584 49.5454L62.5141 49.8401L62.5405 49.6919L60.8848 49.3972Z" fill="#FFA412"/>
<path d="M60.6646 50.6506L60.6382 50.7988L62.2938 51.0943L62.3202 50.9461L60.6646 50.6506Z" fill="#FFA412"/>
<path d="M62.021 43.0217L61.9946 43.1699L63.6504 43.4649L63.6768 43.3167L62.021 43.0217Z" fill="#FFA412"/>
<path d="M62.0835 42.7097L62.0571 42.8579L63.7129 43.1531L63.7393 43.0049L62.0835 42.7097Z" fill="#FFA412"/>
<path d="M62.1319 42.4016L62.1055 42.5498L63.7612 42.8448L63.7876 42.6966L62.1319 42.4016Z" fill="#FFA412"/>
<path d="M62.1489 42.324L63.8048 42.618L63.8213 42.5255C63.8247 42.5064 63.826 42.4876 63.8255 42.4688L62.1811 42.1768C62.1741 42.1943 62.1688 42.2124 62.1654 42.2314L62.1489 42.324Z" fill="#FFA412"/>
<path d="M62.2095 42.1221L63.8168 42.4076C63.8009 42.3423 63.7625 42.2822 63.7083 42.2356L62.3707 41.998C62.3038 42.0232 62.247 42.0663 62.2095 42.1221Z" fill="#FFA412"/>
<path d="M94.1482 55.8173H88.4567C88.1517 55.5586 88.6677 54.9711 89.2069 54.9316C89.4411 54.9138 89.7372 54.9628 90.0756 55.0344C90.154 53.9941 90.6012 49.3176 92.2869 49.5055C94.1823 49.7159 92.2869 51.5649 91.7511 52.6597C91.3542 53.4705 90.9355 54.6333 90.7442 55.182C90.898 55.2154 91.0574 55.2481 91.22 55.278C91.4713 54.5067 92.406 51.9121 93.5947 52.0633C94.9904 52.2403 94.4294 53.2806 93.4402 53.8981C92.7144 54.3522 91.8233 54.9976 91.3998 55.3094C91.7586 55.3679 92.133 55.4074 92.5129 55.3986C93.4878 55.3755 93.9637 55.6628 94.1482 55.8173Z" fill="#82B378"/>
<path d="M19.9371 55.6287C19.711 55.2736 19.0307 54.352 18.1246 54.4739C17.1374 54.6068 19.215 55.2577 19.851 55.6314C19.7098 55.6333 19.5883 55.622 19.4991 55.5902C19.0739 55.4387 18.3457 55.7293 18.1128 55.8313H22.1611C22.133 55.7344 22.0601 55.5763 21.8716 55.4611C21.8051 55.4205 21.6714 55.4147 21.4991 55.4279C21.7397 55.1442 21.9069 54.2377 21.2368 54.4709C20.7473 54.6413 20.7486 55.1952 20.7967 55.5229C20.6925 55.5392 20.5868 55.5557 20.4825 55.5707C20.281 54.5435 19.5681 51.533 18.1232 51.4527C16.6584 51.3713 19.3653 54.5749 20.2666 55.5994C20.1511 55.6134 20.04 55.6239 19.9371 55.6287Z" fill="#82B378"/>
<path d="M60.0781 30.0592C62.3547 27.7826 62.3547 24.0914 60.0781 21.8148C57.8014 19.5382 54.1103 19.5382 51.8336 21.8148C49.557 24.0914 49.557 27.7826 51.8336 30.0592C54.1103 32.3359 57.8014 32.3359 60.0781 30.0592Z" fill="#E2810E"/>
<path d="M61.1479 27.6618C61.9657 24.5478 60.1042 21.3604 56.9902 20.5426C53.8761 19.7248 50.6887 21.5863 49.8709 24.7003C49.0531 27.8144 50.9146 31.0018 54.0287 31.8196C57.1427 32.6374 60.3301 30.7759 61.1479 27.6618Z" fill="#FFB93E"/>
<path d="M55.5534 31.5523C53.6792 31.5524 51.8598 30.5599 50.8928 28.8059C50.2079 27.5634 50.0479 26.1285 50.4421 24.7656C50.8364 23.4028 51.7378 22.275 52.9803 21.5901C54.2228 20.9051 55.6576 20.7452 57.0205 21.1394C58.3834 21.5337 59.5111 22.435 60.1961 23.6775C61.61 26.2424 60.6736 29.4794 58.1087 30.8933C57.2979 31.3402 56.4197 31.5523 55.5534 31.5523ZM55.5373 21.2446C54.7052 21.2446 53.8821 21.4547 53.1332 21.8676C51.9648 22.5117 51.1172 23.5721 50.7465 24.8537C50.3758 26.1352 50.5263 27.4845 51.1703 28.6528C52.0795 30.3022 53.7907 31.2354 55.5529 31.2355C56.3676 31.2355 57.1931 31.0361 57.9557 30.6157C60.3676 29.2862 61.2481 26.2423 59.9185 23.8304C59.2745 22.6621 58.214 21.8144 56.9324 21.4438C56.4723 21.3106 56.0033 21.2446 55.5373 21.2446Z" fill="#FFA412"/>
<path d="M61.3127 22.7996C61.0687 22.6274 60.5157 22.2485 60.487 22.3329C60.4663 22.3936 60.4958 22.4968 60.5622 22.6041C60.2277 22.4792 59.888 22.3971 59.0847 22.5514C58.9238 22.5824 58.778 22.6737 58.6896 22.8116C58.6077 22.9391 58.5771 23.0985 58.782 23.226C59.1919 23.4808 59.0731 23.3281 59.6428 23.6993C60.2124 24.0704 60.9099 24.1652 61.3266 23.9047L61.8858 23.8115L61.9552 22.8916C61.9552 22.8916 61.6365 22.8537 61.3127 22.7996Z" fill="#FFB27D"/>
<path d="M75.9672 15.084C75.9672 15.084 74.6488 16.6481 72.9699 15.9938C72.9699 15.9938 72.6086 15.1203 72.6036 14.4764C72.603 14.3971 72.602 14.3203 72.6008 14.2473C72.5918 13.5221 72.5674 13.1153 72.5674 13.1153C72.5674 13.1153 72.5678 13.1151 72.569 13.1149C72.6454 13.0831 75.1356 12.0607 75.1335 12.1456C75.0908 14.1067 75.9672 15.084 75.9672 15.084Z" fill="#FFB27D"/>
<path d="M74.8835 12.6136C74.6434 13.0587 73.8194 13.9295 72.6008 14.2476C72.5918 13.5225 72.5674 13.1156 72.5674 13.1156C72.5674 13.1156 72.5678 13.1154 72.569 13.1152C72.638 13.0967 74.9549 12.4824 74.8835 12.6136Z" fill="#ED975D"/>
<path d="M72.046 13.0398C72.046 13.0398 74.8464 13.6982 75.2296 11.9479C75.6127 10.1976 76.2322 9.10382 74.4604 8.60949C72.6886 8.11512 72.1938 8.70669 71.9238 9.25978C71.6539 9.81291 71.3273 12.8235 72.046 13.0398Z" fill="#FFB27D"/>
<path d="M75.1338 12.4251C75.172 12.4495 75.7746 12.6347 76.9157 10.3613C77.0949 10.0045 77.217 9.23243 76.7994 8.55031C76.3818 7.86818 74.9011 7.33184 73.6709 7.09843C72.4408 6.86505 72.1454 7.55723 71.8558 8.25294C71.5516 8.98324 70.6733 9.58446 70.6733 9.58446C71.7342 10.177 73.0118 9.32947 73.4545 9.46889C73.8971 9.60823 74.0535 10.3059 74.0867 10.5295C74.1199 10.7531 74.1709 10.9389 74.7276 10.7392C75.2842 10.5395 74.9793 11.528 74.8901 11.717C74.8901 11.717 74.8145 12.2205 75.1338 12.4251Z" fill="#A9453D"/>
<path d="M82.3481 56.0737H84.0437C84.3992 56.0737 84.7942 55.7178 84.8931 55.0661C84.9919 54.414 85.7227 54.0586 85.8808 53.5252C86.039 52.9917 85.2288 52.2407 85.2288 52.2407L85.0933 52.0667L84.9523 51.8853L83.6091 52.2011C83.6091 52.2011 83.5761 52.521 83.5553 52.9284C83.5409 53.2226 83.533 53.5627 83.5498 53.8608C83.5894 54.5723 83.3505 55.3381 82.7187 55.4764C82.0865 55.6149 82.3481 56.0737 82.3481 56.0737Z" fill="#2C3A64"/>
<path d="M70.543 56.0737H75.0379C75.0809 56.0653 75.1135 56.056 75.1334 56.046C75.4335 55.8957 75.3395 54.7468 75.3034 54.3918C75.2965 54.3261 75.2915 54.2875 75.2915 54.2875C75.2915 54.2875 73.711 53.0234 73.4934 53.9914C73.4865 54.0215 73.4786 54.0512 73.4702 54.0804V54.0809C73.1958 54.9866 71.9693 55.3979 71.2609 55.5126C70.7195 55.6006 70.579 55.916 70.543 56.0737Z" fill="#2C3A64"/>
<path d="M71.4487 30.1531C71.4487 30.1531 71.6888 33.148 71.9709 36.748C72.3543 41.6383 72.8155 47.6453 72.8611 48.7833C72.9399 50.7593 73.2564 53.9202 73.2564 53.9202C73.2564 53.9202 74.0068 54.6711 75.5087 54.3546C75.5087 54.3546 76.847 49.8424 77.2293 45.0683C77.2352 44.99 77.2411 44.9112 77.247 44.8324C77.6027 39.9723 78.1557 29.7383 78.1557 29.7383L71.4487 30.1531Z" fill="#263238"/>
<path d="M71.4487 30.1531C71.4487 30.1531 71.6888 33.148 71.9709 36.748L77.2293 45.0683C77.2352 44.99 77.2411 44.9112 77.247 44.8324C77.6027 39.9723 78.1557 29.7383 78.1557 29.7383L71.4487 30.1531Z" fill="#263238"/>
<path d="M72.5449 30.5087C72.5449 30.5087 76.8716 41.355 79.7165 46.4521C82.5615 51.5493 83.4505 52.9717 83.4505 52.9717C83.4505 52.9717 85.0804 52.3198 85.2286 51.8752C85.2286 51.8752 84.1407 42.0349 82.2355 39.6361C81.159 38.2806 79.8944 34.213 79.8351 32.7905C79.7758 31.3681 79.4498 28.5527 79.4498 28.5527L72.5449 30.5087Z" fill="#263238"/>
<path d="M82.4115 28.5375L82.4572 29.235C82.4572 29.235 81.9972 30.4743 83.2862 31.1099C83.2862 31.1099 83.838 31.3325 83.8603 30.9029C83.8827 30.4734 83.8121 30.635 83.857 30.0301C83.9018 29.4252 83.664 28.8536 83.2639 28.661L82.9356 28.2822L82.4115 28.5375Z" fill="#FFB27D"/>
<path d="M82.9153 29.0456C82.4364 29.1994 82.3597 29.1646 82.3597 29.1646C82.3597 29.1646 80.0288 24.9209 79.7927 24.5324C79.5566 24.144 74.8438 19.7736 74.8438 19.7736L76.0549 15.2573C76.0549 15.2573 81.4152 22.1986 81.994 23.1946C82.9505 24.8405 83.511 28.6631 83.511 28.6631C83.511 28.6631 83.2914 28.9248 82.9153 29.0456Z" fill="#016B83"/>
<path d="M70.5354 21.5469C70.5521 22.4744 70.606 23.517 70.6787 24.576C70.6832 24.6388 70.6876 24.7016 70.6921 24.7643C70.7385 25.4204 70.789 26.0779 70.8468 26.7191C70.87 26.9762 70.8948 27.2303 70.9204 27.48L70.9244 27.5136C70.9264 27.607 70.9378 27.7084 70.9481 27.8008C71.1844 30.2026 71.4321 32.1 71.4781 32.1291C71.533 32.1657 71.5948 32.184 71.6625 32.1761C72.2924 32.097 74.1715 32.2398 75.71 31.9052C77.0083 31.6312 78.1261 31.1121 79.3106 30.4121C79.4678 30.3192 79.8263 30.073 79.7971 29.8891C79.7684 29.6869 79.7155 29.3947 79.6483 29.0274C79.4149 27.7499 79.012 25.5524 78.8746 22.9806C78.8479 22.5016 78.8088 22.0284 78.7584 21.5633C78.6264 20.3515 78.4148 19.2006 78.131 18.1782C77.6035 16.2788 76.8283 14.8243 75.8559 14.2553C75.7288 14.1841 75.0451 14.6191 74.4172 15.022C73.8373 15.3938 73.2267 15.4966 72.633 15.4447L72.1104 16.0227C71.4776 16.7583 70.8038 17.7377 70.6199 19.1299C70.606 19.2327 70.5941 19.3419 70.5843 19.4581C70.5334 20.0252 70.521 20.743 70.5354 21.5469Z" fill="#016B83"/>
<path d="M70.5354 21.5467C70.5521 22.4742 70.606 23.5169 70.6787 24.5758C70.6832 24.6386 70.6876 24.7014 70.6921 24.7642C74.2897 22.5122 74.8439 18.3916 74.8439 18.3916C73.074 18.4692 71.668 18.8761 70.5843 19.458C70.5334 20.025 70.521 20.7429 70.5354 21.5467Z" fill="#016B83"/>
<path d="M61.4453 23.321C61.4083 22.7874 61.6845 22.6986 61.6845 22.6986C61.6845 22.6986 67.1088 21.7156 67.57 21.5705C68.0311 21.4255 71.974 17.3237 71.974 17.3237C71.974 17.3237 73.4854 15.6193 74.7229 15.9957C75.7983 16.3227 76.2186 17.1616 76.3617 17.9607C76.5322 18.913 76.0933 19.8711 75.2686 20.377C73.4175 21.5123 69.7116 23.7494 68.8388 24.0053C66.8963 24.5749 61.6771 24.051 61.6771 24.051C61.6771 24.051 61.4744 23.7401 61.4453 23.321Z" fill="#016B83"/>
<path opacity="0.2" d="M67.8276 33.7393V53.9018C67.8276 55.0778 66.8654 56.0403 65.6894 56.0403H44.9642C44.7844 56.0403 44.6093 56.0182 44.4417 55.9766C44.0828 55.8878 43.7579 55.7096 43.4926 55.4671C43.3028 55.2941 43.1438 55.0881 43.0242 54.8588C43.0178 54.8465 43.0116 54.8343 43.0055 54.8217C42.8812 54.5724 42.8035 54.2962 42.7838 54.005C42.78 53.9552 42.7783 53.9052 42.7783 53.8544V33.8687C42.7783 32.7376 43.3628 31.692 44.3161 31.083C44.3161 31.083 44.3168 31.0827 44.3185 31.0817C45.1124 30.5735 45.6389 29.6833 45.6389 28.6703C45.6389 28.3699 45.5926 28.0808 45.5068 27.8086H65.0991C65.0133 28.0808 64.967 28.3699 64.967 28.6703C64.967 29.6413 65.4506 30.4996 66.1904 31.0166C66.1907 31.0166 66.1907 31.0169 66.1911 31.0169C66.2405 31.0514 66.2909 31.0844 66.3423 31.1154C66.3426 31.1157 66.3426 31.1157 66.3426 31.1157C67.2605 31.6746 67.8276 32.6647 67.8276 33.7393Z" fill="#ED9F4A"/>
<path opacity="0.2" d="M67.8277 33.7393V53.9018C67.8277 55.0271 66.9466 55.9569 65.8404 56.0349C65.7907 56.0386 65.7402 56.0403 65.6895 56.0403H56.5638C55.3616 56.0403 54.3779 55.0567 54.3779 53.8545V33.8687C54.3779 32.7376 54.9624 31.692 55.9157 31.083C56.7113 30.5752 57.2388 29.6842 57.2388 28.6703C57.2388 28.3699 57.1925 28.0808 57.1067 27.8086H65.0993C65.0135 28.0808 64.9671 28.3699 64.9671 28.6703C64.9671 29.4663 65.2921 30.1863 65.8166 30.7043C65.9749 30.8613 66.1514 30.9996 66.3428 31.1157C67.2607 31.6746 67.8277 32.6647 67.8277 33.7393Z" fill="#ED9F4A"/>
<path opacity="0.6" d="M66.1903 31.0166C65.5503 30.6334 62.778 29.2752 55.7277 29.3327C47.6524 29.3988 44.4175 31.0309 44.3184 31.0817C45.1122 30.5735 45.6388 29.6833 45.6388 28.6703C45.6388 28.3699 45.5925 28.0808 45.5067 27.8086H65.099C65.0132 28.0808 64.9669 28.3699 64.9669 28.6703C64.9669 29.6413 65.4505 30.4996 66.1903 31.0166Z" fill="#ED9F4A"/>
<path d="M65.5429 27.6677V28.5822C65.5429 28.6725 65.4694 28.7461 65.3794 28.7461H45.2268C45.1366 28.7461 45.063 28.6725 45.063 28.5822V27.6677C45.063 27.5778 45.1366 27.5039 45.2268 27.5039H65.3794C65.4693 27.5039 65.5429 27.5778 65.5429 27.6677Z" fill="#2B478B"/>
<path d="M65.5428 27.6677V28.5822C65.5428 28.6725 65.4693 28.7461 65.3794 28.7461H57.7512C57.6613 28.7461 57.5874 28.6725 57.5874 28.5822V27.6677C57.5874 27.5778 57.6613 27.5039 57.7512 27.5039H65.3794C65.4693 27.5039 65.5428 27.5778 65.5428 27.6677Z" fill="#233862"/>
<path d="M52.0974 32.1966C52.0974 32.1966 51.5779 32.9279 51.1017 32.9381C50.6255 32.9482 49.9011 32.5991 49.9011 32.5991C49.9011 32.5991 49.4638 31.6247 49.7604 31.2434C49.7604 31.2434 50.0578 31.1128 50.3687 31.3434C50.4221 31.3831 50.4764 31.4332 50.5297 31.4976C50.6052 31.5882 50.6899 31.6399 50.7797 31.667C51.1195 31.7705 51.5228 31.5273 51.6737 31.762C51.7618 31.8984 51.8575 32.0009 51.9364 32.0729C52.0296 32.1559 52.0974 32.1966 52.0974 32.1966Z" fill="#F9DDBF"/>
<path d="M45.3257 37.4712C45.3257 37.4712 47.1616 33.0227 50.4662 32.938C50.4662 32.938 53.5167 33.2769 53.6861 37.4712H45.3257Z" fill="#F9DDBF"/>
<path d="M49.5607 33.0738C49.5607 33.0738 50.8852 33.3684 51.2939 33.1952C51.2939 33.1952 51.3556 32.6414 50.7979 32.7191C50.4161 32.7722 50.1674 32.5887 50.0211 32.5143C49.8141 32.409 49.5057 32.8421 49.5607 33.0738Z" fill="#F1A34F"/>
<path d="M50.7135 32.2389C50.6288 32.3024 50.3687 31.3433 50.3687 31.3433C50.422 31.383 50.4763 31.4331 50.5296 31.4975C50.6051 31.5881 50.6898 31.6398 50.7796 31.6669C50.7805 31.6949 50.7957 32.177 50.7135 32.2389Z" fill="#E5C1A1"/>
<path d="M51.9363 32.0727C51.9176 32.0837 51.305 32.4506 51.222 32.4506C51.1372 32.4506 51.6736 31.7617 51.6736 31.7617C51.7617 31.8981 51.8575 32.0006 51.9363 32.0727Z" fill="#E5C1A1"/>
<path d="M47.1193 36.2284C47.0853 36.1994 48.4185 34.2654 48.7857 34.2513C49.1529 34.2372 49.9779 34.675 50.5752 34.7315C51.1724 34.788 51.7515 34.6185 51.8644 34.9716C51.9774 35.3246 52.2881 36.5763 52.0974 36.7766C51.9068 36.9769 47.8524 36.8547 47.1193 36.2284Z" fill="#E5C1A1"/>
<path opacity="0.5" d="M45.6348 54.5165C45.5286 54.5724 45.4216 54.6252 45.314 54.6762C45.2115 54.7355 45.1072 54.7937 45.0009 54.8493C44.5112 55.1068 44.0061 55.3117 43.4925 55.4668C43.3028 55.2937 43.1437 55.0877 43.0242 54.8585C42.9424 54.9021 42.8607 54.9439 42.7783 54.9848V39.7725C43.156 39.8228 43.5296 39.8981 43.8958 39.9972C45.9509 40.5527 47.7812 41.8602 48.8943 43.7835C51.1053 47.6046 49.6459 52.41 45.6348 54.5165Z" fill="#E2810E"/>
<path d="M47.025 43.1834C44.8138 39.1721 39.7694 37.7129 35.7581 39.9241C31.7468 42.1353 30.2876 47.1797 32.4988 51.191C34.71 55.2023 39.7544 56.6615 43.7657 54.4503C47.777 52.2391 49.2363 47.1947 47.025 43.1834Z" fill="#E2810E"/>
<path d="M43.4436 54.6188C43.3414 54.6811 43.2376 54.7413 43.1319 54.7996C43.0962 54.8193 43.0604 54.8388 43.0246 54.8575C42.9429 54.9011 42.8612 54.943 42.7788 54.9839C38.8293 56.9235 34.012 55.4348 31.8649 51.5402C29.817 47.8254 30.9178 43.224 34.278 40.8079C34.546 40.6151 34.828 40.4363 35.1243 40.2732C35.2306 40.2146 35.3379 40.1584 35.4455 40.1052C35.5501 40.0531 35.6557 40.0034 35.7616 39.9564C36.0862 39.8116 36.4162 39.6897 36.7493 39.5899C37.2445 39.4408 37.7472 39.3403 38.2509 39.2871C39.8132 39.1216 41.385 39.407 42.7787 40.0889C44.2575 40.8119 45.5361 41.9815 46.3913 43.5326C48.5442 47.4385 47.2177 52.3232 43.4436 54.6188Z" fill="#FFB93E"/>
<path d="M39.1864 55.1816C38.4812 55.1816 37.7719 55.082 37.0757 54.8805C35.1368 54.3196 33.5324 53.0373 32.5581 51.2697C31.5837 49.5021 31.3559 47.4608 31.9168 45.522C32.4777 43.5831 33.7601 41.9787 35.5276 41.0044C37.2952 40.03 39.3365 39.8022 41.2753 40.3631C43.2142 40.924 44.8186 42.2063 45.793 43.9739C46.7674 45.7416 46.9951 47.7828 46.4342 49.7217C45.8734 51.6605 44.591 53.2649 42.8234 54.2393C41.6906 54.8638 40.4451 55.1816 39.1864 55.1816ZM32.9529 51.0521C33.8691 52.7142 35.3778 53.9201 37.2011 54.4475C39.0242 54.9749 40.9437 54.7608 42.6059 53.8445C44.268 52.9283 45.4738 51.4196 46.0013 49.5963C46.5287 47.7732 46.3146 45.8537 45.3983 44.1915C44.482 42.5294 42.9733 41.3235 41.1501 40.7961C39.3269 40.2688 37.4074 40.4828 35.7453 41.3991C34.0831 42.3154 32.8773 43.8241 32.3499 45.6473C31.8225 47.4705 32.0366 49.3899 32.9529 51.0521Z" fill="#FFA412"/>
<path d="M32.9654 18.3396C32.9906 18.238 30.7563 19.3495 30.643 19.4751C29.5952 20.6375 29.8939 22.1543 30.4935 22.1689C30.878 22.1782 30.8036 22.8176 30.8036 22.8176L35.0876 21.0053C35.0876 21.0053 34.5718 17.9974 32.9654 18.3396Z" fill="#2C3A64"/>
<path d="M33.4932 18.5741C33.4932 18.5741 33.6462 16.9053 31.7816 16.9053C31.7816 16.9053 32.3467 17.0585 32.639 17.3651C32.639 17.3651 31.4497 16.6668 30.1554 17.7397C28.8612 18.8125 29.6654 21.5032 29.2718 22.014C28.8783 22.525 27.3456 22.6271 27.5329 24.279C27.7202 25.9308 32.3971 27.9998 32.0968 29.3665C32.0968 29.3665 33.9296 26.6722 32.619 25.4427C32.619 25.4427 33.2578 26.0444 33.3229 26.7596C33.3229 26.7596 33.4962 25.3632 32.6076 24.9166C31.8212 24.5213 31.1772 23.0757 31.2453 22.8174C31.3134 22.5591 33.4932 18.5741 33.4932 18.5741Z" fill="#2C3A64"/>
<path d="M31.8002 26.4254C31.5127 25.0408 29.7174 24.6115 28.8679 25.7421C28.7152 25.9455 28.6077 26.1858 28.5727 26.4696C28.3787 28.0413 30.8916 34.4428 31.2515 35.0225C31.9067 36.0778 35.7647 39.6951 35.7647 39.6951L36.4757 39.2642C36.4757 39.2642 33.7393 34.6316 33.3155 34.198C32.8256 33.6967 32.3461 29.0543 31.8002 26.4254Z" fill="#ED985F"/>
<path d="M35.4941 39.2665C35.4941 39.2665 36.5319 38.5851 36.9247 38.629C37.3175 38.6729 38.4546 39 38.4683 39.1672C38.4822 39.3343 37.2015 39.4386 37.1155 39.53C37.0295 39.6214 36.1599 40.2019 35.8446 40.0199C35.5294 39.8378 35.4941 39.2665 35.4941 39.2665Z" fill="#ED985F"/>
<path d="M28.2556 54.6594L27.3285 54.5232C27.3285 54.5232 24.2114 52.046 23.7472 47.4239C23.6999 46.9535 23.69 46.4761 23.7251 45.9948C23.7292 45.9393 23.723 45.8838 23.6927 45.8371C23.6927 45.8368 23.6924 45.8364 23.6917 45.8358C23.5919 45.6828 23.3436 45.2997 23.0074 44.7548C22.6761 44.218 22.109 43.203 21.485 42.0641C20.3611 40.0131 19.0526 37.5602 18.6037 36.7788C17.1735 34.2888 17.8629 32.6145 17.8629 32.6145C17.8629 32.6145 21.8525 32.22 22.9458 31.2637L23.3396 31.8706C23.3396 31.8706 24.2039 35.6975 24.1631 35.7152C24.2057 35.8453 24.2489 35.9778 24.2928 36.1127C24.9751 38.2182 25.7597 40.8499 26.1876 42.9933C26.428 44.1992 26.5554 45.25 26.4869 45.9659C26.4634 46.2115 26.492 46.5888 26.5574 47.0548C26.9436 49.8012 28.2556 54.6594 28.2556 54.6594Z" fill="#263238"/>
<path d="M30.2 55.8323H26.3323C26.3323 55.8323 26.2395 55.2428 26.4416 54.7956C26.6351 54.3665 26.9111 54.3529 26.4768 53.6802C26.7226 53.9332 27.5126 54.0379 28.0718 53.9627C28.1403 54.0738 28.5135 54.819 28.7423 54.9834C28.9951 55.165 30.1222 55.1003 30.2 55.8323Z" fill="#233862"/>
<path d="M24.2928 36.1126C23.955 37.9759 23.1569 41.077 21.485 42.0641C20.3611 40.0131 19.0526 37.5602 18.6037 36.7788C17.1735 34.2888 17.8629 32.6145 17.8629 32.6145C17.8629 32.6145 21.8525 32.22 22.9458 31.2637L23.3396 31.8706C23.3396 31.8706 24.2039 35.6975 24.1631 35.7152C24.2056 35.8453 24.2489 35.9777 24.2928 36.1126Z" fill="#263238"/>
<path d="M31.386 25.5664C31.386 25.5664 31.9328 26.135 32.1826 26.8163C32.1826 26.8163 31.3102 29.3214 29.2715 29.6355C29.2715 29.6355 30.8845 25.5654 31.386 25.5664Z" fill="#ED7D2B"/>
<path d="M21.5802 32.9022L21.5933 32.1788C20.1521 32.3605 16.6238 30.4565 16.6238 30.4565C16.6238 30.4565 15.116 31.4594 14.9096 34.3234C14.8089 35.7213 14.1715 41.6332 14.101 43.3984C14.0753 44.0383 14.0667 44.4949 14.0638 44.6773C14.0641 44.6783 14.0641 44.6787 14.064 44.6791C14.0632 44.7348 14.037 44.784 14.0027 44.828C13.7045 45.2071 13.4458 45.6086 13.2218 46.0251C11.0226 50.1169 12.1726 55.6769 12.1726 55.6769L12.6834 55.5471C12.6834 55.5471 14.5429 49.7833 15.7582 47.2902C15.9645 46.8673 16.1519 46.5385 16.3087 46.348C16.7657 45.793 17.2475 44.8504 17.7225 43.716C18.6203 41.5714 19.4919 38.7415 20.1135 36.5503C20.1575 36.5582 21.5802 32.9022 21.5802 32.9022Z" fill="#263238"/>
<path d="M30.0145 28.0745C27.6584 27.5337 29.1636 24.2229 29.3002 24.2812C29.6266 24.2147 30.3436 23.6414 30.985 22.522L31.0717 22.5971L32.5187 23.8659C32.5187 23.8659 32.1842 24.3593 31.9028 24.8426C31.683 25.221 31.4961 25.5938 31.5258 25.7218C31.6422 25.8135 30.6429 28.2189 30.0145 28.0745Z" fill="#FFB27D"/>
<path d="M32.5184 23.866C32.5184 23.866 32.1838 24.3588 31.9025 24.8427C31.0028 24.2881 31.0018 23.1742 31.0712 22.5972L32.5184 23.866Z" fill="#ED985F"/>
<path d="M32.5585 24.5016C32.5585 24.5016 30.3739 23.2859 31.1518 21.9372C31.9298 20.5884 32.1718 19.5232 33.5994 20.2422C35.0271 20.9613 34.9989 21.6309 34.8487 22.1443C34.6986 22.6576 33.1468 24.783 32.5585 24.5016Z" fill="#FFB27D"/>
<path d="M35.2179 21.3577C35.1179 20.7588 34.8136 20.7017 34.6015 20.7417C33.7947 19.4075 32.4767 19.9282 32.4767 19.9282C31.7727 20.8116 30.7549 20.9624 30.7549 20.9624C30.7549 20.9624 31.0084 21.4341 32.0529 21.726C32.372 21.8152 32.7341 21.7612 33.0833 21.6436C32.3587 22.0477 31.6008 22.2025 31.6008 22.2025C32.9772 22.3284 34.2869 21.0701 34.4227 20.9355C34.4862 21.1305 34.5976 21.5387 34.5309 21.8372C34.4403 22.2428 34.0803 22.9775 34.3001 23.0726C34.3001 23.0726 35.3679 22.2558 35.2179 21.3577Z" fill="#2C3A64"/>
<path d="M15.2483 55.8324H11.3806C11.3806 55.8324 11.2879 55.2429 11.4899 54.7957C11.6835 54.3666 11.9867 54.1715 11.9141 53.6523C12.1599 53.9054 12.5604 54.1888 13.1196 54.1135C13.1881 54.2246 13.5618 54.819 13.7907 54.9835C14.0434 55.1651 15.1705 55.1004 15.2483 55.8324Z" fill="#233862"/>
<path d="M30.2914 30.6992C29.7937 30.8729 29.0952 30.9679 28.3806 31.0456C27.3636 31.1567 26.3136 31.2326 25.7635 31.4519C25.563 31.532 25.4287 31.6307 25.3868 31.757C25.1484 32.474 24.0977 33.5802 24.0977 33.5802C17.363 33.2737 16.6235 30.4567 16.6235 30.4567C21.1547 25.1878 28.8268 23.6627 28.8268 23.6627C28.8268 23.6627 29.3748 23.4303 30.7549 24.527C31.6758 25.2593 31.5546 25.5403 31.5546 25.5403C31.5546 25.5403 31.7559 30.1883 30.2914 30.6992Z" fill="#FF8926"/>
<path d="M28.3806 31.0455C27.3636 31.1565 26.3136 31.2324 25.7635 31.4518C25.5388 28.0929 27.1238 25.5664 27.1238 25.5664C27.1238 25.5664 28.1579 29.7744 28.3806 31.0455Z" fill="#ED7D2B"/>
<path d="M29.4275 24.9165C29.4275 24.9165 26.8787 25.1683 26.6743 26.8246C26.47 28.4807 29.1181 35.2266 29.4973 35.8375C30.1876 36.9495 34.2531 40.7614 34.2531 40.7614L35.0024 40.3073C35.0024 40.3073 32.1187 35.4255 31.6723 34.9686C30.9713 34.2514 30.2906 25.4902 29.4275 24.9165Z" fill="#FFB27D"/>
<path d="M26.748 27.8209C26.7547 27.8586 29.1004 28.5872 30.6099 27.8209C30.6099 27.8209 30.933 24.3379 29.1308 24.527C27.3285 24.716 26.2613 25.2836 26.2159 26.1464C26.1705 27.0093 26.748 27.8209 26.748 27.8209Z" fill="#F99746"/>
<path d="M34.0215 40.2771C34.0215 40.2771 34.9358 39.4374 35.3306 39.4174C35.7254 39.3975 36.9002 39.5371 36.9409 39.6998C36.9814 39.8625 35.7343 40.1719 35.6642 40.2759C35.594 40.38 34.8293 41.093 34.4888 40.9642C34.1483 40.8354 34.0215 40.2771 34.0215 40.2771Z" fill="#FFB27D"/>
<path d="M104.881 56.096H0.118979C0.0535281 56.096 0 56.0424 0 55.977V55.9364C0 55.871 0.0534876 55.8174 0.118979 55.8174H104.881C104.946 55.8174 105 55.8709 105 55.9364V55.977C105 56.0424 104.946 56.096 104.881 56.096Z" fill="#2E3552"/>
</svg>
