<svg width="105" height="103" viewBox="0 0 105 103" fill="none" xmlns="http://www.w3.org/2000/svg">
<path d="M94.4791 81.793H87.5234V81.844H94.4791V81.793Z" fill="#EBEBEB"/>
<path d="M69.556 82.3467H67.7305V82.3977H69.556V82.3467Z" fill="#EBEBEB"/>
<path d="M87.3135 79.8984H83.2832V79.9494H87.3135V79.8984Z" fill="#EBEBEB"/>
<path d="M20.0871 80.2412H11.0166V80.2922H20.0871V80.2412Z" fill="#EBEBEB"/>
<path d="M23.2865 80.2412H21.9565V80.2922H23.2865V80.2412Z" fill="#EBEBEB"/>
<path d="M47.2808 81.103H27.6089V81.154H47.2808V81.103Z" fill="#EBEBEB"/>
<path d="M50.0644 69.4114H9.51362C8.85275 69.4114 8.31494 68.889 8.31494 68.247V12.8749C8.31494 12.2329 8.85275 11.7104 9.51362 11.7104H50.0644C50.7251 11.7104 51.2629 12.2329 51.2629 12.8749V68.247C51.2629 68.889 50.7251 69.4114 50.0644 69.4114ZM9.51362 11.7617C8.88152 11.7617 8.36744 12.261 8.36744 12.8751V68.2472C8.36744 68.8613 8.88152 69.3606 9.51362 69.3606H50.0644C50.6963 69.3606 51.2104 68.8613 51.2104 68.2472V12.8749C51.2104 12.261 50.6963 11.7614 50.0644 11.7614L9.51362 11.7617Z" fill="#EBEBEB"/>
<path d="M95.4866 69.4114H54.9358C54.2751 69.4114 53.7373 68.889 53.7373 68.247V12.8749C53.7373 12.2329 54.2751 11.7104 54.9358 11.7104H95.4866C96.1476 11.7104 96.6852 12.2329 96.6852 12.8749V68.247C96.6852 68.889 96.1474 69.4114 95.4866 69.4114ZM54.9358 11.7617C54.3039 11.7617 53.7898 12.261 53.7898 12.8751V68.2472C53.7898 68.8613 54.3039 69.3606 54.9358 69.3606H95.4866C96.1187 69.3606 96.6327 68.8613 96.6327 68.2472V12.8749C96.6327 12.261 96.1187 11.7614 95.4866 11.7614L54.9358 11.7617Z" fill="#EBEBEB"/>
<path d="M105 78.5093H0V78.5603H105V78.5093Z" fill="#EBEBEB"/>
<path d="M42.8232 15.0605H27.8599V64.3696H42.8232V15.0605Z" fill="#FAFAFA"/>
<path opacity="0.1" d="M42.7934 15.0605H27.8301V64.3696H42.7934V15.0605Z" fill="white"/>
<g opacity="0.3">
<path d="M41.3295 15.0605H36.5588L31.3398 64.3696H36.1104L41.3295 15.0605Z" fill="white"/>
</g>
<path d="M42.9482 14.4351H27.7344V15.6856H42.9482V14.4351Z" fill="#E0E0E0"/>
<path d="M42.9482 63.9385H27.7344V65.189H42.9482V63.9385Z" fill="#EBEBEB"/>
<path d="M43.5397 66.2547H27.0459V13.2139H43.5397V66.2547ZM28.3032 65.0333H42.2822V14.4352H28.3032V65.0333Z" fill="#EBEBEB"/>
<path d="M26.5249 15.0605H11.5615V64.3696H26.5249V15.0605Z" fill="#FAFAFA"/>
<path d="M24.2679 35.9414H12.687V45.3821H24.2679V35.9414Z" fill="#E6E6E6"/>
<path d="M14.9115 37.1182H13.4287V38.5586H14.9115V37.1182Z" fill="#FAFAFA"/>
<path d="M17.7829 37.1182H16.3003V38.5586H17.7829V37.1182Z" fill="#FAFAFA"/>
<path d="M20.655 37.1182H19.1724V38.5586H20.655V37.1182Z" fill="#FAFAFA"/>
<path d="M23.5268 37.1182H22.0439V38.5586H23.5268V37.1182Z" fill="#FAFAFA"/>
<path d="M14.9115 39.7349H13.4287V41.1753H14.9115V39.7349Z" fill="#FAFAFA"/>
<path d="M17.7829 39.7349H16.3003V41.1753H17.7829V39.7349Z" fill="#FAFAFA"/>
<path d="M20.655 39.7349H19.1724V41.1753H20.655V39.7349Z" fill="#FAFAFA"/>
<path d="M23.5268 39.7349H22.0439V41.1753H23.5268V39.7349Z" fill="#E6E6E6"/>
<path d="M14.9115 42.3521H13.4287V43.7923H14.9115V42.3521Z" fill="#E6E6E6"/>
<path d="M17.7829 42.3521H16.3003V43.7923H17.7829V42.3521Z" fill="#E6E6E6"/>
<path d="M20.655 42.3521H19.1724V43.7923H20.655V42.3521Z" fill="#FAFAFA"/>
<path d="M23.5268 42.3521H22.0439V43.7923H23.5268V42.3521Z" fill="#E6E6E6"/>
<path d="M24.2679 45.2637H12.687V54.7044H24.2679V45.2637Z" fill="#E6E6E6"/>
<path d="M14.9115 46.4404H13.4287V47.8809H14.9115V46.4404Z" fill="#FAFAFA"/>
<path d="M17.7829 46.4404H16.3003V47.8809H17.7829V46.4404Z" fill="#FAFAFA"/>
<path d="M20.655 46.4404H19.1724V47.8809H20.655V46.4404Z" fill="#FAFAFA"/>
<path d="M23.5268 46.4404H22.0439V47.8809H23.5268V46.4404Z" fill="#FAFAFA"/>
<path d="M14.9115 49.0571H13.4287V50.4976H14.9115V49.0571Z" fill="#FAFAFA"/>
<path d="M17.7829 49.0571H16.3003V50.4976H17.7829V49.0571Z" fill="#FAFAFA"/>
<path d="M20.655 49.0571H19.1724V50.4976H20.655V49.0571Z" fill="#FAFAFA"/>
<path d="M23.5268 49.0571H22.0439V50.4976H23.5268V49.0571Z" fill="#E6E6E6"/>
<path d="M14.9115 51.6743H13.4287V53.1148H14.9115V51.6743Z" fill="#E6E6E6"/>
<path d="M17.7829 51.6743H16.3003V53.1148H17.7829V51.6743Z" fill="#E6E6E6"/>
<path d="M20.655 51.6743H19.1724V53.1148H20.655V51.6743Z" fill="#FAFAFA"/>
<path d="M23.5268 51.6743H22.0439V53.1148H23.5268V51.6743Z" fill="#E6E6E6"/>
<path d="M24.2679 54.5854H12.687V64.0262H24.2679V54.5854Z" fill="#E6E6E6"/>
<path d="M14.9115 55.7622H13.4287V57.2027H14.9115V55.7622Z" fill="#FAFAFA"/>
<path d="M17.7829 55.7622H16.3003V57.2027H17.7829V55.7622Z" fill="#FAFAFA"/>
<path d="M20.655 55.7622H19.1724V57.2027H20.655V55.7622Z" fill="#FAFAFA"/>
<path d="M23.5268 55.7622H22.0439V57.2027H23.5268V55.7622Z" fill="#FAFAFA"/>
<path d="M14.9115 58.3789H13.4287V59.8194H14.9115V58.3789Z" fill="#FAFAFA"/>
<path d="M17.7829 58.3789H16.3003V59.8194H17.7829V58.3789Z" fill="#FAFAFA"/>
<path d="M20.655 58.3789H19.1724V59.8194H20.655V58.3789Z" fill="#FAFAFA"/>
<path d="M23.5268 58.3789H22.0439V59.8194H23.5268V58.3789Z" fill="#E6E6E6"/>
<path d="M14.9115 60.9961H13.4287V62.4365H14.9115V60.9961Z" fill="#E6E6E6"/>
<path d="M17.7829 60.9961H16.3003V62.4365H17.7829V60.9961Z" fill="#E6E6E6"/>
<path d="M20.655 60.9961H19.1724V62.4365H20.655V60.9961Z" fill="#FAFAFA"/>
<path d="M23.5268 60.9961H22.0439V62.4365H23.5268V60.9961Z" fill="#E6E6E6"/>
<path opacity="0.1" d="M26.3256 15.0605H11.3623V64.3696H26.3256V15.0605Z" fill="white"/>
<g opacity="0.3">
<path d="M25.0312 15.0605H20.2606L15.0415 64.3696H19.8121L25.0312 15.0605Z" fill="white"/>
</g>
<path d="M26.6499 14.4351H11.436V15.6856H26.6499V14.4351Z" fill="#E0E0E0"/>
<path d="M26.6499 63.9385H11.436V65.189H26.6499V63.9385Z" fill="#EBEBEB"/>
<path d="M27.2414 66.2547H10.7476V13.2139H27.2414V66.2547ZM12.005 65.0333H25.9841V14.4352H12.005V65.0333Z" fill="#EBEBEB"/>
<path d="M49.6381 72.8411L49.4699 72.8613C49.4594 72.7782 48.4386 64.4793 50.5444 57.6975C52.6375 50.9572 51.1963 46.6622 51.1814 46.6197L51.342 46.5669C51.3569 46.6101 52.8152 50.9549 50.7066 57.7453C48.6114 64.493 49.6276 72.7583 49.6381 72.8411Z" fill="#FFD7B6"/>
<path d="M51.4817 47.5437C51.1184 47.1214 50.6147 46.8197 50.063 46.694L50.1016 46.5337C50.6888 46.6673 51.2251 46.9886 51.6119 47.4382L51.4817 47.5437Z" fill="#FFD7B6"/>
<path d="M52.1984 48.2338L51.7134 48.5L51.7967 48.6433L52.2818 48.3771L52.1984 48.2338Z" fill="#FFD7B6"/>
<path d="M51.2991 52.0566C50.8823 51.1276 50.0875 50.3787 49.1191 50.0019L49.1821 49.8491C50.1916 50.242 51.0198 51.0225 51.4548 51.9909L51.2991 52.0566Z" fill="#FFD7B6"/>
<path d="M50.8445 57.2412L50.675 57.2433C50.6666 56.5735 50.3388 55.9258 49.7979 55.5105L49.9031 55.3813C50.4835 55.8271 50.8355 56.5223 50.8445 57.2412Z" fill="#FFD7B6"/>
<path d="M50.4665 58.5667L50.3086 58.5064C50.4785 58.0871 50.8391 57.7416 51.2727 57.582L51.3328 57.7361C50.9432 57.8795 50.6194 58.19 50.4665 58.5667Z" fill="#FFD7B6"/>
<path d="M49.3677 66.9779L49.2373 66.8729C49.4435 66.6311 49.5996 65.7113 49.6833 65.217C49.7033 65.0989 49.7205 64.9981 49.7348 64.9253L49.9013 64.9559C49.8873 65.0277 49.8705 65.127 49.8507 65.2435C49.7253 65.9816 49.5851 66.7233 49.3677 66.9779Z" fill="#FFD7B6"/>
<path d="M49.2698 69.6196C49.051 68.969 48.3552 68.5025 47.6515 68.5343L47.6436 68.3699C48.4208 68.3346 49.1892 68.8499 49.4309 69.5684L49.2698 69.6196Z" fill="#FFD7B6"/>
<path d="M50.5609 71.3386L49.3662 72.6372L49.4926 72.7469L50.6872 71.4483L50.5609 71.3386Z" fill="#FFD7B6"/>
<path d="M51.41 62.8728C51.6807 63.7241 49.7924 65.3447 49.7924 65.3447C49.7924 65.3447 47.2921 65.0409 47.0214 64.1898C46.7507 63.3385 47.3839 61.9456 48.5958 61.5821C49.8077 61.2182 51.1393 62.0215 51.41 62.8728Z" fill="#FFD7B6"/>
<path d="M53.5057 52.5424C53.266 53.4465 51.4777 54.0885 51.4777 54.0885C51.4777 54.0885 50.2309 52.6872 50.4705 51.7833C50.7101 50.8791 51.6986 49.883 52.5367 50.0927C53.3748 50.3022 53.7453 51.6382 53.5057 52.5424Z" fill="#FF8926"/>
<path d="M46.3296 66.0521C47.4524 66.4768 48.1408 68.4061 48.1408 68.4061C48.1408 68.4061 46.2907 69.3753 45.1678 68.9505C44.045 68.5258 42.8564 67.3289 43.1773 66.5286C43.4981 65.7284 45.2067 65.6274 46.3296 66.0521Z" fill="#FFD7B6"/>
<path d="M48.7917 55.4377C49.029 55.6089 49.2739 55.7835 49.5591 55.8588C49.8443 55.9341 50.1836 55.888 50.3775 55.6713C50.6177 55.4026 50.5532 54.9863 50.402 54.6621C50.1021 54.0199 48.9954 52.93 48.1456 53.2427C46.9185 53.6939 48.2447 55.0434 48.7917 55.4377Z" fill="#FF8926"/>
<path d="M51.3029 57.0748C51.1421 57.2686 50.9711 57.5127 51.0591 57.7467C51.1372 57.9542 51.3995 58.0493 51.6244 58.0162C51.8493 57.9832 52.0449 57.8536 52.2315 57.7278C52.6648 57.4356 53.5527 56.8226 52.9859 56.2492C52.3968 55.6533 51.6423 56.6663 51.3029 57.0748Z" fill="#FF8926"/>
<path d="M47.6791 48.9146C47.4937 48.9344 47.3059 49.055 47.2744 49.2335C47.2375 49.4422 47.4158 49.6247 47.5884 49.7541C48.0185 50.076 49.3112 50.945 49.5998 50.1068C49.8724 49.3147 48.2505 48.8532 47.6791 48.9146Z" fill="#FFD7B6"/>
<path d="M50.0619 46.1568C49.7952 46.1815 49.5291 46.0875 49.2618 46.104C48.9945 46.1205 48.6978 46.3294 48.7572 46.5832C48.8122 46.8178 49.1123 46.8963 49.3595 46.9114C49.7812 46.9371 50.2062 46.9086 50.6201 46.8268C50.7163 46.8078 50.8209 46.7801 50.8759 46.7013C50.984 46.5467 50.812 46.3394 50.6281 46.2846C50.4441 46.2297 50.2364 46.248 50.0695 46.1552L50.0619 46.1568Z" fill="#FF8926"/>
<path d="M52.6683 47.94C52.936 47.9475 53.1951 47.8366 53.4631 47.8359C53.7311 47.8351 54.0412 48.0246 53.9992 48.2817C53.9604 48.5191 53.6662 48.6169 53.4207 48.6477C53.0017 48.7003 52.5756 48.6993 52.1569 48.644C52.0597 48.6311 51.9534 48.6103 51.8932 48.5353C51.7747 48.3878 51.9322 48.1701 52.1122 48.1036C52.2919 48.0371 52.5005 48.042 52.6609 47.9388L52.6683 47.94Z" fill="#FFD7B6"/>
<path d="M52.4048 67.1079C52.4709 67.0536 52.5459 66.9979 52.6324 66.9985C52.7473 66.9994 52.8386 67.1046 52.8599 67.2142C52.8813 67.3237 52.8496 67.4359 52.8168 67.5426C52.6354 68.1326 50.5971 72.4056 50.1284 71.6383C49.8512 71.1846 50.5324 69.6822 50.7334 69.257C51.1219 68.4349 51.6927 67.6923 52.4048 67.1079Z" fill="#FFD7B6"/>
<path d="M51.1855 46.3196C51.3472 45.9669 51.5224 45.5979 51.8437 45.3708C52.1652 45.1438 52.6801 45.1266 52.9143 45.4388C53.1759 45.7876 52.9143 46.3178 52.5132 46.5038C52.1121 46.6899 51.6423 46.6338 51.2021 46.5738C51.1986 46.5104 51.195 46.4469 51.1914 46.3833L51.1855 46.3196Z" fill="#FF8926"/>
<path d="M52.61 78.5415C50.4422 78.9006 48.1835 78.9006 46.0158 78.5415L43.4507 71.189H55.175L52.61 78.5415Z" fill="#FFD7B6"/>
<path d="M92.5197 39.3039C92.4783 39.299 92.4323 39.2849 92.3865 39.2711C91.5241 38.9926 90.2134 37.6848 89.0975 35.9049C87.9816 34.1205 87.39 32.3867 87.5341 31.5115V31.507C87.5639 31.333 87.6208 31.1994 87.7094 31.1019C87.714 31.0929 87.7189 31.0886 87.7235 31.0841C87.7562 31.0486 87.7888 31.0176 87.8306 30.9958C87.877 30.9695 87.9232 30.9522 87.9694 30.9391C88.0987 30.9093 88.2506 30.9199 88.4203 30.9756C88.5809 31.0223 88.7594 31.1092 88.9469 31.2278C89.0704 31.3053 89.1981 31.3961 89.3304 31.5005C89.4035 31.5597 89.481 31.6231 89.5585 31.691C90.2512 32.2939 91.0274 33.2288 91.7324 34.351C92.4327 35.4685 92.926 36.5613 93.1595 37.441C93.186 37.5397 93.2078 37.6385 93.2297 37.7325C93.2689 37.9118 93.2946 38.0732 93.3067 38.2256C93.3271 38.4406 93.3202 38.6285 93.2862 38.7845C93.2517 38.963 93.1856 39.1009 93.0833 39.1893C93.06 39.2158 93.0321 39.238 92.9997 39.2556C92.9718 39.2731 92.9395 39.2862 92.9071 39.2947C92.7956 39.3339 92.6667 39.337 92.5197 39.3039Z" fill="#016B83"/>
<path d="M92.5194 39.3037L92.4472 39.1911L90.0345 35.3339C89.9713 35.2302 89.9081 35.1311 89.8493 35.0319L87.5947 31.4315V31.4271C87.6147 31.2975 87.6529 31.1906 87.7092 31.1017C87.7281 31.0662 87.756 31.035 87.7839 31.0042L88.0299 30.8593L88.7674 30.4248L89.1017 30.9564L89.1605 31.0511L89.3909 31.4205L89.558 31.6908L93.1589 37.4408L93.2899 37.6525L93.543 38.0581L93.6018 38.1527L93.9361 38.6844L93.0827 39.1893L92.9065 39.2945C92.7954 39.3337 92.6664 39.3368 92.5194 39.3037Z" fill="#016B83"/>
<path d="M88.7693 30.4258C88.0418 30.8551 88.6082 33.0525 90.035 35.3339C91.4615 37.615 93.2078 39.1162 93.9355 38.6868C94.6629 38.2574 94.0964 36.0601 92.6698 33.779C91.2431 31.4977 89.4967 29.9964 88.7693 30.4258Z" fill="#016B83"/>
<path d="M88.7693 30.4258C88.0418 30.8551 88.6082 33.0525 90.035 35.3339C91.4615 37.615 93.2078 39.1162 93.9355 38.6868C94.6629 38.2574 94.0964 36.0601 92.6698 33.779C91.2431 31.4977 89.4967 29.9964 88.7693 30.4258Z" fill="#67A6B5"/>
<path d="M89.1483 30.9211C89.1057 30.9462 89.0641 30.9911 89.0454 31.0358C89.6506 31.0364 90.9195 32.3399 92.048 34.1447C93.1799 35.9546 93.786 37.6492 93.5043 38.1664C93.5539 38.1709 93.614 38.1556 93.6566 38.1305C94.1493 37.8396 93.5487 35.9866 92.3025 33.9944C91.0602 32.0072 89.641 30.6302 89.1483 30.9211Z" fill="#016B83"/>
<path opacity="0.4" d="M89.1483 30.9211C89.1057 30.9462 89.0641 30.9911 89.0454 31.0358C89.6506 31.0364 90.9195 32.3399 92.048 34.1447C93.1799 35.9546 93.786 37.6492 93.5043 38.1664C93.5539 38.1709 93.614 38.1556 93.6566 38.1305C94.1493 37.8396 93.5487 35.9866 92.3025 33.9944C91.0602 32.0072 89.641 30.6302 89.1483 30.9211Z" fill="#016B83"/>
<path d="M80.0195 19.5011C80.0111 19.5276 79.996 19.5562 79.9807 19.5847C79.6837 20.1182 78.6163 20.8228 77.2435 21.3434C75.8676 21.8634 74.5898 22.0448 73.9976 21.8453L73.9944 21.8447C73.8768 21.8043 73.7905 21.751 73.7334 21.681C73.7277 21.677 73.7252 21.6733 73.7227 21.6696C73.7019 21.6439 73.6842 21.6188 73.674 21.5888C73.6611 21.5552 73.6546 21.5227 73.6511 21.4909C73.6458 21.4024 73.6714 21.3038 73.7304 21.199C73.7821 21.099 73.864 20.9921 73.969 20.8832C74.0377 20.8114 74.1162 20.7382 74.2048 20.6637C74.2546 20.6229 74.3082 20.5794 74.3649 20.5366C74.8674 20.1535 75.6112 19.7553 76.4768 19.4262C77.3387 19.0996 78.1587 18.9062 78.799 18.8581C78.8708 18.8526 78.9422 18.8499 79.0105 18.8469C79.14 18.8424 79.2555 18.8448 79.3631 18.8552C79.5151 18.8675 79.6451 18.8944 79.7499 18.9356C79.87 18.9795 79.9582 19.0394 80.0076 19.1174C80.0233 19.1359 80.0353 19.157 80.0437 19.1802C80.0525 19.2006 80.0577 19.2235 80.0598 19.2457C80.0735 19.3234 80.0601 19.4085 80.0195 19.5011Z" fill="#016B83"/>
<path d="M80.0194 19.5013L79.9323 19.5354L76.958 20.6594C76.8785 20.6886 76.8018 20.7181 76.7258 20.7449L73.9494 21.7959L73.9462 21.7953C73.8584 21.7667 73.7885 21.7288 73.7335 21.6812C73.711 21.6647 73.6928 21.6425 73.6745 21.6204L73.6031 21.4415L73.3887 20.905L73.7988 20.7489L73.8717 20.7216L74.1564 20.6145L74.3648 20.537L78.7989 18.8585L78.9621 18.7977L79.2746 18.68L79.3474 18.6526L79.7576 18.4966L80.007 19.1178L80.0593 19.2463C80.0734 19.3236 80.06 19.4087 80.0194 19.5013Z" fill="#016B83"/>
<path d="M73.3891 20.9041C73.601 21.4335 75.1989 21.3239 76.9578 20.6593C78.7168 19.9946 79.9709 19.0267 79.7588 18.4973C79.5469 17.9679 77.949 18.0775 76.1903 18.7421C74.4313 19.4067 73.1772 20.3747 73.3891 20.9041Z" fill="#016B83"/>
<path d="M73.3891 20.9041C73.601 21.4335 75.1989 21.3239 76.9578 20.6593C78.7168 19.9946 79.9709 19.0267 79.7588 18.4973C79.5469 17.9679 77.949 18.0775 76.1903 18.7421C74.4313 19.4067 73.1772 20.3747 73.3891 20.9041Z" fill="#67A6B5"/>
<path d="M73.7794 20.714C73.7918 20.745 73.818 20.7776 73.8468 20.7952C73.9197 20.3976 74.9791 19.7199 76.3706 19.194C77.7662 18.6667 79.0185 18.471 79.345 18.7179C79.354 18.6858 79.3507 18.6446 79.3383 18.6136C79.1947 18.2552 77.8326 18.4282 76.2964 19.0088C74.7645 19.5875 73.636 20.3554 73.7794 20.714Z" fill="#016B83"/>
<path opacity="0.4" d="M73.7794 20.714C73.7918 20.745 73.818 20.7776 73.8468 20.7952C73.9197 20.3976 74.9791 19.7199 76.3706 19.194C77.7662 18.6667 79.0185 18.471 79.345 18.7179C79.354 18.6858 79.3507 18.6446 79.3383 18.6136C79.1947 18.2552 77.8326 18.4282 76.2964 19.0088C74.7645 19.5875 73.636 20.3554 73.7794 20.714Z" fill="#016B83"/>
<path d="M73.8467 20.7952C74.177 21.0405 75.4294 20.8448 76.8209 20.3191C78.2164 19.792 79.2758 19.1141 79.3449 18.7181C79.0184 18.4713 77.7661 18.6669 76.3705 19.1943C74.9788 19.72 73.9195 20.3977 73.8467 20.7952Z" fill="#67A6B5"/>
<path d="M80.2607 47.6581C78.8854 45.4031 79.6523 42.4922 81.9737 41.1562C84.295 39.8202 87.2917 40.5652 88.6668 42.8202C90.0421 45.0753 89.2751 47.9861 86.9538 49.3221C84.6325 50.6581 81.6358 49.9129 80.2607 47.6581Z" fill="#016B83"/>
<path d="M79.7561 47.9486C78.3811 45.6938 79.148 42.7827 81.4693 41.4467C83.7907 40.1107 86.7872 40.8559 88.1624 43.1107C89.5377 45.3657 88.7706 48.2766 86.4495 49.6126C84.1279 50.9486 81.1314 50.2034 79.7561 47.9486Z" fill="#016B83"/>
<path d="M79.7561 47.9486C78.3811 45.6938 79.148 42.7827 81.4693 41.4467C83.7907 40.1107 86.7872 40.8559 88.1624 43.1107C89.5377 45.3657 88.7706 48.2766 86.4495 49.6126C84.1279 50.9486 81.1314 50.2034 79.7561 47.9486Z" fill="#67A6B5"/>
<path d="M85.8216 48.5849C85.7046 48.6532 85.5832 48.7136 85.4577 48.7658C83.7827 49.502 81.7728 48.9145 80.8141 47.3374C79.786 45.6524 80.3576 43.4726 82.0981 42.473C82.3543 42.327 82.6245 42.2105 82.8982 42.1313C84.4694 41.6619 86.2277 42.2841 87.1055 43.7203C88.1337 45.4057 87.5621 47.5853 85.8216 48.5849Z" fill="#016B83"/>
<path d="M90.0894 21.7955C90.9254 23.4484 89.9166 25.5932 87.8363 26.5861C85.7561 27.5789 83.3919 27.0441 82.5561 25.391C81.7201 23.7382 82.7287 21.5934 84.809 20.6005C86.8892 19.6076 89.2534 20.1427 90.0894 21.7955Z" fill="#016B83"/>
<path d="M89.7564 21.1378C90.5922 22.7906 89.5835 24.9355 87.5033 25.9284C85.423 26.9212 83.059 26.3863 82.223 24.7333C81.387 23.0805 82.3959 20.9359 84.4761 19.9428C86.5562 18.9499 88.9204 19.485 89.7564 21.1378Z" fill="#016B83"/>
<path d="M89.7564 21.1378C90.5922 22.7906 89.5835 24.9355 87.5033 25.9284C85.423 26.9212 83.059 26.3863 82.223 24.7333C81.387 23.0805 82.3959 20.9359 84.4761 19.9428C86.5562 18.9499 88.9204 19.485 89.7564 21.1378Z" fill="#67A6B5"/>
<path d="M88.7865 21.535C88.8264 21.614 88.86 21.6958 88.8905 21.7714C88.8873 21.7804 88.8966 21.7835 88.8997 21.7896C89.3077 22.9948 88.548 24.4336 87.1 25.1246C85.6458 25.8186 84.0092 25.5236 83.2765 24.4734C83.2734 24.4673 83.2767 24.4583 83.2673 24.4553C83.2242 24.3855 83.178 24.3096 83.1384 24.2309C82.5128 22.994 83.2707 21.383 84.831 20.6382C86.385 19.8965 88.1609 20.2984 88.7865 21.535Z" fill="#016B83"/>
<path d="M68.3613 21.397C67.5511 23.4282 64.5175 23.9441 61.71 22.2374C58.9025 20.5308 58.0385 17.6454 59.5478 16.0393C60.8506 14.6531 63.5239 14.72 65.6716 16.0256C67.8195 17.3314 69.0606 19.644 68.3613 21.397Z" fill="#016B83"/>
<path d="M68.6513 20.6691C67.8882 22.582 64.9761 23.0249 62.2604 21.3741C59.5447 19.7231 58.6669 16.9765 60.0886 15.4638C61.3209 14.1529 63.9026 14.2437 65.9963 15.5164C68.09 16.7892 69.3126 19.0112 68.6513 20.6691Z" fill="#016B83"/>
<path d="M68.6513 20.6691C67.8882 22.582 64.9761 23.0249 62.2604 21.3741C59.5447 19.7231 58.6669 16.9765 60.0886 15.4638C61.3209 14.1529 63.9026 14.2437 65.9963 15.5164C68.09 16.7892 69.3126 19.0112 68.6513 20.6691Z" fill="#67A6B5"/>
<path d="M67.6044 19.962C67.567 20.0444 67.5222 20.1232 67.48 20.1958C67.47 20.1979 67.4742 20.2087 67.4712 20.2152C66.7018 21.3582 64.7064 21.5014 62.8886 20.3963C61.0629 19.2864 60.3142 17.4749 61.0255 16.2966C61.0301 16.2913 61.0419 16.2902 61.0393 16.2804C61.0874 16.2115 61.1399 16.1374 61.1994 16.0683C62.0788 15.0422 64.0415 15.0773 65.6547 16.0581C67.2616 17.0348 68.1596 18.7388 67.6044 19.962Z" fill="#016B83"/>
<path d="M52.4999 87.6115C74.9871 87.6115 93.2166 86.5773 93.2166 85.3016C93.2166 84.0259 74.9871 82.9917 52.4999 82.9917C30.0127 82.9917 11.7832 84.0259 11.7832 85.3016C11.7832 86.5773 30.0127 87.6115 52.4999 87.6115Z" fill="#F5F5F5"/>
<path d="M47.9505 85.3261C47.5758 85.3261 47.272 85.0309 47.272 84.6669V84.0078H48.6288V84.6669C48.629 85.0309 48.3251 85.3261 47.9505 85.3261Z" fill="#263238"/>
<path d="M71.8792 85.3261C71.5046 85.3261 71.2007 85.0309 71.2007 84.6669V84.0078H72.5575V84.6669C72.5575 85.0309 72.2538 85.3261 71.8792 85.3261Z" fill="#263238"/>
<path d="M84.2356 85.3261C83.861 85.3261 83.5571 85.0309 83.5571 84.6669V84.0078H84.9139V84.6669C84.9141 85.0309 84.6105 85.3261 84.2356 85.3261Z" fill="#263238"/>
<path d="M85.2318 76.3623H46.0845V84.5778H85.2318V76.3623Z" fill="#016B83"/>
<path opacity="0.3" d="M85.2318 76.3623H46.0845V84.5778H85.2318V76.3623Z" fill="white"/>
<path opacity="0.2" d="M85.1935 76.3623H73.0649V84.5788H85.1935V76.3623Z" fill="black"/>
<path d="M87.6423 55.9143L85.7235 72.6844C85.5958 73.8617 84.3957 74.7721 82.9402 74.8135C82.906 74.8166 82.8696 74.8166 82.8335 74.8166H58.6367C56.9353 74.8166 55.598 73.6424 55.7467 72.2782L57.6635 55.5082C57.795 54.3017 59.0504 53.376 60.5554 53.376H84.7504C84.7884 53.376 84.8266 53.376 84.8648 53.379C86.5125 53.4294 87.787 54.5806 87.6423 55.9143Z" fill="#016B83"/>
<path opacity="0.5" d="M87.6423 55.9143L85.7235 72.6844C85.5958 73.8617 84.3957 74.7721 82.9402 74.8135C82.906 74.8166 82.8696 74.8166 82.8335 74.8166H58.6367C56.9353 74.8166 55.598 73.6424 55.7467 72.2782L57.6635 55.5082C57.795 54.3017 59.0504 53.376 60.5554 53.376H84.7504C84.7884 53.376 84.8266 53.376 84.8648 53.379C86.5125 53.4294 87.787 54.5806 87.6423 55.9143Z" fill="white"/>
<path d="M88.972 55.9142L87.0532 72.6842C86.9255 73.8615 85.7254 74.772 84.2699 74.8134C82.6218 74.7628 81.3473 73.6116 81.4922 72.2781L83.411 55.5081C83.5386 54.3308 84.7369 53.4203 86.1945 53.3789C87.8422 53.4293 89.1167 54.5805 88.972 55.9142Z" fill="#016B83"/>
<path opacity="0.3" d="M88.972 55.9142L87.0532 72.6842C86.9255 73.8615 85.7254 74.772 84.2699 74.8134C82.6218 74.7628 81.3473 73.6116 81.4922 72.2781L83.411 55.5081C83.5386 54.3308 84.7369 53.4203 86.1945 53.3789C87.8422 53.4293 89.1167 54.5805 88.972 55.9142Z" fill="white"/>
<path d="M84.1244 78.12H67.2773C65.5854 78.12 64.2139 76.7876 64.2139 75.144V73.2338C64.2139 71.5901 65.5854 70.2578 67.2773 70.2578H84.1244C85.8164 70.2578 87.1879 71.5901 87.1879 73.2338V75.144C87.1879 76.7876 85.8161 78.12 84.1244 78.12Z" fill="#016B83"/>
<path opacity="0.3" d="M84.1244 78.12H67.2773C65.5854 78.12 64.2139 76.7876 64.2139 75.144V73.2338C64.2139 71.5901 65.5854 70.2578 67.2773 70.2578H84.1244C85.8164 70.2578 87.1879 71.5901 87.1879 73.2338V75.144C87.1879 76.7876 85.8161 78.12 84.1244 78.12Z" fill="white"/>
<path d="M73.2778 78.1202H47.053C45.3961 78.1202 44.0527 76.8154 44.0527 75.2056V73.1724C44.0527 71.5628 45.3959 70.2578 47.053 70.2578H73.2778C74.9347 70.2578 76.2781 71.5626 76.2781 73.1724V75.2056C76.2779 76.8154 74.9347 78.1202 73.2778 78.1202Z" fill="#016B83"/>
<path opacity="0.6" d="M73.2778 78.1202H47.053C45.3961 78.1202 44.0527 76.8154 44.0527 75.2056V73.1724C44.0527 71.5628 45.3959 70.2578 47.053 70.2578H73.2778C74.9347 70.2578 76.2781 71.5626 76.2781 73.1724V75.2056C76.2779 76.8154 74.9347 78.1202 73.2778 78.1202Z" fill="white"/>
<path d="M49.9165 78.6713L48.5188 83.0285L46.9072 82.9263L48.0881 77.1758L49.9165 78.6713Z" fill="#FF8B7B"/>
<path d="M66.8545 61.9238C66.8545 61.9238 63.9229 61.8261 61.7594 61.189C61.7594 61.189 60.8613 62.9946 60.1462 63.6602L59.8612 63.9256C59.8612 63.9256 51.4251 61.9317 50.271 64.5091C49.2871 66.7061 46.7222 81.1473 46.7222 81.1473H49.5935C49.5935 81.1473 51.6118 75.0487 53.5037 70.5399C53.6045 70.2998 53.9529 69.0326 53.9529 69.0326C55.3618 69.657 59.5427 71.2119 64.9159 70.9691C65.748 70.9314 67.0143 69.2272 67.0311 66.5807C67.0493 63.7157 66.8545 61.9238 66.8545 61.9238Z" fill="#263238"/>
<path opacity="0.2" d="M60.5143 69.4499C58.1543 68.3834 54.9056 65.5229 53.3995 64.4541C52.9667 64.1471 52.5702 63.9829 52.2227 63.9009C53.5522 63.6455 55.2458 63.691 56.7022 63.8189L60.1365 65.3644L65.6503 67.8669L66.3008 69.7861C66.0432 70.8092 65.3756 70.9479 64.7786 70.975C62.2884 71.0874 59.6086 70.7584 57.8731 70.3318C58.1486 70.3616 62.7932 70.4795 60.5143 69.4499Z" fill="black"/>
<path d="M43.8441 71.3702L40.8143 74.2392L39.6777 73.3339L42.0306 70.0254L43.8441 71.3702Z" fill="#FF8B7B"/>
<path d="M39.8979 72.9389L41.2196 73.9589C41.2769 74.0032 41.295 74.0799 41.2631 74.144L40.5564 75.5564C40.4947 75.6821 40.3397 75.7356 40.2103 75.6756C40.1938 75.6678 40.178 75.6584 40.1635 75.6476C39.6234 75.216 39.1603 74.8112 38.4776 74.2863C37.6727 73.666 37.8006 73.9171 36.8438 73.2005C36.2678 72.7682 36.6779 72.0585 36.9448 72.2137C38.1616 72.9316 38.7391 72.8471 39.48 72.7916C39.6333 72.7894 39.7817 72.8416 39.8979 72.9389Z" fill="#263238"/>
<path d="M39.3603 72.8764C39.3721 72.8813 39.386 72.8788 39.3952 72.8701C39.4055 72.8603 39.4086 72.8456 39.403 72.8329C39.3759 72.7693 39.1195 72.2062 38.9248 72.171C38.8874 72.1648 38.849 72.1775 38.8232 72.2044C38.778 72.2466 38.7568 72.3072 38.7665 72.3664C38.7967 72.5655 39.1478 72.7715 39.3542 72.8758L39.3603 72.8764ZM38.9265 72.2379C39.0325 72.2754 39.1953 72.5534 39.3007 72.7711C39.0239 72.6197 38.8523 72.4663 38.8353 72.3552C38.8276 72.316 38.8421 72.2756 38.8733 72.2487C38.8828 72.2377 38.8977 72.2324 38.912 72.235L38.9265 72.2379Z" fill="#016B83"/>
<path d="M39.3602 72.8761L39.3667 72.881C39.3791 72.8821 39.3915 72.8763 39.3982 72.8661C39.4077 72.8549 39.6267 72.5432 39.5841 72.3211C39.5725 72.2562 39.5337 72.1993 39.4768 72.163C39.3991 72.114 39.3476 72.1326 39.3182 72.1577C39.1899 72.2658 39.2573 72.7013 39.3388 72.8639C39.3439 72.8706 39.3516 72.8749 39.3602 72.8761ZM39.4083 72.1995L39.4354 72.2201C39.4778 72.246 39.5064 72.288 39.5144 72.336C39.5161 72.4938 39.4673 72.6489 39.3747 72.7807C39.3071 72.5938 39.2855 72.2729 39.3604 72.2087C39.3659 72.2046 39.3777 72.193 39.405 72.2036L39.4083 72.1995Z" fill="#016B83"/>
<path d="M63.3644 61.5179C67.0279 62.1711 70.3977 61.6552 70.3977 61.6552C70.3977 61.6552 72.822 70.712 65.8987 70.7028C63.339 70.6993 62.2938 69.6475 60.6485 68.6706C56.9017 66.4457 53.8355 63.1946 52.369 63.3751C50.2583 63.635 51.406 66.0834 42.6992 72.7216L40.9463 71.1704C40.9463 71.1704 47.5275 57.1162 51.8558 57.1162C55.6087 57.1162 61.5168 62.7299 62.3092 62.7491C63.1015 62.7678 63.3644 61.5179 63.3644 61.5179Z" fill="#263238"/>
<path opacity="0.2" d="M51.1863 63.8804L51.189 63.8816C50.6585 64.1027 50.2574 64.4118 50.0657 64.8396C49.95 65.0978 49.8439 65.5148 49.7467 66.0491C49.4972 66.3857 49.2045 66.7594 48.8569 67.1709C49.1306 64.433 51.1863 63.8804 51.1863 63.8804Z" fill="black"/>
<path d="M46.4129 82.989C46.4186 82.9774 46.4167 82.9633 46.4078 82.9537C46.398 82.9429 46.3824 82.939 46.3686 82.9441C46.2995 82.9684 45.6865 83.2003 45.6399 83.3946C45.6315 83.4319 45.6432 83.4711 45.671 83.4986C45.714 83.5461 45.7776 83.5702 45.8411 83.5633C46.055 83.542 46.2913 83.1981 46.412 82.9951L46.4129 82.989ZM45.7115 83.3962C45.7564 83.2913 46.0609 83.1402 46.298 83.0443C46.1235 83.3158 45.9519 83.4817 45.8324 83.4935C45.7902 83.4994 45.7478 83.4829 45.7205 83.4502C45.7092 83.4402 45.7043 83.4249 45.7077 83.4107L45.7115 83.3962Z" fill="#016B83"/>
<path d="M46.4127 82.9888L46.4182 82.9825C46.4198 82.97 46.4144 82.9574 46.4037 82.95C46.3921 82.9401 46.0698 82.7048 45.8308 82.7375C45.7611 82.746 45.6985 82.7824 45.6571 82.8381C45.6013 82.9141 45.6187 82.9668 45.6441 82.9976C45.7535 83.1318 46.2214 83.0843 46.3986 83.0098C46.4062 83.0051 46.4112 82.9974 46.4127 82.9888ZM45.693 82.9088L45.7163 82.8825C45.746 82.8411 45.7922 82.8142 45.8436 82.8085C46.012 82.8142 46.1754 82.8705 46.3115 82.9696C46.1088 83.029 45.7655 83.0357 45.7004 82.9574C45.6962 82.9517 45.6844 82.9392 45.6968 82.9123L45.693 82.9088Z" fill="#016B83"/>
<path d="M46.8945 82.683L48.6342 82.4845C48.7096 82.4759 48.781 82.5192 48.8062 82.5887L49.3591 84.1271C49.4093 84.2632 49.3362 84.4129 49.1961 84.4616C49.1781 84.468 49.1596 84.4722 49.1407 84.4747C48.4187 84.5451 47.7732 84.58 46.8763 84.6838C45.8176 84.8052 46.1011 84.8976 44.8586 85.0571C44.1097 85.1526 43.8722 84.3403 44.1851 84.2629C45.619 83.9184 45.9777 83.4439 46.4777 82.8737C46.5877 82.7627 46.7362 82.6948 46.8945 82.683Z" fill="#263238"/>
<path d="M54.1222 44.8995C53.8522 44.8616 53.8242 44.6629 53.6844 44.4352C53.6844 44.4352 53.2732 43.5209 53.5995 43.3862C53.5995 43.3862 54.0836 43.3301 54.6258 43.3507C55.2375 43.3742 55.5332 43.844 55.6332 44.1794C55.9322 45.1827 54.1222 44.8995 54.1222 44.8995Z" fill="#FF8B7B"/>
<path d="M53.8838 44.7758L52.6768 43.8772C52.4913 43.7391 52.4575 43.4806 52.6014 43.3017L52.9063 42.9229C53.0266 42.7734 53.237 42.7242 53.4143 42.8042L54.6258 43.3509L53.8838 44.7758Z" fill="#FF8B7B"/>
<path d="M54.7109 44.7983L55.859 47.0843L57.3202 46.8289L55.3611 43.8301L54.7109 44.7983Z" fill="#FF8B7B"/>
<path d="M64.0189 49.9204L63.2209 52.6091L59.6635 51.5014C57.3201 50.912 54.7642 45.7506 54.7642 45.7506L56.3581 45.1284L60.0037 49.2003L64.0189 49.9204Z" fill="#016B83"/>
<path d="M62.0845 57.3589C62.449 58.3161 62.6691 59.9956 61.2495 62.1464C61.2495 62.1464 66.7366 62.9377 70.6229 62.699C70.894 61.1633 70.223 57.9681 71.6466 53.0439C71.9767 51.9023 71.2161 50.7346 70.0126 50.5359C69.6911 50.4829 69.3498 50.4337 69 50.3942C67.6394 50.2399 66.6138 49.979 65.406 50.0059C65.0058 50.0149 64.6603 49.875 64.2639 49.9025C63.3907 49.9631 62.3226 51.6569 61.8486 53.2981C61.462 54.6365 61.5878 56.0552 62.0845 57.3589Z" fill="#016B83"/>
<path opacity="0.4" d="M62.0845 57.3589C62.449 58.3161 62.6691 59.9956 61.2495 62.1464C61.2495 62.1464 66.7366 62.9377 70.6229 62.699C70.894 61.1633 70.223 57.9681 71.6466 53.0439C71.9767 51.9023 71.2161 50.7346 70.0126 50.5359C69.6911 50.4829 69.3498 50.4337 69 50.3942C67.6394 50.2399 66.6138 49.979 65.406 50.0059C65.0058 50.0149 64.6603 49.875 64.2639 49.9025C63.3907 49.9631 62.3226 51.6569 61.8486 53.2981C61.462 54.6365 61.5878 56.0552 62.0845 57.3589Z" fill="white"/>
<path d="M63.2603 62.5483C62.3749 62.5646 61.4425 62.2564 60.6655 61.8437C61.2924 60.1313 61.4593 58.2623 61.1452 56.4705C60.9803 55.5303 60.6846 54.5823 60.8381 53.6402C61.0912 52.0872 62.4703 50.9766 63.7527 50.0176C63.9932 49.8377 64.2599 49.9562 64.5581 49.9023C63.1565 53.1047 63.1565 57.2376 63.2603 62.5483Z" fill="#016B83"/>
<path d="M71.3231 62.6177C71.2853 62.9074 71.0146 63.1267 70.7248 63.2044C70.4352 63.2819 70.1278 63.2466 69.8296 63.2109C68.8218 63.09 67.7565 62.9217 66.7489 62.8005C66.1806 58.5181 66.6754 54.1062 68.1796 50.0429C69.3082 50.0136 70.5375 50.1337 71.2349 50.9962C71.7838 51.6752 71.75 52.6244 71.69 53.4857C71.477 56.5371 71.7183 59.5834 71.3231 62.6177Z" fill="#016B83"/>
<path opacity="0.2" d="M68.5164 55.6025C68.957 53.341 69.8197 51.436 69.8197 51.436L69.9237 52.344L70.2311 52.7247C69.7195 54.2288 72.351 56.7319 69.3818 60.217C69.2372 60.3869 68.9967 60.443 68.7871 60.3584C67.5401 59.8547 66.1562 58.2876 66.1562 58.2876L66.8077 56.669C67.6876 57.0711 68.2779 56.8271 68.5164 55.6025Z" fill="black"/>
<path d="M63.7148 55.8796L65.3915 57.4907L66.1288 56.352L64.3201 54.9585L63.7148 55.8796Z" fill="#FF8B7B"/>
<path d="M63.856 56.7995H58.8355L58.2622 50.4355H63.2829L63.856 56.7995Z" fill="#263238"/>
<path opacity="0.5" d="M63.856 56.7995H58.8355L58.2622 50.4355H63.2829L63.856 56.7995Z" fill="white"/>
<path d="M63.6787 56.7675H58.6583L58.085 50.4033H63.1056L63.6787 56.7675Z" fill="#263238"/>
<path opacity="0.8" d="M63.6787 56.7675H58.6583L58.085 50.4033H63.1056L63.6787 56.7675Z" fill="white"/>
<path d="M61.6871 50.8011H59.5755L59.5039 50.0059H61.6155L61.6871 50.8011Z" fill="#263238"/>
<path d="M59.5039 50.0058L59.712 49.936H61.8983L61.9279 50.2745L61.7654 50.4577L61.7547 50.7343L61.6871 50.801L61.6155 50.0058H59.5039Z" fill="#263238"/>
<path opacity="0.5" d="M59.5039 50.0058L59.712 49.936H61.8983L61.9279 50.2745L61.7654 50.4577L61.7547 50.7343L61.6871 50.801L61.6155 50.0058H59.5039Z" fill="black"/>
<path d="M62.1183 55.7119L62.4762 56.0089C62.6108 56.1207 62.7926 56.1621 62.9644 56.1205L63.767 55.9259C64.0879 55.8482 64.32 54.9583 64.32 54.9583C63.9151 54.4852 62.6973 54.3522 62.6973 54.3522C62.4466 54.2804 62.1956 54.4057 62.1208 54.6401L61.9489 55.1799C61.8898 55.3665 61.957 55.5783 62.1183 55.7119Z" fill="#FF8B7B"/>
<path d="M71.7057 54.1574C71.8842 53.2178 71.9099 51.3014 70.8891 50.9444C69.695 50.5268 69.3762 52.2786 69.1196 53.8602C68.863 55.442 68.3573 57.4102 67.9673 57.2176C67.1553 56.8167 65.7313 55.9053 65.7313 55.9053L64.8726 57.1978C64.8726 57.1978 67.8703 60.3004 69.2328 59.5752C70.7664 58.7588 71.4794 55.3492 71.7057 54.1574Z" fill="#016B83"/>
<path d="M68.0561 47.7969C68.0561 47.7969 67.7548 48.9144 68.0816 50.1441C68.0816 50.1441 64.7944 52.1869 64.7944 50.0845C64.7944 50.0845 65.8152 50.3691 65.9018 49.0969C65.9509 48.3736 66.7268 47.6418 68.0561 47.7969Z" fill="#FF8B7B"/>
<path opacity="0.2" d="M65.9017 49.097C65.9908 48.4305 66.6243 47.7508 67.7751 47.7781L67.8518 47.8473L67.9324 47.9925C67.9324 47.9925 67.1909 49.8243 65.7764 49.6037C65.8257 49.4797 65.8721 49.3185 65.9017 49.097Z" fill="black"/>
<path d="M68.8079 45.2979C68.5525 47.0331 68.4836 47.7728 67.5034 48.5964C66.0283 49.8361 63.8907 49.1533 63.606 47.3789C63.35 45.782 63.809 43.2144 65.6226 42.6575C66.9162 42.2532 68.3024 42.9441 68.7186 44.2008C68.8356 44.5549 68.8663 44.9305 68.8079 45.2979Z" fill="#FF8B7B"/>
<path d="M67.618 48.4827C68.0561 48.4168 68.9752 48.1622 69.3675 47.9408C69.6227 47.165 69.7117 46.9227 69.9091 46.2136C70.2728 44.9067 69.9782 43.2519 68.6854 42.7576C68.2379 42.5864 66.8546 41.7976 66.3557 42.4912C66.229 42.6672 68.7659 45.5859 67.618 48.4827Z" fill="#263238"/>
<path d="M64.8304 46.2534C64.6738 46.5674 64.4734 46.8589 64.2349 47.1196C64.3762 47.2367 64.5637 47.2869 64.7468 47.2569L64.8304 46.2534Z" fill="#FF5652"/>
<path d="M66.4246 45.3748C66.437 45.3729 66.4488 45.3682 66.4591 45.3613C66.4904 45.338 66.4962 45.2944 66.4723 45.2638C66.4721 45.2634 66.4717 45.2632 66.4715 45.2628C66.3108 45.049 66.0529 44.9249 65.7806 44.9298C65.7417 44.9341 65.7132 44.9672 65.7155 45.0051C65.7188 45.0426 65.7522 45.0708 65.7909 45.0685C66.0158 45.0679 66.2272 45.1724 66.3595 45.349C66.3751 45.368 66.3999 45.3778 66.4246 45.3748Z" fill="#263238"/>
<path d="M63.7749 45.0518C63.7873 45.05 63.7991 45.0453 63.8094 45.0383C63.9874 44.9066 64.2197 44.8656 64.4341 44.9282C64.4707 44.9425 64.5124 44.9251 64.5271 44.8896L64.5276 44.8888C64.5408 44.8525 64.5221 44.8123 64.4849 44.7984C64.2252 44.7191 63.9419 44.7666 63.7243 44.9257C63.6913 44.947 63.6825 44.9902 63.7044 45.022C63.7197 45.0443 63.7474 45.0561 63.7749 45.0518Z" fill="#263238"/>
<path d="M65.882 46.0994C65.8707 46.2406 65.7835 46.3493 65.6867 46.3426C65.5899 46.3359 65.5238 46.2151 65.5368 46.0719C65.55 45.9287 65.6353 45.822 65.7302 45.8289C65.8249 45.8359 65.8932 45.9564 65.882 46.0994Z" fill="#263238"/>
<path d="M64.2295 45.9707C64.2182 46.1117 64.131 46.2206 64.0363 46.2135C63.9416 46.2065 63.8734 46.086 63.8845 45.943C63.8956 45.8 63.983 45.6933 64.0777 45.7C64.1726 45.7071 64.2428 45.8275 64.2295 45.9707Z" fill="#263238"/>
<path d="M64.1189 45.711L63.7764 45.5859C63.7764 45.5859 63.9353 45.8654 64.1189 45.711Z" fill="#263238"/>
<path d="M65.7712 45.8399L65.4287 45.7148C65.4287 45.7148 65.5875 45.9943 65.7712 45.8399Z" fill="#263238"/>
<path d="M65.6754 47.5202C65.7151 47.4777 65.7508 47.4323 65.7825 47.3839C65.7936 47.3688 65.7898 47.3478 65.7745 47.3372C65.7741 47.337 65.7739 47.3368 65.7734 47.3366C65.7564 47.3274 65.735 47.3325 65.7247 47.3484C65.5649 47.5965 65.2934 47.7562 64.9931 47.7791C64.9738 47.7791 64.958 47.7944 64.958 47.8131C64.958 47.8319 64.9738 47.8472 64.9931 47.8472C65.2562 47.8321 65.5025 47.7142 65.6754 47.5202Z" fill="#263238"/>
<path d="M69.1181 46.7102C68.9917 47.0262 68.7412 47.2804 68.4218 47.4167C67.9969 47.5939 67.7233 47.24 67.7897 46.8189C67.8491 46.4413 68.1423 45.8924 68.5942 45.8926C68.9231 45.9026 69.1813 46.1696 69.1711 46.4891C69.1685 46.5656 69.1505 46.6406 69.1181 46.7102Z" fill="#FF8B7B"/>
<path d="M65.4345 42.2976C64.9042 42.4051 64.4199 42.7129 64.1064 43.1419C63.7929 43.5709 63.6535 44.1166 63.724 44.6383C64.0218 44.6842 64.3229 44.7697 64.6209 44.8156C64.5489 44.4836 64.6098 44.157 64.8351 43.898C64.7811 44.1913 64.7898 44.6175 64.899 44.8961C65.1235 44.9206 65.408 44.9269 65.6325 44.9514C65.6346 44.5999 65.6514 44.4035 65.6535 44.052C65.8053 44.401 65.9763 44.7486 66.1281 45.0977C66.3742 45.0914 66.6218 45.1591 66.8284 45.2892C66.7537 44.95 66.6793 44.5732 66.6046 44.2337C67.0403 44.7301 67.2697 45.3994 67.2762 46.0516C67.6991 45.3506 67.756 44.4522 67.4133 43.7111C67.0704 42.97 66.2532 42.1317 65.4345 42.2976Z" fill="#263238"/>
<path d="M67.9323 49.7236C67.3054 50.132 66.2897 50.7784 65.5996 51.0759C65.6714 51.5414 65.9476 52.2193 66.3674 52.541C67.6828 51.58 68.0871 51.0179 68.4751 50.0396C68.414 49.7791 68.1606 49.5748 67.9323 49.7236Z" fill="#016B83"/>
<path opacity="0.7" d="M67.9323 49.7236C67.3054 50.132 66.2897 50.7784 65.5996 51.0759C65.6714 51.5414 65.9476 52.2193 66.3674 52.541C67.6828 51.58 68.0871 51.0179 68.4751 50.0396C68.414 49.7791 68.1606 49.5748 67.9323 49.7236Z" fill="white"/>
<path d="M64.5893 49.9285C64.154 50.6427 64.2302 51.4901 64.5786 52.248C64.9041 51.8396 65.2979 51.5001 65.6234 51.0917C65.145 50.6872 65.2695 50.342 65.347 49.9556C65.1966 49.8626 64.7836 49.8643 64.6078 49.8924C64.5948 49.9255 64.5815 49.9583 64.5685 49.9913C64.6051 49.9824 64.553 49.9373 64.5893 49.9285Z" fill="#016B83"/>
<path opacity="0.7" d="M64.5893 49.9285C64.154 50.6427 64.2302 51.4901 64.5786 52.248C64.9041 51.8396 65.2979 51.5001 65.6234 51.0917C65.145 50.6872 65.2695 50.342 65.347 49.9556C65.1966 49.8626 64.7836 49.8643 64.6078 49.8924C64.5948 49.9255 64.5815 49.9583 64.5685 49.9913C64.6051 49.9824 64.553 49.9373 64.5893 49.9285Z" fill="white"/>
<path d="M75.5082 39.4964H70.8412C70.8412 35.7637 67.7258 32.7373 63.8833 32.7373C60.0396 32.7373 56.9253 35.7637 56.9253 39.4964H52.2583C52.2583 33.2593 57.4629 28.2036 63.8833 28.2036C70.3028 28.2036 75.5082 33.2593 75.5082 39.4964Z" fill="#016B83"/>
<path d="M69.9078 36.1175L73.9518 33.8494C72.9309 32.1358 71.4601 30.707 69.6961 29.7153L67.3613 33.6438C68.417 34.2372 69.2969 35.0918 69.9078 36.1175Z" fill="#016B83"/>
<path opacity="0.8" d="M53.8139 33.8491C52.8244 35.5103 52.2578 37.4389 52.2578 39.4965H56.9249C56.9249 38.2651 57.2655 37.1117 57.8577 36.1172L53.8139 33.8491Z" fill="white"/>
<path opacity="0.2" d="M70.8407 39.4967H75.5078C75.5078 37.4394 74.9412 35.5108 73.9517 33.8496L69.9077 36.1177C70.4999 37.112 70.8407 38.2654 70.8407 39.4967Z" fill="black"/>
<path opacity="0.6" d="M60.4044 33.6438L58.0696 29.7153C56.3056 30.7068 54.8346 32.1358 53.814 33.8494L57.8579 36.1175C58.4688 35.092 59.3485 34.2372 60.4044 33.6438Z" fill="white"/>
<path opacity="0.4" d="M63.8833 32.7373V28.2036C61.7654 28.2036 59.7801 28.754 58.0698 29.7153L60.4046 33.6437C61.4281 33.0682 62.6155 32.7373 63.8833 32.7373Z" fill="white"/>
<path opacity="0.2" d="M67.3613 33.6439L69.696 29.7155C67.9858 28.7542 66.0005 28.2038 63.8828 28.2036V32.7373C65.1504 32.7375 66.3377 33.0684 67.3613 33.6439Z" fill="white"/>
<path d="M63.8828 38.9302L69.8594 32.5791L70.4105 33.0475L64.7793 39.8011L63.8828 38.9302Z" fill="#263238"/>
<path d="M64.9573 39.801C64.9573 40.3775 64.4762 40.8447 63.883 40.8447C63.2895 40.8447 62.8086 40.3773 62.8086 39.801C62.8086 39.2245 63.2897 38.7573 63.883 38.7573C64.4762 38.7573 64.9573 39.2247 64.9573 39.801Z" fill="#263238"/>
<path d="M38.7181 79.4638C38.8416 82.1711 36.6826 84.463 33.8959 84.5829C31.109 84.7029 28.7496 82.6056 28.6261 79.8985C28.5027 77.1912 30.6617 74.8993 33.4484 74.7793C36.2353 74.6594 38.5946 76.7567 38.7181 79.4638Z" fill="#016B83"/>
<path d="M39.3236 79.4379C39.4471 82.1452 37.288 84.4371 34.5013 84.5571C31.7144 84.677 29.3551 82.5797 29.2316 79.8726C29.1081 77.1653 31.2671 74.8734 34.054 74.7535C36.8405 74.6333 39.1999 76.7306 39.3236 79.4379Z" fill="#016B83"/>
<path opacity="0.4" d="M39.3236 79.4379C39.4471 82.1452 37.288 84.4371 34.5013 84.5571C31.7144 84.677 29.3551 82.5797 29.2316 79.8726C29.1081 77.1653 31.2671 74.8734 34.054 74.7535C36.8405 74.6333 39.1999 76.7306 39.3236 79.4379Z" fill="white"/>
<path d="M38.0536 79.4926C38.146 81.5185 36.5304 83.2336 34.4449 83.3235C32.3594 83.4133 30.5939 81.8439 30.5013 79.818C30.4089 77.7921 32.0245 76.0768 34.11 75.9871C36.1957 75.8971 37.9612 77.4667 38.0536 79.4926Z" fill="#016B83"/>
<path d="M20.9813 83.8067C20.9481 84.5678 23.4284 85.2884 26.5215 85.4161C29.6146 85.5438 32.1489 85.0299 32.1821 84.269C32.2154 83.5078 29.7351 82.7873 26.642 82.6596C23.549 82.5319 21.0147 83.0456 20.9813 83.8067Z" fill="#016B83"/>
<path d="M21.0407 82.4255L20.9805 83.8037L32.1812 84.2655L32.2414 82.8873L21.0407 82.4255Z" fill="#016B83"/>
<path d="M21.0418 82.4282C21.0084 83.1894 23.489 83.9101 26.5821 84.0376C29.6751 84.1651 32.2094 83.6516 32.2426 82.8903C32.276 82.1292 29.7957 81.4086 26.7026 81.2811C23.6093 81.1536 21.075 81.6671 21.0418 82.4282Z" fill="#016B83"/>
<path opacity="0.4" d="M21.0418 82.4282C21.0084 83.1894 23.489 83.9101 26.5821 84.0376C29.6751 84.1651 32.2094 83.6516 32.2426 82.8903C32.276 82.1292 29.7957 81.4086 26.7026 81.2811C23.6093 81.1536 21.075 81.6671 21.0418 82.4282Z" fill="white"/>
<path d="M21.7565 82.4045C21.7546 82.449 21.7722 82.5033 21.8042 82.5402C22.1788 82.0926 24.2265 81.8298 26.6734 81.9308C29.1275 82.0322 31.1447 82.4627 31.4721 82.9392C31.507 82.9049 31.5295 82.8525 31.5314 82.808C31.5538 82.2925 29.3862 81.776 26.685 81.6644C23.9907 81.553 21.779 81.8892 21.7565 82.4045Z" fill="#016B83"/>
<path opacity="0.4" d="M21.7565 82.4045C21.7546 82.449 21.7722 82.5033 21.8042 82.5402C22.1788 82.0926 24.2265 81.8298 26.6734 81.9308C29.1275 82.0322 31.1447 82.4627 31.4721 82.9392C31.507 82.9049 31.5295 82.8525 31.5314 82.808C31.5538 82.2925 29.3862 81.776 26.685 81.6644C23.9907 81.553 21.779 81.8892 21.7565 82.4045Z" fill="#016B83"/>
<path opacity="0.4" d="M21.8037 82.5401C22.1378 83.0168 24.1553 83.4472 26.6024 83.5482C29.0563 83.6494 31.104 83.3869 31.4717 82.9391C31.1443 82.4625 29.127 82.0321 26.673 81.9307C24.2261 81.8297 22.1784 82.0925 21.8037 82.5401Z" fill="#016B83"/>
<path d="M19.8045 81.7198C19.7713 82.4809 22.2517 83.2014 25.3447 83.3291C28.4378 83.4566 30.9721 82.943 31.0055 82.1821C31.0387 81.4209 28.5584 80.7004 25.4655 80.5727C22.3722 80.445 19.8379 80.9587 19.8045 81.7198Z" fill="#016B83"/>
<path d="M19.8649 80.3435L19.8047 81.7217L31.0055 82.1834L31.0657 80.8052L19.8649 80.3435Z" fill="#016B83"/>
<path d="M19.8646 80.3414C19.8314 81.1025 22.3117 81.823 25.4048 81.9507C28.4979 82.0782 31.0322 81.5648 31.0654 80.8034C31.0987 80.0423 28.6184 79.3218 25.5253 79.1943C22.4323 79.0666 19.898 79.5803 19.8646 80.3414Z" fill="#016B83"/>
<path opacity="0.4" d="M19.8646 80.3414C19.8314 81.1025 22.3117 81.823 25.4048 81.9507C28.4979 82.0782 31.0322 81.5648 31.0654 80.8034C31.0987 80.0423 28.6184 79.3218 25.5253 79.1943C22.4323 79.0666 19.898 79.5803 19.8646 80.3414Z" fill="white"/>
<path d="M20.5792 80.3176C20.5773 80.3621 20.595 80.4161 20.6269 80.4531C21.0013 80.0057 23.0493 79.7427 25.4962 79.8439C27.9502 79.9451 29.9675 80.3757 30.2949 80.8523C30.33 80.818 30.3522 80.7656 30.3541 80.7211C30.3766 80.2058 28.209 79.6891 25.5079 79.5775C22.8136 79.4661 20.6019 79.8021 20.5792 80.3176Z" fill="#016B83"/>
<path opacity="0.4" d="M20.5792 80.3176C20.5773 80.3621 20.595 80.4161 20.6269 80.4531C21.0013 80.0057 23.0493 79.7427 25.4962 79.8439C27.9502 79.9451 29.9675 80.3757 30.2949 80.8523C30.33 80.818 30.3522 80.7656 30.3541 80.7211C30.3766 80.2058 28.209 79.6891 25.5079 79.5775C22.8136 79.4661 20.6019 79.8021 20.5792 80.3176Z" fill="#016B83"/>
<path opacity="0.4" d="M20.627 80.4531C20.9611 80.9298 22.9785 81.3603 25.4255 81.4612C27.8793 81.5626 29.927 81.2999 30.2947 80.8521C29.9673 80.3756 27.9501 79.9449 25.496 79.8437C23.0491 79.7429 21.0014 80.0057 20.627 80.4531Z" fill="#016B83"/>
<path d="M19.9569 79.2063C19.9237 79.9672 22.404 80.6877 25.4969 80.8154C28.59 80.9429 31.1243 80.4294 31.1576 79.6683C31.1908 78.9072 28.7107 78.1867 25.6176 78.059C22.5245 77.9315 19.9903 78.4451 19.9569 79.2063Z" fill="#016B83"/>
<path d="M20.0168 77.8274L19.9565 79.2056L31.1573 79.6673L31.2175 78.2891L20.0168 77.8274Z" fill="#016B83"/>
<path d="M20.0169 77.8277C19.9838 78.5888 22.4641 79.3096 25.5572 79.4371C28.6502 79.5646 31.1845 79.0511 31.2177 78.2898C31.2511 77.5286 28.7708 76.8081 25.6777 76.6806C22.5846 76.5529 20.0503 77.0664 20.0169 77.8277Z" fill="#016B83"/>
<path opacity="0.4" d="M20.0169 77.8277C19.9838 78.5888 22.4641 79.3096 25.5572 79.4371C28.6502 79.5646 31.1845 79.0511 31.2177 78.2898C31.2511 77.5286 28.7708 76.8081 25.6777 76.6806C22.5846 76.5529 20.0503 77.0664 20.0169 77.8277Z" fill="white"/>
<path d="M20.7316 77.8041C20.7297 77.8485 20.7473 77.9026 20.7793 77.9395C21.1539 77.4922 23.2016 77.2292 25.6485 77.3302C28.1026 77.4314 30.1198 77.862 30.4472 78.3386C30.4821 78.3043 30.5046 78.2519 30.5065 78.2074C30.5289 77.6919 28.3615 77.1753 25.6603 77.0638C22.966 76.9526 20.7543 77.2886 20.7316 77.8041Z" fill="#016B83"/>
<path opacity="0.4" d="M20.7316 77.8041C20.7297 77.8485 20.7473 77.9026 20.7793 77.9395C21.1539 77.4922 23.2016 77.2292 25.6485 77.3302C28.1026 77.4314 30.1198 77.862 30.4472 78.3386C30.4821 78.3043 30.5046 78.2519 30.5065 78.2074C30.5289 77.6919 28.3615 77.1753 25.6603 77.0638C22.966 76.9526 20.7543 77.2886 20.7316 77.8041Z" fill="#016B83"/>
<path opacity="0.4" d="M20.7793 77.9395C21.1134 78.4162 23.1309 78.8467 25.5778 78.9476C28.0316 79.0488 30.0794 78.7861 30.4473 78.3385C30.1199 77.8619 28.1026 77.4313 25.6486 77.3301C23.2016 77.2291 21.1539 77.4921 20.7793 77.9395Z" fill="#016B83"/>
<path d="M18.7801 77.1192C18.7467 77.8803 21.2272 78.6009 24.3201 78.7286C27.4132 78.8563 29.9475 78.3424 29.9807 77.5815C30.0141 76.8203 27.5335 76.0998 24.4407 75.9721C21.3478 75.8444 18.8135 76.3581 18.7801 77.1192Z" fill="#016B83"/>
<path d="M18.8416 75.7444L18.7812 77.1226L29.982 77.5854L30.0424 76.2072L18.8416 75.7444Z" fill="#016B83"/>
<path d="M18.8402 75.7411C18.8068 76.5022 21.2873 77.2227 24.3804 77.3504C27.4735 77.4779 30.0076 76.9645 30.0409 76.2033C30.0741 75.4422 27.5938 74.7217 24.5009 74.5942C21.4078 74.4665 18.8736 74.98 18.8402 75.7411Z" fill="#016B83"/>
<path opacity="0.4" d="M18.8402 75.7411C18.8068 76.5022 21.2873 77.2227 24.3804 77.3504C27.4735 77.4779 30.0076 76.9645 30.0409 76.2033C30.0741 75.4422 27.5938 74.7217 24.5009 74.5942C21.4078 74.4665 18.8736 74.98 18.8402 75.7411Z" fill="white"/>
<path d="M19.5548 75.7173C19.5529 75.7618 19.5706 75.816 19.6025 75.8528C19.9771 75.4054 22.0248 75.1424 24.4718 75.2436C26.9258 75.3448 28.9431 75.7755 29.2705 76.252C29.3053 76.2177 29.3278 76.1653 29.3297 76.1208C29.3522 75.6055 27.1845 75.0888 24.4833 74.9774C21.7892 74.866 19.5775 75.202 19.5548 75.7173Z" fill="#016B83"/>
<path opacity="0.4" d="M19.5548 75.7173C19.5529 75.7618 19.5706 75.816 19.6025 75.8528C19.9771 75.4054 22.0248 75.1424 24.4718 75.2436C26.9258 75.3448 28.9431 75.7755 29.2705 76.252C29.3053 76.2177 29.3278 76.1653 29.3297 76.1208C29.3522 75.6055 27.1845 75.0888 24.4833 74.9774C21.7892 74.866 19.5775 75.202 19.5548 75.7173Z" fill="#016B83"/>
<path opacity="0.4" d="M19.6025 75.853C19.9366 76.3298 21.9541 76.7602 24.4012 76.8612C26.8551 76.9624 28.9028 76.6999 29.2707 76.2521C28.9431 75.7755 26.9259 75.3451 24.472 75.2437C22.0249 75.1427 19.9772 75.4055 19.6025 75.853Z" fill="#016B83"/>
<path d="M20.577 75.3503C20.5438 76.1112 23.0241 76.8318 26.1172 76.9595C29.2103 77.087 31.7446 76.5735 31.7778 75.8124C31.8109 75.0512 29.3306 74.3307 26.2377 74.203C23.1447 74.0755 20.6104 74.5892 20.577 75.3503Z" fill="#016B83"/>
<path d="M20.6374 73.9729L20.5771 75.3511L31.7779 75.8128L31.8381 74.4346L20.6374 73.9729Z" fill="#016B83"/>
<path d="M20.6371 73.9722C20.6037 74.7333 23.0842 75.454 26.1773 75.5815C29.2704 75.709 31.8046 75.1956 31.8378 74.4342C31.8712 73.6731 29.3909 72.9526 26.2978 72.8251C23.2047 72.6976 20.6704 73.2111 20.6371 73.9722Z" fill="#016B83"/>
<path opacity="0.4" d="M20.6371 73.9722C20.6037 74.7333 23.0842 75.454 26.1773 75.5815C29.2704 75.709 31.8046 75.1956 31.8378 74.4342C31.8712 73.6731 29.3909 72.9526 26.2978 72.8251C23.2047 72.6976 20.6704 73.2111 20.6371 73.9722Z" fill="white"/>
<path d="M21.3517 73.9488C21.3498 73.9934 21.3674 74.0473 21.3994 74.0844C21.774 73.6368 23.8217 73.3741 26.2686 73.4751C28.7227 73.5763 30.74 74.0069 31.0673 74.4834C31.1024 74.4492 31.1247 74.3967 31.1266 74.3523C31.149 73.837 28.9814 73.3202 26.2802 73.2088C23.5861 73.0975 21.3744 73.4335 21.3517 73.9488Z" fill="#016B83"/>
<path opacity="0.4" d="M21.3517 73.9488C21.3498 73.9934 21.3674 74.0473 21.3994 74.0844C21.774 73.6368 23.8217 73.3741 26.2686 73.4751C28.7227 73.5763 30.74 74.0069 31.0673 74.4834C31.1024 74.4492 31.1247 74.3967 31.1266 74.3523C31.149 73.837 28.9814 73.3202 26.2802 73.2088C23.5861 73.0975 21.3744 73.4335 21.3517 73.9488Z" fill="#016B83"/>
<path opacity="0.4" d="M21.3994 74.084C21.7335 74.5608 23.751 74.9912 26.1979 75.0922C28.6518 75.1934 30.6995 74.9306 31.0674 74.483C30.74 74.0065 28.7227 73.576 26.2687 73.4747C23.8218 73.3737 21.7741 73.6364 21.3994 74.084Z" fill="#016B83"/>
<path d="M19.4002 73.2639C19.3668 74.0248 21.8474 74.7455 24.9405 74.873C28.0335 75.0007 30.5678 74.4869 30.601 73.7259C30.6344 72.9648 28.1539 72.2443 25.061 72.1166C21.9679 71.9891 19.4336 72.5028 19.4002 73.2639Z" fill="#016B83"/>
<path d="M19.4596 71.883L19.3994 73.2612L30.6002 73.723L30.6604 72.3448L19.4596 71.883Z" fill="#016B83"/>
<path d="M19.4603 71.8855C19.4269 72.6466 21.9074 73.3671 25.0005 73.4948C28.0936 73.6223 30.6279 73.1089 30.6611 72.3475C30.6942 71.5864 28.2139 70.8659 25.1211 70.7382C22.028 70.6107 19.4937 71.1243 19.4603 71.8855Z" fill="#016B83"/>
<path opacity="0.4" d="M19.4603 71.8855C19.4269 72.6466 21.9074 73.3671 25.0005 73.4948C28.0936 73.6223 30.6279 73.1089 30.6611 72.3475C30.6942 71.5864 28.2139 70.8659 25.1211 70.7382C22.028 70.6107 19.4937 71.1243 19.4603 71.8855Z" fill="white"/>
<path d="M20.1749 71.862C20.1731 71.9066 20.1907 71.9605 20.2226 71.9974C20.5973 71.5501 22.645 71.2871 25.0919 71.3883C27.5459 71.4895 29.5632 71.9201 29.8906 72.3967C29.9255 72.3624 29.9479 72.31 29.9498 72.2655C29.9723 71.75 27.8047 71.2335 25.1034 71.1219C22.4091 71.0107 20.1974 71.3467 20.1749 71.862Z" fill="#016B83"/>
<path opacity="0.4" d="M20.1749 71.862C20.1731 71.9066 20.1907 71.9605 20.2226 71.9974C20.5973 71.5501 22.645 71.2871 25.0919 71.3883C27.5459 71.4895 29.5632 71.9201 29.8906 72.3967C29.9255 72.3624 29.9479 72.31 29.9498 72.2655C29.9723 71.75 27.8047 71.2335 25.1034 71.1219C22.4091 71.0107 20.1974 71.3467 20.1749 71.862Z" fill="#016B83"/>
<path opacity="0.4" d="M20.2227 71.9975C20.5568 72.4743 22.5742 72.9047 25.0214 73.0057C27.4752 73.1069 29.5229 72.8441 29.8908 72.3965C29.5632 71.92 27.546 71.4895 25.0921 71.3882C22.645 71.2874 20.5973 71.5501 20.2227 71.9975Z" fill="#016B83"/>
<path d="M31.7732 71.7827C31.8063 72.5439 29.326 73.2644 26.2331 73.3921C23.1401 73.5196 20.6058 73.0059 20.5726 72.245C20.5392 71.4839 23.0195 70.7631 26.1126 70.6356C29.2055 70.5081 31.74 71.0218 31.7732 71.7827Z" fill="#016B83"/>
<path d="M31.71 70.4059L20.5093 70.8677L20.5695 72.2459L31.7702 71.7841L31.71 70.4059Z" fill="#016B83"/>
<path d="M31.7128 70.4043C31.7462 71.1654 29.2657 71.8862 26.1726 72.0137C23.0795 72.1412 20.5452 71.6277 20.5121 70.8664C20.4787 70.1052 22.9592 69.3847 26.0521 69.2572C29.1454 69.1297 31.6796 69.6432 31.7128 70.4043Z" fill="#016B83"/>
<path opacity="0.4" d="M31.7128 70.4043C31.7462 71.1654 29.2657 71.8862 26.1726 72.0137C23.0795 72.1412 20.5452 71.6277 20.5121 70.8664C20.4787 70.1052 22.9592 69.3847 26.0521 69.2572C29.1454 69.1297 31.6796 69.6432 31.7128 70.4043Z" fill="white"/>
<path d="M30.9982 70.3807C31.0003 70.4253 30.9824 70.4794 30.9505 70.5163C30.5759 70.0688 28.5282 69.806 26.0812 69.907C23.6272 70.0082 21.6099 70.4388 21.2825 70.9153C21.2477 70.8811 21.2252 70.8286 21.2233 70.784C21.2008 70.2687 23.3685 69.7519 26.0697 69.6403C28.764 69.5294 30.9757 69.8654 30.9982 70.3807Z" fill="#016B83"/>
<path opacity="0.4" d="M30.9982 70.3807C31.0003 70.4253 30.9824 70.4794 30.9505 70.5163C30.5759 70.0688 28.5282 69.806 26.0812 69.907C23.6272 70.0082 21.6099 70.4388 21.2825 70.9153C21.2477 70.8811 21.2252 70.8286 21.2233 70.784C21.2008 70.2687 23.3685 69.7519 26.0697 69.6403C28.764 69.5294 30.9757 69.8654 30.9982 70.3807Z" fill="#016B83"/>
<path opacity="0.4" d="M30.9509 70.5161C30.6168 70.9929 28.5993 71.4233 26.1522 71.5243C23.6983 71.6255 21.6506 71.3627 21.2827 70.9152C21.6103 70.4386 23.6276 70.0082 26.0814 69.9068C28.5288 69.8058 30.5765 70.0686 30.9509 70.5161Z" fill="#016B83"/>
<path d="M32.9503 69.6954C32.9835 70.4565 30.5032 71.1768 27.4101 71.3047C24.317 71.4322 21.7827 70.9186 21.7494 70.1576C21.7162 69.3965 24.1965 68.676 27.2894 68.5483C30.3825 68.4206 32.9169 68.9343 32.9503 69.6954Z" fill="#016B83"/>
<path d="M32.8912 68.317L21.6904 68.7788L21.7506 70.157L32.9514 69.6953L32.8912 68.317Z" fill="#016B83"/>
<path d="M32.8901 68.3174C32.9233 69.0785 30.4429 69.799 27.3498 69.9268C24.2568 70.0545 21.7225 69.5408 21.6893 68.7797C21.6559 68.0185 24.1362 67.298 27.2293 67.1703C30.3224 67.0428 32.8567 67.5563 32.8901 68.3174Z" fill="#016B83"/>
<path opacity="0.4" d="M32.8901 68.3174C32.9233 69.0785 30.4429 69.799 27.3498 69.9268C24.2568 70.0545 21.7225 69.5408 21.6893 68.7797C21.6559 68.0185 24.1362 67.298 27.2293 67.1703C30.3224 67.0428 32.8567 67.5563 32.8901 68.3174Z" fill="white"/>
<path d="M32.1754 68.2936C32.1773 68.3381 32.1597 68.3921 32.1278 68.4291C31.7531 67.9815 29.7054 67.7187 27.2585 67.8197C24.8044 67.9209 22.7872 68.3515 22.4598 68.8281C22.4249 68.7938 22.4025 68.7414 22.4006 68.6969C22.3781 68.1816 24.5457 67.6649 27.2467 67.5535C29.9412 67.4423 32.153 67.7783 32.1754 68.2936Z" fill="#016B83"/>
<path opacity="0.4" d="M32.1754 68.2936C32.1773 68.3381 32.1597 68.3921 32.1278 68.4291C31.7531 67.9815 29.7054 67.7187 27.2585 67.8197C24.8044 67.9209 22.7872 68.3515 22.4598 68.8281C22.4249 68.7938 22.4025 68.7414 22.4006 68.6969C22.3781 68.1816 24.5457 67.6649 27.2467 67.5535C29.9412 67.4423 32.153 67.7783 32.1754 68.2936Z" fill="#016B83"/>
<path opacity="0.4" d="M32.1279 68.4292C31.7938 68.906 29.7764 69.3364 27.3294 69.4374C24.8756 69.5386 22.8279 69.276 22.46 68.8282C22.7874 68.3517 24.8046 67.9211 27.2587 67.8199C29.7058 67.7189 31.7535 67.9816 32.1279 68.4292Z" fill="#016B83"/>
<path d="M32.7978 67.1819C32.831 67.943 30.3506 68.6635 27.2578 68.791C24.1647 68.9185 21.6304 68.405 21.597 67.6439C21.5638 66.8828 24.0441 66.1623 27.137 66.0346C30.2301 65.9071 32.7644 66.4207 32.7978 67.1819Z" fill="#016B83"/>
<path d="M32.7364 65.8044L21.5356 66.2661L21.5959 67.6443L32.7966 67.1826L32.7364 65.8044Z" fill="#016B83"/>
<path d="M32.7372 65.8038C32.7704 66.5649 30.2901 67.2854 27.197 67.4131C24.1041 67.5406 21.5696 67.0272 21.5365 66.2658C21.5031 65.5047 23.9834 64.7842 27.0765 64.6567C30.1696 64.529 32.7038 65.0427 32.7372 65.8038Z" fill="#016B83"/>
<path opacity="0.4" d="M32.7372 65.8038C32.7704 66.5649 30.2901 67.2854 27.197 67.4131C24.1041 67.5406 21.5696 67.0272 21.5365 66.2658C21.5031 65.5047 23.9834 64.7842 27.0765 64.6567C30.1696 64.529 32.7038 65.0427 32.7372 65.8038Z" fill="white"/>
<path d="M32.0226 65.7801C32.0247 65.8246 32.0069 65.8787 31.9749 65.9156C31.6003 65.468 29.5526 65.2053 27.1057 65.3063C24.6516 65.4074 22.6343 65.8381 22.307 66.3146C22.2721 66.2804 22.2496 66.2279 22.2477 66.1835C22.2253 65.6679 24.3927 65.1514 27.0939 65.0398C29.7884 64.9287 32.0001 65.2646 32.0226 65.7801Z" fill="#016B83"/>
<path opacity="0.4" d="M32.0226 65.7801C32.0247 65.8246 32.0069 65.8787 31.9749 65.9156C31.6003 65.468 29.5526 65.2053 27.1057 65.3063C24.6516 65.4074 22.6343 65.8381 22.307 66.3146C22.2721 66.2804 22.2496 66.2279 22.2477 66.1835C22.2253 65.6679 24.3927 65.1514 27.0939 65.0398C29.7884 64.9287 32.0001 65.2646 32.0226 65.7801Z" fill="#016B83"/>
<path opacity="0.4" d="M31.9751 65.9155C31.641 66.3923 29.6235 66.8227 27.1766 66.9237C24.7228 67.0249 22.675 66.7621 22.3071 66.3146C22.6345 65.838 24.6518 65.4074 27.1058 65.3062C29.5528 65.2052 31.6005 65.4682 31.9751 65.9155Z" fill="#016B83"/>
<path d="M33.9748 65.0953C34.008 65.8562 31.5277 66.5769 28.4348 66.7046C25.3417 66.8323 22.8074 66.3185 22.7743 65.5575C22.7409 64.7964 25.2214 64.0757 28.3143 63.9482C31.4071 63.8205 33.9414 64.3342 33.9748 65.0953Z" fill="#016B83"/>
<path d="M33.9176 63.7154L22.7168 64.1782L22.7771 65.5564L33.9779 65.0936L33.9176 63.7154Z" fill="#016B83"/>
<path d="M33.9145 63.7169C33.9479 64.478 31.4674 65.1985 28.3743 65.3262C25.2812 65.4539 22.7471 64.9403 22.7137 64.1789C22.6805 63.4178 25.1608 62.6973 28.2537 62.5698C31.3468 62.4421 33.8811 62.9555 33.9145 63.7169Z" fill="#016B83"/>
<path opacity="0.4" d="M33.9145 63.7169C33.9479 64.478 31.4674 65.1985 28.3743 65.3262C25.2812 65.4539 22.7471 64.9403 22.7137 64.1789C22.6805 63.4178 25.1608 62.6973 28.2537 62.5698C31.3468 62.4421 33.8811 62.9555 33.9145 63.7169Z" fill="white"/>
<path d="M33.1998 63.6934C33.2017 63.738 33.1841 63.7921 33.1522 63.8288C32.7777 63.3812 30.7298 63.1185 28.2829 63.2195C25.8288 63.3209 23.8116 63.7513 23.4842 64.2278C23.4493 64.1936 23.4269 64.1411 23.425 64.0965C23.4025 63.5812 25.5701 63.0644 28.2714 62.9528C30.9657 62.8419 33.1774 63.1779 33.1998 63.6934Z" fill="#016B83"/>
<path opacity="0.4" d="M33.1998 63.6934C33.2017 63.738 33.1841 63.7921 33.1522 63.8288C32.7777 63.3812 30.7298 63.1185 28.2829 63.2195C25.8288 63.3209 23.8116 63.7513 23.4842 64.2278C23.4493 64.1936 23.4269 64.1411 23.425 64.0965C23.4025 63.5812 25.5701 63.0644 28.2714 62.9528C30.9657 62.8419 33.1774 63.1779 33.1998 63.6934Z" fill="#016B83"/>
<path opacity="0.4" d="M33.1526 63.8286C32.8185 64.3054 30.801 64.7358 28.3539 64.8368C25.9 64.938 23.8523 64.6752 23.4844 64.2277C23.812 63.7511 25.8292 63.3207 28.2831 63.2193C30.7302 63.1183 32.7779 63.3811 33.1526 63.8286Z" fill="#016B83"/>
<path d="M32.1774 63.3264C32.2106 64.0873 29.7303 64.808 26.6372 64.9355C23.5441 65.063 21.0098 64.5496 20.9764 63.7884C20.9432 63.0273 23.4235 62.3068 26.5164 62.1791C29.6097 62.0516 32.144 62.5653 32.1774 63.3264Z" fill="#016B83"/>
<path d="M32.1173 61.9484L20.9165 62.4102L20.9767 63.7886L32.1775 63.3268L32.1173 61.9484Z" fill="#016B83"/>
<path d="M32.1171 61.9483C32.1503 62.7094 29.67 63.4301 26.5769 63.5576C23.4838 63.6851 20.9495 63.1716 20.9163 62.4103C20.883 61.6492 23.3635 60.9287 26.4564 60.8012C29.5494 60.6737 32.0837 61.1873 32.1171 61.9483Z" fill="#016B83"/>
<path opacity="0.4" d="M32.1171 61.9483C32.1503 62.7094 29.67 63.4301 26.5769 63.5576C23.4838 63.6851 20.9495 63.1716 20.9163 62.4103C20.883 61.6492 23.3635 60.9287 26.4564 60.8012C29.5494 60.6737 32.0837 61.1873 32.1171 61.9483Z" fill="white"/>
<path d="M31.4025 61.925C31.4044 61.9697 31.3867 62.0238 31.3548 62.0607C30.9804 61.6131 28.9325 61.3504 26.4855 61.4513C24.0315 61.5527 22.0142 61.9832 21.6868 62.4597C21.6518 62.4254 21.6295 62.373 21.6276 62.3285C21.6051 61.813 23.7728 61.2965 26.474 61.1849C29.1683 61.0735 31.38 61.4095 31.4025 61.925Z" fill="#016B83"/>
<path opacity="0.4" d="M31.4025 61.925C31.4044 61.9697 31.3867 62.0238 31.3548 62.0607C30.9804 61.6131 28.9325 61.3504 26.4855 61.4513C24.0315 61.5527 22.0142 61.9832 21.6868 62.4597C21.6518 62.4254 21.6295 62.373 21.6276 62.3285C21.6051 61.813 23.7728 61.2965 26.474 61.1849C29.1683 61.0735 31.38 61.4095 31.4025 61.925Z" fill="#016B83"/>
<path opacity="0.4" d="M31.355 62.0601C31.0209 62.5368 29.0034 62.9673 26.5565 63.0682C24.1026 63.1694 22.0549 62.9067 21.687 62.4591C22.0144 61.9825 24.0317 61.5521 26.4857 61.4507C28.9329 61.3497 30.9806 61.6127 31.355 62.0601Z" fill="#016B83"/>
<path d="M33.3544 61.2398C33.3878 62.0007 30.9073 62.7215 27.8142 62.8492C24.7211 62.9767 22.1868 62.463 22.1537 61.7021C22.1203 60.941 24.6008 60.2202 27.6937 60.0927C30.7868 59.965 33.321 60.4785 33.3544 61.2398Z" fill="#016B83"/>
<path d="M33.2916 59.8629L22.0908 60.3247L22.151 61.7029L33.3518 61.2412L33.2916 59.8629Z" fill="#016B83"/>
<path d="M33.2944 59.8613C33.3278 60.6225 30.8472 61.343 27.7541 61.4707C24.6611 61.5984 22.1268 61.0847 22.0936 60.3236C22.0602 59.5625 24.5405 58.842 27.6336 58.7143C30.7267 58.5868 33.261 59.1002 33.2944 59.8613Z" fill="#016B83"/>
<path opacity="0.4" d="M33.2944 59.8613C33.3278 60.6225 30.8472 61.343 27.7541 61.4707C24.6611 61.5984 22.1268 61.0847 22.0936 60.3236C22.0602 59.5625 24.5405 58.842 27.6336 58.7143C30.7267 58.5868 33.261 59.1002 33.2944 59.8613Z" fill="white"/>
<path d="M32.5797 59.8378C32.5816 59.8824 32.564 59.9363 32.5321 59.9732C32.1574 59.5258 30.1097 59.2629 27.6628 59.3639C25.2087 59.4651 23.1917 59.8957 22.8641 60.3723C22.8292 60.338 22.8068 60.2855 22.8049 60.2411C22.7824 59.7256 24.95 59.209 27.6512 59.0974C30.3455 58.9863 32.5573 59.3223 32.5797 59.8378Z" fill="#016B83"/>
<path opacity="0.4" d="M32.5797 59.8378C32.5816 59.8824 32.564 59.9363 32.5321 59.9732C32.1574 59.5258 30.1097 59.2629 27.6628 59.3639C25.2087 59.4651 23.1917 59.8957 22.8641 60.3723C22.8292 60.338 22.8068 60.2855 22.8049 60.2411C22.7824 59.7256 24.95 59.209 27.6512 59.0974C30.3455 58.9863 32.5573 59.3223 32.5797 59.8378Z" fill="#016B83"/>
<path opacity="0.4" d="M32.532 59.9732C32.1978 60.4499 30.1804 60.8804 27.7332 60.9813C25.2794 61.0825 23.2317 60.8198 22.8638 60.3722C23.1914 59.8956 25.2084 59.465 27.6625 59.3638C30.1096 59.2628 32.1573 59.5256 32.532 59.9732Z" fill="#016B83"/>
<path d="M46.0036 52.448H18.4172L16.4121 15.2798H43.9986L46.0036 52.448Z" fill="#016B83"/>
<g opacity="0.6">
<path d="M46.0036 52.448H18.4172L16.4121 15.2798H43.9986L46.0036 52.448Z" fill="white"/>
</g>
<path d="M32.0195 40.0527H20.8817C20.7362 40.0527 20.6244 40.1672 20.6322 40.3086C20.6398 40.4497 20.7639 40.5644 20.9094 40.5644H32.0472C32.1927 40.5644 32.3044 40.4499 32.2967 40.3086C32.2889 40.1674 32.1648 40.0527 32.0195 40.0527Z" fill="#263238"/>
<path d="M29.1921 38.0874H20.7757C20.6302 38.0874 20.5185 38.2018 20.5263 38.3432C20.5338 38.4846 20.6579 38.599 20.8035 38.599H29.2198C29.3654 38.599 29.4771 38.4844 29.4693 38.3432C29.4618 38.202 29.3377 38.0874 29.1921 38.0874Z" fill="#263238"/>
<path d="M32.2748 44.7886H21.1371C20.9915 44.7886 20.8798 44.903 20.8876 45.0444C20.8951 45.1858 21.0193 45.3002 21.1648 45.3002H32.3026C32.4481 45.3002 32.5598 45.1858 32.552 45.0444C32.5445 44.903 32.4204 44.7886 32.2748 44.7886Z" fill="#263238"/>
<path d="M29.4475 42.8232H21.0311C20.8858 42.8232 20.7741 42.9377 20.7816 43.0791C20.7892 43.2202 20.9133 43.3349 21.0588 43.3349H29.4752C29.6207 43.3349 29.7324 43.2204 29.7247 43.0791C29.7169 42.9377 29.5928 42.8232 29.4475 42.8232Z" fill="#263238"/>
<path d="M32.5307 49.5239H21.3929C21.2474 49.5239 21.1357 49.6384 21.1434 49.7797C21.151 49.9211 21.2751 50.0356 21.4206 50.0356H32.5584C32.7039 50.0356 32.8157 49.9211 32.8079 49.7797C32.8001 49.6384 32.676 49.5239 32.5307 49.5239Z" fill="#263238"/>
<path d="M29.7033 47.5586H21.287C21.1416 47.5586 21.0299 47.673 21.0375 47.8144C21.045 47.9558 21.1691 48.0702 21.3147 48.0702H29.7311C29.8766 48.0702 29.9883 47.9558 29.9805 47.8144C29.9728 47.6732 29.8486 47.5586 29.7033 47.5586Z" fill="#263238"/>
<path d="M42.383 40.1916H40.3599C40.2809 40.1916 40.2133 40.1294 40.2093 40.0525L40.1032 38.0872C40.099 38.0103 40.1597 37.9482 40.2389 37.9482H42.262C42.341 37.9482 42.4086 38.0105 42.4126 38.0872L42.5187 40.0525C42.5229 40.1294 42.4622 40.1916 42.383 40.1916ZM40.4882 39.9136H42.2251L42.1341 38.2265H40.3972L40.4882 39.9136Z" fill="#016B83"/>
<path d="M42.6525 45.183H40.6294C40.5504 45.183 40.483 45.1208 40.4788 45.0439L40.3728 43.0786C40.3686 43.0017 40.4295 42.9395 40.5084 42.9395H42.5316C42.6105 42.9395 42.6781 43.0017 42.6821 43.0786L42.7882 45.0439C42.7922 45.1208 42.7315 45.183 42.6525 45.183ZM40.7575 44.905H42.4944L42.4033 43.2177H40.6663L40.7575 44.905Z" fill="#016B83"/>
<path d="M42.9079 49.9189H40.8848C40.8058 49.9189 40.7384 49.8567 40.7342 49.7798L40.6281 47.8144C40.6239 47.7375 40.6848 47.6753 40.7638 47.6753H42.7869C42.8659 47.6753 42.9333 47.7375 42.9375 47.8144L43.0436 49.7798C43.0478 49.8567 42.9871 49.9189 42.9079 49.9189ZM41.0131 49.6408H42.75L42.659 47.9538H40.9221L41.0131 49.6408Z" fill="#016B83"/>
<path d="M36.5035 31.7866H27.1705L26.6108 21.4126H35.9439L36.5035 31.7866Z" fill="white"/>
<path d="M41.3429 39.6699C41.3406 39.6699 41.3382 39.6699 41.3359 39.6697C41.2549 39.6679 41.1768 39.6328 41.1207 39.5732L40.5682 38.9853C40.4588 38.8688 40.463 38.6932 40.5774 38.5932C40.6919 38.493 40.8733 38.5061 40.9827 38.6226L41.316 38.9771L42.5724 37.6146C42.6751 37.5032 42.8561 37.4983 42.9765 37.6042C43.097 37.7099 43.1113 37.8857 43.0084 37.9973L41.5459 39.5832C41.4949 39.6385 41.4214 39.6699 41.3429 39.6699Z" fill="#FF8926"/>
<path d="M41.6114 44.6521C41.6091 44.6521 41.6068 44.6521 41.6045 44.6519C41.5234 44.6501 41.4453 44.615 41.3893 44.5554L40.8368 43.9677C40.7273 43.8514 40.7315 43.6756 40.8458 43.5756C40.9602 43.4755 41.1417 43.4885 41.2511 43.605L41.5841 43.9595L42.8408 42.597C42.9435 42.4856 43.1245 42.4807 43.2448 42.5866C43.3654 42.6923 43.3796 42.8681 43.2767 42.9797L41.8143 44.5656C41.7635 44.6209 41.69 44.6521 41.6114 44.6521Z" fill="#FF8926"/>
<path d="M41.8712 49.4605C41.8689 49.4605 41.8666 49.4605 41.8643 49.4603C41.7832 49.4585 41.7051 49.4234 41.649 49.3638L41.0965 48.7761C40.9871 48.6598 40.9913 48.484 41.1055 48.384C41.22 48.2838 41.4014 48.2969 41.5108 48.4134L41.8439 48.7679L43.1005 47.4056C43.2032 47.2942 43.3843 47.2893 43.5046 47.3952C43.6251 47.5009 43.6394 47.6769 43.5365 47.7883L42.0741 49.374C42.023 49.4293 41.9495 49.4605 41.8712 49.4605Z" fill="#FF8926"/>
<path d="M36.3126 33.1318H27.5062C27.3607 33.1318 27.249 33.2463 27.2567 33.3877C27.2643 33.529 27.3884 33.6435 27.5339 33.6435H36.3403C36.4858 33.6435 36.5975 33.529 36.5898 33.3877C36.5822 33.2463 36.4581 33.1318 36.3126 33.1318Z" fill="#263238"/>
<path d="M31.7382 34.8389H27.5985C27.4532 34.8389 27.3414 34.9533 27.349 35.0947C27.3566 35.2359 27.4807 35.3505 27.6262 35.3505H31.7661C31.9117 35.3505 32.0234 35.2361 32.0156 35.0947C32.0078 34.9535 31.8837 34.8389 31.7382 34.8389Z" fill="#263238"/>
<path d="M36.6537 17.8491H25.516C25.3704 17.8491 25.2587 17.9638 25.2665 18.1049C25.2741 18.2463 25.3982 18.3608 25.5437 18.3608H36.6815C36.827 18.3608 36.9387 18.2463 36.9309 18.1049C36.9232 17.9638 36.7993 17.8491 36.6537 17.8491Z" fill="#263238"/>
<path d="M32.952 27.8215C33.667 27.1085 33.6196 25.9371 32.8462 25.2052C32.0728 24.4732 30.8661 24.4579 30.1511 25.1709C29.4361 25.8839 29.4834 27.0553 30.2569 27.7872C31.0303 28.5191 32.237 28.5345 32.952 27.8215Z" fill="#016B83"/>
<path d="M35.3135 31.7872H28.3589C28.2881 29.9437 29.7552 28.46 31.6574 28.46C32.6177 28.46 33.5083 28.8382 34.1696 29.45C34.8204 30.0508 35.2513 30.8737 35.3135 31.7872Z" fill="#016B83"/>
</svg>
