<svg width="401" height="312" viewBox="0 0 401 312" fill="none" xmlns="http://www.w3.org/2000/svg">
<g clip-path="url(#clip0_10048_113227)">
<path d="M360.245 271.117H333.748V271.311H360.245V271.117Z" fill="#EBEBEB"/>
<path d="M265.304 273.227H258.35V273.421H265.304V273.227Z" fill="#EBEBEB"/>
<path d="M332.949 263.922H317.595V264.116H332.949V263.922Z" fill="#EBEBEB"/>
<path d="M76.8449 265.227H42.2905V265.421H76.8449V265.227Z" fill="#EBEBEB"/>
<path d="M89.0361 265.227H83.9697V265.421H89.0361V265.227Z" fill="#EBEBEB"/>
<path d="M180.443 268.5H105.502V268.694H180.443V268.5Z" fill="#EBEBEB"/>
<path d="M191.046 224.066H36.5664C34.0488 224.066 32 222.08 32 219.64V9.20651C32 6.76672 34.0488 4.78125 36.5664 4.78125H191.046C193.562 4.78125 195.611 6.76672 195.611 9.20651V219.64C195.611 222.08 193.562 224.066 191.046 224.066ZM36.5664 4.97584C34.1584 4.97584 32.2 6.87371 32.2 9.20728V219.641C32.2 221.975 34.1584 223.873 36.5664 223.873H191.046C193.453 223.873 195.411 221.975 195.411 219.641V9.20651C195.411 6.87371 193.453 4.97507 191.046 4.97507L36.5664 4.97584Z" fill="#EBEBEB"/>
<path d="M364.085 224.066H209.606C207.089 224.066 205.04 222.08 205.04 219.64V9.20651C205.04 6.76672 207.089 4.78125 209.606 4.78125H364.085C366.603 4.78125 368.651 6.76672 368.651 9.20651V219.64C368.651 222.08 366.602 224.066 364.085 224.066ZM209.606 4.97584C207.198 4.97584 205.24 6.87371 205.24 9.20728V219.641C205.24 221.975 207.198 223.873 209.606 223.873H364.085C366.493 223.873 368.451 221.975 368.451 219.641V9.20651C368.451 6.87371 366.493 4.97507 364.085 4.97507L209.606 4.97584Z" fill="#EBEBEB"/>
<path d="M400.325 258.641H0.324707V258.835H400.325V258.641Z" fill="#EBEBEB"/>
<path d="M163.458 17.5078H106.455V204.9H163.458V17.5078Z" fill="#FAFAFA"/>
<path opacity="0.1" d="M163.347 17.5078H106.344V204.9H163.347V17.5078Z" fill="white"/>
<g opacity="0.3">
<path d="M157.769 17.5078H139.594L119.713 204.9H137.886L157.769 17.5078Z" fill="white"/>
</g>
<path d="M163.941 15.1328H105.983V19.8852H163.941V15.1328Z" fill="#E0E0E0"/>
<path d="M163.941 203.266H105.983V208.018H163.941V203.266Z" fill="#EBEBEB"/>
<path d="M166.191 212.066H103.357V10.4922H166.191V212.066ZM108.147 207.425H161.401V15.1337H108.147V207.425Z" fill="#EBEBEB"/>
<path d="M101.365 17.5078H44.3613V204.9H101.365V17.5078Z" fill="#FAFAFA"/>
<path d="M92.769 96.8672H48.6514V132.745H92.769V96.8672Z" fill="#E6E6E6"/>
<path d="M57.1293 101.336H51.4805V106.81H57.1293V101.336Z" fill="#FAFAFA"/>
<path d="M68.066 101.336H62.418V106.81H68.066V101.336Z" fill="#FAFAFA"/>
<path d="M79.0035 101.336H73.3555V106.81H79.0035V101.336Z" fill="#FAFAFA"/>
<path d="M89.9418 101.336H84.293V106.81H89.9418V101.336Z" fill="#FAFAFA"/>
<path d="M57.1293 111.281H51.4805V116.755H57.1293V111.281Z" fill="#FAFAFA"/>
<path d="M68.066 111.281H62.418V116.755H68.066V111.281Z" fill="#FAFAFA"/>
<path d="M79.0035 111.281H73.3555V116.755H79.0035V111.281Z" fill="#FAFAFA"/>
<path d="M89.9418 111.281H84.293V116.755H89.9418V111.281Z" fill="#E6E6E6"/>
<path d="M57.1293 121.227H51.4805V126.7H57.1293V121.227Z" fill="#E6E6E6"/>
<path d="M68.066 121.227H62.418V126.7H68.066V121.227Z" fill="#E6E6E6"/>
<path d="M79.0035 121.227H73.3555V126.7H79.0035V121.227Z" fill="#FAFAFA"/>
<path d="M89.9418 121.227H84.293V126.7H89.9418V121.227Z" fill="#E6E6E6"/>
<path d="M92.769 132.289H48.6514V168.167H92.769V132.289Z" fill="#E6E6E6"/>
<path d="M57.1293 136.758H51.4805V142.232H57.1293V136.758Z" fill="#FAFAFA"/>
<path d="M68.066 136.758H62.418V142.232H68.066V136.758Z" fill="#FAFAFA"/>
<path d="M79.0035 136.758H73.3555V142.232H79.0035V136.758Z" fill="#FAFAFA"/>
<path d="M89.9418 136.758H84.293V142.232H89.9418V136.758Z" fill="#FAFAFA"/>
<path d="M57.1293 146.703H51.4805V152.177H57.1293V146.703Z" fill="#FAFAFA"/>
<path d="M68.066 146.703H62.418V152.177H68.066V146.703Z" fill="#FAFAFA"/>
<path d="M79.0035 146.703H73.3555V152.177H79.0035V146.703Z" fill="#FAFAFA"/>
<path d="M89.9418 146.703H84.293V152.177H89.9418V146.703Z" fill="#E6E6E6"/>
<path d="M57.1293 156.648H51.4805V162.123H57.1293V156.648Z" fill="#E6E6E6"/>
<path d="M68.066 156.648H62.418V162.123H68.066V156.648Z" fill="#E6E6E6"/>
<path d="M79.0035 156.648H73.3555V162.123H79.0035V156.648Z" fill="#FAFAFA"/>
<path d="M89.9418 156.648H84.293V162.123H89.9418V156.648Z" fill="#E6E6E6"/>
<path d="M92.769 167.719H48.6514V203.597H92.769V167.719Z" fill="#E6E6E6"/>
<path d="M57.1293 172.188H51.4805V177.662H57.1293V172.188Z" fill="#FAFAFA"/>
<path d="M68.066 172.188H62.418V177.662H68.066V172.188Z" fill="#FAFAFA"/>
<path d="M79.0035 172.188H73.3555V177.662H79.0035V172.188Z" fill="#FAFAFA"/>
<path d="M89.9418 172.188H84.293V177.662H89.9418V172.188Z" fill="#FAFAFA"/>
<path d="M57.1293 182.133H51.4805V187.607H57.1293V182.133Z" fill="#FAFAFA"/>
<path d="M68.066 182.133H62.418V187.607H68.066V182.133Z" fill="#FAFAFA"/>
<path d="M79.0035 182.133H73.3555V187.607H79.0035V182.133Z" fill="#FAFAFA"/>
<path d="M89.9418 182.133H84.293V187.607H89.9418V182.133Z" fill="#E6E6E6"/>
<path d="M57.1293 192.078H51.4805V197.552H57.1293V192.078Z" fill="#E6E6E6"/>
<path d="M68.066 192.078H62.418V197.552H68.066V192.078Z" fill="#E6E6E6"/>
<path d="M79.0035 192.078H73.3555V197.552H79.0035V192.078Z" fill="#FAFAFA"/>
<path d="M89.9418 192.078H84.293V197.552H89.9418V192.078Z" fill="#E6E6E6"/>
<path opacity="0.1" d="M100.607 17.5078H43.6035V204.9H100.607V17.5078Z" fill="white"/>
<g opacity="0.3">
<path d="M95.6756 17.5078H77.502L57.6196 204.9H75.7932L95.6756 17.5078Z" fill="white"/>
</g>
<path d="M101.848 15.1328H43.8901V19.8852H101.848V15.1328Z" fill="#E0E0E0"/>
<path d="M101.848 203.266H43.8901V208.018H101.848V203.266Z" fill="#EBEBEB"/>
<path d="M104.098 212.066H41.2642V10.4922H104.098V212.066ZM46.0546 207.425H99.3082V15.1337H46.0546V207.425Z" fill="#EBEBEB"/>
<path d="M189.415 237.101L188.774 237.178C188.734 236.862 184.846 205.324 192.868 179.55C200.842 153.935 195.351 137.612 195.294 137.451L195.906 137.25C195.963 137.414 201.518 153.926 193.486 179.732C185.504 205.376 189.375 236.786 189.415 237.101Z" fill="#FFD7B6"/>
<path d="M196.438 140.963C195.054 139.359 193.135 138.212 191.033 137.734L191.18 137.125C193.417 137.633 195.46 138.854 196.934 140.563L196.438 140.963Z" fill="#FFD7B6"/>
<path d="M199.169 143.59L197.32 144.602L197.638 145.147L199.487 144.135L199.169 143.59Z" fill="#FFD7B6"/>
<path d="M195.741 158.116C194.153 154.585 191.125 151.739 187.437 150.307L187.677 149.727C191.522 151.22 194.677 154.186 196.334 157.866L195.741 158.116Z" fill="#FFD7B6"/>
<path d="M194.013 177.818L193.367 177.826C193.335 175.281 192.086 172.819 190.025 171.241L190.426 170.75C192.637 172.444 193.978 175.086 194.013 177.818Z" fill="#FFD7B6"/>
<path d="M192.569 182.852L191.967 182.622C192.614 181.029 193.988 179.716 195.64 179.109L195.869 179.695C194.385 180.24 193.151 181.42 192.569 182.852Z" fill="#FFD7B6"/>
<path d="M188.386 214.824L187.89 214.425C188.675 213.506 189.27 210.011 189.589 208.132C189.665 207.683 189.73 207.3 189.785 207.023L190.419 207.14C190.366 207.413 190.302 207.79 190.226 208.233C189.749 211.038 189.214 213.857 188.386 214.824Z" fill="#FFD7B6"/>
<path d="M188.011 224.857C187.177 222.385 184.527 220.612 181.846 220.733L181.815 220.108C184.776 219.974 187.703 221.932 188.624 224.663L188.011 224.857Z" fill="#FFD7B6"/>
<path d="M192.931 231.393L188.38 236.328L188.861 236.745L193.412 231.81L192.931 231.393Z" fill="#FFD7B6"/>
<path d="M196.162 199.223C197.194 202.459 190 208.617 190 208.617C190 208.617 180.475 207.463 179.444 204.229C178.413 200.993 180.825 195.7 185.442 194.318C190.058 192.935 195.131 195.988 196.162 199.223Z" fill="#FFD7B6"/>
<path d="M204.145 159.956C203.232 163.392 196.42 165.832 196.42 165.832C196.42 165.832 191.67 160.506 192.583 157.071C193.496 153.635 197.261 149.85 200.454 150.647C203.647 151.443 205.058 156.52 204.145 159.956Z" fill="#FF8926"/>
<path d="M176.812 211.306C181.089 212.92 183.712 220.251 183.712 220.251C183.712 220.251 176.664 223.935 172.386 222.321C168.108 220.707 163.58 216.158 164.803 213.117C166.025 210.075 172.534 209.691 176.812 211.306Z" fill="#FFD7B6"/>
<path d="M186.191 170.966C187.095 171.616 188.028 172.28 189.115 172.566C190.201 172.852 191.494 172.677 192.232 171.853C193.147 170.832 192.902 169.25 192.326 168.018C191.183 165.578 186.967 161.435 183.73 162.624C179.055 164.339 184.107 169.467 186.191 170.966Z" fill="#FF8926"/>
<path d="M195.761 177.186C195.148 177.922 194.497 178.85 194.832 179.739C195.13 180.528 196.129 180.889 196.986 180.763C197.842 180.638 198.587 180.145 199.298 179.667C200.949 178.557 204.331 176.227 202.172 174.048C199.928 171.783 197.054 175.633 195.761 177.186Z" fill="#FF8926"/>
<path d="M181.952 146.177C181.246 146.252 180.53 146.71 180.41 147.389C180.27 148.182 180.949 148.876 181.606 149.367C183.245 150.591 188.17 153.893 189.269 150.708C190.307 147.697 184.129 145.944 181.952 146.177Z" fill="#FFD7B6"/>
<path d="M191.031 135.693C190.015 135.786 189.001 135.429 187.983 135.492C186.964 135.555 185.834 136.349 186.061 137.313C186.27 138.205 187.413 138.503 188.355 138.56C189.961 138.658 191.581 138.55 193.157 138.239C193.524 138.167 193.922 138.061 194.132 137.762C194.544 137.174 193.889 136.386 193.188 136.178C192.487 135.969 191.696 136.039 191.06 135.686L191.031 135.693Z" fill="#FF8926"/>
<path d="M200.957 142.466C201.977 142.494 202.964 142.073 203.985 142.07C205.005 142.067 206.187 142.787 206.027 143.764C205.879 144.667 204.758 145.038 203.823 145.155C202.227 145.355 200.604 145.351 199.009 145.141C198.638 145.092 198.233 145.013 198.004 144.728C197.553 144.167 198.153 143.34 198.838 143.087C199.523 142.835 200.317 142.853 200.929 142.461L200.957 142.466Z" fill="#FFD7B6"/>
<path d="M199.954 215.314C200.206 215.108 200.492 214.896 200.822 214.898C201.259 214.902 201.607 215.302 201.688 215.718C201.77 216.134 201.649 216.561 201.524 216.966C200.833 219.208 193.068 235.447 191.282 232.531C190.226 230.807 192.822 225.097 193.587 223.482C195.067 220.357 197.242 217.535 199.954 215.314Z" fill="#FFD7B6"/>
<path d="M195.314 136.309C195.93 134.969 196.597 133.566 197.821 132.704C199.046 131.841 201.008 131.776 201.9 132.962C202.896 134.287 201.9 136.302 200.372 137.009C198.844 137.716 197.054 137.503 195.377 137.275C195.364 137.034 195.35 136.793 195.336 136.551L195.314 136.309Z" fill="#FF8926"/>
<path d="M200.741 258.763C192.483 260.127 183.878 260.127 175.62 258.763L165.848 230.82H210.512L200.741 258.763Z" fill="#FFD7B6"/>
<path d="M352.775 109.64C352.618 109.621 352.443 109.568 352.268 109.515C348.983 108.457 343.99 103.487 339.739 96.7225C335.487 89.9412 333.234 83.3521 333.783 80.0262V80.0092C333.896 79.3479 334.113 78.84 334.451 78.4695C334.468 78.4354 334.487 78.4191 334.504 78.402C334.629 78.2671 334.753 78.1493 334.912 78.0663C335.089 77.9663 335.265 77.9004 335.441 77.8508C335.934 77.7376 336.512 77.7779 337.159 77.9896C337.771 78.1671 338.451 78.4974 339.165 78.9478C339.635 79.2424 340.122 79.5874 340.626 79.9844C340.904 80.2092 341.199 80.4503 341.495 80.7085C344.134 82.9994 347.091 86.5525 349.776 90.8172C352.444 95.0642 354.323 99.2173 355.213 102.56C355.314 102.936 355.397 103.311 355.48 103.668C355.63 104.35 355.727 104.963 355.774 105.542C355.851 106.359 355.825 107.073 355.695 107.666C355.564 108.345 355.312 108.869 354.923 109.204C354.834 109.305 354.727 109.39 354.604 109.456C354.498 109.523 354.375 109.573 354.251 109.605C353.827 109.754 353.335 109.766 352.775 109.64Z" fill="#016B83"/>
<path d="M352.776 109.641L352.501 109.213L343.31 94.5546C343.069 94.1608 342.828 93.784 342.604 93.4072L334.016 79.7244V79.7073C334.092 79.2151 334.237 78.8088 334.452 78.4708C334.524 78.3359 334.63 78.2173 334.736 78.1002L335.673 77.5498L338.483 75.8984L339.756 77.9188L339.98 78.2785L340.858 79.6825L341.495 80.7098L355.212 102.562L355.712 103.366L356.676 104.908L356.9 105.267L358.173 107.288L354.922 109.206L354.251 109.607C353.828 109.755 353.336 109.767 352.776 109.641Z" fill="#016B83"/>
<path d="M338.487 75.9036C335.716 77.5347 337.874 85.886 343.309 94.5559C348.743 103.225 355.396 108.93 358.168 107.298C360.939 105.666 358.781 97.3158 353.347 88.6467C347.911 79.9769 341.259 74.2716 338.487 75.9036Z" fill="#016B83"/>
<path d="M338.487 75.9036C335.716 77.5347 337.874 85.886 343.309 94.5559C348.743 103.225 355.396 108.93 358.168 107.298C360.939 105.666 358.781 97.3158 353.347 88.6467C347.911 79.9769 341.259 74.2716 338.487 75.9036Z" fill="#67A6B5"/>
<path d="M339.927 77.788C339.765 77.8834 339.606 78.0539 339.535 78.2237C341.841 78.226 346.674 83.18 350.974 90.0389C355.286 96.9171 357.594 103.357 356.522 105.323C356.71 105.34 356.939 105.282 357.102 105.186C358.978 104.081 356.69 97.0388 351.943 89.4675C347.21 81.9156 341.804 76.6825 339.927 77.788Z" fill="#016B83"/>
<path opacity="0.4" d="M339.927 77.788C339.765 77.8834 339.606 78.0539 339.535 78.2237C341.841 78.226 346.674 83.18 350.974 90.0389C355.286 96.9171 357.594 103.357 356.522 105.323C356.71 105.34 356.939 105.282 357.102 105.186C358.978 104.081 356.69 97.0388 351.943 89.4675C347.21 81.9156 341.804 76.6825 339.927 77.788Z" fill="#016B83"/>
<path d="M305.154 34.3851C305.122 34.4859 305.064 34.5944 305.006 34.7029C303.875 36.7303 299.808 39.4081 294.579 41.3866C289.337 43.3627 284.469 44.0519 282.213 43.2937L282.201 43.2914C281.753 43.1379 281.424 42.9356 281.207 42.6696C281.185 42.6541 281.176 42.6402 281.166 42.6262C281.087 42.5285 281.02 42.4332 280.98 42.3192C280.932 42.1913 280.907 42.068 280.893 41.9471C280.873 41.6106 280.971 41.2362 281.196 40.8377C281.392 40.4578 281.704 40.0515 282.104 39.6375C282.366 39.3647 282.665 39.0863 283.003 38.8034C283.192 38.6483 283.396 38.4832 283.612 38.3204C285.527 36.8644 288.36 35.3511 291.658 34.1006C294.941 32.8593 298.065 32.1244 300.504 31.9414C300.778 31.9205 301.05 31.9104 301.31 31.8988C301.804 31.8817 302.244 31.891 302.653 31.9306C303.232 31.9771 303.728 32.0794 304.127 32.236C304.584 32.4027 304.92 32.6306 305.108 32.9268C305.168 32.9973 305.214 33.0772 305.246 33.1656C305.28 33.2431 305.3 33.3299 305.308 33.4144C305.36 33.7098 305.308 34.0331 305.154 34.3851Z" fill="#016B83"/>
<path d="M305.152 34.3885L304.82 34.518L293.49 38.7898C293.186 38.9006 292.894 39.013 292.605 39.1146L282.028 43.1088L282.016 43.1065C281.682 42.9979 281.415 42.8537 281.206 42.6731C281.12 42.6103 281.05 42.5258 280.981 42.4421L280.709 41.7622L279.892 39.7232L281.454 39.1301L281.732 39.0262L282.817 38.6192L283.61 38.3246L300.502 31.9456L301.124 31.7146L302.315 31.2673L302.592 31.1634L304.154 30.5703L305.105 32.931L305.304 33.4194C305.358 33.7133 305.306 34.0366 305.152 34.3885Z" fill="#016B83"/>
<path d="M279.898 39.7173C280.705 41.7292 286.792 41.3129 293.493 38.787C300.194 36.2612 304.972 32.5825 304.164 30.5707C303.356 28.5588 297.269 28.9752 290.569 31.501C283.868 34.0268 279.091 37.7055 279.898 39.7173Z" fill="#016B83"/>
<path d="M279.898 39.7173C280.705 41.7292 286.792 41.3129 293.493 38.787C300.194 36.2612 304.972 32.5825 304.164 30.5707C303.356 28.5588 297.269 28.9752 290.569 31.501C283.868 34.0268 279.091 37.7055 279.898 39.7173Z" fill="#67A6B5"/>
<path d="M281.381 38.9952C281.428 39.113 281.529 39.237 281.638 39.3037C281.916 37.7927 285.952 35.2172 291.253 33.2186C296.569 31.2145 301.34 30.471 302.584 31.4091C302.618 31.2874 302.605 31.1308 302.558 31.0129C302.011 29.6508 296.822 30.3082 290.97 32.5146C285.134 34.7141 280.835 37.6322 281.381 38.9952Z" fill="#016B83"/>
<path opacity="0.4" d="M281.381 38.9952C281.428 39.113 281.529 39.237 281.638 39.3037C281.916 37.7927 285.952 35.2172 291.253 33.2186C296.569 31.2145 301.34 30.471 302.584 31.4091C302.618 31.2874 302.605 31.1308 302.558 31.0129C302.011 29.6508 296.822 30.3082 290.97 32.5146C285.134 34.7141 280.835 37.6322 281.381 38.9952Z" fill="#016B83"/>
<path d="M281.64 39.3038C282.898 40.2357 287.669 39.4922 292.97 37.4943C298.286 35.491 302.322 32.9148 302.585 31.41C301.341 30.4719 296.571 31.2154 291.254 33.2194C285.952 35.2173 281.917 37.7928 281.64 39.3038Z" fill="#67A6B5"/>
<path d="M306.08 141.395C300.84 132.825 303.762 121.763 312.605 116.686C321.448 111.608 332.864 114.44 338.103 123.01C343.342 131.579 340.42 142.642 331.577 147.719C322.734 152.796 311.318 149.964 306.08 141.395Z" fill="#016B83"/>
<path d="M304.156 142.497C298.918 133.928 301.839 122.864 310.683 117.787C319.526 112.71 330.941 115.542 336.18 124.111C341.419 132.681 338.497 143.743 329.655 148.821C320.811 153.898 309.395 151.066 304.156 142.497Z" fill="#016B83"/>
<path d="M304.156 142.497C298.918 133.928 301.839 122.864 310.683 117.787C319.526 112.71 330.941 115.542 336.18 124.111C341.419 132.681 338.497 143.743 329.655 148.821C320.811 153.898 309.395 151.066 304.156 142.497Z" fill="#67A6B5"/>
<path d="M327.265 144.917C326.819 145.176 326.357 145.406 325.878 145.604C319.497 148.402 311.841 146.17 308.189 140.176C304.272 133.772 306.449 125.488 313.08 121.69C314.056 121.134 315.085 120.692 316.128 120.391C322.113 118.607 328.812 120.972 332.156 126.43C336.072 132.835 333.895 141.118 327.265 144.917Z" fill="#016B83"/>
<path d="M343.521 43.1096C346.706 49.3909 342.863 57.5421 334.938 61.3154C327.013 65.0886 318.007 63.0558 314.823 56.7738C311.638 50.4925 315.48 42.3413 323.405 38.5681C331.33 34.7948 340.336 36.8284 343.521 43.1096Z" fill="#016B83"/>
<path d="M342.254 40.6096C345.438 46.8909 341.596 55.0421 333.671 58.8154C325.746 62.5886 316.741 60.5558 313.556 54.2738C310.371 47.9925 314.214 39.8421 322.139 36.0681C330.063 32.2948 339.07 34.3284 342.254 40.6096Z" fill="#016B83"/>
<path d="M342.254 40.6096C345.438 46.8909 341.596 55.0421 333.671 58.8154C325.746 62.5886 316.741 60.5558 313.556 54.2738C310.371 47.9925 314.214 39.8421 322.139 36.0681C330.063 32.2948 339.07 34.3284 342.254 40.6096Z" fill="#67A6B5"/>
<path d="M338.561 42.1191C338.713 42.4192 338.841 42.73 338.957 43.0177C338.945 43.0518 338.98 43.0634 338.992 43.0867C340.547 47.667 337.652 53.135 332.136 55.7608C326.596 58.3983 320.362 57.2773 317.571 53.2862C317.559 53.2629 317.572 53.2288 317.536 53.2172C317.372 52.952 317.196 52.6636 317.044 52.3643C314.661 47.6639 317.548 41.5415 323.492 38.711C329.412 35.8921 336.178 37.4194 338.561 42.1191Z" fill="#016B83"/>
<path d="M260.745 41.5907C257.659 49.3101 246.102 51.2707 235.407 44.7848C224.712 38.2989 221.42 27.3334 227.17 21.2297C232.133 15.9617 242.317 16.216 250.499 21.1777C258.681 26.1403 263.409 34.9287 260.745 41.5907Z" fill="#016B83"/>
<path d="M261.851 38.8277C258.944 46.0974 247.851 47.7805 237.505 41.507C227.159 35.2327 223.815 24.7945 229.231 19.0458C233.926 14.0639 243.761 14.4089 251.737 19.2458C259.713 24.0828 264.371 32.527 261.851 38.8277Z" fill="#016B83"/>
<path d="M261.851 38.8277C258.944 46.0974 247.851 47.7805 237.505 41.507C227.159 35.2327 223.815 24.7945 229.231 19.0458C233.926 14.0639 243.761 14.4089 251.737 19.2458C259.713 24.0828 264.371 32.527 261.851 38.8277Z" fill="#67A6B5"/>
<path d="M257.862 36.1382C257.719 36.4514 257.549 36.7507 257.388 37.0267C257.35 37.0345 257.366 37.0755 257.355 37.1003C254.423 41.4442 246.822 41.9884 239.897 37.7888C232.942 33.5705 230.09 26.6861 232.799 22.2081C232.817 22.188 232.862 22.1841 232.852 22.1469C233.035 21.8848 233.235 21.6034 233.462 21.3406C236.812 17.441 244.289 17.5743 250.435 21.3018C256.556 25.0138 259.977 31.4897 257.862 36.1382Z" fill="#016B83"/>
<path d="M200.323 293.237C285.989 293.237 355.434 289.306 355.434 284.458C355.434 279.61 285.989 275.68 200.323 275.68C114.658 275.68 45.2119 279.61 45.2119 284.458C45.2119 289.306 114.658 293.237 200.323 293.237Z" fill="#F5F5F5"/>
<path d="M182.994 284.557C181.567 284.557 180.41 283.435 180.41 282.052V279.547H185.578V282.052C185.579 283.435 184.422 284.557 182.994 284.557Z" fill="#263238"/>
<path d="M274.156 284.557C272.728 284.557 271.571 283.435 271.571 282.052V279.547H276.74V282.052C276.74 283.435 275.583 284.557 274.156 284.557Z" fill="#263238"/>
<path d="M321.225 284.557C319.798 284.557 318.64 283.435 318.64 282.052V279.547H323.809V282.052C323.81 283.435 322.653 284.557 321.225 284.557Z" fill="#263238"/>
<path d="M325.021 250.484H175.889V281.706H325.021V250.484Z" fill="#016B83"/>
<path opacity="0.3" d="M325.021 250.484H175.889V281.706H325.021V250.484Z" fill="white"/>
<path opacity="0.2" d="M324.876 250.484H278.672V281.71H324.876V250.484Z" fill="black"/>
<path d="M334.208 172.78L326.899 236.512C326.412 240.986 321.84 244.446 316.296 244.603C316.165 244.615 316.027 244.615 315.889 244.615H223.711C217.229 244.615 212.135 240.152 212.701 234.968L220.004 171.236C220.504 166.651 225.287 163.133 231.02 163.133H323.192C323.336 163.133 323.482 163.133 323.628 163.144C329.904 163.336 334.76 167.711 334.208 172.78Z" fill="#016B83"/>
<path opacity="0.5" d="M334.208 172.78L326.899 236.512C326.412 240.986 321.84 244.446 316.296 244.603C316.165 244.615 316.027 244.615 315.889 244.615H223.711C217.229 244.615 212.135 240.152 212.701 234.968L220.004 171.236C220.504 166.651 225.287 163.133 231.02 163.133H323.192C323.336 163.133 323.482 163.133 323.628 163.144C329.904 163.336 334.76 167.711 334.208 172.78Z" fill="white"/>
<path d="M339.272 172.784L331.962 236.516C331.476 240.99 326.904 244.45 321.359 244.607C315.081 244.415 310.226 240.04 310.778 234.972L318.087 171.24C318.574 166.766 323.138 163.306 328.691 163.148C334.968 163.34 339.823 167.715 339.272 172.784Z" fill="#016B83"/>
<path opacity="0.3" d="M339.272 172.784L331.962 236.516C331.476 240.99 326.904 244.45 321.359 244.607C315.081 244.415 310.226 240.04 310.778 234.972L318.087 171.24C318.574 166.766 323.138 163.306 328.691 163.148C334.968 163.34 339.823 167.715 339.272 172.784Z" fill="white"/>
<path d="M320.802 257.168H256.623C250.177 257.168 244.953 252.105 244.953 245.858V238.599C244.953 232.352 250.177 227.289 256.623 227.289H320.802C327.248 227.289 332.473 232.352 332.473 238.599V245.858C332.473 252.105 327.247 257.168 320.802 257.168Z" fill="#016B83"/>
<path opacity="0.3" d="M320.802 257.168H256.623C250.177 257.168 244.953 252.105 244.953 245.858V238.599C244.953 232.352 250.177 227.289 256.623 227.289H320.802C327.248 227.289 332.473 232.352 332.473 238.599V245.858C332.473 252.105 327.247 257.168 320.802 257.168Z" fill="white"/>
<path d="M279.483 257.169H179.58C173.268 257.169 168.15 252.21 168.15 246.093V238.365C168.15 232.248 173.267 227.289 179.58 227.289H279.483C285.795 227.289 290.913 232.248 290.913 238.365V246.093C290.912 252.21 285.795 257.169 279.483 257.169Z" fill="#016B83"/>
<path opacity="0.6" d="M279.483 257.169H179.58C173.268 257.169 168.15 252.21 168.15 246.093V238.365C168.15 232.248 173.267 227.289 179.58 227.289H279.483C285.795 227.289 290.913 232.248 290.913 238.365V246.093C290.912 252.21 285.795 257.169 279.483 257.169Z" fill="white"/>
<path d="M190.486 259.262L185.162 275.821L179.022 275.432L183.521 253.578L190.486 259.262Z" fill="#FF8B7B"/>
<path d="M255.005 195.613C255.005 195.613 243.837 195.241 235.595 192.82C235.595 192.82 232.174 199.682 229.45 202.212L228.364 203.221C228.364 203.221 196.227 195.643 191.83 205.438C188.082 213.788 178.311 268.669 178.311 268.669H189.249C189.249 268.669 196.938 245.492 204.145 228.357C204.529 227.445 205.856 222.629 205.856 222.629C211.223 225.002 227.151 230.911 247.62 229.988C250.79 229.845 255.614 223.368 255.678 213.311C255.747 202.423 255.005 195.613 255.005 195.613Z" fill="#263238"/>
<path opacity="0.2" d="M230.858 224.213C221.867 220.16 209.491 209.289 203.754 205.228C202.105 204.061 200.595 203.437 199.271 203.125C204.335 202.155 210.787 202.327 216.335 202.814L229.419 208.687L250.423 218.197L252.902 225.491C251.92 229.379 249.377 229.906 247.103 230.009C237.616 230.437 227.407 229.186 220.796 227.565C221.846 227.678 239.539 228.126 230.858 224.213Z" fill="black"/>
<path d="M167.352 231.517L155.81 242.42L151.48 238.98L160.443 226.406L167.352 231.517Z" fill="#FF8B7B"/>
<path d="M152.317 237.48L157.352 241.356C157.571 241.524 157.639 241.816 157.518 242.059L154.826 247.427C154.591 247.905 154 248.108 153.507 247.88C153.444 247.85 153.384 247.815 153.329 247.774C151.271 246.133 149.507 244.595 146.907 242.6C143.84 240.243 144.327 241.197 140.683 238.473C138.488 236.831 140.051 234.134 141.067 234.723C145.703 237.452 147.903 237.131 150.725 236.92C151.309 236.911 151.875 237.11 152.317 237.48Z" fill="#263238"/>
<path d="M150.266 237.241C150.311 237.26 150.363 237.251 150.399 237.217C150.438 237.18 150.45 237.124 150.428 237.076C150.325 236.834 149.348 234.695 148.607 234.56C148.464 234.537 148.318 234.585 148.219 234.688C148.047 234.848 147.967 235.078 148.003 235.303C148.119 236.06 149.456 236.843 150.243 237.239L150.266 237.241ZM148.613 234.815C149.017 234.957 149.637 236.014 150.039 236.841C148.984 236.266 148.331 235.683 148.266 235.261C148.236 235.112 148.291 234.958 148.411 234.856C148.447 234.814 148.503 234.794 148.558 234.804L148.613 234.815Z" fill="#016B83"/>
<path d="M150.267 237.241L150.292 237.259C150.339 237.263 150.387 237.242 150.412 237.203C150.448 237.16 151.283 235.976 151.12 235.131C151.076 234.885 150.928 234.669 150.711 234.531C150.415 234.344 150.219 234.415 150.107 234.51C149.619 234.921 149.875 236.576 150.186 237.194C150.205 237.22 150.235 237.236 150.267 237.241ZM150.451 234.669L150.554 234.748C150.715 234.846 150.824 235.006 150.855 235.188C150.861 235.788 150.675 236.377 150.323 236.878C150.065 236.168 149.983 234.948 150.268 234.704C150.289 234.689 150.334 234.644 150.438 234.685L150.451 234.669Z" fill="#016B83"/>
<path d="M241.709 194.072C255.665 196.554 268.502 194.594 268.502 194.594C268.502 194.594 277.737 229.013 251.363 228.978C241.612 228.964 237.63 224.967 231.362 221.254C217.089 212.799 205.408 200.444 199.821 201.13C191.781 202.118 196.153 211.422 162.984 236.65L156.306 230.755C156.306 230.755 181.377 177.344 197.866 177.344C212.163 177.344 234.67 198.678 237.689 198.751C240.707 198.822 241.709 194.072 241.709 194.072Z" fill="#263238"/>
<path opacity="0.2" d="M195.32 203.047L195.331 203.052C193.31 203.892 191.782 205.066 191.052 206.692C190.611 207.674 190.207 209.258 189.836 211.289C188.886 212.568 187.771 213.988 186.447 215.552C187.489 205.147 195.32 203.047 195.32 203.047Z" fill="black"/>
<path d="M177.142 275.671C177.164 275.627 177.157 275.574 177.123 275.537C177.086 275.496 177.026 275.481 176.974 275.501C176.71 275.593 174.375 276.474 174.198 277.212C174.166 277.354 174.21 277.503 174.316 277.608C174.48 277.788 174.722 277.88 174.964 277.854C175.779 277.773 176.679 276.466 177.139 275.694L177.142 275.671ZM174.47 277.219C174.642 276.82 175.802 276.246 176.705 275.881C176.04 276.913 175.386 277.543 174.931 277.588C174.77 277.611 174.609 277.548 174.505 277.424C174.462 277.386 174.443 277.328 174.456 277.274L174.47 277.219Z" fill="#016B83"/>
<path d="M177.142 275.67L177.163 275.646C177.169 275.599 177.148 275.551 177.108 275.523C177.064 275.485 175.836 274.591 174.925 274.715C174.66 274.747 174.421 274.885 174.264 275.097C174.051 275.386 174.117 275.586 174.214 275.703C174.631 276.214 176.413 276.033 177.088 275.75C177.117 275.732 177.136 275.703 177.142 275.67ZM174.4 275.366L174.489 275.266C174.602 275.109 174.778 275.006 174.974 274.985C175.616 275.006 176.238 275.22 176.756 275.597C175.984 275.823 174.676 275.848 174.428 275.551C174.412 275.529 174.368 275.482 174.415 275.379L174.4 275.366Z" fill="#016B83"/>
<path d="M178.974 274.508L185.601 273.754C185.888 273.722 186.16 273.886 186.256 274.15L188.363 279.997C188.554 280.514 188.276 281.083 187.742 281.268C187.673 281.292 187.603 281.308 187.531 281.318C184.78 281.585 182.321 281.718 178.904 282.112C174.872 282.574 175.952 282.925 171.218 283.531C168.365 283.894 167.46 280.807 168.652 280.513C174.115 279.203 175.481 277.4 177.386 275.233C177.805 274.812 178.371 274.553 178.974 274.508Z" fill="#263238"/>
<path d="M206.503 130.911C205.474 130.767 205.367 130.012 204.835 129.146C204.835 129.146 203.268 125.672 204.511 125.16C204.511 125.16 206.355 124.947 208.421 125.025C210.751 125.114 211.878 126.9 212.259 128.174C213.398 131.987 206.503 130.911 206.503 130.911Z" fill="#FF8B7B"/>
<path d="M205.596 130.442L200.997 127.027C200.291 126.502 200.162 125.52 200.71 124.84L201.872 123.4C202.33 122.832 203.132 122.645 203.807 122.949L208.422 125.027L205.596 130.442Z" fill="#FF8B7B"/>
<path d="M208.747 130.523L213.121 139.211L218.687 138.24L211.224 126.844L208.747 130.523Z" fill="#FF8B7B"/>
<path d="M244.207 149.992L241.167 160.211L227.615 156.001C218.687 153.761 208.951 134.146 208.951 134.146L215.023 131.781L228.911 147.256L244.207 149.992Z" fill="#016B83"/>
<path d="M236.836 178.265C238.224 181.902 239.063 188.285 233.655 196.459C233.655 196.459 254.558 199.466 269.363 198.559C270.396 192.723 267.84 180.58 273.263 161.866C274.52 157.528 271.623 153.09 267.038 152.335C265.813 152.133 264.513 151.947 263.18 151.796C257.997 151.21 254.09 150.218 249.489 150.321C247.964 150.355 246.648 149.823 245.138 149.928C241.812 150.158 237.743 156.595 235.937 162.832C234.464 167.919 234.944 173.31 236.836 178.265Z" fill="#016B83"/>
<path opacity="0.4" d="M236.836 178.265C238.224 181.902 239.063 188.285 233.655 196.459C233.655 196.459 254.558 199.466 269.363 198.559C270.396 192.723 267.84 180.58 273.263 161.866C274.52 157.528 271.623 153.09 267.038 152.335C265.813 152.133 264.513 151.947 263.18 151.796C257.997 151.21 254.09 150.218 249.489 150.321C247.964 150.355 246.648 149.823 245.138 149.928C241.812 150.158 237.743 156.595 235.937 162.832C234.464 167.919 234.944 173.31 236.836 178.265Z" fill="white"/>
<path d="M241.32 197.989C237.948 198.051 234.396 196.879 231.436 195.311C233.824 188.803 234.46 181.7 233.263 174.891C232.635 171.318 231.508 167.715 232.093 164.135C233.057 158.233 238.311 154.012 243.196 150.368C244.112 149.684 245.128 150.134 246.264 149.93C240.925 162.1 240.925 177.806 241.32 197.989Z" fill="#016B83"/>
<path d="M272.033 198.249C271.889 199.35 270.858 200.183 269.754 200.478C268.651 200.773 267.48 200.639 266.344 200.503C262.504 200.043 258.446 199.404 254.608 198.943C252.443 182.669 254.328 165.902 260.058 150.46C264.357 150.348 269.041 150.805 271.697 154.083C273.789 156.663 273.66 160.27 273.431 163.544C272.62 175.14 273.539 186.717 272.033 198.249Z" fill="#016B83"/>
<path opacity="0.2" d="M261.34 171.592C263.019 162.997 266.305 155.758 266.305 155.758L266.701 159.209L267.872 160.655C265.924 166.371 275.948 175.884 264.637 189.129C264.086 189.774 263.17 189.988 262.372 189.666C257.621 187.752 252.349 181.796 252.349 181.796L254.831 175.645C258.183 177.173 260.432 176.246 261.34 171.592Z" fill="black"/>
<path d="M243.048 172.641L249.436 178.764L252.244 174.437L245.354 169.141L243.048 172.641Z" fill="#FF8B7B"/>
<path d="M243.584 176.139H224.458L222.274 151.953H241.4L243.584 176.139Z" fill="#263238"/>
<path opacity="0.5" d="M243.584 176.139H224.458L222.274 151.953H241.4L243.584 176.139Z" fill="white"/>
<path d="M242.908 176.014H223.783L221.599 151.828H240.725L242.908 176.014Z" fill="#263238"/>
<path opacity="0.8" d="M242.908 176.014H223.783L221.599 151.828H240.725L242.908 176.014Z" fill="white"/>
<path d="M235.324 153.342H227.28L227.007 150.32H235.051L235.324 153.342Z" fill="#263238"/>
<path d="M227.007 150.32L227.8 150.055H236.129L236.242 151.341L235.623 152.037L235.582 153.088L235.324 153.342L235.051 150.32H227.007Z" fill="#263238"/>
<path opacity="0.5" d="M227.007 150.32L227.8 150.055H236.129L236.242 151.341L235.623 152.037L235.582 153.088L235.324 153.342L235.051 150.32H227.007Z" fill="black"/>
<path d="M236.96 172.002L238.324 173.131C238.836 173.555 239.529 173.713 240.184 173.555L243.241 172.815C244.464 172.52 245.348 169.138 245.348 169.138C243.805 167.34 239.166 166.835 239.166 166.835C238.211 166.562 237.255 167.038 236.97 167.928L236.315 169.98C236.09 170.689 236.346 171.494 236.96 172.002Z" fill="#FF8B7B"/>
<path d="M273.489 166.097C274.169 162.526 274.267 155.243 270.378 153.886C265.829 152.299 264.615 158.956 263.637 164.967C262.66 170.979 260.733 178.458 259.248 177.727C256.154 176.203 250.729 172.739 250.729 172.739L247.458 177.651C247.458 177.651 258.878 189.443 264.068 186.686C269.911 183.584 272.627 170.626 273.489 166.097Z" fill="#016B83"/>
<path d="M259.588 141.923C259.588 141.923 258.44 146.17 259.684 150.844C259.684 150.844 247.162 158.607 247.162 150.617C247.162 150.617 251.051 151.699 251.38 146.864C251.568 144.115 254.524 141.334 259.588 141.923Z" fill="#FF8B7B"/>
<path opacity="0.2" d="M251.375 146.867C251.714 144.334 254.128 141.751 258.512 141.855L258.804 142.117L259.111 142.669C259.111 142.669 256.286 149.631 250.897 148.793C251.085 148.321 251.262 147.709 251.375 146.867Z" fill="black"/>
<path d="M262.448 132.426C261.476 139.021 261.213 141.832 257.479 144.962C251.86 149.673 243.716 147.078 242.632 140.335C241.656 134.266 243.405 124.509 250.314 122.392C255.242 120.856 260.523 123.481 262.108 128.257C262.554 129.603 262.671 131.03 262.448 132.426Z" fill="#FF8B7B"/>
<path d="M257.915 144.532C259.584 144.282 263.085 143.314 264.58 142.473C265.552 139.524 265.891 138.603 266.643 135.909C268.028 130.942 266.906 124.653 261.981 122.775C260.276 122.124 255.007 119.126 253.106 121.762C252.624 122.431 262.288 133.523 257.915 144.532Z" fill="#263238"/>
<path d="M247.295 136.062C246.698 137.256 245.935 138.364 245.026 139.354C245.565 139.799 246.279 139.99 246.977 139.876L247.295 136.062Z" fill="#FF5652"/>
<path d="M253.369 132.723C253.416 132.716 253.461 132.698 253.5 132.671C253.619 132.583 253.641 132.417 253.55 132.301C253.549 132.299 253.548 132.299 253.547 132.297C252.935 131.485 251.953 131.013 250.915 131.032C250.767 131.048 250.658 131.174 250.667 131.318C250.68 131.46 250.807 131.567 250.954 131.559C251.811 131.557 252.617 131.954 253.121 132.625C253.18 132.697 253.274 132.734 253.369 132.723Z" fill="#263238"/>
<path d="M243.279 131.497C243.326 131.49 243.371 131.472 243.41 131.446C244.089 130.945 244.974 130.789 245.79 131.027C245.93 131.081 246.089 131.015 246.145 130.88L246.146 130.877C246.197 130.739 246.126 130.587 245.984 130.534C244.994 130.232 243.915 130.413 243.086 131.018C242.961 131.098 242.927 131.263 243.01 131.384C243.069 131.468 243.174 131.513 243.279 131.497Z" fill="#263238"/>
<path d="M251.304 135.475C251.261 136.011 250.929 136.424 250.56 136.399C250.191 136.373 249.939 135.914 249.989 135.37C250.039 134.826 250.364 134.42 250.725 134.447C251.086 134.473 251.346 134.931 251.304 135.475Z" fill="#263238"/>
<path d="M245.005 134.983C244.962 135.519 244.63 135.933 244.269 135.906C243.908 135.879 243.648 135.421 243.691 134.878C243.733 134.334 244.066 133.929 244.427 133.954C244.788 133.981 245.055 134.439 245.005 134.983Z" fill="#263238"/>
<path d="M244.584 133.999L243.279 133.523C243.279 133.523 243.885 134.587 244.584 133.999Z" fill="#263238"/>
<path d="M250.88 134.492L249.576 134.016C249.576 134.016 250.18 135.079 250.88 134.492Z" fill="#263238"/>
<path d="M250.515 140.871C250.666 140.71 250.802 140.537 250.923 140.353C250.965 140.296 250.951 140.216 250.892 140.176C250.891 140.175 250.89 140.174 250.888 140.174C250.823 140.139 250.742 140.158 250.703 140.219C250.094 141.161 249.059 141.768 247.915 141.855C247.842 141.855 247.782 141.913 247.782 141.985C247.782 142.056 247.842 142.114 247.915 142.114C248.918 142.057 249.856 141.609 250.515 140.871Z" fill="#263238"/>
<path d="M263.633 137.795C263.151 138.996 262.197 139.962 260.98 140.48C259.361 141.153 258.319 139.808 258.572 138.208C258.798 136.773 259.915 134.687 261.637 134.688C262.889 134.725 263.873 135.74 263.834 136.954C263.825 137.245 263.756 137.53 263.633 137.795Z" fill="#FF8B7B"/>
<path d="M249.605 121.026C247.585 121.434 245.74 122.604 244.546 124.235C243.351 125.865 242.82 127.939 243.089 129.921C244.223 130.096 245.371 130.421 246.506 130.595C246.231 129.334 246.463 128.093 247.322 127.108C247.116 128.223 247.149 129.842 247.565 130.901C248.42 130.994 249.504 131.018 250.359 131.111C250.367 129.776 250.431 129.029 250.439 127.693C251.018 129.02 251.669 130.341 252.247 131.667C253.185 131.643 254.128 131.901 254.915 132.395C254.631 131.106 254.347 129.674 254.062 128.384C255.722 130.27 256.596 132.814 256.621 135.293C258.232 132.629 258.449 129.214 257.143 126.398C255.837 123.581 252.724 120.396 249.605 121.026Z" fill="#263238"/>
<path d="M259.118 149.246C256.73 150.798 252.861 153.254 250.232 154.385C250.506 156.154 251.558 158.73 253.157 159.953C258.168 156.301 259.708 154.165 261.186 150.446C260.954 149.456 259.988 148.68 259.118 149.246Z" fill="#016B83"/>
<path opacity="0.7" d="M259.118 149.246C256.73 150.798 252.861 153.254 250.232 154.385C250.506 156.154 251.558 158.73 253.157 159.953C258.168 156.301 259.708 154.165 261.186 150.446C260.954 149.456 259.988 148.68 259.118 149.246Z" fill="white"/>
<path d="M246.381 150.03C244.723 152.744 245.013 155.964 246.34 158.844C247.58 157.292 249.08 156.002 250.32 154.45C248.498 152.913 248.972 151.601 249.268 150.133C248.695 149.779 247.121 149.785 246.452 149.892C246.402 150.018 246.352 150.143 246.302 150.268C246.441 150.234 246.243 150.063 246.381 150.03Z" fill="#016B83"/>
<path opacity="0.7" d="M246.381 150.03C244.723 152.744 245.013 155.964 246.34 158.844C247.58 157.292 249.08 156.002 250.32 154.45C248.498 152.913 248.972 151.601 249.268 150.133C248.695 149.779 247.121 149.785 246.452 149.892C246.402 150.018 246.352 150.143 246.302 150.268C246.441 150.234 246.243 150.063 246.381 150.03Z" fill="white"/>
<path d="M287.972 110.378H270.192C270.192 96.1918 258.324 84.6906 243.686 84.6906C229.044 84.6906 217.18 96.1918 217.18 110.378H199.4C199.4 86.6745 219.228 67.4609 243.686 67.4609C268.141 67.4609 287.972 86.6745 287.972 110.378Z" fill="#016B83"/>
<path d="M266.645 97.5413L282.051 88.9218C278.162 82.4095 272.559 76.9795 265.839 73.2109L256.944 88.1404C260.966 90.3956 264.318 93.6432 266.645 97.5413Z" fill="#016B83"/>
<path opacity="0.8" d="M205.328 88.9219C201.559 95.2349 199.4 102.564 199.4 110.384H217.18C217.18 105.704 218.477 101.321 220.733 97.5414L205.328 88.9219Z" fill="white"/>
<path opacity="0.2" d="M270.197 110.383H287.977C287.977 102.564 285.818 95.2349 282.049 88.9219L266.643 97.5414C268.899 101.32 270.197 105.703 270.197 110.383Z" fill="black"/>
<path opacity="0.6" d="M230.433 88.1404L221.539 73.2109C214.819 76.9788 209.215 82.4095 205.327 88.9218L220.732 97.5413C223.059 93.644 226.411 90.3956 230.433 88.1404Z" fill="white"/>
<path opacity="0.4" d="M243.69 84.6906V67.4609C235.622 67.4609 228.059 69.5526 221.543 73.2057L230.438 88.1351C234.337 85.9481 238.86 84.6906 243.69 84.6906Z" fill="white"/>
<path opacity="0.2" d="M256.938 88.1359L265.832 73.2065C259.317 69.5534 251.754 67.4617 243.687 67.4609V84.6906C248.515 84.6914 253.039 85.9489 256.938 88.1359Z" fill="white"/>
<path d="M243.695 108.23L266.463 84.0938L268.563 85.8738L247.111 111.54L243.695 108.23Z" fill="#263238"/>
<path d="M247.785 111.537C247.785 113.728 245.952 115.503 243.692 115.503C241.432 115.503 239.6 113.727 239.6 111.537C239.6 109.346 241.432 107.57 243.692 107.57C245.952 107.57 247.785 109.346 247.785 111.537Z" fill="#263238"/>
<path d="M147.822 262.274C148.293 272.563 140.068 281.273 129.452 281.729C118.835 282.185 109.847 274.214 109.377 263.926C108.906 253.638 117.131 244.928 127.747 244.472C138.364 244.016 147.352 251.986 147.822 262.274Z" fill="#016B83"/>
<path d="M150.134 262.173C150.604 272.461 142.379 281.172 131.763 281.628C121.147 282.083 112.159 274.113 111.688 263.825C111.218 253.536 119.443 244.826 130.059 244.37C140.675 243.914 149.663 251.884 150.134 262.173Z" fill="#016B83"/>
<path opacity="0.4" d="M150.134 262.173C150.604 272.461 142.379 281.172 131.763 281.628C121.147 282.083 112.159 274.113 111.688 263.825C111.218 253.536 119.443 244.826 130.059 244.37C140.675 243.914 149.663 251.884 150.134 262.173Z" fill="white"/>
<path d="M145.289 262.383C145.641 270.082 139.487 276.6 131.542 276.942C123.597 277.283 116.872 271.319 116.519 263.62C116.167 255.92 122.321 249.402 130.266 249.061C138.212 248.719 144.937 254.684 145.289 262.383Z" fill="#016B83"/>
<path d="M80.2537 278.785C80.1273 281.677 89.5761 284.416 101.359 284.901C113.142 285.386 122.797 283.433 122.923 280.542C123.05 277.649 113.602 274.911 101.818 274.426C90.0353 273.94 80.3809 275.892 80.2537 278.785Z" fill="#016B83"/>
<path d="M80.4818 273.528L80.2524 278.766L122.922 280.52L123.151 275.283L80.4818 273.528Z" fill="#016B83"/>
<path d="M80.4847 273.543C80.3575 276.435 89.8071 279.174 101.59 279.659C113.373 280.143 123.028 278.192 123.154 275.299C123.281 272.406 113.833 269.668 102.049 269.183C90.2655 268.699 80.6111 270.65 80.4847 273.543Z" fill="#016B83"/>
<path opacity="0.4" d="M80.4847 273.543C80.3575 276.435 89.8071 279.174 101.59 279.659C113.373 280.143 123.028 278.192 123.154 275.299C123.281 272.406 113.833 269.668 102.049 269.183C90.2655 268.699 80.6111 270.65 80.4847 273.543Z" fill="white"/>
<path d="M83.2115 273.456C83.2043 273.625 83.2715 273.832 83.3931 273.972C84.8203 272.271 92.6211 271.272 101.943 271.656C111.291 272.041 118.976 273.677 120.223 275.488C120.356 275.358 120.442 275.159 120.449 274.99C120.535 273.031 112.277 271.068 101.987 270.644C91.7227 270.22 83.2971 271.498 83.2115 273.456Z" fill="#016B83"/>
<path opacity="0.4" d="M83.2115 273.456C83.2043 273.625 83.2715 273.832 83.3931 273.972C84.8203 272.271 92.6211 271.272 101.943 271.656C111.291 272.041 118.976 273.677 120.223 275.488C120.356 275.358 120.442 275.159 120.449 274.99C120.535 273.031 112.277 271.068 101.987 270.644C91.7227 270.22 83.2971 271.498 83.2115 273.456Z" fill="#016B83"/>
<path opacity="0.4" d="M83.3867 273.968C84.6595 275.78 92.3451 277.416 101.668 277.799C111.016 278.184 118.816 277.186 120.217 275.484C118.97 273.673 111.285 272.037 101.936 271.652C92.6147 271.268 84.8139 272.267 83.3867 273.968Z" fill="#016B83"/>
<path d="M75.7698 270.84C75.6434 273.732 85.0922 276.47 96.8754 276.956C108.659 277.44 118.313 275.488 118.44 272.596C118.567 269.704 109.118 266.966 97.3354 266.48C85.5514 265.995 75.897 267.947 75.7698 270.84Z" fill="#016B83"/>
<path d="M75.9979 265.606L75.7686 270.844L118.438 272.599L118.667 267.361L75.9979 265.606Z" fill="#016B83"/>
<path d="M76.0008 265.605C75.8744 268.498 85.3232 271.236 97.1064 271.721C108.89 272.206 118.544 270.255 118.67 267.361C118.798 264.469 109.349 261.73 97.5656 261.246C85.7824 260.761 76.128 262.713 76.0008 265.605Z" fill="#016B83"/>
<path opacity="0.4" d="M76.0008 265.605C75.8744 268.498 85.3232 271.236 97.1064 271.721C108.89 272.206 118.544 270.255 118.67 267.361C118.798 264.469 109.349 261.73 97.5656 261.246C85.7824 260.761 76.128 262.713 76.0008 265.605Z" fill="white"/>
<path d="M78.7183 265.519C78.7111 265.688 78.7783 265.893 78.8999 266.034C80.3263 264.333 88.1279 263.334 97.4495 263.719C106.798 264.103 114.483 265.74 115.73 267.551C115.864 267.421 115.949 267.221 115.956 267.052C116.042 265.094 107.784 263.13 97.4943 262.706C87.2303 262.283 78.8047 263.56 78.7183 265.519Z" fill="#016B83"/>
<path opacity="0.4" d="M78.7183 265.519C78.7111 265.688 78.7783 265.893 78.8999 266.034C80.3263 264.333 88.1279 263.334 97.4495 263.719C106.798 264.103 114.483 265.74 115.73 267.551C115.864 267.421 115.949 267.221 115.956 267.052C116.042 265.094 107.784 263.13 97.4943 262.706C87.2303 262.283 78.8047 263.56 78.7183 265.519Z" fill="#016B83"/>
<path opacity="0.4" d="M78.9028 266.03C80.1756 267.842 87.8612 269.478 97.1828 269.862C106.531 270.247 114.332 269.248 115.732 267.547C114.485 265.736 106.8 264.099 97.4516 263.714C88.13 263.331 80.3292 264.33 78.9028 266.03Z" fill="#016B83"/>
<path d="M76.3518 261.293C76.2254 264.185 85.6742 266.923 97.4566 267.409C109.24 267.893 118.894 265.942 119.021 263.049C119.148 260.157 109.7 257.419 97.9166 256.933C86.1334 256.449 76.479 258.401 76.3518 261.293Z" fill="#016B83"/>
<path d="M76.58 256.051L76.3506 261.289L119.02 263.044L119.25 257.806L76.58 256.051Z" fill="#016B83"/>
<path d="M76.5828 256.058C76.4564 258.951 85.9052 261.69 97.6884 262.175C109.472 262.659 119.126 260.708 119.252 257.814C119.38 254.922 109.931 252.184 98.1476 251.699C86.3644 251.214 76.71 253.165 76.5828 256.058Z" fill="#016B83"/>
<path opacity="0.4" d="M76.5828 256.058C76.4564 258.951 85.9052 261.69 97.6884 262.175C109.472 262.659 119.126 260.708 119.252 257.814C119.38 254.922 109.931 252.184 98.1476 251.699C86.3644 251.214 76.71 253.165 76.5828 256.058Z" fill="white"/>
<path d="M79.3003 255.965C79.2931 256.134 79.3603 256.339 79.4819 256.479C80.9091 254.779 88.7099 253.78 98.0315 254.164C107.38 254.548 115.065 256.185 116.312 257.996C116.445 257.866 116.531 257.666 116.538 257.497C116.624 255.538 108.367 253.575 98.0763 253.151C87.8123 252.729 79.3867 254.006 79.3003 255.965Z" fill="#016B83"/>
<path opacity="0.4" d="M79.3003 255.965C79.2931 256.134 79.3603 256.339 79.4819 256.479C80.9091 254.779 88.7099 253.78 98.0315 254.164C107.38 254.548 115.065 256.185 116.312 257.996C116.445 257.866 116.531 257.666 116.538 257.497C116.624 255.538 108.367 253.575 98.0763 253.151C87.8123 252.729 79.3867 254.006 79.3003 255.965Z" fill="#016B83"/>
<path opacity="0.4" d="M79.4849 256.483C80.7577 258.295 88.4433 259.931 97.7649 260.315C107.113 260.699 114.914 259.701 116.315 258C115.068 256.189 107.383 254.552 98.0345 254.168C88.7129 253.784 80.9121 254.783 79.4849 256.483Z" fill="#016B83"/>
<path d="M71.868 253.371C71.7408 256.263 81.1904 259.002 92.9728 259.487C104.756 259.972 114.41 258.019 114.537 255.128C114.664 252.235 105.214 249.497 93.432 249.012C81.6496 248.526 71.9952 250.478 71.868 253.371Z" fill="#016B83"/>
<path d="M72.1059 248.137L71.876 253.375L114.546 255.134L114.775 249.896L72.1059 248.137Z" fill="#016B83"/>
<path d="M72.0989 248.128C71.9717 251.02 81.4213 253.759 93.2045 254.244C104.988 254.729 114.641 252.777 114.769 249.885C114.895 246.992 105.446 244.254 93.6637 243.769C81.8805 243.284 72.2261 245.235 72.0989 248.128Z" fill="#016B83"/>
<path opacity="0.4" d="M72.0989 248.128C71.9717 251.02 81.4213 253.759 93.2045 254.244C104.988 254.729 114.641 252.777 114.769 249.885C114.895 246.992 105.446 244.254 93.6637 243.769C81.8805 243.284 72.2261 245.235 72.0989 248.128Z" fill="white"/>
<path d="M74.8164 248.041C74.8092 248.21 74.8764 248.417 74.998 248.556C76.4252 246.856 84.226 245.857 93.5476 246.241C102.896 246.626 110.581 248.262 111.828 250.073C111.961 249.943 112.047 249.744 112.054 249.575C112.14 247.617 103.882 245.653 93.5916 245.23C83.3284 244.806 74.9028 246.083 74.8164 248.041Z" fill="#016B83"/>
<path opacity="0.4" d="M74.8164 248.041C74.8092 248.21 74.8764 248.417 74.998 248.556C76.4252 246.856 84.226 245.857 93.5476 246.241C102.896 246.626 110.581 248.262 111.828 250.073C111.961 249.943 112.047 249.744 112.054 249.575C112.14 247.617 103.882 245.653 93.5916 245.23C83.3284 244.806 74.9028 246.083 74.8164 248.041Z" fill="#016B83"/>
<path opacity="0.4" d="M75.001 248.554C76.2738 250.366 83.9594 252.001 93.2818 252.385C102.63 252.77 110.431 251.772 111.832 250.07C110.584 248.259 102.899 246.623 93.5514 246.238C84.229 245.854 76.4282 246.853 75.001 248.554Z" fill="#016B83"/>
<path d="M78.7097 246.645C78.5833 249.537 88.0321 252.275 99.8153 252.76C111.599 253.245 121.253 251.293 121.379 248.401C121.506 245.508 112.057 242.77 100.275 242.285C88.4914 241.8 78.8369 243.752 78.7097 246.645Z" fill="#016B83"/>
<path d="M78.9379 241.403L78.7085 246.641L121.378 248.395L121.607 243.158L78.9379 241.403Z" fill="#016B83"/>
<path d="M78.9407 241.402C78.8135 244.294 88.2631 247.034 100.046 247.518C111.83 248.003 121.484 246.051 121.61 243.158C121.738 240.265 112.289 237.527 100.506 237.043C88.7223 236.558 79.0679 238.509 78.9407 241.402Z" fill="#016B83"/>
<path opacity="0.4" d="M78.9407 241.402C78.8135 244.294 88.2631 247.034 100.046 247.518C111.83 248.003 121.484 246.051 121.61 243.158C121.738 240.265 112.289 237.527 100.506 237.043C88.7223 236.558 79.0679 238.509 78.9407 241.402Z" fill="white"/>
<path d="M81.6582 241.315C81.651 241.485 81.7182 241.689 81.8398 241.83C83.267 240.13 91.0678 239.131 100.389 239.515C109.738 239.899 117.423 241.536 118.67 243.347C118.804 243.217 118.889 243.017 118.896 242.848C118.981 240.89 110.724 238.926 100.433 238.503C90.1702 238.08 81.7446 239.357 81.6582 241.315Z" fill="#016B83"/>
<path opacity="0.4" d="M81.6582 241.315C81.651 241.485 81.7182 241.689 81.8398 241.83C83.267 240.13 91.0678 239.131 100.389 239.515C109.738 239.899 117.423 241.536 118.67 243.347C118.804 243.217 118.889 243.017 118.896 242.848C118.981 240.89 110.724 238.926 100.433 238.503C90.1702 238.08 81.7446 239.357 81.6582 241.315Z" fill="#016B83"/>
<path opacity="0.4" d="M81.8428 241.827C83.1156 243.639 90.8012 245.275 100.123 245.659C109.471 246.043 117.272 245.045 118.673 243.344C117.426 241.533 109.741 239.897 100.392 239.512C91.0708 239.128 83.27 240.126 81.8428 241.827Z" fill="#016B83"/>
<path d="M74.2254 238.707C74.0982 241.599 83.5478 244.338 95.331 244.823C107.114 245.308 116.769 243.355 116.895 240.463C117.022 237.571 107.573 234.833 95.7902 234.347C84.007 233.863 74.3526 235.815 74.2254 238.707Z" fill="#016B83"/>
<path d="M74.4535 233.458L74.2241 238.695L116.894 240.45L117.123 235.212L74.4535 233.458Z" fill="#016B83"/>
<path d="M74.4568 233.473C74.3296 236.366 83.7792 239.104 95.5624 239.589C107.346 240.074 117 238.122 117.126 235.229C117.253 232.336 107.804 229.598 96.0216 229.113C84.2384 228.628 74.584 230.58 74.4568 233.473Z" fill="#016B83"/>
<path opacity="0.4" d="M74.4568 233.473C74.3296 236.366 83.7792 239.104 95.5624 239.589C107.346 240.074 117 238.122 117.126 235.229C117.253 232.336 107.804 229.598 96.0216 229.113C84.2384 228.628 74.584 230.58 74.4568 233.473Z" fill="white"/>
<path d="M77.1831 233.386C77.1759 233.556 77.2431 233.76 77.3647 233.901C78.7919 232.2 86.5927 231.201 95.9143 231.586C105.263 231.97 112.948 233.607 114.195 235.418C114.328 235.287 114.414 235.088 114.421 234.919C114.506 232.96 106.249 230.997 95.9583 230.573C85.6943 230.151 77.2687 231.427 77.1831 233.386Z" fill="#016B83"/>
<path opacity="0.4" d="M77.1831 233.386C77.1759 233.556 77.2431 233.76 77.3647 233.901C78.7919 232.2 86.5927 231.201 95.9143 231.586C105.263 231.97 112.948 233.607 114.195 235.418C114.328 235.287 114.414 235.088 114.421 234.919C114.506 232.96 106.249 230.997 95.9583 230.573C85.6943 230.151 77.2687 231.427 77.1831 233.386Z" fill="#016B83"/>
<path opacity="0.4" d="M77.3584 233.897C78.6312 235.709 86.3168 237.345 95.6392 237.729C104.987 238.113 112.788 237.115 114.19 235.414C112.942 233.603 105.257 231.967 95.9088 231.582C86.5864 231.199 78.7856 232.197 77.3584 233.897Z" fill="#016B83"/>
<path d="M121.369 233.074C121.496 235.966 112.047 238.705 100.264 239.19C88.4813 239.674 78.8269 237.722 78.7005 234.831C78.5733 231.938 88.0221 229.199 99.8053 228.714C111.588 228.23 121.243 230.182 121.369 233.074Z" fill="#016B83"/>
<path d="M121.129 227.847L78.459 229.602L78.6884 234.839L121.358 233.084L121.129 227.847Z" fill="#016B83"/>
<path d="M121.139 227.839C121.266 230.732 111.817 233.471 100.034 233.956C88.2503 234.44 78.5959 232.489 78.4695 229.595C78.3423 226.703 87.7919 223.965 99.5743 223.48C111.358 222.996 121.013 224.947 121.139 227.839Z" fill="#016B83"/>
<path opacity="0.4" d="M121.139 227.839C121.266 230.732 111.817 233.471 100.034 233.956C88.2503 234.44 78.5959 232.489 78.4695 229.595C78.3423 226.703 87.7919 223.965 99.5743 223.48C111.358 222.996 121.013 224.947 121.139 227.839Z" fill="white"/>
<path d="M118.416 227.746C118.424 227.915 118.356 228.121 118.234 228.261C116.807 226.56 109.006 225.562 99.6843 225.945C90.3355 226.33 82.6507 227.967 81.4035 229.778C81.2707 229.647 81.1851 229.448 81.1779 229.278C81.0923 227.32 89.3499 225.356 99.6403 224.932C109.904 224.51 118.33 225.787 118.416 227.746Z" fill="#016B83"/>
<path opacity="0.4" d="M118.416 227.746C118.424 227.915 118.356 228.121 118.234 228.261C116.807 226.56 109.006 225.562 99.6843 225.945C90.3355 226.33 82.6507 227.967 81.4035 229.778C81.2707 229.647 81.1851 229.448 81.1779 229.278C81.0923 227.32 89.3499 225.356 99.6403 224.932C109.904 224.51 118.33 225.787 118.416 227.746Z" fill="#016B83"/>
<path opacity="0.4" d="M118.239 228.265C116.967 230.077 109.281 231.712 99.9586 232.096C90.6106 232.481 82.8098 231.482 81.4082 229.781C82.6562 227.97 90.341 226.334 99.689 225.949C109.012 225.565 116.813 226.564 118.239 228.265Z" fill="#016B83"/>
<path d="M125.855 225.144C125.981 228.037 116.532 230.774 104.749 231.26C92.966 231.745 83.3116 229.793 83.1844 226.901C83.058 224.009 92.5068 221.27 104.289 220.785C116.072 220.3 125.728 222.252 125.855 225.144Z" fill="#016B83"/>
<path d="M125.631 219.909L82.9614 221.664L83.1908 226.902L125.86 225.147L125.631 219.909Z" fill="#016B83"/>
<path d="M125.623 219.91C125.749 222.802 116.301 225.541 104.517 226.026C92.7342 226.511 83.0798 224.559 82.9534 221.667C82.8262 218.774 92.275 216.036 104.058 215.55C115.841 215.066 125.496 217.017 125.623 219.91Z" fill="#016B83"/>
<path opacity="0.4" d="M125.623 219.91C125.749 222.802 116.301 225.541 104.517 226.026C92.7342 226.511 83.0798 224.559 82.9534 221.667C82.8262 218.774 92.275 216.036 104.058 215.55C115.841 215.066 125.496 217.017 125.623 219.91Z" fill="white"/>
<path d="M122.899 219.823C122.907 219.992 122.839 220.198 122.718 220.338C121.291 218.637 113.49 217.639 104.168 218.022C94.8194 218.407 87.1346 220.043 85.8874 221.854C85.7546 221.724 85.669 221.525 85.6618 221.356C85.5762 219.398 93.8338 217.434 104.123 217.011C114.388 216.588 122.814 217.865 122.899 219.823Z" fill="#016B83"/>
<path opacity="0.4" d="M122.899 219.823C122.907 219.992 122.839 220.198 122.718 220.338C121.291 218.637 113.49 217.639 104.168 218.022C94.8194 218.407 87.1346 220.043 85.8874 221.854C85.7546 221.724 85.669 221.525 85.6618 221.356C85.5762 219.398 93.8338 217.434 104.123 217.011C114.388 216.588 122.814 217.865 122.899 219.823Z" fill="#016B83"/>
<path opacity="0.4" d="M122.722 220.335C121.45 222.147 113.764 223.783 104.442 224.166C95.0945 224.551 87.2937 223.553 85.8921 221.851C87.1393 220.04 94.8241 218.404 104.173 218.019C113.495 217.636 121.296 218.634 122.722 220.335Z" fill="#016B83"/>
<path d="M125.271 215.606C125.398 218.498 115.949 221.237 104.167 221.721C92.3834 222.206 82.729 220.254 82.6018 217.362C82.4754 214.469 91.9242 211.731 103.707 211.246C115.49 210.761 125.144 212.713 125.271 215.606Z" fill="#016B83"/>
<path d="M125.039 210.37L82.3696 212.125L82.599 217.363L125.269 215.608L125.039 210.37Z" fill="#016B83"/>
<path d="M125.041 210.363C125.167 213.256 115.718 215.994 103.935 216.479C92.1525 216.964 82.4973 215.012 82.3709 212.119C82.2437 209.227 91.6925 206.488 103.476 206.004C115.259 205.518 124.913 207.471 125.041 210.363Z" fill="#016B83"/>
<path opacity="0.4" d="M125.041 210.363C125.167 213.256 115.718 215.994 103.935 216.479C92.1525 216.964 82.4973 215.012 82.3709 212.119C82.2437 209.227 91.6925 206.488 103.476 206.004C115.259 205.518 124.913 207.471 125.041 210.363Z" fill="white"/>
<path d="M122.317 210.269C122.325 210.438 122.257 210.644 122.135 210.784C120.708 209.083 112.907 208.085 103.586 208.468C94.2369 208.853 86.5521 210.489 85.3049 212.301C85.1721 212.17 85.0865 211.971 85.0793 211.802C84.9937 209.843 93.2505 207.88 103.541 207.456C113.806 207.033 122.231 208.31 122.317 210.269Z" fill="#016B83"/>
<path opacity="0.4" d="M122.317 210.269C122.325 210.438 122.257 210.644 122.135 210.784C120.708 209.083 112.907 208.085 103.586 208.468C94.2369 208.853 86.5521 210.489 85.3049 212.301C85.1721 212.17 85.0865 211.971 85.0793 211.802C84.9937 209.843 93.2505 207.88 103.541 207.456C113.806 207.033 122.231 208.31 122.317 210.269Z" fill="#016B83"/>
<path opacity="0.4" d="M122.14 210.788C120.867 212.6 113.182 214.236 103.86 214.62C94.512 215.004 86.7112 214.006 85.3096 212.305C86.5568 210.494 94.2416 208.857 103.59 208.472C112.912 208.089 120.713 209.088 122.14 210.788Z" fill="#016B83"/>
<path d="M129.755 207.676C129.881 210.567 120.433 213.306 108.65 213.792C96.867 214.277 87.2126 212.324 87.0862 209.432C86.959 206.54 96.4086 203.801 108.191 203.316C119.973 202.831 129.628 204.783 129.755 207.676Z" fill="#016B83"/>
<path d="M129.533 202.429L86.8633 204.188L87.0932 209.425L129.763 207.666L129.533 202.429Z" fill="#016B83"/>
<path d="M129.525 202.433C129.652 205.326 120.202 208.064 108.419 208.55C96.6361 209.035 86.9825 207.083 86.8553 204.189C86.7289 201.297 96.1777 198.559 107.96 198.074C119.743 197.589 129.398 199.54 129.525 202.433Z" fill="#016B83"/>
<path opacity="0.4" d="M129.525 202.433C129.652 205.326 120.202 208.064 108.419 208.55C96.6361 209.035 86.9825 207.083 86.8553 204.189C86.7289 201.297 96.1777 198.559 107.96 198.074C119.743 197.589 129.398 199.54 129.525 202.433Z" fill="white"/>
<path d="M126.801 202.34C126.808 202.51 126.741 202.715 126.62 202.855C125.193 201.154 117.392 200.155 108.07 200.539C98.7212 200.925 91.0365 202.56 89.7893 204.371C89.6565 204.241 89.5708 204.042 89.5636 203.872C89.478 201.914 97.7357 199.95 108.026 199.526C118.29 199.104 126.716 200.381 126.801 202.34Z" fill="#016B83"/>
<path opacity="0.4" d="M126.801 202.34C126.808 202.51 126.741 202.715 126.62 202.855C125.193 201.154 117.392 200.155 108.07 200.539C98.7212 200.925 91.0365 202.56 89.7893 204.371C89.6565 204.241 89.5708 204.042 89.5636 203.872C89.478 201.914 97.7357 199.95 108.026 199.526C118.29 199.104 126.716 200.381 126.801 202.34Z" fill="#016B83"/>
<path opacity="0.4" d="M126.625 202.859C125.352 204.67 117.667 206.306 108.344 206.69C98.9963 207.074 91.1955 206.076 89.7939 204.375C91.0419 202.564 98.7267 200.928 108.075 200.543C117.397 200.159 125.198 201.158 126.625 202.859Z" fill="#016B83"/>
<path d="M122.915 200.942C123.041 203.834 113.592 206.573 101.809 207.057C90.026 207.542 80.3716 205.59 80.2444 202.698C80.118 199.805 89.5668 197.067 101.349 196.582C113.133 196.097 122.788 198.049 122.915 200.942Z" fill="#016B83"/>
<path d="M122.682 195.706L80.0122 197.461L80.2416 202.699L122.911 200.945L122.682 195.706Z" fill="#016B83"/>
<path d="M122.683 195.707C122.809 198.599 113.361 201.338 101.577 201.823C89.7943 202.307 80.1399 200.356 80.0135 197.463C79.8863 194.57 89.3359 191.832 101.118 191.347C112.901 190.863 122.556 192.815 122.683 195.707Z" fill="#016B83"/>
<path opacity="0.4" d="M122.683 195.707C122.809 198.599 113.361 201.338 101.577 201.823C89.7943 202.307 80.1399 200.356 80.0135 197.463C79.8863 194.57 89.3359 191.832 101.118 191.347C112.901 190.863 122.556 192.815 122.683 195.707Z" fill="white"/>
<path d="M119.959 195.62C119.967 195.79 119.899 195.996 119.778 196.136C118.351 194.435 110.55 193.436 101.228 193.82C91.8795 194.206 84.1946 195.841 82.9474 197.652C82.8138 197.522 82.7291 197.323 82.7219 197.154C82.6363 195.195 90.8939 193.232 101.184 192.808C111.448 192.384 119.874 193.661 119.959 195.62Z" fill="#016B83"/>
<path opacity="0.4" d="M119.959 195.62C119.967 195.79 119.899 195.996 119.778 196.136C118.351 194.435 110.55 193.436 101.228 193.82C91.8795 194.206 84.1946 195.841 82.9474 197.652C82.8138 197.522 82.7291 197.323 82.7219 197.154C82.6363 195.195 90.8939 193.232 101.184 192.808C111.448 192.384 119.874 193.661 119.959 195.62Z" fill="#016B83"/>
<path opacity="0.4" d="M119.783 196.132C118.51 197.944 110.824 199.58 101.503 199.963C92.1546 200.348 84.3537 199.349 82.9521 197.648C84.1993 195.837 91.8842 194.201 101.233 193.816C110.555 193.432 118.356 194.432 119.783 196.132Z" fill="#016B83"/>
<path d="M127.398 193.012C127.526 195.903 118.076 198.642 106.293 199.128C94.5096 199.612 84.8552 197.66 84.7288 194.768C84.6016 191.876 94.0512 189.137 105.834 188.652C117.617 188.167 127.271 190.118 127.398 193.012Z" fill="#016B83"/>
<path d="M127.157 187.784L84.4873 189.539L84.7167 194.777L127.386 193.022L127.157 187.784Z" fill="#016B83"/>
<path d="M127.167 187.777C127.295 190.669 117.845 193.408 106.062 193.893C94.2787 194.378 84.6243 192.426 84.4979 189.534C84.3707 186.641 93.8194 183.903 105.603 183.418C117.386 182.933 127.04 184.884 127.167 187.777Z" fill="#016B83"/>
<path opacity="0.4" d="M127.167 187.777C127.295 190.669 117.845 193.408 106.062 193.893C94.2787 194.378 84.6243 192.426 84.4979 189.534C84.3707 186.641 93.8194 183.903 105.603 183.418C117.386 182.933 127.04 184.884 127.167 187.777Z" fill="white"/>
<path d="M124.444 187.691C124.451 187.861 124.384 188.066 124.262 188.206C122.835 186.506 115.034 185.506 105.713 185.89C96.3638 186.275 88.6798 187.911 87.4318 189.722C87.299 189.592 87.2134 189.393 87.2062 189.224C87.1206 187.265 95.3782 185.302 105.669 184.878C115.933 184.455 124.358 185.732 124.444 187.691Z" fill="#016B83"/>
<path opacity="0.4" d="M124.444 187.691C124.451 187.861 124.384 188.066 124.262 188.206C122.835 186.506 115.034 185.506 105.713 185.89C96.3638 186.275 88.6798 187.911 87.4318 189.722C87.299 189.592 87.2134 189.393 87.2062 189.224C87.1206 187.265 95.3782 185.302 105.669 184.878C115.933 184.455 124.358 185.732 124.444 187.691Z" fill="#016B83"/>
<path opacity="0.4" d="M124.268 188.202C122.995 190.014 115.309 191.65 105.987 192.034C96.6389 192.418 88.8381 191.42 87.4365 189.719C88.6845 187.908 96.3685 186.271 105.717 185.887C115.04 185.503 122.841 186.501 124.268 188.202Z" fill="#016B83"/>
<path d="M175.573 159.604H70.4817L62.8433 18.3516H167.934L175.573 159.604Z" fill="#016B83"/>
<g opacity="0.6">
<path d="M175.573 159.604H70.4817L62.8433 18.3516H167.934L175.573 159.604Z" fill="white"/>
</g>
<path d="M122.303 112.5H79.8732C79.3188 112.5 78.8932 112.935 78.9228 113.472C78.9516 114.009 79.4244 114.444 79.9788 114.444H122.408C122.963 114.444 123.388 114.009 123.359 113.472C123.329 112.936 122.856 112.5 122.303 112.5Z" fill="#263238"/>
<path d="M111.529 105.031H79.4665C78.9121 105.031 78.4865 105.466 78.5161 106.003C78.5449 106.541 79.0177 106.976 79.5721 106.976H111.635C112.189 106.976 112.615 106.54 112.585 106.003C112.556 105.467 112.083 105.031 111.529 105.031Z" fill="#263238"/>
<path d="M123.274 130.492H80.8439C80.2895 130.492 79.8639 130.927 79.8935 131.464C79.9223 132.002 80.3951 132.437 80.9495 132.437H123.379C123.934 132.437 124.359 132.002 124.33 131.464C124.301 130.927 123.828 130.492 123.274 130.492Z" fill="#263238"/>
<path d="M112.5 123.023H80.4371C79.8835 123.023 79.4579 123.458 79.4867 123.996C79.5155 124.532 79.9883 124.968 80.5427 124.968H112.605C113.16 124.968 113.585 124.533 113.556 123.996C113.526 123.458 113.053 123.023 112.5 123.023Z" fill="#263238"/>
<path d="M124.254 148.492H81.8239C81.2695 148.492 80.8439 148.927 80.8735 149.464C80.9023 150.002 81.3751 150.437 81.9295 150.437H124.359C124.914 150.437 125.339 150.002 125.31 149.464C125.28 148.927 124.807 148.492 124.254 148.492Z" fill="#263238"/>
<path d="M113.48 141.023H81.4171C80.8635 141.023 80.4379 141.458 80.4667 141.996C80.4955 142.533 80.9683 142.968 81.5227 142.968H113.585C114.14 142.968 114.565 142.533 114.536 141.996C114.506 141.459 114.033 141.023 113.48 141.023Z" fill="#263238"/>
<path d="M161.775 113.026H154.068C153.767 113.026 153.509 112.789 153.494 112.497L153.09 105.028C153.074 104.736 153.305 104.5 153.607 104.5H161.314C161.615 104.5 161.873 104.736 161.888 105.028L162.292 112.497C162.308 112.789 162.077 113.026 161.775 113.026ZM154.557 111.969H161.173L160.827 105.557H154.21L154.557 111.969Z" fill="#016B83"/>
<path d="M162.801 131.995H155.094C154.793 131.995 154.537 131.759 154.521 131.466L154.117 123.997C154.101 123.705 154.333 123.469 154.633 123.469H162.341C162.641 123.469 162.899 123.705 162.914 123.997L163.318 131.466C163.333 131.759 163.102 131.995 162.801 131.995ZM155.582 130.938H162.199L161.852 124.526H155.235L155.582 130.938Z" fill="#016B83"/>
<path d="M163.772 149.995H156.065C155.764 149.995 155.507 149.759 155.491 149.466L155.087 141.997C155.071 141.705 155.303 141.469 155.604 141.469H163.311C163.612 141.469 163.869 141.705 163.885 141.997L164.289 149.466C164.305 149.759 164.074 149.995 163.772 149.995ZM156.554 148.938H163.17L162.824 142.527H156.207L156.554 148.938Z" fill="#016B83"/>
<path d="M139.38 81.0812H103.825L101.693 41.6562H137.248L139.38 81.0812Z" fill="white"/>
<path d="M157.813 111.047C157.804 111.047 157.795 111.047 157.786 111.046C157.478 111.039 157.18 110.906 156.966 110.679L154.862 108.445C154.445 108.002 154.461 107.335 154.897 106.955C155.333 106.574 156.024 106.624 156.441 107.067L157.71 108.414L162.497 103.236C162.888 102.813 163.578 102.794 164.036 103.196C164.495 103.598 164.55 104.266 164.158 104.69L158.586 110.717C158.392 110.928 158.112 111.047 157.813 111.047Z" fill="#FF8926"/>
<path d="M158.839 129.976C158.83 129.976 158.822 129.976 158.813 129.975C158.504 129.968 158.206 129.835 157.993 129.608L155.888 127.375C155.471 126.933 155.487 126.265 155.922 125.885C156.358 125.504 157.05 125.554 157.466 125.996L158.735 127.344L163.522 122.166C163.914 121.742 164.603 121.724 165.062 122.126C165.521 122.528 165.575 123.196 165.183 123.62L159.612 129.647C159.418 129.857 159.138 129.976 158.839 129.976Z" fill="#FF8926"/>
<path d="M159.828 148.248C159.82 148.248 159.811 148.248 159.802 148.248C159.493 148.241 159.196 148.107 158.982 147.881L156.877 145.647C156.46 145.206 156.476 144.537 156.912 144.157C157.348 143.777 158.039 143.826 158.456 144.269L159.724 145.616L164.512 140.439C164.903 140.016 165.592 139.997 166.051 140.4C166.51 140.801 166.564 141.47 166.172 141.894L160.601 147.92C160.407 148.13 160.127 148.248 159.828 148.248Z" fill="#FF8926"/>
<path d="M138.652 86.1953H105.104C104.55 86.1953 104.124 86.6302 104.154 87.1675C104.183 87.7048 104.655 88.1397 105.21 88.1397H138.758C139.312 88.1397 139.738 87.7048 139.708 87.1675C139.679 86.6302 139.207 86.1953 138.652 86.1953Z" fill="#263238"/>
<path d="M121.226 92.6797H105.456C104.902 92.6797 104.476 93.1146 104.505 93.6519C104.534 94.1884 105.007 94.6241 105.561 94.6241H121.332C121.887 94.6241 122.312 94.1891 122.283 93.6519C122.253 93.1154 121.78 92.6797 121.226 92.6797Z" fill="#263238"/>
<path d="M139.953 28.1172H97.5231C96.9687 28.1172 96.5431 28.5529 96.5727 29.0894C96.6015 29.6266 97.0743 30.0616 97.6287 30.0616H140.058C140.613 30.0616 141.038 29.6266 141.009 29.0894C140.979 28.5529 140.507 28.1172 139.953 28.1172Z" fill="#263238"/>
<path d="M125.856 66.0184C128.58 63.3087 128.4 58.8571 125.453 56.0755C122.507 53.2939 117.91 53.2356 115.186 55.9452C112.463 58.6549 112.643 63.1065 115.589 65.8881C118.536 68.6698 123.133 68.7281 125.856 66.0184Z" fill="#016B83"/>
<path d="M134.853 81.0822H108.359C108.09 74.0761 113.679 68.4375 120.925 68.4375C124.583 68.4375 127.976 69.8749 130.495 72.1999C132.975 74.4831 134.616 77.6105 134.853 81.0822Z" fill="#016B83"/>
</g>
<defs>
<clipPath id="clip0_10048_113227">
<rect width="400" height="312" fill="white" transform="translate(0.148926)"/>
</clipPath>
</defs>
</svg>
