<svg width="128" height="104" viewBox="0 0 128 104" fill="none" xmlns="http://www.w3.org/2000/svg">
<path d="M126.595 98.9132C126.595 100.403 114.251 101.776 94.3754 102.497C74.4994 103.217 50.2149 103.173 30.98 102.381C11.7451 101.589 0.58908 100.173 1.85747 98.684L64.1747 98.9132H126.595ZM58.3076 69.2355C58.3076 69.2355 61.648 77.012 64.2717 78.5827C66.8954 80.1534 87.6518 80.4909 89.6545 80.4909C91.6573 80.4909 93.7343 80.4204 93.7343 80.4204L93.4824 75.0522C93.4824 75.0522 72.5735 74.7184 70.6388 74.5483C68.7041 74.3783 66.6082 73.4752 65.5098 70.6122C64.4115 67.7492 58.5192 55.9169 58.5192 55.9169L58.3076 69.2355ZM69.8062 43.8995C69.8062 43.8995 74.1858 49.5083 78.5376 48.6317C82.8894 47.755 86.9049 46.0672 89.4354 47.8218C90.9609 48.9034 92.0495 50.4946 92.505 52.3083L91.6447 54.777H85.4879C85.4879 54.777 85.5219 53.0729 84.0205 52.6358C82.5191 52.1987 81.8276 51.016 81.1235 50.4429C80.4194 49.8698 78.5086 51.3246 78.2265 51.8284C77.9443 52.3322 77.2642 51.4896 76.589 51.7604C75.9139 52.0312 75.172 53.059 75.172 53.059C75.172 53.059 74.2362 53.6434 72.9879 50.8724C71.7397 48.1014 69.8062 43.897 69.8062 43.897V43.8995ZM44.6614 76.0636C44.6614 76.0636 40.7958 82.5944 39.181 85.2672C37.5663 87.94 36.1745 87.8908 36.1745 87.8908L37.2715 74.8884L34.9338 75.294L35.0295 69.9749C35.0295 69.9749 40.6837 64.2489 41.088 63.6998C41.4924 63.1506 42.4484 62.0548 42.4484 62.0548C42.4484 62.0548 43.6891 68.4004 43.8566 71.048C43.9733 72.7407 44.2427 74.4194 44.6614 76.0636ZM63.5575 95.156C63.5575 95.156 63.7943 97.7532 66.6964 97.5857C69.5984 97.4181 74.3545 97.5857 74.3545 97.5857C74.3545 97.5857 78.5036 98.5631 78.6371 94.9192C78.7706 91.2753 79.7833 88.4425 79.2102 87.4638C78.6371 86.4852 76.9165 87.3618 76.9165 87.3618C76.9165 87.3618 77.2868 92.8951 76.1406 93.807C74.9944 94.7189 71.8216 94.6887 69.2911 94.9192C66.7606 95.1497 63.5575 95.156 63.5575 95.156Z" fill="#F9E4CB"/>
<path d="M76.8563 54.3379C76.8298 54.1603 76.3437 52.4058 77.1082 52.0443C77.8728 51.6828 77.2606 53.7056 78.0113 53.2748C78.762 52.8441 79.3603 51.5971 80.3478 51.2759C81.3353 50.9547 81.6805 50.8981 82.2208 51.5971C82.7612 52.2962 83.5534 52.1287 84.3117 52.8567C85.07 53.5847 85.7363 54.678 85.5095 54.7712C85.2828 54.8644 77.1964 54.8216 77.151 54.8216C77.1057 54.8216 76.8563 54.3404 76.8563 54.3404V54.3379Z" fill="#F04E39"/>
<path d="M49.7605 49.9794C49.6345 49.9794 46.2538 47.8557 44.6076 47.2839C42.9613 46.7121 42.9374 46.1629 41.6489 47.1164C40.3603 48.0699 38.2858 50.361 37.2404 52.9381C36.1949 55.5151 36.4531 57.1122 34.9505 59.9513C33.4478 62.7903 31.3267 66.1382 30.4664 66.8965C29.6061 67.6547 30.3316 68.2631 30.3984 68.282C30.4651 68.3009 30.0356 69.209 26.529 67.1811C23.0223 65.1532 20.4452 63.7224 19.037 62.6014C17.6288 61.4804 15.9335 62.3092 15.0064 63.4365C14.0794 64.5638 15.1324 65.8939 16.1287 66.8473C17.125 67.8008 24.2088 72.8529 25.9294 73.2585C27.65 73.6641 29.4713 73.7812 30.9904 73.0217C32.5094 72.2622 39.6877 65.2276 39.6877 65.2276C39.6877 65.2276 42.2698 62.056 42.5217 61.4816C42.7736 60.9073 41.8139 61.0609 40.16 59.9702C38.5062 58.8794 38.1535 58.2332 39.0642 58.3176C39.9749 58.402 40.8856 59.6162 42.1842 59.6502C43.4828 59.6842 44.1755 60.5433 43.736 61.2524C43.2964 61.9615 44.0735 64.3559 44.4111 67.0552C44.7487 69.7544 45.6429 75.1856 45.9125 77.6493C46.182 80.113 46.3168 81.4771 46.114 83.6373C45.9112 85.7974 45.0522 86.4373 46.0309 87.7019C47.0096 88.9664 51.6813 88.5835 51.8841 86.0644C52.0869 83.5453 52.1033 80.5148 52.1033 80.5148L52.6436 69.0604L52.6096 60.6214L52.5416 54.869C52.5416 54.869 51.8677 51.972 49.758 49.9806L49.7605 49.9794Z" fill="#FDC47F"/>
<path d="M43.1822 45.2306C43.1822 45.2306 45.2164 43.8275 48.4548 42.612C51.6931 41.3965 54.8496 40.4166 55.8447 40.8196C56.8397 41.2227 56.4921 43.6184 56.9481 45.2709C57.404 46.9235 58.0615 49.0169 57.9771 50.0283C57.8927 51.0397 57.9356 51.7816 58.4117 51.973C58.8878 52.1645 59.0415 51.9491 59.3551 52.9517C59.6687 53.9543 60.0819 54.4783 59.733 54.5375C59.3841 54.5967 53.7336 54.4657 53.0295 54.3586C52.3254 54.2516 51.8002 52.0322 50.3215 50.3029C48.8427 48.5735 43.1797 45.2306 43.1797 45.2306H43.1822ZM62.5154 35.5471C62.3894 35.4993 58.9369 34.4261 58.1258 36.2865C57.3146 38.1469 56.9329 39.4115 57.7479 43.5151C58.5628 47.6187 58.8928 49.1693 58.8928 50.0761C58.8928 50.983 59.9181 50.7198 61.3742 50.4817C62.8303 50.2437 63.5923 49.9779 63.5684 48.9551C63.5444 47.9324 63.5444 42.5616 63.5684 41.9885C63.5923 41.4154 64.3317 41.5111 64.3556 42.5604C64.3795 43.6096 63.911 44.922 63.911 44.922C63.911 44.922 65.7159 43.4672 65.3103 45.2999C64.9048 47.1326 64.547 46.4222 64.7372 48.4488C64.9274 50.4754 65.0484 51.0498 64.9048 51.575C64.7612 52.1002 67.7438 53.1495 69.0614 53.0059C70.3789 52.8623 73.1159 50.9301 73.1159 50.9301C73.1159 50.9301 71.3991 46.47 68.822 42.4382C66.2449 38.4063 62.5242 35.5434 62.5242 35.5434L62.5154 35.5471ZM45.3751 42.6057C45.3751 42.6057 45.2403 39.7377 46.6234 38.0851C48.0064 36.4326 49.2886 36.2298 50.2005 36.8256C51.1125 37.4214 53.1693 39.7767 53.1693 39.7767C53.1693 39.7767 47.5857 41.025 45.3751 42.6107V42.6057Z" fill="#D1BFA9"/>
<path d="M59.7591 33.8291C59.1293 33.8215 58.429 33.9185 58.0171 34.091C57.5133 34.3014 56.7235 35.1869 56.4149 35.8834C56.0602 36.7932 55.8556 37.7546 55.8091 38.73V39.3283H54.9588C54.5876 39.3212 54.2165 39.3448 53.8492 39.3988C53.6426 39.4542 53.436 39.2855 52.8516 38.5826C51.4875 36.9452 49.7367 35.7663 48.4267 35.6025C46.8762 35.4085 45.3307 36.4149 44.7349 38.007C44.2172 39.3925 44.0585 40.2339 44.0459 41.6811C44.0308 43.2858 43.9326 43.5151 43.3859 43.2216C43.1029 43.1022 42.7988 43.041 42.4916 43.0415C42.0558 43.0415 41.8795 43.107 41.6918 43.3387C41.4046 43.6927 41.3819 44.2431 41.6338 44.7242L41.8165 45.0782L40.9726 45.6563C38.6827 47.2257 36.3248 50.585 35.2302 53.8359C35.0501 54.3725 34.7377 55.4733 34.5349 56.292C33.9265 58.7456 33.72 59.189 31.0925 63.5975C29.2321 66.7249 29.1943 66.7779 28.9185 66.5965C28.7648 66.4957 27.7383 65.9919 26.6374 65.4767C23.4368 63.9779 21.0953 62.5168 19.7967 61.2182C19.0926 60.5103 18.5371 60.2105 17.7348 60.1123C17.1251 60.0354 17.1213 60.0317 16.8959 59.3641C16.7699 58.9963 16.61 58.6348 16.5369 58.5618C16.4638 58.4887 16.4437 58.3237 16.5268 58.1033C16.6956 57.6586 16.3517 56.7807 15.8756 56.4419C14.8818 55.734 12.7594 55.3751 10.7593 55.5766C8.05243 55.8487 4.61381 56.8563 3.68676 57.6511C3.11744 58.1385 2.97007 58.5403 3.18293 59.0505C3.27043 59.2977 3.30977 59.5593 3.29882 59.8213C3.26229 60.3692 3.55073 60.7874 4.20697 61.1275C4.69442 61.3794 4.99798 61.4147 7.69976 61.5053C10.5867 61.596 12.1083 61.7459 12.4043 61.9651C12.4849 62.0243 12.8136 62.2838 13.1348 62.5407L13.7205 63.0093L13.5215 63.6302C13.1965 64.6454 13.3729 65.0611 14.4536 65.8281C14.9461 66.177 15.7963 66.8635 16.3429 67.3522C19.5309 70.2076 24.7103 73.4598 26.8452 73.9473C27.994 74.2105 29.4614 74.0329 30.7625 73.4749C31.4628 73.2129 32.9478 72.16 33.1972 71.9635C34.3279 71.1055 35.4118 70.1876 36.4444 69.2138C36.9092 68.7717 38.2078 67.4643 38.2078 67.4643L38.6172 67.0235C39.3905 66.1922 41.4084 63.7914 41.8379 63.1944C42.2032 62.6906 42.2813 62.6301 42.3619 62.8254C42.4878 63.1377 43.2612 68.2415 43.6592 71.4319C43.8368 72.8527 44.0069 74.0997 44.0371 74.203C44.0673 74.3062 44.1542 75.0443 44.2286 75.8404C44.3029 76.6364 44.4465 77.901 44.5472 78.6479C44.8231 80.6935 44.7828 82.5097 44.4024 85.0641C44.0699 87.3024 44.0673 88.1501 44.3898 88.572C44.4742 88.6803 44.8117 88.9033 45.1455 89.0658C45.4793 89.2282 45.7438 89.3844 45.7438 89.4109C45.7438 89.4373 45.4214 90.1162 45.0284 90.9223C44.3986 92.2247 44.3079 92.4918 44.2601 93.3407C44.1946 94.5033 44.4326 95.5071 45.1241 96.9934C45.3138 97.3728 45.4788 97.7641 45.6179 98.1648C45.6179 98.2316 43.6026 98.2693 40.7156 98.2542C37.1888 98.2366 34.4304 98.2631 34.4304 98.2631H29.1767C26.2961 98.2631 16.2031 98.2706 9.59667 98.2945L0.700321 98.326C0.700321 98.326 0 98.3852 0 98.6409C0 98.8966 0.700321 98.9558 0.700321 98.9558L8.32072 99.0188C19.9503 99.1145 119.513 99.1321 123.382 99.0377L126.783 98.9558C126.783 98.9558 127.5 98.9016 127.5 98.6409C127.5 98.3802 126.783 98.326 126.783 98.326L117.809 98.2933C112.957 98.2757 108.978 98.2202 108.843 98.1673L108.266 98.1925C108.266 98.1925 100.051 98.2479 99.0426 98.229L97.186 98.1938H96.3043L77.2281 98.2416L58.1582 98.2731H52.6261C52.6261 98.2731 52.3037 96.5097 51.1562 96.1999C50.5806 96.045 50.3022 94.6771 50.2065 92.5472C50.1624 91.5773 50.0969 90.5571 50.0616 90.28C49.9987 89.8026 50.0201 89.7623 50.4597 89.5242C51.1436 89.159 52.1135 88.0128 52.3578 87.2721C52.5228 86.7683 52.5493 86.4056 52.4838 85.4999C52.3729 84.059 52.3893 82.2377 52.538 79.1921C52.9259 71.2745 52.9788 69.2416 52.9738 62.3001V54.7277C52.7886 53.8762 53.7459 53.914 53.9814 53.9354C53.9736 53.903 53.9781 53.8689 53.994 53.8397C54.3794 52.9063 54.3857 50.0131 54.0041 48.8115C53.7446 47.9903 53.2156 47.3214 52.9813 47.5167C52.8491 47.6263 52.8554 47.7761 53.0506 48.3115C53.3781 49.2423 53.596 51.0674 53.5078 52.1216C53.4196 53.1759 53.1728 54.0009 52.9461 54.0009C52.8554 54.0009 52.6538 53.686 52.4976 53.3006C51.8427 51.6896 50.3173 49.7008 48.7983 48.4815C47.1067 47.1212 44.8294 45.7533 43.3103 45.1827C42.639 44.9308 42.2145 44.4849 42.2145 44.0327C42.2145 43.7808 42.2762 43.7355 42.6503 43.7355C42.9052 43.7382 43.1577 43.786 43.396 43.8766C43.6718 44.0025 44.0119 43.8766 46.4555 42.6938C49.7593 41.1017 50.6549 40.7705 52.4737 40.4657C53.96 40.2138 55.8179 40.0236 55.8179 40.1168C55.8179 40.1483 55.8771 40.4783 55.9438 40.8524C56.0106 41.2264 56.1592 42.1824 56.2625 42.9785C56.4953 44.7949 56.8317 46.5965 57.2702 48.3744C57.5284 49.3758 57.5687 49.76 57.5007 50.5157C57.4402 51.1845 57.4641 51.5233 57.5863 51.7551C57.7576 52.0763 58.5385 52.5524 58.8925 52.5524C59.0247 52.5524 59.0865 52.6784 59.0865 52.9303C59.1022 53.2113 59.1639 53.4879 59.2691 53.749L59.4505 54.3788C59.4505 54.3788 60.273 54.4065 60.2692 54.4002C60.011 53.9858 59.8321 53.1179 59.8636 52.6721C59.9039 52.1153 59.9064 52.1128 60.5337 51.9516C61.0297 51.8417 61.5404 51.8149 62.0452 51.8722C62.7871 51.9428 63.0125 52.0234 63.4937 52.3937C63.8073 52.6343 64.7533 53.1708 65.6073 53.584C66.4612 53.9971 67.1389 54.3573 67.1477 54.3951L70.3596 54.4354L71.0687 54.1445C71.929 53.7905 72.8322 53.2703 73.0576 53.0021C73.2831 52.7338 73.4355 52.7942 73.4355 53.6243V54.6219H74.1912V52.9063L74.4872 53.1381C74.651 53.264 75.0817 53.6092 75.4432 53.9039L76.3388 54.6004L77.6966 54.7062L76.5882 53.8938C76.102 53.5399 75.6851 53.1759 75.6523 53.0927C75.5717 52.8862 76.0919 52.1544 76.3992 52.0423C76.6306 51.9977 76.8696 52.0151 77.092 52.0927C77.4623 52.2123 77.5329 52.2954 77.5329 52.5965C77.5329 53.1331 77.7848 53.1268 78.1148 52.5826C78.5304 51.9075 79.2156 51.1744 79.6263 50.9628C79.8989 50.8455 80.1923 50.7839 80.4891 50.7815C80.9136 50.7815 81.0975 50.8684 81.5522 51.2853C81.8545 51.5636 82.1693 51.9541 82.2512 52.1506C82.3405 52.3366 82.4788 52.4947 82.6512 52.6079C82.8237 52.7211 83.0238 52.7851 83.2299 52.793C83.7035 52.793 84.5285 53.3308 84.8308 53.8359C84.9933 54.1092 85.2654 54.6974 85.2414 54.7705L85.9972 54.7088C85.8764 54.4804 85.7728 54.2434 85.6873 53.9996C85.4216 53.0058 84.8195 52.4882 83.5461 52.1645C83.0989 52.0511 82.9427 51.9201 82.5837 51.3583C81.998 50.4426 81.498 50.1114 80.6113 50.0471C79.6968 49.9804 79.159 50.2273 78.4171 51.0548L77.8578 51.6833L77.5278 51.4654C76.7721 50.9691 75.5503 51.3394 75.18 52.1733C75.088 52.3811 74.9822 52.5511 74.9432 52.5511C74.6913 52.5511 74.0149 51.5233 73.4456 50.2839C73.0803 49.4879 72.6117 48.4714 72.4052 48.0167C72.0617 47.3262 71.6833 46.6535 71.2715 46.0014C70.8521 45.3402 70.1379 44.1474 69.6946 43.3501C69.2512 42.5528 68.5773 41.438 68.2083 40.8712L66.2584 38.1632C64.8994 36.4716 63.4232 35.1554 62.2165 34.5609C61.6764 34.2901 61.1127 34.0691 60.5324 33.9008C60.2783 33.849 60.0197 33.8228 59.7603 33.8228L59.7591 33.8291ZM59.5009 34.5785C60.9758 34.5672 62.4067 35.3405 64.1247 37.0548C66.1111 39.0373 66.7043 39.8963 70.997 46.9851C71.3879 47.6669 71.7394 48.3705 72.05 49.0924C72.3434 49.7814 72.7478 50.6668 72.9468 51.0611L73.3083 51.7765L72.846 52.1821C72.0978 52.8396 70.4944 53.5298 69.3696 53.6797C68.9314 53.7458 68.4899 53.7879 68.047 53.8057C67.6452 53.7918 66.101 53.1066 64.5845 52.2677L63.4912 51.6631L63.7872 51.0712C64.2192 50.2071 64.2608 49.799 64.0542 48.4324C63.7746 46.5783 63.8023 46.3591 64.3351 45.611C64.8288 44.922 65.2722 43.8111 65.1651 43.5302C65.0304 43.1788 64.7495 43.3904 64.3477 44.1461L63.9308 44.9283L63.8678 42.981C63.8161 41.3713 63.7721 41.0325 63.6159 41.0325C63.3514 41.0325 63.267 41.6623 63.1675 44.3703C63.1108 45.946 63.1322 47.0469 63.2342 47.7711C63.5302 49.8582 63.5277 50.0547 63.2128 50.6681L62.9206 51.2349L61.8474 51.1908C60.6332 51.1417 59.8233 51.3168 59.4681 51.6946C59.2036 51.9793 58.8219 51.9365 58.4101 51.5687C58.2136 51.3949 58.1922 51.2425 58.2614 50.4804C58.3307 49.7184 58.2791 49.3468 57.9528 48.0205C57.4146 45.7406 57.0067 43.4318 56.7311 41.1055C56.5535 39.6205 56.5396 39.0902 56.6517 38.2085C56.828 36.823 57.2198 35.7889 57.8004 35.1856C58.2048 34.7624 58.3559 34.6931 59.0399 34.615C59.1925 34.5973 59.3459 34.5876 59.4996 34.586L59.5009 34.5785ZM47.9418 36.4552C48.5428 36.4522 49.1348 36.6017 49.6623 36.8898C50.2921 37.2261 52.5304 39.2389 52.5304 39.4656C52.5304 39.5235 52.3755 39.6041 52.184 39.6457C51.9926 39.6873 51.3275 39.8598 50.704 40.0311C50.0062 40.2226 48.6333 40.7995 47.1268 41.535L44.6833 42.7291L44.7601 41.6585C44.8861 39.822 45.4415 38.0675 46.1532 37.2236C46.5739 36.726 47.2238 36.4678 47.9418 36.4527V36.4552ZM42.5659 45.5492C42.6703 45.5593 42.7722 45.5874 42.867 45.6324C43.5282 45.8969 45.1984 46.8592 46.5449 47.751C47.6911 48.5067 50.1372 50.6719 50.1372 50.9238C50.0636 51.122 49.9614 51.3083 49.8337 51.4767C49.1195 52.5297 49.1245 54.933 49.845 56.4041C50.2518 57.2367 51.1046 58.034 51.8112 58.2456L52.315 58.3967L52.2407 64.5686C52.1953 68.4027 52.0858 71.8463 51.9535 73.6437C51.8112 75.5683 51.7331 78.2764 51.7192 81.7049C51.6991 86.6978 51.689 86.8867 51.432 87.3817C51.0794 88.0581 50.2745 88.7672 49.6762 88.9385C48.4229 89.2862 46.4693 89.0229 45.3118 88.3491C44.7765 88.0367 44.7626 87.7709 45.1556 85.1737C45.5335 82.6886 45.575 80.5587 45.2929 78.5169C45.1909 77.7763 44.9037 75.4701 44.6568 73.3918C44.1341 69.0098 43.4325 64.197 43.0698 62.5205C42.8733 61.6086 42.8493 61.3076 42.9652 61.1678C43.1844 60.9045 43.0143 60.6073 42.644 60.6073C41.7145 60.6073 39.5505 59.4623 38.6222 58.4799C38.2179 58.0529 37.9534 57.9836 37.84 58.2784C37.6209 58.8489 39.388 60.3062 41.1288 60.9952C41.6124 61.1854 42.0281 61.4046 42.0545 61.4814C42.1692 61.8265 38.3665 66.1947 35.6307 68.8574C32.8483 71.5667 31.1542 72.7104 29.2611 73.155C27.7748 73.5039 27.1639 73.3779 24.9874 72.2733C22.2541 70.8878 18.1718 68.1168 15.9185 66.1292C15.4222 65.6896 14.8012 65.1555 14.5329 64.9427L14.0555 64.556L14.2168 63.8355C14.3515 63.2297 14.5002 62.9815 15.1312 62.3077C15.9122 61.4739 16.9223 60.8592 17.5118 60.8592C18.0738 60.8646 18.6124 61.085 19.017 61.4751C20.3458 62.9085 22.5123 64.3116 26.1348 66.0876C27.7282 66.8685 29.4286 67.7654 29.9135 68.0815C30.4564 68.4354 30.8393 68.6105 30.9124 68.5387C31.095 68.3548 30.765 67.8586 30.1566 67.4051L29.6138 66.9983L30.2839 66.1015C30.6516 65.6077 31.3772 64.5245 31.8948 63.6932C33.7376 60.7345 34.6495 58.8099 34.9002 57.3488C35.0816 56.2958 35.8839 53.977 36.6031 52.429C37.7367 50.0043 39.7004 47.5003 41.5696 46.1148C42.154 45.6815 42.3568 45.5392 42.5546 45.543L42.5659 45.5492ZM50.6826 51.7967C50.903 51.7967 51.7029 53.2099 52.0177 54.1533C52.2193 54.7579 52.2797 55.2554 52.2797 56.326C52.2797 57.869 52.2268 57.9471 51.5819 57.3601C50.6612 56.5225 50.1385 55.2617 50.1385 53.8863C50.1372 52.9882 50.4483 51.7967 50.6826 51.7967ZM11.5578 56.36C13.4031 56.3298 15.072 56.7253 15.5444 57.3677C15.6829 57.5566 15.7723 57.7367 15.7421 57.767C15.7119 57.7972 15.3466 57.704 14.931 57.5591C14.3478 57.3538 13.7772 57.282 12.4118 57.2405C10.1698 57.1712 8.17587 57.4924 5.92502 58.2658C5.0597 58.5655 4.25861 58.8515 4.14651 58.8955C3.8631 59.0215 3.75856 58.6852 3.98024 58.3678C4.39086 57.7833 7.71235 56.7669 10.2642 56.4457C10.6931 56.3925 11.1245 56.3622 11.5566 56.355L11.5578 56.36ZM11.9092 58.0428C14.7496 58.0252 15.7585 58.4207 16.1918 59.7432C16.3077 60.0921 16.3832 60.3906 16.3593 60.4057C15.7399 60.7807 15.1735 61.237 14.6753 61.7623C14.3578 62.0998 14.0883 62.3744 14.0732 62.3719C14.0581 62.3694 13.6953 62.1024 13.2721 61.7812C12.5743 61.2547 12.5075 61.1665 12.6108 60.8995C12.903 60.1286 12.5982 58.9069 12.136 59.0026C11.9949 59.0316 11.9445 59.2545 11.9281 59.9435C11.9155 60.4398 11.8689 60.8831 11.8248 60.9285C11.7808 60.9738 11.5351 60.9713 11.2807 60.9285C10.9167 60.8604 10.8386 60.8025 10.9091 60.6375C11.1132 60.1715 11.1094 59.6034 10.9003 59.2847C10.6346 58.8779 10.4406 59.0328 10.3826 59.6828C10.3573 59.9449 10.2797 60.1992 10.1547 60.4309C9.9695 60.7131 9.96068 60.7143 7.34707 60.6514C4.57602 60.5859 4.03314 60.4775 4.03314 59.9913C4.03314 59.6664 4.43747 59.4724 6.11144 58.9938C8.70867 58.2519 9.8574 58.0642 11.9055 58.0516L11.9092 58.0428ZM46.4215 89.6905C46.4858 89.6972 46.5485 89.7151 46.6066 89.7434C46.7805 89.8127 47.4745 89.8769 48.1496 89.8845L49.3777 89.8971L49.3928 91.5975C49.4104 93.6909 49.4155 93.648 49.0716 94.4945C48.6799 95.4631 48.8487 95.8057 49.4495 95.2502L49.719 94.9983L49.8803 95.5374C50.0692 96.1671 50.5856 97.2201 50.762 97.3272C50.7785 97.3366 50.7967 97.3427 50.8156 97.3451C50.8345 97.3475 50.8537 97.3462 50.8721 97.3411C50.8904 97.3361 50.9076 97.3275 50.9227 97.3158C50.9377 97.3041 50.9503 97.2896 50.9597 97.273C50.98 97.2397 51.0073 97.2112 51.0397 97.1894C51.0721 97.1677 51.1088 97.1532 51.1474 97.1471C51.2733 97.1471 51.7772 97.9356 51.7772 98.1384C51.7772 98.3512 48.0073 98.3361 47.9443 98.1232C47.4846 96.6285 46.9314 95.1641 46.288 93.7387C45.9101 92.9376 45.6053 92.1151 45.6078 91.9124C45.6103 91.7096 45.7665 91.11 45.9542 90.5823C46.2061 89.8832 46.2779 89.7006 46.4278 89.7006L46.4215 89.6905ZM45.0359 92.92L45.4037 93.6128C45.6065 93.9906 46.1053 95.1242 46.5122 96.1319C46.919 97.1395 47.2855 98.03 47.3233 98.1157C47.3712 98.224 47.2666 98.2731 46.9946 98.2731C46.6167 98.2731 46.5701 98.2177 45.9768 96.9821C45.3143 95.5966 44.9314 94.211 44.9969 93.4112L45.0359 92.92Z" fill="#481913"/>
<path d="M69.6971 1.00304C67.6112 0.984144 65.0921 2.0258 63.1599 3.85342C61.2781 5.63318 60.3221 7.65603 60.336 9.82751C60.336 10.553 60.4229 11.2344 60.5501 11.6173C61.0262 13.0507 62.6133 13.6087 64.2633 12.921C64.8931 12.659 65.1878 12.3466 66.1804 10.8931C66.664 10.1827 67.314 9.37281 67.6364 9.09445C68.1793 8.61707 68.7297 8.35634 68.8784 8.50497C68.9149 8.5415 68.1554 10.121 67.1893 12.0154C65.3327 15.653 64.7054 17.274 64.1222 19.9304C63.7444 21.6737 63.7015 24.5543 64.0492 25.5481C64.3149 26.3126 64.9926 27.1439 65.6325 27.4941C66.0103 27.7006 66.2622 27.7347 67.0054 27.6893C68.013 27.6276 68.5534 27.3744 69.1051 26.7182C69.5573 26.1804 69.6731 25.606 69.6555 23.9598C69.6354 21.9004 69.8507 21.3147 71.6708 18.5084C72.6886 16.9251 73.9733 14.6214 74.4771 13.4764C75.0414 12.1879 75.34 10.5795 75.3437 8.81608C75.3437 6.38135 75.0238 5.42913 73.438 3.18585C72.7049 2.14924 72.38 1.80034 71.8812 1.52575C71.2076 1.16964 70.4551 0.989004 69.6933 1.00052L69.6971 1.00304ZM69.6454 1.79404C70.0936 1.78478 70.5401 1.85033 70.9667 1.98801C72.2918 2.43893 72.914 3.6141 72.7918 5.43543C72.6659 7.28194 72.0071 9.18261 69.6983 14.3254C67.2926 19.6873 66.5116 23.0957 67.1162 25.5997C67.2296 26.0708 67.2888 26.5469 67.2422 26.6577C67.1276 26.955 66.3882 26.9096 65.8881 26.5708C64.8893 25.8982 64.5643 24.8238 64.6802 22.5755C64.7684 20.8587 65.0858 19.3082 65.7609 17.2854C66.2761 15.7437 66.7094 14.8103 68.6315 11.082C69.8533 8.71406 70.1216 7.88401 70.0271 6.74915C69.9087 5.32458 69.0005 4.64064 67.6188 4.93538C66.6111 5.14951 65.9939 5.50974 65.2256 6.3209C64.3175 7.27312 63.7519 8.45459 63.3249 10.291C62.8639 12.2711 62.4697 12.7144 61.7039 12.1123C61.2869 11.7849 60.9909 10.8137 60.9909 9.77586C60.9909 8.85261 61.4771 7.34869 62.1245 6.29067C63.6587 3.76021 67.0835 1.81545 69.653 1.79404H69.6454ZM73.7907 5.32081C73.865 5.33466 73.9569 5.53493 74.098 5.89013C74.3713 6.57407 74.3978 6.83102 74.4016 8.72161C74.4016 10.3653 74.3537 10.9964 74.1623 11.7446C73.8549 12.9474 72.6092 15.3796 70.9365 18.0423C70.2185 19.186 69.4628 20.5174 69.2562 21.0036C68.9098 21.8172 68.8784 22.0352 68.8091 23.8653C68.7398 25.6954 68.7159 25.8667 68.4526 26.1325C68.2146 26.3718 68.1692 26.3844 68.1692 26.203C68.1199 25.9464 68.0288 25.6997 67.8997 25.4725C67.6604 25.0128 67.6389 24.8276 67.7082 23.8351C67.8909 21.2756 68.7297 18.6079 70.8723 13.7775C72.4895 10.1336 73.2465 8.03642 73.4682 6.58666C73.6068 5.69238 73.6811 5.30947 73.7907 5.3271V5.32081ZM68.0445 5.69867C68.3556 5.69867 68.6743 5.74024 68.7499 5.79062C69.0207 5.972 69.1781 6.44181 69.1781 7.07159V7.70893H68.6919C67.7712 7.70893 66.9071 8.46466 65.5531 10.4397C64.8931 11.4057 64.4434 11.9335 64.126 12.1098C63.4358 12.4978 63.4206 12.4877 63.694 11.8327C63.8712 11.3176 64.0155 10.7917 64.126 10.2583C64.7193 7.53889 66.2988 5.70245 68.0445 5.69867ZM67.0155 29.2877C66.8013 29.2877 66.5671 29.3482 66.1338 29.4943C65.7005 29.6404 65.2256 29.8721 65.0971 29.9817C64.1651 30.8218 64.3956 32.7527 65.5115 33.4493C65.97 33.7339 67.0003 33.7125 67.4979 33.409C68.333 32.9051 68.8658 31.5612 68.6201 30.5876C68.4942 30.0837 67.9337 29.5169 67.4147 29.362C67.2844 29.3174 67.1481 29.2924 67.0104 29.2877H67.0155ZM66.9386 30.1467C67.1175 30.1467 67.2535 30.2273 67.4601 30.3898C68.0496 30.8546 67.8518 32.0272 67.0822 32.6369C66.3957 33.1772 65.5795 32.7628 65.3276 31.7325C65.184 31.1493 65.47 30.6858 66.1539 30.3911C66.5318 30.2286 66.7572 30.148 66.9361 30.148L66.9386 30.1467ZM75.6019 35.486C70.4906 35.486 70.0913 35.4998 69.6467 35.7203C69.0068 36.0389 68.3972 36.7733 67.6843 38.0882L67.0545 39.2458L67.5268 39.902L68.4085 38.3565C69.5422 36.374 69.5661 36.3601 71.7968 36.2657C73.8247 36.1787 83.1153 36.3626 86.1823 36.5491C87.326 36.6196 89.4572 36.675 90.9145 36.675C93.8985 36.675 94.5786 36.801 95.1794 37.4232C95.8382 38.1096 95.7941 38.4913 94.5093 43.3771C92.9979 49.1157 92.0821 52.2003 91.5191 53.4309L91.0594 54.4386H88.6309C88.078 54.4386 82.284 54.5645 81.2574 54.5582L70.3747 54.4323L67.1628 54.3907C67.1628 54.4411 58.434 54.1589 58.434 54.1589C57.8659 54.1438 56.6165 54.1136 55.663 54.0922C54.3757 54.0632 54.0356 54.0431 53.9953 53.9322C53.761 53.9108 52.8037 53.873 52.9876 54.7245L55.0029 54.7736C56.1139 54.8026 57.2702 54.8555 57.5712 54.892L58.1191 54.96L58.0486 55.4853C57.9705 56.0659 57.8798 62.4418 57.7727 74.9051C57.6972 83.6188 57.5208 93.3514 57.3823 96.4121L57.2991 98.2687H58.1808L58.2577 95.2155C58.3307 92.2215 58.5335 77.1535 58.6796 63.7203C58.7199 59.9932 58.7804 56.9703 58.8131 57.003C58.8459 57.0358 59.3976 58.2424 60.0412 59.6859C61.5918 63.1673 62.748 65.631 64.1978 68.557C67.0948 74.3786 67.4727 74.72 71.3988 74.9606C75.539 75.2125 79.7774 75.3472 86.4418 75.4304L93.1918 75.5122L93.2787 78.7984C93.4223 84.3115 93.6957 88.1544 94.2864 92.9597L94.5698 95.2684L95.216 95.8554C95.9478 96.5217 96.2513 97.052 96.2904 97.7359L96.3193 98.2057H97.201L97.1028 97.523C96.971 96.675 96.5414 95.9016 95.8911 95.3415L95.3873 94.8868L95.0661 92.2656C94.6277 88.6784 94.396 85.8079 94.2423 82.0859C94.0975 78.5276 94.008 76.9418 93.906 76.0715L93.8355 75.4732L95.1379 75.4656C98.4039 75.443 99.559 75.1382 100.05 74.1721C100.286 73.7111 100.302 73.5108 100.243 72.3797C100.185 71.3721 100.065 70.7813 99.6648 69.5432C99.3876 68.6829 98.7579 66.5631 98.2641 64.8312C97.3232 61.5274 96.3521 58.4666 95.7059 56.77C95.415 56.0067 95.1794 55.6263 94.7323 55.1893L94.1415 54.6136L94.6794 52.6689C94.9754 51.5983 95.3646 50.185 95.5447 49.5275C95.7248 48.8701 96.1292 47.4518 96.4428 46.3786C97.9543 41.2069 98.1432 39.9662 97.6066 38.8062C97.2691 38.0782 97.036 37.8074 96.0057 36.9458C94.9754 36.0843 94.2184 35.8979 91.6514 35.8487C90.4737 35.8261 87.6119 35.7354 85.2918 35.6472C82.9717 35.559 78.606 35.4847 75.5931 35.4847L75.6019 35.486ZM96.4554 38.383L96.735 38.912C97.264 39.9196 97.0537 41.2371 95.5523 46.3182C95.2449 47.3573 94.7386 49.1698 94.4275 50.3488C94.1164 51.5277 93.7423 52.8591 93.5962 53.31C93.45 53.7609 93.2674 54.1854 93.1893 54.2572C93.0634 54.368 92.227 54.3718 92.227 54.2572C92.227 54.2345 92.3744 53.8277 92.5545 53.3516C93.61 50.5579 96.1997 40.9903 96.3697 39.2609L96.4554 38.383ZM59.5424 54.9462C59.9707 54.9462 60.2352 55.0003 60.2352 55.0872C60.2352 55.3517 62.646 61.2843 63.3728 62.8096C63.7721 63.6459 64.5265 65.1373 65.0505 66.1235C65.5745 67.1097 66.3592 68.7207 66.7976 69.7032C67.6856 71.6933 68.1113 72.2223 69.294 72.8004C69.8092 73.0523 70.1946 73.1405 70.8685 73.1594C71.3584 73.1732 72.5248 73.274 73.4607 73.3836C76.9119 73.7866 79.7976 73.8874 87.9457 73.895C95.1719 73.9013 96.206 73.8773 97.3056 73.6796C97.9845 73.5536 98.773 73.3408 99.0551 73.1959L99.569 72.9339L99.4884 73.3433C99.3171 74.1998 98.8977 74.4026 96.9302 74.5814C94.0332 74.8459 77.0504 74.6003 71.201 74.2036C67.7712 73.9743 67.5256 73.7174 64.2734 66.9422C61.9142 62.0299 58.8497 55.2686 58.8497 54.9764C58.8497 54.9525 59.1608 54.9348 59.5424 54.9348V54.9462ZM60.8473 55.0444L63.9736 55.12C71.3899 55.3001 85.3246 55.3442 88.9521 55.1993C92.4499 55.0595 92.7082 55.0646 93.3505 55.2812C93.8169 55.4237 94.227 55.7087 94.5232 56.0961C95.0761 56.7524 95.5762 58.25 97.5877 65.2733C98.1734 67.3188 98.7868 69.4437 98.9518 69.9966C99.1168 70.5496 99.2907 71.2423 99.3385 71.532C99.4229 72.0359 99.4091 72.0699 98.9443 72.3772C98.6407 72.5775 98.0412 72.7752 97.3283 72.91C96.3735 73.0926 95.2676 73.1304 90.3376 73.1506C83.5863 73.1795 78.5216 73.0485 75.2858 72.7626C74.0388 72.653 72.4127 72.5107 71.6721 72.4553C70.3155 72.3457 69.4049 72.0661 68.8809 71.5988C68.4929 71.2512 68.1251 70.605 67.3694 68.8958C66.9726 68.0141 66.2169 66.4825 65.6891 65.495C64.5419 63.3722 63.5174 61.1854 62.6208 58.9453C62.146 57.7877 61.5527 56.435 61.3033 55.9412L60.8473 55.0444ZM38.2204 67.4775L37.9144 67.7836C37.7468 67.9511 37.6133 68.0846 37.3261 68.3693C37.3539 68.4776 37.0087 72.8722 36.8639 74.1733L36.7908 74.8233L36.0011 74.9606C35.384 75.0496 34.7616 75.0959 34.1382 75.0991C33.2288 75.0991 33.0046 75.055 32.6368 74.8107C32.2173 74.5285 32.0977 74.2628 32.1947 73.6544C32.2148 73.5284 32.2073 72.75 32.4239 72.5208L32.3823 72.5472C32.0687 72.7576 31.7148 72.9843 31.3898 73.1695L31.3495 73.1947L31.3394 73.9642C31.3281 74.8308 31.5762 75.2477 32.3471 75.6495C32.9403 75.9606 34.4065 76.0564 35.7403 75.8725C36.2253 75.8057 36.6422 75.7692 36.6661 75.7906C36.6901 75.812 36.5641 77.4129 36.3777 79.3375C35.8877 84.5924 35.2945 92.3412 35.2945 93.4937C35.2945 94.3452 35.2453 94.5971 34.9871 95.0367C34.5375 95.8025 34.2629 96.9575 34.3573 97.6729L34.4367 98.2687H35.8298C35.6774 98.2296 35.5653 98.0382 35.4733 97.9651C35.1509 97.7132 35.1332 97.6452 35.2075 97.0066C35.2904 96.5121 35.4457 96.0325 35.6686 95.5833C35.9305 95.0732 36.0464 94.6588 36.0464 94.2608C36.0464 93.1373 36.8941 82.7207 37.6713 74.2829C37.806 72.8281 37.9824 70.702 38.0655 69.5596L38.2204 67.4775ZM66.7446 83.62C65.014 83.62 63.568 83.6792 63.1939 83.7838C62.5855 83.9551 61.9218 84.5786 61.8172 85.0773C61.6673 85.7953 61.4935 88.7729 61.4935 90.6345C61.4935 94.7344 61.7882 95.1261 64.9573 95.2546C69.2739 95.4296 74.1056 95.276 75.3173 94.9271C75.7169 94.8134 76.0874 94.6151 76.4036 94.3456C76.7198 94.0761 76.9743 93.7418 77.1499 93.3652C77.3704 92.8614 77.4019 92.4256 77.4598 89.2087C77.5152 86.124 77.4951 85.5434 77.3263 85.1416C76.9383 84.2208 76.2468 84.042 72.0122 83.7636C70.4931 83.6628 68.4766 83.6162 66.7446 83.62ZM65.7521 84.4287C68.3443 84.4413 75.7632 84.867 76.1927 85.0446C76.6814 85.2461 76.7733 85.9691 76.6852 88.885C76.5832 92.2014 76.5189 92.7619 76.1813 93.2657C75.7304 93.9434 75.2341 94.0983 73.0715 94.2368C70.6317 94.393 67.1364 94.4459 64.7885 94.3628C63.0151 94.3011 62.9773 94.2935 62.6888 93.9597C62.481 93.7167 62.3714 93.3904 62.311 92.8261C62.2026 91.7996 62.4697 85.4577 62.6334 85.1504C62.9357 84.5874 63.3375 84.479 65.2987 84.4312H65.7483L65.7521 84.4287ZM19.308 86.1278L19.3156 86.1391H19.3811C19.3568 86.1355 19.3322 86.1355 19.308 86.1391V86.1278ZM19.3156 86.1391H19.2236C18.4024 86.2072 18.3999 86.3734 19.1682 90.2957C19.5385 92.185 19.866 93.8313 19.8962 93.9484C19.9428 94.131 19.8824 94.1525 19.4995 94.0895C18.716 93.9635 18.6178 94.1588 18.7349 95.5581C18.8726 97.1452 18.8483 98.05 18.6618 98.2725C18.6618 98.2725 18.6618 98.2725 18.6505 98.2725H19.4692C19.4673 98.2599 19.4673 98.2472 19.4692 98.2347C19.5813 97.8782 19.5876 97.1011 19.4843 95.9675C19.3773 94.7873 19.4327 94.7281 20.0965 95.3112C20.6507 95.7974 20.9379 96.5456 20.9669 97.5785L20.987 98.27H21.8095V97.6616C21.8095 96.6539 21.5576 95.7983 21.0538 95.0946C20.7301 94.6449 20.6192 94.2935 20.4114 93.0692C20.2728 92.2556 19.9932 90.6912 19.7892 89.5928C19.5851 88.4945 19.4113 87.4516 19.4113 87.2677C19.4113 86.9503 19.4365 86.9616 20.0411 87.5624C20.8487 88.3296 21.4715 89.2702 21.8624 90.3133C22.302 91.486 22.438 92.1838 22.603 94.092C22.6962 95.1727 22.797 95.7395 22.9003 95.7735C23.1598 95.8592 23.3109 95.2218 23.3109 94.029C23.3109 92.7014 23.5893 91.7694 23.8538 92.2153C23.9495 92.3765 24.0012 93.0743 24.0012 94.1676C24.0012 95.7798 23.976 95.931 23.5603 97.1275L23.1635 98.2611H24.0024C24.0578 98.1087 24.1284 97.7775 24.2392 97.4538C25.1612 94.8868 24.937 91.1409 23.8613 91.1409C23.6618 91.1446 23.4685 91.2106 23.3084 91.3298C23.1169 91.5036 23.0804 91.4557 22.8801 90.734C22.5262 89.414 21.8536 88.293 20.7364 87.1468C20.3246 86.7318 19.8444 86.391 19.3168 86.1391H19.3156ZM72.9203 86.9856C72.2616 86.9793 71.4504 87.0007 70.4969 87.0523C69.1807 87.1229 67.2069 87.2186 66.1098 87.2652C64.0467 87.3534 63.7695 87.4403 64.1373 87.8836C64.3326 88.1179 64.7079 88.1179 70.4239 87.8836C74.9029 87.6997 75.4319 87.6317 74.9331 87.2539C74.7026 87.0838 74.0199 86.9919 72.9178 86.9805L72.9203 86.9856ZM108.785 88.0738C107.181 88.0738 104.334 91.0502 103.107 94.0114L102.642 95.1349L102.34 94.5958C101.97 93.9346 101.729 93.7418 101.274 93.7418C101.007 93.7418 100.871 93.8401 100.705 94.1512C100.417 94.6928 100.421 96.7031 100.713 97.5205C100.824 97.8316 100.948 98.2498 100.948 98.2498H101.778C101.787 98.2498 101.766 98.2422 101.763 98.2397C101.398 97.6377 101.097 94.6248 101.402 94.6248C101.462 94.6248 101.717 94.9372 101.969 95.315C102.363 95.9083 102.43 96.1098 102.43 96.732C102.43 97.9714 102.838 98.1591 102.998 96.9965C103.29 94.8717 104.925 91.855 106.684 90.1949C107.553 89.375 108.605 88.7414 108.848 88.8913C109.205 89.1117 108.905 90.3373 107.792 93.2103C107.422 94.1613 106.993 95.3327 106.835 95.8113C106.665 96.3173 106.426 96.7975 106.125 97.2384C105.892 97.5432 105.702 97.9022 105.702 98.0357C105.702 98.0772 105.68 98.2284 105.68 98.2284H106.338C106.335 98.2088 106.333 98.189 106.332 98.1692C106.332 97.9954 107.697 96.8038 107.982 96.7283C108.266 96.6527 108.385 96.989 108.324 97.7258L108.284 98.2145L108.861 98.1893C108.861 98.1377 108.921 97.848 108.987 97.5444C109.226 96.5116 108.75 95.7811 107.944 95.941C107.673 95.9952 107.585 95.9725 107.629 95.8592C107.662 95.7722 108.071 94.7394 108.537 93.5617C109.525 91.0665 109.923 89.6382 109.804 89.0084C109.692 88.4089 109.332 88.0814 108.788 88.0814L108.785 88.0738ZM69.0056 90.7189C68.7184 90.7189 68.2851 90.7315 67.6314 90.7579C65.6614 90.8373 64.16 91.0275 63.9623 91.2227C63.9305 91.2701 63.9112 91.3247 63.9061 91.3815C63.901 91.4383 63.9104 91.4955 63.9333 91.5477C64.0063 91.7366 64.1562 91.7517 65.2407 91.6736C67.0142 91.5477 68.9413 91.3298 69.2713 91.2063C69.3428 91.1835 69.4069 91.1419 69.4567 91.0859C69.5066 91.0298 69.5404 90.9613 69.5547 90.8877C69.5547 90.7617 69.4855 90.7176 69.0081 90.7139L69.0056 90.7189Z" fill="#F04E39"/>
</svg>
