<svg width="299" height="298" viewBox="0 0 299 298" fill="none" xmlns="http://www.w3.org/2000/svg">
<path d="M149.5 298C231.79 298 298.5 231.29 298.5 149C298.5 66.7096 231.79 0 149.5 0C67.2096 0 0.5 66.7096 0.5 149C0.5 231.29 67.2096 298 149.5 298Z" fill="#E4FAFF"/>
<path d="M281.736 239.201C281.813 242.075 279.545 244.468 276.67 244.545C273.796 244.621 263.339 239.692 263.339 239.692C263.339 239.692 273.518 234.211 276.393 234.135C279.267 234.058 281.66 236.326 281.736 239.201Z" fill="#CCE1E6"/>
<path d="M226.449 241.028C226.255 241.028 226.096 240.874 226.09 240.679C226.085 240.48 226.242 240.315 226.44 240.31L277.283 238.954C277.492 238.939 277.646 239.105 277.651 239.303C277.657 239.502 277.5 239.666 277.302 239.672L226.459 241.028C226.456 241.028 226.452 241.028 226.449 241.028Z" fill="white"/>
<path d="M268.876 225.422C270.247 227.357 269.789 230.037 267.853 231.408C265.918 232.778 256.49 234.194 256.49 234.194C256.49 234.194 260.955 225.77 262.89 224.399C264.825 223.029 267.505 223.487 268.876 225.422Z" fill="#016B83"/>
<path d="M248.159 240.456C248.047 240.456 247.936 240.403 247.866 240.304C247.751 240.142 247.79 239.918 247.951 239.804L265.342 227.488C265.504 227.373 265.728 227.412 265.842 227.573C265.957 227.735 265.919 227.959 265.757 228.074L248.366 240.389C248.303 240.434 248.231 240.456 248.159 240.456Z" fill="white"/>
<path d="M256.801 248.002C254.625 246.629 244.327 245.641 244.327 245.641C244.327 245.641 249.653 254.509 251.829 255.882C254.005 257.255 256.882 256.604 258.255 254.428C259.628 252.252 258.977 249.375 256.801 248.002Z" fill="#CCE1E6"/>
<path d="M254.261 252.268C254.196 252.268 254.13 252.251 254.07 252.213L236.048 240.842C235.88 240.737 235.83 240.515 235.936 240.347C236.041 240.179 236.264 240.129 236.431 240.235L254.453 251.606C254.621 251.712 254.671 251.933 254.566 252.101C254.497 252.209 254.381 252.268 254.261 252.268Z" fill="white"/>
<path d="M242.268 290.685C240.793 287.474 241.312 273.273 241.312 273.273C241.312 273.273 252.424 282.131 253.899 285.342C255.375 288.554 253.967 292.354 250.755 293.829C247.544 295.305 243.744 293.897 242.268 290.685Z" fill="#CCE1E6"/>
<path d="M248.475 289.221C248.339 289.221 248.209 289.143 248.148 289.012L222.051 232.204C221.968 232.024 222.047 231.811 222.227 231.728C222.407 231.645 222.621 231.724 222.703 231.905L248.801 288.712C248.883 288.892 248.805 289.105 248.624 289.188C248.576 289.21 248.525 289.221 248.475 289.221Z" fill="white"/>
<path d="M252.855 274.364C250.371 272.839 244.216 262.867 244.216 262.867C244.216 262.867 255.894 263.844 258.378 265.369C260.862 266.894 261.639 270.144 260.114 272.628C258.589 275.112 255.339 275.89 252.855 274.364Z" fill="#CCE1E6"/>
<path d="M255.844 270.368C255.78 270.368 255.715 270.351 255.656 270.315L233.335 256.611C233.166 256.507 233.113 256.286 233.217 256.117C233.321 255.948 233.542 255.894 233.711 255.999L256.032 269.703C256.201 269.807 256.254 270.028 256.15 270.197C256.082 270.307 255.964 270.368 255.844 270.368Z" fill="white"/>
<path d="M228.762 269.894C229.262 266.772 225.404 254.656 225.404 254.656C225.404 254.656 217.954 264.96 217.453 268.082C216.953 271.205 219.079 274.142 222.201 274.642C225.324 275.143 228.261 273.017 228.762 269.894Z" fill="#CCE1E6"/>
<path d="M223.12 269.276C223.101 269.276 223.082 269.274 223.063 269.271C222.867 269.24 222.734 269.056 222.765 268.86L226.909 242.998C226.94 242.802 227.125 242.668 227.32 242.7C227.516 242.731 227.649 242.916 227.618 243.111L223.474 268.974C223.446 269.15 223.293 269.276 223.12 269.276Z" fill="white"/>
<path d="M43.2292 42.9062C44.785 39.8182 48.5494 38.576 51.6374 40.1318C54.7254 41.6876 62.9928 52.8633 62.9928 52.8633C62.9928 52.8633 49.0915 52.8701 46.0036 51.3143C42.9156 49.7587 41.6734 45.9941 43.2292 42.9062Z" fill="#CCE1E6"/>
<path d="M102.621 73.1886C102.566 73.1886 102.511 73.1764 102.459 73.1502L47.8415 45.6331C47.6643 45.5438 47.593 45.3281 47.6824 45.1509C47.7714 44.9739 47.9875 44.9022 48.1645 44.9916L102.782 72.5089C102.96 72.5982 103.031 72.8139 102.942 72.9911C102.878 73.1163 102.752 73.1886 102.621 73.1886Z" fill="white"/>
<path d="M49.0028 64.8261C48.6534 61.9961 50.6645 59.4186 53.4945 59.0692C56.3245 58.7197 67.1158 62.59 67.1158 62.59C67.1158 62.59 57.5898 68.9685 54.7598 69.3178C51.9297 69.6672 49.3521 67.6563 49.0028 64.8261Z" fill="#CCE1E6"/>
<path d="M53.8671 64.5841C53.6884 64.5841 53.5337 64.4509 53.5113 64.269C53.487 64.0721 53.6271 63.893 53.8236 63.8686L79.2544 60.729C79.4518 60.7064 79.6304 60.8444 79.6548 61.0413C79.6791 61.2382 79.5391 61.4173 79.3425 61.4417L53.9117 64.5813C53.8967 64.5833 53.8817 64.5841 53.8671 64.5841Z" fill="white"/>
<path d="M74.6491 47.7901C76.1718 50.4833 86.5143 57.3939 86.5143 57.3939C86.5143 57.3939 85.925 44.969 84.4023 42.2756C82.8796 39.5824 79.4618 38.6334 76.7684 40.1561C74.0752 41.6792 73.1263 45.0969 74.6491 47.7901Z" fill="#CCE1E6"/>
<path d="M92.1742 67.758C92.049 67.758 91.9274 67.6924 91.8613 67.5756L79.2502 45.2702C79.1526 45.0976 79.2134 44.8786 79.386 44.7809C79.5586 44.6833 79.7778 44.7442 79.8753 44.9167L92.4864 67.2221C92.5839 67.3947 92.5232 67.6137 92.3506 67.7114C92.2949 67.743 92.234 67.758 92.1742 67.758Z" fill="white"/>
<path d="M114.345 10.8653C114.079 15.107 105.442 29.8502 105.442 29.8502C105.442 29.8502 98.7184 14.1425 98.9848 9.9008C99.2512 5.6591 102.905 2.43663 107.147 2.70288C111.389 2.96913 114.612 6.62361 114.345 10.8653Z" fill="#CCE1E6"/>
<path d="M102.024 84.64C102.017 84.64 102.009 84.6399 102.002 84.6394C101.804 84.627 101.653 84.4564 101.666 84.2587L106.377 9.23529C106.389 9.0376 106.564 8.88518 106.758 8.89935C106.956 8.91189 107.106 9.08238 107.094 9.28007L102.382 84.3034C102.371 84.4936 102.212 84.64 102.024 84.64Z" fill="white"/>
<path d="M93.8446 22.1096C95.6069 25.1393 96.4465 39.2053 96.4465 39.2053C96.4465 39.2053 84.6353 31.5209 82.873 28.4912C81.1107 25.4615 82.1383 21.5768 85.1681 19.8147C88.1978 18.0524 92.0823 19.0799 93.8446 22.1096Z" fill="#CCE1E6"/>
<path d="M104.032 52.6146C103.909 52.6146 103.788 52.5506 103.722 52.4362L87.8869 25.2116C87.7871 25.0402 87.8454 24.8203 88.0167 24.7208C88.1882 24.6205 88.4079 24.6795 88.5075 24.8506L104.342 52.0751C104.442 52.2466 104.384 52.4664 104.212 52.5659C104.156 52.599 104.093 52.6146 104.032 52.6146Z" fill="white"/>
<path d="M116.813 40.5659C114.504 43.5881 111.691 58.616 111.691 58.616C111.691 58.616 125.449 51.9469 127.757 48.9248C130.065 45.9026 129.486 41.5814 126.464 39.2731C123.442 36.965 119.121 37.5438 116.813 40.5659Z" fill="#CCE1E6"/>
<path d="M103.112 70.2087C103.036 70.2087 102.959 70.1846 102.894 70.135C102.736 70.0145 102.706 69.7893 102.827 69.6317L121.943 44.6021C122.063 44.4445 122.288 44.4142 122.446 44.5347C122.604 44.6552 122.634 44.8804 122.514 45.0381L103.397 70.0676C103.327 70.1601 103.22 70.2087 103.112 70.2087Z" fill="white"/>
<path d="M61.9528 236.539L291.853 236.539V73.5146L61.9528 73.5146L61.9528 236.539Z" fill="#016B83"/>
<path d="M284.64 215.352V80.7266L69.1655 80.7266L69.1655 215.352L284.64 215.352Z" fill="#CCE1E6"/>
<path d="M152.703 239.992H159.509C159.509 245.098 163.648 249.237 168.754 249.237H185.052C190.158 249.237 194.297 245.098 194.297 239.992H201.103L207.909 276.163V279.188H145.896V276.163L152.703 239.992Z" fill="#016B83"/>
<path d="M207.909 283.327H145.896C145.698 283.327 145.537 283.167 145.537 282.968C145.537 282.77 145.698 282.609 145.896 282.609H207.909C208.108 282.609 208.268 282.77 208.268 282.968C208.268 283.167 208.108 283.327 207.909 283.327Z" fill="#016B83"/>
<path d="M154.638 158.965H143.909C143.71 158.965 143.549 158.804 143.549 158.606V155.733C142.205 155.472 140.87 155.115 139.571 154.669L138.136 157.155C138.088 157.238 138.01 157.298 137.918 157.322C137.826 157.348 137.728 157.334 137.645 157.287L128.353 151.922C128.27 151.874 128.21 151.796 128.186 151.704C128.161 151.612 128.174 151.514 128.221 151.431L129.661 148.938C128.628 148.038 127.651 147.061 126.751 146.029L124.258 147.468C124.176 147.516 124.077 147.529 123.986 147.504C123.894 147.48 123.816 147.419 123.768 147.337L118.403 138.044C118.304 137.873 118.363 137.653 118.534 137.554L121.021 136.118C120.575 134.821 120.218 133.485 119.957 132.14H117.084C116.885 132.14 116.725 131.979 116.725 131.781V121.051C116.725 120.853 116.885 120.692 117.084 120.692H119.957C120.218 119.347 120.575 118.011 121.021 116.714L118.534 115.278C118.363 115.179 118.304 114.96 118.403 114.788L123.768 105.495C123.816 105.413 123.894 105.353 123.986 105.328C124.078 105.304 124.176 105.317 124.258 105.364L126.751 106.803C127.651 105.771 128.628 104.794 129.661 103.894L128.221 101.401C128.174 101.319 128.161 101.221 128.186 101.129C128.21 101.037 128.27 100.958 128.353 100.911L137.645 95.5456C137.728 95.498 137.826 95.4852 137.918 95.5098C138.01 95.5344 138.088 95.5946 138.136 95.677L139.571 98.1634C140.869 97.7177 142.204 97.3606 143.549 97.0993V94.2263C143.549 94.0279 143.71 93.8672 143.909 93.8672H154.638C154.837 93.8672 154.997 94.0279 154.997 94.2263V97.0993C156.342 97.3606 157.678 97.7177 158.976 98.1634L160.411 95.677C160.459 95.5946 160.537 95.5344 160.629 95.5098C160.721 95.4852 160.819 95.498 160.902 95.5456L170.194 100.911C170.277 100.958 170.337 101.037 170.361 101.129C170.386 101.221 170.373 101.319 170.326 101.401L168.886 103.894C169.919 104.794 170.896 105.771 171.796 106.803L174.289 105.364C174.371 105.316 174.469 105.304 174.561 105.328C174.653 105.353 174.731 105.413 174.779 105.495L180.144 114.788C180.243 114.96 180.184 115.179 180.012 115.278L177.526 116.714C177.972 118.011 178.329 119.347 178.59 120.692H181.463C181.662 120.692 181.822 120.853 181.822 121.051V131.781C181.822 131.979 181.662 132.14 181.463 132.14H178.59C178.329 133.485 177.972 134.821 177.526 136.118L180.012 137.554C180.184 137.653 180.243 137.873 180.144 138.044L174.779 147.337C174.731 147.419 174.653 147.48 174.561 147.504C174.469 147.529 174.371 147.516 174.289 147.468L171.796 146.029C170.896 147.061 169.919 148.038 168.886 148.938L170.326 151.431C170.373 151.514 170.386 151.612 170.361 151.704C170.337 151.796 170.277 151.874 170.194 151.922L160.902 157.287C160.819 157.334 160.721 157.347 160.629 157.322C160.537 157.298 160.459 157.238 160.411 157.155L158.976 154.669C157.677 155.115 156.342 155.472 154.997 155.733V158.606C154.997 158.804 154.837 158.965 154.638 158.965ZM144.268 158.247H154.279V155.435C154.279 155.262 154.403 155.113 154.574 155.082C156.077 154.806 157.573 154.406 159.018 153.894C159.181 153.835 159.362 153.902 159.449 154.052L160.854 156.485L169.524 151.479L168.116 149.041C168.029 148.891 168.062 148.7 168.194 148.588C169.357 147.594 170.451 146.5 171.445 145.336C171.557 145.205 171.748 145.172 171.898 145.259L174.337 146.667L179.342 137.996L176.91 136.592C176.76 136.505 176.693 136.324 176.751 136.161C177.263 134.717 177.663 133.221 177.94 131.717C177.971 131.546 178.119 131.423 178.293 131.423H181.104V121.411H178.293C178.119 121.411 177.971 121.287 177.94 121.116C177.663 119.612 177.263 118.116 176.751 116.672C176.693 116.509 176.76 116.328 176.91 116.241L179.342 114.837L174.337 106.166L171.898 107.574C171.748 107.661 171.558 107.628 171.445 107.497C170.451 106.333 169.357 105.239 168.194 104.245C168.062 104.133 168.029 103.943 168.116 103.793L169.524 101.354L160.854 96.3476L159.449 98.7804C159.363 98.9303 159.182 98.9972 159.018 98.9392C157.574 98.4269 156.079 98.0271 154.574 97.7505C154.403 97.7192 154.279 97.5705 154.279 97.3974V94.586H144.268V97.3974C144.268 97.5707 144.144 97.7194 143.974 97.7505C142.469 98.0271 140.974 98.4271 139.529 98.9392C139.365 98.9972 139.185 98.9301 139.098 98.7804L137.694 96.3476L129.023 101.354L130.431 103.793C130.518 103.942 130.485 104.133 130.354 104.245C129.19 105.239 128.096 106.333 127.102 107.497C126.99 107.628 126.799 107.661 126.65 107.574L124.211 106.166L119.205 114.836L121.638 116.241C121.788 116.328 121.854 116.509 121.796 116.672C121.284 118.116 120.884 119.612 120.608 121.117C120.576 121.287 120.428 121.411 120.255 121.411H117.443V131.423H120.255C120.428 131.423 120.577 131.546 120.608 131.717C120.884 133.222 121.284 134.717 121.796 136.161C121.854 136.324 121.788 136.505 121.638 136.592L119.205 137.997L124.211 146.667L126.65 145.259C126.799 145.172 126.99 145.205 127.102 145.337C128.096 146.5 129.19 147.594 130.354 148.588C130.485 148.7 130.518 148.891 130.431 149.041L129.023 151.48L137.694 156.485L139.098 154.053C139.185 153.903 139.366 153.836 139.529 153.894C140.975 154.406 142.47 154.806 143.974 155.082C144.144 155.114 144.268 155.262 144.268 155.435V158.247ZM149.283 144.556C149.082 144.556 148.882 144.553 148.68 144.547C139.15 144.243 131.447 136.539 131.143 127.01C130.981 121.937 132.865 117.171 136.447 113.589C140.029 110.007 144.796 108.121 149.867 108.286C159.397 108.59 167.1 116.293 167.404 125.823C167.566 130.895 165.683 135.661 162.1 139.243C158.661 142.683 154.129 144.556 149.283 144.556ZM149.265 108.994C144.61 108.994 140.258 110.793 136.955 114.097C133.514 117.537 131.705 122.115 131.861 126.987C132.153 136.139 139.551 143.537 148.703 143.829C153.577 143.982 158.152 142.176 161.593 138.736C165.033 135.295 166.842 130.718 166.686 125.846C166.394 116.693 158.996 109.295 149.844 109.003C149.651 108.997 149.458 108.994 149.265 108.994Z" fill="#016B83"/>
<path d="M255.612 176.184L252.58 175.125C252.825 173.552 252.94 171.98 252.932 170.42L256.086 169.822L254.06 159.143L250.9 159.742C250.329 158.275 249.645 156.855 248.852 155.495L251.29 153.395L244.196 145.159L241.764 147.254C240.548 146.277 239.246 145.387 237.863 144.599L238.923 141.567L228.662 137.982L227.602 141.014C226.029 140.769 224.457 140.654 222.897 140.661L222.299 137.508L211.62 139.533L212.219 142.693C210.752 143.264 209.332 143.949 207.972 144.741L205.873 142.304L197.637 149.397L199.731 151.829C198.754 153.045 197.865 154.347 197.077 155.73L194.045 154.67L190.459 164.931L193.491 165.991C193.246 167.564 193.131 169.136 193.139 170.696L189.985 171.294L192.01 181.973L195.171 181.374C195.741 182.841 196.426 184.261 197.219 185.621L194.781 187.72L201.875 195.956L204.306 193.862C205.522 194.839 206.824 195.728 208.207 196.516L207.148 199.548L217.409 203.134L218.468 200.102C220.041 200.347 221.614 200.462 223.174 200.455L223.771 203.608L234.451 201.583L233.851 198.422C235.318 197.852 236.739 197.167 238.099 196.375L240.198 198.812L248.434 191.719L246.339 189.287C247.316 188.071 248.206 186.769 248.994 185.386L252.026 186.445L255.612 176.184ZM239.254 176.828C235.976 185.327 226.53 189.881 217.84 187.152C208.244 184.139 203.198 173.672 206.817 164.288C210.095 155.789 219.541 151.235 228.231 153.964C237.827 156.977 242.873 167.444 239.254 176.828Z" fill="#016B83"/>
<path d="M223.04 194.703C220.381 194.703 217.692 194.263 215.073 193.348C208.987 191.221 204.094 186.852 201.294 181.044C198.494 175.237 198.124 168.687 200.25 162.6C202.169 157.111 206.001 152.5 211.043 149.616C216.034 146.762 221.878 145.775 227.497 146.839C227.692 146.876 227.82 147.064 227.783 147.259C227.746 147.453 227.559 147.582 227.363 147.545C216.086 145.41 204.721 151.984 200.928 162.838C198.865 168.743 199.224 175.098 201.941 180.732C204.657 186.367 209.405 190.606 215.31 192.67C225.382 196.19 236.559 192.464 242.488 183.611C242.598 183.447 242.821 183.403 242.986 183.513C243.151 183.623 243.195 183.846 243.085 184.011C238.515 190.834 230.92 194.703 223.04 194.703Z" fill="#F6FFFE"/>
<path d="M98.8175 188.229L100.523 187.493C101.034 188.259 101.601 188.973 102.214 189.635L101.106 191.123L106.147 194.878L107.258 193.385C108.075 193.787 108.923 194.124 109.792 194.392L109.576 196.24L115.819 196.971L116.035 195.127C116.935 195.067 117.837 194.936 118.734 194.731L119.47 196.436L125.242 193.947L124.507 192.242C125.272 191.73 125.987 191.164 126.648 190.551L128.137 191.659L131.891 186.618L130.399 185.507C130.8 184.69 131.137 183.842 131.406 182.973L133.253 183.189L133.984 176.946L132.14 176.73C132.08 175.83 131.95 174.928 131.744 174.03L133.45 173.295L130.96 167.523L129.255 168.258C128.744 167.493 128.177 166.778 127.564 166.117L128.672 164.628L123.631 160.874L122.52 162.366C121.703 161.965 120.855 161.628 119.986 161.359L120.202 159.512L113.959 158.781L113.743 160.625C112.843 160.685 111.941 160.815 111.043 161.021L110.308 159.316L104.536 161.805L105.271 163.51C104.506 164.021 103.791 164.588 103.13 165.201L101.641 164.093L97.8874 169.134L99.3793 170.245C98.9779 171.062 98.6411 171.91 98.3723 172.779L96.5247 172.563L95.7942 178.806L97.6377 179.022C97.6975 179.922 97.8282 180.824 98.0341 181.722L96.3285 182.457L98.8175 188.229ZM110.83 167.545C116.24 165.414 122.461 167.886 124.932 173.149C127.661 178.961 124.922 185.854 118.948 188.207C113.538 190.338 107.317 187.866 104.845 182.602C102.116 176.79 104.855 169.898 110.83 167.545Z" fill="white"/>
<path d="M114.888 191.992C110.635 191.992 106.49 190.068 103.756 186.553C103.634 186.396 103.662 186.171 103.819 186.049C103.975 185.927 104.201 185.955 104.323 186.112C108.063 190.921 114.589 192.593 120.191 190.177C126.972 187.253 130.109 179.358 127.185 172.578C124.582 166.54 117.833 163.252 111.487 164.927C111.296 164.976 111.099 164.863 111.049 164.671C110.998 164.479 111.112 164.283 111.304 164.232C117.991 162.467 125.102 165.932 127.845 172.293C130.926 179.437 127.62 187.755 120.476 190.836C118.667 191.616 116.767 191.992 114.888 191.992Z" fill="#F6FFFE"/>
<path d="M203.571 119.203L184.921 150.254L186.743 151.349L186.187 165.821L173.672 173.111L170.695 171.323L178.241 158.76L172.236 155.154L164.69 167.717L161.713 165.929L162.269 151.456L174.784 144.166L176.606 145.26L195.256 114.209L193.434 113.114L193.99 98.6417L206.505 91.3516L209.482 93.1396L201.937 105.703L207.941 109.309L215.487 96.7462L218.464 98.5342L217.908 113.007L205.393 120.297L203.571 119.203Z" fill="white"/>
<path d="M160.31 174.195L190.724 226.875H129.895L160.31 174.195Z" fill="white"/>
<path d="M191.263 227.369H167.137C166.939 227.369 166.778 227.208 166.778 227.01C166.778 226.812 166.939 226.651 167.137 226.651H190.641L160.848 175.049L157.987 180.005C157.888 180.177 157.668 180.236 157.496 180.137C157.324 180.038 157.266 179.818 157.365 179.646L160.537 174.151C160.666 173.929 161.031 173.929 161.16 174.151L191.574 226.83C191.638 226.941 191.638 227.078 191.574 227.189C191.51 227.301 191.391 227.369 191.263 227.369Z" fill="#363E44"/>
<path d="M144.278 227.366H130.434C130.306 227.366 130.187 227.298 130.123 227.187C130.059 227.076 130.059 226.939 130.123 226.828L138.598 212.148C138.697 211.977 138.916 211.918 139.088 212.017C139.26 212.116 139.319 212.336 139.22 212.508L131.056 226.648H144.278C144.476 226.648 144.637 226.809 144.637 227.007C144.637 227.206 144.476 227.366 144.278 227.366Z" fill="#363E44"/>
<path d="M154.274 213.35H162.508L164.346 184.32H152.437L154.274 213.35Z" fill="#FF8926"/>
<path d="M162.508 217.352H154.274V224.375H162.508V217.352Z" fill="#FF8926"/>
<path d="M160.671 213.708H152.436C152.247 213.708 152.09 213.561 152.078 213.372L150.241 184.343C150.234 184.244 150.27 184.147 150.337 184.074C150.405 184.002 150.5 183.961 150.599 183.961H162.508C162.608 183.961 162.702 184.002 162.77 184.074C162.838 184.147 162.873 184.244 162.867 184.343L161.029 213.372C161.017 213.561 160.86 213.708 160.671 213.708ZM152.774 212.99H160.334L162.126 184.679H150.982L152.774 212.99Z" fill="#363E44"/>
<path d="M160.671 224.734H152.436C152.238 224.734 152.077 224.573 152.077 224.375V217.351C152.077 217.153 152.238 216.992 152.436 216.992H160.671C160.869 216.992 161.03 217.153 161.03 217.351V224.375C161.03 224.573 160.869 224.734 160.671 224.734ZM152.796 224.016H160.312V217.71H152.796V224.016Z" fill="#363E44"/>
</svg>
