<svg width="101" height="86" viewBox="0 0 101 86" fill="none" xmlns="http://www.w3.org/2000/svg">
<path d="M97.2285 0.5H49.4504C47.9197 0.5 46.6787 1.68327 46.6787 3.14292V33.7466C46.6787 35.2062 47.9197 36.3895 49.4504 36.3895H97.2285C98.7593 36.3895 100 35.2062 100 33.7466V3.14292C100 1.68327 98.7593 0.5 97.2285 0.5Z" fill="white" stroke="#002346" stroke-miterlimit="10"/>
<path d="M100 3.36945V8.70332H46.6787V3.36945C46.6787 1.78519 47.9201 0.5 49.4504 0.5H97.2285C98.7589 0.5 100 1.78519 100 3.36945Z" fill="#016B83" stroke="#002346" stroke-miterlimit="10"/>
<path d="M89.751 5.60796C90.3524 5.60796 90.84 5.12056 90.84 4.51931C90.84 3.91807 90.3524 3.43066 89.751 3.43066C89.1496 3.43066 88.6621 3.91807 88.6621 4.51931C88.6621 5.12056 89.1496 5.60796 89.751 5.60796Z" fill="white" stroke="#002346" stroke-miterlimit="10"/>
<path d="M93.1016 5.60796C93.703 5.60796 94.1906 5.12056 94.1906 4.51931C94.1906 3.91807 93.703 3.43066 93.1016 3.43066C92.5002 3.43066 92.0127 3.91807 92.0127 4.51931C92.0127 5.12056 92.5002 5.60796 93.1016 5.60796Z" fill="white" stroke="#002346" stroke-miterlimit="10"/>
<path d="M96.4522 5.60796C97.0536 5.60796 97.5411 5.12056 97.5411 4.51931C97.5411 3.91807 97.0536 3.43066 96.4522 3.43066C95.8508 3.43066 95.3633 3.91807 95.3633 4.51931C95.3633 5.12056 95.8508 5.60796 96.4522 5.60796Z" fill="white" stroke="#002346" stroke-miterlimit="10"/>
<path d="M83.218 75.1279L84.3488 76.0591C84.6302 76.2903 84.7307 76.6805 84.59 77.0171C84.0874 78.2264 82.5227 80.9949 78.3764 82.4336L78.3496 80.129L83.2163 75.1279H83.218Z" fill="white" stroke="#002346" stroke-miterlimit="10"/>
<path d="M27.6159 72.8467L24.8701 82.395H26.8989L31.3166 72.8467H27.6159Z" fill="#E6E7E8" stroke="#002346" stroke-miterlimit="10"/>
<path d="M56.7436 72.1318L58.2966 81.6801H56.2662L53.043 72.1318H56.7436Z" fill="#E6E7E8" stroke="#002346" stroke-miterlimit="10"/>
<path d="M12.4548 71.7734L9.70898 81.3217H11.7377L16.1554 71.7734H12.4548Z" fill="#E6E7E8" stroke="#002346" stroke-miterlimit="10"/>
<path d="M74.7705 74.7571C74.7705 74.7571 75.129 74.3987 76.0839 74.876L78.0373 75.5593C78.3154 75.6565 78.6153 75.6665 78.8984 75.5861C79.7461 75.3466 81.6609 74.8592 82.8302 74.9731C83.296 75.0184 83.6009 75.484 83.4535 75.9278C83.1301 76.9009 82.1199 78.7449 78.9687 80.4817L73.3398 78.9341L72.7434 78.2173C72.7434 78.2173 72.266 77.0231 72.8624 76.5458L74.7722 74.7554L74.7705 74.7571Z" fill="#016B83" stroke="#002346" stroke-miterlimit="10"/>
<path d="M73.6073 77.7871C74.5153 77.3784 75.9175 76.8793 76.6814 77.2628C76.6814 77.2628 75.0095 77.3817 72.3843 79.4117C72.3843 79.4117 70.116 81.321 66.6549 81.321C66.6549 81.321 63.3127 81.5605 62.5957 82.9925L62.7146 79.889L64.8623 79.3112C65.4939 79.142 66.087 78.8523 66.6097 78.4603L67.2513 77.9797L67.8829 77.169C68.0001 77.0183 68.2096 76.9781 68.3737 77.0752L70.7141 78.457C70.7141 78.457 71.7611 78.9326 72.4949 78.4402C72.8534 78.1991 73.2153 77.9663 73.609 77.7887L73.6073 77.7871Z" fill="#016B83" stroke="#002346" stroke-miterlimit="10"/>
<path d="M64.7003 74.1934L67.2501 77.9785C67.2501 77.9785 66.8916 81.082 62.7134 79.8878L61.1621 76.6654L64.7003 74.1934Z" fill="#F1B2C0" stroke="#002346" stroke-miterlimit="10"/>
<path d="M66.5431 53.0899L65.3403 73.9199H58.5353L25.1236 73.2902L12.3128 73.049C9.69431 73.0004 7.47792 71.0978 7.0323 68.5169L0.699755 31.7558C0.24408 29.1061 2.06846 26.6374 4.67686 26.2489C4.81088 26.2271 4.94658 26.2137 5.08563 26.2053L18.724 25.3428L37.256 25.4366C40.5898 25.4533 43.4344 27.8534 44.0107 31.1361L46.2388 43.8448L63.9247 45.265C65.6552 45.4041 66.9536 46.9064 66.838 48.6382L66.5431 53.0882V53.0899Z" fill="#E6E7E8" stroke="#002346" stroke-miterlimit="10"/>
<path d="M58.545 47.4521L66.2948 70.3406L58.6539 74.7571L48.6357 48.6279L58.545 47.4521Z" fill="#A8F3EE" stroke="#002346" stroke-miterlimit="10"/>
<path d="M60.6843 47.1882L45.5231 48.9787L33.2266 47.4261L33.3455 46.7109L45.0456 48.2618L51.73 34.1781L67.3687 33.1045L60.6843 47.1882Z" fill="white" stroke="#002346" stroke-miterlimit="10"/>
<path d="M33.3623 46.7056L42.181 44.3223L45.6438 45.158L46.3608 45.5164L45.0474 48.2615L33.364 46.7123C33.364 46.7123 33.3606 46.7072 33.364 46.7056H33.3623Z" fill="#E6E7E8" stroke="#002346" stroke-miterlimit="10"/>
<path d="M61.3495 72.3506L58.0576 74.8763L59.8485 78.0986L63.0901 75.6299L61.3495 72.3506Z" fill="white" stroke="#002346" stroke-miterlimit="10"/>
<path d="M66.7725 76.427L67.6084 77.5006L67.8781 77.112C68.0004 76.9898 68.1897 76.9663 68.3388 77.0534L70.7127 78.4553C70.7127 78.4553 71.9072 79.0515 72.7415 78.2158C72.7415 78.2158 72.264 77.2611 72.8604 76.5443L74.7702 74.7539L71.6475 72.6436L66.7725 76.4254V76.427Z" fill="#F1B2C0" stroke="#002346" stroke-miterlimit="10"/>
<path d="M62.5943 82.9926C62.5943 82.9926 62.4569 84.026 62.8841 84.5837L77.8762 80.7249L78.7272 81.4518C78.7272 81.4518 80.1445 77.6231 76.6817 77.2646C76.6817 77.2646 75.0098 77.3836 72.3846 79.4135C72.3846 79.4135 69.8784 81.4417 66.6552 81.3228C66.6552 81.3228 63.4319 81.4417 62.596 82.9943L62.5943 82.9926Z" fill="#002346" stroke="#002346" stroke-miterlimit="10"/>
<path d="M12.8132 45.5168C12.8132 45.5168 20.2146 45.6357 21.8865 56.1387L25.1248 73.2924L12.314 73.0512C9.69555 73.0027 7.47916 71.1 7.03353 68.5191L0.607176 31.8032C0.123021 29.0347 2.1367 26.4521 4.94112 26.2494L8.63845 25.9814L12.8149 45.5168H12.8132Z" fill="white" stroke="#002346" stroke-miterlimit="10"/>
<path d="M33.9439 46.7893L38.494 47.3739C38.494 47.3739 39.5561 47.4258 39.9129 46.8295L40.9868 46.9485C40.9868 46.9485 41.8228 47.188 41.9417 46.4711L42.9351 47.193C43.235 47.4107 43.6488 47.4358 43.9504 47.2215C44.0726 47.1344 44.1732 47.0088 44.21 46.8295C44.21 46.8295 45.1649 47.188 45.5234 46.7106L45.7781 46.7592L46.3594 45.5165L45.6424 44.9202H45.7613C45.7613 44.9202 46.5973 45.0391 46.4783 44.324L43.6136 43.0109C43.6136 43.0109 42.709 42.2974 40.9516 43.0712C40.9516 43.0712 39.2143 43.7679 37.3548 43.7478L34.6593 43.6071C34.6593 43.6071 33.8233 45.0793 33.9423 46.7893H33.9439Z" fill="#F1B2C0" stroke="#002346" stroke-miterlimit="10"/>
<path d="M46.3594 45.516L47.5539 43.1293L43.6136 39.9069C43.6136 39.9069 43.8699 38.2019 43.1563 37.0982C42.8279 36.5907 42.6001 36.0263 42.5331 35.4267L41.8228 28.9283C41.8228 28.9283 41.3453 25.587 38.1221 23.9155L34.6207 21.4636L31.0775 22.1251L27.7354 20.5742L23.0798 22.4835C23.0798 22.4835 18.5431 24.155 16.7522 28.0926C16.7522 28.0926 14.9614 31.5545 16.1558 37.522C16.1558 37.522 16.6333 39.5502 15.9163 41.5801C15.9163 41.5801 15.4388 43.7289 16.3937 44.6836L21.2889 44.3252C21.2889 44.3252 27.2579 43.6083 29.8847 47.906L34.0629 47.7871C34.0629 47.7871 33.5854 45.5193 34.6593 43.61L37.7636 43.7289C37.7636 43.7289 39.4355 43.61 40.7472 43.1327C40.7472 43.1327 42.4192 42.2969 43.6119 43.0138L46.4767 44.3269C46.4767 44.3269 46.6861 44.9599 45.6407 44.9231L46.3577 45.5193L46.3594 45.516Z" fill="#016B83" stroke="#002346" stroke-miterlimit="10"/>
<path d="M30.0027 14.2469C30.0027 14.2469 30.8387 17.7088 27.7344 20.5728L31.4066 24.8017C31.5842 25.0061 31.7483 25.2221 31.8991 25.4466L33.8223 28.3306C33.8223 28.3306 35.1776 24.5003 34.6198 21.4621L31.9125 16.0373L31.673 13.4111L30.001 14.2469H30.0027Z" fill="#F1B2C0" stroke="#002346" stroke-miterlimit="10"/>
<path d="M39.4114 12.6351C39.7701 10.616 38.4236 8.68848 36.4039 8.32991C34.3843 7.97134 32.4563 9.31748 32.0977 11.3366L31.3226 15.7C30.9639 17.7191 32.3104 19.6466 34.33 20.0051C36.3497 20.3637 38.2777 19.0176 38.6363 16.9984L39.4114 12.6351Z" fill="#F1B2C0" stroke="#002346" stroke-miterlimit="10"/>
<path d="M30.0219 16.5784V14.2336L30.1224 11.3813C30.1224 11.3813 29.645 8.39844 32.0322 7.44211C32.0322 7.44211 36.5689 3.38396 38.9562 6.96478C38.9562 6.96478 40.4606 6.52262 41.2597 7.46555C41.4959 7.74358 41.6115 8.10367 41.6232 8.46879C41.6466 9.18897 41.4858 10.5975 39.9178 10.9459C39.2745 11.0882 38.5909 11.0011 38.0264 10.6612C37.8789 10.5724 37.7349 10.4652 37.6076 10.3329C37.3479 10.0632 37.0011 9.88738 36.6258 9.88738C36.4315 9.88738 36.2087 9.8723 35.9725 9.82708C35.4515 9.72827 34.9104 9.82206 34.4731 10.1219L33.679 10.6645C33.2971 10.9258 33.0123 11.311 32.8933 11.7582C32.8364 11.9776 32.7409 12.2271 32.5868 12.4549C32.3891 12.7497 32.2701 13.088 32.2467 13.4414C32.1813 14.4396 31.0974 16.2501 30.0186 16.5734L30.0219 16.5784Z" fill="#002346" stroke="#002346" stroke-miterlimit="10"/>
<path d="M32.0252 14.858C32.4453 14.858 32.7858 14.4036 32.7858 13.8431C32.7858 13.2825 32.4453 12.8281 32.0252 12.8281C31.6052 12.8281 31.2646 13.2825 31.2646 13.8431C31.2646 14.4036 31.6052 14.858 32.0252 14.858Z" fill="#F1B2C0" stroke="#002346" stroke-miterlimit="10"/>
<path d="M29.8842 47.903C29.8842 47.903 30.3566 50.7452 30.8592 54.4298L41.6028 57.0459C42.5124 57.3072 43.3266 57.8281 43.9448 58.5449C46.8079 61.8611 58.3321 71.6824 62.8302 76.1894L69.1577 70.4614L48.6322 48.6298L45.5196 48.9799L34.0506 47.4541L34.059 47.7874L29.8809 47.9063L29.8842 47.903Z" fill="#A8F3EE" stroke="#002346" stroke-miterlimit="10"/>
<path d="M62.1162 76.427L64.6995 78.8823L72.0238 72.2499L69.5176 69.8633L62.1162 76.427Z" fill="white" stroke="#002346" stroke-miterlimit="10"/>
<path d="M78.7107 79.7704C78.7107 79.7704 78.1143 77.6216 74.5325 79.5309C74.5325 79.5309 70.5923 82.276 67.8465 82.276C67.8465 82.276 63.4824 82.1771 62.891 84.058C62.7704 84.4415 62.9413 84.8552 63.2914 85.0545C63.6717 85.2723 64.3385 85.5 65.4592 85.5C65.4592 85.5 70.9508 85.3811 71.0697 85.3811C71.1887 85.3811 79.9035 85.1416 78.7107 79.7721V79.7704Z" fill="white" stroke="#002346" stroke-miterlimit="10"/>
<path d="M35.55 11.2193C36.9379 11.2193 38.0629 10.6569 38.0629 9.96316C38.0629 9.26942 36.9379 8.70703 35.55 8.70703C34.1622 8.70703 33.0371 9.26942 33.0371 9.96316C33.0371 10.6569 34.1622 11.2193 35.55 11.2193Z" fill="#002346" stroke="#002346" stroke-miterlimit="10"/>
<path d="M26.5508 21.1963L28.9699 27.5255L31.5063 25.0618" stroke="#002346" stroke-linecap="round" stroke-linejoin="round"/>
<path d="M34.7197 25.1687L36.5826 27.0898L35.6395 22.1758" stroke="#002346" stroke-linecap="round" stroke-linejoin="round"/>
<path d="M33.9316 28.9619V42.431" stroke="#002346" stroke-linecap="round" stroke-linejoin="round"/>
<path d="M34.659 43.6069L25.1049 41.5602C24.4231 41.4145 23.7211 41.391 23.0309 41.4932L20.8916 41.8098" stroke="#002346" stroke-linecap="round" stroke-linejoin="round"/>
<path d="M18.1924 25.9476C18.1924 25.9476 23.0741 25.5323 23.5332 30.0158" stroke="#002346" stroke-linecap="round" stroke-linejoin="round"/>
<path d="M23.5335 31.292L23.0996 41.0362" stroke="#002346" stroke-linecap="round" stroke-linejoin="round"/>
<path d="M43.6126 39.9077L42.0244 38.5645" stroke="#002346" stroke-linecap="round" stroke-linejoin="round"/>
<path d="M37.7068 43.6209C37.7068 43.6209 39.0269 42.8136 37.8324 40.4571C37.8324 40.4571 36.8909 39.4271 37.6867 37.8427L39.0537 34.8213L39.4005 39.9061C39.4005 39.9061 39.3871 42.4736 40.7775 43.0498" stroke="#002346" stroke-linecap="round" stroke-linejoin="round"/>
<path d="M39.9121 46.8299C39.9121 46.8299 40.542 45.1283 41.9409 46.4715" stroke="#002346" stroke-linecap="round" stroke-linejoin="round"/>
<path d="M44.2096 46.8291L42.1406 45.042" stroke="#002346" stroke-linecap="round" stroke-linejoin="round"/>
<path d="M45.5226 46.7106L43.1738 44.3223" stroke="#002346" stroke-linecap="round" stroke-linejoin="round"/>
<path d="M45.6422 44.9207L43.9268 43.8789" stroke="#002346" stroke-linecap="round" stroke-linejoin="round"/>
<path d="M46.0205 48.2612L52.3396 34.8223" stroke="#002346" stroke-linecap="round" stroke-linejoin="round"/>
<path d="M14.4336 44.0825L26.5961 43.6437C28.1642 43.5867 29.5245 44.7189 29.7523 46.2715L32.7377 66.5522C33.0275 68.5168 34.5738 70.0559 36.5405 70.3373L41.3084 71.0173" fill="#E6E7E8"/>
<path d="M14.4336 44.0825L26.5961 43.6437C28.1642 43.5867 29.5245 44.7189 29.7523 46.2715L32.7377 66.5522C33.0275 68.5168 34.5738 70.0559 36.5405 70.3373L41.3084 71.0173" stroke="#002346" stroke-miterlimit="10"/>
<path d="M40.0269 29.416L39.2412 34.0939" stroke="#002346" stroke-linecap="round" stroke-linejoin="round"/>
<path d="M12.1921 71.4222C12.2257 71.8141 12.2776 72.2562 12.353 72.7068C12.353 72.7068 13.9411 67.5114 19.1613 68.1813L18.136 65.9236L17.2883 65.0762C15.5863 65.9605 13.9378 65.6942 12.812 67.977C12.286 69.0422 12.09 70.2397 12.1938 71.4238L12.1921 71.4222Z" fill="#7CD295" stroke="#002346" stroke-miterlimit="10"/>
<path d="M26.9088 66.4466C22.1979 66.4517 21.4943 59.5111 26.2538 53.7346C26.2689 53.7162 26.299 53.7279 26.2973 53.753C26.1097 55.7226 31.8928 62.7804 28.1033 66.0112C27.7699 66.2942 27.3477 66.4466 26.9105 66.4466H26.9088Z" fill="#7CD295" stroke="#002346" stroke-miterlimit="10"/>
<path d="M26.6249 63.854C23.653 62.0903 24.3231 56.8029 33.13 53.6826C33.1468 53.6776 33.1635 53.6927 33.1568 53.7077C33.0563 53.9941 32.4733 55.865 32.1668 61.1441C32.0847 62.5509 30.0743 65.9006 26.6249 63.8523V63.854Z" fill="#7CD295" stroke="#002346" stroke-miterlimit="10"/>
<path d="M29.6998 75.4422C29.8339 76.4822 22.781 76.4822 22.915 75.4422C22.781 74.4021 29.8339 74.4021 29.6998 75.4422Z" fill="#002346" stroke="#002346" stroke-miterlimit="10"/>
<path d="M29.9784 84.6543C29.6735 84.6091 21.9069 84.7866 21.8885 84.5103C20.3589 83.7851 20.2936 81.4168 20.2936 81.4168C20.0624 78.2564 22.9154 76.5615 22.9154 76.5615V75.4443C22.7814 76.4844 29.8343 76.4844 29.7003 75.4443V76.6385C33.4345 79.0888 32.6772 84.4064 29.9784 84.6543Z" fill="#016B83" stroke="#002346" stroke-miterlimit="10"/>
<path d="M29.9317 78.0249C29.94 78.6245 28.9969 78.6245 29.0069 78.0249C28.9985 77.4253 29.9417 77.4253 29.9317 78.0249Z" fill="white"/>
<path d="M31.3184 79.4136C31.3268 80.0132 30.3836 80.0132 30.3936 79.4136C30.3853 78.814 31.3284 78.814 31.3184 79.4136Z" fill="white"/>
<path d="M31.5498 81.6479C31.5582 82.2475 30.615 82.2475 30.6251 81.6479C30.6167 81.0483 31.5599 81.0483 31.5498 81.6479Z" fill="white"/>
<path d="M30.3164 83.3442C30.3248 83.9438 29.3816 83.9438 29.3917 83.3442C29.3833 82.7446 30.3265 82.7446 30.3164 83.3442Z" fill="white"/>
<path d="M26.5391 83.8061C26.5475 84.4057 25.6043 84.4057 25.6143 83.8061C25.606 83.2065 26.5491 83.2065 26.5391 83.8061Z" fill="white"/>
<path d="M23.6094 83.3442C23.6178 83.9438 22.6746 83.9438 22.6847 83.3442C22.6763 82.7446 23.6195 82.7446 23.6094 83.3442Z" fill="white"/>
<path d="M21.9903 82.0327C21.9986 82.6323 21.0555 82.6323 21.0655 82.0327C21.0571 81.4331 22.0003 81.4331 21.9903 82.0327Z" fill="white"/>
<path d="M22.2217 79.4136C22.2301 80.0132 21.2869 80.0132 21.297 79.4136C21.2886 78.814 22.2318 78.814 22.2217 79.4136Z" fill="white"/>
<path d="M23.917 77.8706C23.9254 78.4702 22.9822 78.4702 22.9923 77.8706C22.9839 77.271 23.9271 77.271 23.917 77.8706Z" fill="white"/>
<path d="M25.46 79.2593C25.4684 79.8589 24.5252 79.8589 24.5352 79.2593C24.5269 78.6597 25.47 78.6597 25.46 79.2593Z" fill="white"/>
<path d="M23.6865 80.4917C23.6949 81.0913 22.7517 81.0913 22.7618 80.4917C22.7534 79.8921 23.6966 79.8921 23.6865 80.4917Z" fill="white"/>
<path d="M25.2295 82.0327C25.2379 82.6323 24.2947 82.6323 24.3048 82.0327C24.2964 81.4331 25.2396 81.4331 25.2295 82.0327Z" fill="white"/>
<path d="M26.9248 80.7231C26.9332 81.3227 25.99 81.3227 26.0001 80.7231C25.9917 80.1235 26.9349 80.1235 26.9248 80.7231Z" fill="white"/>
<path d="M27.2324 78.102C27.2408 78.7016 26.2976 78.7016 26.3077 78.102C26.2993 77.5024 27.2425 77.5024 27.2324 78.102Z" fill="white"/>
<path d="M28.6211 79.7212C28.6295 80.3208 27.6863 80.3208 27.6964 79.7212C27.688 79.1216 28.6312 79.1216 28.6211 79.7212Z" fill="white"/>
<path d="M29.7002 80.8003C29.7086 81.3999 28.7654 81.3999 28.7755 80.8003C28.7671 80.2007 29.7103 80.2007 29.7002 80.8003Z" fill="white"/>
<path d="M28.1573 82.3413C28.1656 82.9409 27.2224 82.9409 27.2325 82.3413C27.2241 81.7417 28.1673 81.7417 28.1573 82.3413Z" fill="white"/>
<path d="M33.8633 70.2403C31.3203 68.1702 27.705 71.0124 31.3186 74.5563C31.3186 74.5563 33.1698 76.2513 33.9404 78.0249C33.9404 78.0249 37.487 75.4809 37.564 72.0123C37.564 72.0123 37.564 68.4666 33.8633 70.2386V70.2403Z" fill="#7CD295" stroke="#002346" stroke-miterlimit="10"/>
<path d="M12.2793 69.8095C16.2748 62.7684 17.9803 70.0088 23.9945 69.0055C24.085 60.911 12.3681 61.251 12.2793 69.8095Z" fill="#7CD295" stroke="#002346" stroke-miterlimit="10"/>
<path d="M22.916 76.5605C22.916 76.5605 25.7623 78.021 29.7009 76.6376" stroke="#002346" stroke-linecap="round" stroke-linejoin="round"/>
<path d="M27.0215 72.8241C27.0215 72.8241 28.6968 65.7897 32.9603 69.2014C33.5601 69.6804 33.9354 70.3872 34.118 71.1325C34.4011 72.2881 34.7596 74.3917 34.3089 76.425" stroke="#002346" stroke-linecap="round" stroke-linejoin="round"/>
<path d="M32.4666 54.3174C32.4666 54.3174 24.5928 60.0119 27.2733 75.4204" stroke="#002346" stroke-linecap="round" stroke-linejoin="round"/>
<path d="M15.3779 65.2043C15.3779 65.2043 25.7646 65.0368 26.0997 75.2533" stroke="#002346" stroke-linecap="round" stroke-linejoin="round"/>
<rect x="52.5049" y="14.2607" width="34.6381" height="9.7743" rx="1.5" fill="white" stroke="black"/>
<path fill-rule="evenodd" clip-rule="evenodd" d="M87.6427 14.5898L89.6958 19.5722L95.1019 19.9715L90.9647 23.4501L92.2527 28.6793L87.6427 25.8469L83.0327 28.6793L84.3208 23.4501L80.1836 19.9715L85.5896 19.5722L87.6427 14.5898Z" fill="#FFC404"/>
</svg>
