<svg width="210" height="210" viewBox="0 0 210 210" fill="none" xmlns="http://www.w3.org/2000/svg">
<path d="M36.7889 157.395L31.2764 157.512L28.4788 157.559C27.5439 157.579 26.6043 157.574 25.6669 157.582L25.4804 157.584L25.4796 157.395L25.4569 152.695L25.4561 152.484L25.6669 152.485L31.2277 152.512C33.0812 152.514 34.935 152.559 36.7885 152.581L36.9044 152.582L36.9032 152.695C36.8952 153.493 36.867 154.286 36.8481 155.07L36.7889 157.395ZM36.7889 157.395L36.7293 155.02C36.7104 154.237 36.6822 153.464 36.6743 152.695L36.7889 152.809C34.9355 152.831 33.0816 152.876 31.2281 152.878L25.6673 152.905L25.8769 152.695L25.8542 157.395L25.6669 157.208C26.5833 157.215 27.4973 157.211 28.4162 157.231L31.1794 157.278L36.7889 157.395Z" fill="#EBEBEB"/>
<path d="M30.5848 163.32L25.0723 163.438L22.2747 163.485C21.3398 163.504 20.4002 163.501 19.4628 163.508L19.2763 163.509L19.2755 163.321L19.2528 158.621L19.252 158.41L19.4628 158.411L25.0236 158.437C26.8771 158.44 28.7309 158.484 30.5844 158.506L30.7003 158.508L30.6991 158.621C30.6911 159.419 30.6629 160.212 30.644 160.996L30.5848 163.32ZM30.5848 163.32L30.5252 160.946C30.5063 160.163 30.4781 159.39 30.4702 158.621L30.5848 158.735C28.7314 158.757 26.8775 158.802 25.024 158.804L19.4632 158.831L19.6728 158.621L19.6501 163.321L19.4628 163.133C20.3792 163.141 21.2932 163.137 22.2121 163.157L24.9753 163.204L30.5848 163.32Z" fill="#016B83"/>
<path d="M42.9081 163.32L37.3956 163.438L34.5979 163.485C33.663 163.504 32.7235 163.501 31.786 163.508L31.5996 163.509L31.5987 163.321L31.576 158.621L31.5752 158.41L31.786 158.411L37.3468 158.437C39.2003 158.44 41.0542 158.484 42.9076 158.506L43.0236 158.508L43.0223 158.621C43.0143 159.419 42.9862 160.212 42.9673 160.996L42.9081 163.32ZM42.9081 163.32L42.8484 160.946C42.8295 160.163 42.8014 159.39 42.7934 158.621L42.9081 158.735C41.0546 158.757 39.2007 158.802 37.3473 158.804L31.7865 158.831L31.996 158.621L31.9734 163.321L31.786 163.133C32.7025 163.141 33.6164 163.137 34.5354 163.157L37.2985 163.204L42.9081 163.32Z" fill="#EBEBEB"/>
<path d="M51.5711 89.9634L46.0586 90.0806L43.261 90.1276C42.3261 90.1473 41.3866 90.1431 40.4491 90.1507L40.2626 90.152L40.2618 89.9634L40.2391 85.2636L40.2383 85.0527L40.4491 85.0536L46.0099 85.08C47.8634 85.0821 49.7173 85.1275 51.5707 85.1489L51.6866 85.1502L51.6854 85.2636C51.6774 86.0612 51.6493 86.8541 51.6304 87.6383L51.5711 89.9634ZM51.5711 89.9634L51.5115 87.5887C51.4926 86.8062 51.4645 86.0326 51.4565 85.2636L51.5711 85.3782C49.7177 85.3997 47.8638 85.445 46.0103 85.4471L40.4495 85.4736L40.6591 85.264L40.6364 89.9638L40.4491 89.7765C41.3656 89.784 42.2795 89.7798 43.1984 89.7996L45.9616 89.8466L51.5711 89.9634Z" fill="#016B83"/>
<path d="M45.367 95.8892L39.8545 96.0063L37.0569 96.0534C36.122 96.0731 35.1825 96.0689 34.245 96.0765L34.0585 96.0777L34.0577 95.8892L34.035 91.1894L34.0342 90.9785L34.245 90.9794L39.8058 91.0058C41.6593 91.0079 43.5132 91.0529 45.3666 91.0747L45.4825 91.076L45.4813 91.1894C45.4733 91.9869 45.4452 92.7799 45.4263 93.564L45.367 95.8892ZM45.367 95.8892L45.3074 93.5145C45.2885 92.732 45.2604 91.9584 45.2524 91.1894L45.367 91.304C43.5136 91.3254 41.6597 91.3708 39.8062 91.3729L34.2454 91.3994L34.455 91.1898L34.4323 95.8896L34.245 95.7023C35.1615 95.7098 36.0754 95.7056 36.9943 95.7254L39.7575 95.7724L45.367 95.8892Z" fill="#016B83"/>
<path d="M190.536 109.036L185.023 109.153L182.226 109.2C181.291 109.22 180.351 109.215 179.414 109.223L179.227 109.224L179.227 109.036L179.204 104.336L179.203 104.125L179.414 104.126L184.975 104.152C186.828 104.154 188.682 104.2 190.536 104.221L190.651 104.222L190.65 104.336C190.642 105.133 190.614 105.926 190.595 106.711L190.536 109.036ZM190.536 109.036L190.476 106.661C190.457 105.879 190.429 105.105 190.421 104.336L190.536 104.451C188.683 104.472 186.829 104.517 184.975 104.519L179.414 104.546L179.624 104.336L179.601 109.036L179.414 108.849C180.33 108.856 181.244 108.852 182.163 108.872L184.926 108.919L190.536 109.036Z" fill="#016B83"/>
<path d="M184.332 25.6802L178.819 25.7973L176.022 25.8444C175.087 25.8641 174.147 25.8599 173.21 25.8675L173.023 25.8688L173.023 25.6802L173 20.9804L172.999 20.7695L173.21 20.7704L178.771 20.7968C180.624 20.7989 182.478 20.8439 184.331 20.8657L184.447 20.867L184.446 20.9804C184.438 21.778 184.41 22.5709 184.391 23.3551L184.332 25.6802ZM184.332 25.6802L184.272 23.3055C184.253 22.523 184.225 21.7494 184.217 20.9804L184.332 21.095C182.478 21.1165 180.625 21.1618 178.771 21.1639L173.21 21.1904L173.42 20.9808L173.397 25.6806L173.21 25.4933C174.126 25.5008 175.04 25.4966 175.959 25.5164L178.722 25.5634L184.332 25.6802Z" fill="#016B83"/>
<path d="M190.536 31.6055L185.023 31.7227L182.226 31.7698C181.291 31.7895 180.351 31.7853 179.414 31.7929L179.227 31.7945L179.227 31.606L179.204 26.9062L179.203 26.6953L179.414 26.6962L184.975 26.7226C186.828 26.7247 188.682 26.7701 190.536 26.7915L190.651 26.7928L190.65 26.9062C190.642 27.7037 190.614 28.4967 190.595 29.2808L190.536 31.6055ZM190.536 31.6055L190.476 29.2309C190.457 28.4484 190.429 27.6748 190.421 26.9057L190.536 27.0204C188.683 27.0418 186.829 27.0872 184.975 27.0893L179.414 27.1157L179.624 26.9062L179.601 31.606L179.414 31.4186C180.33 31.4262 181.244 31.422 182.163 31.4417L184.926 31.4888L190.536 31.6055Z" fill="#016B83"/>
<path d="M36.7885 25.6802L31.2764 25.7973L28.4788 25.8444C27.5439 25.8641 26.6043 25.8599 25.6669 25.8675L25.4804 25.8688L25.4796 25.6802L25.4569 20.9804L25.4561 20.7695L25.6669 20.7704L31.2277 20.7968C33.0812 20.7989 34.935 20.8439 36.7885 20.8657L36.9044 20.867L36.9032 20.9804C36.8952 21.778 36.867 22.5709 36.8481 23.3551L36.7885 25.6802ZM36.7885 25.6802L36.7289 23.3055C36.71 22.523 36.6818 21.7494 36.6738 20.9804L36.7885 21.095C34.935 21.1165 33.0812 21.1618 31.2277 21.1639L25.6669 21.1904L25.8765 20.9808L25.8538 25.6806L25.6665 25.4933C26.5829 25.5008 27.4968 25.4966 28.4158 25.5164L31.179 25.5634L36.7885 25.6802Z" fill="#016B83"/>
<path d="M163.985 159.506L158.473 159.623L155.675 159.67C154.74 159.69 153.801 159.686 152.863 159.693L152.677 159.695L152.676 159.506L152.653 154.807L152.652 154.596L152.863 154.597L158.424 154.623C160.277 154.625 162.131 154.67 163.985 154.692L164.101 154.693L164.099 154.807C164.091 155.604 164.063 156.397 164.044 157.181L163.985 159.506ZM163.985 159.506L163.926 157.131C163.907 156.349 163.879 155.575 163.871 154.806L163.985 154.921C162.132 154.942 160.278 154.988 158.424 154.99L152.864 155.016L153.073 154.807L153.051 159.506L152.864 159.319C153.78 159.327 154.694 159.322 155.613 159.342L158.376 159.389L163.985 159.506Z" fill="#016B83"/>
<path d="M182.266 110.234L184.578 106.507L183.437 105.799C183.101 105.591 182.919 105.212 182.953 104.818C182.971 104.601 182.978 104.382 182.973 104.163C182.965 103.769 183.17 103.402 183.518 103.216L184.701 102.582L182.627 98.7152L181.444 99.3498C181.097 99.5359 180.678 99.5044 180.355 99.2797C180.174 99.1541 179.988 99.039 179.797 98.934C179.45 98.7446 179.235 98.3825 179.248 97.9882L179.29 96.6458L174.906 96.5098L174.865 97.8567C174.854 98.2515 174.611 98.5955 174.254 98.7643C174.157 98.8101 174.061 98.8588 173.966 98.9096C173.87 98.9609 173.777 99.0142 173.685 99.0697C173.348 99.2729 172.93 99.2847 172.596 99.0776L171.446 98.3653L169.134 102.092L170.278 102.802C170.614 103.011 170.795 103.391 170.761 103.784C170.742 104.001 170.735 104.219 170.74 104.437C170.748 104.831 170.542 105.197 170.195 105.383L169.012 106.017L171.085 109.884L172.269 109.249C172.615 109.063 173.034 109.095 173.357 109.319C173.537 109.444 173.722 109.558 173.914 109.662C174.26 109.852 174.476 110.213 174.464 110.608L174.423 111.953L178.807 112.089L178.849 110.743C178.861 110.35 179.102 110.007 179.458 109.839C179.556 109.793 179.653 109.744 179.749 109.692C179.844 109.641 179.938 109.588 180.03 109.532C180.368 109.328 180.788 109.316 181.124 109.525L182.266 110.234ZM178.554 107.466C176.806 108.404 174.63 107.747 173.692 105.998C172.754 104.25 173.41 102.071 175.158 101.134C176.906 100.196 179.087 100.854 180.025 102.602C180.962 104.351 180.303 106.528 178.554 107.466Z" fill="#CCE1E6"/>
<path d="M36.2087 67.0179L34.6732 64.3564L33.8588 64.8268C33.6194 64.9654 33.3246 64.9519 33.0928 64.8007C32.9647 64.7172 32.8319 64.6403 32.6946 64.5706C32.4489 64.4454 32.2906 64.1972 32.2906 63.9213V62.9805H29.217V63.9213C29.217 64.1972 29.0587 64.4454 28.813 64.5706C28.676 64.6403 28.5429 64.7172 28.4148 64.8007C28.1834 64.9519 27.8885 64.965 27.6487 64.8268L26.8343 64.3564L25.2988 67.0179L26.117 67.4892C26.3568 67.6273 26.4891 67.8907 26.4748 68.167C26.471 68.2422 26.4689 68.3174 26.4689 68.3934C26.4689 68.469 26.471 68.5446 26.4748 68.6194C26.4891 68.8945 26.3576 69.1566 26.1191 69.2943L25.2988 69.7685L26.8343 72.4301L27.6512 71.9592C27.8911 71.8211 28.1855 71.8345 28.4173 71.9861C28.545 72.0693 28.6769 72.1461 28.8134 72.2154C29.0591 72.3406 29.217 72.5888 29.217 72.8643V73.8051H32.2906V72.8643C32.2906 72.5888 32.4485 72.3406 32.6942 72.2154C32.8307 72.1461 32.963 72.0693 33.0902 71.9861C33.3221 71.8345 33.6165 71.8211 33.8563 71.9592L34.6732 72.4301L36.2087 69.7685L35.3918 69.2973C35.1529 69.1595 35.0214 68.897 35.0353 68.6215C35.039 68.5463 35.0411 68.4703 35.0411 68.3939C35.0411 68.3183 35.039 68.2427 35.0353 68.1675C35.021 67.8911 35.1529 67.6278 35.3931 67.4892L36.2087 67.0179ZM33.2708 68.393C33.2708 69.7828 32.1448 70.9088 30.755 70.9088C29.3653 70.9088 28.2367 69.7832 28.2367 68.393C28.2367 67.0028 29.3648 65.8747 30.755 65.8747C32.1448 65.8747 33.2708 67.0028 33.2708 68.393Z" fill="#CCE1E6"/>
<path d="M67.6805 68.5957C61.0701 68.5957 55.7139 73.952 55.7139 80.5623C55.7139 87.1698 61.0701 92.529 67.6805 92.529C74.2879 92.529 79.6471 87.1698 79.6471 80.5623C79.6471 73.952 74.2879 68.5957 67.6805 68.5957ZM67.6805 86.1496C64.5935 86.1496 62.0907 83.6498 62.0907 80.5623C62.0907 77.4753 64.5935 74.9726 67.6805 74.9726C70.7675 74.9726 73.2703 77.4753 73.2703 80.5623C73.2703 83.6498 70.7675 86.1496 67.6805 86.1496Z" fill="#CCE1E6"/>
<path d="M69.9818 69.0915H65.3799L65.6344 65.834H69.7273L69.9818 69.0915Z" fill="#CCE1E6"/>
<path d="M61.2224 70.6431L57.9682 73.8972L55.8447 71.4138L58.7389 68.5195L61.2224 70.6431Z" fill="#CCE1E6"/>
<path d="M56.1251 77.9316V82.5336L52.8672 82.2791V78.1862L56.1251 77.9316Z" fill="#CCE1E6"/>
<path d="M57.6753 86.6914L60.9294 89.9456L58.446 92.0691L55.5518 89.1749L57.6753 86.6914Z" fill="#CCE1E6"/>
<path d="M64.9648 91.7891H69.5668L69.3123 95.0466H65.2194L64.9648 91.7891Z" fill="#CCE1E6"/>
<path d="M73.7246 90.2385L76.9788 86.9844L79.1023 89.4678L76.2081 92.3621L73.7246 90.2385Z" fill="#CCE1E6"/>
<path d="M78.8223 82.9476V78.3457L82.0798 78.5998V82.6931L78.8223 82.9476Z" fill="#CCE1E6"/>
<path d="M77.2717 74.1882L74.0176 70.9341L76.501 68.8105L79.3953 71.7048L77.2717 74.1882Z" fill="#CCE1E6"/>
<path d="M159.138 16.9121C152.527 16.9121 147.171 22.2684 147.171 28.8788C147.171 35.4862 152.527 40.8454 159.138 40.8454C165.745 40.8454 171.104 35.4862 171.104 28.8788C171.104 22.268 165.745 16.9121 159.138 16.9121ZM159.138 34.4656C156.051 34.4656 153.547 31.9658 153.547 28.8783C153.547 25.7913 156.05 23.2886 159.138 23.2886C162.225 23.2886 164.727 25.7913 164.727 28.8783C164.727 31.9658 162.225 34.4656 159.138 34.4656Z" fill="#CCE1E6"/>
<path d="M161.438 17.4079H156.836L157.09 14.1504H161.183L161.438 17.4079Z" fill="#CCE1E6"/>
<path d="M152.678 18.9575L149.424 22.2117L147.301 19.7282L150.195 16.834L152.678 18.9575Z" fill="#CCE1E6"/>
<path d="M147.582 26.248V30.85L144.324 30.5959V26.5026L147.582 26.248Z" fill="#CCE1E6"/>
<path d="M149.132 35.0078L152.386 38.262L149.903 40.3855L147.009 37.4913L149.132 35.0078Z" fill="#CCE1E6"/>
<path d="M156.422 40.1055H161.024L160.769 43.363H156.676L156.422 40.1055Z" fill="#CCE1E6"/>
<path d="M165.181 38.5545L168.435 35.3008L170.558 37.7838L167.664 40.678L165.181 38.5545Z" fill="#CCE1E6"/>
<path d="M170.278 31.2641V26.6621L173.536 26.9166V31.0095L170.278 31.2641Z" fill="#CCE1E6"/>
<path d="M168.728 22.5046L165.475 19.2505L167.958 17.127L170.852 20.0212L168.728 22.5046Z" fill="#CCE1E6"/>
<path d="M32.7539 42.7648V0" stroke="#C7C7C7" stroke-miterlimit="10"/>
<path d="M46.8788 56.3812L45.7427 58.879H19.7607L18.6279 56.3812L29.6895 48.7246H35.8173L46.8788 56.3812Z" fill="#016B83"/>
<path d="M36.5852 41.3477L35.8174 48.7241H29.6896L28.9219 41.3477H36.5852Z" fill="#CCE1E6"/>
<path d="M46.8783 56.3828L45.7417 58.8801H19.7597L18.627 56.3828H46.8783Z" fill="#CCE1E6"/>
<path d="M63.0078 24.1773V0" stroke="#C7C7C7" stroke-miterlimit="10"/>
<path d="M77.1327 37.7929L75.9966 40.2906H50.0146L48.8818 37.7929L59.9434 30.1367H66.0712L77.1327 37.7929Z" fill="#016B83"/>
<path d="M66.8391 22.7598L66.0713 30.1366H59.9435L59.1758 22.7598H66.8391Z" fill="#CCE1E6"/>
<path d="M77.1317 37.7949L75.9956 40.2927H50.0136L48.8809 37.7949H77.1317Z" fill="#CCE1E6"/>
<path d="M170.568 153.154C170.926 154.674 171.303 156.171 171.377 157.73C171.336 157.807 171.344 158.09 171.39 158.013C171.399 158.264 171.781 158.218 171.781 157.971C171.778 157.809 171.773 157.647 171.766 157.49C172.66 156.38 173.958 155.677 175.008 154.712C175.856 153.931 176.464 153 176.784 151.884C177.655 148.884 176.839 145.705 177.886 142.712C178.788 140.132 180.407 137.889 181.777 135.552C183.223 133.08 184.29 130.482 184.397 127.587C184.482 125.369 184.218 122.415 182.529 120.754C180.74 118.991 178.521 120.312 177.149 121.884C173.175 126.445 171.337 132.208 170.593 138.101C170.183 141.363 169.758 144.644 169.856 147.936C169.912 149.705 170.166 151.435 170.568 153.154Z" fill="#EF9A07"/>
<path d="M171.359 158.927C171.153 155.845 171.167 152.757 171.468 149.687C171.463 149.676 171.453 149.668 171.453 149.653C171.403 147.156 171.205 144.668 171.303 142.168C171.41 139.451 171.807 136.789 172.403 134.138C172.41 134.107 172.457 134.115 172.451 134.146C171.962 136.731 171.677 139.369 171.582 141.998C171.531 143.409 171.542 144.822 171.616 146.232C171.64 146.69 171.683 147.153 171.713 147.615C171.713 147.614 171.714 147.612 171.714 147.611C172.721 140.582 175.315 133.914 179.145 127.946C179.197 127.865 179.341 127.952 179.29 128.035C176.532 132.538 174.499 137.484 173.241 142.615C175.152 139.075 178.039 136.164 180.18 132.762C180.191 132.743 180.222 132.762 180.212 132.782C178.289 136.569 175.111 139.556 173.085 143.287C172.734 144.808 172.446 146.343 172.232 147.887C171.938 150.008 171.799 152.142 171.771 154.278C172.935 152.102 174.143 150.021 175.095 147.72C175.12 147.659 175.209 147.701 175.188 147.762C174.378 150.152 173.289 152.727 171.765 154.765C171.756 156.278 171.801 157.791 171.89 159.302C172.128 163.337 172.817 167.316 173.135 171.338C173.145 171.458 172.975 171.473 172.951 171.357C172.113 167.3 171.635 163.06 171.359 158.927Z" fill="#263238"/>
<path d="M175.644 127.819C175.656 127.79 175.699 127.81 175.689 127.839C174.952 129.877 174.536 131.941 174.003 134.03C173.979 134.125 173.841 134.105 173.851 134.005C174.068 131.886 174.824 129.772 175.644 127.819Z" fill="#263238"/>
<path d="M156.933 136.359C157.411 137.555 158.004 138.714 158.628 139.84C159.955 142.25 161.339 144.457 161.589 147.263C161.701 148.515 161.741 149.774 162.123 150.98C162.452 152.025 162.988 152.989 163.604 153.891C165.042 155.986 166.84 157.791 168.172 159.965C169.559 162.224 170.581 164.709 171.207 167.283C171.24 167.424 171.463 167.386 171.429 167.245C171.424 167.234 171.423 167.225 171.421 167.213C171.426 167.206 171.434 167.199 171.434 167.183C171.645 161.168 171.165 155.105 169.33 149.342C168.528 146.822 167.538 144.316 166.415 141.921C165.432 139.832 164.207 137.823 162.481 136.262C161.362 135.253 158.933 133.342 157.34 134.353C156.575 134.84 156.632 135.608 156.933 136.359Z" fill="#EF9A07"/>
<path d="M162.979 149.996C164.011 151.759 165.234 153.401 166.475 155.021C167.057 155.781 167.648 156.536 168.229 157.297C168.504 157.657 168.812 158.015 169.064 158.401C168.905 157.769 168.75 157.135 168.589 156.503C167.812 153.464 167.066 150.398 165.91 147.475C164.78 144.619 163.277 141.937 161.733 139.288C161.693 139.218 161.805 139.167 161.846 139.235C163.117 141.325 164.407 143.413 165.476 145.617C166.073 146.848 166.575 148.115 167.017 149.404C166.497 146.64 165.874 143.988 164.966 141.313C164.958 141.289 164.992 141.272 165.002 141.296C166.11 143.919 166.908 146.869 167.13 149.712C167.131 149.717 167.128 149.721 167.126 149.725C167.387 150.507 167.626 151.295 167.85 152.09C168.798 155.455 169.63 158.856 170.401 162.269C170.388 160.015 170.246 157.802 169.821 155.579C169.811 155.529 169.888 155.516 169.9 155.566C170.459 157.856 170.712 160.265 170.481 162.618C170.772 163.916 171.056 165.215 171.333 166.514C171.925 169.287 172.651 172.109 172.997 174.925C173.005 174.998 172.904 175.013 172.885 174.944C172.473 173.426 172.224 171.853 171.886 170.316C171.547 168.775 171.199 167.236 170.84 165.699C170.318 163.461 169.77 161.229 169.213 158.999C168.841 158.182 168.12 157.456 167.581 156.77C166.988 156.018 166.396 155.266 165.82 154.501C164.747 153.077 163.762 151.597 162.925 150.022C162.908 149.987 162.961 149.964 162.979 149.996Z" fill="#263238"/>
<path d="M162.722 147.423C164.027 149.098 165.211 150.951 166.143 152.859C166.156 152.883 166.117 152.91 166.102 152.886C164.951 151.081 163.819 149.263 162.67 147.457C162.65 147.426 162.701 147.395 162.722 147.423Z" fill="#263238"/>
<path d="M188.329 142.06C187.55 143.403 186.66 145.015 186.995 146.627C187.207 147.648 187.954 148.476 188.088 149.517C188.39 151.815 186.101 153.333 184.444 154.419C180.313 157.129 174.648 159.545 173.897 165.08C173.868 165.275 173.529 165.227 173.554 165.035C173.554 165.022 173.558 165.01 173.562 164.998C173.554 164.986 173.542 164.982 173.542 164.965C173.007 162.161 173.019 159.304 173.619 156.512C174.236 153.659 175.48 151.096 176.95 148.59C179.436 144.35 182.068 140.007 185.828 136.758C186.868 135.86 188.999 134.244 189.828 136.273C190.631 138.244 189.285 140.423 188.329 142.06Z" fill="#EF9A07"/>
<path d="M184.549 151.051C181.811 154.016 177.457 155.678 175.099 158.999C176.496 153.909 178.808 149.332 182.363 145.356C182.454 145.254 182.311 145.109 182.212 145.205C179.61 147.706 177.683 150.629 176.277 153.801C176.909 151.536 177.793 149.394 178.832 147.265C178.871 147.185 178.758 147.115 178.711 147.194C177.388 149.451 176.508 151.985 175.957 154.541C172.851 162.061 172.563 170.88 173.214 178.806C173.223 178.919 173.396 178.922 173.392 178.806C173.214 172.559 173.315 166.204 174.812 160.104C174.843 159.977 174.878 159.851 174.91 159.725C177.475 156.15 181.81 154.493 184.597 151.098C184.623 151.066 184.579 151.019 184.549 151.051Z" fill="#263238"/>
<path d="M185.184 148.506C183.746 149.825 182.331 151.174 180.891 152.492C180.876 152.505 180.896 152.531 180.912 152.519C182.48 151.459 184.072 150.057 185.27 148.591C185.318 148.532 185.243 148.452 185.184 148.506Z" fill="#263238"/>
<path d="M185.412 142.791C184.106 144.884 182.737 146.847 181.11 148.708C181.089 148.733 181.123 148.767 181.146 148.744C182.892 147.062 184.443 145.029 185.489 142.836C185.513 142.785 185.442 142.742 185.412 142.791Z" fill="#263238"/>
<path d="M178.939 184.397H166.346L168.043 167.455H176.999L178.939 184.397Z" fill="#455A64"/>
<path d="M177.315 170.209H167.766L168.042 167.455H177L177.315 170.209Z" fill="#263238"/>
<path d="M178.544 165.578H166.74V168.283H178.544V165.578Z" fill="#455A64"/>
<path d="M19.9258 184.397L41.1942 184.295L62.4625 184.258L105 184.188L147.537 184.258L168.805 184.295L190.074 184.397L168.805 184.5L147.537 184.537L105 184.607L62.4625 184.537L41.1942 184.499L19.9258 184.397Z" fill="#263238"/>
<path d="M152.739 27.9785H83.6703C79.8134 27.9785 76.6836 31.1613 76.6836 35.0958V177.281C76.6836 181.208 79.813 184.399 83.6703 184.399H152.738C156.6 184.399 159.733 181.208 159.733 177.281V35.0958C159.734 31.1613 156.6 27.9785 152.739 27.9785ZM155.366 172.885C155.366 176.627 152.563 179.655 149.107 179.655H87.3151C83.8505 179.655 81.0478 176.627 81.0478 172.885V40.4849C81.0478 32.861 83.8505 32.4893 87.3151 32.4893H99.6904C100.409 32.4893 100.998 33.3066 100.998 34.3197V34.7569C100.998 37.1307 102.297 37.1387 103.895 37.1387H132.519C134.129 37.1387 135.416 37.1307 135.416 34.7569V34.3197C135.416 33.3066 135.996 32.4893 136.727 32.4893H149.107C152.563 32.4893 155.366 33.5028 155.366 40.4849V172.885Z" fill="#263238"/>
<path d="M122.111 34.1733H114.303C114.037 34.1733 113.821 33.9574 113.821 33.6911C113.821 33.4249 114.037 33.209 114.303 33.209H122.111C122.378 33.209 122.593 33.4249 122.593 33.6911C122.594 33.9574 122.378 34.1733 122.111 34.1733Z" fill="white"/>
<path d="M155.367 40.4858V172.886C155.367 176.629 152.564 179.656 149.108 179.656H87.3161C83.8515 179.656 81.0488 176.629 81.0488 172.886V40.4858C81.0488 32.8619 83.8515 32.4902 87.3161 32.4902H99.6914C100.41 32.4902 100.999 33.3076 100.999 34.3206V34.7578C100.999 37.1317 102.298 37.1396 103.896 37.1396H132.52C134.13 37.1396 135.417 37.1317 135.417 34.7578V34.3206C135.417 33.3076 135.997 32.4902 136.728 32.4902H149.107C152.564 32.4902 155.367 33.5033 155.367 40.4858Z" fill="white"/>
<path d="M87.6536 44.851L86.3311 43.612L87.6536 42.373L87.859 42.5919L86.77 43.612L87.859 44.6326L87.6536 44.851Z" fill="#DBDBDB"/>
<path d="M146.582 43.1797C146.821 43.1797 147.014 43.3729 147.014 43.6114C147.014 43.85 146.821 44.0432 146.582 44.0432C146.344 44.0432 146.15 43.85 146.15 43.6114C146.15 43.3733 146.344 43.1797 146.582 43.1797Z" fill="#DBDBDB"/>
<path d="M148.118 43.1797C148.357 43.1797 148.55 43.3729 148.55 43.6114C148.55 43.85 148.357 44.0432 148.118 44.0432C147.88 44.0432 147.687 43.85 147.687 43.6114C147.686 43.3733 147.88 43.1797 148.118 43.1797Z" fill="#DBDBDB"/>
<path d="M149.654 43.1797C149.893 43.1797 150.087 43.3729 150.087 43.6114C150.087 43.85 149.893 44.0432 149.654 44.0432C149.416 44.0432 149.223 43.85 149.223 43.6114C149.222 43.3733 149.416 43.1797 149.654 43.1797Z" fill="#DBDBDB"/>
<path d="M97.5566 35.4633C97.5167 35.5028 97.4768 35.5423 97.4369 35.5822C97.4142 35.6048 97.3919 35.6275 97.3692 35.6502C97.0479 35.3386 96.6653 35.1722 96.2176 35.1718C95.7699 35.1718 95.3873 35.3377 95.0634 35.6515C95.042 35.6292 95.0206 35.6065 94.9988 35.5843C94.9597 35.5444 94.9202 35.5053 94.8807 35.4654C94.8799 35.4646 94.8782 35.4641 94.877 35.4633C94.877 35.4625 94.877 35.4612 94.877 35.4604C94.8799 35.4578 94.8828 35.4557 94.8858 35.4532C94.9362 35.4087 94.9853 35.3621 95.037 35.3192C95.1441 35.2306 95.2621 35.1575 95.3864 35.0962C95.5338 35.0236 95.6884 34.9702 95.8501 34.9404C95.9265 34.9261 96.0042 34.919 96.0815 34.9097C96.108 34.9064 96.2789 34.906 96.2844 34.9064C96.3369 34.9102 96.3898 34.9127 96.4423 34.9181C96.588 34.9337 96.7296 34.9694 96.8673 35.0198C96.9669 35.0563 97.0626 35.1013 97.155 35.1546C97.2525 35.2105 97.3445 35.2743 97.4297 35.347C97.473 35.3835 97.5141 35.4226 97.5561 35.4608C97.5561 35.4608 97.5566 35.4625 97.5566 35.4633Z" fill="#C7C7C7"/>
<path d="M95.4429 36.0249C95.3795 35.9623 95.3177 35.9006 95.2539 35.8376C95.4694 35.6263 95.7235 35.4919 96.0229 35.4516C96.4702 35.3911 96.8541 35.5268 97.1792 35.835C97.1149 35.8989 97.0528 35.961 96.9893 36.024C96.7756 35.8166 96.5181 35.7044 96.2161 35.7044C95.915 35.7044 95.6579 35.8166 95.4429 36.0249Z" fill="#C7C7C7"/>
<path d="M96.8008 36.2143C96.7387 36.2765 96.6761 36.3391 96.6127 36.4021C96.5039 36.2962 96.3716 36.2379 96.2166 36.2379C96.0621 36.2383 95.9302 36.2962 95.8206 36.4029C95.7576 36.3399 95.6954 36.2778 95.6328 36.2152C95.9314 35.9019 96.4695 35.8771 96.8008 36.2143Z" fill="#C7C7C7"/>
<path d="M96.3867 36.572C96.3867 36.6657 96.3106 36.7417 96.2166 36.7417C96.1229 36.7417 96.0469 36.6657 96.0469 36.572C96.0469 36.4784 96.1229 36.4023 96.2166 36.4023C96.3106 36.4023 96.3867 36.4784 96.3867 36.572Z" fill="#C7C7C7"/>
<path d="M85.8945 35.8247C85.8945 35.5525 86.115 35.332 86.3872 35.332C86.6594 35.332 86.8799 35.5525 86.8799 35.8247C86.8799 36.0968 86.6594 36.3174 86.3872 36.3174C86.115 36.3174 85.8945 36.0968 85.8945 35.8247Z" fill="#C7C7C7"/>
<path d="M87.4453 35.8247C87.4453 35.5525 87.6658 35.332 87.938 35.332C88.2097 35.332 88.4306 35.5525 88.4306 35.8247C88.4306 36.0968 88.2101 36.3174 87.938 36.3174C87.6658 36.3174 87.4453 36.0968 87.4453 35.8247Z" fill="#C7C7C7"/>
<path d="M88.9971 35.8247C88.9971 35.5525 89.2176 35.332 89.4897 35.332C89.7619 35.332 89.9824 35.5525 89.9824 35.8247C89.9824 36.0968 89.7619 36.3174 89.4897 36.3174C89.2176 36.3174 88.9971 36.0968 88.9971 35.8247Z" fill="#C7C7C7"/>
<path d="M90.5488 35.8247C90.5488 35.5525 90.7693 35.332 91.0415 35.332C91.3136 35.332 91.5341 35.5525 91.5341 35.8247C91.5341 36.0968 91.3136 36.3174 91.0415 36.3174C90.7693 36.3174 90.5488 36.0968 90.5488 35.8247Z" fill="#C7C7C7"/>
<path d="M92.0996 35.8247C92.0996 35.5525 92.3201 35.332 92.5923 35.332C92.8644 35.332 93.0849 35.5525 93.0849 35.8247C93.0849 36.0968 92.8644 36.3174 92.5923 36.3174C92.3201 36.3174 92.0996 36.0968 92.0996 35.8247Z" fill="#C7C7C7"/>
<path d="M149.794 36.9022H145.778V35.0391H149.794V36.9022ZM145.989 36.6922H149.584V35.2491H145.989V36.6922Z" fill="#C7C7C7"/>
<path d="M148.699 35.3574H146.114V36.5838H148.699V35.3574Z" fill="#C7C7C7"/>
<path d="M150.151 35.4746H149.794V36.4679H150.151V35.4746Z" fill="#C7C7C7"/>
<path d="M116.239 63.4483C116.239 64.6659 117.226 65.6529 118.443 65.6529C119.661 65.6529 120.648 64.6659 120.648 63.4483C120.648 62.2307 119.661 61.2441 118.443 61.2441C117.226 61.2441 116.239 62.2311 116.239 63.4483Z" fill="#EF9A07"/>
<path opacity="0.9" d="M105.668 66.2994C105.668 67.4569 106.606 68.3956 107.764 68.3956C108.922 68.3956 109.86 67.4573 109.86 66.2994C109.86 65.1418 108.922 64.2031 107.764 64.2031C106.606 64.2035 105.668 65.1418 105.668 66.2994Z" fill="#EF9A07"/>
<path opacity="0.8" d="M99.0967 73.5777C99.0967 74.6756 99.9867 75.5656 101.085 75.5656C102.182 75.5656 103.072 74.6756 103.072 73.5777C103.072 72.4798 102.182 71.5898 101.085 71.5898C99.9867 71.5903 99.0967 72.4798 99.0967 73.5777Z" fill="#EF9A07"/>
<path opacity="0.7" d="M98.8004 85.2375C99.8384 85.2375 100.68 84.396 100.68 83.358C100.68 82.32 99.8384 81.4785 98.8004 81.4785C97.7624 81.4785 96.9209 82.32 96.9209 83.358C96.9209 84.396 97.7624 85.2375 98.8004 85.2375Z" fill="#EF9A07"/>
<path opacity="0.6" d="M99.1436 92.5817C99.1436 93.5599 99.9365 94.3528 100.915 94.3528C101.893 94.3528 102.686 93.5599 102.686 92.5817C102.686 91.6035 101.893 90.8105 100.915 90.8105C99.9365 90.8105 99.1436 91.6035 99.1436 92.5817Z" fill="#EF9A07"/>
<path opacity="0.5" d="M105.721 100.13C105.721 101.048 106.465 101.792 107.383 101.792C108.302 101.792 109.046 101.048 109.046 100.13C109.046 99.211 108.302 98.4668 107.383 98.4668C106.465 98.4668 105.721 99.211 105.721 100.13Z" fill="#EF9A07"/>
<path opacity="0.4" d="M116.958 103.285C116.958 104.143 117.654 104.839 118.513 104.839C119.371 104.839 120.067 104.143 120.067 103.285C120.067 102.426 119.371 101.73 118.513 101.73C117.654 101.73 116.958 102.426 116.958 103.285Z" fill="#EF9A07"/>
<path opacity="0.3" d="M128.341 99.8859C128.341 100.685 128.988 101.332 129.787 101.332C130.586 101.332 131.234 100.685 131.234 99.8859C131.234 99.0871 130.586 98.4395 129.787 98.4395C128.988 98.4395 128.341 99.0871 128.341 99.8859Z" fill="#EF9A07"/>
<path opacity="0.2" d="M134.872 91.9709C134.872 92.7101 135.471 93.3091 136.21 93.3091C136.949 93.3091 137.548 92.7101 137.548 91.9709C137.548 91.2322 136.949 90.6328 136.21 90.6328C135.471 90.6328 134.872 91.2317 134.872 91.9709Z" fill="#EF9A07"/>
<path opacity="0.1" d="M137.036 83.1614C137.036 83.8405 137.587 84.3912 138.266 84.3912C138.945 84.3912 139.496 83.8405 139.496 83.1614C139.496 82.4823 138.945 81.9316 138.266 81.9316C137.587 81.9316 137.036 82.4823 137.036 83.1614Z" fill="#EF9A07"/>
<path opacity="0.05" d="M135.083 72.9381C135.703 72.9381 136.205 72.436 136.205 71.8167C136.205 71.1974 135.703 70.6953 135.083 70.6953C134.464 70.6953 133.962 71.1974 133.962 71.8167C133.962 72.436 134.464 72.9381 135.083 72.9381Z" fill="#EF9A07"/>
<path opacity="0.01" d="M126.439 65.4369C126.439 65.9963 126.893 66.4499 127.452 66.4499C128.012 66.4499 128.466 65.9963 128.466 65.4369C128.466 64.8774 128.012 64.4238 127.452 64.4238C126.893 64.4238 126.439 64.8774 126.439 65.4369Z" fill="#EF9A07"/>
<path d="M118.058 88.0573C120.77 88.0414 122.954 85.8301 122.938 83.1202C122.922 80.4053 120.711 78.2243 117.999 78.2402C115.289 78.2558 113.108 80.4646 113.124 83.1769C113.139 85.8868 115.348 88.0733 118.058 88.0573ZM113.721 83.1744C113.706 80.7917 115.623 78.8509 118.004 78.8371C120.384 78.8232 122.324 80.7401 122.339 83.1227C122.353 85.5029 120.436 87.4437 118.053 87.4576C115.675 87.4718 113.735 85.555 113.721 83.1744ZM118.058 88.0573C120.77 88.0414 122.954 85.8301 122.938 83.1202C122.922 80.4053 120.711 78.2243 117.999 78.2402C115.289 78.2558 113.108 80.4646 113.124 83.1769C113.139 85.8868 115.348 88.0733 118.058 88.0573ZM113.721 83.1744C113.706 80.7917 115.623 78.8509 118.004 78.8371C120.384 78.8232 122.324 80.7401 122.339 83.1227C122.353 85.5029 120.436 87.4437 118.053 87.4576C115.675 87.4718 113.735 85.555 113.721 83.1744ZM118.058 88.0573C120.77 88.0414 122.954 85.8301 122.938 83.1202C122.922 80.4053 120.711 78.2243 117.999 78.2402C115.289 78.2558 113.108 80.4646 113.124 83.1769C113.139 85.8868 115.348 88.0733 118.058 88.0573ZM113.721 83.1744C113.706 80.7917 115.623 78.8509 118.004 78.8371C120.384 78.8232 122.324 80.7401 122.339 83.1227C122.353 85.5029 120.436 87.4437 118.053 87.4576C115.675 87.4718 113.735 85.555 113.721 83.1744ZM118.088 93.4951C123.806 93.4602 128.407 88.7978 128.375 83.0875C128.341 77.375 123.683 72.7685 117.968 72.8029C112.257 72.8374 107.651 77.4977 107.686 83.2101C107.718 88.9204 112.378 93.5295 118.088 93.4951ZM112.359 83.1832C112.341 80.0542 114.869 77.4947 117.995 77.4763C121.122 77.4582 123.681 79.9858 123.7 83.1148C123.718 86.2438 121.188 88.8011 118.061 88.8196C114.937 88.8373 112.378 86.3097 112.359 83.1832ZM113.123 83.1769C113.139 85.8868 115.348 88.0733 118.058 88.0573C120.77 88.0414 122.954 85.8301 122.938 83.1202C122.922 80.4053 120.711 78.2243 117.999 78.2402C115.289 78.2562 113.108 80.4646 113.123 83.1769ZM113.721 83.1744C113.706 80.7917 115.623 78.8509 118.004 78.8371C120.384 78.8232 122.324 80.7401 122.339 83.1227C122.353 85.5029 120.436 87.4437 118.053 87.4576C115.675 87.4718 113.735 85.555 113.721 83.1744ZM118.058 88.0573C120.77 88.0414 122.954 85.8301 122.938 83.1202C122.922 80.4053 120.711 78.2243 117.999 78.2402C115.289 78.2558 113.108 80.4646 113.124 83.1769C113.139 85.8868 115.348 88.0733 118.058 88.0573ZM113.721 83.1744C113.706 80.7917 115.623 78.8509 118.004 78.8371C120.384 78.8232 122.324 80.7401 122.339 83.1227C122.353 85.5029 120.436 87.4437 118.053 87.4576C115.675 87.4718 113.735 85.555 113.721 83.1744ZM118.058 88.0573C120.77 88.0414 122.954 85.8301 122.938 83.1202C122.922 80.4053 120.711 78.2243 117.999 78.2402C115.289 78.2558 113.108 80.4646 113.124 83.1769C113.139 85.8868 115.348 88.0733 118.058 88.0573ZM113.721 83.1744C113.706 80.7917 115.623 78.8509 118.004 78.8371C120.384 78.8232 122.324 80.7401 122.339 83.1227C122.353 85.5029 120.436 87.4437 118.053 87.4576C115.675 87.4718 113.735 85.555 113.721 83.1744Z" fill="#EF9A07"/>
<path d="M115.982 73.2442L119.96 73.2207L119.724 70.4062L116.186 70.4273L115.982 73.2442Z" fill="#EF9A07"/>
<path d="M123.562 74.5394L126.391 77.3358L128.214 75.1782L125.697 72.6914L123.562 74.5394Z" fill="#EF9A07"/>
<path d="M128.005 80.8145L128.029 84.7923L130.843 84.5558L130.822 81.0177L128.005 80.8145Z" fill="#EF9A07"/>
<path d="M126.709 88.3945L123.913 91.2241L126.07 93.0469L128.557 90.5302L126.709 88.3945Z" fill="#EF9A07"/>
<path d="M120.434 92.8379L116.456 92.8618L116.693 95.6762L120.231 95.6552L120.434 92.8379Z" fill="#EF9A07"/>
<path d="M112.854 91.542L110.025 88.7461L108.202 90.9036L110.719 93.3905L112.854 91.542Z" fill="#EF9A07"/>
<path d="M108.411 85.2673L108.388 81.2891L105.573 81.5259L105.594 85.064L108.411 85.2673Z" fill="#EF9A07"/>
<path d="M109.707 77.6875L112.503 74.858L110.345 73.0352L107.858 75.5518L109.707 77.6875Z" fill="#EF9A07"/>
<path d="M142.889 113.25H93.5273V117.172H142.889V113.25Z" stroke="#EF9A07" stroke-width="0.5" stroke-miterlimit="10"/>
<path d="M96.2158 113.996H94.4375V116.428H96.2158V113.996Z" fill="#EF9A07"/>
<path d="M98.6703 113.996H96.8916V116.428H98.6703V113.996Z" fill="#EF9A07"/>
<path d="M101.125 113.996H99.3467V116.428H101.125V113.996Z" fill="#EF9A07"/>
<path d="M103.58 113.996H101.802V116.428H103.58V113.996Z" fill="#EF9A07"/>
<path d="M106.034 113.996H104.256V116.428H106.034V113.996Z" fill="#EF9A07"/>
<path d="M108.489 113.996H106.711V116.428H108.489V113.996Z" fill="#EF9A07"/>
<path d="M110.944 113.996H109.166V116.428H110.944V113.996Z" fill="#EF9A07"/>
<path d="M113.398 113.996H111.62V116.428H113.398V113.996Z" fill="#EF9A07"/>
<path d="M115.853 113.996H114.075V116.428H115.853V113.996Z" fill="#EF9A07"/>
<path d="M118.309 113.996H116.53V116.428H118.309V113.996Z" fill="#EF9A07"/>
<path d="M120.763 113.996H118.984V116.428H120.763V113.996Z" fill="#EF9A07"/>
<path d="M123.218 113.996H121.439V116.428H123.218V113.996Z" fill="#EF9A07"/>
<path d="M137.243 114.621L136.626 116.079C136.606 116.131 136.557 116.161 136.5 116.161C136.485 116.161 136.466 116.158 136.449 116.151C136.38 116.119 136.347 116.04 136.375 115.973L136.907 114.707H136.27C136.196 114.707 136.135 114.643 136.135 114.569C136.135 114.492 136.196 114.434 136.27 114.434H137.117C137.124 114.434 137.131 114.434 137.142 114.436C137.159 114.439 137.176 114.448 137.194 114.456C137.196 114.458 137.199 114.461 137.201 114.463C137.206 114.466 137.208 114.468 137.21 114.473C137.213 114.478 137.218 114.481 137.22 114.483C137.223 114.488 137.225 114.49 137.228 114.492C137.23 114.495 137.233 114.502 137.233 114.505C137.235 114.51 137.238 114.513 137.242 114.517C137.242 114.52 137.245 114.527 137.245 114.529C137.247 114.534 137.247 114.537 137.25 114.542C137.252 114.559 137.252 114.578 137.25 114.596C137.248 114.606 137.245 114.614 137.243 114.621Z" fill="#EF9A07"/>
<path d="M137.536 115.297C137.539 115.07 137.595 114.865 137.704 114.707C137.807 114.55 137.968 114.434 138.163 114.434C138.353 114.434 138.516 114.55 138.619 114.707C138.726 114.865 138.785 115.07 138.785 115.297C138.785 115.521 138.726 115.728 138.619 115.886C138.516 116.042 138.353 116.16 138.163 116.16C137.968 116.16 137.807 116.042 137.704 115.886C137.595 115.728 137.539 115.521 137.536 115.297ZM138.511 115.297C138.511 115.119 138.461 114.964 138.392 114.858C138.321 114.754 138.239 114.705 138.163 114.707C138.086 114.705 138.002 114.754 137.928 114.858C137.859 114.964 137.81 115.119 137.81 115.297C137.81 115.472 137.859 115.63 137.928 115.733C138.002 115.84 138.086 115.886 138.163 115.886C138.239 115.886 138.321 115.84 138.392 115.733C138.461 115.63 138.511 115.472 138.511 115.297Z" fill="#EF9A07"/>
<path d="M139.262 114.861V114.856C139.262 114.614 139.427 114.414 139.671 114.414C139.916 114.414 140.076 114.614 140.076 114.851V114.856C140.076 115.095 139.913 115.298 139.666 115.298C139.425 115.298 139.262 115.097 139.262 114.861ZM139.856 114.861V114.856C139.856 114.718 139.777 114.604 139.666 114.604C139.551 114.604 139.481 114.717 139.481 114.851V114.856C139.481 114.997 139.56 115.107 139.671 115.107C139.787 115.107 139.856 114.994 139.856 114.861ZM139.546 116.013L140.678 114.466C140.695 114.436 140.727 114.422 140.762 114.422C140.816 114.422 140.86 114.464 140.86 114.518C140.86 114.543 140.851 114.564 140.838 114.582L139.706 116.129C139.686 116.158 139.654 116.173 139.619 116.173C139.565 116.173 139.523 116.131 139.523 116.076C139.523 116.052 139.533 116.03 139.546 116.013ZM140.305 115.744V115.739C140.305 115.497 140.471 115.297 140.715 115.297C140.957 115.297 141.12 115.497 141.12 115.734V115.739C141.12 115.978 140.955 116.181 140.71 116.181C140.468 116.181 140.305 115.981 140.305 115.744ZM140.9 115.744V115.739C140.9 115.601 140.821 115.487 140.71 115.487C140.594 115.487 140.525 115.601 140.525 115.734V115.739C140.525 115.879 140.604 115.991 140.715 115.991C140.831 115.991 140.9 115.877 140.9 115.744Z" fill="#EF9A07"/>
<path d="M105.964 121.835C105.964 121.718 106.055 121.627 106.172 121.627C106.286 121.627 106.384 121.718 106.384 121.835V124.065C106.384 124.183 106.286 124.273 106.172 124.273C106.055 124.273 105.964 124.183 105.964 124.065V121.835Z" fill="#C7C7C7"/>
<path d="M107.506 124.065C107.506 124.178 107.411 124.272 107.302 124.272C107.185 124.272 107.094 124.178 107.094 124.065V121.868C107.094 121.868 107.094 121.868 107.094 121.864C107.09 121.8 107.121 121.732 107.177 121.69C107.272 121.626 107.4 121.645 107.465 121.735L108.686 123.425V121.868C108.686 121.758 108.777 121.663 108.89 121.663C109.003 121.663 109.098 121.758 109.098 121.868V124.064C109.098 124.178 109.003 124.272 108.89 124.272C108.829 124.272 108.773 124.242 108.735 124.196C108.727 124.189 108.72 124.181 108.716 124.173L107.506 122.495V124.065Z" fill="#C7C7C7"/>
<path d="M109.921 123.615C109.989 123.532 110.114 123.52 110.197 123.589C110.364 123.725 110.651 123.883 110.919 123.88C111.108 123.88 111.278 123.823 111.392 123.74C111.505 123.657 111.554 123.562 111.554 123.468C111.554 123.419 111.544 123.385 111.52 123.347C111.498 123.309 111.464 123.271 111.407 123.233C111.297 123.161 111.112 123.097 110.889 123.056H110.882C110.704 123.022 110.538 122.976 110.394 122.908C110.25 122.84 110.125 122.745 110.042 122.613C109.985 122.522 109.955 122.416 109.955 122.303C109.955 122.076 110.084 121.88 110.258 121.751C110.436 121.623 110.666 121.551 110.912 121.551C111.275 121.551 111.544 121.728 111.736 121.853C111.823 121.914 111.85 122.035 111.789 122.122C111.733 122.213 111.612 122.239 111.52 122.179C111.328 122.05 111.143 121.937 110.912 121.937C110.742 121.937 110.591 121.99 110.489 122.065C110.386 122.141 110.344 122.224 110.344 122.303C110.344 122.349 110.352 122.379 110.371 122.409C110.39 122.44 110.424 122.474 110.473 122.508C110.572 122.576 110.742 122.636 110.946 122.674H110.954C111.147 122.712 111.324 122.761 111.476 122.833C111.631 122.909 111.767 123.007 111.854 123.147C111.91 123.237 111.944 123.351 111.944 123.468C111.944 123.71 111.808 123.918 111.619 124.054C111.434 124.19 111.188 124.27 110.92 124.27C110.511 124.266 110.167 124.062 109.952 123.892C109.868 123.823 109.857 123.698 109.921 123.615Z" fill="#C7C7C7"/>
<path d="M114.087 122.047H113.486V124.066C113.486 124.183 113.395 124.274 113.278 124.274C113.165 124.274 113.07 124.183 113.07 124.066V122.047H112.473C112.355 122.047 112.265 121.948 112.265 121.835C112.265 121.718 112.355 121.627 112.473 121.627H114.087C114.201 121.627 114.295 121.718 114.295 121.835C114.295 121.948 114.201 122.047 114.087 122.047Z" fill="#C7C7C7"/>
<path d="M115.91 123.648H114.991L114.806 124.14C114.772 124.223 114.692 124.272 114.61 124.272C114.583 124.272 114.56 124.268 114.537 124.261C114.428 124.219 114.375 124.098 114.413 123.989L115.248 121.761C115.282 121.678 115.365 121.625 115.449 121.629C115.536 121.625 115.615 121.678 115.649 121.761L116.485 123.989C116.523 124.098 116.47 124.219 116.36 124.261C116.341 124.268 116.315 124.272 116.288 124.272C116.205 124.272 116.125 124.223 116.095 124.14L115.91 123.648ZM115.755 123.233L115.449 122.42L115.143 123.233H115.755Z" fill="#C7C7C7"/>
<path d="M117.002 124.065V121.835C117.002 121.721 117.093 121.627 117.21 121.627C117.327 121.627 117.422 121.721 117.422 121.835V123.854H118.446C118.556 123.854 118.654 123.949 118.654 124.066C118.654 124.18 118.556 124.274 118.446 124.274H117.221C117.213 124.274 117.213 124.274 117.213 124.274C117.209 124.274 117.209 124.274 117.209 124.274C117.093 124.273 117.002 124.179 117.002 124.065Z" fill="#C7C7C7"/>
<path d="M119.13 124.065V121.835C119.13 121.721 119.221 121.627 119.338 121.627C119.455 121.627 119.549 121.721 119.549 121.835V123.854H120.574C120.684 123.854 120.782 123.949 120.782 124.066C120.782 124.18 120.684 124.274 120.574 124.274H119.349C119.342 124.274 119.342 124.274 119.342 124.274C119.338 124.274 119.338 124.274 119.338 124.274C119.221 124.273 119.13 124.179 119.13 124.065Z" fill="#C7C7C7"/>
<path d="M121.303 121.835C121.303 121.718 121.394 121.627 121.511 121.627C121.624 121.627 121.723 121.718 121.723 121.835V124.065C121.723 124.183 121.624 124.273 121.511 124.273C121.394 124.273 121.303 124.183 121.303 124.065V121.835Z" fill="#C7C7C7"/>
<path d="M122.846 124.065C122.846 124.178 122.751 124.272 122.642 124.272C122.525 124.272 122.434 124.178 122.434 124.065V121.868C122.434 121.868 122.434 121.868 122.434 121.864C122.43 121.8 122.461 121.732 122.517 121.69C122.612 121.626 122.74 121.645 122.804 121.735L124.026 123.425V121.868C124.026 121.758 124.116 121.663 124.23 121.663C124.343 121.663 124.438 121.758 124.438 121.868V124.064C124.438 124.178 124.343 124.272 124.23 124.272C124.169 124.272 124.113 124.242 124.075 124.196C124.067 124.189 124.06 124.181 124.056 124.173L122.846 122.495V124.065Z" fill="#C7C7C7"/>
<path d="M125.038 122.915C125.038 122.155 125.666 121.551 126.433 121.551C126.755 121.551 127.061 121.66 127.296 121.846C127.393 121.917 127.409 122.057 127.337 122.152C127.265 122.243 127.125 122.262 127.031 122.186C126.868 122.061 126.661 121.982 126.434 121.982C126.162 121.982 125.923 122.084 125.753 122.258C125.575 122.428 125.469 122.659 125.469 122.915C125.469 123.165 125.575 123.396 125.753 123.566C125.923 123.74 126.162 123.842 126.434 123.842C126.623 123.842 126.8 123.785 126.952 123.698V123.18H126.411C126.294 123.18 126.195 123.082 126.195 122.965C126.195 122.844 126.293 122.753 126.411 122.753H127.155C127.16 122.753 127.16 122.753 127.16 122.753C127.163 122.753 127.163 122.753 127.163 122.753C127.284 122.753 127.383 122.844 127.383 122.965V123.8C127.383 123.827 127.375 123.842 127.371 123.864C127.367 123.872 127.367 123.875 127.363 123.883V123.887C127.352 123.921 127.33 123.951 127.291 123.978C127.054 124.163 126.755 124.273 126.433 124.273C125.666 124.273 125.038 123.672 125.038 122.915Z" fill="#C7C7C7"/>
<path d="M128.429 123.736C128.584 123.736 128.713 123.865 128.713 124.02C128.713 124.175 128.584 124.3 128.429 124.3C128.274 124.3 128.149 124.175 128.149 124.02C128.149 123.865 128.274 123.736 128.429 123.736Z" fill="#C7C7C7"/>
<path d="M129.298 123.736C129.453 123.736 129.582 123.865 129.582 124.02C129.582 124.175 129.453 124.3 129.298 124.3C129.143 124.3 129.019 124.175 129.019 124.02C129.019 123.865 129.143 123.736 129.298 123.736Z" fill="#C7C7C7"/>
<path d="M130.167 123.736C130.322 123.736 130.451 123.865 130.451 124.02C130.451 124.175 130.322 124.3 130.167 124.3C130.012 124.3 129.888 124.175 129.888 124.02C129.888 123.865 130.012 123.736 130.167 123.736Z" fill="#C7C7C7"/>
<path d="M35.332 184.536L95.9628 184.797C110.7 173.225 112.221 156.08 101.708 145.689C95.3454 139.403 87.2658 140.671 79.5718 139.671C79.5643 139.671 79.5571 139.668 79.5496 139.668C76.87 139.319 74.2416 138.694 71.7456 137.377C63.8239 133.198 59.3577 123.339 52.6931 115.046C51.8623 114.006 50.995 112.995 50.0832 112.021C44.6026 106.168 33.694 105.978 27.9887 114.206C13.4916 135.111 20.1322 166.225 35.332 184.536Z" fill="#EF9A07"/>
<path opacity="0.5" d="M35.332 184.536L95.9628 184.797C110.7 173.225 112.221 156.08 101.708 145.689C95.3454 139.403 87.2658 140.671 79.5718 139.671C79.5643 139.671 79.5571 139.668 79.5496 139.668C76.87 139.319 74.2416 138.694 71.7456 137.377C63.8239 133.198 59.3577 123.339 52.6931 115.046C51.8623 114.006 50.995 112.995 50.0832 112.021C44.6026 106.168 33.694 105.978 27.9887 114.206C13.4916 135.111 20.1322 166.225 35.332 184.536Z" fill="white"/>
<path d="M33.9859 136.706C35.5739 161.581 64.3015 170.866 82.2435 163.415C97.8444 156.934 92.7384 142.146 79.571 139.672C79.5635 139.672 79.5563 139.668 79.5488 139.668C76.8692 139.319 74.2408 138.694 71.7447 137.378C63.8231 133.199 59.3568 123.34 52.6923 115.047C42.7643 109.889 32.8208 118.491 33.9859 136.706Z" fill="#EF9A07"/>
<path d="M89.9148 188.454C88.9795 188.111 67.8497 171.224 67.4507 170.071C67.297 169.635 69.5772 166.414 72.4424 162.601C73.0611 161.777 73.7049 160.93 74.3639 160.074C78.634 154.511 83.2948 148.707 83.2948 148.707L97.4618 159.962L88.1407 171.02L86.0966 173.448C86.0966 173.448 91.2945 183.532 91.5965 184.844C91.8934 186.152 90.8502 188.797 89.9148 188.454Z" fill="#AD6359"/>
<path d="M90.562 188.709C89.5893 188.375 67.4872 171.342 67.0588 170.159C66.8878 169.712 69.1823 166.347 72.0711 162.36C72.1017 162.319 72.1324 162.277 72.163 162.236L86.5451 173.066L86.3532 173.304C86.3532 173.304 91.8972 183.608 92.2319 184.958C92.5612 186.301 91.5322 189.047 90.562 188.709Z" fill="#263238"/>
<path d="M90.9723 187.659C87.3171 184.696 72.2945 173.091 68.4561 170.441C68.4251 170.419 68.4091 170.439 68.4381 170.464C71.9967 173.48 87.113 184.963 90.9253 187.72C91.0059 187.778 91.0492 187.722 90.9723 187.659Z" fill="white"/>
<path d="M87.5179 174.269C86.2625 172.866 84.2961 171.709 82.3708 171.89C82.296 171.897 82.3074 172.003 82.3662 172.024C84.1642 172.683 85.7404 173.431 87.3692 174.449C87.4843 174.522 87.6082 174.369 87.5179 174.269Z" fill="white"/>
<path d="M88.0843 175.722C86.8289 174.319 84.8625 173.162 82.9372 173.343C82.8624 173.35 82.8738 173.456 82.9326 173.477C84.7306 174.136 86.3069 174.884 87.9356 175.902C88.0503 175.975 88.1742 175.823 88.0843 175.722Z" fill="white"/>
<path d="M88.6516 177.177C87.3967 175.773 85.4298 174.617 83.5045 174.798C83.4298 174.805 83.4411 174.911 83.5003 174.933C85.2983 175.591 86.8746 176.34 88.5034 177.358C88.6176 177.429 88.7411 177.277 88.6516 177.177Z" fill="white"/>
<path d="M91.5104 188.177C91.7889 188.635 90.6792 189.897 90.3117 189.784C89.9442 189.67 65.9274 170.992 65.5884 170.585C65.2495 170.177 66.5326 168.824 67.0664 169.115C67.6002 169.406 91.5104 188.177 91.5104 188.177Z" fill="#EF9A07"/>
<path d="M73.9052 167.524C72.9203 165.488 69.7543 167.015 70.7409 169.054C71.7258 171.09 74.8918 169.563 73.9052 167.524Z" fill="white"/>
<path d="M111.771 138.32C110.8 145.68 92.6608 166.928 90.5646 169.365C90.2555 169.724 90.087 169.92 90.087 169.92L75.0825 158.389L75.2551 158.166L88.4679 140.866C88.4679 140.866 66.6187 153.615 55.6865 147.828C50.7792 145.23 47.1387 140.611 47.1387 140.611L61.4065 133.003C61.4065 133.003 65.3545 134.28 67.8779 133.911C76.5756 132.638 96.0653 125.239 100.69 125.425C106.656 125.671 112.662 131.567 111.771 138.32Z" fill="#263238"/>
<path d="M93.2138 134.435C92.7014 134.954 92.2923 135.603 91.8509 136.182C91.3838 136.794 90.9092 137.401 90.443 138.013C90.4384 138.019 90.4338 138.026 90.4292 138.032C90.5119 137.853 90.593 137.672 90.6787 137.494C90.9731 136.884 91.2087 136.255 91.5569 135.672C91.5783 135.636 91.5237 135.603 91.5019 135.638C91.144 136.217 90.7291 136.767 90.4229 137.376C90.2788 137.663 90.1423 137.953 90.0151 138.248C89.9453 138.409 89.8739 138.571 89.8114 138.735C89.7828 138.81 89.7467 138.89 89.7257 138.971C89.5165 139.255 89.3103 139.541 89.1095 139.831C88.6648 140.475 88.2721 141.157 87.8214 141.796C87.7975 141.83 87.8516 141.862 87.8764 141.83C88.3321 141.229 88.8437 140.669 89.3069 140.072C89.7782 139.465 90.2259 138.84 90.6673 138.211C91.0982 137.598 91.5203 136.977 91.9508 136.363C92.3843 135.745 92.8988 135.134 93.2503 134.465C93.2633 134.442 93.2339 134.414 93.2138 134.435Z" fill="#37474F"/>
<path d="M78.0879 155.768C78.912 156.532 79.7982 157.238 80.6676 157.95C81.5403 158.664 82.4169 159.374 83.2976 160.079C85.0595 161.489 86.8134 162.911 88.5942 164.297C89.5728 165.059 90.5586 165.811 91.5766 166.518C91.622 166.55 91.6732 166.478 91.6333 166.441C89.9651 164.924 88.1851 163.537 86.4245 162.129C84.6609 160.719 82.8927 159.315 81.1081 157.931C80.1316 157.174 79.1598 156.394 78.1387 155.698C78.0976 155.671 78.0526 155.735 78.0879 155.768Z" fill="#37474F"/>
<path d="M54.6784 118.636C57.8826 126.224 67.8706 133.802 71.1159 134.005C74.9039 134.242 84.5488 129.635 88.181 124.278C89.042 123.008 80.8755 117.302 79.5479 118.266C76.8233 120.245 71.6628 122.971 71.2142 123.017C70.3238 123.11 64.0654 119.725 59.2341 116.535C53.2227 112.565 53.4016 115.612 54.6784 118.636Z" fill="#AD6359"/>
<path d="M87.0674 125.7C87.0674 125.7 90.4316 122.032 90.7055 118.654C90.8949 116.318 90.485 110.148 84.7679 106.119C83.4117 105.163 80.8019 104.763 82.4499 107.128C83.6205 108.808 84.8704 109.52 85.3731 110.621C85.3731 110.621 81.993 110.506 81.0887 111.902C80.6847 112.526 79.6212 114.254 78.9854 115.718C78.9854 115.718 79.2672 115.942 79.6645 116.175C79.6645 116.175 78.9429 117.559 79.5322 119.857L87.0674 125.7Z" fill="#AD6359"/>
<path d="M78.1922 103.902L74.6881 116.206C74.5445 116.566 74.7183 116.867 75.0758 116.878L81.474 117.074C81.8315 117.085 82.2384 116.802 82.3817 116.442L85.8857 104.138C86.0294 103.778 85.8555 103.477 85.4985 103.466L79.1002 103.27C78.7428 103.259 78.3362 103.542 78.1922 103.902Z" fill="#455A64"/>
<path d="M78.952 103.92L75.4479 116.223C75.3043 116.583 75.4777 116.884 75.8356 116.895L82.2339 117.092C82.5909 117.102 82.9978 116.819 83.1415 116.459L86.6455 104.156C86.7892 103.795 86.6153 103.494 86.2583 103.484L79.86 103.287C79.5026 103.276 79.0956 103.559 78.952 103.92Z" fill="#37474F"/>
<path d="M80.6894 104.539C80.6735 104.839 80.4177 105.07 80.1178 105.054C79.8179 105.038 79.5874 104.782 79.6033 104.482C79.6193 104.182 79.8751 103.952 80.1749 103.968C80.4748 103.983 80.705 104.239 80.6894 104.539Z" fill="#263238"/>
<path d="M90.2755 115.353C89.5451 114.366 87.9621 112.299 86.0792 111.058C83.9876 109.68 79.5877 107.59 78.5864 109.144C77.8523 110.284 79.4621 111.23 79.4621 111.23C79.4621 111.23 77.4613 110.749 77.0232 111.924C76.6242 112.994 77.9132 113.651 77.9132 113.651C77.9132 113.651 76.6494 113.568 76.4633 114.674C76.2399 116.003 78.9254 115.958 79.862 117.5C80.0728 117.847 90.2755 115.353 90.2755 115.353Z" fill="#AD6359"/>
<path d="M84.9919 113.511C84.1527 112.695 81.7718 111.33 79.508 111.205C79.4567 111.202 79.4269 111.24 79.4731 111.252C81.9364 111.919 84.0919 113.012 84.9789 113.53C84.9911 113.537 85.0016 113.52 84.9919 113.511Z" fill="#263238"/>
<path d="M83.5395 115.581C82.7432 114.952 80.2262 113.655 77.9279 113.607C77.8767 113.606 77.8494 113.646 77.896 113.656C80.4983 114.247 82.6114 115.137 83.5278 115.602C83.54 115.608 83.5496 115.59 83.5395 115.581Z" fill="#263238"/>
<path d="M79.4124 116.969C79.4435 117.711 79.4707 118.432 79.5585 119.148C79.5997 119.505 79.666 119.857 79.7416 120.209C79.8248 120.559 79.9357 120.9 80.0629 121.252C79.5724 120.681 79.3338 119.925 79.2397 119.186C79.1994 118.813 79.186 118.439 79.2141 118.066C79.2406 117.695 79.296 117.324 79.4124 116.969Z" fill="#263238"/>
<path d="M58.9552 126.462L64.6719 119.711C64.6719 119.711 59.8708 115.819 56.4298 114.392C52.9887 112.964 52.5712 115.171 54.1559 118.435C55.7405 121.7 58.9552 126.462 58.9552 126.462Z" fill="#016B83"/>
<path d="M59.9013 116.277C59.7711 116.193 59.6409 116.113 59.5107 116.033C59.6451 116.302 59.7963 116.562 59.9937 116.802C59.9769 116.621 59.9433 116.449 59.9013 116.277ZM64.0593 119.225H64.0551C63.7233 119.288 63.4041 119.393 63.0933 119.515C62.6943 119.687 62.3079 119.876 61.9551 120.162C62.4045 120.12 62.8161 119.985 63.2193 119.83C63.5511 119.691 63.8787 119.532 64.1811 119.318C64.1433 119.292 64.1055 119.259 64.0593 119.225ZM56.5329 120.242C56.3733 120.641 56.2347 121.052 56.1885 121.502C56.4783 121.153 56.6715 120.767 56.8479 120.372C57.0075 119.973 57.1461 119.561 57.1923 119.112C56.9025 119.46 56.7093 119.847 56.5329 120.242Z" fill="white"/>
<path d="M63.1538 121.501L58.9547 126.463C58.9547 126.463 55.74 121.702 54.1545 118.436C52.9642 115.981 52.9029 114.124 54.4111 113.963L63.1538 121.501Z" fill="#014B5C"/>
<path d="M62.9575 118.755C61.9848 119.722 59.4257 122.424 58.004 124.408C57.9956 124.42 58.0389 124.46 58.0489 124.45C59.4908 122.989 62.141 119.866 63.0217 118.815C63.0385 118.795 62.9755 118.737 62.9575 118.755Z" fill="#014B5C"/>
<path d="M40.29 143.934C41.1284 144.204 64.9814 137.302 64.9814 137.302L62.1649 129.021C62.1649 129.021 63.5555 126.357 62.9096 123.796C62.0469 120.374 55.712 114.747 55.2143 114.416C53.2155 113.091 51.3419 113.114 49.6867 113.993C42.7899 117.657 40.29 143.934 40.29 143.934Z" fill="#016B83"/>
<path d="M63.0708 124.962C62.8818 124.857 62.6844 124.765 62.487 124.677C62.088 124.513 61.6764 124.374 61.227 124.328C61.5756 124.618 61.962 124.811 62.3568 124.987C62.592 125.08 62.8314 125.168 63.0793 125.231C63.0793 125.143 63.0792 125.05 63.0708 124.962ZM51.7812 123.757C51.3822 123.593 50.9706 123.454 50.5212 123.408C50.8698 123.698 51.2563 123.891 51.6511 124.068C52.0501 124.227 52.4617 124.366 52.9111 124.412C52.5625 124.126 52.1761 123.929 51.7812 123.757ZM57.2958 138.721C56.8968 138.558 56.4852 138.419 56.0358 138.373C56.3844 138.663 56.7666 138.856 57.1656 139.032C57.4302 139.137 57.7033 139.238 57.9889 139.301H57.993C58.0729 139.28 58.1526 139.255 58.2324 139.234C57.9384 139.02 57.6192 138.864 57.2958 138.721ZM45.162 138.192C44.763 138.033 44.3557 137.89 43.9062 137.844C44.2506 138.133 44.6371 138.331 45.0319 138.503C45.4351 138.667 45.8425 138.805 46.2919 138.852C45.9433 138.562 45.561 138.369 45.162 138.192ZM51.5755 133.308C51.4117 133.707 51.273 134.114 51.2269 134.563C51.5166 134.219 51.714 133.833 51.8862 133.438C52.05 133.039 52.1887 132.627 52.2349 132.178C51.9451 132.526 51.7477 132.913 51.5755 133.308ZM56.5315 120.241C56.3719 120.64 56.2332 121.052 56.187 121.501C56.4768 121.153 56.6701 120.766 56.8465 120.372C57.0061 119.973 57.1446 119.561 57.1908 119.112C56.901 119.46 56.7079 119.847 56.5315 120.241ZM60.8658 132.577C60.4668 132.749 60.0805 132.938 59.7277 133.224C60.1771 133.182 60.5886 133.047 60.9918 132.892C61.3909 132.724 61.7772 132.531 62.13 132.245C61.6806 132.287 61.269 132.421 60.8658 132.577ZM45.2544 130.611C44.8554 130.783 44.469 130.972 44.1162 131.258C44.5656 131.216 44.9773 131.082 45.3805 130.926C45.7795 130.758 46.1659 130.565 46.5187 130.279C46.0693 130.321 45.6576 130.456 45.2544 130.611ZM49.4208 116.814C49.0218 116.982 48.6354 117.171 48.2826 117.457C48.732 117.415 49.1437 117.28 49.5468 117.125C49.9458 116.957 50.3322 116.768 50.685 116.482C50.2356 116.52 49.824 116.655 49.4208 116.814ZM50.7396 140.931C50.7522 141.061 50.7732 141.191 50.7984 141.317C50.8572 141.3 50.9202 141.283 50.979 141.267C50.9076 141.153 50.8278 141.04 50.7396 140.931ZM45.4728 123.845C45.3048 123.45 45.1116 123.06 44.8302 122.711C44.868 123.16 45.0024 123.572 45.162 123.975C45.33 124.37 45.519 124.761 45.8046 125.109C45.7668 124.66 45.6324 124.248 45.4728 123.845ZM56.8465 128.154C56.6785 127.759 56.4852 127.369 56.1996 127.02C56.2416 127.47 56.3761 127.881 56.5315 128.28C56.6995 128.679 56.8926 129.07 57.1782 129.418C57.1362 128.969 57.0019 128.557 56.8465 128.154Z" fill="white"/>
<path d="M55.0249 129.119C56.0509 128.942 57.09 128.798 58.132 128.775C58.6507 128.763 59.1661 128.775 59.6839 128.799C59.9422 128.81 60.1993 128.813 60.4576 128.815C60.7226 128.817 61.0044 128.809 61.2631 128.745C61.2862 128.739 61.2955 128.774 61.2724 128.781C61.025 128.858 60.7877 128.93 60.5315 128.974C60.2879 129.015 60.0388 129.03 59.7919 129.038C59.266 129.055 58.7398 129.047 58.2139 129.059C57.153 129.082 56.0925 129.105 55.0354 129.204C54.9867 129.209 54.9762 129.127 55.0249 129.119Z" fill="#014B5C"/>
<path d="M52.8007 130.697C53.5975 130.384 54.4211 130.103 55.2485 129.882C55.6647 129.771 56.0843 129.685 56.5081 129.609C56.7105 129.573 56.9134 129.54 57.1171 129.51C57.3409 129.477 57.5694 129.474 57.7924 129.438C57.8155 129.434 57.8256 129.469 57.8021 129.474C57.5925 129.514 57.3888 129.59 57.1822 129.643C56.9743 129.696 56.7664 129.747 56.5585 129.8C56.1423 129.906 55.7277 130.016 55.3107 130.118C54.4757 130.321 53.6462 130.533 52.8188 130.765C52.7739 130.778 52.7596 130.713 52.8007 130.697Z" fill="#014B5C"/>
<path d="M51.1006 114.329C51.2295 114.753 53.4664 117.411 55.4274 117.19C56.0658 117.117 55.8222 113.614 55.8222 113.614L55.8634 113.352L56.4358 109.674L51.3602 106.9C51.3602 106.9 51.0485 114.149 51.1006 114.329Z" fill="#AD6359"/>
<path d="M56.4367 109.672L55.8634 113.35C54.8046 113.03 52.5109 112.044 51.2598 109.375C51.3081 108.12 51.3522 107.075 51.3568 106.921C51.3597 106.909 51.3593 106.9 51.3593 106.9L52.0006 107.221L56.4367 109.672Z" fill="#263238"/>
<path d="M48.9801 103.462C49.1657 103.594 49.2631 103.829 49.2085 104.065C49.1397 104.362 48.8515 104.551 48.5546 104.506C48.5689 104.585 48.5668 104.669 48.5475 104.751C48.4723 105.075 48.1623 105.285 47.8393 105.24C47.8498 105.307 47.8469 105.376 47.8305 105.446C47.7583 105.758 47.445 105.954 47.1329 105.882C46.9993 105.85 46.8872 105.775 46.8087 105.675C46.7167 105.961 46.4223 106.13 46.1245 106.061C46.0422 106.042 45.9666 106.005 45.9044 105.956C45.9027 105.973 45.8985 105.992 45.8947 106.008C45.8225 106.32 45.5117 106.514 45.1975 106.441C45.0085 106.398 44.8615 106.266 44.7922 106.099C44.6814 106.344 44.4092 106.482 44.1383 106.419C43.9249 106.37 43.767 106.21 43.7103 106.015C43.5839 106.075 43.4369 106.095 43.2886 106.06C43.1139 106.02 42.9728 105.912 42.8888 105.769C42.7498 105.856 42.5797 105.89 42.4071 105.85C42.1236 105.785 41.927 105.54 41.9136 105.262C41.8417 105.273 41.764 105.273 41.6859 105.255C41.3986 105.189 41.2096 104.92 41.239 104.635C41.15 104.655 41.0542 104.657 40.9581 104.635C40.6132 104.555 40.3978 104.213 40.4776 103.868C40.4935 103.798 40.5221 103.731 40.5591 103.675C40.5263 103.676 40.4931 103.67 40.4583 103.662C40.1462 103.59 39.9501 103.279 40.0223 102.966C40.0475 102.858 40.1017 102.764 40.1748 102.69C39.8652 102.588 39.6779 102.266 39.7531 101.941C39.7812 101.82 39.8421 101.715 39.9236 101.635C39.7081 101.492 39.5901 101.224 39.6523 100.955C39.6985 100.756 39.8341 100.599 40.008 100.521C39.9169 100.391 39.8816 100.225 39.9198 100.061C39.9589 99.8928 40.0651 99.7597 40.2063 99.6841C40.0824 99.5366 40.0273 99.3355 40.0744 99.1322C40.1391 98.8529 40.3764 98.6593 40.6468 98.6395C40.6237 98.5522 40.62 98.456 40.6418 98.3615C40.7082 98.0742 40.9765 97.8873 41.2621 97.9146C41.2411 97.8277 41.2416 97.7323 41.263 97.6399C41.3428 97.2951 41.6863 97.0826 42.0291 97.1615C42.0782 97.1729 42.1261 97.1905 42.1685 97.2132C42.1698 97.1788 42.1756 97.1456 42.1836 97.1107C42.263 96.768 42.6066 96.5529 42.9497 96.6323C43.003 96.6445 43.053 96.6626 43.0988 96.6886C43.0933 96.629 43.0984 96.5693 43.1127 96.508C43.1925 96.1632 43.5364 95.9486 43.8813 96.0284C44.0581 96.0691 44.2009 96.18 44.2878 96.3278C44.4369 96.1699 44.6641 96.0947 44.8901 96.1472C45.0585 96.1863 45.195 96.2871 45.2815 96.4194C45.4008 96.1939 45.6612 96.0683 45.922 96.1283C46.1253 96.1754 46.2795 96.3236 46.3425 96.5089C46.476 96.4076 46.6503 96.3661 46.8246 96.4064C47.0728 96.4639 47.2455 96.6722 47.2698 96.9137C47.4122 96.8125 47.5945 96.7726 47.7772 96.8146C48.0792 96.8843 48.282 97.1565 48.274 97.453C48.3433 97.4434 48.4143 97.4446 48.4866 97.461C48.7986 97.5332 48.9922 97.8461 48.92 98.1582C48.904 98.2279 48.8759 98.293 48.8368 98.3489C48.8499 98.3497 48.862 98.3527 48.8742 98.3552C49.219 98.435 49.4337 98.779 49.3539 99.1238C49.3396 99.1855 49.3173 99.2452 49.2858 99.2964C49.3362 99.293 49.3891 99.2985 49.4404 99.3107C49.7524 99.3829 49.9465 99.6937 49.8742 100.006C49.8381 100.162 49.7411 100.291 49.613 100.37C49.7655 100.505 49.8415 100.719 49.7923 100.933C49.7566 101.087 49.663 101.212 49.5382 101.291C49.7751 101.426 49.907 101.708 49.8419 101.989C49.7797 102.258 49.5534 102.45 49.2917 102.478C49.4311 102.614 49.4971 102.816 49.45 103.019C49.3963 103.254 49.2056 103.423 48.9801 103.462Z" fill="#263238"/>
<path d="M58.4043 97.1538C58.5904 97.2857 58.6874 97.52 58.6328 97.7561C58.5639 98.0538 58.2758 98.2424 57.9789 98.1975C57.9932 98.2764 57.9911 98.3604 57.9717 98.4423C57.8966 98.7666 57.5866 98.9762 57.2636 98.9316C57.2741 98.9988 57.2712 99.0677 57.2548 99.1374C57.1826 99.4495 56.8692 99.6452 56.5572 99.573C56.4236 99.5419 56.3115 99.4663 56.2329 99.3659C56.141 99.6519 55.8461 99.8216 55.5483 99.7527C55.4664 99.7338 55.3904 99.6969 55.3283 99.6477C55.3266 99.6645 55.3224 99.683 55.3186 99.6994C55.2464 100.011 54.9356 100.206 54.6214 100.133C54.4324 100.089 54.2854 99.9577 54.2161 99.7901C54.1052 100.035 53.8335 100.173 53.5622 100.111C53.3488 100.061 53.1909 99.9014 53.1342 99.7065C53.0078 99.7662 52.8603 99.7859 52.7125 99.7519C52.5378 99.7116 52.3967 99.6032 52.3127 99.4604C52.1736 99.5474 52.0035 99.5814 51.8309 99.5415C51.5474 99.476 51.3509 99.2315 51.3374 98.9535C51.2656 98.9648 51.1879 98.9644 51.1098 98.9463C50.8225 98.88 50.6335 98.6112 50.6629 98.326C50.5739 98.3466 50.4781 98.3483 50.3819 98.326C50.0371 98.2462 49.8216 97.9043 49.9014 97.5595C49.9174 97.4898 49.946 97.4226 49.9829 97.3663C49.9502 97.3671 49.917 97.3617 49.8821 97.3537C49.5701 97.2815 49.3739 96.9702 49.4462 96.6578C49.4714 96.549 49.5255 96.4553 49.5986 96.3814C49.2891 96.2793 49.1018 95.9572 49.1769 95.6325C49.2051 95.5116 49.266 95.4066 49.3475 95.3259C49.1316 95.1831 49.014 94.9156 49.0761 94.6468C49.1223 94.4477 49.258 94.2906 49.4319 94.2121C49.3407 94.0827 49.3055 93.9168 49.3433 93.7526C49.3823 93.5842 49.4886 93.4511 49.6297 93.3755C49.5058 93.228 49.4508 93.0269 49.4978 92.8236C49.5625 92.5443 49.7998 92.3507 50.0703 92.3309C50.0472 92.2436 50.0434 92.1474 50.0652 92.0529C50.1316 91.7656 50.4 91.5787 50.6856 91.606C50.6646 91.5191 50.665 91.4237 50.6864 91.3313C50.7662 90.9865 51.1094 90.774 51.4525 90.8529C51.5016 90.8643 51.5495 90.8819 51.5919 90.9046C51.5932 90.8702 51.5991 90.837 51.6071 90.8021C51.6864 90.4594 52.0304 90.2444 52.3731 90.3237C52.4265 90.3359 52.4765 90.354 52.5222 90.38C52.5168 90.3204 52.5218 90.2612 52.5361 90.1994C52.6159 89.8546 52.9599 89.64 53.3047 89.7198C53.4815 89.7605 53.6243 89.8718 53.7113 90.0192C53.8604 89.8613 54.0876 89.7861 54.3135 89.8382C54.482 89.8773 54.6185 89.9781 54.705 90.1104C54.8243 89.8848 55.0847 89.7593 55.3455 89.8193C55.5488 89.8664 55.7029 90.0146 55.7659 90.1998C55.8995 90.0986 56.0738 90.057 56.2481 90.0974C56.4967 90.1549 56.6689 90.3632 56.6933 90.6047C56.8356 90.5035 57.0179 90.4636 57.2006 90.5056C57.5026 90.5753 57.7055 90.8475 57.6975 91.144C57.7668 91.1339 57.8378 91.1356 57.91 91.152C58.2221 91.2242 58.4157 91.5371 58.3434 91.8492C58.3271 91.9189 58.2993 91.984 58.2603 92.0399C58.2729 92.0407 58.2855 92.0436 58.2977 92.0462C58.6425 92.126 58.8571 92.4699 58.7773 92.8148C58.763 92.8765 58.7403 92.9361 58.7093 92.9874C58.7597 92.984 58.8126 92.9895 58.8638 93.0017C59.1759 93.0739 59.3699 93.3847 59.2977 93.6968C59.2616 93.853 59.1645 93.9819 59.0364 94.0601C59.1889 94.1949 59.2649 94.4091 59.2154 94.6229C59.1797 94.777 59.086 94.9022 58.9617 94.9815C59.1986 95.1164 59.3304 95.3978 59.2653 95.6792C59.2032 95.948 58.9768 96.1403 58.7151 96.1685C58.8546 96.3045 58.9205 96.5057 58.8735 96.709C58.8206 96.945 58.6299 97.1151 58.4043 97.1538Z" fill="#263238"/>
<path d="M60.631 103.052C62.615 109.276 59.1114 111.167 57.7687 111.593C56.5498 111.98 52.3511 113.143 49.7349 107.158C47.1187 101.173 49.3851 98.2832 52.1256 97.2504C54.8661 96.2176 58.6469 96.8291 60.631 103.052Z" fill="#AD6359"/>
<path d="M59.5111 102.386C59.3582 102.405 59.2138 102.397 59.06 102.4C58.887 102.403 58.7497 102.424 58.5976 102.326C58.5161 102.274 58.4876 102.134 58.5308 102.051C58.6316 101.855 58.8429 101.798 59.0508 101.786C59.2768 101.772 59.4544 101.819 59.638 101.951C59.816 102.078 59.7131 102.361 59.5111 102.386Z" fill="#263238"/>
<path d="M55.2857 103.942C55.4306 103.888 55.5549 103.815 55.6926 103.747C55.848 103.671 55.9795 103.626 56.0698 103.47C56.1181 103.386 56.0795 103.249 56.0022 103.194C55.8228 103.067 55.6091 103.113 55.4184 103.197C55.2113 103.289 55.0752 103.412 54.9728 103.614C54.8736 103.809 55.0946 104.013 55.2857 103.942Z" fill="#263238"/>
<path d="M56.4169 104.675C56.4093 104.66 56.3888 104.704 56.3942 104.722C56.5232 105.148 56.5988 105.657 56.2485 105.904C56.2376 105.912 56.2447 105.933 56.2586 105.927C56.7147 105.733 56.6072 105.058 56.4169 104.675Z" fill="#263238"/>
<path d="M55.9128 104.329C55.208 104.461 55.5251 105.862 56.1782 105.739C56.8213 105.617 56.5037 104.217 55.9128 104.329Z" fill="#263238"/>
<path d="M55.6541 104.465C55.55 104.572 55.4618 104.739 55.3177 104.787C55.151 104.842 54.9889 104.725 54.8452 104.609C54.8305 104.597 54.8213 104.612 54.8251 104.631C54.8818 104.9 55.0477 105.152 55.3442 105.127C55.6151 105.104 55.7495 104.823 55.7554 104.539C55.7562 104.486 55.6961 104.422 55.6541 104.465Z" fill="#263238"/>
<path d="M58.9502 103.984C58.9498 103.966 58.9888 103.997 58.9922 104.015C59.0733 104.452 59.24 104.94 59.6646 104.998C59.6776 105 59.6814 105.022 59.6663 105.023C59.172 105.061 58.9573 104.411 58.9502 103.984Z" fill="#263238"/>
<path d="M59.2393 103.445C59.9264 103.239 60.2876 104.628 59.6509 104.819C59.0246 105.007 58.6634 103.617 59.2393 103.445Z" fill="#263238"/>
<path d="M59.5522 103.46C59.6811 103.505 59.8243 103.611 59.9579 103.585C60.1124 103.556 60.1859 103.376 60.2456 103.207C60.2519 103.189 60.2657 103.198 60.2712 103.216C60.3476 103.48 60.3317 103.78 60.0898 103.897C59.8693 104.004 59.6387 103.82 59.5068 103.572C59.4824 103.526 59.5005 103.442 59.5522 103.46Z" fill="#263238"/>
<path d="M57.1431 108.372C57.2641 108.459 57.3905 108.585 57.5522 108.574C57.7072 108.564 57.876 108.468 58.0083 108.392C58.0213 108.385 58.0377 108.397 58.0306 108.412C57.9419 108.598 57.7177 108.74 57.5081 108.735C57.304 108.731 57.1792 108.573 57.1036 108.398C57.0931 108.374 57.1255 108.359 57.1431 108.372Z" fill="#263238"/>
<path d="M58.6376 106.274C58.6376 106.274 58.8635 106.906 58.9278 107.212C58.9337 107.241 58.8623 107.27 58.7594 107.298C58.7547 107.3 58.7522 107.303 58.7476 107.301C58.2239 107.499 57.6392 107.426 57.2175 107.053C57.1898 107.027 57.2222 106.988 57.2541 107.001C57.7207 107.213 58.1831 107.196 58.6653 107.103C58.6691 107.014 58.2419 106.035 58.2898 106.021C58.4544 105.971 58.8085 106.016 59.0193 106.033C58.5863 104.704 57.9441 103.456 57.533 102.126C57.5191 102.078 57.5859 102.049 57.609 102.089C58.3751 103.35 58.9064 104.869 59.3889 106.229C59.4507 106.399 58.7711 106.301 58.6376 106.274Z" fill="#263238"/>
<path d="M58.7196 107.18C58.7196 107.18 58.5503 107.669 58.1925 107.938C58.061 108.038 57.9077 108.109 57.7263 108.117C57.3537 108.135 57.2462 107.822 57.2244 107.532C57.2059 107.294 57.2487 107.07 57.2487 107.07C57.2487 107.07 57.8989 107.383 58.7196 107.18Z" fill="#263238"/>
<path d="M58.1927 107.939C58.0613 108.039 57.908 108.11 57.7265 108.118C57.354 108.136 57.2464 107.823 57.2246 107.533C57.6055 107.455 58.0491 107.591 58.1927 107.939Z" fill="#FF9CBD"/>
<path d="M54.6789 98.1617C54.6789 98.1617 55.1548 99.0807 54.9759 99.8615C54.608 101.467 52.7747 101.477 52.3059 102.184C51.8666 102.847 52.3118 103.917 51.925 104.568C51.3899 105.47 50.7939 105.043 50.7906 105.571C50.7872 106.098 50.812 107.768 50.2185 108.114C49.6251 108.461 44.3146 98.5061 52.7406 96.9668C52.7406 96.9668 53.8007 96.1726 55.7604 96.7388C58.5501 97.5443 59.7097 100.734 59.7097 100.734C59.7097 100.734 59.1805 100.738 58.8386 100.551C58.3556 100.286 58.0973 100.065 57.7504 99.9005C57.2052 99.6431 56.9768 99.9627 56.4152 99.7187C55.5601 99.3465 54.6789 98.1617 54.6789 98.1617Z" fill="#263238"/>
<path d="M54.5241 97.8242C54.7467 98.2115 54.9282 98.6226 55.0542 99.0464C55.1827 99.4647 55.2604 99.9162 55.1541 100.328C55.0437 100.729 54.7203 101.059 54.3628 101.288C53.9983 101.523 53.5699 101.663 53.1805 101.93C52.9924 102.069 52.813 102.241 52.7148 102.476C52.619 102.707 52.6131 102.948 52.6131 103.172C52.6207 103.621 52.6249 104.063 52.409 104.432C52.1982 104.8 51.8256 105.077 51.3947 105.153C50.9743 105.248 50.4825 105.235 50.1133 105.511C50.5039 105.265 50.9667 105.32 51.4136 105.254C51.8718 105.196 52.2977 104.914 52.5476 104.516C52.8156 104.11 52.8021 103.607 52.8046 103.174C52.8072 102.954 52.8202 102.737 52.9 102.554C52.976 102.375 53.1318 102.223 53.3023 102.102C53.6484 101.855 54.0806 101.704 54.4662 101.45C54.6589 101.324 54.8395 101.171 54.9882 100.99C55.1348 100.814 55.2692 100.602 55.3116 100.366C55.4086 99.899 55.302 99.4362 55.1516 99.0137C54.9903 98.5911 54.7761 98.1938 54.5241 97.8242Z" fill="#263238"/>
<path d="M54.7686 98.168C54.9382 98.5485 55.1634 98.9025 55.4309 99.2285C55.6955 99.5548 56.0542 99.8333 56.475 99.9609C56.6859 100.027 56.911 100.035 57.1029 100.056C57.2873 100.078 57.4923 100.145 57.6216 100.257C57.7644 100.387 57.9106 100.558 58.0954 100.669C58.2802 100.779 58.4877 100.843 58.6947 100.859C58.4973 100.795 58.3075 100.714 58.155 100.583C57.9933 100.462 57.8816 100.302 57.7346 100.139C57.5637 99.9626 57.3486 99.9043 57.1315 99.8602C56.9143 99.8287 56.7216 99.8232 56.5368 99.7606C56.1617 99.6443 55.837 99.4074 55.5573 99.1142C55.2717 98.8249 55.0176 98.4998 54.7686 98.168Z" fill="#263238"/>
<path d="M50.8768 107.322C50.8768 107.322 49.0372 105.647 48.2468 106.347C47.4563 107.046 49.1527 109.693 50.3014 109.848C51.4501 110.003 51.6143 108.943 51.6143 108.943L50.8768 107.322Z" fill="#AD6359"/>
<path d="M48.7513 107.093C48.7341 107.095 48.7362 107.12 48.7521 107.122C49.5627 107.256 50.1096 107.856 50.5447 108.509C50.2616 108.283 49.9269 108.201 49.6182 108.547C49.6018 108.565 49.6274 108.591 49.6472 108.582C49.9365 108.448 50.1684 108.451 50.4288 108.649C50.6132 108.789 50.7623 108.984 50.9114 109.16C50.9613 109.218 51.0731 109.156 51.0306 109.085C51.0277 109.08 51.0239 109.075 51.021 109.069C50.8253 108.118 49.79 106.958 48.7513 107.093Z" fill="#263238"/>
<path d="M48.1323 119.753C49.7657 129.752 54.3613 137.057 56.2669 137.371C61.3963 138.216 70.0689 129.83 72.6553 127.862C73.7011 127.066 65.1717 119.927 64.1625 120.904C61.7848 123.206 58.6344 126.289 58.4639 126.289C58.1006 126.289 56.8784 123.804 52.4138 117.938C48.6787 113.029 47.4645 115.664 48.1323 119.753Z" fill="#AD6359"/>
<path d="M77.4046 111.267C78.1136 112.346 75.3029 113.868 75.3029 113.868C75.3029 113.868 76.195 113.847 76.8237 114.43C77.5436 115.097 76.8128 116.519 76.8128 116.519C76.8128 116.519 77.7204 116.684 78.3227 117.367C78.9477 118.075 78.4143 119.615 78.4143 119.615C78.4143 119.615 79.1564 120.235 79.2723 121.196C79.6016 123.927 73.6334 127.834 71.6976 128.589L63.876 121.524C63.876 121.524 66.7769 115.036 69.1411 113.36C70.4528 112.43 76.321 109.616 77.4046 111.267Z" fill="#AD6359"/>
<path d="M75.2603 113.851C73.5774 114.359 72.0188 115.268 70.5248 116.162C70.4917 116.182 70.5232 116.234 70.5563 116.213C72.0318 115.307 73.7853 114.774 75.2939 113.928C75.3359 113.905 75.3057 113.838 75.2603 113.851Z" fill="#263238"/>
<path d="M76.7025 116.435C76.3254 116.561 75.9906 116.811 75.6626 117.03C75.3094 117.266 74.9608 117.508 74.6155 117.756C73.9246 118.252 73.2447 118.763 72.5806 119.294C72.5512 119.317 72.5798 119.368 72.6121 119.345C73.3018 118.852 73.9986 118.37 74.7084 117.907C75.0633 117.675 75.4207 117.446 75.7794 117.22C76.1128 117.01 76.4824 116.815 76.763 116.534C76.8046 116.493 76.7596 116.415 76.7025 116.435Z" fill="#263238"/>
<path d="M78.3845 119.634C78.0522 119.73 77.7503 120.015 77.4768 120.22C77.1669 120.452 76.8552 120.683 76.5428 120.912C75.9174 121.369 75.292 121.826 74.6511 122.262C74.6192 122.284 74.6502 122.335 74.6826 122.313C75.3361 121.874 75.9951 121.444 76.6448 120.999C76.964 120.78 77.2815 120.56 77.5982 120.338C77.8674 120.149 78.2253 119.944 78.4088 119.664C78.4193 119.648 78.4013 119.629 78.3845 119.634Z" fill="#263238"/>
<path d="M78.9675 120.305C79.2602 120.711 79.3849 121.238 79.335 121.747C79.2925 122.261 79.0494 122.744 78.7684 123.158C78.2026 123.998 77.5042 124.73 76.7662 125.411C76.0249 126.089 75.2261 126.703 74.3878 127.255C73.5486 127.807 72.6599 128.284 71.7351 128.672L71.7577 128.658C71.1714 129.143 67.3062 132.48 66.6875 132.733C67.2348 132.203 71.0761 129.034 71.6372 128.519L71.6456 128.512L71.6603 128.505C72.5532 128.074 73.4025 127.56 74.2198 127.004C75.0367 126.446 75.8187 125.837 76.5571 125.179C77.2896 124.516 77.9943 123.816 78.5886 123.031C78.8877 122.639 79.1157 122.209 79.2014 121.728C79.2892 121.253 79.2069 120.741 78.9675 120.305Z" fill="#263238"/>
<path d="M49.4435 128.169L57.1594 123.841C57.1594 123.841 54.0211 118.517 51.2957 115.977C48.5704 113.437 47.4082 115.359 47.7522 118.971C48.0958 122.584 49.4435 128.169 49.4435 128.169Z" fill="#016B83"/>
<path d="M49.4214 116.814C49.0224 116.982 48.636 117.171 48.2832 117.457C48.7326 117.415 49.1442 117.28 49.5474 117.125C49.9464 116.957 50.3328 116.768 50.6856 116.482C50.2362 116.52 49.8246 116.655 49.4214 116.814ZM51.7818 123.757C51.3828 123.593 50.9712 123.454 50.5218 123.408C50.8704 123.698 51.2568 123.891 51.6516 124.068C52.0506 124.227 52.4622 124.366 52.9116 124.412C52.563 124.126 52.1766 123.929 51.7818 123.757Z" fill="white"/>
<path d="M55.8547 122.349C54.6052 122.914 51.2637 124.552 49.2385 125.914C49.2263 125.922 49.2528 125.974 49.2662 125.968C51.1272 125.104 54.7018 123.104 55.8946 122.426C55.9169 122.414 55.8783 122.338 55.8547 122.349Z" fill="#014B5C"/>
<path d="M50.1924 127.749C49.9576 127.915 49.7157 128.068 49.4767 128.226L49.4045 128.274L49.3797 128.184C49.0655 127.021 48.7875 125.849 48.5498 124.669C48.4297 124.079 48.3146 123.488 48.2197 122.894C48.1176 122.301 48.0256 121.706 47.958 121.107C48.1382 121.686 48.2936 122.268 48.4393 122.852C48.5922 123.434 48.7249 124.02 48.8522 124.607C49.1097 125.781 49.3272 126.962 49.5082 128.154L49.4112 128.111C49.6716 127.99 49.9286 127.863 50.1924 127.749Z" fill="#014B5C"/>
<path d="M48.3935 123.35C48.2385 123.151 48.1192 122.933 47.997 122.716C47.8857 122.494 47.7715 122.273 47.6934 122.033C47.8488 122.232 47.9676 122.45 48.0898 122.667C48.2011 122.889 48.315 123.11 48.3935 123.35Z" fill="#014B5C"/>
<path d="M56.8664 124.055C56.9466 123.959 57.0352 123.876 57.1205 123.787L57.1016 123.872C56.5594 123.06 56.0344 122.239 55.5043 121.423L53.9121 118.967C54.6135 119.657 55.2149 120.44 55.7622 121.253C56.3061 122.069 56.8046 122.916 57.2175 123.808L57.2461 123.87L57.1986 123.893C57.0886 123.948 56.9819 124.008 56.8664 124.055Z" fill="#014B5C"/>
<path d="M55.3288 120.758C55.1982 120.542 55.1049 120.312 55.0087 120.083C54.9239 119.849 54.8361 119.617 54.7861 119.369C54.9172 119.585 55.0104 119.815 55.1062 120.045C55.1914 120.278 55.2788 120.511 55.3288 120.758Z" fill="#014B5C"/>
<path d="M144.69 169.315C144.344 170.249 127.39 191.324 126.235 191.719C125.798 191.871 122.585 189.581 118.781 186.704C117.959 186.082 117.114 185.436 116.261 184.774C110.711 180.486 104.922 175.807 104.922 175.807L116.222 161.676L127.25 171.032L129.672 173.084C129.672 173.084 139.773 167.918 141.085 167.621C142.395 167.329 145.037 168.38 144.69 169.315Z" fill="#AD6359"/>
<path d="M144.617 168.935C144.24 169.891 126.255 191.226 125.054 191.602C124.601 191.753 121.339 189.313 117.483 186.253C117.443 186.22 117.403 186.188 117.363 186.156L128.813 172.263L129.042 172.465C129.042 172.465 139.579 167.378 140.943 167.103C142.299 166.832 144.998 167.98 144.617 168.935Z" fill="#263238"/>
<path d="M143.587 168.479C140.467 172.001 128.214 186.5 125.398 190.218C125.375 190.249 125.395 190.265 125.421 190.238C128.59 186.815 140.724 172.216 143.646 168.529C143.707 168.451 143.653 168.405 143.587 168.479Z" fill="white"/>
<path d="M130.058 171.344C128.601 172.536 127.359 174.45 127.456 176.382C127.459 176.457 127.566 176.45 127.59 176.392C128.327 174.625 129.143 173.083 130.232 171.5C130.309 171.389 130.162 171.259 130.058 171.344Z" fill="white"/>
<path d="M131.536 170.84C130.078 172.032 128.837 173.946 128.933 175.878C128.937 175.953 129.043 175.946 129.067 175.888C129.804 174.121 130.621 172.579 131.709 170.996C131.786 170.885 131.64 170.755 131.536 170.84Z" fill="white"/>
<path d="M133.012 170.338C131.555 171.53 130.313 173.445 130.41 175.376C130.413 175.451 130.52 175.444 130.544 175.386C131.281 173.619 132.097 172.077 133.186 170.495C133.263 170.383 133.116 170.253 133.012 170.338Z" fill="white"/>
<path d="M144.127 167.965C144.596 167.707 145.809 168.87 145.679 169.233C145.55 169.595 125.836 192.769 125.414 193.09C124.992 193.411 123.696 192.07 124.011 191.549C124.325 191.029 144.127 167.965 144.127 167.965Z" fill="#EF9A07"/>
<path d="M122.722 184.648C120.645 185.542 122.032 188.772 124.112 187.876C126.19 186.981 124.803 183.751 122.722 184.648Z" fill="white"/>
<path d="M126.661 168.901L114.901 184.768L75.217 157.231L71.3904 154.575C71.3904 154.575 70.3072 155.304 68.6759 156.206C66.4105 157.458 63.0904 159.044 60.1533 159.476C55.2267 160.205 47.001 160.127 42.8489 154.575C39.352 149.899 41.2512 143.799 41.2512 143.799L46.6604 141.476C46.6604 141.476 59.4616 130.811 67.7532 130.49C71.2749 130.35 76.4035 133.019 81.1529 135.807C85.8976 138.593 126.661 168.901 126.661 168.901Z" fill="#263238"/>
<path d="M71.3896 154.574C71.3896 154.574 70.3064 155.303 68.6752 156.206C65.7919 152.754 59.6872 146.484 59.502 146.262L71.3896 154.574Z" fill="#37474F"/>
<path d="M51.3502 137.907C50.585 138.438 49.8449 139.003 49.0902 139.548C48.3476 140.085 47.5811 140.589 46.8751 141.175C46.1573 141.77 45.4769 142.407 44.8007 143.048C44.4744 143.358 44.1506 143.67 43.8351 143.991C43.5227 144.309 43.1728 144.627 42.9137 144.991C42.8897 145.025 42.938 145.065 42.9699 145.045C43.3353 144.811 43.6638 144.489 43.9956 144.21C44.3538 143.909 44.7079 143.603 45.0645 143.3C45.7524 142.715 46.4538 142.147 47.1405 141.56C47.8226 140.977 48.4543 140.339 49.1297 139.749C49.8525 139.117 50.6148 138.529 51.3657 137.931C51.3796 137.92 51.3657 137.896 51.3502 137.907Z" fill="#37474F"/>
<path d="M122.631 167.284C121.919 168.153 121.268 169.081 120.611 169.992C119.951 170.907 119.296 171.825 118.646 172.747C117.346 174.591 116.033 176.428 114.757 178.291C114.057 179.314 113.367 180.343 112.722 181.403C112.694 181.45 112.769 181.497 112.803 181.455C114.216 179.697 115.492 177.836 116.789 175.993C118.089 174.147 119.384 172.296 120.656 170.43C121.352 169.409 122.072 168.392 122.704 167.33C122.729 167.288 122.662 167.247 122.631 167.284Z" fill="#37474F"/>
<path d="M91.3319 168.494C89.3575 166.938 87.31 165.469 85.2629 164.01C83.2259 162.558 81.1906 161.102 79.1233 159.693C78.5299 159.289 77.9309 158.893 77.3329 158.495C76.736 158.098 76.1149 157.732 75.5298 157.32C75.4958 157.296 75.4655 157.353 75.4987 157.377C76.0359 157.762 76.5428 158.193 77.0708 158.593C77.5748 158.974 78.0746 159.361 78.5828 159.736C79.574 160.471 80.5757 161.191 81.5753 161.913C83.6026 163.379 85.6451 164.826 87.7085 166.241C88.8799 167.045 90.0458 167.851 91.2433 168.615C91.3147 168.661 91.3995 168.548 91.3319 168.494Z" fill="#37474F"/>
<path d="M104.022 152.123C102.197 150.61 100.242 149.251 98.3297 147.853C96.3952 146.439 94.4707 145.012 92.5291 143.608C90.6025 142.215 88.676 140.822 86.7495 139.429C84.8817 138.08 83.0232 136.707 81.0509 135.512C79.9715 134.858 78.8644 134.252 77.7262 133.706C76.6207 133.175 75.472 132.636 74.2902 132.302C74.2549 132.292 74.2351 132.344 74.2671 132.361C75.2394 132.904 76.2604 133.361 77.2444 133.885C78.2172 134.403 79.1752 134.948 80.1177 135.519C82.0757 136.707 83.925 138.055 85.7822 139.391C89.6399 142.165 93.4896 144.951 97.375 147.687C99.549 149.218 101.679 150.833 103.936 152.24C104.006 152.285 104.087 152.176 104.022 152.123Z" fill="#37474F"/>
<path d="M26.5622 86.5887C27.0998 91.7291 31.7051 95.4624 36.8455 94.9244C38.9228 94.7073 40.7696 93.8253 42.1997 92.5086L46.8823 93.1957L44.5395 89.1477C45.1078 87.7647 45.3476 86.2258 45.1817 84.6411C44.6441 79.5008 40.0388 75.7678 34.8984 76.3054C29.7576 76.843 26.0246 81.4483 26.5622 86.5887Z" fill="white"/>
<path d="M29.3628 78.8599C30.3792 77.8683 31.6194 77.1022 32.9722 76.6465C34.3267 76.1963 35.7862 76.0673 37.2046 76.2555C38.6217 76.4474 40.0056 76.951 41.1988 77.7541C42.3928 78.555 43.4046 79.6289 44.13 80.8755C45.5853 83.3644 45.841 86.5459 44.7066 89.2175L44.6957 89.0575L47.0246 93.1135L47.1964 93.4125L46.857 93.3604L42.1791 92.6422L42.2899 92.6082C40.9942 93.7825 39.3722 94.5843 37.6594 94.8943C37.2315 94.9728 36.7989 95.019 36.3642 95.0291C35.9303 95.0673 35.4969 95.0278 35.0638 95.0043C34.2054 94.901 33.3439 94.7401 32.5438 94.4033C31.74 94.087 30.9705 93.6737 30.2859 93.1462C29.9268 92.9039 29.6236 92.5931 29.2981 92.31C29.0112 91.9879 28.6954 91.6901 28.4497 91.3335C27.3808 89.9727 26.7562 88.2977 26.5605 86.5892C26.2577 83.771 27.2964 80.8243 29.3628 78.8599ZM28.4787 91.3121C28.7256 91.6657 29.0427 91.9601 29.33 92.2789C29.6559 92.5586 29.9596 92.8657 30.3187 93.1042C31.0008 93.6275 31.7752 94.0211 32.5762 94.321C33.3742 94.6406 34.2285 94.7842 35.076 94.8712C35.5036 94.8867 35.9307 94.9182 36.357 94.8733C36.7842 94.8565 37.2084 94.8031 37.6267 94.7191C39.3016 94.3852 40.8695 93.5734 42.1085 92.4104L42.1547 92.3671L42.2194 92.3764L46.9062 93.0328L46.7386 93.2798L44.382 89.2398L44.3374 89.1634L44.371 89.0798C44.891 87.7921 45.1174 86.3888 45.03 85.0024C44.9187 83.6206 44.5512 82.2439 43.8423 81.0422C43.1463 79.8381 42.1837 78.7894 41.0417 77.9876C39.8972 77.1875 38.5587 76.673 37.1764 76.4605C35.793 76.2521 34.3566 76.3521 33.0138 76.7725C31.6732 77.1984 30.4308 77.933 29.4043 78.9019C27.3371 80.8398 26.2779 83.7685 26.5626 86.5896C26.7688 88.2969 27.4043 89.9639 28.4787 91.3121Z" fill="#263238"/>
<path d="M34.4827 90.786L30.583 86.8385L31.893 85.544L34.1715 87.8498L38.9045 80.4297L40.4572 81.42L34.4827 90.786Z" fill="#EF9A07"/>
</svg>
