<svg width="123" height="154" viewBox="0 0 123 154" fill="none" xmlns="http://www.w3.org/2000/svg">
<path d="M61.4967 153.998C86.0025 153.998 105.868 151.634 105.868 148.718C105.868 145.801 86.0025 143.437 61.4967 143.437C36.9909 143.437 17.125 145.801 17.125 148.718C17.125 151.634 36.9909 153.998 61.4967 153.998Z" fill="#CCE1E6"/>
<path d="M64.0253 135.206L76.6095 128.368C104.874 113.009 122.5 83.2299 122.5 50.8345V18.1293C122.5 15.5832 120.501 13.4699 117.979 13.4008C88.2403 12.5876 69.7915 3.9248 63.719 0.571682C62.3389 -0.190561 60.6614 -0.190561 59.281 0.571682C53.2085 3.9248 34.7597 12.5873 5.02119 13.4008C2.49929 13.4699 0.5 15.5832 0.5 18.1293V50.8345C0.5 83.2299 18.1259 113.009 46.3905 128.368L58.9747 135.206C60.5511 136.062 62.4489 136.062 64.0253 135.206Z" fill="#CCE1E6"/>
<path d="M116.469 21.9725V49.7266C116.469 80.6217 99.7413 108.899 72.8156 123.533L63.8887 128.382C63.1464 128.785 62.3236 128.99 61.5008 128.99C60.678 128.99 59.8551 128.785 59.1129 128.382L50.186 123.533C23.2606 108.899 6.53223 80.6217 6.53223 49.7266V21.9725C6.53223 20.6598 7.573 19.5845 8.88381 19.4918C34.2159 17.7723 51.6095 11.0712 60.4113 6.77861C60.7623 6.6055 61.1293 6.521 61.5004 6.521C61.8716 6.521 62.2386 6.6055 62.5895 6.77861C71.3913 11.0715 88.789 17.7723 114.117 19.4918C115.429 19.5845 116.469 20.6598 116.469 21.9725Z" fill="#016B83"/>
<path d="M116.469 21.9725V49.7266C116.469 80.6217 99.7405 108.899 72.8148 123.533L63.8879 128.382C63.1456 128.785 62.3228 128.99 61.5 128.99V6.521C61.8711 6.521 62.2382 6.6055 62.5891 6.77861C71.3909 11.0715 88.7886 17.7723 114.117 19.4918C115.428 19.5845 116.469 20.6598 116.469 21.9725Z" fill="#014B5C"/>
<path d="M82.404 56.7837H40.5978C38.1088 56.7837 36.0879 58.8012 36.0879 61.286V94.565C36.0879 97.0498 38.1088 99.0673 40.5978 99.0673H82.404C84.893 99.0673 86.9139 97.0498 86.9139 94.565V61.286C86.9136 58.8012 84.8927 56.7837 82.404 56.7837ZM65.5348 80.0355V83.3619C65.5348 85.5847 63.7277 87.389 61.5009 87.389C59.2741 87.389 57.467 85.585 57.467 83.3619V80.0355C55.7525 78.7953 54.6432 76.7775 54.6432 74.5024C54.6432 70.721 57.7131 67.6566 61.5006 67.6566C65.288 67.6566 68.3579 70.721 68.3579 74.5024C68.3583 76.7778 67.249 78.7953 65.5348 80.0355Z" fill="white"/>
<path d="M76.4254 44.3172V49.5362C76.4254 51.3156 74.9806 52.758 73.1983 52.758C71.4159 52.758 69.9711 51.3156 69.9711 49.5362V44.5249C69.9711 39.9452 66.4105 36.0396 61.8266 35.8668C57.0076 35.6852 53.0292 39.546 53.0292 44.3175V53.5637H46.5752V44.5601C46.5752 36.4399 52.984 29.6266 61.1151 29.4223C65.3903 29.3149 69.2662 31.0009 72.0526 33.7826C74.7555 36.4806 76.4254 40.2015 76.4254 44.3172Z" fill="white"/>
</svg>
