<svg width="283" height="289" viewBox="0 0 283 289" fill="none" xmlns="http://www.w3.org/2000/svg">
<path d="M142.279 288.41C219.996 288.41 282.999 282.047 282.999 274.198C282.999 266.349 219.996 259.986 142.279 259.986C64.5611 259.986 1.55859 266.349 1.55859 274.198C1.55859 282.047 64.5611 288.41 142.279 288.41Z" fill="#EDF0FC"/>
<path d="M73.1194 227.336C68.4339 227.369 70.6673 242.564 70.6673 242.564C70.6673 242.564 63.7066 226.124 58.3523 225.533C52.9979 224.942 57.6999 239.279 57.6999 239.279C57.6999 239.279 43.7844 223.696 40.188 224.611C36.5915 225.526 43.182 234.219 43.182 234.219C43.182 234.219 20.1075 222.614 18.0674 227.018C16.0281 231.423 39.805 241.512 39.805 241.512C39.805 241.512 28.9127 242.11 30.5415 245.445C32.1695 248.779 53.0547 249.311 53.0547 249.311C53.0547 249.311 39.0795 254.999 42.9946 258.7C46.9091 262.401 63.9485 257.075 63.9485 257.075C63.9485 257.075 50.916 265.2 53.922 268.795C56.928 272.39 84.4992 257.78 84.4992 257.78C84.4992 257.78 77.8057 227.303 73.1194 227.336Z" fill="#FFC404"/>
<path d="M74.6047 239.554L75.9752 244.873C76.4201 246.649 76.9269 248.408 77.4032 250.175L78.6624 254.777L74.3404 252.707L67.2782 249.391C66.4556 247.219 65.6323 245.047 64.747 242.898L63.3922 239.613C62.9107 238.529 62.4576 237.435 61.9522 236.361C62.2747 237.504 62.6494 238.627 62.9965 239.761L64.1259 243.129C64.7738 245.056 65.4703 246.964 66.1712 248.871L57.6601 244.874L53.0007 242.748C52.0856 241.21 51.1682 239.673 50.1955 238.169L48.6914 235.848C48.1629 235.09 47.6598 234.318 47.1089 233.574C47.4911 234.417 47.9218 235.232 48.3271 236.062L49.6237 238.505C50.2754 239.729 50.9621 240.932 51.6549 242.132L40.8962 237.222C35.2932 234.704 29.6843 232.199 24.0352 229.779C29.5343 232.522 35.073 235.178 40.6185 237.822L51.4317 242.901C50.0171 243.163 48.6041 243.432 47.1985 243.744C45.3928 244.134 43.5894 244.54 41.8023 245.038C43.6513 244.891 45.4839 244.649 47.3142 244.395C49.14 244.151 50.9547 243.84 52.7686 243.529L57.2988 245.657L65.904 249.586C63.9662 250.304 62.0299 251.026 60.1122 251.799C57.9035 252.678 55.6999 253.571 53.5292 254.553C55.8223 253.906 58.0833 253.17 60.3391 252.421C62.5793 251.687 64.7962 250.89 67.0132 250.093L74.0628 253.311L78.4407 255.269L74.0986 257.314C72.4385 258.104 70.7649 258.865 69.1182 259.685C65.8099 261.29 62.5076 262.909 59.2448 264.614C62.6569 263.233 66.0294 261.766 69.3959 260.286C71.0866 259.561 72.7505 258.78 74.4278 258.027L79.4499 255.748L79.4798 255.734L82.4746 257.074C85.2917 258.3 88.0962 259.552 90.9245 260.754C88.179 259.374 85.4089 258.045 82.6523 256.69L79.6933 255.272L79.6836 255.239L78.1593 249.964C77.6443 248.208 77.1598 246.442 76.6142 244.695L75.0115 239.441C74.4472 237.698 73.9112 235.948 73.3215 234.213C73.7224 236 74.1777 237.772 74.6047 239.554Z" fill="#EF9A07"/>
<g opacity="0.1">
<path d="M40.6561 232.996C34.615 230.138 19.6933 223.516 18.0712 227.02C17.4405 228.382 19.2813 230.288 22.1215 232.27C27.4662 231.299 33.8633 231.522 40.6561 232.996Z" fill="#016B83"/>
<path d="M57.6488 239.112C68.5859 244.684 76.7588 252.384 80.3747 259.893C82.8761 258.641 84.5018 257.78 84.5018 257.78C84.5018 257.78 77.8084 227.304 73.1221 227.337C68.4366 227.37 70.67 242.565 70.67 242.565C70.67 242.565 63.7093 226.125 58.3549 225.533C53.3402 224.98 57.1449 237.518 57.6488 239.112Z" fill="#016B83"/>
<path d="M42.6338 233.458C46.2116 234.353 49.8782 235.586 53.544 237.174C54.8877 237.756 56.1947 238.373 57.4674 239.017C55.6535 237.012 43.5161 223.765 40.1914 224.611C37.2466 225.36 41.129 231.321 42.6338 233.458Z" fill="#016B83"/>
</g>
<path d="M239.081 229.22C239.56 224.558 224.212 225.118 224.212 225.118C224.212 225.118 241.314 219.996 242.488 214.739C243.661 209.481 228.895 212.587 228.895 212.587C228.895 212.587 245.906 200.459 245.389 196.784C244.873 193.109 235.511 198.709 235.511 198.709C235.511 198.709 249.571 177.042 245.414 174.533C241.259 172.024 228.632 194.556 228.632 194.556C228.632 194.556 229.228 183.664 225.736 184.918C222.243 186.172 219.432 206.873 219.432 206.873C219.432 206.873 215.305 192.36 211.198 195.846C207.092 199.333 210.524 216.853 210.524 216.853C210.524 216.853 203.871 203.009 199.969 205.605C196.068 208.2 207.577 237.203 207.577 237.203C207.577 237.203 238.601 233.881 239.081 229.22Z" fill="#FFC404"/>
<path d="M226.775 229.36L221.338 230.141C219.524 230.39 217.72 230.7 215.912 230.981L211.199 231.73L213.73 227.66L217.799 221.002C220.048 220.422 222.297 219.841 224.53 219.196L227.943 218.208C229.072 217.849 230.21 217.517 231.333 217.133C230.162 217.328 229.004 217.578 227.839 217.799L224.367 218.554C222.382 218.987 220.408 219.471 218.437 219.96L223.34 211.937L225.963 207.538C227.592 206.796 229.219 206.052 230.821 205.25L233.293 204.008C234.103 203.566 234.927 203.151 235.727 202.684C234.847 202.972 233.989 203.311 233.12 203.623L230.55 204.644C229.261 205.157 227.99 205.708 226.722 206.266L232.779 196.108C235.895 190.814 238.999 185.512 242.021 180.162C238.694 185.328 235.448 190.544 232.213 195.767L225.983 205.96C225.877 204.525 225.765 203.091 225.608 201.66C225.417 199.822 225.212 197.985 224.912 196.155C224.856 198.009 224.895 199.857 224.948 201.704C224.991 203.546 225.102 205.383 225.212 207.22L222.602 211.491L217.756 219.615C217.254 217.61 216.748 215.607 216.189 213.616C215.556 211.324 214.91 209.037 214.171 206.771C214.563 209.122 215.049 211.449 215.546 213.774C216.032 216.081 216.581 218.372 217.131 220.663L213.162 227.318L210.736 231.456L209.178 226.916C208.575 225.179 208 223.433 207.366 221.706C206.131 218.242 204.883 214.783 203.545 211.354C204.545 214.896 205.635 218.409 206.738 221.917C207.273 223.676 207.868 225.416 208.433 227.165L210.15 232.407L210.161 232.438L208.502 235.269C206.976 237.935 205.425 240.586 203.921 243.265C205.592 240.687 207.216 238.079 208.865 235.487L210.597 232.702L210.632 232.696L216.042 231.757C217.844 231.438 219.652 231.149 221.449 230.797L226.846 229.778C228.639 229.408 230.438 229.066 232.228 228.671C230.404 228.871 228.592 229.13 226.775 229.36Z" fill="#EF9A07"/>
<g opacity="0.1">
<path d="M237.01 196.328C240.511 190.636 248.725 176.528 245.419 174.533C244.134 173.757 242.039 175.378 239.757 177.985C240.138 183.403 239.217 189.738 237.01 196.328Z" fill="#016B83"/>
<path d="M229.07 212.552C222.336 222.815 213.789 230.097 205.93 232.87C206.9 235.493 207.579 237.203 207.579 237.203C207.579 237.203 238.604 233.881 239.084 229.22C239.564 224.558 224.215 225.118 224.215 225.118C224.215 225.118 241.317 219.996 242.49 214.739C243.588 209.815 230.71 212.226 229.07 212.552Z" fill="#016B83"/>
<path d="M236.331 198.242C235.05 201.7 233.424 205.211 231.445 208.681C230.719 209.953 229.963 211.184 229.184 212.379C231.375 210.795 245.87 200.178 245.392 196.781C244.969 193.772 238.62 196.98 236.331 198.242Z" fill="#016B83"/>
</g>
<path d="M32.0367 182.279C32.8817 184.225 33.9365 186.096 35.0106 187.922C37.6971 192.49 40.8196 196.802 44.2876 200.809C49.0254 206.282 54.4558 211.161 60.4939 215.162C67.7114 219.946 75.7881 223.386 84.2567 225.205C94.7355 227.456 105.594 227.192 116.089 225.18C117.614 224.888 119.131 224.558 120.641 224.197C121.111 224.085 120.872 223.372 120.404 223.484C109.682 226.046 98.4916 226.896 87.5792 225.074C78.9441 223.632 70.6495 220.53 63.173 215.978C56.9117 212.167 51.2655 207.384 46.3254 201.978C42.6036 197.903 39.2707 193.465 36.3886 188.759C35.0696 186.605 33.8969 184.282 32.7936 182.141C32.7772 182.109 32.7638 182.075 32.7496 182.043C32.5592 181.602 31.8434 181.834 32.0367 182.279Z" fill="#016B83"/>
<path d="M35.9239 189.427C34.069 188.292 32.8045 186.912 31.6885 185.47C30.6017 184.017 29.7321 182.473 29.0573 180.849C28.3795 179.226 27.901 177.521 27.6412 175.724C27.4091 173.916 27.33 172.045 27.845 169.928C29.7067 171.06 30.9734 172.44 32.0886 173.881C33.1755 175.334 34.0436 176.879 34.7124 178.505C35.3842 180.131 35.8605 181.837 36.121 183.633C36.3502 185.443 36.4323 187.313 35.9239 189.427Z" fill="#016B83"/>
<path d="M28.543 171.609C29.1812 172.907 29.7739 174.223 30.3591 175.542C30.9458 176.86 31.4945 178.195 32.0648 179.52C32.6007 180.859 33.1546 182.191 33.6734 183.538C34.1922 184.884 34.7042 186.234 35.17 187.602C34.5311 186.306 33.9391 184.989 33.3531 183.671C32.7679 182.352 32.217 181.018 31.649 179.692C31.1138 178.352 30.5584 177.02 30.0404 175.674C29.5216 174.327 29.0095 172.978 28.543 171.609Z" fill="#016B83"/>
<path opacity="0.1" d="M32.0884 173.881C30.9739 172.439 29.7064 171.06 27.8448 169.928C27.7776 170.204 27.7216 170.475 27.6738 170.743C28.7868 171.642 29.6654 172.637 30.4611 173.667C31.5479 175.121 32.4161 176.665 33.0849 178.292C33.7567 179.918 34.2329 181.624 34.4935 183.42C34.6935 184.991 34.7801 186.608 34.4673 188.391C34.913 188.753 35.3922 189.101 35.9244 189.426C36.4328 187.311 36.3507 185.441 36.12 183.633C35.8602 181.837 35.384 180.131 34.7114 178.505C34.0433 176.879 33.1752 175.335 32.0884 173.881Z" fill="#016B83"/>
<path d="M39.7945 195.014C38.6211 193.183 38.0851 191.39 37.7089 189.606C37.3648 187.824 37.2551 186.056 37.3566 184.3C37.4544 182.543 37.7679 180.8 38.318 179.07C38.898 177.342 39.6422 175.624 41.0292 173.943C42.2101 175.774 42.749 177.568 43.123 179.352C43.4671 181.134 43.5746 182.902 43.4671 184.658C43.3626 186.414 43.0468 188.157 42.4974 189.887C41.916 191.615 41.174 193.333 39.7945 195.014Z" fill="#016B83"/>
<path d="M40.9236 175.76C40.9318 177.206 40.8907 178.648 40.843 180.09C40.7959 181.532 40.7079 182.972 40.6422 184.413C40.5399 185.853 40.4578 187.293 40.3376 188.731C40.2167 190.169 40.089 191.607 39.9114 193.042C39.9024 191.596 39.9435 190.153 39.9913 188.711C40.0398 187.269 40.1256 185.829 40.1928 184.387C40.2958 182.948 40.3772 181.507 40.4981 180.07C40.6183 178.632 40.7459 177.194 40.9236 175.76Z" fill="#016B83"/>
<path opacity="0.1" d="M43.1212 179.352C42.7472 177.568 42.2083 175.775 41.0274 173.943C40.8468 174.162 40.6781 174.382 40.5183 174.602C41.1274 175.897 41.4835 177.176 41.7507 178.45C42.0948 180.232 42.2023 182.001 42.0948 183.756C41.9903 185.512 41.6746 187.256 41.1252 188.985C40.6198 190.486 39.9928 191.979 38.9336 193.447C39.1769 193.967 39.4561 194.489 39.7928 195.014C41.1722 193.333 41.9142 191.615 42.4957 189.887C43.0451 188.157 43.3608 186.414 43.4653 184.658C43.5728 182.902 43.4653 181.134 43.1212 179.352Z" fill="#016B83"/>
<path d="M39.6597 194.652C37.6517 195.485 35.7915 195.698 33.9694 195.755C32.1548 195.78 30.3946 195.578 28.6837 195.169C26.9721 194.764 25.3105 194.149 23.7041 193.304C22.1045 192.43 20.5444 191.395 19.1328 189.735C21.143 188.894 23.0032 188.679 24.8253 188.623C26.6399 188.597 28.4001 188.802 30.1095 189.217C31.8196 189.628 33.4805 190.245 35.0869 191.09C36.685 191.966 38.2466 192.998 39.6597 194.652Z" fill="#016B83"/>
<path d="M20.9023 190.156C22.3273 190.402 23.7404 190.696 25.1512 190.997C26.5627 191.297 27.9646 191.636 29.3724 191.954C30.7713 192.307 32.1746 192.641 33.569 193.012C34.9634 193.384 36.3563 193.762 37.7372 194.189C36.3122 193.945 34.8992 193.65 33.4876 193.35C32.0761 193.048 30.6735 192.711 29.2664 192.392C27.8675 192.037 26.4642 191.704 25.0698 191.333C23.6762 190.961 22.2833 190.582 20.9023 190.156Z" fill="#016B83"/>
<path opacity="0.1" d="M24.8253 188.623C23.0032 188.678 21.143 188.893 19.1328 189.735C19.3164 189.951 19.5031 190.156 19.6919 190.352C21.0729 189.98 22.3948 189.853 23.6967 189.815C25.5113 189.788 27.2714 189.994 28.9808 190.408C30.691 190.819 32.3518 191.437 33.9582 192.281C35.3466 193.041 36.7067 193.922 37.9659 195.222C38.5206 195.074 39.0834 194.89 39.6604 194.651C38.2474 192.997 36.6865 191.965 35.0876 191.089C33.4812 190.244 31.8204 189.627 30.1102 189.216C28.4001 188.802 26.6399 188.598 24.8253 188.623Z" fill="#016B83"/>
<path d="M48.1513 204.281C46.7047 202.658 45.8933 200.971 45.2416 199.268C44.6221 197.562 44.2362 195.833 44.06 194.082C43.8808 192.333 43.9159 190.561 44.1876 188.767C44.4885 186.969 44.9543 185.155 46.0598 183.277C47.5139 184.9 48.3275 186.587 48.9777 188.29C49.598 189.995 49.9816 191.725 50.1503 193.476C50.3228 195.227 50.2854 196.998 50.0145 198.792C49.7122 200.591 49.2494 202.405 48.1513 204.281Z" fill="#016B83"/>
<path d="M46.2383 185.09C46.4742 186.516 46.66 187.947 46.8384 189.38C47.0183 190.811 47.1579 192.248 47.3192 193.681C47.4446 195.119 47.5894 196.553 47.6961 197.992C47.8029 199.432 47.9029 200.871 47.9521 202.316C47.7163 200.889 47.5297 199.458 47.3505 198.027C47.1721 196.595 47.031 195.159 46.8705 193.725C46.7466 192.287 46.6003 190.852 46.4943 189.413C46.3883 187.975 46.289 186.535 46.2383 185.09Z" fill="#016B83"/>
<path opacity="0.1" d="M48.9794 188.29C48.33 186.587 47.5156 184.9 46.0615 183.277C45.9174 183.522 45.7853 183.766 45.6621 184.008C46.4668 185.191 47.0199 186.398 47.4835 187.614C48.103 189.32 48.4875 191.049 48.6569 192.801C48.8293 194.551 48.792 196.322 48.521 198.117C48.2575 199.678 47.8731 201.251 47.0572 202.867C47.379 203.343 47.7373 203.815 48.1523 204.28C49.2503 202.404 49.7131 200.59 50.0162 198.792C50.2872 196.997 50.3252 195.226 50.1521 193.475C49.9834 191.725 49.5989 189.995 48.9794 188.29Z" fill="#016B83"/>
<path d="M47.9641 203.951C46.1114 205.09 44.3087 205.592 42.5179 205.934C40.7294 206.244 38.9595 206.321 37.2054 206.186C35.4512 206.056 33.7142 205.709 31.9951 205.127C30.2782 204.515 28.5741 203.738 26.9199 202.32C28.7726 201.173 30.5761 200.669 32.3668 200.328C34.1553 200.018 35.9252 199.943 37.6786 200.084C39.432 200.221 41.1698 200.57 42.8881 201.152C44.605 201.765 46.3092 202.54 47.9641 203.951Z" fill="#016B83"/>
<path d="M28.7324 202.459C30.1783 202.478 31.6197 202.546 33.0611 202.622C34.5025 202.696 35.9402 202.811 37.3801 202.904C38.8171 203.033 40.2555 203.143 41.6909 203.29C43.1264 203.438 44.5611 203.592 45.9928 203.797C44.5469 203.779 43.1055 203.711 41.6641 203.635C40.2226 203.56 38.785 203.447 37.345 203.352C35.9081 203.222 34.4697 203.114 33.0343 202.966C31.5988 202.818 30.1634 202.664 28.7324 202.459Z" fill="#016B83"/>
<path opacity="0.1" d="M32.3668 200.325C30.5761 200.665 28.7726 201.17 26.9199 202.316C27.1356 202.5 27.3521 202.674 27.5693 202.838C28.8749 202.253 30.161 201.921 31.4397 201.678C33.2282 201.367 34.9981 201.293 36.7515 201.434C38.5049 201.571 40.242 201.92 41.961 202.502C43.4517 203.036 44.9327 203.69 46.3808 204.777C46.9056 204.544 47.4326 204.274 47.9641 203.947C46.3092 202.536 44.605 201.762 42.8881 201.148C41.1691 200.566 39.432 200.217 37.6786 200.08C35.9252 199.939 34.1553 200.014 32.3668 200.325Z" fill="#016B83"/>
<path d="M58.1342 212.962C56.4472 211.589 55.3782 210.053 54.4638 208.475C53.5808 206.89 52.9239 205.244 52.4723 203.544C52.0169 201.845 51.7699 200.091 51.752 198.276C51.7631 196.453 51.9341 194.588 52.7261 192.559C54.4198 193.929 55.4917 195.465 56.4046 197.043C57.2884 198.628 57.9431 200.274 58.3887 201.976C58.8381 203.676 59.0829 205.431 59.1008 207.246C59.0874 209.069 58.9194 210.933 58.1342 212.962Z" fill="#016B83"/>
<path d="M53.1934 194.316C53.6532 195.687 54.0645 197.071 54.469 198.456C54.8744 199.84 55.2409 201.236 55.629 202.625C55.9814 204.024 56.3531 205.418 56.6883 206.822C57.0227 208.226 57.3504 209.631 57.6296 211.05C57.169 209.679 56.7577 208.296 56.3531 206.911C55.9485 205.525 55.5805 204.13 55.1939 202.74C54.8423 201.341 54.4698 199.947 54.1361 198.544C53.801 197.141 53.4733 195.735 53.1934 194.316Z" fill="#016B83"/>
<path opacity="0.1" d="M56.4042 197.043C55.4921 195.465 54.4194 193.929 52.7257 192.559C52.6227 192.823 52.5309 193.085 52.4473 193.344C53.4304 194.383 54.1679 195.487 54.8203 196.614C55.7041 198.2 56.3587 199.846 56.8043 201.547C57.2537 203.248 57.4985 205.003 57.5165 206.817C57.5053 208.401 57.3754 210.015 56.8275 211.74C57.2209 212.158 57.6493 212.567 58.1338 212.961C58.9191 210.933 59.087 209.069 59.1004 207.246C59.0825 205.431 58.8377 203.676 58.3883 201.976C57.9419 200.275 57.2873 198.628 56.4042 197.043Z" fill="#016B83"/>
<path d="M57.9004 212.661C56.253 214.08 54.5526 214.863 52.8394 215.486C51.1233 216.077 49.3878 216.434 47.6351 216.581C45.8824 216.731 44.1126 216.666 42.3226 216.364C40.5303 216.033 38.7247 215.537 36.8652 214.4C38.5119 212.974 40.2124 212.188 41.9255 211.567C43.6416 210.975 45.3771 210.62 47.1305 210.481C48.8832 210.337 50.6538 210.404 52.4438 210.705C54.2361 211.039 56.0417 211.532 57.9004 212.661Z" fill="#016B83"/>
<path d="M38.6777 214.251C40.1079 214.039 41.5419 213.877 42.9766 213.722C44.4113 213.566 45.849 213.45 47.2851 213.313C48.7243 213.212 50.162 213.091 51.6027 213.008C53.0433 212.925 54.4847 212.85 55.9299 212.824C54.4997 213.036 53.0657 213.199 51.631 213.353C50.1963 213.508 48.7586 213.625 47.3225 213.762C45.8833 213.862 44.4456 213.984 43.005 214.066C41.5643 214.149 40.1229 214.225 38.6777 214.251Z" fill="#016B83"/>
<path opacity="0.1" d="M41.9255 211.57C40.2116 212.191 38.5119 212.977 36.8652 214.403C37.1078 214.552 37.3489 214.688 37.5893 214.815C38.7851 214.03 40.0019 213.498 41.2253 213.054C42.9414 212.463 44.6769 212.108 46.4303 211.968C48.1838 211.825 49.9544 211.892 51.7436 212.193C53.3 212.482 54.8668 212.893 56.4695 213.736C56.9502 213.422 57.4279 213.072 57.9004 212.665C56.0417 211.535 54.2361 211.043 52.4438 210.709C50.6538 210.408 48.8832 210.341 47.1305 210.484C45.3771 210.624 43.6416 210.979 41.9255 211.57Z" fill="#016B83"/>
<path d="M70.6123 220.163C68.6939 219.139 67.3495 217.837 66.1499 216.464C64.9795 215.077 64.0195 213.588 63.2499 212.006C62.4774 210.426 61.8989 208.752 61.5338 206.974C61.195 205.183 61.0054 203.32 61.3943 201.176C63.3194 202.196 64.666 203.498 65.8641 204.871C67.0352 206.258 67.993 207.748 68.7566 209.333C69.5232 210.916 70.1002 212.591 70.466 214.369C70.8019 216.161 70.9945 218.023 70.6123 220.163Z" fill="#016B83"/>
<path d="M62.1875 202.814C62.9011 204.071 63.5707 205.35 64.2328 206.633C64.8964 207.914 65.5234 209.214 66.1706 210.503C66.7849 211.809 67.4164 213.106 68.0144 214.419C68.6115 215.733 69.2027 217.049 69.7484 218.388C69.034 217.131 68.3652 215.852 67.7023 214.57C67.0402 213.288 66.4117 211.99 65.7653 210.7C65.1524 209.394 64.5187 208.098 63.9223 206.783C63.3244 205.47 62.7339 204.153 62.1875 202.814Z" fill="#016B83"/>
<path opacity="0.1" d="M65.8617 204.871C64.6637 203.498 63.3171 202.196 61.3919 201.176C61.3412 201.455 61.3016 201.729 61.2695 202C62.434 202.831 63.3693 203.773 64.2248 204.755C65.396 206.142 66.3537 207.632 67.1173 209.217C67.8839 210.8 68.4609 212.475 68.8267 214.252C69.1193 215.809 69.3014 217.418 69.0946 219.216C69.5604 219.551 70.0598 219.87 70.6107 220.164C70.9929 218.023 70.8003 216.162 70.4636 214.369C70.0979 212.591 69.5216 210.916 68.7543 209.333C67.9906 207.748 67.0329 206.258 65.8617 204.871Z" fill="#016B83"/>
<path d="M70.3185 219.908C68.9733 221.617 67.4551 222.711 65.8927 223.651C64.3214 224.56 62.6874 225.243 60.9945 225.723C59.303 226.206 57.5533 226.482 55.7387 226.529C53.9158 226.547 52.0489 226.407 50.0059 225.647C51.3487 223.931 52.8663 222.835 54.4294 221.896C55.9999 220.987 57.6354 220.306 59.3299 219.832C61.0228 219.355 62.7733 219.082 64.5879 219.034C66.4115 219.019 68.2784 219.156 70.3185 219.908Z" fill="#016B83"/>
<path d="M51.7598 225.154C53.1228 224.673 54.4993 224.239 55.878 223.812C57.2559 223.384 58.6451 222.995 60.0283 222.584C61.4212 222.209 62.8088 221.815 64.207 221.457C65.6051 221.1 67.0054 220.75 68.4192 220.447C67.0562 220.929 65.6797 221.364 64.3018 221.791C62.923 222.218 61.5346 222.608 60.1507 223.017C58.7571 223.391 57.3701 223.787 55.9713 224.144C54.5732 224.501 53.1728 224.851 51.7598 225.154Z" fill="#016B83"/>
<path opacity="0.1" d="M54.4294 221.896C52.8663 222.835 51.3487 223.931 50.0059 225.647C50.2716 225.747 50.5351 225.834 50.7956 225.912C51.8183 224.913 52.9103 224.157 54.027 223.487C55.5976 222.578 57.2331 221.896 58.9275 221.423C60.6205 220.946 62.3709 220.673 64.1856 220.625C65.7688 220.611 67.3849 220.714 69.1189 221.234C69.5302 220.833 69.9326 220.398 70.3185 219.908C68.2784 219.155 66.4115 219.018 64.5887 219.034C62.774 219.082 61.0236 219.355 59.3306 219.832C57.6354 220.306 55.9999 220.986 54.4294 221.896Z" fill="#016B83"/>
<path d="M82.3749 224.555C80.3856 223.678 78.9472 222.48 77.6483 221.2C76.3771 219.905 75.3082 218.491 74.4229 216.972C73.5339 215.455 72.8315 213.828 72.3343 212.082C71.8625 210.321 71.5341 208.478 71.761 206.311C73.7571 207.184 75.1977 208.381 76.4951 209.661C77.767 210.956 78.8337 212.371 79.7138 213.894C80.5969 215.415 81.297 217.042 81.7949 218.788C82.2644 220.55 82.5959 222.392 82.3749 224.555Z" fill="#016B83"/>
<path d="M72.6738 207.883C73.4793 209.083 74.2429 210.308 74.9998 211.537C75.7574 212.765 76.48 214.013 77.222 215.251C77.9319 216.507 78.6589 217.753 79.3539 219.018C80.0481 220.283 80.7356 221.552 81.3805 222.846C80.5743 221.646 79.8107 220.42 79.0538 219.192C78.2976 217.963 77.5736 216.715 76.8331 215.477C76.124 214.22 75.3954 212.974 74.702 211.709C74.007 210.445 73.3188 209.176 72.6738 207.883Z" fill="#016B83"/>
<path opacity="0.1" d="M76.4937 209.661C75.1964 208.381 73.7557 207.184 71.7597 206.311C71.7298 206.593 71.7112 206.87 71.6992 207.141C72.9227 207.883 73.9259 208.753 74.853 209.667C76.125 210.962 77.1917 212.377 78.0717 213.9C78.9548 215.421 79.655 217.048 80.1529 218.794C80.5612 220.323 80.8635 221.914 80.7918 223.723C81.2815 224.022 81.8033 224.303 82.3743 224.555C82.5953 222.391 82.2638 220.549 81.7936 218.788C81.2957 217.042 80.5955 215.415 79.7124 213.894C78.8324 212.371 77.7657 210.957 76.4937 209.661Z" fill="#016B83"/>
<path d="M82.0627 224.329C80.8497 226.134 79.4173 227.339 77.9296 228.393C76.4314 229.417 74.8519 230.22 73.2008 230.825C71.5503 231.434 69.826 231.839 68.0203 232.022C66.2042 232.177 64.3313 232.176 62.2383 231.572C63.449 229.761 64.8807 228.553 66.3684 227.501C67.8666 226.477 69.4468 225.675 71.1002 225.076C72.7529 224.474 74.4779 224.071 76.2836 223.887C78.0998 223.734 79.9719 223.732 82.0627 224.329Z" fill="#016B83"/>
<path d="M63.9434 230.948C65.2668 230.365 66.6067 229.829 67.9496 229.3C69.2917 228.77 70.648 228.278 71.9969 227.766C73.3577 227.287 74.7125 226.79 76.08 226.329C77.4475 225.867 78.8173 225.413 80.2049 225.006C78.8822 225.589 77.5423 226.125 76.1995 226.654C74.8566 227.183 73.501 227.677 72.1522 228.188C70.7906 228.665 69.4365 229.164 68.069 229.624C66.7008 230.085 65.3303 230.54 63.9434 230.948Z" fill="#016B83"/>
<path opacity="0.1" d="M66.3684 227.501C64.88 228.554 63.449 229.762 62.2383 231.572C62.5115 231.651 62.7795 231.719 63.0452 231.778C63.9902 230.704 65.0233 229.869 66.0863 229.117C67.5844 228.093 69.1647 227.292 70.8181 226.692C72.4707 226.09 74.1958 225.687 76.0015 225.503C77.5787 225.37 79.1985 225.352 80.9669 225.74C81.3476 225.31 81.7149 224.846 82.0635 224.329C79.9726 223.732 78.1005 223.734 76.2844 223.887C74.4787 224.071 72.7536 224.474 71.101 225.076C69.4461 225.675 67.8666 226.477 66.3684 227.501Z" fill="#016B83"/>
<path d="M97.4231 226.503C95.292 226.071 93.6311 225.209 92.0882 224.237C90.5691 223.243 89.2233 222.091 88.0327 220.796C86.8398 219.503 85.806 218.065 84.9468 216.466C84.1093 214.847 83.3942 213.117 83.1523 210.951C85.2895 211.377 86.9518 212.239 88.4932 213.211C90.0123 214.205 91.3574 215.358 92.5428 216.658C93.7311 217.954 94.7635 219.395 95.6227 220.993C96.458 222.614 97.176 224.342 97.4231 226.503Z" fill="#016B83"/>
<path d="M84.3809 212.293C85.4244 213.293 86.4321 214.326 87.4346 215.365C88.4371 216.403 89.4105 217.468 90.3996 218.518C91.3617 219.593 92.3388 220.655 93.2876 221.742C94.2363 222.83 95.1799 223.922 96.0861 225.048C95.0418 224.049 94.034 223.015 93.0323 221.977C92.0306 220.938 91.0564 219.874 90.0681 218.823C89.1067 217.747 88.1288 216.687 87.1808 215.598C86.2313 214.511 85.2878 213.419 84.3809 212.293Z" fill="#016B83"/>
<path opacity="0.1" d="M88.4932 213.211C86.9518 212.239 85.2887 211.377 83.1523 210.951C83.1837 211.233 83.224 211.507 83.271 211.775C84.6244 212.238 85.7911 212.873 86.8921 213.568C88.4111 214.561 89.7563 215.715 90.9416 217.014C92.13 218.311 93.1623 219.751 94.0215 221.349C94.7471 222.756 95.3831 224.246 95.7003 226.028C96.243 226.215 96.8125 226.378 97.4239 226.502C97.1768 224.342 96.4594 222.613 95.6234 220.993C94.7642 219.394 93.7319 217.954 92.5435 216.657C91.3567 215.358 90.0123 214.205 88.4932 213.211Z" fill="#016B83"/>
<path d="M97.0692 226.349C96.2705 228.371 95.1284 229.855 93.9012 231.203C92.6561 232.523 91.2856 233.646 89.8016 234.591C88.3199 235.538 86.7218 236.303 84.9967 236.868C83.256 237.408 81.4264 237.809 79.252 237.666C80.0469 235.637 81.1868 234.152 82.4154 232.805C83.6598 231.484 85.0318 230.363 86.5195 229.424C88.0049 228.482 89.6038 227.72 91.3281 227.154C93.0711 226.616 94.8992 226.212 97.0692 226.349Z" fill="#016B83"/>
<path d="M80.7871 236.69C81.9553 235.839 83.1496 235.028 84.3477 234.224C85.5458 233.419 86.7647 232.648 87.9725 231.859C89.1997 231.101 90.4164 230.326 91.6533 229.583C92.8909 228.84 94.1315 228.103 95.3998 227.408C94.2323 228.261 93.038 229.071 91.8392 229.875C90.6404 230.679 89.4221 231.451 88.2136 232.239C86.9857 232.997 85.7697 233.773 84.5321 234.515C83.2952 235.259 82.0546 235.995 80.7871 236.69Z" fill="#016B83"/>
<path opacity="0.1" d="M82.4194 232.804C81.1907 234.15 80.0508 235.637 79.2559 237.665C79.5395 237.684 79.8165 237.692 80.0882 237.694C80.7816 236.443 81.6117 235.406 82.4895 234.444C83.7339 233.123 85.1059 232.002 86.5928 231.064C88.0783 230.122 89.6772 229.359 91.4022 228.793C92.9145 228.326 94.4933 227.961 96.3035 227.963C96.5834 227.462 96.8432 226.93 97.0731 226.349C94.9024 226.212 93.075 226.616 91.3328 227.154C89.6085 227.72 88.0096 228.482 86.5241 229.425C85.0357 230.362 83.6644 231.483 82.4194 232.804Z" fill="#016B83"/>
<path d="M269.454 230.735C267.977 232.257 266.329 233.635 264.68 234.964C260.554 238.29 256.111 241.223 251.452 243.748C245.087 247.197 238.285 249.845 231.223 251.458C222.781 253.385 214.01 253.754 205.444 252.467C194.846 250.874 184.779 246.795 175.67 241.21C174.346 240.398 173.043 239.553 171.757 238.683C171.357 238.412 171.832 237.83 172.231 238.099C181.359 244.281 191.528 249.025 202.382 251.172C210.97 252.87 219.826 252.896 228.427 251.276C235.63 249.919 242.601 247.437 249.132 244.122C254.052 241.623 258.737 238.646 263.094 235.261C265.089 233.711 267.006 231.951 268.794 230.338C268.821 230.314 268.845 230.286 268.87 230.261C269.205 229.917 269.792 230.387 269.454 230.735Z" fill="#016B83"/>
<path d="M263.295 236.05C265.431 235.642 267.101 234.797 268.655 233.842C270.184 232.865 271.543 231.728 272.747 230.447C273.954 229.167 275.004 227.741 275.881 226.151C276.736 224.542 277.471 222.819 277.736 220.656C275.594 221.059 273.922 221.902 272.37 222.858C270.84 223.834 269.483 224.972 268.284 226.258C267.081 227.542 266.033 228.971 265.156 230.56C264.303 232.171 263.566 233.892 263.295 236.05Z" fill="#016B83"/>
<path d="M276.49 221.982C275.435 222.971 274.416 223.993 273.403 225.021C272.388 226.047 271.404 227.102 270.403 228.141C269.429 229.205 268.441 230.255 267.48 231.333C266.519 232.41 265.563 233.491 264.645 234.607C265.7 233.619 266.719 232.597 267.733 231.57C268.746 230.542 269.732 229.489 270.732 228.449C271.705 227.384 272.695 226.334 273.655 225.256C274.616 224.18 275.571 223.098 276.49 221.982Z" fill="#016B83"/>
<path opacity="0.1" d="M272.371 222.858C273.923 221.901 275.595 221.059 277.737 220.656C277.702 220.938 277.659 221.212 277.609 221.48C276.25 221.927 275.077 222.55 273.969 223.232C272.438 224.209 271.081 225.347 269.882 226.633C268.679 227.917 267.631 229.346 266.754 230.934C266.013 232.333 265.36 233.816 265.024 235.594C264.479 235.776 263.908 235.932 263.295 236.049C263.566 233.891 264.303 232.17 265.156 230.56C266.033 228.97 267.081 227.542 268.284 226.258C269.484 224.972 270.841 223.834 272.371 222.858Z" fill="#016B83"/>
<path d="M257.702 239.906C259.446 238.608 260.581 237.119 261.562 235.582C262.513 234.036 263.239 232.42 263.764 230.741C264.293 229.064 264.615 227.322 264.711 225.51C264.778 223.688 264.688 221.818 263.984 219.756C262.233 221.052 261.095 222.54 260.116 224.077C259.165 225.623 258.44 227.24 257.921 228.92C257.399 230.6 257.079 232.343 256.983 234.155C256.917 235.977 257.004 237.847 257.702 239.906Z" fill="#016B83"/>
<path d="M263.443 221.492C262.925 222.842 262.454 224.206 261.99 225.573C261.525 226.939 261.1 228.318 260.652 229.689C260.239 231.071 259.809 232.449 259.414 233.836C259.019 235.225 258.631 236.615 258.291 238.02C258.81 236.67 259.281 235.306 259.744 233.939C260.208 232.573 260.636 231.195 261.082 229.823C261.493 228.439 261.926 227.064 262.32 225.675C262.715 224.288 263.103 222.897 263.443 221.492Z" fill="#016B83"/>
<path opacity="0.1" d="M260.115 224.077C261.095 222.54 262.232 221.052 263.984 219.756C264.075 220.025 264.156 220.29 264.228 220.552C263.201 221.548 262.416 222.62 261.717 223.717C260.766 225.263 260.041 226.88 259.522 228.56C259 230.24 258.68 231.983 258.584 233.795C258.527 235.378 258.587 236.996 259.06 238.744C258.649 239.144 258.203 239.534 257.702 239.906C257.005 237.847 256.918 235.977 256.983 234.155C257.079 232.343 257.399 230.6 257.921 228.92C258.439 227.24 259.164 225.623 260.115 224.077Z" fill="#016B83"/>
<path d="M257.955 239.62C259.54 241.109 261.205 241.965 262.89 242.66C264.579 243.325 266.297 243.756 268.042 243.978C269.786 244.203 271.558 244.215 273.359 243.991C275.164 243.737 276.99 243.32 278.895 242.264C277.311 240.767 275.647 239.91 273.962 239.216C272.273 238.55 270.555 238.121 268.809 237.906C267.063 237.688 265.291 237.679 263.49 237.902C261.685 238.157 259.86 238.572 257.955 239.62Z" fill="#016B83"/>
<path d="M277.093 242.036C275.673 241.763 274.248 241.539 272.821 241.323C271.395 241.106 269.963 240.928 268.534 240.729C267.1 240.565 265.669 240.383 264.233 240.237C262.798 240.093 261.361 239.955 259.918 239.867C261.338 240.141 262.763 240.364 264.19 240.582C265.616 240.798 267.048 240.976 268.478 241.175C269.912 241.337 271.343 241.521 272.778 241.665C274.213 241.81 275.65 241.948 277.093 242.036Z" fill="#016B83"/>
<path opacity="0.1" d="M273.96 239.216C275.645 239.91 277.309 240.769 278.893 242.265C278.644 242.402 278.397 242.528 278.152 242.645C276.991 241.809 275.798 241.224 274.595 240.728C272.906 240.063 271.187 239.634 269.441 239.419C267.696 239.2 265.924 239.191 264.123 239.415C262.555 239.636 260.972 239.98 259.335 240.752C258.869 240.418 258.407 240.048 257.951 239.621C259.856 238.573 261.682 238.158 263.487 237.902C265.288 237.678 267.059 237.687 268.805 237.907C270.552 238.122 272.271 238.551 273.96 239.216Z" fill="#016B83"/>
<path d="M246.618 245.638C248.544 244.63 249.898 243.338 251.109 241.975C252.291 240.598 253.263 239.116 254.044 237.54C254.829 235.967 255.421 234.297 255.8 232.522C256.154 230.733 256.358 228.872 255.986 226.725C254.053 227.73 252.696 229.021 251.487 230.385C250.305 231.762 249.335 233.244 248.56 234.823C247.781 236.399 247.191 238.071 246.811 239.845C246.46 241.634 246.253 243.495 246.618 245.638Z" fill="#016B83"/>
<path d="M255.181 228.355C254.457 229.607 253.778 230.88 253.105 232.157C252.432 233.434 251.794 234.728 251.137 236.012C250.512 237.312 249.87 238.604 249.261 239.913C248.654 241.222 248.052 242.534 247.496 243.868C248.22 242.617 248.899 241.344 249.573 240.067C250.245 238.791 250.884 237.497 251.54 236.212C252.164 234.911 252.807 233.619 253.414 232.31C254.022 231.002 254.623 229.689 255.181 228.355Z" fill="#016B83"/>
<path opacity="0.1" d="M251.488 230.385C252.697 229.021 254.054 227.729 255.987 226.725C256.036 227.005 256.073 227.278 256.103 227.549C254.932 228.371 253.989 229.307 253.125 230.281C251.943 231.658 250.973 233.14 250.198 234.719C249.418 236.296 248.829 237.967 248.449 239.741C248.144 241.295 247.948 242.903 248.141 244.703C247.672 245.034 247.171 245.349 246.618 245.638C246.253 243.495 246.46 241.634 246.811 239.845C247.191 238.07 247.781 236.399 248.56 234.823C249.336 233.244 250.306 231.762 251.488 230.385Z" fill="#016B83"/>
<path d="M246.91 245.392C248.242 247.111 249.751 248.218 251.306 249.17C252.87 250.091 254.499 250.787 256.187 251.28C257.874 251.776 259.622 252.066 261.436 252.127C263.258 252.16 265.127 252.035 267.176 251.291C265.846 249.565 264.338 248.455 262.782 247.505C261.218 246.583 259.589 245.889 257.899 245.402C256.21 244.912 254.461 244.625 252.647 244.563C250.824 244.533 248.956 244.656 246.91 245.392Z" fill="#016B83"/>
<path d="M265.426 250.785C264.067 250.292 262.694 249.847 261.319 249.409C259.944 248.97 258.558 248.57 257.178 248.149C255.789 247.762 254.404 247.358 253.009 246.989C251.614 246.621 250.216 246.259 248.805 245.945C250.163 246.439 251.537 246.884 252.912 247.322C254.287 247.759 255.672 248.161 257.052 248.581C258.443 248.966 259.827 249.373 261.222 249.74C262.618 250.109 264.015 250.47 265.426 250.785Z" fill="#016B83"/>
<path opacity="0.1" d="M262.781 247.505C264.337 248.456 265.846 249.565 267.175 251.292C266.908 251.389 266.644 251.474 266.384 251.551C265.369 250.543 264.282 249.778 263.172 249.099C261.608 248.177 259.978 247.483 258.288 246.996C256.599 246.506 254.851 246.219 253.037 246.157C251.454 246.13 249.837 246.22 248.099 246.726C247.69 246.323 247.292 245.884 246.91 245.391C248.956 244.655 250.824 244.532 252.647 244.563C254.461 244.625 256.21 244.912 257.899 245.403C259.588 245.889 261.218 246.584 262.781 247.505Z" fill="#016B83"/>
<path d="M234.206 250.232C236.268 249.543 237.811 248.483 239.223 247.33C240.609 246.158 241.805 244.85 242.827 243.419C243.854 241.99 244.703 240.436 245.36 238.744C245.993 237.035 246.492 235.23 246.466 233.051C244.398 233.735 242.853 234.794 241.442 235.948C240.056 237.119 238.862 238.428 237.845 239.864C236.824 241.296 235.975 242.852 235.318 244.543C234.687 246.253 234.187 248.058 234.206 250.232Z" fill="#016B83"/>
<path d="M245.409 234.531C244.495 235.652 243.622 236.8 242.755 237.954C241.887 239.106 241.051 240.283 240.198 241.446C239.375 242.63 238.535 243.804 237.726 244.999C236.918 246.194 236.116 247.393 235.354 248.622C236.268 247.502 237.141 246.353 238.009 245.2C238.876 244.046 239.713 242.871 240.565 241.707C241.387 240.522 242.228 239.35 243.036 238.154C243.844 236.959 244.646 235.76 245.409 234.531Z" fill="#016B83"/>
<path opacity="0.1" d="M241.443 235.948C242.853 234.794 244.399 233.735 246.467 233.051C246.47 233.334 246.464 233.611 246.45 233.884C245.163 234.509 244.083 235.282 243.076 236.106C241.69 237.277 240.496 238.587 239.479 240.022C238.458 241.454 237.609 243.01 236.952 244.701C236.404 246.187 235.955 247.743 235.858 249.55C235.342 249.803 234.798 250.034 234.206 250.232C234.186 248.058 234.687 246.254 235.319 244.543C235.976 242.852 236.824 241.296 237.845 239.864C238.863 238.429 240.056 237.12 241.443 235.948Z" fill="#016B83"/>
<path d="M234.535 250.035C235.576 251.944 236.89 253.277 238.273 254.464C239.671 255.623 241.168 256.569 242.757 257.325C244.344 258.085 246.023 258.648 247.804 258.998C249.598 259.321 251.463 259.495 253.603 259.087C252.566 257.171 251.253 255.835 249.869 254.65C248.472 253.491 246.973 252.547 245.382 251.796C243.793 251.043 242.112 250.482 240.331 250.132C238.535 249.809 236.672 249.634 234.535 250.035Z" fill="#016B83"/>
<path d="M251.959 258.308C250.696 257.606 249.412 256.947 248.123 256.297C246.836 255.644 245.532 255.029 244.236 254.393C242.925 253.791 241.622 253.17 240.304 252.584C238.985 251.998 237.663 251.418 236.32 250.885C237.583 251.588 238.868 252.246 240.156 252.897C241.443 253.548 242.747 254.165 244.043 254.8C245.355 255.402 246.657 256.023 247.975 256.609C249.294 257.194 250.616 257.773 251.959 258.308Z" fill="#016B83"/>
<path opacity="0.1" d="M249.868 254.649C251.252 255.835 252.566 257.17 253.603 259.086C253.324 259.139 253.05 259.182 252.78 259.216C251.938 258.059 250.988 257.132 250 256.285C248.603 255.125 247.104 254.181 245.513 253.431C243.923 252.678 242.242 252.116 240.462 251.766C238.903 251.488 237.293 251.319 235.496 251.542C235.157 251.079 234.834 250.583 234.535 250.035C236.672 249.634 238.536 249.81 240.331 250.131C242.112 250.481 243.792 251.043 245.381 251.795C246.973 252.545 248.471 253.49 249.868 254.649Z" fill="#016B83"/>
<path d="M219.996 252.565C222.153 252.284 223.869 251.539 225.477 250.678C227.061 249.794 228.485 248.739 229.763 247.531C231.044 246.326 232.177 244.963 233.146 243.429C234.094 241.872 234.93 240.197 235.322 238.053C233.161 238.328 231.442 239.071 229.836 239.933C228.25 240.817 226.828 241.873 225.555 243.087C224.279 244.297 223.148 245.661 222.179 247.195C221.231 248.753 220.394 250.427 219.996 252.565Z" fill="#016B83"/>
<path d="M234.001 239.305C232.889 240.229 231.811 241.189 230.739 242.155C229.666 243.121 228.621 244.115 227.56 245.093C226.525 246.097 225.476 247.088 224.453 248.106C223.43 249.124 222.413 250.148 221.43 251.208C222.542 250.284 223.619 249.324 224.692 248.358C225.764 247.392 226.81 246.399 227.87 245.42C228.905 244.414 229.955 243.424 230.977 242.405C232 241.387 233.017 240.364 234.001 239.305Z" fill="#016B83"/>
<path opacity="0.1" d="M229.836 239.933C231.442 239.071 233.161 238.328 235.322 238.053C235.271 238.332 235.212 238.603 235.146 238.867C233.764 239.234 232.555 239.786 231.409 240.402C229.823 241.286 228.401 242.342 227.128 243.556C225.851 244.766 224.72 246.13 223.752 247.664C222.929 249.017 222.19 250.458 221.749 252.214C221.194 252.362 220.615 252.485 219.996 252.565C220.394 250.428 221.231 248.753 222.179 247.196C223.148 245.662 224.279 244.298 225.555 243.088C226.828 241.873 228.25 240.817 229.836 239.933Z" fill="#016B83"/>
<path d="M220.355 252.432C221.011 254.505 222.045 256.065 223.176 257.496C224.325 258.9 225.614 260.116 227.027 261.163C228.439 262.212 229.98 263.087 231.661 263.772C233.36 264.432 235.156 264.96 237.335 264.971C236.684 262.891 235.651 261.329 234.52 259.9C233.371 258.494 232.082 257.28 230.663 256.239C229.247 255.196 227.706 254.322 226.026 253.637C224.325 252.977 222.53 252.447 220.355 252.432Z" fill="#016B83"/>
<path d="M235.873 263.888C234.768 262.957 233.633 262.065 232.494 261.179C231.356 260.292 230.193 259.438 229.044 258.565C227.873 257.722 226.713 256.864 225.532 256.035C224.349 255.208 223.163 254.386 221.947 253.604C223.052 254.536 224.187 255.428 225.326 256.314C226.465 257.2 227.626 258.055 228.777 258.927C229.949 259.769 231.107 260.628 232.289 261.456C233.471 262.284 234.658 263.106 235.873 263.888Z" fill="#016B83"/>
<path opacity="0.1" d="M234.52 259.9C235.651 261.329 236.683 262.891 237.334 264.971C237.051 264.969 236.774 264.958 236.502 264.94C235.897 263.643 235.143 262.551 234.334 261.53C233.186 260.125 231.896 258.911 230.478 257.87C229.062 256.826 227.521 255.953 225.84 255.267C224.364 254.695 222.816 254.221 221.009 254.095C220.765 253.576 220.544 253.027 220.355 252.432C222.53 252.448 224.325 252.978 226.025 253.637C227.706 254.322 229.247 255.196 230.663 256.239C232.081 257.281 233.371 258.495 234.52 259.9Z" fill="#016B83"/>
<path d="M207.439 252.531C209.611 252.413 211.379 251.799 213.046 251.061C214.693 250.297 216.192 249.352 217.557 248.243C218.924 247.137 220.155 245.862 221.237 244.405C222.3 242.924 223.258 241.315 223.81 239.207C221.634 239.32 219.864 239.931 218.198 240.672C216.551 241.434 215.054 242.381 213.693 243.495C212.33 244.607 211.1 245.883 210.018 247.34C208.956 248.822 207.996 250.429 207.439 252.531Z" fill="#016B83"/>
<path d="M222.397 240.355C221.219 241.194 220.074 242.071 218.931 242.954C217.789 243.835 216.673 244.749 215.542 245.645C214.434 246.569 213.314 247.479 212.218 248.417C211.122 249.356 210.031 250.301 208.971 251.284C210.149 250.445 211.295 249.568 212.437 248.686C213.578 247.803 214.696 246.891 215.826 245.994C216.933 245.069 218.054 244.161 219.149 243.221C220.245 242.283 221.337 241.339 222.397 240.355Z" fill="#016B83"/>
<path opacity="0.1" d="M218.198 240.672C219.864 239.932 221.634 239.32 223.81 239.207C223.738 239.482 223.659 239.747 223.573 240.006C222.167 240.268 220.921 240.728 219.731 241.256C218.085 242.019 216.587 242.965 215.227 244.08C213.863 245.191 212.633 246.467 211.552 247.924C210.63 249.211 209.786 250.594 209.214 252.311C208.649 252.418 208.063 252.497 207.439 252.531C207.996 250.429 208.956 248.821 210.018 247.34C211.099 245.883 212.33 244.607 213.693 243.495C215.054 242.381 216.551 241.434 218.198 240.672Z" fill="#016B83"/>
<path d="M207.811 252.428C208.308 254.545 209.224 256.177 210.243 257.689C211.284 259.176 212.477 260.485 213.809 261.634C215.139 262.786 216.609 263.774 218.234 264.582C219.879 265.368 221.63 266.029 223.803 266.202C223.309 264.08 222.396 262.444 221.375 260.935C220.335 259.447 219.14 258.14 217.803 256.996C216.469 255.849 214.998 254.863 213.373 254.054C211.728 253.27 209.978 252.607 207.811 252.428Z" fill="#016B83"/>
<path d="M222.423 265.016C221.391 264.004 220.326 263.03 219.257 262.061C218.188 261.092 217.093 260.152 216.012 259.197C214.907 258.269 213.815 257.326 212.699 256.412C211.583 255.498 210.461 254.589 209.307 253.719C210.338 254.731 211.403 255.706 212.472 256.675C213.542 257.644 214.636 258.583 215.718 259.538C216.823 260.465 217.914 261.41 219.031 262.323C220.148 263.237 221.269 264.145 222.423 265.016Z" fill="#016B83"/>
<path opacity="0.1" d="M221.376 260.935C222.397 262.445 223.31 264.08 223.803 266.202C223.521 266.18 223.245 266.148 222.976 266.11C222.47 264.771 221.799 263.625 221.07 262.547C220.029 261.06 218.834 259.752 217.498 258.608C216.164 257.461 214.693 256.474 213.068 255.666C211.638 254.984 210.13 254.396 208.338 254.136C208.134 253.599 207.954 253.035 207.811 252.428C209.978 252.607 211.728 253.27 213.374 254.054C214.999 254.863 216.47 255.849 217.804 256.996C219.14 258.14 220.335 259.448 221.376 260.935Z" fill="#016B83"/>
<path d="M192.67 249.035C194.816 249.383 196.675 249.162 198.462 248.797C200.234 248.404 201.9 247.802 203.47 247.01C205.043 246.221 206.518 245.24 207.886 244.048C209.241 242.829 210.521 241.462 211.511 239.52C209.361 239.165 207.501 239.384 205.717 239.75C203.944 240.144 202.279 240.748 200.711 241.545C199.142 242.34 197.668 243.323 196.3 244.515C194.946 245.736 193.664 247.101 192.67 249.035Z" fill="#016B83"/>
<path d="M209.889 240.338C208.559 240.905 207.251 241.517 205.947 242.135C204.643 242.752 203.356 243.405 202.061 244.039C200.78 244.705 199.492 245.353 198.221 246.036C196.95 246.719 195.681 247.408 194.436 248.141C195.766 247.575 197.073 246.963 198.377 246.345C199.681 245.727 200.968 245.076 202.264 244.441C203.543 243.774 204.832 243.127 206.103 242.444C207.375 241.761 208.643 241.072 209.889 240.338Z" fill="#016B83"/>
<path opacity="0.1" d="M205.717 239.75C207.502 239.384 209.361 239.165 211.511 239.52C211.382 239.773 211.248 240.015 211.11 240.25C209.68 240.206 208.364 240.388 207.089 240.649C205.317 241.042 203.652 241.646 202.084 242.444C200.514 243.238 199.041 244.222 197.672 245.414C196.496 246.474 195.376 247.643 194.45 249.199C193.876 249.182 193.286 249.134 192.67 249.034C193.663 247.1 194.945 245.735 196.299 244.515C197.667 243.323 199.142 242.34 200.711 241.545C202.279 240.747 203.944 240.143 205.717 239.75Z" fill="#016B83"/>
<path d="M193.049 249.018C193.082 251.192 193.627 252.983 194.3 254.677C194.999 256.352 195.885 257.887 196.939 259.294C197.992 260.703 199.217 261.984 200.631 263.12C202.07 264.24 203.64 265.261 205.724 265.894C205.696 263.715 205.154 261.923 204.48 260.229C203.782 258.554 202.894 257.021 201.834 255.618C200.776 254.212 199.55 252.934 198.136 251.796C196.696 250.678 195.128 249.657 193.049 249.018Z" fill="#016B83"/>
<path d="M204.634 264.439C203.842 263.23 203.01 262.05 202.173 260.875C201.336 259.699 200.467 258.547 199.615 257.383C198.734 256.24 197.87 255.085 196.974 253.954C196.079 252.822 195.178 251.695 194.236 250.598C195.028 251.808 195.859 252.987 196.697 254.163C197.534 255.338 198.402 256.49 199.255 257.655C200.136 258.797 201 259.952 201.896 261.084C202.791 262.214 203.692 263.341 204.634 264.439Z" fill="#016B83"/>
<path opacity="0.1" d="M204.48 260.229C205.155 261.922 205.697 263.715 205.724 265.893C205.453 265.811 205.191 265.721 204.935 265.626C204.728 264.211 204.317 262.948 203.836 261.739C203.138 260.064 202.25 258.53 201.19 257.127C200.132 255.722 198.906 254.443 197.492 253.305C196.241 252.334 194.893 251.436 193.199 250.799C193.114 250.231 193.059 249.642 193.049 249.018C195.128 249.656 196.696 250.678 198.135 251.797C199.549 252.934 200.776 254.213 201.833 255.618C202.895 257.02 203.782 258.553 204.48 260.229Z" fill="#016B83"/>
<path d="M211.044 260.292C211.044 266.116 206.279 270.881 200.455 270.881H81.2526C75.4287 270.881 70.6641 266.116 70.6641 260.292V50.0104C70.6641 44.1865 75.4287 39.4219 81.2526 39.4219H200.455C206.279 39.4219 211.044 44.1865 211.044 50.0104V260.292Z" fill="#016B83"/>
<path d="M168.726 47.875C167.542 52.0343 155.52 55.303 140.854 55.303C126.187 55.303 114.164 52.0343 112.981 47.875H81.252V247.357H200.455V47.875H168.726Z" fill="#C2CEF2"/>
<path d="M185.025 83.5605H96.2313C94.8578 83.5605 93.7344 84.684 93.7344 86.0574V105.981V109.54V117.456L103.689 112.037H185.025C186.398 112.037 187.522 110.914 187.522 109.54V86.0574C187.522 84.6847 186.398 83.5605 185.025 83.5605Z" fill="#B0C1EA"/>
<path d="M179.505 89.4766H101.762V90.3089H179.505V89.4766Z" fill="#D2DDF9"/>
<path d="M179.505 97.7988H101.762V98.6311H179.505V97.7988Z" fill="#D2DDF9"/>
<path d="M157.008 106.119H101.762V106.951H157.008V106.119Z" fill="#D2DDF9"/>
<path d="M102.405 79.9554C107.085 79.9554 110.879 76.1616 110.879 71.4816C110.879 66.8017 107.085 63.0078 102.405 63.0078C97.7255 63.0078 93.9316 66.8017 93.9316 71.4816C93.9316 76.1616 97.7255 79.9554 102.405 79.9554Z" fill="#B0C1EA"/>
<mask id="mask0_12043_112423" style="mask-type:luminance" maskUnits="userSpaceOnUse" x="93" y="63" width="18" height="17">
<path d="M102.403 79.9515C107.083 79.9515 110.877 76.1576 110.877 71.4777C110.877 66.7978 107.083 63.0039 102.403 63.0039C97.7235 63.0039 93.9297 66.7978 93.9297 71.4777C93.9297 76.1576 97.7235 79.9515 102.403 79.9515Z" fill="white"/>
</mask>
<g mask="url(#mask0_12043_112423)">
<path d="M102.403 72.47C103.683 72.47 104.72 71.4326 104.72 70.1529C104.72 68.8733 103.683 67.8359 102.403 67.8359C101.123 67.8359 100.086 68.8733 100.086 70.1529C100.086 71.4326 101.123 72.47 102.403 72.47Z" fill="#D2DDF9"/>
<path d="M102.402 73.332C99.8054 73.332 97.7012 75.4363 97.7012 78.0325C97.7012 80.6287 99.8054 82.7329 102.402 82.7329C104.998 82.7329 107.102 80.6287 107.102 78.0325C107.102 75.4363 104.997 73.332 102.402 73.332Z" fill="#D2DDF9"/>
</g>
<path d="M96.2313 141.814H185.025C186.398 141.814 187.522 142.938 187.522 144.311V164.235V167.794V175.71L177.567 170.291H96.2313C94.8578 170.291 93.7344 169.168 93.7344 167.794V144.311C93.7351 142.938 94.8585 141.814 96.2313 141.814Z" fill="#B0C1EA"/>
<path d="M179.505 147.729H101.762V148.561H179.505V147.729Z" fill="#D2DDF9"/>
<path d="M179.505 156.051H101.762V156.883H179.505V156.051Z" fill="#D2DDF9"/>
<path d="M179.504 164.375H124.258V165.207H179.504V164.375Z" fill="#D2DDF9"/>
<path d="M179.501 137.584C184.181 137.584 187.975 133.79 187.975 129.111C187.975 124.431 184.181 120.637 179.501 120.637C174.821 120.637 171.027 124.431 171.027 129.111C171.027 133.79 174.821 137.584 179.501 137.584Z" fill="#B0C1EA"/>
<mask id="mask1_12043_112423" style="mask-type:luminance" maskUnits="userSpaceOnUse" x="171" y="120" width="17" height="18">
<path d="M179.505 137.578C184.185 137.578 187.979 133.785 187.979 129.105C187.979 124.425 184.185 120.631 179.505 120.631C174.825 120.631 171.031 124.425 171.031 129.105C171.031 133.785 174.825 137.578 179.505 137.578Z" fill="white"/>
</mask>
<g mask="url(#mask1_12043_112423)">
<path d="M179.503 130.097C180.782 130.097 181.82 129.059 181.82 127.78C181.82 126.5 180.782 125.463 179.503 125.463C178.223 125.463 177.186 126.5 177.186 127.78C177.186 129.059 178.223 130.097 179.503 130.097Z" fill="#D2DDF9"/>
<path d="M179.501 130.959C176.905 130.959 174.801 133.063 174.801 135.659C174.801 138.255 176.905 140.36 179.501 140.36C182.097 140.36 184.202 138.256 184.202 135.659C184.202 133.063 182.097 130.959 179.501 130.959Z" fill="#D2DDF9"/>
</g>
<path d="M185.025 201.74H96.2313C94.8578 201.74 93.7344 202.864 93.7344 204.237V224.161V227.72V235.635L103.689 230.217H185.025C186.398 230.217 187.522 229.093 187.522 227.72V204.237C187.522 202.864 186.398 201.74 185.025 201.74Z" fill="#B0C1EA"/>
<path d="M179.505 207.65H101.762V208.483H179.505V207.65Z" fill="#D2DDF9"/>
<path d="M179.505 215.977H101.762V216.809H179.505V215.977Z" fill="#D2DDF9"/>
<path d="M157.008 224.297H101.762V225.129H157.008V224.297Z" fill="#D2DDF9"/>
<path d="M102.405 197.018C107.085 197.018 110.879 193.224 110.879 188.544C110.879 183.864 107.085 180.07 102.405 180.07C97.7255 180.07 93.9316 183.864 93.9316 188.544C93.9316 193.224 97.7255 197.018 102.405 197.018Z" fill="#B0C1EA"/>
<mask id="mask2_12043_112423" style="mask-type:luminance" maskUnits="userSpaceOnUse" x="93" y="180" width="18" height="18">
<path d="M102.403 197.02C107.083 197.02 110.877 193.226 110.877 188.546C110.877 183.866 107.083 180.072 102.403 180.072C97.7235 180.072 93.9297 183.866 93.9297 188.546C93.9297 193.226 97.7235 197.02 102.403 197.02Z" fill="white"/>
</mask>
<g mask="url(#mask2_12043_112423)">
<path d="M102.403 189.538C103.682 189.538 104.72 188.501 104.72 187.221C104.72 185.942 103.682 184.904 102.403 184.904C101.124 184.904 100.086 185.942 100.086 187.221C100.086 188.501 101.123 189.538 102.403 189.538Z" fill="#D2DDF9"/>
<path d="M102.402 190.4C99.8054 190.4 97.7012 192.505 97.7012 195.101C97.7012 197.697 99.8054 199.801 102.402 199.801C104.998 199.801 107.102 197.697 107.102 195.101C107.101 192.505 104.997 190.4 102.402 190.4Z" fill="#D2DDF9"/>
</g>
<path d="M178.942 128.686L167.726 117.469L140.852 144.341L113.979 117.469L102.762 128.686L129.636 155.558L102.762 182.43L113.979 193.646L140.852 166.775L167.726 193.646L178.942 182.43L152.069 155.558L178.942 128.686Z" fill="#016B83"/>
<path d="M270.009 25.959H171.027V100.553H270.009V25.959Z" fill="#F2F2F2"/>
<path d="M264.219 30.6602H176.818V42.5774H264.219V30.6602Z" fill="#D2DDF7"/>
<path d="M261.371 33.3376L260.049 32.0156L256.881 35.1828L253.713 32.0156L252.391 33.3376L255.559 36.5056L252.391 39.6728L253.713 40.9955L256.881 37.8275L260.049 40.9955L261.371 39.6728L258.203 36.5056L261.371 33.3376Z" fill="#F2F2F2"/>
<path d="M220.231 86.8828C220.216 86.8828 220.201 86.8828 220.186 86.8828C213.583 86.853 207.494 85.8692 201.565 83.8739C198.488 82.8572 195.35 81.4665 192.243 79.7422C190.849 78.9413 189.22 77.9709 187.557 76.7646C185.988 75.6718 184.4 74.3521 182.858 72.8562L181.797 71.8268L182.858 70.7974C184.401 69.3015 185.989 67.9818 187.579 66.874C189.221 65.6834 190.851 64.713 192.225 63.9233C195.35 62.1885 198.488 60.7971 201.572 59.7782C207.494 57.7859 213.583 56.8021 220.181 56.7715C220.195 56.7715 220.21 56.7715 220.226 56.7715C226.764 56.7715 232.84 57.7426 238.806 59.7409C241.895 60.7606 245.034 62.1542 248.132 63.8792C249.533 64.6892 251.167 65.6678 252.819 66.8696C254.382 67.9624 255.969 69.2903 257.517 70.7997L258.569 71.826L257.517 72.8524C255.971 74.3618 254.382 75.6897 252.797 76.7989C251.167 77.9858 249.533 78.9637 248.151 79.7631C245.032 81.5001 241.893 82.893 238.8 83.9142C232.842 85.911 226.766 86.8828 220.231 86.8828Z" fill="#016B83"/>
<path d="M227.036 73.1716C222.507 73.1716 218.836 69.5005 218.836 64.9718C218.836 63.8416 219.065 62.7653 219.479 61.7852C214.242 62.1472 210.104 66.4983 210.104 71.8273C210.104 77.3928 214.615 81.9044 220.181 81.9044C225.51 81.9044 229.861 77.7653 230.224 72.5289C229.243 72.9425 228.166 73.1716 227.036 73.1716Z" fill="#FFCF74"/>
<path d="M237.044 53.3266L201.67 88.7012L203.312 90.3437L238.687 54.9692L237.044 53.3266Z" fill="#FFC404"/>
<path d="M79.4859 115.84C60.6774 115.84 45.375 131.141 45.375 149.95C45.375 168.758 60.6766 184.061 79.4859 184.061C98.2944 184.061 113.597 168.758 113.597 149.95C113.597 131.141 98.2951 115.84 79.4859 115.84Z" fill="#FFCF74"/>
<path d="M79.4832 126.369C66.4799 126.369 55.9004 136.948 55.9004 149.951C55.9004 162.955 66.4792 173.534 79.4832 173.534C92.4873 173.534 103.066 162.955 103.066 149.951C103.067 136.948 92.4873 126.369 79.4832 126.369ZM79.4832 130.816C83.9597 130.816 88.078 132.365 91.3407 134.949L64.4809 161.809C61.8967 158.546 60.3478 154.427 60.3478 149.951C60.3478 139.4 68.9321 130.816 79.4832 130.816ZM79.4832 169.087C75.0067 169.087 70.8885 167.539 67.625 164.954L94.4855 138.093C97.0705 141.356 98.6194 145.475 98.6194 149.951C98.6194 160.503 90.0352 169.087 79.4832 169.087Z" fill="white"/>
<path d="M74.0271 83.6227H70.7651C70.6867 83.2785 70.6039 82.9367 70.5023 82.6015L73.3247 80.9847C74.7721 80.1554 75.2782 78.293 74.4489 76.8456L74.1077 76.2499C73.2784 74.8025 71.416 74.2964 69.9686 75.1257L67.1321 76.7508C66.8596 76.4559 66.5767 76.173 66.2819 75.9005L67.9069 73.0633C68.7362 71.6159 68.2301 69.7535 66.7827 68.9249L66.1871 68.5838C64.7397 67.7545 62.8773 68.2606 62.0487 69.7079L60.4319 72.5303C60.0975 72.4288 59.7548 72.3467 59.4115 72.2675V69.0055C59.4115 67.3379 58.0469 65.9727 56.3786 65.9727H55.6919C54.0243 65.9727 52.659 67.3372 52.659 69.0055V72.2675C52.3149 72.3459 51.973 72.4288 51.6379 72.5303L50.021 69.7079C49.1917 68.2606 47.3293 67.7545 45.8827 68.5838L45.2863 68.9249C43.8389 69.7542 43.3328 71.6166 44.1621 73.0633L45.7871 75.9005C45.4923 76.173 45.2094 76.4559 44.9369 76.7508L42.0996 75.1257C40.6522 74.2964 38.7898 74.8025 37.9613 76.2499L37.6201 76.8456C36.7908 78.293 37.2969 80.1554 38.7443 80.9847L41.5674 82.6015C41.4659 82.9359 41.383 83.2785 41.3046 83.6219H38.0426C36.375 83.6219 35.0098 84.9864 35.0098 86.6548V87.3415C35.0098 89.0091 36.3743 90.3744 38.0426 90.3744H41.3046C41.383 90.7185 41.4659 91.0604 41.5674 91.3955L38.7443 93.0124C37.2969 93.8417 36.7908 95.7041 37.6201 97.1515L37.9613 97.7471C38.7906 99.1945 40.653 99.7006 42.0996 98.8713L44.9369 97.2463C45.2094 97.5411 45.4923 97.824 45.7871 98.0965L44.1621 100.934C43.3328 102.381 43.8389 104.244 45.2863 105.073L45.8827 105.414C47.33 106.243 49.1925 105.737 50.021 104.29L51.6379 101.467C51.9723 101.568 52.3149 101.65 52.659 101.729V104.992C52.659 106.659 54.0235 108.024 55.6919 108.024H56.3786C58.0462 108.024 59.4115 106.66 59.4115 104.992V101.729C59.7556 101.651 60.0975 101.568 60.4319 101.467L62.0487 104.29C62.878 105.737 64.7404 106.243 66.1871 105.414L66.7827 105.073C68.2301 104.244 68.7362 102.381 67.9069 100.934L66.2819 98.0965C66.5767 97.824 66.8596 97.5411 67.1321 97.2463L69.9694 98.8713C71.4168 99.7006 73.2792 99.1945 74.1085 97.7471L74.4496 97.1515C75.2789 95.7041 74.7728 93.8417 73.3255 93.0124L70.5023 91.3955C70.6039 91.0611 70.6867 90.7185 70.7651 90.3744H74.0271C75.6947 90.3744 77.06 89.0099 77.06 87.3415V86.6548C77.0592 84.9872 75.6947 83.6227 74.0271 83.6227ZM56.0345 97.4075C50.286 97.4075 45.6251 92.7474 45.6251 86.9981C45.6251 81.2497 50.2853 76.5895 56.0345 76.5895C61.783 76.5895 66.4438 81.2497 66.4438 86.9981C66.4431 92.7474 61.783 97.4075 56.0345 97.4075Z" fill="#EF9A07"/>
<path d="M49.2728 47.835L47.1178 48.3247C47.0141 48.109 46.9088 47.8955 46.7909 47.6895L48.4129 46.1973C49.2445 45.4322 49.2997 44.1259 48.5346 43.2943L48.2196 42.9517C47.4545 42.1202 46.1482 42.0649 45.3166 42.83L43.6863 44.3297C43.4624 44.1759 43.2325 44.0311 42.9974 43.896L43.6453 41.7775C43.976 40.6967 43.3624 39.5419 42.2815 39.212L41.8366 39.0761C40.7558 38.7454 39.6017 39.359 39.2711 40.4399L38.6261 42.5479C38.3902 42.5307 38.1514 42.5277 37.9125 42.5277L37.4228 40.3727C37.1728 39.2709 36.0658 38.5737 34.964 38.8245L34.5101 38.9276C33.4084 39.1776 32.7112 40.2846 32.962 41.3864L33.4517 43.5414C33.2359 43.6452 33.0224 43.7512 32.8164 43.8684L31.3243 42.2463C30.5591 41.4147 29.2528 41.3595 28.4213 42.1246L28.0787 42.4396C27.2471 43.2048 27.1919 44.5111 27.957 45.3426L29.4566 46.9729C29.3029 47.1968 29.158 47.4267 29.0229 47.6619L26.9045 47.0139C25.8236 46.6832 24.6696 47.2976 24.3389 48.3777L24.203 48.8226C23.8724 49.9035 24.486 51.0582 25.5668 51.3882L27.6748 52.0331C27.6577 52.269 27.6547 52.5079 27.6547 52.7467L25.4996 53.2364C24.3979 53.4865 23.7007 54.5935 23.9515 55.6952L24.0545 56.1491C24.3046 57.2509 25.4116 57.948 26.5133 57.6972L28.6684 57.2076C28.7721 57.4233 28.8774 57.6368 28.9953 57.8428L27.3733 59.335C26.5417 60.1001 26.4865 61.4064 27.2516 62.2379L27.5666 62.5806C28.3317 63.4121 29.638 63.4674 30.4696 62.7022L32.0998 61.2026C32.3238 61.3564 32.5537 61.5012 32.7888 61.6363L32.1409 63.7547C31.8102 64.8356 32.4238 65.9904 33.5047 66.3203L33.9495 66.4562C35.0304 66.7869 36.1844 66.1733 36.5151 65.0924L37.1601 62.9844C37.3959 63.0016 37.6348 63.0045 37.8737 63.0045L38.3634 65.1596C38.6134 66.2614 39.7204 66.9585 40.8222 66.7077L41.276 66.6047C42.3778 66.3547 43.075 65.2477 42.8242 64.1459L42.3345 61.9909C42.5502 61.8871 42.7637 61.7811 42.9697 61.6639L44.4619 63.286C45.227 64.1175 46.5333 64.1728 47.3649 63.4076L47.7075 63.0926C48.5391 62.3275 48.5943 61.0212 47.8292 60.1897L46.3296 58.5594C46.4833 58.3355 46.6281 58.1056 46.7632 57.8704L48.8817 58.5183C49.9626 58.849 51.1166 58.2354 51.4473 57.1546L51.5831 56.7097C51.9138 55.6288 51.3002 54.474 50.2193 54.1441L48.1113 53.4992C48.1285 53.2633 48.1315 53.0244 48.1315 52.7855L50.2865 52.2959C51.3883 52.0458 52.0855 50.9388 51.8347 49.837L51.7317 49.3832C51.4809 48.2814 50.3746 47.585 49.2728 47.835ZM39.4539 59.6433C35.656 60.5062 31.8774 58.1264 31.0145 54.3285C30.1516 50.5305 32.5313 46.7519 36.3293 45.889C40.1272 45.0261 43.9058 47.4058 44.7687 51.2038C45.6316 55.0018 43.2519 58.7804 39.4539 59.6433Z" fill="#FFC404"/>
<path d="M246.61 103.579L244.492 104.06C244.391 103.848 244.286 103.638 244.171 103.436L245.765 101.97C246.582 101.218 246.636 99.9348 245.884 99.1174L245.574 98.7808C244.823 97.9634 243.54 97.9096 242.722 98.6613L241.12 100.134C240.9 99.9833 240.675 99.8407 240.443 99.7079L241.08 97.6267C241.405 96.5653 240.802 95.4307 239.74 95.106L239.303 94.9723C238.241 94.6476 237.107 95.2508 236.782 96.3122L236.149 98.3829C235.917 98.3665 235.682 98.3635 235.447 98.3627L234.967 96.245C234.721 95.1627 233.633 94.4782 232.551 94.7238L232.105 94.8253C231.023 95.0709 230.339 96.1584 230.584 97.2408L231.065 99.3585C230.853 99.46 230.643 99.5638 230.441 99.6795L228.975 98.0858C228.223 97.2684 226.94 97.2147 226.123 97.9664L225.786 98.2762C224.968 99.0278 224.915 100.311 225.666 101.128L227.14 102.73C226.989 102.95 226.847 103.176 226.714 103.407L224.633 102.771C223.571 102.446 222.437 103.049 222.112 104.11L221.978 104.548C221.653 105.609 222.257 106.744 223.318 107.069L225.389 107.702C225.372 107.934 225.369 108.168 225.369 108.403L223.251 108.884C222.169 109.13 221.484 110.217 221.73 111.3L221.831 111.745C222.077 112.828 223.164 113.512 224.247 113.267L226.364 112.785C226.466 112.997 226.57 113.207 226.685 113.409L225.092 114.875C224.274 115.627 224.221 116.91 224.972 117.727L225.282 118.064C226.034 118.881 227.317 118.935 228.134 118.183L229.736 116.71C229.956 116.861 230.182 117.003 230.413 117.136L229.776 119.217C229.452 120.279 230.055 121.413 231.116 121.738L231.554 121.872C232.615 122.196 233.75 121.593 234.075 120.532L234.708 118.461C234.94 118.478 235.174 118.481 235.408 118.481L235.889 120.599C236.135 121.681 237.222 122.366 238.305 122.12L238.75 122.019C239.833 121.773 240.517 120.686 240.272 119.603L239.791 117.485C240.002 117.384 240.213 117.279 240.415 117.165L241.881 118.758C242.633 119.576 243.916 119.629 244.733 118.878L245.07 118.568C245.887 117.816 245.941 116.533 245.189 115.716L243.717 114.114C243.867 113.894 244.01 113.668 244.143 113.437L246.224 114.073C247.285 114.398 248.42 113.795 248.745 112.734L248.878 112.296C249.203 111.235 248.6 110.1 247.538 109.775L245.468 109.142C245.484 108.91 245.487 108.676 245.488 108.441L247.606 107.96C248.688 107.714 249.372 106.627 249.127 105.544L249.025 105.099C248.78 104.017 247.693 103.333 246.61 103.579ZM236.964 115.18C233.233 116.028 229.52 113.69 228.673 109.958C227.825 106.227 230.163 102.515 233.895 101.667C237.626 100.819 241.338 103.157 242.186 106.889C243.033 110.62 240.696 114.332 236.964 115.18Z" fill="#FFC404"/>
<path d="M243.605 270.881H142.557V276.63H243.605V270.881Z" fill="#FFCF74"/>
<path d="M233.907 270.881H152.254L187.548 183.85H198.613L233.907 270.881Z" fill="#EF9A07"/>
<mask id="mask3_12043_112423" style="mask-type:luminance" maskUnits="userSpaceOnUse" x="152" y="183" width="82" height="88">
<path d="M233.913 270.879H152.26L187.554 183.848H198.619L233.913 270.879Z" fill="white"/>
</mask>
<g mask="url(#mask3_12043_112423)">
<path d="M248.675 238.896H137.494V259.758H248.675V238.896Z" fill="#FFCF74"/>
<path d="M248.675 197.426H137.494V218.288H248.675V197.426Z" fill="#FFCF74"/>
</g>
<path opacity="0.1" d="M206.172 214.984C212.747 234.969 213.348 254.836 209.02 270.881H233.906L198.611 183.85H190.18C196.746 192.632 202.286 203.172 206.172 214.984Z" fill="#016B83"/>
<g opacity="0.3">
<path d="M186.015 201.305C183.725 207.326 181.436 213.347 179.147 219.368C175.494 228.976 171.841 238.584 168.188 248.193C167.344 250.414 166.499 252.635 165.654 254.856C164.897 256.849 168.094 257.71 168.845 255.736C171.134 249.715 173.423 243.694 175.712 237.673C179.365 228.065 183.018 218.456 186.672 208.848C187.516 206.626 188.361 204.406 189.205 202.184C189.963 200.192 186.766 199.33 186.015 201.305Z" fill="white"/>
</g>
<path d="M99.9782 273.277H40.9551V276.636H99.9782V273.277Z" fill="#FFCF74"/>
<path d="M94.316 273.277H46.6211L67.2368 222.441H73.7004L94.316 273.277Z" fill="#EF9A07"/>
<mask id="mask4_12043_112423" style="mask-type:luminance" maskUnits="userSpaceOnUse" x="46" y="222" width="49" height="52">
<path d="M94.3199 273.283H46.625L67.2407 222.447H73.7043L94.3199 273.283Z" fill="white"/>
</mask>
<g mask="url(#mask4_12043_112423)">
<path d="M102.94 254.596H37.998V266.781H102.94V254.596Z" fill="#FFCF74"/>
<path d="M102.94 230.375H37.998V242.56H102.94V230.375Z" fill="#FFCF74"/>
</g>
<path opacity="0.1" d="M78.1139 240.627C81.9544 252.301 82.3052 263.905 79.7777 273.277H94.3142L73.6986 222.441H68.7734C72.6072 227.572 75.8439 233.728 78.1139 240.627Z" fill="#016B83"/>
<g opacity="0.3">
<path d="M66.3427 232.631C65.0058 236.148 63.6682 239.665 62.3313 243.181C60.1971 248.794 58.0638 254.406 55.9297 260.019C55.4362 261.316 54.9428 262.613 54.4502 263.911C54.0075 265.074 55.8752 265.577 56.3141 264.424C57.651 260.908 58.9886 257.39 60.3255 253.874C62.4597 248.261 64.593 242.649 66.7272 237.037C67.2206 235.739 67.714 234.442 68.2074 233.145C68.6493 231.982 66.7817 231.478 66.3427 232.631Z" fill="white"/>
</g>
<path d="M234.07 140.387H228.443V134.76H226.439V140.387H220.812V142.39H226.439V148.017H228.443V142.39H234.07V140.387Z" fill="#CAD2F9"/>
<path d="M268.355 197.132H263.425V192.201H261.671V197.132H256.74V198.886H261.671V203.816H263.425V198.886H268.355V197.132Z" fill="#CAD2F9"/>
<path d="M271.834 156.258H269.019V153.443H268.017V156.258H265.203V157.26H268.017V160.075H269.019V157.26H271.834V156.258Z" fill="#CAD2F9"/>
<path d="M155.19 16.0493H152.375V13.2344H151.373V16.0493H148.559V17.051H151.373V19.8652H152.375V17.051H155.19V16.0493Z" fill="#CAD2F9"/>
<path d="M177.654 5.62754H172.027V0H170.023V5.62754H164.396V7.6303H170.023V13.2571H172.027V7.6303H177.654V5.62754Z" fill="#CAD2F9"/>
<path d="M34.6911 129.086H29.7607V124.156H28.0065V129.086H23.0762V130.841H28.0065V135.77H29.7607V130.841H34.6911V129.086Z" fill="#CAD2F9"/>
<path d="M15.0358 85.6891H12.2209V82.875H11.2184V85.6891H8.4043V86.6909H11.2184V89.5058H12.2209V86.6909H15.0358V85.6891Z" fill="#CAD2F9"/>
<path d="M11.7194 204.562H8.90453V201.748H7.90278V204.562H5.08789V205.564H7.90278V208.379H8.90453V205.564H11.7194V204.562Z" fill="#CAD2F9"/>
<path d="M69.9469 27.3288H65.0166V22.3984H63.2616V27.3288H58.332V29.0837H63.2616V34.0133H65.0166V29.0837H69.9469V27.3288Z" fill="#CAD2F9"/>
<path d="M125.813 22.6309C125.813 23.4915 125.115 24.1895 124.254 24.1895C123.393 24.1895 122.695 23.4915 122.695 22.6309C122.695 21.7702 123.393 21.0723 124.254 21.0723C125.115 21.073 125.813 21.7702 125.813 22.6309Z" fill="#E2E6FF"/>
<path d="M265.206 137.377C265.206 139.008 263.884 140.329 262.254 140.329C260.624 140.329 259.303 139.008 259.303 137.377C259.303 135.747 260.624 134.426 262.254 134.426C263.884 134.427 265.206 135.748 265.206 137.377Z" fill="#E2E6FF"/>
<path d="M3.11721 126.371C3.11721 127.232 2.41927 127.93 1.55861 127.93C0.697939 127.93 0 127.232 0 126.371C0 125.51 0.697939 124.812 1.55861 124.812C2.42002 124.812 3.11721 125.51 3.11721 126.371Z" fill="#E2E6FF"/>
<path d="M93.8698 8.62532C93.8698 10.2548 92.5486 11.5768 90.9183 11.5768C89.288 11.5768 87.9668 10.2556 87.9668 8.62532C87.9668 6.99505 89.288 5.67383 90.9183 5.67383C92.5486 5.67383 93.8698 6.99505 93.8698 8.62532Z" fill="#E2E6FF"/>
<path d="M6.64651 49.084C6.64651 49.9447 5.94857 50.6426 5.0879 50.6426C4.22724 50.6426 3.5293 49.9447 3.5293 49.084C3.5293 48.2233 4.22724 47.5254 5.0879 47.5254C5.94857 47.5254 6.64651 48.2233 6.64651 49.084Z" fill="#E2E6FF"/>
<path d="M14.6686 251.434C14.6686 253.064 13.3474 254.385 11.7171 254.385C10.0876 254.385 8.76562 253.064 8.76562 251.434C8.76562 249.804 10.0869 248.482 11.7171 248.482C13.3474 248.482 14.6686 249.804 14.6686 251.434Z" fill="#E2E6FF"/>
<path d="M225.936 168.379C225.936 169.24 225.238 169.938 224.377 169.938C223.516 169.938 222.818 169.24 222.818 168.379C222.818 167.518 223.516 166.82 224.377 166.82C225.238 166.82 225.936 167.518 225.936 168.379Z" fill="#E2E6FF"/>
<path d="M229 5.67384C229 6.53451 228.302 7.23244 227.441 7.23244C226.581 7.23244 225.883 6.53451 225.883 5.67384C225.883 4.81318 226.581 4.11523 227.441 4.11523C228.303 4.11523 229 4.81318 229 5.67384Z" fill="#E2E6FF"/>
<path d="M23.8542 158.768C23.8542 160.398 22.5329 161.719 20.9027 161.719C19.2724 161.719 17.9512 160.398 17.9512 158.768C17.9512 157.138 19.2724 155.816 20.9027 155.816C22.5329 155.816 23.8542 157.138 23.8542 158.768Z" fill="#E2E6FF"/>
<path d="M105.101 34.7679C104.756 35.2972 104.751 35.6032 104.77 35.657C104.799 35.6906 105.058 35.8548 105.69 35.8548H137.291C137.923 35.8548 138.182 35.6906 138.217 35.6465C138.229 35.604 138.224 35.2964 137.879 34.7679L122.488 11.1858C122.178 10.7126 121.806 10.4297 121.491 10.4297C121.176 10.4297 120.804 10.7126 120.494 11.1866L105.101 34.7679Z" fill="#FFCF74"/>
<path d="M137.291 39.1929H105.689C103.907 39.1929 102.5 38.4808 101.828 37.2394C101.155 35.998 101.328 34.4305 102.303 32.9383L117.695 9.3562C118.638 7.91255 120.021 7.08398 121.49 7.08398C122.959 7.08398 124.343 7.91181 125.285 9.35546L140.678 32.9383C141.651 34.4305 141.825 35.998 141.153 37.2394C140.479 38.4808 139.072 39.1929 137.291 39.1929ZM105.101 34.7649C104.756 35.2941 104.751 35.6002 104.77 35.6539C104.799 35.6875 105.058 35.8517 105.69 35.8517H137.291C137.923 35.8517 138.182 35.6875 138.217 35.6435C138.229 35.6009 138.224 35.2934 137.879 34.7649L122.488 11.1828C122.179 10.7095 121.806 10.4266 121.491 10.4266C121.176 10.4266 120.804 10.7095 120.494 11.1835L105.101 34.7649Z" fill="#EF9A07"/>
<path d="M120.603 32.2887C120.367 32.0536 120.25 31.7632 120.25 31.4176C120.25 31.072 120.367 30.7816 120.603 30.5464C120.838 30.3113 121.128 30.1934 121.474 30.1934C121.819 30.1934 122.113 30.3113 122.355 30.5464C122.596 30.7816 122.718 31.072 122.718 31.4176C122.718 31.7632 122.596 32.0536 122.355 32.2887C122.113 32.5238 121.819 32.641 121.474 32.641C121.128 32.641 120.838 32.5231 120.603 32.2887ZM119.877 17.832H123.112L122.511 28.1817H120.478L119.877 17.832Z" fill="white"/>
</svg>
