<svg width="156" height="156" viewBox="0 0 156 156" fill="none" xmlns="http://www.w3.org/2000/svg">
<path d="M124.622 47.6528C123.609 44.3308 122.2 41.0848 120.185 38.2398C118.149 35.3638 115.754 32.8298 113.096 30.5208C102.465 21.2718 87.8161 17.6848 73.9651 18.6368C67.6801 19.0748 61.3891 20.5098 55.6661 23.1928C52.8321 24.5208 50.2721 26.1978 47.9301 28.2718C45.7791 30.1768 43.3531 32.5258 42.3611 35.2758C42.1991 35.7268 42.7511 36.0918 43.1161 35.7958C44.3841 34.7828 45.4611 33.5398 46.6661 32.4408C47.8791 31.3338 49.1841 30.3238 50.5521 29.4078C53.1851 27.6448 56.1121 26.1558 59.0511 24.9698C70.9391 20.1718 85.0821 20.2868 97.0741 24.6318C102.885 26.7408 108.283 29.9578 112.921 34.0358C115.111 35.9618 117.158 38.1208 118.957 40.4088C120.84 42.8078 122.719 45.1378 124.285 47.7668C124.379 47.9328 124.685 47.8678 124.622 47.6528Z" fill="#12486B"/>
<path d="M115.823 28.6951C114.529 26.8141 113.207 25.0301 111.356 23.6451C109.541 22.2771 107.549 21.1101 105.542 20.0481C98.1404 16.1171 89.9034 13.4041 81.5484 12.5731C77.5554 12.1721 73.3124 12.2771 69.3944 13.1641C67.4964 13.5961 65.6384 14.1211 63.8034 14.7601C61.9844 15.3851 60.1024 16.0681 58.5474 17.2071C58.3424 17.3531 58.5194 17.6881 58.7484 17.6421C60.8884 17.2021 62.9364 16.4081 65.0894 15.9991C67.1654 15.6151 69.2484 15.5041 71.3514 15.3101C95.9124 13.0331 113.691 28.2141 115.427 29.1311C115.72 29.2861 116.017 28.9861 115.823 28.6951Z" fill="#12486B"/>
<path d="M30.8137 106.504C35.8187 109.728 41.7347 107.366 45.6567 103.579C49.7387 99.6436 52.5197 94.4836 54.6597 89.2936C56.6077 84.5456 58.0617 79.6026 59.6107 74.7096C61.1517 69.8246 62.5627 64.7126 65.1287 60.2346C67.5607 55.9836 71.3427 52.7926 76.0817 51.4256C81.1587 49.9646 86.5407 50.6366 91.3137 52.7976C93.7997 53.9256 96.1547 55.4686 98.0477 57.4446C99.8687 59.3416 101.124 61.6276 102.099 64.0556C104.205 69.3366 105.271 74.9566 106.547 80.4686C107.6 85.0306 109.774 89.1376 114.052 91.3906C117.692 93.3116 122.165 93.8916 125.866 91.8216C126.108 91.6846 125.995 91.2926 125.705 91.3436C121.077 92.1056 116.066 91.0326 112.597 87.7406C110.659 85.9046 109.627 83.5566 108.945 81.0166C108.141 78.0016 107.544 74.9236 106.725 71.9086C105.366 66.8976 104.011 61.4346 100.737 57.2776C97.5757 53.2556 92.6947 50.3566 87.8067 48.9966C82.9117 47.6286 77.7387 47.7626 72.9917 49.6426C68.1677 51.5556 64.5857 55.1886 62.1887 59.7446C57.4607 68.7466 55.9437 79.0086 52.3007 88.4296C50.5277 93.0216 48.2297 97.5526 44.9247 101.24C41.5947 104.955 36.2447 107.721 31.2627 105.646C30.7487 105.428 30.3557 106.205 30.8137 106.504Z" fill="#12486B"/>
<path d="M29.7264 90.7418C32.0264 91.0508 34.1364 89.3178 35.2074 87.4248C36.7154 84.7728 37.7184 81.7128 38.5324 78.7788C40.2554 72.5978 41.9464 66.4378 44.5074 60.5248C48.5434 51.2108 54.7434 42.2278 63.7074 37.0698C72.6874 31.9048 83.5975 30.7648 93.3615 34.3448C97.9375 36.0188 102.215 38.6408 105.738 42.0198C109.448 45.5758 112.281 49.9108 114.423 54.5668C116.652 59.4168 118.051 64.5128 119.517 69.6208C120.106 71.6718 120.934 74.1588 122.922 75.2728C124.442 76.1248 126.509 76.0278 127.628 74.5908C127.734 74.4608 127.553 74.3218 127.435 74.4058C126.281 75.2818 124.823 74.9018 123.738 74.1048C122.587 73.2598 122.093 71.9018 121.765 70.5528C121.097 67.7878 120.558 65.0078 119.791 62.2588C118.237 56.7088 116.049 51.3018 112.875 46.4708C107.496 38.3018 98.8544 32.4778 89.3194 30.3908C79.2034 28.1798 68.3204 30.2648 59.7564 36.0738C51.1214 41.9308 45.2664 50.9648 41.3984 60.4928C39.2954 65.6918 37.8014 71.0708 36.3654 76.4838C35.6384 79.2118 34.9634 81.9658 33.9324 84.5938C33.4714 85.7598 32.9444 86.8838 32.3294 87.9728C31.7814 88.9528 30.9874 89.7438 29.8064 89.7948C29.2064 89.8198 29.1044 90.6598 29.7264 90.7418Z" fill="#12486B"/>
<path d="M32.5163 110.823C32.4873 111.055 32.6343 111.26 32.8653 111.312C33.7743 111.516 34.5903 111.64 35.3423 111.684C35.7333 111.707 36.1033 111.706 36.4593 111.689C40.8673 111.465 45.4463 108.963 50.0723 104.26C53.9193 100.349 57.1113 95.7644 59.5653 90.6314C61.6243 86.3124 62.7883 81.6774 63.9043 77.2044C64.2293 75.9174 64.5543 74.6224 64.8943 73.3364C65.9883 69.2404 67.9653 63.3684 72.4373 59.6154C75.4553 57.0824 79.2653 56.1214 83.4443 56.8354C89.1113 57.8034 94.9493 61.8844 97.9783 66.9934C100.499 71.2494 101.379 76.0584 100.52 80.9004C99.4543 86.9534 95.9873 91.7184 93.2633 94.6464C89.9023 98.2614 85.5303 101.334 79.9053 104.023C77.7843 105.038 74.9813 106.346 72.0943 107.414C71.5463 107.616 70.9913 107.817 70.4433 108.019C68.3523 108.787 66.1913 109.574 64.1143 110.478C63.8273 110.604 63.6953 110.922 63.7903 111.229C63.8933 111.537 64.1843 111.713 64.4903 111.648C65.9353 111.34 67.3713 110.941 68.7003 110.552C78.3473 107.775 90.3673 103.295 97.6903 93.1854C100.114 89.8474 103.033 84.5144 103.209 78.0464C103.351 73.0714 101.815 68.2464 98.7683 64.0734C94.9603 58.8584 88.9133 55.1044 82.9753 54.2724C78.5343 53.6414 74.4033 54.6894 71.0553 57.3014C67.3603 60.1724 64.6373 64.7384 62.7433 71.2644C62.2313 73.0464 61.7693 74.8614 61.3183 76.6174C60.2503 80.7754 59.1523 85.0754 57.3093 89.0664C54.9113 94.2784 51.4993 99.1374 47.4593 103.12C44.1083 106.426 38.8863 110.355 33.0193 110.357C32.7623 110.354 32.5463 110.56 32.5163 110.823Z" fill="#12486B"/>
<path d="M30.6333 96.4949C33.1833 97.1659 35.7633 96.3139 37.7763 94.6949C39.9713 92.9439 41.1013 90.0349 42.0003 87.4609C44.0913 81.4379 45.7083 75.2579 47.7843 69.2339C51.0183 59.8269 55.7423 50.2509 64.2543 44.5679C71.7673 39.5579 81.6863 37.9369 90.3723 40.4719C95.2053 41.8809 99.6813 44.4699 103.135 48.1399C106.425 51.6409 108.804 55.8579 110.644 60.2629C111.577 62.4999 112.379 64.7819 113.089 67.0969C113.822 69.5189 114.424 72.0009 115.403 74.3459C117.043 78.2929 121.175 83.0219 125.933 81.0739C126.297 80.9219 126.172 80.3559 125.796 80.3259C123.135 80.1239 120.656 78.6269 119.13 76.4599C117.443 74.0799 116.785 71.1349 116.019 68.3709C114.592 63.2429 112.762 58.1439 110.097 53.5249C107.733 49.4289 104.705 45.7169 100.891 42.9029C96.8453 39.9239 92.0653 38.0039 87.1243 37.1619C78.0783 35.6259 68.3963 37.9629 61.0513 43.4499C52.8143 49.5949 48.1313 59.2409 44.9143 68.7469C43.1053 74.0849 41.7043 79.5369 40.0513 84.9209C38.7903 89.0219 36.5553 95.9509 30.9633 95.0099C30.1093 94.8709 29.8073 96.2799 30.6333 96.4949Z" fill="#12486B"/>
<path d="M30.183 100.417C30.834 101.158 31.652 101.764 32.532 102.209C34.365 103.132 37.0561 102.83 38.8971 102.085C41.1941 101.155 42.996 99.2831 44.347 97.2411C45.815 95.0091 46.8901 92.5281 47.9101 90.0661C49.0551 87.2941 50.0531 84.4461 51.0351 81.6041C53.0021 75.8981 54.828 70.1391 56.987 64.4971C58.904 59.5051 61.299 54.7311 65.312 51.0861C72.619 44.4411 83.1541 42.5011 92.2831 46.3381C96.8811 48.2701 100.829 51.4921 103.543 55.6761C106.506 60.2451 107.906 65.5751 109.231 70.7871C110.407 75.4321 111.359 80.4341 114.324 84.3311C116.798 87.5801 122.061 90.1471 125.53 86.7651C125.683 86.6081 125.526 86.3271 125.308 86.4351C122.827 87.6711 119.916 86.8281 117.848 85.1501C115.851 83.5451 114.618 81.2751 113.706 78.9261C111.655 73.6181 110.844 67.9001 108.971 62.5191C107.31 57.7621 104.861 53.3141 101.146 49.8491C97.674 46.6091 93.486 44.1351 88.892 42.8991C79.6 40.4041 69.1311 43.1631 62.3181 50.0041C58.5061 53.8271 56.115 58.6621 54.191 63.6531C52.088 69.1171 50.39 74.7401 48.486 80.2841C47.511 83.1261 46.4761 85.9501 45.3831 88.7551C44.4511 91.1241 43.5661 93.5791 42.2301 95.7581C40.9681 97.8361 39.351 99.5151 37.083 100.454C35.094 101.281 32.48 101.172 30.805 99.7371C30.395 99.3881 29.843 100.035 30.183 100.417Z" fill="#12486B"/>
<path d="M126.757 71.5546C126.811 70.2516 126.842 68.9546 126.737 67.6576C125.901 57.1056 120.91 46.7086 113.705 39.0286C106.813 31.6766 97.7802 26.5846 87.7932 25.0076C78.1052 23.4786 67.9452 25.0936 59.1362 29.4076C50.2422 33.7546 43.0922 40.8016 38.3102 49.4376C33.5462 58.0296 31.1712 67.7136 32.0202 77.5416C32.0382 77.7466 32.3572 77.7126 32.3682 77.5246C33.1092 67.1176 36.3262 56.5776 42.3002 47.9586C47.5882 40.3416 54.8652 34.2226 63.4892 30.7436C71.9342 27.3446 81.5452 26.3466 90.4352 28.4786C99.7502 30.7106 107.962 36.1466 113.983 43.5466C117.187 47.4806 119.749 51.9276 121.64 56.6296C123.576 61.4556 124.794 66.5406 125.97 71.5936C126.073 72.0126 126.73 72.0056 126.757 71.5546Z" fill="#12486B"/>
<path d="M111.485 107.633C112.59 106.007 114.95 107.437 116.165 108.121C118.001 109.154 119.966 110.492 122.185 110.145C122.355 110.118 122.418 110.34 122.276 110.423C120.844 111.251 119.167 111.04 117.679 110.476C116.888 110.176 116.147 109.781 115.394 109.4C114.696 109.047 113.941 108.616 113.169 108.46C113.029 108.432 112.876 108.406 112.734 108.422C112.583 108.439 112.63 108.435 112.61 108.472C112.469 108.735 112.692 109.279 112.763 109.54C112.949 110.216 113.217 110.87 113.54 111.492C114.208 112.778 115.133 113.917 116.146 114.947C116.73 115.541 117.347 116.107 117.998 116.628C118.658 117.156 119.436 117.562 120.067 118.115C120.261 118.285 120.113 118.569 119.861 118.508C119.109 118.325 118.365 117.846 117.699 117.46C116.982 117.045 116.289 116.589 115.651 116.06C114.383 115.009 113.316 113.757 112.502 112.324C112.097 111.612 111.772 110.862 111.52 110.082C111.268 109.306 110.982 108.374 111.485 107.633Z" fill="#12486B"/>
<path d="M114.836 110.766C116.042 111.289 117.133 112.048 118.149 112.871C118.597 113.234 119.058 113.592 119.531 113.922C119.76 114.082 120.002 114.224 120.243 114.366C120.486 114.509 120.75 114.586 121.004 114.704C121.216 114.802 121.199 115.099 120.966 115.157C119.776 115.454 118.525 114.672 117.629 113.99C116.52 113.145 115.455 112.196 114.627 111.066C114.524 110.925 114.65 110.686 114.836 110.766Z" fill="#12486B"/>
<path d="M36.6701 114.399C36.6691 114.421 36.6671 114.452 36.6731 114.475C36.6931 114.642 36.8141 114.778 36.9781 114.81C37.2751 114.888 37.5751 114.928 37.8761 114.946C38.8921 115.006 39.9461 114.796 41.0101 114.549C42.3571 114.236 43.7451 113.751 45.1421 113.101C47.4471 112.044 49.7751 110.467 52.2661 108.288C59.5181 101.949 64.6171 92.9168 67.4301 81.4308C67.6111 80.6708 67.7921 79.9038 67.9731 79.1368C68.9341 74.9948 69.9261 70.7118 72.2751 67.1048C73.5451 65.1638 75.2011 63.5768 77.0751 62.5318C79.1601 61.3628 81.1851 61.2108 83.6211 61.1278C83.8781 61.1208 84.0921 60.9518 84.1441 60.7128C84.1961 60.4668 84.0741 60.2328 83.8391 60.1138C81.2491 58.8368 78.0301 60.0358 76.7651 60.6108C74.6551 61.5738 72.6811 63.1568 71.0441 65.1818C68.0541 68.8948 66.9291 73.6528 65.8431 78.2478L65.5711 79.4018C64.1201 85.4478 62.4281 90.2178 60.2541 94.4318C57.8521 99.0698 54.5111 103.366 50.5991 106.844C48.4241 108.777 46.3601 110.234 44.2741 111.297C43.1691 111.859 41.9771 112.355 40.6361 112.805C40.2201 112.947 39.7901 113.065 39.3531 113.183C38.5321 113.406 37.6731 113.635 36.9021 114.036C36.7701 114.103 36.6781 114.248 36.6701 114.399Z" fill="#12486B"/>
<path d="M61.7517 108.767C61.7427 108.918 61.8167 109.073 61.9557 109.156C62.0207 109.198 62.0877 109.224 62.1557 109.228C62.2987 109.237 62.4387 109.169 62.5297 109.039C63.2367 107.94 64.5747 107.257 65.8717 106.653C67.0447 106.103 68.2727 105.624 69.4627 105.165L70.0117 104.948C73.2807 103.668 75.9377 102.526 78.3777 101.355C89.1937 96.1703 95.6527 89.4443 97.5767 81.3803C98.6507 76.8523 98.1267 72.4193 96.0587 68.5603C93.9217 64.5763 90.5807 61.8203 86.6617 60.8043C86.4167 60.7373 86.1517 60.8723 86.0547 61.1083C85.9587 61.3293 86.0427 61.5683 86.2467 61.6933C90.2657 64.1043 93.4067 67.6943 94.8637 71.5403C97.0597 77.3323 95.9957 86.8143 85.7817 94.4893C81.8947 97.4092 77.4087 99.4863 73.5097 101.204C71.3467 102.156 68.9057 103.229 66.5667 104.473C65.6467 104.963 64.6717 105.502 63.8077 106.183C62.8967 106.915 62.3257 107.764 61.8177 108.565C61.7747 108.633 61.7557 108.7 61.7517 108.767Z" fill="#12486B"/>
<path d="M33.4692 116.429C35.0292 117.374 36.6882 117.796 38.3142 117.892C42.0612 118.112 45.6242 116.593 47.3372 115.712C51.1522 113.754 54.8752 110.93 58.3872 107.316C58.6922 107.002 58.9912 106.672 59.2822 106.342L59.5562 106.049C59.6262 106.015 59.6892 105.966 59.7452 105.909C62.2802 103.385 65.7372 101.988 69.0712 100.629C70.2392 100.162 71.4452 99.6742 72.5792 99.1442C78.1682 96.5512 81.9742 93.9732 84.9112 90.7712C88.0412 87.3612 89.8962 83.4382 90.2682 79.4282C90.6142 75.7332 89.7472 70.5712 86.1732 68.1712C82.6292 65.7882 78.0892 67.4762 75.4352 70.3712C72.3522 73.7392 70.7812 78.5012 69.5142 82.3302L69.0722 83.6782C67.8302 87.4562 66.5512 91.3522 64.6572 94.9332C62.6612 98.7042 60.1852 102.153 57.3032 105.2C54.3092 108.346 51.0192 110.999 47.5222 113.081C42.7882 115.906 38.1682 116.774 33.8162 115.672C33.7862 115.663 33.7562 115.661 33.7342 115.66C33.5532 115.649 33.3812 115.76 33.3032 115.929C33.2232 116.12 33.2942 116.328 33.4692 116.429ZM63.7642 100.754C64.4822 99.7162 65.1142 98.7342 65.6762 97.7712C67.5642 94.5522 69.1212 90.9362 70.7142 86.0622C70.9262 85.4102 71.1312 84.7572 71.3432 84.0982C72.4932 80.4582 73.6892 76.6932 75.7942 73.5092C77.0952 71.5542 78.5132 70.2942 80.1282 69.6642C80.8852 69.3692 81.8022 69.1892 82.7202 69.2432C83.7212 69.3022 84.7282 69.6332 85.5592 70.4072C88.6032 73.2062 88.7472 78.3342 87.5322 82.1812C86.4352 85.6802 83.9732 89.0242 80.4252 91.8432C76.7182 94.7892 72.3282 96.7582 68.4662 98.4942L68.1022 98.6542C66.6512 99.3082 65.1622 99.9752 63.7642 100.754Z" fill="#12486B"/>
<path d="M70.2744 94.0702C70.2264 94.2412 70.2904 94.4332 70.4424 94.5562C70.5214 94.6212 70.6104 94.6562 70.7004 94.6622C70.8204 94.6692 70.9444 94.6242 71.0404 94.5232C71.2574 94.2942 72.8804 93.1442 73.6594 92.6082C73.9104 92.4412 74.1624 92.2752 74.4144 92.1012C74.9484 91.7472 75.4984 91.3872 76.0204 90.9872C77.6564 89.7392 79.1234 88.4292 80.3944 87.0992C83.0184 84.3462 84.2444 81.5942 84.0254 78.9092C83.9044 77.3772 83.1734 76.1932 82.0684 75.7282C80.4474 75.0512 78.8664 76.0002 78.0054 77.0142C77.0314 78.1652 76.4364 79.6782 75.9054 81.0062C75.4444 82.1722 75.0334 83.3782 74.6254 84.5402L74.2984 85.4802C73.3974 88.0852 70.6414 93.2232 70.3684 93.6232C70.2564 93.7222 70.2254 93.8712 70.2744 94.0702ZM75.3854 87.1522C76.3644 84.7562 77.3704 82.2852 78.7074 79.9702L78.7664 79.8682C79.1114 79.2692 79.9184 77.8672 80.6984 77.7092C80.7594 77.6982 80.8204 77.6942 80.8724 77.6972C81.0224 77.7062 81.1704 77.7672 81.3144 77.8822C82.0004 78.4132 81.9014 79.8342 81.5774 80.9862C80.8394 83.6462 78.6064 85.8022 76.8124 87.5322C76.3484 87.9802 75.8834 88.4292 75.4204 88.8702C74.9404 89.3252 74.4684 89.7812 73.9964 90.2362C74.5584 89.1352 75.0224 88.0522 75.3854 87.1522Z" fill="#12486B"/>
<path d="M76.5436 139.184C74.8556 142.588 73.2876 146.136 71.9606 149.697C71.9166 149.808 72.0776 149.893 72.1436 149.791C74.0966 146.886 75.7136 143.794 77.5496 140.822C78.7436 138.884 80.9186 134.383 83.8436 135.106C85.0716 135.405 85.9576 136.771 86.6336 137.739C87.5596 139.062 88.4706 140.392 89.5326 141.602C91.1326 143.418 94.1336 145.799 96.7616 145.153C96.8766 145.122 96.9476 144.937 96.8226 144.877C96.1276 144.504 95.3856 144.279 94.6996 143.869C93.9546 143.432 93.2446 142.938 92.6236 142.327C91.3886 141.114 90.3486 139.664 89.4076 138.211C87.9056 135.888 86.1526 132.832 82.8986 133.207C79.8496 133.557 77.7866 136.675 76.5436 139.184Z" fill="#12486B"/>
<path d="M33.3245 119.017C36.4925 123.183 42.1686 122.452 46.2706 120.224C48.6726 118.923 50.8135 117.192 52.9225 115.481C55.1735 113.665 57.4425 111.941 59.9715 110.535C60.0885 110.474 60.0385 110.29 59.9015 110.312C54.8325 111.116 51.1745 115.28 47.0465 117.945C43.1685 120.45 37.5395 121.939 33.5415 118.789C33.3905 118.666 33.2265 118.883 33.3245 119.017Z" fill="#12486B"/>
<path d="M115.888 126.92C116.204 126.931 116.339 126.441 116.012 126.361C110.885 125.085 106.844 121.246 104.372 116.683C102.138 112.557 100.821 107.859 100.576 103.178C100.455 100.868 100.615 98.5288 101.089 96.2608C101.348 95.0678 101.697 93.8878 102.119 92.7428C102.514 91.6788 102.96 90.5198 103.799 89.7308C104.646 88.9348 105.925 88.6248 106.776 89.5738C107.4 90.2598 107.738 91.1938 108.251 91.9638C109.416 93.7158 111.005 95.2068 112.831 96.2578C114.657 97.3088 116.69 97.9198 118.792 97.9898C121.12 98.0738 123.158 97.4538 125.179 96.3348C125.312 96.2598 125.251 96.0068 125.09 96.0578C119.733 97.6608 113.54 96.0128 110.072 91.5578C108.85 89.9908 108.186 87.5578 105.863 87.3838C103.495 87.1988 101.913 89.0618 100.992 90.9938C98.8296 95.5258 98.4476 100.864 99.1326 105.775C100.359 114.545 105.654 126.447 115.888 126.92Z" fill="#12486B"/>
<path d="M78.8832 146.404C78.6502 147.281 78.3393 148.343 78.4593 149.248C78.4733 149.392 78.6543 149.403 78.7353 149.31C79.2493 148.661 79.4993 147.739 79.7873 146.956C80.1023 146.099 80.4163 145.241 80.7763 144.394C81.1353 143.554 81.5763 142.727 82.0603 141.955C82.2353 141.678 82.4283 141.214 82.6963 141.026C82.7353 141.006 82.7513 140.992 82.7673 140.977C82.8243 141.026 82.8823 141.074 82.9313 141.138C83.0813 141.283 83.2153 141.442 83.3493 141.601C84.4723 142.913 85.3502 144.422 86.6242 145.607C87.6192 146.534 89.2133 147.549 90.6442 147.233C90.7362 147.216 90.7823 147.075 90.6943 147.025C89.8833 146.555 89.1593 146.157 88.4893 145.491C87.8543 144.865 87.3302 144.139 86.8142 143.414C86.2482 142.633 85.7382 141.803 85.1182 141.049C84.5552 140.351 83.8072 139.333 82.8182 139.328C81.8822 139.326 81.3612 140.216 80.9652 140.925C80.4922 141.781 80.1003 142.664 79.7673 143.58C79.4323 144.511 79.1352 145.445 78.8832 146.404Z" fill="#12486B"/>
<path d="M118.274 121.525C118.467 121.589 118.572 121.346 118.428 121.224C117.209 120.133 116.053 119.113 115.026 117.822C114.028 116.555 113.149 115.205 112.285 113.848C110.722 111.408 109.053 108.976 108.004 106.264C107.519 105.012 106.966 103.507 107.091 102.14C107.272 100.097 109.282 101.597 110.152 102.35C111.18 103.234 112.103 104.232 113.253 104.964C114.359 105.671 115.553 106.172 116.827 106.458C118.064 106.735 119.326 106.839 120.588 106.702C121.941 106.547 122.911 105.978 124.121 105.43C124.369 105.316 124.185 104.981 123.939 105.057C123.038 105.359 121.899 105.33 120.955 105.342C120.124 105.346 119.288 105.312 118.472 105.188C116.788 104.93 115.114 104.258 113.729 103.278C112.026 102.068 108.905 98.0033 106.524 99.9703C104.469 101.661 106.057 105.591 106.889 107.504C108.174 110.441 109.984 113.16 111.856 115.747C113.477 117.981 115.557 120.61 118.274 121.525Z" fill="#12486B"/>
<path d="M39.704 129.181C41.886 129.702 44.131 129.147 46.072 128.106C46.478 127.888 46.862 127.639 47.254 127.39C47.051 127.627 46.848 127.865 46.661 128.103C45.359 129.831 44.338 131.787 44.179 133.975C44.171 134.11 44.348 134.181 44.423 134.065C45.551 132.349 46.694 130.627 47.981 129.027C49.284 127.405 50.747 125.913 52.021 124.266C52.25 123.962 51.945 123.499 51.571 123.575C49.444 124.046 47.86 125.554 45.981 126.576C44.008 127.645 41.872 128.403 39.715 129.001C39.637 129.026 39.599 129.159 39.704 129.181Z" fill="#12486B"/>
<path d="M62.915 138.535C61.839 140.661 60.705 142.852 59.909 145.093C59.82 145.329 60.164 145.508 60.32 145.299C62.018 143.005 63.391 140.466 64.965 138.089C66.489 135.793 68.117 133.548 69.837 131.384C72.585 127.921 75.821 124.782 79.632 122.378C80.596 121.77 81.618 121.219 82.665 120.744C83.744 120.249 84.93 119.714 86.157 119.779C88.377 119.902 89.815 122.025 90.805 123.677C93.192 127.638 95.237 131.896 98.931 134.945C100.566 136.295 102.456 137.274 104.591 137.687C105.323 137.828 106.647 138.042 107.329 137.614C107.596 137.441 107.769 137.187 107.496 136.952C107.402 136.879 107.267 136.999 107.322 137.093C107.445 137.312 106.031 136.957 105.972 136.938C105.69 136.853 105.4 136.783 105.118 136.699C104.51 136.512 103.92 136.274 103.363 135.977C102.3 135.431 101.291 134.753 100.376 133.997C98.317 132.29 96.802 130.064 95.477 127.819C94.323 125.871 93.302 123.84 92.024 121.953C90.961 120.388 89.61 118.836 87.692 118.202C85.418 117.457 83.104 118.279 81.049 119.208C79.048 120.11 77.169 121.237 75.432 122.54C71.869 125.222 68.793 128.605 66.424 132.294C65.128 134.301 63.992 136.409 62.915 138.535Z" fill="#12486B"/>
<path d="M68.6478 143.002C68.0138 144.671 67.3748 146.407 67.1708 148.207C67.1558 148.335 67.3408 148.406 67.4078 148.289C68.4308 146.552 69.1118 144.614 70.1498 142.878C71.1718 141.171 72.1208 139.415 73.1928 137.749C75.0958 134.803 77.2238 131.87 79.6658 129.378C80.8148 128.207 82.1718 127.208 83.8508 127.42C85.4168 127.618 86.8198 128.673 87.8688 129.845C90.1288 132.379 91.1708 135.838 93.5008 138.331C95.6318 140.608 98.7098 141.809 101.756 141.384C101.863 141.368 101.889 141.173 101.77 141.143C99.8268 140.666 97.9818 139.818 96.3868 138.561C94.7708 137.281 93.6548 135.591 92.6348 133.795C90.9188 130.757 89.2428 127.54 86.0008 126.035C84.5668 125.377 82.9298 125.228 81.4408 125.759C79.8288 126.329 78.5718 127.561 77.4178 128.814C74.8778 131.557 72.7128 134.608 70.9088 137.922C70.0128 139.562 69.3098 141.243 68.6478 143.002Z" fill="#12486B"/>
<path d="M54.1755 141.304C54.1285 141.467 54.2085 141.646 54.3705 141.716C54.4145 141.734 54.4515 141.743 54.4975 141.746C54.6105 141.753 54.7195 141.699 54.7855 141.597C56.1715 139.466 57.8044 137.003 59.7004 134.675C61.3614 132.628 63.2965 130.537 65.6125 128.265C68.9055 125.046 72.6315 121.391 76.6735 118.398C78.8605 116.782 80.9015 115.581 82.9165 114.711C85.0315 113.793 87.9295 112.544 89.9015 114.322C91.1065 115.397 91.8675 116.967 92.6085 118.491C92.8915 119.074 93.1674 119.634 93.4614 120.165C94.9154 122.78 96.2694 124.8 97.7304 126.54C99.4584 128.613 101.339 130.264 103.316 131.452C105.51 132.782 107.651 133.481 110.058 133.653C110.223 133.678 110.381 133.551 110.414 133.38C110.454 133.216 110.365 133.06 110.203 132.997C103.552 130.673 99.2835 125.582 96.8825 121.725C96.2065 120.636 95.6024 119.475 95.0274 118.354C94.4584 117.248 93.8685 116.104 93.1925 115.022C91.7374 112.671 89.8835 111.467 87.6975 111.399C85.0815 111.336 82.3644 112.467 80.2904 113.455C78.1304 114.483 75.9744 115.836 73.8854 117.473C69.4914 120.922 65.5815 125.011 62.6685 128.192C59.1135 132.066 55.6305 136.331 54.1755 141.304Z" fill="#12486B"/>
<path d="M116.601 124.817C116.924 124.979 117.126 124.485 116.874 124.289C113.62 121.712 110.545 118.669 108.338 115.118C106.434 112.061 105.169 108.672 104.501 105.137C104.155 103.312 103.968 101.489 103.964 99.6392C103.96 98.2872 103.617 94.8772 105.596 94.8722C107.446 94.8682 108.666 97.2352 109.822 98.3752C111.149 99.6912 112.661 100.807 114.384 101.558C117.976 103.128 121.815 102.69 124.847 100.188C124.95 100.103 124.839 99.9312 124.723 99.9922C120.32 102.444 114.55 100.534 111.149 97.2532C109.77 95.9262 108.644 94.0172 106.689 93.4872C104.957 93.0232 103.222 93.7592 102.739 95.5502C102.258 97.3112 102.305 99.3382 102.402 101.155C102.494 103.056 102.768 104.952 103.256 106.793C105.181 114.087 109.715 121.339 116.601 124.817Z" fill="#12486B"/>
<path d="M51.3535 134.199C50.5765 135.603 49.9395 137.061 49.5835 138.618C49.5015 138.991 49.7045 139.38 50.0585 139.537C50.1395 139.564 50.2145 139.584 50.2895 139.588C50.5305 139.602 50.7555 139.487 50.9055 139.254C51.4955 138.345 52.0555 137.419 52.6155 136.5C53.8275 134.502 55.0895 132.432 56.6115 130.566C58.5975 128.131 60.9295 125.701 63.7315 123.132C66.0615 121.004 72.8905 115.818 79.8765 111.163C87.8465 105.841 93.3656 103.024 94.6296 103.612C95.4826 104.01 95.5266 105.439 95.5645 106.589C95.5725 106.967 95.5815 107.322 95.6175 107.611C95.8175 109.224 96.1135 110.864 96.4935 112.48C97.3176 115.926 98.4405 118.786 99.9285 121.214C101.506 123.799 103.532 125.941 105.779 127.41C107.081 128.257 110.449 130.169 113.55 129.574C113.749 129.533 113.894 129.375 113.913 129.18C113.933 128.977 113.815 128.789 113.631 128.718C113.122 128.514 112.619 128.334 112.116 128.153C111.029 127.757 110.009 127.387 108.992 126.844C107.572 126.089 106.196 125.079 104.997 123.913C102.704 121.687 100.913 118.765 99.6706 115.233C98.5456 112.018 98.0655 108.637 97.6715 105.45C97.5085 104.119 97.1576 102.641 95.8405 101.786C94.6555 101.014 92.6305 101.544 91.6235 101.976C85.8835 104.432 67.4465 116.214 60.0985 123.038C58.0135 124.977 56.0035 127.32 53.9465 130.197C53.0385 131.474 52.1295 132.81 51.3535 134.199Z" fill="#12486B"/>
<path d="M36.7526 124.786C40.6106 126.463 45.1696 124.828 48.6796 123.049C52.0726 121.331 55.0736 118.963 58.3706 117.088C59.2146 116.609 60.0716 116.161 60.9486 115.752C61.3906 115.552 61.8406 115.359 62.2876 115.189C62.5116 115.104 62.7856 114.931 63.0306 115.006C63.2836 114.945 63.3176 115.008 63.1246 115.2C63.0596 115.287 63.0016 115.366 62.9356 115.453C61.7946 116.873 60.0056 117.893 58.6306 119.066C55.8396 121.454 53.2756 124.089 51.0366 126.993C48.9196 129.738 46.7026 132.899 46.0526 136.372C46.0196 136.544 46.2576 136.603 46.3486 136.48C47.6946 134.641 48.8246 132.639 50.1636 130.792C51.4786 128.982 52.9446 127.293 54.5176 125.71C55.9296 124.291 57.3926 122.919 58.8906 121.588C60.3406 120.299 61.9506 119.118 63.2866 117.709C64.2116 116.737 65.8796 114.698 64.0516 113.684C62.5816 112.88 60.4096 114.247 59.1096 114.896C55.4296 116.741 52.1196 119.227 48.5216 121.212C46.6646 122.235 44.7416 123.081 42.6926 123.655C40.7276 124.204 38.8056 124.4 36.7746 124.515C36.6246 124.522 36.6346 124.734 36.7526 124.786Z" fill="#12486B"/>
<path d="M82.678 144.285C82.692 144.248 82.705 144.212 82.723 144.176C82.798 144.027 82.941 143.979 83.088 144.062C83.116 144.078 83.142 144.096 83.168 144.114C83.512 144.24 83.742 144.756 83.873 145.052C84.036 145.425 84.203 145.796 84.375 146.165C84.708 146.882 85.002 147.622 85.347 148.333C85.414 148.471 85.246 148.613 85.121 148.524C84.406 148.017 83.811 147.442 83.342 146.696C83.123 146.348 82.942 145.989 82.79 145.607C82.698 145.377 82.614 145.116 82.596 144.867C82.582 144.67 82.574 144.453 82.678 144.285Z" fill="#12486B"/>
<path d="M2 36V14C2 7.37258 7.37258 2 14 2H36" stroke="#FF7A0A" stroke-width="3" stroke-miterlimit="10"/>
<path d="M154 120V142C154 148.627 148.627 154 142 154H120" stroke="#FF7A0A" stroke-width="3" stroke-miterlimit="10"/>
<path d="M2 120V142C2 148.627 7.37258 154 14 154H36" stroke="#FF7A0A" stroke-width="3" stroke-miterlimit="10"/>
<path d="M120 2H142C148.627 2 154 7.37258 154 14V36" stroke="#FF7A0A" stroke-width="3" stroke-miterlimit="10"/>
</svg>
