<svg width="178" height="178" viewBox="0 0 178 178" fill="none" xmlns="http://www.w3.org/2000/svg">
<path d="M133.588 128.798C131.717 127.623 129.573 126.885 127.376 126.66C126.361 126.556 125.251 126.585 124.437 127.201C124.264 127.331 124.096 127.524 124.135 127.737C124.163 127.894 124.295 128.008 124.422 128.104C126.949 130.032 130.773 130.276 133.588 128.798Z" fill="#E0E0E0"/>
<path d="M133.429 128.622C132.023 127.524 130.608 126.419 129.416 125.092C128.225 123.764 127.257 122.188 126.901 120.44C126.793 119.91 126.759 119.304 127.1 118.883C130.298 121.381 132.81 124.611 133.429 128.622Z" fill="#E0E0E0"/>
<path d="M133.555 128.774C133.314 127.024 133.228 125.226 133.63 123.506C134.032 121.786 134.967 120.14 136.436 119.159C136.989 120.45 136.751 121.939 136.362 123.289C135.76 125.375 134.816 127.362 133.579 129.147" fill="#E0E0E0"/>
<path d="M136.691 134.392C134.788 134.623 133.13 135.627 131.709 136.914C130.288 138.201 129.278 139.935 128.859 141.805C130.726 141.69 132.31 140.374 133.459 138.898C134.607 137.422 135.403 135.802 136.665 134.421" fill="#E0E0E0"/>
<path d="M137.372 135.291C135.839 131.514 136.395 126.964 138.791 123.668C139.875 127.525 139.477 131.881 137.372 135.291Z" fill="#E0E0E0"/>
<path d="M141.515 140.223C139.788 140.116 138.032 140.527 136.532 141.391C135.032 142.254 133.794 143.566 133.02 145.113C132.914 145.324 132.821 145.591 132.962 145.779C133.085 145.943 133.321 145.959 133.525 145.945C135.2 145.836 136.684 144.829 137.908 143.682C139.133 142.535 140.199 141.21 141.553 140.218" fill="#E0E0E0"/>
<path d="M141.381 139.955C140.49 137.104 140.435 133.997 141.223 131.116C141.535 129.978 142.057 128.781 143.109 128.247C143.199 128.201 143.304 128.161 143.398 128.196C143.487 128.23 143.539 128.322 143.58 128.408C143.955 129.19 144.063 130.077 144.025 130.944C143.987 131.81 143.807 132.662 143.628 133.511C143.296 135.08 143.12 136.766 142.26 138.119C142.055 138.44 141.875 138.787 141.712 139.131C141.549 139.475 141.548 139.596 141.399 139.869" fill="#E0E0E0"/>
<path d="M152.348 141.588C151.535 138.498 152.397 134.752 154.345 132.219C154.488 132.032 154.678 131.832 154.913 131.854C155.271 131.887 155.364 132.365 155.348 132.724C155.207 135.882 154.154 138.994 152.348 141.588Z" fill="#E0E0E0"/>
<path d="M153.336 142.264C157.09 143.241 161.398 142.292 164.52 139.989C162.67 139.051 160.488 138.784 158.466 139.246C156.443 139.709 154.595 140.615 153.336 142.264Z" fill="#E0E0E0"/>
<path d="M154.17 140.207C156.273 136.778 160.304 134.541 164.321 134.337C163.858 135.971 162.515 137.241 161 138.008C159.486 138.775 157.795 139.109 156.128 139.433C155.48 139.559 154.59 139.697 154.17 140.207Z" fill="#E0E0E0"/>
<path d="M152.556 130.222C153.125 128.271 153.698 126.304 153.854 124.277C154.011 122.251 153.722 120.136 152.67 118.397C150.706 122.198 150.507 126.638 152.497 130.426" fill="#E0E0E0"/>
<path d="M159.17 126.88C161.467 122.705 166.153 119.37 170.895 118.903C169.066 123.458 164.077 126.978 159.17 126.88Z" fill="#E0E0E0"/>
<path d="M157.725 127.698C161.15 128.22 164.069 130.408 167.27 131.734C167.955 132.017 168.693 132.243 169.428 132.147C170.163 132.05 170.888 131.558 171.053 130.835C171.189 130.235 170.916 129.598 170.486 129.158C170.055 128.719 169.487 128.444 168.918 128.207C165.432 126.756 161.693 126.719 158.019 127.6" fill="#E0E0E0"/>
<path d="M155.742 130.1C156.518 130.323 156.783 130.724 157.397 131.247C159.481 133.022 161.979 134.305 164.635 134.966C164.912 135.034 165.275 135.062 165.412 134.812C165.531 134.593 165.38 134.329 165.225 134.135C164.112 132.743 162.524 131.79 160.854 131.168C159.184 130.546 157.736 129.796 155.743 129.957" fill="#E0E0E0"/>
<path d="M153.506 115.59C156.292 118.189 160.215 119.524 164.008 119.163C164.181 119.146 164.369 119.119 164.486 118.991C164.75 118.703 164.434 118.26 164.125 118.02C161.038 115.612 157.298 114.614 153.506 115.59Z" fill="#E0E0E0"/>
<path d="M156.158 114.619C159.84 111.858 164.889 111.025 169.263 112.456C167.613 114.083 165.323 114.958 163.018 115.198C160.714 115.438 158.406 115.182 156.158 114.619Z" fill="#E0E0E0"/>
<path d="M155.104 107.95C154.801 104.868 154.998 102.436 154.784 99.339C154.767 99.0916 154.714 98.794 154.482 98.705C154.16 98.5808 153.891 98.977 153.786 99.3056C152.868 102.16 153.37 105.434 155.1 107.882" fill="#E0E0E0"/>
<path d="M154.881 108.291C156.97 106.999 158.537 105.312 159.986 103.329C160.994 101.949 161.845 100.297 161.616 98.603C160.199 98.5746 158.854 99.3556 157.933 100.432C157.012 101.508 156.465 102.853 156.056 104.209C155.647 105.565 155.36 106.958 154.881 108.291Z" fill="#E0E0E0"/>
<path d="M159.898 106.897C164.482 105.202 168.759 102.68 172.461 99.4889C170.961 98.8844 169.242 99.2461 167.742 99.8516C164.314 101.235 161.513 103.571 159.832 106.864" fill="#E0E0E0"/>
<path d="M156.291 109.977C158.61 110.23 160.966 110.396 163.268 110.011C165.529 109.633 167.667 108.737 169.781 107.847C169.956 107.773 170.147 107.685 170.223 107.511C170.306 107.322 170.217 107.092 170.064 106.954C169.911 106.815 169.708 106.749 169.509 106.694C167.211 106.051 164.731 106.352 162.47 107.114C160.21 107.876 158.356 108.782 156.291 109.977Z" fill="#E0E0E0"/>
<path d="M143.049 115.694C141.467 112.5 141.569 108.773 142.937 105.481C143.899 106.947 144.016 108.814 143.84 110.559C143.665 112.304 143.133 114.1 143.099 115.853" fill="#E0E0E0"/>
<path d="M136.728 112.506C132.777 112.431 128.825 114.114 126.143 117.016C128.114 117.326 130.145 116.817 131.939 115.941C133.733 115.065 135.326 113.836 136.906 112.616" fill="#E0E0E0"/>
<path d="M132.477 111.085C130.544 110.928 128.685 110.689 126.826 111.258C124.968 111.828 123.277 113.12 122.52 114.91C124.327 115.114 126.16 114.661 127.817 113.91C129.474 113.159 130.981 112.119 132.477 111.085Z" fill="#E0E0E0"/>
<path d="M138.77 111.15C137.032 110.011 135.246 108.851 133.222 108.379C131.197 107.907 128.851 108.256 127.439 109.782C129.078 110.743 131.067 110.857 132.967 110.856C134.867 110.854 137.196 110.832 138.987 111.466" fill="#E0E0E0"/>
<path d="M138.78 111.242C135.807 108.323 134.681 103.08 135.876 99.0891C138.213 102.639 139.259 107.019 138.78 111.242Z" fill="#E0E0E0"/>
<path d="M146.953 102.972C147.514 101.668 147.908 100.301 148.411 98.9742C148.914 97.6478 149.539 96.3423 150.489 95.2889C151.44 94.2355 152.754 93.4512 154.171 93.3811C153.284 97.3975 150.616 100.986 147.026 102.993" fill="#E0E0E0"/>
<path d="M145.474 104.695C144.546 103.418 143.474 101.684 142.217 100.731C140.959 99.7782 139.321 99.2014 137.785 99.5674C139.347 102.359 142.297 104.326 145.474 104.695Z" fill="#E0E0E0"/>
<path d="M145.771 103.078C145.163 101.533 144.55 99.9711 144.304 98.3293C144.058 96.687 144.208 94.933 145.048 93.5005C146.679 96.5849 147.205 99.8957 145.854 103.113" fill="#E0E0E0"/>
<path d="M146.969 93.5002C147.893 90.4425 150.693 88.1911 153.715 87.1584C154.096 87.0281 154.5 86.9195 154.898 86.9811C155.296 87.0427 155.686 87.3147 155.77 87.7088C155.88 88.2289 155.451 88.6949 155.047 89.0406C152.693 91.053 149.926 92.5806 146.969 93.5002Z" fill="#E0E0E0"/>
<path d="M147.002 90.9998C147.119 89.0283 147.242 87.0286 147.883 85.1603C148.525 83.2924 149.761 81.5402 151.558 80.7228C151.864 82.7139 150.986 84.6947 149.926 86.4081C148.867 88.1215 147.59 89.7385 146.953 91.6498" fill="#E0E0E0"/>
<path d="M146.954 92.357C146.19 90.1288 146.111 87.2982 144.777 85.357C143.844 83.9999 142.35 83.0754 141.547 81.6382C141.013 82.9807 141.176 84.5275 141.735 85.8596C142.293 87.1921 143.216 88.3388 144.203 89.3936C145.191 90.4481 146.036 91.2416 146.954 92.357Z" fill="#E0E0E0"/>
<path d="M146.969 157.98C146.909 157.98 146.858 143.115 146.854 124.782C146.85 106.443 146.894 91.5804 146.954 91.5804C147.013 91.5804 147.065 106.442 147.069 124.782C147.073 143.115 147.028 157.98 146.969 157.98Z" fill="#E0E0E0"/>
<path d="M159.959 113.452C159.963 113.466 159.764 113.54 159.4 113.661C158.998 113.797 158.482 113.971 157.862 114.18C156.565 114.622 154.783 115.262 152.85 116.054C150.935 116.876 149.129 117.542 148.101 118.433C147.587 118.873 147.292 119.349 147.147 119.696C146.999 120.045 146.973 120.258 146.953 120.255C146.946 120.254 146.948 120.2 146.96 120.099C146.977 119.999 147.003 119.849 147.069 119.666C147.194 119.299 147.481 118.79 148 118.32C148.517 117.849 149.237 117.425 150.061 117.04C150.885 116.655 151.799 116.254 152.768 115.856C154.708 115.061 156.503 114.442 157.815 114.036C158.47 113.831 159.005 113.681 159.376 113.581C159.747 113.484 159.955 113.437 159.959 113.452Z" fill="#E0E0E0"/>
<path d="M164.216 102.992C164.221 102.998 164.167 103.055 164.06 103.16C163.933 103.279 163.775 103.427 163.583 103.608C163.139 104.011 162.537 104.558 161.802 105.226C160.264 106.595 158.179 108.451 155.875 110.503C153.561 112.562 151.562 114.53 150.176 116.012C149.482 116.751 148.936 117.364 148.563 117.792C148.389 117.991 148.246 118.154 148.132 118.284C148.032 118.396 147.977 118.452 147.971 118.447C147.965 118.443 148.009 118.377 148.098 118.257C148.188 118.137 148.319 117.959 148.498 117.739C148.852 117.293 149.382 116.663 150.064 115.908C151.424 114.396 153.413 112.406 155.731 110.342C158.052 108.287 160.165 106.442 161.7 105.111C162.454 104.465 163.072 103.934 163.526 103.545C163.73 103.376 163.897 103.238 164.03 103.127C164.148 103.034 164.212 102.987 164.216 102.992Z" fill="#E0E0E0"/>
<path d="M153.378 112.597C153.318 112.57 153.801 111.454 154.282 110.042C154.769 108.631 154.997 107.44 155.059 107.45C155.115 107.456 154.978 108.682 154.486 110.111C154.244 110.825 153.977 111.453 153.767 111.898C153.555 112.343 153.405 112.608 153.378 112.597Z" fill="#E0E0E0"/>
<path d="M146.982 121.594C146.969 121.603 146.843 121.455 146.625 121.18C146.383 120.87 146.077 120.477 145.712 120.009C144.944 119.017 143.884 117.648 142.695 116.15C141.506 114.652 140.413 113.308 139.622 112.336C139.248 111.874 138.936 111.486 138.688 111.181C138.47 110.906 138.355 110.749 138.366 110.74C138.377 110.73 138.514 110.868 138.752 111.127C138.99 111.385 139.326 111.764 139.738 112.238C140.56 113.186 141.672 114.517 142.863 116.017C144.053 117.516 145.096 118.902 145.833 119.918C146.202 120.426 146.495 120.84 146.692 121.131C146.89 121.421 146.994 121.586 146.982 121.594Z" fill="#E0E0E0"/>
<path d="M144.135 117.938C144.099 117.975 143.34 117.073 142.941 115.704C142.648 114.738 142.634 113.855 142.671 113.451L142.766 113.459C142.723 113.631 142.692 113.722 142.675 113.719C142.658 113.716 142.657 113.621 142.672 113.444L142.767 113.452C142.802 113.852 142.862 114.705 143.148 115.642C143.532 116.97 144.192 117.901 144.135 117.938Z" fill="#E0E0E0"/>
<path d="M140.457 113.312C140.43 113.342 140.185 113.034 139.624 112.828C139.068 112.613 138.23 112.565 137.311 112.644C136.391 112.712 135.57 112.875 134.982 113.02C134.394 113.166 134.035 113.28 134.024 113.25C134.014 113.225 134.356 113.059 134.941 112.874C135.526 112.69 136.359 112.499 137.295 112.43C138.225 112.35 139.106 112.421 139.682 112.687C140.264 112.945 140.476 113.307 140.457 113.312Z" fill="#E0E0E0"/>
<path d="M139.586 112.191C139.569 112.225 139.1 111.997 138.309 111.726C137.52 111.455 136.395 111.17 135.125 111.071C133.854 110.976 132.699 111.087 131.877 111.236C131.054 111.383 130.556 111.538 130.545 111.502C130.54 111.488 130.661 111.437 130.884 111.358C131.105 111.275 131.435 111.18 131.848 111.087C132.672 110.898 133.848 110.76 135.141 110.857C136.434 110.958 137.575 111.272 138.361 111.584C138.755 111.739 139.067 111.882 139.273 111.997C139.481 112.11 139.592 112.178 139.586 112.191Z" fill="#E0E0E0"/>
<path d="M146.953 107.451C146.896 107.465 146.479 106.017 146.022 104.217C145.565 102.417 145.242 100.945 145.3 100.931C145.357 100.916 145.774 102.364 146.23 104.164C146.687 105.965 147.011 107.436 146.953 107.451Z" fill="#E0E0E0"/>
<path d="M147.012 107.45C146.948 107.471 146.68 106.504 145.98 105.514C145.299 104.504 144.43 103.998 144.462 103.947C144.473 103.925 144.713 104.013 145.048 104.25C145.383 104.483 145.798 104.879 146.156 105.391C146.883 106.42 147.064 107.447 147.012 107.45Z" fill="#E0E0E0"/>
<path d="M146.968 150.055C146.945 150.059 146.901 149.698 146.734 149.067C146.568 148.435 146.256 147.54 145.74 146.493C144.713 144.394 142.845 141.733 140.47 139.068C139.293 137.724 138.152 136.455 137.183 135.241C136.212 134.028 135.414 132.873 134.832 131.851C134.248 130.829 133.867 129.953 133.645 129.335C133.536 129.025 133.456 128.783 133.412 128.615C133.365 128.449 133.344 128.361 133.351 128.359C133.37 128.353 133.478 128.699 133.723 129.305C133.968 129.911 134.367 130.77 134.963 131.774C135.558 132.779 136.362 133.917 137.337 135.117C138.309 136.319 139.453 137.58 140.632 138.927C143.012 141.599 144.877 144.294 145.877 146.428C146.38 147.492 146.673 148.405 146.815 149.047C146.884 149.369 146.93 149.62 146.947 149.793C146.968 149.964 146.976 150.054 146.968 150.055Z" fill="#E0E0E0"/>
<path d="M158.707 136.797C158.714 136.812 158.489 136.926 158.092 137.142C157.697 137.364 157.137 137.705 156.496 138.197C155.854 138.688 155.137 139.333 154.4 140.108C153.664 140.885 152.907 141.788 152.133 142.755C150.587 144.695 149.141 146.411 148.275 147.782C147.836 148.461 147.516 149.034 147.307 149.436C147.096 149.837 146.983 150.063 146.968 150.056C146.961 150.053 146.981 149.993 147.025 149.881C147.071 149.771 147.133 149.605 147.232 149.399C147.419 148.984 147.721 148.396 148.147 147.7C148.988 146.297 150.423 144.557 151.966 142.62C152.741 141.652 153.508 140.747 154.257 139.971C155.008 139.197 155.744 138.556 156.405 138.075C157.065 137.594 157.643 137.269 158.053 137.068C158.256 136.966 158.423 136.903 158.533 136.856C158.644 136.81 158.704 136.79 158.707 136.797Z" fill="#E0E0E0"/>
<path d="M158.937 141.098C158.94 141.129 158.441 141.19 157.637 141.287C156.836 141.39 155.721 141.524 154.553 141.894C153.389 142.273 152.422 142.851 151.791 143.343C151.155 143.835 150.855 144.242 150.825 144.218C150.815 144.21 150.877 144.1 151.018 143.919C151.157 143.736 151.385 143.493 151.695 143.225C152.316 142.691 153.292 142.078 154.487 141.689C155.683 141.31 156.814 141.201 157.621 141.135C158.433 141.077 158.935 141.07 158.937 141.098Z" fill="#E0E0E0"/>
<path d="M151.205 143.746C151.137 143.707 151.723 142.812 152.177 141.608C152.604 140.393 152.704 139.328 152.78 139.34C152.808 139.344 152.807 139.61 152.759 140.038C152.708 140.465 152.605 141.057 152.379 141.682C152.152 142.305 151.854 142.826 151.625 143.189C151.393 143.551 151.229 143.761 151.205 143.746Z" fill="#E0E0E0"/>
<path d="M162.509 125.249C162.512 125.256 162.44 125.294 162.302 125.36C162.14 125.433 161.938 125.525 161.69 125.638C161.423 125.752 161.098 125.898 160.732 126.091C160.364 126.28 159.936 126.476 159.489 126.744C159.262 126.872 159.026 127.007 158.78 127.147C158.534 127.288 158.291 127.456 158.031 127.618C157.508 127.936 156.985 128.326 156.425 128.725C155.331 129.555 154.181 130.539 153.073 131.674C151.976 132.82 151.033 134.004 150.24 135.126C149.86 135.698 149.488 136.235 149.189 136.769C149.036 137.033 148.876 137.282 148.743 137.533C148.612 137.783 148.485 138.025 148.364 138.255C148.111 138.711 147.931 139.146 147.754 139.519C147.574 139.892 147.44 140.221 147.334 140.493C147.23 140.744 147.145 140.949 147.077 141.113C147.016 141.254 146.981 141.327 146.974 141.325C146.967 141.322 146.989 141.245 147.037 141.099C147.095 140.931 147.167 140.721 147.256 140.463C147.35 140.186 147.474 139.85 147.644 139.472C147.811 139.092 147.983 138.65 148.229 138.188C148.346 137.953 148.47 137.708 148.597 137.454C148.727 137.2 148.884 136.947 149.035 136.679C149.33 136.138 149.699 135.593 150.077 135.014C150.866 133.877 151.813 132.68 152.919 131.525C154.035 130.381 155.199 129.394 156.308 128.566C156.874 128.169 157.406 127.781 157.937 127.468C158.199 127.308 158.446 127.143 158.696 127.004C158.946 126.868 159.187 126.736 159.417 126.61C159.87 126.35 160.306 126.163 160.68 125.982C161.053 125.799 161.384 125.664 161.658 125.561C161.912 125.463 162.12 125.383 162.286 125.32C162.43 125.267 162.507 125.242 162.509 125.249Z" fill="#E0E0E0"/>
<path d="M153.219 131.474C153.2 131.47 153.303 131.11 153.73 130.713C154.146 130.317 154.905 129.95 155.788 129.923C156.669 129.9 157.433 130.146 157.954 130.347C158.478 130.553 158.783 130.719 158.773 130.745C158.761 130.774 158.434 130.657 157.904 130.49C157.376 130.328 156.629 130.116 155.795 130.138C154.963 130.164 154.245 130.484 153.828 130.828C153.403 131.171 153.253 131.494 153.219 131.474Z" fill="#E0E0E0"/>
<path d="M151.831 132.906C151.772 132.874 152.296 132.105 152.415 131.005C152.552 129.906 152.219 129.038 152.284 129.02C152.307 129.01 152.425 129.212 152.525 129.574C152.627 129.934 152.694 130.458 152.628 131.03C152.561 131.602 152.375 132.096 152.193 132.423C152.012 132.751 151.851 132.921 151.831 132.906Z" fill="#E0E0E0"/>
<path d="M136.701 152.185C137.022 157.866 138.734 163.644 141.367 169.485H152.817C155.328 163.702 156.922 157.933 157.205 152.185H136.701Z" fill="#E0E0E0"/>
<path d="M155.35 161.378C155.35 161.437 151.58 161.485 146.93 161.485C142.279 161.485 138.51 161.437 138.51 161.378C138.51 161.318 142.279 161.27 146.93 161.27C151.58 161.271 155.35 161.319 155.35 161.378Z" fill="#FAFAFA"/>
<path d="M155.094 163.436C155.094 163.495 151.559 163.543 147.201 163.543C142.84 163.543 139.307 163.495 139.307 163.436C139.307 163.377 142.84 163.328 147.201 163.328C151.559 163.328 155.094 163.377 155.094 163.436Z" fill="#FAFAFA"/>
<path d="M141.551 155.915C141.61 155.915 141.658 157.096 141.658 158.553C141.658 160.009 141.61 161.19 141.551 161.19C141.491 161.19 141.443 160.01 141.443 158.553C141.444 157.096 141.492 155.915 141.551 155.915Z" fill="#FAFAFA"/>
<path d="M147.686 155.915C147.745 155.915 147.793 157.138 147.793 158.647C147.793 160.155 147.745 161.378 147.686 161.378C147.626 161.378 147.578 160.155 147.578 158.647C147.578 157.138 147.627 155.915 147.686 155.915Z" fill="#FAFAFA"/>
<path d="M153.445 155.869C153.505 155.869 153.553 157.116 153.553 158.655C153.553 160.194 153.505 161.441 153.445 161.441C153.386 161.441 153.338 160.194 153.338 158.655C153.338 157.116 153.386 155.869 153.445 155.869Z" fill="#FAFAFA"/>
<path d="M156.841 155.915C156.841 155.975 152.419 156.023 146.966 156.023C141.511 156.023 137.09 155.975 137.09 155.915C137.09 155.856 141.511 155.808 146.966 155.808C152.419 155.808 156.841 155.856 156.841 155.915Z" fill="#FAFAFA"/>
<path d="M163.072 12.7837H135.637V41.3822H163.072V12.7837Z" fill="#E0E0E0"/>
<path d="M161.212 12.7837H133.777V41.3822H161.212V12.7837Z" fill="#FAFAFA"/>
<path d="M161.221 41.3913H133.77V12.7756H161.221V41.3913ZM133.787 41.3742H161.204V12.7924H133.787V41.3742Z" fill="#E0E0E0"/>
<path d="M157.524 16.6284H137.465V37.5381H157.524V16.6284Z" fill="white"/>
<path d="M137.466 37.6769C137.482 37.6957 137.291 37.9143 136.971 38.2525C136.651 38.5907 136.201 39.0482 135.696 39.5451C135.191 40.0425 134.728 40.485 134.386 40.7993C134.044 41.1137 133.823 41.2995 133.806 41.2821C133.788 41.2646 133.978 41.0471 134.298 40.7089C134.619 40.3711 135.07 39.9122 135.576 39.4138C136.082 38.9154 136.547 38.4714 136.889 38.1571C137.231 37.8431 137.451 37.658 137.466 37.6769Z" fill="#E0E0E0"/>
<path d="M157.525 37.6259C157.544 37.6102 157.762 37.8007 158.1 38.1207C158.439 38.4411 158.896 38.8911 159.393 39.3959C159.89 39.9007 160.333 40.3646 160.647 40.7064C160.962 41.0485 161.147 41.2688 161.13 41.2859C161.112 41.3034 160.895 41.114 160.557 40.7936C160.219 40.4732 159.76 40.0218 159.262 39.5155C158.763 39.0093 158.319 38.5447 158.005 38.2026C157.691 37.8609 157.506 37.6416 157.525 37.6259Z" fill="#E0E0E0"/>
<path d="M157.47 16.6838C157.454 16.665 157.644 16.4464 157.965 16.1082C158.285 15.77 158.735 15.3125 159.24 14.8156C159.745 14.3182 160.208 13.8757 160.55 13.561C160.893 13.2467 161.113 13.0608 161.13 13.0783C161.147 13.0957 160.958 13.3132 160.638 13.6514C160.318 13.9896 159.866 14.4482 159.36 14.9466C158.854 15.445 158.389 15.8889 158.047 16.2032C157.705 16.5179 157.486 16.7027 157.47 16.6838Z" fill="#E0E0E0"/>
<path d="M137.411 16.7357C137.392 16.7514 137.173 16.5609 136.835 16.2409C136.497 15.9205 136.04 15.4705 135.543 14.9657C135.045 14.4609 134.603 13.9974 134.289 13.6553C133.974 13.3131 133.788 13.0928 133.806 13.0757C133.823 13.0583 134.041 13.2476 134.379 13.568C134.717 13.8884 135.175 14.3398 135.674 14.8461C136.172 15.3523 136.616 15.8169 136.93 16.159C137.245 16.5004 137.43 16.7197 137.411 16.7357Z" fill="#E0E0E0"/>
<path d="M157.47 37.5379C157.468 37.5364 157.467 37.5023 157.465 37.4364C157.464 37.3652 157.463 37.2691 157.461 37.1445C157.459 36.8825 157.456 36.5055 157.452 36.0156C157.448 35.0252 157.44 33.5841 157.432 31.7539C157.422 28.0918 157.409 22.8746 157.392 16.6282L157.47 16.7054C151.63 16.7087 144.772 16.7126 137.468 16.7168H137.466L137.555 16.6278C137.55 24.3025 137.546 31.4823 137.542 37.5375L137.466 37.4613C143.46 37.4773 148.451 37.4909 151.95 37.5001C153.698 37.5087 155.074 37.5154 156.019 37.5201C156.485 37.524 156.845 37.5268 157.095 37.529C157.213 37.5307 157.305 37.5322 157.373 37.5332C157.436 37.5354 157.468 37.5364 157.47 37.5379C157.471 37.5393 157.441 37.5407 157.381 37.5421C157.315 37.5432 157.226 37.5446 157.111 37.5464C156.865 37.5485 156.51 37.5514 156.05 37.5553C155.109 37.5599 153.739 37.5667 151.998 37.5752C148.487 37.5845 143.48 37.598 137.466 37.614L137.389 37.6144V37.5379C137.386 31.4826 137.382 24.3028 137.377 16.6282V16.5396H137.466H137.468C144.773 16.5435 151.631 16.5474 157.47 16.5509H157.548V16.6282C157.531 22.8952 157.518 28.1295 157.508 31.8038C157.499 33.6261 157.492 35.0615 157.488 36.0476C157.484 36.5307 157.481 36.9028 157.479 37.1616C157.477 37.2826 157.476 37.3759 157.475 37.4449C157.473 37.5083 157.471 37.5396 157.47 37.5379Z" fill="#E0E0E0"/>
<path d="M150.842 23.7362H144.148V30.4294H150.842V23.7362Z" fill="#F3F3F3"/>
<path d="M43.5299 57.9668H12.2012V103.376H43.5299V57.9668Z" fill="#E0E0E0"/>
<path d="M41.9615 57.9667H10.6328V103.376H41.9615V57.9667Z" fill="#F5F5F5"/>
<path d="M38.0694 62.8848H14.5254V98.4581H38.0694V62.8848Z" fill="white"/>
<path d="M38.069 98.4581C38.069 98.4581 38.0658 98.3979 38.0643 98.284C38.0633 98.1665 38.0618 97.9988 38.0597 97.7795C38.0576 97.3324 38.0544 96.6781 38.0504 95.8283C38.0455 94.1234 38.0383 91.6389 38.0294 88.5004C38.0202 82.2277 38.0067 73.3451 37.991 62.8848L38.0693 62.9627C30.8763 62.9649 22.9055 62.9673 14.5281 62.9698H14.5252L14.6103 62.8848C14.6039 76.3045 14.5979 88.6777 14.5929 98.4581L14.5249 98.3904C21.6951 98.4054 27.5719 98.4175 31.6617 98.426C33.7072 98.4335 35.305 98.4392 36.3961 98.4435C36.9383 98.4467 37.3538 98.4492 37.6389 98.4509C37.9209 98.4534 38.069 98.4581 38.069 98.4581C38.069 98.4581 37.9305 98.463 37.6535 98.4655C37.3715 98.4673 36.96 98.4698 36.4235 98.4734C35.3359 98.4773 33.7432 98.483 31.704 98.4905C27.6043 98.499 21.7125 98.5111 14.5249 98.5261H14.4569V98.4581C14.4523 88.6777 14.4462 76.3045 14.4395 62.8848V62.7993H14.5249H14.5277C22.9051 62.8018 30.8756 62.8043 38.069 62.8064H38.1473V62.8848C38.1316 73.3661 38.1184 82.2665 38.1088 88.5516C38.0999 91.6827 38.0928 94.1611 38.0878 95.8617C38.0839 96.7048 38.0807 97.3537 38.0786 97.7973C38.0764 98.0127 38.075 98.1775 38.0739 98.2929C38.0722 98.4039 38.069 98.4581 38.069 98.4581Z" fill="#E0E0E0"/>
<path d="M42.0485 57.9667C42.0667 57.981 41.8541 58.2914 41.4899 58.778C41.1261 59.2647 40.6096 59.9269 40.02 60.6424C39.4301 61.3583 38.8794 61.992 38.4714 62.4427C38.0634 62.8931 37.7997 63.1615 37.7822 63.1462C37.7644 63.1305 37.9958 62.8343 38.3803 62.364C38.8004 61.8546 39.3169 61.2273 39.8887 60.5342C40.4597 59.8407 40.9759 59.2134 41.3956 58.7036C41.7833 58.2362 42.0296 57.9521 42.0485 57.9667Z" fill="#E0E0E0"/>
<path d="M38.1895 98.3435C39.3589 100.203 40.7391 101.929 42.2959 103.479L38.1895 98.3435Z" fill="white"/>
<path d="M42.2953 103.479C42.28 103.495 42.0002 103.252 41.5794 102.828C41.1583 102.404 40.6004 101.794 40.0305 101.081C39.4609 100.368 38.9877 99.6892 38.6666 99.1855C38.3452 98.6814 38.17 98.3557 38.1889 98.3439C38.2102 98.3307 38.421 98.6333 38.7663 99.1179C39.1116 99.6027 39.5969 100.266 40.1633 100.975C40.73 101.683 41.2701 102.302 41.667 102.745C42.0639 103.189 42.3131 103.461 42.2953 103.479Z" fill="#E0E0E0"/>
<path d="M10.6289 103.341C11.9967 101.653 13.3648 99.9653 14.7325 98.2775L10.6289 103.341Z" fill="white"/>
<path d="M14.7317 98.2774C14.7683 98.307 13.879 99.4647 12.7462 100.862C11.6127 102.261 10.6647 103.37 10.628 103.34C10.5914 103.311 11.4803 102.154 12.6138 100.755C13.7466 99.3575 14.695 98.2479 14.7317 98.2774Z" fill="#E0E0E0"/>
<path d="M10.634 57.9665C10.671 57.9373 11.5628 59.0036 12.6258 60.3475C13.6892 61.6921 14.5208 62.8053 14.4841 62.8345C14.4471 62.8637 13.5557 61.7978 12.4923 60.4532C11.4289 59.1093 10.597 57.9957 10.634 57.9665Z" fill="#E0E0E0"/>
<path d="M30.7332 70.1077H22.8496V92.4912H30.7332V70.1077Z" fill="#016B83"/>
<path d="M27.0022 26.5776C20.4454 29.2625 17.2952 36.7816 19.9798 43.3384L27.9545 62.8141L31.5327 61.3488L23.5579 41.8731C21.6808 37.2893 23.8833 32.0326 28.4672 30.1554C33.051 28.2786 38.3077 30.4808 40.1849 35.0646L43.7631 33.5993C41.0781 27.0432 33.559 23.8926 27.0022 26.5776Z" fill="#EF9A07"/>
<g opacity="0.3">
<path d="M27.0022 26.5776C20.4454 29.2625 17.2952 36.7816 19.9798 43.3384L27.9545 62.8141L31.5327 61.3488L23.5579 41.8731C21.6808 37.2893 23.8833 32.0326 28.4672 30.1554C33.051 28.2786 38.3077 30.4808 40.1849 35.0646L43.7631 33.5993C41.0781 27.0432 33.559 23.8926 27.0022 26.5776Z" fill="black"/>
</g>
<path d="M58.8302 64.0663L30.6075 75.6228C29.5502 76.0557 28.3423 75.5495 27.9094 74.4921L21.0571 57.758C20.6242 56.7007 21.1305 55.4928 22.1878 55.0599L50.4104 43.5034C51.4677 43.0705 52.6756 43.5768 53.1085 44.6341L59.9608 61.3682C60.3933 62.4255 59.8875 63.6334 58.8302 64.0663Z" fill="#EF9A07"/>
<g opacity="0.5">
<path d="M42.0905 55.7869C41.4845 54.3074 39.7939 53.5989 38.3144 54.2048C36.8348 54.8107 36.1264 56.5014 36.7323 57.9806C37.2335 59.2049 38.4781 59.8877 39.7309 59.7481L41.371 63.7535L42.8327 63.155L41.1926 59.1497C42.1837 58.3707 42.5921 57.0112 42.0905 55.7869Z" fill="black"/>
</g>
<path d="M29.6034 73.7568C29.5297 73.787 28.0662 70.3819 26.3342 66.1526C24.6019 61.9219 23.2573 58.4691 23.331 58.4388C23.4044 58.4085 24.8679 61.813 26.6005 66.0437C28.3321 70.273 29.6767 73.7265 29.6034 73.7568Z" fill="#FAFAFA"/>
<path d="M38.7199 61.1771C38.7167 61.1938 38.5772 61.1867 38.3326 61.1276C38.088 61.0696 37.742 60.9411 37.3539 60.7068C36.5861 60.2561 35.6416 59.2529 35.412 57.8464C35.198 56.4366 35.7886 55.192 36.381 54.527C36.6783 54.1845 36.968 53.956 37.1831 53.8257C37.3977 53.6943 37.528 53.6449 37.5362 53.6595C37.5679 53.705 37.0684 53.9667 36.5391 54.6548C36.0132 55.3213 35.4978 56.4996 35.6961 57.8015C35.9072 59.1006 36.7598 60.0639 37.4647 60.5363C38.1802 61.0286 38.7359 61.1237 38.7199 61.1771Z" fill="#FAFAFA"/>
<path d="M15.9973 64.688L16.1707 64.1832L16.5022 64.6015C16.7677 64.9365 17.1237 65.1882 17.5281 65.3271L18.033 65.5004L17.6147 65.8319C17.2797 66.0974 17.0276 66.4534 16.8891 66.8579L16.7158 67.3627L16.3843 66.9444C16.1187 66.6094 15.7627 66.3577 15.3583 66.2188L14.8535 66.0455L15.2718 65.714C15.6065 65.4485 15.8585 65.0925 15.9973 64.688Z" fill="#EF9A07"/>
<path d="M32.8928 44.8274L32.9936 44.5344L33.1862 44.7772C33.3403 44.9716 33.5471 45.1179 33.7817 45.1987L34.0747 45.2995L33.8319 45.4921C33.6372 45.6462 33.4912 45.853 33.4104 46.0877L33.3097 46.3806L33.1171 46.1378C32.9629 45.9435 32.7561 45.7972 32.5215 45.7163L32.2285 45.6156L32.4713 45.423C32.666 45.2692 32.812 45.0624 32.8928 44.8274Z" fill="#EF9A07"/>
<path d="M12.5783 47.3004L12.8695 46.4524L13.4263 47.1551C13.8724 47.718 14.4708 48.1413 15.15 48.3744L15.998 48.6656L15.2953 49.2224C14.7325 49.6685 14.3092 50.2669 14.076 50.9462L13.7848 51.7942L13.228 51.0914C12.7819 50.5286 12.1835 50.1053 11.5042 49.8721L10.6562 49.5809L11.359 49.0241C11.9222 48.5781 12.3451 47.98 12.5783 47.3004Z" fill="#EF9A07"/>
<path d="M110.69 170.843L58.1396 170.812C51.8192 170.808 46.6978 165.683 46.6992 159.362L46.7249 27.6167C46.7263 21.2927 51.8548 16.1681 58.1788 16.1716L110.73 16.2026C117.05 16.2065 122.171 21.3319 122.17 27.6519L122.144 159.398C122.143 165.722 117.014 170.847 110.69 170.843Z" fill="#263238"/>
<path d="M110.641 20.8623L100.452 20.8562C99.0856 20.8555 97.9774 22.0129 97.9778 23.4411L97.977 25.2891C97.977 26.7174 96.8688 27.8748 95.5028 27.8741L75.6427 27.8623C74.2763 27.8616 73.1688 26.7028 73.1692 25.2745L73.1695 23.4266C73.1695 21.9983 72.062 20.8395 70.6957 20.8388L67.1126 20.8367L58.1951 20.8317C53.7665 20.8292 50.1744 24.4184 50.1737 28.847L50.1484 157.44C50.1474 161.867 53.7341 165.457 58.1606 165.459L110.607 165.49C115.035 165.493 118.627 161.903 118.628 157.474L118.653 28.8808C118.654 24.454 115.067 20.8648 110.641 20.8623Z" fill="white"/>
<path d="M79.5624 155.662C79.567 156.218 79.1199 156.673 78.5638 156.678C78.0077 156.682 77.5531 156.235 77.5489 155.679C77.5442 155.123 77.9914 154.668 78.5474 154.664C79.1035 154.659 79.5578 155.106 79.5624 155.662Z" fill="#263238"/>
<path d="M85.2034 155.616C85.208 156.172 84.7609 156.626 84.2048 156.631C83.6487 156.636 83.1941 156.189 83.1895 155.633C83.1849 155.076 83.632 154.622 84.1881 154.617C84.7441 154.613 85.1988 155.06 85.2034 155.616Z" fill="#263238"/>
<path d="M90.844 155.569C90.8486 156.125 90.4015 156.58 89.8454 156.584C89.2894 156.589 88.8347 156.142 88.8301 155.586C88.8255 155.03 89.2726 154.575 89.8287 154.571C90.3848 154.566 90.8394 155.013 90.844 155.569Z" fill="#263238"/>
<path d="M114.236 77.241C114.236 77.2923 101.053 77.3336 84.7961 77.3336C68.533 77.3336 55.3535 77.2919 55.3535 77.241C55.3535 77.1897 68.533 77.1484 84.7961 77.1484C101.053 77.1484 114.236 77.1897 114.236 77.241Z" fill="#E0E0E0"/>
<path d="M112.857 131.447C112.857 131.498 99.6743 131.539 83.4169 131.539C67.1537 131.539 53.9746 131.498 53.9746 131.447C53.9746 131.396 67.1541 131.354 83.4169 131.354C99.6747 131.354 112.857 131.396 112.857 131.447Z" fill="#E0E0E0"/>
<path d="M99.539 135.518C99.539 135.569 92.2164 135.61 83.1854 135.61C74.1512 135.61 66.8301 135.569 66.8301 135.518C66.8301 135.466 74.1512 135.425 83.1854 135.425C92.2161 135.425 99.539 135.466 99.539 135.518Z" fill="#E0E0E0"/>
<path d="M60.9274 92.853L62.0427 93.4568L61.5411 94.2962L60.4154 93.6308L60.4361 94.869H59.4742L59.4845 93.6205L58.3585 94.2959L57.8672 93.4564L58.9829 92.8526L57.8672 92.2385L58.3585 91.3991L59.4845 92.0744L59.4742 90.8256H60.4361L60.4154 92.0744L61.5411 91.3991L62.0427 92.2385L60.9274 92.853Z" fill="#EF9A07"/>
<path d="M62.9117 100.606H57.5155C56.1285 100.606 55 99.4779 55 98.0909V88.5152C55 87.1283 56.1285 85.9998 57.5155 85.9998H62.9117C64.2987 85.9998 65.4272 87.1283 65.4272 88.5152V98.0909C65.4272 99.4779 64.2987 100.606 62.9117 100.606ZM57.5155 86.1774C56.2264 86.1774 55.178 87.2262 55.178 88.5149V98.0906C55.178 99.3797 56.2268 100.428 57.5155 100.428H62.9117C64.2008 100.428 65.2492 99.3797 65.2492 98.0906V88.5149C65.2492 87.2258 64.2005 86.1774 62.9117 86.1774H57.5155Z" fill="#263238"/>
<path d="M75.4391 100.607H70.0428C68.6559 100.607 67.5273 99.4782 67.5273 98.0912V88.5155C67.5273 87.1285 68.6559 86 70.0428 86H75.4391C76.8261 86 77.9546 87.1285 77.9546 88.5155V98.0912C77.9546 99.4782 76.8261 100.607 75.4391 100.607ZM70.0425 86.1776C68.7534 86.1776 67.705 87.2264 67.705 88.5151V98.0908C67.705 99.3799 68.7538 100.428 70.0425 100.428H75.4387C76.7278 100.428 77.7762 99.3799 77.7762 98.0908V88.5151C77.7762 87.2261 76.7275 86.1776 75.4387 86.1776H70.0425Z" fill="#263238"/>
<path d="M87.6227 100.607H82.2264C80.8395 100.607 79.7109 99.4782 79.7109 98.0912V88.5155C79.7109 87.1285 80.8395 86 82.2264 86H87.6227C89.0097 86 90.1382 87.1285 90.1382 88.5155V98.0912C90.1385 99.4782 89.01 100.607 87.6227 100.607ZM82.2264 86.1776C80.9374 86.1776 79.8889 87.2264 79.8889 88.5151V98.0908C79.8889 99.3799 80.9377 100.428 82.2264 100.428H87.6227C88.9118 100.428 89.9602 99.3799 89.9602 98.0908V88.5151C89.9602 87.2261 88.9114 86.1776 87.6227 86.1776H82.2264Z" fill="#263238"/>
<path d="M99.9449 100.607H94.5487C93.1614 100.607 92.0332 99.4782 92.0332 98.0912V88.5155C92.0332 87.1285 93.1617 86 94.5487 86H99.9449C101.332 86 102.46 87.1285 102.46 88.5155V98.0912C102.461 99.4782 101.332 100.607 99.9449 100.607ZM94.5487 86.1776C93.2596 86.1776 92.2112 87.2264 92.2112 88.5151V98.0908C92.2112 99.3799 93.2596 100.428 94.5487 100.428H99.9449C101.234 100.428 102.282 99.3799 102.282 98.0908V88.5151C102.282 87.2261 101.234 86.1776 99.9449 86.1776H94.5487Z" fill="#263238"/>
<path d="M111.908 100.607H106.512C105.124 100.607 103.996 99.4782 103.996 98.0912V88.5155C103.996 87.1285 105.125 86 106.512 86H111.908C113.295 86 114.423 87.1285 114.423 88.5155V98.0912C114.423 99.4782 113.295 100.607 111.908 100.607ZM106.512 86.1776C105.223 86.1776 104.174 87.2264 104.174 88.5151V98.0908C104.174 99.3799 105.223 100.428 106.512 100.428H111.908C113.197 100.428 114.245 99.3799 114.245 98.0908V88.5151C114.245 87.2261 113.197 86.1776 111.908 86.1776H106.512Z" fill="#263238"/>
<path d="M111.426 122.587H59.0192C56.7996 122.587 55 120.787 55 118.568V116.019C55 113.8 56.7996 112 59.0192 112H111.426C113.645 112 115.445 113.8 115.445 116.019V118.568C115.445 120.788 113.645 122.587 111.426 122.587Z" fill="#EF9A07"/>
<path d="M84.4354 61.7885C90.3432 61.7885 95.1325 56.9992 95.1325 51.0914C95.1325 45.1835 90.3432 40.3943 84.4354 40.3943C78.5275 40.3943 73.7383 45.1835 73.7383 51.0914C73.7383 56.9992 78.5275 61.7885 84.4354 61.7885Z" fill="#EF9A07"/>
<path d="M82.551 49.1465H82.373V48.1476C82.373 46.997 83.309 46.061 84.4596 46.061C85.6102 46.061 86.5461 46.997 86.5461 48.1476V48.9614H86.3681V48.1476C86.3681 47.0952 85.5119 46.239 84.4596 46.239C83.4072 46.239 82.551 47.0952 82.551 48.1476V49.1465Z" fill="white" stroke="white"/>
<path d="M87.0871 56.1222H81.7824C81.2971 56.1222 80.9023 55.7274 80.9023 55.2422V49.937C80.9023 49.4518 81.2971 49.0574 81.7824 49.0574H87.0871C87.5724 49.0574 87.9672 49.4518 87.9672 49.937V55.2422C87.9668 55.7274 87.5724 56.1222 87.0871 56.1222ZM81.782 49.2354C81.395 49.2354 81.08 49.5501 81.08 49.937V55.2422C81.08 55.6291 81.3947 55.9442 81.782 55.9442H87.0868C87.4737 55.9442 87.7888 55.6295 87.7888 55.2422V49.937C87.7888 49.5501 87.4741 49.2354 87.0868 49.2354H81.782Z" fill="white" stroke="white"/>
<path d="M84.4596 52.7636C84.0004 52.7636 83.627 52.3902 83.627 51.9309C83.627 51.4717 84.0004 51.0983 84.4596 51.0983C84.9189 51.0983 85.2923 51.4717 85.2923 51.9309C85.2923 52.3902 84.9189 52.7636 84.4596 52.7636ZM84.4596 51.2766C84.0987 51.2766 83.805 51.5703 83.805 51.9313C83.805 52.2923 84.0987 52.586 84.4596 52.586C84.8206 52.586 85.1143 52.2923 85.1143 51.9313C85.1143 51.57 84.8206 51.2766 84.4596 51.2766Z" fill="white" stroke="white"/>
<path d="M84.5237 52.6365H84.3457V54.1395H84.5237V52.6365Z" fill="white" stroke="white"/>
<path d="M164.124 170.941C164.124 170.992 129.531 171.033 86.8685 171.033C44.1912 171.033 9.60547 170.992 9.60547 170.941C9.60547 170.89 44.1909 170.848 86.8685 170.848C129.531 170.848 164.124 170.89 164.124 170.941Z" fill="#263238"/>
<path d="M29.7822 121.915C33.1703 116.732 33.04 109.157 28.9933 104.47C27.7374 103.016 25.9819 101.751 24.067 101.915C22.1065 102.083 20.5266 103.765 19.9303 105.64C19.3336 107.515 19.5405 109.546 19.8911 111.483C20.3817 114.194 21.2033 116.968 23.0841 118.981C24.9645 120.995 27.3643 123.236 29.7822 121.915Z" fill="#EF9A07"/>
<path d="M28.2731 146.688C29.549 143.711 28.6237 139.941 26.1139 137.893C25.335 137.258 24.3161 136.765 23.3443 137.023C22.3492 137.287 21.6878 138.297 21.5504 139.317C21.413 140.337 21.7038 141.365 22.0598 142.331C22.5582 143.683 23.2328 145.038 24.3845 145.905C25.5358 146.772 27.147 147.588 28.2731 146.688Z" fill="#EF9A07"/>
<path d="M36.4428 144.909C35.5112 140.315 37.9327 135.245 42.0919 133.082C43.3827 132.41 44.9719 132.013 46.2727 132.665C47.6049 133.332 48.245 134.957 48.1392 136.443C48.0335 137.929 47.319 139.301 46.5301 140.564C45.4254 142.334 44.0705 144.055 42.1837 144.945C40.2969 145.835 37.7736 146.516 36.4428 144.909Z" fill="#EF9A07"/>
<path d="M35.8558 132.485C34.2335 127.25 36.984 120.903 41.5682 117.9C42.9911 116.967 44.7928 116.319 46.3824 116.924C48.01 117.544 48.9452 119.36 48.9965 121.101C49.0477 122.842 48.3774 124.521 47.6077 126.083C46.5305 128.271 45.1559 130.432 43.0655 131.688C40.9754 132.943 37.592 134.198 35.8558 132.485Z" fill="#EF9A07"/>
<path d="M32.598 158.072C32.6055 158.073 32.6236 157.986 32.651 157.819C32.6795 157.629 32.7155 157.386 32.76 157.089C32.7824 156.928 32.807 156.752 32.8333 156.561C32.8707 156.368 32.9106 156.16 32.9533 155.939C33.0384 155.492 33.1266 154.982 33.273 154.428C33.3402 154.149 33.4107 153.858 33.4841 153.556C33.572 153.255 33.6635 152.944 33.7578 152.621C33.9326 151.971 34.1904 151.3 34.4321 150.584C34.9686 149.17 35.635 147.645 36.4528 146.103C37.2861 144.568 38.189 143.169 39.0704 141.941C39.5336 141.343 39.9512 140.757 40.3962 140.252C40.6126 139.996 40.8216 139.747 41.0231 139.508C41.2349 139.279 41.4385 139.06 41.6336 138.85C42.0142 138.422 42.3905 138.066 42.7159 137.748C42.8768 137.59 43.0277 137.442 43.1683 137.305C43.3125 137.177 43.4457 137.06 43.5674 136.952C43.791 136.75 43.9725 136.586 44.1157 136.458C44.2395 136.343 44.3022 136.279 44.2976 136.273C44.2929 136.267 44.2207 136.319 44.0875 136.423C43.9369 136.544 43.7461 136.698 43.5112 136.887C43.3848 136.99 43.247 137.103 43.0975 137.226C42.9526 137.36 42.797 137.505 42.6308 137.658C42.2961 137.969 41.9099 138.318 41.5201 138.742C41.3207 138.95 41.1124 139.167 40.8956 139.394C40.6899 139.632 40.4763 139.879 40.2552 140.134C39.8013 140.637 39.3762 141.222 38.9056 141.82C38.0092 143.049 37.0953 144.454 36.257 145.998C35.4339 147.55 34.7689 149.087 34.2395 150.514C34.0013 151.236 33.7486 151.914 33.5805 152.57C33.4898 152.895 33.4022 153.21 33.3175 153.513C33.2488 153.819 33.1825 154.112 33.1192 154.394C32.9821 154.953 32.9041 155.467 32.8305 155.918C32.7941 156.142 32.76 156.351 32.7283 156.546C32.7087 156.738 32.6905 156.915 32.6738 157.078C32.6464 157.379 32.624 157.622 32.6062 157.815C32.5934 157.983 32.5902 158.072 32.598 158.072Z" fill="#263238"/>
<path d="M32.718 159.013C32.722 159.013 32.7216 158.978 32.718 158.909C32.712 158.828 32.7049 158.728 32.6956 158.606C32.6693 158.322 32.6337 157.933 32.5885 157.443C32.5635 157.189 32.5358 156.908 32.5055 156.603C32.4824 156.296 32.4738 155.961 32.4553 155.601C32.4286 154.882 32.3595 154.064 32.3852 153.158C32.3873 152.705 32.3898 152.23 32.3919 151.737C32.3969 151.242 32.4436 150.729 32.4688 150.198C32.5044 149.133 32.6493 148.003 32.7775 146.813C33.1025 144.442 33.6105 141.854 34.3834 139.201C35.1819 136.554 36.167 134.107 37.1873 131.942C37.7287 130.874 38.2229 129.849 38.7736 128.936C39.0424 128.477 39.2827 128.021 39.5483 127.604C39.8156 127.189 40.0723 126.79 40.3176 126.409C40.7903 125.635 41.2937 124.987 41.7085 124.399C41.9203 124.107 42.1097 123.831 42.2969 123.586C42.4885 123.346 42.6643 123.127 42.8238 122.927C43.1293 122.541 43.371 122.235 43.5476 122.011C43.6216 121.913 43.6821 121.834 43.7316 121.769C43.7722 121.714 43.7914 121.684 43.7886 121.681C43.7857 121.679 43.7604 121.703 43.7142 121.754C43.6601 121.815 43.5942 121.89 43.5134 121.982C43.3283 122.2 43.0759 122.497 42.7562 122.873C42.5917 123.069 42.4105 123.285 42.2129 123.521C42.0203 123.763 41.8256 124.036 41.6084 124.325C41.1834 124.907 40.6693 125.551 40.1866 126.322C39.9366 126.702 39.675 127.1 39.4026 127.514C39.1328 127.93 38.8875 128.385 38.6141 128.844C38.0541 129.756 37.5518 130.783 37.0032 131.853C35.9683 134.023 34.9729 136.479 34.1705 139.138C33.3937 141.804 32.8896 144.405 32.5746 146.788C32.4514 147.984 32.3129 149.118 32.2851 150.188C32.2638 150.722 32.2214 151.237 32.2207 151.733C32.2232 152.228 32.2257 152.705 32.2282 153.159C32.2129 154.069 32.2926 154.889 32.3314 155.609C32.356 155.969 32.3706 156.305 32.4001 156.612C32.4372 156.918 32.4713 157.198 32.5023 157.452C32.565 157.941 32.6148 158.328 32.6511 158.612C32.6689 158.733 32.6835 158.832 32.6953 158.913C32.7066 158.98 32.7141 159.014 32.718 159.013Z" fill="#263238"/>
<path d="M23.8969 108.174C23.8937 108.176 23.9083 108.209 23.9403 108.271C23.9795 108.344 24.0272 108.433 24.0863 108.543C24.2276 108.795 24.4209 109.14 24.6655 109.576C24.7898 109.801 24.9389 110.046 25.0828 110.323C25.2227 110.605 25.374 110.909 25.5359 111.235C25.6993 111.563 25.8738 111.912 26.0585 112.281C26.2351 112.656 26.4032 113.061 26.5901 113.48C26.7713 113.903 26.9752 114.339 27.1629 114.804C27.3434 115.273 27.5313 115.76 27.7253 116.264C27.8225 116.516 27.9211 116.772 28.0212 117.033C28.1105 117.297 28.2017 117.566 28.2939 117.839C28.4779 118.385 28.667 118.946 28.861 119.522C29.579 121.844 30.2597 124.43 30.8343 127.177C31.3907 129.928 31.7812 132.574 32.0693 134.989C32.3163 137.408 32.4989 139.592 32.5488 141.431C32.5954 142.35 32.605 143.182 32.6079 143.912C32.6196 144.643 32.6225 145.273 32.6054 145.787C32.5983 146.287 32.5929 146.683 32.5887 146.972C32.5894 147.096 32.5897 147.198 32.5901 147.28C32.5915 147.35 32.5944 147.386 32.5979 147.386C32.6018 147.386 32.6065 147.351 32.6125 147.281C32.6182 147.199 32.625 147.098 32.6335 146.974C32.6478 146.685 32.667 146.289 32.6919 145.789C32.7225 145.274 32.7325 144.644 32.7325 143.912C32.7414 143.18 32.7428 142.347 32.7061 141.426C32.6762 139.582 32.5096 137.392 32.2729 134.966C31.9952 132.545 31.61 129.89 31.0522 127.132C30.4758 124.378 29.7873 121.785 29.0564 119.46C28.8588 118.883 28.6659 118.321 28.4786 117.774C28.3843 117.502 28.2914 117.233 28.2002 116.968C28.0981 116.707 27.997 116.45 27.898 116.198C27.699 115.694 27.5068 115.207 27.322 114.739C27.1298 114.274 26.9208 113.838 26.7342 113.416C26.542 112.997 26.369 112.594 26.1871 112.22C25.9966 111.852 25.8165 111.505 25.6477 111.178C25.4793 110.854 25.3223 110.552 25.1771 110.273C25.0272 109.998 24.872 109.756 24.7417 109.534C24.4815 109.105 24.2757 108.767 24.1255 108.519C24.0589 108.414 24.0048 108.328 23.9606 108.259C23.9215 108.2 23.9001 108.172 23.8969 108.174Z" fill="#263238"/>
<path d="M25.0477 139.974C25.0352 139.982 25.1641 140.207 25.408 140.606C25.6557 141.002 25.9961 141.587 26.3948 142.32C26.7971 143.052 27.2346 143.945 27.6782 144.954C28.1111 145.968 28.544 147.101 28.9238 148.316C29.2955 149.534 29.5778 150.714 29.7921 151.796C29.995 152.88 30.1374 153.864 30.2179 154.694C30.3019 155.525 30.351 156.2 30.3699 156.666C30.3934 157.133 30.4137 157.392 30.429 157.392C30.4443 157.392 30.4532 157.133 30.4561 156.664C30.4635 156.195 30.4386 155.516 30.3738 154.68C30.3129 153.843 30.1858 152.851 29.9925 151.758C29.7875 150.667 29.5098 149.477 29.1353 148.251C28.7529 147.027 28.3112 145.888 27.8651 144.872C27.408 143.86 26.9534 142.969 26.5315 142.244C26.1132 141.517 25.7512 140.942 25.4802 140.559C25.2136 140.174 25.0605 139.965 25.0477 139.974Z" fill="#263238"/>
<path d="M39.2524 155.74H24.3691L26.1698 170.942H37.3987L39.2524 155.74Z" fill="#455A64"/>
<path d="M38.709 169.3L37.4445 170.942H26.1693L24.8691 169.353L38.709 169.3Z" fill="#263238"/>
<path d="M24.9492 160.211C24.9492 160.272 28.0379 160.322 31.8471 160.322C35.6577 160.322 38.7456 160.273 38.7456 160.211C38.7456 160.15 35.6577 160.1 31.8471 160.1C28.0379 160.1 24.9492 160.15 24.9492 160.211Z" fill="#FAFAFA"/>
<path d="M24.9492 161.223C24.9492 161.285 28.0379 161.334 31.8471 161.334C35.6577 161.334 38.7456 161.285 38.7456 161.223C38.7456 161.162 35.6577 161.112 31.8471 161.112C28.0379 161.112 24.9492 161.162 24.9492 161.223Z" fill="#FAFAFA"/>
<path d="M25.1348 162.203C25.1348 162.264 28.1152 162.314 31.7913 162.314C35.4684 162.314 38.4481 162.264 38.4481 162.203C38.4481 162.142 35.4684 162.092 31.7913 162.092C28.1152 162.092 25.1348 162.142 25.1348 162.203Z" fill="#FAFAFA"/>
<path d="M36.9782 122.977C36.9728 122.978 36.9735 123.028 36.98 123.123C36.9892 123.234 37.0002 123.37 37.0141 123.535C37.0526 123.916 37.1046 124.428 37.1672 125.05C37.3032 126.328 37.5011 128.092 37.729 130.04C37.7379 130.114 37.7464 130.189 37.7546 130.258L37.7624 130.323L37.8283 130.324C39.7404 130.354 41.4613 130.372 42.7041 130.378C43.3082 130.378 43.8045 130.378 44.174 130.378C44.3331 130.375 44.4645 130.372 44.5731 130.37C44.6642 130.367 44.7123 130.363 44.7123 130.358C44.7123 130.353 44.6646 130.347 44.5738 130.34C44.4656 130.335 44.3342 130.328 44.1754 130.32C43.8059 130.308 43.31 130.293 42.7062 130.274C41.4638 130.24 39.7432 130.204 37.8311 130.174L37.9048 130.24C37.8967 130.172 37.8881 130.097 37.8796 130.023C37.6517 128.075 37.4367 126.312 37.274 125.037C37.1914 124.418 37.1238 123.908 37.0732 123.528C37.0483 123.365 37.028 123.23 37.0109 123.119C36.9942 123.025 36.9832 122.977 36.9782 122.977Z" fill="#263238"/>
<path d="M40.363 118.432C40.3576 118.432 40.3537 118.483 40.3512 118.581C40.3501 118.695 40.3491 118.836 40.3477 119.008C40.3512 119.401 40.3562 119.931 40.3619 120.576C40.3808 121.901 40.4167 123.73 40.4662 125.75C40.4683 125.832 40.4701 125.913 40.4723 125.989L40.4744 126.068L40.5534 126.062C42.5121 125.91 44.2822 125.908 45.5577 125.949C46.1957 125.969 46.7108 125.995 47.0664 126.014C47.2302 126.022 47.3655 126.028 47.4762 126.034C47.5698 126.037 47.6193 126.036 47.62 126.031C47.6204 126.026 47.572 126.017 47.479 126.004C47.3861 125.992 47.2487 125.974 47.0711 125.957C46.7161 125.92 46.2014 125.878 45.562 125.845C44.2843 125.776 42.5079 125.761 40.5417 125.912L40.6228 125.986C40.6211 125.91 40.6189 125.829 40.6171 125.747C40.5677 123.726 40.5146 121.898 40.4687 120.574C40.4431 119.929 40.4221 119.399 40.4064 119.007C40.3964 118.836 40.3886 118.695 40.3818 118.58C40.3744 118.483 40.3679 118.431 40.363 118.432Z" fill="#263238"/>
<path d="M44.323 116.883C44.3126 116.881 44.2813 117.037 44.2304 117.319C44.1734 117.627 44.0994 118.03 44.0097 118.516C43.8167 119.526 43.5156 120.918 43.0898 122.443L43.0449 122.603L43.1959 122.53C43.2525 122.503 43.3133 122.474 43.3742 122.444C44.8363 121.737 46.2877 121.41 47.3411 121.284C47.8691 121.219 48.2998 121.195 48.5978 121.184C48.8958 121.174 49.061 121.17 49.0613 121.159C49.0613 121.154 49.0204 121.148 48.9417 121.142C48.863 121.137 48.747 121.127 48.5971 121.126C48.2977 121.119 47.8634 121.127 47.3294 121.179C46.2642 121.279 44.7893 121.593 43.3087 122.309C43.2468 122.339 43.1852 122.369 43.1279 122.396L43.2343 122.484C43.6601 120.954 43.9452 119.552 44.1122 118.535C44.1962 118.027 44.2532 117.614 44.2866 117.329C44.3208 117.043 44.3326 116.884 44.323 116.883Z" fill="#263238"/>
<path d="M23.3067 144.596C23.3095 144.619 23.7381 144.575 24.4323 144.548C25.1258 144.522 26.0867 144.523 27.139 144.636C27.3526 144.658 27.5619 144.685 27.7616 144.712L27.8328 144.722L27.8453 144.652C28.0059 143.752 28.1408 142.958 28.2312 142.389C28.3213 141.82 28.3668 141.475 28.3483 141.471C28.3298 141.468 28.2508 141.807 28.1347 142.372C28.0187 142.936 27.8656 143.726 27.699 144.625L27.7826 144.565C27.5811 144.536 27.3704 144.508 27.1547 144.486C26.0927 144.372 25.1223 144.387 24.4259 144.441C24.0774 144.468 23.7969 144.504 23.6039 144.532C23.411 144.563 23.3052 144.586 23.3067 144.596Z" fill="#263238"/>
<path d="M21.9004 141.803C21.9061 141.827 22.3173 141.73 22.9909 141.647C23.6633 141.564 24.6035 141.512 25.632 141.62C25.7922 141.637 25.9496 141.658 26.0984 141.678L26.176 141.689L26.1838 141.612C26.2775 140.687 26.3536 139.867 26.4013 139.277C26.449 138.688 26.4686 138.33 26.4498 138.328C26.4309 138.326 26.3764 138.681 26.302 139.267C26.2276 139.853 26.1336 140.672 26.035 141.596L26.1205 141.53C25.9695 141.509 25.81 141.487 25.6477 141.47C24.6046 141.36 23.6512 141.431 22.9759 141.541C22.6377 141.596 22.3675 141.659 22.1827 141.708C21.998 141.758 21.8979 141.793 21.9004 141.803Z" fill="#263238"/>
<path d="M20.8907 115.34C20.8886 115.345 20.9395 115.371 21.0384 115.417C21.1531 115.468 21.2969 115.532 21.4731 115.61C21.8722 115.781 22.4176 116.013 23.0826 116.296C24.4646 116.868 26.3411 117.645 28.4144 118.504C28.513 118.545 28.6113 118.585 28.7024 118.622L28.77 118.65L28.7996 118.583C29.68 116.595 30.471 114.809 31.0524 113.496C31.3265 112.86 31.5508 112.339 31.7152 111.957C31.7854 111.787 31.8423 111.648 31.8882 111.537C31.9263 111.44 31.9441 111.388 31.9395 111.386C31.9349 111.384 31.9082 111.432 31.8612 111.525C31.8089 111.633 31.7434 111.768 31.6629 111.934C31.4877 112.311 31.2489 112.825 30.9569 113.453C30.3649 114.761 29.5589 116.541 28.6625 118.522L28.7597 118.483C28.6686 118.446 28.5703 118.405 28.4717 118.365C26.392 117.522 24.5094 116.759 23.1232 116.197C22.4503 115.933 21.8992 115.715 21.4955 115.556C21.3147 115.488 21.1673 115.433 21.0502 115.389C20.9477 115.352 20.8928 115.336 20.8907 115.34Z" fill="#263238"/>
<path d="M19.588 108.911C19.5855 108.915 19.6304 108.948 19.719 109.007C19.8219 109.074 19.9511 109.157 20.1095 109.26C20.4694 109.484 20.9614 109.791 21.5627 110.165C22.8148 110.928 24.5182 111.967 26.4107 113.121L26.4883 113.169L26.5204 113.083C26.5481 113.009 26.578 112.929 26.608 112.849C27.3983 110.717 28.1131 108.787 28.6396 107.367C28.8874 106.678 29.0907 106.113 29.2391 105.7C29.3025 105.515 29.3538 105.364 29.3951 105.245C29.4293 105.14 29.4446 105.084 29.4396 105.082C29.4346 105.08 29.4097 105.133 29.3662 105.234C29.3182 105.352 29.258 105.499 29.184 105.68C29.0245 106.089 28.8059 106.648 28.5396 107.331C28.0024 108.747 27.273 110.671 26.4666 112.797C26.4367 112.878 26.4068 112.957 26.379 113.031L26.4887 112.993C24.5869 111.854 22.8753 110.829 21.6172 110.076C21.0059 109.718 20.5058 109.425 20.1394 109.211C19.9753 109.118 19.8415 109.043 19.7347 108.982C19.6407 108.931 19.5905 108.907 19.588 108.911Z" fill="#263238"/>
<path d="M20.0157 105.48C20.0115 105.489 20.1257 105.554 20.3351 105.669C20.5444 105.785 20.8466 105.955 21.2137 106.183C21.9481 106.636 22.9357 107.338 23.9111 108.293L24.0976 108.476L24.0353 108.222C23.9702 107.956 23.91 107.675 23.8637 107.386C23.6153 105.839 23.8093 104.406 24.0741 103.42C24.2066 102.924 24.3532 102.535 24.4554 102.266C24.5644 102 24.6245 101.852 24.6145 101.847C24.606 101.843 24.528 101.982 24.4017 102.243C24.282 102.506 24.119 102.893 23.9716 103.391C23.6772 104.38 23.4622 105.836 23.7149 107.41C23.7619 107.703 23.8235 107.988 23.8908 108.259L24.015 108.187C23.0257 107.225 22.0168 106.531 21.2642 106.098C20.8879 105.88 20.5768 105.722 20.3593 105.621C20.1418 105.521 20.0197 105.473 20.0157 105.48Z" fill="#263238"/>
<path d="M36.9982 138.852C36.9882 138.855 37.0146 138.991 37.0665 139.237C37.1185 139.483 37.1929 139.839 37.2741 140.283C37.4382 141.17 37.6144 142.412 37.6739 143.808L37.6767 143.876L37.7444 143.88C37.8501 143.887 37.9636 143.893 38.0779 143.901C39.5539 143.99 40.89 144.062 41.8579 144.107C42.3204 144.125 42.7056 144.14 43.0046 144.152C43.2755 144.159 43.4254 144.158 43.4261 144.148C43.4268 144.138 43.278 144.119 43.0082 144.093C42.7098 144.069 42.3257 144.038 41.8647 144.001C40.8985 143.929 39.5632 143.84 38.0875 143.751C37.9733 143.744 37.8597 143.737 37.754 143.731L37.8245 143.803C37.7625 142.397 37.5671 141.149 37.3759 140.264C37.2808 139.821 37.1908 139.467 37.1217 139.225C37.0523 138.981 37.0074 138.85 36.9982 138.852Z" fill="#263238"/>
<path d="M39.9236 134.659C39.914 134.66 39.9233 134.798 39.9482 135.047C39.9795 135.323 40.0201 135.678 40.0685 136.105C40.1768 137 40.337 138.244 40.5246 139.638L40.5328 139.699L40.5944 139.703C40.7471 139.712 40.9094 139.723 41.0732 139.734C42.5855 139.836 43.9493 139.993 44.9344 140.121C45.4057 140.184 45.798 140.237 46.101 140.277C46.3765 140.314 46.5296 140.331 46.5314 140.321C46.5331 140.311 46.3833 140.274 46.1106 140.219C45.8375 140.165 45.4413 140.093 44.9497 140.015C43.9664 139.86 42.6004 139.686 41.0839 139.583C40.9194 139.573 40.7563 139.562 40.6036 139.553L40.6734 139.617C40.4822 138.224 40.3046 136.983 40.1696 136.091C40.1024 135.666 40.0468 135.314 40.0034 135.04C39.9614 134.793 39.9333 134.658 39.9236 134.659Z" fill="#263238"/>
<path d="M43.3665 132.854C43.3448 132.859 43.4352 133.262 43.5413 133.927C43.6485 134.591 43.7599 135.519 43.7806 136.561L43.7823 136.644L43.866 136.634C43.9454 136.624 44.0301 136.613 44.1156 136.602C45.2078 136.467 46.2053 136.435 46.9269 136.435C47.2619 136.439 47.5474 136.442 47.782 136.445C47.9842 136.449 48.0963 136.447 48.0971 136.437C48.0978 136.427 47.9871 136.408 47.7856 136.386C47.5841 136.365 47.2911 136.342 46.9287 136.328C46.2042 136.301 45.1978 136.316 44.0974 136.452C44.0112 136.463 43.9258 136.474 43.8457 136.484L43.9308 136.557C43.9073 135.506 43.7774 134.571 43.6428 133.908C43.5762 133.576 43.5114 133.311 43.4605 133.13C43.4103 132.949 43.3758 132.851 43.3665 132.854Z" fill="#263238"/>
<path d="M23.7569 137.046C23.7192 137.066 24.0417 137.73 24.4212 138.556C24.8021 139.382 25.0973 140.058 25.1371 140.043C25.1749 140.028 24.9413 139.324 24.5579 138.493C24.1763 137.663 23.7925 137.027 23.7569 137.046Z" fill="#263238"/>
<path d="M21.8867 139.028C21.8846 139.076 22.6692 139.085 23.5785 139.371C24.4905 139.649 25.1424 140.086 25.1676 140.045C25.1926 140.019 24.5621 139.514 23.6233 139.227C22.687 138.933 21.8811 138.992 21.8867 139.028Z" fill="#263238"/>
<path d="M72.537 74.2841H71.6599L69.6213 68.4852H70.4497L72.1066 73.5125H72.1228L73.7959 68.4852H74.5999L72.537 74.2841ZM75.7071 68.4852H79.7111V69.1349H76.4787V70.9785H79.4918V71.6283H76.4787V73.6343H79.7355V74.2841H75.7071V68.4852ZM81.1594 68.4852H83.8883C84.4406 68.4852 84.871 68.6205 85.1797 68.8913C85.4937 69.162 85.6507 69.5329 85.6507 70.0039C85.6507 70.3559 85.5695 70.6645 85.4071 70.9298C85.25 71.1951 84.9956 71.3765 84.6436 71.474V71.4902C84.8115 71.5227 84.9468 71.5768 85.0497 71.6526C85.158 71.7284 85.2419 71.8205 85.3015 71.9288C85.3665 72.0316 85.4125 72.1481 85.4396 72.278C85.472 72.408 85.4964 72.5433 85.5126 72.6841C85.5235 72.8249 85.5316 72.9683 85.537 73.1145C85.5424 73.2607 85.556 73.4042 85.5776 73.545C85.5993 73.6858 85.6291 73.8211 85.667 73.9511C85.7103 74.0756 85.7725 74.1866 85.8538 74.2841H84.9929C84.9387 74.2245 84.9008 74.1433 84.8792 74.0404C84.8629 73.9375 84.8521 73.8238 84.8467 73.6993C84.8413 73.5694 84.8358 73.4313 84.8304 73.2851C84.825 73.1389 84.8088 72.9954 84.7817 72.8546C84.76 72.7139 84.733 72.5812 84.7005 72.4567C84.668 72.3267 84.6166 72.2157 84.5462 72.1237C84.4758 72.0262 84.3837 71.9504 84.27 71.8963C84.1563 71.8367 84.0047 71.8069 83.8152 71.8069H81.931V74.2841H81.1594V68.4852ZM83.5391 71.1572C83.7178 71.1572 83.8883 71.1437 84.0507 71.1166C84.2132 71.0895 84.354 71.0381 84.4731 70.9623C84.5976 70.8811 84.6951 70.7755 84.7655 70.6455C84.8413 70.5102 84.8792 70.3369 84.8792 70.1258C84.8792 69.8334 84.7979 69.5951 84.6355 69.4111C84.4731 69.227 84.2105 69.1349 83.8477 69.1349H81.931V71.1572H83.5391ZM87.2391 68.4852H88.0106V74.2841H87.2391V68.4852ZM89.7957 68.4852H93.6048V69.1349H90.5672V70.9785H93.2312V71.6283H90.5672V74.2841H89.7957V68.4852ZM97.3425 71.9125V74.2841H96.5709V71.9125L94.3294 68.4852H95.2471L96.9851 71.2466L98.6826 68.4852H99.5597L97.3425 71.9125Z" fill="black"/>
<path d="M78.3475 115.43H79.8275C80.1008 115.43 80.3375 115.477 80.5375 115.57C80.7375 115.663 80.9008 115.792 81.0275 115.955C81.1541 116.115 81.2475 116.303 81.3075 116.52C81.3708 116.737 81.4025 116.968 81.4025 117.215C81.4025 117.462 81.3708 117.693 81.3075 117.91C81.2475 118.127 81.1541 118.317 81.0275 118.48C80.9008 118.64 80.7375 118.767 80.5375 118.86C80.3375 118.953 80.1008 119 79.8275 119H78.3475V115.43ZM78.9725 118.49H79.5875C79.8308 118.49 80.0291 118.458 80.1825 118.395C80.3391 118.328 80.4608 118.238 80.5475 118.125C80.6375 118.008 80.6975 117.873 80.7275 117.72C80.7608 117.563 80.7775 117.395 80.7775 117.215C80.7775 117.035 80.7608 116.868 80.7275 116.715C80.6975 116.558 80.6375 116.423 80.5475 116.31C80.4608 116.193 80.3391 116.103 80.1825 116.04C80.0291 115.973 79.8308 115.94 79.5875 115.94H78.9725V118.49ZM83.7759 115.855C83.5859 115.855 83.4209 115.893 83.2809 115.97C83.1442 116.047 83.0325 116.15 82.9459 116.28C82.8592 116.407 82.7942 116.552 82.7509 116.715C82.7109 116.878 82.6909 117.045 82.6909 117.215C82.6909 117.385 82.7109 117.552 82.7509 117.715C82.7942 117.878 82.8592 118.025 82.9459 118.155C83.0325 118.282 83.1442 118.383 83.2809 118.46C83.4209 118.537 83.5859 118.575 83.7759 118.575C83.9659 118.575 84.1292 118.537 84.2659 118.46C84.4059 118.383 84.5192 118.282 84.6059 118.155C84.6925 118.025 84.7559 117.878 84.7959 117.715C84.8392 117.552 84.8609 117.385 84.8609 117.215C84.8609 117.045 84.8392 116.878 84.7959 116.715C84.7559 116.552 84.6925 116.407 84.6059 116.28C84.5192 116.15 84.4059 116.047 84.2659 115.97C84.1292 115.893 83.9659 115.855 83.7759 115.855ZM83.7759 115.345C84.0425 115.345 84.2809 115.395 84.4909 115.495C84.7042 115.595 84.8842 115.73 85.0309 115.9C85.1775 116.07 85.2892 116.268 85.3659 116.495C85.4459 116.722 85.4859 116.962 85.4859 117.215C85.4859 117.472 85.4459 117.713 85.3659 117.94C85.2892 118.167 85.1775 118.365 85.0309 118.535C84.8842 118.705 84.7042 118.84 84.4909 118.94C84.2809 119.037 84.0425 119.085 83.7759 119.085C83.5092 119.085 83.2692 119.037 83.0559 118.94C82.8459 118.84 82.6675 118.705 82.5209 118.535C82.3742 118.365 82.2609 118.167 82.1809 117.94C82.1042 117.713 82.0659 117.472 82.0659 117.215C82.0659 116.962 82.1042 116.722 82.1809 116.495C82.2609 116.268 82.3742 116.07 82.5209 115.9C82.6675 115.73 82.8459 115.595 83.0559 115.495C83.2692 115.395 83.5092 115.345 83.7759 115.345ZM86.3297 115.43H86.9897L88.6197 118.06H88.6297V115.43H89.2247V119H88.5647L86.9397 116.375H86.9247V119H86.3297V115.43ZM90.2631 115.43H92.8331V115.97H90.8881V116.905H92.6881V117.415H90.8881V118.46H92.8681V119H90.2631V115.43Z" fill="white"/>
</svg>
