<svg width="121" height="120" viewBox="0 0 121 120" fill="none" xmlns="http://www.w3.org/2000/svg">
<path d="M90.5603 86.8301C89.2991 86.0381 87.8539 85.5406 86.3723 85.3887C85.6881 85.3183 84.9403 85.3383 84.3914 85.753C84.275 85.8408 84.1612 85.9711 84.1874 86.1147C84.2066 86.2203 84.2959 86.2971 84.3811 86.3621C86.0851 87.6619 88.6627 87.8261 90.5603 86.8301Z" fill="#E0E0E0"/>
<path d="M90.4521 86.7112C89.5041 85.9713 88.5504 85.2263 87.7471 84.3314C86.944 83.4362 86.2912 82.3734 86.0512 81.195C85.9785 80.8377 85.956 80.4292 86.1854 80.1455C88.3416 81.8293 90.0352 84.0074 90.4521 86.7112Z" fill="#E0E0E0"/>
<path d="M90.5379 86.8142C90.3754 85.6346 90.3171 84.4224 90.588 83.2627C90.859 82.1032 91.4897 80.9935 92.4797 80.332C92.8524 81.203 92.6921 82.2062 92.4298 83.1163C92.0242 84.5227 91.3879 85.8624 90.5539 87.0655" fill="#E0E0E0"/>
<path d="M92.6509 90.6016C91.3678 90.7576 90.2504 91.4339 89.2923 92.3015C88.3342 93.1691 87.6533 94.3381 87.3711 95.5993C88.6297 95.5216 89.6974 94.634 90.4717 93.639C91.2461 92.644 91.7825 91.552 92.6333 90.6212" fill="#E0E0E0"/>
<path d="M93.1107 91.2076C92.0772 88.6619 92.4516 85.5945 94.0671 83.3721C94.7981 85.9722 94.5298 88.9094 93.1107 91.2076Z" fill="#E0E0E0"/>
<path d="M95.9032 94.5327C94.7387 94.4605 93.5548 94.7379 92.5437 95.3199C91.5325 95.9019 90.6981 96.7863 90.1758 97.8296C90.1048 97.9715 90.0421 98.1517 90.1372 98.2787C90.2197 98.3891 90.3793 98.3994 90.5169 98.3903C91.6456 98.3171 92.6459 97.6381 93.4715 96.8646C94.2971 96.0913 95.0161 95.198 95.9284 94.5291" fill="#E0E0E0"/>
<path d="M95.8136 94.3512C95.2129 92.4292 95.1754 90.3347 95.707 88.3924C95.917 87.6254 96.2694 86.818 96.9786 86.4583C97.039 86.4276 97.1096 86.4002 97.1732 86.4242C97.2334 86.4468 97.2682 86.5087 97.2961 86.5668C97.5483 87.0938 97.6218 87.6924 97.5958 88.2763C97.5699 88.8602 97.4487 89.435 97.328 90.0069C97.1046 91.0646 96.9858 92.2012 96.4057 93.1135C96.2679 93.33 96.1467 93.564 96.0368 93.7958C95.9269 94.0276 95.9262 94.1092 95.8256 94.2936" fill="#E0E0E0"/>
<path d="M103.206 95.4526C102.659 93.3691 103.24 90.8436 104.553 89.1358C104.649 89.01 104.778 88.8751 104.936 88.8898C105.177 88.9121 105.24 89.2344 105.229 89.4768C105.134 91.6056 104.424 93.7037 103.206 95.4526Z" fill="#E0E0E0"/>
<path d="M103.873 95.9086C106.404 96.5672 109.308 95.9271 111.413 94.3751C110.166 93.7427 108.695 93.5622 107.331 93.8742C105.968 94.1859 104.722 94.797 103.873 95.9086Z" fill="#E0E0E0"/>
<path d="M104.436 94.5213C105.853 92.2101 108.571 90.7017 111.279 90.5645C110.967 91.6658 110.062 92.5219 109.04 93.0391C108.019 93.5563 106.879 93.7817 105.756 93.9998C105.319 94.0845 104.719 94.1779 104.436 94.5213Z" fill="#E0E0E0"/>
<path d="M103.347 87.7904C103.731 86.4752 104.117 85.1488 104.223 83.7827C104.328 82.4168 104.133 80.9908 103.424 79.8184C102.1 82.3806 101.966 85.3744 103.308 87.9277" fill="#E0E0E0"/>
<path d="M107.806 85.5366C109.354 82.7221 112.514 80.4741 115.71 80.1592C114.477 83.2297 111.114 85.6026 107.806 85.5366Z" fill="#E0E0E0"/>
<path d="M106.831 86.0881C109.14 86.4399 111.108 87.915 113.266 88.809C113.728 89.0002 114.226 89.1526 114.721 89.0876C115.216 89.0226 115.705 88.6904 115.816 88.2032C115.908 87.7988 115.724 87.3694 115.434 87.0728C115.144 86.7764 114.76 86.5914 114.377 86.4318C112.027 85.453 109.506 85.4286 107.03 86.0221" fill="#E0E0E0"/>
<path d="M105.495 87.7082C106.018 87.858 106.197 88.1287 106.611 88.4813C108.015 89.6777 109.7 90.5431 111.491 90.9881C111.677 91.0344 111.922 91.0529 112.014 90.8844C112.095 90.7373 111.993 90.5592 111.888 90.4282C111.138 89.4895 110.067 88.8475 108.941 88.428C107.815 88.0087 106.839 87.5033 105.495 87.6115" fill="#E0E0E0"/>
<path d="M103.987 77.9257C105.865 79.6785 108.51 80.5785 111.068 80.3346C111.184 80.3236 111.311 80.3051 111.39 80.2189C111.568 80.025 111.354 79.7257 111.147 79.564C109.065 77.9409 106.544 77.2679 103.987 77.9257Z" fill="#E0E0E0"/>
<path d="M105.775 77.2713C108.258 75.4103 111.662 74.8485 114.61 75.8135C113.498 76.9101 111.954 77.5 110.4 77.6618C108.846 77.8235 107.291 77.6512 105.775 77.2713Z" fill="#E0E0E0"/>
<path d="M105.065 72.7759C104.86 70.6982 104.993 69.0581 104.849 66.9705C104.837 66.8037 104.801 66.6031 104.645 66.5431C104.428 66.4593 104.247 66.7265 104.176 66.948C103.557 68.8723 103.895 71.0793 105.061 72.73" fill="#E0E0E0"/>
<path d="M104.915 73.0055C106.323 72.1345 107.38 70.9972 108.357 69.6604C109.037 68.7301 109.61 67.6161 109.455 66.4741C108.501 66.4549 107.594 66.9815 106.973 67.707C106.352 68.4323 105.983 69.3393 105.707 70.2534C105.431 71.1676 105.238 72.1069 104.915 73.0055Z" fill="#E0E0E0"/>
<path d="M108.296 72.0653C111.387 70.9224 114.27 69.2223 116.766 67.0709C115.754 66.6634 114.596 66.9072 113.585 67.3155C111.273 68.2484 109.385 69.823 108.252 72.0428" fill="#E0E0E0"/>
<path d="M105.865 74.1421C107.429 74.313 109.017 74.4243 110.569 74.1651C112.093 73.9102 113.534 73.3059 114.959 72.7062C115.077 72.6565 115.206 72.597 115.258 72.4796C115.314 72.3524 115.254 72.1974 115.151 72.104C115.047 72.0106 114.91 71.966 114.776 71.9286C113.227 71.4954 111.555 71.6982 110.031 72.212C108.507 72.7258 107.257 73.3364 105.865 74.1421Z" fill="#E0E0E0"/>
<path d="M96.9379 77.9959C95.8711 75.8427 95.9404 73.3299 96.862 71.1104C97.5108 72.0987 97.59 73.3575 97.4714 74.5339C97.3528 75.7102 96.9947 76.921 96.9715 78.103" fill="#E0E0E0"/>
<path d="M92.6762 75.8473C90.0129 75.7965 87.3484 76.9314 85.54 78.8874C86.8694 79.0962 88.2384 78.7535 89.4477 78.1629C90.6568 77.5725 91.7313 76.744 92.7964 75.9215" fill="#E0E0E0"/>
<path d="M89.8107 74.8891C88.5077 74.7835 87.254 74.6222 86.0012 75.006C84.7484 75.39 83.6081 76.2612 83.0977 77.4679C84.3164 77.6052 85.5521 77.2997 86.6691 76.7935C87.7861 76.2874 88.8017 75.5863 89.8107 74.8891Z" fill="#E0E0E0"/>
<path d="M94.0528 74.9328C92.8806 74.1646 91.677 73.3826 90.3121 73.0646C88.9473 72.7464 87.3657 72.9816 86.4141 74.0102C87.5188 74.6585 88.8594 74.7353 90.1403 74.7341C91.4214 74.7331 92.9917 74.7185 94.1992 75.1459" fill="#E0E0E0"/>
<path d="M94.0596 74.9946C92.0556 73.0269 91.296 69.4919 92.1022 66.8018C93.6773 69.195 94.3826 72.1478 94.0596 74.9946Z" fill="#E0E0E0"/>
<path d="M99.5703 69.4187C99.9483 68.5401 100.214 67.618 100.553 66.7238C100.892 65.8295 101.314 64.9494 101.954 64.2393C102.595 63.5291 103.481 63.0004 104.436 62.9531C103.838 65.6608 102.04 68.08 99.6193 69.4331" fill="#E0E0E0"/>
<path d="M98.5732 70.5802C97.9477 69.7193 97.2251 68.5508 96.3772 67.9083C95.529 67.2658 94.4248 66.877 93.3896 67.1237C94.4423 69.0056 96.4314 70.3321 98.5732 70.5802Z" fill="#E0E0E0"/>
<path d="M98.7727 69.4909C98.3627 68.4493 97.9499 67.3964 97.7841 66.2895C97.6183 65.1824 97.7193 63.9999 98.2852 63.0342C99.3851 65.1135 99.7396 67.3455 98.8288 69.5144" fill="#E0E0E0"/>
<path d="M99.5801 63.0338C100.203 60.9724 102.091 59.4547 104.128 58.7584C104.385 58.6706 104.658 58.5974 104.926 58.6389C105.194 58.6804 105.457 58.8638 105.514 59.1295C105.588 59.4801 105.298 59.7943 105.026 60.0273C103.439 61.384 101.574 62.4139 99.5801 63.0338Z" fill="#E0E0E0"/>
<path d="M99.6029 61.3482C99.6821 60.0191 99.7652 58.671 100.197 57.4115C100.63 56.1522 101.463 54.971 102.675 54.4199C102.881 55.7622 102.289 57.0976 101.575 58.2527C100.86 59.4078 99.9994 60.4979 99.5703 61.7865" fill="#E0E0E0"/>
<path d="M99.5703 62.2633C99.0553 60.7611 99.002 58.8529 98.1025 57.5441C97.4737 56.6293 96.4666 56.006 95.925 55.0371C95.565 55.9421 95.6751 56.9849 96.0517 57.883C96.428 58.7813 97.0501 59.5544 97.7158 60.2655C98.3814 60.9764 98.9514 61.5113 99.5703 62.2633Z" fill="#E0E0E0"/>
<path d="M99.5806 106.503C99.5406 106.503 99.506 96.4814 99.5031 84.1221C99.5002 71.7588 99.5305 61.7393 99.5706 61.7393C99.6106 61.7393 99.6452 71.7585 99.6481 84.1221C99.6507 96.4814 99.6207 106.503 99.5806 106.503Z" fill="#E0E0E0"/>
<path d="M108.338 76.4841C108.341 76.4937 108.206 76.5436 107.961 76.6255C107.69 76.7169 107.342 76.8343 106.924 76.9754C106.05 77.2732 104.849 77.7045 103.545 78.2388C102.254 78.7924 101.037 79.242 100.344 79.8427C99.9975 80.1391 99.7987 80.46 99.7006 80.6937C99.6012 80.9289 99.5835 81.0729 99.5703 81.0705C99.5652 81.0698 99.5669 81.0338 99.5746 80.9654C99.5861 80.898 99.6034 80.7969 99.6483 80.6733C99.7327 80.4261 99.9262 80.0832 100.276 79.7661C100.625 79.4484 101.109 79.163 101.665 78.9033C102.221 78.6439 102.837 78.3734 103.49 78.1048C104.798 77.5689 106.008 77.1516 106.893 76.878C107.334 76.7402 107.695 76.6384 107.945 76.5715C108.195 76.506 108.335 76.4745 108.338 76.4841Z" fill="#E0E0E0"/>
<path d="M111.208 69.4329C111.211 69.4367 111.175 69.4754 111.102 69.5457C111.017 69.6259 110.911 69.7257 110.781 69.8479C110.482 70.1193 110.076 70.4884 109.58 70.9384C108.544 71.8615 107.138 73.1131 105.584 74.4962C104.025 75.8846 102.677 77.2111 101.743 78.2099C101.275 78.7087 100.906 79.1219 100.655 79.4104C100.538 79.5443 100.442 79.654 100.365 79.7421C100.297 79.8172 100.26 79.8551 100.256 79.852C100.252 79.8489 100.282 79.8047 100.342 79.7236C100.403 79.643 100.491 79.523 100.612 79.3742C100.85 79.0739 101.208 78.6494 101.667 78.1403C102.584 77.1211 103.925 75.779 105.487 74.3879C107.053 73.0027 108.477 71.7585 109.512 70.8614C110.02 70.4255 110.437 70.0679 110.743 69.8051C110.88 69.6914 110.992 69.5983 111.082 69.5236C111.162 69.4607 111.205 69.4293 111.208 69.4329Z" fill="#E0E0E0"/>
<path d="M103.901 75.908C103.86 75.8897 104.186 75.1373 104.511 74.186C104.838 73.2346 104.992 72.4318 105.034 72.4385C105.072 72.4424 104.979 73.2687 104.648 74.2325C104.485 74.7135 104.304 75.1366 104.163 75.4368C104.02 75.7371 103.919 75.9159 103.901 75.908Z" fill="#E0E0E0"/>
<path d="M99.589 81.9732C99.5808 81.9792 99.4956 81.8794 99.3485 81.6941C99.1853 81.485 98.9792 81.2203 98.7329 80.9045C98.2157 80.2358 97.5008 79.313 96.6994 78.3031C95.8973 77.2932 95.161 76.3872 94.6272 75.7318C94.3757 75.4202 94.1648 75.1591 93.998 74.953C93.8511 74.7677 93.7733 74.6621 93.7808 74.6556C93.7882 74.6491 93.8804 74.7422 94.0407 74.9165C94.2012 75.0905 94.4283 75.3463 94.7055 75.666C95.2596 76.3051 96.0096 77.202 96.8127 78.2131C97.615 79.2242 98.3182 80.1581 98.8148 80.843C99.0632 81.1855 99.2609 81.4649 99.3939 81.6607C99.5273 81.8566 99.5972 81.9674 99.589 81.9732Z" fill="#E0E0E0"/>
<path d="M97.6694 79.508C97.6457 79.5335 97.1335 78.9256 96.865 78.002C96.667 77.3512 96.6581 76.756 96.6826 76.4836L96.7466 76.4888C96.7181 76.605 96.697 76.666 96.6857 76.6643C96.6742 76.6624 96.6737 76.5978 96.6833 76.4785L96.7474 76.4838C96.7709 76.7538 96.8117 77.3286 97.0042 77.9608C97.2631 78.8557 97.7083 79.4836 97.6694 79.508Z" fill="#E0E0E0"/>
<path d="M95.19 76.39C95.1712 76.4102 95.0066 76.2023 94.6284 76.0639C94.2532 75.9187 93.6885 75.8867 93.0691 75.9398C92.4489 75.9854 91.895 76.0958 91.4988 76.1932C91.1023 76.2914 90.8601 76.3687 90.8527 76.3483C90.8462 76.3312 91.0768 76.2196 91.4714 76.0946C91.8655 75.9705 92.4268 75.8419 93.0583 75.7953C93.6849 75.7413 94.2792 75.7895 94.667 75.9688C95.0599 76.1428 95.2029 76.3864 95.19 76.39Z" fill="#E0E0E0"/>
<path d="M94.6027 75.6348C94.5917 75.6574 94.2756 75.5038 93.7423 75.3214C93.21 75.1383 92.4516 74.9463 91.5955 74.8795C90.7387 74.8157 89.9601 74.8906 89.406 74.9909C88.8511 75.0902 88.5156 75.1942 88.5079 75.1702C88.5048 75.1606 88.5859 75.1267 88.7361 75.073C88.8854 75.0173 89.1077 74.9534 89.3861 74.8906C89.9417 74.7631 90.7344 74.67 91.6065 74.7353C92.4782 74.8032 93.2474 75.0151 93.7773 75.2254C94.0428 75.3298 94.2528 75.4265 94.392 75.5042C94.5321 75.5798 94.607 75.6259 94.6027 75.6348Z" fill="#E0E0E0"/>
<path d="M99.5704 72.4384C99.5315 72.4482 99.2507 71.4722 98.9428 70.2587C98.6349 69.0448 98.417 68.0529 98.4556 68.043C98.4945 68.0332 98.7753 69.009 99.0832 70.223C99.3911 71.4366 99.6093 72.4286 99.5704 72.4384Z" fill="#E0E0E0"/>
<path d="M99.6103 72.4381C99.5671 72.452 99.3867 71.7999 98.9148 71.133C98.4557 70.4521 97.8696 70.1103 97.8912 70.0765C97.8989 70.0614 98.0606 70.1207 98.2862 70.2803C98.5126 70.4377 98.7922 70.7046 99.0334 71.0497C99.5232 71.7438 99.6454 72.4357 99.6103 72.4381Z" fill="#E0E0E0"/>
<path d="M99.5806 101.161C99.565 101.163 99.5354 100.92 99.4224 100.495C99.3108 100.069 99.1006 99.4654 98.7528 98.7596C98.0604 97.3445 96.8006 95.5508 95.1996 93.7539C94.4064 92.8477 93.6367 91.9926 92.9834 91.1739C92.3292 90.3565 91.7914 89.5774 91.3987 88.8884C91.0049 88.1998 90.7483 87.6092 90.5988 87.1923C90.5254 86.9833 90.4714 86.8201 90.4416 86.7073C90.4099 86.5952 90.3955 86.5357 90.4003 86.5342C90.4133 86.5302 90.4862 86.7637 90.6514 87.1722C90.8162 87.5804 91.085 88.16 91.487 88.8368C91.8881 89.5141 92.4305 90.2814 93.0874 91.0904C93.743 91.9004 94.5139 92.751 95.3086 93.6589C96.9137 95.4606 98.1706 97.2771 98.845 98.7154C99.1841 99.4333 99.3816 100.048 99.4771 100.481C99.5237 100.699 99.5549 100.868 99.5659 100.984C99.5803 101.1 99.5856 101.161 99.5806 101.161Z" fill="#E0E0E0"/>
<path d="M107.494 92.2225C107.499 92.2331 107.347 92.3099 107.079 92.4553C106.813 92.6049 106.436 92.835 106.003 93.1665C105.571 93.4977 105.087 93.9323 104.59 94.455C104.094 94.9789 103.584 95.5871 103.062 96.2392C102.02 97.5469 101.045 98.7042 100.461 99.628C100.165 100.086 99.9493 100.473 99.8082 100.744C99.6659 101.014 99.5903 101.166 99.58 101.161C99.5754 101.159 99.5889 101.119 99.6184 101.044C99.6493 100.969 99.6911 100.857 99.7578 100.719C99.8841 100.439 100.087 100.042 100.375 99.5733C100.942 98.6272 101.909 97.4541 102.949 96.1485C103.472 95.4954 103.989 94.8858 104.494 94.3626C105 93.8404 105.496 93.4086 105.942 93.0844C106.387 92.7597 106.777 92.5405 107.053 92.4054C107.19 92.3363 107.302 92.2941 107.376 92.2621C107.451 92.2317 107.492 92.218 107.494 92.2225Z" fill="#E0E0E0"/>
<path d="M107.649 95.122C107.651 95.1431 107.314 95.1839 106.772 95.2492C106.232 95.319 105.481 95.4092 104.693 95.6586C103.909 95.9142 103.257 96.3035 102.832 96.6354C102.403 96.9671 102.2 97.2414 102.18 97.2253C102.173 97.2203 102.215 97.1456 102.31 97.0235C102.404 96.9006 102.557 96.7367 102.767 96.556C103.185 96.1957 103.843 95.7829 104.649 95.5206C105.455 95.2652 106.217 95.1913 106.762 95.1472C107.309 95.1078 107.647 95.1032 107.649 95.122Z" fill="#E0E0E0"/>
<path d="M102.436 96.9076C102.39 96.8816 102.786 96.2783 103.092 95.4666C103.379 94.6475 103.447 93.9294 103.499 93.9376C103.517 93.9397 103.517 94.1195 103.484 94.408C103.45 94.6955 103.38 95.0951 103.228 95.516C103.075 95.9363 102.874 96.2876 102.72 96.5322C102.563 96.7765 102.453 96.9176 102.436 96.9076Z" fill="#E0E0E0"/>
<path d="M110.056 84.4373C110.058 84.4419 110.01 84.4676 109.916 84.512C109.807 84.5614 109.671 84.6233 109.504 84.6992C109.324 84.7765 109.104 84.8746 108.858 85.0047C108.61 85.1324 108.321 85.2641 108.02 85.4449C107.867 85.5317 107.708 85.6225 107.542 85.7168C107.376 85.8121 107.212 85.9253 107.037 86.0345C106.685 86.2484 106.332 86.5119 105.955 86.7807C105.217 87.3404 104.441 88.0033 103.695 88.7684C102.955 89.5412 102.319 90.3392 101.785 91.0957C101.529 91.4816 101.278 91.8437 101.076 92.2033C100.973 92.3816 100.865 92.5493 100.775 92.7183C100.687 92.8873 100.602 93.05 100.52 93.2055C100.35 93.5125 100.228 93.8057 100.109 94.0577C99.9873 94.3088 99.8968 94.531 99.8256 94.7139C99.7555 94.8833 99.6981 95.0216 99.6525 95.132C99.6115 95.227 99.5875 95.2765 99.5829 95.2748C99.5781 95.2731 99.5928 95.2208 99.6252 95.1224C99.6643 95.0091 99.7132 94.8675 99.7732 94.6937C99.8366 94.507 99.9199 94.2807 100.035 94.0256C100.147 93.7695 100.263 93.4714 100.429 93.1599C100.508 93.002 100.591 92.8369 100.677 92.6653C100.765 92.4939 100.871 92.3235 100.973 92.1428C101.171 91.778 101.42 91.411 101.675 91.0201C102.207 90.2537 102.845 89.4469 103.591 88.6681C104.343 87.8967 105.128 87.2317 105.875 86.6737C106.257 86.4058 106.616 86.1442 106.973 85.9333C107.151 85.8255 107.317 85.7139 107.486 85.6205C107.654 85.5284 107.816 85.4398 107.971 85.3551C108.277 85.1792 108.571 85.0532 108.823 84.9317C109.074 84.8081 109.298 84.7169 109.482 84.6473C109.654 84.5813 109.794 84.5276 109.906 84.4849C110.003 84.4491 110.055 84.4325 110.056 84.4373Z" fill="#E0E0E0"/>
<path d="M103.793 88.6341C103.781 88.632 103.85 88.3888 104.138 88.1212C104.418 87.8541 104.93 87.6067 105.525 87.5889C106.119 87.5733 106.634 87.7392 106.986 87.8743C107.339 88.0132 107.545 88.1255 107.538 88.1426C107.529 88.1627 107.309 88.0833 106.952 87.971C106.596 87.862 106.093 87.7185 105.53 87.7339C104.969 87.7512 104.485 87.9672 104.204 88.199C103.918 88.4299 103.816 88.648 103.793 88.6341Z" fill="#E0E0E0"/>
<path d="M102.858 89.5998C102.818 89.5777 103.171 89.0598 103.251 88.318C103.344 87.5773 103.119 86.992 103.163 86.9797C103.179 86.9732 103.258 87.1093 103.326 87.3532C103.394 87.5958 103.44 87.9491 103.395 88.3348C103.35 88.7202 103.224 89.0536 103.102 89.2739C102.98 89.4954 102.872 89.6099 102.858 89.5998Z" fill="#E0E0E0"/>
<path d="M92.6592 102.597C92.8752 106.427 94.0293 110.321 95.8044 114.259H103.524C105.217 110.36 106.291 106.471 106.482 102.597H92.6592Z" fill="#E0E0E0"/>
<path d="M105.231 108.794C105.231 108.834 102.689 108.867 99.5546 108.867C96.419 108.867 93.8779 108.834 93.8779 108.794C93.8779 108.754 96.419 108.722 99.5546 108.722C102.689 108.722 105.231 108.754 105.231 108.794Z" fill="#FAFAFA"/>
<path d="M105.058 110.181C105.058 110.221 102.675 110.253 99.7368 110.253C96.7973 110.253 94.415 110.221 94.415 110.181C94.415 110.141 96.7973 110.108 99.7368 110.108C102.675 110.108 105.058 110.141 105.058 110.181Z" fill="#FAFAFA"/>
<path d="M95.9279 105.111C95.968 105.111 96.0004 105.907 96.0004 106.889C96.0004 107.871 95.968 108.667 95.9279 108.667C95.8879 108.667 95.8555 107.872 95.8555 106.889C95.8557 105.907 95.8881 105.111 95.9279 105.111Z" fill="#FAFAFA"/>
<path d="M100.065 105.111C100.105 105.111 100.137 105.936 100.137 106.953C100.137 107.97 100.105 108.794 100.065 108.794C100.025 108.794 99.9922 107.97 99.9922 106.953C99.9924 105.936 100.025 105.111 100.065 105.111Z" fill="#FAFAFA"/>
<path d="M103.947 105.08C103.988 105.08 104.02 105.921 104.02 106.958C104.02 107.996 103.988 108.836 103.947 108.836C103.907 108.836 103.875 107.996 103.875 106.958C103.875 105.921 103.908 105.08 103.947 105.08Z" fill="#FAFAFA"/>
<path d="M106.236 105.112C106.236 105.152 103.255 105.184 99.579 105.184C95.9012 105.184 92.9209 105.152 92.9209 105.112C92.9209 105.071 95.9012 105.039 99.579 105.039C103.255 105.039 106.236 105.071 106.236 105.112Z" fill="#FAFAFA"/>
<path d="M110.435 8.61914H91.9395V27.8991H110.435V8.61914Z" fill="#E0E0E0"/>
<path d="M109.183 8.61914H90.6875V27.8991H109.183V8.61914Z" fill="#FAFAFA"/>
<path d="M109.189 27.9047H90.6816V8.61328H109.189V27.9047ZM90.6932 27.8932H109.177V8.62456H90.6932V27.8932Z" fill="#E0E0E0"/>
<path d="M106.697 11.2109H93.1738V25.3073H106.697V11.2109Z" fill="white"/>
<path d="M93.1735 25.4003C93.1841 25.413 93.0557 25.5604 92.8399 25.7884C92.6239 26.0164 92.3205 26.3248 91.9802 26.6598C91.6399 26.9951 91.3274 27.2934 91.0968 27.5053C90.8661 27.7173 90.7176 27.8425 90.7058 27.8308C90.6941 27.819 90.8217 27.6724 91.0377 27.4444C91.2537 27.2166 91.5581 26.9073 91.8993 26.5713C92.2406 26.2353 92.5538 25.936 92.7845 25.7241C93.0151 25.5124 93.163 25.3876 93.1735 25.4003Z" fill="#E0E0E0"/>
<path d="M106.696 25.3658C106.709 25.3553 106.856 25.4837 107.084 25.6994C107.312 25.9154 107.621 26.2188 107.956 26.5591C108.291 26.8994 108.589 27.2122 108.801 27.4426C109.013 27.6732 109.138 27.8218 109.127 27.8333C109.115 27.845 108.968 27.7174 108.74 27.5014C108.512 27.2854 108.203 26.981 107.867 26.6398C107.531 26.2985 107.232 25.9853 107.02 25.7546C106.808 25.5242 106.684 25.3764 106.696 25.3658Z" fill="#E0E0E0"/>
<path d="M106.66 11.2479C106.649 11.2352 106.778 11.0878 106.994 10.8598C107.21 10.6318 107.513 10.3234 107.853 9.98837C108.194 9.65309 108.506 9.35477 108.737 9.14261C108.967 8.93069 109.116 8.80541 109.128 8.81717C109.139 8.82893 109.012 8.97557 108.796 9.20357C108.58 9.43157 108.275 9.74069 107.934 10.0767C107.593 10.4127 107.28 10.712 107.049 10.9239C106.818 11.136 106.671 11.2606 106.66 11.2479Z" fill="#E0E0E0"/>
<path d="M93.1361 11.2826C93.1234 11.2932 92.976 11.1648 92.7482 10.949C92.5202 10.733 92.2118 10.4297 91.8768 10.0894C91.5415 9.74904 91.243 9.43656 91.0313 9.20592C90.8194 8.97528 90.6941 8.82672 90.7058 8.8152C90.7176 8.80344 90.8642 8.93112 91.092 9.14712C91.32 9.36312 91.6291 9.66744 91.9651 10.0087C92.3011 10.35 92.6004 10.6632 92.8123 10.8938C93.0242 11.124 93.1488 11.2718 93.1361 11.2826Z" fill="#E0E0E0"/>
<path d="M106.66 25.3066C106.659 25.3056 106.658 25.2825 106.657 25.2381C106.656 25.1901 106.655 25.1253 106.654 25.0413C106.653 24.8647 106.651 24.6105 106.648 24.2803C106.645 23.6126 106.64 22.6411 106.634 21.4073C106.628 18.9384 106.619 15.4212 106.608 11.2102L106.66 11.2622C102.723 11.2644 98.1 11.267 93.1755 11.2699H93.174L93.234 11.2099C93.2309 16.3838 93.228 21.2242 93.2256 25.3063L93.1743 25.2549C97.2154 25.2657 100.58 25.2749 102.939 25.2811C104.117 25.2869 105.045 25.2914 105.682 25.2945C105.996 25.2972 106.239 25.2991 106.407 25.3006C106.487 25.3018 106.549 25.3027 106.595 25.3034C106.637 25.3049 106.659 25.3056 106.66 25.3066C106.661 25.3075 106.641 25.3085 106.6 25.3094C106.556 25.3102 106.496 25.3111 106.418 25.3123C106.252 25.3138 106.013 25.3157 105.702 25.3183C105.068 25.3214 104.145 25.326 102.971 25.3318C100.604 25.338 97.2286 25.3471 93.174 25.3579L93.1227 25.3581V25.3066C93.1203 21.2244 93.1174 16.3841 93.1143 11.2102V11.1504H93.1743H93.1757C98.1005 11.153 102.724 11.1557 106.66 11.1581H106.712V11.2102C106.701 15.4351 106.692 18.9638 106.686 21.4409C106.68 22.6694 106.675 23.6371 106.672 24.3019C106.669 24.6276 106.668 24.8784 106.666 25.0529C106.665 25.1345 106.664 25.1974 106.663 25.2439C106.662 25.2866 106.661 25.3078 106.66 25.3066Z" fill="#E0E0E0"/>
<path d="M102.191 16.002H97.6787V20.5142H102.191V16.002Z" fill="#F3F3F3"/>
<path d="M29.8461 39.0791H8.72559V69.6923H29.8461V39.0791Z" fill="#E0E0E0"/>
<path d="M28.7884 39.0791H7.66797V69.6923H28.7884V39.0791Z" fill="#F5F5F5"/>
<path d="M26.1644 42.3945H10.292V66.3765H26.1644V42.3945Z" fill="white"/>
<path d="M26.1644 66.3765C26.1644 66.3765 26.1622 66.336 26.1613 66.2592C26.1605 66.18 26.1596 66.0669 26.1581 65.9191C26.1567 65.6176 26.1545 65.1765 26.1519 64.6036C26.1485 63.4543 26.1437 61.7793 26.1377 59.6635C26.1315 55.4347 26.1224 49.4464 26.1118 42.3945L26.1646 42.4471C21.3154 42.4485 15.9418 42.4502 10.2941 42.4519H10.2922L10.3496 42.3945C10.3453 51.4416 10.3412 59.783 10.3378 66.3765L10.292 66.3309C15.1258 66.341 19.0877 66.3492 21.8449 66.3549C23.2239 66.36 24.301 66.3638 25.0366 66.3667C25.4021 66.3688 25.6822 66.3705 25.8745 66.3717C26.0645 66.3734 26.1644 66.3765 26.1644 66.3765C26.1644 66.3765 26.071 66.3799 25.8843 66.3816C25.6942 66.3828 25.4168 66.3844 25.0551 66.3868C24.3219 66.3895 23.2481 66.3933 21.8734 66.3984C19.1096 66.4041 15.1376 66.4123 10.292 66.4224H10.2461V66.3765C10.243 59.783 10.2389 51.4416 10.2344 42.3945V42.3369H10.292H10.2939C15.9416 42.3386 21.3149 42.3403 26.1644 42.3417H26.2172V42.3945C26.2066 49.4606 26.1977 55.4608 26.1913 59.698C26.1853 61.8088 26.1805 63.4797 26.1771 64.6262C26.1745 65.1945 26.1723 65.632 26.1709 65.9311C26.1694 66.0763 26.1685 66.1874 26.1677 66.2652C26.1665 66.34 26.1644 66.3765 26.1644 66.3765Z" fill="#E0E0E0"/>
<path d="M28.8475 39.0785C28.8597 39.0881 28.7165 39.2974 28.4709 39.6254C28.2257 39.9535 27.8774 40.3999 27.48 40.8823C27.0823 41.365 26.711 41.7922 26.436 42.096C26.161 42.3996 25.9831 42.5806 25.9713 42.5702C25.9593 42.5597 26.1153 42.36 26.3745 42.043C26.6577 41.6995 27.006 41.2766 27.3914 40.8094C27.7764 40.3418 28.1244 39.919 28.4073 39.5753C28.6687 39.2602 28.8348 39.0686 28.8475 39.0785Z" fill="#E0E0E0"/>
<path d="M26.2451 66.2988C27.0335 67.5523 27.964 68.7163 29.0135 69.7611L26.2451 66.2988Z" fill="white"/>
<path d="M29.0135 69.7611C29.0032 69.7717 28.8145 69.6082 28.5308 69.3221C28.2469 69.0363 27.8708 68.6247 27.4866 68.1445C27.1026 67.6635 26.7836 67.2061 26.5672 66.8665C26.3504 66.5266 26.2324 66.307 26.2451 66.2991C26.2595 66.2902 26.4016 66.4942 26.6344 66.8209C26.8672 67.1477 27.1943 67.5946 27.5761 68.0727C27.9582 68.5501 28.3223 68.9677 28.5899 69.2665C28.8575 69.5655 29.0255 69.7491 29.0135 69.7611Z" fill="#E0E0E0"/>
<path d="M7.66504 69.6672C8.58712 68.5293 9.50944 67.3917 10.4315 66.2539L7.66504 69.6672Z" fill="white"/>
<path d="M10.4313 66.2543C10.456 66.2742 9.85648 67.0547 9.0928 67.9969C8.32864 68.9397 7.68952 69.6875 7.6648 69.6676C7.64008 69.6477 8.23936 68.8674 9.00352 67.9247C9.7672 66.9825 10.4066 66.2344 10.4313 66.2543Z" fill="#E0E0E0"/>
<path d="M7.66779 39.0785C7.69275 39.0588 8.29395 39.7776 9.01059 40.6836C9.72747 41.5901 10.2881 42.3406 10.2634 42.3603C10.2384 42.38 9.63747 41.6614 8.92059 40.7549C8.20371 39.8489 7.64283 39.0982 7.66779 39.0785Z" fill="#E0E0E0"/>
<path d="M21.2191 47.2637H15.9043V62.3537H21.2191V47.2637Z" fill="#016B83"/>
<path d="M18.7045 17.9176C14.2842 19.7277 12.1604 24.7968 13.9703 29.2171L19.3465 42.3468L21.7587 41.3589L16.3825 28.2292C15.117 25.139 16.6019 21.5952 19.6921 20.3296C22.7823 19.0644 26.3262 20.549 27.5917 23.6392L30.0039 22.6514C28.1939 18.2316 23.1248 16.1076 18.7045 17.9176Z" fill="#EF9A07"/>
<g opacity="0.3">
<path d="M18.7045 17.9176C14.2842 19.7277 12.1604 24.7968 13.9703 29.2171L19.3465 42.3468L21.7587 41.3589L16.3825 28.2292C15.117 25.139 16.6019 21.5952 19.6921 20.3296C22.7823 19.0644 26.3262 20.549 27.5917 23.6392L30.0039 22.6514C28.1939 18.2316 23.1248 16.1076 18.7045 17.9176Z" fill="black"/>
</g>
<path d="M40.1611 43.1906L21.1346 50.9815C20.4218 51.2733 19.6075 50.9321 19.3157 50.2193L14.6961 38.9378C14.4043 38.225 14.7456 37.4107 15.4584 37.1189L34.4849 29.328C35.1977 29.0361 36.012 29.3774 36.3038 30.0902L40.9233 41.3717C41.2149 42.0845 40.8739 42.8988 40.1611 43.1906Z" fill="#EF9A07"/>
<g opacity="0.5">
<path d="M28.8765 37.6091C28.468 36.6117 27.3282 36.1341 26.3308 36.5426C25.3334 36.951 24.8558 38.0908 25.2642 39.088C25.6022 39.9134 26.4412 40.3737 27.2858 40.2796L28.3914 42.9798L29.3769 42.5764L28.2712 39.8762C28.9394 39.351 29.2146 38.4345 28.8765 37.6091Z" fill="black"/>
</g>
<path d="M20.458 49.7243C20.4084 49.7447 19.4217 47.4491 18.2541 44.5979C17.0863 41.7458 16.1798 39.418 16.2295 39.3976C16.2789 39.3772 17.2656 41.6723 18.4336 44.5245C19.601 47.3757 20.5075 49.7039 20.458 49.7243Z" fill="#FAFAFA"/>
<path d="M26.604 41.2436C26.6019 41.2548 26.5078 41.25 26.3429 41.2102C26.178 41.1711 25.9447 41.0844 25.6831 40.9265C25.1655 40.6227 24.5287 39.9464 24.3739 38.9981C24.2297 38.0477 24.6279 37.2087 25.0272 36.7604C25.2276 36.5295 25.423 36.3754 25.5679 36.2876C25.7127 36.199 25.8005 36.1657 25.806 36.1755C25.8274 36.2062 25.4907 36.3826 25.1338 36.8465C24.7793 37.2958 24.4318 38.0902 24.5655 38.9679C24.7078 39.8436 25.2826 40.4931 25.7578 40.8116C26.2402 41.1435 26.6148 41.2076 26.604 41.2436Z" fill="#FAFAFA"/>
<path d="M11.2858 43.6099L11.4026 43.2695L11.6261 43.5515C11.8051 43.7774 12.0451 43.9471 12.3178 44.0407L12.6581 44.1575L12.3761 44.381C12.1502 44.56 11.9803 44.8 11.887 45.0727L11.7701 45.413L11.5466 45.131C11.3676 44.9051 11.1276 44.7355 10.855 44.6419L10.5146 44.525L10.7966 44.3015C11.0222 44.1225 11.1922 43.8825 11.2858 43.6099Z" fill="#EF9A07"/>
<path d="M22.6764 30.221L22.7443 30.0234L22.8741 30.1871C22.978 30.3182 23.1175 30.4168 23.2756 30.4713L23.4732 30.5392L23.3095 30.669C23.1782 30.773 23.0798 30.9124 23.0253 31.0706L22.9574 31.2681L22.8276 31.1044C22.7236 30.9734 22.5842 30.8747 22.426 30.8202L22.2285 30.7523L22.3922 30.6225C22.5235 30.5188 22.6219 30.3794 22.6764 30.221Z" fill="#EF9A07"/>
<path d="M8.98033 31.8881L9.17665 31.3164L9.55201 31.7902C9.85273 32.1696 10.2562 32.455 10.7141 32.6122L11.2858 32.8085L10.812 33.1838C10.4326 33.4846 10.1472 33.888 9.99001 34.3459L9.79369 34.9176L9.41833 34.4438C9.11761 34.0644 8.71417 33.779 8.25625 33.6218L7.68457 33.4255L8.15833 33.0502C8.53801 32.7494 8.82313 32.3462 8.98033 31.8881Z" fill="#EF9A07"/>
<path d="M75.1224 115.175L39.6951 115.154C35.4341 115.152 31.9815 111.696 31.9824 107.435L31.9997 18.6181C32.0007 14.3547 35.4581 10.8999 39.7215 10.9023L75.1491 10.9232C79.41 10.9259 82.8624 14.3811 82.8615 18.6419L82.8439 107.459C82.8432 111.723 79.3858 115.178 75.1224 115.175Z" fill="#263238"/>
<path d="M75.0889 14.0646L68.2201 14.0605C67.299 14.06 66.5519 14.8403 66.5521 15.8031L66.5516 17.049C66.5516 18.0119 65.8045 18.7921 64.8836 18.7916L51.4947 18.7837C50.5736 18.7832 49.827 18.002 49.8272 17.0391L49.8275 15.7933C49.8275 14.8304 49.0808 14.0492 48.1597 14.0487L45.7441 14.0473L39.7323 14.0439C36.7467 14.0423 34.3251 16.4619 34.3247 19.4475L34.3076 106.14C34.3069 109.124 36.7249 111.544 39.7091 111.546L75.0659 111.566C78.0515 111.568 80.4728 109.149 80.4735 106.163L80.4906 19.4703C80.4908 16.4859 78.0731 14.0663 75.0889 14.0646Z" fill="white"/>
<path d="M54.1377 104.941C54.1409 105.316 53.8394 105.622 53.4645 105.625C53.0897 105.628 52.7832 105.327 52.7803 104.952C52.7772 104.577 53.0786 104.271 53.4535 104.268C53.8284 104.264 54.1346 104.566 54.1377 104.941Z" fill="#263238"/>
<path d="M57.9407 104.91C57.9438 105.284 57.6424 105.591 57.2675 105.594C56.8926 105.597 56.5862 105.296 56.583 104.921C56.5799 104.546 56.8814 104.239 57.2562 104.236C57.6311 104.233 57.9376 104.535 57.9407 104.91Z" fill="#263238"/>
<path d="M61.7434 104.878C61.7466 105.253 61.4451 105.56 61.0702 105.563C60.6954 105.566 60.3889 105.264 60.3858 104.89C60.3826 104.515 60.6841 104.208 61.059 104.205C61.4338 104.202 61.7403 104.503 61.7434 104.878Z" fill="#263238"/>
<path d="M77.5131 52.0731C77.5131 52.1077 68.6262 52.1355 57.6663 52.1355C46.7024 52.1355 37.8174 52.1075 37.8174 52.0731C37.8174 52.0386 46.7024 52.0107 57.6663 52.0107C68.6262 52.0107 77.5131 52.0386 77.5131 52.0731Z" fill="#E0E0E0"/>
<path d="M76.5825 88.6161C76.5825 88.6507 67.6955 88.6785 56.7354 88.6785C45.7715 88.6785 36.8867 88.6504 36.8867 88.6161C36.8867 88.5818 45.7718 88.5537 56.7354 88.5537C67.6958 88.5537 76.5825 88.5818 76.5825 88.6161Z" fill="#E0E0E0"/>
<path d="M67.6047 91.3603C67.6047 91.3948 62.6681 91.4227 56.5798 91.4227C50.4893 91.4227 45.5537 91.3946 45.5537 91.3603C45.5537 91.3257 50.4893 91.2979 56.5798 91.2979C62.6679 91.2976 67.6047 91.3257 67.6047 91.3603Z" fill="#E0E0E0"/>
<path d="M41.5738 62.5973L42.3257 63.0043L41.9875 63.5702L41.2287 63.1217L41.2426 63.9564H40.5941L40.6011 63.1147L39.8419 63.57L39.5107 63.0041L40.2629 62.597L39.5107 62.183L39.8419 61.6171L40.6011 62.0724L40.5941 61.2305H41.2426L41.2287 62.0724L41.9875 61.6171L42.3257 62.183L41.5738 62.5973Z" fill="#EF9A07"/>
<path d="M42.9119 67.8247H39.274C38.3389 67.8247 37.5781 67.0639 37.5781 66.1289V59.6734C37.5781 58.7383 38.3389 57.9775 39.274 57.9775H42.9119C43.8469 57.9775 44.6077 58.7383 44.6077 59.6734V66.1289C44.6077 67.0639 43.8469 67.8247 42.9119 67.8247ZM39.274 58.0973C38.4049 58.0973 37.6981 58.8043 37.6981 59.6731V66.1287C37.6981 66.9977 38.4052 67.7045 39.274 67.7045H42.9119C43.7809 67.7045 44.4877 66.9977 44.4877 66.1287V59.6731C44.4877 58.8041 43.7807 58.0973 42.9119 58.0973H39.274Z" fill="#263238"/>
<path d="M51.3572 67.8247H47.7193C46.7842 67.8247 46.0234 67.0639 46.0234 66.1289V59.6734C46.0234 58.7383 46.7842 57.9775 47.7193 57.9775H51.3572C52.2922 57.9775 53.053 58.7383 53.053 59.6734V66.1289C53.053 67.0639 52.2922 67.8247 51.3572 67.8247ZM47.719 58.0973C46.85 58.0973 46.1432 58.8043 46.1432 59.6731V66.1287C46.1432 66.9977 46.8502 67.7045 47.719 67.7045H51.357C52.226 67.7045 52.9328 66.9977 52.9328 66.1287V59.6731C52.9328 58.8041 52.2258 58.0973 51.357 58.0973H47.719Z" fill="#263238"/>
<path d="M59.5711 67.8247H55.9331C54.9981 67.8247 54.2373 67.0639 54.2373 66.1289V59.6734C54.2373 58.7383 54.9981 57.9775 55.9331 57.9775H59.5711C60.5061 57.9775 61.2669 58.7383 61.2669 59.6734V66.1289C61.2671 67.0639 60.5063 67.8247 59.5711 67.8247ZM55.9331 58.0973C55.0641 58.0973 54.3573 58.8043 54.3573 59.6731V66.1287C54.3573 66.9977 55.0643 67.7045 55.9331 67.7045H59.5711C60.4401 67.7045 61.1469 66.9977 61.1469 66.1287V59.6731C61.1469 58.8041 60.4399 58.0973 59.5711 58.0973H55.9331Z" fill="#263238"/>
<path d="M67.8777 67.8247H64.2398C63.3045 67.8247 62.5439 67.0639 62.5439 66.1289V59.6734C62.5439 58.7383 63.3047 57.9775 64.2398 57.9775H67.8777C68.8127 57.9775 69.5735 58.7383 69.5735 59.6734V66.1289C69.5738 67.0639 68.813 67.8247 67.8777 67.8247ZM64.2398 58.0973C63.3707 58.0973 62.6639 58.8043 62.6639 59.6731V66.1287C62.6639 66.9977 63.3707 67.7045 64.2398 67.7045H67.8777C68.7467 67.7045 69.4535 66.9977 69.4535 66.1287V59.6731C69.4535 58.8041 68.7467 58.0973 67.8777 58.0973H64.2398Z" fill="#263238"/>
<path d="M75.9431 67.8247H72.3052C71.3699 67.8247 70.6094 67.0639 70.6094 66.1289V59.6734C70.6094 58.7383 71.3702 57.9775 72.3052 57.9775H75.9431C76.8782 57.9775 77.639 58.7383 77.639 59.6734V66.1289C77.639 67.0639 76.8782 67.8247 75.9431 67.8247ZM72.3052 58.0973C71.4362 58.0973 70.7294 58.8043 70.7294 59.6731V66.1287C70.7294 66.9977 71.4362 67.7045 72.3052 67.7045H75.9431C76.8122 67.7045 77.519 66.9977 77.519 66.1287V59.6731C77.519 58.8041 76.8122 58.0973 75.9431 58.0973H72.3052Z" fill="#263238"/>
<path d="M75.6179 82.6432H40.2877C38.7913 82.6432 37.5781 81.43 37.5781 79.9336V78.2155C37.5781 76.7191 38.7913 75.5059 40.2877 75.5059H75.6179C77.1143 75.5059 78.3275 76.7191 78.3275 78.2155V79.9336C78.3275 81.4303 77.1143 82.6432 75.6179 82.6432Z" fill="#EF9A07"/>
<path d="M57.4215 41.6555C61.4043 41.6555 64.633 38.4268 64.633 34.4439C64.633 30.4611 61.4043 27.2324 57.4215 27.2324C53.4387 27.2324 50.21 30.4611 50.21 34.4439C50.21 38.4268 53.4387 41.6555 57.4215 41.6555Z" fill="#EF9A07"/>
<path d="M56.1522 33.1328H56.0322V32.4594C56.0322 31.6837 56.6632 31.0527 57.4389 31.0527C58.2146 31.0527 58.8455 31.6837 58.8455 32.4594V33.008H58.7255V32.4594C58.7255 31.7499 58.1483 31.1727 57.4389 31.1727C56.7294 31.1727 56.1522 31.7499 56.1522 32.4594V33.1328Z" fill="white" stroke="white"/>
<path d="M59.2096 37.836H55.6333C55.3062 37.836 55.04 37.5699 55.04 37.2428V33.6663C55.04 33.3392 55.3062 33.0732 55.6333 33.0732H59.2096C59.5367 33.0732 59.8028 33.3392 59.8028 33.6663V37.2428C59.8026 37.5699 59.5367 37.836 59.2096 37.836ZM55.6331 33.1932C55.3722 33.1932 55.1598 33.4054 55.1598 33.6663V37.2428C55.1598 37.5036 55.372 37.716 55.6331 37.716H59.2093C59.4702 37.716 59.6826 37.5039 59.6826 37.2428V33.6663C59.6826 33.4054 59.4704 33.1932 59.2093 33.1932H55.6331Z" fill="white" stroke="white"/>
<path d="M57.4383 35.5719C57.1287 35.5719 56.877 35.3202 56.877 35.0106C56.877 34.701 57.1287 34.4492 57.4383 34.4492C57.7479 34.4492 57.9997 34.701 57.9997 35.0106C57.9997 35.3202 57.7479 35.5719 57.4383 35.5719ZM57.4383 34.5695C57.195 34.5695 56.997 34.7675 56.997 35.0108C56.997 35.2542 57.195 35.4522 57.4383 35.4522C57.6817 35.4522 57.8797 35.2542 57.8797 35.0108C57.8797 34.7672 57.6817 34.5695 57.4383 34.5695Z" fill="white" stroke="white"/>
<path d="M57.4813 35.4863H57.3613V36.4996H57.4813V35.4863Z" fill="white" stroke="white"/>
<path d="M111.144 115.241C111.144 115.276 87.8234 115.304 59.062 115.304C30.2908 115.304 6.97461 115.275 6.97461 115.241C6.97461 115.207 30.2906 115.179 59.062 115.179C87.8234 115.179 111.144 115.207 111.144 115.241Z" fill="#263238"/>
<path d="M20.5779 82.1897C22.862 78.6958 22.7742 73.589 20.0461 70.4294C19.1994 69.4488 18.0159 68.5963 16.725 68.707C15.4033 68.82 14.3382 69.9538 13.9362 71.2178C13.5339 72.4819 13.6734 73.8516 13.9098 75.157C14.2405 76.9848 14.7944 78.8549 16.0623 80.2123C17.33 81.57 18.9478 83.0803 20.5779 82.1897Z" fill="#EF9A07"/>
<path d="M19.5595 98.891C20.4197 96.8839 19.7959 94.3425 18.1039 92.9618C17.5788 92.5334 16.8919 92.2015 16.2367 92.3752C15.5659 92.5533 15.12 93.234 15.0273 93.9216C14.9347 94.6094 15.1308 95.3023 15.3708 95.9534C15.7068 96.8652 16.1616 97.7784 16.938 98.363C17.7141 98.9479 18.8004 99.4975 19.5595 98.891Z" fill="#EF9A07"/>
<path d="M25.0685 97.6916C24.4404 94.5942 26.0729 91.1763 28.8768 89.7181C29.7471 89.2654 30.8184 88.9974 31.6954 89.4368C32.5935 89.8866 33.025 90.9824 32.9537 91.9842C32.8824 92.9859 32.4008 93.9104 31.8689 94.7624C31.1242 95.9554 30.2108 97.1158 28.9388 97.7156C27.6668 98.3154 25.9656 98.7747 25.0685 97.6916Z" fill="#EF9A07"/>
<path d="M24.6727 89.3163C23.579 85.7871 25.4332 81.5081 28.5237 79.4832C29.483 78.8547 30.6976 78.4174 31.7692 78.8256C32.8665 79.2435 33.497 80.4675 33.5316 81.6413C33.5661 82.8149 33.1142 83.9468 32.5953 85.0001C31.8691 86.4752 30.9424 87.9317 29.5332 88.7784C28.1241 89.6249 25.8432 90.4707 24.6727 89.3163Z" fill="#EF9A07"/>
<path d="M22.4765 106.566C22.4815 106.566 22.4938 106.507 22.5122 106.395C22.5314 106.266 22.5557 106.103 22.5857 105.903C22.6008 105.794 22.6174 105.675 22.6351 105.547C22.6603 105.417 22.6872 105.277 22.716 105.127C22.7734 104.826 22.8329 104.482 22.9315 104.109C22.9769 103.921 23.0244 103.725 23.0738 103.521C23.1331 103.318 23.1948 103.108 23.2584 102.891C23.3762 102.453 23.55 102 23.713 101.517C24.0746 100.564 24.5239 99.5358 25.0752 98.4961C25.637 97.4617 26.2457 96.5185 26.8399 95.6903C27.1522 95.2875 27.4337 94.8923 27.7337 94.5519C27.8796 94.3789 28.0205 94.2114 28.1563 94.0501C28.2991 93.896 28.4364 93.7482 28.5679 93.6063C28.8245 93.3179 29.0782 93.0781 29.2975 92.864C29.406 92.7575 29.5078 92.6576 29.6026 92.5647C29.6998 92.4788 29.7895 92.3996 29.8716 92.3269C30.0223 92.1911 30.1447 92.0807 30.2412 91.9938C30.3247 91.9163 30.367 91.8735 30.3638 91.8695C30.3607 91.8654 30.312 91.9002 30.2222 91.9705C30.1207 92.0521 29.9921 92.1555 29.8337 92.283C29.7485 92.3528 29.6556 92.4291 29.5548 92.5119C29.4571 92.6024 29.3522 92.6996 29.2402 92.8033C29.0146 93.0128 28.7542 93.2483 28.4914 93.5336C28.357 93.674 28.2166 93.8207 28.0704 93.9733C27.9317 94.1336 27.7877 94.3002 27.6386 94.4723C27.3326 94.8111 27.0461 95.2059 26.7288 95.6089C26.1245 96.4376 25.5084 97.3847 24.9432 98.4255C24.3883 99.4717 23.94 100.508 23.5831 101.47C23.4226 101.957 23.2522 102.414 23.1389 102.856C23.0777 103.075 23.0186 103.287 22.9615 103.492C22.9152 103.698 22.8706 103.896 22.8278 104.085C22.7354 104.462 22.6829 104.809 22.6332 105.113C22.6087 105.264 22.5857 105.405 22.5643 105.536C22.5511 105.666 22.5389 105.786 22.5276 105.895C22.5091 106.098 22.494 106.262 22.482 106.392C22.4734 106.505 22.4712 106.565 22.4765 106.566Z" fill="#263238"/>
<path d="M22.557 107.2C22.5596 107.2 22.5594 107.176 22.557 107.13C22.5529 107.075 22.5481 107.008 22.5418 106.925C22.5241 106.734 22.5001 106.472 22.4696 106.141C22.4528 105.97 22.4341 105.781 22.4137 105.575C22.3981 105.368 22.3923 105.142 22.3798 104.9C22.3618 104.415 22.3153 103.863 22.3326 103.253C22.334 102.947 22.3357 102.627 22.3371 102.294C22.3405 101.961 22.3719 101.615 22.389 101.257C22.413 100.539 22.5106 99.7777 22.597 98.9754C22.8162 97.3767 23.1586 95.6322 23.6797 93.8435C24.218 92.0591 24.8821 90.4095 25.5699 88.9496C25.935 88.2299 26.2681 87.5384 26.6394 86.9233C26.8206 86.6135 26.9826 86.3065 27.1616 86.0252C27.3418 85.7451 27.5149 85.4763 27.6802 85.2193C27.999 84.6978 28.3383 84.261 28.6179 83.8643C28.7607 83.6679 28.8884 83.4817 29.0146 83.3163C29.1438 83.1548 29.2623 83.0067 29.3698 82.8723C29.5758 82.6117 29.7387 82.4055 29.8578 82.2546C29.9077 82.1888 29.9485 82.1351 29.9818 82.0914C30.0092 82.0542 30.0222 82.034 30.0202 82.0323C30.0183 82.0307 30.0013 82.0472 29.9701 82.0813C29.9336 82.1226 29.8892 82.1732 29.8347 82.2349C29.7099 82.3818 29.5398 82.5822 29.3242 82.8359C29.2134 82.9681 29.0912 83.1138 28.958 83.2727C28.8282 83.4356 28.6969 83.6199 28.5505 83.8143C28.2639 84.2072 27.9174 84.6414 27.5919 85.161C27.4234 85.4173 27.247 85.6854 27.0634 85.9645C26.8815 86.2451 26.7162 86.5518 26.5318 86.8614C26.1543 87.4763 25.8157 88.1684 25.4458 88.8896C24.7482 90.3524 24.0771 92.0082 23.5362 93.801C23.0125 95.5981 22.6726 97.3515 22.4602 98.9581C22.3772 99.7643 22.2838 100.529 22.2651 101.25C22.2507 101.61 22.2222 101.958 22.2217 102.292C22.2234 102.626 22.225 102.947 22.2267 103.254C22.2164 103.867 22.2702 104.419 22.2963 104.905C22.3129 105.148 22.3227 105.374 22.3426 105.581C22.3676 105.787 22.3906 105.976 22.4115 106.147C22.4538 106.477 22.4874 106.738 22.5118 106.929C22.5238 107.011 22.5337 107.078 22.5416 107.132C22.5493 107.177 22.5543 107.201 22.557 107.2Z" fill="#263238"/>
<path d="M16.6097 72.9258C16.6075 72.9273 16.6173 72.9494 16.6389 72.9911C16.6653 73.0403 16.6975 73.1006 16.7373 73.1745C16.8326 73.3444 16.9629 73.5772 17.1278 73.8714C17.2116 74.0231 17.3121 74.1878 17.4091 74.375C17.5034 74.5646 17.6054 74.7698 17.7146 74.9896C17.8248 75.2104 17.9424 75.4458 18.0669 75.695C18.186 75.9474 18.2993 76.2203 18.4253 76.5033C18.5474 76.7879 18.6849 77.0822 18.8114 77.3958C18.9331 77.7117 19.0598 78.04 19.1906 78.3796C19.2561 78.5495 19.3226 78.7226 19.3901 78.8982C19.4503 79.0766 19.5117 79.2578 19.5739 79.4416C19.698 79.8095 19.8254 80.188 19.9562 80.5761C20.4403 82.1416 20.8992 83.8852 21.2865 85.7368C21.6617 87.5915 21.9249 89.3757 22.1191 91.0036C22.2857 92.6342 22.4088 94.1068 22.4424 95.3464C22.4738 95.9658 22.4803 96.5267 22.4822 97.0192C22.4901 97.5119 22.4921 97.9362 22.4805 98.2828C22.4757 98.6202 22.4721 98.8869 22.4693 99.0818C22.4697 99.1658 22.47 99.2342 22.4702 99.2898C22.4712 99.3369 22.4731 99.3609 22.4755 99.3609C22.4781 99.3609 22.4813 99.3371 22.4853 99.2906C22.4892 99.2351 22.4937 99.1669 22.4995 99.0832C22.5091 98.8883 22.5221 98.6217 22.5389 98.2845C22.5595 97.9374 22.5662 97.5126 22.5662 97.0192C22.5722 96.5258 22.5732 95.9637 22.5485 95.3428C22.5283 94.1001 22.416 92.6236 22.2564 90.9882C22.0692 89.3558 21.8095 87.5663 21.4334 85.7066C21.0449 83.8502 20.5807 82.1022 20.088 80.5343C19.9548 80.1458 19.8247 79.7668 19.6985 79.3982C19.6349 79.2143 19.5722 79.0329 19.5108 78.8543C19.4419 78.6786 19.3737 78.5056 19.307 78.3354C19.1729 77.9958 19.0433 77.6675 18.9187 77.3517C18.7891 77.0382 18.6482 76.7442 18.5225 76.4601C18.3929 76.1776 18.2762 75.9054 18.1536 75.6539C18.0252 75.4058 17.9037 75.1713 17.79 74.9514C17.6765 74.733 17.5706 74.5293 17.4727 74.3411C17.3717 74.1554 17.267 73.9924 17.1792 73.8426C17.0037 73.5539 16.865 73.3254 16.7637 73.1586C16.7189 73.0876 16.6824 73.03 16.6526 72.983C16.6262 72.9438 16.6118 72.9246 16.6097 72.9258Z" fill="#263238"/>
<path d="M17.3863 94.3644C17.3779 94.3702 17.4648 94.5219 17.6292 94.7907C17.7962 95.0578 18.0257 95.4521 18.2945 95.9463C18.5657 96.4395 18.8606 97.0414 19.1597 97.7218C19.4515 98.4056 19.7433 99.1695 19.9994 99.9884C20.25 100.809 20.4403 101.605 20.5848 102.334C20.7216 103.065 20.8176 103.729 20.8718 104.288C20.9285 104.848 20.9616 105.303 20.9743 105.618C20.9901 105.932 21.0038 106.107 21.0141 106.107C21.0245 106.107 21.0305 105.932 21.0324 105.616C21.0374 105.3 21.0206 104.843 20.9769 104.279C20.9359 103.715 20.8502 103.046 20.7199 102.309C20.5817 101.573 20.3945 100.771 20.142 99.9442C19.8842 99.1196 19.5864 98.3513 19.2857 97.6663C18.9775 96.9845 18.671 96.3838 18.3866 95.8947C18.1046 95.4046 17.8605 95.017 17.6779 94.759C17.4981 94.4993 17.3949 94.3587 17.3863 94.3644Z" fill="#263238"/>
<path d="M26.9624 104.993H16.9287L18.1426 115.241H25.7127L26.9624 104.993Z" fill="#455A64"/>
<path d="M26.5959 114.135L25.7434 115.241H18.1421L17.2656 114.17L26.5959 114.135Z" fill="#263238"/>
<path d="M17.3193 108.007C17.3193 108.049 19.4016 108.082 21.9696 108.082C24.5385 108.082 26.6203 108.049 26.6203 108.007C26.6203 107.966 24.5385 107.933 21.9696 107.933C19.4016 107.933 17.3193 107.966 17.3193 108.007Z" fill="#FAFAFA"/>
<path d="M17.3193 108.69C17.3193 108.731 19.4016 108.765 21.9696 108.765C24.5385 108.765 26.6203 108.731 26.6203 108.69C26.6203 108.649 24.5385 108.615 21.9696 108.615C19.4016 108.615 17.3193 108.649 17.3193 108.69Z" fill="#FAFAFA"/>
<path d="M17.4443 109.35C17.4443 109.392 19.4536 109.425 21.9319 109.425C24.4108 109.425 26.4196 109.392 26.4196 109.35C26.4196 109.309 24.4108 109.275 21.9319 109.275C19.4536 109.275 17.4443 109.309 17.4443 109.35Z" fill="#FAFAFA"/>
<path d="M25.4292 82.9063C25.4256 82.9067 25.426 82.9403 25.4304 83.0042C25.4366 83.0795 25.444 83.1712 25.4534 83.2823C25.4793 83.5389 25.5144 83.884 25.5566 84.3033C25.6483 85.1649 25.7817 86.3546 25.9353 87.6676C25.9413 87.7178 25.9471 87.7679 25.9526 87.8143L25.9579 87.8584L26.0023 87.8591C27.2913 87.8791 28.4515 87.8915 29.2893 87.8956C29.6966 87.8954 30.0312 87.8954 30.2803 87.8954C30.3876 87.8932 30.4761 87.8915 30.5493 87.8903C30.6108 87.8879 30.6432 87.8853 30.6432 87.8817C30.6432 87.8783 30.611 87.8745 30.5498 87.8702C30.4768 87.8663 30.3883 87.862 30.2812 87.8565C30.0321 87.8486 29.6978 87.838 29.2908 87.8251C28.4532 87.8027 27.2932 87.7785 26.0042 87.7579L26.0539 87.8027C26.0484 87.7564 26.0426 87.7063 26.0368 87.6559C25.8832 86.3428 25.7383 85.1546 25.6286 84.2951C25.5729 83.8773 25.5273 83.5336 25.4932 83.2778C25.4764 83.1676 25.4628 83.0764 25.4512 83.0018C25.44 82.9387 25.4325 82.9058 25.4292 82.9063Z" fill="#263238"/>
<path d="M27.7105 79.8418C27.7069 79.8418 27.7043 79.8766 27.7026 79.9424C27.7019 80.0196 27.7012 80.1147 27.7002 80.2301C27.7026 80.4951 27.706 80.8527 27.7098 81.2876C27.7225 82.1804 27.7468 83.4137 27.7801 84.7755C27.7816 84.8307 27.7828 84.8854 27.7842 84.9365L27.7856 84.99L27.8389 84.986C29.1594 84.8832 30.3527 84.882 31.2126 84.9099C31.6427 84.9231 31.99 84.9408 32.2297 84.9536C32.3401 84.9588 32.4313 84.9632 32.506 84.9668C32.5691 84.9689 32.6024 84.9682 32.6029 84.9648C32.6032 84.9615 32.5705 84.9552 32.5079 84.9466C32.4452 84.9384 32.3526 84.9264 32.2328 84.9149C31.9936 84.8902 31.6465 84.8619 31.2155 84.8393C30.3541 84.7932 29.1565 84.7827 27.831 84.8849L27.8857 84.9344C27.8845 84.8835 27.8831 84.8285 27.8819 84.7733C27.8485 83.4113 27.8128 82.1784 27.7818 81.2861C27.7645 80.8515 27.7504 80.4941 27.7398 80.2294C27.7331 80.1144 27.7278 80.0194 27.7232 79.9421C27.7182 79.8761 27.7139 79.8416 27.7105 79.8418Z" fill="#263238"/>
<path d="M30.3811 78.7979C30.3742 78.7969 30.353 78.9018 30.3187 79.0921C30.2803 79.2997 30.2304 79.5711 30.1699 79.8987C30.0399 80.5796 29.8368 81.5185 29.5498 82.5462L29.5195 82.6542L29.6213 82.6052C29.6595 82.587 29.7005 82.5671 29.7415 82.5471C30.7272 82.0703 31.7057 81.8499 32.4158 81.765C32.7718 81.7213 33.0622 81.705 33.263 81.6978C33.4639 81.6911 33.5753 81.6884 33.5755 81.6807C33.5755 81.6771 33.5479 81.6735 33.4949 81.6695C33.4418 81.6661 33.3636 81.6594 33.2626 81.6584C33.0607 81.6536 32.7679 81.6589 32.4079 81.6939C31.6898 81.7614 30.6955 81.9733 29.6974 82.4562C29.6556 82.4763 29.6141 82.4963 29.5755 82.515L29.6472 82.574C29.9343 81.5425 30.1265 80.5976 30.2391 79.9119C30.2957 79.569 30.3341 79.2911 30.3567 79.0986C30.3797 78.9056 30.3876 78.7988 30.3811 78.7979Z" fill="#263238"/>
<path d="M16.2119 97.4805C16.2138 97.4959 16.5028 97.4664 16.9708 97.4479C17.4383 97.4304 18.0861 97.4311 18.7955 97.5074C18.9395 97.5225 19.0806 97.5405 19.2153 97.5588L19.2633 97.5652L19.2717 97.518C19.3799 96.9112 19.4709 96.3765 19.5318 95.9928C19.5926 95.609 19.6233 95.3762 19.6108 95.374C19.5983 95.3719 19.545 95.6004 19.4668 95.981C19.3886 96.3616 19.2854 96.8942 19.173 97.5002L19.2294 97.4596C19.0936 97.4402 18.9515 97.4215 18.8061 97.4064C18.0902 97.3293 17.4359 97.3399 16.9665 97.3761C16.7315 97.3944 16.5424 97.4181 16.4123 97.4376C16.2822 97.4582 16.211 97.4736 16.2119 97.4805Z" fill="#263238"/>
<path d="M15.2637 95.5975C15.2675 95.6136 15.5447 95.5483 15.9988 95.4922C16.4522 95.4365 17.086 95.4012 17.7794 95.4744C17.8874 95.4854 17.9935 95.4996 18.0938 95.5133L18.1461 95.5205L18.1514 95.4687C18.2145 94.8449 18.2659 94.2922 18.298 93.895C18.3302 93.4978 18.3434 93.2563 18.3307 93.2549C18.3179 93.2534 18.2812 93.4927 18.2311 93.888C18.1809 94.2833 18.1175 94.8348 18.0511 95.4583L18.1087 95.4137C18.0069 95.399 17.8994 95.3846 17.7899 95.3734C17.0867 95.299 16.444 95.3465 15.9887 95.4211C15.7607 95.4581 15.5786 95.5003 15.454 95.5332C15.3295 95.5675 15.262 95.5908 15.2637 95.5975Z" fill="#263238"/>
<path d="M14.584 77.7575C14.5826 77.7606 14.6169 77.7784 14.6836 77.8094C14.7609 77.8437 14.8579 77.8869 14.9767 77.9397C15.2457 78.0544 15.6134 78.2109 16.0617 78.4017C16.9934 78.7876 18.2584 79.3115 19.6562 79.8906C19.7227 79.9178 19.7889 79.9449 19.8503 79.9701L19.8959 79.9888L19.9159 79.9439C20.5094 78.6038 21.0427 77.3992 21.4346 76.5141C21.6194 76.0852 21.7706 75.7341 21.8815 75.4768C21.9287 75.3621 21.9671 75.2685 21.9981 75.1934C22.0238 75.1281 22.0358 75.0933 22.0327 75.0918C22.0295 75.0904 22.0115 75.1226 21.9799 75.1852C21.9446 75.2582 21.9004 75.3494 21.8462 75.461C21.7281 75.7151 21.5671 76.0617 21.3703 76.4853C20.9711 77.367 20.4278 78.567 19.8235 79.9024L19.889 79.8762C19.8275 79.851 19.7613 79.8239 19.6948 79.7968C18.2927 79.2285 17.0236 78.7142 16.0891 78.3354C15.6355 78.1569 15.2639 78.0105 14.9918 77.9032C14.8699 77.8574 14.7705 77.8202 14.6915 77.7904C14.6224 77.7657 14.5855 77.7544 14.584 77.7575Z" fill="#263238"/>
<path d="M13.7051 73.424C13.7035 73.4269 13.7337 73.4492 13.7935 73.489C13.8628 73.5339 13.9499 73.5901 14.0567 73.659C14.2994 73.8102 14.6311 74.017 15.0364 74.2695C15.8805 74.7841 17.0289 75.4844 18.3047 76.2625L18.3571 76.2944L18.3787 76.2366C18.3974 76.1866 18.4175 76.1329 18.4377 76.0789C18.9705 74.6415 19.4524 73.3407 19.8074 72.3834C19.9744 71.9187 20.1115 71.5378 20.2115 71.2594C20.2543 71.1346 20.2888 71.0329 20.3167 70.9522C20.3397 70.8817 20.35 70.844 20.3467 70.8428C20.3433 70.8416 20.3265 70.8769 20.2972 70.9453C20.2648 71.0245 20.2243 71.1238 20.1743 71.246C20.0668 71.5218 19.9195 71.8986 19.7399 72.3589C19.3778 73.3136 18.886 74.6106 18.3424 76.0441C18.3223 76.0981 18.3021 76.1518 18.2834 76.2018L18.3573 76.1758C17.0752 75.4081 15.9213 74.7171 15.0731 74.2093C14.6611 73.9678 14.3239 73.7706 14.0769 73.6261C13.9663 73.5637 13.876 73.5128 13.804 73.472C13.7407 73.4377 13.7068 73.4211 13.7051 73.424Z" fill="#263238"/>
<path d="M13.9932 71.1106C13.9904 71.1166 14.0674 71.1601 14.2085 71.2378C14.3496 71.3158 14.5534 71.4306 14.8008 71.5842C15.296 71.8897 15.9617 72.363 16.6193 73.0071L16.7451 73.1302L16.7031 72.9586C16.6592 72.7794 16.6186 72.59 16.5874 72.3954C16.4199 71.3523 16.5507 70.3861 16.7292 69.7215C16.8185 69.3874 16.9174 69.1249 16.9863 68.9437C17.0597 68.7644 17.1003 68.6646 17.0936 68.6612C17.0878 68.6583 17.0352 68.7524 16.95 68.9281C16.8694 69.1057 16.7595 69.3666 16.6601 69.7021C16.4616 70.369 16.3167 71.3504 16.4871 72.4112C16.5188 72.609 16.5603 72.8014 16.6056 72.9836L16.6894 72.9351C16.0224 72.2871 15.3423 71.8191 14.8349 71.527C14.5812 71.3802 14.3715 71.2738 14.2248 71.2057C14.0782 71.1378 13.9959 71.1054 13.9932 71.1106Z" fill="#263238"/>
<path d="M25.4428 93.6084C25.4361 93.6101 25.4538 93.702 25.4889 93.8679C25.5239 94.0335 25.5741 94.2737 25.6288 94.573C25.7394 95.1708 25.8582 96.0079 25.8983 96.9495L25.9002 96.9951L25.9458 96.9979C26.0171 97.0023 26.0937 97.0068 26.1707 97.0116C27.1658 97.0716 28.0665 97.1203 28.719 97.1506C29.0308 97.1628 29.2905 97.1731 29.4921 97.1811C29.6747 97.1861 29.7758 97.1854 29.7762 97.1784C29.7767 97.1715 29.6764 97.1587 29.4945 97.1417C29.2934 97.1254 29.0344 97.1043 28.7236 97.0791C28.0722 97.0306 27.172 96.9706 26.1772 96.9106C26.1002 96.906 26.0236 96.9015 25.9523 96.8971L25.9998 96.9456C25.9581 95.9979 25.8263 95.1569 25.6974 94.56C25.6334 94.2612 25.5726 94.0227 25.5261 93.8595C25.4793 93.6953 25.449 93.6067 25.4428 93.6084Z" fill="#263238"/>
<path d="M27.4146 90.7822C27.4081 90.7832 27.4144 90.8758 27.4312 91.0438C27.4523 91.2298 27.4797 91.4689 27.5123 91.7569C27.5853 92.3605 27.6933 93.1988 27.8197 94.1386L27.8253 94.1797L27.8668 94.1823C27.9697 94.189 28.0792 94.1962 28.1896 94.2034C29.2091 94.2725 30.1285 94.3779 30.7926 94.4643C31.1104 94.507 31.3749 94.5423 31.5791 94.5697C31.7649 94.5949 31.8681 94.6061 31.8693 94.5989C31.8705 94.5922 31.7694 94.5677 31.5856 94.5305C31.4015 94.4938 31.1344 94.4453 30.8029 94.393C30.1401 94.2881 29.2192 94.1713 28.1968 94.1019C28.0859 94.0947 27.976 94.0877 27.873 94.0813L27.9201 94.1249C27.7912 93.1853 27.6714 92.3487 27.5805 91.7475C27.5351 91.4612 27.4977 91.2236 27.4684 91.0388C27.4401 90.8725 27.4211 90.7815 27.4146 90.7822Z" fill="#263238"/>
<path d="M29.7356 89.5645C29.7209 89.5681 29.7819 89.84 29.8534 90.2878C29.9257 90.7354 30.0008 91.3611 30.0147 92.0636L30.0159 92.12L30.0723 92.1128C30.1258 92.1061 30.1829 92.0986 30.2405 92.0914C30.9769 92.0005 31.6493 91.9789 32.1358 91.9789C32.3617 91.9815 32.5541 91.9837 32.7123 91.9854C32.8486 91.988 32.9242 91.987 32.9247 91.9798C32.9252 91.9731 32.8505 91.9606 32.7147 91.9458C32.5789 91.9314 32.3813 91.916 32.137 91.9069C31.6486 91.8882 30.9701 91.8987 30.2283 91.9902C30.1702 91.9976 30.1126 92.005 30.0586 92.012L30.116 92.0612C30.1001 91.3525 30.0125 90.7222 29.9218 90.2754C29.8769 90.0517 29.8333 89.8729 29.7989 89.751C29.7651 89.6288 29.7418 89.5628 29.7356 89.5645Z" fill="#263238"/>
<path d="M16.5157 92.3909C16.4903 92.4046 16.7077 92.8522 16.9635 93.409C17.2203 93.9656 17.4193 94.4216 17.4462 94.411C17.4716 94.4014 17.3142 93.9262 17.0557 93.3663C16.7984 92.8066 16.5397 92.378 16.5157 92.3909Z" fill="#263238"/>
<path d="M15.2549 93.7276C15.2535 93.7595 15.7824 93.7655 16.3954 93.9587C17.0103 94.1461 17.4497 94.4404 17.4667 94.4133C17.4835 94.3955 17.0585 94.0552 16.4256 93.8617C15.7944 93.6633 15.2511 93.7033 15.2549 93.7276Z" fill="#263238"/>
<path d="M44.037 51.3604H43.1599L41.1213 45.5615H41.9497L43.6066 50.5888H43.6228L45.2959 45.5615H46.0999L44.037 51.3604ZM47.2071 45.5615H51.2111V46.2112H47.9787V48.0548H50.9918V48.7046H47.9787V50.7106H51.2355V51.3604H47.2071V45.5615ZM52.6594 45.5615H55.3883C55.9406 45.5615 56.371 45.6968 56.6797 45.9676C56.9937 46.2383 57.1507 46.6092 57.1507 47.0802C57.1507 47.4322 57.0695 47.7408 56.9071 48.0061C56.75 48.2714 56.4956 48.4528 56.1436 48.5503V48.5665C56.3115 48.599 56.4468 48.6531 56.5497 48.7289C56.658 48.8047 56.7419 48.8968 56.8015 49.0051C56.8665 49.1079 56.9125 49.2244 56.9396 49.3543C56.972 49.4842 56.9964 49.6196 57.0126 49.7604C57.0235 49.9012 57.0316 50.0446 57.037 50.1908C57.0424 50.337 57.056 50.4805 57.0776 50.6213C57.0993 50.7621 57.1291 50.8974 57.167 51.0274C57.2103 51.1519 57.2725 51.2629 57.3538 51.3604H56.4929C56.4387 51.3008 56.4008 51.2196 56.3792 51.1167C56.3629 51.0138 56.3521 50.9001 56.3467 50.7756C56.3413 50.6456 56.3358 50.5076 56.3304 50.3614C56.325 50.2152 56.3088 50.0717 56.2817 49.9309C56.26 49.7902 56.233 49.6575 56.2005 49.533C56.168 49.403 56.1166 49.292 56.0462 49.2C55.9758 49.1025 55.8837 49.0267 55.77 48.9726C55.6563 48.913 55.5047 48.8832 55.3152 48.8832H53.431V51.3604H52.6594V45.5615ZM55.0391 48.2335C55.2178 48.2335 55.3883 48.22 55.5507 48.1929C55.7132 48.1658 55.854 48.1144 55.9731 48.0386C56.0976 47.9574 56.1951 47.8518 56.2655 47.7218C56.3413 47.5865 56.3792 47.4132 56.3792 47.2021C56.3792 46.9097 56.2979 46.6714 56.1355 46.4873C55.9731 46.3033 55.7105 46.2112 55.3477 46.2112H53.431V48.2335H55.0391ZM58.7391 45.5615H59.5106V51.3604H58.7391V45.5615ZM61.2957 45.5615H65.1048V46.2112H62.0672V48.0548H64.7312V48.7046H62.0672V51.3604H61.2957V45.5615ZM68.8425 48.9888V51.3604H68.0709V48.9888L65.8294 45.5615H66.7471L68.4851 48.3228L70.1826 45.5615H71.0597L68.8425 48.9888Z" fill="black"/>
<path d="M49.8475 77.2835H51.3275C51.6008 77.2835 51.8375 77.3302 52.0375 77.4235C52.2375 77.5168 52.4008 77.6452 52.5275 77.8085C52.6541 77.9685 52.7475 78.1568 52.8075 78.3735C52.8708 78.5902 52.9025 78.8218 52.9025 79.0685C52.9025 79.3152 52.8708 79.5468 52.8075 79.7635C52.7475 79.9802 52.6541 80.1702 52.5275 80.3335C52.4008 80.4935 52.2375 80.6202 52.0375 80.7135C51.8375 80.8068 51.6008 80.8535 51.3275 80.8535H49.8475V77.2835ZM50.4725 80.3435H51.0875C51.3308 80.3435 51.5291 80.3118 51.6825 80.2485C51.8391 80.1818 51.9608 80.0918 52.0475 79.9785C52.1375 79.8618 52.1975 79.7268 52.2275 79.5735C52.2608 79.4168 52.2775 79.2485 52.2775 79.0685C52.2775 78.8885 52.2608 78.7218 52.2275 78.5685C52.1975 78.4118 52.1375 78.2768 52.0475 78.1635C51.9608 78.0468 51.8391 77.9568 51.6825 77.8935C51.5291 77.8268 51.3308 77.7935 51.0875 77.7935H50.4725V80.3435ZM55.2759 77.7085C55.0859 77.7085 54.9209 77.7468 54.7809 77.8235C54.6442 77.9002 54.5325 78.0035 54.4459 78.1335C54.3592 78.2602 54.2942 78.4052 54.2509 78.5685C54.2109 78.7318 54.1909 78.8985 54.1909 79.0685C54.1909 79.2385 54.2109 79.4052 54.2509 79.5685C54.2942 79.7318 54.3592 79.8785 54.4459 80.0085C54.5325 80.1352 54.6442 80.2368 54.7809 80.3135C54.9209 80.3902 55.0859 80.4285 55.2759 80.4285C55.4659 80.4285 55.6292 80.3902 55.7659 80.3135C55.9059 80.2368 56.0192 80.1352 56.1059 80.0085C56.1925 79.8785 56.2559 79.7318 56.2959 79.5685C56.3392 79.4052 56.3609 79.2385 56.3609 79.0685C56.3609 78.8985 56.3392 78.7318 56.2959 78.5685C56.2559 78.4052 56.1925 78.2602 56.1059 78.1335C56.0192 78.0035 55.9059 77.9002 55.7659 77.8235C55.6292 77.7468 55.4659 77.7085 55.2759 77.7085ZM55.2759 77.1985C55.5425 77.1985 55.7809 77.2485 55.9909 77.3485C56.2042 77.4485 56.3842 77.5835 56.5309 77.7535C56.6775 77.9235 56.7892 78.1218 56.8659 78.3485C56.9459 78.5752 56.9859 78.8152 56.9859 79.0685C56.9859 79.3252 56.9459 79.5668 56.8659 79.7935C56.7892 80.0202 56.6775 80.2185 56.5309 80.3885C56.3842 80.5585 56.2042 80.6935 55.9909 80.7935C55.7809 80.8902 55.5425 80.9385 55.2759 80.9385C55.0092 80.9385 54.7692 80.8902 54.5559 80.7935C54.3459 80.6935 54.1675 80.5585 54.0209 80.3885C53.8742 80.2185 53.7609 80.0202 53.6809 79.7935C53.6042 79.5668 53.5659 79.3252 53.5659 79.0685C53.5659 78.8152 53.6042 78.5752 53.6809 78.3485C53.7609 78.1218 53.8742 77.9235 54.0209 77.7535C54.1675 77.5835 54.3459 77.4485 54.5559 77.3485C54.7692 77.2485 55.0092 77.1985 55.2759 77.1985ZM57.8297 77.2835H58.4897L60.1197 79.9135H60.1297V77.2835H60.7247V80.8535H60.0647L58.4397 78.2285H58.4247V80.8535H57.8297V77.2835ZM61.7631 77.2835H64.3331V77.8235H62.3881V78.7585H64.1881V79.2685H62.3881V80.3135H64.3681V80.8535H61.7631V77.2835Z" fill="white"/>
</svg>
