<svg width="24" height="24" viewBox="0 0 24 24" fill="none" xmlns="http://www.w3.org/2000/svg">
<g clip-path="url(#clip0_19862_93064)">
<path d="M23.478 2.95584H21.0428V0.521947C21.0428 0.310906 20.9158 0.120734 20.7209 0.0398654C20.5258 -0.0410034 20.302 0.003344 20.1522 0.153082L17.8999 2.40515C16.0404 1.23646 13.9026 0.620816 11.6894 0.620816C5.24395 0.620555 0 5.8645 0 12.3103C0 18.756 5.24395 24 11.6897 24C18.1355 24 23.3794 18.756 23.3794 12.3103C23.3794 10.0968 22.7635 7.95874 21.5943 6.09876L23.8471 3.84644C23.9964 3.69722 24.041 3.47261 23.9604 3.27775C23.8792 3.08288 23.6891 2.95584 23.478 2.95584ZM22.3357 12.3103C22.3357 18.1806 17.5597 22.9565 11.6897 22.9565C5.81968 22.9565 1.04347 18.1806 1.04347 12.3103C1.04347 6.43997 5.81942 1.66402 11.6897 1.66402C13.6248 1.66402 15.4958 2.1821 17.14 3.16479L15.6296 4.67521C15.5318 4.77303 15.4767 4.90582 15.4767 5.04408V6.16659C14.344 5.46877 13.034 5.08712 11.6902 5.08712C7.70731 5.08712 4.46682 8.32735 4.46682 12.31C4.46682 16.2927 7.70705 19.5329 11.6897 19.5329C15.6718 19.5329 18.9115 16.2927 18.9115 12.31C18.9115 10.9658 18.5296 9.65464 17.8316 8.52143H18.9546C19.0929 8.52143 19.2256 8.46665 19.3235 8.36882L20.8344 6.8584C21.8173 8.50369 22.3357 10.3749 22.3357 12.3103ZM15.4765 7.785L13.2327 10.029C12.7921 9.73003 12.2607 9.55473 11.6894 9.55473C10.1699 9.55473 8.93391 10.791 8.93391 12.3103C8.93391 13.8296 10.1699 15.0658 11.6894 15.0658C13.2085 15.0658 14.4447 13.8296 14.4447 12.3103C14.4447 11.7387 14.2697 11.2073 13.9705 10.7667L16.2152 8.52195H16.5635C17.4032 9.6022 17.8678 10.9363 17.8678 12.3105C17.8678 15.718 15.0964 18.4899 11.6894 18.4899C8.282 18.4899 5.51003 15.718 5.51003 12.3105C5.51003 8.90308 8.28226 6.13059 11.6897 6.13059C13.0634 6.13059 14.3967 6.59519 15.4767 7.4344L15.4765 7.785ZM13.4013 12.3103C13.4013 13.2543 12.6335 14.0223 11.6894 14.0223C10.7454 14.0223 9.97738 13.2543 9.97738 12.3103C9.97738 11.3662 10.7454 10.5982 11.6894 10.5982C11.9714 10.5982 12.2373 10.6681 12.472 10.7894L11.3201 11.9417C11.1163 12.1454 11.1163 12.4757 11.3201 12.6794C11.4221 12.7814 11.5554 12.8323 11.6889 12.8323C11.8225 12.8323 11.9558 12.7814 12.0578 12.6794L13.2098 11.5274C13.3313 11.7622 13.4013 12.028 13.4013 12.3103ZM20.5587 5.65842C20.554 5.66311 20.5495 5.66729 20.5451 5.67198L18.7383 7.47822H16.5199V5.26059L18.3233 3.45722C18.3303 3.4507 18.3371 3.44366 18.3439 3.43661L19.9994 1.78141V3.47731C19.9994 3.76531 20.2331 3.99904 20.5211 3.99904H22.2183L20.5587 5.65842Z" fill="#FF8926" stroke="#FF8926" stroke-width="0.25"/>
</g>
<defs>
<clipPath id="clip0_19862_93064">
<rect width="24" height="24" fill="white"/>
</clipPath>
</defs>
</svg>
