<svg width="95" height="95" viewBox="0 0 95 95" fill="none" xmlns="http://www.w3.org/2000/svg">
<path opacity="0.3" d="M88.7218 64.7716C79.3405 86.4564 54.5773 95.7706 35.1748 94.1825C29.8772 93.7489 19.2182 92.8764 10.8955 85.0931C-5.08752 70.1456 -2.626 38.9013 12.6744 20.5064C14.6448 18.1375 28.2834 2.26625 49.5366 2.47868C65.097 2.63424 76.0188 11.3269 77.3468 12.4098C79.0245 13.7779 82.7248 17.0287 86.0596 22.1861C93.8953 34.304 94.584 51.2208 88.7218 64.7716Z" fill="#AAEFFF"/>
<path d="M82.3853 17.2384C82.9621 16.3234 84.3798 16.839 84.236 17.911C83.4944 23.4363 82.6133 33.0806 84.3511 39.3837C86.9062 48.6517 91.4991 75.9131 65.5944 82.8146C65.5944 82.8146 68.0616 39.9589 82.3853 17.2384Z" fill="url(#paint0_linear_20781_28373)"/>
<path opacity="0.6" d="M80.1978 28.6916C80.1978 28.6916 80.1739 28.7433 80.1344 28.8423C80.0943 28.9412 80.0364 29.0919 79.9696 29.29C79.8315 29.6851 79.6607 30.2767 79.4884 31.0388C79.3177 31.8011 79.1472 32.7356 79.0289 33.8169C78.9097 34.8974 78.8189 36.1219 78.8147 37.46C78.7945 38.1284 78.8344 38.8255 78.8433 39.5457C78.8586 39.9059 78.884 40.272 78.9042 40.6435C78.915 40.8293 78.9258 41.0165 78.9367 41.205C78.9509 41.3933 78.9716 41.5828 78.9889 41.7736C79.0251 42.155 79.0618 42.5416 79.0989 42.933C79.118 43.1187 79.1472 43.3246 79.1708 43.5213C79.1951 43.72 79.2168 43.9223 79.2466 44.1191C79.3544 44.9095 79.4843 45.727 79.6226 46.5562C79.7595 47.386 79.908 48.2311 80.0434 49.0909C80.1096 49.5214 80.1784 49.9537 80.239 50.3911C80.2702 50.6095 80.3014 50.8284 80.3327 51.0478C80.3609 51.268 80.3891 51.4888 80.4175 51.7099C80.478 52.1515 80.5208 52.5984 80.5708 53.0453C80.6187 53.4927 80.6504 53.944 80.691 54.3948C80.7166 54.8475 80.7466 55.3006 80.7599 55.7556L80.775 56.4387L80.7819 56.7805L80.7778 57.1227C80.7668 58.9468 80.6106 60.7773 80.2671 62.5466C79.9221 64.3153 79.3989 66.0187 78.743 67.6011C78.6615 67.7992 78.5804 67.9964 78.4996 68.1928C78.408 68.3842 78.3168 68.5749 78.2261 68.7646C78.0428 69.1429 77.8728 69.5233 77.6673 69.8804C77.468 70.2403 77.2808 70.602 77.0777 70.9485C76.8672 71.2905 76.6594 71.6284 76.4543 71.9617C75.6027 73.2735 74.7162 74.458 73.8266 75.4864C73.6059 75.7448 73.3899 75.9978 73.1787 76.2452C72.9553 76.4813 72.7371 76.712 72.5245 76.9369C72.3118 77.1614 72.1046 77.3801 71.9031 77.5927C71.6928 77.7963 71.4884 77.9941 71.2904 78.1857C70.512 78.9657 69.7735 79.5802 69.1835 80.104C68.8921 80.3701 68.6077 80.5797 68.3707 80.7737C68.1314 80.965 67.9279 81.1276 67.7628 81.2595C67.4331 81.523 67.2572 81.6635 67.2572 81.6635C67.2322 81.6835 67.1958 81.6794 67.1758 81.6544C67.1567 81.6305 67.1596 81.5962 67.1817 81.5757L67.1835 81.5741C67.1835 81.5741 67.3491 81.4221 67.6596 81.1372C67.8148 80.9948 68.006 80.8192 68.2309 80.6128C68.3433 80.5097 68.464 80.3988 68.5929 80.2806C68.6567 80.2208 68.725 80.162 68.7917 80.0974C68.8579 80.0323 68.926 79.9653 68.996 79.8965C69.2758 79.6214 69.5854 79.3167 69.9226 78.9852C70.0068 78.9023 70.0927 78.8178 70.1804 78.7317C70.2675 78.6451 70.3506 78.5511 70.4384 78.4587C70.6133 78.2733 70.7945 78.0811 70.9817 77.8826C71.1685 77.6841 71.3613 77.4792 71.5598 77.2683C71.7489 77.0491 71.9433 76.8235 72.1428 76.5919C72.3422 76.3606 72.5467 76.1234 72.7559 75.8805C72.9548 75.6294 73.1583 75.3725 73.3661 75.1101C73.47 74.9789 73.5749 74.8465 73.6809 74.7127C73.7338 74.6459 73.7871 74.5787 73.8406 74.5112C73.8907 74.4411 73.9411 74.3708 73.9917 74.3C74.1941 74.0175 74.4002 73.7295 74.6099 73.4366C74.8263 73.1486 75.0154 72.8348 75.218 72.5237C75.3189 72.368 75.4207 72.2111 75.5231 72.053C75.5744 71.9741 75.626 71.8949 75.6777 71.8154C75.7271 71.7345 75.7734 71.6514 75.8216 71.5691C76.0129 71.2389 76.2067 70.9043 76.403 70.5655C76.5919 70.2229 76.7643 69.8663 76.9488 69.5115C77.1396 69.1596 77.2943 68.7857 77.4623 68.4143C77.5454 68.2282 77.6289 68.0413 77.7128 67.8535C77.7876 67.6619 77.8627 67.4696 77.9381 67.2764C78.5485 65.7345 79.0268 64.0829 79.3323 62.371C79.6442 60.6602 79.7937 58.8923 79.7928 57.1202C79.7932 55.3479 79.6568 53.5728 79.447 51.8288C79.4204 51.6107 79.3939 51.3931 79.3675 51.176C79.3379 50.9589 79.3084 50.7423 79.2789 50.5263C79.2218 50.0943 79.1561 49.6641 79.0932 49.2365C78.9657 48.3788 78.8397 47.5314 78.7159 46.698C78.5925 45.8615 78.4772 45.039 78.3812 44.2194C78.3317 43.8088 78.2964 43.4211 78.2612 43.0133C78.2358 42.6142 78.2106 42.22 78.1858 41.831C78.1743 41.6365 78.1593 41.4437 78.1508 41.2518C78.1456 41.0596 78.1405 40.8688 78.1354 40.6795C78.1265 40.3009 78.1124 39.9283 78.1083 39.5617C78.1174 38.8278 78.117 38.1194 78.1638 37.4399C78.1729 37.2701 78.1819 37.102 78.1909 36.9358C78.1953 36.8527 78.1998 36.7701 78.2042 36.6879C78.2115 36.6059 78.2187 36.5243 78.2259 36.4432C78.2555 36.119 78.2844 35.8023 78.3125 35.4935C78.3421 35.185 78.3908 34.8861 78.4277 34.595C78.4476 34.4496 78.4672 34.3064 78.4865 34.1652C78.5108 34.0246 78.5348 33.8862 78.5585 33.75C78.6083 33.478 78.6457 33.2135 78.7013 32.9611C78.755 32.7086 78.8067 32.4653 78.8564 32.2314C78.9729 31.7673 79.0761 31.3408 79.1947 30.9619C79.4168 30.2005 79.6425 29.6184 79.8134 29.2293C79.8973 29.0339 79.9674 28.8874 80.0173 28.7881C80.0668 28.6884 80.0942 28.64 80.0942 28.64L80.0949 28.6388C80.1107 28.6109 80.1461 28.6011 80.1739 28.6169C80.2002 28.6318 80.2103 28.6646 80.1978 28.6916Z" fill="white"/>
<path d="M69.7733 82.6416C69.7733 82.6416 81.4073 86.6695 90.0992 73.9413C98.2638 61.985 93.3579 47.036 89.7558 38.4953C89.5681 38.0504 88.9144 38.1332 88.8427 38.6106C87.762 45.8013 82.735 73.9192 69.1519 82.6192L69.7733 82.6416Z" fill="url(#paint1_linear_20781_28373)"/>
<path opacity="0.6" d="M70.9883 82.8056C70.9883 82.8056 71.0222 82.799 71.0878 82.7861C71.1528 82.7734 71.2495 82.7518 71.3757 82.7224C71.6272 82.6611 71.9961 82.5687 72.4568 82.4214C72.689 82.3546 72.9413 82.2641 73.2177 82.1729C73.4903 82.0701 73.7885 81.9688 74.0985 81.8377C74.7243 81.5908 75.4135 81.2712 76.1455 80.8881C76.8811 80.5111 77.6462 80.0448 78.4329 79.522C78.8178 79.2477 79.219 78.9749 79.6054 78.6639C79.7033 78.5881 79.8018 78.5118 79.9007 78.4351L80.0494 78.3198L80.1931 78.1966C80.385 78.0321 80.5787 77.866 80.774 77.6986C81.5348 77.0065 82.2942 76.2598 82.985 75.4301C83.0726 75.3275 83.1603 75.2247 83.2481 75.1217L83.3801 74.9671L83.5034 74.8052C83.6677 74.5889 83.8325 74.3719 83.9976 74.1545C84.1683 73.9413 84.315 73.71 84.4686 73.4834L84.9269 72.8015L85.3471 72.0951L85.5573 71.7426C85.5916 71.6836 85.6287 71.6261 85.6608 71.5658L85.7551 71.3838C85.8809 71.1414 86.0063 70.8995 86.1315 70.6583C86.1941 70.5377 86.2565 70.4173 86.3189 70.2972C86.3743 70.1735 86.4297 70.0501 86.4848 69.9268C86.5948 69.6803 86.7043 69.4347 86.8133 69.1904C86.8663 69.0675 86.9256 68.9478 86.973 68.8234C87.02 68.6988 87.0669 68.5745 87.1136 68.4506C87.2076 68.2031 87.3009 67.9571 87.3936 67.7128C87.4398 67.5906 87.489 67.4699 87.5322 67.3477C87.5717 67.224 87.611 67.1009 87.6502 66.9783C87.7287 66.733 87.8064 66.4899 87.8834 66.2489C87.959 66.0075 88.043 65.7711 88.0989 65.5291C88.2264 65.0494 88.3511 64.5802 88.4725 64.1233C88.5773 63.6623 88.6644 63.2101 88.7593 62.7749C88.8045 62.5568 88.8585 62.344 88.8942 62.1319C88.9286 61.9196 88.9624 61.7112 88.9955 61.507C89.0612 61.0986 89.1254 60.7071 89.1901 60.3349C89.24 59.9607 89.2779 59.6044 89.3186 59.2699C89.3604 58.9352 89.3996 58.622 89.4357 58.3323C89.4701 58.0423 89.4807 57.7743 89.5046 57.5329C89.5445 57.0498 89.577 56.6695 89.6023 56.4102C89.6265 56.1507 89.6393 56.0123 89.6393 56.0123L89.6396 56.0096C89.6426 55.9778 89.6708 55.9543 89.7027 55.9573C89.7323 55.9601 89.7547 55.985 89.7552 56.0141C89.7552 56.0141 89.7572 56.1532 89.761 56.4141C89.7659 56.675 89.7685 57.0579 89.7703 57.5459C89.7698 57.7898 89.7767 58.0605 89.764 58.3542C89.7484 58.648 89.7315 58.9658 89.7134 59.3053C89.6917 59.6448 89.6741 60.0068 89.6455 60.3877C89.6043 60.7674 89.557 61.1663 89.5063 61.5829C89.4813 61.7912 89.4558 62.0039 89.4297 62.2206C89.4024 62.4372 89.3568 62.6553 89.3202 62.8787C89.239 63.324 89.1588 63.7855 89.0647 64.2578C88.9511 64.7261 88.8346 65.2073 88.7154 65.6991C88.6602 65.9464 88.5767 66.1888 88.5016 66.436C88.4249 66.683 88.3475 66.9322 88.2694 67.1835C88.2303 67.3092 88.1911 67.4354 88.1517 67.5621C88.1086 67.6875 88.0593 67.8115 88.0131 67.937C87.918 68.187 87.8222 68.4389 87.7258 68.6922C87.6774 68.8188 87.6288 68.9458 87.5801 69.0731C87.5309 69.2002 87.4697 69.3229 87.4148 69.4486C87.302 69.6985 87.1887 69.9498 87.0749 70.2021C87.0177 70.328 86.9604 70.4542 86.903 70.5807C86.8385 70.7038 86.7739 70.8271 86.7092 70.9505C86.5797 71.1974 86.4499 71.445 86.3198 71.6932L86.2221 71.8793C86.1889 71.941 86.1506 71.9999 86.1151 72.0604L85.8978 72.4215L85.4618 73.1439L84.982 73.8382C84.8213 74.0688 84.6673 74.3038 84.4892 74.5209C84.3168 74.7417 84.1447 74.9622 83.973 75.1821L83.8442 75.3465L83.7067 75.5035C83.6151 75.6081 83.5237 75.7124 83.4324 75.8166C82.715 76.6613 81.9167 77.4087 81.1227 78.0997C80.919 78.2668 80.717 78.4324 80.517 78.5965L80.3673 78.7191L80.2127 78.8338C80.1098 78.91 80.0074 78.9859 79.9056 79.0613C79.5048 79.3718 79.0845 79.6359 78.6841 79.9041C78.482 80.0353 78.2749 80.1527 78.0752 80.2748C77.9749 80.3351 77.8754 80.3948 77.7766 80.4542C77.6769 80.5119 77.5754 80.5646 77.4762 80.6194C77.277 80.7274 77.0813 80.8336 76.8891 80.9378C76.6927 81.0337 76.5 81.1278 76.3112 81.2199C75.5513 81.5778 74.8396 81.872 74.1958 82.0953C73.8768 82.2146 73.5705 82.3046 73.2909 82.3968C73.0074 82.4773 72.7492 82.5579 72.5115 82.6156C72.0384 82.7383 71.6608 82.8104 71.4034 82.8579C71.2744 82.8804 71.1752 82.8968 71.1074 82.9061C71.0404 82.9154 71.0058 82.9201 71.0058 82.9201C70.9741 82.9246 70.9449 82.9024 70.9405 82.8707C70.9363 82.8401 70.9567 82.8119 70.9866 82.806L70.9883 82.8056Z" fill="white"/>
<path d="M20.026 10.5087L69.8098 11.3569C72.5563 11.4037 74.7844 13.5947 74.8773 16.34L77.3224 88.5799C77.3951 90.7282 75.6745 92.51 73.5249 92.5124L16.4488 92.5774C14.429 92.5796 12.8001 90.9247 12.8345 88.9052L14.0721 16.2631C14.1272 13.03 16.7928 10.4537 20.026 10.5087Z" fill="url(#paint2_linear_20781_28373)"/>
<path d="M24.8113 91.4745C24.8101 91.4745 24.809 91.4745 24.8078 91.4745L18.4247 91.2831C16.3014 91.2194 14.6035 89.4397 14.6397 87.3159L14.804 77.6765C14.805 77.6124 14.857 77.5657 14.9218 77.5625C14.9858 77.5636 15.0368 77.6164 15.0357 77.6803L14.8715 87.3198C14.8374 89.3176 16.4345 90.9915 18.4316 91.0513L24.8147 91.2427C24.8787 91.2446 24.929 91.2981 24.9271 91.3621C24.9252 91.4249 24.8737 91.4745 24.8113 91.4745Z" fill="white"/>
<path d="M14.9707 74.8048C14.97 74.8048 14.9693 74.8048 14.9686 74.8048C14.9047 74.8037 14.8537 74.7509 14.8548 74.687L14.8814 73.126C14.8824 73.062 14.9367 73.0068 14.9992 73.0121C15.0632 73.0132 15.1142 73.0659 15.1131 73.1299L15.0866 74.6908C15.0854 74.7542 15.0337 74.8048 14.9707 74.8048Z" fill="white"/>
<path d="M20.1891 9.93007C26.9718 10.9678 50.3013 14.2175 69.6553 13.0631C70.5379 13.0104 71.2914 13.6913 71.3233 14.5749L73.9413 87.1395C73.9772 88.1344 73.2036 88.9716 72.2089 89.0135C64.0714 89.356 30.5608 90.6454 18.6407 89.1911C17.9152 89.1027 17.374 88.4814 17.3821 87.7505L18.2316 11.5932C18.243 10.5587 19.1664 9.77362 20.1891 9.93007Z" fill="#016B83"/>
<path opacity="0.6" d="M20.8852 11.8239C27.4125 12.8226 49.8635 15.9499 68.4887 14.8389C69.338 14.7882 70.0633 15.4435 70.094 16.2938L72.6133 86.126C72.6479 87.0835 71.9034 87.8891 70.9461 87.9294C63.1151 88.2591 30.8663 89.4999 19.3951 88.1004C18.6969 88.0152 18.1761 87.4173 18.1839 86.714L19.0014 13.4244C19.0125 12.4289 19.901 11.6733 20.8852 11.8239Z" fill="white"/>
<g opacity="0.6">
<path d="M67.8753 20.9612C68.1302 20.9655 68.3286 20.7608 68.3161 20.5061L68.3122 20.4273C68.2998 20.1727 68.0811 19.9592 67.8262 19.9528L25.5282 18.8986C25.2733 18.8923 25.192 19.0524 25.3473 19.2545L25.8298 19.8821C25.9852 20.0842 26.3209 20.2532 26.5758 20.2575L67.8753 20.9612Z" fill="white"/>
</g>
<g opacity="0.6">
<path d="M25.4807 21.6838C25.2258 21.6774 25.1445 21.8376 25.2998 22.0397L25.7823 22.6673C25.9377 22.8694 26.2734 23.0384 26.5283 23.0427L67.8278 23.7463C68.0827 23.7507 68.281 23.5459 68.2686 23.2913L68.2648 23.2125C68.2523 22.9578 68.0336 22.7443 67.7787 22.7379L25.4807 21.6838Z" fill="white"/>
</g>
<path d="M32.3579 47.1556C32.3528 47.1557 32.3476 47.1558 32.3425 47.1558L26.7388 47.188C25.9312 47.1926 25.2563 46.6469 25.1687 45.9188L24.6039 41.2252C24.5704 40.9459 24.653 40.6682 24.8366 40.443C25.0416 40.1914 25.355 40.0308 25.6966 40.002C26.1687 39.9627 26.8189 39.897 27.5341 39.8251C29.0916 39.6684 30.8568 39.4906 31.8949 39.4617C31.9027 39.4616 31.9102 39.4613 31.9179 39.4612C32.6606 39.4498 33.3068 39.8929 33.494 40.5449C33.803 41.6215 33.8086 43.6656 33.7865 45.8435C33.7791 46.558 33.1398 47.1437 32.3579 47.1556ZM25.7348 40.4578C25.5161 40.4762 25.318 40.5759 25.191 40.7319C25.0865 40.8599 25.0393 41.0158 25.0579 41.1705L25.6228 45.8641C25.6825 46.3615 26.1612 46.734 26.7363 46.7308L32.34 46.6987C32.3436 46.6986 32.3474 46.6985 32.351 46.6985C32.8867 46.6903 33.3245 46.3066 33.3294 45.839C33.3512 43.6963 33.3465 41.6886 33.0545 40.6709C32.925 40.2205 32.4328 39.8919 31.9078 39.9188C30.8862 39.9472 29.053 40.1319 27.5799 40.28C26.8617 40.3524 26.2089 40.418 25.7348 40.4578Z" fill="white"/>
<path opacity="0.6" d="M26.3439 40.9161C27.5197 40.8176 30.0739 40.5186 31.287 40.4849C31.801 40.4706 32.2567 40.7743 32.3841 41.2182C32.6315 42.0804 32.627 43.8067 32.6108 45.4002C32.6059 45.8775 32.1737 46.265 31.6386 46.2681L27.1604 46.2937C26.6098 46.2969 26.1468 45.9285 26.0881 45.4403L25.6369 41.6897C25.5902 41.3016 25.908 40.9526 26.3439 40.9161Z" fill="white"/>
<g opacity="0.6">
<path d="M37.205 42.1953C36.95 42.1932 36.7977 42.3923 36.8665 42.6377L37.3978 44.5336C37.4666 44.7791 37.7315 44.9768 37.9864 44.9728L66.191 44.5402C66.4459 44.5363 66.6467 44.3247 66.6372 44.07L66.5939 42.9069C66.5845 42.6522 66.3681 42.442 66.1132 42.4398L37.205 42.1953Z" fill="white"/>
</g>
<path d="M32.6857 34.5697C32.6806 34.5698 32.6754 34.5699 32.6703 34.5699L27.0666 34.6021C26.259 34.6066 25.584 34.061 25.4965 33.3329L24.9317 28.6392C24.8982 28.36 24.9808 28.0823 25.1644 27.8571C25.3694 27.6054 25.6829 27.4448 26.0244 27.4161C26.4966 27.3767 27.1467 27.3111 27.862 27.2392C29.4194 27.0825 31.1846 26.9046 32.2228 26.8758C32.2305 26.8757 32.238 26.8754 32.2457 26.8752C32.9884 26.8639 33.6346 27.307 33.8218 27.959C34.1308 29.0356 34.1364 31.0797 34.1142 33.2576C34.1069 33.9721 33.4676 34.5578 32.6857 34.5697ZM26.0626 27.8719C25.8439 27.8903 25.6457 27.99 25.5187 28.146C25.4143 28.274 25.3671 28.4298 25.3857 28.5845L25.9505 33.2782C26.0103 33.7756 26.489 34.1481 27.064 34.1448L32.6677 34.1127C32.6713 34.1127 32.6751 34.1126 32.6788 34.1126C33.2145 34.1043 33.6523 33.7208 33.6571 33.2531C33.679 31.1104 33.6743 29.1027 33.3822 28.0851C33.2527 27.6346 32.7605 27.306 32.2355 27.333C31.2139 27.3613 29.3807 27.546 27.9077 27.694C27.1895 27.7664 26.5367 27.8321 26.0626 27.8719Z" fill="white"/>
<path opacity="0.6" d="M26.6717 28.338C27.8474 28.2395 30.4017 27.9404 31.6148 27.9067C32.1288 27.8924 32.5845 28.1961 32.7118 28.6401C32.9593 29.5023 32.9547 31.2286 32.9385 32.8221C32.9337 33.2993 32.5014 33.6869 31.9663 33.6899L27.4882 33.7157C26.9375 33.7188 26.4746 33.3503 26.4159 32.8622L25.9647 29.1115C25.9179 28.7235 26.2358 28.3745 26.6717 28.338Z" fill="white"/>
<g opacity="0.6">
<path d="M37.5328 29.6172C37.2779 29.615 37.1255 29.8141 37.1943 30.0596L37.7256 31.9555C37.7944 32.201 38.0593 32.3986 38.3142 32.3947L66.5188 31.9621C66.7737 31.9582 66.9745 31.7466 66.965 31.4918L66.9217 30.3288C66.9123 30.0741 66.6959 29.8639 66.441 29.8617L37.5328 29.6172Z" fill="white"/>
</g>
<path d="M32.5421 59.1595C32.537 59.1596 32.5318 59.1597 32.5267 59.1598L26.923 59.1919C26.1154 59.1964 25.4404 58.6508 25.3529 57.9227L24.7882 53.2293C24.7546 52.9498 24.8373 52.6721 25.0207 52.4469C25.2258 52.1952 25.5392 52.0346 25.8808 52.0059C26.353 51.9665 27.0031 51.901 27.7184 51.829C29.2758 51.6723 31.041 51.4945 32.0791 51.4656C32.0868 51.4655 32.0944 51.4652 32.102 51.4651C32.8448 51.4537 33.491 51.8968 33.6781 52.549C33.9872 53.6255 33.9928 55.6697 33.9706 57.8475C33.9633 58.5619 33.324 59.1475 32.5421 59.1595ZM25.919 52.4618C25.7005 52.48 25.5022 52.5798 25.3752 52.7358C25.2708 52.8638 25.2234 53.0197 25.2421 53.1746L25.8069 57.868C25.8666 58.3654 26.3454 58.7379 26.9204 58.7347L32.5241 58.7025C32.5277 58.7025 32.5315 58.7025 32.5352 58.7024C33.0708 58.6942 33.5086 58.3106 33.5134 57.8429C33.5353 55.7002 33.5307 53.6925 33.2386 52.6751C33.1091 52.2242 32.617 51.9015 32.0919 51.9228C31.0703 51.9512 29.237 52.1358 27.764 52.2839C27.0458 52.3563 26.3931 52.4218 25.919 52.4618Z" fill="white"/>
<path opacity="0.6" d="M26.5281 52.9278C27.7038 52.8292 30.2581 52.5303 31.4712 52.4966C31.9852 52.4823 32.4409 52.786 32.5682 53.2299C32.8158 54.0921 32.8111 55.8185 32.7949 57.4119C32.7901 57.8892 32.3578 58.2767 31.8227 58.2798L27.3446 58.3054C26.7939 58.3086 26.331 57.9402 26.2723 57.452L25.821 53.7014C25.7744 53.3134 26.0922 52.9643 26.5281 52.9278Z" fill="white"/>
<g opacity="0.6">
<path d="M37.3892 54.207C37.1343 54.2049 36.982 54.404 37.0508 54.6495L37.582 56.5453C37.6508 56.7908 37.9157 56.9885 38.1706 56.9846L66.3752 56.5519C66.6301 56.548 66.8309 56.3364 66.8215 56.0816L66.7781 54.9186C66.7686 54.6639 66.5523 54.4537 66.2974 54.4515L37.3892 54.207Z" fill="white"/>
</g>
<path d="M32.1943 70.7021C32.1893 70.7021 32.1844 70.7022 32.1795 70.7023L26.5756 70.7342C25.7682 70.739 25.0931 70.1933 25.0055 69.465L24.4407 64.7716C24.4072 64.4923 24.4899 64.2146 24.6733 63.9894C24.8782 63.7378 25.1918 63.5772 25.5334 63.5482C26.0051 63.5089 26.6545 63.4435 27.3691 63.3716C28.8501 63.2225 30.6933 63.037 31.7319 63.0082C32.469 62.9933 33.1416 63.4325 33.3308 64.0913C33.6398 65.168 33.6454 67.212 33.6233 69.3898C33.616 70.1041 32.9763 70.69 32.1943 70.7021ZM25.5716 64.004C25.3531 64.0223 25.1548 64.1223 25.0277 64.2783C24.9233 64.4065 24.8761 64.5622 24.8947 64.7168L25.4595 69.4102C25.5193 69.9077 25.998 70.2804 26.5729 70.2769L32.1768 70.245C32.7048 70.2276 33.1611 69.856 33.1661 69.3852C33.188 67.2425 33.1833 65.235 32.8912 64.2173C32.7618 63.7667 32.2697 63.4496 31.7446 63.4653C30.7225 63.4934 28.8885 63.6781 27.4149 63.8264C26.6974 63.8986 26.0454 63.9642 25.5716 64.004Z" fill="white"/>
<path opacity="0.6" d="M26.1807 64.4629C27.3565 64.3644 29.9107 64.0654 31.1238 64.0317C31.6379 64.0174 32.0935 64.321 32.2209 64.765C32.4683 65.6273 32.4638 67.3536 32.4476 68.9471C32.4427 69.4243 32.0104 69.8118 31.4754 69.8149L26.9972 69.8406C26.4466 69.8437 25.9837 69.4753 25.9249 68.9871L25.4737 65.2365C25.427 64.8485 25.7448 64.4994 26.1807 64.4629Z" fill="white"/>
<g opacity="0.6">
<path d="M37.0418 65.7461C36.7869 65.744 36.6346 65.943 36.7034 66.1885L37.2347 68.0844C37.3035 68.3299 37.5683 68.5275 37.8232 68.5236L66.0278 68.0911C66.2827 68.0872 66.4835 67.8755 66.474 67.6208L66.4308 66.4577C66.4213 66.2029 66.2049 65.9927 65.95 65.9906L37.0418 65.7461Z" fill="white"/>
</g>
<path d="M31.7407 82.604C31.7356 82.6041 31.7304 82.6042 31.7253 82.6042L26.1215 82.6363C25.314 82.641 24.639 82.0953 24.5515 81.3672L23.9867 76.6736C23.9532 76.3943 24.0358 76.1166 24.2193 75.8914C24.4243 75.6398 24.7378 75.4791 25.0793 75.4504C25.5515 75.411 26.2016 75.3454 26.9169 75.2735C28.4743 75.1168 30.2395 74.939 31.2777 74.9102C32.0389 74.9085 32.6876 75.3346 32.8766 75.9933C33.1857 77.0699 33.1914 79.1142 33.1692 81.292C33.1619 82.0064 32.5225 82.592 31.7407 82.604ZM25.1175 75.9062C24.8989 75.9245 24.7007 76.0243 24.5738 76.1803C24.4693 76.3083 24.422 76.4642 24.4407 76.6188L25.0055 81.3125C25.0652 81.8099 25.5439 82.1824 26.119 82.1791L31.7227 82.147C31.7263 82.1469 31.7301 82.1469 31.7338 82.1468C32.2694 82.1386 32.7072 81.755 32.7121 81.2873C32.7339 79.1446 32.7292 77.137 32.4372 76.1192C32.3077 75.6686 31.8158 75.3573 31.2905 75.3672C30.2689 75.3956 28.4357 75.5802 26.9626 75.7283C26.2444 75.8007 25.5916 75.8664 25.1175 75.9062Z" fill="white"/>
<path opacity="0.6" d="M25.7266 76.3653C26.9024 76.2668 29.4567 75.9678 30.6697 75.9341C31.1838 75.9198 31.6394 76.2235 31.7668 76.6674C32.0143 77.5296 32.0097 79.256 31.9935 80.8494C31.9887 81.3267 31.5564 81.7142 31.0213 81.7173L26.5432 81.743C25.9925 81.7461 25.5296 81.3777 25.4708 80.8895L25.0196 77.1388C24.9729 76.7509 25.2908 76.4018 25.7266 76.3653Z" fill="white"/>
<g opacity="0.6">
<path d="M36.5877 77.6445C36.3328 77.6424 36.1805 77.8415 36.2493 78.087L36.7806 79.9828C36.8494 80.2283 37.1142 80.426 37.3691 80.4221L65.5738 79.9895C65.8287 79.9856 66.0295 79.7739 66.02 79.5192L65.9767 78.3561C65.9673 78.1014 65.7509 77.8912 65.496 77.889L36.5877 77.6445Z" fill="white"/>
</g>
<path d="M48.1732 1.14491C46.3963 -0.136679 44.8323 -0.138565 43.726 0.167453C42.7169 0.446618 42.0496 1.4049 42.1273 2.44913L42.5137 7.6384L48.1537 8.2359C48.1537 8.2359 51.6581 3.65842 48.1732 1.14491ZM45.618 5.28255C44.8401 5.26927 44.2203 4.62799 44.2335 3.8501C44.2468 3.07224 44.8881 2.45235 45.666 2.46562C46.4438 2.4789 47.0637 3.12022 47.0505 3.89807C47.0372 4.67596 46.3958 5.29582 45.618 5.28255Z" fill="url(#paint3_linear_20781_28373)"/>
<path d="M43.0169 5.59434C42.9193 5.55665 42.8467 5.46539 42.8385 5.35389L42.777 4.52737C42.7655 4.37332 42.8811 4.23919 43.0352 4.22774C43.1891 4.21601 43.3236 4.33148 43.335 4.48605L43.3965 5.31253C43.408 5.46662 43.2924 5.60072 43.1383 5.61211C43.0957 5.61533 43.0544 5.60878 43.0169 5.59434ZM42.8964 3.97481C42.7988 3.93715 42.7262 3.84592 42.718 3.73436L42.6712 3.10686C42.5921 2.04401 43.2768 1.06745 44.2994 0.78444C44.9993 0.590808 45.7178 0.573387 46.4348 0.733032C46.5831 0.768528 46.6808 0.916033 46.6469 1.06704C46.6134 1.2178 46.4639 1.31304 46.313 1.27939C45.6867 1.13974 45.0594 1.1549 44.4486 1.32381C43.6827 1.53565 43.1699 2.26796 43.2293 3.0655L43.276 3.69304C43.2874 3.84709 43.1719 3.98115 43.0178 3.99261C42.9751 3.99579 42.9339 3.98924 42.8964 3.97481Z" fill="white"/>
<path d="M34.7474 10.8552L34.7918 8.25024C34.807 7.35102 35.5646 6.64351 36.4628 6.68963L54.4123 7.61094C55.2089 7.65182 55.8437 8.29202 55.8778 9.08887L55.9853 11.5944L34.7474 10.8552Z" fill="url(#paint4_linear_20781_28373)"/>
<path d="M41.5013 7.73709C41.5006 7.73709 41.5 7.73709 41.4993 7.73709L40.7269 7.72396C40.6629 7.72282 40.6119 7.67008 40.613 7.60615C40.6141 7.54277 40.6658 7.49219 40.7288 7.49219C40.7295 7.49219 40.7302 7.49219 40.7308 7.49219L41.5032 7.50532C41.5672 7.50645 41.6182 7.5592 41.6171 7.62313C41.6161 7.68651 41.5644 7.73709 41.5013 7.73709Z" fill="white"/>
<path d="M35.6351 10.1782C35.5287 10.1371 35.454 10.0331 35.4561 9.91227L35.474 8.85847C35.4813 8.42577 35.6567 8.02191 35.968 7.7211C36.2792 7.4203 36.6889 7.25852 37.1217 7.26586L39.9613 7.31439C40.115 7.31748 40.2389 7.44434 40.2362 7.59911C40.2335 7.75361 40.1062 7.8767 39.9516 7.87416L37.112 7.8256C36.5273 7.81565 36.0434 8.28327 36.0335 8.86808L36.0155 9.92194C36.0129 10.0765 35.8854 10.1995 35.7309 10.197C35.6972 10.1963 35.6649 10.1897 35.6351 10.1782Z" fill="white"/>
<path d="M29.1361 9.80494L60.5425 10.3392C61.6717 10.3584 62.6234 11.1875 62.797 12.3035L62.821 12.4575C63.0112 13.6799 62.0539 14.7787 60.8169 14.7576L28.5958 14.2086C27.8556 14.1961 27.2762 13.5671 27.3243 12.8283L27.4182 11.3873C27.4769 10.486 28.233 9.78961 29.1361 9.80494Z" fill="url(#paint5_linear_20781_28373)"/>
<path d="M49.738 52.1788C49.5367 59.368 48.8838 84.1661 49.1955 92.9539C49.2285 93.8849 50.0715 94.6321 51.123 94.6625C56.3238 94.8132 75.3897 95.1951 83.8964 94.8791C85.6683 94.8133 87.0773 93.5427 87.114 91.973C87.2908 84.427 87.6808 63.2031 86.7538 53.4804C86.6428 52.3155 85.61 51.3878 84.2961 51.2715C78.6321 50.7698 59.4843 49.5436 52.135 49.9659C50.8095 50.042 49.7709 51.0032 49.738 52.1788Z" fill="url(#paint6_linear_20781_28373)"/>
<path d="M52.0586 53.8562C51.7787 55.5365 50.8956 61.1265 51.1759 63.1936C51.2169 63.4958 52.1457 63.7401 53.3229 63.7577C58.1698 63.8304 74.7062 63.9908 81.8154 63.8448C83.0956 63.8186 84.1001 63.5531 84.1692 63.2244C84.5294 61.5101 85.5639 56.3049 85.2952 54.261C85.2523 53.935 84.2672 53.6687 82.9997 53.6395C77.7561 53.5188 60.1843 53.2316 54.1431 53.3161C53.009 53.332 52.1071 53.5653 52.0586 53.8562Z" fill="url(#paint7_linear_20781_28373)"/>
<path opacity="0.2" d="M83.0868 55.3147C82.8295 55.0487 82.4769 54.8958 82.1067 54.89L54.8691 54.4572C54.1409 54.4456 53.5265 54.9964 53.4586 55.7214L52.8927 61.7642C52.8463 62.259 53.6603 62.6756 54.6981 62.6881L81.4765 63.0126C82.5127 63.0252 83.3692 62.63 83.3778 62.1354L83.4788 56.3083C83.4852 55.9383 83.3442 55.5808 83.0868 55.3147Z" fill="white"/>
<path opacity="0.63" d="M58.5731 69.8062C58.5731 70.8811 57.7017 71.7524 56.6268 71.7524H54.2618C53.1869 71.7524 52.3156 70.8811 52.3156 69.8062V69.7587C52.3156 68.6838 53.1869 67.8125 54.2618 67.8125H56.6268C57.7017 67.8125 58.5731 68.6838 58.5731 69.7587V69.8062Z" fill="#12486B"/>
<path opacity="0.63" d="M67.3798 69.8062C67.3798 70.8811 66.5085 71.7524 65.4336 71.7524H63.0686C61.9937 71.7524 61.1224 70.8811 61.1224 69.8062V69.7587C61.1224 68.6838 61.9937 67.8125 63.0686 67.8125H65.4336C66.5085 67.8125 67.3798 68.6838 67.3798 69.7587V69.8062Z" fill="#12486B"/>
<path opacity="0.63" d="M75.8391 69.8062C75.8391 70.8811 74.9677 71.7524 73.8928 71.7524H71.5278C70.4529 71.7524 69.5816 70.8811 69.5816 69.8062V69.7587C69.5816 68.6838 70.4529 67.8125 71.5278 67.8125H73.8928C74.9677 67.8125 75.8391 68.6838 75.8391 69.7587V69.8062Z" fill="#12486B"/>
<path d="M84.349 70.0207C84.349 71.113 83.4636 71.9985 82.3713 71.9985H80.0813C78.989 71.9985 78.1035 71.113 78.1035 70.0207C78.1035 68.9284 78.989 68.043 80.0813 68.043H82.3713C83.4636 68.043 84.349 68.9284 84.349 70.0207Z" fill="url(#paint8_linear_20781_28373)"/>
<path opacity="0.63" d="M58.5731 75.9507C58.5731 77.0256 57.7017 77.8969 56.6268 77.8969H54.2618C53.1869 77.8969 52.3156 77.0256 52.3156 75.9507V75.9033C52.3156 74.8284 53.1869 73.957 54.2618 73.957H56.6268C57.7017 73.957 58.5731 74.8284 58.5731 75.9033V75.9507Z" fill="#12486B"/>
<path opacity="0.63" d="M67.3798 75.9507C67.3798 77.0256 66.5085 77.8969 65.4336 77.8969H63.0686C61.9937 77.8969 61.1224 77.0256 61.1224 75.9507V75.9033C61.1224 74.8284 61.9937 73.957 63.0686 73.957H65.4336C66.5085 73.957 67.3798 74.8284 67.3798 75.9033V75.9507Z" fill="#12486B"/>
<path opacity="0.63" d="M75.8391 75.9507C75.8391 77.0256 74.9677 77.8969 73.8928 77.8969H71.5278C70.4529 77.8969 69.5816 77.0256 69.5816 75.9507V75.9033C69.5816 74.8284 70.4529 73.957 71.5278 73.957H73.8928C74.9677 73.957 75.8391 74.8284 75.8391 75.9033V75.9507Z" fill="#12486B"/>
<path d="M84.53 75.9507C84.53 77.0256 83.6587 77.8969 82.5838 77.8969H80.2188C79.1439 77.8969 78.2725 77.0256 78.2725 75.9507V75.9033C78.2725 74.8284 79.1439 73.957 80.2188 73.957H82.5838C83.6587 73.957 84.53 74.8284 84.53 75.9033V75.9507Z" fill="url(#paint9_linear_20781_28373)"/>
<path opacity="0.63" d="M58.5731 81.6343C58.5731 82.7092 57.7017 83.5805 56.6268 83.5805H54.2618C53.1869 83.5805 52.3156 82.7092 52.3156 81.6343V81.5869C52.3156 80.512 53.1869 79.6406 54.2618 79.6406H56.6268C57.7017 79.6406 58.5731 80.512 58.5731 81.5869V81.6343Z" fill="#12486B"/>
<path opacity="0.63" d="M67.3798 81.6343C67.3798 82.7092 66.5085 83.5805 65.4336 83.5805H63.0686C61.9937 83.5805 61.1224 82.7092 61.1224 81.6343V81.5869C61.1224 80.512 61.9937 79.6406 63.0686 79.6406H65.4336C66.5085 79.6406 67.3798 80.512 67.3798 81.5869V81.6343Z" fill="#12486B"/>
<path opacity="0.63" d="M75.8391 81.6343C75.8391 82.7092 74.9677 83.5805 73.8928 83.5805H71.5278C70.4529 83.5805 69.5816 82.7092 69.5816 81.6343V81.5869C69.5816 80.512 70.4529 79.6406 71.5278 79.6406H73.8928C74.9677 79.6406 75.8391 80.512 75.8391 81.5869V81.6343Z" fill="#12486B"/>
<path opacity="0.63" d="M58.5731 87.5366C58.5731 88.6115 57.7017 89.4829 56.6268 89.4829H54.2618C53.1869 89.4829 52.3156 88.6115 52.3156 87.5366V87.4892C52.3156 86.4143 53.1869 85.543 54.2618 85.543H56.6268C57.7017 85.543 58.5731 86.4143 58.5731 87.4892V87.5366Z" fill="#12486B"/>
<path opacity="0.63" d="M67.3798 87.5366C67.3798 88.6115 66.5085 89.4829 65.4336 89.4829H63.0686C61.9937 89.4829 61.1224 88.6115 61.1224 87.5366V87.4892C61.1224 86.4143 61.9937 85.543 63.0686 85.543H65.4336C66.5085 85.543 67.3798 86.4143 67.3798 87.4892V87.5366Z" fill="#12486B"/>
<path opacity="0.63" d="M75.8391 87.5366C75.8391 88.6115 74.9677 89.4829 73.8928 89.4829H71.5278C70.4529 89.4829 69.5816 88.6115 69.5816 87.5366V87.4892C69.5816 86.4143 70.4529 85.543 71.5278 85.543H73.8928C74.9677 85.543 75.8391 86.4143 75.8391 87.4892V87.5366Z" fill="#12486B"/>
<path d="M83.7188 87.0217C83.7188 88.3822 82.6159 89.4852 81.2553 89.4852H81.0837C79.7231 89.4852 78.6202 88.3822 78.6202 87.0217V82.3307C78.6202 80.9701 79.7231 79.8672 81.0837 79.8672H81.2553C82.6159 79.8672 83.7188 80.9701 83.7188 82.3307V87.0217Z" fill="url(#paint10_linear_20781_28373)"/>
<g opacity="0.7">
<path d="M80.3583 56.1712C80.3583 56.3952 80.1767 56.5768 79.9528 56.5768H78.6781C78.4541 56.5768 78.2725 56.3952 78.2725 56.1712C78.2725 55.9472 78.4541 55.7656 78.6781 55.7656H79.9528C80.1767 55.7656 80.3583 55.9472 80.3583 56.1712Z" fill="white"/>
<path d="M80.3583 61.9642C80.3583 62.1882 80.1767 62.3697 79.9528 62.3697H78.6781C78.4541 62.3697 78.2725 62.1882 78.2725 61.9642C78.2725 61.7402 78.4541 61.5586 78.6781 61.5586H79.9528C80.1767 61.5586 80.3583 61.7402 80.3583 61.9642Z" fill="white"/>
<path d="M78.5043 58.7193C78.5043 58.9433 78.3227 59.1249 78.0987 59.1249C77.8747 59.1249 77.6931 58.9433 77.6931 58.7193V57.4446C77.6931 57.2207 77.8747 57.0391 78.0987 57.0391C78.3227 57.0391 78.5043 57.2207 78.5043 57.4446V58.7193Z" fill="white"/>
<path d="M78.5043 61.0396C78.5043 61.2636 78.3227 61.4452 78.0987 61.4452C77.8747 61.4452 77.6931 61.2636 77.6931 61.0396V59.765C77.6931 59.541 77.8747 59.3594 78.0987 59.3594C78.3227 59.3594 78.5043 59.5409 78.5043 59.765V61.0396Z" fill="white"/>
<path d="M81.2854 58.7193C81.2854 58.9433 81.1038 59.1249 80.8798 59.1249C80.6558 59.1249 80.4742 58.9433 80.4742 58.7193V57.4446C80.4742 57.2207 80.6558 57.0391 80.8798 57.0391C81.1038 57.0391 81.2854 57.2207 81.2854 57.4446V58.7193Z" fill="white"/>
<path d="M81.2854 61.0396C81.2854 61.2636 81.1038 61.4452 80.8798 61.4452C80.6558 61.4452 80.4742 61.2636 80.4742 61.0396V59.765C80.4742 59.541 80.6558 59.3594 80.8798 59.3594C81.1038 59.3594 81.2854 59.5409 81.2854 59.765V61.0396Z" fill="white"/>
</g>
<path d="M42.7967 32.1733C45.0861 32.1733 46.942 30.3174 46.942 28.0281C46.942 25.7387 45.0861 23.8828 42.7967 23.8828C40.5074 23.8828 38.6515 25.7387 38.6515 28.0281C38.6515 30.3174 40.5074 32.1733 42.7967 32.1733Z" fill="url(#paint11_linear_20781_28373)"/>
<path d="M42.7967 32.0383C45.01 32.0383 46.8042 30.2441 46.8042 28.0309C46.8042 25.8176 45.01 24.0234 42.7967 24.0234C40.5835 24.0234 38.7893 25.8176 38.7893 28.0309C38.7893 30.2441 40.5835 32.0383 42.7967 32.0383Z" fill="url(#paint12_linear_20781_28373)"/>
<path d="M39.4922 26.4774C39.4746 26.4774 39.4568 26.4734 39.44 26.4649C39.3829 26.4361 39.36 26.3664 39.3888 26.3093C40.0421 25.015 41.3479 24.2109 42.7967 24.2109C43.028 24.2109 43.2595 24.2318 43.4849 24.2729C43.5479 24.2844 43.5896 24.3447 43.5781 24.4077C43.5666 24.4707 43.5067 24.5131 43.4433 24.5009C43.2316 24.4623 43.014 24.4427 42.7967 24.4427C41.4359 24.4427 40.2093 25.198 39.5956 26.4137C39.5753 26.4541 39.5346 26.4774 39.4922 26.4774Z" fill="white"/>
<path opacity="0.78" d="M46.1856 28.8986C46.6161 27.0755 45.4872 25.2487 43.6642 24.8182C41.8412 24.3878 40.0143 25.5167 39.5839 27.3397C39.1534 29.1628 40.2823 30.9896 42.1053 31.4201C43.9283 31.8505 45.7552 30.7216 46.1856 28.8986Z" fill="white"/>
<path d="M54.5964 30.3269C58.5818 30.3269 61.8126 27.0961 61.8126 23.1107C61.8126 19.1253 58.5818 15.8945 54.5964 15.8945C50.611 15.8945 47.3802 19.1253 47.3802 23.1107C47.3802 27.0961 50.611 30.3269 54.5964 30.3269Z" fill="url(#paint13_linear_20781_28373)"/>
<path d="M54.5964 30.0892C58.4492 30.0892 61.5726 26.9658 61.5726 23.113C61.5726 19.2601 58.4492 16.1367 54.5964 16.1367C50.7435 16.1367 47.6201 19.2601 47.6201 23.113C47.6201 26.9658 50.7435 30.0892 54.5964 30.0892Z" fill="url(#paint14_linear_20781_28373)"/>
<path d="M48.8437 20.3323C48.8262 20.3323 48.8084 20.3283 48.7916 20.3198C48.7345 20.291 48.7115 20.2212 48.7404 20.1642C49.8629 17.9402 52.1068 16.5586 54.5964 16.5586C54.994 16.5586 55.3919 16.5944 55.7789 16.665C55.8419 16.6764 55.8836 16.7367 55.8722 16.7998C55.8607 16.8627 55.8005 16.9051 55.7374 16.8929C55.364 16.8249 54.9801 16.7904 54.5963 16.7904C52.1947 16.7904 50.0301 18.1231 48.9472 20.2685C48.9269 20.3089 48.8861 20.3323 48.8437 20.3323Z" fill="white"/>
<path opacity="0.78" d="M58.9227 27.4407C61.2286 25.1349 61.2286 21.3964 58.9227 19.0905C56.6169 16.7847 52.8784 16.7847 50.5725 19.0905C48.2667 21.3964 48.2667 25.1349 50.5725 27.4407C52.8784 29.7466 56.6169 29.7466 58.9227 27.4407Z" fill="white"/>
<path d="M59.5731 46.6593C63.674 46.6593 66.9985 43.3349 66.9985 39.234C66.9985 35.133 63.674 31.8086 59.5731 31.8086C55.4722 31.8086 52.1478 35.133 52.1478 39.234C52.1478 43.3349 55.4722 46.6593 59.5731 46.6593Z" fill="url(#paint15_linear_20781_28373)"/>
<path d="M59.5731 46.4116C63.5377 46.4116 66.7516 43.1977 66.7516 39.2332C66.7516 35.2686 63.5377 32.0547 59.5731 32.0547C55.6086 32.0547 52.3946 35.2686 52.3946 39.2332C52.3946 43.1977 55.6086 46.4116 59.5731 46.4116Z" fill="url(#paint16_linear_20781_28373)"/>
<path d="M53.6537 36.3686C53.6362 36.3686 53.6184 36.3647 53.6016 36.3561C53.5445 36.3273 53.5216 36.2576 53.5504 36.2006C54.705 33.9132 57.0128 32.4922 59.5731 32.4922C59.9818 32.4922 60.391 32.5291 60.7893 32.6017C60.8523 32.6131 60.8941 32.6735 60.8826 32.7365C60.8711 32.7994 60.8108 32.8421 60.7478 32.8297C60.3631 32.7595 59.9679 32.724 59.5731 32.724C57.1007 32.724 54.8722 34.096 53.7573 36.3049C53.7369 36.3453 53.6961 36.3686 53.6537 36.3686Z" fill="white"/>
<path opacity="0.78" d="M64.0248 43.6868C66.3975 41.3141 66.3975 37.4672 64.0248 35.0945C61.6521 32.7218 57.8052 32.7218 55.4325 35.0945C53.0598 37.4672 53.0598 41.3141 55.4325 43.6868C57.8052 46.0594 61.6521 46.0594 64.0248 43.6868Z" fill="white"/>
<path d="M69.0988 34.5607C72.1036 34.5607 74.5394 32.1249 74.5394 29.1202C74.5394 26.1155 72.1036 23.6797 69.0988 23.6797C66.0941 23.6797 63.6583 26.1155 63.6583 29.1202C63.6583 32.1249 66.0941 34.5607 69.0988 34.5607Z" fill="url(#paint17_linear_20781_28373)"/>
<path d="M69.0988 34.3825C72.0036 34.3825 74.3585 32.0277 74.3585 29.1229C74.3585 26.2181 72.0036 23.8633 69.0988 23.8633C66.194 23.8633 63.8392 26.2181 63.8392 29.1229C63.8392 32.0277 66.194 34.3825 69.0988 34.3825Z" fill="url(#paint18_linear_20781_28373)"/>
<path d="M64.7617 27.0505C64.7442 27.0505 64.7264 27.0466 64.7097 27.0381C64.6525 27.0092 64.6296 26.9395 64.6585 26.8825C65.5096 25.196 67.2111 24.1484 69.0988 24.1484C69.4005 24.1484 69.7023 24.1756 69.9956 24.2291C70.0585 24.2406 70.1003 24.3009 70.0888 24.3639C70.0772 24.4268 70.0174 24.4696 69.9539 24.4571C69.6743 24.4061 69.3866 24.3802 69.0988 24.3802C67.299 24.3802 65.6768 25.379 64.8653 26.9868C64.8449 27.0272 64.8041 27.0505 64.7617 27.0505Z" fill="white"/>
<path opacity="0.78" d="M72.3603 32.386C74.0988 30.6476 74.0988 27.829 72.3603 26.0905C70.6219 24.3521 67.8033 24.3521 66.0648 26.0905C64.3264 27.829 64.3264 30.6476 66.0648 32.386C67.8033 34.1245 70.6219 34.1245 72.3603 32.386Z" fill="white"/>
<defs>
<linearGradient id="paint0_linear_20781_28373" x1="95.4196" y1="1.42878" x2="74.3729" y2="66.2112" gradientUnits="userSpaceOnUse">
<stop stop-color="#FF7A0A"/>
<stop offset="1" stop-color="#FFCBB0"/>
</linearGradient>
<linearGradient id="paint1_linear_20781_28373" x1="97.7659" y1="2.16233" x2="79.41" y2="83.1658" gradientUnits="userSpaceOnUse">
<stop stop-color="#FF7A0A"/>
<stop offset="1" stop-color="#FBCD7F"/>
</linearGradient>
<linearGradient id="paint2_linear_20781_28373" x1="9.85656" y1="97.8145" x2="75.3828" y2="14.3859" gradientUnits="userSpaceOnUse">
<stop stop-color="#2B3582"/>
<stop offset="1" stop-color="#150E42"/>
</linearGradient>
<linearGradient id="paint3_linear_20781_28373" x1="53.9556" y1="-6.12163" x2="30.2629" y2="23.4187" gradientUnits="userSpaceOnUse">
<stop stop-color="#2B3582"/>
<stop offset="1" stop-color="#150E42"/>
</linearGradient>
<linearGradient id="paint4_linear_20781_28373" x1="56.3326" y1="-4.23946" x2="32.9224" y2="25.4931" gradientUnits="userSpaceOnUse">
<stop stop-color="#2B3582"/>
<stop offset="1" stop-color="#150E42"/>
</linearGradient>
<linearGradient id="paint5_linear_20781_28373" x1="53.4155" y1="-2.44668" x2="37.1116" y2="26.3155" gradientUnits="userSpaceOnUse">
<stop stop-color="#2B3582"/>
<stop offset="1" stop-color="#150E42"/>
</linearGradient>
<linearGradient id="paint6_linear_20781_28373" x1="47.0418" y1="39.2606" x2="82.8466" y2="97.313" gradientUnits="userSpaceOnUse">
<stop stop-color="white"/>
<stop offset="1" stop-color="#8EABBE"/>
</linearGradient>
<linearGradient id="paint7_linear_20781_28373" x1="65.5496" y1="69.1687" x2="69.1518" y2="54.2372" gradientUnits="userSpaceOnUse">
<stop stop-color="#2B3582"/>
<stop offset="1" stop-color="#150E42"/>
</linearGradient>
<linearGradient id="paint8_linear_20781_28373" x1="83.1586" y1="67.7422" x2="69.2103" y2="84.1888" gradientUnits="userSpaceOnUse">
<stop stop-color="#CB236D"/>
<stop offset="1" stop-color="#4C246D"/>
</linearGradient>
<linearGradient id="paint9_linear_20781_28373" x1="78.2725" y1="75.927" x2="84.53" y2="75.927" gradientUnits="userSpaceOnUse">
<stop stop-color="#2B3582"/>
<stop offset="1" stop-color="#150E42"/>
</linearGradient>
<linearGradient id="paint10_linear_20781_28373" x1="78.6201" y1="84.6762" x2="83.7188" y2="84.6762" gradientUnits="userSpaceOnUse">
<stop stop-color="#2B3582"/>
<stop offset="1" stop-color="#150E42"/>
</linearGradient>
<linearGradient id="paint11_linear_20781_28373" x1="37.1243" y1="34.6121" x2="42.6845" y2="28.1584" gradientUnits="userSpaceOnUse">
<stop stop-color="#FDF53F"/>
<stop offset="1" stop-color="#D93C65"/>
</linearGradient>
<linearGradient id="paint12_linear_20781_28373" x1="45.8263" y1="23.4541" x2="29.3849" y2="48.2924" gradientUnits="userSpaceOnUse">
<stop stop-color="#FDF53F"/>
<stop offset="1" stop-color="#D93C65"/>
</linearGradient>
<linearGradient id="paint13_linear_20781_28373" x1="44.7217" y1="34.5724" x2="54.4009" y2="23.3377" gradientUnits="userSpaceOnUse">
<stop stop-color="#FDF53F"/>
<stop offset="1" stop-color="#D93C65"/>
</linearGradient>
<linearGradient id="paint14_linear_20781_28373" x1="59.8702" y1="15.1456" x2="31.2486" y2="58.3848" gradientUnits="userSpaceOnUse">
<stop stop-color="#FDF53F"/>
<stop offset="1" stop-color="#D93C65"/>
</linearGradient>
<linearGradient id="paint15_linear_20781_28373" x1="49.4122" y1="51.0279" x2="59.3719" y2="39.4675" gradientUnits="userSpaceOnUse">
<stop stop-color="#FDF53F"/>
<stop offset="1" stop-color="#D93C65"/>
</linearGradient>
<linearGradient id="paint16_linear_20781_28373" x1="64.9999" y1="31.0349" x2="35.5485" y2="75.5275" gradientUnits="userSpaceOnUse">
<stop stop-color="#FDF53F"/>
<stop offset="1" stop-color="#D93C65"/>
</linearGradient>
<linearGradient id="paint17_linear_20781_28373" x1="61.654" y1="37.7616" x2="68.9515" y2="29.2913" gradientUnits="userSpaceOnUse">
<stop stop-color="#FDF53F"/>
<stop offset="1" stop-color="#D93C65"/>
</linearGradient>
<linearGradient id="paint18_linear_20781_28373" x1="73.075" y1="23.1161" x2="51.4962" y2="55.7155" gradientUnits="userSpaceOnUse">
<stop stop-color="#FDF53F"/>
<stop offset="1" stop-color="#D93C65"/>
</linearGradient>
</defs>
</svg>
