<svg width="96" height="95" viewBox="0 0 96 95" fill="none" xmlns="http://www.w3.org/2000/svg">
<path opacity="0.3" d="M64.8163 73.6529C63.3146 75.2467 61.8938 76.2746 60.7712 77.0866C47.5753 86.6321 31.9611 83.8497 28.6427 83.1702C23.7424 82.1667 14.2701 80.2272 7.4219 72.108C-2.93891 59.8243 -1.32559 40.4718 6.71098 27.6969C8.18099 25.3601 15.946 12.3907 31.7284 10.3108C41.2797 9.05208 52.4135 11.5908 60.4763 18.401C77.4007 32.6962 76.1959 61.575 64.8163 73.6529Z" fill="#AAEFFF"/>
<path d="M74.6048 84.8528H46.9619V48.8914C46.9619 48.2934 47.4428 47.8086 48.036 47.8086H73.5308C74.124 47.8086 74.6048 48.2934 74.6048 48.8914V84.8528Z" fill="url(#paint0_linear_20781_28691)"/>
<g opacity="0.3">
<path d="M7.00263 26.5588C6.87314 26.6091 6.72416 26.5536 6.65973 26.4263C6.5187 26.1478 6.38763 25.8589 6.27008 25.5678C6.2129 25.4262 6.28037 25.2647 6.42081 25.207C6.42249 25.2064 6.42415 25.2057 6.4258 25.2051C6.56503 25.1511 6.72216 25.2191 6.77865 25.3591C6.89031 25.6356 7.01485 25.91 7.14878 26.1746C7.21773 26.3107 7.16413 26.4775 7.02903 26.547C7.02039 26.5515 7.01154 26.5554 7.00263 26.5588ZM6.15962 24.3019C6.1496 24.3058 6.13921 24.3091 6.12854 24.3119C5.98163 24.3497 5.83203 24.2603 5.79455 24.1121C5.71758 23.8078 5.65273 23.4972 5.60189 23.1889C5.577 23.0381 5.67762 22.8961 5.82766 22.8704C5.97725 22.8453 6.11869 22.9473 6.14354 23.098C6.1919 23.391 6.25352 23.6861 6.32673 23.9753C6.3615 24.1127 6.2877 24.2522 6.15962 24.3019ZM5.83052 21.914C5.80198 21.9251 5.7711 21.9315 5.73882 21.9323C5.58723 21.9361 5.46121 21.8154 5.45735 21.6626C5.44944 21.3493 5.45498 21.0318 5.47381 20.7188C5.4831 20.5662 5.61332 20.4501 5.76453 20.4592C5.91588 20.4685 6.03116 20.5998 6.02197 20.7523C6.00407 21.0496 5.9988 21.351 6.00631 21.6486C6.00933 21.7688 5.93581 21.8731 5.83052 21.914ZM6.03931 19.5113C5.99216 19.5296 5.93946 19.535 5.88628 19.5241C5.73768 19.4938 5.64165 19.3476 5.67176 19.1978C5.73369 18.8904 5.80948 18.5821 5.89705 18.2814C5.93987 18.1349 6.09236 18.0509 6.23789 18.0938C6.38336 18.1369 6.46666 18.2908 6.42394 18.4375C6.34074 18.7231 6.2687 19.0159 6.20998 19.308C6.19063 19.4042 6.12396 19.4785 6.03931 19.5113ZM6.77431 17.216C6.70819 17.2417 6.63233 17.2417 6.56269 17.21C6.42442 17.1471 6.36298 16.9831 6.42538 16.8438C6.55302 16.5587 6.69459 16.275 6.84622 16.0009C6.91995 15.8673 7.08717 15.8193 7.21969 15.8938C7.35211 15.9683 7.39968 16.1368 7.32588 16.2704C7.18176 16.531 7.04721 16.8006 6.9259 17.0716C6.89496 17.1407 6.83937 17.1908 6.77431 17.216ZM7.99458 15.1419C7.90894 15.1752 7.80878 15.1644 7.73016 15.1046C7.60917 15.0124 7.58518 14.8389 7.67653 14.7168C7.86385 14.4668 8.06418 14.2217 8.27195 13.9886C8.37335 13.8749 8.54691 13.8655 8.65974 13.9677C8.7725 14.0698 8.7818 14.2449 8.68046 14.3586C8.48306 14.5802 8.2927 14.8129 8.11471 15.0505C8.08274 15.0933 8.04078 15.124 7.99458 15.1419ZM17.1492 10.8819C17.1137 10.8957 17.0749 10.9022 17.0345 10.8998C16.74 10.8823 16.4408 10.8775 16.1452 10.8856C15.9936 10.8897 15.8674 10.7692 15.8633 10.6165C15.8591 10.4636 15.9786 10.3363 16.1303 10.3322C16.4416 10.3236 16.7567 10.3286 17.0668 10.3471C17.2183 10.3561 17.3337 10.4871 17.3248 10.6398C17.3182 10.7517 17.2466 10.8441 17.1492 10.8819ZM9.63934 13.3932C9.53304 13.4344 9.40802 13.4058 9.33058 13.313C9.23289 13.196 9.24783 13.0214 9.36383 12.923C9.60161 12.7212 9.85103 12.5274 10.1051 12.3469C10.2295 12.2595 10.4004 12.2887 10.4878 12.4138C10.5751 12.5387 10.5453 12.7115 10.4214 12.7996C10.1801 12.9709 9.94324 13.1549 9.71744 13.3465C9.69341 13.3668 9.66701 13.3824 9.63934 13.3932ZM14.7608 11.0121C14.7439 11.0187 14.7261 11.0238 14.7076 11.0269C14.4165 11.0763 14.1236 11.1391 13.8372 11.2133C13.6903 11.2513 13.5406 11.1622 13.5029 11.0141C13.4652 10.8661 13.5532 10.7145 13.7004 10.6771C14.0018 10.599 14.31 10.5329 14.6163 10.4808C14.7658 10.4555 14.9075 10.5571 14.9327 10.7078C14.9547 10.8399 14.8801 10.9658 14.7608 11.0121ZM11.6304 12.0587C11.501 12.1088 11.3523 12.0536 11.2877 11.9266C11.2185 11.7905 11.2718 11.6237 11.4067 11.5538C11.683 11.411 11.9691 11.2782 12.2571 11.1595C12.2589 11.1587 12.2608 11.158 12.2625 11.1573C12.4016 11.1033 12.5585 11.1711 12.6152 11.3108C12.6726 11.4523 12.6055 11.614 12.4651 11.6718C12.1915 11.7847 11.9197 11.9108 11.6572 12.0466C11.6484 12.0511 11.6394 12.0552 11.6304 12.0587Z" fill="url(#paint1_linear_20781_28691)"/>
<path d="M19.0548 11.1709C19.0043 11.1904 18.9476 11.1953 18.8911 11.1813C18.7536 11.1474 18.6131 11.1158 18.4735 11.0873C18.3249 11.057 18.2287 10.9109 18.2587 10.7611C18.2887 10.6112 18.4336 10.5141 18.5823 10.5447C18.7292 10.5746 18.8769 10.6078 19.0216 10.6436C19.1689 10.6799 19.2591 10.8298 19.2231 10.9782C19.2009 11.0698 19.1358 11.1394 19.0548 11.1709Z" fill="url(#paint2_linear_20781_28691)"/>
</g>
<g opacity="0.3">
<path d="M25.7641 16.2222C25.6404 16.2702 25.4971 16.222 25.4283 16.1028C25.3572 15.9794 25.2823 15.8554 25.2058 15.7344C25.1243 15.6055 25.1618 15.4343 25.2897 15.3522C25.4181 15.2697 25.5874 15.3079 25.6689 15.4367C25.7494 15.5642 25.8283 15.6948 25.9032 15.8246C25.9794 15.9568 25.9348 16.1262 25.8038 16.2031C25.7908 16.2106 25.7776 16.217 25.7641 16.2222Z" fill="url(#paint3_linear_20781_28691)"/>
<path d="M20.3742 31.7027C20.2563 31.7485 20.1371 31.7924 20.0168 31.8345C19.8735 31.8845 19.7171 31.808 19.6674 31.6636C19.6177 31.5192 19.6941 31.3607 19.8368 31.3113C20.1144 31.2142 20.3876 31.106 20.6516 30.9882C20.7905 30.9265 20.9524 30.9895 21.0138 31.1293C21.0752 31.2691 21.0125 31.4327 20.8738 31.4945C20.7105 31.5674 20.5424 31.6374 20.3742 31.7027ZM18.618 32.2179C18.6037 32.2235 18.5887 32.2279 18.5731 32.2311C18.2727 32.2919 17.9664 32.3406 17.6628 32.3757C17.5122 32.3932 17.376 32.2842 17.3587 32.1324C17.3415 31.9804 17.4497 31.8427 17.6002 31.8258C17.8886 31.7924 18.1795 31.7461 18.465 31.6884C18.6136 31.6582 18.7583 31.7553 18.7882 31.9051C18.8149 32.0394 18.7405 32.1703 18.618 32.2179ZM22.1514 30.8141C22.0306 30.8609 21.89 30.8162 21.8195 30.7012C21.7397 30.5711 21.7797 30.4005 21.9087 30.3201C22.1555 30.1664 22.399 29.9999 22.6327 29.825C22.7546 29.7341 22.9265 29.7597 23.0168 29.8824C23.1072 30.0052 23.0817 30.1786 22.9599 30.2697C22.7138 30.4537 22.4573 30.6291 22.1974 30.7911C22.1826 30.8004 22.1671 30.808 22.1514 30.8141ZM16.2725 32.4263C16.24 32.439 16.2046 32.4454 16.1676 32.4446C15.8616 32.4374 15.5522 32.417 15.2481 32.3838C15.0973 32.3674 14.9884 32.2309 15.0047 32.0789C15.021 31.9268 15.1563 31.8169 15.3072 31.8334C15.5959 31.8649 15.8897 31.8844 16.1803 31.8911C16.3319 31.8946 16.452 32.0215 16.4484 32.1743C16.4458 32.2898 16.3733 32.3872 16.2725 32.4263ZM24.0033 29.3513C23.9042 29.3898 23.7875 29.3681 23.7084 29.2868C23.6022 29.1776 23.6039 29.0023 23.7123 28.8953C23.9193 28.6907 24.1206 28.4742 24.3105 28.2519C24.4095 28.1361 24.5829 28.123 24.6978 28.2229C24.8126 28.3227 24.8255 28.4974 24.7266 28.6132C24.5266 28.8473 24.3147 29.0752 24.0967 29.2907C24.0691 29.3179 24.0372 29.3381 24.0033 29.3513ZM25.4919 27.5143C25.4127 27.545 25.3204 27.5384 25.2437 27.4883C25.1165 27.4052 25.0801 27.2338 25.1626 27.1055C25.3207 26.8594 25.4704 26.6037 25.6075 26.3456C25.6789 26.2107 25.8452 26.1599 25.9791 26.2322C26.1128 26.3044 26.1632 26.4721 26.0916 26.6069C25.9473 26.8786 25.7898 27.1476 25.6234 27.4065C25.5907 27.4575 25.5441 27.494 25.4919 27.5143ZM26.5479 25.3937C26.4876 25.4171 26.419 25.4193 26.3537 25.3948C26.2116 25.3417 26.1391 25.1823 26.1919 25.039C26.2932 24.7639 26.3842 24.4815 26.4621 24.1996C26.5028 24.0524 26.6541 23.9662 26.8004 24.0074C26.9464 24.0485 27.0318 24.2011 26.9911 24.3484C26.909 24.645 26.8133 24.9423 26.7067 25.2317C26.6782 25.3092 26.6188 25.3662 26.5479 25.3937ZM27.12 23.0917C27.0782 23.1079 27.032 23.114 26.9845 23.1075C26.8343 23.0869 26.729 22.9475 26.7495 22.796C26.7887 22.5053 26.816 22.2098 26.8306 21.9174C26.8383 21.7648 26.9674 21.6472 27.1186 21.6549C27.2701 21.6626 27.3867 21.7927 27.379 21.9453C27.3636 22.2533 27.3349 22.5645 27.2936 22.8705C27.2796 22.9742 27.2104 23.0566 27.12 23.0917ZM27.1768 20.7182C27.1534 20.7274 27.1282 20.7333 27.1019 20.7356C26.9509 20.7489 26.8177 20.6362 26.8045 20.484C26.7792 20.1926 26.7413 19.8984 26.6916 19.6094C26.6657 19.4587 26.7664 19.3155 26.9153 19.2895C27.0648 19.2633 27.2069 19.3643 27.2328 19.515C27.285 19.8192 27.325 20.1289 27.3516 20.4357C27.3625 20.5614 27.2882 20.675 27.1768 20.7182ZM26.7154 18.3917C26.7102 18.3938 26.7048 18.3956 26.6994 18.3974C26.5548 18.4436 26.4005 18.3628 26.3548 18.217C26.2902 18.0113 26.2185 17.8052 26.1417 17.6042C26.114 17.5314 26.0854 17.4591 26.0562 17.3873C25.9986 17.2459 26.0657 17.0841 26.206 17.0262C26.3469 16.9646 26.5067 17.0357 26.5642 17.1771C26.5949 17.2527 26.6249 17.3286 26.6542 17.4052C26.7349 17.6166 26.8103 17.8336 26.8783 18.05C26.9224 18.1902 26.8498 18.3396 26.7154 18.3917Z" fill="url(#paint4_linear_20781_28691)"/>
<path d="M13.9334 32.1086C13.8824 32.1283 13.8252 32.133 13.7683 32.1188C13.6241 32.0824 13.478 32.0423 13.3339 31.9995C13.1884 31.9563 13.1052 31.8024 13.148 31.6558C13.1909 31.5091 13.3433 31.4252 13.4889 31.4684C13.6258 31.509 13.7646 31.5471 13.9015 31.5817C14.0486 31.6187 14.1381 31.769 14.1013 31.9173C14.0787 32.0082 14.014 32.0773 13.9334 32.1086Z" fill="url(#paint5_linear_20781_28691)"/>
</g>
<path d="M13.1342 28.9708C13.1817 28.9982 13.2413 28.9921 13.2825 28.9558L14.4568 27.9175C15.156 28.1269 15.8934 28.2254 16.6436 28.1978L17.5232 29.4978C17.554 29.5434 17.6102 29.5642 17.663 29.5497L19.4703 29.0521C19.5232 29.0375 19.561 28.9908 19.5646 28.9357L19.6667 27.3655C20.3266 27.0048 20.912 26.5422 21.4086 26.0035L22.9434 26.2959C22.9972 26.3061 23.0515 26.2808 23.0786 26.2329L24.0076 24.5926C24.0347 24.5446 24.0287 24.4846 23.9926 24.4431L22.9628 23.2592C23.1705 22.5543 23.2682 21.8108 23.2408 21.0546L24.5303 20.1677C24.5755 20.1367 24.5962 20.0801 24.5817 20.0268L24.0882 18.2047C24.0737 18.1514 24.0274 18.1133 23.9728 18.1097L22.4152 18.0067C22.0574 17.3414 21.5985 16.7512 21.0643 16.2506L21.3543 14.7032C21.3644 14.649 21.3393 14.5942 21.2918 14.5669L19.6648 13.6303C19.6173 13.6029 19.5577 13.609 19.5165 13.6454L18.3422 14.6836C17.643 14.4742 16.9056 14.3758 16.1554 14.4034L15.2758 13.1034C15.245 13.0578 15.1888 13.0369 15.136 13.0514L13.3286 13.5491C13.2758 13.5636 13.238 13.6103 13.2344 13.6654L13.1323 15.2357C12.4723 15.5963 11.8869 16.059 11.3904 16.5976L9.85558 16.3052C9.80178 16.295 9.74742 16.3203 9.7203 16.3682L8.79134 18.0085C8.76418 18.0564 8.7702 18.1165 8.80628 18.158L9.83609 19.3419C9.6284 20.0468 9.53071 20.7903 9.55811 21.5465L8.26862 22.4334C8.22339 22.4645 8.2027 22.5211 8.21716 22.5743L8.71072 24.3964C8.72515 24.4497 8.77148 24.4878 8.82614 24.4915L10.3837 24.5944C10.7414 25.2597 11.2003 25.8499 11.7346 26.3506L11.4446 27.8979C11.4344 27.9521 11.4595 28.0069 11.5071 28.0342L13.1342 28.9708Z" fill="url(#paint6_linear_20781_28691)"/>
<path d="M17.0754 23.0742C16.2187 23.4068 15.2242 23.0646 14.7598 22.2352C14.2493 21.3234 14.5698 20.1631 15.4741 19.6485C15.9122 19.399 16.4203 19.3368 16.9048 19.4728C17.3894 19.6087 17.7925 19.9269 18.0397 20.3685C18.5502 21.2803 18.2298 22.4406 17.3255 22.9552C17.2439 23.0016 17.1603 23.0413 17.0754 23.0742ZM15.8837 19.942C15.8175 19.9677 15.7529 19.9984 15.69 20.0341C14.9967 20.4287 14.751 21.3184 15.1423 22.0174C15.5337 22.7164 16.4161 22.9644 17.1095 22.5695C17.8029 22.1751 18.0485 21.2853 17.6572 20.5863C17.4676 20.2477 17.1586 20.0038 16.787 19.8995C16.485 19.8148 16.171 19.8305 15.8837 19.942Z" fill="#D93D66"/>
<path d="M18.0886 25.6181C17.9415 25.6753 17.7906 25.7252 17.6365 25.7677C17.588 25.7811 17.5392 25.7937 17.4902 25.8055C17.2489 25.8636 17.0034 25.9022 16.7575 25.9208C16.7542 25.9211 16.7508 25.9214 16.7475 25.9216C16.738 25.9223 16.7285 25.923 16.7189 25.9236C16.7004 25.9248 16.6818 25.9259 16.6633 25.927C16.6146 25.9297 16.5716 25.8999 16.5549 25.8563C16.5508 25.8457 16.5484 25.8343 16.5477 25.8224C16.5444 25.7613 16.5909 25.7093 16.6514 25.7059C16.9631 25.6888 17.275 25.6377 17.5785 25.5541C19.0864 25.1392 20.1981 23.979 20.6301 22.5752C20.8706 21.7944 20.9007 20.9382 20.6716 20.0927C20.6315 19.9445 20.5842 19.7993 20.5301 19.6578C20.1663 18.7057 19.4944 17.9152 18.6037 17.4025C17.5806 16.8135 16.3911 16.6615 15.2546 16.9744C12.9073 17.6209 11.5208 20.0705 12.1615 22.4358C12.201 22.5816 12.2477 22.7249 12.3013 22.865C12.5333 23.4724 12.8946 24.0218 13.3612 24.4725C13.3732 24.4842 13.3821 24.4979 13.3877 24.5127C13.4025 24.5514 13.3949 24.5971 13.3645 24.629C13.3223 24.6731 13.253 24.6749 13.2091 24.6323C12.7193 24.1591 12.3399 23.5823 12.0963 22.9447C12.04 22.7976 11.991 22.6472 11.9495 22.4941C11.2768 20.0108 12.7342 17.4387 15.1966 16.7607C16.3898 16.4322 17.6384 16.5918 18.7125 17.2102C19.6477 17.7484 20.3531 18.5782 20.735 19.5778C20.7917 19.7263 20.8413 19.8787 20.8835 20.0343C21.2093 21.2373 21.051 22.4961 20.4378 23.579C19.9037 24.522 19.0803 25.2331 18.0886 25.6181Z" fill="#D93D66"/>
<g opacity="0.3">
<path d="M1.51652 35.4207C1.45545 35.4444 1.38389 35.4261 1.34214 35.371C1.26414 35.2682 1.18814 35.1617 1.1163 35.0543C1.06962 34.9845 1.0879 34.8898 1.15716 34.8426C1.22634 34.7952 1.32038 34.814 1.36709 34.8838C1.43552 34.9861 1.50794 35.0877 1.5824 35.1858C1.63314 35.2526 1.62047 35.3483 1.55421 35.3996C1.54233 35.4087 1.52966 35.4156 1.51652 35.4207Z" fill="url(#paint7_linear_20781_28691)"/>
<path d="M0.897576 34.4322C0.826048 34.4599 0.74385 34.4292 0.708534 34.3588C0.608574 34.16 0.517598 33.9538 0.438222 33.7459C0.421493 33.7022 0.405246 33.6581 0.389309 33.6137C0.36098 33.5344 0.406967 33.4484 0.480182 33.4184C0.558731 33.3898 0.645404 33.4308 0.673801 33.5099C0.688981 33.5524 0.704539 33.5945 0.720511 33.6363C0.796238 33.8346 0.882981 34.0313 0.978259 34.2209C1.01605 34.296 0.986277 34.3877 0.911824 34.4258C0.907039 34.4281 0.902326 34.4303 0.897576 34.4322ZM0.364493 32.9432C0.357815 32.9458 0.350827 32.948 0.343702 32.9496C0.262227 32.9683 0.181129 32.917 0.162507 32.8349C0.102752 32.5716 0.0587269 32.3021 0.0316373 32.0342C0.0231353 31.9504 0.084095 31.8757 0.166741 31.8671C0.249902 31.8586 0.324013 31.9194 0.332515 32.0032C0.358365 32.2589 0.400393 32.5158 0.457326 32.767C0.47433 32.8418 0.433542 32.9164 0.364493 32.9432ZM0.2055 31.3683C0.187601 31.3753 0.168083 31.3788 0.14774 31.3784C0.0642682 31.3765 -0.00185351 31.3067 3.96595e-05 31.2225C0.00623549 30.9528 0.0291601 30.6805 0.0684348 30.4134C0.0806543 30.33 0.157344 30.2726 0.24023 30.2849C0.322773 30.2973 0.379878 30.3748 0.367659 30.458C0.330243 30.7128 0.308283 30.9723 0.302466 31.2295C0.300917 31.2932 0.260987 31.3468 0.2055 31.3683ZM0.435401 29.8022C0.406177 29.8135 0.373269 29.8158 0.340809 29.8068C0.260367 29.7843 0.213106 29.7002 0.23548 29.6191C0.30718 29.3587 0.395471 29.1005 0.498081 28.8517C0.530196 28.774 0.618831 28.7374 0.695762 28.7696C0.7729 28.8018 0.809421 28.891 0.77734 28.9689C0.679481 29.206 0.595217 29.4523 0.526891 29.7006C0.513604 29.749 0.478599 29.7854 0.435401 29.8022ZM1.0377 28.3402C0.996915 28.3561 0.949584 28.354 0.908589 28.3305C0.835994 28.289 0.810591 28.196 0.851759 28.1227C0.984006 27.888 1.13181 27.6593 1.29118 27.443C1.34092 27.3752 1.43568 27.3613 1.50274 27.4115C1.56979 27.4617 1.5838 27.5573 1.53403 27.6248C1.38199 27.8312 1.24096 28.0493 1.11488 28.2733C1.09687 28.3052 1.0692 28.328 1.0377 28.3402ZM1.97362 27.0701C1.92078 27.0906 1.85851 27.0801 1.81477 27.0381C1.75436 26.98 1.75219 26.8835 1.80977 26.8226C1.99458 26.6274 2.19326 26.4419 2.40024 26.2716C2.46529 26.2184 2.56023 26.2281 2.61306 26.2933C2.66586 26.3585 2.65623 26.4546 2.59155 26.5078C2.39414 26.6703 2.20483 26.847 2.02862 27.0331C2.01269 27.05 1.99379 27.0623 1.97362 27.0701ZM3.18879 26.0695C3.12264 26.0952 3.0456 26.071 3.00657 26.0083C2.96216 25.937 2.98351 25.8429 3.05421 25.798C3.28015 25.655 3.51796 25.5244 3.76108 25.4097C3.8375 25.3753 3.92689 25.4071 3.96217 25.4834C3.99756 25.5596 3.96486 25.6504 3.88927 25.6861C3.65727 25.7953 3.43047 25.9199 3.21506 26.0563C3.20656 26.0616 3.19778 26.066 3.18879 26.0695ZM5.373 25.2009C5.36487 25.204 5.35627 25.2066 5.34735 25.2083C5.13091 25.2507 4.91299 25.3058 4.69958 25.372C4.66719 25.3819 4.63552 25.392 4.60406 25.4024C4.52458 25.4285 4.43925 25.3848 4.41337 25.3048C4.38727 25.2246 4.43037 25.1361 4.51013 25.1125C4.54376 25.1015 4.57735 25.0907 4.61132 25.0804C4.83431 25.0112 5.06276 24.9535 5.28973 24.9091C5.37176 24.893 5.45107 24.947 5.46697 25.0296C5.48112 25.1032 5.44015 25.1748 5.373 25.2009Z" fill="url(#paint8_linear_20781_28691)"/>
</g>
<g opacity="0.3">
<path d="M8.95844 37.4936C8.8814 37.5235 8.79452 37.4854 8.76375 37.4079C8.73274 37.3297 8.77043 37.2409 8.84798 37.2097C9.08146 37.1156 9.31119 37.0063 9.5308 36.8848C9.60391 36.8453 9.69598 36.8712 9.73615 36.9452C9.77632 37.019 9.74944 37.1117 9.67629 37.1522C9.44591 37.2795 9.2051 37.3941 8.9604 37.4928C8.95975 37.493 8.95906 37.4933 8.95844 37.4936ZM8.22416 37.7392C8.21907 37.7412 8.21391 37.7429 8.20854 37.7443C7.95416 37.8128 7.69308 37.8662 7.43254 37.9034C7.34979 37.9151 7.27334 37.8572 7.26168 37.7738C7.24987 37.6903 7.30801 37.6134 7.39017 37.6014C7.63879 37.566 7.8879 37.5149 8.13067 37.4497C8.21132 37.428 8.29421 37.4764 8.31569 37.5577C8.33583 37.6338 8.29524 37.7116 8.22416 37.7392ZM10.3121 36.7447C10.2495 36.769 10.1762 36.749 10.1351 36.6915C10.0864 36.6233 10.1017 36.5281 10.1694 36.4788C10.3734 36.3304 10.5702 36.1683 10.7543 35.9968C10.816 35.9398 10.9113 35.9435 10.968 36.0055C11.0246 36.0672 11.0208 36.1638 10.9595 36.2209C10.7665 36.4006 10.5602 36.5706 10.3463 36.7261C10.3355 36.7339 10.324 36.7401 10.3121 36.7447ZM6.69424 37.9563C6.6782 37.9625 6.66082 37.966 6.64257 37.9664C6.37918 37.9712 6.11283 37.9596 5.85099 37.9318C5.76789 37.923 5.70766 37.848 5.71633 37.7642C5.72511 37.6807 5.79953 37.6199 5.88252 37.6286C6.13217 37.655 6.38607 37.666 6.6372 37.6615C6.72067 37.6601 6.78962 37.7271 6.79107 37.8113C6.79227 37.8771 6.75186 37.9339 6.69424 37.9563ZM11.446 35.6882C11.3961 35.7076 11.3374 35.6996 11.2938 35.6623C11.23 35.6078 11.2222 35.5116 11.2762 35.4474C11.4386 35.2545 11.5908 35.0496 11.7288 34.8381C11.7748 34.7676 11.8686 34.7482 11.9384 34.7945C12.0081 34.8408 12.0275 34.9354 11.9815 35.0058C11.8367 35.2274 11.6771 35.4424 11.5069 35.6447C11.49 35.6648 11.4688 35.6794 11.446 35.6882ZM12.2955 34.3884C12.2572 34.4032 12.2132 34.4024 12.1737 34.3826C12.099 34.3451 12.0684 34.2536 12.1056 34.1782C12.2177 33.9511 12.317 33.7152 12.4008 33.4771C12.4288 33.3977 12.5154 33.3563 12.5939 33.3844C12.6727 33.4126 12.7138 33.4997 12.6858 33.579C12.5979 33.8286 12.4939 34.076 12.3765 34.3139C12.359 34.3495 12.3295 34.3751 12.2955 34.3884ZM12.8116 32.9206C12.7847 32.931 12.7547 32.9339 12.7244 32.927C12.6429 32.9087 12.5916 32.8272 12.6097 32.7449C12.6647 32.4975 12.705 32.2445 12.7294 31.993C12.7377 31.9094 12.8116 31.848 12.8947 31.8562C12.9778 31.8645 13.0386 31.939 13.0304 32.0229C13.0047 32.2866 12.9625 32.552 12.905 32.8115C12.8935 32.8632 12.8572 32.9029 12.8116 32.9206Z" fill="url(#paint9_linear_20781_28691)"/>
<path d="M5.15188 37.7938C5.12465 37.8044 5.09415 37.8071 5.06355 37.8C4.93743 37.7706 4.81166 37.7373 4.68957 37.7011C4.6095 37.6773 4.56358 37.5925 4.58716 37.5117C4.61095 37.4312 4.69483 37.3849 4.775 37.4085C4.89138 37.4431 5.01144 37.4748 5.13178 37.503C5.21315 37.522 5.26385 37.6039 5.24499 37.6859C5.23322 37.737 5.19718 37.7762 5.15188 37.7938Z" fill="url(#paint10_linear_20781_28691)"/>
</g>
<path d="M4.56774 35.904C4.59611 35.9203 4.63163 35.9167 4.65617 35.895L5.35689 35.2755C5.77411 35.4004 6.21411 35.4592 6.66169 35.4427L7.18655 36.2184C7.20497 36.2456 7.23846 36.2581 7.26999 36.2494L8.34841 35.9525C8.37994 35.9438 8.40252 35.9159 8.40465 35.8831L8.46558 34.9461C8.85936 34.7309 9.20866 34.4548 9.50496 34.1334L10.4207 34.3079C10.4529 34.314 10.4852 34.2989 10.5015 34.2703L11.0558 33.2915C11.072 33.2629 11.0684 33.2271 11.0469 33.2024L10.4324 32.4959C10.5563 32.0753 10.6146 31.6317 10.5983 31.1804L11.3677 30.6513C11.3947 30.6327 11.407 30.5989 11.3984 30.5672L11.1039 29.48C11.0953 29.4482 11.0677 29.4254 11.0351 29.4233L10.1056 29.3618C9.8922 28.9648 9.61838 28.6127 9.29957 28.314L9.47261 27.3907C9.47866 27.3583 9.46369 27.3256 9.43533 27.3093L8.46451 26.7505C8.43615 26.7341 8.40062 26.7378 8.37608 26.7595L7.67537 27.379C7.25815 27.254 6.81814 27.1953 6.37056 27.2118L5.84567 26.4361C5.82725 26.4089 5.79376 26.3964 5.76223 26.4051L4.68381 26.702C4.65228 26.7107 4.62974 26.7385 4.62757 26.7714L4.56664 27.7084C4.17286 27.9236 3.82355 28.1996 3.52722 28.521L2.61144 28.3466C2.57933 28.3404 2.5469 28.3556 2.53073 28.3842L1.97644 29.3629C1.96026 29.3915 1.96381 29.4273 1.98536 29.4521L2.59984 30.1585C2.47589 30.5791 2.41762 31.0227 2.43397 31.474L1.66451 32.0031C1.63756 32.0217 1.6252 32.0555 1.63384 32.0873L1.92835 33.1745C1.93696 33.2063 1.9646 33.229 1.9972 33.2312L2.9266 33.2926C3.14005 33.6896 3.41387 34.0417 3.73265 34.3405L3.55961 35.2638C3.55355 35.2961 3.56853 35.3288 3.59689 35.3451L4.56774 35.904Z" fill="url(#paint11_linear_20781_28691)"/>
<path d="M6.92451 32.4058C6.69685 32.4942 6.44809 32.5067 6.20882 32.4395C5.91449 32.3569 5.66969 32.1636 5.51954 31.8953C5.20954 31.3418 5.40412 30.637 5.95332 30.3242C6.50389 30.0122 7.20181 30.208 7.51181 30.7617C7.66206 31.03 7.69965 31.3412 7.61765 31.6378C7.53573 31.9346 7.34407 32.1815 7.07786 32.3329C7.02812 32.3611 6.97683 32.3855 6.92451 32.4058ZM6.21375 30.5367C6.17578 30.5514 6.13847 30.5691 6.10198 30.5898C5.69801 30.8198 5.55489 31.3382 5.78293 31.7456C5.89339 31.9428 6.07348 32.0851 6.28992 32.1457C6.50654 32.2065 6.73341 32.1784 6.9293 32.0673C7.12498 31.9559 7.26604 31.7743 7.32631 31.5561C7.38662 31.3378 7.35894 31.1089 7.24842 30.9115C7.04096 30.541 6.59651 30.3881 6.21375 30.5367Z" fill="#D93D66"/>
<path d="M7.55307 33.9863C7.46378 34.021 7.37201 34.0513 7.27783 34.0774C7.09075 34.129 6.8983 34.1614 6.7053 34.1738C6.69663 34.1743 6.68795 34.1747 6.67928 34.1753C6.61216 34.179 6.55292 34.138 6.52993 34.078C6.52435 34.0634 6.52094 34.0477 6.52008 34.0312C6.51554 33.9472 6.57966 33.8757 6.6629 33.8708C6.84319 33.861 7.02322 33.8314 7.19804 33.7832L7.19811 33.7832C7.20772 33.7806 7.21732 33.7778 7.22682 33.7751C7.63953 33.6572 8.00743 33.44 8.3061 33.1454C8.46823 32.9854 8.60994 32.8025 8.72711 32.5998C8.72807 32.5982 8.729 32.5965 8.72996 32.5949C8.73282 32.5898 8.73578 32.5848 8.73857 32.5797C9.07576 31.9842 9.16285 31.292 8.98365 30.6306C8.96052 30.5449 8.93322 30.4613 8.90204 30.3795C8.69203 29.8299 8.30414 29.3736 7.78988 29.0775C7.19921 28.7376 6.51265 28.6499 5.85661 28.8306C5.20102 29.0113 4.65345 29.4386 4.31612 30.034C3.97893 30.6295 3.89184 31.3217 4.07104 31.9832C4.09379 32.0674 4.12078 32.1501 4.15166 32.2309C4.28566 32.5816 4.49422 32.8987 4.76353 33.1589C4.78012 33.1749 4.79231 33.1938 4.79998 33.2141C4.82036 33.2674 4.80996 33.3304 4.76807 33.3744C4.71011 33.435 4.61462 33.4373 4.55418 33.3789C4.25286 33.0878 4.01948 32.7329 3.86951 32.3407C3.83491 32.2502 3.80472 32.1577 3.77922 32.0635C3.57875 31.3234 3.67616 30.549 4.05349 29.8827C4.43081 29.2166 5.04227 28.738 5.77682 28.5363C6.51086 28.3342 7.27897 28.4323 7.93982 28.8129C8.51514 29.144 8.94909 29.6545 9.18402 30.2694C9.21888 30.3607 9.24945 30.4545 9.2754 30.5502C9.66347 31.983 8.89939 33.4637 7.55307 33.9863Z" fill="#D93D66"/>
<path d="M57.5086 84.88H30.8674V56.5711C30.8674 55.973 31.3483 55.4883 31.9414 55.4883H56.4345C57.0277 55.4883 57.5086 55.9731 57.5086 56.5711L57.5086 84.88Z" fill="url(#paint12_linear_20781_28691)"/>
<path d="M38.7813 85.0011H15.8252V66.3718C15.8252 65.7738 16.3061 65.2891 16.8992 65.2891H37.7073C38.3004 65.2891 38.7813 65.7739 38.7813 66.3718L38.7813 85.0011Z" fill="url(#paint13_linear_20781_28691)"/>
<path d="M23.4948 84.9996H0.538696V71.5203C0.538696 70.9223 1.01954 70.4375 1.61271 70.4375H22.4208C23.0139 70.4375 23.4948 70.9223 23.4948 71.5203L23.4948 84.9996Z" fill="url(#paint14_linear_20781_28691)"/>
<path d="M65.2125 70.2844C81.6637 70.2844 95 56.8391 95 40.2535C95 23.6679 81.6637 10.2227 65.2125 10.2227C48.7613 10.2227 35.425 23.6679 35.425 40.2535C35.425 56.8391 48.7613 70.2844 65.2125 70.2844Z" fill="url(#paint15_linear_20781_28691)"/>
<path d="M65.213 65.8854C79.2534 65.8854 90.6355 54.4104 90.6355 40.2552C90.6355 26.1 79.2534 14.625 65.213 14.625C51.1725 14.625 39.7905 26.1 39.7905 40.2552C39.7905 54.4104 51.1725 65.8854 65.213 65.8854Z" fill="url(#paint16_linear_20781_28691)"/>
<path d="M65.2128 66.5516C58.2449 66.5516 51.6941 63.816 46.767 58.8488C41.84 53.8814 39.1266 47.2772 39.1266 40.2524C39.1266 33.2276 41.84 26.6232 46.767 21.656C51.6941 16.6887 58.2449 13.9531 65.2128 13.9531C72.1806 13.9531 78.7314 16.6887 83.6585 21.656C88.5854 26.6233 91.2989 33.2276 91.2989 40.2524C91.2989 47.2772 88.5854 53.8814 83.6585 58.8488C78.7314 63.816 72.1806 66.5516 65.2128 66.5516ZM65.2128 15.2912C51.5606 15.2912 40.4538 26.4888 40.4538 40.2523C40.4538 54.0159 51.5606 65.2134 65.2128 65.2134C78.8649 65.2134 89.9716 54.0159 89.9716 40.2523C89.9716 26.4888 78.8649 15.2912 65.2128 15.2912Z" fill="white"/>
<path d="M65.2141 55.8797C73.7738 55.8797 80.7128 48.884 80.7128 40.2543C80.7128 31.6246 73.7738 24.6289 65.2141 24.6289C56.6543 24.6289 49.7153 31.6246 49.7153 40.2543C49.7153 48.884 56.6543 55.8797 65.2141 55.8797Z" fill="url(#paint17_linear_20781_28691)"/>
<path d="M65.2138 56.546C56.3018 56.546 49.0514 49.2363 49.0514 40.2515C49.0514 31.2667 56.3018 23.957 65.2138 23.957C74.1259 23.957 81.3763 31.2667 81.3763 40.2515C81.3763 49.2363 74.1259 56.546 65.2138 56.546ZM65.2138 25.2952C57.0337 25.2952 50.3787 32.0046 50.3787 40.2516C50.3787 48.4985 57.0337 55.2078 65.2138 55.2078C73.394 55.2078 80.049 48.4985 80.049 40.2516C80.049 32.0046 73.394 25.2952 65.2138 25.2952Z" fill="white"/>
<path d="M65.2134 46.3106C68.5296 46.3106 71.218 43.6002 71.218 40.2568C71.218 36.9135 68.5296 34.2031 65.2134 34.2031C61.8971 34.2031 59.2087 36.9135 59.2087 40.2568C59.2087 43.6002 61.8971 46.3106 65.2134 46.3106Z" fill="url(#paint18_linear_20781_28691)"/>
<path d="M65.2132 46.9769C61.5363 46.9769 58.5449 43.961 58.5449 40.2541C58.5449 36.5471 61.5363 33.5312 65.2132 33.5312C68.8902 33.5312 71.8815 36.5471 71.8815 40.2541C71.8815 43.961 68.8902 46.9769 65.2132 46.9769ZM65.2132 34.8694C62.2681 34.8694 59.8722 37.2849 59.8722 40.2541C59.8722 43.2232 62.2681 45.6387 65.2132 45.6387C68.1583 45.6387 70.5542 43.2232 70.5542 40.2541C70.5542 37.285 68.1583 34.8694 65.2132 34.8694Z" fill="url(#paint19_linear_20781_28691)"/>
<path d="M90.023 13.125L90.6266 13.6906L69.3805 36.7355L68.7768 36.1698L90.023 13.125Z" fill="white"/>
<path d="M69.1379 34.735C69.4598 34.3859 71.0924 35.9158 70.7705 36.2649L65.0966 41.1102C64.887 41.2892 64.5972 41.0175 64.7589 40.7937L69.1379 34.735Z" fill="url(#paint20_linear_20781_28691)"/>
<path d="M90.6142 13.7031L93.5916 13.8911L89.6678 18.1471C88.3821 19.5415 86.5439 20.2811 84.6592 20.1621L90.6142 13.7031Z" fill="url(#paint21_linear_20781_28691)"/>
<path d="M90.0106 13.1363L89.6073 10.1562L85.6835 14.4123C84.3979 15.8067 83.8004 17.709 84.0557 19.5953L90.0106 13.1363Z" fill="url(#paint22_linear_20781_28691)"/>
<defs>
<linearGradient id="paint0_linear_20781_28691" x1="78.1137" y1="18.1683" x2="66.4657" y2="86.2132" gradientUnits="userSpaceOnUse">
<stop stop-color="#FF7A0A"/>
<stop offset="1" stop-color="#FBCD7F"/>
</linearGradient>
<linearGradient id="paint1_linear_20781_28691" x1="4.47251" y1="20.861" x2="19.1186" y2="15.2677" gradientUnits="userSpaceOnUse">
<stop stop-color="#B37CFF"/>
<stop offset="1" stop-color="#F895E7"/>
</linearGradient>
<linearGradient id="paint2_linear_20781_28691" x1="18.3153" y1="11.0298" x2="19.1707" y2="10.7031" gradientUnits="userSpaceOnUse">
<stop stop-color="#B37CFF"/>
<stop offset="1" stop-color="#F895E7"/>
</linearGradient>
<linearGradient id="paint3_linear_20781_28691" x1="25.2586" y1="15.8883" x2="25.8456" y2="15.6641" gradientUnits="userSpaceOnUse">
<stop stop-color="#B37CFF"/>
<stop offset="1" stop-color="#F895E7"/>
</linearGradient>
<linearGradient id="paint4_linear_20781_28691" x1="13.48" y1="28.1722" x2="28.5659" y2="22.4109" gradientUnits="userSpaceOnUse">
<stop stop-color="#B37CFF"/>
<stop offset="1" stop-color="#F895E7"/>
</linearGradient>
<linearGradient id="paint5_linear_20781_28691" x1="13.2018" y1="31.9556" x2="14.0463" y2="31.6331" gradientUnits="userSpaceOnUse">
<stop stop-color="#B37CFF"/>
<stop offset="1" stop-color="#F895E7"/>
</linearGradient>
<linearGradient id="paint6_linear_20781_28691" x1="22.5885" y1="11.8743" x2="-11.381" y2="62.7769" gradientUnits="userSpaceOnUse">
<stop stop-color="#FDF53F"/>
<stop offset="1" stop-color="#D93C65"/>
</linearGradient>
<linearGradient id="paint7_linear_20781_28691" x1="1.16619" y1="35.1958" x2="1.53846" y2="35.0536" gradientUnits="userSpaceOnUse">
<stop stop-color="#B37CFF"/>
<stop offset="1" stop-color="#F895E7"/>
</linearGradient>
<linearGradient id="paint8_linear_20781_28691" x1="-0.590974" y1="31.051" x2="6.70492" y2="28.2647" gradientUnits="userSpaceOnUse">
<stop stop-color="#B37CFF"/>
<stop offset="1" stop-color="#F895E7"/>
</linearGradient>
<linearGradient id="paint9_linear_20781_28691" x1="5.34317" y1="36.8335" x2="13.6704" y2="33.6533" gradientUnits="userSpaceOnUse">
<stop stop-color="#B37CFF"/>
<stop offset="1" stop-color="#F895E7"/>
</linearGradient>
<linearGradient id="paint10_linear_20781_28691" x1="4.63086" y1="37.7135" x2="5.20037" y2="37.496" gradientUnits="userSpaceOnUse">
<stop stop-color="#B37CFF"/>
<stop offset="1" stop-color="#F895E7"/>
</linearGradient>
<linearGradient id="paint11_linear_20781_28691" x1="10.209" y1="25.7027" x2="-10.0602" y2="56.0757" gradientUnits="userSpaceOnUse">
<stop stop-color="#FDF53F"/>
<stop offset="1" stop-color="#D93C65"/>
</linearGradient>
<linearGradient id="paint12_linear_20781_28691" x1="7.5695" y1="55.343" x2="38.1714" y2="131.75" gradientUnits="userSpaceOnUse">
<stop stop-color="#5DC8DE"/>
<stop offset="1" stop-color="#014E60"/>
</linearGradient>
<linearGradient id="paint13_linear_20781_28691" x1="41.6953" y1="49.5169" x2="37.656" y2="86.3429" gradientUnits="userSpaceOnUse">
<stop stop-color="#FF7A0A"/>
<stop offset="1" stop-color="#FBCD7F"/>
</linearGradient>
<linearGradient id="paint14_linear_20781_28691" x1="-19.5366" y1="70.3655" x2="-9.93002" y2="112.082" gradientUnits="userSpaceOnUse">
<stop stop-color="#5DC8DE"/>
<stop offset="1" stop-color="#014E60"/>
</linearGradient>
<linearGradient id="paint15_linear_20781_28691" x1="94.7406" y1="-6.30313" x2="1.05903" y2="111.99" gradientUnits="userSpaceOnUse">
<stop stop-color="#016C83"/>
<stop offset="1" stop-color="#19154D"/>
</linearGradient>
<linearGradient id="paint16_linear_20781_28691" x1="88.1627" y1="2.02881" x2="51.7846" y2="45.659" gradientUnits="userSpaceOnUse">
<stop stop-color="#014352"/>
<stop offset="1" stop-color="#016B83"/>
</linearGradient>
<linearGradient id="paint17_linear_20781_28691" x1="52.5754" y1="57.6327" x2="84.446" y2="22.2287" gradientUnits="userSpaceOnUse">
<stop stop-color="#026C83"/>
<stop offset="1" stop-color="#015265"/>
</linearGradient>
<linearGradient id="paint18_linear_20781_28691" x1="63.6232" y1="42.098" x2="70.2028" y2="36.2485" gradientUnits="userSpaceOnUse">
<stop stop-color="#63BCCF"/>
<stop offset="1" stop-color="#00819F"/>
</linearGradient>
<linearGradient id="paint19_linear_20781_28691" x1="70.2543" y1="32.5762" x2="42.5853" y2="74.0372" gradientUnits="userSpaceOnUse">
<stop stop-color="#D93C65"/>
<stop offset="1" stop-color="#FDF53F"/>
</linearGradient>
<linearGradient id="paint20_linear_20781_28691" x1="70.068" y1="34.223" x2="56.4663" y2="53.554" gradientUnits="userSpaceOnUse">
<stop stop-color="#FDF53F"/>
<stop offset="1" stop-color="#D93C65"/>
</linearGradient>
<linearGradient id="paint21_linear_20781_28691" x1="92.5018" y1="13.2434" x2="81.2561" y2="36.693" gradientUnits="userSpaceOnUse">
<stop stop-color="#FDF53F"/>
<stop offset="1" stop-color="#D93C65"/>
</linearGradient>
<linearGradient id="paint22_linear_20781_28691" x1="89.277" y1="9.48577" x2="68.2579" y2="29.7132" gradientUnits="userSpaceOnUse">
<stop stop-color="#FDF53F"/>
<stop offset="1" stop-color="#D93C65"/>
</linearGradient>
</defs>
</svg>
