<svg width="24" height="24" viewBox="0 0 24 24" fill="none" xmlns="http://www.w3.org/2000/svg">
<path d="M10.7969 6.51232C11.821 7.53344 12.3852 8.89149 12.3852 10.3361C12.3852 13.3181 9.9526 15.7436 6.9619 15.7436C3.97113 15.7436 1.53856 13.3181 1.53856 10.3361C1.53856 7.35405 3.97121 4.92858 6.9619 4.92858C8.41075 4.92858 9.77281 5.4912 10.7969 6.51232ZM7.34632 6.71943C8.04903 6.79259 8.70732 7.06462 9.25608 7.50769L9.97223 6.79363C9.2292 6.16407 8.31877 5.78797 7.34736 5.70965V6.7184L7.34632 6.71943ZM2.32193 9.95286H3.33363C3.51241 8.25271 4.87238 6.89775 6.57759 6.71838V5.70963C4.31648 5.89407 2.50685 7.69835 2.32193 9.95286ZM6.57859 13.9528C4.87347 13.7746 3.51454 12.4196 3.3357 10.7194H2.32399C2.50897 12.9739 4.31849 14.7771 6.5796 14.9626V13.9538L6.57859 13.9528ZM6.96198 13.2068C8.55033 13.2068 9.84111 11.9188 9.84111 10.3361C9.84111 9.5695 9.54143 8.84822 8.99785 8.30623C8.45427 7.76424 7.73088 7.46543 6.96203 7.46543C5.37368 7.46543 4.0829 8.75342 4.0829 10.3362C4.0829 11.9189 5.37461 13.2068 6.96198 13.2068ZM11.6176 10.3361C11.6176 9.22432 11.228 8.17331 10.5149 7.3356L9.79878 8.04965C10.3238 8.69468 10.61 9.49428 10.61 10.3361C10.61 12.2125 9.17769 13.761 7.34648 13.9528V14.9616C9.73468 14.7658 11.6177 12.7658 11.6177 10.3351L11.6176 10.3361ZM6.05483 22.4906H7.8695C8.08135 22.4906 8.25289 22.3195 8.25289 22.1083C8.25289 21.8971 8.08135 21.726 7.8695 21.726H6.05483C5.84298 21.726 5.67144 21.8971 5.67144 22.1083C5.67144 22.3196 5.84299 22.4906 6.05483 22.4906ZM24 13.6621V23.6177C24 23.829 23.8285 24 23.6166 24H11.412C11.2001 24 11.0286 23.829 11.0286 23.6177V23.5435H1.31658C0.590086 23.5435 0 22.9541 0 22.2308V1.31273C0 0.588363 0.591118 0 1.31658 0H12.6066C13.3331 0 13.9232 0.589392 13.9232 1.31273V13.4612L15.6945 11.4591C15.8164 11.321 16.02 11.2891 16.1791 11.3829L18.8855 12.9892L21.6715 10.2762H21.3036C21.0918 10.2762 20.9203 10.1052 20.9203 9.89398C20.9203 9.68275 21.0918 9.51171 21.3036 9.51171H22.6068C22.8186 9.51171 22.9902 9.68275 22.9902 9.89398V11.1861C22.9902 11.3973 22.8186 11.5684 22.6068 11.5684C22.3949 11.5684 22.2234 11.3973 22.2234 11.1861V10.811L19.212 13.7435C19.0869 13.865 18.8968 13.8867 18.747 13.7991L16.0612 12.204L13.9252 14.6182V19.188H14.0791V15.6312C14.0791 15.4199 14.2507 15.2489 14.4625 15.2489H17.5141C17.726 15.2489 17.8975 15.4199 17.8975 15.6312V17.218H20.1814V13.6611C20.1814 13.4499 20.3529 13.2789 20.5648 13.2789H23.6164C23.8282 13.2789 24 13.4509 24 13.6621ZM0.767998 1.53031H13.1565V1.31187C13.1565 1.00997 12.9105 0.764735 12.6078 0.764735H1.31663C1.01385 0.764735 0.767892 1.00997 0.767892 1.31187L0.767998 1.53031ZM11.0276 21.417H0.767998V22.23C0.767998 22.5319 1.01395 22.7771 1.31673 22.7771H11.0266V21.417H11.0276ZM11.411 19.1893H13.1565V15.4871L13.1286 15.518C13.0531 15.6036 12.9467 15.6479 12.8403 15.6479C12.7503 15.6479 12.6594 15.6159 12.586 15.5521C12.4269 15.4119 12.4114 15.1698 12.5519 15.0121L13.1554 14.33L13.1565 2.29712H0.767968V20.6526H11.0276V19.5727C11.0276 19.3615 11.1992 19.1904 11.411 19.1904L11.411 19.1893ZM14.0782 19.9549H11.7954V23.2358H14.0782V19.9549ZM17.1299 16.0145H14.8471V23.2345H17.1299V16.0145ZM20.1804 17.9846H17.8966V23.2355H20.1804V17.9846ZM23.2321 14.0443H20.9493V23.2344H23.2321V14.0443ZM10.2721 16.2215H3.70062C3.48877 16.2215 3.31723 16.3925 3.31723 16.6038C3.31723 16.815 3.48878 16.986 3.70062 16.986H10.2721C10.484 16.986 10.6555 16.815 10.6555 16.6038C10.6555 16.3925 10.484 16.2215 10.2721 16.2215ZM10.2721 17.7527H3.70062C3.48877 17.7527 3.31723 17.9237 3.31723 18.1349C3.31723 18.3462 3.48878 18.5172 3.70062 18.5172H10.2721C10.484 18.5172 10.6555 18.3462 10.6555 18.1349C10.6555 17.9237 10.484 17.7527 10.2721 17.7527ZM10.2721 19.2838H3.70062C3.48877 19.2838 3.31723 19.4549 3.31723 19.6661C3.31723 19.8773 3.48878 20.0484 3.70062 20.0484H10.2721C10.484 20.0484 10.6555 19.8773 10.6555 19.6661C10.6555 19.4549 10.484 19.2838 10.2721 19.2838Z" fill="white"/>
</svg>
