<svg width="88" height="108" viewBox="0 0 88 108" fill="none" xmlns="http://www.w3.org/2000/svg">
<g filter="url(#filter0_d_4144_79642)">
<rect x="20" y="16" width="68" height="68" rx="34" fill="#12486B"/>
<path d="M65.344 45.349C65.1701 45.3493 65.0034 45.4185 64.8804 45.5414C64.7575 45.6644 64.6883 45.8311 64.688 46.005V58.823C64.6875 59.3175 64.4908 59.7915 64.1412 60.1412C63.7915 60.4908 63.3175 60.6875 62.823 60.688H45.177C44.6825 60.6875 44.2085 60.4908 43.8588 60.1412C43.5092 59.7915 43.3125 59.3175 43.312 58.823V41.177C43.3125 40.6825 43.5092 40.2085 43.8588 39.8588C44.2085 39.5092 44.6825 39.3125 45.177 39.312H58C58.174 39.312 58.3408 39.2429 58.4639 39.1199C58.5869 38.9968 58.656 38.83 58.656 38.656C58.656 38.482 58.5869 38.3152 58.4639 38.1921C58.3408 38.0691 58.174 38 58 38H45.177C44.3347 38.0011 43.5273 38.3361 42.9317 38.9317C42.3361 39.5273 42.0011 40.3347 42 41.177V58.823C42.0011 59.6653 42.3361 60.4727 42.9317 61.0683C43.5273 61.6639 44.3347 61.9989 45.177 62H62.823C63.6653 61.9989 64.4727 61.6639 65.0683 61.0683C65.6639 60.4727 65.9989 59.6653 66 58.823V46C65.9984 45.827 65.9286 45.6615 65.8058 45.5397C65.683 45.4178 65.517 45.3493 65.344 45.349Z" fill="white" stroke="white"/>
<path d="M50.3223 50.5749L49.6043 53.2829C49.5623 53.4214 49.5534 53.5678 49.5782 53.7104C49.603 53.853 49.6609 53.9877 49.7473 54.1039C49.8302 54.2098 49.9366 54.2951 50.058 54.3531C50.1795 54.411 50.3127 54.4401 50.4473 54.4379C50.5409 54.4375 50.634 54.4247 50.7243 54.3999L53.4303 53.6769C54.0167 53.4991 54.5545 53.1891 55.0023 52.7709L65.2183 42.5489C65.4657 42.3015 65.6621 42.0079 65.7961 41.6846C65.93 41.3614 65.9991 41.015 65.9991 40.6651C65.9992 40.3152 65.9304 39.9687 65.7966 39.6454C65.6628 39.3221 65.4666 39.0284 65.2193 38.7809C64.9719 38.5334 64.6783 38.3371 64.355 38.2031C64.0318 38.0691 63.6854 38.0001 63.3355 38C62.9856 37.9999 62.6391 38.0687 62.3158 38.2025C61.9925 38.3364 61.6987 38.5325 61.4513 38.7799L51.2293 48.9999C50.8099 49.4482 50.4995 49.9872 50.3223 50.5749ZM62.3783 39.7079C62.5039 39.5823 62.653 39.4826 62.8171 39.4147C62.9812 39.3467 63.1571 39.3117 63.3348 39.3117C63.5124 39.3117 63.6883 39.3467 63.8524 39.4147C64.0165 39.4826 64.1657 39.5823 64.2913 39.7079C64.4169 39.8335 64.5165 39.9826 64.5845 40.1467C64.6525 40.3108 64.6875 40.4867 64.6875 40.6644C64.6875 40.842 64.6525 41.0179 64.5845 41.182C64.5165 41.3461 64.4169 41.4953 64.2913 41.6209L63.2113 42.6999L61.2983 40.7879L62.3783 39.7079ZM60.3713 41.7159L62.2843 43.6289L55.0113 50.8999L53.0983 48.9869L60.3713 41.7159ZM52.1573 49.9309L52.1723 49.9159L54.0853 51.8289L54.0713 51.8429C53.787 52.0988 53.4521 52.292 53.0883 52.4099L51.0463 52.9549L51.5923 50.9129C51.7092 50.5496 51.9024 50.215 52.1573 49.9309Z" fill="white" stroke="white" stroke-width="0.5"/>
</g>
<defs>
<filter id="filter0_d_4144_79642" x="0" y="0" width="108" height="108" filterUnits="userSpaceOnUse" color-interpolation-filters="sRGB">
<feFlood flood-opacity="0" result="BackgroundImageFix"/>
<feColorMatrix in="SourceAlpha" type="matrix" values="0 0 0 0 0 0 0 0 0 0 0 0 0 0 0 0 0 0 127 0" result="hardAlpha"/>
<feOffset dy="4"/>
<feGaussianBlur stdDeviation="10"/>
<feComposite in2="hardAlpha" operator="out"/>
<feColorMatrix type="matrix" values="0 0 0 0 0 0 0 0 0 0 0 0 0 0 0 0 0 0 0.06 0"/>
<feBlend mode="normal" in2="BackgroundImageFix" result="effect1_dropShadow_4144_79642"/>
<feBlend mode="normal" in="SourceGraphic" in2="effect1_dropShadow_4144_79642" result="shape"/>
</filter>
</defs>
</svg>
