<svg width="140" height="42" viewBox="0 0 140 42" fill="none" xmlns="http://www.w3.org/2000/svg">
<path d="M134.819 41.7408H5.18982C2.28612 41.7408 0.00463867 39.4593 0.00463867 36.5556V5.44446C0.00463867 2.54076 2.28612 0.259277 5.18982 0.259277H134.819C137.723 0.259277 140.005 2.54076 140.005 5.44446V36.5556C140.005 39.4593 137.723 41.7408 134.819 41.7408Z" fill="black"/>
<path d="M134.819 1.08891C137.205 1.08891 139.175 3.05928 139.175 5.44446V36.5556C139.175 38.9408 137.205 40.9111 134.819 40.9111H5.18982C2.80464 40.9111 0.834268 38.9408 0.834268 36.5556V5.44446C0.834268 3.05928 2.80464 1.08891 5.18982 1.08891H134.819ZM134.819 0.259277H5.18982C2.28612 0.259277 0.00463867 2.64446 0.00463867 5.44446V36.5556C0.00463867 39.4593 2.28612 41.7408 5.18982 41.7408H134.819C137.723 41.7408 140.005 39.4593 140.005 36.5556V5.44446C140.005 2.64446 137.723 0.259277 134.819 0.259277Z" fill="#A6A6A6"/>
<path d="M49.1619 10.8401C49.1619 11.6697 48.9545 12.3956 48.436 12.9141C47.8138 13.5364 47.0878 13.8475 46.1545 13.8475C45.2212 13.8475 44.4953 13.5364 43.873 12.9141C43.2508 12.2919 42.9397 11.566 42.9397 10.6327C42.9397 9.69933 43.2508 8.9734 43.873 8.35118C44.4953 7.72896 45.2212 7.41785 46.1545 7.41785C46.5693 7.41785 46.9841 7.52155 47.399 7.72896C47.8138 7.93636 48.1249 8.14377 48.3323 8.45488L47.8138 8.9734C47.399 8.45488 46.8804 8.24748 46.1545 8.24748C45.5323 8.24748 44.9101 8.45488 44.4953 8.9734C43.9767 9.38822 43.7693 10.0104 43.7693 10.7364C43.7693 11.4623 43.9767 12.0845 44.4953 12.4993C45.0138 12.9141 45.5323 13.2253 46.1545 13.2253C46.8804 13.2253 47.399 13.0178 47.9175 12.4993C48.2286 12.1882 48.436 11.7734 48.436 11.2549H46.1545V10.4253H49.1619V10.8401ZM53.9323 8.24748H51.1323V10.2178H53.7249V10.9438H51.1323V12.9141H53.9323V13.7438H50.3027V7.52155H53.9323V8.24748ZM57.3545 13.7438H56.5249V8.24748H54.7619V7.52155H59.1175V8.24748H57.3545V13.7438ZM62.1249 13.7438V7.52155H62.9545V13.7438H62.1249ZM66.4804 13.7438H65.6508V8.24748H63.8878V7.52155H68.1397V8.24748H66.3767V13.7438H66.4804ZM76.3323 12.9141C75.7101 13.5364 74.9841 13.8475 74.0508 13.8475C73.1175 13.8475 72.3915 13.5364 71.7693 12.9141C71.1471 12.2919 70.836 11.566 70.836 10.6327C70.836 9.69933 71.1471 8.9734 71.7693 8.35118C72.3915 7.72896 73.1175 7.41785 74.0508 7.41785C74.9841 7.41785 75.7101 7.72896 76.3323 8.35118C76.9545 8.9734 77.2656 9.69933 77.2656 10.6327C77.2656 11.566 76.9545 12.2919 76.3323 12.9141ZM72.3916 12.3956C72.8064 12.8104 73.4286 13.1216 74.0508 13.1216C74.673 13.1216 75.2953 12.9141 75.7101 12.3956C76.1249 11.9808 76.436 11.3586 76.436 10.6327C76.436 9.90674 76.2286 9.28451 75.7101 8.8697C75.2953 8.45488 74.673 8.14377 74.0508 8.14377C73.4286 8.14377 72.8064 8.35118 72.3916 8.8697C71.9767 9.28451 71.6656 9.90674 71.6656 10.6327C71.6656 11.3586 71.873 11.9808 72.3916 12.3956ZM78.4064 13.7438V7.52155H79.3397L82.3471 12.3956V7.52155H83.1767V13.7438H82.3471L79.1323 8.66229V13.7438H78.4064Z" fill="white" stroke="white" stroke-width="1.18519" stroke-miterlimit="10"/>
<path d="M70.6245 22.8666C68.1356 22.8666 66.1653 24.7333 66.1653 27.3259C66.1653 29.8148 68.1356 31.7851 70.6245 31.7851C73.1134 31.7851 75.0838 29.9185 75.0838 27.3259C75.0838 24.6296 73.1134 22.8666 70.6245 22.8666ZM70.6245 29.9185C69.2764 29.9185 68.1356 28.7777 68.1356 27.2222C68.1356 25.6666 69.2764 24.5259 70.6245 24.5259C71.9727 24.5259 73.1134 25.5629 73.1134 27.2222C73.1134 28.7777 71.9727 29.9185 70.6245 29.9185ZM60.9801 22.8666C58.4912 22.8666 56.5208 24.7333 56.5208 27.3259C56.5208 29.8148 58.4912 31.7851 60.9801 31.7851C63.469 31.7851 65.4393 29.9185 65.4393 27.3259C65.4393 24.6296 63.469 22.8666 60.9801 22.8666ZM60.9801 29.9185C59.6319 29.9185 58.4912 28.7777 58.4912 27.2222C58.4912 25.6666 59.6319 24.5259 60.9801 24.5259C62.3282 24.5259 63.469 25.5629 63.469 27.2222C63.469 28.7777 62.3282 29.9185 60.9801 29.9185ZM49.469 24.2148V26.0814H53.9282C53.8245 27.1185 53.4097 27.9481 52.8912 28.4666C52.269 29.0889 51.2319 29.8148 49.469 29.8148C46.669 29.8148 44.5949 27.637 44.5949 24.837C44.5949 22.037 46.7727 19.8592 49.469 19.8592C50.9208 19.8592 52.0616 20.4814 52.8912 21.2074L54.2393 19.8592C53.0986 18.8222 51.6467 17.9926 49.5727 17.9926C45.8393 17.9926 42.6245 21.1037 42.6245 24.837C42.6245 28.5703 45.8393 31.6814 49.5727 31.6814C51.6467 31.6814 53.0986 31.0592 54.343 29.7111C55.5875 28.4666 56.0023 26.7037 56.0023 25.3555C56.0023 24.9407 56.0023 24.5259 55.8986 24.2148H49.469ZM96.5504 25.6666C96.1356 24.6296 95.0986 22.8666 92.8171 22.8666C90.5356 22.8666 88.669 24.6296 88.669 27.3259C88.669 29.8148 90.5356 31.7851 93.0245 31.7851C94.9949 31.7851 96.2393 30.5407 96.6541 29.8148L95.2023 28.7777C94.6838 29.5037 94.0615 30.0222 93.0245 30.0222C91.9875 30.0222 91.3652 29.6074 90.8467 28.674L96.7578 26.1851L96.5504 25.6666ZM90.5356 27.1185C90.5356 25.4592 91.8838 24.5259 92.8171 24.5259C93.543 24.5259 94.269 24.9407 94.4764 25.4592L90.5356 27.1185ZM85.6615 31.3703H87.6319V18.4074H85.6615V31.3703ZM82.5504 23.8C82.0319 23.2814 81.2023 22.7629 80.1653 22.7629C77.9875 22.7629 75.9134 24.7333 75.9134 27.2222C75.9134 29.7111 77.8838 31.5777 80.1653 31.5777C81.2023 31.5777 82.0319 31.0592 82.4467 30.5407H82.5504V31.1629C82.5504 32.8222 81.6171 33.7555 80.1653 33.7555C79.0245 33.7555 78.1949 32.9259 77.9875 32.2L76.3282 32.9259C76.8467 34.0666 78.0912 35.5185 80.269 35.5185C82.5504 35.5185 84.4171 34.1703 84.4171 30.9555V23.074H82.5504V23.8ZM80.269 29.9185C78.9208 29.9185 77.7801 28.7777 77.7801 27.2222C77.7801 25.6666 78.9208 24.5259 80.269 24.5259C81.6171 24.5259 82.6541 25.6666 82.6541 27.2222C82.6541 28.7777 81.6171 29.9185 80.269 29.9185ZM105.573 18.4074H100.906V31.3703H102.876V26.4963H105.573C107.75 26.4963 109.825 24.9407 109.825 22.4518C109.825 19.9629 107.75 18.4074 105.573 18.4074ZM105.676 24.6296H102.876V20.1703H105.676C107.128 20.1703 107.958 21.4148 107.958 22.3481C107.854 23.4888 107.025 24.6296 105.676 24.6296ZM117.602 22.7629C116.15 22.7629 114.699 23.3851 114.18 24.7333L115.943 25.4592C116.358 24.7333 116.98 24.5259 117.706 24.5259C118.743 24.5259 119.676 25.1481 119.78 26.1851V26.2888C119.469 26.0814 118.639 25.7703 117.81 25.7703C115.943 25.7703 114.076 26.8074 114.076 28.674C114.076 30.437 115.632 31.5777 117.291 31.5777C118.639 31.5777 119.262 30.9555 119.78 30.3333H119.884V31.3703H121.75V26.3926C121.543 24.1111 119.78 22.7629 117.602 22.7629ZM117.395 29.9185C116.773 29.9185 115.839 29.6074 115.839 28.7777C115.839 27.7407 116.98 27.4296 117.913 27.4296C118.743 27.4296 119.158 27.637 119.676 27.8444C119.469 29.0889 118.432 29.9185 117.395 29.9185ZM128.284 23.074L126.106 28.674H126.002L123.721 23.074H121.647L125.069 30.9555L123.099 35.3111H125.069L130.358 23.074H128.284ZM110.862 31.3703H112.832V18.4074H110.862V31.3703Z" fill="white"/>
<path d="M10.793 8.03577C10.4819 8.34688 10.3782 8.8654 10.3782 9.48762V32.4061C10.3782 33.0284 10.5856 33.5469 10.8967 33.858L11.0004 33.9617L23.8597 21.1024V20.895L10.793 8.03577Z" fill="url(#paint0_linear_26409_182949)"/>
<path d="M28.0102 25.4629L23.7583 21.211V20.8999L28.0102 16.6481L28.1139 16.7518L33.1953 19.6555C34.6472 20.4851 34.6472 21.8333 33.1953 22.6629L28.0102 25.4629Z" fill="url(#paint1_linear_26409_182949)"/>
<path d="M28.1142 25.3549L23.7586 20.9994L10.7957 33.9624C11.3142 34.4809 12.0401 34.4809 12.9734 34.0661L28.1142 25.3549Z" fill="url(#paint2_linear_26409_182949)"/>
<path d="M28.1142 16.6431L12.9734 8.03572C12.0401 7.51721 11.3142 7.62091 10.7957 8.13943L23.7586 20.9987L28.1142 16.6431Z" fill="url(#paint3_linear_26409_182949)"/>
<path opacity="0.2" d="M28.0105 25.2513L12.9734 33.755C12.1438 34.2736 11.4179 34.1699 10.8994 33.755L10.7957 33.8588L10.8994 33.9625C11.4179 34.3773 12.1438 34.481 12.9734 33.9625L28.0105 25.2513Z" fill="black"/>
<path opacity="0.12" d="M10.793 33.7549C10.4819 33.4438 10.3782 32.9253 10.3782 32.3031V32.4068C10.3782 33.029 10.5856 33.5475 10.8967 33.8587V33.7549H10.793ZM33.193 22.3475L28.0078 25.2512L28.1115 25.3549L33.193 22.4512C33.9189 22.0364 34.23 21.5179 34.23 20.9994C34.23 21.5179 33.8152 21.9327 33.193 22.3475Z" fill="black"/>
<path opacity="0.25" d="M12.9708 8.14072L33.193 19.6518C33.8152 20.0666 34.23 20.4815 34.23 21C34.23 20.4815 33.9189 19.9629 33.193 19.5481L12.9708 8.03702C11.5189 7.20739 10.3782 7.82961 10.3782 9.48887V9.59257C10.3782 8.03702 11.5189 7.31109 12.9708 8.14072Z" fill="white"/>
<defs>
<linearGradient id="paint0_linear_26409_182949" x1="22.6152" y1="9.29058" x2="5.21062" y2="26.6941" gradientUnits="userSpaceOnUse">
<stop stop-color="#00A0FF"/>
<stop offset="0.007" stop-color="#00A1FF"/>
<stop offset="0.26" stop-color="#00BEFF"/>
<stop offset="0.512" stop-color="#00D2FF"/>
<stop offset="0.76" stop-color="#00DFFF"/>
<stop offset="1" stop-color="#00E3FF"/>
</linearGradient>
<linearGradient id="paint1_linear_26409_182949" x1="35.0973" y1="21.0047" x2="10.0041" y2="21.0047" gradientUnits="userSpaceOnUse">
<stop stop-color="#FFE000"/>
<stop offset="0.409" stop-color="#FFBD00"/>
<stop offset="0.775" stop-color="#FFA500"/>
<stop offset="1" stop-color="#FF9C00"/>
</linearGradient>
<linearGradient id="paint2_linear_26409_182949" x1="25.757" y1="23.3804" x2="2.1561" y2="46.9813" gradientUnits="userSpaceOnUse">
<stop stop-color="#FF3A44"/>
<stop offset="1" stop-color="#C31162"/>
</linearGradient>
<linearGradient id="paint3_linear_26409_182949" x1="7.57773" y1="0.440465" x2="18.1171" y2="10.9799" gradientUnits="userSpaceOnUse">
<stop stop-color="#32A071"/>
<stop offset="0.069" stop-color="#2DA771"/>
<stop offset="0.476" stop-color="#15CF74"/>
<stop offset="0.801" stop-color="#06E775"/>
<stop offset="1" stop-color="#00F076"/>
</linearGradient>
</defs>
</svg>
