<svg width="28" height="28" viewBox="0 0 28 28" fill="none" xmlns="http://www.w3.org/2000/svg">
<path d="M21.1781 4H4.8236C4.05056 4.00367 3.31021 4.31839 2.76358 4.87569C2.21695 5.433 1.90827 6.18781 1.90466 6.97594V16.491C1.90861 17.2609 2.20378 17.9995 2.72866 18.5529C3.25355 19.1064 3.96766 19.432 4.72221 19.4619V21.8445C4.72393 22.1504 4.8439 22.4433 5.05607 22.6596C5.26825 22.8759 5.55552 22.9982 5.85558 23H11.1301C11.4301 22.9981 11.7173 22.8757 11.9294 22.6595C12.1415 22.4432 12.2616 22.1504 12.2634 21.8445V19.4642H21.1781C21.9511 19.4601 22.6913 19.1449 23.2376 18.5873C23.7839 18.0297 24.0922 17.2747 24.0954 16.4866V6.97594C24.0918 6.1881 23.7833 5.43354 23.237 4.87628C22.6907 4.31902 21.9508 4.00411 21.1781 4ZM10.9645 21.6735H6.02219V17.6974H10.9623L10.9645 21.6735ZM21.1792 18.1383H12.2645V17.5236C12.2631 17.2338 12.1555 16.955 11.9629 16.742C11.7702 16.5289 11.5064 16.397 11.2232 16.372V15.6166C11.2199 14.9731 10.968 14.3568 10.522 13.9014C10.0761 13.446 9.47201 13.1881 8.84083 13.1837H8.14699C7.51614 13.188 6.91231 13.4454 6.46622 13.9002C6.02013 14.355 5.76767 14.9706 5.76351 15.6138V16.3709C5.48033 16.3958 5.21652 16.5278 5.02386 16.7409C4.8312 16.9539 4.72361 17.2327 4.72221 17.5225V18.131C4.31239 18.103 3.92816 17.9179 3.64681 17.6128C3.36546 17.3077 3.20787 16.9053 3.20574 16.4866V8.86119H22.7932V16.4894C22.791 16.9259 22.6201 17.344 22.3176 17.6529C22.015 17.9618 21.6052 18.1366 21.177 18.1394L21.1792 18.1383ZM9.92433 16.3715H7.0624V15.6205C7.06398 15.3278 7.17879 15.0476 7.38188 14.8408C7.58497 14.6339 7.85993 14.5171 8.14699 14.5158H8.84083C9.1277 14.5174 9.40238 14.6343 9.60523 14.8412C9.80809 15.048 9.92275 15.328 9.92433 15.6205V16.3715ZM19.6896 10.3631H16.0214C15.6007 10.3659 15.1981 10.5375 14.9006 10.8408C14.6031 11.1441 14.4348 11.5546 14.4321 11.9835V12.8982C14.4348 13.3271 14.6031 13.7377 14.9006 14.0409C15.1981 14.3442 15.6007 14.5158 16.0214 14.5186H19.6896C20.1107 14.5166 20.5141 14.3453 20.8121 14.0419C21.1102 13.7386 21.2789 13.3276 21.2816 12.8982V11.9858C21.2795 11.556 21.111 11.1445 20.8129 10.8406C20.5148 10.5368 20.1111 10.3652 19.6896 10.3631ZM19.9767 12.8954C19.9764 12.9737 19.9458 13.0487 19.8915 13.1041C19.8372 13.1595 19.7636 13.1907 19.6868 13.191H16.0214C15.9446 13.1907 15.871 13.1595 15.8167 13.1041C15.7624 13.0487 15.7318 12.9737 15.7315 12.8954V11.9858C15.7318 11.9075 15.7624 11.8325 15.8167 11.7771C15.871 11.7217 15.9446 11.6905 16.0214 11.6902H19.6896C19.7664 11.6905 19.8399 11.7217 19.8942 11.7771C19.9485 11.8325 19.9792 11.9075 19.9795 11.9858L19.9767 12.8954ZM12.304 10.3631H5.3722C5.19981 10.3631 5.03448 10.433 4.91258 10.5572C4.79069 10.6815 4.72221 10.8501 4.72221 11.0258C4.72221 11.2016 4.79069 11.3701 4.91258 11.4944C5.03448 11.6187 5.19981 11.6885 5.3722 11.6885H12.3056C12.478 11.6885 12.6433 11.6187 12.7652 11.4944C12.8871 11.3701 12.9556 11.2016 12.9556 11.0258C12.9556 10.8501 12.8871 10.6815 12.7652 10.5572C12.6433 10.433 12.478 10.3631 12.3056 10.3631H12.304ZM4.8236 5.32593H21.1775C21.6056 5.32887 22.0153 5.50374 22.3177 5.81262C22.6202 6.1215 22.791 6.53949 22.7932 6.97594V7.5347H3.20465V6.97594C3.20666 6.53887 3.3779 6.12029 3.68109 5.81129C3.98428 5.50228 4.3949 5.32784 4.8236 5.32593Z" fill="#FF8926"/>
</svg>
