<svg width="140" height="42" viewBox="0 0 140 42" fill="none" xmlns="http://www.w3.org/2000/svg">
<path d="M139.069 36.8443C139.069 37.3664 138.966 37.8834 138.766 38.3657C138.566 38.848 138.273 39.2862 137.904 39.6552C137.534 40.0242 137.096 40.3168 136.613 40.5162C136.13 40.7156 135.613 40.818 135.091 40.8174H4.90472C3.84956 40.8185 2.83715 40.4006 2.09016 39.6555C1.34317 38.9104 0.922762 37.8992 0.921387 36.8443V5.16006C0.922761 4.10465 1.34301 3.09293 2.08985 2.34703C2.83669 1.60113 3.84908 1.18204 4.90472 1.18176H135.09C135.612 1.18176 136.13 1.28467 136.613 1.48461C137.095 1.68455 137.534 1.97761 137.903 2.34704C138.273 2.71647 138.566 3.15505 138.766 3.63771C138.965 4.12037 139.068 4.63767 139.068 5.16006L139.069 36.8443Z" fill="white"/>
<path d="M135.093 41.7416H4.9068C3.60696 41.7414 2.36031 41.2256 1.4404 40.3074C0.520496 39.3893 0.00247325 38.1438 0 36.8442L0 5.16101C0.00192293 3.86082 0.519604 2.61447 1.43948 1.69538C2.35936 0.776295 3.60631 0.25952 4.9068 0.258423L135.092 0.258423C136.392 0.260068 137.639 0.777018 138.559 1.69599C139.479 2.61495 139.996 3.86098 139.999 5.16101V36.8442C140.001 39.5455 137.796 41.7416 135.093 41.7416Z" fill="#A6A6A6"/>
<path d="M139.069 36.8443C139.069 37.3664 138.966 37.8834 138.766 38.3657C138.566 38.848 138.273 39.2862 137.904 39.6552C137.534 40.0242 137.096 40.3168 136.613 40.5162C136.13 40.7156 135.613 40.818 135.091 40.8174H4.90472C3.84956 40.8185 2.83715 40.4006 2.09016 39.6555C1.34317 38.9104 0.922762 37.8992 0.921387 36.8443V5.16006C0.922761 4.10465 1.34301 3.09293 2.08985 2.34703C2.83669 1.60113 3.84908 1.18204 4.90472 1.18176H135.09C135.612 1.18176 136.13 1.28467 136.613 1.48461C137.095 1.68455 137.534 1.97761 137.903 2.34704C138.273 2.71647 138.566 3.15505 138.766 3.63771C138.965 4.12037 139.068 4.63767 139.068 5.16006L139.069 36.8443Z" fill="black"/>
<path d="M31.2623 20.7802C31.2322 17.4368 34.0005 15.8102 34.1271 15.7345C32.5593 13.4492 30.1292 13.1369 29.2753 13.112C27.2343 12.8973 25.2546 14.333 24.2149 14.333C23.1545 14.333 21.5535 13.1328 19.828 13.168C17.6075 13.2023 15.5303 14.4876 14.391 16.4835C12.0398 20.5531 13.7933 26.5335 16.0459 29.8229C17.1728 31.435 18.4895 33.2328 20.2129 33.1695C21.899 33.101 22.5288 32.0958 24.5636 32.0958C26.5796 32.0958 27.1711 33.1695 28.9287 33.129C30.7383 33.101 31.8776 31.5107 32.965 29.8852C34.2672 28.0397 34.7901 26.2202 34.8109 26.1268C34.7694 26.1123 31.2976 24.7865 31.2623 20.7802ZM27.942 10.9481C28.8489 9.81424 29.4693 8.27168 29.2971 6.7063C27.9845 6.76439 26.3431 7.61399 25.3978 8.72294C24.5615 9.70014 23.8144 11.3018 24.0074 12.8081C25.4818 12.918 26.9957 12.0643 27.942 10.9481Z" fill="white"/>
<path d="M135.098 0.258423H65.366L92.6786 41.7416H135.098C136.398 41.7405 137.644 41.224 138.564 40.3054C139.484 39.3868 140.002 38.1409 140.005 36.8411V5.16101C140.002 3.8609 139.485 2.61471 138.565 1.69568C137.645 0.776657 136.398 0.259794 135.098 0.258423Z" fill="url(#paint0_linear_26409_182939)"/>
<path d="M55.685 32.9428H53.3286L52.0378 28.8878H47.5513L46.3217 32.9428H44.0276L48.4737 19.1376H51.2192L55.685 32.9428ZM51.6487 27.1865L50.4814 23.5817C50.358 23.2134 50.1255 22.3462 49.7852 20.981H49.7437C49.6067 21.5681 49.3878 22.4354 49.0879 23.5817L47.9404 27.1865H51.6487ZM67.0965 27.8432C67.0965 29.5361 66.6368 30.8743 65.7165 31.8567C64.8926 32.7312 63.8685 33.168 62.6473 33.168C61.3285 33.168 60.3801 32.698 59.8043 31.7561V36.9792H57.5921V26.2601C57.5921 25.1968 57.5641 24.1066 57.5101 22.9883H59.4556L59.5791 24.5661H59.6206C60.3583 23.3773 61.4779 22.7829 62.9803 22.7829C64.1549 22.7829 65.1354 23.2466 65.9199 24.175C66.7032 25.1056 67.0965 26.3276 67.0965 27.8432ZM64.8428 27.9241C64.8428 26.9552 64.6249 26.1564 64.1871 25.5267C63.7087 24.8721 63.0665 24.5443 62.2613 24.5443C61.7155 24.5443 61.2195 24.7269 60.7765 25.0869C60.3324 25.45 60.0419 25.924 59.9059 26.5112C59.8453 26.7308 59.8108 26.9567 59.8032 27.1844V28.8453C59.8032 29.5683 60.0253 30.1793 60.4694 30.6793C60.9134 31.1773 61.4904 31.4273 62.2001 31.4273C63.0333 31.4273 63.6818 31.1046 64.1456 30.4646C64.6104 29.8225 64.8428 28.976 64.8428 27.9241ZM78.5485 27.8432C78.5485 29.5361 78.0888 30.8743 77.1685 31.8567C76.3436 32.7312 75.3205 33.168 74.0982 33.168C72.7794 33.168 71.831 32.698 71.2552 31.7561V36.9792H69.043V26.2601C69.043 25.1968 69.015 24.1066 68.9611 22.9883H70.9065L71.03 24.5661H71.0715C71.8082 23.3773 72.9278 22.7829 74.4313 22.7829C75.6048 22.7829 76.5853 23.2466 77.3718 24.175C78.1542 25.1056 78.5485 26.3276 78.5485 27.8432ZM76.2938 27.9241C76.2938 26.9552 76.0748 26.1564 75.637 25.5267C75.1586 24.8721 74.5184 24.5443 73.7133 24.5443C73.1675 24.5443 72.6715 24.7269 72.2264 25.0869C71.7823 25.45 71.4928 25.924 71.3569 26.5112C71.2894 26.785 71.2531 27.0081 71.2531 27.1844V28.8453C71.2531 29.5683 71.4762 30.1793 71.9182 30.6793C72.3623 31.1762 72.9392 31.4273 73.651 31.4273C74.4852 31.4273 75.1337 31.1046 75.5965 30.4646C76.0613 29.8225 76.2938 28.976 76.2938 27.9241ZM91.3524 29.0704C91.3524 30.2457 90.9415 31.2011 90.1249 31.9387C89.2264 32.7437 87.9719 33.1472 86.3636 33.1472C84.8778 33.1472 83.6866 32.8609 82.7881 32.2872L83.2996 30.4438C84.2698 31.0185 85.3354 31.3048 86.4954 31.3048C87.3296 31.3048 87.9781 31.116 88.4409 30.7416C88.9047 30.366 89.1392 29.8639 89.1392 29.2374C89.1392 28.6762 88.9452 28.2062 88.5644 27.8234C88.1815 27.4417 87.5486 27.0859 86.6594 26.7591C84.2417 25.8576 83.0319 24.5392 83.0319 22.8047C83.0319 21.6719 83.4594 20.7445 84.3123 20.0193C85.1652 19.2953 86.2962 18.9332 87.7032 18.9332C88.9597 18.9332 90.0066 19.1521 90.8378 19.5888L90.2826 21.3918C89.5003 20.9685 88.6173 20.7569 87.6295 20.7569C86.8492 20.7569 86.2371 20.9488 85.7992 21.3306C85.4308 21.6719 85.2441 22.0879 85.2441 22.5816C85.2441 23.1263 85.4568 23.5785 85.8801 23.9333C86.2474 24.2601 86.9177 24.6159 87.8868 24.9977C89.0759 25.4769 89.9496 26.035 90.5088 26.6761C91.0723 27.3172 91.3524 28.117 91.3524 29.0704ZM98.6851 24.6481H96.2468V29.4812C96.2468 30.7104 96.6763 31.3235 97.5375 31.3235C97.9328 31.3235 98.2607 31.2903 98.5201 31.2208L98.5814 32.9003C98.1456 33.0632 97.5718 33.1451 96.861 33.1451C95.9874 33.1451 95.3046 32.8785 94.8118 32.3453C94.321 31.8121 94.074 30.9189 94.074 29.6617V24.6439H92.6214V22.9841H94.074V21.1615L96.2468 20.5059V22.9841H98.6851V24.6481ZM109.665 27.8836C109.665 29.4137 109.227 30.67 108.353 31.6524C107.439 32.6638 106.223 33.168 104.707 33.168C103.244 33.168 102.081 32.6835 101.214 31.7156C100.346 30.7457 99.9126 29.5237 99.9126 28.0496C99.9126 26.507 100.361 25.2435 101.254 24.2611C102.15 23.2777 103.355 22.786 104.871 22.786C106.332 22.786 107.506 23.2715 108.394 24.2404C109.243 25.1802 109.665 26.394 109.665 27.8836ZM107.372 27.9344C107.372 27.0226 107.175 26.2404 106.779 25.5859C106.316 24.7954 105.652 24.4001 104.791 24.4001C103.905 24.4001 103.226 24.7954 102.763 25.5859C102.367 26.2404 102.169 27.0361 102.169 27.9759C102.169 28.8888 102.367 29.6731 102.763 30.3256C103.241 31.116 103.908 31.5113 104.773 31.5113C105.618 31.5113 106.281 31.1077 106.761 30.3059C107.167 29.6357 107.372 28.8484 107.372 27.9344ZM116.859 24.9333C116.629 24.8918 116.395 24.8713 116.161 24.8721C115.383 24.8721 114.781 25.1647 114.358 25.7539C113.991 26.2726 113.806 26.9282 113.806 27.7197V32.9428H111.594V26.1232C111.596 25.0782 111.574 24.0333 111.53 22.9893H113.456L113.537 24.8939H113.598C113.833 24.2394 114.2 23.7113 114.705 23.3161C115.166 22.9707 115.727 22.7837 116.304 22.7829C116.508 22.7829 116.693 22.7974 116.857 22.8233L116.859 24.9333ZM126.752 27.4946C126.758 27.8308 126.731 28.1668 126.671 28.4977H120.035C120.06 29.4812 120.381 30.2343 120.998 30.753C121.557 31.2156 122.28 31.448 123.168 31.448C124.151 31.448 125.047 31.2924 125.854 30.9781L126.2 32.5123C125.258 32.9231 124.146 33.1275 122.862 33.1275C121.318 33.1275 120.106 32.6731 119.224 31.7665C118.344 30.8588 117.903 29.6388 117.903 28.1108C117.903 26.6108 118.313 25.3607 119.134 24.3638C119.993 23.2995 121.154 22.7673 122.615 22.7673C124.05 22.7673 125.137 23.2995 125.874 24.3638C126.458 25.2072 126.752 26.2529 126.752 27.4946ZM124.643 26.9209C124.658 26.2643 124.513 25.6989 124.213 25.2207C123.83 24.6045 123.241 24.2974 122.451 24.2974C121.728 24.2974 121.139 24.5972 120.69 25.1989C120.322 25.6771 120.103 26.2518 120.036 26.9189L124.643 26.9209Z" fill="white"/>
<path d="M46.9058 14.2551C46.2905 14.2551 45.7582 14.225 45.3152 14.1742V7.49978C45.9348 7.40408 46.561 7.35691 47.188 7.3587C49.725 7.3587 50.8933 8.60665 50.8933 10.6409C50.8933 12.9874 49.5133 14.2551 46.9058 14.2551ZM47.2773 8.21452C46.9349 8.21452 46.6433 8.23527 46.4015 8.28506V13.3588C46.5323 13.3796 46.7834 13.3889 47.1362 13.3889C48.7984 13.3889 49.7447 12.4428 49.7447 10.671C49.7447 9.0911 48.8887 8.21452 47.2773 8.21452ZM54.5342 14.3059C53.1044 14.3059 52.1779 13.2385 52.1779 11.7893C52.1779 10.2789 53.1241 9.2021 54.6152 9.2021C56.0242 9.2021 56.9716 10.2187 56.9716 11.7094C56.9716 13.2385 55.9952 14.3059 54.5342 14.3059ZM54.5757 9.99672C53.7903 9.99672 53.287 10.7312 53.287 11.7582C53.287 12.7654 53.8007 13.4999 54.5654 13.4999C55.3301 13.4999 55.8437 12.7146 55.8437 11.7374C55.8437 10.7415 55.3405 9.99672 54.5757 9.99672ZM65.125 9.30272L63.5945 14.1949H62.5974L61.9634 12.0704C61.8058 11.5507 61.6746 11.0234 61.5702 10.4905H61.5494C61.4695 11.0237 61.318 11.558 61.1572 12.0704L60.4828 14.1949H59.4753L58.0351 9.30272H59.1526L59.7067 11.6285C59.8374 12.1824 59.9474 12.7053 60.0387 13.1991H60.0594C60.1393 12.7872 60.2701 12.2727 60.462 11.6389L61.1572 9.30376H62.0433L62.7084 11.5891C62.8693 12.143 63 12.6866 63.1017 13.2001H63.1307C63.2013 12.697 63.3123 12.1627 63.4628 11.5891L64.0573 9.30376L65.125 9.30272ZM70.7591 14.1949H69.6717V11.3858C69.6717 10.5206 69.3397 10.087 68.685 10.087C68.0406 10.087 67.5976 10.6409 67.5976 11.2851V14.1949H66.5102V10.7011C66.5102 10.2685 66.4998 9.80481 66.4697 9.30168H67.4264L67.4772 10.0569H67.5073C67.7999 9.53405 68.3934 9.2021 69.0585 9.2021C70.0857 9.2021 70.7602 9.98738 70.7602 11.2654L70.7591 14.1949ZM73.7578 14.1949H72.6694V7.05786H73.7578V14.1949ZM77.7225 14.3059C76.2937 14.3059 75.3661 13.2385 75.3661 11.7893C75.3661 10.2789 76.3124 9.2021 77.8024 9.2021C79.2124 9.2021 80.1587 10.2187 80.1587 11.7094C80.1598 13.2385 79.1824 14.3059 77.7225 14.3059ZM77.7629 9.99672C76.9775 9.99672 76.4742 10.7312 76.4742 11.7582C76.4742 12.7654 76.9889 13.4999 77.7515 13.4999C78.5173 13.4999 79.0298 12.7146 79.0298 11.7374C79.0309 10.7415 78.5287 9.99672 77.7629 9.99672ZM84.4461 14.1949L84.3672 13.6316H84.3382C84.0062 14.085 83.5216 14.3059 82.9073 14.3059C82.0306 14.3059 81.408 13.6918 81.408 12.8661C81.408 11.6586 82.4549 11.0341 84.2676 11.0341V10.9438C84.2676 10.2996 83.9263 9.97701 83.2518 9.97701C82.7693 9.97701 82.346 10.0984 81.9735 10.3401L81.7525 9.62534C82.2049 9.34318 82.7693 9.2021 83.4324 9.2021C84.7107 9.2021 85.3561 9.87638 85.3561 11.226V13.0279C85.3561 13.5217 85.3779 13.9045 85.4266 14.196L84.4461 14.1949ZM84.2967 11.7582C83.0889 11.7582 82.483 12.0507 82.483 12.7447C82.483 13.2582 82.7953 13.5092 83.229 13.5092C83.782 13.5092 84.2967 13.087 84.2967 12.5134V11.7582ZM90.6364 14.1949L90.5856 13.4097H90.5555C90.2431 14.003 89.7181 14.3059 88.9845 14.3059C87.8048 14.3059 86.9311 13.2686 86.9311 11.809C86.9311 10.2789 87.837 9.20106 89.0738 9.20106C89.7285 9.20106 90.1923 9.42202 90.4538 9.86601H90.4756V7.05786H91.564V12.8764C91.564 13.3495 91.5754 13.7924 91.6045 14.1949H90.6364ZM90.4756 11.3162C90.4756 10.6316 90.0221 10.0475 89.3301 10.0475C88.5238 10.0475 88.031 10.7623 88.031 11.7685C88.031 12.7551 88.5425 13.4304 89.3083 13.4304C89.9921 13.4304 90.4756 12.836 90.4756 12.1316V11.3162ZM98.4651 14.3059C97.0363 14.3059 96.1097 13.2385 96.1097 11.7893C96.1097 10.2789 97.056 9.2021 98.546 9.2021C99.9561 9.2021 100.902 10.2187 100.902 11.7094C100.903 13.2385 99.927 14.3059 98.4651 14.3059ZM98.5055 9.99672C97.7211 9.99672 97.2179 10.7312 97.2179 11.7582C97.2179 12.7654 97.7315 13.4999 98.4952 13.4999C99.2609 13.4999 99.7735 12.7146 99.7735 11.7374C99.7756 10.7415 99.2723 9.99672 98.5055 9.99672ZM106.75 14.1949H105.662V11.3858C105.662 10.5206 105.33 10.087 104.675 10.087C104.031 10.087 103.589 10.6409 103.589 11.2851V14.1949H102.5V10.7011C102.5 10.2685 102.49 9.80481 102.46 9.30168H103.416L103.467 10.0569H103.497C103.789 9.53405 104.384 9.20106 105.048 9.20106C106.075 9.20106 106.75 9.98634 106.75 11.2644V14.1949ZM114.066 10.1181H112.87V12.4937C112.87 13.0984 113.08 13.4003 113.503 13.4003C113.695 13.4003 113.856 13.3796 113.985 13.3495L114.016 14.1752C113.805 14.2561 113.523 14.2966 113.172 14.2966C112.315 14.2966 111.802 13.8236 111.802 12.5849V10.1181H111.088V9.30272H111.802V8.40644L112.87 8.08382V9.30168H114.066V10.1181ZM119.823 14.1949H118.737V11.4065C118.737 10.531 118.406 10.088 117.75 10.088C117.186 10.088 116.661 10.4708 116.661 11.2457V14.1949H115.575V7.05786H116.661V9.99672H116.683C117.026 9.46351 117.522 9.20106 118.155 9.20106C119.19 9.20106 119.823 10.0061 119.823 11.2851V14.1949ZM125.721 12.0102H122.457C122.478 12.9366 123.091 13.4594 123.999 13.4594C124.482 13.4594 124.926 13.3785 125.318 13.2281L125.487 13.9833C125.024 14.1846 124.48 14.2852 123.846 14.2852C122.315 14.2852 121.409 13.3184 121.409 11.8194C121.409 10.3193 122.337 9.19172 123.723 9.19172C124.974 9.19172 125.758 10.1181 125.758 11.5175C125.765 11.6826 125.753 11.848 125.721 12.0102ZM124.724 11.2353C124.724 10.4801 124.343 9.94692 123.648 9.94692C123.023 9.94692 122.529 10.4905 122.458 11.2353H124.724Z" fill="white"/>
<defs>
<linearGradient id="paint0_linear_26409_182939" x1="102.684" y1="41.8518" x2="102.684" y2="-107.757" gradientUnits="userSpaceOnUse">
<stop stop-color="#1A1A1A" stop-opacity="0.1"/>
<stop offset="0.123" stop-color="#212121" stop-opacity="0.151"/>
<stop offset="0.308" stop-color="#353535" stop-opacity="0.227"/>
<stop offset="0.532" stop-color="#575757" stop-opacity="0.318"/>
<stop offset="0.783" stop-color="#858585" stop-opacity="0.421"/>
<stop offset="1" stop-color="#B3B3B3" stop-opacity="0.51"/>
</linearGradient>
</defs>
</svg>
