<svg width="28" height="28" viewBox="0 0 28 28" fill="none" xmlns="http://www.w3.org/2000/svg">
<path d="M13.0837 22.4721C14.1764 21.7949 15.1739 20.9888 16.052 20.0729C16.8143 19.2802 17.4873 18.4142 18.0599 17.489L19.2603 18.3071C18.6519 19.2746 17.9421 20.1814 17.1418 21.0138C16.0819 22.1206 14.8627 23.0802 13.5202 23.8641C13.4005 23.9474 13.2571 23.9946 13.1086 23.9996C12.9601 24.0045 12.8136 23.9669 12.688 23.8917C10.765 22.7412 9.05688 21.296 7.63326 19.6149C5.78102 17.4186 4.61847 14.9822 4.21834 12.6328C3.81093 10.2365 4.19506 7.93253 5.45655 6.04525C5.97209 5.27946 6.61875 4.60058 7.3699 4.03656C9.1552 2.69008 11.182 1.98373 13.2074 2.00028C15.1644 2.01546 17.0967 2.70526 18.767 4.14969C19.3447 4.65068 19.8435 5.22772 20.2482 5.86314C21.5025 7.8263 21.8487 10.2778 21.4195 12.8011L20.0678 11.8864C20.2773 9.93432 19.947 8.07601 18.9955 6.58467C18.6621 6.06515 18.2526 5.5932 17.7791 5.183C16.3895 3.98138 14.7992 3.40747 13.2001 3.38953C11.5123 3.37988 9.80123 3.9869 8.28219 5.13058C7.66132 5.59789 7.12766 6.16078 6.7035 6.79575C5.64134 8.37952 5.32124 10.3496 5.6719 12.4148C6.03128 14.527 7.09199 16.7357 8.77981 18.7444C10.0041 20.1888 11.4564 21.4453 13.0852 22.4693L13.0837 22.4721ZM11.6287 6.05491C12.5924 5.82492 13.6037 5.84604 14.5557 6.11604C15.5078 6.38603 16.3652 6.89487 17.0374 7.58878C17.7097 8.28269 18.1717 9.13589 18.3747 10.0582C18.5778 10.9806 18.5142 11.9378 18.1908 12.8287L21.9375 15.3616L20.7095 17.1275L17.0661 14.6415C16.4881 15.246 15.7689 15.7138 14.9661 16.0075C14.1633 16.3013 13.2991 16.4128 12.4427 16.3332C11.5862 16.2536 10.7613 15.985 10.034 15.549C9.30661 15.113 8.69696 14.5217 8.25378 13.8223C7.81061 13.1229 7.54621 12.3348 7.48174 11.5212C7.41728 10.7076 7.55453 9.89091 7.88252 9.13658C8.21052 8.38225 8.72015 7.71116 9.37065 7.17701C10.0211 6.64286 10.7945 6.26047 11.6287 6.06042V6.05491ZM15.2081 7.59453C14.3458 7.10674 13.3318 6.91751 12.3389 7.05908C11.3459 7.20064 10.4355 7.66425 9.76264 8.37091C9.08978 9.07757 8.69614 9.98357 8.64878 10.9346C8.60142 11.8855 8.90328 12.8227 9.50291 13.5863C10.1025 14.3499 10.9629 14.8928 11.9373 15.1225C12.9118 15.3521 13.94 15.2543 14.847 14.8457C15.7539 14.4371 16.4833 13.7431 16.9111 12.8817C17.3388 12.0204 17.4383 11.0451 17.1927 10.1219C17.0537 9.5975 16.8069 9.10425 16.4663 8.67053C16.1257 8.2368 15.6981 7.87113 15.2081 7.59453Z" fill="#FF8926"/>
</svg>
