<svg width="156" height="40" viewBox="0 0 156 40" fill="none" xmlns="http://www.w3.org/2000/svg">
<path d="M35 5V35H5V5H35Z" stroke="#016B83" stroke-width="10"/>
<path d="M50.816 12.208C50.816 12.592 50.8853 12.9173 51.024 13.184C51.1627 13.4507 51.344 13.6693 51.568 13.84C51.8027 14 52.0747 14.1227 52.384 14.208C52.6933 14.2827 53.0133 14.32 53.344 14.32C53.568 14.32 53.808 14.304 54.064 14.272C54.32 14.2293 54.56 14.1547 54.784 14.048C55.008 13.9413 55.1947 13.7973 55.344 13.616C55.4933 13.424 55.568 13.184 55.568 12.896C55.568 12.5867 55.4667 12.336 55.264 12.144C55.072 11.952 54.816 11.792 54.496 11.664C54.176 11.536 53.8133 11.424 53.408 11.328C53.0027 11.232 52.592 11.1253 52.176 11.008C51.7493 10.9013 51.3333 10.7733 50.928 10.624C50.5227 10.464 50.16 10.2613 49.84 10.016C49.52 9.77067 49.2587 9.46667 49.056 9.104C48.864 8.73067 48.768 8.28267 48.768 7.76C48.768 7.17333 48.8907 6.66667 49.136 6.24C49.392 5.80267 49.7227 5.44 50.128 5.152C50.5333 4.864 50.992 4.65067 51.504 4.512C52.016 4.37333 52.528 4.304 53.04 4.304C53.6373 4.304 54.208 4.37333 54.752 4.512C55.3067 4.64 55.7973 4.85333 56.224 5.152C56.6507 5.45067 56.9867 5.83467 57.232 6.304C57.488 6.76267 57.616 7.32267 57.616 7.984H55.184C55.1627 7.64267 55.088 7.36 54.96 7.136C54.8427 6.912 54.6827 6.736 54.48 6.608C54.2773 6.48 54.0427 6.38933 53.776 6.336C53.52 6.28267 53.2373 6.256 52.928 6.256C52.7253 6.256 52.5227 6.27733 52.32 6.32C52.1173 6.36267 51.9307 6.43733 51.76 6.544C51.6 6.65067 51.4667 6.784 51.36 6.944C51.2533 7.104 51.2 7.30667 51.2 7.552C51.2 7.776 51.2427 7.95733 51.328 8.096C51.4133 8.23467 51.5787 8.36267 51.824 8.48C52.08 8.59733 52.4267 8.71467 52.864 8.832C53.312 8.94933 53.8933 9.09867 54.608 9.28C54.8213 9.32267 55.1147 9.40267 55.488 9.52C55.872 9.62667 56.2507 9.80267 56.624 10.048C56.9973 10.2933 57.3173 10.624 57.584 11.04C57.8613 11.4453 58 11.968 58 12.608C58 13.1307 57.8987 13.616 57.696 14.064C57.4933 14.512 57.1893 14.9013 56.784 15.232C56.3893 15.552 55.8933 15.8027 55.296 15.984C54.7093 16.1653 54.0267 16.256 53.248 16.256C52.6187 16.256 52.0053 16.176 51.408 16.016C50.8213 15.8667 50.2987 15.6267 49.84 15.296C49.392 14.9653 49.0347 14.544 48.768 14.032C48.5013 13.52 48.3733 12.912 48.384 12.208H50.816ZM59.4946 4.576H63.0306L65.7026 12.432H65.7346L68.2626 4.576H71.7986V16H69.4466V7.904H69.4146L66.6146 16H64.6786L61.8786 7.984H61.8466V16H59.4946V4.576ZM76.8903 11.584H79.8503L78.4103 7.392H78.3783L76.8903 11.584ZM77.1302 4.576H79.7063L83.9783 16H81.3703L80.5063 13.456H76.2343L75.3383 16H72.8102L77.1302 4.576ZM87.4754 9.744H90.2274C90.8034 9.744 91.2354 9.616 91.5234 9.36C91.8114 9.104 91.9554 8.688 91.9554 8.112C91.9554 7.55733 91.8114 7.15733 91.5234 6.912C91.2354 6.656 90.8034 6.528 90.2274 6.528H87.4754V9.744ZM84.9634 4.576H91.1234C91.6354 4.576 92.094 4.66133 92.4994 4.832C92.9154 4.992 93.2674 5.216 93.5554 5.504C93.854 5.792 94.078 6.128 94.2274 6.512C94.3874 6.88533 94.4674 7.29067 94.4674 7.728C94.4674 8.4 94.3234 8.98133 94.0354 9.472C93.758 9.96267 93.2994 10.336 92.6594 10.592V10.624C92.9687 10.7093 93.2247 10.8427 93.4274 11.024C93.63 11.1947 93.7954 11.4027 93.9234 11.648C94.0514 11.8827 94.142 12.144 94.1954 12.432C94.2594 12.72 94.302 13.008 94.3234 13.296C94.334 13.4773 94.3447 13.6907 94.3554 13.936C94.366 14.1813 94.382 14.432 94.4034 14.688C94.4354 14.944 94.478 15.1893 94.5314 15.424C94.5954 15.648 94.686 15.84 94.8034 16H92.2914C92.1527 15.6373 92.0674 15.2053 92.0354 14.704C92.0034 14.2027 91.9554 13.7227 91.8914 13.264C91.806 12.6667 91.6247 12.2293 91.3474 11.952C91.07 11.6747 90.6167 11.536 89.9874 11.536H87.4754V16H84.9634V4.576ZM98.757 6.688H95.333V4.576H104.693V6.688H101.269V16H98.757V6.688ZM51.616 29.2H54.16C54.608 29.2 54.976 29.0933 55.264 28.88C55.552 28.6667 55.696 28.32 55.696 27.84C55.696 27.5733 55.648 27.3547 55.552 27.184C55.456 27.0133 55.328 26.88 55.168 26.784C55.008 26.688 54.8213 26.624 54.608 26.592C54.4053 26.5493 54.192 26.528 53.968 26.528H51.616V29.2ZM49.104 24.576H54.48C55.024 24.576 55.52 24.624 55.968 24.72C56.416 24.816 56.8 24.976 57.12 25.2C57.44 25.4133 57.6853 25.7013 57.856 26.064C58.0373 26.4267 58.128 26.8747 58.128 27.408C58.128 27.984 57.9947 28.464 57.728 28.848C57.472 29.232 57.088 29.5467 56.576 29.792C57.28 29.9947 57.8027 30.352 58.144 30.864C58.496 31.3653 58.672 31.9733 58.672 32.688C58.672 33.264 58.56 33.7653 58.336 34.192C58.112 34.608 57.808 34.9493 57.424 35.216C57.0507 35.4827 56.6187 35.68 56.128 35.808C55.648 35.936 55.152 36 54.64 36H49.104V24.576ZM51.616 34.048H54.304C54.5493 34.048 54.784 34.0267 55.008 33.984C55.232 33.9307 55.4293 33.8507 55.6 33.744C55.7707 33.6267 55.904 33.472 56 33.28C56.1067 33.088 56.16 32.8427 56.16 32.544C56.16 31.9573 55.9947 31.5413 55.664 31.296C55.3333 31.04 54.896 30.912 54.352 30.912H51.616V34.048ZM63.2496 31.584H66.2096L64.7696 27.392H64.7376L63.2496 31.584ZM63.4896 24.576H66.0656L70.3376 36H67.7296L66.8656 33.456H62.5936L61.6976 36H59.1696L63.4896 24.576ZM71.3228 24.576H73.8188L78.5868 32.24H78.6188V24.576H80.9708V36H78.4588L73.7068 28.352H73.6748V36H71.3228V24.576ZM83.1821 24.576H85.6941V29.312L90.1581 24.576H93.2941L88.8301 29.088L93.7261 36H90.5741L87.1341 30.864L85.6941 32.32V36H83.1821V24.576Z" fill="#016B83"/>
</svg>
