<svg width="28" height="28" viewBox="0 0 28 28" fill="none" xmlns="http://www.w3.org/2000/svg">
<path d="M23.4797 7.22467L13.4924 2.12146C13.1755 1.96068 12.8259 1.95835 12.509 2.12146L2.51932 7.22467C2.07658 7.45303 1.84589 7.9517 1.9624 8.43639C2.07891 8.92341 2.51 9.26595 3.011 9.26595H3.46307C3.78094 9.26595 4.03863 9.52364 4.03863 9.84152C4.03863 10.2423 4.36487 10.5662 4.76567 10.5662C5.08998 10.5662 5.35288 10.8291 5.35288 11.1534V20.1202C5.35288 20.4445 5.08998 20.7074 4.76567 20.7074C4.36487 20.7074 4.03863 21.0336 4.03863 21.4321V21.5486C4.03863 21.8021 3.83311 22.0077 3.57958 22.0077C3.18111 22.0077 2.85488 22.3339 2.85488 22.7324V23.6551C2.85488 23.8462 3.011 24 3.19975 24H23.1302C23.3213 24 23.4751 23.8462 23.4751 23.6551V22.7324C23.4751 22.3316 23.1489 22.0077 22.7481 22.0077C22.4945 22.0077 22.289 21.8021 22.289 21.5486V21.4321C22.289 21.0313 21.9651 20.7074 21.5643 20.7074C21.2387 20.7074 20.9748 20.4434 20.9748 20.1178V11.1558C20.9748 10.8302 21.2387 10.5662 21.5643 10.5662C21.9628 10.5662 22.289 10.24 22.289 9.84152C22.289 9.52364 22.5467 9.26595 22.8646 9.26595H22.9857C23.4867 9.26595 23.9178 8.92574 24.0343 8.44105C24.1578 7.95403 23.9295 7.45303 23.4797 7.22467ZM6.04496 11.4785C6.04496 10.9747 6.45341 10.5662 6.95725 10.5662C7.46109 10.5662 7.86953 10.9747 7.86953 11.4785V19.7951C7.86953 20.2989 7.46109 20.7074 6.95725 20.7074C6.45341 20.7074 6.04496 20.2989 6.04496 19.7951V11.4785ZM13.1673 10.5662C13.6712 10.5662 14.0796 10.9747 14.0796 11.4785V19.7951C14.0796 20.2989 13.6712 20.7074 13.1673 20.7074C12.6635 20.7074 12.255 20.2989 12.255 19.7951V11.4785C12.255 10.9747 12.6635 10.5662 13.1673 10.5662ZM14.7717 12.0669C14.7717 11.2381 15.4435 10.5662 16.2723 10.5662C17.1011 10.5662 17.773 11.2381 17.773 12.0669V19.2067C17.773 20.0355 17.1011 20.7074 16.2723 20.7074C15.4435 20.7074 14.7717 20.0355 14.7717 19.2067V12.0669ZM11.563 19.2056C11.563 20.035 10.8906 20.7074 10.0611 20.7074C9.23168 20.7074 8.55928 20.035 8.55928 19.2056V12.0681C8.55928 11.2386 9.23168 10.5662 10.0611 10.5662C10.8906 10.5662 11.563 11.2386 11.563 12.0681V19.2056ZM22.7527 22.6997C22.7714 22.6997 22.7877 22.7137 22.7877 22.7324C22.7877 23.0502 22.53 23.3079 22.2121 23.3079H4.12252C3.80465 23.3079 3.54696 23.0502 3.54696 22.7324C3.54696 22.7137 3.56094 22.6997 3.57958 22.6997H4.03863H22.2913H22.7527ZM21.5666 21.3995C21.5829 21.3995 21.5993 21.4158 21.5993 21.4321C21.5993 21.75 21.3416 22.0077 21.0237 22.0077H5.30628C4.9884 22.0077 4.73071 21.75 4.73071 21.4321C4.73071 21.4158 4.74935 21.3995 4.76567 21.3995H5.35288H8.55928H11.563H14.7717H17.773H20.9794H21.5666ZM20.2873 19.7951C20.2873 20.2989 19.8789 20.7074 19.375 20.7074C18.8712 20.7074 18.4628 20.2989 18.4628 19.7951V11.4785C18.4628 10.9747 18.8712 10.5662 19.375 10.5662C19.8789 10.5662 20.2873 10.9747 20.2873 11.4785V19.7951ZM21.5993 9.84152C21.5993 9.85783 21.5829 9.87414 21.5666 9.87414H20.9771H17.773H14.7717H11.563H8.55928H5.35288H4.76567C4.74702 9.87414 4.73071 9.85783 4.73071 9.84152C4.73071 9.52364 4.9884 9.26595 5.30628 9.26595H21.0237C21.3416 9.26595 21.5993 9.52364 21.5993 9.84152ZM23.3656 8.27793C23.3236 8.45503 23.1722 8.57387 22.9904 8.57387H22.2937H4.03863H3.011C2.82924 8.57387 2.67778 8.45503 2.63584 8.27793C2.59389 8.09851 2.67312 7.92374 2.83391 7.83985L12.8236 2.73665C12.8819 2.70635 12.9401 2.69237 13.0007 2.69237C13.059 2.69237 13.1195 2.70635 13.1778 2.73665L23.1675 7.83985C23.3283 7.92374 23.4098 8.09851 23.3656 8.27793Z" fill="#FF8926" stroke="#FF8926" stroke-width="0.25"/>
</svg>
