<svg width="28" height="28" viewBox="0 0 28 28" fill="none" xmlns="http://www.w3.org/2000/svg">
<path d="M23.2365 17.9286L20.5069 15.1905C20.028 14.6905 19.4773 14.4524 18.8787 14.4524C18.2801 14.4524 17.7055 14.7143 17.2266 15.1905L15.6223 16.7857C15.4787 16.7143 15.335 16.6429 15.1913 16.5714C14.9998 16.4762 14.8322 16.4048 14.6885 16.3095C13.204 15.381 11.8631 14.1429 10.5701 12.5714C9.92364 11.7619 9.49265 11.0952 9.18137 10.381C9.61237 10 9.99547 9.59524 10.3786 9.21429C10.5222 9.07143 10.6659 8.92857 10.8096 8.78571C11.3124 8.28571 11.5758 7.71429 11.5758 7.11905C11.5758 6.52381 11.3124 5.95238 10.8096 5.45238L9.44476 4.09524C9.27715 3.92857 9.13349 3.78571 8.98982 3.61905C8.67855 3.30952 8.36728 3 8.056 2.71429C7.57712 2.2381 7.02641 2 6.42781 2C5.82921 2 5.27849 2.2381 4.77567 2.71429L3.07564 4.45238C2.4531 5.07143 2.09393 5.83333 2.0221 6.71429C1.92633 7.80952 2.14182 8.95238 2.66859 10.3571C3.45875 12.5238 4.67989 14.5238 6.4757 16.6667C8.6546 19.2381 11.2645 21.2857 14.2575 22.7143C15.4068 23.2619 16.9153 23.881 18.6153 24C18.7111 24 18.8308 24 18.9266 24C20.052 24 21.0097 23.5952 21.752 22.7857L21.7759 22.7619C22.0393 22.4524 22.3267 22.1667 22.6619 21.8571C22.8774 21.6429 23.0929 21.4286 23.3084 21.2143C24.2422 20.2143 24.2422 18.9048 23.2365 17.9286ZM22.3745 20.4286C22.183 20.6429 21.9914 20.8333 21.7759 21.0238C21.4647 21.3333 21.1295 21.6429 20.8182 22C20.2914 22.5476 19.6928 22.8095 18.8787 22.8095C18.8069 22.8095 18.7111 22.8095 18.6393 22.8095C17.1547 22.7143 15.766 22.1429 14.7125 21.6429C11.8871 20.2857 9.39687 18.3571 7.33768 15.9048C5.63765 13.881 4.48834 11.9762 3.74607 9.95238C3.29114 8.71429 3.09958 7.73809 3.17142 6.80952C3.2193 6.21429 3.45875 5.71429 3.88974 5.28571L5.58977 3.59524C5.85315 3.35714 6.14048 3.21429 6.40386 3.21429C6.66725 3.21429 6.95458 3.33333 7.19402 3.59524C7.50529 3.88095 7.79262 4.16667 8.10389 4.47619C8.2715 4.64286 8.41516 4.78571 8.58277 4.95238L9.94758 6.30952C10.2349 6.59524 10.3546 6.85714 10.3546 7.11905C10.3546 7.38095 10.211 7.66667 9.94758 7.92857C9.80392 8.07143 9.66025 8.21429 9.51659 8.35714C9.0856 8.78571 8.70249 9.19048 8.2715 9.57143L8.24756 9.59524C7.86445 9.97619 7.91234 10.3571 8.00812 10.6429C8.00812 10.6667 8.00812 10.6667 8.03206 10.6905C8.39122 11.5238 8.8701 12.3333 9.63631 13.2857C11.0011 14.9762 12.4617 16.2619 14.042 17.2857C14.2336 17.4048 14.4491 17.5238 14.6406 17.619C14.8322 17.7143 14.9998 17.7857 15.1434 17.881C15.1674 17.881 15.1674 17.9048 15.1913 17.9048C15.3589 17.9762 15.5026 18.0238 15.6463 18.0238C16.0294 18.0238 16.2688 17.7857 16.3406 17.6905L18.0407 16C18.3041 15.7381 18.5674 15.619 18.8548 15.619C19.19 15.619 19.4534 15.8333 19.6449 16L22.3985 18.7381C23.0689 19.4286 22.7577 20.0238 22.3745 20.4286Z" fill="#FF8926"/>
</svg>
