<svg width="28" height="28" viewBox="0 0 28 28" fill="none" xmlns="http://www.w3.org/2000/svg">
<g clip-path="url(#clip0_26988_49993)">
<path d="M22.4222 4.28711H11.8283C11.0478 4.28711 10.2993 4.59715 9.74746 5.14902C9.19559 5.70089 8.88555 6.44939 8.88555 7.22986V11.3497H5.9428C5.16234 11.3497 4.41384 11.6598 3.86196 12.2116C3.31009 12.7635 3.00005 13.512 3.00005 14.2925V23.7093C2.9982 23.8472 3.04588 23.9813 3.13443 24.0871C3.22297 24.1929 3.34653 24.2635 3.48266 24.286H3.5886C3.71238 24.2934 3.83541 24.2623 3.9408 24.197C4.04618 24.1317 4.12875 24.0353 4.17715 23.9211C4.56549 22.9911 5.21909 22.1959 6.05641 21.6349C6.89372 21.0739 7.87769 20.7719 8.88555 20.7665H15.3596C16.1401 20.7665 16.8886 20.4565 17.4404 19.9046C17.9923 19.3527 18.3024 18.6042 18.3024 17.8238V16.0581H19.5736C20.5815 16.0635 21.5654 16.3655 22.4028 16.9265C23.2401 17.4876 23.8937 18.2827 24.282 19.2127C24.3264 19.3234 24.4027 19.4182 24.5013 19.4853C24.5998 19.5524 24.7161 19.5886 24.8353 19.5894H24.9412C25.0685 19.5546 25.18 19.4772 25.2571 19.3701C25.3343 19.263 25.3723 19.1326 25.365 19.0009V7.22986C25.365 6.44939 25.0549 5.70089 24.503 5.14902C23.9512 4.59715 23.2027 4.28711 22.4222 4.28711ZM17.1253 14.881H11.8283C11.36 14.881 10.9109 14.695 10.5798 14.3639C10.2487 14.0327 10.0627 13.5836 10.0627 13.1154V12.5268H15.3596C15.8279 12.5268 16.277 12.7128 16.6081 13.044C16.9392 13.3751 17.1253 13.8242 17.1253 14.2925V14.881ZM17.1253 17.8238C17.1253 18.292 16.9392 18.7411 16.6081 19.0723C16.277 19.4034 15.8279 19.5894 15.3596 19.5894H8.297C8.23085 19.5772 8.16304 19.5772 8.09689 19.5894C6.56491 19.7517 5.15762 20.5081 4.17715 21.6964V14.2925C4.17715 13.8242 4.36317 13.3751 4.6943 13.044C5.02542 12.7128 5.47452 12.5268 5.9428 12.5268H8.88555V13.1154C8.88555 13.8958 9.19559 14.6443 9.74746 15.1962C10.2993 15.7481 11.0478 16.0581 11.8283 16.0581H17.1253V17.8238ZM24.1879 16.988C23.6218 16.3182 22.9145 15.7819 22.1168 15.4176C21.319 15.0533 20.4505 14.8701 19.5736 14.881H18.3024V14.2925C18.3024 13.512 17.9923 12.7635 17.4404 12.2116C16.8886 11.6598 16.1401 11.3497 15.3596 11.3497H10.0627V7.22986C10.0627 6.76158 10.2487 6.31248 10.5798 5.98136C10.9109 5.65023 11.36 5.46421 11.8283 5.46421H22.4222C22.8905 5.46421 23.3396 5.65023 23.6707 5.98136C24.0018 6.31248 24.1879 6.76158 24.1879 7.22986V16.988Z" fill="#FF8926"/>
</g>
<defs>
<clipPath id="clip0_26988_49993">
<rect width="23" height="21" fill="white" transform="translate(3 4)"/>
</clipPath>
</defs>
</svg>
