<svg width="24" height="23" viewBox="0 0 24 23" fill="none" xmlns="http://www.w3.org/2000/svg">
<path fill-rule="evenodd" clip-rule="evenodd" d="M9.28012 18.4403H0.898076C-0.299359 18.4403 -0.299359 16.6442 0.898076 16.6442H9.28012L6.58589 13.6506C5.98717 13.0519 7.18461 11.8544 7.78333 12.7525L11.3756 16.9435C11.675 17.2429 11.675 17.8416 11.3756 18.141L7.78333 22.332C7.18461 23.2301 5.98717 22.0326 6.58589 21.4339L9.28012 18.4403Z" fill="#2D2D2D"/>
<path fill-rule="evenodd" clip-rule="evenodd" d="M13.8551 12.2947C11.0796 12.2947 8.82834 10.005 8.82834 7.18084C8.82834 4.53821 10.8007 2.36306 13.3298 2.09535C13.4961 2.07913 13.6645 2.07 13.8338 2.07C16.6093 2.07 18.8606 4.35873 18.8606 7.18287C18.8606 9.82651 16.8882 12.0006 14.3591 12.2694C14.1928 12.2856 14.0255 12.2947 13.8551 12.2947ZM23.9867 21.7934L23.9999 21.9496C23.9969 21.9009 23.9898 21.8542 23.9857 21.8056C23.9776 22.2751 23.6034 22.6543 23.14 22.6543C22.6725 22.6543 22.2932 22.268 22.2932 21.7934H22.2912C21.8703 17.4319 18.2572 14.0237 13.8592 14.0217L13.8551 14.0206C13.848 14.0206 13.8409 14.0217 13.8338 14.0217C10.1203 14.0217 7.11152 10.9602 7.11152 7.18287C7.11152 3.40653 10.1203 0.345093 13.8338 0.345093C13.8368 0.345093 13.8409 0.346107 13.8439 0.346107C13.848 0.346107 13.851 0.345093 13.8551 0.345093C17.5666 0.345093 20.5754 3.40551 20.5754 7.18084C20.5754 8.59342 20.1434 9.89648 19.4203 10.9846C19.4132 10.9957 19.4072 11.0059 19.4001 11.017C19.2936 11.1752 19.182 11.3263 19.0634 11.4733C19.0238 11.5251 18.9812 11.5747 18.9397 11.6244C18.8312 11.7502 18.7237 11.8759 18.6081 11.9956C18.5239 12.0818 18.4326 12.1619 18.3434 12.244C18.2105 12.3647 18.0767 12.4823 17.9347 12.5918C17.7938 12.7034 17.6508 12.8109 17.5007 12.9103C17.4733 12.9285 17.45 12.9498 17.4236 12.966C20.9719 14.3208 23.572 17.6287 23.9644 21.6048C23.9776 21.6656 23.9867 21.7285 23.9867 21.7934Z" fill="#2D2D2D"/>
</svg>
