<svg width="1188" height="806" viewBox="0 0 1188 806" fill="none" xmlns="http://www.w3.org/2000/svg">
<g opacity="0.08">
<path d="M129.176 734.458C173.727 650.511 413.977 288.778 740.779 386.439C997.518 463.16 897.122 -5.4993 1085.69 134.922" stroke="white" stroke-miterlimit="10"/>
<path d="M124.25 722.404C179.309 639.51 414.983 309.076 732.552 388.503C983.177 451.188 900.464 5.84678 1089.37 144.608" stroke="white" stroke-miterlimit="10"/>
<path d="M119.319 710.35C184.891 628.507 416.009 329.296 724.32 390.567C968.865 439.168 903.805 17.1934 1093.04 154.293" stroke="white" stroke-miterlimit="10"/>
<path d="M114.39 698.297C190.471 617.508 417.06 349.429 716.092 392.634C954.575 427.089 907.147 28.5398 1096.72 163.98" stroke="white" stroke-miterlimit="10"/>
<path d="M109.462 686.242C196.053 606.506 418.127 369.461 707.863 394.691C940.305 414.937 910.488 39.8809 1100.4 173.659" stroke="white" stroke-miterlimit="10"/>
<path d="M104.529 674.19C201.624 595.509 419.2 389.383 699.636 396.763C926.049 402.72 913.83 51.234 1104.08 183.354" stroke="white" stroke-miterlimit="10"/>
<path d="M99.601 662.137C207.201 584.51 420.279 409.187 691.411 398.826C911.8 390.41 917.173 62.5818 1107.75 193.041" stroke="white" stroke-miterlimit="10"/>
<path d="M94.6715 650.085C212.774 573.512 421.346 428.847 683.186 400.888C897.55 378 920.514 73.9267 1111.43 202.726" stroke="white" stroke-miterlimit="10"/>
<path d="M89.7421 638.032C218.347 562.514 422.399 448.371 674.96 402.954C883.295 365.488 923.855 85.2765 1115.11 212.415" stroke="white" stroke-miterlimit="10"/>
<path d="M84.8114 625.978C223.919 551.515 423.427 467.747 666.742 405.019C869.026 352.872 927.202 96.6265 1118.79 222.102" stroke="white" stroke-miterlimit="10"/>
<path d="M79.881 613.925C229.489 540.52 424.421 486.967 658.518 407.076C854.724 340.116 930.542 107.968 1122.46 231.787" stroke="white" stroke-miterlimit="10"/>
<path d="M74.9512 601.872C235.057 529.524 425.37 506.035 650.297 409.138C840.396 327.246 933.884 119.314 1126.14 241.471" stroke="white" stroke-miterlimit="10"/>
<path d="M70.0213 589.82C240.625 518.527 426.273 524.942 642.077 411.198C826.026 314.247 937.229 130.665 1129.82 251.158" stroke="white" stroke-miterlimit="10"/>
<path d="M65.0922 577.766C246.192 507.533 427.115 543.694 633.86 413.26C811.606 301.118 940.569 142.006 1133.5 260.843" stroke="white" stroke-miterlimit="10"/>
<path d="M60.1611 565.71C251.757 496.535 427.889 562.294 625.642 415.316C797.132 287.86 943.916 153.359 1137.17 270.533" stroke="white" stroke-miterlimit="10"/>
<path d="M55.2326 553.659C257.322 485.544 428.594 580.758 617.426 417.379C782.593 274.477 947.257 164.699 1140.85 280.211" stroke="white" stroke-miterlimit="10"/>
<path d="M50.3019 541.607C262.884 474.551 429.222 599.088 609.212 419.438C767.987 260.972 950.599 176.045 1144.52 289.905" stroke="white" stroke-miterlimit="10"/>
<path d="M45.3721 529.553C268.446 463.558 429.765 617.284 601.001 421.497C753.31 247.349 953.947 187.391 1148.21 299.589" stroke="white" stroke-miterlimit="10"/>
<path d="M40.4435 517.501C274.005 452.561 430.229 635.372 592.785 423.556C738.55 233.62 957.288 198.74 1151.88 309.276" stroke="white" stroke-miterlimit="10"/>
<path d="M35.5131 505.447C279.565 441.573 430.607 653.363 584.573 425.612C723.712 219.794 960.627 210.086 1155.56 318.964" stroke="white" stroke-miterlimit="10"/>
<path d="M30.5832 493.394C285.125 430.586 430.904 671.272 576.363 427.671C708.797 205.88 963.975 221.431 1159.24 328.65" stroke="white" stroke-miterlimit="10"/>
<path d="M25.6535 481.341C290.681 419.592 431.121 689.113 568.152 429.726C693.803 191.891 967.317 232.775 1162.91 338.335" stroke="white" stroke-miterlimit="10"/>
<path d="M20.7226 469.288C296.235 408.6 431.256 706.9 559.94 431.787C678.725 177.842 970.658 244.125 1166.59 348.024" stroke="white" stroke-miterlimit="10"/>
<path d="M15.7941 457.235C301.789 397.608 431.319 724.646 551.737 433.841C663.581 163.739 974.006 255.469 1170.27 357.709" stroke="white" stroke-miterlimit="10"/>
<path d="M10.8641 445.182C307.342 386.618 431.308 742.369 543.532 435.896C648.367 149.598 977.351 266.815 1173.95 367.395" stroke="white" stroke-miterlimit="10"/>
<path d="M5.93385 433.128C312.894 375.629 431.238 760.077 535.325 437.952C633.078 135.434 980.696 278.16 1177.62 377.081" stroke="white" stroke-miterlimit="10"/>
<path d="M1.00412 421.075C318.444 364.642 431.105 777.788 527.123 440.005C617.729 121.252 984.039 289.506 1181.3 386.768" stroke="white" stroke-miterlimit="10"/>
</g>
</svg>
