<svg width="22" height="25" viewBox="0 0 22 25" fill="none" xmlns="http://www.w3.org/2000/svg">
<path fill-rule="evenodd" clip-rule="evenodd" d="M10.9048 13.3549C7.91905 13.3549 5.49725 10.8917 5.49725 7.85362C5.49725 5.01079 7.61905 2.67085 10.3398 2.38286C10.5187 2.3654 10.6997 2.35559 10.8819 2.35559C13.8677 2.35559 16.2895 4.8177 16.2895 7.8558C16.2895 10.6997 14.1677 13.0386 11.447 13.3277C11.2681 13.3451 11.0881 13.3549 10.9048 13.3549ZM21.804 23.5732L21.8182 23.7412C21.8149 23.6888 21.8073 23.6386 21.8029 23.5863C21.7942 24.0914 21.3916 24.4993 20.8931 24.4993C20.3902 24.4993 19.9822 24.0837 19.9822 23.5732H19.98C19.5273 18.8813 15.6404 15.2149 10.9092 15.2127L10.9048 15.2116C10.8972 15.2116 10.8896 15.2127 10.8819 15.2127C6.88706 15.2127 3.65036 11.9193 3.65036 7.8558C3.65036 3.79337 6.88706 0.5 10.8819 0.5C10.8852 0.5 10.8896 0.501091 10.8928 0.501091C10.8972 0.501091 10.9005 0.5 10.9048 0.5C14.8975 0.5 18.1342 3.79227 18.1342 7.85362C18.1342 9.37321 17.6695 10.775 16.8917 11.9455C16.884 11.9575 16.8775 11.9684 16.8699 11.9804C16.7553 12.1506 16.6353 12.3131 16.5077 12.4713C16.4651 12.5269 16.4193 12.5804 16.3746 12.6339C16.2579 12.7691 16.1422 12.9044 16.0179 13.0331C15.9273 13.1258 15.8292 13.212 15.7332 13.3004C15.5902 13.4302 15.4462 13.5567 15.2935 13.6746C15.1419 13.7945 14.9881 13.9102 14.8266 14.0171C14.7972 14.0367 14.7721 14.0596 14.7437 14.0771C18.5608 15.5345 21.3578 19.0929 21.78 23.3703C21.7942 23.4357 21.804 23.5034 21.804 23.5732ZM9.09482 18.6191C9.58572 18.6191 9.9839 19.0172 9.9839 19.5081C9.9839 19.999 9.58572 20.3972 9.09482 20.3972H5.88212V23.6109C5.88212 24.1018 5.48285 24.5 4.99195 24.5C4.50105 24.5 4.10287 24.1018 4.10287 23.6109V20.3972H0.890173C0.398178 20.3972 0 19.999 0 19.5081C0 19.0172 0.398178 18.6191 0.890173 18.6191H4.10287V15.4053C4.10287 14.9144 4.50105 14.5163 4.99195 14.5163C5.48285 14.5163 5.88212 14.9144 5.88212 15.4053V18.6191H9.09482Z" fill="white"/>
</svg>
