<svg width="28" height="28" viewBox="0 0 28 28" fill="none" xmlns="http://www.w3.org/2000/svg">
<path d="M17.4948 17.4078C17.704 17.1844 17.9758 16.8594 17.9758 16.4328C17.9758 16.0062 17.704 15.6812 17.4948 15.4578C17.4321 15.3766 17.3275 15.2547 17.3066 15.2141C17.2857 15.1531 17.3066 14.9906 17.3066 14.8891C17.3275 14.5844 17.3484 14.1781 17.0975 13.8328C16.8465 13.4875 16.4282 13.3859 16.1145 13.325C16.01 13.3047 15.8427 13.2641 15.8008 13.2234C15.759 13.1828 15.6754 13.0406 15.6126 12.9594C15.4453 12.6953 15.2153 12.35 14.797 12.2281C14.6924 12.1875 14.5879 12.1875 14.4624 12.1875C14.1696 12.1875 13.9186 12.2891 13.7095 12.3703C13.6049 12.4109 13.4376 12.4719 13.3749 12.4719C13.3121 12.4719 13.1448 12.4109 13.0403 12.3703C12.8102 12.2891 12.5593 12.1875 12.2874 12.1875C12.1828 12.1875 12.0573 12.2078 11.9528 12.2281C11.5345 12.3703 11.3045 12.7156 11.1371 12.9594C11.0744 13.0406 10.9908 13.1828 10.9489 13.2234C10.9071 13.2641 10.7398 13.3047 10.6352 13.325C10.3424 13.4062 9.92417 13.4875 9.65229 13.8328C9.40133 14.1781 9.42224 14.5844 9.44316 14.8891C9.44316 14.9906 9.46407 15.1734 9.44316 15.2141C9.42224 15.2547 9.31768 15.3969 9.25494 15.4578C9.0458 15.6812 8.77393 16.0062 8.77393 16.4328C8.77393 16.8594 9.0458 17.1844 9.25494 17.4078C9.31768 17.4891 9.42224 17.6109 9.44316 17.6516C9.46407 17.7125 9.44316 17.875 9.44316 17.9766C9.42224 18.2812 9.40133 18.6875 9.65229 19.0328C9.90325 19.3781 10.3215 19.4797 10.6352 19.5406C10.7398 19.5609 10.9071 19.6016 10.9489 19.6422C10.9908 19.6828 11.0744 19.825 11.1371 19.9062C11.3045 20.1703 11.5345 20.5156 11.9528 20.6375C12.0573 20.6781 12.1619 20.6781 12.2874 20.6781C12.5802 20.6781 12.8311 20.5766 13.0403 20.4953C13.1448 20.4547 13.3121 20.3937 13.3749 20.3937C13.4376 20.3937 13.6049 20.4547 13.7095 20.4953C13.9395 20.5766 14.1905 20.6781 14.4624 20.6781C14.567 20.6781 14.6924 20.6578 14.797 20.6375C15.2153 20.4953 15.4453 20.15 15.6126 19.9062C15.6754 19.825 15.759 19.6828 15.8008 19.6422C15.8427 19.6016 16.01 19.5609 16.1145 19.5406C16.4073 19.4594 16.8256 19.3781 17.0975 19.0328C17.3484 18.6875 17.3275 18.2812 17.3066 17.9766C17.3066 17.875 17.2857 17.6922 17.3066 17.6516C17.3275 17.6109 17.4321 17.4891 17.4948 17.4078ZM16.9511 16.9812C16.8256 17.1234 16.6792 17.2859 16.6165 17.4484C16.5537 17.6312 16.5746 17.8344 16.5956 18.0375C16.6165 18.2609 16.6374 18.5047 16.5328 18.6266C16.4282 18.7687 16.1982 18.8297 15.9682 18.8703C15.759 18.9109 15.5499 18.9719 15.4035 19.0734C15.2571 19.175 15.1316 19.3578 15.027 19.5203C14.9016 19.7234 14.7761 19.9062 14.5879 19.9672C14.546 19.9875 14.5251 19.9875 14.4833 19.9875C14.3369 19.9875 14.1696 19.9266 14.0023 19.8453C13.8141 19.7641 13.6049 19.6828 13.3958 19.6828C13.1867 19.6828 12.9984 19.7641 12.7893 19.8453C12.622 19.9062 12.4547 19.9875 12.3083 19.9875C12.2665 19.9875 12.2246 19.9875 12.2037 19.9672C12.0364 19.9062 11.89 19.7031 11.7645 19.5203C11.66 19.3578 11.5345 19.175 11.3881 19.0734C11.2208 18.9719 11.0326 18.9109 10.8234 18.8703C10.5934 18.8094 10.3633 18.7687 10.2588 18.6266C10.1542 18.4844 10.1751 18.2609 10.196 18.0375C10.217 17.8344 10.217 17.6312 10.1542 17.4484C10.0915 17.2859 9.96599 17.1234 9.8196 16.9812C9.6732 16.7984 9.5059 16.6156 9.5059 16.4328C9.5059 16.25 9.6732 16.0672 9.8196 15.8844C9.94508 15.7422 10.0915 15.5797 10.1542 15.4172C10.217 15.2344 10.196 15.0312 10.1751 14.8281C10.1542 14.6047 10.1333 14.3609 10.2379 14.2391C10.3424 14.0969 10.5725 14.0359 10.8025 13.9953C11.0117 13.9547 11.2208 13.8937 11.3672 13.7922C11.5136 13.6906 11.6391 13.5078 11.7436 13.3453C11.8691 13.1422 11.9946 12.9594 12.1828 12.8984C12.2246 12.8781 12.2456 12.8781 12.2874 12.8781C12.4338 12.8781 12.6011 12.9391 12.7684 13.0203C12.9566 13.1016 13.1658 13.1828 13.3749 13.1828C13.584 13.1828 13.7722 13.1016 13.9814 13.0203C14.1487 12.9594 14.316 12.8781 14.4624 12.8781C14.5042 12.8781 14.546 12.8781 14.567 12.8984C14.7343 12.9594 14.8807 13.1625 15.0061 13.3453C15.1107 13.5078 15.2362 13.6906 15.3826 13.7922C15.5499 13.8937 15.7381 13.9547 15.9472 13.9953C16.1773 14.0562 16.4073 14.0969 16.5119 14.2391C16.6165 14.3812 16.5956 14.6047 16.5746 14.8281C16.5537 15.0312 16.5537 15.2344 16.5956 15.4172C16.6583 15.5797 16.7838 15.7422 16.9302 15.8844C17.0766 16.0672 17.2439 16.25 17.2439 16.4328C17.2648 16.6156 17.0975 16.7984 16.9511 16.9812ZM14.6088 16.0266C14.0441 16.0266 13.7722 16.3922 13.7722 17.1437C13.7722 17.5094 13.835 17.7734 13.9814 17.9766C14.1278 18.1594 14.3369 18.2609 14.6088 18.2609C14.8807 18.2609 15.0898 18.1594 15.2362 17.9766C15.3826 17.7937 15.4453 17.5094 15.4453 17.1437C15.4453 16.7781 15.3617 16.5141 15.2153 16.3109C15.0898 16.1281 14.8807 16.0266 14.6088 16.0266ZM14.6088 17.7531C14.5251 17.7531 14.4624 17.7125 14.4415 17.6109C14.3996 17.5094 14.3787 17.3469 14.3787 17.1437C14.3787 16.9406 14.3996 16.7781 14.4415 16.6766C14.4833 16.575 14.546 16.5344 14.6088 16.5344C14.7552 16.5344 14.8388 16.7375 14.8388 17.1437C14.8597 17.55 14.7761 17.7531 14.6088 17.7531ZM12.7684 16.5547C12.9148 16.3719 12.9775 16.0875 12.9775 15.7219C12.9775 15.3562 12.8939 15.0922 12.7475 14.8891C12.6011 14.7062 12.392 14.6047 12.1201 14.6047C11.5554 14.6047 11.2835 14.9703 11.2835 15.7219C11.2835 16.0875 11.3463 16.3719 11.4927 16.5547C11.6391 16.7375 11.8482 16.8391 12.1201 16.8391C12.4129 16.8391 12.622 16.7578 12.7684 16.5547ZM11.9528 16.1891C11.9109 16.0875 11.89 15.925 11.89 15.7219C11.89 15.5187 11.9109 15.3562 11.9528 15.2547C11.9946 15.1531 12.0573 15.1125 12.1201 15.1125C12.2665 15.1125 12.3501 15.3156 12.3501 15.7219C12.3501 16.1281 12.2665 16.3312 12.1201 16.3312C12.0573 16.3312 11.9946 16.2906 11.9528 16.1891ZM14.065 14.6656L12.0992 18.2203H12.6847L14.6506 14.6656H14.065Z" fill="#FF8926"/>
<path fill-rule="evenodd" clip-rule="evenodd" d="M8.44753 5.58704V4.8201C8.46064 3.53767 8.98414 2.31214 9.90435 1.40965C10.8246 0.507173 12.0672 0.000617342 13.3623 0C14.6574 0.000617342 15.9 0.507173 16.8203 1.40965C17.7405 2.31214 18.264 3.53767 18.2771 4.8201V5.58574H21.8667C22.0929 5.58593 22.311 5.66892 22.4792 5.81876C22.6473 5.96859 22.7535 6.17469 22.7774 6.39741L24.75 25.0924C24.749 25.3328 24.6521 25.563 24.4804 25.733C24.3087 25.903 24.0762 25.999 23.8334 26H2.92259C2.36152 26 1.94449 25.6758 2.00603 25.0924L3.98581 6.39741C4.00966 6.17525 4.11542 5.9696 4.28285 5.81983C4.45027 5.67007 4.6676 5.58673 4.89322 5.58574L8.44753 5.58704ZM16.4485 7.39838H10.2761V8.88947C10.2761 9.13018 10.1795 9.36103 10.0076 9.53125C9.83574 9.70146 9.60261 9.79708 9.35952 9.79708C9.11643 9.79708 8.8833 9.70146 8.71141 9.53125C8.53952 9.36103 8.44295 9.13018 8.44295 8.88947V7.39838H5.72075L3.93868 24.1848H22.8193L21.0405 7.39903H18.2764V8.89012C18.2764 9.13083 18.1798 9.36169 18.008 9.5319C17.8361 9.70211 17.6029 9.79773 17.3598 9.79773C17.1168 9.79773 16.8836 9.70211 16.7117 9.5319C16.5398 9.36169 16.4433 9.13083 16.4433 8.89012L16.4485 7.39838ZM16.4485 5.58314V4.82918C16.4389 4.02484 16.1095 3.25668 15.5318 2.69117C14.9541 2.12567 14.1746 1.80839 13.3623 1.8081C12.5496 1.80839 11.7699 2.12595 11.1921 2.69187C10.6144 3.25779 10.2852 4.02645 10.2761 4.83112V5.5838L16.4485 5.58314Z" fill="#FF8926"/>
</svg>
