<svg width="28" height="28" viewBox="0 0 28 28" fill="none" xmlns="http://www.w3.org/2000/svg">
<g clip-path="url(#clip0_26988_50001)">
<path d="M26.1859 7.54289H23.7493C23.6422 7.54209 23.5359 7.56146 23.4368 7.5999C23.3376 7.63832 23.2473 7.69506 23.1712 7.76683L21.7927 9.08814H20.4986V8.31552C20.4947 7.70244 20.237 7.11553 19.7812 6.68207C19.3253 6.24861 18.7083 6.00354 18.0638 6H3.43909C2.79386 6.00246 2.17571 6.24706 1.71899 6.68064C1.26228 7.11421 1.00389 7.70173 1 8.31552V20.6809C1.00292 21.2953 1.26087 21.8838 1.7177 22.3181C2.17452 22.7525 2.79322 22.9975 3.43909 23H18.0638C18.7092 22.9969 19.3271 22.7516 19.7834 22.3175C20.2397 21.8834 20.4974 21.2954 20.5004 20.6815V19.9084H21.7903L23.1811 21.2296C23.3323 21.3728 23.5367 21.4533 23.7499 21.4536H26.1865C26.4019 21.4528 26.6083 21.3711 26.7606 21.2263C26.913 21.0815 26.999 20.8853 27 20.6804V8.31552C26.9989 8.11063 26.9126 7.91448 26.7602 7.76977C26.6077 7.62506 26.4013 7.54352 26.1859 7.54289ZM25.3756 19.9078H24.0815L22.6937 18.5865C22.5426 18.4433 22.3381 18.3628 22.1249 18.3625H19.6852C19.4699 18.3633 19.2636 18.4449 19.1113 18.5896C18.959 18.7343 18.8728 18.9304 18.8717 19.1351V20.6809C18.8709 20.8854 18.7854 21.0813 18.6336 21.2261C18.4819 21.3708 18.2762 21.4527 18.0614 21.4542H3.43909C3.22372 21.4534 3.01737 21.3717 2.86502 21.2269C2.71266 21.0821 2.62663 20.8859 2.62566 20.6809V8.31552C2.62679 8.11074 2.7129 7.91467 2.86524 7.76997C3.01757 7.62528 3.22382 7.54367 3.43909 7.54289H18.0638C18.278 7.54505 18.4828 7.62729 18.6339 7.77185C18.785 7.91642 18.8701 8.1117 18.8711 8.31552V16.0441H20.4974V10.631H22.1236C22.2303 10.6316 22.3359 10.612 22.4346 10.5736C22.5333 10.5352 22.623 10.4786 22.6986 10.4071L24.0802 9.08579H25.3743L25.3756 19.9078Z" fill="#FF8926"/>
</g>
<defs>
<clipPath id="clip0_26988_50001">
<rect width="26" height="17" fill="white" transform="translate(1 6)"/>
</clipPath>
</defs>
</svg>
