<svg width="32" height="33" viewBox="0 0 32 33" fill="none" xmlns="http://www.w3.org/2000/svg">
<g id="Icon" clip-path="url(#clip0_613_18295)">
<path id="Vector" d="M17.0866 9.77064C17.2552 9.55427 17.2195 9.23983 17.0069 9.06827C16.6068 8.74533 16.1947 8.45527 15.7823 8.2062C15.5798 8.08389 15.4393 7.90014 15.3867 7.6887C15.339 7.49714 15.3679 7.30383 15.4702 7.12976C15.9686 6.28164 16.6702 5.03257 17.1827 3.89907C18.0606 1.95725 17.9471 1.30256 17.7503 0.949188C17.5889 0.6595 17.3032 0.5 16.9457 0.5C15.9769 0.5 15.1176 0.708313 14.2867 0.909813C13.4295 1.11763 12.6198 1.31394 11.6645 1.31394C10.7689 1.31394 10.1081 1.135 9.40843 0.945501C8.59968 0.7265 7.7633 0.5 6.51041 0.5C5.91909 0.5 5.65303 0.831313 5.54705 1.02881C5.23953 1.602 5.41472 2.51963 6.11516 4.00426C6.64231 5.12163 7.37148 6.33607 7.8904 7.15814C8.02881 7.37739 8.02095 7.58564 7.99 7.7217C7.94069 7.93851 7.79983 8.12801 7.59339 8.25533C5.50922 9.54077 3.56677 11.7968 2.12396 14.6078C0.77418 17.2376 0 20.0969 0 22.4527C0 24.4383 0.535565 26.2321 1.59184 27.7843C1.68726 27.9245 1.84034 27.9997 1.99606 27.9997C2.09252 27.9997 2.19003 27.9708 2.27532 27.9106C2.49834 27.7534 2.55391 27.4419 2.39942 27.2149C1.45914 25.8332 0.982401 24.2309 0.982401 22.4527C0.982401 20.253 1.71587 17.5624 2.99467 15.0709C4.35556 12.4195 6.16956 10.3028 8.10249 9.11064C8.13172 9.09258 8.16027 9.07383 8.18827 9.05452H13.0793C13.3506 9.05452 13.5705 8.83064 13.5705 8.55451C13.5705 8.27839 13.3506 8.05451 13.0793 8.05451H8.91898C8.9293 8.01914 8.93894 7.98351 8.94716 7.94733C9.05118 7.48995 8.96945 7.0177 8.71696 6.61776C8.20362 5.80445 7.48545 4.60782 6.97935 3.52576C6.25423 1.97538 6.38404 1.56475 6.40719 1.51281C6.42107 1.50781 6.45423 1.50013 6.51047 1.50013C7.63496 1.50013 8.40816 1.70956 9.15594 1.912C9.88579 2.10969 10.6405 2.31407 11.6646 2.31407C12.7352 2.31407 13.6397 2.09475 14.5144 1.88275C15.313 1.68913 16.0681 1.50613 16.9052 1.50031C16.9195 1.66194 16.8842 2.18069 16.2623 3.54282C15.8744 4.39238 15.3777 5.30901 14.9524 6.05457H10.2402C9.96893 6.05457 9.74898 6.27845 9.74898 6.55457C9.74898 6.8307 9.96893 7.05457 10.2402 7.05457H14.4432C14.3659 7.3402 14.3615 7.64145 14.4344 7.93445C14.5516 8.40545 14.8523 8.80745 15.2811 9.06639C15.6557 9.29264 16.0311 9.55702 16.3967 9.85202C16.6093 10.0236 16.9183 9.98727 17.0868 9.77083L17.0866 9.77064Z" fill="#D5F7F4"/>
<path id="Vector_2" d="M13.6635 15.5H4.82135C4.00879 15.5 3.34766 16.1729 3.34766 17C3.34766 17.3839 3.49024 17.7344 3.72412 18C3.49024 18.2656 3.34766 18.6161 3.34766 19C3.34766 19.3839 3.49024 19.7344 3.72412 20C3.49024 20.2656 3.34766 20.6161 3.34766 21C3.34766 21.3839 3.49024 21.7344 3.72412 22C3.49024 22.2656 3.34766 22.6161 3.34766 23C3.34766 23.3839 3.49024 23.7345 3.72412 24C3.49024 24.2656 3.34766 24.6161 3.34766 25C3.34766 25.3839 3.49024 25.7345 3.72412 26C3.49024 26.2656 3.34766 26.6161 3.34766 27C3.34766 27.3839 3.49024 27.7345 3.72412 28C3.49024 28.2656 3.34766 28.6161 3.34766 29C3.34766 29.3839 3.49024 29.7345 3.72412 30C3.49024 30.2656 3.34766 30.6162 3.34766 31C3.34766 31.8271 4.00879 32.5 4.82135 32.5H13.6635C14.4761 32.5 15.1372 31.8271 15.1372 31C15.1372 30.6162 14.9946 30.2656 14.7607 30C14.9946 29.7345 15.1372 29.3839 15.1372 29C15.1372 28.6161 14.9946 28.2656 14.7607 28C14.9946 27.7345 15.1372 27.3839 15.1372 27C15.1372 26.6161 14.9946 26.2656 14.7607 26C14.9946 25.7345 15.1372 25.3839 15.1372 25C15.1372 24.6161 14.9946 24.2656 14.7607 24C14.9946 23.7345 15.1372 23.3839 15.1372 23C15.1372 22.6161 14.9946 22.2656 14.7607 22C14.9946 21.7344 15.1372 21.3839 15.1372 21C15.1372 20.6161 14.9946 20.2656 14.7607 20C14.9946 19.7344 15.1372 19.3839 15.1372 19C15.1372 18.6161 14.9946 18.2656 14.7607 18C14.9946 17.7344 15.1372 17.3839 15.1372 17C15.1372 16.1729 14.4761 15.5 13.6635 15.5ZM4.82135 16.5H13.6635C13.9344 16.5 14.1547 16.7243 14.1547 17C14.1547 17.2757 13.9344 17.5 13.6635 17.5H4.82135C4.5505 17.5 4.33012 17.2757 4.33012 17C4.33012 16.7243 4.5505 16.5 4.82135 16.5ZM14.1547 19C14.1547 19.2757 13.9344 19.5 13.6635 19.5H4.82135C4.5505 19.5 4.33012 19.2757 4.33012 19C4.33012 18.7243 4.5505 18.5 4.82135 18.5H13.6635C13.9344 18.5 14.1547 18.7243 14.1547 19ZM14.1547 21C14.1547 21.2757 13.9344 21.5 13.6635 21.5H4.82135C4.5505 21.5 4.33012 21.2757 4.33012 21C4.33012 20.7243 4.5505 20.5 4.82135 20.5H13.6635C13.9344 20.5 14.1547 20.7243 14.1547 21ZM14.1547 23C14.1547 23.2757 13.9344 23.5 13.6635 23.5H4.82135C4.5505 23.5 4.33012 23.2757 4.33012 23C4.33012 22.7243 4.5505 22.5 4.82135 22.5H13.6635C13.9344 22.5 14.1547 22.7243 14.1547 23ZM14.1547 25C14.1547 25.2757 13.9344 25.5 13.6635 25.5H4.82135C4.5505 25.5 4.33012 25.2757 4.33012 25C4.33012 24.7243 4.5505 24.5 4.82135 24.5H13.6635C13.9344 24.5 14.1547 24.7243 14.1547 25ZM14.1547 27C14.1547 27.2757 13.9344 27.5 13.6635 27.5H4.82135C4.5505 27.5 4.33012 27.2757 4.33012 27C4.33012 26.7243 4.5505 26.5 4.82135 26.5H13.6635C13.9344 26.5 14.1547 26.7243 14.1547 27ZM14.1547 29C14.1547 29.2757 13.9344 29.5 13.6635 29.5H4.82135C4.5505 29.5 4.33012 29.2757 4.33012 29C4.33012 28.7243 4.5505 28.5 4.82135 28.5H13.6635C13.9344 28.5 14.1547 28.7243 14.1547 29ZM13.6635 31.5H4.82135C4.5505 31.5 4.33012 31.2757 4.33012 31C4.33012 30.7243 4.5505 30.5 4.82135 30.5H13.6635C13.9344 30.5 14.1547 30.7243 14.1547 31C14.1547 31.2757 13.9344 31.5 13.6635 31.5Z" fill="#D5F7F4"/>
<path id="Vector_3" d="M23.2485 11.7543H22.5218V10.9312C22.5218 10.655 22.3019 10.4312 22.0306 10.4312C21.7593 10.4312 21.5393 10.655 21.5393 10.9312V11.7543H20.8126C20.2967 11.7543 19.877 12.1815 19.877 12.7066V14.0476C19.877 14.5727 20.2967 14.9999 20.8126 14.9999H23.2017V16.2456H20.8594V16.0013C20.8594 15.7252 20.6395 15.5013 20.3682 15.5013C20.0969 15.5013 19.877 15.7252 19.877 16.0013V16.2933C19.877 16.8184 20.2966 17.2456 20.8126 17.2456H21.5393V18.0687C21.5393 18.3449 21.7592 18.5687 22.0305 18.5687C22.3018 18.5687 22.5217 18.3449 22.5217 18.0687V17.2456H23.2485C23.7644 17.2456 24.1841 16.8184 24.1841 16.2933V14.9523C24.1841 14.4272 23.7644 14 23.2485 14H20.8594V12.7543H23.2017V12.9211C23.2017 13.1972 23.4216 13.4211 23.6929 13.4211C23.9642 13.4211 24.1841 13.1972 24.1841 12.9211V12.7066C24.1841 12.1815 23.7644 11.7543 23.2485 11.7543Z" fill="#D5F7F4"/>
<path id="Vector_4" d="M26.5268 19.5H25.3603C26.9502 18.4242 28.0005 16.5848 28.0005 14.5C28.0005 11.1916 25.3561 8.5 22.1057 8.5C18.8553 8.5 16.2109 11.1916 16.2109 14.5C16.2109 16.5848 17.2611 18.4242 18.8511 19.5H17.6846C16.8721 19.5 16.2109 20.173 16.2109 21C16.2109 21.3839 16.3535 21.7345 16.5874 22C16.3535 22.2656 16.2109 22.6161 16.2109 23C16.2109 23.3839 16.3535 23.7345 16.5874 24C16.3535 24.2656 16.2109 24.6162 16.2109 25C16.2109 25.3839 16.3535 25.7345 16.5874 26C16.3535 26.2656 16.2109 26.6162 16.2109 27C16.2109 27.3839 16.3535 27.7345 16.5874 28C16.3535 28.2656 16.2109 28.6162 16.2109 29C16.2109 29.3839 16.3535 29.7345 16.5874 30C16.3535 30.2656 16.2109 30.6162 16.2109 31C16.2109 31.8271 16.8721 32.5 17.6846 32.5H26.5268C27.3394 32.5 28.0005 31.8271 28.0005 31C28.0005 30.6162 27.8579 30.2656 27.624 30C27.8579 29.7345 28.0005 29.3839 28.0005 29C28.0005 28.6162 27.8579 28.2656 27.624 28C27.8579 27.7345 28.0005 27.3839 28.0005 27C28.0005 26.6162 27.8579 26.2656 27.624 26C27.8579 25.7345 28.0005 25.3839 28.0005 25C28.0005 24.6162 27.8579 24.2656 27.624 24C27.8579 23.7345 28.0005 23.3839 28.0005 23C28.0005 22.6161 27.8579 22.2656 27.624 22C27.8579 21.7345 28.0005 21.3839 28.0005 21C28.0005 20.173 27.3394 19.5 26.5268 19.5ZM17.1934 14.5C17.1934 11.743 19.3971 9.5 22.1057 9.5C24.8144 9.5 27.018 11.743 27.018 14.5C27.018 17.257 24.8144 19.5 22.1057 19.5C19.3971 19.5 17.1934 17.257 17.1934 14.5ZM17.6846 20.5H26.5268C26.7976 20.5 27.018 20.7243 27.018 21C27.018 21.2757 26.7976 21.5 26.5268 21.5H17.6846C17.4138 21.5 17.1934 21.2757 17.1934 21C17.1934 20.7243 17.4138 20.5 17.6846 20.5ZM27.018 23C27.018 23.2757 26.7976 23.5 26.5268 23.5H17.6846C17.4138 23.5 17.1934 23.2757 17.1934 23C17.1934 22.7243 17.4138 22.5 17.6846 22.5H26.5268C26.7976 22.5 27.018 22.7243 27.018 23ZM27.018 25C27.018 25.2757 26.7976 25.5 26.5268 25.5H17.6846C17.4138 25.5 17.1934 25.2757 17.1934 25C17.1934 24.7243 17.4138 24.5 17.6846 24.5H26.5268C26.7976 24.5 27.018 24.7243 27.018 25ZM27.018 27C27.018 27.2757 26.7976 27.5 26.5268 27.5H17.6846C17.4138 27.5 17.1934 27.2757 17.1934 27C17.1934 26.7243 17.4138 26.5 17.6846 26.5H26.5268C26.7976 26.5 27.018 26.7243 27.018 27ZM27.018 29C27.018 29.2757 26.7976 29.5 26.5268 29.5H17.6846C17.4138 29.5 17.1934 29.2757 17.1934 29C17.1934 28.7243 17.4138 28.5 17.6846 28.5H26.5268C26.7976 28.5 27.018 28.7243 27.018 29ZM26.5268 31.5H17.6846C17.4138 31.5 17.1934 31.2757 17.1934 31C17.1934 30.7244 17.4138 30.5 17.6846 30.5H26.5268C26.7976 30.5 27.018 30.7244 27.018 31C27.018 31.2757 26.7976 31.5 26.5268 31.5Z" fill="#D5F7F4"/>
</g>
<defs>
<clipPath id="clip0_613_18295">
<rect width="32" height="32" fill="white" transform="translate(0 0.5)"/>
</clipPath>
</defs>
</svg>
