<svg width="32" height="33" viewBox="0 0 32 33" fill="none" xmlns="http://www.w3.org/2000/svg">
<g clip-path="url(#clip0_613_18299)">
<path d="M27.8799 19.157C27.7785 19.1613 27.6786 19.1323 27.5958 19.0748C27.513 19.0172 27.4522 18.9342 27.4228 18.839L24.8082 10.5437C24.7356 10.3084 24.5714 10.1105 24.3511 9.99282L20.0407 7.66369C19.9076 7.59252 19.7594 7.55264 19.6079 7.5472C19.4564 7.54176 19.3057 7.57091 19.1676 7.63234L13.6459 10.0869C13.5361 10.1356 13.4111 10.1399 13.2981 10.0988C13.1851 10.0577 13.0932 9.97455 13.0425 9.8674C13.0172 9.8139 13.0028 9.75602 13.0004 9.69708C12.9979 9.63813 13.0074 9.5793 13.0282 9.52395C13.049 9.46859 13.0808 9.41781 13.1217 9.37452C13.1625 9.33123 13.2118 9.29629 13.2665 9.27169L18.7837 6.81267C19.0509 6.69584 19.342 6.64074 19.6345 6.65161C19.9269 6.66249 20.2129 6.73904 20.4704 6.87537L24.7808 9.2045C25.2132 9.43329 25.5366 9.81933 25.6813 10.2795L28.3188 18.5748C28.3545 18.6882 28.3427 18.8109 28.2862 18.9159C28.2296 19.0209 28.1328 19.0995 28.0171 19.1346C27.9728 19.1489 27.9265 19.1565 27.8799 19.157Z" fill="#D5F7F4" stroke="white" stroke-width="0.25"/>
<path d="M21.2343 24.3443H21.1658C19.4291 24.0544 17.7838 23.377 16.3571 22.3645C13.5597 20.3921 11.5251 17.5508 10.5839 14.3022L9.70629 11.3549C9.5463 10.7922 9.61329 10.1908 9.89338 9.67514C10.1735 9.1595 10.6452 8.76917 11.2109 8.58497C11.7766 8.40077 12.393 8.43681 12.9323 8.68563C13.4716 8.93445 13.8926 9.37699 14.1082 9.92161L14.9126 12.0402C15.1424 12.0555 15.3723 12.0113 15.5792 11.9123C15.7861 11.8133 15.9629 11.6628 16.092 11.4759C16.1385 11.4092 16.2026 11.3561 16.2774 11.3222C16.3523 11.2882 16.4351 11.2748 16.5171 11.2833C16.5171 11.2833 18.0026 11.4131 18.734 10.4322C18.789 10.3593 18.8653 10.3044 18.9528 10.2748C19.0403 10.2453 19.1349 10.2425 19.224 10.2667C19.3132 10.291 19.3928 10.3412 19.4522 10.4108C19.5116 10.4803 19.5481 10.5659 19.5568 10.6562C19.6414 11.1546 19.8379 11.6285 20.1319 12.0437C20.4259 12.4588 20.8102 12.8049 21.2572 13.057C21.3389 13.1053 21.4032 13.1776 21.4409 13.2635C21.4786 13.3495 21.4879 13.4448 21.4674 13.5362C21.4472 13.6273 21.3984 13.7099 21.3279 13.7726C21.2575 13.8352 21.1688 13.8747 21.0743 13.8856C20.5575 13.9409 20.0839 14.1942 19.7568 14.5902C19.4298 14.9862 19.2757 15.4929 19.3282 15.9997C19.3326 16.0908 19.3085 16.181 19.2592 16.2583C19.2099 16.3356 19.1377 16.3963 19.0523 16.4323C18.9668 16.4683 18.8722 16.478 18.781 16.4599C18.6898 16.4418 18.6065 16.3969 18.542 16.3312C18.1758 15.9876 17.7268 15.7405 17.2369 15.6128C16.7469 15.4852 16.232 15.4811 15.74 15.6011C15.6296 15.6319 15.5115 15.6209 15.409 15.5703C15.3066 15.5197 15.2273 15.4331 15.1869 15.3279L14.1584 12.6404C14.1564 12.6316 14.1564 12.6224 14.1584 12.6135L13.2442 10.2575C13.1372 9.9439 12.9188 9.67835 12.6288 9.50927C12.3388 9.34019 11.9964 9.27883 11.6641 9.33636C11.3317 9.39389 11.0315 9.56649 10.8182 9.82272C10.6048 10.0789 10.4925 10.4017 10.5016 10.7323C10.5012 10.8644 10.5212 10.9958 10.5611 11.122L11.4661 14.0424C12.3486 17.0921 14.2575 19.7598 16.8827 21.612C18.1935 22.5472 19.7056 23.1755 21.3029 23.4485C21.3629 23.4529 21.4215 23.4688 21.4752 23.4954C21.5289 23.522 21.5768 23.5587 21.6161 23.6034C21.6553 23.6481 21.6852 23.7 21.704 23.756C21.7228 23.812 21.7302 23.8712 21.7257 23.93C21.7212 23.9888 21.7049 24.0462 21.6778 24.0988C21.6507 24.1515 21.6132 24.1984 21.5676 24.2369C21.522 24.2753 21.469 24.3046 21.4119 24.323C21.3547 24.3415 21.2943 24.3487 21.2343 24.3443ZM16.4851 14.6247C17.191 14.6308 17.8817 14.826 18.4826 15.189C18.5685 14.7772 18.7517 14.3908 19.0177 14.061C19.2836 13.7311 19.6248 13.467 20.0139 13.2899C19.4889 12.8202 19.0875 12.2332 18.8437 11.5789C18.201 11.9972 17.4439 12.2143 16.6725 12.2015C16.3098 12.6231 15.7928 12.8885 15.2326 12.9405L15.9 14.6694C16.0935 14.6392 16.2891 14.6242 16.4851 14.6247Z" fill="#D5F7F4" stroke="white" stroke-width="0.25"/>
<path d="M22.6361 28.4997C22.5679 28.4999 22.5004 28.4852 22.4387 28.4565C22.377 28.4278 22.3226 28.386 22.2796 28.334L20.8352 26.5827C20.441 26.1023 20.2572 25.4885 20.324 24.8756C20.3908 24.2627 20.7029 23.7008 21.1917 23.3129L27.134 18.6323C27.6246 18.2472 28.2508 18.0678 28.8759 18.1332C29.501 18.1987 30.0743 18.5036 30.4708 18.9816L31.897 20.733C31.9349 20.7788 31.9633 20.8315 31.9804 20.8881C31.9975 20.9447 32.003 21.004 31.9967 21.0627C31.9903 21.1214 31.9722 21.1783 31.9433 21.2301C31.9144 21.2819 31.8754 21.3276 31.8284 21.3645L22.9195 28.4012C22.8391 28.4644 22.7393 28.4991 22.6361 28.4997ZM21.5483 26.0228L22.7047 27.4247L30.8914 20.948L29.7395 19.546C29.4951 19.2512 29.1416 19.0632 28.7562 19.0229C28.3708 18.9826 27.9849 19.0934 27.6825 19.331L21.7677 24.0072C21.4668 24.2466 21.2749 24.593 21.2338 24.9706C21.1927 25.3483 21.3057 25.7265 21.5483 26.0228Z" fill="#D5F7F4" stroke="white" stroke-width="0.25"/>
<path d="M11.0433 14.648L11.0431 14.6481C9.98345 15.54 8.64874 16.0563 7.25384 16.1145C5.85896 16.1726 4.48442 15.7692 3.35141 14.9688C2.21836 14.1684 1.39261 13.0173 1.00763 11.7005C0.622643 10.3836 0.701016 8.97811 1.23004 7.7103C1.75905 6.44254 2.70773 5.3866 3.92285 4.71195C5.13793 4.03732 6.54904 3.78302 7.9292 3.9897C9.30937 4.19638 10.5789 4.85213 11.5332 5.85196C12.4877 6.85184 13.0713 8.13769 13.1898 9.50269L13.0653 9.5135L13.1898 9.5027C13.1972 9.58766 13.2387 9.66691 13.3063 9.72271C13.3739 9.77858 13.4619 9.80618 13.5509 9.79877C13.6398 9.79136 13.7216 9.74965 13.7783 9.68369C13.835 9.61782 13.8623 9.5331 13.8549 9.44816C13.74 8.14605 13.2408 6.90459 12.418 5.87523C11.5951 4.84579 10.4839 4.07292 9.21988 3.65127C7.95582 3.22961 6.59376 3.17752 5.29995 3.50137C4.00614 3.82522 2.83683 4.51093 1.93446 5.47449C1.03212 6.43802 0.43569 7.63773 0.217539 8.9272C-0.000609616 10.2167 0.168874 11.5405 0.705454 12.7374C1.24205 13.9343 2.12268 14.9527 3.24031 15.6681C4.35794 16.3835 5.66412 16.765 6.99954 16.7656C8.64404 16.7644 10.2335 16.1868 11.4808 15.1378L11.0433 14.648ZM11.0433 14.648C11.1102 14.5914 11.1979 14.5629 11.2869 14.5694M11.0433 14.648L11.2869 14.5694M11.2869 14.5694C11.3759 14.5759 11.4581 14.6167 11.5156 14.6821M11.2869 14.5694L11.5156 14.6821M11.5156 14.6821C11.573 14.7473 11.6012 14.8317 11.5947 14.9167M11.5156 14.6821L11.5947 14.9167M11.5947 14.9167C11.5883 15.0016 11.5477 15.0812 11.481 15.1376L11.5947 14.9167Z" fill="#D5F7F4" stroke="white" stroke-width="0.25"/>
<path d="M6.8537 10.4594C6.45572 10.4603 6.06642 10.3455 5.73507 10.1295C5.40373 9.91344 5.14523 9.60596 4.9923 9.24592C4.83938 8.88588 4.79889 8.48948 4.87598 8.10689C4.95307 7.7243 5.14426 7.37271 5.42535 7.09664C5.70645 6.82057 6.0648 6.63243 6.45507 6.55602C6.84534 6.47961 7.24996 6.51838 7.61773 6.66741C7.98551 6.81644 8.29989 7.06904 8.52109 7.39324C8.74229 7.71743 8.86036 8.09864 8.86036 8.48862C8.86036 8.60741 8.8122 8.72134 8.72648 8.80534C8.64076 8.88934 8.52449 8.93653 8.40326 8.93653C8.28203 8.93653 8.16577 8.88934 8.08005 8.80534C7.99432 8.72134 7.94616 8.60741 7.94616 8.48862C7.94616 8.27582 7.88171 8.0678 7.76096 7.89093C7.64021 7.71405 7.46861 7.57627 7.26788 7.49504C7.06716 7.41381 6.84635 7.39279 6.63342 7.43463C6.42049 7.47647 6.22503 7.5793 6.07179 7.73009C5.91855 7.88088 5.81443 8.07284 5.77261 8.28166C5.7308 8.49048 5.75318 8.70676 5.83691 8.90311C5.92065 9.09946 6.06197 9.26703 6.24298 9.38461C6.42398 9.50219 6.63653 9.56449 6.8537 9.5636C6.97493 9.5636 7.09119 9.61079 7.17692 9.69479C7.26264 9.77879 7.3108 9.89272 7.3108 10.0115C7.3108 10.1303 7.26264 10.2442 7.17692 10.3282C7.09119 10.4122 6.97493 10.4594 6.8537 10.4594Z" fill="#D5F7F4"/>
<path d="M6.85303 13.5133C6.32041 13.5133 5.80954 13.3063 5.43249 12.9377C5.05544 12.569 4.84301 12.0689 4.8418 11.547C4.8418 11.4282 4.88996 11.3143 4.97568 11.2303C5.0614 11.1463 5.17767 11.0991 5.2989 11.0991C5.42013 11.0991 5.53639 11.1463 5.62211 11.2303C5.70784 11.3143 5.756 11.4282 5.756 11.547C5.7587 11.759 5.82533 11.9655 5.94751 12.1405C6.06968 12.3155 6.24195 12.4512 6.44263 12.5305C6.64331 12.6098 6.86344 12.6292 7.07534 12.5862C7.28723 12.5432 7.48142 12.4398 7.63347 12.2889C7.78553 12.1381 7.88866 11.9465 7.92989 11.7384C7.97112 11.5302 7.94861 11.3148 7.86519 11.1191C7.78177 10.9235 7.64116 10.7564 7.46106 10.6388C7.28097 10.5213 7.06942 10.4586 6.85303 10.4586C6.7318 10.4586 6.61554 10.4114 6.52981 10.3274C6.44409 10.2434 6.39593 10.1294 6.39593 10.0107C6.39593 9.89186 6.44409 9.77793 6.52981 9.69393C6.61554 9.60993 6.7318 9.56274 6.85303 9.56274C7.38523 9.56274 7.89564 9.76991 8.27196 10.1387C8.64828 10.5074 8.8597 11.0076 8.8597 11.5291C8.8597 12.0506 8.64828 12.5507 8.27196 12.9195C7.89564 13.2882 7.38523 13.4954 6.85303 13.4954V13.5133Z" fill="#D5F7F4"/>
<path d="M6.84968 7.43528C6.72845 7.43528 6.61218 7.38809 6.52646 7.30409C6.44074 7.22009 6.39258 7.10617 6.39258 6.98737V6.36478C6.39258 6.24599 6.44074 6.13206 6.52646 6.04806C6.61218 5.96406 6.72845 5.91687 6.84968 5.91687C6.97091 5.91687 7.08717 5.96406 7.17289 6.04806C7.25862 6.13206 7.30678 6.24599 7.30678 6.36478V6.98737C7.30678 7.10617 7.25862 7.22009 7.17289 7.30409C7.08717 7.38809 6.97091 7.43528 6.84968 7.43528Z" fill="#D5F7F4"/>
<path d="M6.84968 14.1401C6.72845 14.1401 6.61218 14.0929 6.52646 14.0089C6.44074 13.9249 6.39258 13.811 6.39258 13.6922V13.0651C6.39258 12.9463 6.44074 12.8324 6.52646 12.7484C6.61218 12.6644 6.72845 12.6172 6.84968 12.6172C6.97091 12.6172 7.08717 12.6644 7.17289 12.7484C7.25862 12.8324 7.30678 12.9463 7.30678 13.0651V13.6922C7.30678 13.811 7.25862 13.9249 7.17289 14.0089C7.08717 14.0929 6.97091 14.1401 6.84968 14.1401Z" fill="#D5F7F4"/>
</g>
<defs>
<clipPath id="clip0_613_18299">
<rect width="32" height="32" fill="white" transform="translate(0 0.5)"/>
</clipPath>
</defs>
</svg>
