<svg width="343" height="182" viewBox="0 0 343 182" fill="none" xmlns="http://www.w3.org/2000/svg">
<g opacity="0.1">
<path d="M-404.451 173.874C-310.421 193.641 140.315 250.823 388.238 8.22213C583.011 -182.366 778.497 130.479 869.489 -55.1781" stroke="#016B83" stroke-miterlimit="10"/>
<path d="M-401.634 183.279C-298.341 196.38 128.695 239.211 379.196 11.8722C576.892 -167.544 774.625 122.376 866.962 -62.5742" stroke="#016B83" stroke-miterlimit="10"/>
<path d="M-398.823 192.688C-286.259 199.121 117.141 227.631 370.149 15.5256C570.828 -152.712 770.751 114.274 864.433 -69.9672" stroke="#016B83" stroke-miterlimit="10"/>
<path d="M-396.01 202.096C-274.182 201.861 105.664 216.084 361.104 19.1755C564.823 -137.862 766.878 106.172 861.905 -77.3632" stroke="#016B83" stroke-miterlimit="10"/>
<path d="M-393.196 211.504C-262.101 204.601 94.266 204.582 352.065 22.8302C558.882 -122.983 763.007 98.0731 859.381 -84.7538" stroke="#016B83" stroke-miterlimit="10"/>
<path d="M-390.387 220.91C-250.033 207.342 82.9418 193.135 343.019 26.4753C552.995 -108.079 759.131 89.9648 856.848 -92.1556" stroke="#016B83" stroke-miterlimit="10"/>
<path d="M-387.573 230.318C-237.958 210.084 71.6959 181.751 333.979 30.1256C547.172 -93.1258 755.258 81.8619 854.32 -99.5507" stroke="#016B83" stroke-miterlimit="10"/>
<path d="M-384.762 239.725C-225.889 212.827 60.5272 170.452 324.94 33.7757C541.408 -78.1186 751.385 73.761 851.791 -106.944" stroke="#016B83" stroke-miterlimit="10"/>
<path d="M-381.95 249.133C-213.819 215.571 49.4306 159.235 315.897 37.4259C535.705 -63.052 747.509 65.658 849.259 -114.339" stroke="#016B83" stroke-miterlimit="10"/>
<path d="M-379.138 258.54C-201.75 218.313 38.402 148.11 306.863 41.0684C530.052 -47.9237 743.639 57.5491 846.734 -121.738" stroke="#016B83" stroke-miterlimit="10"/>
<path d="M-376.327 267.949C-189.685 221.058 27.4368 137.093 297.828 44.7221C524.454 -32.6973 739.767 49.4517 844.206 -129.13" stroke="#016B83" stroke-miterlimit="10"/>
<path d="M-373.515 277.355C-177.62 223.8 16.5244 126.182 288.793 48.3689C518.903 -17.3961 735.895 41.3476 841.68 -136.527" stroke="#016B83" stroke-miterlimit="10"/>
<path d="M-370.702 286.763C-165.555 226.546 5.66866 115.387 279.762 52.0175C513.393 -1.99972 732.024 33.2407 839.151 -143.921" stroke="#016B83" stroke-miterlimit="10"/>
<path d="M-367.89 296.172C-153.493 229.292 -5.15026 104.712 270.73 55.6644C507.915 13.4982 728.152 25.1435 836.624 -151.316" stroke="#016B83" stroke-miterlimit="10"/>
<path d="M-365.078 305.58C-141.431 232.038 -15.9392 94.1566 261.7 59.3122C502.466 29.0938 724.279 17.0328 834.092 -158.713" stroke="#016B83" stroke-miterlimit="10"/>
<path d="M-362.266 314.987C-129.374 234.782 -26.7078 83.7179 252.67 62.9572C497.034 44.7984 720.409 8.93574 831.567 -166.101" stroke="#016B83" stroke-miterlimit="10"/>
<path d="M-359.456 324.394C-117.316 237.528 -37.4662 73.3943 243.642 66.6026C491.613 60.6067 716.537 0.832286 829.031 -173.501" stroke="#016B83" stroke-miterlimit="10"/>
<path d="M-356.643 333.801C-105.259 240.274 -48.2219 63.1936 234.62 70.2457C486.199 76.5199 712.67 -7.27342 826.512 -180.899" stroke="#016B83" stroke-miterlimit="10"/>
<path d="M-353.83 343.206C-93.2027 243.023 -58.9854 53.0964 225.592 73.8915C480.772 92.5382 708.795 -15.3782 823.98 -188.293" stroke="#016B83" stroke-miterlimit="10"/>
<path d="M-351.019 352.614C-81.1509 245.768 -69.77 43.1026 216.568 77.5372C475.332 108.655 704.92 -23.479 821.451 -195.69" stroke="#016B83" stroke-miterlimit="10"/>
<path d="M-348.207 362.023C-69.0998 248.514 -80.5802 33.202 207.545 81.1819C469.873 124.866 701.053 -31.5834 818.923 -203.084" stroke="#016B83" stroke-miterlimit="10"/>
<path d="M-345.395 371.431C-57.0491 251.264 -91.425 23.3837 198.524 84.8275C464.386 141.163 697.183 -39.6843 816.395 -210.477" stroke="#016B83" stroke-miterlimit="10"/>
<path d="M-342.584 380.839C-45.0009 254.015 -102.312 13.6413 189.498 88.47C458.858 157.54 693.307 -47.7889 813.862 -217.872" stroke="#016B83" stroke-miterlimit="10"/>
<path d="M-339.771 390.245C-32.952 256.764 -113.242 3.9633 180.484 92.1118C453.3 173.986 689.441 -55.8938 811.338 -225.269" stroke="#016B83" stroke-miterlimit="10"/>
<path d="M-336.959 399.653C-20.9067 259.516 -124.228 -5.65818 171.469 95.7552C447.699 190.493 685.572 -63.9973 808.81 -232.664" stroke="#016B83" stroke-miterlimit="10"/>
<path d="M-334.147 409.061C-8.86234 262.265 -135.261 -15.2383 162.45 99.3981C442.042 207.056 681.702 -72.1013 806.281 -240.059" stroke="#016B83" stroke-miterlimit="10"/>
<path d="M-331.335 418.469C3.18052 265.016 -146.354 -24.7825 153.44 103.04C436.34 223.663 677.831 -80.2036 803.753 -247.454" stroke="#016B83" stroke-miterlimit="10"/>
</g>
</svg>
