<svg width="96" height="96" viewBox="0 0 96 96" fill="none" xmlns="http://www.w3.org/2000/svg">
<path d="M0 48C0 21.4903 21.4903 0 48 0C74.5097 0 96 21.4903 96 48C96 74.5097 74.5097 96 48 96C21.4903 96 0 74.5097 0 48Z" fill="#F8F7FA"/>
<path d="M34 38C34 40.1217 34.8429 42.1566 36.3431 43.6569C37.8434 45.1571 39.8783 46 42 46C44.1217 46 46.1566 45.1571 47.6569 43.6569C49.1571 42.1566 50 40.1217 50 38C50 35.8783 49.1571 33.8434 47.6569 32.3431C46.1566 30.8429 44.1217 30 42 30C39.8783 30 37.8434 30.8429 36.3431 32.3431C34.8429 33.8434 34 35.8783 34 38Z" stroke="#78787A" stroke-width="3" stroke-linecap="round" stroke-linejoin="round"/>
<path d="M30 66V62C30 59.8783 30.8429 57.8434 32.3431 56.3431C33.8434 54.8429 35.8783 54 38 54H46C48.1217 54 50.1566 54.8429 51.6569 56.3431C53.1571 57.8434 54 59.8783 54 62V66" stroke="#78787A" stroke-width="3" stroke-linecap="round" stroke-linejoin="round"/>
<path d="M56 30.2578C57.7208 30.6984 59.2461 31.6992 60.3353 33.1024C61.4245 34.5057 62.0157 36.2315 62.0157 38.0078C62.0157 39.7842 61.4245 41.51 60.3353 42.9132C59.2461 44.3164 57.7208 45.3172 56 45.7578" stroke="#78787A" stroke-width="3" stroke-linecap="round" stroke-linejoin="round"/>
<path d="M66 65.9969V61.9969C65.9898 60.2312 65.3958 58.5185 64.3105 57.1257C63.2252 55.7329 61.7097 54.7383 60 54.2969" stroke="#78787A" stroke-width="3" stroke-linecap="round" stroke-linejoin="round"/>
</svg>
