<svg width="48" height="48" viewBox="0 0 48 48" fill="none" xmlns="http://www.w3.org/2000/svg">
<path d="M10 14C10 16.1217 10.8429 18.1566 12.3431 19.6569C13.8434 21.1571 15.8783 22 18 22C20.1217 22 22.1566 21.1571 23.6569 19.6569C25.1571 18.1566 26 16.1217 26 14C26 11.8783 25.1571 9.84344 23.6569 8.34315C22.1566 6.84285 20.1217 6 18 6C15.8783 6 13.8434 6.84285 12.3431 8.34315C10.8429 9.84344 10 11.8783 10 14Z" stroke="#CAC9CD" stroke-width="3" stroke-linecap="round" stroke-linejoin="round"/>
<path d="M6 42V38C6 35.8783 6.84285 33.8434 8.34315 32.3431C9.84344 30.8429 11.8783 30 14 30H22C24.1217 30 26.1566 30.8429 27.6569 32.3431C29.1571 33.8434 30 35.8783 30 38V42" stroke="#CAC9CD" stroke-width="3" stroke-linecap="round" stroke-linejoin="round"/>
<path d="M32 6.25977C33.7208 6.70037 35.2461 7.70117 36.3353 9.10439C37.4245 10.5076 38.0157 12.2334 38.0157 14.0098C38.0157 15.7861 37.4245 17.5119 36.3353 18.9151C35.2461 20.3184 33.7208 21.3192 32 21.7598" stroke="#CAC9CD" stroke-width="3" stroke-linecap="round" stroke-linejoin="round"/>
<path d="M42 41.9998V37.9998C41.9898 36.2341 41.3958 34.5214 40.3105 33.1286C39.2252 31.7358 37.7097 30.7412 36 30.2998" stroke="#CAC9CD" stroke-width="3" stroke-linecap="round" stroke-linejoin="round"/>
</svg>
