<svg width="25" height="24" viewBox="0 0 25 24" fill="none" xmlns="http://www.w3.org/2000/svg">
<path d="M3.19922 12C3.19922 13.1819 3.43201 14.3522 3.8843 15.4442C4.33659 16.5361 4.99953 17.5282 5.83526 18.364C6.67099 19.1997 7.66314 19.8626 8.75507 20.3149C9.847 20.7672 11.0173 21 12.1992 21C13.3811 21 14.5514 20.7672 15.6434 20.3149C16.7353 19.8626 17.7275 19.1997 18.5632 18.364C19.3989 17.5282 20.0618 16.5361 20.5141 15.4442C20.9664 14.3522 21.1992 13.1819 21.1992 12" stroke="black" stroke-width="1.5" stroke-linecap="round" stroke-linejoin="round"/>
<path d="M15.1992 12L12.1992 15L9.19922 12" stroke="black" stroke-width="1.5" stroke-linecap="round" stroke-linejoin="round"/>
<path d="M12.1992 15L12.1992 1" stroke="black" stroke-width="1.5" stroke-linecap="round" stroke-linejoin="round"/>
</svg>
