<svg width="25" height="24" viewBox="0 0 25 24" fill="none" xmlns="http://www.w3.org/2000/svg">
<path d="M3.66602 12C3.66602 13.1819 3.89881 14.3522 4.3511 15.4442C4.80339 16.5361 5.46633 17.5282 6.30206 18.364C7.13778 19.1997 8.12993 19.8626 9.22186 20.3149C10.3138 20.7672 11.4841 21 12.666 21C13.8479 21 15.0182 20.7672 16.1102 20.3149C17.2021 19.8626 18.1942 19.1997 19.03 18.364C19.8657 17.5282 20.5286 16.5361 20.9809 15.4442C21.4332 14.3522 21.666 13.1819 21.666 12" stroke="black" stroke-width="1.5" stroke-linecap="round" stroke-linejoin="round"/>
<path d="M9.66602 4L12.666 0.999999L15.666 4" stroke="black" stroke-width="1.5" stroke-linecap="round" stroke-linejoin="round"/>
<path d="M12.666 15L12.666 1" stroke="black" stroke-width="1.5" stroke-linecap="round" stroke-linejoin="round"/>
</svg>
