<svg width="22" height="22" viewBox="0 0 22 22" fill="none" xmlns="http://www.w3.org/2000/svg">
<g clip-path="url(#clip0_23577_4718)">
<path d="M8.06656 10.2667C9.08184 10.2667 10.0743 9.9656 10.9185 9.40155C11.7627 8.83749 12.4206 8.03577 12.8091 7.09778C13.1977 6.15978 13.2993 5.12764 13.1013 4.13187C12.9032 3.1361 12.4143 2.22143 11.6964 1.50352C10.9785 0.785611 10.0638 0.296709 9.06803 0.0986378C8.07226 -0.0994329 7.04011 0.00222419 6.10212 0.390754C5.16413 0.779284 4.36241 1.43724 3.79835 2.28141C3.23429 3.12558 2.93323 4.11806 2.93323 5.13334C2.93478 6.4943 3.47611 7.79908 4.43846 8.76143C5.40081 9.72378 6.70559 10.2651 8.06656 10.2667ZM8.06656 1.46667C8.79176 1.46667 9.50067 1.68171 10.1037 2.08461C10.7066 2.48751 11.1766 3.06017 11.4541 3.73016C11.7316 4.40016 11.8043 5.1374 11.6628 5.84867C11.5213 6.55993 11.1721 7.21327 10.6593 7.72606C10.1465 8.23885 9.49316 8.58807 8.78189 8.72955C8.07063 8.87103 7.33339 8.79841 6.66339 8.52089C5.99339 8.24337 5.42074 7.77341 5.01784 7.17043C4.61494 6.56745 4.39989 5.85853 4.39989 5.13334C4.40106 4.16123 4.78774 3.22928 5.47512 2.5419C6.1625 1.85452 7.09446 1.46783 8.06656 1.46667Z" fill="#FF8926"/>
<path d="M11.1621 11.7344H4.97127C3.65335 11.7357 2.38979 12.2598 1.45781 13.1917C0.525832 14.1235 0.00155299 15.387 0 16.7049V21.2677C0 21.4622 0.0772617 21.6487 0.214788 21.7863C0.352315 21.9238 0.538841 22.001 0.733333 22.001H15.4C15.5945 22.001 15.781 21.9238 15.9185 21.7863C16.0561 21.6487 16.1333 21.4622 16.1333 21.2677V16.7049C16.1318 15.387 15.6075 14.1235 14.6755 13.1917C13.7435 12.2598 12.48 11.7357 11.1621 11.7344ZM14.6667 20.5344H1.46667V16.7049C1.46783 15.7759 1.83746 14.8852 2.49447 14.2283C3.15148 13.5715 4.04221 13.202 4.97127 13.201H11.1621C12.0911 13.202 12.9819 13.5715 13.6389 14.2283C14.2959 14.8852 14.6655 15.7759 14.6667 16.7049V20.5344Z" fill="#FF8926"/>
<path d="M21.2666 8.80052H19.0666V6.60052C19.0666 6.40603 18.9894 6.2195 18.8518 6.08198C18.7143 5.94445 18.5278 5.86719 18.3333 5.86719C18.1388 5.86719 17.9523 5.94445 17.8147 6.08198C17.6772 6.2195 17.6 6.40603 17.6 6.60052V8.80052H15.4C15.2055 8.80052 15.0189 8.87778 14.8814 9.01531C14.7439 9.15284 14.6666 9.33936 14.6666 9.53385C14.6666 9.72835 14.7439 9.91487 14.8814 10.0524C15.0189 10.1899 15.2055 10.2672 15.4 10.2672H17.6V12.4672C17.6 12.6617 17.6772 12.8482 17.8147 12.9857C17.9523 13.1233 18.1388 13.2005 18.3333 13.2005C18.5278 13.2005 18.7143 13.1233 18.8518 12.9857C18.9894 12.8482 19.0666 12.6617 19.0666 12.4672V10.2672H21.2666C21.4611 10.2672 21.6476 10.1899 21.7852 10.0524C21.9227 9.91487 22 9.72835 22 9.53385C22 9.33936 21.9227 9.15284 21.7852 9.01531C21.6476 8.87778 21.4611 8.80052 21.2666 8.80052Z" fill="#FF8926"/>
</g>
<defs>
<clipPath id="clip0_23577_4718">
<rect width="22" height="22" fill="white"/>
</clipPath>
</defs>
</svg>
