<svg width="16" height="16" viewBox="0 0 16 16" fill="none" xmlns="http://www.w3.org/2000/svg">
<path fill-rule="evenodd" clip-rule="evenodd" d="M8 0C12.4155 0 16 3.58453 16 8C16 12.4155 12.4155 16 8 16C3.58453 16 0 12.4155 0 8C0 3.58453 3.58453 0 8 0ZM8 1.06667C4.17333 1.06667 1.06667 4.17333 1.06667 8C1.06667 11.8267 4.17333 14.9333 8 14.9333C11.8267 14.9333 14.9333 11.8267 14.9333 8C14.9333 4.17333 11.8267 1.06667 8 1.06667Z" fill="white"/>
<path fill-rule="evenodd" clip-rule="evenodd" d="M8.53411 3.73646V7.47139L12.269 7.48366C12.5634 7.48473 12.8018 7.72419 12.8008 8.01859C12.7997 8.31299 12.5602 8.55139 12.2658 8.55033L7.99917 8.53646C7.70531 8.53539 7.46744 8.29699 7.46744 8.00313V3.73646C7.46744 3.44206 7.70638 3.20312 8.00078 3.20312C8.29518 3.20312 8.53411 3.44206 8.53411 3.73646Z" fill="white"/>
</svg>
