<svg width="18" height="22" viewBox="0 0 18 22" fill="none" xmlns="http://www.w3.org/2000/svg">
<path d="M1 3.33637V4.92899C1 5.16353 1.18995 5.35369 1.4247 5.35369H3.01732C3.25206 5.35369 3.44201 5.16353 3.44201 4.92899C3.44201 4.69445 3.25206 4.50429 3.01732 4.50429H2.45212C6.10156 0.94081 11.9667 0.962793 15.5832 4.57895C15.7491 4.74484 16.0179 4.74485 16.1838 4.57895C16.3497 4.41305 16.3497 4.1443 16.1838 3.9784C12.2355 0.0301347 5.8297 0.00877661 1.8494 3.90571V3.33637C1.8494 3.10184 1.65944 2.91168 1.4247 2.91168C1.18995 2.91168 1 3.10184 1 3.33637Z" fill="#FF8926" stroke="#FF8926" stroke-width="0.5"/>
<path d="M16.5753 19.4498C16.8101 19.4498 17 19.2597 17 19.0251V17.4325C17 17.198 16.8101 17.0078 16.5753 17.0078H14.9827C14.748 17.0078 14.558 17.198 14.558 17.4325C14.558 17.6671 14.748 17.8572 14.9827 17.8572H15.5133C11.8648 21.4327 5.99012 21.4142 2.3695 17.794C2.2036 17.6281 1.93485 17.6281 1.76895 17.794C1.60306 17.9599 1.60305 18.2286 1.76895 18.3945C3.75599 20.3815 6.36639 21.3751 8.97638 21.3751C11.5724 21.3751 14.1676 20.3903 16.1506 18.4245V19.0251C16.1506 19.2597 16.3406 19.4498 16.5753 19.4498Z" fill="#FF8926" stroke="#FF8926" stroke-width="0.5"/>
<path d="M8.71611 11.578C8.97795 11.67 9.29395 11.4695 9.65675 11.9638C9.90228 12.2973 9.86827 12.7918 9.57961 13.0898C9.40707 13.268 9.16237 13.365 8.93178 13.3603C8.68749 13.3567 8.46229 13.2557 8.29805 13.0757C8.13961 12.9024 7.87128 12.891 7.69791 13.0488C7.52496 13.2072 7.51293 13.4758 7.67095 13.6489C7.91223 13.9126 8.23065 14.0931 8.57592 14.169V14.8689C8.57592 15.1034 8.76588 15.2936 9.00062 15.2936C9.23536 15.2936 9.42532 15.1034 9.42532 14.8689V14.1341C9.71139 14.0514 9.97527 13.9026 10.1901 13.6809C10.7683 13.0838 10.833 12.1293 10.3411 11.4605C9.59439 10.445 8.92183 11.0438 8.41127 10.4852C8.25159 10.3108 8.16947 10.0856 8.17984 9.85069C8.2017 9.35616 8.6266 8.98572 9.09477 9.00938C9.3291 9.01933 9.54642 9.12074 9.70569 9.29514C9.86412 9.46871 10.1333 9.48012 10.3058 9.32189C10.4788 9.16366 10.4908 8.89491 10.3328 8.72196C10.0878 8.45404 9.77184 8.27746 9.42532 8.20229V7.50282C9.42532 7.26828 9.23537 7.07812 9.00062 7.07812C8.76588 7.07812 8.57593 7.26828 8.57593 7.50282V8.23485C7.83587 8.45021 7.36239 9.09211 7.33128 9.81357C7.29581 10.6189 7.82074 11.3901 8.71611 11.578Z" fill="#FF8926" stroke="#FF8926" stroke-width="0.5"/>
<path d="M8.99994 17.9977C12.7567 17.9977 15.8134 14.9413 15.8134 11.1843C15.8134 7.42755 12.7567 4.37109 8.99994 4.37109C5.24319 4.37109 2.18652 7.42755 2.18652 11.1843C2.18652 14.9413 5.24319 17.9977 8.99994 17.9977ZM8.99994 5.22049C12.2884 5.22049 14.964 7.8958 14.964 11.1843C14.964 14.4728 12.2884 17.1483 8.99994 17.1483C5.71143 17.1483 3.03592 14.4728 3.03592 11.1843C3.03592 7.89579 5.71143 5.22049 8.99994 5.22049Z" fill="#FF8926" stroke="#FF8926" stroke-width="0.5"/>
</svg>
