<svg width="24" height="24" viewBox="0 0 24 24" fill="none" xmlns="http://www.w3.org/2000/svg">
<mask id="path-1-outside-1_22622_262506" maskUnits="userSpaceOnUse" x="0" y="2" width="24" height="18" fill="black">
<rect fill="white" y="2" width="24" height="18"/>
<path d="M1.28182 16.3782L1.2772 16.371L1.27628 16.3692L1.27258 16.3629L1.27166 16.3611L1.26889 16.3548L1.26796 16.353L1.26519 16.3467L1.26427 16.3449L1.26149 16.3386L1.26057 16.3368L1.2578 16.3305L1.25687 16.3287L1.25502 16.3224L1.2541 16.3205L1.25225 16.3142L1.24948 16.3061L1.24856 16.3043L1.24671 16.2962L1.24486 16.2926C1.1654 16.0258 1.10441 15.7526 1.06283 15.474C1.02217 15.1945 1 14.9096 1 14.6238C1 13.0416 1.63387 11.6064 2.65859 10.5669C3.30356 9.91234 4.10375 9.41377 4.9991 9.1343C4.74131 8.98914 4.50569 8.81245 4.29684 8.6087L4.27744 8.58796C3.67961 7.99474 3.31093 7.18153 3.31093 6.28539C3.31093 5.37932 3.68794 4.55891 4.29686 3.96379L4.29871 3.96199C4.90855 3.36877 5.7494 3.00093 6.67718 3.00093C7.60581 3.00093 8.44667 3.36877 9.0566 3.96379C9.66644 4.55701 10.0434 5.37923 10.0434 6.28608C10.0434 7.19124 9.66644 8.01256 9.05752 8.60675L9.05568 8.60855C8.84685 8.8114 8.61123 8.9881 8.35436 9.13235C8.51791 9.18374 8.67777 9.24144 8.83484 9.30725C9.42712 9.55337 9.9686 9.89957 10.4408 10.3215C10.9018 10.0068 11.4627 9.82292 12.067 9.82292C12.639 9.82292 13.1712 9.987 13.6166 10.271C14.086 9.86079 14.6238 9.5272 15.2078 9.2901C15.351 9.2315 15.497 9.17921 15.6457 9.13323C15.3889 8.98808 15.1523 8.81138 14.9435 8.60763L14.9416 8.60583C14.3336 8.01081 13.9566 7.19039 13.9566 6.28516C13.9566 5.37819 14.3336 4.55688 14.9426 3.96195L14.9638 3.94302C15.5718 3.35972 16.4053 3 17.3237 3C18.2524 3 19.0932 3.36785 19.7032 3.96196L19.705 3.96377C20.313 4.55879 20.69 5.3792 20.69 6.28444C20.69 7.1905 20.313 8.01092 19.7032 8.60603C19.4943 8.80978 19.2587 8.98648 19.0009 9.13163C19.8953 9.412 20.6965 9.90967 21.3414 10.5642C22.3661 11.6046 23 13.039 23 14.6212C23 14.9069 22.9787 15.1927 22.9372 15.4731C22.8956 15.7553 22.8328 16.033 22.7524 16.3035L22.7496 16.3107V16.3125C22.7422 16.335 22.733 16.3557 22.7209 16.3765L22.7163 16.3837L22.7136 16.3882C22.4752 16.8164 22.0252 17.1879 21.4135 17.5016C20.2492 18.1003 18.4363 18.5195 16.3684 18.7593C16.3481 18.7638 16.3278 18.7656 16.3084 18.7665C14.9445 18.9216 13.4707 19 11.9997 19C10.5748 19.0009 9.14715 18.927 7.81941 18.7818C7.79908 18.7809 7.77875 18.7791 7.75843 18.7755C5.63784 18.5384 3.77499 18.1147 2.58587 17.5025C1.96955 17.1852 1.5168 16.811 1.27933 16.3774L1.28182 16.3782ZM14.8861 5.25588C15.2316 5.34784 15.5911 5.34603 15.9256 5.25768C16.3608 5.14408 16.7563 4.88623 17.0335 4.50579C17.1462 4.35072 17.368 4.31376 17.5269 4.42465C17.5601 4.44719 17.5879 4.47514 17.61 4.50579C17.8863 4.88623 18.2818 5.14408 18.7179 5.25768C19.0552 5.34603 19.4165 5.34783 19.763 5.25407C19.629 4.95295 19.4387 4.68158 19.204 4.45258C18.7244 3.98379 18.0591 3.69437 17.3245 3.69437C16.5983 3.69437 15.9404 3.97746 15.4626 4.43633L15.446 4.45346C15.2113 4.68246 15.021 4.95383 14.887 5.25496L14.8861 5.25588ZM19.9543 5.91852C19.4822 6.04744 18.9924 6.04564 18.5341 5.92573C18.0823 5.80763 17.6609 5.57504 17.3209 5.24054C16.9799 5.57501 16.5595 5.80761 16.1077 5.92573C15.6521 6.04474 15.1643 6.04654 14.693 5.92032C14.6755 6.04023 14.6671 6.16285 14.6671 6.28725C14.6671 7.00399 14.9647 7.65311 15.4433 8.1201C15.9247 8.58982 16.5891 8.87922 17.3227 8.87922C18.0564 8.87922 18.7208 8.58892 19.2022 8.1201C19.6836 7.65221 19.9802 7.00399 19.9802 6.28725C19.9802 6.16193 19.971 6.03934 19.9543 5.91852ZM22.0851 16.0745C22.1507 15.8501 22.2024 15.6174 22.2375 15.3776C22.2727 15.1351 22.2911 14.8827 22.2911 14.624C22.2911 13.2256 21.733 11.9599 20.8321 11.0457C19.934 10.1351 18.693 9.57073 17.3237 9.57073C16.6713 9.57073 16.0495 9.69785 15.4803 9.93045C14.9998 10.1261 14.5563 10.3947 14.1635 10.7247C14.6302 11.2206 14.9148 11.8805 14.9148 12.6036C14.9148 13.369 14.596 14.0632 14.0813 14.5662L14.0795 14.568C13.927 14.7159 13.7579 14.8475 13.575 14.9593C14.0545 15.1369 14.5008 15.3939 14.9 15.713C15.6503 16.3134 16.2315 17.1338 16.5503 18.0452C18.4196 17.8135 20.0394 17.4285 21.0854 16.8912C21.5668 16.6433 21.9133 16.3701 22.0852 16.0735L22.0851 16.0745ZM15.8277 18.1274C15.5413 17.3935 15.0608 16.7354 14.45 16.2458C13.782 15.7112 12.9578 15.3812 12.068 15.3812C11.1736 15.3812 10.3438 15.713 9.67392 16.2512C9.06408 16.7408 8.58358 17.4016 8.30084 18.1391C9.48357 18.2536 10.742 18.3104 12.0016 18.3104C13.3063 18.3113 14.6091 18.25 15.8289 18.1274L15.8277 18.1274ZM7.57627 18.0607C7.89228 17.1456 8.47349 16.3216 9.22377 15.7185C9.62479 15.3967 10.0748 15.137 10.559 14.9585C10.3769 14.8467 10.2069 14.7151 10.0554 14.5672L10.0535 14.5654C9.53885 14.0624 9.22008 13.3682 9.22008 12.6028C9.22008 11.9095 9.48158 11.2748 9.91309 10.787C9.51207 10.4372 9.05469 10.1505 8.55848 9.94408C7.98006 9.70336 7.34526 9.56993 6.67905 9.56993C5.30966 9.56993 4.06781 10.1334 3.17059 11.0449C2.26968 11.9599 1.71158 13.2248 1.71158 14.6232C1.71158 14.881 1.73006 15.1334 1.76517 15.3759C1.80028 15.6158 1.85203 15.8502 1.91763 16.0755C2.08949 16.3712 2.436 16.6444 2.91649 16.8915C3.98556 17.4405 5.65334 17.83 7.57622 18.0599L7.57627 18.0607ZM10.6504 11.0403L10.6486 11.0421L10.643 11.0466C10.6135 11.0727 10.5839 11.0998 10.5562 11.1277C10.169 11.5055 9.93063 12.0274 9.93063 12.6035C9.93063 13.1805 10.1699 13.7025 10.5553 14.0785C10.9424 14.4562 11.4774 14.6888 12.0679 14.6888C12.6592 14.6888 13.1942 14.4553 13.5795 14.0794C13.9667 13.7016 14.2051 13.1796 14.2051 12.6035C14.2051 12.0265 13.9658 11.5046 13.5795 11.1277C13.5315 11.0808 13.4807 11.0357 13.428 10.9934L13.4224 10.9889C13.0538 10.695 12.5825 10.5182 12.0678 10.5182C11.5236 10.5182 11.0265 10.7157 10.6504 11.0411L10.6504 11.0403ZM8.55754 4.45167C8.07799 3.98288 7.41362 3.69346 6.67903 3.69346C5.94443 3.69346 5.27915 3.98375 4.7996 4.45075C4.31818 4.92047 4.02157 5.56869 4.02157 6.28541C4.02157 6.99402 4.31172 7.63594 4.78202 8.10204L4.79958 8.11827C5.281 8.58798 5.94536 8.87738 6.67901 8.87738C7.41361 8.87738 8.07889 8.58708 8.55752 8.12009C9.03894 7.65037 9.33554 7.00215 9.33554 6.28633C9.33554 5.57051 9.03802 4.92227 8.55752 4.45257L8.55754 4.45167Z"/>
</mask>
<path d="M1.28182 16.3782L1.2772 16.371L1.27628 16.3692L1.27258 16.3629L1.27166 16.3611L1.26889 16.3548L1.26796 16.353L1.26519 16.3467L1.26427 16.3449L1.26149 16.3386L1.26057 16.3368L1.2578 16.3305L1.25687 16.3287L1.25502 16.3224L1.2541 16.3205L1.25225 16.3142L1.24948 16.3061L1.24856 16.3043L1.24671 16.2962L1.24486 16.2926C1.1654 16.0258 1.10441 15.7526 1.06283 15.474C1.02217 15.1945 1 14.9096 1 14.6238C1 13.0416 1.63387 11.6064 2.65859 10.5669C3.30356 9.91234 4.10375 9.41377 4.9991 9.1343C4.74131 8.98914 4.50569 8.81245 4.29684 8.6087L4.27744 8.58796C3.67961 7.99474 3.31093 7.18153 3.31093 6.28539C3.31093 5.37932 3.68794 4.55891 4.29686 3.96379L4.29871 3.96199C4.90855 3.36877 5.7494 3.00093 6.67718 3.00093C7.60581 3.00093 8.44667 3.36877 9.0566 3.96379C9.66644 4.55701 10.0434 5.37923 10.0434 6.28608C10.0434 7.19124 9.66644 8.01256 9.05752 8.60675L9.05568 8.60855C8.84685 8.8114 8.61123 8.9881 8.35436 9.13235C8.51791 9.18374 8.67777 9.24144 8.83484 9.30725C9.42712 9.55337 9.9686 9.89957 10.4408 10.3215C10.9018 10.0068 11.4627 9.82292 12.067 9.82292C12.639 9.82292 13.1712 9.987 13.6166 10.271C14.086 9.86079 14.6238 9.5272 15.2078 9.2901C15.351 9.2315 15.497 9.17921 15.6457 9.13323C15.3889 8.98808 15.1523 8.81138 14.9435 8.60763L14.9416 8.60583C14.3336 8.01081 13.9566 7.19039 13.9566 6.28516C13.9566 5.37819 14.3336 4.55688 14.9426 3.96195L14.9638 3.94302C15.5718 3.35972 16.4053 3 17.3237 3C18.2524 3 19.0932 3.36785 19.7032 3.96196L19.705 3.96377C20.313 4.55879 20.69 5.3792 20.69 6.28444C20.69 7.1905 20.313 8.01092 19.7032 8.60603C19.4943 8.80978 19.2587 8.98648 19.0009 9.13163C19.8953 9.412 20.6965 9.90967 21.3414 10.5642C22.3661 11.6046 23 13.039 23 14.6212C23 14.9069 22.9787 15.1927 22.9372 15.4731C22.8956 15.7553 22.8328 16.033 22.7524 16.3035L22.7496 16.3107V16.3125C22.7422 16.335 22.733 16.3557 22.7209 16.3765L22.7163 16.3837L22.7136 16.3882C22.4752 16.8164 22.0252 17.1879 21.4135 17.5016C20.2492 18.1003 18.4363 18.5195 16.3684 18.7593C16.3481 18.7638 16.3278 18.7656 16.3084 18.7665C14.9445 18.9216 13.4707 19 11.9997 19C10.5748 19.0009 9.14715 18.927 7.81941 18.7818C7.79908 18.7809 7.77875 18.7791 7.75843 18.7755C5.63784 18.5384 3.77499 18.1147 2.58587 17.5025C1.96955 17.1852 1.5168 16.811 1.27933 16.3774L1.28182 16.3782ZM14.8861 5.25588C15.2316 5.34784 15.5911 5.34603 15.9256 5.25768C16.3608 5.14408 16.7563 4.88623 17.0335 4.50579C17.1462 4.35072 17.368 4.31376 17.5269 4.42465C17.5601 4.44719 17.5879 4.47514 17.61 4.50579C17.8863 4.88623 18.2818 5.14408 18.7179 5.25768C19.0552 5.34603 19.4165 5.34783 19.763 5.25407C19.629 4.95295 19.4387 4.68158 19.204 4.45258C18.7244 3.98379 18.0591 3.69437 17.3245 3.69437C16.5983 3.69437 15.9404 3.97746 15.4626 4.43633L15.446 4.45346C15.2113 4.68246 15.021 4.95383 14.887 5.25496L14.8861 5.25588ZM19.9543 5.91852C19.4822 6.04744 18.9924 6.04564 18.5341 5.92573C18.0823 5.80763 17.6609 5.57504 17.3209 5.24054C16.9799 5.57501 16.5595 5.80761 16.1077 5.92573C15.6521 6.04474 15.1643 6.04654 14.693 5.92032C14.6755 6.04023 14.6671 6.16285 14.6671 6.28725C14.6671 7.00399 14.9647 7.65311 15.4433 8.1201C15.9247 8.58982 16.5891 8.87922 17.3227 8.87922C18.0564 8.87922 18.7208 8.58892 19.2022 8.1201C19.6836 7.65221 19.9802 7.00399 19.9802 6.28725C19.9802 6.16193 19.971 6.03934 19.9543 5.91852ZM22.0851 16.0745C22.1507 15.8501 22.2024 15.6174 22.2375 15.3776C22.2727 15.1351 22.2911 14.8827 22.2911 14.624C22.2911 13.2256 21.733 11.9599 20.8321 11.0457C19.934 10.1351 18.693 9.57073 17.3237 9.57073C16.6713 9.57073 16.0495 9.69785 15.4803 9.93045C14.9998 10.1261 14.5563 10.3947 14.1635 10.7247C14.6302 11.2206 14.9148 11.8805 14.9148 12.6036C14.9148 13.369 14.596 14.0632 14.0813 14.5662L14.0795 14.568C13.927 14.7159 13.7579 14.8475 13.575 14.9593C14.0545 15.1369 14.5008 15.3939 14.9 15.713C15.6503 16.3134 16.2315 17.1338 16.5503 18.0452C18.4196 17.8135 20.0394 17.4285 21.0854 16.8912C21.5668 16.6433 21.9133 16.3701 22.0852 16.0735L22.0851 16.0745ZM15.8277 18.1274C15.5413 17.3935 15.0608 16.7354 14.45 16.2458C13.782 15.7112 12.9578 15.3812 12.068 15.3812C11.1736 15.3812 10.3438 15.713 9.67392 16.2512C9.06408 16.7408 8.58358 17.4016 8.30084 18.1391C9.48357 18.2536 10.742 18.3104 12.0016 18.3104C13.3063 18.3113 14.6091 18.25 15.8289 18.1274L15.8277 18.1274ZM7.57627 18.0607C7.89228 17.1456 8.47349 16.3216 9.22377 15.7185C9.62479 15.3967 10.0748 15.137 10.559 14.9585C10.3769 14.8467 10.2069 14.7151 10.0554 14.5672L10.0535 14.5654C9.53885 14.0624 9.22008 13.3682 9.22008 12.6028C9.22008 11.9095 9.48158 11.2748 9.91309 10.787C9.51207 10.4372 9.05469 10.1505 8.55848 9.94408C7.98006 9.70336 7.34526 9.56993 6.67905 9.56993C5.30966 9.56993 4.06781 10.1334 3.17059 11.0449C2.26968 11.9599 1.71158 13.2248 1.71158 14.6232C1.71158 14.881 1.73006 15.1334 1.76517 15.3759C1.80028 15.6158 1.85203 15.8502 1.91763 16.0755C2.08949 16.3712 2.436 16.6444 2.91649 16.8915C3.98556 17.4405 5.65334 17.83 7.57622 18.0599L7.57627 18.0607ZM10.6504 11.0403L10.6486 11.0421L10.643 11.0466C10.6135 11.0727 10.5839 11.0998 10.5562 11.1277C10.169 11.5055 9.93063 12.0274 9.93063 12.6035C9.93063 13.1805 10.1699 13.7025 10.5553 14.0785C10.9424 14.4562 11.4774 14.6888 12.0679 14.6888C12.6592 14.6888 13.1942 14.4553 13.5795 14.0794C13.9667 13.7016 14.2051 13.1796 14.2051 12.6035C14.2051 12.0265 13.9658 11.5046 13.5795 11.1277C13.5315 11.0808 13.4807 11.0357 13.428 10.9934L13.4224 10.9889C13.0538 10.695 12.5825 10.5182 12.0678 10.5182C11.5236 10.5182 11.0265 10.7157 10.6504 11.0411L10.6504 11.0403ZM8.55754 4.45167C8.07799 3.98288 7.41362 3.69346 6.67903 3.69346C5.94443 3.69346 5.27915 3.98375 4.7996 4.45075C4.31818 4.92047 4.02157 5.56869 4.02157 6.28541C4.02157 6.99402 4.31172 7.63594 4.78202 8.10204L4.79958 8.11827C5.281 8.58798 5.94536 8.87738 6.67901 8.87738C7.41361 8.87738 8.07889 8.58708 8.55752 8.12009C9.03894 7.65037 9.33554 7.00215 9.33554 6.28633C9.33554 5.57051 9.03802 4.92227 8.55752 4.45257L8.55754 4.45167Z" fill="white"/>
<path d="M1.28182 16.3782L1.2772 16.371L1.27628 16.3692L1.27258 16.3629L1.27166 16.3611L1.26889 16.3548L1.26796 16.353L1.26519 16.3467L1.26427 16.3449L1.26149 16.3386L1.26057 16.3368L1.2578 16.3305L1.25687 16.3287L1.25502 16.3224L1.2541 16.3205L1.25225 16.3142L1.24948 16.3061L1.24856 16.3043L1.24671 16.2962L1.24486 16.2926C1.1654 16.0258 1.10441 15.7526 1.06283 15.474C1.02217 15.1945 1 14.9096 1 14.6238C1 13.0416 1.63387 11.6064 2.65859 10.5669C3.30356 9.91234 4.10375 9.41377 4.9991 9.1343C4.74131 8.98914 4.50569 8.81245 4.29684 8.6087L4.27744 8.58796C3.67961 7.99474 3.31093 7.18153 3.31093 6.28539C3.31093 5.37932 3.68794 4.55891 4.29686 3.96379L4.29871 3.96199C4.90855 3.36877 5.7494 3.00093 6.67718 3.00093C7.60581 3.00093 8.44667 3.36877 9.0566 3.96379C9.66644 4.55701 10.0434 5.37923 10.0434 6.28608C10.0434 7.19124 9.66644 8.01256 9.05752 8.60675L9.05568 8.60855C8.84685 8.8114 8.61123 8.9881 8.35436 9.13235C8.51791 9.18374 8.67777 9.24144 8.83484 9.30725C9.42712 9.55337 9.9686 9.89957 10.4408 10.3215C10.9018 10.0068 11.4627 9.82292 12.067 9.82292C12.639 9.82292 13.1712 9.987 13.6166 10.271C14.086 9.86079 14.6238 9.5272 15.2078 9.2901C15.351 9.2315 15.497 9.17921 15.6457 9.13323C15.3889 8.98808 15.1523 8.81138 14.9435 8.60763L14.9416 8.60583C14.3336 8.01081 13.9566 7.19039 13.9566 6.28516C13.9566 5.37819 14.3336 4.55688 14.9426 3.96195L14.9638 3.94302C15.5718 3.35972 16.4053 3 17.3237 3C18.2524 3 19.0932 3.36785 19.7032 3.96196L19.705 3.96377C20.313 4.55879 20.69 5.3792 20.69 6.28444C20.69 7.1905 20.313 8.01092 19.7032 8.60603C19.4943 8.80978 19.2587 8.98648 19.0009 9.13163C19.8953 9.412 20.6965 9.90967 21.3414 10.5642C22.3661 11.6046 23 13.039 23 14.6212C23 14.9069 22.9787 15.1927 22.9372 15.4731C22.8956 15.7553 22.8328 16.033 22.7524 16.3035L22.7496 16.3107V16.3125C22.7422 16.335 22.733 16.3557 22.7209 16.3765L22.7163 16.3837L22.7136 16.3882C22.4752 16.8164 22.0252 17.1879 21.4135 17.5016C20.2492 18.1003 18.4363 18.5195 16.3684 18.7593C16.3481 18.7638 16.3278 18.7656 16.3084 18.7665C14.9445 18.9216 13.4707 19 11.9997 19C10.5748 19.0009 9.14715 18.927 7.81941 18.7818C7.79908 18.7809 7.77875 18.7791 7.75843 18.7755C5.63784 18.5384 3.77499 18.1147 2.58587 17.5025C1.96955 17.1852 1.5168 16.811 1.27933 16.3774L1.28182 16.3782ZM14.8861 5.25588C15.2316 5.34784 15.5911 5.34603 15.9256 5.25768C16.3608 5.14408 16.7563 4.88623 17.0335 4.50579C17.1462 4.35072 17.368 4.31376 17.5269 4.42465C17.5601 4.44719 17.5879 4.47514 17.61 4.50579C17.8863 4.88623 18.2818 5.14408 18.7179 5.25768C19.0552 5.34603 19.4165 5.34783 19.763 5.25407C19.629 4.95295 19.4387 4.68158 19.204 4.45258C18.7244 3.98379 18.0591 3.69437 17.3245 3.69437C16.5983 3.69437 15.9404 3.97746 15.4626 4.43633L15.446 4.45346C15.2113 4.68246 15.021 4.95383 14.887 5.25496L14.8861 5.25588ZM19.9543 5.91852C19.4822 6.04744 18.9924 6.04564 18.5341 5.92573C18.0823 5.80763 17.6609 5.57504 17.3209 5.24054C16.9799 5.57501 16.5595 5.80761 16.1077 5.92573C15.6521 6.04474 15.1643 6.04654 14.693 5.92032C14.6755 6.04023 14.6671 6.16285 14.6671 6.28725C14.6671 7.00399 14.9647 7.65311 15.4433 8.1201C15.9247 8.58982 16.5891 8.87922 17.3227 8.87922C18.0564 8.87922 18.7208 8.58892 19.2022 8.1201C19.6836 7.65221 19.9802 7.00399 19.9802 6.28725C19.9802 6.16193 19.971 6.03934 19.9543 5.91852ZM22.0851 16.0745C22.1507 15.8501 22.2024 15.6174 22.2375 15.3776C22.2727 15.1351 22.2911 14.8827 22.2911 14.624C22.2911 13.2256 21.733 11.9599 20.8321 11.0457C19.934 10.1351 18.693 9.57073 17.3237 9.57073C16.6713 9.57073 16.0495 9.69785 15.4803 9.93045C14.9998 10.1261 14.5563 10.3947 14.1635 10.7247C14.6302 11.2206 14.9148 11.8805 14.9148 12.6036C14.9148 13.369 14.596 14.0632 14.0813 14.5662L14.0795 14.568C13.927 14.7159 13.7579 14.8475 13.575 14.9593C14.0545 15.1369 14.5008 15.3939 14.9 15.713C15.6503 16.3134 16.2315 17.1338 16.5503 18.0452C18.4196 17.8135 20.0394 17.4285 21.0854 16.8912C21.5668 16.6433 21.9133 16.3701 22.0852 16.0735L22.0851 16.0745ZM15.8277 18.1274C15.5413 17.3935 15.0608 16.7354 14.45 16.2458C13.782 15.7112 12.9578 15.3812 12.068 15.3812C11.1736 15.3812 10.3438 15.713 9.67392 16.2512C9.06408 16.7408 8.58358 17.4016 8.30084 18.1391C9.48357 18.2536 10.742 18.3104 12.0016 18.3104C13.3063 18.3113 14.6091 18.25 15.8289 18.1274L15.8277 18.1274ZM7.57627 18.0607C7.89228 17.1456 8.47349 16.3216 9.22377 15.7185C9.62479 15.3967 10.0748 15.137 10.559 14.9585C10.3769 14.8467 10.2069 14.7151 10.0554 14.5672L10.0535 14.5654C9.53885 14.0624 9.22008 13.3682 9.22008 12.6028C9.22008 11.9095 9.48158 11.2748 9.91309 10.787C9.51207 10.4372 9.05469 10.1505 8.55848 9.94408C7.98006 9.70336 7.34526 9.56993 6.67905 9.56993C5.30966 9.56993 4.06781 10.1334 3.17059 11.0449C2.26968 11.9599 1.71158 13.2248 1.71158 14.6232C1.71158 14.881 1.73006 15.1334 1.76517 15.3759C1.80028 15.6158 1.85203 15.8502 1.91763 16.0755C2.08949 16.3712 2.436 16.6444 2.91649 16.8915C3.98556 17.4405 5.65334 17.83 7.57622 18.0599L7.57627 18.0607ZM10.6504 11.0403L10.6486 11.0421L10.643 11.0466C10.6135 11.0727 10.5839 11.0998 10.5562 11.1277C10.169 11.5055 9.93063 12.0274 9.93063 12.6035C9.93063 13.1805 10.1699 13.7025 10.5553 14.0785C10.9424 14.4562 11.4774 14.6888 12.0679 14.6888C12.6592 14.6888 13.1942 14.4553 13.5795 14.0794C13.9667 13.7016 14.2051 13.1796 14.2051 12.6035C14.2051 12.0265 13.9658 11.5046 13.5795 11.1277C13.5315 11.0808 13.4807 11.0357 13.428 10.9934L13.4224 10.9889C13.0538 10.695 12.5825 10.5182 12.0678 10.5182C11.5236 10.5182 11.0265 10.7157 10.6504 11.0411L10.6504 11.0403ZM8.55754 4.45167C8.07799 3.98288 7.41362 3.69346 6.67903 3.69346C5.94443 3.69346 5.27915 3.98375 4.7996 4.45075C4.31818 4.92047 4.02157 5.56869 4.02157 6.28541C4.02157 6.99402 4.31172 7.63594 4.78202 8.10204L4.79958 8.11827C5.281 8.58798 5.94536 8.87738 6.67901 8.87738C7.41361 8.87738 8.07889 8.58708 8.55752 8.12009C9.03894 7.65037 9.33554 7.00215 9.33554 6.28633C9.33554 5.57051 9.03802 4.92227 8.55752 4.45257L8.55754 4.45167Z" stroke="white" stroke-width="0.4" mask="url(#path-1-outside-1_22622_262506)"/>
</svg>
