<svg width="24" height="24" viewBox="0 0 24 24" fill="none" xmlns="http://www.w3.org/2000/svg">
<path d="M4.56443 6C2.51117 6 0.84668 7.68102 0.84668 9.75467V19.8453C0.84668 21.9188 2.51119 23.6 4.56443 23.6H18.3316C20.3849 23.6 22.0494 21.9188 22.0494 19.8453V16.6773C22.0494 16.1589 21.6334 15.7387 21.1199 15.7387C20.6067 15.7387 20.1905 16.1589 20.1905 16.6773V19.8453C20.1905 20.882 19.3583 21.7227 18.3316 21.7227H4.56443C3.53783 21.7227 2.70555 20.8822 2.70555 19.8453V9.75467C2.70555 8.71783 3.53779 7.87733 4.56443 7.87733H18.3316C19.3583 7.87733 20.1905 8.71785 20.1905 9.75467V12.864C20.1905 13.3824 20.6067 13.8027 21.1199 13.8027C21.6334 13.8027 22.0494 13.3824 22.0494 12.864V9.75467C22.0494 7.68104 20.3849 6 18.3316 6H4.56443Z" fill="#FF8926" stroke="white" stroke-width="0.45"/>
<path d="M17.5766 11.9844C16.55 11.9844 15.7178 12.8249 15.7178 13.8617V15.739C15.7178 16.7759 16.55 17.6164 17.5766 17.6164H21.2944C22.3211 17.6164 23.1533 16.7759 23.1533 15.739V13.8617C23.1533 12.8249 22.3211 11.9844 21.2944 11.9844H17.5766ZM17.5766 13.8617H21.2944V15.739H17.5766V13.8617Z" fill="#FF8926" stroke="white" stroke-width="0.45"/>
<path d="M5.49362 9.63672C4.98046 9.63672 4.56445 10.057 4.56445 10.5754C4.56445 11.0938 4.98046 11.5141 5.49362 11.5141H6.94545C7.45861 11.5141 7.87461 11.0938 7.87461 10.5754C7.87461 10.057 7.45861 9.63672 6.94545 9.63672H5.49362Z" fill="#FF8926"/>
<path fill-rule="evenodd" clip-rule="evenodd" d="M13.4954 3.74407L11.8307 2.13909V6.63637C11.8307 7.12121 11.0585 7.12121 11.0585 6.63637V2.20597L9.49679 3.81094C9.23937 4.09516 8.77601 3.66048 9.03343 3.37626L11.2816 1.06911C11.3674 0.985513 11.539 0.968795 11.6248 1.06911L13.9416 3.29267C14.2162 3.56016 13.77 4.02828 13.4954 3.74407Z" fill="#FF8926" stroke="#FF8926" stroke-width="0.45"/>
</svg>
