<svg width="24" height="24" viewBox="0 0 24 24" fill="none" xmlns="http://www.w3.org/2000/svg">
<path d="M9 4.92853V10.0714C9 11.1709 10.9346 12 13.5 12C16.0654 12 18 11.1709 18 10.0714V4.92853C18 3.82906 16.0654 3 13.5 3C10.9346 3 9 3.82906 9 4.92853ZM13.5 3.77141C15.7153 3.77141 17.129 4.45672 17.129 4.92853C17.129 5.4004 15.7153 6.08571 13.5 6.08571C11.2848 6.08571 9.87099 5.4004 9.87099 4.92853C9.87099 4.45672 11.2848 3.77141 13.5 3.77141ZM9.87099 6.09751C10.6765 6.56496 11.9771 6.85713 13.5 6.85713C15.0229 6.85713 16.3235 6.56496 17.129 6.09751V7.49997C17.129 7.97184 15.7153 8.65712 13.5 8.65712C11.2848 8.65712 9.87099 7.97184 9.87099 7.49997V6.09751ZM9.87099 8.66895C10.6765 9.13639 11.9771 9.42856 13.5 9.42856C15.0229 9.42856 16.3235 9.13639 17.129 8.66895V10.0714C17.129 10.5433 15.7153 11.2286 13.5 11.2286C11.2848 11.2286 9.87099 10.5433 9.87099 10.0714V8.66895Z" fill="#FF8926" stroke="#FF8926" stroke-width="0.5"/>
<path d="M20.1718 6.62566C20.0721 6.48748 19.9641 6.35422 19.8484 6.22656L19.3083 6.69831C19.9564 7.41306 20.3133 8.33423 20.3133 9.29227C20.3133 11.4445 18.5297 13.1955 16.3373 13.1955H9.46987V11.1847C9.46987 11.0518 9.39423 10.93 9.27386 10.8692C9.15373 10.8084 9.00866 10.8188 8.89828 10.896L2.15132 15.6271C2.05635 15.6938 2 15.8013 2 15.9159C2 16.0305 2.05635 16.138 2.15132 16.2047L8.89828 20.9358C8.96077 20.9796 9.03443 21.0019 9.10843 21.0019C9.16504 21.0019 9.22171 20.9889 9.27386 20.9626C9.39423 20.9018 9.46987 20.78 9.46987 20.6471V18.6363H15.8611C17.5931 18.6363 19.1618 17.96 20.2786 16.7316C21.387 15.5127 21.9984 13.8029 22 11.9173C22.0016 9.96682 21.3185 7.99003 20.1718 6.62566ZM19.7394 16.2591C18.7615 17.3345 17.3844 17.9267 15.8607 17.9267H9.10843C8.90877 17.9267 8.74699 18.0855 8.74699 18.2815V19.9576L2.98327 15.9159L8.74699 11.8742V13.5503C8.74699 13.7463 8.90877 13.9051 9.10843 13.9051H16.3373C18.7405 13.9051 20.7283 12.1247 21.0035 9.83698C21.1825 10.5094 21.2777 11.2144 21.2771 11.9166C21.2756 13.6279 20.7295 15.1702 19.7394 16.2591Z" fill="#FF8926" stroke="#FF8926" stroke-width="0.75"/>
</svg>
