<svg width="159" height="135" viewBox="0 0 159 135" fill="none" xmlns="http://www.w3.org/2000/svg">
<path d="M79.0534 122.759C86.0189 119.54 100.526 106.853 104.155 101.175C107.785 95.4961 120.451 87.4373 122.302 86.8883C124.153 86.3393 142.449 83.534 143.585 84.8239C144.722 86.1139 138.372 97.0133 137.569 98.6093C136.767 100.205 130.513 110.483 130.513 110.483C130.513 110.483 118.205 120.261 117.613 120.392C117.02 120.522 101.694 124.251 100.933 124.419C100.171 124.586 79.0534 122.759 79.0534 122.759Z" fill="#BF804A"/>
<path d="M141.371 90.9607C132.034 67.4692 115.193 25.2119 110.752 14.4557C110.208 22.5174 109.48 46.2111 109.839 51.7259C110.132 56.212 110.035 77.9571 106.481 93.0875L104.978 92.7342C108.442 77.9906 108.577 56.0917 108.3 51.8264C108.068 48.2753 108.296 37.4497 108.561 29.2586C108.714 24.5485 108.893 20.18 109.066 16.9572C109.381 11.0989 109.477 11.0574 110.013 10.827L110.514 10.6117L110.903 11.0173C111.083 11.2117 111.329 11.4778 127.126 51.0357C134.908 70.5233 142.727 90.1942 142.805 90.3906L141.371 90.9607Z" fill="#016B83"/>
<path d="M110.418 13.7654C109.608 13.8337 109.362 13.1519 109.144 12.5504C109.012 12.1859 108.83 11.6502 108.601 10.958C108.149 9.59077 107.518 7.61815 106.777 5.25416C105.141 0.0300755 103.136 -6.56475 101.277 -12.839C98.2779 -22.9574 93.0754 -40.9453 91.9298 -47.7314L93.9374 -48.0702C95.8802 -36.5629 110.456 10.6619 111.209 12.2498C111.078 11.9731 110.652 11.6382 110.114 11.7566C110.112 11.7571 110.11 11.7575 110.108 11.7579L110.328 12.7301L111.356 12.7289L110.418 13.7654Z" fill="#016B83"/>
<path d="M98.5484 61.233C106.526 60.7648 110.257 62.669 112.771 64.9522C115.285 67.2353 120.087 74.0071 122.152 80.6983C124.217 87.3892 123.435 88.1372 125.695 89.8052C127.955 91.4733 126.858 95.088 127.858 96.4057C128.858 97.7234 129.652 102.635 127.764 105.653C125.877 108.671 124.915 108.291 118.709 103.743C112.502 99.1949 93.051 77.808 93.1001 77.3241C93.1493 76.8401 98.5484 61.233 98.5484 61.233Z" fill="#FF8926"/>
<path d="M99.3313 121.574C100.164 122.644 103.822 121.628 111.139 119.595C119.974 117.141 122.38 115.062 123.122 114.384C124.665 112.974 128.187 109.756 127.763 105.644C127.44 102.514 124.883 99.3892 122.035 98.5658C112.497 95.8084 96.4915 117.927 99.3313 121.574Z" fill="#844131"/>
<path d="M110.789 85.1632C111.71 83.519 113.812 74.2493 114.305 74.609C114.799 74.9688 117.992 85.4442 119.685 86.8902C121.379 88.3361 123.283 90.5385 123.373 92.557C123.462 94.5756 129.246 104.054 121.478 97.8515C111.439 89.8352 109.082 86.0751 109.082 86.0751L110.789 85.1632Z" fill="#ED7D2B"/>
<path d="M89.9694 65.3515C85.4394 65.4615 82.966 67.6594 80.0079 71.4172C77.0498 75.1751 76.1547 75.6086 74.5096 77.0355C72.8646 78.4623 73.5756 80.0801 72.0288 79.77C70.4819 79.46 68.7941 80.6596 66.4745 81.4068C64.1549 82.1541 58.8284 82.6762 58.8284 82.6762L60.1151 92.6843C60.1151 92.6843 62.0804 92.0742 63.7908 92.0525C65.5013 92.0308 70.654 91.2569 72.6848 90.5408C74.7155 89.8248 80.6569 85.861 81.8649 85.057C83.0729 84.253 85.6316 82.453 85.7882 82.3595C85.9449 82.266 94.4452 95.8909 95.4529 96.4378C96.4605 96.9848 103.02 74.6623 102.969 72.0121C102.918 69.3618 100.235 64.4096 99.7686 63.9123C99.3021 63.415 89.9694 65.3515 89.9694 65.3515Z" fill="#B5AD75"/>
<path d="M109.637 84.5634C115.733 87.5388 119.877 92.6594 120.796 93.3441C121.716 94.0289 122.582 93.5551 123.923 95.0513C126.649 98.0932 128.316 102.513 128.45 104.198C128.585 105.884 127.1 112.302 120.39 115.14C113.681 117.977 101.046 119.458 98.3359 118.28C95.6262 117.102 90.909 101.048 90.909 101.048L109.637 84.5634Z" fill="#AFC0D2"/>
<path opacity="0.13" d="M116.141 109.274C112.728 106.867 111.171 103.185 110.106 100.666C107.301 94.0346 108.775 90.3481 107.22 89.7085C104.742 88.6884 95.8741 95.9544 92.0093 104.573C93.5685 109.37 96.4416 117.457 98.3356 118.28C101.045 119.458 113.681 117.977 120.39 115.14C122.539 114.231 124.147 112.954 125.342 111.584C122.982 111.534 119.543 111.673 116.141 109.274Z" fill="#5F7AB0"/>
<path d="M89.9694 65.3515C85.4394 65.4615 82.966 67.6594 80.0079 71.4172C77.0498 75.1751 76.1547 75.6086 74.5096 77.0355C72.8646 78.4623 73.5756 80.0801 72.0288 79.77C70.4819 79.46 68.7941 80.6596 66.4745 81.4068C64.1549 82.1541 58.8284 82.6762 58.8284 82.6762L60.1151 92.6843C60.1151 92.6843 62.0804 92.0742 63.7908 92.0525C65.5013 92.0308 70.654 91.2569 72.6848 90.5408C74.7155 89.8248 80.6569 85.861 81.8649 85.057C83.0729 84.253 85.6316 82.453 85.7882 82.3595C85.9449 82.266 94.4452 95.8909 95.4529 96.4378C96.4605 96.9848 103.02 74.6623 102.969 72.0121C102.918 69.3618 100.235 64.4096 99.7686 63.9123C99.3021 63.415 89.9694 65.3515 89.9694 65.3515Z" fill="#F9892C"/>
<path d="M96.9053 94.6087C90.56 89.7953 80.8243 84.6288 77.928 85.1241C75.0317 85.6194 72.1082 91.8172 69.831 97.9965C67.554 104.176 67.2673 108.515 67.2673 108.515C67.2673 108.515 75.7321 111.905 76.3586 111.527C76.9851 111.149 82.8318 102.143 82.8318 102.143C82.8318 102.143 94.1347 115.756 94.8691 115.44C95.6036 115.123 100.614 100.002 100.391 98.9872C100.167 97.9717 96.9053 94.6087 96.9053 94.6087Z" fill="#96B0CD"/>
<path d="M106.144 104.701C108.314 98.9273 109.442 93.8904 109.559 91.7354C109.676 89.5805 108.385 86.4044 108.385 86.4044C108.385 86.4044 95.1048 91.901 95.0407 92.6841C94.9764 93.467 95.0194 102.944 95.0374 103.294C95.0554 103.645 97.5251 104.578 99.2404 104.742C101.687 104.975 105.771 105.692 106.144 104.701Z" fill="#AFC0D2"/>
<path d="M105.671 106.251C105.609 106.265 105.541 106.261 105.477 106.237C105.302 106.169 105.215 105.973 105.282 105.798C105.328 105.678 109.893 93.7538 108.945 89.3302C108.906 89.1476 109.022 88.9676 109.204 88.9275C109.204 88.9274 109.205 88.9273 109.206 88.9271C109.389 88.8877 109.569 89.0044 109.609 89.1877C110.599 93.8083 106.107 105.545 105.916 106.042C105.873 106.152 105.779 106.228 105.671 106.251Z" fill="#5F7AB0"/>
<path d="M95.1653 102.654C94.0814 103.628 93.5128 105.088 93.6867 105.877C93.8605 106.667 94.978 107.722 95.9425 108.338C96.907 108.954 102.995 110.838 103.564 110.445C104.133 110.052 105.558 109.829 106.142 108.99C106.726 108.152 107.265 105.177 106.463 104.538C103.446 102.132 95.9745 102.347 95.1653 102.654Z" fill="#D9ECF2"/>
<path d="M103.85 107.562C102.9 106.793 96.7811 106.124 96.3448 106.17C95.909 106.217 95.2584 106.396 94.3288 106.959C94.7773 107.475 95.383 107.98 95.9426 108.337C96.9072 108.953 102.995 110.837 103.564 110.445C103.975 110.161 104.829 109.963 105.493 109.56C105.37 109.196 104.797 108.33 103.85 107.562Z" fill="#5F7AB0"/>
<path d="M83.9034 113.829C85.65 112.951 89.3561 112.806 91.2223 113.223C93.0884 113.64 94.388 112.289 94.8233 110.774C95.2585 109.259 95.5458 106.534 95.7906 106.302C96.0353 106.071 100.754 105.742 102.688 106.736C104.622 107.73 104.544 108.989 104.544 108.989C104.544 108.989 103.354 111.912 103.327 112.864C103.3 113.817 103.693 114.795 103.29 115.652C102.888 116.51 102.468 116.484 102.566 117.468C102.665 118.452 103.836 121.624 103.164 122.6C102.492 123.576 98.6845 124.414 97.0013 123.957C95.3181 123.499 94.1624 121.743 92.9788 121.471C91.7953 121.199 88.8628 121.313 87.6126 119.932C86.3623 118.551 84.3469 117.457 83.7669 116.165C83.1872 114.873 83.4539 114.055 83.9034 113.829Z" fill="#FFB27D"/>
<path d="M97.2143 115.385C97.1096 115.408 96.9958 115.381 96.9111 115.303C96.8956 115.289 95.259 113.828 91.7722 113.368C91.5863 113.343 91.4557 113.173 91.48 112.987C91.5044 112.802 91.675 112.672 91.8607 112.695C95.5793 113.186 97.2998 114.738 97.3712 114.804C97.509 114.931 97.5179 115.145 97.3908 115.283C97.3416 115.337 97.2799 115.37 97.2143 115.385Z" fill="#E69B68"/>
<path opacity="0.32" d="M94.4236 117.019C94.3759 117.029 94.325 117.03 94.2742 117.018C94.2245 117.006 89.297 115.885 85.1847 116.79C85.1442 116.799 85.1041 116.809 85.064 116.817C84.8824 116.857 84.7021 116.744 84.6604 116.562C84.6182 116.379 84.7323 116.197 84.9148 116.155C84.9566 116.145 84.9994 116.136 85.0413 116.126C89.3039 115.188 94.2186 116.308 94.4276 116.357C94.6102 116.399 94.7238 116.581 94.6813 116.764C94.6509 116.896 94.5475 116.992 94.4236 117.019ZM102.339 122.95C102.172 122.987 102 122.893 101.945 122.727C101.94 122.714 101.446 121.322 99.8754 120.581C99.7059 120.501 99.6333 120.299 99.7131 120.13C99.7932 119.96 99.9953 119.887 100.165 119.967C102.007 120.836 102.565 122.443 102.588 122.511C102.648 122.688 102.552 122.881 102.374 122.94C102.363 122.945 102.351 122.948 102.339 122.95Z" fill="#E69B68"/>
<path d="M85.6281 84.5959C86.6581 83.9568 91.3261 82.5299 94.0838 81.7898C96.8416 81.0496 98.4568 79.3189 99.3783 79.0717C100.3 78.8245 100.034 77.8184 100.382 77.3867C100.731 76.9551 100.802 74.4555 101.078 72.4872C101.354 70.5189 101.676 67.3432 104.56 65.3329C107.444 63.3228 113.514 66.5112 114.302 69.487C115.09 72.463 114.049 76.1965 113.137 79.1035C112.224 82.0102 111.811 84.3635 110.007 86.047C108.205 87.7303 92.873 94.3517 91.922 94.1135C90.9709 93.8754 85.6281 84.5959 85.6281 84.5959Z" fill="#FF8926"/>
<path d="M59.6996 83.6779C62.061 89.2992 60.6603 92.4397 60.196 92.7489C59.7318 93.0582 57.0857 91.8703 56.4348 88.9971C55.7839 86.124 59.6996 83.6779 59.6996 83.6779Z" fill="#191919"/>
<path d="M82.561 102.785C82.5098 102.796 82.4535 102.783 82.4114 102.746C82.3415 102.683 82.3356 102.576 82.398 102.506C84.1288 100.572 84.7411 94.152 84.1809 92.4326C84.1518 92.3435 84.2006 92.2476 84.2897 92.2186C84.377 92.1883 84.4745 92.2383 84.5037 92.3274C85.0968 94.1487 84.4839 100.684 82.6508 102.732C82.6264 102.76 82.5947 102.778 82.561 102.785Z" fill="#5F7AB0"/>
<path d="M67.719 105.451C66.9579 106.846 66.3885 108.149 66.2097 108.747C66.0309 109.345 67.1363 111.142 67.4553 111.382C67.7743 111.623 74.0403 114.904 74.8585 114.789C75.6766 114.674 77.8005 111.829 78.1779 111.125C78.5552 110.421 78.5917 108.975 75.7102 107.17C72.838 105.37 67.9733 104.985 67.719 105.451Z" fill="#D9ECF2"/>
<path d="M76.0108 114.108C76.2914 113.478 76.3535 112.516 75.9012 111.525C75.3601 110.341 69.8213 108.358 69.0309 108.462C68.2406 108.565 66.9795 108.916 66.4777 109.859C66.788 110.531 67.2637 111.239 67.4558 111.384C67.7748 111.624 74.0408 114.905 74.859 114.79C75.1639 114.747 75.5842 114.472 76.0108 114.108Z" fill="#5F7AB0"/>
<path d="M89.0759 63.7131C89.5488 65.3242 90.4902 67.7193 90.4902 67.7193C90.4902 67.7193 91.239 72.4636 91.7384 73.3887C92.2377 74.3139 99.1027 66.0041 99.9455 64.1904C99.9455 64.1904 98.3115 58.1116 98.1703 56.6639C98.029 55.2164 89.0759 63.7131 89.0759 63.7131Z" fill="#FFB27D"/>
<path d="M89.0768 63.713C89.5498 65.3241 90.4912 67.7193 90.4912 67.7193C90.4912 67.7193 90.5808 68.2849 90.7172 69.0581C91.9949 68.2899 92.7935 67.7553 93.5374 67.0487C96.3656 64.3614 98.1519 60.1759 98.3034 57.4795C98.2379 57.1426 98.1901 56.859 98.1711 56.664C98.0298 55.2163 89.0768 63.713 89.0768 63.713Z" fill="#1A1A1A"/>
<path d="M100.17 49.9836C100.313 49.9465 100.371 48.8654 100.376 48.7387C100.405 48.0781 100.649 47.4145 100.76 46.7572C101.007 45.2876 101.059 43.785 100.91 42.302C100.942 42.7045 101.366 43.0294 101.763 42.9561C101.801 41.7853 101.12 40.6205 100.082 40.0779C100.517 40.0541 100.946 39.9515 101.344 39.7763C101.497 39.709 101.657 39.6183 101.718 39.4631C101.828 39.1861 101.567 38.907 101.315 38.7477C100.612 38.3025 99.7608 38.0963 98.9319 38.1703C98.9726 37.484 98.3662 36.948 97.7928 36.569C96.9626 36.0204 96.0673 35.5494 95.0999 35.3168C94.1324 35.0841 93.0839 35.1033 92.1732 35.504C91.9938 35.056 91.7322 34.6411 91.4057 34.2858C91.3002 34.1712 91.1684 34.0546 91.0127 34.0625C90.8048 34.0732 90.6747 34.3024 90.6562 34.5099C90.6046 35.0902 90.6571 35.2477 90.0108 35.0955C89.4892 34.9727 88.9538 34.9299 88.4189 34.9461C87.3252 34.9791 86.251 35.2438 85.2047 35.5462C84.3603 35.7901 83.5117 36.0604 82.7652 36.5243C82.3991 36.7518 82.062 37.0229 81.7292 37.2967C81.5114 37.4761 81.2848 37.6711 81.1952 37.9388C81.1088 38.1966 81.2056 38.5407 81.4841 38.6293C80.6544 38.9953 79.8457 39.6662 79.3273 40.4108C78.8372 41.1147 78.0941 43.0144 79.1641 43.5241C79.2812 43.5799 79.9124 43.7998 80.0326 43.6628C80.0326 43.6628 78.6001 45.3238 78.7563 47.8755C78.9126 50.4274 82.0418 54.6044 82.0418 54.6044C82.0418 54.6044 100.119 49.9969 100.17 49.9836Z" fill="#A9453D"/>
<path d="M80.5712 49.7942C81.4545 56.2239 83.1635 59.9219 85.4823 62.9671C88.3651 66.7527 90.1932 66.6337 92.2183 65.892C94.2434 65.1505 97.4803 62.2971 98.151 59.5272C98.8017 56.8407 99.2898 53.9534 99.433 54.3358C99.5764 54.7184 100.948 54.771 101.096 53.0235C101.243 51.2757 101.029 48.9572 100.164 48.7926C99.3001 48.6279 98.3167 48.7283 98.2962 49.4415C98.2758 50.1546 97.4147 48.3924 97.1415 47.1514C96.8683 45.9104 96.125 47.9076 92.9558 47.4814C89.7864 47.0554 90.4619 44.4817 87.6864 44.5013C84.911 44.521 84.3426 46.7753 83.8902 47.4073C83.4378 48.0392 81.9446 46.0921 81.1212 45.844C80.2976 45.5961 80.4296 48.7639 80.5712 49.7942Z" fill="#FFB27D"/>
<path d="M81.5385 50.0841C81.5854 49.9762 81.6397 49.8796 81.7029 49.8019C82.0916 49.3248 82.9447 49.6645 83.4014 49.8396C84.9963 50.4513 86.6281 51.0456 88.3326 51.1572C88.7189 51.1826 89.1758 51.1479 89.3851 50.8222C89.5353 50.5884 89.5221 50.2463 89.7495 50.0866C89.8802 49.9948 90.0531 49.9949 90.2121 50.0092C91.5465 50.1299 92.7798 50.9945 94.1136 50.8669C94.6136 50.8191 95.0902 50.6318 95.5395 50.407C95.9523 50.2006 96.8638 49.696 97.1694 50.2318C97.4786 50.7741 97.477 51.8111 97.5493 52.4267C97.6129 52.9681 97.6587 53.5286 97.9115 54.0116C97.957 54.0982 98.0203 54.1897 98.1166 54.2057C98.2794 54.2327 98.3822 54.0386 98.4259 53.8794C98.7006 52.8795 98.7802 51.8415 98.9838 50.8273C99.0552 50.4719 99.143 50.1214 99.2551 49.7769C99.2967 49.6492 99.299 49.5178 99.3411 49.3924C99.4009 49.2156 99.5138 49.0415 99.6168 48.8871C99.7388 48.704 99.8857 48.5121 99.8723 48.2925C99.8632 48.1418 99.7775 48.0059 99.6783 47.8919C99.3724 47.5402 98.9109 47.2657 98.5204 47.0163C98.1021 46.7493 97.7869 46.3075 97.4463 45.9449C96.8248 45.2829 96.193 44.6299 95.5491 43.9895L82.3806 44.4578C81.9643 45.4392 80.1836 45.1254 79.7659 46.1063C79.5393 46.6385 80.4521 48.4038 80.4648 49.0012C80.4741 49.439 80.6439 52.8759 80.9333 52.1427C80.9994 51.788 81.3627 50.4882 81.5385 50.0841Z" fill="#A9453D"/>
<path d="M87.4366 38.2824C87.7703 37.7845 88.0802 37.3508 88.7541 37.3843C89.4048 37.4166 89.8383 37.8814 90.1606 38.398C90.0517 38.2233 91.8215 37.7777 91.9823 37.7673C92.3226 37.7455 93.5144 37.6858 93.4785 38.2757C92.3681 38.2296 91.2465 38.4993 90.2782 39.0448C90.1891 39.095 90.0932 39.1493 89.9915 39.1387C89.9102 39.13 89.8389 39.0806 89.778 39.0258C89.5614 38.8307 89.4338 38.5582 89.257 38.3262C89.0805 38.0944 88.8123 37.8895 88.5238 37.9311C88.108 37.9911 87.9351 38.4862 87.8471 38.897C86.9997 38.4687 85.9919 38.3679 85.0767 38.6199C85.328 38.2797 85.7639 38.1158 86.1865 38.0951C86.6091 38.0749 87.0264 38.179 87.4366 38.2824Z" fill="#1A1A1A"/>
<path d="M94.9744 52.6217C94.9265 52.6322 94.8756 52.6326 94.8247 52.6209C94.814 52.6182 93.7593 52.3767 92.2602 52.3372C92.0726 52.332 91.9248 52.1761 91.9297 51.9889C91.9348 51.8014 92.0924 51.6557 92.2779 51.6584C93.8515 51.7003 94.9337 51.9491 94.979 51.9596C95.1615 52.0025 95.2747 52.1846 95.2322 52.3673C95.2016 52.4987 95.0981 52.5945 94.9744 52.6217ZM82.3911 55.1038C82.2867 55.1267 82.1727 55.1003 82.0881 55.0222C81.95 54.8956 81.941 54.681 82.068 54.5428C82.1055 54.5019 83.0109 53.5259 84.8024 52.3268C84.9577 52.2227 85.1692 52.2644 85.2732 52.4203C85.3774 52.5761 85.3355 52.7867 85.1797 52.8911C83.455 54.0453 82.576 54.9929 82.5673 55.0021C82.5187 55.0552 82.4568 55.0893 82.3911 55.1038Z" fill="#A9453D"/>
<path d="M85.3745 55.5627C85.2794 55.1304 84.8991 54.8468 84.5252 54.9291C84.1514 55.0114 83.9254 55.4286 84.0206 55.8608C84.1157 56.2931 84.4961 56.5769 84.8699 56.4946C85.2439 56.412 85.4697 55.995 85.3745 55.5627ZM93.8013 54.347C93.7061 53.9147 93.3258 53.6309 92.9519 53.7132C92.5781 53.7955 92.3521 54.2128 92.4473 54.6451C92.5424 55.0772 92.9228 55.361 93.2966 55.2787C93.6706 55.1962 93.8964 54.7789 93.8013 54.347Z" fill="#1A1A1A"/>
<path d="M87.6039 60.7852C89.3877 61.6346 92.4779 60.0078 92.4779 60.0078C92.4779 60.0078 92.4377 62.3233 90.8514 62.9092C89.2652 63.4951 87.6039 60.7852 87.6039 60.7852Z" fill="white"/>
<path d="M89.6114 58.9707C89.1909 59.0633 88.7473 59.0683 88.3724 58.8674C88.2485 58.8007 88.2018 58.6465 88.2683 58.5228C88.3346 58.3988 88.4894 58.3524 88.6129 58.4187C89.271 58.7714 90.4378 58.1539 90.8317 57.8862C90.9477 57.8074 91.1062 57.8375 91.1852 57.9536C91.2641 58.0699 91.234 58.228 91.1179 58.3071C91.0736 58.337 90.3818 58.8011 89.6114 58.9707Z" fill="#943B16"/>
<path d="M67.2157 109.22C66.61 112.103 66.7369 113.762 65.4823 114.511C64.2278 115.26 59.1027 118.577 58.0127 118.462C56.9227 118.347 55.0644 117.16 54.0547 117.678C53.045 118.196 53.7244 119.939 54.231 120.359C54.7378 120.78 59.9794 121.754 61.0447 121.757C62.1099 121.76 65.5313 121.719 66.9341 121.912C68.3368 122.104 71.1407 123.557 72.551 123.246C73.9612 122.936 73.6788 120.041 73.8702 118.224C74.0618 116.408 75.5089 113.309 75.881 112.044C76.2531 110.78 73.8045 109.396 72.4461 108.867C71.0877 108.338 67.4387 108.159 67.2157 109.22Z" fill="#FFB27D"/>
<path d="M84.1023 98.9575C84.0508 98.9689 83.9946 98.956 83.9523 98.918C83.8824 98.8556 83.8765 98.7482 83.9393 98.6786C83.956 98.6597 85.6205 96.7737 85.9717 94.0762C85.9839 93.9831 86.0682 93.9174 86.1618 93.9296C86.2548 93.9418 86.3201 94.0268 86.3083 94.1197C85.9431 96.9258 84.2629 98.8255 84.1917 98.9052C84.1673 98.9325 84.1359 98.9501 84.1023 98.9575Z" fill="#5F7AB0"/>
<path d="M75.4105 106.212C75.3292 106.23 75.2413 106.218 75.1641 106.172C75.003 106.076 74.9501 105.868 75.0459 105.707C76.003 104.097 80.9484 95.0922 80.9982 95.0011C81.0882 94.8364 81.2948 94.7769 81.4588 94.8671C81.6233 94.9571 81.6834 95.1636 81.5929 95.3277C81.543 95.4187 76.5919 104.434 75.6291 106.054C75.5793 106.138 75.4988 106.192 75.4105 106.212ZM94.3891 100.354C94.2799 100.378 94.1613 100.348 94.0762 100.263C94.0448 100.231 90.8811 97.0929 87.4457 94.8057C87.2895 94.7018 87.2473 94.4912 87.3513 94.3354C87.4549 94.1793 87.6658 94.137 87.8216 94.241C91.3142 96.5659 94.5234 99.7504 94.5555 99.7823C94.6879 99.9146 94.6886 100.129 94.5563 100.262C94.5087 100.31 94.4505 100.34 94.3891 100.354Z" fill="#AFC0D2"/>
<path d="M42.3376 121.417C42.6851 125.004 67.841 126.652 76.0957 126.964C84.3504 127.275 104.863 125.741 108.954 124.6C113.046 123.46 97.5879 124.539 95.9631 124.009C94.3383 123.48 80.8976 119.652 80.8976 119.652L75.8331 119.214L42.3376 121.417Z" fill="#BF804A"/>
<path d="M111.405 84.5232C111.361 84.533 111.314 84.5312 111.268 84.5155C111.134 84.4693 111.064 84.3244 111.11 84.1917C111.128 84.1402 112.903 78.9982 113.666 76.3533C114.443 73.6619 114.615 70.045 113.439 68.3396C113.359 68.2238 113.388 68.0656 113.504 67.9856C113.619 67.9063 113.778 67.9347 113.858 68.0508C115.182 69.9717 114.94 73.7744 114.156 76.4943C113.388 79.1519 111.609 84.3057 111.591 84.3575C111.561 84.4446 111.489 84.5048 111.405 84.5232ZM101.825 69.3815C101.775 69.3926 101.72 69.3887 101.669 69.3664C101.54 69.3103 101.481 69.1604 101.537 69.0315C103.28 65.0249 106.576 64.3325 107.219 64.2365C107.358 64.2153 107.487 64.3107 107.508 64.4497C107.53 64.589 107.432 64.7271 107.295 64.7394C106.699 64.8301 103.641 65.4726 102.004 69.2342C101.97 69.3123 101.902 69.3645 101.825 69.3815ZM122.738 89.6719C122.621 89.6976 122.499 89.6381 122.45 89.5246C122.018 88.5282 121.45 88.1536 120.419 87.4739C120.032 87.2188 119.594 86.9299 119.082 86.5543C117.767 85.5885 117.27 83.9674 116.447 81.2817C116.053 79.9941 115.561 78.3913 114.866 76.5339C114.817 76.4022 114.883 76.2557 115.015 76.2062C115.144 76.1577 115.294 76.2237 115.343 76.3555C116.044 78.2271 116.537 79.8381 116.934 81.1323C117.726 83.7179 118.204 85.278 119.383 86.1438C119.884 86.5118 120.317 86.7972 120.699 87.0487C121.739 87.7339 122.425 88.1863 122.917 89.322C122.973 89.4511 122.914 89.6009 122.785 89.6568C122.769 89.6635 122.753 89.6684 122.738 89.6719Z" fill="#D16D23"/>
<path d="M86.042 83.3802C85.9178 83.4076 85.79 83.3383 85.7472 83.2152C84.4228 79.4041 83.4632 72.8683 83.4537 72.8026C83.4334 72.6636 83.5283 72.5333 83.6691 72.5141C83.8079 72.4939 83.9372 72.5901 83.9575 72.7295C83.9669 72.7945 84.9199 79.283 86.2281 83.0484C86.2743 83.1809 86.2043 83.326 86.0713 83.3721C86.0614 83.3754 86.0515 83.3782 86.042 83.3802Z" fill="white"/>
<path d="M75.0815 84.504C75.0772 84.5049 75.0732 84.5058 75.0687 84.5064C74.9302 84.5296 74.7988 84.4361 74.7756 84.2976C74.7699 84.265 74.2042 81.011 72.3801 79.5927C72.2691 79.5063 72.2491 79.3463 72.3353 79.2356C72.4217 79.1245 72.5814 79.1046 72.6924 79.1908C74.6744 80.7321 75.2538 84.072 75.2773 84.2133C75.3001 84.3479 75.2131 84.475 75.0815 84.504ZM76.7766 82.5339C76.6553 82.5607 76.5294 82.4948 76.4842 82.375C76.4785 82.3604 75.9012 80.8777 74.0048 79.2237C73.8991 79.1314 73.8882 78.9705 73.9804 78.8646C74.0733 78.7584 74.2335 78.7476 74.3397 78.8402C76.3415 80.5861 76.9363 82.1315 76.9607 82.1962C77.0098 82.3279 76.9435 82.4739 76.812 82.5237C76.8001 82.5278 76.7885 82.5313 76.7766 82.5339ZM92.3896 82.527C92.2648 82.5545 92.1365 82.4845 92.0943 82.3605C92.0491 82.2274 92.12 82.0827 92.2531 82.0375C96.5963 80.5601 99.0026 79.4832 99.4052 78.838C100.021 77.8504 100.385 76.7053 100.518 75.3372C100.68 73.6759 100.935 71.6717 100.938 71.6516C100.955 71.5123 101.084 71.4141 101.222 71.4315C101.362 71.449 101.46 71.5765 101.442 71.7162C101.44 71.736 101.186 73.7329 101.025 75.3866C100.884 76.8346 100.495 78.0517 99.8373 79.1071C99.3512 79.8865 97.0629 80.9391 92.4173 82.5194C92.4081 82.5226 92.3988 82.525 92.3896 82.527ZM105.349 82.3355C105.234 82.3607 105.113 82.3037 105.063 82.1926C105.054 82.173 104.07 80.1303 100.543 79.0936C100.408 79.0537 100.331 78.9124 100.37 78.7774C100.41 78.6429 100.551 78.566 100.687 78.605C104.454 79.7126 105.484 81.8895 105.526 81.9815C105.584 82.1093 105.528 82.2602 105.4 82.3185C105.383 82.326 105.366 82.3317 105.349 82.3355ZM102.623 82.9357C102.511 82.9603 102.392 82.9064 102.34 82.7987C102.332 82.7845 101.626 81.3541 100.572 80.645C100.455 80.5664 100.425 80.4081 100.503 80.2917C100.582 80.1752 100.739 80.144 100.856 80.2226C102.025 81.0095 102.766 82.5121 102.797 82.5757C102.859 82.702 102.806 82.8542 102.68 82.9158C102.661 82.9247 102.642 82.9314 102.623 82.9357Z" fill="#D16D23"/>
<path d="M103.421 102.657C103.362 102.67 103.299 102.667 103.238 102.646C103.06 102.585 102.966 102.392 103.027 102.215C104.596 97.6441 105.277 89.4003 105.284 89.3178C105.299 89.1315 105.462 88.9915 105.649 89.0069C105.836 89.022 105.975 89.1857 105.96 89.3727C105.933 89.714 105.265 97.7844 103.669 102.436C103.629 102.552 103.532 102.632 103.421 102.657ZM125.504 102.236C125.481 102.241 125.458 102.244 125.434 102.244C125.339 102.246 123.058 102.261 121.019 101.253C120.042 100.769 119.229 99.6721 117.998 98.0117C116.554 96.0635 114.577 93.3954 111.161 90.115C111.025 89.9853 111.021 89.7702 111.151 89.6352C111.281 89.5001 111.496 89.4959 111.63 89.6255C115.088 92.9455 117.085 95.6399 118.544 97.6078C119.715 99.1887 120.489 100.233 121.32 100.644C123.209 101.579 125.405 101.566 125.427 101.566C125.614 101.564 125.768 101.714 125.77 101.901C125.772 102.065 125.657 102.203 125.504 102.236Z" fill="#C7D7E5"/>
<path d="M85.0976 121.551L83.5682 121.759C82.0514 110.634 78.7748 88.7278 77.23 85.4523C75.3738 81.517 68.178 62.7069 62.3965 47.5928C60.0877 41.5575 57.866 35.7493 56.5799 32.4594C55.956 42.3193 54.7752 74.0695 54.7625 80.6353C54.7545 85.1302 53.2038 106.819 48.6444 121.679L47.169 121.227C51.6117 106.745 53.2115 84.9066 53.2191 80.6327C53.2252 77.4334 53.6206 64.8326 54.1006 52.5424C54.3547 46.0357 54.5986 40.4701 54.8061 36.4474C55.1995 28.8281 55.237 28.8147 55.8628 28.5938L56.3769 28.4127L56.7324 28.8417C56.9563 29.1183 57.593 30.7171 63.8376 47.0414C69.3056 61.3351 76.7939 80.9113 78.6254 84.7944C80.657 89.1002 84.9171 120.228 85.0976 121.551Z" fill="#016B83"/>
<path d="M108.953 124.598C107.197 124.985 105.385 125.253 103.528 125.384C94.1622 126.04 86.3902 123.121 81.7466 121.377C80.18 120.788 78.8269 120.28 78.179 120.221C75.287 119.959 57.0641 120.823 43.4397 122.75C42.8828 122.829 42.3679 122.441 42.289 121.884C42.2102 121.327 42.5927 120.814 43.1544 120.733C56.9092 118.789 75.4047 117.924 78.3629 118.193C79.2851 118.278 80.6179 118.778 82.4624 119.471C86.9507 121.157 94.4627 123.978 103.385 123.352C115.931 122.475 126.274 114.947 130.959 107.878C135.896 100.432 142.097 87.821 142.768 85.54C142.927 85.0015 143.493 84.693 144.032 84.851C144.572 85.0098 144.88 85.5759 144.721 86.1157C144.041 88.4265 137.885 101.116 132.656 109.003C128.391 115.438 119.713 122.229 108.953 124.598Z" fill="#D89664"/>
<path d="M89.4533 87.1153C91.7029 90.5732 91.8982 91.0551 92.1444 92.3076C92.3905 93.5601 92.0715 94.2219 91.5299 94.3457C90.6101 94.5559 88.0744 91.9376 86.7997 90.1777C85.5251 88.4178 89.4533 87.1153 89.4533 87.1153Z" fill="#191919"/>
<path d="M86.9071 84.6559C83.8278 84.6028 81.6373 83.9233 80.078 83.5568C78.5187 83.1903 77.9421 83.2582 77.1209 83.5573C76.2995 83.8563 75.5235 84.6298 75.0317 85.6196C74.5398 86.6096 75.6887 88.6041 75.6887 88.6041C75.6887 88.6041 75.4425 89.5455 75.7729 90.419C76.1032 91.2926 76.654 91.6446 76.654 91.6446C76.654 91.6446 76.2456 92.2077 76.8325 93.2614C77.4194 94.3151 78.3287 93.8783 78.3287 93.8783C78.3287 93.8783 78.3898 94.6928 79.0093 95.0888C79.6288 95.4847 83.0291 93.1983 83.53 93.3245C84.0309 93.4509 85.1648 93.497 86.2998 93.0104C87.4348 92.5239 87.805 91.3187 88.3605 91.2556C88.916 91.1925 91.5721 91.4358 91.8293 91.2609C92.0863 91.0861 88.3256 84.6801 86.9071 84.6559Z" fill="#FFB27D"/>
<path d="M75.7615 88.9347C75.6668 88.9555 75.5639 88.9358 75.4809 88.8719C75.3327 88.7575 75.3052 88.5442 75.4196 88.3958L75.6172 88.1392C76.3081 87.2397 76.6234 86.8293 77.3885 86.4164C78.1223 86.0205 79.7847 85.8542 79.9719 85.8369C80.1583 85.8194 80.3236 85.9562 80.3412 86.1428C80.3587 86.3292 80.2213 86.491 80.0355 86.5127C79.5647 86.5565 78.229 86.7337 77.7107 87.0136C77.0733 87.3577 76.8234 87.683 76.1552 88.5527L75.9566 88.8109C75.9064 88.8762 75.8364 88.9182 75.7615 88.9347ZM76.7268 91.9752C76.6319 91.9961 76.5292 91.9763 76.4464 91.9128C76.298 91.7982 76.2702 91.5853 76.3846 91.4369C77.3022 90.2466 77.7709 89.8498 78.4173 89.4559C79.0631 89.0618 81.1044 88.4632 81.3348 88.3959C81.5131 88.352 81.7034 88.4475 81.7555 88.6272C81.8078 88.8073 81.7042 88.9953 81.5242 89.0477C80.9215 89.2228 79.252 89.7415 78.7706 90.035C78.1971 90.3846 77.7742 90.7455 76.9224 91.851C76.8717 91.9168 76.8019 91.9587 76.7268 91.9752ZM78.3298 94.3874C78.2149 94.4127 78.0896 94.3774 78.005 94.2837C77.8793 94.1448 77.8899 93.9301 78.0288 93.8044C79.1704 92.7707 80.0408 91.9984 80.8487 91.4741C81.665 90.9444 83.0231 90.6194 83.0805 90.606C83.0824 90.6056 83.084 90.6053 83.0858 90.6049C83.2665 90.5651 83.4462 90.6774 83.489 90.858C83.5322 91.0405 83.4193 91.2233 83.237 91.2665C83.224 91.2697 81.935 91.5785 81.2181 92.0435C80.4527 92.5402 79.6021 93.2951 78.4843 94.3075C78.4391 94.3486 78.3857 94.3751 78.3298 94.3874Z" fill="#E69B68"/>
<path d="M55.0577 81.9351C53.5926 81.4593 53.3375 80.569 52.2255 80.4885C51.1135 80.408 50.2557 81.7502 50.1668 82.4203C50.0776 83.0905 49.5791 83.3777 49.4427 84.2358C49.3063 85.0938 49.9569 85.6308 49.8898 86.2665C49.8227 86.9023 50.244 88.0517 50.3456 88.8277C50.4471 89.6038 51.7438 91.3293 52.9374 91.2439C54.1311 91.1586 56.5966 89.4625 56.7219 89.4941C56.8471 89.5258 57.6708 89.6401 58.2907 89.7697C58.9106 89.8993 60.1006 90.1993 60.3543 90.1434C60.6081 90.0875 61.2376 88.6478 60.6753 86.2283C60.1131 83.8088 59.1721 82.8922 58.8278 82.6723C58.4837 82.4524 58.1486 82.408 57.5499 81.0314C56.9512 79.655 56.5001 78.0094 55.633 77.6976C54.7659 77.3857 54.4795 78.0994 54.4463 79.0235C54.4133 79.9478 55.0577 81.9351 55.0577 81.9351Z" fill="#FFB27D"/>
<path d="M56.7331 89.0071C56.7322 89.0073 56.7311 89.0075 56.7302 89.0077C56.5937 89.0361 56.4604 88.9521 56.4305 88.8161C56.4103 88.7244 56.406 88.5649 56.3979 88.1805C56.3672 86.7337 56.286 82.8908 54.6416 81.7257C54.5267 81.6443 54.4998 81.4856 54.5809 81.3709C54.6621 81.2563 54.8211 81.2292 54.9358 81.3101C56.7899 82.6237 56.8719 86.5098 56.9069 88.1697C56.9119 88.4075 56.9172 88.6531 56.9277 88.7076C56.9541 88.8431 56.8677 88.9775 56.7331 89.0071ZM58.485 90.0458C58.3832 90.0682 58.2739 90.0262 58.215 89.9329C58.1399 89.814 58.1756 89.657 58.2945 89.5817C59.3609 88.9086 59.9178 87.447 59.9233 87.4324C59.9725 87.3011 60.1197 87.2339 60.2507 87.2832C60.3823 87.3323 60.449 87.4786 60.4001 87.6101C60.3753 87.6765 59.7797 89.2458 58.5659 90.0123C58.5404 90.0284 58.5131 90.0396 58.485 90.0458Z" fill="#E69B68"/>
<path d="M56.2222 84.1228C56.2145 84.1245 56.207 84.1257 56.1992 84.1269C53.6821 84.4465 52.7206 84.4507 51.9121 84.1455C51.7806 84.0957 51.7144 83.9489 51.7638 83.8173C51.8135 83.6858 51.9603 83.6193 52.092 83.669C52.7998 83.9367 53.7445 83.9254 56.1348 83.6219C56.2744 83.6044 56.4016 83.703 56.4194 83.8423C56.4364 83.974 56.3493 84.0948 56.2222 84.1228ZM54.63 86.477C53.4252 86.7422 52.5387 86.78 51.9833 86.5885C51.8506 86.5426 51.7799 86.3977 51.8256 86.2646C51.8715 86.1319 52.0166 86.0616 52.1495 86.107C52.6416 86.2768 53.7839 86.3019 56.4278 85.4532C56.5622 85.414 56.7048 85.4841 56.748 85.6178C56.7909 85.7518 56.7172 85.8949 56.5834 85.9381C55.8601 86.1699 55.2082 86.3497 54.63 86.477ZM52.8526 89.1681C52.4243 89.2624 52.1083 89.3079 51.9658 89.2846C51.827 89.2617 51.7331 89.1309 51.7557 88.9922C51.7788 88.8532 51.9087 88.7597 52.0481 88.7821C52.2987 88.815 54.04 88.3991 56.5274 87.5614C56.6574 87.5156 56.8051 87.5881 56.8498 87.7213C56.8946 87.8545 56.823 87.9989 56.6898 88.0436C55.3102 88.5084 53.8045 88.9585 52.8526 89.1681Z" fill="#E69B68"/>
<path d="M55.5231 31.2906C55.0851 29.6859 44.7821 -8.14486 43.5474 -19.7876L45.572 -20.0024C46.7899 -8.52213 57.3806 30.3632 57.4873 30.7546L55.5231 31.2906Z" fill="#016B83"/>
<path d="M151.85 86.1036C151.807 86.1131 151.762 86.1185 151.716 86.1193C151.341 86.1258 151.032 85.8273 151.025 85.4527C151.024 85.4294 150.833 82.3145 145.434 79.8248C145.094 79.6679 144.945 79.2647 145.102 78.9241C145.259 78.5842 145.662 78.4348 146.002 78.5924C152.242 81.4699 152.38 85.2689 152.382 85.4291C152.388 85.7573 152.159 86.0356 151.85 86.1036ZM36.7898 127.112C36.5778 127.158 36.3477 127.103 36.1781 126.942C36.126 126.893 31.0424 121.925 36.2549 113.988C36.4609 113.675 36.8812 113.588 37.195 113.793C37.5081 113.999 37.5954 114.42 37.3897 114.733C32.8201 121.691 36.9365 125.787 37.1138 125.959C37.3829 126.218 37.3929 126.647 37.1346 126.917C37.0379 127.019 36.917 127.084 36.7898 127.112Z" fill="#739AC7"/>
</svg>
