<svg width="22" height="21" viewBox="0 0 22 21" fill="none" xmlns="http://www.w3.org/2000/svg">
<path d="M11.8207 0.0246359C10.0352 -0.0961334 8.24734 0.22861 6.63813 0.966051C5.02882 1.70349 3.65516 2.82746 2.65582 4.22428C1.65658 5.62114 1.06729 7.24136 0.947479 8.92108C0.936987 9.07888 0.996232 9.23385 1.11122 9.34923C1.22621 9.46461 1.38681 9.53025 1.55495 9.53059C1.72415 9.52973 1.88662 9.46856 2.00973 9.35944C2.13283 9.25031 2.20739 9.10132 2.2183 8.9426C2.38708 6.80149 3.42472 4.80351 5.11657 3.3619C6.80833 1.92025 9.02456 1.14552 11.3069 1.19789C13.5892 1.25025 15.7626 2.12582 17.3776 3.64329C18.9925 5.16076 19.9252 7.20411 19.9827 9.35044C20.0403 11.4966 19.2182 13.5816 17.6866 15.1738C16.155 16.7659 14.0311 17.7433 11.7545 17.9038C11.5809 17.9152 11.4184 17.9878 11.2992 18.107C11.18 18.2261 11.113 18.3831 11.1114 18.5467C11.1119 18.7007 11.1797 18.8476 11.299 18.953C11.4182 19.0584 11.5784 19.1129 11.7418 19.1037C14.3152 18.9508 16.7308 17.884 18.4993 16.1193C20.2679 14.3545 21.2574 12.0238 21.2674 9.59894C21.2774 7.17409 20.3073 4.83613 18.5534 3.05858C16.7995 1.28103 14.3928 0.196585 11.8208 0.0248245L11.8207 0.0246359Z" fill="#FF8926"/>
<path d="M14.3416 3.02485C8.94315 0.899907 3.76329 4.41119 3.47858 9.15097C3.47082 9.24885 3.50663 9.34534 3.57748 9.41743C3.64834 9.48946 3.7478 9.53064 3.85216 9.53103H4.31989C4.42858 9.53024 4.53315 9.4913 4.61303 9.42197C4.6929 9.35257 4.74243 9.25766 4.75194 9.15576C5.03913 5.1401 9.54037 2.22405 14.1308 4.25335C15.272 4.7605 16.1921 5.62253 16.7359 6.69386C18.9421 11.0943 15.6811 15.4016 11.2968 15.5378C11.194 15.5416 11.1125 15.6204 11.1112 15.7171V16.3027C11.0955 16.4135 11.1324 16.5253 11.2122 16.6083C11.292 16.6911 11.4067 16.7368 11.5255 16.733C16.5784 16.4653 20.3172 11.5724 18.0245 6.48359C17.3238 4.923 16.002 3.68171 14.3416 3.02498L14.3416 3.02485Z" fill="#FF8926"/>
<path d="M9.97497 9.54313L3.78092 10.994C3.42768 11.0824 3.1505 11.3399 3.0523 11.6711C2.9541 12.0022 3.0495 12.3575 3.30306 12.605L4.73148 13.9292L0.382637 18.0786C0.04851 18.3984 -0.0788557 18.8615 0.0485816 19.2936C0.175953 19.7257 0.538831 20.061 1.00039 20.1732C1.46196 20.2855 1.95221 20.1576 2.28633 19.8378L6.63517 15.6716L8.06359 16.9982V16.9982C8.23685 17.1629 8.46773 17.2628 8.71338 17.2794C8.95904 17.296 9.20279 17.2282 9.39928 17.0885C9.59576 16.9489 9.73172 16.747 9.7818 16.5201L11.2127 10.688C11.2945 10.363 11.19 10.0214 10.9371 9.78688C10.6841 9.55238 10.3193 9.4591 9.97492 9.54074L9.97497 9.54313Z" fill="#FF8926"/>
</svg>
