<svg width="77" height="29" viewBox="0 0 77 29" fill="none" xmlns="http://www.w3.org/2000/svg">
<path d="M3.0099 23.4901V5.5099H20.9901V23.4901H3.0099Z" stroke="white" stroke-width="6.0198"/>
<path d="M33.896 10.144C33.896 10.472 33.952 10.752 34.064 10.984C34.176 11.216 34.332 11.408 34.532 11.56C34.732 11.704 34.96 11.812 35.216 11.884C35.48 11.948 35.764 11.98 36.068 11.98C36.396 11.98 36.676 11.944 36.908 11.872C37.14 11.792 37.328 11.692 37.472 11.572C37.616 11.452 37.72 11.316 37.784 11.164C37.848 11.004 37.88 10.844 37.88 10.684C37.88 10.356 37.804 10.116 37.652 9.964C37.508 9.804 37.348 9.692 37.172 9.628C36.868 9.516 36.512 9.412 36.104 9.316C35.704 9.212 35.208 9.08 34.616 8.92C34.248 8.824 33.94 8.7 33.692 8.548C33.452 8.388 33.26 8.212 33.116 8.02C32.972 7.828 32.868 7.624 32.804 7.408C32.748 7.192 32.72 6.972 32.72 6.748C32.72 6.316 32.808 5.944 32.984 5.632C33.168 5.312 33.408 5.048 33.704 4.84C34 4.632 34.336 4.48 34.712 4.384C35.088 4.28 35.468 4.228 35.852 4.228C36.3 4.228 36.72 4.288 37.112 4.408C37.512 4.52 37.86 4.692 38.156 4.924C38.46 5.156 38.7 5.444 38.876 5.788C39.052 6.124 39.14 6.516 39.14 6.964H37.64C37.6 6.412 37.412 6.024 37.076 5.8C36.74 5.568 36.312 5.452 35.792 5.452C35.616 5.452 35.436 5.472 35.252 5.512C35.068 5.544 34.9 5.604 34.748 5.692C34.596 5.772 34.468 5.884 34.364 6.028C34.268 6.172 34.22 6.352 34.22 6.568C34.22 6.872 34.312 7.112 34.496 7.288C34.688 7.456 34.936 7.584 35.24 7.672C35.272 7.68 35.396 7.716 35.612 7.78C35.836 7.836 36.084 7.9 36.356 7.972C36.628 8.044 36.892 8.116 37.148 8.188C37.412 8.252 37.6 8.3 37.712 8.332C37.992 8.42 38.236 8.54 38.444 8.692C38.652 8.844 38.824 9.02 38.96 9.22C39.104 9.412 39.208 9.62 39.272 9.844C39.344 10.068 39.38 10.292 39.38 10.516C39.38 10.996 39.28 11.408 39.08 11.752C38.888 12.088 38.632 12.364 38.312 12.58C37.992 12.796 37.628 12.952 37.22 13.048C36.812 13.152 36.396 13.204 35.972 13.204C35.484 13.204 35.024 13.144 34.592 13.024C34.16 12.904 33.784 12.72 33.464 12.472C33.144 12.224 32.888 11.908 32.696 11.524C32.504 11.132 32.404 10.672 32.396 10.144H33.896ZM40.6693 4.432H42.7812L45.1453 11.14H45.1693L47.4733 4.432H49.5613V13H48.1333V6.388H48.1093L45.7333 13H44.4973L42.1213 6.388H42.0973V13H40.6693V4.432ZM53.6493 4.432H55.2453L58.5453 13H56.9373L56.1333 10.732H52.7133L51.9093 13H50.3613L53.6493 4.432ZM53.1213 9.592H55.7373L54.4533 5.908H54.4173L53.1213 9.592ZM59.3612 4.432H63.4532C64.3972 4.432 65.1052 4.636 65.5772 5.044C66.0492 5.452 66.2852 6.02 66.2852 6.748C66.2852 7.156 66.2252 7.496 66.1052 7.768C65.9852 8.032 65.8452 8.248 65.6852 8.416C65.5252 8.576 65.3652 8.692 65.2052 8.764C65.0532 8.836 64.9412 8.884 64.8692 8.908V8.932C64.9972 8.948 65.1332 8.988 65.2772 9.052C65.4292 9.116 65.5692 9.22 65.6972 9.364C65.8252 9.5 65.9292 9.68 66.0092 9.904C66.0972 10.128 66.1412 10.408 66.1412 10.744C66.1412 11.248 66.1772 11.708 66.2492 12.124C66.3292 12.532 66.4492 12.824 66.6092 13H65.0012C64.8892 12.816 64.8212 12.612 64.7972 12.388C64.7812 12.164 64.7732 11.948 64.7732 11.74C64.7732 11.348 64.7492 11.012 64.7012 10.732C64.6532 10.444 64.5652 10.208 64.4372 10.024C64.3092 9.832 64.1332 9.692 63.9092 9.604C63.6932 9.516 63.4132 9.472 63.0692 9.472H60.8612V13H59.3612V4.432ZM60.8612 8.332H63.3212C63.8012 8.332 64.1652 8.22 64.4132 7.996C64.6612 7.764 64.7852 7.42 64.7852 6.964C64.7852 6.692 64.7452 6.472 64.6652 6.304C64.5852 6.128 64.4732 5.992 64.3292 5.896C64.1932 5.8 64.0332 5.736 63.8492 5.704C63.6732 5.672 63.4892 5.656 63.2972 5.656H60.8612V8.332ZM66.7835 4.432H73.7195V5.728H70.9955V13H69.4955V5.728H66.7835V4.432Z" fill="white"/>
<path d="M34.412 22.02H36.86C37.22 22.02 37.52 21.92 37.76 21.72C38 21.512 38.12 21.216 38.12 20.832C38.12 20.4 38.012 20.096 37.796 19.92C37.58 19.744 37.268 19.656 36.86 19.656H34.412V22.02ZM32.912 18.432H37.076C37.844 18.432 38.46 18.608 38.924 18.96C39.388 19.312 39.62 19.844 39.62 20.556C39.62 20.988 39.512 21.36 39.296 21.672C39.088 21.976 38.788 22.212 38.396 22.38V22.404C38.924 22.516 39.324 22.768 39.596 23.16C39.868 23.544 40.004 24.028 40.004 24.612C40.004 24.948 39.944 25.264 39.824 25.56C39.704 25.848 39.516 26.1 39.26 26.316C39.004 26.524 38.676 26.692 38.276 26.82C37.876 26.94 37.4 27 36.848 27H32.912V18.432ZM34.412 25.776H37.064C37.52 25.776 37.872 25.66 38.12 25.428C38.376 25.188 38.504 24.852 38.504 24.42C38.504 23.996 38.376 23.672 38.12 23.448C37.872 23.216 37.52 23.1 37.064 23.1H34.412V25.776ZM43.6532 18.432H45.2492L48.5492 27H46.9412L46.1372 24.732H42.7172L41.9132 27H40.3652L43.6532 18.432ZM43.1252 23.592H45.7412L44.4572 19.908H44.4212L43.1252 23.592ZM49.3051 18.432H50.8891L54.8011 24.744H54.8251V18.432H56.2531V27H54.6691L50.7691 20.7H50.7331V27H49.3051V18.432ZM58.0253 18.432H59.5253V22.332L63.3413 18.432H65.1893L61.7693 21.852L65.4293 27H63.5573L60.7493 22.908L59.5253 24.12V27H58.0253V18.432Z" fill="white"/>
</svg>
