<svg width="24" height="24" viewBox="0 0 24 24" fill="none" xmlns="http://www.w3.org/2000/svg">
<path d="M17.5951 4H15.157V3.2C15.157 2.90667 14.8827 2.66667 14.5475 2.66667H13.6332V1.86667C13.6332 0.837333 12.6763 0 11.4999 0C10.3235 0 9.36655 0.837333 9.36655 1.86667V2.66667H8.45227C8.11703 2.66667 7.84274 2.90667 7.84274 3.2V4H5.40465C4.06065 4 2.96655 4.95733 2.96655 6.13333V21.8667C2.96655 23.0427 4.06065 24 5.40465 24H17.5951C18.9391 24 20.0332 23.0427 20.0332 21.8667V6.13333C20.0332 4.95733 18.9391 4 17.5951 4ZM10.5856 1.86667C10.5856 1.42667 10.997 1.06667 11.4999 1.06667C12.0027 1.06667 12.4142 1.42667 12.4142 1.86667V2.66667H10.5856V1.86667ZM9.06179 3.73333H13.938V5.33333H9.06179V3.73333ZM18.8142 21.8667C18.8142 22.456 18.2686 22.9333 17.5951 22.9333H5.40465C4.73112 22.9333 4.1856 22.456 4.1856 21.8667V6.13333C4.1856 5.544 4.73112 5.06667 5.40465 5.06667H7.84274V5.86667C7.84274 6.16 8.11703 6.4 8.45227 6.4H14.5475C14.8827 6.4 15.157 6.16 15.157 5.86667V5.06667H17.5951C18.2686 5.06667 18.8142 5.544 18.8142 6.13333V21.8667ZM10.5856 19.968C10.5856 20.2613 10.3113 20.5013 9.97608 20.5013H6.92846C6.59322 20.5013 6.31893 20.2613 6.31893 19.968C6.31893 19.672 6.59322 19.4347 6.92846 19.4347H9.97608C10.3113 19.4347 10.5856 19.672 10.5856 19.968ZM16.501 17.4907C16.7418 17.6987 16.7418 18.0347 16.501 18.2427L14.0629 20.376C13.9441 20.48 13.7886 20.5333 13.6332 20.5333C13.4778 20.5333 13.3224 20.48 13.2035 20.376L11.9845 19.3093C11.7437 19.1013 11.7437 18.7653 11.9845 18.5573C12.2222 18.3467 12.6062 18.3467 12.8439 18.5573L13.0603 18.744L13.6332 19.2453L14.7791 18.2427L15.6416 17.4907C15.8793 17.28 16.2633 17.28 16.501 17.4907ZM10.5856 15.7013C10.5856 15.9947 10.3113 16.2347 9.97608 16.2347H6.92846C6.59322 16.2347 6.31893 15.9947 6.31893 15.7013C6.31893 15.4053 6.59322 15.168 6.92846 15.168H9.97608C10.3113 15.168 10.5856 15.4053 10.5856 15.7013ZM16.501 13.224C16.7418 13.432 16.7418 13.768 16.501 13.976L14.0629 16.1093C13.9441 16.2133 13.7886 16.2667 13.6332 16.2667C13.4778 16.2667 13.3224 16.2133 13.2035 16.1093L11.9845 15.0427C11.7437 14.8347 11.7437 14.4987 11.9845 14.2907C12.2222 14.08 12.6062 14.08 12.8439 14.2907L13.0603 14.4773L13.6332 14.9787L14.7791 13.976L15.6416 13.224C15.8793 13.0133 16.2633 13.0133 16.501 13.224ZM10.5856 11.4347C10.5856 11.728 10.3113 11.968 9.97608 11.968H6.92846C6.59322 11.968 6.31893 11.728 6.31893 11.4347C6.31893 11.1387 6.59322 10.9013 6.92846 10.9013H9.97608C10.3113 10.9013 10.5856 11.1387 10.5856 11.4347ZM16.501 8.95733C16.7418 9.16533 16.7418 9.50133 16.501 9.70933L14.0629 11.8427C13.9441 11.9467 13.7886 12 13.6332 12C13.4778 12 13.3224 11.9467 13.2035 11.8427L11.9845 10.776C11.7437 10.568 11.7437 10.232 11.9845 10.024C12.2222 9.81333 12.6062 9.81333 12.8439 10.024L13.0603 10.2107L13.6332 10.712L14.7791 9.70933L15.6416 8.95733C15.8793 8.74667 16.2633 8.74667 16.501 8.95733Z" fill="#FF8926"/>
</svg>
