<svg width="89" height="15" viewBox="0 0 89 15" fill="none" xmlns="http://www.w3.org/2000/svg">
<path d="M28.308 11H27.012L24 2.432H25.224L27.672 9.86H27.696L30.168 2.432H31.356L28.308 11ZM32.973 3.68H31.953V2.432H32.973V3.68ZM31.953 4.796H32.973V11H31.953V4.796ZM34.5172 4.796H35.4772V6.104H35.5012C35.7492 5.6 36.0532 5.228 36.4132 4.988C36.7732 4.748 37.2292 4.636 37.7812 4.652V5.732C37.3732 5.732 37.0252 5.788 36.7372 5.9C36.4492 6.012 36.2172 6.176 36.0412 6.392C35.8652 6.608 35.7372 6.872 35.6572 7.184C35.5772 7.488 35.5372 7.84 35.5372 8.24V11H34.5172V4.796ZM39.9653 4.796H41.2013V5.696H39.9653V9.548C39.9653 9.668 39.9733 9.764 39.9893 9.836C40.0133 9.908 40.0533 9.964 40.1093 10.004C40.1653 10.044 40.2413 10.072 40.3373 10.088C40.4413 10.096 40.5733 10.1 40.7333 10.1H41.2013V11H40.4213C40.1573 11 39.9293 10.984 39.7373 10.952C39.5533 10.912 39.4013 10.844 39.2812 10.748C39.1693 10.652 39.0853 10.516 39.0293 10.34C38.9733 10.164 38.9453 9.932 38.9453 9.644V5.696H37.8893V4.796H38.9453V2.936H39.9653V4.796ZM47.4704 11H46.5104V10.016H46.4864C46.2704 10.4 45.9944 10.684 45.6584 10.868C45.3224 11.044 44.9264 11.132 44.4704 11.132C44.0624 11.132 43.7224 11.08 43.4504 10.976C43.1784 10.864 42.9584 10.708 42.7904 10.508C42.6224 10.308 42.5024 10.072 42.4304 9.8C42.3664 9.52 42.3344 9.212 42.3344 8.876V4.796H43.3544V8.996C43.3544 9.38 43.4664 9.684 43.6904 9.908C43.9144 10.132 44.2224 10.244 44.6144 10.244C44.9264 10.244 45.1944 10.196 45.4184 10.1C45.6504 10.004 45.8424 9.868 45.9944 9.692C46.1464 9.516 46.2584 9.312 46.3304 9.08C46.4104 8.84 46.4504 8.58 46.4504 8.3V4.796H47.4704V11ZM54.4984 10.976C54.3224 11.08 54.0784 11.132 53.7664 11.132C53.5024 11.132 53.2904 11.06 53.1304 10.916C52.9784 10.764 52.9024 10.52 52.9024 10.184C52.6224 10.52 52.2944 10.764 51.9184 10.916C51.5504 11.06 51.1504 11.132 50.7184 11.132C50.4384 11.132 50.1704 11.1 49.9144 11.036C49.6664 10.972 49.4504 10.872 49.2664 10.736C49.0824 10.6 48.9344 10.424 48.8224 10.208C48.7184 9.984 48.6664 9.716 48.6664 9.404C48.6664 9.052 48.7264 8.764 48.8464 8.54C48.9664 8.316 49.1224 8.136 49.3144 8C49.5144 7.856 49.7384 7.748 49.9864 7.676C50.2424 7.604 50.5024 7.544 50.7664 7.496C51.0464 7.44 51.3104 7.4 51.5584 7.376C51.8144 7.344 52.0384 7.304 52.2304 7.256C52.4224 7.2 52.5744 7.124 52.6864 7.028C52.7984 6.924 52.8544 6.776 52.8544 6.584C52.8544 6.36 52.8104 6.18 52.7224 6.044C52.6424 5.908 52.5344 5.804 52.3984 5.732C52.2704 5.66 52.1224 5.612 51.9544 5.588C51.7944 5.564 51.6344 5.552 51.4744 5.552C51.0424 5.552 50.6824 5.636 50.3944 5.804C50.1064 5.964 49.9504 6.272 49.9264 6.728H48.9064C48.9224 6.344 49.0024 6.02 49.1464 5.756C49.2904 5.492 49.4824 5.28 49.7224 5.12C49.9624 4.952 50.2344 4.832 50.5384 4.76C50.8504 4.688 51.1824 4.652 51.5344 4.652C51.8144 4.652 52.0904 4.672 52.3624 4.712C52.6424 4.752 52.8944 4.836 53.1184 4.964C53.3424 5.084 53.5224 5.256 53.6584 5.48C53.7944 5.704 53.8624 5.996 53.8624 6.356V9.548C53.8624 9.788 53.8744 9.964 53.8984 10.076C53.9304 10.188 54.0264 10.244 54.1864 10.244C54.2744 10.244 54.3784 10.224 54.4984 10.184V10.976ZM52.8424 7.796C52.7144 7.892 52.5464 7.964 52.3384 8.012C52.1304 8.052 51.9104 8.088 51.6784 8.12C51.4544 8.144 51.2264 8.176 50.9944 8.216C50.7624 8.248 50.5544 8.304 50.3704 8.384C50.1864 8.464 50.0344 8.58 49.9144 8.732C49.8024 8.876 49.7464 9.076 49.7464 9.332C49.7464 9.5 49.7784 9.644 49.8424 9.764C49.9144 9.876 50.0024 9.968 50.1064 10.04C50.2184 10.112 50.3464 10.164 50.4904 10.196C50.6344 10.228 50.7864 10.244 50.9464 10.244C51.2824 10.244 51.5704 10.2 51.8104 10.112C52.0504 10.016 52.2464 9.9 52.3984 9.764C52.5504 9.62 52.6624 9.468 52.7344 9.308C52.8064 9.14 52.8424 8.984 52.8424 8.84V7.796ZM55.5077 2.432H56.5277V11H55.5077V2.432ZM67.6397 5.012C67.5117 4.404 67.2277 3.948 66.7877 3.644C66.3557 3.34 65.8397 3.188 65.2397 3.188C64.7277 3.188 64.2877 3.284 63.9197 3.476C63.5597 3.668 63.2597 3.928 63.0197 4.256C62.7877 4.576 62.6157 4.944 62.5037 5.36C62.3917 5.776 62.3357 6.208 62.3357 6.656C62.3357 7.144 62.3917 7.608 62.5037 8.048C62.6157 8.48 62.7877 8.86 63.0197 9.188C63.2597 9.508 63.5637 9.764 63.9317 9.956C64.2997 10.148 64.7397 10.244 65.2517 10.244C65.6277 10.244 65.9597 10.184 66.2477 10.064C66.5437 9.936 66.7957 9.764 67.0037 9.548C67.2197 9.324 67.3877 9.06 67.5077 8.756C67.6277 8.452 67.6997 8.124 67.7237 7.772H68.8637C68.7517 8.852 68.3797 9.692 67.7477 10.292C67.1157 10.892 66.2517 11.192 65.1557 11.192C64.4917 11.192 63.9117 11.08 63.4157 10.856C62.9197 10.624 62.5077 10.308 62.1797 9.908C61.8517 9.508 61.6037 9.036 61.4357 8.492C61.2757 7.948 61.1957 7.364 61.1957 6.74C61.1957 6.116 61.2837 5.532 61.4597 4.988C61.6357 4.436 61.8917 3.956 62.2277 3.548C62.5717 3.14 62.9957 2.82 63.4997 2.588C64.0117 2.348 64.5957 2.228 65.2517 2.228C65.6997 2.228 66.1237 2.288 66.5237 2.408C66.9237 2.528 67.2797 2.704 67.5917 2.936C67.9037 3.168 68.1637 3.46 68.3717 3.812C68.5797 4.156 68.7157 4.556 68.7797 5.012H67.6397ZM75.6038 10.976C75.4278 11.08 75.1838 11.132 74.8718 11.132C74.6078 11.132 74.3958 11.06 74.2358 10.916C74.0838 10.764 74.0078 10.52 74.0078 10.184C73.7278 10.52 73.3998 10.764 73.0238 10.916C72.6558 11.06 72.2558 11.132 71.8238 11.132C71.5438 11.132 71.2758 11.1 71.0198 11.036C70.7718 10.972 70.5558 10.872 70.3718 10.736C70.1878 10.6 70.0398 10.424 69.9278 10.208C69.8238 9.984 69.7718 9.716 69.7718 9.404C69.7718 9.052 69.8318 8.764 69.9518 8.54C70.0718 8.316 70.2278 8.136 70.4198 8C70.6198 7.856 70.8438 7.748 71.0918 7.676C71.3478 7.604 71.6078 7.544 71.8718 7.496C72.1518 7.44 72.4158 7.4 72.6638 7.376C72.9198 7.344 73.1438 7.304 73.3358 7.256C73.5278 7.2 73.6798 7.124 73.7918 7.028C73.9038 6.924 73.9598 6.776 73.9598 6.584C73.9598 6.36 73.9158 6.18 73.8278 6.044C73.7478 5.908 73.6398 5.804 73.5038 5.732C73.3758 5.66 73.2278 5.612 73.0598 5.588C72.8998 5.564 72.7398 5.552 72.5798 5.552C72.1478 5.552 71.7878 5.636 71.4998 5.804C71.2118 5.964 71.0558 6.272 71.0318 6.728H70.0118C70.0278 6.344 70.1078 6.02 70.2518 5.756C70.3958 5.492 70.5878 5.28 70.8278 5.12C71.0678 4.952 71.3398 4.832 71.6438 4.76C71.9558 4.688 72.2878 4.652 72.6398 4.652C72.9198 4.652 73.1958 4.672 73.4678 4.712C73.7478 4.752 73.9998 4.836 74.2238 4.964C74.4478 5.084 74.6278 5.256 74.7638 5.48C74.8998 5.704 74.9678 5.996 74.9678 6.356V9.548C74.9678 9.788 74.9798 9.964 75.0038 10.076C75.0358 10.188 75.1318 10.244 75.2918 10.244C75.3798 10.244 75.4838 10.224 75.6038 10.184V10.976ZM73.9478 7.796C73.8198 7.892 73.6518 7.964 73.4438 8.012C73.2358 8.052 73.0158 8.088 72.7838 8.12C72.5598 8.144 72.3318 8.176 72.0998 8.216C71.8678 8.248 71.6598 8.304 71.4758 8.384C71.2918 8.464 71.1398 8.58 71.0198 8.732C70.9078 8.876 70.8518 9.076 70.8518 9.332C70.8518 9.5 70.8838 9.644 70.9478 9.764C71.0198 9.876 71.1078 9.968 71.2118 10.04C71.3238 10.112 71.4518 10.164 71.5958 10.196C71.7398 10.228 71.8918 10.244 72.0518 10.244C72.3878 10.244 72.6758 10.2 72.9158 10.112C73.1558 10.016 73.3518 9.9 73.5038 9.764C73.6558 9.62 73.7678 9.468 73.8398 9.308C73.9118 9.14 73.9478 8.984 73.9478 8.84V7.796ZM76.5172 4.796H77.4772V6.104H77.5012C77.7492 5.6 78.0532 5.228 78.4132 4.988C78.7732 4.748 79.2292 4.636 79.7812 4.652V5.732C79.3732 5.732 79.0252 5.788 78.7372 5.9C78.4492 6.012 78.2172 6.176 78.0412 6.392C77.8652 6.608 77.7372 6.872 77.6572 7.184C77.5772 7.488 77.5372 7.84 77.5372 8.24V11H76.5172V4.796ZM81.0823 7.952C81.0823 8.24 81.1183 8.524 81.1903 8.804C81.2703 9.076 81.3863 9.32 81.5383 9.536C81.6983 9.752 81.8983 9.924 82.1383 10.052C82.3863 10.18 82.6743 10.244 83.0023 10.244C83.3463 10.244 83.6383 10.176 83.8783 10.04C84.1183 9.904 84.3143 9.728 84.4663 9.512C84.6183 9.288 84.7263 9.036 84.7903 8.756C84.8623 8.476 84.8983 8.192 84.8983 7.904C84.8983 7.6 84.8623 7.308 84.7903 7.028C84.7183 6.74 84.6023 6.488 84.4423 6.272C84.2903 6.056 84.0903 5.884 83.8423 5.756C83.5943 5.62 83.2943 5.552 82.9423 5.552C82.5983 5.552 82.3063 5.62 82.0663 5.756C81.8263 5.892 81.6343 6.072 81.4903 6.296C81.3463 6.52 81.2423 6.776 81.1783 7.064C81.1143 7.352 81.0823 7.648 81.0823 7.952ZM85.8823 11H84.8623V10.16H84.8383C84.6703 10.504 84.4063 10.752 84.0463 10.904C83.6863 11.056 83.2903 11.132 82.8583 11.132C82.3783 11.132 81.9583 11.044 81.5983 10.868C81.2463 10.692 80.9503 10.456 80.7103 10.16C80.4783 9.864 80.3023 9.52 80.1823 9.128C80.0623 8.736 80.0023 8.32 80.0023 7.88C80.0023 7.44 80.0583 7.024 80.1703 6.632C80.2903 6.24 80.4663 5.9 80.6983 5.612C80.9383 5.316 81.2343 5.084 81.5863 4.916C81.9463 4.74 82.3623 4.652 82.8343 4.652C82.9943 4.652 83.1663 4.668 83.3503 4.7C83.5343 4.732 83.7183 4.788 83.9023 4.868C84.0863 4.94 84.2583 5.04 84.4183 5.168C84.5863 5.288 84.7263 5.44 84.8383 5.624H84.8623V2.432H85.8823V11Z" fill="white"/>
<path d="M4.57664 14H17.1757C19.1479 14 20.7524 12.1889 20.7524 9.96293C20.7524 7.73677 19.1479 5.92567 17.1757 5.92567C16.9393 5.92567 16.7033 5.95172 16.4712 6.00343C16.2635 5.33448 15.9497 4.7114 15.5358 4.14684C15.4116 3.97732 15.1893 3.9538 15.0391 4.09396C14.8891 4.23413 14.8681 4.48511 14.9922 4.65463C15.4178 5.23494 15.7213 5.88465 15.8942 6.58588C15.9195 6.68892 15.9805 6.77601 16.0633 6.82753C16.1465 6.87963 16.2445 6.89168 16.3346 6.86077C16.6088 6.76862 16.8917 6.72197 17.1757 6.72197C18.7589 6.72197 20.0469 8.17594 20.0469 9.96293C20.0469 11.7499 18.7589 13.2037 17.1757 13.2037H4.57664C2.99353 13.2037 1.70544 11.7499 1.70544 9.96293C1.70544 8.17594 2.99353 6.72197 4.57664 6.72197C5.15074 6.72197 5.71364 6.91788 6.18356 7.27469C6.15676 7.52222 6.13909 7.76355 6.13909 8C6.13909 8.62055 6.22658 9.24285 6.39932 9.84959C6.44737 10.0185 6.58601 10.1262 6.73516 10.1262C6.77081 10.1262 6.80715 10.12 6.84298 10.107C7.02846 10.0397 7.13059 9.81557 7.071 9.60619C6.92065 9.07799 6.84452 8.53773 6.84452 8C6.84452 7.72666 6.86502 7.44905 6.90687 7.15219C7.2713 4.6282 9.18699 2.7963 11.4618 2.7963C12.1565 2.7963 12.8246 2.9666 13.4472 3.30273C13.6223 3.39702 13.8333 3.31381 13.9175 3.11512C14.0016 2.91683 13.9272 2.67907 13.7513 2.5842C13.033 2.19655 12.2628 2 11.4618 2C9.01928 2 6.93757 3.83404 6.32356 6.43883C5.79394 6.10627 5.19022 5.92567 4.57664 5.92567C2.60447 5.92567 1 7.73677 1 9.96293C1 12.1889 2.60447 14 4.57664 14Z" fill="white" stroke="white" stroke-width="0.689242"/>
</svg>
