<svg width="48" height="25" viewBox="0 0 48 25" fill="none" xmlns="http://www.w3.org/2000/svg">
<g clip-path="url(#clip0_22940_158043)">
<path d="M19.0609 7.38281L16.6133 21.7461H20.5278L22.9774 7.38281H19.0609Z" fill="white"/>
<path d="M13.3374 7.40146L9.50338 17.1968L9.09461 15.7178C8.33849 13.9357 6.19195 11.3764 3.67188 9.76346L7.17762 21.7416L11.3197 21.7345L17.4844 7.39844L13.3374 7.40146Z" fill="white"/>
<path d="M7.60235 8.44034C7.37481 7.56542 6.71534 7.30465 5.8968 7.27344H-0.172315L-0.222656 7.55937C4.50034 8.70514 7.62551 11.4658 8.92229 14.7853L7.60235 8.44034Z" fill="white"/>
<path d="M30.9064 10.1331C32.1871 10.113 33.1154 10.3929 33.8362 10.6829L34.1896 10.849L34.7192 7.7359C33.944 7.44493 32.7287 7.13281 31.2125 7.13281C27.3443 7.13281 24.6178 9.08101 24.5967 11.8729C24.5715 13.9359 26.5388 15.0877 28.0249 15.7754C29.5502 16.4801 30.0617 16.9282 30.0546 17.5574C30.0425 18.5189 28.8384 18.9599 27.7138 18.9599C26.1462 18.9599 25.3135 18.7435 24.0278 18.2078L23.5234 17.9783L22.9727 21.1931C23.8889 21.5948 25.5793 21.9401 27.3342 21.9582C31.4491 21.9582 34.1232 20.0332 34.1514 17.05C34.1685 15.4179 33.1244 14.1725 30.8621 13.1506C29.4928 12.4841 28.6551 12.0411 28.6632 11.3685C28.6632 10.7715 29.374 10.1331 30.9064 10.1331Z" fill="white"/>
<path d="M44.7745 7.39844H41.75C40.8106 7.39844 40.1119 7.65417 39.6991 8.59051L33.8867 21.7537H37.9976C37.9976 21.7537 38.6681 19.9837 38.8201 19.5961C39.2702 19.5961 43.2642 19.6021 43.8331 19.6021C43.9499 20.1035 44.3103 21.7537 44.3103 21.7537H47.9419L44.7745 7.39844ZM39.9468 16.6561C40.269 15.8316 41.5063 12.642 41.5063 12.642C41.4852 12.6812 41.8255 11.8113 42.0279 11.2707L42.2917 12.5091C42.2917 12.5091 43.0417 15.9383 43.1988 16.6561H39.9468Z" fill="white"/>
</g>
<defs>
<clipPath id="clip0_22940_158043">
<rect width="48" height="25" fill="white"/>
</clipPath>
</defs>
</svg>
