<svg width="24" height="22" viewBox="0 0 24 22" fill="none" xmlns="http://www.w3.org/2000/svg">
<path d="M14.5912 1.71033C15.674 2.00079 16.2069 2.64715 16.2885 3.7872H15.7761C15.6407 3.7872 15.5172 3.85857 15.4581 3.9706C15.398 4.08262 15.413 4.21645 15.4957 4.31559L17.0523 6.1704C17.1189 6.2507 17.2231 6.29729 17.3327 6.29729C17.4423 6.29729 17.5465 6.2507 17.613 6.1704L19.1685 4.31559C19.2512 4.21646 19.2663 4.08362 19.2061 3.9706C19.146 3.85857 19.0235 3.7872 18.8882 3.7872H18.3564C18.2941 2.85931 17.9128 2.06522 17.2843 1.57552C16.6172 1.05605 15.7224 0.886548 14.6256 1.07389C14.4634 1.10165 14.3442 1.22755 14.3355 1.37922C14.3269 1.53089 14.4333 1.6677 14.5912 1.71033ZM16.8278 2.07614C17.367 2.49645 17.6689 3.23699 17.656 4.11037C17.6549 4.1976 17.6914 4.28286 17.758 4.34531C17.8247 4.40777 17.916 4.44247 18.0105 4.44247H18.1652L17.3327 5.43481L16.5001 4.44247H16.6548C16.8514 4.44247 17.0093 4.29575 17.0093 4.11531C17.0093 3.05259 16.7042 2.2615 16.0823 1.72715C16.3659 1.79456 16.6151 1.91058 16.8278 2.07614ZM9.40593 20.2902C8.3231 19.9978 7.78921 19.3514 7.70649 18.2124H8.2189C8.35426 18.2124 8.4778 18.141 8.53686 18.029C8.59702 17.9169 8.58198 17.7831 8.49927 17.684L6.94378 15.8292C6.87718 15.7489 6.77298 15.7023 6.66342 15.7023C6.55384 15.7023 6.44964 15.7489 6.38305 15.8292L4.82647 17.684C4.74375 17.7831 4.72871 17.9159 4.78887 18.029C4.84903 18.141 4.97149 18.2124 5.10683 18.2124H5.63965C5.70195 19.1402 6.08439 19.9343 6.7128 20.424C7.20481 20.8077 7.82033 21 8.55082 21C8.80972 21 9.08364 20.9752 9.37155 20.9266C9.53376 20.8989 9.65299 20.773 9.6616 20.6213C9.6702 20.4696 9.56385 20.3329 9.40593 20.2902ZM7.17045 19.9234C6.63119 19.5031 6.32825 18.7616 6.34007 17.8882C6.34115 17.801 6.30462 17.7167 6.23802 17.6542C6.17142 17.5918 6.08011 17.5571 5.98557 17.5571H5.83088L6.66341 16.5647L7.49593 17.5571H7.34124C7.14465 17.5571 6.98673 17.7038 6.98673 17.8842C6.98673 18.947 7.29289 19.7381 7.91487 20.2734C7.63128 20.205 7.38314 20.089 7.17045 19.9234ZM11.6189 13.8336V10.0893C11.6189 8.81443 10.3964 7.77846 8.89467 7.77846H4.43327C2.93042 7.77846 1.70902 8.8154 1.70902 10.0893V13.8336C1.70902 14.015 1.55003 14.1608 1.35451 14.1608C1.15899 14.1608 1 14.0141 1 13.8336V10.0893C1 8.45358 2.54047 7.12306 4.43426 7.12306H8.89566C10.7895 7.12306 12.3299 8.45345 12.3299 10.0893V13.8336C12.3299 14.015 12.1709 14.1608 11.9754 14.1608C11.7799 14.1608 11.6209 14.0141 11.6209 13.8336H11.6189ZM4.1498 10.6425V13.8336C4.1498 14.015 3.99081 14.1608 3.79529 14.1608C3.59977 14.1608 3.44078 14.0141 3.44078 13.8336V10.6425C3.44078 10.4611 3.59977 10.3154 3.79529 10.3154C3.99081 10.3154 4.1498 10.4621 4.1498 10.6425ZM9.88722 10.6425V13.8336C9.88722 14.015 9.72824 14.1608 9.53271 14.1608C9.3372 14.1608 9.1782 14.0141 9.1782 13.8336V10.6425C9.1782 10.4611 9.33719 10.3154 9.53271 10.3154C9.72822 10.3154 9.88722 10.4621 9.88722 10.6425ZM6.66334 6.85456C7.53884 6.85456 8.27363 6.45901 8.79034 5.71055C9.2007 5.11474 9.43704 4.33159 9.43704 3.5613C9.43704 2.14963 8.19308 1.00164 6.66334 1.00164C5.1336 1.00164 3.88964 2.14961 3.88964 3.5613C3.88964 4.30086 4.12275 5.09193 4.51376 5.67883C5.02725 6.4481 5.77065 6.85456 6.66334 6.85456ZM6.66334 1.65605C7.80202 1.65605 8.72802 2.51059 8.72802 3.56141C8.72802 4.20082 8.52821 4.87296 8.19198 5.35969C7.80741 5.91782 7.29285 6.20035 6.66334 6.20035C6.02096 6.20035 5.50208 5.90891 5.11858 5.3349C4.79309 4.84814 4.59973 4.18495 4.59973 3.56138C4.59973 2.51056 5.52465 1.65605 6.66334 1.65605ZM22.9981 16.9267V20.6711C22.9981 20.8525 22.8391 20.9982 22.6436 20.9982C22.4481 20.9982 22.2891 20.8515 22.2891 20.6711V16.9267C22.2891 15.6519 21.0677 14.6159 19.5659 14.6159H15.1034C13.6016 14.6159 12.3802 15.6528 12.3802 16.9267V20.6711C12.3802 20.8525 12.2212 20.9982 12.0257 20.9982C11.8302 20.9982 11.6712 20.8515 11.6712 20.6711V16.9267C11.6712 15.291 13.2116 13.9605 15.1043 13.9605H19.5668C21.4596 13.9605 23 15.2909 23 16.9267H22.9981ZM20.5574 17.4799V20.671C20.5574 20.8524 20.3984 20.9981 20.2029 20.9981C20.0074 20.9981 19.8484 20.8514 19.8484 20.671V17.4799C19.8484 17.2985 20.0074 17.1528 20.2029 17.1528C20.3984 17.1528 20.5574 17.2995 20.5574 17.4799ZM14.8189 17.4799V20.671C14.8189 20.8524 14.6599 20.9981 14.4644 20.9981C14.2688 20.9981 14.1099 20.8514 14.1099 20.671V17.4799C14.1099 17.2985 14.2688 17.1528 14.4644 17.1528C14.6599 17.1528 14.8189 17.2995 14.8189 17.4799ZM14.56 10.3988C14.56 11.1384 14.7931 11.9305 15.1841 12.5164C15.6976 13.2856 16.441 13.6931 17.3337 13.6931C18.2092 13.6931 18.945 13.2975 19.4617 12.5481C19.8721 11.9523 20.1084 11.1691 20.1084 10.3988C20.1084 8.98716 18.8645 7.83916 17.3347 7.83916C15.805 7.83916 14.56 8.98713 14.56 10.3988ZM19.3973 10.3988C19.3973 11.4189 18.8366 13.0377 17.3326 13.0377C16.6903 13.0377 16.1703 12.7462 15.7879 12.1732C15.4624 11.6865 15.269 11.0233 15.269 10.3997C15.269 9.3489 16.195 8.49436 17.3337 8.49436C18.4724 8.49436 19.3973 9.34801 19.3973 10.3988Z" fill="#FF000D" stroke="#FF000D" stroke-width="0.25"/>
</svg>
