<svg width="20" height="20" viewBox="0 0 20 20" fill="none" xmlns="http://www.w3.org/2000/svg">
<path d="M2.5 4.99992C2.5 4.55789 2.67559 4.13397 2.98816 3.82141C3.30072 3.50885 3.72464 3.33325 4.16667 3.33325H15.8333C16.2754 3.33325 16.6993 3.50885 17.0118 3.82141C17.3244 4.13397 17.5 4.55789 17.5 4.99992V8.33325C17.5 8.77528 17.3244 9.1992 17.0118 9.51176C16.6993 9.82432 16.2754 9.99992 15.8333 9.99992H4.16667C3.72464 9.99992 3.30072 9.82432 2.98816 9.51176C2.67559 9.1992 2.5 8.77528 2.5 8.33325V4.99992Z" stroke="black" stroke-width="1.5" stroke-linecap="round" stroke-linejoin="round"/>
<path d="M3.33398 13.3333L16.6673 13.3333" stroke="black" stroke-width="1.5" stroke-linecap="round" stroke-linejoin="round"/>
<path d="M3.33398 16.6667L16.6673 16.6667" stroke="black" stroke-width="1.5" stroke-linecap="round" stroke-linejoin="round"/>
</svg>
