<svg width="96" height="97" viewBox="0 0 96 97" fill="none" xmlns="http://www.w3.org/2000/svg">
<path d="M0 48.5C0 21.9903 21.4903 0.5 48 0.5C74.5097 0.5 96 21.9903 96 48.5C96 75.0097 74.5097 96.5 48 96.5C21.4903 96.5 0 75.0097 0 48.5Z" fill="#F8F7FA"/>
<path d="M48 40.5V50.5" stroke="#F04E39" stroke-width="3" stroke-linecap="round" stroke-linejoin="round"/>
<path d="M48 56.5H48.02" stroke="#F04E39" stroke-width="3" stroke-linecap="round" stroke-linejoin="round"/>
<path d="M30 48.5C30 50.8638 30.4656 53.2044 31.3702 55.3883C32.2748 57.5722 33.6006 59.5565 35.2721 61.2279C36.9435 62.8994 38.9278 64.2252 41.1117 65.1298C43.2956 66.0344 45.6362 66.5 48 66.5C50.3638 66.5 52.7044 66.0344 54.8883 65.1298C57.0722 64.2252 59.0565 62.8994 60.7279 61.2279C62.3994 59.5565 63.7252 57.5722 64.6298 55.3883C65.5344 53.2044 66 50.8638 66 48.5C66 43.7261 64.1036 39.1477 60.7279 35.7721C57.3523 32.3964 52.7739 30.5 48 30.5C43.2261 30.5 38.6477 32.3964 35.2721 35.7721C31.8964 39.1477 30 43.7261 30 48.5Z" stroke="#F04E39" stroke-width="3" stroke-linecap="round" stroke-linejoin="round"/>
</svg>
