<svg width="167" height="48" viewBox="0 0 167 48" fill="none" xmlns="http://www.w3.org/2000/svg">
<path d="M165.231 42.4643C165.231 45.0223 163.116 47.0943 160.499 47.0943H5.66072C3.04571 47.0943 0.923096 45.0223 0.923096 42.4643V5.54167C0.923096 2.9849 3.04571 0.90564 5.66072 0.90564H160.498C163.116 0.90564 165.23 2.9849 165.23 5.54167L165.231 42.4643Z" fill="black"/>
<path d="M160 0.961501C162.849 0.961501 165.168 3.222 165.168 6V42C165.168 44.778 162.849 47.0385 160 47.0385H6.15385C3.30462 47.0385 0.986153 44.778 0.986153 42V6C0.986153 3.222 3.30462 0.961501 6.15385 0.961501H160ZM160 2.53677e-06H6.15385C2.77077 2.53677e-06 0 2.7015 0 6V42C0 45.2985 2.77077 48 6.15385 48H160C163.383 48 166.154 45.2985 166.154 42V6C166.154 2.7015 163.383 2.53677e-06 160 2.53677e-06Z" fill="#A6A6A6"/>
<path d="M37.0806 23.7407C37.0449 19.8731 40.3286 17.9915 40.4788 17.9039C38.6191 15.2603 35.7366 14.8991 34.7237 14.8703C32.3028 14.6219 29.9545 16.2827 28.7212 16.2827C27.4634 16.2827 25.5643 14.8943 23.5176 14.9351C20.8837 14.9747 18.4197 16.4615 17.0683 18.7703C14.2794 23.4779 16.3594 30.3959 19.0314 34.2011C20.368 36.0647 21.9299 38.1455 23.9742 38.0723C25.9742 37.9919 26.7212 36.8291 29.1348 36.8291C31.5262 36.8291 32.2277 38.0723 34.3126 38.0255C36.4591 37.9919 37.8105 36.1535 39.1003 34.2731C40.6449 32.1371 41.2652 30.0335 41.2899 29.9255C41.2394 29.9087 37.1212 28.3763 37.0806 23.7407Z" fill="white"/>
<path d="M33.1422 12.3671C34.2179 11.0555 34.9539 9.27113 34.7496 7.46033C33.1926 7.52753 31.2456 8.51033 30.1243 9.79313C29.1323 10.9235 28.2462 12.7763 28.4751 14.5187C30.224 14.6459 32.0197 13.6583 33.1422 12.3671Z" fill="white"/>
<path d="M60.3693 12.0108C60.3693 13.4232 59.9348 14.4864 59.0671 15.2004C58.2634 15.8592 57.1213 16.1892 55.6419 16.1892C54.9084 16.1892 54.2807 16.158 53.7551 16.0956V8.37841C54.4407 8.27041 55.1791 8.21521 55.9767 8.21521C57.3859 8.21521 58.4481 8.51401 59.1644 9.11161C59.9668 9.78721 60.3693 10.7532 60.3693 12.0108ZM59.0093 12.0456C59.0093 11.13 58.7607 10.428 58.2634 9.93841C57.7662 9.45001 57.0401 9.20521 56.0837 9.20521C55.6776 9.20521 55.3317 9.23161 55.045 9.28681V15.1536C55.2037 15.1776 55.4942 15.1884 55.9164 15.1884C56.9034 15.1884 57.6653 14.9208 58.2019 14.3856C58.7385 13.8504 59.0093 13.0704 59.0093 12.0456Z" fill="white"/>
<path d="M67.5802 13.2445C67.5802 14.1145 67.3254 14.8273 66.8159 15.3865C66.2817 15.9613 65.574 16.2481 64.6903 16.2481C63.8386 16.2481 63.1605 15.9733 62.6546 15.4213C62.15 14.8705 61.8977 14.1757 61.8977 13.3381C61.8977 12.4621 62.1574 11.7433 62.6792 11.1853C63.2011 10.6273 63.9026 10.3477 64.7863 10.3477C65.638 10.3477 66.3223 10.6225 66.8405 11.1733C67.3328 11.7085 67.5802 12.3997 67.5802 13.2445ZM66.2423 13.2853C66.2423 12.7633 66.1266 12.3157 65.8965 11.9425C65.6257 11.4913 65.2405 11.2657 64.7396 11.2657C64.2214 11.2657 63.8276 11.4913 63.5568 11.9425C63.3254 12.3157 63.2109 12.7705 63.2109 13.3081C63.2109 13.8301 63.3266 14.2777 63.5568 14.6509C63.8362 15.1021 64.2251 15.3277 64.7272 15.3277C65.2196 15.3277 65.606 15.0985 65.8842 14.6389C66.1229 14.2585 66.2423 13.8073 66.2423 13.2853Z" fill="white"/>
<path d="M77.2494 10.4628L75.434 16.1196H74.2525L73.5005 13.6632C73.3097 13.05 73.1546 12.4404 73.034 11.8356H73.0106C72.8986 12.4572 72.7436 13.0656 72.5442 13.6632L71.7454 16.1196H70.5503L68.8433 10.4628H70.1688L70.8248 13.152C70.9836 13.788 71.114 14.394 71.2186 14.9676H71.242C71.338 14.4948 71.4968 13.8924 71.7208 13.164L72.5442 10.464H73.5953L74.3842 13.1064C74.5749 13.7508 74.73 14.3712 74.8494 14.9688H74.8851C74.9725 14.3868 75.1042 13.7664 75.279 13.1064L75.9829 10.464H77.2494V10.4628Z" fill="white"/>
<path d="M83.9361 16.1196H82.6463V12.8796C82.6463 11.8812 82.2573 11.382 81.477 11.382C81.0943 11.382 80.7853 11.5188 80.5453 11.7936C80.3078 12.0684 80.1872 12.3924 80.1872 12.7632V16.1184H78.8973V12.0792C78.8973 11.5824 78.8814 11.0436 78.8506 10.4604H79.9841L80.0444 11.3448H80.0801C80.2303 11.07 80.4543 10.8432 80.7484 10.662C81.098 10.4508 81.4893 10.344 81.9177 10.344C82.4592 10.344 82.9096 10.5144 83.2678 10.8564C83.7133 11.2752 83.9361 11.9004 83.9361 12.7308V16.1196V16.1196Z" fill="white"/>
<path d="M87.493 16.1196H86.2043V7.86719H87.493V16.1196Z" fill="white"/>
<path d="M95.0868 13.2445C95.0868 14.1145 94.832 14.8273 94.3225 15.3865C93.7883 15.9613 93.0794 16.2481 92.1969 16.2481C91.344 16.2481 90.6658 15.9733 90.1612 15.4213C89.6566 14.8705 89.4043 14.1757 89.4043 13.3381C89.4043 12.4621 89.664 11.7433 90.1858 11.1853C90.7077 10.6273 91.4092 10.3477 92.2917 10.3477C93.1446 10.3477 93.8277 10.6225 94.3471 11.1733C94.8394 11.7085 95.0868 12.3997 95.0868 13.2445ZM93.7477 13.2853C93.7477 12.7633 93.632 12.3157 93.4018 11.9425C93.1323 11.4913 92.7458 11.2657 92.2461 11.2657C91.7268 11.2657 91.3329 11.4913 91.0634 11.9425C90.832 12.3157 90.7175 12.7705 90.7175 13.3081C90.7175 13.8301 90.8332 14.2777 91.0634 14.6509C91.3428 15.1021 91.7317 15.3277 92.2338 15.3277C92.7261 15.3277 93.1114 15.0985 93.3895 14.6389C93.6295 14.2585 93.7477 13.8073 93.7477 13.2853Z" fill="white"/>
<path d="M101.329 16.1197H100.171L100.075 15.4681H100.039C99.6431 15.9877 99.0782 16.2481 98.3446 16.2481C97.7969 16.2481 97.3539 16.0765 97.0203 15.7357C96.7176 15.4261 96.5662 15.0409 96.5662 14.5837C96.5662 13.8925 96.8615 13.3657 97.456 13.0009C98.0492 12.6361 98.8837 12.4573 99.9582 12.4657V12.3601C99.9582 11.6149 99.5569 11.2429 98.7532 11.2429C98.1809 11.2429 97.6763 11.3833 97.2406 11.6617L96.9785 10.8361C97.5175 10.5109 98.1834 10.3477 98.9686 10.3477C100.485 10.3477 101.246 11.1277 101.246 12.6877V14.7709C101.246 15.3361 101.274 15.7861 101.329 16.1197ZM99.9902 14.1757V13.3033C98.5674 13.2793 97.856 13.6597 97.856 14.4433C97.856 14.7385 97.9372 14.9593 98.1034 15.1069C98.2695 15.2545 98.4812 15.3277 98.7335 15.3277C99.0166 15.3277 99.2812 15.2401 99.5225 15.0661C99.7649 14.8909 99.9138 14.6689 99.9692 14.3965C99.9828 14.3353 99.9902 14.2609 99.9902 14.1757Z" fill="white"/>
<path d="M108.659 16.1196H107.514L107.454 15.2112H107.418C107.052 15.9024 106.43 16.248 105.555 16.248C104.855 16.248 104.273 15.9804 103.812 15.4452C103.35 14.91 103.12 14.2152 103.12 13.362C103.12 12.4464 103.37 11.7048 103.872 11.1384C104.358 10.6104 104.954 10.3464 105.663 10.3464C106.442 10.3464 106.987 10.602 107.297 11.1144H107.322V7.86719H108.613V14.5956C108.613 15.1464 108.628 15.654 108.659 16.1196ZM107.322 13.734V12.7908C107.322 12.6276 107.31 12.4956 107.286 12.3948C107.214 12.0924 107.057 11.838 106.82 11.6328C106.58 11.4276 106.291 11.3244 105.957 11.3244C105.476 11.3244 105.099 11.5104 104.822 11.8836C104.548 12.2568 104.409 12.7332 104.409 13.3152C104.409 13.8744 104.54 14.328 104.805 14.6772C105.084 15.0492 105.461 15.2352 105.932 15.2352C106.356 15.2352 106.694 15.0804 106.951 14.7696C107.2 14.4828 107.322 14.1372 107.322 13.734Z" fill="white"/>
<path d="M119.69 13.2445C119.69 14.1145 119.435 14.8273 118.925 15.3865C118.391 15.9613 117.685 16.2481 116.8 16.2481C115.949 16.2481 115.271 15.9733 114.764 15.4213C114.26 14.8705 114.007 14.1757 114.007 13.3381C114.007 12.4621 114.267 11.7433 114.789 11.1853C115.311 10.6273 116.012 10.3477 116.897 10.3477C117.748 10.3477 118.433 10.6225 118.95 11.1733C119.442 11.7085 119.69 12.3997 119.69 13.2445ZM118.353 13.2853C118.353 12.7633 118.237 12.3157 118.007 11.9425C117.735 11.4913 117.351 11.2657 116.849 11.2657C116.332 11.2657 115.938 11.4913 115.666 11.9425C115.435 12.3157 115.321 12.7705 115.321 13.3081C115.321 13.8301 115.436 14.2777 115.666 14.6509C115.946 15.1021 116.335 15.3277 116.837 15.3277C117.329 15.3277 117.717 15.0985 117.995 14.6389C118.233 14.2585 118.353 13.8073 118.353 13.2853Z" fill="white"/>
<path d="M126.625 16.1196H125.336V12.8796C125.336 11.8812 124.948 11.382 124.166 11.382C123.783 11.382 123.474 11.5188 123.236 11.7936C122.997 12.0684 122.877 12.3924 122.877 12.7632V16.1184H121.586V12.0792C121.586 11.5824 121.572 11.0436 121.541 10.4604H122.673L122.733 11.3448H122.769C122.92 11.07 123.144 10.8432 123.437 10.662C123.788 10.4508 124.178 10.344 124.608 10.344C125.148 10.344 125.599 10.5144 125.957 10.8564C126.404 11.2752 126.625 11.9004 126.625 12.7308V16.1196V16.1196Z" fill="white"/>
<path d="M135.306 11.4049H133.886V14.1529C133.886 14.8513 134.138 15.2005 134.638 15.2005C134.869 15.2005 135.061 15.1813 135.212 15.1417L135.246 16.0957C134.991 16.1893 134.656 16.2361 134.244 16.2361C133.734 16.2361 133.338 16.0849 133.051 15.7825C132.763 15.4801 132.62 14.9713 132.62 14.2573V11.4049H131.772V10.4629H132.62V9.42608L133.884 9.05408V10.4617H135.305V11.4049H135.306Z" fill="white"/>
<path d="M142.134 16.1196H140.843V12.9036C140.843 11.8896 140.454 11.382 139.675 11.382C139.077 11.382 138.668 11.676 138.444 12.264C138.406 12.3876 138.384 12.5388 138.384 12.7164V16.1184H137.095V7.86719H138.384V11.2764H138.409C138.815 10.656 139.397 10.3464 140.151 10.3464C140.686 10.3464 141.127 10.5168 141.478 10.8588C141.915 11.2848 142.134 11.9184 142.134 12.756V16.1196V16.1196Z" fill="white"/>
<path d="M149.178 13.0236C149.178 13.2492 149.16 13.4388 149.13 13.5936H145.261C145.279 14.1528 145.463 14.5788 145.821 14.874C146.149 15.138 146.571 15.27 147.088 15.27C147.66 15.27 148.182 15.1812 148.652 15.0024L148.854 15.876C148.304 16.1088 147.656 16.2252 146.907 16.2252C146.008 16.2252 145.301 15.9672 144.789 15.4512C144.274 14.9352 144.02 14.2428 144.02 13.374C144.02 12.5208 144.257 11.8104 144.736 11.244C145.236 10.6392 145.911 10.3368 146.764 10.3368C147.599 10.3368 148.232 10.6392 148.661 11.244C149.007 11.724 149.178 12.318 149.178 13.0236ZM147.947 12.6984C147.957 12.3252 147.872 12.0036 147.697 11.7324C147.473 11.3832 147.132 11.208 146.671 11.208C146.25 11.208 145.906 11.3784 145.644 11.7204C145.43 11.9928 145.303 12.318 145.261 12.6984H147.947Z" fill="white"/>
<path d="M66.0245 37.8047H63.2294L61.6983 33.1139H56.3765L54.918 37.8047H52.1968L57.4694 21.8351H60.726L66.0245 37.8047ZM61.2368 31.1459L59.8522 26.9759C59.7057 26.5499 59.4312 25.5467 59.0263 23.9675H58.9771C58.8159 24.6467 58.5562 25.6499 58.1992 26.9759L56.8392 31.1459H61.2368V31.1459Z" fill="white"/>
<path d="M79.584 31.9055C79.584 33.8639 79.0412 35.4119 77.9557 36.5483C76.9834 37.5599 75.776 38.0651 74.3348 38.0651C72.7791 38.0651 71.6615 37.5203 70.9809 36.4307H70.9317V42.4967H68.3077V30.0803C68.3077 28.8491 68.2744 27.5855 68.2104 26.2895H70.5181L70.6646 28.1147H70.7138C71.5889 26.7395 72.9169 26.0531 74.6991 26.0531C76.0923 26.0531 77.2554 26.5895 78.1858 27.6635C79.1188 28.7387 79.584 30.1523 79.584 31.9055ZM76.9108 31.9991C76.9108 30.8783 76.6523 29.9543 76.1329 29.2271C75.5655 28.4687 74.8037 28.0895 73.8486 28.0895C73.2012 28.0895 72.6129 28.3007 72.0874 28.7171C71.5606 29.1371 71.216 29.6855 71.0548 30.3647C70.9735 30.6815 70.9329 30.9407 70.9329 31.1447V33.0647C70.9329 33.9023 71.1963 34.6091 71.7231 35.1863C72.2498 35.7635 72.9341 36.0515 73.776 36.0515C74.7643 36.0515 75.5335 35.6795 76.0837 34.9379C76.6351 34.1951 76.9108 33.2159 76.9108 31.9991Z" fill="white"/>
<path d="M93.168 31.9055C93.168 33.8639 92.6252 35.4119 91.5384 36.5483C90.5673 37.5599 89.36 38.0651 87.9187 38.0651C86.363 38.0651 85.2455 37.5203 84.5661 36.4307H84.5169V42.4967H81.8929V30.0803C81.8929 28.8491 81.8597 27.5855 81.7957 26.2895H84.1033L84.2498 28.1147H84.299C85.1729 26.7395 86.5009 26.0531 88.2843 26.0531C89.6763 26.0531 90.8394 26.5895 91.7723 27.6635C92.7015 28.7387 93.168 30.1523 93.168 31.9055ZM90.4947 31.9991C90.4947 30.8783 90.235 29.9543 89.7157 29.2271C89.1483 28.4687 88.3889 28.0895 87.4326 28.0895C86.784 28.0895 86.1969 28.3007 85.6701 28.7171C85.1434 29.1371 84.8 29.6855 84.6387 30.3647C84.5587 30.6815 84.5169 30.9407 84.5169 31.1447V33.0647C84.5169 33.9023 84.7803 34.6091 85.3046 35.1863C85.8313 35.7623 86.5157 36.0515 87.36 36.0515C88.3483 36.0515 89.1175 35.6795 89.6677 34.9379C90.219 34.1951 90.4947 33.2159 90.4947 31.9991Z" fill="white"/>
<path d="M108.356 33.3264C108.356 34.6848 107.872 35.79 106.901 36.6432C105.834 37.5756 104.348 38.0412 102.439 38.0412C100.677 38.0412 99.2639 37.71 98.1943 37.0464L98.8023 34.914C99.9543 35.5932 101.218 35.934 102.596 35.934C103.584 35.934 104.353 35.7156 104.906 35.2812C105.456 34.8468 105.73 34.2636 105.73 33.5364C105.73 32.8884 105.504 32.3424 105.05 31.8996C104.598 31.4568 103.844 31.0452 102.79 30.6648C99.9223 29.622 98.4897 28.0944 98.4897 26.0856C98.4897 24.7728 98.9919 23.6964 99.9974 22.8588C100.999 22.02 102.336 21.6012 104.007 21.6012C105.498 21.6012 106.736 21.8544 107.724 22.3596L107.068 24.4452C106.145 23.9556 105.101 23.7108 103.933 23.7108C103.01 23.7108 102.289 23.9328 101.772 24.3744C101.335 24.7692 101.116 25.2504 101.116 25.8204C101.116 26.4516 101.366 26.9736 101.868 27.384C102.305 27.7632 103.099 28.1736 104.251 28.6164C105.66 29.1696 106.695 29.8164 107.361 30.558C108.024 31.2972 108.356 32.2224 108.356 33.3264Z" fill="white"/>
<path d="M117.031 28.2096H114.139V33.8004C114.139 35.2224 114.648 35.9328 115.67 35.9328C116.139 35.9328 116.528 35.8932 116.836 35.814L116.908 37.7568C116.391 37.9452 115.711 38.04 114.868 38.04C113.831 38.04 113.021 37.7316 112.437 37.116C111.855 36.4992 111.562 35.4648 111.562 34.0116V28.2072H109.839V26.2872H111.562V24.1788L114.139 23.4204V26.2872H117.031V28.2096Z" fill="white"/>
<path d="M130.081 31.9524C130.081 33.7224 129.562 35.1756 128.525 36.312C127.439 37.482 125.996 38.0652 124.198 38.0652C122.465 38.0652 121.085 37.5048 120.057 36.384C119.028 35.2632 118.513 33.8484 118.513 32.1432C118.513 30.3588 119.042 28.8972 120.105 27.7608C121.164 26.6232 122.594 26.0544 124.393 26.0544C126.125 26.0544 127.52 26.6148 128.572 27.7368C129.579 28.8252 130.081 30.2304 130.081 31.9524ZM127.359 32.0352C127.359 30.9732 127.126 30.0624 126.655 29.3028C126.105 28.3836 125.318 27.9252 124.299 27.9252C123.244 27.9252 122.443 28.3848 121.893 29.3028C121.421 30.0636 121.189 30.9888 121.189 32.0832C121.189 33.1452 121.421 34.056 121.893 34.8144C122.46 35.7336 123.253 36.192 124.276 36.192C125.277 36.192 126.064 35.724 126.631 34.7904C127.115 34.0164 127.359 33.096 127.359 32.0352Z" fill="white"/>
<path d="M138.61 28.5395C138.351 28.4927 138.074 28.4687 137.783 28.4687C136.86 28.4687 136.146 28.8083 135.644 29.4887C135.207 30.0887 134.988 30.8471 134.988 31.7627V37.8047H132.365L132.39 29.9159C132.39 28.5887 132.357 27.3803 132.292 26.2907H134.577L134.673 28.4939H134.746C135.023 27.7367 135.46 27.1271 136.058 26.6699C136.642 26.2583 137.274 26.0531 137.954 26.0531C138.197 26.0531 138.416 26.0699 138.61 26.0999V28.5395Z" fill="white"/>
<path d="M150.346 31.5023C150.346 31.9607 150.315 32.3471 150.25 32.6627H142.378C142.409 33.8003 142.789 34.6703 143.52 35.2703C144.183 35.8067 145.041 36.0755 146.095 36.0755C147.26 36.0755 148.324 35.8943 149.28 35.5307L149.691 37.3067C148.574 37.7819 147.254 38.0183 145.732 38.0183C143.9 38.0183 142.463 37.4927 141.417 36.4427C140.373 35.3927 139.85 33.9827 139.85 32.2139C139.85 30.4775 140.336 29.0315 141.31 27.8783C142.329 26.6471 143.706 26.0315 145.439 26.0315C147.141 26.0315 148.43 26.6471 149.305 27.8783C149.998 28.8563 150.346 30.0659 150.346 31.5023ZM147.844 30.8387C147.861 30.0803 147.69 29.4251 147.334 28.8719C146.88 28.1603 146.182 27.8051 145.243 27.8051C144.385 27.8051 143.687 28.1519 143.154 28.8479C142.718 29.4011 142.458 30.0647 142.378 30.8375H147.844V30.8387Z" fill="white"/>
</svg>
