<svg width="131" height="61" viewBox="0 0 131 61" fill="none" xmlns="http://www.w3.org/2000/svg">
<path d="M25.096 0L25.7291 5.3983L31.4184 4.44852L36.3778 26.2449L11.0356 24.1156L10.8641 23.8771L11.7038 19.5832L0 23.1791L3.27549 2.02326L25.096 0ZM25.6104 5.51757L14.3594 7.43039L11.8094 19.4728L26.6304 15.2451L25.6104 5.51757Z" fill="url(#paint0_linear_13736_201179)"/>
<path d="M104.883 8.60149C110.172 8.05812 114.345 11.336 113.87 16.8801C113.219 24.4209 101.608 25.6534 98.8071 18.8768C96.8594 14.1721 99.8448 9.12276 104.883 8.60591V8.60149ZM105.727 11.9898C101.049 12.5155 101.555 19.9945 106.119 19.9061C111.118 19.8089 110.696 11.4332 105.727 11.9898Z" fill="#1D468D"/>
<path d="M59.2533 23.0849H55.3535V21.499L54.5005 22.3913C52.6847 23.7873 48.9344 23.5885 47.1845 22.1351C45.1709 20.4609 45.1972 17.0637 47.4791 15.6589C48.099 15.279 49.6423 14.7268 50.3457 14.7268H55.1424C55.0105 10.8747 49.9764 11.5152 47.8132 13.2337C47.7693 13.2116 47.7429 13.1718 47.7077 13.1409C47.5626 13.0128 46.4239 10.7731 46.336 10.4948C46.3052 10.3887 46.2568 10.2916 46.292 10.1811C47.3868 9.58916 48.4332 9.11648 49.6598 8.85142C52.9705 8.13135 57.4859 8.46267 58.8356 12.1293C58.9543 12.4518 59.2533 13.4325 59.2533 13.7196V23.0849ZM55.1424 17.1609H51.6119C51.5372 17.1609 50.9217 17.3465 50.7942 17.395C49.462 17.8854 49.4708 19.6215 50.693 20.2002C51.9153 20.7789 53.863 20.4741 54.7248 19.33C55.2568 18.6231 55.16 18.0003 55.1468 17.1609H55.1424Z" fill="#1D468D"/>
<path d="M96.5803 9.74047L95.2085 12.8063C94.7117 12.5854 94.2369 12.3071 93.7093 12.1392C92.487 11.7505 90.0205 11.428 88.9346 12.1657C88.1476 12.7003 88.319 13.5705 89.1588 13.9549C91.5066 15.0327 96.4616 14.189 96.976 17.9616C97.7806 23.8768 89.4446 23.9033 85.6679 22.5382C85.3073 22.4101 84.0719 22.0125 84.1554 21.5531C84.5599 20.6077 85.1051 19.7066 85.4085 18.7259C87.1539 19.7286 89.2335 20.2764 91.2604 20.0997C91.8715 20.0467 92.8915 19.8303 92.997 19.0881C93.1289 18.1604 92.3903 17.9925 91.6517 17.8026C89.3171 17.2062 84.9512 17.3741 84.4852 14.0962C83.5838 7.75697 92.742 7.69512 96.5847 9.73163L96.5803 9.74047Z" fill="#1D468D"/>
<path d="M64.1056 8.76953L67.9526 18.3999L71.9052 8.76953H76.0161L70.0103 23.0074C69.8344 23.1135 66.4094 23.1002 65.9434 23.0649C65.8247 23.056 65.706 23.0737 65.6312 22.9544L59.7793 8.77395H64.1012L64.1056 8.76953Z" fill="#1D468D"/>
<path d="M46.9208 34.7272L51.1372 46.3676L55.7185 34.7228C56.0658 34.7979 57.1122 34.5991 57.3057 34.8332L61.6276 46.372L66.0022 34.7316H67.7961L62.6212 48.5852C62.098 48.5366 61.3814 48.6824 60.8889 48.594C60.7702 48.572 60.6867 48.5454 60.6339 48.4262L56.356 37.3778L52.0737 48.5808L50.3414 48.5985L45.0215 34.7272H46.9208Z" fill="#1D468D"/>
<path d="M120.095 28.8984V36.9429C121.168 35.5734 122.716 34.7341 124.465 34.6104C126.866 34.4425 129.223 35.1007 130.344 37.3979C130.555 37.8264 130.955 39.0987 130.955 39.536V48.5832H129.055V40.1721C129.055 39.8452 128.792 38.9043 128.651 38.5641C127.328 35.3525 122.118 35.7457 120.667 38.6304C120.513 38.9352 120.091 40.2031 120.091 40.4858V48.5832H118.191V28.8984H120.091H120.095Z" fill="#1D468D"/>
<path d="M82.1318 42.2261H70.4279C70.8192 47.0898 77.0976 48.5211 80.1797 45.1903L81.2349 46.3521L81.2437 46.4625C79.4454 48.6846 75.9633 49.144 73.3341 48.3577C65.7939 46.0959 67.3063 33.8282 76.2798 34.6057C79.0014 34.8398 82.1318 37.645 82.1318 40.4767V42.2216V42.2261ZM70.5862 40.8522H80.1797C80.3731 40.8522 80.2368 40.2249 80.206 40.0835C79.0717 34.9724 71.6985 34.9724 70.5598 40.0835C70.5202 40.2514 70.3883 40.8036 70.5862 40.8522Z" fill="#1D468D"/>
<path d="M95.7355 48.5754H93.9416V46.5654C93.247 47.4312 92.46 48.0585 91.3872 48.3943C88.8767 49.185 85.0121 48.6549 84.1855 45.7216C83.6579 43.8486 84.4669 41.9932 86.2475 41.2245C86.5113 41.1096 87.6632 40.7474 87.8787 40.7474H93.8361V39.2145C93.8361 39.1659 93.669 38.5828 93.6295 38.4679C92.693 35.6583 88.7624 36.0073 86.5905 37.0234L85.1879 37.8892C85.1967 37.5181 84.3482 36.6788 84.4933 36.4093C84.6383 36.1399 86.0585 35.4065 86.4146 35.2608C89.1229 34.1431 93.7702 34.121 95.2255 37.1824C95.3617 37.4696 95.7311 38.5298 95.7311 38.7904V48.5798L95.7355 48.5754ZM93.8361 42.1213H88.9339C88.5426 42.1213 87.483 42.4084 87.1005 42.6072C85.3286 43.5172 85.6979 46.0353 87.439 46.7995C89.3999 47.6565 92.2313 47.1087 93.3965 45.2268C93.4668 45.1164 93.8361 44.4449 93.8361 44.3963V42.1213Z" fill="#1D468D"/>
<path d="M81.8189 8.76953H77.708V23.056H81.8189V8.76953Z" fill="#1D468D"/>
<path d="M109.863 31.6445V34.7148H114.08V36.3007H109.863V45.1359C109.863 45.3214 110.246 46.121 110.391 46.3021C111.068 47.1591 112.581 47.1591 113.521 46.7969C113.697 46.7306 114.326 46.2977 114.396 46.3551C114.629 47.3005 115.487 47.6097 114.295 48.2105C112.682 49.0278 109.951 48.9129 108.764 47.4021C108.527 47.1017 107.964 46.0061 107.964 45.666V36.3007H105.432V34.7148H107.964V31.6445H109.863Z" fill="#1D468D"/>
<path d="M102.595 28.8984H100.695V48.5832H102.595V28.8984Z" fill="#1D468D"/>
<path d="M77.849 2.89042C79.0625 1.67117 82.0786 2.09967 82.338 3.97273C82.8436 7.62167 77.339 7.79395 77.1764 4.59561C77.15 4.04342 77.4621 3.27475 77.849 2.89042Z" fill="#1D468D"/>
<defs>
<linearGradient id="paint0_linear_13736_201179" x1="37.9734" y1="21.8671" x2="-0.0575451" y2="22.0859" gradientUnits="userSpaceOnUse">
<stop stop-color="#1D468D"/>
<stop offset="1" stop-color="#00B1D5"/>
</linearGradient>
</defs>
</svg>
