<svg width="32" height="32" viewBox="0 0 32 32" fill="none" xmlns="http://www.w3.org/2000/svg">
<path d="M6.66699 10.668H25.3323C25.7168 10.6679 26.0968 10.751 26.4461 10.9116C26.7955 11.0721 27.106 11.3063 27.3564 11.5981C27.6068 11.8899 27.7911 12.2324 27.8967 12.6021C28.0023 12.9718 28.0268 13.3599 27.9683 13.74L26.295 23.276C26.1497 24.2206 25.6711 25.0819 24.9456 25.7041C24.2202 26.3263 23.296 26.6682 22.3403 26.668H9.65765C8.70218 26.6679 7.77829 26.3259 7.05316 25.7037C6.32802 25.0815 5.84955 24.2203 5.70432 23.276L4.03099 13.74C3.97254 13.3599 3.99697 12.9718 4.10259 12.6021C4.20821 12.2324 4.39253 11.8899 4.64291 11.5981C4.89329 11.3063 5.20381 11.0721 5.55318 10.9116C5.90254 10.751 6.2825 10.6679 6.66699 10.668Z" stroke="#DE3924" stroke-width="1.5" stroke-linecap="round" stroke-linejoin="round"/>
<path d="M22.6667 13.332L20 5.33203" stroke="#DE3924" stroke-width="1.5" stroke-linecap="round" stroke-linejoin="round"/>
<path d="M9.33594 13.332L12.0026 5.33203" stroke="#DE3924" stroke-width="1.5" stroke-linecap="round" stroke-linejoin="round"/>
</svg>
