<svg width="20" height="20" viewBox="0 0 20 20" fill="none" xmlns="http://www.w3.org/2000/svg">
<g clip-path="url(#clip0_8927_80899)">
<path d="M9.16992 3.33398H3.33659C2.89456 3.33398 2.47064 3.50958 2.15808 3.82214C1.84552 4.1347 1.66992 4.55862 1.66992 5.00065V16.6673C1.66992 17.1093 1.84552 17.5333 2.15808 17.8458C2.47064 18.1584 2.89456 18.334 3.33659 18.334H15.0033C15.4453 18.334 15.8692 18.1584 16.1818 17.8458C16.4943 17.5333 16.6699 17.1093 16.6699 16.6673V10.834" stroke="black" stroke-width="1.25" stroke-linecap="round" stroke-linejoin="round"/>
<path d="M15.4199 2.08417C15.7514 1.75265 16.2011 1.56641 16.6699 1.56641C17.1388 1.56641 17.5884 1.75265 17.9199 2.08417C18.2514 2.41569 18.4377 2.86533 18.4377 3.33417C18.4377 3.80301 18.2514 4.25265 17.9199 4.58417L10.0033 12.5008L6.66992 13.3342L7.50326 10.0008L15.4199 2.08417Z" stroke="black" stroke-width="1.25" stroke-linecap="round" stroke-linejoin="round"/>
</g>
<defs>
<clipPath id="clip0_8927_80899">
<rect width="20" height="20" fill="white" transform="translate(0.00195312)"/>
</clipPath>
</defs>
</svg>
