<svg width="25" height="24" viewBox="0 0 25 24" fill="none" xmlns="http://www.w3.org/2000/svg">
<path d="M12.5 22L12.5 15" stroke="black" stroke-width="1.5" stroke-linecap="round" stroke-linejoin="round"/>
<path d="M9.5 19L12.5 22L15.5 19" stroke="black" stroke-width="1.5" stroke-linecap="round" stroke-linejoin="round"/>
<path d="M3.5 12H21.5" stroke="black" stroke-width="1.5" stroke-linecap="round" stroke-linejoin="round"/>
<path d="M9.5 12C9.5 11.2044 9.81607 10.4413 10.3787 9.87868C10.9413 9.31607 11.7044 9 12.5 9C13.2956 9 14.0587 9.31607 14.6213 9.87868C15.1839 10.4413 15.5 11.2044 15.5 12" stroke="black" stroke-width="1.5" stroke-linecap="round" stroke-linejoin="round"/>
<path d="M18.5 12V5C18.5 4.46957 18.2893 3.96086 17.9142 3.58579C17.5391 3.21071 17.0304 3 16.5 3H8.5C7.96957 3 7.46086 3.21071 7.08579 3.58579C6.71071 3.96086 6.5 4.46957 6.5 5V12" stroke="black" stroke-width="1.5" stroke-linecap="round" stroke-linejoin="round"/>
<path d="M12.5 6H12.51" stroke="black" stroke-width="1.5" stroke-linecap="round" stroke-linejoin="round"/>
</svg>
