<svg width="25" height="24" viewBox="0 0 25 24" fill="none" xmlns="http://www.w3.org/2000/svg">
<path d="M20.5 13V7C20.5 6.46957 20.2893 5.96086 19.9142 5.58579C19.5391 5.21071 19.0304 5 18.5 5H6.5C5.96957 5 5.46086 5.21071 5.08579 5.58579C4.71071 5.96086 4.5 6.46957 4.5 7V19C4.5 19.5304 4.71071 20.0391 5.08579 20.4142C5.46086 20.7893 5.96957 21 6.5 21H14.5" stroke="#F1F0F5" stroke-width="1.5" stroke-linecap="round" stroke-linejoin="round"/>
<path d="M16.5 3V7" stroke="#F1F0F5" stroke-width="1.5" stroke-linecap="round" stroke-linejoin="round"/>
<path d="M8.5 3V7" stroke="#F1F0F5" stroke-width="1.5" stroke-linecap="round" stroke-linejoin="round"/>
<path d="M4.5 11H12.5" stroke="#F1F0F5" stroke-width="1.5" stroke-linecap="round" stroke-linejoin="round"/>
<path d="M12.5 17C12.5 17.6566 12.6293 18.3068 12.8806 18.9134C13.1319 19.52 13.5002 20.0712 13.9645 20.5355C14.4288 20.9998 14.98 21.3681 15.5866 21.6194C16.1932 21.8707 16.8434 22 17.5 22C18.1566 22 18.8068 21.8707 19.4134 21.6194C20.02 21.3681 20.5712 20.9998 21.0355 20.5355C21.4998 20.0712 21.8681 19.52 22.1194 18.9134C22.3707 18.3068 22.5 17.6566 22.5 17C22.5 15.6739 21.9732 14.4021 21.0355 13.4645C20.0979 12.5268 18.8261 12 17.5 12C16.1739 12 14.9021 12.5268 13.9645 13.4645C13.0268 14.4021 12.5 15.6739 12.5 17Z" stroke="#F1F0F5" stroke-width="1.5" stroke-linecap="round" stroke-linejoin="round"/>
<path d="M17.5 15V17L19 18.5" stroke="#F1F0F5" stroke-width="1.5" stroke-linecap="round" stroke-linejoin="round"/>
</svg>
