<svg width="15" height="17" viewBox="0 0 15 17" fill="none" xmlns="http://www.w3.org/2000/svg">
<path fill-rule="evenodd" clip-rule="evenodd" d="M14.1667 2.5C14.1667 1.31564 12.2091 0.5 9.83333 0.5C7.45753 0.5 5.5 1.31564 5.5 2.5C5.5 3.68436 7.45753 4.5 9.83333 4.5C12.2091 4.5 14.1667 3.68436 14.1667 2.5ZM6.16667 2.5C6.16667 1.84341 7.79086 1.16667 9.83333 1.16667C11.8758 1.16667 13.5 1.84341 13.5 2.5C13.5 3.15659 11.8758 3.83333 9.83333 3.83333C7.79086 3.83333 6.16667 3.15659 6.16667 2.5Z" fill="#FF8926"/>
<path fill-rule="evenodd" clip-rule="evenodd" d="M5.5 4.5C5.5 5.68436 7.45753 6.5 9.83333 6.5C12.2091 6.5 14.1667 5.68436 14.1667 4.5V2.5H13.5V4.5C13.5 5.15659 11.8758 5.83333 9.83333 5.83333C7.79086 5.83333 6.16667 5.15659 6.16667 4.5V2.5H5.5V4.5Z" fill="#FF8926"/>
<path fill-rule="evenodd" clip-rule="evenodd" d="M5.50002 6.50604C5.50001 6.50403 5.5 6.50201 5.5 6.5V4.5H6.16667V6.5C6.16667 6.51857 6.16797 6.53716 6.17054 6.55575C5.95477 6.53135 5.73064 6.51442 5.50002 6.50604ZM8.84636 8.45148C9.16385 8.48339 9.49433 8.5 9.83333 8.5C12.2091 8.5 14.1667 7.68436 14.1667 6.5V4.5H13.5V6.5C13.5 7.15659 11.8758 7.83333 9.83333 7.83333C9.48451 7.83333 9.14788 7.81359 8.82946 7.77759C8.83203 7.79617 8.83333 7.81476 8.83333 7.83333C8.83333 7.88871 8.83822 8.1144 8.84636 8.45148Z" fill="#FF8926"/>
<path fill-rule="evenodd" clip-rule="evenodd" d="M8.89758 10.4565C9.19935 10.4851 9.51253 10.5 9.83333 10.5C12.2091 10.5 14.1667 9.68436 14.1667 8.5V6.5H13.5V8.5C13.5 9.15659 11.8758 9.83333 9.83333 9.83333C9.50291 9.83333 9.18343 9.81562 8.88001 9.78315C8.88562 9.99979 8.89153 10.2258 8.89758 10.4565ZM6.16667 6.55531V6.5H5.5V6.50604C5.72925 6.51437 5.95208 6.53114 6.16667 6.55531Z" fill="#FF8926"/>
<path fill-rule="evenodd" clip-rule="evenodd" d="M9.50065 8.5C9.50065 7.31564 7.54312 6.5 5.16732 6.5C2.79151 6.5 0.833984 7.31564 0.833984 8.5C0.833984 9.68436 2.79151 10.5 5.16732 10.5C7.54312 10.5 9.50065 9.68436 9.50065 8.5ZM1.50065 8.5C1.50065 7.84341 3.12485 7.16667 5.16732 7.16667C7.20979 7.16667 8.83398 7.84341 8.83398 8.5C8.83398 9.15659 7.20979 9.83333 5.16732 9.83333C3.12485 9.83333 1.50065 9.15659 1.50065 8.5Z" fill="#FF8926"/>
<path fill-rule="evenodd" clip-rule="evenodd" d="M0.833984 10.5C0.833984 11.6844 2.79151 12.5 5.16732 12.5C7.54312 12.5 9.50065 11.6844 9.50065 10.5V8.5H8.83398V10.5C8.83398 11.1566 7.20979 11.8333 5.16732 11.8333C3.12485 11.8333 1.50065 11.1566 1.50065 10.5V8.5H0.833984V10.5Z" fill="#FF8926"/>
<path fill-rule="evenodd" clip-rule="evenodd" d="M0.833984 12.5C0.833984 13.6844 2.79151 14.5 5.16732 14.5C7.54312 14.5 9.50065 13.6844 9.50065 12.5V10.5H8.83398V12.5C8.83398 13.1566 7.20979 13.8333 5.16732 13.8333C3.12485 13.8333 1.50065 13.1566 1.50065 12.5V10.5H0.833984V12.5Z" fill="#FF8926"/>
<path fill-rule="evenodd" clip-rule="evenodd" d="M0.833984 14.5C0.833984 15.6844 2.79151 16.5 5.16732 16.5C7.54312 16.5 9.50065 15.6844 9.50065 14.5V12.5H8.83398V14.5C8.83398 15.1566 7.20979 15.8333 5.16732 15.8333C3.12485 15.8333 1.50065 15.1566 1.50065 14.5V12.5H0.833984V14.5Z" fill="#FF8926"/>
<path fill-rule="evenodd" clip-rule="evenodd" d="M8.95158 12.4614C9.23688 12.4868 9.5321 12.5 9.83408 12.5C12.2099 12.5 14.1674 11.6844 14.1674 10.5V8.5H13.5007V10.5C13.5007 11.1566 11.8765 11.8333 9.83408 11.8333C9.52278 11.8333 9.22119 11.8176 8.93359 11.7886C8.93972 12.0185 8.94576 12.2443 8.95158 12.4614Z" fill="#FF8926"/>
<path fill-rule="evenodd" clip-rule="evenodd" d="M9.0065 14.4661C9.27497 14.4884 9.55197 14.5 9.83491 14.5C12.2107 14.5 14.1682 13.6844 14.1682 12.5V10.5H13.5016V12.5C13.5016 13.1566 11.8774 13.8333 9.83491 13.8333C9.54298 13.8333 9.2596 13.8195 8.98828 13.7939C8.99759 14.1383 9.00417 14.3805 9.0065 14.4661Z" fill="#FF8926"/>
</svg>
