<svg width="20" height="21" viewBox="0 0 20 21" fill="none" xmlns="http://www.w3.org/2000/svg">
<g id="System icon - 20">
<path id="Union" fill-rule="evenodd" clip-rule="evenodd" d="M10.0006 2.70078C5.69246 2.70078 2.20005 6.19318 2.20005 10.5013C2.20005 14.8093 5.69246 18.3017 10.0006 18.3017C14.3087 18.3017 17.8011 14.8093 17.8011 10.5013C17.8011 6.19318 14.3087 2.70078 10.0006 2.70078ZM0.800049 10.5013C0.800049 5.41997 4.91928 1.30078 10.0006 1.30078C15.0819 1.30078 19.2011 5.41997 19.2011 10.5013C19.2011 15.5825 15.0819 19.7017 10.0006 19.7017C4.91928 19.7017 0.800049 15.5825 0.800049 10.5013ZM10.4228 7.6607C10.0581 7.59814 9.6831 7.66668 9.36411 7.85419C9.04511 8.0417 8.80273 8.33609 8.67992 8.68525C8.55165 9.04995 8.15202 9.24162 7.78732 9.11335C7.42262 8.98508 7.23096 8.58545 7.35923 8.22075C7.59171 7.55974 8.05061 7.00233 8.65466 6.64726C9.25871 6.29218 9.96893 6.16238 10.6595 6.28086C11.3501 6.39933 11.9765 6.75843 12.4277 7.29452C12.8788 7.83054 13.1257 8.50893 13.1247 9.20955V9.20874H12.4247L13.1247 9.20978C13.1242 10.3365 12.2885 11.0856 11.6797 11.4916C11.3539 11.7088 11.0331 11.8687 10.7965 11.9739C10.6772 12.0269 10.5768 12.0671 10.5046 12.0947C10.4684 12.1084 10.4392 12.1191 10.4179 12.1266L10.3922 12.1356L10.3841 12.1384L10.3813 12.1394L10.3802 12.1397L10.3797 12.1399C10.3795 12.14 10.3793 12.14 10.1657 11.4994L10.3793 12.14C10.0126 12.2623 9.61614 12.0641 9.49387 11.6973C9.37175 11.3311 9.56928 10.9352 9.93512 10.8124L9.93538 10.8123L9.93586 10.8121L9.93608 10.812L9.93618 10.812C9.93636 10.812 9.93743 10.8146 10.1579 11.476L9.93654 10.8119L9.93665 10.8118L9.94885 10.8076C9.96084 10.8033 9.98028 10.7962 10.0061 10.7864C10.0579 10.7667 10.1346 10.736 10.2278 10.6946C10.4162 10.6108 10.6621 10.4874 10.903 10.3267C11.4274 9.97709 11.7247 9.59293 11.7247 9.20874L11.7247 9.2077C11.7253 8.83755 11.5949 8.47917 11.3565 8.19603C11.1182 7.91289 10.7875 7.72326 10.4228 7.6607ZM10.2193 13.7952C9.83271 13.7952 9.51931 14.1086 9.51931 14.4952C9.51931 14.8818 9.83271 15.1952 10.2193 15.1952H10.2276C10.6142 15.1952 10.9276 14.8818 10.9276 14.4952C10.9276 14.1086 10.6142 13.7952 10.2276 13.7952H10.2193Z" fill="#004F83"/>
</g>
</svg>
