<svg width="20" height="20" viewBox="0 0 20 20" fill="none" xmlns="http://www.w3.org/2000/svg">
<path d="M6.66675 10C6.66675 10.8841 7.01794 11.7319 7.64306 12.357C8.26818 12.9821 9.11603 13.3333 10.0001 13.3333C10.8841 13.3333 11.732 12.9821 12.3571 12.357C12.9822 11.7319 13.3334 10.8841 13.3334 10C13.3334 9.11595 12.9822 8.2681 12.3571 7.64298C11.732 7.01786 10.8841 6.66667 10.0001 6.66667C9.11603 6.66667 8.26818 7.01786 7.64306 7.64298C7.01794 8.2681 6.66675 9.11595 6.66675 10Z" stroke="black" stroke-width="1.5" stroke-linecap="round" stroke-linejoin="round"/>
<path d="M2.5 10C2.5 10.9849 2.69399 11.9602 3.0709 12.8701C3.44781 13.7801 4.00026 14.6069 4.6967 15.3033C5.39314 15.9997 6.21993 16.5522 7.12987 16.9291C8.03982 17.306 9.01509 17.5 10 17.5C10.9849 17.5 11.9602 17.306 12.8701 16.9291C13.7801 16.5522 14.6069 15.9997 15.3033 15.3033C15.9997 14.6069 16.5522 13.7801 16.9291 12.8701C17.306 11.9602 17.5 10.9849 17.5 10C17.5 9.01509 17.306 8.03982 16.9291 7.12987C16.5522 6.21993 15.9997 5.39314 15.3033 4.6967C14.6069 4.00026 13.7801 3.44781 12.8701 3.0709C11.9602 2.69399 10.9849 2.5 10 2.5C9.01509 2.5 8.03982 2.69399 7.12987 3.0709C6.21993 3.44781 5.39314 4.00026 4.6967 4.6967C4.00026 5.39314 3.44781 6.21993 3.0709 7.12987C2.69399 8.03982 2.5 9.01509 2.5 10Z" stroke="black" stroke-width="1.5" stroke-linecap="round" stroke-linejoin="round"/>
<path d="M12.5 12.5L15.2917 15.2917" stroke="black" stroke-width="1.5" stroke-linecap="round" stroke-linejoin="round"/>
<path d="M7.49992 12.5L4.70825 15.2917" stroke="black" stroke-width="1.5" stroke-linecap="round" stroke-linejoin="round"/>
<path d="M4.70825 4.70833L7.49992 7.49999" stroke="black" stroke-width="1.5" stroke-linecap="round" stroke-linejoin="round"/>
<path d="M15.2917 4.70833L12.5 7.49999" stroke="black" stroke-width="1.5" stroke-linecap="round" stroke-linejoin="round"/>
</svg>
