<svg width="21" height="20" viewBox="0 0 21 20" fill="none" xmlns="http://www.w3.org/2000/svg">
<path d="M3 5H4.66667H18" stroke="black" stroke-width="1.5" stroke-linecap="round" stroke-linejoin="round"/>
<path d="M16.3327 4.99984V16.6665C16.3327 17.1085 16.1571 17.5325 15.8445 17.845C15.532 18.1576 15.108 18.3332 14.666 18.3332H6.33268C5.89065 18.3332 5.46673 18.1576 5.15417 17.845C4.84161 17.5325 4.66602 17.1085 4.66602 16.6665V4.99984M7.16602 4.99984V3.33317C7.16602 2.89114 7.34161 2.46722 7.65417 2.15466C7.96673 1.8421 8.39065 1.6665 8.83268 1.6665H12.166C12.608 1.6665 13.032 1.8421 13.3445 2.15466C13.6571 2.46722 13.8327 2.89114 13.8327 3.33317V4.99984" stroke="black" stroke-width="1.5" stroke-linecap="round" stroke-linejoin="round"/>
<path d="M8.83398 9.1665V14.1665" stroke="black" stroke-width="1.5" stroke-linecap="round" stroke-linejoin="round"/>
<path d="M12.166 9.1665V14.1665" stroke="black" stroke-width="1.5" stroke-linecap="round" stroke-linejoin="round"/>
</svg>
