<svg width="68" height="68" viewBox="0 0 68 68" fill="none" xmlns="http://www.w3.org/2000/svg">
<g id="Image">
<g id="Group 21">
<path id="Vector" d="M47.9777 43.635H46.0371V40.5716C46.0371 40.3044 45.8001 40.0879 45.5078 40.0879C45.2154 40.0879 44.9785 40.3044 44.9785 40.5716V43.635C44.9785 44.1694 45.4523 44.6024 46.0371 44.6024H47.9777C48.2701 44.6024 48.507 44.3859 48.507 44.1187C48.507 43.8515 48.2701 43.635 47.9777 43.635Z" fill="white"/>
<path id="Vector_2" d="M14.1365 50.6049C17.5279 53.8543 23.031 54.5527 30.2487 54.5728C32.7255 54.6153 35.2024 54.494 37.6597 54.2103C37.874 54.1791 38.0468 54.0345 38.0994 53.8432C38.1517 53.6519 38.0735 53.4507 37.9006 53.3318C35.0096 51.4035 33.1621 48.4448 32.8231 45.1999C32.484 41.9552 33.6852 38.7332 36.1249 36.3448C38.5645 33.9561 42.0104 32.6286 45.5949 32.6956C45.7941 32.7023 45.9808 32.6087 46.0809 32.4521C46.181 32.2956 46.1778 32.1016 46.0729 31.9477C43.4934 28.153 40.0125 25.0276 37.9325 23.3329C38.3331 22.7897 38.4463 22.1132 38.242 21.4863C38.0377 20.8594 37.5373 20.3477 36.8762 20.0902C37.5552 18.8393 38.3167 17.3896 38.6365 16.6417C38.8543 16.1594 38.9005 15.6273 38.7684 15.1199C38.6362 14.6125 38.3325 14.1556 37.9001 13.8136C37.4687 13.4763 36.9289 13.2757 36.3612 13.2415C35.7937 13.2071 35.2292 13.3415 34.7529 13.6241C34.3006 13.9031 33.7778 14.0728 33.2335 14.1172C32.4935 14.1172 32.3373 13.9921 32.1773 13.7253C31.5986 12.759 28.8995 12.7575 28.3263 13.7253C28.1689 13.9912 28.0139 14.1172 27.2701 14.1172C26.7258 14.0728 26.2027 13.9031 25.7504 13.6241C25.2747 13.3418 24.7115 13.2074 24.1447 13.241C23.5779 13.2745 23.0384 13.4742 22.6069 13.8104C22.1739 14.1521 21.8699 14.609 21.7377 15.1164C21.6056 15.624 21.6521 16.1562 21.8705 16.6385C22.147 17.3015 22.7795 18.5195 23.3864 19.6625L19.8693 18.2125C19.2397 17.9529 18.5062 18.0183 17.9439 18.3842C17.3819 18.7498 17.0772 19.3607 17.1445 19.9859C17.2122 20.6113 17.6414 21.1566 18.271 21.4161L20.4515 22.3173L16.8197 23.5128C16.3026 23.677 15.8793 24.0225 15.6438 24.4722C15.4087 24.9218 15.3812 25.4385 15.5672 25.9068C15.7532 26.3751 16.1378 26.7562 16.6347 26.9656C17.1318 27.1746 17.7005 27.1944 18.2137 27.0204L18.6592 26.8734C15.1569 30.4296 11.3233 35.4949 11.0327 40.8507C10.7992 45.1874 11.8159 48.3775 14.1365 50.6049ZM29.8381 36.6605H30.6666C31.2703 36.6613 31.8551 36.852 32.3214 37.2002C32.7881 37.5483 33.1075 38.0326 33.2259 38.5709C32.7926 39.3299 32.4472 40.1279 32.1953 40.9519C31.7861 41.2213 31.2992 41.3768 30.7943 41.3986V42.4212C30.7943 42.6918 30.5531 42.911 30.2555 42.911C29.9578 42.911 29.7166 42.6918 29.7166 42.4212V41.4044H29.4267C28.8445 41.4039 28.2864 41.1933 27.8749 40.8192C27.463 40.4449 27.2315 39.9375 27.2311 39.4083C27.2311 39.1377 27.4723 38.9184 27.77 38.9184C28.0677 38.9184 28.3089 39.1377 28.3089 39.4083C28.3095 39.9693 28.8096 40.4241 29.4267 40.4247H30.6696C31.2171 40.4247 31.7233 40.1594 31.9969 39.7282C32.2708 39.2972 32.2708 38.7662 31.9969 38.335C31.7233 37.904 31.2171 37.6384 30.6696 37.6384H29.8382C28.9205 37.6393 28.0699 37.2016 27.5984 36.486C27.1266 35.7705 27.1032 34.8823 27.5368 34.1469C27.9702 33.4119 28.7968 32.9378 29.7135 32.8986V31.8761C29.7135 31.6055 29.9547 31.3862 30.2524 31.3862C30.55 31.3862 30.7912 31.6055 30.7912 31.8761V32.8928H31.0818C31.664 32.8934 32.2221 33.1039 32.6339 33.478C33.0454 33.8524 33.277 34.3597 33.2773 34.889C33.2773 35.1596 33.0361 35.3788 32.7385 35.3788C32.4411 35.3788 32.1996 35.1596 32.1996 34.889C32.199 34.328 31.6989 33.8734 31.0818 33.8725H29.8389C29.2913 33.8725 28.7852 34.1379 28.5116 34.5691C28.238 35.0001 28.238 35.5311 28.5116 35.962C28.7852 36.3932 29.2914 36.6586 29.8389 36.6586L29.8381 36.6605ZM23.3477 21.6381C23.4632 21.3842 23.6697 21.173 23.9337 21.0392C24.198 20.9051 24.504 20.8561 24.8026 20.9001C28.4139 21.4095 32.0905 21.4095 35.7014 20.9001C36.0001 20.8564 36.3061 20.9054 36.57 21.0392C36.834 21.1731 37.0406 21.3842 37.1564 21.6381C37.3081 21.974 37.2898 22.3534 37.1066 22.6758C36.9232 22.9983 36.5934 23.2316 36.2044 23.3135C32.2825 24.0938 28.2211 24.0938 24.2997 23.3135C23.9097 23.2316 23.579 22.998 23.3955 22.6747C23.2123 22.3513 23.1947 21.9711 23.3477 21.6349L23.3477 21.6381ZM18.7169 20.5278C18.5056 20.4447 18.3401 20.2881 18.257 20.093C18.1742 19.898 18.181 19.6807 18.2759 19.4903C18.3705 19.2996 18.546 19.1518 18.7619 19.0798C18.9777 19.0078 19.2167 19.0177 19.4245 19.1072L22.8983 20.5377C22.5278 20.8613 22.2825 21.285 22.1981 21.746L21.9037 21.8408L18.7169 20.5278ZM17.8477 26.1023C17.3435 26.2629 16.7905 26.0244 16.6093 25.5672C16.4281 25.1103 16.6856 24.6059 17.1866 24.4367L22.2734 22.7613C22.3369 22.9613 22.4351 23.1512 22.5644 23.3232C21.9107 23.8588 21.1309 24.5216 20.2902 25.2958L17.8477 26.1023Z" fill="white"/>
<path id="Vector_3" d="M45.4999 33.791C42.45 33.791 39.525 34.8925 37.368 36.853C35.2114 38.8139 33.9998 41.473 33.9998 44.2457C33.9998 47.0183 35.2114 49.6775 37.368 51.6383C39.525 53.5989 42.45 54.7003 45.4999 54.7003C48.5499 54.7003 51.4749 53.5989 53.6318 51.6383C55.7884 49.6775 57.0001 47.0183 57.0001 44.2457C56.9962 41.4739 55.7834 38.8171 53.6273 36.8571C51.4713 34.8972 48.5489 33.7945 45.4999 33.791ZM45.4999 50.9434C43.5462 50.9434 41.6722 50.2378 40.2906 48.9816C38.9089 47.7256 38.1326 46.022 38.1326 44.2458C38.1326 42.4697 38.9088 40.7661 40.2906 39.51C41.6722 38.254 43.5462 37.5483 45.4999 37.5483C47.4537 37.5483 49.3277 38.2539 50.7093 39.51C52.091 40.7661 52.8673 42.4697 52.8673 44.2458C52.8647 46.0214 52.0875 47.7235 50.7065 48.979C49.3254 50.2346 47.4532 50.941 45.4999 50.9434Z" fill="white"/>
</g>
</g>
</svg>
