<svg width="25" height="24" viewBox="0 0 25 24" fill="none" xmlns="http://www.w3.org/2000/svg">
<path d="M7.70382 15.9513C9.81847 15.9513 11.551 14.2825 11.6465 12.187C11.914 12.0851 12.2197 12.0405 12.5 12.0405C12.7803 12.0405 13.086 12.0851 13.3535 12.187C13.4554 14.2825 15.1815 15.9513 17.3025 15.9513C19.3025 15.9513 20.9522 14.4673 21.2197 12.5437H22.0287C22.3344 12.5437 22.5 12.3717 22.5 12.0596V11.5819C22.5 11.2634 22.3408 11.1042 22.0287 11.1042H21.1561C20.7484 9.35261 19.1815 8.04688 17.3025 8.04688C15.4873 8.04688 13.9522 9.2698 13.4936 10.945C13.1752 10.8239 12.7994 10.773 12.5 10.773C12.2006 10.773 11.8312 10.8239 11.5127 10.945C11.0478 9.2698 9.51911 8.04688 7.70382 8.04688C5.82484 8.04688 4.25159 9.35261 3.85032 11.1042H2.97771C2.66561 11.1042 2.5 11.2634 2.5 11.5819V12.0596C2.5 12.3717 2.66561 12.5437 2.97771 12.5437H3.78662C4.04777 14.4673 5.70382 15.9513 7.70382 15.9513ZM7.70382 14.6201C6.25159 14.6201 5.07325 13.4481 5.07325 11.9959C5.07325 10.5501 6.25159 9.37809 7.70382 9.37809C9.14331 9.37809 10.3217 10.5501 10.3217 11.9959C10.3217 13.4418 9.14331 14.6201 7.70382 14.6201ZM17.3025 14.6201C15.8567 14.6201 14.6783 13.4418 14.6783 11.9959C14.6783 10.5501 15.8567 9.37809 17.3025 9.37809C18.7548 9.37809 19.9268 10.5501 19.9268 11.9959C19.9268 13.4481 18.7548 14.6201 17.3025 14.6201Z" fill="#FF8926"/>
</svg>
