<svg width="14" height="14" viewBox="0 0 14 14" fill="none" xmlns="http://www.w3.org/2000/svg">
<path d="M7 0C8.85652 0 10.6374 0.73705 11.9502 2.0498C13.2629 3.36256 14 5.14348 14 7C14 7.91925 13.8186 8.82943 13.4668 9.67871C13.115 10.528 12.6002 11.3002 11.9502 11.9502C11.3002 12.6002 10.528 13.115 9.67871 13.4668C8.82943 13.8186 7.91925 14 7 14C6.08075 14 5.17057 13.8186 4.32129 13.4668C3.47204 13.115 2.6998 12.6002 2.0498 11.9502C1.39981 11.3002 0.884985 10.528 0.533203 9.67871C0.18142 8.82943 -1.36979e-08 7.91925 0 7C5.92349e-08 5.14348 0.73705 3.36256 2.0498 2.0498C3.36256 0.73705 5.14348 3.15705e-08 7 0ZM6 6.375C5.65482 6.375 5.375 6.65482 5.375 7C5.375 7.34518 5.65482 7.625 6 7.625H6.375V9.375H6C5.65482 9.375 5.375 9.65482 5.375 10C5.375 10.3452 5.65482 10.625 6 10.625H8C8.34518 10.625 8.625 10.3452 8.625 10C8.625 9.65482 8.34518 9.375 8 9.375H7.625V7C7.625 6.65482 7.34518 6.375 7 6.375H6ZM7 3.5C6.73478 3.5 6.4805 3.60543 6.29297 3.79297C6.10543 3.98051 6 4.23478 6 4.5C6 4.63132 6.02592 4.76149 6.07617 4.88281C6.12643 5.00409 6.20014 5.11421 6.29297 5.20703C6.38579 5.29986 6.49591 5.37357 6.61719 5.42383C6.73851 5.47408 6.86868 5.5 7 5.5C7.13132 5.5 7.26149 5.47408 7.38281 5.42383C7.50409 5.37357 7.61421 5.29986 7.70703 5.20703C7.79986 5.11421 7.87357 5.00409 7.92383 4.88281C7.97408 4.76149 8 4.63132 8 4.5C8 4.23478 7.89457 3.98051 7.70703 3.79297C7.5195 3.60543 7.26522 3.5 7 3.5Z" fill="black"/>
</svg>
