<svg width="16" height="16" viewBox="0 0 16 16" fill="none" xmlns="http://www.w3.org/2000/svg">
<path d="M8.00216 1.09375C7.78235 1.09409 7.57164 1.17891 7.41621 1.32962C7.26078 1.48034 7.17331 1.68465 7.17295 1.89779V9.18626L4.55266 7.06938C4.38366 6.93313 4.16583 6.86744 3.94695 6.88674C3.72807 6.90603 3.52602 7.00873 3.38513 7.1723C3.24461 7.33616 3.17687 7.54739 3.19677 7.75963C3.21667 7.97186 3.32258 8.16778 3.49127 8.30439L7.47147 11.5206C7.51326 11.5493 7.55767 11.5743 7.60414 11.5952C7.63445 11.6149 7.66615 11.6325 7.699 11.6479C7.79465 11.687 7.89739 11.7071 8.00117 11.7071C8.10495 11.7071 8.20768 11.687 8.30333 11.6479C8.33537 11.6324 8.36639 11.615 8.3962 11.5958C8.44266 11.5749 8.48706 11.5499 8.52887 11.5212L12.5091 8.30503C12.6399 8.19951 12.7341 8.05752 12.7788 7.89832C12.8236 7.73912 12.8167 7.57042 12.7592 7.41513C12.7017 7.25983 12.5963 7.12545 12.4573 7.03023C12.3184 6.93501 12.1525 6.88355 11.9824 6.88284C11.7885 6.8832 11.6008 6.94917 11.4517 7.06938L8.83137 9.18626V1.89779C8.83102 1.68465 8.74354 1.48034 8.58811 1.32962C8.43268 1.17891 8.22197 1.09409 8.00216 1.09375Z" fill="black" stroke="#F4F4F4" stroke-width="0.5"/>
<path d="M14.0437 10.1074C13.8434 10.1078 13.6514 10.1922 13.5098 10.3421C13.3681 10.4921 13.2884 10.6954 13.2881 10.9074V12.8274C13.2878 12.9546 13.2399 13.0765 13.155 13.1665C13.07 13.2564 12.9549 13.3071 12.8348 13.3074H3.16366C3.04353 13.3071 2.92841 13.2564 2.84346 13.1665C2.75851 13.0765 2.71065 12.9546 2.71033 12.8274V10.9074C2.71033 10.6952 2.63073 10.4918 2.48903 10.3417C2.34734 10.1917 2.15516 10.1074 1.95477 10.1074C1.75439 10.1074 1.56221 10.1917 1.42052 10.3417C1.27882 10.4918 1.19922 10.6952 1.19922 10.9074V12.8274C1.19986 13.3789 1.40703 13.9075 1.7753 14.2975C2.14356 14.6874 2.64286 14.9067 3.16366 14.9074H12.8348C13.3556 14.9067 13.8549 14.6874 14.2231 14.2975C14.5914 13.9075 14.7986 13.3789 14.7992 12.8274V10.9074C14.7989 10.6954 14.7192 10.4921 14.5776 10.3421C14.4359 10.1922 14.2439 10.1078 14.0437 10.1074Z" fill="black" stroke="#F4F4F4" stroke-width="0.5"/>
</svg>
