<svg width="20" height="20" viewBox="0 0 20 20" fill="none" xmlns="http://www.w3.org/2000/svg">
<path d="M10.0012 1.3667C9.72647 1.36712 9.46309 1.47315 9.2688 1.66154C9.07451 1.84993 8.96517 2.10532 8.96473 2.37175V11.4823L5.68936 8.83624C5.47811 8.66592 5.20582 8.58381 4.93222 8.60793C4.65862 8.63205 4.40606 8.76042 4.22995 8.96488C4.0543 9.16972 3.96962 9.43375 3.9945 9.69904C4.01937 9.96434 4.15176 10.2092 4.36262 10.38L9.33787 14.4002C9.39011 14.4361 9.44562 14.4673 9.50371 14.4935C9.5416 14.5181 9.58123 14.5401 9.62229 14.5594C9.74185 14.6082 9.87027 14.6333 9.99999 14.6333C10.1297 14.6333 10.2581 14.6082 10.3777 14.5594C10.4178 14.54 10.4565 14.5183 10.4938 14.4943C10.5519 14.4681 10.6074 14.4369 10.6596 14.401L15.6349 10.3808C15.7984 10.2489 15.9161 10.0714 15.9721 9.87241C16.028 9.67341 16.0195 9.46254 15.9476 9.26842C15.8757 9.0743 15.7439 8.90633 15.5702 8.7873C15.3965 8.66827 15.1892 8.60395 14.9765 8.60307C14.7341 8.60351 14.4995 8.68598 14.3131 8.83624L11.0377 11.4823V2.37175C11.0373 2.10532 10.928 1.84993 10.7337 1.66154C10.5394 1.47315 10.276 1.36712 10.0012 1.3667Z" fill="#F04E39"/>
<path d="M17.5556 12.6333C17.3052 12.6337 17.0652 12.7392 16.8882 12.9267C16.7111 13.1141 16.6115 13.3682 16.6111 13.6333V16.0333C16.6107 16.1923 16.5509 16.3447 16.4447 16.4571C16.3385 16.5695 16.1946 16.6329 16.0444 16.6333H3.95556C3.80539 16.6329 3.66149 16.5695 3.5553 16.4571C3.44912 16.3447 3.38929 16.1923 3.38889 16.0333V13.6333C3.38889 13.3681 3.28939 13.1137 3.11227 12.9262C2.93515 12.7387 2.69493 12.6333 2.44444 12.6333C2.19396 12.6333 1.95374 12.7387 1.77662 12.9262C1.5995 13.1137 1.5 13.3681 1.5 13.6333V16.0333C1.5008 16.7226 1.75977 17.3834 2.2201 17.8708C2.68043 18.3583 3.30455 18.6325 3.95556 18.6333H16.0444C16.6955 18.6325 17.3196 18.3583 17.7799 17.8708C18.2402 17.3834 18.4992 16.7226 18.5 16.0333V13.6333C18.4996 13.3682 18.4 13.1141 18.2229 12.9267C18.0459 12.7392 17.8059 12.6337 17.5556 12.6333Z" fill="#F04E39"/>
</svg>
