<svg width="48" height="48" viewBox="0 0 48 48" fill="none" xmlns="http://www.w3.org/2000/svg">
<path d="M0 24C0 10.7452 10.7452 0 24 0C37.2548 0 48 10.7452 48 24C48 37.2548 37.2548 48 24 48C10.7452 48 0 37.2548 0 24Z" fill="#F8F7FA"/>
<path d="M26 31L29 31C29.5304 31 30.0391 30.7893 30.4142 30.4142C30.7893 30.0391 31 29.5304 31 29L31 23M31 23L28 26M31 23L34 26" stroke="#78787A" stroke-width="1.5" stroke-linecap="round" stroke-linejoin="round"/>
<path d="M22 17L19 17C18.4696 17 17.9609 17.2107 17.5858 17.5858C17.2107 17.9609 17 18.4696 17 19L17 25M17 25L20 22M17 25L14 22" stroke="#78787A" stroke-width="1.5" stroke-linecap="round" stroke-linejoin="round"/>
<path d="M31 17L17 31" stroke="#78787A" stroke-width="1.5" stroke-linecap="round" stroke-linejoin="round"/>
</svg>
