<svg width="24" height="24" viewBox="0 0 24 24" fill="none" xmlns="http://www.w3.org/2000/svg">
<path d="M4 7C4 6.20435 4.31607 5.44129 4.87868 4.87868C5.44129 4.31607 6.20435 4 7 4H17C17.7956 4 18.5587 4.31607 19.1213 4.87868C19.6839 5.44129 20 6.20435 20 7V17C20 17.7956 19.6839 18.5587 19.1213 19.1213C18.5587 19.6839 17.7956 20 17 20H7C6.20435 20 5.44129 19.6839 4.87868 19.1213C4.31607 18.5587 4 17.7956 4 17V7Z" stroke="black" stroke-width="1.5" stroke-linecap="round" stroke-linejoin="round"/>
<path d="M8 8V16" stroke="black" stroke-width="1.5" stroke-linecap="round" stroke-linejoin="round"/>
<path d="M12 12C12 12.2626 12.0517 12.5227 12.1522 12.7654C12.2528 13.008 12.4001 13.2285 12.5858 13.4142C12.7715 13.5999 12.992 13.7472 13.2346 13.8478C13.4773 13.9483 13.7374 14 14 14C14.2626 14 14.5227 13.9483 14.7654 13.8478C15.008 13.7472 15.2285 13.5999 15.4142 13.4142C15.5999 13.2285 15.7472 13.008 15.8478 12.7654C15.9483 12.5227 16 12.2626 16 12C16 11.7374 15.9483 11.4773 15.8478 11.2346C15.7472 10.992 15.5999 10.7715 15.4142 10.5858C15.2285 10.4001 15.008 10.2528 14.7654 10.1522C14.5227 10.0517 14.2626 10 14 10C13.7374 10 13.4773 10.0517 13.2346 10.1522C12.992 10.2528 12.7715 10.4001 12.5858 10.5858C12.4001 10.7715 12.2528 10.992 12.1522 11.2346C12.0517 11.4773 12 11.7374 12 12Z" stroke="black" stroke-width="1.5" stroke-linecap="round" stroke-linejoin="round"/>
</svg>
