<svg width="24" height="24" viewBox="0 0 24 24" fill="none" xmlns="http://www.w3.org/2000/svg">
<path d="M10.5849 10.5869C10.2099 10.9621 9.9993 11.4708 9.99939 12.0013C9.99948 12.5317 10.2103 13.0404 10.5854 13.4154C10.9606 13.7904 11.4693 14.0011 11.9998 14.001C12.5302 14.0009 13.0389 13.7901 13.4139 13.4149" stroke="#6A696B" stroke-width="1.5" stroke-linecap="round" stroke-linejoin="round"/>
<path d="M16.681 16.673C15.2782 17.5507 13.6547 18.0109 12 18C8.4 18 5.4 16 3 12C4.272 9.88003 5.712 8.32203 7.32 7.32603M10.18 6.18003C10.779 6.05876 11.3888 5.99845 12 6.00003C15.6 6.00003 18.6 8.00003 21 12C20.334 13.11 19.621 14.067 18.862 14.87" stroke="#6A696B" stroke-width="1.5" stroke-linecap="round" stroke-linejoin="round"/>
<path d="M3 3L21 21" stroke="#6A696B" stroke-width="1.5" stroke-linecap="round" stroke-linejoin="round"/>
</svg>
