<svg width="20" height="21" viewBox="0 0 20 21" fill="none" xmlns="http://www.w3.org/2000/svg">
<path d="M2.5 6.2181V4.55143C2.5 4.1094 2.67559 3.68548 2.98816 3.37292C3.30072 3.06036 3.72464 2.88477 4.16667 2.88477H5.83333" stroke="black" stroke-width="1.5" stroke-linecap="round" stroke-linejoin="round"/>
<path d="M2.5 14.5518V16.2184C2.5 16.6605 2.67559 17.0844 2.98816 17.3969C3.30072 17.7095 3.72464 17.8851 4.16667 17.8851H5.83333" stroke="black" stroke-width="1.5" stroke-linecap="round" stroke-linejoin="round"/>
<path d="M14.1667 2.88477H15.8334C16.2754 2.88477 16.6994 3.06036 17.0119 3.37292C17.3245 3.68548 17.5001 4.1094 17.5001 4.55143V6.2181" stroke="black" stroke-width="1.5" stroke-linecap="round" stroke-linejoin="round"/>
<path d="M14.1667 17.8851H15.8334C16.2754 17.8851 16.6994 17.7095 17.0119 17.3969C17.3245 17.0844 17.5001 16.6605 17.5001 16.2184V14.5518" stroke="black" stroke-width="1.5" stroke-linecap="round" stroke-linejoin="round"/>
<circle cx="9.99992" cy="10.3844" r="3.41667" stroke="black" stroke-width="1.5"/>
</svg>
