<svg width="18" height="18" viewBox="0 0 18 18" fill="none" xmlns="http://www.w3.org/2000/svg">
<path d="M6.90106 7.57468H0.672356C0.301216 7.57468 0 7.26048 0 6.8723C0 6.48412 0.301216 6.16992 0.672356 6.16992H6.90106C7.2722 6.16992 7.57341 6.48412 7.57341 6.8723C7.57341 7.26048 7.27264 7.57468 6.90106 7.57468Z" fill="#FF8926"/>
<path d="M6.90144 7.57493C6.82479 7.57493 6.74679 7.56135 6.67059 7.53232C6.32187 7.39934 6.14212 6.9957 6.26942 6.6314L8.42634 0.462662C8.55364 0.0978939 8.93957 -0.0889386 9.28875 0.0435765C9.63748 0.17656 9.81722 0.580193 9.68992 0.944493L7.53345 7.11324C7.4335 7.3984 7.17621 7.57493 6.90144 7.57493Z" fill="#FF8926"/>
<path d="M11.3796 7.51398C11.112 7.51398 10.8596 7.34635 10.7543 7.07055L8.43243 0.962206C8.29527 0.601653 8.46426 0.193338 8.8094 0.0500528C9.15409 -0.0937004 9.54495 0.0828304 9.68256 0.443384L12.0044 6.55172C12.1416 6.91228 11.9726 7.32059 11.6275 7.46388C11.5463 7.49759 11.4621 7.51398 11.3796 7.51398Z" fill="#FF8926"/>
<path d="M17.3275 7.51315H11.3794C11.0082 7.51315 10.707 7.19896 10.707 6.81078C10.707 6.4226 11.0082 6.1084 11.3794 6.1084H17.3275C17.6986 6.1084 17.9998 6.4226 17.9998 6.81078C17.9998 7.19896 17.6986 7.51315 17.3275 7.51315Z" fill="#FF8926"/>
<path d="M12.7135 11.5514C12.5212 11.5514 12.3307 11.4657 12.1981 11.2999C11.9596 11.0026 11.9968 10.5596 12.2819 10.3105L16.8956 6.27229C17.1798 6.02318 17.6047 6.06252 17.8422 6.35986C18.0807 6.65719 18.0435 7.10016 17.7584 7.34927L13.1447 11.3875C13.0192 11.4975 12.8659 11.5514 12.7135 11.5514Z" fill="#FF8926"/>
<path d="M14.6175 17.9998C14.3301 17.9998 14.0648 17.806 13.9751 17.5044L12.071 11.0561C11.9617 10.6853 12.1607 10.2924 12.5152 10.1782C12.8702 10.063 13.2467 10.2718 13.3561 10.6422L15.2607 17.09C15.37 17.4609 15.171 17.8538 14.8165 17.968C14.7501 17.9895 14.6833 17.9998 14.6175 17.9998Z" fill="#FF8926"/>
<path d="M14.6168 17.9993C14.4922 17.9993 14.3662 17.9632 14.2537 17.8878L8.69376 14.1568C8.38134 13.947 8.29079 13.5125 8.4916 13.1861C8.69197 12.8593 9.10883 12.7656 9.42035 12.9745L14.9803 16.7055C15.2927 16.9153 15.3832 17.3498 15.1824 17.6762C15.0547 17.8855 14.8377 17.9993 14.6168 17.9993Z" fill="#FF8926"/>
<path d="M3.54785 17.9994C3.32777 17.9994 3.11172 17.8866 2.98308 17.6792C2.78137 17.3537 2.87012 16.9187 3.18164 16.7075L8.69317 12.9765C9.00379 12.7653 9.42065 12.858 9.62281 13.1839C9.82452 13.5094 9.73576 13.9444 9.42424 14.1556L3.91272 17.8866C3.79976 17.9634 3.67336 17.9994 3.54785 17.9994Z" fill="#FF8926"/>
<path d="M3.54717 18.0002C3.48172 18.0002 3.41449 17.9899 3.3486 17.9688C2.99359 17.8541 2.79547 17.4608 2.90529 17.0904L4.81612 10.6421C4.92594 10.2717 5.30291 10.0652 5.65702 10.1785C6.01202 10.2932 6.21014 10.6866 6.10032 11.0569L4.18949 17.5052C4.09984 17.8068 3.83449 18.0002 3.54717 18.0002Z" fill="#FF8926"/>
<path d="M5.45678 11.5522C5.31156 11.5522 5.16498 11.5035 5.04172 11.4019L0.401568 7.59265C0.109766 7.3529 0.0586662 6.91134 0.288163 6.60651C0.517661 6.30168 0.940796 6.24783 1.23215 6.48851L5.8723 10.2977C6.1641 10.5375 6.2152 10.979 5.9857 11.2839C5.85303 11.4599 5.6558 11.5522 5.45678 11.5522Z" fill="#FF8926"/>
</svg>
