<svg width="20" height="20" viewBox="0 0 20 20" fill="none" xmlns="http://www.w3.org/2000/svg">
<path d="M7.90106 8.57468H1.67236C1.30122 8.57468 1 8.26048 1 7.8723C1 7.48412 1.30122 7.16992 1.67236 7.16992H7.90106C8.2722 7.16992 8.57341 7.48412 8.57341 7.8723C8.57341 8.26048 8.27264 8.57468 7.90106 8.57468Z" fill="#FF8926"/>
<path d="M7.90095 8.57396C7.8243 8.57396 7.74631 8.56038 7.67011 8.53135C7.32138 8.39836 7.14164 7.99473 7.26894 7.63043L9.42585 1.46169C9.55315 1.09692 9.93908 0.910085 10.2883 1.0426C10.637 1.17558 10.8167 1.57922 10.6894 1.94352L8.53296 8.11226C8.43301 8.39743 8.17572 8.57396 7.90095 8.57396Z" fill="#FF8926"/>
<path d="M12.3801 8.51398C12.1125 8.51398 11.8601 8.34635 11.7548 8.07055L9.43292 1.96221C9.29576 1.60165 9.46474 1.19334 9.80989 1.05005C10.1546 0.9063 10.5454 1.08283 10.6831 1.44338L13.0049 7.55172C13.1421 7.91228 12.9731 8.32059 12.628 8.46388C12.5468 8.49759 12.4626 8.51398 12.3801 8.51398Z" fill="#FF8926"/>
<path d="M18.3275 8.51413H12.3794C12.0082 8.51413 11.707 8.19993 11.707 7.81175C11.707 7.42357 12.0082 7.10938 12.3794 7.10938H18.3275C18.6986 7.10938 18.9998 7.42357 18.9998 7.81175C18.9998 8.19993 18.6986 8.51413 18.3275 8.51413Z" fill="#FF8926"/>
<path d="M13.714 12.5523C13.5217 12.5523 13.3312 12.4666 13.1985 12.3009C12.9601 12.0035 12.9973 11.5606 13.2824 11.3115L17.8961 7.27327C18.1802 7.02416 18.6052 7.06349 18.8427 7.36083C19.0812 7.65817 19.044 8.10114 18.7589 8.35025L14.1452 12.3884C14.0197 12.4985 13.8664 12.5523 13.714 12.5523Z" fill="#FF8926"/>
<path d="M15.6175 18.9998C15.3301 18.9998 15.0648 18.806 14.9751 18.5044L13.071 12.0561C12.9617 11.6853 13.1607 11.2924 13.5152 11.1782C13.8702 11.063 14.2467 11.2718 14.3561 11.6422L16.2607 18.09C16.37 18.4609 16.171 18.8538 15.8165 18.968C15.7501 18.9895 15.6833 18.9998 15.6175 18.9998Z" fill="#FF8926"/>
<path d="M15.6172 18.9993C15.4926 18.9993 15.3667 18.9632 15.2542 18.8878L9.69425 15.1568C9.38183 14.947 9.29128 14.5125 9.49209 14.1861C9.69245 13.8593 10.1093 13.7656 10.4208 13.9745L15.9808 17.7055C16.2932 17.9153 16.3837 18.3498 16.1829 18.6762C16.0552 18.8855 15.8382 18.9993 15.6172 18.9993Z" fill="#FF8926"/>
<path d="M4.54688 18.9994C4.32679 18.9994 4.11074 18.8866 3.9821 18.6792C3.78039 18.3537 3.86914 17.9187 4.18067 17.7075L9.69219 13.9765C10.0028 13.7653 10.4197 13.858 10.6218 14.1839C10.8235 14.5094 10.7348 14.9444 10.4233 15.1556L4.91174 18.8866C4.79879 18.9634 4.67238 18.9994 4.54688 18.9994Z" fill="#FF8926"/>
<path d="M4.54668 18.9992C4.48123 18.9992 4.414 18.9889 4.34811 18.9678C3.9931 18.8531 3.79498 18.4598 3.9048 18.0894L5.81564 11.6411C5.92545 11.2707 6.30242 11.0642 6.65653 11.1775C7.01153 11.2922 7.20965 11.6856 7.09983 12.056L5.189 18.5043C5.09935 18.8058 4.834 18.9992 4.54668 18.9992Z" fill="#FF8926"/>
<path d="M6.45678 12.5522C6.31156 12.5522 6.16498 12.5035 6.04172 12.4019L1.40157 8.59265C1.10977 8.3529 1.05867 7.91134 1.28816 7.60651C1.51766 7.30168 1.9408 7.24783 2.23215 7.48851L6.8723 11.2977C7.1641 11.5375 7.2152 11.979 6.9857 12.2839C6.85303 12.4599 6.6558 12.5522 6.45678 12.5522Z" fill="#FF8926"/>
<path d="M7.95481 7.95384H2.22754L6.31845 12.0447L4.68208 18.1811L10.0003 14.9084L15.3184 18.1811L13.6821 12.0447L17.773 7.95384H12.4548L10.0003 2.22656L7.95481 7.95384Z" fill="#FF8926"/>
</svg>
