<svg width="19" height="18" viewBox="0 0 19 18" fill="none" xmlns="http://www.w3.org/2000/svg">
<path d="M7.40106 7.57468H1.17236C0.801216 7.57468 0.5 7.26048 0.5 6.8723C0.5 6.48412 0.801216 6.16992 1.17236 6.16992H7.40106C7.7722 6.16992 8.07341 6.48412 8.07341 6.8723C8.07341 7.26048 7.77264 7.57468 7.40106 7.57468Z" fill="white"/>
<path d="M7.40144 7.57493C7.32479 7.57493 7.24679 7.56135 7.17059 7.53232C6.82187 7.39934 6.64212 6.9957 6.76942 6.6314L8.92634 0.462662C9.05364 0.0978939 9.43957 -0.0889386 9.78875 0.0435765C10.1375 0.17656 10.3172 0.580193 10.1899 0.944493L8.03345 7.11324C7.9335 7.3984 7.67621 7.57493 7.40144 7.57493Z" fill="white"/>
<path d="M11.8796 7.51398C11.612 7.51398 11.3596 7.34635 11.2543 7.07055L8.93243 0.962206C8.79527 0.601653 8.96426 0.193338 9.3094 0.0500528C9.65409 -0.0937004 10.045 0.0828304 10.1826 0.443384L12.5044 6.55172C12.6416 6.91228 12.4726 7.32059 12.1275 7.46388C12.0463 7.49759 11.9621 7.51398 11.8796 7.51398Z" fill="white"/>
<path d="M17.8275 7.51315H11.8794C11.5082 7.51315 11.207 7.19896 11.207 6.81078C11.207 6.4226 11.5082 6.1084 11.8794 6.1084H17.8275C18.1986 6.1084 18.4998 6.4226 18.4998 6.81078C18.4998 7.19896 18.1986 7.51315 17.8275 7.51315Z" fill="white"/>
<path d="M13.2145 11.5514C13.0222 11.5514 12.8317 11.4657 12.699 11.2999C12.4606 11.0026 12.4978 10.5596 12.7828 10.3105L17.3965 6.27229C17.6807 6.02318 18.1057 6.06252 18.3432 6.35986C18.5817 6.65719 18.5445 7.10016 18.2594 7.34927L13.6457 11.3875C13.5202 11.4975 13.3669 11.5514 13.2145 11.5514Z" fill="white"/>
<path d="M15.1175 17.9998C14.8301 17.9998 14.5648 17.806 14.4751 17.5044L12.571 11.0561C12.4617 10.6853 12.6607 10.2924 13.0152 10.1782C13.3702 10.063 13.7467 10.2718 13.8561 10.6422L15.7607 17.09C15.87 17.4609 15.671 17.8538 15.3165 17.968C15.2501 17.9895 15.1833 17.9998 15.1175 17.9998Z" fill="white"/>
<path d="M15.1177 17.9993C14.9931 17.9993 14.8672 17.9632 14.7547 17.8878L9.19474 14.1568C8.88231 13.947 8.79177 13.5125 8.99258 13.1861C9.19294 12.8593 9.6098 12.7656 9.92133 12.9745L15.4813 16.7055C15.7937 16.9153 15.8842 17.3498 15.6834 17.6762C15.5557 17.8855 15.3387 17.9993 15.1177 17.9993Z" fill="white"/>
<path d="M4.04688 17.9994C3.82679 17.9994 3.61074 17.8866 3.4821 17.6792C3.28039 17.3537 3.36914 16.9187 3.68067 16.7075L9.19219 12.9765C9.50282 12.7653 9.91968 12.858 10.1218 13.1839C10.3235 13.5094 10.2348 13.9444 9.92326 14.1556L4.41174 17.8866C4.29879 17.9634 4.17238 17.9994 4.04688 17.9994Z" fill="white"/>
<path d="M4.04619 18.0002C3.98075 18.0002 3.91351 17.9899 3.84762 17.9688C3.49262 17.8541 3.2945 17.4608 3.40431 17.0904L5.31515 10.6421C5.42497 10.2717 5.80193 10.0652 6.15604 10.1785C6.51104 10.2932 6.70916 10.6866 6.59935 11.0569L4.68851 17.5052C4.59886 17.8068 4.33351 18.0002 4.04619 18.0002Z" fill="white"/>
<path d="M5.95678 11.5522C5.81156 11.5522 5.66498 11.5035 5.54172 11.4019L0.901568 7.59265C0.609766 7.3529 0.558666 6.91134 0.788163 6.60651C1.01766 6.30168 1.4408 6.24783 1.73215 6.48851L6.3723 10.2977C6.6641 10.5375 6.7152 10.979 6.4857 11.2839C6.35303 11.4599 6.1558 11.5522 5.95678 11.5522Z" fill="white"/>
</svg>
