<svg width="20" height="20" viewBox="0 0 20 20" fill="none" xmlns="http://www.w3.org/2000/svg">
<path fill-rule="evenodd" clip-rule="evenodd" d="M14.2962 13.8953L13.8739 13.8581L13.7736 13.8593L13.3384 13.9108L12.9289 14.031L12.529 14.2277L12.1902 14.472L11.9479 14.708L11.7376 14.9741L11.5641 15.266L11.4664 15.482L11.3667 15.7868H1.64286C1.288 15.7868 1 16.0748 1 16.4297C1 16.7846 1.288 17.0726 1.64286 17.0726H11.3667L11.4561 17.3503L11.5634 17.592L11.6798 17.7971L11.8784 18.0716L12.0925 18.2999L12.3522 18.5146L12.6878 18.7203L13.0786 18.8811L13.4984 18.9762L13.9407 19L14.3759 18.9486L14.7854 18.8283L15.1853 18.6316L15.5241 18.3873L15.7664 18.1514L15.9766 17.8852L16.1502 17.5933L16.2479 17.3773L16.3476 17.0726H18.3571C18.712 17.0726 19 16.7846 19 16.4297C19 16.0748 18.712 15.7868 18.3571 15.7868H16.3476L16.2582 15.509L16.1509 15.2673L16.0345 15.0622L15.8359 14.7877L15.6218 14.5595L15.3621 14.3447L15.0747 14.1641L14.6884 13.9956L14.2962 13.8953ZM6.58193 7.46632L6.15957 7.42903L6.05929 7.43032L5.62407 7.48175L5.21457 7.60197L4.81471 7.7987L4.47593 8.043L4.23357 8.27895L4.02336 8.54511L3.84978 8.83699L3.75207 9.05301L3.65243 9.35774H1.64286C1.288 9.35774 1 9.64576 1 10.0006C1 10.3555 1.288 10.6435 1.64286 10.6435H3.65243L3.74179 10.9213L3.84914 11.163L3.9655 11.3681L4.16414 11.6426L4.37821 11.8708L4.63793 12.0856L4.9735 12.2913L5.36436 12.452L5.78414 12.5472L6.22643 12.571L6.66164 12.5195L7.07114 12.3993L7.471 12.2026L7.80978 11.9583L8.05214 11.7223L8.26236 11.4562L8.43593 11.1643L8.53364 10.9483L8.63329 10.6435H18.3571C18.712 10.6435 19 10.3555 19 10.0006C19 9.64576 18.712 9.35774 18.3571 9.35774H8.63329L8.54393 9.08001L8.43657 8.83827L8.32021 8.63319L8.12157 8.35867L7.9075 8.13044L7.64779 7.91571L7.36043 7.73505L6.97407 7.56661L6.58193 7.46632ZM13.8571 1C12.6601 1 11.6528 1.82034 11.3667 2.92871H1.64286C1.288 2.92871 1 3.21673 1 3.57161C1 3.92649 1.288 4.21451 1.64286 4.21451H11.3667C11.6528 5.32288 12.6601 6.14322 13.8571 6.14322C15.0541 6.14322 16.0615 5.32288 16.3476 4.21451H18.3571C18.712 4.21451 19 3.92649 19 3.57161C19 3.21673 18.712 2.92871 18.3571 2.92871H16.3476C16.0615 1.82034 15.0541 1 13.8571 1ZM13.8571 17.7143C14.5672 17.7143 15.1429 17.1387 15.1429 16.4286C15.1429 15.7185 14.5672 15.1429 13.8571 15.1429C13.1471 15.1429 12.5714 15.7185 12.5714 16.4286C12.5714 17.1387 13.1471 17.7143 13.8571 17.7143ZM15.1429 3.57143C15.1429 4.28151 14.5672 4.85714 13.8571 4.85714C13.1471 4.85714 12.5714 4.28151 12.5714 3.57143C12.5714 2.86135 13.1471 2.28571 13.8571 2.28571C14.5672 2.28571 15.1429 2.86135 15.1429 3.57143ZM6.14286 11.2857C6.85294 11.2857 7.42857 10.7101 7.42857 10C7.42857 9.28992 6.85294 8.71429 6.14286 8.71429C5.43278 8.71429 4.85714 9.28992 4.85714 10C4.85714 10.7101 5.43278 11.2857 6.14286 11.2857Z" fill="#F04E39"/>
</svg>
