<svg width="24" height="24" viewBox="0 0 24 24" fill="none" xmlns="http://www.w3.org/2000/svg">
<path d="M19.6362 2.528C19.4606 2.07781 19.1533 1.69111 18.7543 1.41848C18.3554 1.14585 17.8834 0.999996 17.4002 1H6.60019C5.96367 1 5.35322 1.25286 4.90314 1.70294C4.45305 2.15303 4.2002 2.76348 4.2002 3.39999V23H6.60019V14.6H17.4002C17.8834 14.5994 18.3551 14.4529 18.7537 14.1799C19.1523 13.9068 19.4591 13.5198 19.6342 13.0694C19.8092 12.6191 19.8442 12.1264 19.7347 11.6558C19.6252 11.1853 19.3761 10.7587 19.0202 10.432L16.1522 7.79998L19.0202 5.16799C19.377 4.84129 19.6267 4.4144 19.7367 3.94329C19.8466 3.47219 19.8116 2.97886 19.6362 2.528ZM12.6002 7.79998L17.4002 12.2H6.60019V3.39999H17.4002L12.6002 7.79998Z" fill="#FF8926"/>
</svg>
