<svg width="20" height="20" viewBox="0 0 20 20" fill="none" xmlns="http://www.w3.org/2000/svg">
<g id="System icon - 16" clip-path="url(#clip0_3574_45004)">
<path id="Union" fill-rule="evenodd" clip-rule="evenodd" d="M10.0001 2.3668C5.78436 2.3668 2.3668 5.78436 2.3668 10.0001C2.3668 14.2159 5.78436 17.6335 10.0001 17.6335C14.2159 17.6335 17.6335 14.2159 17.6335 10.0001C17.6335 5.78436 14.2159 2.3668 10.0001 2.3668ZM0.966797 10.0001C0.966797 5.01116 5.01116 0.966797 10.0001 0.966797C14.9891 0.966797 19.0335 5.01116 19.0335 10.0001C19.0335 14.9891 14.9891 19.0335 10.0001 19.0335C5.01116 19.0335 0.966797 14.9891 0.966797 10.0001ZM10.0001 5.9668C10.3867 5.9668 10.7001 6.2802 10.7001 6.6668V10.0001C10.7001 10.3867 10.3867 10.7001 10.0001 10.7001C9.61353 10.7001 9.30013 10.3867 9.30013 10.0001V6.6668C9.30013 6.2802 9.61353 5.9668 10.0001 5.9668ZM10.0001 12.6335C9.61353 12.6335 9.30013 12.9469 9.30013 13.3335C9.30013 13.7201 9.61353 14.0335 10.0001 14.0335H10.0085C10.3951 14.0335 10.7085 13.7201 10.7085 13.3335C10.7085 12.9469 10.3951 12.6335 10.0085 12.6335H10.0001Z" fill="white"/>
</g>
<defs>
<clipPath id="clip0_3574_45004">
<rect width="20" height="20" fill="white"/>
</clipPath>
</defs>
</svg>
