<svg width="24" height="25" viewBox="0 0 24 25" fill="none" xmlns="http://www.w3.org/2000/svg">
<path d="M12 4.37671C11.7348 4.37671 11.4804 4.48207 11.2929 4.6696C11.1054 4.85714 11 5.11149 11 5.37671C11 5.64193 11.1054 5.89628 11.2929 6.08382C11.4804 6.27135 11.7348 6.37671 12 6.37671C12.2652 6.37671 12.5196 6.27135 12.7071 6.08382C12.8946 5.89628 13 5.64193 13 5.37671C13 5.11149 12.8946 4.85714 12.7071 4.6696C12.5196 4.48207 12.2652 4.37671 12 4.37671Z" stroke="#7A7A7A" stroke-width="1.5" stroke-linecap="round" stroke-linejoin="round"/>
<path d="M12 11.3767C11.7348 11.3767 11.4804 11.4821 11.2929 11.6696C11.1054 11.8571 11 12.1115 11 12.3767C11 12.6419 11.1054 12.8963 11.2929 13.0838C11.4804 13.2714 11.7348 13.3767 12 13.3767C12.2652 13.3767 12.5196 13.2714 12.7071 13.0838C12.8946 12.8963 13 12.6419 13 12.3767C13 12.1115 12.8946 11.8571 12.7071 11.6696C12.5196 11.4821 12.2652 11.3767 12 11.3767Z" stroke="#7A7A7A" stroke-width="1.5" stroke-linecap="round" stroke-linejoin="round"/>
<path d="M12 18.3767C11.7348 18.3767 11.4804 18.4821 11.2929 18.6696C11.1054 18.8571 11 19.1115 11 19.3767C11 19.6419 11.1054 19.8963 11.2929 20.0838C11.4804 20.2714 11.7348 20.3767 12 20.3767C12.2652 20.3767 12.5196 20.2714 12.7071 20.0838C12.8946 19.8963 13 19.6419 13 19.3767C13 19.1115 12.8946 18.8571 12.7071 18.6696C12.5196 18.4821 12.2652 18.3767 12 18.3767Z" stroke="#7A7A7A" stroke-width="1.5" stroke-linecap="round" stroke-linejoin="round"/>
</svg>
