<svg width="18" height="17" viewBox="0 0 18 17" fill="none" xmlns="http://www.w3.org/2000/svg">
<path d="M14.635 2.276C14.5614 1.95051 14.1493 1.83214 13.9139 2.06887L13.178 2.80863C10.4259 0.323032 6.20211 0.397008 3.55303 3.04535C0.815656 5.79726 0.815656 10.2654 3.55303 13.0173C3.64133 13.1061 3.72964 13.1801 3.80322 13.2688C3.95039 13.402 4.127 13.4612 4.3036 13.4612C4.50964 13.4612 4.71568 13.3724 4.86285 13.2097C5.14248 12.899 5.11304 12.4255 4.80398 12.1444L4.59794 11.9521C2.46397 9.79197 2.46397 6.27071 4.61266 4.11061C6.67305 2.03928 9.95496 1.9801 12.1184 3.87388L11.3089 4.68762C11.0735 4.92434 11.1912 5.33861 11.515 5.41259L14.9588 6.25591C15.2678 6.32989 15.5622 6.04878 15.4886 5.72329L14.635 2.276Z" fill="#FFC404"/>
<path d="M10.9701 8.71376L9.24821 7.61892V4.85221C9.24821 4.43795 8.90972 4.09766 8.49764 4.09766C8.08556 4.09766 7.74707 4.43795 7.74707 4.85221V8.01839C7.74707 8.26991 7.87952 8.52143 8.10028 8.65458L10.1607 9.97136C10.2784 10.0453 10.4256 10.0897 10.558 10.0897C10.8082 10.0897 11.0437 9.97136 11.1909 9.73463C11.4263 9.39434 11.3233 8.93569 10.9701 8.71376Z" fill="#FFC404"/>
<path d="M7.07068 13.3698L6.79106 13.281C6.3937 13.1479 5.9669 13.3698 5.84917 13.7545C5.71671 14.1539 5.93747 14.583 6.32011 14.7014C6.43785 14.7457 6.55559 14.7753 6.67332 14.8049C6.73219 14.8197 6.80578 14.8345 6.86465 14.8345C7.18842 14.8345 7.49748 14.6126 7.58578 14.2723C7.70352 13.8876 7.46805 13.4734 7.07068 13.3698Z" fill="#FFC404"/>
<path d="M9.61664 13.4459L9.32229 13.4903C8.91022 13.5495 8.63059 13.9342 8.68946 14.3484C8.74833 14.7183 9.0721 14.9994 9.42531 14.9994C9.45475 14.9994 9.4989 14.9994 9.54305 14.9846C9.66079 14.9698 9.79324 14.9403 9.91098 14.9255C10.3231 14.8367 10.5732 14.452 10.4997 14.0377C10.4114 13.6383 10.014 13.372 9.61664 13.4459Z" fill="#FFC404"/>
<path d="M11.9125 12.3791L11.677 12.5566C11.3385 12.7934 11.2649 13.2668 11.5004 13.6071C11.6476 13.8142 11.883 13.9326 12.1185 13.9326C12.2657 13.9326 12.4128 13.8882 12.5453 13.7994C12.6483 13.7255 12.7513 13.6515 12.8396 13.5775C13.1634 13.326 13.2223 12.8377 12.9574 12.5123C12.7219 12.172 12.2362 12.1276 11.9125 12.3791Z" fill="#FFC404"/>
</svg>
