<svg width="18" height="20" viewBox="0 0 18 20" fill="none" xmlns="http://www.w3.org/2000/svg">
<path id="Union" fill-rule="evenodd" clip-rule="evenodd" d="M9.51164 1.00879C9.21071 0.774739 8.78933 0.774739 8.4884 1.00879L0.988403 6.84212C0.785414 7.00001 0.666687 7.24276 0.666687 7.49992V16.6666C0.666687 17.3296 0.930079 17.9655 1.39892 18.4344C1.86776 18.9032 2.50365 19.1666 3.16669 19.1666H6.49599C6.49733 19.1666 6.49868 19.1666 6.50002 19.1666C6.50136 19.1666 6.50271 19.1666 6.50405 19.1666H11.496C11.4973 19.1666 11.4987 19.1666 11.5 19.1666C11.5014 19.1666 11.5027 19.1666 11.504 19.1666H14.8334C15.4964 19.1666 16.1323 18.9032 16.6011 18.4344C17.07 17.9655 17.3334 17.3296 17.3334 16.6666V7.49992C17.3334 7.24276 17.2146 7.00001 17.0116 6.84212L9.51164 1.00879ZM12.3334 17.4999H14.8334C15.0544 17.4999 15.2663 17.4121 15.4226 17.2558C15.5789 17.0996 15.6667 16.8876 15.6667 16.6666V7.90749L9.00002 2.7223L2.33335 7.90749V16.6666C2.33335 16.8876 2.42115 17.0996 2.57743 17.2558C2.73371 17.4121 2.94567 17.4999 3.16669 17.4999H5.66669V9.99993C5.66669 9.53969 6.03978 9.1666 6.50002 9.1666H11.5C11.9603 9.1666 12.3334 9.53969 12.3334 9.99993V17.4999ZM7.33335 17.4999H10.6667V10.8333H7.33335V17.4999Z" fill="#487F82"/>
</svg>
