<svg width="24" height="24" viewBox="0 0 24 24" fill="none" xmlns="http://www.w3.org/2000/svg">
<path d="M9.24903 5.9777C9.11498 4.37491 10.3797 3 11.9881 3C13.6051 3 14.8728 4.38906 14.7253 5.99935L13.884 15.1831C13.7925 16.1821 12.9547 16.9467 11.9515 16.9467C10.9424 16.9467 10.1017 16.1734 10.0176 15.1678L9.24903 5.9777Z" fill="black"/>
<circle cx="12.0013" cy="19.724" r="2.0013" fill="black"/>
<path d="M12 0C5.3823 0 0 5.3823 0 12C0 18.6177 5.3823 24 12 24C18.6177 24 24 18.6177 24 12C24 5.3823 18.6177 0 12 0ZM12 23.4153C5.706 23.4153 0.5847 18.2943 0.5847 12C0.5847 5.7057 5.7057 0.5847 12 0.5847C18.2943 0.5847 23.4153 5.7057 23.4153 12C23.4153 18.2943 18.2943 23.4153 12 23.4153Z" fill="black"/>
</svg>
