<svg width="16" height="16" viewBox="0 0 16 16" fill="none" xmlns="http://www.w3.org/2000/svg">
<g clip-path="url(#clip0_8267_66771)">
<path d="M2 8C2 8.78793 2.15519 9.56815 2.45672 10.2961C2.75825 11.0241 3.20021 11.6855 3.75736 12.2426C4.31451 12.7998 4.97595 13.2417 5.7039 13.5433C6.43185 13.8448 7.21207 14 8 14C8.78793 14 9.56815 13.8448 10.2961 13.5433C11.0241 13.2418 11.6855 12.7998 12.2426 12.2426C12.7998 11.6855 13.2417 11.0241 13.5433 10.2961C13.8448 9.56815 14 8.78793 14 8" stroke="#DE3924" stroke-width="1.5" stroke-linecap="round" stroke-linejoin="round"/>
<path d="M10 8L8 10L6 8" stroke="#DE3924" stroke-width="1.5" stroke-linecap="round" stroke-linejoin="round"/>
<path d="M8 9.99935L8 0.666016" stroke="#DE3924" stroke-width="1.5" stroke-linecap="round" stroke-linejoin="round"/>
</g>
<defs>
<clipPath id="clip0_8267_66771">
<rect width="16" height="16" fill="white"/>
</clipPath>
</defs>
</svg>
