<svg width="24" height="24" viewBox="0 0 24 24" fill="none" xmlns="http://www.w3.org/2000/svg">
<path d="M5.01695 2C3.62909 2 2.5 3.12786 2.5 4.51419C2.5 5.90113 3.62909 7.02942 5.01695 7.02942C6.4037 7.02942 7.53187 5.90107 7.53187 4.51419C7.53194 3.12786 6.4037 2 5.01695 2Z" fill="black"/>
<path d="M6.92271 8.09158H3.10843C2.93915 8.09158 2.80198 8.22881 2.80198 8.39804V20.6517C2.80198 20.821 2.93915 20.9581 3.10843 20.9581H6.92271C7.09199 20.9581 7.22916 20.821 7.22916 20.6517V8.39804C7.22916 8.22881 7.09199 8.09158 6.92271 8.09158Z" fill="black"/>
<path d="M13.2733 9.19389C13.9602 8.4456 15.0926 7.78703 16.6246 7.78703C20.9207 7.78703 21.5 10.8926 21.5 13.9304V20.6517C21.5 20.821 21.3628 20.9582 21.1935 20.9582H17.3862C17.2169 20.9582 17.0797 20.821 17.0797 20.6517V14.6941C17.0797 13.026 16.9565 11.7501 15.4055 11.7501C13.9813 11.7501 13.4264 12.546 13.4264 14.589V20.6517C13.4264 20.821 13.2892 20.9581 13.12 20.9581H9.31401C9.14473 20.9581 9.00756 20.821 9.00756 20.6517V8.39804C9.00756 8.22881 9.14473 8.09158 9.31401 8.09158H12.9669C13.1361 8.09158 13.2733 8.22881 13.2733 8.39804V9.19389Z" fill="black"/>
</svg>
