<svg width="38" height="38" viewBox="0 0 38 38" fill="none" xmlns="http://www.w3.org/2000/svg">
<path d="M25.25 19.4167H21.2917C18.5621 19.4167 15.9444 20.501 14.0144 22.431C12.0843 24.3611 11 26.9788 11 29.7083C11 31.388 11.6673 32.999 12.855 34.1867C14.0427 35.3744 15.6536 36.0417 17.3333 36.0417H29.2083C30.888 36.0417 32.4989 35.3744 33.6867 34.1867C34.8744 32.999 35.5417 31.388 35.5417 29.7083C35.5417 26.9788 34.4574 24.3611 32.5273 22.431C30.5972 20.501 27.9795 19.4167 25.25 19.4167Z" fill="#F04E39"/>
<path d="M23.2709 19.0208C27.6432 19.0208 31.1876 15.4764 31.1876 11.1042C31.1876 6.73192 27.6432 3.18751 23.2709 3.18751C18.8987 3.18751 15.3542 6.73192 15.3542 11.1042C15.3542 15.4764 18.8987 19.0208 23.2709 19.0208Z" fill="white"/>
<path d="M29.6042 36.0417H16.9376C15.3634 36.0398 13.8543 35.4137 12.7412 34.3006C11.6281 33.1875 11.0019 31.6783 11.0001 30.1042V28.5208C10.9941 26.6959 11.4582 24.9002 12.3475 23.3066C13.2369 21.713 14.5215 20.3752 16.0778 19.4221C16.3458 19.2569 16.6684 19.2049 16.9747 19.2774C17.281 19.3499 17.546 19.541 17.7115 19.8087C17.8771 20.0765 17.9296 20.399 17.8575 20.7054C17.7854 21.0118 17.5947 21.2771 17.3272 21.443C16.1159 22.1839 15.116 23.2244 14.4238 24.4641C13.7316 25.7038 13.3704 27.101 13.3751 28.5208V30.1042C13.3762 31.0486 13.7519 31.9541 14.4198 32.6219C15.0876 33.2898 15.9931 33.6655 16.9376 33.6667H29.6042C30.5487 33.6655 31.4542 33.2898 32.122 32.6219C32.7899 31.9541 33.1656 31.0486 33.1667 30.1042V28.5208C33.1642 26.317 32.2876 24.2042 30.7292 22.6458C29.1709 21.0875 27.0581 20.2109 24.8542 20.2083H23.2709C22.9559 20.2083 22.6539 20.0832 22.4312 19.8605C22.2085 19.6378 22.0834 19.3358 22.0834 19.0208C22.0834 18.7059 22.2085 18.4038 22.4312 18.1811C22.6539 17.9584 22.9559 17.8333 23.2709 17.8333H24.8542C27.6877 17.8366 30.4043 18.9636 32.4079 20.9672C34.4115 22.9708 35.5385 25.6873 35.5417 28.5208V30.1042C35.5399 31.6783 34.9137 33.1875 33.8006 34.3006C32.6875 35.4137 31.1784 36.0398 29.6042 36.0417Z" fill="#404042"/>
<path d="M23.2709 20.2083C21.4703 20.2083 19.7101 19.6744 18.2129 18.674C16.7157 17.6736 15.5488 16.2518 14.8598 14.5882C14.1707 12.9246 13.9904 11.0941 14.3417 9.32804C14.693 7.562 15.5601 5.93979 16.8333 4.66655C18.1065 3.39331 19.7287 2.52622 21.4948 2.17494C23.2608 1.82365 25.0914 2.00394 26.7549 2.69302C28.4185 3.38209 29.8404 4.54899 30.8408 6.04617C31.8411 7.54334 32.3751 9.30354 32.3751 11.1042C32.3724 13.5179 31.4124 15.8321 29.7056 17.5388C27.9988 19.2456 25.6847 20.2057 23.2709 20.2083ZM23.2709 4.375C21.94 4.375 20.639 4.76966 19.5324 5.50907C18.4258 6.24848 17.5633 7.29944 17.054 8.52903C16.5447 9.75862 16.4114 11.1116 16.6711 12.417C16.9307 13.7223 17.5716 14.9213 18.5127 15.8624C19.4538 16.8035 20.6528 17.4444 21.9581 17.704C23.2635 17.9637 24.6165 17.8304 25.8461 17.3211C27.0757 16.8118 28.1266 15.9493 28.866 14.8427C29.6054 13.7361 30.0001 12.4351 30.0001 11.1042C29.9981 9.3201 29.2885 7.60966 28.027 6.34813C26.7654 5.0866 25.055 4.37699 23.2709 4.375Z" fill="#404042"/>
<path d="M18.25 19.4167H14.2917C11.5621 19.4167 8.94442 20.501 7.01436 22.431C5.0843 24.3611 4 26.9788 4 29.7083C4 31.388 4.66726 32.999 5.85499 34.1867C7.04272 35.3744 8.65363 36.0417 10.3333 36.0417H22.2083C23.888 36.0417 25.4989 35.3744 26.6867 34.1867C27.8744 32.999 28.5417 31.388 28.5417 29.7083C28.5417 26.9788 27.4574 24.3611 25.5273 22.431C23.5972 20.501 20.9795 19.4167 18.25 19.4167Z" fill="#FDC47F"/>
<path d="M16.2709 19.0208C20.6432 19.0208 24.1876 15.4764 24.1876 11.1042C24.1876 6.73192 20.6432 3.18751 16.2709 3.18751C11.8987 3.18751 8.35425 6.73192 8.35425 11.1042C8.35425 15.4764 11.8987 19.0208 16.2709 19.0208Z" fill="white"/>
<path d="M22.6042 36.0417H9.93756C8.3634 36.0398 6.85425 35.4137 5.74115 34.3006C4.62806 33.1875 4.00191 31.6783 4.00006 30.1042V28.5208C3.99413 26.6959 4.45817 24.9002 5.34751 23.3066C6.23685 21.713 7.52152 20.3752 9.07781 19.4221C9.34578 19.2569 9.66835 19.2049 9.97468 19.2774C10.281 19.3499 10.546 19.541 10.7115 19.8087C10.8771 20.0765 10.9296 20.399 10.8575 20.7054C10.7854 21.0118 10.5947 21.2771 10.3272 21.443C9.11592 22.1839 8.116 23.2244 7.42378 24.4641C6.73155 25.7038 6.37037 27.101 6.37506 28.5208V30.1042C6.37622 31.0486 6.75193 31.9541 7.41978 32.6219C8.08762 33.2898 8.99308 33.6655 9.93756 33.6667H22.6042C23.5487 33.6655 24.4542 33.2898 25.122 32.6219C25.7899 31.9541 26.1656 31.0486 26.1667 30.1042V28.5208C26.1642 26.317 25.2876 24.2042 23.7292 22.6458C22.1709 21.0875 20.0581 20.2109 17.8542 20.2083H16.2709C15.9559 20.2083 15.6539 20.0832 15.4312 19.8605C15.2085 19.6378 15.0834 19.3358 15.0834 19.0208C15.0834 18.7059 15.2085 18.4038 15.4312 18.1811C15.6539 17.9584 15.9559 17.8333 16.2709 17.8333H17.8542C20.6877 17.8366 23.4043 18.9636 25.4079 20.9672C27.4115 22.9708 28.5385 25.6873 28.5417 28.5208V30.1042C28.5399 31.6783 27.9137 33.1875 26.8006 34.3006C25.6875 35.4137 24.1784 36.0398 22.6042 36.0417Z" fill="#404042"/>
<path d="M16.2709 20.2083C14.4703 20.2083 12.7101 19.6744 11.2129 18.674C9.71574 17.6736 8.54884 16.2518 7.85977 14.5882C7.17069 12.9246 6.9904 11.0941 7.34169 9.32804C7.69297 7.562 8.56006 5.93979 9.8333 4.66655C11.1065 3.39331 12.7287 2.52622 14.4948 2.17494C16.2608 1.82365 18.0914 2.00394 19.7549 2.69302C21.4185 3.38209 22.8404 4.54899 23.8408 6.04617C24.8411 7.54334 25.3751 9.30354 25.3751 11.1042C25.3724 13.5179 24.4124 15.8321 22.7056 17.5388C20.9988 19.2456 18.6847 20.2057 16.2709 20.2083ZM16.2709 4.375C14.94 4.375 13.639 4.76966 12.5324 5.50907C11.4258 6.24848 10.5633 7.29944 10.054 8.52903C9.54467 9.75862 9.41141 11.1116 9.67105 12.417C9.9307 13.7223 10.5716 14.9213 11.5127 15.8624C12.4538 16.8035 13.6528 17.4444 14.9581 17.704C16.2635 17.9637 17.6165 17.8304 18.8461 17.3211C20.0757 16.8118 21.1266 15.9493 21.866 14.8427C22.6054 13.7361 23.0001 12.4351 23.0001 11.1042C22.9981 9.3201 22.2885 7.60966 21.027 6.34813C19.7654 5.0866 18.055 4.37699 16.2709 4.375Z" fill="#404042"/>
</svg>
