<svg width="24" height="25" viewBox="0 0 24 25" fill="none" xmlns="http://www.w3.org/2000/svg">
<path d="M9 15.8765L15 9.87646" stroke="black" stroke-width="1.5" stroke-linecap="round" stroke-linejoin="round"/>
<path d="M11 6.87653L11.463 6.34053C12.4008 5.40285 13.6727 4.87613 14.9989 4.87622C16.325 4.87631 17.5968 5.40322 18.5345 6.34103C19.4722 7.27883 19.9989 8.55072 19.9988 9.87688C19.9987 11.203 19.4718 12.4749 18.534 13.4125L18 13.8765" stroke="black" stroke-width="1.5" stroke-linecap="round" stroke-linejoin="round"/>
<path d="M12.9999 18.8765L12.6029 19.4105C11.6541 20.3487 10.3737 20.8748 9.0394 20.8748C7.70511 20.8748 6.42465 20.3487 5.4759 19.4105C5.00825 18.9481 4.63699 18.3975 4.38361 17.7906C4.13023 17.1837 3.99976 16.5326 3.99976 15.875C3.99976 15.2173 4.13023 14.5662 4.38361 13.9593C4.63699 13.3524 5.00825 12.8019 5.4759 12.3395L5.9999 11.8765" stroke="black" stroke-width="1.5" stroke-linecap="round" stroke-linejoin="round"/>
</svg>
