<svg width="20" height="20" viewBox="0 0 20 20" fill="none" xmlns="http://www.w3.org/2000/svg">
<path d="M6.70001 9.79998L8.70001 7.62723C9.36668 7.08404 10.7 6.54082 11.7 7.62725C12.9 8.93093 13.5333 9.61895 13.7 9.8" stroke="black" stroke-width="1.75" stroke-linecap="round"/>
<path d="M9.46102 17.6395L7.07339 15.4111L6.77886 15.1826L6.97216 15.312C6.97466 15.3129 6.9769 15.3139 6.97888 15.3147C6.98404 15.3168 6.98746 15.3184 6.98932 15.3192L6.99099 15.3201C6.99099 15.3201 6.9579 15.3033 6.91179 15.2602L6.8895 15.281L6.77886 15.255C6.49744 15.1886 5.85518 15.0861 4.54923 15.0861C3.48233 15.0861 2.87702 14.6844 2.5172 14.218C2.13397 13.7213 2 13.1073 2 12.7068V3.78446C2 3.28823 2.25021 2.89874 2.64647 2.59118C3.03639 2.28855 3.54202 2.09 3.97814 2H16.6581C17.4584 2 17.847 2.29233 18.0883 2.6285C18.3392 2.97783 18.4484 3.39414 18.553 3.79282C18.5588 3.81429 18.5644 3.83571 18.57 3.85707V12.7068C18.57 12.8381 18.5212 13.0628 18.397 13.351C18.2767 13.6299 18.1021 13.9306 17.892 14.205C17.6807 14.4812 17.4472 14.713 17.2172 14.8704C16.9841 15.0299 16.7955 15.0861 16.6581 15.0861H14.7462C14.3286 15.0861 13.9475 15.2428 13.677 15.3896C13.3974 15.5414 13.1629 15.7225 13.0209 15.855L11.109 17.6395C10.746 17.9783 10.4215 18.0177 10.1643 17.9787C9.86767 17.9336 9.60135 17.7705 9.46102 17.6395ZM6.72689 15.4328L6.56168 15.587C6.60475 15.5328 6.65903 15.4808 6.72689 15.4328Z" stroke="black" stroke-width="1.75"/>
</svg>
