<svg width="24" height="24" viewBox="0 0 24 24" fill="none" xmlns="http://www.w3.org/2000/svg">
<path d="M3 12C3 13.1819 3.23279 14.3522 3.68508 15.4442C4.13738 16.5361 4.80031 17.5282 5.63604 18.364C6.47177 19.1997 7.46392 19.8626 8.55585 20.3149C9.64778 20.7672 10.8181 21 12 21C13.1819 21 14.3522 20.7672 15.4442 20.3149C16.5361 19.8626 17.5282 19.1997 18.364 18.364C19.1997 17.5282 19.8626 16.5361 20.3149 15.4442C20.7672 14.3522 21 13.1819 21 12C21 10.8181 20.7672 9.64778 20.3149 8.55585C19.8626 7.46392 19.1997 6.47177 18.364 5.63604C17.5282 4.80031 16.5361 4.13738 15.4442 3.68508C14.3522 3.23279 13.1819 3 12 3C10.8181 3 9.64778 3.23279 8.55585 3.68508C7.46392 4.13738 6.47177 4.80031 5.63604 5.63604C4.80031 6.47177 4.13738 7.46392 3.68508 8.55585C3.23279 9.64778 3 10.8181 3 12Z" stroke="black" stroke-width="1.5" stroke-linecap="round" stroke-linejoin="round"/>
<path d="M13.9284 8.37749C13.6721 8.12085 13.3508 7.93873 12.9989 7.85065C12.6471 7.76257 12.2779 7.77183 11.9309 7.87744L9.99904 8.39508C9.48668 8.53236 9.04984 8.86756 8.78463 9.32693C8.51941 9.7863 8.44754 10.3322 8.58483 10.8446C8.72211 11.3569 9.05731 11.7938 9.51668 12.059C9.97605 12.3242 10.522 12.3961 11.0343 12.2588L12.9662 11.7411C13.4785 11.6039 14.0244 11.6757 14.4838 11.9409C14.9432 12.2062 15.2784 12.643 15.4157 13.1554C15.5529 13.6677 15.4811 14.2136 15.2159 14.673C14.9506 15.1324 14.5138 15.4676 14.0014 15.6048L12.0696 16.1225C11.7226 16.2281 11.3534 16.2374 11.0016 16.1493C10.6497 16.0612 10.3284 15.8791 10.0721 15.6224" stroke="black" stroke-width="1.5" stroke-linecap="round" stroke-linejoin="round"/>
<path d="M10.7061 7.17041L13.2942 16.8297" stroke="black" stroke-width="1.5" stroke-linecap="round" stroke-linejoin="round"/>
</svg>
