<svg width="24" height="24" viewBox="0 0 24 24" fill="none" xmlns="http://www.w3.org/2000/svg">
<path d="M12.1588 3.29495L12.002 3.16861L11.8451 3.29493L5.77133 8.18679L5.92814 8.3815L5.77133 8.18679C5.64772 8.28634 5.49849 8.3489 5.34085 8.36724C5.1832 8.38558 5.02359 8.35896 4.88044 8.29044C4.73728 8.22193 4.61643 8.11432 4.53183 7.98004C4.44725 7.84579 4.40234 7.69019 4.40234 7.53146C4.40234 7.4057 4.43054 7.28154 4.48486 7.16811L4.26088 7.06085L4.48486 7.16811C4.53918 7.05468 4.61823 6.95488 4.71621 6.87604L4.56004 6.68195L4.71621 6.87604L6.08603 5.77375L6.1793 5.6987V5.57898V2.11397C6.1793 2.07508 6.19475 2.03778 6.22226 2.01027C6.24976 1.98277 6.28706 1.96732 6.32595 1.96732H8.3449C8.38379 1.96732 8.42109 1.98277 8.44859 2.01027C8.47609 2.03777 8.49154 2.07507 8.49154 2.11397V3.31494V3.83734L8.89837 3.50963L11.4736 1.43519C11.4737 1.4351 11.4738 1.43501 11.474 1.43492C11.6238 1.31523 11.81 1.25003 12.0018 1.25C12.1936 1.24997 12.3797 1.31513 12.5296 1.43478C12.5298 1.43487 12.5299 1.43496 12.53 1.43504L19.2859 6.87616C19.372 6.94546 19.4435 7.03103 19.4965 7.12799C19.5494 7.22494 19.5828 7.33138 19.5946 7.44122C19.6064 7.55107 19.5965 7.66217 19.5654 7.76818C19.5343 7.87419 19.4826 7.97303 19.4133 8.05907C19.344 8.14511 19.2585 8.21665 19.1615 8.26962C19.0645 8.32259 18.9581 8.35594 18.8483 8.36777C18.7384 8.3796 18.6273 8.36968 18.5213 8.33858C18.4153 8.30747 18.3165 8.25579 18.2304 8.18649L12.1588 3.29495Z" fill="#014B5C" stroke="#A8F3EE" stroke-width="0.5"/>
<path d="M10.3128 7.9593L10.3128 7.9593V7.96099C10.3128 8.43694 10.2144 8.75476 10.0509 8.93586C9.96069 9.03149 9.85057 9.10616 9.72834 9.15462C9.60568 9.20324 9.47382 9.22427 9.34212 9.21621L9.34213 9.21593H9.33295C8.94661 9.21593 8.71035 9.03456 8.56353 8.79507C8.41175 8.54748 8.35606 8.23546 8.35606 7.99945H8.35611L8.356 7.99537C8.34849 7.71927 8.38689 7.44384 8.46964 7.18034C8.57751 6.87674 8.88785 6.67057 9.3152 6.67057V6.67072L9.32191 6.67042C9.52702 6.66124 9.72895 6.72357 9.8932 6.84675C10.0575 6.96994 10.1738 7.14634 10.2225 7.34581L10.2222 7.34587L10.2249 7.35463C10.2855 7.55039 10.3151 7.7544 10.3128 7.9593Z" fill="#014B5C" stroke="#A8F3EE" stroke-width="0.3"/>
<path d="M10.8654 13.451L10.8653 13.451L10.8642 13.453C10.8012 13.5709 10.7079 13.6698 10.5939 13.7396C10.4801 13.8093 10.3497 13.8474 10.2163 13.85C10.0906 13.8514 9.96694 13.8176 9.85941 13.7524C9.75172 13.6872 9.66447 13.593 9.60755 13.4807C9.55063 13.3684 9.52632 13.2423 9.53737 13.1169C9.54841 12.9915 9.59438 12.8716 9.67006 12.771L9.67056 12.7713L9.67772 12.7598L13.3187 6.87682L13.319 6.87698L13.3235 6.86857C13.3875 6.74865 13.4756 6.64318 13.5821 6.55867C13.6836 6.47812 13.7999 6.41826 13.9243 6.38242H14.1491C14.2695 6.4044 14.3824 6.45688 14.4769 6.53493L14.4768 6.53498L14.4804 6.53773L14.5036 6.55576C14.6443 6.67942 14.7086 6.81859 14.7112 6.97775C14.7139 7.14474 14.6486 7.35088 14.4929 7.59921C14.4928 7.59934 14.4927 7.59947 14.4927 7.59959L14.3334 7.85026L14.3334 7.85025L14.332 7.85259C14.0834 8.26018 13.4644 9.25809 11.884 11.8057C11.5861 12.2859 11.254 12.8213 10.8838 13.4181L10.8837 13.418L10.8802 13.4243L10.8654 13.451Z" fill="#014B5C" stroke="#A8F3EE" stroke-width="0.3"/>
<path d="M14.6492 13.682L14.6492 13.6821C14.8004 13.7073 14.9556 13.6958 15.1015 13.6486C15.2467 13.6016 15.3787 13.5207 15.4863 13.4124C15.7117 13.1706 15.7612 12.8008 15.7612 12.431L14.6492 13.682ZM14.6492 13.682L14.643 13.6812M14.6492 13.682L14.643 13.6812M14.643 13.6812C14.4932 13.6627 14.35 13.6082 14.2257 13.5225C14.103 13.4379 14.0021 13.3253 13.9316 13.194C13.8337 12.9672 13.7872 12.7215 13.7955 12.4745L13.7955 12.4745V12.4695C13.7955 11.9699 13.8861 11.628 14.0403 11.4242L14.0404 11.424C14.1734 11.2474 14.3944 11.1466 14.7636 11.1466V11.1466M14.643 13.6812L14.7636 11.1466M14.7636 11.1466L14.7679 11.1465M14.7636 11.1466L14.7679 11.1465M14.7679 11.1465C14.9925 11.14 15.2124 11.2118 15.3898 11.3496M14.7679 11.1465L15.3898 11.3496M15.3898 11.3496C15.6734 11.5879 15.7611 12.0212 15.7612 12.431L15.3898 11.3496Z" fill="#014B5C" stroke="#A8F3EE" stroke-width="0.3"/>
<path d="M12.7304 15C12.9622 15 13.3365 15.0405 13.6378 15.2691C13.916 15.4804 14.0551 15.7958 14.0485 16.201C14.0286 17.2977 12.5847 18.0241 10.2829 18.0993C10.008 18.108 9.78278 18.1485 9.60063 18.2035C9.68012 18.4148 9.84571 18.7331 10.1537 18.9183C10.3955 19.063 10.6836 19.1035 11.038 19.0398C11.4387 18.9675 12.3396 18.5189 13.2934 18.0443C15.827 16.7826 19.2979 15.055 20.7816 16.4035C20.9406 16.5453 21.0168 16.7421 20.9969 16.9447C20.9737 17.153 20.8512 17.344 20.6558 17.4656L13.1974 22.145C12.0349 22.8742 10.5644 23.1549 9.15683 22.9176L3.26826 21.9221C3.1126 21.8961 3 21.7774 3 21.6385L3 17.3961C3 17.3122 3.04305 17.2312 3.11592 17.1762C3.18878 17.1212 3.28482 17.0952 3.38087 17.1096C3.39412 17.1125 4.88448 17.2862 5.76544 16.2038C6.86168 14.8582 7.9778 14.9855 9.16015 15.1186L9.26944 15.1302C10.4882 15.2662 12.4985 15.0174 12.5151 15.0174C12.5383 15.0116 12.6178 15 12.7304 15ZM9.18664 15.7003L9.07735 15.6887C7.88837 15.5556 7.16969 15.4746 6.30528 16.5366C5.48393 17.5466 4.27508 17.6942 3.66238 17.6971L3.66238 21.3983L9.28269 22.3504C10.5081 22.5588 11.7931 22.3128 12.8099 21.6761L20.2683 16.9939C20.3047 16.9707 20.3312 16.9331 20.3345 16.8897C20.3378 16.8665 20.3345 16.8318 20.3014 16.8029C19.1754 15.7784 15.8303 17.4453 13.618 18.545C12.5284 19.0861 11.6706 19.5144 11.1638 19.6041C10.6306 19.6996 10.1603 19.6273 9.76954 19.39C9.37211 19.1498 9.14359 18.7881 9.01773 18.5074C8.94156 18.5768 8.90844 18.6289 8.90513 18.6347C8.82564 18.7794 8.62693 18.8373 8.46133 18.7678C8.29574 18.6984 8.2295 18.5247 8.30899 18.38C8.32223 18.3598 8.51101 18.0299 9.03429 17.7868C9.04423 17.781 9.05085 17.7781 9.06079 17.7752C9.35224 17.645 9.73973 17.5379 10.2498 17.5235C11.6805 17.4771 13.3596 17.1009 13.3762 16.1923C13.3795 15.9666 13.3199 15.8045 13.1974 15.709C13.0185 15.5701 12.7138 15.573 12.6078 15.5875C12.5416 15.5961 11.3063 15.7495 10.1438 15.7495C9.81259 15.7466 9.4814 15.735 9.18664 15.7003Z" fill="#014B5C" stroke="#016B83" stroke-width="0.4"/>
</svg>
