<svg width="25" height="26" viewBox="0 0 25 26" fill="none" xmlns="http://www.w3.org/2000/svg">
<path d="M18.8836 25H4.11512C3.3805 25 2.67634 24.7081 2.15698 24.1888C1.63762 23.6694 1.3457 22.9652 1.3457 22.2306V11.154C1.3457 10.4195 1.63762 9.71515 2.15698 9.19584C2.67634 8.67653 3.3805 8.38477 4.11512 8.38477H18.8836C19.6183 8.38477 20.3224 8.67653 20.8418 9.19584C21.3611 9.71515 21.6531 10.4195 21.6531 11.154V22.2306C21.6531 22.9652 21.3611 23.6694 20.8418 24.1888C20.3224 24.7081 19.6183 25 18.8836 25ZM4.11512 10.2309C3.86991 10.2309 3.63536 10.3281 3.46224 10.5012C3.28912 10.6744 3.19164 10.9092 3.19164 11.154V22.2306C3.19164 22.4753 3.28912 22.7104 3.46224 22.8835C3.63536 23.0566 3.86991 23.1536 4.11512 23.1536H18.8836C19.1289 23.1536 19.3634 23.0566 19.5365 22.8835C19.7096 22.7104 19.8071 22.4753 19.8071 22.2306V11.154C19.8071 10.9092 19.7096 10.6744 19.5365 10.5012C19.3634 10.3281 19.1289 10.2309 18.8836 10.2309H4.11512Z" fill="black" stroke="black" stroke-width="0.2"/>
<path d="M15.1959 10.2306H7.81164C7.56694 10.2306 7.33188 10.1334 7.15876 9.96027C6.98564 9.78715 6.88867 9.5524 6.88867 9.30759V5.61531C6.88867 4.39128 7.37503 3.21736 8.24012 2.35181C9.10572 1.48626 10.28 1 11.504 1C12.7281 1 13.9018 1.48626 14.7674 2.35181C15.633 3.21736 16.1194 4.39128 16.1194 5.61531V9.30759C16.1194 9.5524 16.0219 9.78715 15.8488 9.96027C15.6757 10.1334 15.4411 10.2306 15.1959 10.2306ZM8.73461 8.38452H14.2729V5.61531C14.2729 4.88089 13.9815 4.17653 13.4622 3.65722C12.9428 3.13791 12.2381 2.84614 11.504 2.84614C10.7694 2.84614 10.0652 3.13791 9.54589 3.65722C9.02653 4.17653 8.73461 4.88089 8.73461 5.61531V8.38452Z" fill="black" stroke="black" stroke-width="0.2"/>
<path d="M11.5006 18.5398C11.1356 18.5398 10.7787 18.4317 10.4751 18.2286C10.1715 18.0259 9.93488 17.7376 9.79475 17.4003C9.65514 17.063 9.61859 16.6917 9.68967 16.3336C9.76125 15.9755 9.93691 15.6466 10.1953 15.3884C10.4532 15.1302 10.7822 14.9544 11.1401 14.8831C11.4985 14.8119 11.8697 14.8485 12.2068 14.9882C12.5444 15.1279 12.8327 15.3646 13.0353 15.6681C13.2384 15.9717 13.3465 16.3286 13.3465 16.6938C13.3465 17.1834 13.1521 17.653 12.8058 17.9992C12.4596 18.3454 11.99 18.5398 11.5006 18.5398Z" fill="black" stroke="black" stroke-width="0.2"/>
</svg>
