<svg width="20" height="20" viewBox="0 0 20 20" fill="none" xmlns="http://www.w3.org/2000/svg">
<g clip-path="url(#clip0_10915_57336)">
<g clip-path="url(#clip1_10915_57336)">
<path d="M0.837891 4.90999L10.0046 11.0211L19.1712 4.90999M0.837891 4.90813C0.837891 4.36788 1.05251 3.84975 1.43452 3.46773C1.81654 3.08571 2.33467 2.87109 2.87493 2.87109H17.1342C17.6744 2.87109 18.1926 3.08571 18.5746 3.46773C18.9566 3.84975 19.1712 4.36788 19.1712 4.90813V15.0933C19.1712 15.6336 18.9566 16.1517 18.5746 16.5337C18.1926 16.9157 17.6744 17.1304 17.1342 17.1304H2.87493C2.33467 17.1304 1.81654 16.9157 1.43452 16.5337C1.05251 16.1517 0.837891 15.6336 0.837891 15.0933V4.90813Z" stroke="#414042" stroke-width="1.5" stroke-linecap="round" stroke-linejoin="round"/>
<circle cx="16" cy="6" r="4.5" fill="#F04E39" stroke="white"/>
</g>
</g>
<defs>
<clipPath id="clip0_10915_57336">
<rect width="20" height="20" fill="white"/>
</clipPath>
<clipPath id="clip1_10915_57336">
<rect width="20" height="20" fill="white"/>
</clipPath>
</defs>
</svg>
