<svg width="24" height="24" viewBox="0 0 24 24" fill="none" xmlns="http://www.w3.org/2000/svg">
<g clip-path="url(#clip0_10963_41463)">
<path d="M1.00586 5.89198L12.0059 13.2253L23.0059 5.89198M1.00586 5.88976C1.00586 5.24145 1.2634 4.6197 1.72182 4.16127C2.18024 3.70285 2.802 3.44531 3.4503 3.44531H20.5614C21.2097 3.44531 21.8315 3.70285 22.2899 4.16127C22.7483 4.6197 23.0059 5.24145 23.0059 5.88976V18.112C23.0059 18.7603 22.7483 19.382 22.2899 19.8405C21.8315 20.2989 21.2097 20.5564 20.5614 20.5564H3.4503C2.802 20.5564 2.18024 20.2989 1.72182 19.8405C1.2634 19.382 1.00586 18.7603 1.00586 18.112V5.88976Z" stroke="white" stroke-width="1.6" stroke-linecap="round" stroke-linejoin="round"/>
<circle cx="19.1992" cy="7.19922" r="5.4" fill="black" stroke="#F04E39" stroke-width="1.2"/>
</g>
<defs>
<clipPath id="clip0_10963_41463">
<rect width="24" height="24" fill="white"/>
</clipPath>
</defs>
</svg>
