<svg width="22" height="20" viewBox="0 0 22 20" fill="none" xmlns="http://www.w3.org/2000/svg">
<path d="M18.6935 0.65124C18.657 0.597639 18.5972 0.56571 18.5334 0.56571C18.4697 0.56571 18.4099 0.597639 18.3734 0.65124L16.102 3.98359C16.0603 4.0448 16.0553 4.12469 16.0889 4.19091C16.1225 4.25713 16.1893 4.29863 16.2621 4.29863H17.2505C17.1318 5.62276 16.0349 6.66844 14.7182 6.66844C14.6052 6.66844 14.4957 6.68382 14.3914 6.7123V1.25059C14.3914 0.939599 14.2825 0.692944 14.0925 0.573922C13.9352 0.475332 13.7452 0.475373 13.5578 0.573963L9.38305 2.7693V1.25059C9.38305 0.87438 9.28266 0.618911 9.10043 0.531258C8.97957 0.473129 8.84258 0.497566 8.72442 0.5984L1.40809 6.85724C1.15801 7.07057 1.01488 7.60077 1.00172 8.01793C1.0016 8.01953 1.00172 8.02109 1.0016 8.0227C1.0016 8.0227 1.0016 8.02278 1.0016 8.02286C1.00156 8.0233 1.00156 8.02374 1.00152 8.02418C1.00113 8.02923 1.00082 8.03427 1.0007 8.03932C1.00008 8.05467 1 8.07061 1 8.08663V18.5128C1 19.0572 1.43184 19.5 1.96262 19.5H18.5868C19.1176 19.5 19.5494 19.0572 19.5494 18.5128V8.08663C19.5494 7.62629 19.2406 7.23858 18.8242 7.12986C19.3967 6.32764 19.7522 5.35315 19.799 4.29867H20.8047C20.8775 4.29867 20.9443 4.25713 20.9779 4.19095C21.0115 4.12473 21.0065 4.04484 20.9648 3.98363L18.6935 0.65124ZM19.6088 3.89806C19.5015 3.89806 19.4143 3.98684 19.4135 4.09684C19.4051 5.23333 19.0084 6.27824 18.3539 7.09941H14.492C14.5643 7.0797 14.64 7.06909 14.7182 7.06909C16.3141 7.06909 17.6299 5.73766 17.6516 4.10109C17.6523 4.04749 17.632 3.99585 17.5954 3.95771C17.5587 3.91953 17.5086 3.89806 17.4563 3.89806H16.637L18.5335 1.11563L20.4299 3.89806H19.6088ZM18.5868 7.50002C18.9022 7.50002 19.1588 7.76318 19.1588 8.08663V13.0994H10.9991C10.9492 13.0994 10.9011 13.1191 10.8648 13.1543L4.74031 19.0994H1.96262C1.64723 19.0994 1.39063 18.8363 1.39063 18.5128V8.08663C1.39063 8.0767 1.39113 8.06724 1.39176 8.05603C1.40703 7.74427 1.65777 7.50006 1.96258 7.50006H18.5868V7.50002ZM18.5868 19.0994H5.30863L11.0769 13.5H19.1588V18.5128C19.1588 18.8363 18.9022 19.0994 18.5868 19.0994ZM13.8889 0.915763C13.9405 0.948132 14.0008 1.05521 14.0008 1.25055V7.09941H2.00488L13.736 0.930425C13.7995 0.897014 13.851 0.892006 13.8889 0.915763ZM8.99238 2.97474L2.66984 6.29951L8.94707 0.929584C8.96797 0.982224 8.99238 1.0839 8.99238 1.25059V2.97474Z" fill="#FF8926" stroke="#FF8926"/>
</svg>
