<svg width="21" height="24" viewBox="0 0 21 24" fill="none" xmlns="http://www.w3.org/2000/svg">
<path d="M19.25 10.44V9.42857C19.25 8.74659 18.9734 8.09253 18.4812 7.6103C17.9889 7.12806 17.3212 6.85714 16.625 6.85714H14.875C14.6429 6.85714 14.4204 6.94745 14.2563 7.10819C14.0922 7.26894 14 7.48696 14 7.71429C14 7.94161 14.0922 8.15963 14.2563 8.32038C14.4204 8.48112 14.6429 8.57143 14.875 8.57143H16.625C16.8571 8.57143 17.0796 8.66173 17.2437 8.82248C17.4078 8.98323 17.5 9.20124 17.5 9.42857V10.2857H2.625C2.39294 10.2857 2.17038 10.1954 2.00628 10.0347C1.84219 9.87392 1.75 9.6559 1.75 9.42857C1.75 9.20124 1.84219 8.98323 2.00628 8.82248C2.17038 8.66173 2.39294 8.57143 2.625 8.57143H4.375C4.60706 8.57143 4.82962 8.48112 4.99372 8.32038C5.15781 8.15963 5.25 7.94161 5.25 7.71429C5.25 7.48696 5.15781 7.26894 4.99372 7.10819C4.82962 6.94745 4.60706 6.85714 4.375 6.85714H2.625C1.92881 6.85714 1.26113 7.12806 0.768845 7.6103C0.276562 8.09253 0 8.74659 0 9.42857V21.4286C0 22.1106 0.276562 22.7646 0.768845 23.2468C1.26113 23.7291 1.92881 24 2.625 24H18.375C19.0712 24 19.7389 23.7291 20.2312 23.2468C20.7234 22.7646 21 22.1106 21 21.4286V12.8571C20.9985 12.3266 20.8295 11.8095 20.5162 11.3768C20.2029 10.9441 19.7606 10.6168 19.25 10.44ZM18.375 22.2857H2.625C2.39294 22.2857 2.17038 22.1954 2.00628 22.0347C1.84219 21.8739 1.75 21.6559 1.75 21.4286V11.8457C2.03059 11.9455 2.3265 11.9977 2.625 12H18.375C18.6071 12 18.8296 12.0903 18.9937 12.2511C19.1578 12.4118 19.25 12.6298 19.25 12.8571V14.5714H16.625C15.9288 14.5714 15.2611 14.8423 14.7688 15.3246C14.2766 15.8068 14 16.4609 14 17.1429C14 17.8248 14.2766 18.4789 14.7688 18.9611C15.2611 19.4434 15.9288 19.7143 16.625 19.7143H19.25V21.4286C19.25 21.6559 19.1578 21.8739 18.9937 22.0347C18.8296 22.1954 18.6071 22.2857 18.375 22.2857ZM19.25 16.2857V18H16.625C16.3929 18 16.1704 17.9097 16.0063 17.7489C15.8422 17.5882 15.75 17.3702 15.75 17.1429C15.75 16.9155 15.8422 16.6975 16.0063 16.5368C16.1704 16.376 16.3929 16.2857 16.625 16.2857H19.25ZM6.37875 5.75143C6.21398 5.59003 6.12142 5.37112 6.12142 5.14286C6.12142 5.02984 6.14414 4.91792 6.1883 4.8135C6.23245 4.70908 6.29717 4.6142 6.37875 4.53429C6.46033 4.45437 6.55719 4.39097 6.66378 4.34772C6.77038 4.30447 6.88462 4.28221 7 4.28221C7.23301 4.28221 7.45648 4.37288 7.62125 4.53429L8.75 5.64857V0.857143C8.75 0.629814 8.84219 0.411797 9.00628 0.251051C9.17038 0.0903058 9.39294 0 9.625 0C9.85706 0 10.0796 0.0903058 10.2437 0.251051C10.4078 0.411797 10.5 0.629814 10.5 0.857143V5.64857L11.6288 4.53429C11.7935 4.37288 12.017 4.28221 12.25 4.28221C12.483 4.28221 12.7065 4.37288 12.8712 4.53429C13.036 4.69569 13.1286 4.9146 13.1286 5.14286C13.1286 5.37112 13.036 5.59003 12.8712 5.75143L10.2463 8.32286C10.1649 8.4032 10.0681 8.46696 9.9615 8.51048C9.85488 8.55399 9.74051 8.5764 9.625 8.5764C9.50949 8.5764 9.39512 8.55399 9.2885 8.51048C9.18187 8.46696 9.08509 8.4032 9.00375 8.32286L6.37875 5.75143Z" fill="#FF8926"/>
</svg>
