<svg width="18" height="24" viewBox="0 0 18 24" fill="none" xmlns="http://www.w3.org/2000/svg">
<path d="M1 4.14936V5.74198C1 5.97652 1.18995 6.16668 1.4247 6.16668H3.01732C3.25206 6.16668 3.44201 5.97652 3.44201 5.74198C3.44201 5.50744 3.25206 5.31728 3.01732 5.31728H2.45212C6.10156 1.7538 11.9667 1.77578 15.5832 5.39194C15.7491 5.55783 16.0179 5.55784 16.1838 5.39194C16.3497 5.22604 16.3497 4.95728 16.1838 4.79139C12.2355 0.843123 5.8297 0.821765 1.8494 4.7187V4.14936C1.8494 3.91482 1.65944 3.72467 1.4247 3.72467C1.18995 3.72467 1 3.91482 1 4.14936Z" fill="#FF8926" stroke="#FF8926" stroke-width="0.5"/>
<path d="M16.5753 20.2613C16.8101 20.2613 17 20.0712 17 19.8367V18.244C17 18.0095 16.8101 17.8193 16.5753 17.8193H14.9827C14.748 17.8193 14.558 18.0095 14.558 18.244C14.558 18.4786 14.748 18.6687 14.9827 18.6687H15.5133C11.8648 22.2442 5.99012 22.2257 2.3695 18.6055C2.2036 18.4396 1.93485 18.4396 1.76895 18.6055C1.60306 18.7714 1.60305 19.0401 1.76895 19.206C3.75599 21.1931 6.36639 22.1866 8.97638 22.1866C11.5724 22.1866 14.1676 21.2018 16.1506 19.236V19.8367C16.1506 20.0712 16.3406 20.2613 16.5753 20.2613Z" fill="#FF8926" stroke="#FF8926" stroke-width="0.5"/>
<path d="M8.71611 12.391C8.97795 12.483 9.29395 12.2825 9.65675 12.7768C9.90228 13.1103 9.86827 13.6048 9.57961 13.9028C9.40707 14.081 9.16237 14.178 8.93178 14.1732C8.68749 14.1697 8.46229 14.0687 8.29805 13.8887C8.13961 13.7154 7.87128 13.704 7.69791 13.8618C7.52496 14.0202 7.51293 14.2887 7.67095 14.4619C7.91223 14.7256 8.23065 14.906 8.57592 14.982V15.6819C8.57592 15.9164 8.76588 16.1066 9.00062 16.1066C9.23536 16.1066 9.42532 15.9164 9.42532 15.6819V14.9471C9.71139 14.8644 9.97527 14.7156 10.1901 14.4938C10.7683 13.8968 10.833 12.9423 10.3411 12.2735C9.59439 11.258 8.92183 11.8568 8.41127 11.2982C8.25159 11.1238 8.16947 10.8986 8.17984 10.6637C8.2017 10.1692 8.6266 9.79871 9.09477 9.82237C9.3291 9.83232 9.54642 9.93373 9.70569 10.1081C9.86412 10.2817 10.1333 10.2931 10.3058 10.1349C10.4788 9.97665 10.4908 9.7079 10.3328 9.53495C10.0878 9.26702 9.77184 9.09045 9.42532 9.01528V8.31581C9.42532 8.08127 9.23537 7.89111 9.00062 7.89111C8.76588 7.89111 8.57593 8.08127 8.57593 8.31581V9.04783C7.83587 9.2632 7.36239 9.9051 7.33128 10.6266C7.29581 11.4318 7.82074 12.2031 8.71611 12.391Z" fill="#FF8926" stroke="#FF8926" stroke-width="0.5"/>
<path d="M8.99994 18.8122C12.7567 18.8122 15.8134 15.7557 15.8134 11.9988C15.8134 8.24201 12.7567 5.18555 8.99994 5.18555C5.24319 5.18555 2.18652 8.24201 2.18652 11.9988C2.18652 15.7557 5.24319 18.8122 8.99994 18.8122ZM8.99994 6.03494C12.2884 6.03494 14.964 8.71025 14.964 11.9988C14.964 15.2873 12.2884 17.9628 8.99994 17.9628C5.71143 17.9628 3.03592 15.2873 3.03592 11.9988C3.03592 8.71025 5.71143 6.03494 8.99994 6.03494Z" fill="#FF8926" stroke="#FF8926" stroke-width="0.5"/>
</svg>
