<svg width="20" height="20" viewBox="0 0 20 20" fill="none" xmlns="http://www.w3.org/2000/svg">
<path d="M9.99996 3.33325C9.77895 3.33325 9.56698 3.42105 9.4107 3.57733C9.25442 3.73361 9.16663 3.94557 9.16663 4.16659C9.16663 4.3876 9.25442 4.59956 9.4107 4.75584C9.56698 4.91212 9.77895 4.99992 9.99996 4.99992C10.221 4.99992 10.4329 4.91212 10.5892 4.75584C10.7455 4.59956 10.8333 4.3876 10.8333 4.16659C10.8333 3.94557 10.7455 3.73361 10.5892 3.57733C10.4329 3.42105 10.221 3.33325 9.99996 3.33325Z" stroke="#7A7A7A" stroke-width="1.5" stroke-linecap="round" stroke-linejoin="round"/>
<path d="M9.99996 9.16675C9.77895 9.16675 9.56698 9.25455 9.4107 9.41083C9.25442 9.56711 9.16663 9.77907 9.16663 10.0001C9.16663 10.2211 9.25442 10.4331 9.4107 10.5893C9.56698 10.7456 9.77895 10.8334 9.99996 10.8334C10.221 10.8334 10.4329 10.7456 10.5892 10.5893C10.7455 10.4331 10.8333 10.2211 10.8333 10.0001C10.8333 9.77907 10.7455 9.56711 10.5892 9.41083C10.4329 9.25455 10.221 9.16675 9.99996 9.16675Z" stroke="#7A7A7A" stroke-width="1.5" stroke-linecap="round" stroke-linejoin="round"/>
<path d="M9.99996 15C9.77895 15 9.56698 15.0878 9.4107 15.2441C9.25442 15.4004 9.16663 15.6123 9.16663 15.8333C9.16663 16.0543 9.25442 16.2663 9.4107 16.4226C9.56698 16.5789 9.77895 16.6667 9.99996 16.6667C10.221 16.6667 10.4329 16.5789 10.5892 16.4226C10.7455 16.2663 10.8333 16.0543 10.8333 15.8333C10.8333 15.6123 10.7455 15.4004 10.5892 15.2441C10.4329 15.0878 10.221 15 9.99996 15Z" stroke="#7A7A7A" stroke-width="1.5" stroke-linecap="round" stroke-linejoin="round"/>
</svg>
