<svg width="28" height="28" viewBox="0 0 28 28" fill="none" xmlns="http://www.w3.org/2000/svg">
<path d="M13.674 14.9351C14.1379 14.9351 14.514 14.559 14.514 14.0951C14.514 13.6312 14.1379 13.2551 13.674 13.2551C13.2101 13.2551 12.834 13.6312 12.834 14.0951C12.834 14.559 13.2101 14.9351 13.674 14.9351Z" fill="black" stroke="black" stroke-width="2" stroke-linecap="round" stroke-linejoin="round"/>
<path d="M13.674 9.24006C14.1379 9.24006 14.514 8.86398 14.514 8.40006C14.514 7.93614 14.1379 7.56006 13.674 7.56006C13.2101 7.56006 12.834 7.93614 12.834 8.40006C12.834 8.86398 13.2101 9.24006 13.674 9.24006Z" fill="black" stroke="black" stroke-width="2" stroke-linecap="round" stroke-linejoin="round"/>
<path d="M13.674 20.6302C14.1379 20.6302 14.514 20.2541 14.514 19.7902C14.514 19.3263 14.1379 18.9502 13.674 18.9502C13.2101 18.9502 12.834 19.3263 12.834 19.7902C12.834 20.2541 13.2101 20.6302 13.674 20.6302Z" fill="black" stroke="black" stroke-width="2" stroke-linecap="round" stroke-linejoin="round"/>
</svg>
