<svg width="25" height="22" viewBox="0 0 25 22" fill="none" xmlns="http://www.w3.org/2000/svg">
<path d="M12.5482 21.4962C13.8686 21.4962 15.0167 21.0944 15.8491 20.2619L18.5186 17.5925C19.2649 16.8462 19.6668 15.8415 19.7529 14.636C19.7816 14.3202 19.5232 14.0619 19.2075 14.0332C18.8917 14.0332 18.6334 14.2628 18.6047 14.5786C18.5473 15.4971 18.2603 16.2434 17.7149 16.7888C16.8251 17.6786 15.3325 17.9082 13.4954 17.4489C11.6009 16.9036 9.56296 15.6406 7.84072 13.9184C4.39624 10.4739 3.10456 5.93865 4.99903 4.04419C6.37682 2.6664 9.24721 2.92474 12.1463 4.70438C12.4047 4.87661 12.7778 4.79049 12.95 4.50345C13.1223 4.24512 13.0361 3.87197 12.7491 3.69974C9.36203 1.60435 6.00367 1.40342 4.19531 3.21178L1.52585 5.88125C0.320278 7.08681 -0.0241696 8.98128 0.578614 11.1915C1.15269 13.3156 2.47308 15.4971 4.36754 17.3915C6.9796 20.0323 10.0509 21.4962 12.5482 21.4962ZM2.32956 12.6841L4.16661 10.847C4.39624 11.2776 4.62587 11.6794 4.88421 12.0813L3.01845 13.9471C2.76012 13.5452 2.53048 13.1146 2.32956 12.6841ZM1.66936 10.9331C1.61196 10.7035 1.55455 10.5026 1.52585 10.273L3.24808 8.55071C3.3629 8.95257 3.47772 9.35443 3.64994 9.75628L1.87029 11.5359C1.78418 11.335 1.72677 11.1341 1.66936 10.9331ZM5.57311 13.0572C5.88885 13.4878 6.262 13.9184 6.63515 14.3202L4.76939 16.186C4.39624 15.7841 4.02309 15.3536 3.70735 14.923L5.57311 13.0572ZM8.67313 16.186L6.80738 18.023C6.37682 17.7073 5.97496 17.3628 5.57311 16.9897L7.43886 15.1239C7.84072 15.4971 8.24258 15.8415 8.67313 16.186ZM10.8546 17.5638L9.04629 19.3721C8.61573 19.1712 8.21387 18.9416 7.78331 18.6832L9.62037 16.8462C10.0222 17.1045 10.4241 17.3628 10.8546 17.5638ZM13.1797 18.4823L11.4574 20.2045C11.0556 20.1184 10.625 20.0036 10.1944 19.8601L11.9741 18.0804C12.3759 18.2527 12.7778 18.3962 13.1797 18.4823ZM15.2463 18.798C15.3899 18.798 15.5334 18.798 15.6769 18.7693L15.0167 19.4295C14.5 19.9462 13.7824 20.2332 12.9787 20.2906L14.5287 18.7406C14.7871 18.7693 15.0167 18.798 15.2463 18.798ZM2.98975 7.17292L1.43973 8.72294C1.52585 7.89052 1.81288 7.23033 2.30085 6.71366L2.96104 6.05347C2.96104 6.42662 2.96104 6.79977 2.98975 7.17292Z" fill="white"/>
<path d="M18.6908 0.773786C18.4612 0.544155 18.1167 0.544155 17.8871 0.773786C17.7723 0.888602 17.7148 1.06083 17.7148 1.23305C17.7148 1.26175 17.7148 1.26175 17.7148 1.29046V4.07474C14.7583 4.39049 9.87866 7.00255 9.87866 12.5711C9.87866 12.5998 9.87866 12.6285 9.87866 12.6285C9.87866 12.6572 9.87866 12.6572 9.87866 12.6859C9.87866 12.7146 9.87866 12.7146 9.90737 12.7433C9.90737 12.772 9.90737 12.772 9.93607 12.8008C9.93607 12.8295 9.96477 12.8295 9.96477 12.8582C9.96477 12.8869 9.99348 12.8869 9.99348 12.9156L10.0222 12.9443C10.0222 12.973 10.0509 12.973 10.0796 13.0017L10.1083 13.0304C10.137 13.0304 10.137 13.0591 10.1657 13.0591C10.1944 13.0591 10.1944 13.0878 10.2231 13.0878C10.2518 13.0878 10.2518 13.1165 10.2805 13.1165C10.3092 13.1165 10.3092 13.1165 10.3379 13.1452C10.3666 13.1452 10.3666 13.1452 10.3666 13.1452C10.3953 13.1452 10.4527 13.1452 10.4814 13.1452C10.5101 13.1452 10.5676 13.1452 10.5963 13.1452C10.625 13.1452 10.6824 13.1165 10.7111 13.1165C10.7398 13.1165 10.7685 13.0878 10.7972 13.0591L10.8259 13.0304C10.8546 13.0017 10.8546 13.0017 10.8833 12.973C14.0694 9.58591 16.1074 9.27016 17.7148 9.24146V11.997C17.7148 12.0257 17.7148 12.0832 17.7148 12.1119C17.7148 12.1406 17.7148 12.1406 17.7436 12.1693C17.7436 12.198 17.7436 12.198 17.7723 12.2267C17.7723 12.2554 17.801 12.2554 17.801 12.2841C17.801 12.2841 17.801 12.3128 17.8297 12.3128C17.8584 12.3415 17.8871 12.3702 17.9158 12.3989C17.9445 12.4276 17.9732 12.4563 18.0019 12.4563L18.0306 12.485C18.0593 12.485 18.0593 12.5137 18.088 12.5137C18.1167 12.5137 18.1167 12.5137 18.1454 12.5424C18.1741 12.5424 18.1741 12.5424 18.2028 12.5711C18.2315 12.5711 18.2889 12.5711 18.3176 12.5711C18.3463 12.5711 18.4037 12.5711 18.4324 12.5711C18.4612 12.5711 18.4612 12.5711 18.4899 12.5424C18.5186 12.5424 18.5186 12.5424 18.5473 12.5137C18.576 12.5137 18.576 12.485 18.6047 12.485C18.6334 12.485 18.6334 12.485 18.6621 12.4563C18.6908 12.4276 18.7195 12.3989 18.7482 12.3702L24.1158 6.97385C24.3455 6.74421 24.3455 6.39977 24.1158 6.17013L18.6908 0.773786ZM18.863 10.5905V8.66738C18.863 8.35164 18.6047 8.0933 18.2889 8.0933H18.2028C18.1741 8.0933 18.1454 8.0933 18.088 8.0933C16.4806 8.0933 14.3278 8.15071 11.199 11.0498C12.0315 7.14607 15.9639 5.1942 18.2889 5.1942C18.6047 5.1942 18.863 4.93586 18.863 4.62012V2.58214L22.8529 6.60069L18.863 10.5905Z" fill="white"/>
</svg>
