<svg width="24" height="17" viewBox="0 0 24 17" fill="none" xmlns="http://www.w3.org/2000/svg">
<rect x="0.395508" y="0.398438" width="23.2895" height="16.2982" rx="1" fill="white"/>
<path d="M22.1053 16.974H1.85526C0.828947 16.974 0 16.1392 0 15.1057V1.86834C0 0.834789 0.828947 0 1.85526 0H22.1447C23.1711 0 24 0.834789 24 1.86834V15.1057C23.9605 16.1392 23.1316 16.974 22.1053 16.974ZM2.02631 0.987061C1.43421 0.987061 0.960526 1.46408 0.960526 2.06036V14.9138C0.960526 15.51 1.43421 15.9871 2.02631 15.9871H21.8947C22.4868 15.9871 22.9605 15.51 22.9605 14.9138V2.06036C22.9605 1.46408 22.4868 0.987061 21.8947 0.987061H2.02631Z" fill="#FF8926"/>
<path d="M16.5003 8.09053C15.1976 8.09053 14.1318 7.01723 14.1318 5.70542C14.1318 4.39361 15.1976 3.32031 16.5003 3.32031C17.8029 3.32031 18.8687 4.39361 18.8687 5.70542C18.8687 7.01723 17.8029 8.09053 16.5003 8.09053ZM16.5003 4.11535C15.6318 4.11535 14.9213 4.83088 14.9213 5.70542C14.9213 6.57996 15.6318 7.2955 16.5003 7.2955C17.3687 7.2955 18.0792 6.57996 18.0792 5.70542C18.0792 4.83088 17.3687 4.11535 16.5003 4.11535Z" fill="#FF8926"/>
<path d="M19.2236 8.09053C18.592 8.09053 18.0394 7.85202 17.5657 7.41475C17.4078 7.25574 17.4078 7.01723 17.5657 6.85823C17.7236 6.69922 17.9604 6.69922 18.1183 6.85823C18.3946 7.13649 18.7894 7.2955 19.2236 7.2955C20.092 7.2955 20.8025 6.57996 20.8025 5.70542C20.8025 4.83088 20.092 4.11535 19.2236 4.11535C18.8288 4.11535 18.4341 4.27436 18.1183 4.55262C17.9604 4.71163 17.7236 4.71163 17.5657 4.55262C17.4078 4.39361 17.4078 4.1551 17.5657 3.99609C17.9999 3.55882 18.592 3.32031 19.2236 3.32031C20.5262 3.32031 21.592 4.39361 21.592 5.70542C21.592 7.01723 20.5262 8.09053 19.2236 8.09053Z" fill="#FF8926"/>
<path d="M21.1577 13.625H19.1445C18.9077 13.625 18.7498 13.425 18.7498 13.125C18.7498 12.825 18.9077 12.625 19.1445 12.625H21.1577C21.3945 12.625 21.5524 12.825 21.5524 13.125C21.5524 13.425 21.3945 13.625 21.1577 13.625ZM17.1314 13.625H15.1182C14.8814 13.625 14.7235 13.425 14.7235 13.125C14.7235 12.825 14.8814 12.625 15.1182 12.625H17.1314C17.3682 12.625 17.5261 12.825 17.5261 13.125C17.5261 13.425 17.3682 13.625 17.1314 13.625ZM13.1051 13.625H11.0919C10.8551 13.625 10.6972 13.425 10.6972 13.125C10.6972 12.825 10.8551 12.625 11.0919 12.625H13.1051C13.3419 12.625 13.4998 12.825 13.4998 13.125C13.4998 13.425 13.3419 13.625 13.1051 13.625ZM9.07874 13.625H7.06558C6.82874 13.625 6.67085 13.425 6.67085 13.125C6.67085 12.825 6.82874 12.625 7.06558 12.625H9.07874C9.31558 12.625 9.47348 12.825 9.47348 13.125C9.47348 13.425 9.27611 13.625 9.07874 13.625ZM5.05243 13.625H3.03927C2.80243 13.625 2.64453 13.425 2.64453 13.125C2.64453 12.825 2.80243 12.625 3.03927 12.625H5.05243C5.28927 12.625 5.44716 12.825 5.44716 13.125C5.44716 13.425 5.24979 13.625 5.05243 13.625Z" fill="#FF8926"/>
<path d="M10.0259 5.59375H4.1838C3.94696 5.59375 3.78906 5.39375 3.78906 5.09375C3.78906 4.79375 3.94696 4.59375 4.1838 4.59375H10.0259C10.2627 4.59375 10.4206 4.79375 10.4206 5.09375C10.4206 5.39375 10.2233 5.59375 10.0259 5.59375Z" fill="#FF8926"/>
<path d="M8.48643 7.42188H4.1838C3.94696 7.42188 3.78906 7.22188 3.78906 6.92188C3.78906 6.62187 3.94696 6.42188 4.1838 6.42188H8.48643C8.72327 6.42188 8.88117 6.62187 8.88117 6.92188C8.88117 7.22188 8.6838 7.42188 8.48643 7.42188Z" fill="#FF8926"/>
</svg>
