<svg width="21" height="22" viewBox="0 0 21 22" fill="none" xmlns="http://www.w3.org/2000/svg">
<path d="M18.1193 13.2125C16.9979 12.9616 15.9765 12.5161 15.3142 12.1849C14.9597 12.0099 14.6731 11.7376 14.4776 11.4055C15.2615 10.6653 15.7641 9.62875 15.8079 8.46364L15.9213 5.43976C16.0579 1.42644 11.1116 -0.465367 8.36615 2.32469C7.55546 3.16662 7.13317 4.27282 7.17692 5.44068L7.2903 8.46455C7.33405 9.63058 7.8367 10.6671 8.62149 11.4073C8.42507 11.7394 8.13937 12.0099 7.79563 12.1805C7.4644 12.2956 7.22512 12.5849 7.37421 12.942C7.80989 13.8429 9.18842 12.5322 9.47501 12.0287C10.6839 12.7376 12.415 12.7376 13.6239 12.0287C13.9203 12.4956 14.3399 12.876 14.8462 13.126C15.5586 13.4822 16.6648 13.9643 17.8863 14.2375C18.5264 14.3848 18.9728 14.9393 18.9728 15.5857V16.8026L18.2836 16.9794C16.2524 17.5052 14.1455 17.7892 12.023 17.8249C11.3391 17.8445 11.3463 18.8668 12.0311 18.8766C14.2399 18.8418 16.4327 18.5454 18.546 17.9981L19.3567 17.79C19.7495 17.6883 20.0245 17.3338 20.0245 16.9294V15.5857C20.0245 14.4464 19.2424 13.4706 18.1184 13.2116L18.1193 13.2125ZM8.34119 8.42531L8.2278 5.40143C8.19477 4.52199 8.51261 3.68811 9.12331 3.0541C11.1893 0.955969 14.9802 2.35413 14.8696 5.40143L14.7562 8.42462C14.4803 12.5218 8.61634 12.5227 8.34046 8.42462L8.34119 8.42531Z" fill="white" stroke="white" stroke-width="0.5"/>
<path d="M5.83599 14.2212C7.0047 12.5284 5.69939 10.0893 3.63697 10.1304C2.22007 10.1009 0.971027 11.35 1.00051 12.7669C0.96212 14.832 3.39767 16.1336 5.09314 14.965L7.64572 17.5176L7.08593 18.0774C6.88058 18.2827 6.88058 18.6157 7.08593 18.8211C7.29128 19.0264 7.62431 19.0264 7.82965 18.8211L8.38944 18.2613L9.13851 19.0104L8.0466 20.1023C7.71089 20.4139 7.96892 21.0165 8.41801 20.9996C8.55283 20.9996 8.68676 20.9487 8.78943 20.8451L9.88133 19.7532L10.2563 20.1282C10.4617 20.3335 10.7947 20.3335 11 20.1282C11.2054 19.9228 11.2054 19.5898 11 19.3844L5.8359 14.2203L5.83599 14.2212ZM2.51659 13.8873C1.08003 12.3624 3.23263 10.2097 4.75757 11.6463C6.19413 13.1721 4.04153 15.3239 2.51659 13.8873Z" fill="white" stroke="white" stroke-width="0.5"/>
</svg>
