<svg width="25" height="24" viewBox="0 0 25 24" fill="none" xmlns="http://www.w3.org/2000/svg">
<path d="M4.40234 22.96V3.47559C4.40234 2.82965 4.65895 2.21015 5.1157 1.7534C5.57246 1.29664 6.19195 1.04004 6.8379 1.04004H19.0157C19.6616 1.04004 20.2811 1.29664 20.7379 1.7534C21.1946 2.21015 21.4512 2.82965 21.4512 3.47559V22.96L17.7979 20.5245L15.3623 22.96L12.9268 20.5245L10.4912 22.96L8.05568 20.5245L4.40234 22.96Z" stroke="black" stroke-width="1.59376" stroke-linecap="round" stroke-linejoin="round"/>
<path d="M15.3613 7.12891H12.3169C11.8324 7.12891 11.3678 7.32136 11.0253 7.66393C10.6827 8.0065 10.4902 8.47112 10.4902 8.95558C10.4902 9.44004 10.6827 9.90466 11.0253 10.2472C11.3678 10.5898 11.8324 10.7822 12.3169 10.7822H13.5347C14.0191 10.7822 14.4838 10.9747 14.8263 11.3173C15.1689 11.6598 15.3613 12.1245 15.3613 12.6089C15.3613 13.0934 15.1689 13.558 14.8263 13.9006C14.4838 14.2431 14.0191 14.4356 13.5347 14.4356H10.4902M12.9258 14.4356V16.2622M12.9258 5.30225V7.12891" stroke="black" stroke-width="1.59376" stroke-linecap="round" stroke-linejoin="round"/>
</svg>
