<svg width="25" height="24" viewBox="0 0 25 24" fill="none" xmlns="http://www.w3.org/2000/svg">
<path d="M12.5769 10.7835H9.96169C9.54554 10.7835 9.14643 10.9488 8.85216 11.2431C8.5579 11.5373 8.39258 11.9364 8.39258 12.3526C8.39258 12.7687 8.5579 13.1679 8.85216 13.4621C9.14643 13.7564 9.54554 13.9217 9.96169 13.9217H11.0078C11.4239 13.9217 11.823 14.087 12.1173 14.3813C12.4116 14.6756 12.5769 15.0747 12.5769 15.4908C12.5769 15.907 12.4116 16.3061 12.1173 16.6004C11.823 16.8946 11.4239 17.0599 11.0078 17.0599H8.39258M10.4847 17.0599V18.6291M10.4847 9.21436V10.7835" stroke="black" stroke-width="1.66667" stroke-linecap="round" stroke-linejoin="round"/>
<path fill-rule="evenodd" clip-rule="evenodd" d="M22.4966 1.99022L22.4141 1L21.4239 1.07616L21.4234 1.07621L21.4228 1.07625L14.9234 1.57621C14.3727 1.61857 13.9606 2.0993 14.003 2.64996C14.0454 3.20062 14.5261 3.61268 15.0767 3.57032L19.18 3.25468L14.4854 8.76582C14.1273 9.18624 14.1778 9.81739 14.5982 10.1755C15.0186 10.5337 15.6498 10.4832 16.0079 10.0627L20.7031 4.55098L21.0035 8.15631C21.0494 8.70669 21.5327 9.11567 22.0831 9.06981C22.6335 9.02395 23.0425 8.5406 22.9966 7.99022L22.4966 1.99022Z" fill="black"/>
<path fill-rule="evenodd" clip-rule="evenodd" d="M14.1434 4.31216C13.5016 4.29078 12.7896 4.28564 10.8571 4.28564C8.17929 4.28564 7.84496 4.29797 6.79354 4.34479C5.74375 4.39407 5.02911 4.55918 4.40071 4.80314C3.74286 5.05061 3.14689 5.43858 2.65436 5.94C2.15194 6.43172 1.76382 7.02792 1.5175 7.68636C1.27354 8.31475 1.10761 9.02939 1.05914 10.0792C1.00986 11.1306 1 11.4649 1 14.1428C1 16.8206 1.01232 17.155 1.05914 18.2064C1.10843 19.2554 1.27354 19.9708 1.5175 20.5992C1.76508 21.257 2.15304 21.853 2.65436 22.3456C3.14638 22.8476 3.7425 23.2357 4.40071 23.4824C5.02993 23.7256 5.74457 23.8923 6.79354 23.9408C7.84496 23.9901 8.17929 23.9999 10.8571 23.9999C13.535 23.9999 13.8693 23.9876 14.9208 23.9408C15.9697 23.8915 16.6852 23.7256 17.3136 23.4824C17.9713 23.2346 18.5672 22.8467 19.0599 22.3456C19.5621 21.8537 19.9502 21.2575 20.1968 20.5992C20.4399 19.9708 20.6067 19.2554 20.6551 18.2064C20.7044 17.155 20.7143 16.8206 20.7143 14.1428C20.7143 11.4649 20.702 11.1306 20.6551 10.0792C20.6545 10.0646 20.6537 10.05 20.653 10.0356H18.8752C18.8776 10.0759 18.8797 10.1169 18.8817 10.1589C18.9285 11.1988 18.9392 11.5109 18.9392 14.1428C18.9392 16.7746 18.9269 17.0876 18.8776 18.1267C18.8283 19.0878 18.6681 19.6094 18.5326 19.956C18.3477 20.4177 18.1383 20.7446 17.7933 21.0913C17.4491 21.4363 17.1164 21.649 16.6597 21.8273C16.3147 21.9628 15.7849 22.123 14.8238 22.1673C13.7773 22.2141 13.4693 22.2248 10.8325 22.2248C8.19571 22.2248 7.88686 22.2125 6.84036 22.1632C5.87929 22.1139 5.34946 21.9538 5.00446 21.8182C4.53625 21.6334 4.21589 21.4239 3.87089 21.0789C3.52589 20.7348 3.30411 20.4021 3.13161 19.9454C2.99689 19.6004 2.83671 19.0705 2.78661 18.1095L2.78436 18.0451C2.74992 17.06 2.73732 16.6997 2.73732 14.1305C2.73732 11.5635 2.74989 11.2002 2.78423 10.2071L2.78661 10.1383C2.83754 9.17725 2.99689 8.64743 3.13161 8.30243C3.30411 7.83422 3.52589 7.51386 3.87089 7.16886C4.21589 6.82386 4.53625 6.60207 5.00446 6.43122C5.34946 6.29486 5.86696 6.13468 6.82804 6.08539L6.87674 6.08368C7.88637 6.04805 8.22468 6.03611 10.8202 6.03611L10.8571 6.05993C12.8235 6.05993 13.4956 6.06727 14.1434 6.08984V4.31216Z" fill="black"/>
</svg>
