<svg width="21" height="24" viewBox="0 0 21 24" fill="none" xmlns="http://www.w3.org/2000/svg">
<path d="M20.7141 2.285V21.967H1.03906V6.543L6.22006 1H19.5501C19.8726 1.02209 20.174 1.16829 20.3911 1.40789C20.6081 1.64749 20.7239 1.96186 20.7141 2.285Z" fill="white" stroke="#D8D8D8" stroke-width="0.5"/>
<path d="M5.3381 6.208H1.0791L6.4791 1L6.4401 5.076C6.44848 5.2243 6.42595 5.37273 6.37393 5.51187C6.32191 5.651 6.24155 5.77781 6.13794 5.88424C6.03432 5.99068 5.90972 6.07442 5.77203 6.13015C5.63434 6.18588 5.48658 6.21239 5.3381 6.208Z" fill="#D8D8D8"/>
<path d="M12.791 11.201C12.096 10.5538 11.467 9.83927 10.913 9.06796C11.213 8.64096 11.927 6.18795 10.838 5.47695C9.749 4.76595 9.186 6.07696 9.186 6.07696C9.06683 6.61643 9.06553 7.17528 9.1822 7.7153C9.29887 8.25532 9.53075 8.76379 9.862 9.20595L8.548 11.943C8.398 11.943 4.23 13.472 5.657 15.356C7.121 17.24 9.149 12.69 9.149 12.69C10.2026 12.446 11.268 12.256 12.341 12.121C12.8754 12.8279 13.588 13.38 14.406 13.721C16.133 14.148 16.321 12.797 16.321 12.797C16.358 11.023 12.791 11.201 12.791 11.201ZM6.37 14.721C6.36507 14.7214 6.36011 14.7208 6.35544 14.7191C6.35077 14.7175 6.3465 14.7149 6.34291 14.7115C6.33932 14.7081 6.33649 14.704 6.33461 14.6994C6.33273 14.6948 6.33184 14.6899 6.332 14.685C6.107 14.185 7.832 13.227 7.832 13.227C7.832 13.227 6.9 14.935 6.37 14.721ZM10.275 6.12095C10.763 6.54795 10.35 8.00495 10.35 8.00495C10.35 8.00495 9.787 6.54296 10.275 6.11696V6.12095ZM9.824 11.632L10.5 10.059L11.551 11.268L9.824 11.632ZM15.381 12.77C15.081 13.232 13.841 12.237 13.729 12.13C13.917 12.13 15.529 12.237 15.381 12.77ZM20.713 18.67V22.87C20.7023 23.1792 20.5705 23.4718 20.346 23.6846C20.1215 23.8975 19.8223 24.0137 19.513 24.008H2.2C1.88882 24.0136 1.58803 23.896 1.36324 23.6807C1.13844 23.4655 1.00787 23.1701 1 22.859V18.659L20.713 18.67Z" fill="#C5270A"/>
<path d="M8.39889 20.6106C8.39731 20.7828 8.35532 20.9522 8.27629 21.1052C8.19726 21.2583 8.08341 21.3906 7.94389 21.4916C7.54157 21.7023 7.08912 21.7984 6.63589 21.7696H6.18089V23.1146H5.44189V19.5446H6.74989C7.18498 19.5146 7.61945 19.6111 8.00089 19.8226C8.1344 19.9034 8.2425 20.0202 8.31287 20.1595C8.38324 20.2988 8.41304 20.4551 8.39889 20.6106ZM6.23789 21.3106H6.63789C6.91168 21.3261 7.18537 21.2785 7.43789 21.1716C7.52725 21.1206 7.60095 21.0461 7.65101 20.9562C7.70107 20.8663 7.72558 20.7644 7.72189 20.6616C7.73056 20.5708 7.71394 20.4794 7.67387 20.3975C7.63381 20.3156 7.57186 20.2464 7.49489 20.1976C7.264 20.0904 7.00996 20.0426 6.75589 20.0586H6.24189L6.23789 21.3106ZM12.8919 21.3106C12.9072 21.5689 12.858 21.8271 12.7488 22.0617C12.6395 22.2963 12.4735 22.5001 12.2659 22.6546C11.7495 23.0084 11.1265 23.1724 10.5029 23.1186H9.25189V19.5446H10.6169C11.2034 19.5061 11.7855 19.6699 12.2659 20.0086C12.4688 20.1569 12.632 20.3529 12.7412 20.5793C12.8503 20.8057 12.9021 21.0555 12.8919 21.3066V21.3106ZM12.0919 21.3106C12.0919 20.4296 11.5799 20.0106 10.6129 20.0106H9.99189V22.6106H10.5039C11.5839 22.6506 12.0959 22.1866 12.0959 21.3066L12.0919 21.3106ZM14.5419 23.1146H13.8019V19.5446H16.3019V20.0546H14.5419V21.1676H16.1909V21.6776H14.5419V23.1146Z" fill="#EFF2F3"/>
</svg>
