<svg width="12" height="12" viewBox="0 0 12 12" fill="none" xmlns="http://www.w3.org/2000/svg">
<path fill-rule="evenodd" clip-rule="evenodd" d="M6 0C9.3116 0 12 2.6884 12 6C12 9.3116 9.3116 12 6 12C2.6884 12 0 9.3116 0 6C0 2.6884 2.6884 0 6 0ZM6 0.8C3.13 0.8 0.8 3.13 0.8 6C0.8 8.87 3.13 11.2 6 11.2C8.87 11.2 11.2 8.87 11.2 6C11.2 3.13 8.87 0.8 6 0.8Z" fill="#E02020"/>
<path fill-rule="evenodd" clip-rule="evenodd" d="M6.39985 2.79941V5.60061L9.20105 5.60981C9.42185 5.61061 9.60065 5.79021 9.59985 6.01101C9.59905 6.23181 9.41945 6.41061 9.19865 6.40981L5.99865 6.39941C5.77825 6.39861 5.59985 6.21981 5.59985 5.99941V2.79941C5.59985 2.57861 5.77905 2.39941 5.99985 2.39941C6.22065 2.39941 6.39985 2.57861 6.39985 2.79941Z" fill="#E02020"/>
</svg>
