<svg width="16" height="16" viewBox="0 0 16 16" fill="none" xmlns="http://www.w3.org/2000/svg">
<g clip-path="url(#clip0_26111_77245)">
<path fill-rule="evenodd" clip-rule="evenodd" d="M1.30252 13.744V12.6989H0.60022V12.0181H1.30252V8.34035H0.60022V7.65953H1.30252V3.98111H0.60022V3.30029H1.30252C1.30252 2.28423 1.17854 1.44832 1.96465 0.662136C2.37329 0.253496 2.93707 0 3.55765 0H13.1439C14.3851 0 15.3991 1.01398 15.3991 2.25517L15.3998 13.7441C15.3998 14.9853 14.3858 15.9993 13.1446 15.9993L3.55763 16C2.31648 16 1.30252 14.9852 1.30252 13.744ZM9.79801 5.08292C8.94679 5.08292 8.2521 5.77761 8.2521 6.62882C8.2521 7.9891 9.91228 8.69906 10.8903 7.72107C10.8903 7.71137 11.3439 7.32282 11.3439 6.62882C11.3439 5.93482 10.8903 5.54627 10.8903 5.53657C10.6098 5.25677 10.2233 5.08292 9.79801 5.08292ZM7.14124 10.5754H7.82206C7.82206 9.87998 8.39278 9.30928 9.08814 9.30928H10.508C11.2034 9.30928 11.7741 9.88 11.7741 10.5754H12.4549C12.4549 9.50389 11.5794 8.62853 10.5081 8.62853H9.08821C8.01675 8.62853 7.14124 9.50398 7.14124 10.5754ZM9.79801 5.76378C9.03752 5.76378 8.63927 6.69326 9.18644 7.24041C9.52513 7.5791 10.0702 7.57839 10.4089 7.23972C10.7469 6.90102 10.7476 6.35664 10.4096 6.01727C10.2524 5.86074 10.0356 5.76378 9.79801 5.76378ZM1.98337 12.0179H2.81312V12.6988H1.98337C1.98337 13.5631 1.8594 14.2689 2.44604 14.8555C2.97934 15.3888 3.51682 15.3182 4.19626 15.3182V0.679884C3.51751 0.679884 2.97934 0.609238 2.44604 1.14255C1.8594 1.72919 1.98337 2.43496 1.98337 3.29931H2.81312V3.98014H1.98337V7.65855H2.81312V8.33937H1.98337V12.0179ZM4.87703 0.680026V15.3183H13.144C14.009 15.3183 14.7183 14.6091 14.7183 13.744L14.719 2.25506C14.719 1.39 14.0097 0.680771 13.1447 0.680771L4.87703 0.680026Z" fill="#12486B" stroke="#12486B" stroke-width="0.25"/>
</g>
<defs>
<clipPath id="clip0_26111_77245">
<rect width="16" height="16" fill="white"/>
</clipPath>
</defs>
</svg>
