<svg width="32" height="32" viewBox="0 0 32 32" fill="none" xmlns="http://www.w3.org/2000/svg">
<path d="M19.5179 13.679L25.9579 11.9536C26.2986 11.8553 26.6554 11.8258 27.0075 11.867C27.3597 11.9081 27.7001 12.0191 28.0088 12.1934C28.3175 12.3677 28.5884 12.6018 28.8056 12.882C29.0228 13.1623 29.1819 13.483 29.2737 13.8255C29.3654 14.1679 29.388 14.5252 29.34 14.8765C29.292 15.2278 29.1744 15.566 28.9942 15.8713C28.8139 16.1766 28.5746 16.4429 28.2902 16.6546C28.0059 16.8663 27.6821 17.0192 27.3379 17.1043L8.01927 22.2816L2.08594 15.5883L5.9486 14.5536L9.21527 16.439L13.0779 15.4043L8.08727 7.07897L11.9513 6.04297L19.5179 13.679Z" stroke="#DE3924" stroke-width="1.5" stroke-linecap="round" stroke-linejoin="round"/>
<path d="M4 28H28" stroke="#DE3924" stroke-width="1.5" stroke-linecap="round" stroke-linejoin="round"/>
</svg>
