<svg width="22" height="21" viewBox="0 0 22 21" fill="none" xmlns="http://www.w3.org/2000/svg">
<path d="M11.8202 0.0246359C10.0347 -0.0961334 8.24685 0.22861 6.63764 0.966051C5.02833 1.70349 3.65467 2.82746 2.65533 4.22428C1.65609 5.62114 1.0668 7.24136 0.946991 8.92108C0.936499 9.07888 0.995743 9.23385 1.11073 9.34923C1.22572 9.46461 1.38632 9.53025 1.55446 9.53059C1.72366 9.52973 1.88614 9.46856 2.00924 9.35944C2.13234 9.25031 2.2069 9.10132 2.21781 8.9426C2.38659 6.80149 3.42423 4.80351 5.11608 3.3619C6.80784 1.92025 9.02408 1.14552 11.3064 1.19789C13.5887 1.25025 15.7621 2.12582 17.3771 3.64329C18.992 5.16076 19.9247 7.20411 19.9822 9.35044C20.0398 11.4966 19.2177 13.5816 17.6861 15.1738C16.1545 16.7659 14.0306 17.7433 11.754 17.9038C11.5804 17.9152 11.4179 17.9878 11.2987 18.107C11.1795 18.2261 11.1125 18.3831 11.111 18.5467C11.1114 18.7007 11.1792 18.8476 11.2985 18.953C11.4177 19.0584 11.5779 19.1129 11.7413 19.1037C14.3148 18.9508 16.7303 17.884 18.4989 16.1193C20.2674 14.3545 21.2569 12.0238 21.267 9.59894C21.277 7.17409 20.3068 4.83613 18.5529 3.05858C16.7991 1.28103 14.3923 0.196585 11.8203 0.0248245L11.8202 0.0246359Z" fill="#FF8926"/>
<path d="M14.3416 3.02485C8.94315 0.899907 3.76329 4.41119 3.47858 9.15097C3.47082 9.24885 3.50663 9.34534 3.57748 9.41743C3.64834 9.48946 3.7478 9.53064 3.85216 9.53103H4.31989C4.42858 9.53024 4.53315 9.4913 4.61303 9.42197C4.6929 9.35257 4.74243 9.25766 4.75194 9.15576C5.03913 5.1401 9.54037 2.22405 14.1308 4.25335C15.272 4.7605 16.1921 5.62253 16.7359 6.69386C18.9421 11.0943 15.6811 15.4016 11.2968 15.5378C11.194 15.5416 11.1125 15.6204 11.1112 15.7171V16.3027C11.0955 16.4135 11.1324 16.5253 11.2122 16.6083C11.292 16.6911 11.4067 16.7368 11.5255 16.733C16.5784 16.4653 20.3172 11.5724 18.0245 6.48359C17.3238 4.923 16.002 3.68171 14.3416 3.02498L14.3416 3.02485Z" fill="#FF8926"/>
<path d="M9.97497 9.54508L3.78092 10.996C3.42768 11.0844 3.1505 11.3419 3.0523 11.673C2.9541 12.0041 3.0495 12.3594 3.30306 12.607L4.73148 13.9312L0.382637 18.0805C0.04851 18.4004 -0.0788557 18.8635 0.0485816 19.2956C0.175953 19.7276 0.538831 20.063 1.00039 20.1752C1.46196 20.2875 1.95221 20.1596 2.28633 19.8398L6.63517 15.6736L8.06359 17.0001V17.0002C8.23685 17.1648 8.46773 17.2647 8.71338 17.2814C8.95904 17.298 9.20279 17.2301 9.39928 17.0905C9.59576 16.9508 9.73172 16.7489 9.7818 16.5221L11.2127 10.69C11.2945 10.3649 11.19 10.0233 10.9371 9.78883C10.6841 9.55433 10.3193 9.46106 9.97492 9.54269L9.97497 9.54508Z" fill="#FF8926"/>
</svg>
