<svg width="23" height="21" viewBox="0 0 23 21" fill="none" xmlns="http://www.w3.org/2000/svg">
<path fill-rule="evenodd" clip-rule="evenodd" d="M12.2732 15L12.8453 15.5201L15 17.4789V17V15H17H18.5C19.6046 15 20.5 14.1046 20.5 13V4C20.5 2.89543 19.6046 2 18.5 2H4.5C3.39543 2 2.5 2.89543 2.5 4V13C2.5 14.1046 3.39543 15 4.5 15H11.5H12.2732ZM18.5 17C20.7091 17 22.5 15.2091 22.5 13V4C22.5 1.79086 20.7091 0 18.5 0H4.5C2.29086 0 0.5 1.79086 0.5 4V13C0.5 15.2091 2.29086 17 4.5 17H11.5L15.3273 20.4794C15.9697 21.0634 17 20.6076 17 19.7394V19V17H18.5ZM10.5 9V4H12.5V9H10.5ZM10.5 11V13H12.5V11H10.5Z" fill="white"/>
</svg>
