<svg width="24" height="24" viewBox="0 0 24 24" fill="none" xmlns="http://www.w3.org/2000/svg">
<path d="M0.0927116 2.67498C0.030612 3.38479 -0.000335811 4.0982 2.74775e-06 4.81211C2.74775e-06 15.3945 6.66345 24 14.8914 24C15.3288 24 16.0328 23.9252 16.6007 23.8575L17.1338 23.797L18.3158 16.6732L13.1589 14.098L10.8411 15.943C9.10268 14.6391 7.61899 12.8806 6.49542 10.7925L7.54708 9.06501L6.44327 1.87712H0.162243L0.0927116 2.67498ZM1.47755 3.65806H5.24385L6.0058 8.62333L4.73685 10.7035L4.99759 11.2164C6.35285 13.9365 8.24665 16.1901 10.5022 17.7667L10.8817 18.0303L13.324 16.0962L16.6615 17.7596L15.9285 22.1371C15.5751 22.1728 15.1521 22.2119 14.8914 22.2119C7.47755 22.2119 1.44858 14.4043 1.44858 4.80499C1.44858 4.43099 1.45727 4.04631 1.47755 3.65806ZM9.78078 11.9964H24V0H9.78078V11.9964ZM11.2294 10.2155V2.84595L16.8904 8.90116L22.5514 2.84595V10.2155H11.2294ZM12.4404 1.79163H21.3404L16.8904 6.53606L12.4404 1.79163Z" fill="#F04E39"/>
</svg>
