<svg width="20" height="20" viewBox="0 0 20 20" fill="none" xmlns="http://www.w3.org/2000/svg">
<path d="M16.2124 13.3653V12.4866C16.2124 12.284 16.1311 12.1152 15.9857 12.0022C15.847 11.8943 15.6683 11.8513 15.4896 11.8513C15.1065 11.8513 14.7668 12.134 14.7668 12.4866V15.3158L14.7668 15.3227C14.7667 15.4715 14.7666 15.6904 14.9768 15.8946C15.0869 16.0015 15.2856 16.0962 15.4896 16.0962H18.4771C18.8602 16.0962 19.2 15.8134 19.2 15.4609V15.4405L19.1958 15.4206C19.1084 14.9957 18.8244 14.6806 18.4024 14.6806H16.8675C17.8544 13.3324 18.3784 11.7387 18.3784 10.02C18.3784 7.79038 17.5355 5.78021 15.9288 4.21905C13.4036 1.69294 9.50869 1.10113 6.22759 2.65237C6.04747 2.71608 5.93851 2.86344 5.88813 3.02247C5.83727 3.183 5.8404 3.36711 5.8851 3.54078L5.89391 3.57499L5.91389 3.60411C6.12029 3.90482 6.51651 3.99471 6.81259 3.89884L6.82482 3.89489L6.83643 3.8894C9.52595 2.61853 12.7979 3.11303 14.978 5.15902C16.2856 6.42974 17.0821 8.19214 17.0821 10.02C17.0821 11.1959 16.7791 12.3244 16.2124 13.3653Z" fill="white" stroke="white" stroke-width="0.4"/>
<path d="M13.1127 16.1416L13.1004 16.1456L13.0888 16.151C10.3993 17.4219 7.1274 16.9274 4.94727 14.8814C3.63963 13.6107 2.84315 11.8483 2.84315 10.0204C2.84315 8.84456 3.14617 7.71608 3.71286 6.67515V7.55388V7.57921L3.71918 7.60373C3.76524 7.7827 3.85792 7.94256 3.97891 8.06007C4.09877 8.17649 4.25826 8.2617 4.43568 8.2617C4.60601 8.2617 4.7821 8.18255 4.9135 8.06653C5.04722 7.94846 5.15851 7.77057 5.15851 7.55388V4.65207C5.15851 4.29956 4.81879 4.0168 4.43568 4.0168H1.44813C1.27308 4.0168 1.11335 4.09993 1.00069 4.20935C0.888406 4.31842 0.8 4.47612 0.8 4.65207C0.8 4.82299 0.883931 4.99666 1.00336 5.12426C1.1256 5.25487 1.30626 5.35989 1.52282 5.35989H3.05781C2.07082 6.708 1.54689 8.3017 1.54689 10.0204C1.54689 12.2506 2.39014 14.2611 3.99758 15.8224C5.60543 17.3841 7.74758 18.2004 9.96266 18.2004C11.2643 18.2004 12.486 17.9026 13.7006 17.3865L13.7166 17.3797L13.7311 17.3703C13.861 17.2862 13.99 17.1684 14.0583 17.0092C14.1308 16.8402 14.1235 16.6508 14.0243 16.458L14.0185 16.4467L14.0114 16.4363C13.805 16.1356 13.4088 16.0457 13.1127 16.1416Z" fill="white" stroke="white" stroke-width="0.4"/>
</svg>
