<svg width="25" height="24" viewBox="0 0 25 24" fill="none" xmlns="http://www.w3.org/2000/svg">
<path d="M22.3819 14.1174H18.8526V2.11761C18.8526 1.55598 18.6295 1.01736 18.2324 0.620232C17.8352 0.223104 17.2966 0 16.735 0H2.61761C2.05598 0 1.51736 0.223104 1.12023 0.620232C0.723104 1.01736 0.5 1.55598 0.5 2.11761V20.4702C0.5 21.4062 0.871841 22.3039 1.53372 22.9658C2.1956 23.6277 3.0933 23.9995 4.02934 23.9995H20.9702C21.167 24 21.3634 23.984 21.5575 23.9515C22.3961 23.7874 23.1502 23.3336 23.6881 22.6696C24.2259 22.0055 24.5131 21.1735 24.4995 20.3191V16.235C24.4995 15.6734 24.2764 15.1347 23.8793 14.7376C23.4822 14.3405 22.9436 14.1174 22.3819 14.1174ZM4.02934 22.5878C3.46772 22.5878 2.9291 22.3647 2.53197 21.9676C2.13484 21.5704 1.91174 21.0318 1.91174 20.4702V2.11761C1.91174 1.9304 1.98611 1.75086 2.11848 1.61848C2.25086 1.48611 2.4304 1.41174 2.61761 1.41174H16.735C16.9222 1.41174 17.1017 1.48611 17.2341 1.61848C17.3665 1.75086 17.4409 1.9304 17.4409 2.11761V20.4702C17.4409 21.2338 17.6885 21.9769 18.1467 22.5878H4.02934ZM23.0878 20.3191C23.1038 20.839 22.9368 21.3479 22.6158 21.7572C22.2948 22.1664 21.8403 22.4499 21.3316 22.5582C21.2124 22.5796 21.0913 22.5895 20.9702 22.5878H20.9377C20.3817 22.5793 19.8514 22.3524 19.4613 21.9562C19.0712 21.56 18.8525 21.0262 18.8526 20.4702V15.5291H22.3819C22.5691 15.5291 22.7487 15.6035 22.8811 15.7359C23.0134 15.8682 23.0878 16.0478 23.0878 16.235V20.3191ZM4.73521 4.94108C4.73521 4.75387 4.80958 4.57433 4.94196 4.44196C5.07433 4.30958 5.25387 4.23521 5.44108 4.23521H8.26456C8.45176 4.23521 8.63131 4.30958 8.76368 4.44196C8.89606 4.57433 8.97043 4.75387 8.97043 4.94108C8.97043 5.12829 8.89606 5.30783 8.76368 5.44021C8.63131 5.57258 8.45176 5.64695 8.26456 5.64695H5.44108C5.25387 5.64695 5.07433 5.57258 4.94196 5.44021C4.80958 5.30783 4.73521 5.12829 4.73521 4.94108ZM14.6174 9.17629C14.6174 9.3635 14.543 9.54304 14.4106 9.67542C14.2783 9.8078 14.0987 9.88216 13.9115 9.88216H5.44108C5.25387 9.88216 5.07433 9.8078 4.94196 9.67542C4.80958 9.54304 4.73521 9.3635 4.73521 9.17629C4.73521 8.98909 4.80958 8.80955 4.94196 8.67717C5.07433 8.54479 5.25387 8.47043 5.44108 8.47043H13.9115C14.0987 8.47043 14.2783 8.54479 14.4106 8.67717C14.543 8.80955 14.6174 8.98909 14.6174 9.17629ZM14.6174 11.9998C14.6174 12.187 14.543 12.3665 14.4106 12.4989C14.2783 12.6313 14.0987 12.7056 13.9115 12.7056H5.44108C5.25387 12.7056 5.07433 12.6313 4.94196 12.4989C4.80958 12.3665 4.73521 12.187 4.73521 11.9998C4.73521 11.8126 4.80958 11.633 4.94196 11.5006C5.07433 11.3683 5.25387 11.2939 5.44108 11.2939H13.9115C14.0987 11.2939 14.2783 11.3683 14.4106 11.5006C14.543 11.633 14.6174 11.8126 14.6174 11.9998ZM14.6174 14.8232C14.6174 15.0105 14.543 15.19 14.4106 15.3224C14.2783 15.4547 14.0987 15.5291 13.9115 15.5291H5.44108C5.25387 15.5291 5.07433 15.4547 4.94196 15.3224C4.80958 15.19 4.73521 15.0105 4.73521 14.8232C4.73521 14.636 4.80958 14.4565 4.94196 14.3241C5.07433 14.1917 5.25387 14.1174 5.44108 14.1174H13.9115C14.0987 14.1174 14.2783 14.1917 14.4106 14.3241C14.543 14.4565 14.6174 14.636 14.6174 14.8232ZM14.6174 19.0585C14.6174 19.2457 14.543 19.4252 14.4106 19.5576C14.2783 19.69 14.0987 19.7643 13.9115 19.7643H11.088C10.9008 19.7643 10.7213 19.69 10.5889 19.5576C10.4565 19.4252 10.3822 19.2457 10.3822 19.0585C10.3822 18.8712 10.4565 18.6917 10.5889 18.5593C10.7213 18.427 10.9008 18.3526 11.088 18.3526H13.9115C14.0987 18.3526 14.2783 18.427 14.4106 18.5593C14.543 18.6917 14.6174 18.8712 14.6174 19.0585Z" fill="black"/>
</svg>
