<svg width="18" height="18" viewBox="0 0 18 18" fill="none" xmlns="http://www.w3.org/2000/svg">
<path d="M2.25 12.8678C2.25 16.139 4.58654 17.8784 9 17.8784C13.4135 17.8784 15.75 16.139 15.75 12.8678C15.75 10.6351 13.4394 7.93515 11.3365 5.96207C11.674 5.78034 11.8558 5.4688 11.8558 5.1313C11.8558 4.71591 11.5962 4.37841 11.2327 4.24861C11.7 3.59957 11.9596 3.02841 11.9596 2.53515C11.9596 2.50918 11.9596 2.48322 11.9596 2.45726C10.9212 -0.710047 8.87019 1.31495 6.22212 2.30149C6.11827 2.32745 6.04038 2.4313 6.04038 2.53515C6.04038 3.02841 6.27404 3.59957 6.76731 4.24861C6.37788 4.37841 6.14423 4.74188 6.14423 5.1313C6.14423 5.49476 6.35192 5.8063 6.66346 5.96207C4.58654 7.93515 2.25 10.6351 2.25 12.8678ZM11.4404 2.58707C11.4144 3.00245 11.1548 3.57361 10.6356 4.19668H7.39038C6.92308 3.62553 6.6375 3.13226 6.58558 2.71688C9.28558 1.65245 10.6356 0.120722 11.4404 2.58707ZM7.10481 4.71591C7.85769 4.71591 10.1683 4.71591 10.9212 4.71591C11.1548 4.71591 11.3365 4.89765 11.3365 5.1313C11.3365 5.36495 11.1288 5.54668 10.9212 5.54668C9.96058 5.54668 7.85769 5.54668 7.10481 5.54668C6.87115 5.54668 6.68942 5.36495 6.68942 5.1313C6.68942 4.89765 6.87115 4.71591 7.10481 4.71591ZM7.3125 6.06592H10.6875C12.4269 7.67553 15.2308 10.6092 15.2308 12.8678C15.2308 15.8534 13.1279 17.3592 9 17.3592C4.87212 17.3592 2.76923 15.8534 2.76923 12.8678C2.76923 10.6092 5.57308 7.67553 7.3125 6.06592Z" fill="#FF8926"/>
<path d="M7.41645 12.8936L6.81934 13.5946C7.41645 14.1138 8.09145 14.3994 8.81837 14.4773V15.0744H9.3376V14.4773C10.3501 14.4253 11.1809 13.8542 11.1809 12.8157C11.1809 11.7253 10.402 11.3619 9.36357 11.1282H9.3376V9.5965C9.75299 9.64842 10.1424 9.80419 10.5059 10.0638L11.0251 9.31092C10.4799 8.94746 9.93472 8.73977 9.31164 8.68785V8.27246H8.79241V8.68785C7.77991 8.73977 7.00107 9.33688 7.00107 10.3234C7.00107 11.3878 7.75395 11.7253 8.79241 11.959V13.5427C8.32511 13.5427 7.8578 13.309 7.41645 12.8936ZM9.3376 12.1667C9.83087 12.3225 10.1943 12.4523 10.1943 12.9455C10.1943 13.3869 9.77895 13.5946 9.3376 13.6465V12.1667ZM8.03953 10.2715C8.03953 9.85611 8.40299 9.62246 8.81837 9.5965V10.9984C8.35107 10.8686 8.03953 10.7388 8.03953 10.2715Z" fill="#FF8926"/>
</svg>
