<svg width="20" height="20" viewBox="0 0 20 20" fill="none" xmlns="http://www.w3.org/2000/svg">
<path d="M7.15251 1.00004C7.10958 0.999392 7.06695 1.00728 7.0271 1.02327C6.98725 1.03925 6.95097 1.06298 6.92038 1.09311C6.88979 1.12324 6.8655 1.15917 6.84892 1.19877C6.83234 1.23838 6.8238 1.28088 6.8238 1.32382C6.8238 1.36676 6.83234 1.4093 6.84892 1.4489C6.8655 1.48851 6.88979 1.5244 6.92038 1.55453C6.95097 1.58466 6.98725 1.60843 7.0271 1.62441C7.06695 1.64039 7.10958 1.64829 7.15251 1.64764H15.2479V5.20964C15.2473 5.25255 15.2552 5.29516 15.2712 5.33499C15.2872 5.37481 15.311 5.41106 15.3411 5.44162C15.3713 5.47218 15.4072 5.49643 15.4467 5.51299C15.4863 5.52956 15.5288 5.53809 15.5717 5.53809C15.6147 5.53809 15.6571 5.52956 15.6967 5.51299C15.7363 5.49643 15.7722 5.47218 15.8024 5.44162C15.8325 5.41106 15.8562 5.37481 15.8722 5.33499C15.8882 5.29516 15.8962 5.25255 15.8956 5.20964V1.32382C15.8955 1.23794 15.8614 1.15559 15.8007 1.09487C15.74 1.03414 15.6576 1.00005 15.5717 1.00004H7.15251ZM5.85725 2.29528C5.77137 2.29529 5.68901 2.32943 5.62829 2.39015C5.56756 2.45088 5.53344 2.53323 5.53343 2.61911V5.20964C5.53282 5.25255 5.54075 5.29513 5.55675 5.33495C5.57275 5.37477 5.59651 5.41102 5.62664 5.44158C5.65677 5.47214 5.69267 5.49639 5.73226 5.51296C5.77185 5.52952 5.81433 5.53806 5.85725 5.53806C5.90016 5.53806 5.94265 5.52952 5.98224 5.51296C6.02183 5.49639 6.05773 5.47214 6.08786 5.44158C6.11799 5.41102 6.14174 5.37477 6.15774 5.33495C6.17374 5.29513 6.18167 5.25255 6.18106 5.20964V2.94293H13.9527V5.20964C13.9521 5.25255 13.96 5.29513 13.976 5.33495C13.992 5.37477 14.0157 5.41103 14.0459 5.44158C14.076 5.47214 14.1119 5.4964 14.1515 5.51296C14.1911 5.52952 14.2336 5.53806 14.2765 5.53806C14.3194 5.53806 14.3619 5.52952 14.4015 5.51296C14.441 5.4964 14.4769 5.47214 14.5071 5.44158C14.5372 5.41103 14.561 5.37477 14.577 5.33495C14.593 5.29513 14.6009 5.25255 14.6003 5.20964V2.61911C14.6003 2.53323 14.5662 2.45088 14.5054 2.39015C14.4447 2.32943 14.3624 2.29529 14.2765 2.29528H5.85725ZM8.09677 3.59053C8.03997 3.59058 7.98418 3.60559 7.93501 3.63401C7.88583 3.66243 7.84499 3.70326 7.81659 3.75244C7.61827 4.09575 7.333 4.38092 6.98997 4.5797C6.9409 4.60818 6.90018 4.64908 6.87187 4.69825C6.84357 4.74742 6.82868 4.80316 6.8287 4.8599V5.20964C6.82809 5.25255 6.83602 5.29513 6.85202 5.33495C6.86802 5.37477 6.89178 5.41102 6.9219 5.44158C6.95203 5.47214 6.98794 5.49639 7.02752 5.51296C7.06711 5.52952 7.1096 5.53806 7.15251 5.53806C7.19543 5.53806 7.23791 5.52952 7.2775 5.51296C7.31709 5.49639 7.35299 5.47214 7.38312 5.44158C7.41325 5.41102 7.43701 5.37477 7.45301 5.33495C7.46901 5.29513 7.47694 5.25255 7.47633 5.20964V5.01609C7.7837 4.80785 8.0451 4.54578 8.25298 4.23818H11.8795C12.0877 4.54555 12.3498 4.80694 12.6574 5.01482V5.20964C12.6568 5.25255 12.6647 5.29513 12.6807 5.33495C12.6967 5.37477 12.7205 5.41103 12.7506 5.44158C12.7807 5.47214 12.8166 5.4964 12.8562 5.51296C12.8958 5.52952 12.9383 5.53806 12.9812 5.53806C13.0241 5.53806 13.0666 5.52952 13.1062 5.51296C13.1458 5.4964 13.1817 5.47214 13.2118 5.44158C13.2419 5.41103 13.2657 5.37477 13.2817 5.33495C13.2977 5.29513 13.3056 5.25255 13.305 5.20964V4.85863C13.305 4.80183 13.29 4.74604 13.2616 4.69687C13.2332 4.64769 13.1923 4.60683 13.1431 4.57843C12.7998 4.3801 12.5147 4.09487 12.3159 3.75185C12.2874 3.70278 12.2465 3.66205 12.1973 3.63375C12.1482 3.60544 12.0924 3.59052 12.0357 3.59053H8.09677ZM5.20961 6.18107C3.95946 6.18107 2.9429 7.19763 2.9429 8.44778V10.3907C2.94229 10.4336 2.95022 10.4762 2.96622 10.516C2.98222 10.5558 3.00598 10.5921 3.03611 10.6227C3.06624 10.6532 3.10214 10.6775 3.14173 10.694C3.18132 10.7106 3.2238 10.7191 3.26672 10.7191C3.30963 10.7191 3.35211 10.7106 3.3917 10.694C3.43129 10.6775 3.46719 10.6532 3.49732 10.6227C3.52745 10.5921 3.55121 10.5558 3.56721 10.516C3.58321 10.4762 3.59114 10.4336 3.59053 10.3907V8.44778C3.59053 7.54521 4.30704 6.82871 5.20961 6.82871H17.5146V9.41924C17.514 9.46215 17.522 9.50474 17.538 9.54455C17.554 9.58437 17.5777 9.62063 17.6079 9.65119C17.638 9.68174 17.6739 9.706 17.7135 9.72256C17.7531 9.73912 17.7955 9.74766 17.8385 9.74766C17.8814 9.74766 17.9239 9.73912 17.9634 9.72256C18.003 9.706 18.0389 9.68174 18.0691 9.65119C18.0992 9.62063 18.1229 9.58437 18.1389 9.54455C18.1549 9.50474 18.1629 9.46215 18.1623 9.41924V6.50489C18.1623 6.41901 18.1281 6.33666 18.0674 6.27594C18.0067 6.21521 17.9243 6.18108 17.8385 6.18107H5.20961ZM15.8956 10.3907C14.6454 10.3907 13.6288 11.4073 13.6288 12.6574C13.6288 13.9076 14.6454 14.9241 15.8956 14.9241H18.8099C18.8958 14.9241 18.9781 14.89 19.0389 14.8293C19.0996 14.7685 19.1337 14.6862 19.1337 14.6003V10.7145C19.1337 10.6287 19.0996 10.5463 19.0389 10.4855C18.9781 10.4248 18.8958 10.3907 18.8099 10.3907H15.8956ZM15.8956 11.0383H18.4861V14.2765H15.8956C14.993 14.2765 14.2765 13.56 14.2765 12.6574C14.2765 11.7548 14.993 11.0383 15.8956 11.0383ZM4.8858 11.3621C2.74357 11.3621 1 13.1057 1 15.248C1 17.3902 2.74357 19.1337 4.8858 19.1337C7.02803 19.1337 8.7716 17.3902 8.7716 15.248C8.7716 13.1057 7.02803 11.3621 4.8858 11.3621ZM4.8858 12.0098C6.67802 12.0098 8.12396 13.4557 8.12396 15.248C8.12396 17.0402 6.67802 18.4861 4.8858 18.4861C3.09357 18.4861 1.64763 17.0402 1.64763 15.248C1.64763 13.4557 3.09357 12.0098 4.8858 12.0098ZM15.8956 12.0098C15.5417 12.0098 15.2479 12.3036 15.2479 12.6574C15.2479 13.0113 15.5417 13.305 15.8956 13.305C16.2494 13.305 16.5432 13.0113 16.5432 12.6574C16.5432 12.3036 16.2494 12.0098 15.8956 12.0098ZM4.88074 12.9768C4.79497 12.9781 4.71323 13.0135 4.65347 13.075C4.59371 13.1365 4.56081 13.2193 4.56198 13.305V13.6288C4.0294 13.6288 3.59053 14.0677 3.59053 14.6003C3.59053 15.1329 4.0294 15.5718 4.56198 15.5718H5.20961C5.39461 15.5718 5.53343 15.7106 5.53343 15.8956C5.53343 16.0806 5.39461 16.2194 5.20961 16.2194H4.93576C4.91759 16.2162 4.89919 16.2146 4.88074 16.2145C4.86504 16.215 4.8494 16.2166 4.83394 16.2194H4.23816C4.19527 16.2188 4.15268 16.2268 4.11288 16.2428C4.07308 16.2588 4.03685 16.2825 4.00631 16.3126C3.97577 16.3428 3.95151 16.3787 3.93496 16.4183C3.91841 16.4578 3.90988 16.5003 3.90988 16.5432C3.90988 16.5861 3.91841 16.6286 3.93496 16.6682C3.95151 16.7078 3.97577 16.7436 4.00631 16.7738C4.03685 16.8039 4.07308 16.8276 4.11288 16.8436C4.15268 16.8597 4.19527 16.8676 4.23816 16.867H4.56198V17.1908C4.56137 17.2338 4.5693 17.2763 4.5853 17.3162C4.6013 17.356 4.62506 17.3922 4.65519 17.4228C4.68532 17.4533 4.72122 17.4776 4.76081 17.4942C4.8004 17.5107 4.84288 17.5193 4.8858 17.5193C4.92871 17.5193 4.9712 17.5107 5.01079 17.4942C5.05037 17.4776 5.08628 17.4533 5.11641 17.4228C5.14654 17.3922 5.17029 17.356 5.18629 17.3162C5.20229 17.2763 5.21022 17.2338 5.20961 17.1908V16.867C5.74219 16.867 6.18106 16.4281 6.18106 15.8956C6.18106 15.363 5.74219 14.9241 5.20961 14.9241H4.56198C4.37698 14.9241 4.23816 14.7853 4.23816 14.6003C4.23816 14.4153 4.37698 14.2765 4.56198 14.2765H4.83141C4.86638 14.2823 4.90206 14.2823 4.93703 14.2765H5.53343C5.57636 14.2771 5.619 14.2692 5.65885 14.2533C5.6987 14.2373 5.73497 14.2135 5.76556 14.1834C5.79615 14.1532 5.82044 14.1173 5.83702 14.0777C5.8536 14.0381 5.86214 13.9956 5.86214 13.9527C5.86214 13.9097 5.8536 13.8672 5.83702 13.8276C5.82044 13.788 5.79615 13.7521 5.76556 13.722C5.73497 13.6918 5.6987 13.6681 5.65885 13.6521C5.619 13.6361 5.57636 13.6282 5.53343 13.6288H5.20961V13.305C5.21021 13.2617 5.2021 13.2187 5.18578 13.1786C5.16945 13.1385 5.14524 13.102 5.11457 13.0714C5.0839 13.0408 5.04741 13.0167 5.00724 13.0004C4.96708 12.9842 4.92406 12.9761 4.88074 12.9768ZM17.8334 15.5673C17.7476 15.5687 17.6659 15.604 17.6061 15.6655C17.5464 15.7271 17.5135 15.8098 17.5146 15.8956V18.4861H8.44778C8.40485 18.4855 8.36221 18.4934 8.32236 18.5094C8.28251 18.5253 8.24624 18.5491 8.21565 18.5792C8.18506 18.6093 8.16077 18.6453 8.14419 18.6849C8.12761 18.7245 8.11907 18.767 8.11907 18.8099C8.11907 18.8529 8.12761 18.8954 8.14419 18.935C8.16077 18.9746 8.18506 19.0105 8.21565 19.0406C8.24624 19.0708 8.28251 19.0945 8.32236 19.1105C8.36221 19.1265 8.40485 19.1344 8.44778 19.1337H17.8385C17.9243 19.1337 18.0067 19.0996 18.0674 19.0389C18.1281 18.9781 18.1623 18.8958 18.1623 18.8099V15.8956C18.1629 15.8522 18.1548 15.8093 18.1384 15.7691C18.1221 15.729 18.0979 15.6925 18.0672 15.6619C18.0366 15.6313 18.0001 15.6072 17.9599 15.5909C17.9197 15.5747 17.8767 15.5667 17.8334 15.5673Z" fill="#FF8926" stroke="#FF8926" stroke-width="0.3"/>
</svg>
