<svg width="38" height="38" viewBox="0 0 38 38" fill="none" xmlns="http://www.w3.org/2000/svg">
<path d="M20.979 19.4167H17.0207C14.2912 19.4167 11.6734 20.501 9.74336 22.431C7.8133 24.3611 6.729 26.9788 6.729 29.7083C6.729 31.3881 7.39626 32.999 8.58399 34.1867C9.77172 35.3744 11.3826 36.0417 13.0623 36.0417H24.9373C26.617 36.0417 28.2279 35.3744 29.4157 34.1867C30.6034 32.999 31.2707 31.3881 31.2707 29.7083C31.2707 26.9788 30.1864 24.3611 28.2563 22.431C26.3262 20.501 23.7085 19.4167 20.979 19.4167Z" fill="#F04E39"/>
<path d="M18.9999 19.0208C23.3722 19.0208 26.9166 15.4764 26.9166 11.1042C26.9166 6.73193 23.3722 3.18752 18.9999 3.18752C14.6277 3.18752 11.0833 6.73193 11.0833 11.1042C11.0833 15.4764 14.6277 19.0208 18.9999 19.0208Z" fill="white"/>
<path d="M25.3332 36.0417H12.6666C11.0924 36.0398 9.58325 35.4137 8.47016 34.3006C7.35706 33.1875 6.73091 31.6783 6.72906 30.1042V28.5208C6.72313 26.6959 7.18718 24.9002 8.07652 23.3066C8.96585 21.713 10.2505 20.3752 11.8068 19.4221C12.0748 19.2569 12.3974 19.2049 12.7037 19.2774C13.01 19.3499 13.275 19.541 13.4406 19.8087C13.6061 20.0765 13.6586 20.399 13.5865 20.7054C13.5144 21.0118 13.3237 21.2771 13.0562 21.443C11.8449 22.1839 10.845 23.2244 10.1528 24.4641C9.46056 25.7038 9.09938 27.101 9.10406 28.5208V30.1042C9.10522 31.0487 9.48093 31.9541 10.1488 32.622C10.8166 33.2898 11.7221 33.6655 12.6666 33.6667H25.3332C26.2777 33.6655 27.1832 33.2898 27.851 32.622C28.5189 31.9541 28.8946 31.0487 28.8957 30.1042V28.5208C28.8932 26.317 28.0166 24.2042 26.4583 22.6458C24.8999 21.0875 22.7871 20.2109 20.5832 20.2083H18.9999C18.6849 20.2083 18.3829 20.0832 18.1602 19.8605C17.9375 19.6378 17.8124 19.3358 17.8124 19.0208C17.8124 18.7059 17.9375 18.4039 18.1602 18.1812C18.3829 17.9585 18.6849 17.8333 18.9999 17.8333H20.5832C23.4167 17.8366 26.1333 18.9636 28.1369 20.9672C30.1405 22.9708 31.2675 25.6873 31.2707 28.5208V30.1042C31.2689 31.6783 30.6427 33.1875 29.5296 34.3006C28.4165 35.4137 26.9074 36.0398 25.3332 36.0417Z" fill="#404042"/>
<path d="M18.9999 20.2083C17.1993 20.2083 15.4391 19.6744 13.9419 18.674C12.4447 17.6736 11.2778 16.2518 10.5888 14.5882C9.8997 12.9246 9.7194 11.0941 10.0707 9.32804C10.422 7.56201 11.2891 5.9398 12.5623 4.66656C13.8355 3.39332 15.4578 2.52623 17.2238 2.17495C18.9898 1.82366 20.8204 2.00395 22.4839 2.69303C24.1475 3.3821 25.5694 4.549 26.5698 6.04617C27.5701 7.54335 28.1041 9.30354 28.1041 11.1042C28.1014 13.5179 27.1414 15.8321 25.4346 17.5388C23.7278 19.2456 21.4137 20.2057 18.9999 20.2083ZM18.9999 4.37501C17.669 4.37501 16.368 4.76967 15.2614 5.50908C14.1548 6.24849 13.2923 7.29944 12.783 8.52904C12.2737 9.75863 12.1404 11.1116 12.4001 12.417C12.6597 13.7223 13.3006 14.9213 14.2417 15.8624C15.1828 16.8035 16.3818 17.4444 17.6871 17.704C18.9925 17.9637 20.3455 17.8304 21.5751 17.3211C22.8047 16.8118 23.8556 15.9493 24.595 14.8427C25.3344 13.7361 25.7291 12.4351 25.7291 11.1042C25.7271 9.3201 25.0175 7.60967 23.756 6.34814C22.4944 5.08661 20.784 4.377 18.9999 4.37501Z" fill="#404042"/>
</svg>
