<svg width="21" height="19" viewBox="0 0 21 19" fill="none" xmlns="http://www.w3.org/2000/svg">
<path d="M4.85632 6.97708H3.78033C3.42425 6.97708 3.13525 6.68808 3.13525 6.332C3.13525 5.97592 3.42425 5.68692 3.78033 5.68692H4.8589C5.21499 5.68692 5.50398 5.97592 5.50398 6.332C5.50398 6.68808 5.21499 6.97708 4.85632 6.97708Z" fill="#0064BD"/>
<path d="M10.5381 6.97708H9.45953C9.10345 6.97708 8.81445 6.68808 8.81445 6.332C8.81445 5.97592 9.10345 5.68692 9.45953 5.68692H10.5381C10.8942 5.68692 11.1832 5.97592 11.1832 6.332C11.1832 6.68808 10.8942 6.97708 10.5381 6.97708Z" fill="#0064BD"/>
<path d="M16.2172 6.97708H15.1412C14.7851 6.97708 14.4961 6.68808 14.4961 6.332C14.4961 5.97592 14.7851 5.68692 15.1412 5.68692H16.2172C16.5732 5.68692 16.8622 5.97592 16.8622 6.332C16.8622 6.68808 16.5732 6.97708 16.2172 6.97708Z" fill="#0064BD"/>
<path d="M4.85632 10.1276H3.78033C3.42425 10.1276 3.13525 9.83856 3.13525 9.48248C3.13525 9.1264 3.42425 8.8374 3.78033 8.8374H4.8589C5.21499 8.8374 5.50398 9.1264 5.50398 9.48248C5.50398 9.83856 5.21499 10.1276 4.85632 10.1276Z" fill="#0064BD"/>
<path d="M10.5381 10.1276H9.45953C9.10345 10.1276 8.81445 9.83856 8.81445 9.48248C8.81445 9.1264 9.10345 8.8374 9.45953 8.8374H10.5381C10.8942 8.8374 11.1832 9.1264 11.1832 9.48248C11.1832 9.83856 10.8942 10.1276 10.5381 10.1276Z" fill="#0064BD"/>
<path d="M4.85632 13.2755H3.78033C3.42425 13.2755 3.13525 12.9865 3.13525 12.6305C3.13525 12.2744 3.42425 11.9854 3.78033 11.9854H4.8589C5.21499 11.9854 5.50398 12.2744 5.50398 12.6305C5.50398 12.9865 5.21499 13.2755 4.85632 13.2755Z" fill="#0064BD"/>
<path d="M10.5381 13.2755H9.45953C9.10345 13.2755 8.81445 12.9865 8.81445 12.6305C8.81445 12.2744 9.10345 11.9854 9.45953 11.9854H10.5381C10.8942 11.9854 11.1832 12.2744 11.1832 12.6305C11.1832 12.9865 10.8942 13.2755 10.5381 13.2755Z" fill="#0064BD"/>
<path fill-rule="evenodd" clip-rule="evenodd" d="M16.3231 1.5042H17.7525C18.9937 1.50678 19.9974 2.51052 20 3.74907V11.0828C19.6748 11.0283 19.3407 10.9999 19 10.9999C18.9019 10.9999 18.8043 11.0022 18.7073 11.0069V3.74907C18.7073 3.22269 18.2789 2.79436 17.7525 2.79436H16.3231V3.1814C16.3231 3.53749 16.0341 3.82648 15.678 3.82648C15.3219 3.82648 15.0329 3.53749 15.0329 3.1814V2.79436H10.6438V3.1814C10.6438 3.53749 10.3548 3.82648 9.99871 3.82648C9.64263 3.82648 9.35363 3.53749 9.35363 3.1814V2.79436H4.96194V3.1814C4.96194 3.53749 4.67295 3.82648 4.31686 3.82648C3.96078 3.82648 3.67178 3.53749 3.67178 3.1814V2.79436H2.24229C1.71591 2.79436 1.28758 3.22269 1.28758 3.74907V14.8367C1.28758 15.3631 1.71591 15.7914 2.24229 15.7914H13.1218C13.0419 16.1818 13 16.5859 13 16.9999C13 17.0271 13.0002 17.0544 13.0005 17.0815H2.24487C1.00632 17.079 0.00258031 16.0752 0 14.8367V3.74907C0.00258031 2.51052 1.00632 1.50678 2.24487 1.5042H3.67436V0.644956C3.67436 0.288873 3.96336 -0.00012207 4.31944 -0.00012207C4.67553 -0.00012207 4.96452 0.288873 4.96452 0.644956V1.5042H9.35363V0.644956C9.35363 0.288873 9.64263 -0.00012207 9.99871 -0.00012207C10.3548 -0.00012207 10.6438 0.288873 10.6438 0.644956V1.5042H15.0329V0.644956C15.0329 0.288873 15.3219 -0.00012207 15.678 -0.00012207C16.0341 -0.00012207 16.3231 0.288873 16.3231 0.644956V1.5042Z" fill="#0064BD"/>
<path d="M19.9999 12.5972C20.0004 12.4871 19.9551 12.3812 19.8735 12.3021C19.792 12.223 19.6809 12.177 19.5638 12.1739C19.56 12.1738 19.5563 12.1738 19.5525 12.1738C19.5423 12.1738 19.5321 12.1741 19.5218 12.1748C19.4857 12.1771 19.4501 12.1836 19.4157 12.194L12.4941 14.1346C12.4156 14.1571 12.345 14.1992 12.2901 14.2565C12.2351 14.3138 12.1978 14.3841 12.1821 14.4598C12.1665 14.5355 12.173 14.6138 12.2012 14.6863C12.2293 14.7587 12.2778 14.8226 12.3417 14.8711L13.9308 16.0753C13.9981 16.1264 14.0798 16.1579 14.1659 16.166C14.252 16.1741 14.3387 16.1584 14.4154 16.1208L15.7077 15.4881L14.8987 16.3612C14.8577 16.4055 14.8269 16.4573 14.8083 16.5134C14.7896 16.5695 14.7836 16.6286 14.7904 16.687C14.7973 16.7454 14.8169 16.8018 14.8481 16.8527C14.8793 16.9036 14.9214 16.9479 14.9717 16.9827L16.7089 18.1798C16.7623 18.2165 16.8236 18.2416 16.8885 18.2533C16.9535 18.265 17.0203 18.2629 17.0843 18.2473C17.1483 18.2316 17.2078 18.2028 17.2584 18.1629C17.3091 18.1229 17.3496 18.0729 17.3771 18.0164L19.9509 12.7899C19.9832 12.7302 20 12.6642 19.9999 12.5972ZM16.972 17.8375L15.2348 16.6404L17.6046 14.0829L14.2101 15.7447L12.621 14.5406L19.5526 12.5972L16.972 17.8375Z" fill="#0064BD" stroke="#0064BD" stroke-width="0.383333"/>
</svg>
