<svg width="25" height="24" viewBox="0 0 25 24" fill="none" xmlns="http://www.w3.org/2000/svg">
<path d="M10.3301 14.1688L23.2989 1.2002" stroke="black" stroke-width="1.34999" stroke-linecap="round" stroke-linejoin="round"/>
<path d="M23.3012 1.2002L15.6378 22.4215C15.5861 22.5344 15.503 22.63 15.3985 22.6971C15.294 22.7642 15.1725 22.7998 15.0483 22.7998C14.9241 22.7998 14.8026 22.7642 14.6981 22.6971C14.5936 22.63 14.5105 22.5344 14.4588 22.4215L10.3324 14.1688L2.07947 10.0424C1.9666 9.99069 1.87094 9.90764 1.80388 9.80315C1.73682 9.69865 1.70117 9.5771 1.70117 9.45293C1.70117 9.32877 1.73682 9.20722 1.80388 9.10272C1.87094 8.99822 1.9666 8.91518 2.07947 8.86345L23.3012 1.2002Z" stroke="black" stroke-width="1.34999" stroke-linecap="round" stroke-linejoin="round"/>
</svg>
