<svg width="18" height="15" viewBox="0 0 18 15" fill="none" xmlns="http://www.w3.org/2000/svg">
<path d="M16.3489 5.94953L2.32288 0.129549C1.73199 -0.115663 1.06442 -0.00779279 0.580756 0.410923C0.0970875 0.829706 -0.105208 1.47496 0.0528801 2.09485L1.30132 6.99068H7.41384C7.69511 6.99068 7.92318 7.21871 7.92318 7.50002C7.92318 7.78129 7.69515 8.00936 7.41384 8.00936H1.30132L0.0528801 12.9052C-0.105208 13.5251 0.0970536 14.1703 0.580756 14.5891C1.06541 15.0086 1.73304 15.1152 2.32291 14.8705L16.3489 9.05051C16.9875 8.78553 17.3842 8.19142 17.3842 7.50002C17.3842 6.80862 16.9875 6.21447 16.3489 5.94953Z" fill="white"/>
</svg>
