  <svg width="64" height="64" viewBox="0 0 64 64" fill="none" xmlns="http://www.w3.org/2000/svg">
<rect width="64" height="64" rx="32" fill="#FFF9E6"/>
<circle opacity="0.07" cx="32" cy="32" r="32" fill="#FF8926"/>
<path d="M44.8549 20.007C44.7007 19.325 43.8373 19.077 43.344 19.573L41.8022 21.123C36.0359 15.9151 27.186 16.0701 21.6356 21.619C15.9001 27.3849 15.9001 36.7467 21.6356 42.5127C21.8206 42.6987 22.0056 42.8536 22.1598 43.0396C22.4681 43.3186 22.8382 43.4426 23.2082 43.4426C23.6399 43.4426 24.0716 43.2566 24.38 42.9156C24.9658 42.2647 24.9042 41.2727 24.2566 40.6837L23.8249 40.2807C19.3537 35.7548 19.3537 28.3769 23.8558 23.851C28.1728 19.511 35.0491 19.387 39.582 23.355L37.886 25.0599C37.3927 25.5559 37.6393 26.4239 38.3177 26.5789L45.5333 28.3459C46.1809 28.5009 46.7976 27.9119 46.6434 27.2299L44.8549 20.007Z" fill="black"/>
<path d="M37.1788 33.4946L33.571 31.2006V25.4037C33.571 24.5357 32.8618 23.8228 31.9984 23.8228C31.135 23.8228 30.4258 24.5357 30.4258 25.4037V32.0376C30.4258 32.5646 30.7033 33.0916 31.1658 33.3706L35.4828 36.1296C35.7295 36.2846 36.0379 36.3776 36.3154 36.3776C36.8396 36.3776 37.333 36.1296 37.6414 35.6336C38.1347 34.9206 37.9189 33.9596 37.1788 33.4946Z" fill="black"/>
<path d="M29.0055 43.2551L28.4196 43.0691C27.5871 42.7901 26.6928 43.2551 26.4462 44.0611C26.1686 44.8981 26.6312 45.7971 27.4329 46.0451C27.6796 46.1381 27.9263 46.2001 28.173 46.2621C28.2963 46.2931 28.4505 46.3241 28.5738 46.3241C29.2522 46.3241 29.8998 45.8591 30.0848 45.1461C30.3315 44.3401 29.8381 43.4721 29.0055 43.2551Z" fill="black"/>
<path d="M34.3399 43.4116L33.7232 43.5046C32.8598 43.6286 32.2739 44.4346 32.3972 45.3026C32.5206 46.0776 33.199 46.6665 33.939 46.6665C34.0007 46.6665 34.0932 46.6665 34.1857 46.6355C34.4324 46.6045 34.7099 46.5426 34.9566 46.5116C35.82 46.3256 36.3442 45.5196 36.19 44.6516C36.005 43.8146 35.1725 43.2566 34.3399 43.4116Z" fill="black"/>
<path d="M39.1507 41.1782L38.6573 41.5502C37.9481 42.0462 37.7939 43.0382 38.2873 43.7512C38.5956 44.1852 39.089 44.4332 39.5824 44.4332C39.8907 44.4332 40.1991 44.3402 40.4766 44.1542C40.6925 43.9992 40.9083 43.8442 41.0933 43.6892C41.7717 43.1622 41.895 42.1392 41.34 41.4572C40.8466 40.7442 39.829 40.6513 39.1507 41.1782Z" fill="black"/>
</svg>