<svg width="20" height="20" viewBox="0 0 20 20" fill="none" xmlns="http://www.w3.org/2000/svg">
<path d="M11.6465 3.92771L10.9238 4.12844L11.6465 3.92771ZM16.5875 7.87489L16.0524 7.34943L16.5875 7.87489ZM16.74 6.67428L16.0905 7.04928L16.74 6.67428ZM15.7922 9.30486L15.0475 9.3933L15.7922 9.30486ZM16.0811 8.39073L16.6162 8.91618L16.0811 8.39073ZM16.0811 11.6093L16.6162 11.0838L16.0811 11.6093ZM15.7922 10.6951L15.0475 10.6067L15.7922 10.6951ZM16.74 13.3257L16.0905 12.9507L16.74 13.3257ZM16.5876 12.1251L17.1227 11.5997L16.5876 12.1251ZM15.1341 14.6425L14.9466 15.3687L15.1341 14.6425ZM13.4966 14.6695L13.0466 14.0695L13.4966 14.6695ZM14.4335 14.4617L14.246 15.1878L14.4335 14.4617ZM11.6465 16.0723L12.3691 16.273L11.6465 16.0723ZM12.2949 15.3645L11.9996 14.6751L12.2949 15.3645ZM8.54645 16.7676L7.82381 16.9684L8.54645 16.7676ZM8.35329 16.0723L7.63065 16.273L8.35329 16.0723ZM4.86564 14.6425L4.67816 13.9163L4.86564 14.6425ZM4.20753 9.30485L3.46277 9.21642L4.20753 9.30485ZM3.25974 6.67428L2.61022 6.29928L3.25974 6.67428ZM3.41222 7.87489L2.87706 8.40034L3.41222 7.87489ZM4.86565 5.35747L4.67818 6.08366L4.86565 5.35747ZM5.56623 14.4617L5.37876 13.7355L5.56623 14.4617ZM6.50311 14.6695L6.95313 14.0695L6.50311 14.6695ZM16.2501 5.82572L15.6006 6.20072L16.2501 5.82572ZM8.54645 3.23236L7.82381 3.03162L8.54645 3.23236ZM9.50996 3.25H10.4898V1.75H9.50996V3.25ZM9.07593 4.12844L9.26908 3.43309L7.82381 3.03162L7.63065 3.72697L9.07593 4.12844ZM6.95313 5.93046C7.275 5.68905 7.62618 5.48509 8.0002 5.32488L7.40955 3.94606C6.92438 4.15389 6.46949 4.41818 6.05309 4.73049L6.95313 5.93046ZM4.67818 6.08366L5.37876 6.26453L5.75372 4.81215L5.05313 4.63128L4.67818 6.08366ZM3.90926 7.04928L4.39918 6.20072L3.10014 5.45072L2.61022 6.29928L3.90926 7.04928ZM4.45386 7.86526L3.94738 7.34943L2.87706 8.40034L3.38354 8.91617L4.45386 7.86526ZM4.91654 10C4.91654 9.79439 4.92871 9.59195 4.9523 9.39329L3.46277 9.21642C3.43222 9.47365 3.41654 9.73515 3.41654 10H4.91654ZM4.9523 10.6067C4.92871 10.408 4.91654 10.2056 4.91654 10H3.41654C3.41654 10.2648 3.43222 10.5263 3.46277 10.7836L4.9523 10.6067ZM3.94737 12.6506L4.45386 12.1347L3.38354 11.0838L2.87705 11.5997L3.94737 12.6506ZM4.39916 13.7993L3.90925 12.9507L2.61021 13.7007L3.10012 14.5493L4.39916 13.7993ZM5.37876 13.7355L4.67816 13.9163L5.05312 15.3687L5.75371 15.1878L5.37876 13.7355ZM8.0002 14.6751C7.62618 14.5149 7.275 14.311 6.95313 14.0695L6.05309 15.2695C6.46949 15.5818 6.92438 15.8461 7.40955 16.0539L8.0002 14.6751ZM9.26908 16.5669L9.07593 15.8716L7.63065 16.273L7.82381 16.9684L9.26908 16.5669ZM10.4898 16.75H9.50996V18.25H10.4898V16.75ZM10.9238 15.8716L10.7307 16.5669L12.1759 16.9684L12.3691 16.273L10.9238 15.8716ZM13.0466 14.0695C12.7248 14.3109 12.3736 14.5149 11.9996 14.6751L12.5902 16.0539C13.0754 15.8461 13.5303 15.5818 13.9467 15.2695L13.0466 14.0695ZM15.3216 13.9163L14.621 13.7355L14.246 15.1878L14.9466 15.3687L15.3216 13.9163ZM16.0905 12.9507L15.6006 13.7993L16.8996 14.5493L17.3896 13.7007L16.0905 12.9507ZM15.5459 12.1347L16.0524 12.6506L17.1227 11.5997L16.6162 11.0838L15.5459 12.1347ZM15.0832 10C15.0832 10.2056 15.071 10.408 15.0475 10.6067L16.537 10.7836C16.5675 10.5263 16.5832 10.2648 16.5832 10H15.0832ZM15.0475 9.3933C15.071 9.59195 15.0832 9.7944 15.0832 10H16.5832C16.5832 9.73515 16.5675 9.47365 16.537 9.21643L15.0475 9.3933ZM16.0524 7.34943L15.5459 7.86527L16.6162 8.91618L17.1227 8.40034L16.0524 7.34943ZM15.6006 6.20072L16.0905 7.04928L17.3895 6.29928L16.8996 5.45072L15.6006 6.20072ZM14.621 6.26453L15.3216 6.08366L14.9466 4.63128L14.246 4.81215L14.621 6.26453ZM11.9996 5.32488C12.3736 5.48509 12.7248 5.68905 13.0466 5.93047L13.9467 4.7305C13.5303 4.41818 13.0754 4.15389 12.5902 3.94606L11.9996 5.32488ZM10.7307 3.43309L10.9238 4.12844L12.3691 3.72697L12.1759 3.03162L10.7307 3.43309ZM12.5902 3.94606C12.4546 3.88797 12.3885 3.79677 12.3691 3.72697L10.9238 4.12844C11.0844 4.7066 11.517 5.11816 11.9996 5.32488L12.5902 3.94606ZM17.1227 8.40034C17.6735 7.83942 17.7826 6.98007 17.3895 6.29928L16.0905 7.04928C16.1467 7.14653 16.1311 7.2693 16.0524 7.34943L17.1227 8.40034ZM16.537 9.21643C16.5197 9.0705 16.5655 8.96787 16.6162 8.91618L15.5459 7.86527C15.1261 8.2928 14.9856 8.87231 15.0475 9.3933L16.537 9.21643ZM16.6162 11.0838C16.5655 11.0321 16.5197 10.9295 16.537 10.7836L15.0475 10.6067C14.9856 11.1277 15.1261 11.7072 15.5459 12.1347L16.6162 11.0838ZM17.3896 13.7007C17.7826 13.0199 17.6735 12.1606 17.1227 11.5997L16.0524 12.6506C16.1311 12.7307 16.1467 12.8535 16.0905 12.9507L17.3896 13.7007ZM14.9466 15.3687C15.7078 15.5652 16.5066 15.2301 16.8996 14.5493L15.6006 13.7993C15.5445 13.8965 15.4303 13.9444 15.3216 13.9163L14.9466 15.3687ZM13.9467 15.2695C14.0641 15.1815 14.1758 15.1697 14.246 15.1878L14.621 13.7355C14.0401 13.5855 13.4672 13.7541 13.0466 14.0695L13.9467 15.2695ZM12.3691 16.273C12.3885 16.2032 12.4546 16.112 12.5902 16.0539L11.9996 14.6751C11.517 14.8818 11.0844 15.2934 10.9238 15.8716L12.3691 16.273ZM10.4898 18.25C11.2759 18.25 11.9655 17.7258 12.1759 16.9684L10.7307 16.5669C10.7006 16.6751 10.6021 16.75 10.4898 16.75V18.25ZM7.82381 16.9684C8.03421 17.7258 8.72385 18.25 9.50996 18.25V16.75C9.39766 16.75 9.29914 16.6751 9.26908 16.5669L7.82381 16.9684ZM7.40955 16.0539C7.54514 16.112 7.61126 16.2032 7.63065 16.273L9.07593 15.8716C8.91533 15.2934 8.48277 14.8818 8.0002 14.6751L7.40955 16.0539ZM3.10012 14.5493C3.49318 15.2301 4.29196 15.5652 5.05312 15.3687L4.67816 13.9163C4.56942 13.9444 4.45531 13.8965 4.39916 13.7993L3.10012 14.5493ZM2.87705 11.5997C2.32629 12.1606 2.21715 13.0199 2.61021 13.7007L3.90925 12.9507C3.8531 12.8535 3.86869 12.7307 3.94737 12.6506L2.87705 11.5997ZM3.46277 10.7836C3.48009 10.9295 3.43429 11.0321 3.38354 11.0838L4.45386 12.1347C4.87364 11.7072 5.01416 11.1277 4.9523 10.6067L3.46277 10.7836ZM3.38354 8.91617C3.43429 8.96786 3.4801 9.07049 3.46277 9.21642L4.9523 9.39329C5.01417 8.8723 4.87364 8.29279 4.45386 7.86526L3.38354 8.91617ZM2.61022 6.29928C2.21717 6.98007 2.3263 7.83941 2.87706 8.40034L3.94738 7.34943C3.8687 7.2693 3.85311 7.14653 3.90926 7.04928L2.61022 6.29928ZM5.05313 4.63128C4.29198 4.43477 3.49319 4.76993 3.10014 5.45072L4.39918 6.20072C4.45533 6.10346 4.56944 6.05558 4.67818 6.08366L5.05313 4.63128ZM6.05309 4.73049C5.93571 4.81854 5.82395 4.83028 5.75372 4.81215L5.37876 6.26453C5.95961 6.41448 6.53259 6.24589 6.95313 5.93046L6.05309 4.73049ZM7.63065 3.72697C7.61126 3.79677 7.54514 3.88798 7.40955 3.94606L8.0002 5.32488C8.48277 5.11816 8.91533 4.7066 9.07593 4.12844L7.63065 3.72697ZM14.246 4.81215C14.1758 4.83028 14.0641 4.81854 13.9467 4.7305L13.0466 5.93047C13.4672 6.2459 14.0401 6.41449 14.621 6.26453L14.246 4.81215ZM10.4898 3.25C10.6021 3.25 10.7006 3.32488 10.7307 3.43309L12.1759 3.03162C11.9655 2.27419 11.2759 1.75 10.4898 1.75V3.25ZM5.75371 15.1878C5.82394 15.1697 5.9357 15.1815 6.05309 15.2695L6.95313 14.0695C6.53258 13.7541 5.95961 13.5855 5.37876 13.7355L5.75371 15.1878ZM16.8996 5.45072C16.5066 4.76993 15.7078 4.43477 14.9466 4.63128L15.3216 6.08366C15.4303 6.05559 15.5444 6.10347 15.6006 6.20072L16.8996 5.45072ZM9.50996 1.75C8.72385 1.75 8.03421 2.27419 7.82381 3.03162L9.26908 3.43309C9.29914 3.32488 9.39766 3.25 9.50996 3.25V1.75Z" fill="black"/>
<path d="M7.5 10C7.5 10.663 7.76339 11.2989 8.23223 11.7678C8.70107 12.2366 9.33696 12.5 10 12.5C10.663 12.5 11.2989 12.2366 11.7678 11.7678C12.2366 11.2989 12.5 10.663 12.5 10C12.5 9.33696 12.2366 8.70107 11.7678 8.23223C11.2989 7.76339 10.663 7.5 10 7.5C9.33696 7.5 8.70107 7.76339 8.23223 8.23223C7.76339 8.70107 7.5 9.33696 7.5 10Z" stroke="black" stroke-width="1.5" stroke-linecap="round" stroke-linejoin="round"/>
</svg>
