<svg width="96" height="97" viewBox="0 0 96 97" fill="none" xmlns="http://www.w3.org/2000/svg">
<path d="M0 48.5C0 21.9903 21.4903 0.5 48 0.5C74.5097 0.5 96 21.9903 96 48.5C96 75.0097 74.5097 96.5 48 96.5C21.4903 96.5 0 75.0097 0 48.5Z" fill="#F8F7FA"/>
<path d="M66 34.5V62.5C66 63.5609 65.5786 64.5783 64.8284 65.3284C64.0783 66.0786 63.0609 66.5 62 66.5H38C36.9391 66.5 35.9217 66.0786 35.1716 65.3284C34.4214 64.5783 34 63.5609 34 62.5V34.5C34 33.4391 34.4214 32.4217 35.1716 31.6716C35.9217 30.9214 36.9391 30.5 38 30.5H62C63.0609 30.5 64.0783 30.9214 64.8284 31.6716C65.5786 32.4217 66 33.4391 66 34.5Z" stroke="#78787A" stroke-width="3" stroke-linecap="round" stroke-linejoin="round"/>
<path d="M44 56.5H56" stroke="#78787A" stroke-width="3" stroke-linecap="round" stroke-linejoin="round"/>
<path d="M46 46.5C46 47.5609 46.4214 48.5783 47.1716 49.3284C47.9217 50.0786 48.9391 50.5 50 50.5C51.0609 50.5 52.0783 50.0786 52.8284 49.3284C53.5786 48.5783 54 47.5609 54 46.5C54 45.4391 53.5786 44.4217 52.8284 43.6716C52.0783 42.9214 51.0609 42.5 50 42.5C48.9391 42.5 47.9217 42.9214 47.1716 43.6716C46.4214 44.4217 46 45.4391 46 46.5Z" stroke="#78787A" stroke-width="3" stroke-linecap="round" stroke-linejoin="round"/>
<path d="M30 40.5H36" stroke="#78787A" stroke-width="3" stroke-linecap="round" stroke-linejoin="round"/>
<path d="M30 48.5H36" stroke="#78787A" stroke-width="3" stroke-linecap="round" stroke-linejoin="round"/>
<path d="M30 56.5H36" stroke="#78787A" stroke-width="3" stroke-linecap="round" stroke-linejoin="round"/>
</svg>
