<svg width="24" height="24" viewBox="0 0 24 24" fill="none" xmlns="http://www.w3.org/2000/svg">
<path d="M14.8637 15.6486L14.9696 15.6973L15.043 15.6068C15.4012 15.1652 15.8529 14.8084 16.3655 14.5621C16.8779 14.3159 17.4385 14.1862 18.0071 14.1823C18.7683 14.1825 19.5125 14.4082 20.1454 14.8312C20.7786 15.2542 21.272 15.8555 21.5634 16.559C21.8548 17.2625 21.9311 18.0366 21.7825 18.7834C21.634 19.5303 21.2673 20.2163 20.7289 20.7547C20.1904 21.2931 19.5044 21.6598 18.7576 21.8084C18.0108 21.9569 17.2367 21.8807 16.5332 21.5893C15.8297 21.2979 15.2284 20.8044 14.8053 20.1713C14.3825 19.5384 14.1567 18.7944 14.1565 18.0333C14.1594 17.804 14.182 17.5753 14.224 17.3498L14.2453 17.2349L14.1392 17.1861L8.85921 14.7561L8.76544 14.7129L8.69163 14.7851C8.14982 15.3149 7.46372 15.673 6.71928 15.8146C5.97484 15.9561 5.20518 15.8749 4.50673 15.581C3.80827 15.287 3.21208 14.7935 2.79285 14.1623C2.37362 13.531 2.15 12.7901 2.15 12.0323C2.15 11.2746 2.37362 10.5336 2.79285 9.90239C3.21208 9.27114 3.80827 8.77764 4.50673 8.48373C5.20518 8.18982 5.97484 8.10856 6.71928 8.25013C7.46372 8.3917 8.14982 8.74981 8.69163 9.27959L8.76544 9.35176L8.85921 9.3086L14.1392 6.8786L14.2453 6.82976L14.224 6.71491C14.182 6.48919 14.1594 6.26028 14.1565 6.03071C14.1493 5.12339 14.4627 4.24267 15.0415 3.54393C15.6205 2.84508 16.4277 2.3732 17.3206 2.21157C18.2136 2.04993 19.135 2.20894 19.9222 2.66052C20.7093 3.1121 21.3117 3.82723 21.6229 4.67969C21.9341 5.53215 21.9342 6.46715 21.6231 7.31967C21.3121 8.17219 20.7099 8.88742 19.9228 9.33915C19.1357 9.79087 18.2144 9.95004 17.3213 9.78857C16.4283 9.6271 15.6211 9.15537 15.042 8.45663L14.9684 8.36786L14.8637 8.41611L9.76372 10.7661L9.64246 10.822L9.68391 10.9489C9.91382 11.6529 9.91382 12.4118 9.68391 13.1158L9.64246 13.2427L9.76372 13.2986L14.8637 15.6486ZM19.201 4.24468C18.8474 4.00844 18.4317 3.88234 18.0065 3.88234C17.4363 3.88234 16.8894 4.10886 16.4862 4.51206C16.083 4.91526 15.8565 5.46213 15.8565 6.03234C15.8565 6.45757 15.9826 6.87325 16.2188 7.22682C16.4551 7.58038 16.7909 7.85595 17.1837 8.01868C17.5766 8.18141 18.0089 8.22399 18.4259 8.14103C18.843 8.05807 19.2261 7.8533 19.5268 7.55262C19.8275 7.25194 20.0322 6.86884 20.1152 6.45179C20.1981 6.03473 20.1556 5.60243 19.9928 5.20957C19.8301 4.81671 19.5545 4.48093 19.201 4.24468ZM4.81202 13.82C5.16559 14.0562 5.58127 14.1823 6.0065 14.1823C6.57671 14.1823 7.12357 13.9558 7.52678 13.5526C7.92998 13.1494 8.1565 12.6026 8.1565 12.0323C8.1565 11.6071 8.0304 11.1914 7.79416 10.8379C7.55791 10.4843 7.22213 10.2087 6.82927 10.046C6.43641 9.88327 6.00411 9.84069 5.58705 9.92365C5.16999 10.0066 4.7869 10.2114 4.48622 10.5121C4.18554 10.8127 3.98077 11.1958 3.89781 11.6129C3.81485 12.03 3.85743 12.4622 4.02016 12.8551C4.18289 13.248 4.45846 13.5838 4.81202 13.82ZM16.812 19.82C17.1656 20.0562 17.5813 20.1823 18.0065 20.1823C18.5767 20.1823 19.1236 19.9558 19.5268 19.5526C19.93 19.1494 20.1565 18.6026 20.1565 18.0323C20.1565 17.6071 20.0304 17.1914 19.7942 16.8379C19.5579 16.4843 19.2221 16.2087 18.8293 16.046C18.4364 15.8833 18.0041 15.8407 17.5871 15.9237C17.17 16.0066 16.7869 16.2114 16.4862 16.5121C16.1855 16.8127 15.9808 17.1958 15.8978 17.6129C15.8149 18.03 15.8574 18.4622 16.0202 18.8551C16.1829 19.248 16.4585 19.5838 16.812 19.82Z" fill="black" stroke="white" stroke-width="0.3"/>
</svg>
