<svg width="22" height="18" viewBox="0 0 22 18" fill="none" xmlns="http://www.w3.org/2000/svg">
<path d="M12.8746 2.63068C12.7706 2.38035 12.6081 2.15875 12.4008 1.98454C12.1935 1.81033 11.9476 1.68861 11.6836 1.62962C11.4196 1.57064 11.1453 1.57613 10.8839 1.64561C10.6225 1.7151 10.3815 1.84656 10.1813 2.02892L4.35977 7.29431L2.15417 8.22703C1.69622 8.41835 1.33252 8.78381 1.1427 9.2434C0.952885 9.70299 0.952417 10.2193 1.1414 10.6792L1.99663 12.7854C2.14029 13.1291 2.38224 13.4226 2.69196 13.6287C3.00169 13.8349 3.36535 13.9445 3.7371 13.9437C3.99433 13.9486 4.24978 13.9 4.4873 13.8008L4.54732 13.7632L5.89769 17.0202C5.94785 17.1474 6.02293 17.2632 6.11848 17.3607C6.21404 17.4583 6.32814 17.5357 6.45403 17.5883C6.57992 17.6409 6.71505 17.6676 6.85143 17.667C6.98782 17.6663 7.12268 17.6382 7.24805 17.5844L8.46338 17.0804C8.71701 16.973 8.91886 16.7706 9.02603 16.5163C9.07783 16.3911 9.10449 16.2569 9.10449 16.1214C9.10449 15.9858 9.07783 15.8516 9.02603 15.7265L7.82571 12.8305L14.5025 12.492C14.7757 12.4842 15.0428 12.4097 15.2807 12.2751C15.5187 12.1404 15.7203 11.9496 15.8681 11.7191C16.0159 11.4887 16.1054 11.2256 16.1289 10.9526C16.1524 10.6797 16.1092 10.4051 16.0029 10.1527L12.8746 2.63068ZM2.70182 12.492L1.83158 10.3934C1.77027 10.2549 1.73738 10.1055 1.73488 9.9541C1.73238 9.80266 1.76032 9.65226 1.81702 9.51187C1.87373 9.37148 1.95805 9.24398 2.06495 9.13696C2.17185 9.02995 2.29914 8.94561 2.43925 8.88897L4.35977 8.12173L5.2225 10.2128L6.08524 12.3115L4.58483 12.9208L4.14971 13.1088C3.87584 13.216 3.571 13.2115 3.30041 13.0962C3.02982 12.981 2.81497 12.7641 2.70182 12.492ZM7.068 12.9659L8.32834 15.9747C8.34299 16.0092 8.35055 16.0463 8.35055 16.0837C8.35055 16.1212 8.34299 16.1583 8.32834 16.1928C8.31476 16.2267 8.29446 16.2576 8.26867 16.2834C8.24289 16.3093 8.21215 16.3296 8.1783 16.3433L6.96297 16.8547C6.89223 16.8824 6.81355 16.8813 6.74356 16.8518C6.67357 16.8224 6.61774 16.7668 6.58787 16.6968L5.24501 13.4774L6.66289 12.8831H7.053C7.05312 12.9114 7.0582 12.9394 7.068 12.9659ZM15.2152 11.3035C15.1354 11.4323 15.0252 11.5395 14.8944 11.6155C14.7636 11.6916 14.6161 11.7343 14.465 11.7398L6.82044 12.1234L5.91269 9.927L4.99744 7.74563L10.6765 2.60059C10.7879 2.49773 10.9226 2.42347 11.0689 2.38417C11.2152 2.34487 11.3689 2.3417 11.5167 2.37493C11.6644 2.40751 11.8019 2.476 11.917 2.57438C12.0322 2.67275 12.1214 2.79799 12.1769 2.93908L15.2827 10.4611C15.3384 10.5969 15.3613 10.744 15.3496 10.8904C15.3379 11.0368 15.2918 11.1783 15.2152 11.3035ZM17.3758 5.84257C17.2763 5.86251 17.173 5.84202 17.0886 5.7856C17.0042 5.72917 16.9456 5.64143 16.9257 5.54169C16.9058 5.44194 16.9262 5.33835 16.9825 5.25371C17.0388 5.16907 17.1263 5.11032 17.2257 5.09037L20.0015 3.98464C20.094 3.94673 20.1978 3.94723 20.2899 3.98602C20.3821 4.02482 20.4551 4.09872 20.4929 4.19149C20.5307 4.28425 20.5302 4.38828 20.4915 4.48068C20.4528 4.57307 20.3791 4.64628 20.2866 4.68418L17.5183 5.83504C17.4714 5.84386 17.4234 5.84639 17.3758 5.84257ZM20.9993 8.19695C20.9954 8.29406 20.9542 8.38591 20.8842 8.45322C20.8143 8.52053 20.7211 8.55808 20.6242 8.558L17.6234 8.43013C17.5232 8.42429 17.4293 8.37924 17.362 8.30467C17.2946 8.2301 17.2592 8.13198 17.2633 8.03146C17.2641 7.98204 17.2751 7.93332 17.2955 7.88833C17.3159 7.84333 17.3453 7.80301 17.3818 7.76987C17.4184 7.73672 17.4614 7.71146 17.5081 7.69565C17.5548 7.67983 17.6042 7.6738 17.6534 7.67793L20.6542 7.8058C20.7025 7.80868 20.7497 7.82109 20.7933 7.84232C20.8368 7.86355 20.8757 7.89318 20.9077 7.92952C20.9398 7.96586 20.9644 8.00819 20.9801 8.05408C20.9958 8.09997 21.0023 8.14852 20.9993 8.19695ZM15.4178 3.60854C15.3486 3.53696 15.3099 3.44119 15.3099 3.34151C15.3099 3.24182 15.3486 3.14605 15.4178 3.07448L17.5408 0.975842C17.5758 0.940775 17.6173 0.912958 17.663 0.89398C17.7087 0.875002 17.7577 0.865234 17.8072 0.865234C17.8566 0.865234 17.9056 0.875002 17.9513 0.89398C17.997 0.912958 18.0385 0.940775 18.0735 0.975842C18.1085 1.01091 18.1362 1.05254 18.1551 1.09836C18.1741 1.14417 18.1838 1.19328 18.1838 1.24287C18.1838 1.29246 18.1741 1.34157 18.1551 1.38739C18.1362 1.43321 18.1085 1.47484 18.0735 1.5099L15.9504 3.60854C15.8782 3.67622 15.783 3.71387 15.6841 3.71387C15.5852 3.71387 15.49 3.67622 15.4178 3.60854Z" fill="#FF8926" stroke="#FF8926" stroke-width="0.5"/>
</svg>
