<svg width="22" height="18" viewBox="0 0 22 18" fill="none" xmlns="http://www.w3.org/2000/svg">
<path d="M12.8746 2.63263C12.7706 2.38231 12.6081 2.16071 12.4008 1.9865C12.1935 1.81228 11.9476 1.69056 11.6836 1.63158C11.4196 1.57259 11.1453 1.57808 10.8839 1.64757C10.6225 1.71706 10.3815 1.84851 10.1813 2.03087L4.35977 7.29626L2.15417 8.22899C1.69622 8.42031 1.33252 8.78576 1.1427 9.24535C0.952885 9.70494 0.952417 10.2212 1.1414 10.6812L1.99663 12.7873C2.14029 13.1311 2.38224 13.4245 2.69196 13.6307C3.00169 13.8368 3.36535 13.9464 3.7371 13.9457C3.99433 13.9506 4.24978 13.9019 4.4873 13.8028L4.54732 13.7652L5.89769 17.0222C5.94785 17.1493 6.02293 17.2651 6.11848 17.3627C6.21404 17.4603 6.32814 17.5376 6.45403 17.5902C6.57992 17.6428 6.71505 17.6696 6.85143 17.6689C6.98782 17.6682 7.12268 17.6402 7.24805 17.5863L8.46338 17.0824C8.71701 16.9749 8.91886 16.7725 9.02603 16.5182C9.07783 16.393 9.10449 16.2588 9.10449 16.1233C9.10449 15.9878 9.07783 15.8536 9.02603 15.7284L7.82571 12.8324L14.5025 12.494C14.7757 12.4862 15.0428 12.4117 15.2807 12.277C15.5187 12.1423 15.7203 11.9515 15.8681 11.7211C16.0159 11.4906 16.1054 11.2275 16.1289 10.9546C16.1524 10.6816 16.1092 10.407 16.0029 10.1546L12.8746 2.63263ZM2.70182 12.494L1.83158 10.3953C1.77027 10.2569 1.73738 10.1075 1.73488 9.95606C1.73238 9.80461 1.76032 9.65421 1.81702 9.51383C1.87373 9.37344 1.95805 9.24594 2.06495 9.13892C2.17185 9.0319 2.29914 8.94756 2.43925 8.89092L4.35977 8.12368L5.2225 10.2148L6.08524 12.3134L4.58483 12.9227L4.14971 13.1108C3.87584 13.218 3.571 13.2134 3.30041 13.0982C3.02982 12.9829 2.81497 12.766 2.70182 12.494ZM7.068 12.9678L8.32834 15.9766C8.34299 16.0111 8.35055 16.0482 8.35055 16.0857C8.35055 16.1232 8.34299 16.1603 8.32834 16.1948C8.31476 16.2287 8.29446 16.2595 8.26867 16.2854C8.24289 16.3112 8.21215 16.3316 8.1783 16.3452L6.96297 16.8567C6.89223 16.8843 6.81355 16.8833 6.74356 16.8538C6.67357 16.8243 6.61774 16.7687 6.58787 16.6987L5.24501 13.4793L6.66289 12.8851H7.053C7.05312 12.9133 7.0582 12.9414 7.068 12.9678ZM15.2152 11.3055C15.1354 11.4343 15.0252 11.5414 14.8944 11.6175C14.7636 11.6936 14.6161 11.7362 14.465 11.7418L6.82044 12.1254L5.91269 9.92895L4.99744 7.74758L10.6765 2.60254C10.7879 2.49968 10.9226 2.42542 11.0689 2.38612C11.2152 2.34683 11.3689 2.34365 11.5167 2.37688C11.6644 2.40946 11.8019 2.47795 11.917 2.57633C12.0322 2.67471 12.1214 2.79995 12.1769 2.94103L15.2827 10.463C15.3384 10.5989 15.3613 10.746 15.3496 10.8924C15.3379 11.0387 15.2918 11.1803 15.2152 11.3055ZM17.3758 5.84452C17.2763 5.86447 17.173 5.84398 17.0886 5.78755C17.0042 5.73112 16.9456 5.64339 16.9257 5.54364C16.9058 5.44389 16.9262 5.3403 16.9825 5.25567C17.0388 5.17103 17.1263 5.11227 17.2257 5.09232L20.0015 3.98659C20.094 3.94868 20.1978 3.94918 20.2899 3.98798C20.3821 4.02677 20.4551 4.10068 20.4929 4.19344C20.5307 4.28621 20.5302 4.39023 20.4915 4.48263C20.4528 4.57503 20.3791 4.64823 20.2866 4.68613L17.5183 5.837C17.4714 5.84581 17.4234 5.84834 17.3758 5.84452ZM20.9993 8.1989C20.9954 8.29602 20.9542 8.38786 20.8842 8.45517C20.8143 8.52248 20.7211 8.56003 20.6242 8.55995L17.6234 8.43208C17.5232 8.42625 17.4293 8.38119 17.362 8.30662C17.2946 8.23205 17.2592 8.13394 17.2633 8.03342C17.2641 7.984 17.2751 7.93528 17.2955 7.89028C17.3159 7.84528 17.3453 7.80496 17.3818 7.77182C17.4184 7.73868 17.4614 7.71341 17.5081 7.6976C17.5548 7.68179 17.6042 7.67576 17.6534 7.67988L20.6542 7.80776C20.7025 7.81063 20.7497 7.82304 20.7933 7.84427C20.8368 7.8655 20.8757 7.89514 20.9077 7.93148C20.9398 7.96782 20.9644 8.01015 20.9801 8.05604C20.9958 8.10193 21.0023 8.15048 20.9993 8.1989ZM15.4178 3.61049C15.3486 3.53892 15.3099 3.44315 15.3099 3.34346C15.3099 3.24377 15.3486 3.148 15.4178 3.07643L17.5408 0.977795C17.5758 0.942728 17.6173 0.914911 17.663 0.895933C17.7087 0.876955 17.7577 0.867188 17.8072 0.867188C17.8566 0.867187 17.9056 0.876955 17.9513 0.895933C17.997 0.914911 18.0385 0.942728 18.0735 0.977795C18.1085 1.01286 18.1362 1.05449 18.1551 1.10031C18.1741 1.14613 18.1838 1.19523 18.1838 1.24483C18.1838 1.29442 18.1741 1.34352 18.1551 1.38934C18.1362 1.43516 18.1085 1.47679 18.0735 1.51186L15.9504 3.61049C15.8782 3.67817 15.783 3.71582 15.6841 3.71582C15.5852 3.71582 15.49 3.67817 15.4178 3.61049Z" fill="#FF8926" stroke="#FF8926" stroke-width="0.5"/>
</svg>
