<svg width="20" height="20" viewBox="0 0 20 20" fill="none" xmlns="http://www.w3.org/2000/svg">
<path d="M10.0646 5.97113C10.1516 5.94977 10.2289 5.89672 10.2767 5.82003C10.5789 5.34982 10.761 4.79341 10.761 4.19414C10.761 2.50683 9.3521 1.125 7.6096 1.125C5.86672 1.125 4.46484 2.50778 4.46484 4.19414C4.46484 4.79075 4.63877 5.34737 4.94255 5.81996C4.99043 5.89685 5.06772 5.94991 5.15472 5.97128C5.24213 5.99291 5.33538 5.98177 5.41487 5.93923C5.49463 5.89654 5.55557 5.82442 5.57994 5.73628C5.60458 5.64717 5.58807 5.5537 5.53734 5.47787L5.53426 5.47327C5.29736 5.10255 5.16126 4.66705 5.16126 4.19414C5.16126 2.85468 6.25941 1.78201 7.60943 1.78201C8.95987 1.78201 10.0643 2.85563 10.0643 4.19414C10.0643 4.66667 9.92135 5.10508 9.68108 5.47902C9.63077 5.55505 9.61516 5.64786 9.63951 5.73612C9.66378 5.82462 9.72514 5.89675 9.80486 5.93921C9.88422 5.98169 9.97736 5.99271 10.0646 5.97113ZM10.0646 5.97113C10.0645 5.97116 10.0647 5.97111 10.0646 5.97113V5.97113Z" fill="black"/>
<path d="M10.0646 5.97113C10.1516 5.94977 10.2289 5.89672 10.2767 5.82003C10.5789 5.34982 10.761 4.79341 10.761 4.19414C10.761 2.50683 9.3521 1.125 7.6096 1.125C5.86672 1.125 4.46484 2.50778 4.46484 4.19414C4.46484 4.79075 4.63877 5.34737 4.94255 5.81996C4.99043 5.89685 5.06772 5.94991 5.15472 5.97128M10.0646 5.97113C9.97736 5.99271 9.88422 5.98169 9.80486 5.93921M10.0646 5.97113L10.0348 5.84974M10.0646 5.97113C10.0645 5.97116 10.0647 5.97111 10.0646 5.97113ZM5.15472 5.97128L5.18454 5.84991M5.15472 5.97128C5.24213 5.99291 5.33538 5.98177 5.41487 5.93923C5.49463 5.89654 5.55557 5.82442 5.57994 5.73628M5.57994 5.73628L5.45946 5.70296M5.57994 5.73628C5.60458 5.64717 5.58807 5.5537 5.53734 5.47787L5.53426 5.47327C5.29736 5.10255 5.16126 4.66705 5.16126 4.19414C5.16126 2.85468 6.25941 1.78201 7.60943 1.78201C8.95987 1.78201 10.0643 2.85563 10.0643 4.19414C10.0643 4.66667 9.92135 5.10508 9.68108 5.47902C9.63077 5.55505 9.61516 5.64786 9.63951 5.73612C9.66378 5.82462 9.72514 5.89675 9.80486 5.93921M9.80486 5.93921L9.86362 5.82888" stroke="black" stroke-width="0.25"/>
<path fill-rule="evenodd" clip-rule="evenodd" d="M7.61593 2.96484C8.37714 2.96484 9.03241 3.45729 9.03241 4.09677V8.68219C9.04674 8.67168 9.05967 8.66019 9.07431 8.65039C9.36325 8.45691 9.72914 8.37912 10.0861 8.38323C10.4431 8.38735 10.7974 8.47039 11.0771 8.644C11.3481 8.81222 11.5494 9.08761 11.5447 9.41354C11.8193 9.20615 12.1626 9.11104 12.5008 9.10834C12.853 9.10551 13.2062 9.19962 13.4707 9.4073C13.6947 9.58304 13.8497 9.84793 13.8686 10.1577C13.9218 10.1142 13.9706 10.0706 14.029 10.0369C14.3514 9.85075 14.736 9.81796 15.0827 9.90327C15.776 10.0739 16.3542 10.7232 16.2341 11.5694C15.7735 14.839 15.3762 16.2177 14.7617 18.5969C14.7371 18.6835 14.6435 18.7495 14.5453 18.7495C12.5647 18.7371 10.8578 18.7259 8.87909 18.7113H8.87224C7.74453 18.6796 6.56479 17.8046 5.60655 16.2883C4.64816 14.7719 3.91374 12.5907 3.75033 9.86513C3.7469 9.80934 3.77042 9.75256 3.8131 9.71253C4.05157 9.49889 4.28163 9.36133 4.51091 9.30556C4.58256 9.28809 4.64985 9.28057 4.72026 9.28015C4.87508 9.27887 5.02664 9.31478 5.15298 9.38193C5.52027 9.57697 5.73053 9.9665 5.91356 10.3741C6.02384 10.6195 6.12072 10.8668 6.20655 11.1054C6.22649 9.16857 6.19969 6.75075 6.19969 4.09718C6.19969 3.45766 6.85659 2.96484 7.61593 2.96484ZM7.61593 3.37182C7.06346 3.37182 6.64601 3.71819 6.64601 4.09677C6.64601 7.15448 6.68246 9.92612 6.63916 11.9826C6.60691 12.7967 6.24975 12.3916 5.94836 11.6837C5.81269 11.3364 5.67173 10.9047 5.5018 10.5263C5.33187 10.1478 5.1219 9.83979 4.92951 9.73774C4.83341 9.68664 4.74665 9.66932 4.62251 9.69956C4.51347 9.7261 4.37485 9.80077 4.20382 9.94116C4.37516 12.5677 5.0859 14.6538 5.99026 16.0845C6.90444 17.5309 8.01408 18.2781 8.88619 18.3039C10.8014 18.318 12.4693 18.3302 14.371 18.3421C14.9621 16.0596 15.3467 14.6976 15.7945 11.5185C15.888 10.8606 15.4467 10.4162 14.9641 10.2975C14.7229 10.2382 14.4825 10.2594 14.2733 10.3802C14.0642 10.501 13.8782 10.7299 13.7849 11.1179V11.1242C13.7827 11.1284 13.7804 11.1327 13.778 11.1368L13.7501 11.442C13.7604 11.559 13.6383 11.6704 13.5098 11.6612C13.3815 11.6518 13.2801 11.5242 13.3104 11.4102L13.3383 11.0794C13.3383 11.0644 13.3413 11.0495 13.3452 11.0349V11.0286V11.0224L13.4149 10.291C13.441 10.0229 13.3444 9.84955 13.1777 9.71866C13.0109 9.58777 12.7639 9.51311 12.5078 9.51509C12.2517 9.51722 11.9975 9.59274 11.81 9.74407C11.6458 9.87637 11.5259 10.0639 11.4959 10.3354C11.4938 10.3518 11.4902 10.3694 11.4891 10.3863C11.4869 10.4159 11.4838 10.4456 11.4822 10.4753V10.4944C11.4731 10.6636 11.4635 10.8335 11.4544 11.0032C11.4676 11.1204 11.347 11.2346 11.2181 11.2272C11.0891 11.2197 10.9854 11.0925 11.0148 10.9778C11.0232 10.8202 11.0343 10.6645 11.0427 10.5072C11.0405 10.4923 11.0405 10.4775 11.0427 10.4626C11.0402 10.4584 11.0377 10.4543 11.0358 10.45C11.0358 10.3952 11.0436 10.3428 11.0498 10.291V10.2718C11.0653 9.98921 11.0822 9.7094 11.0988 9.42609C11.109 9.23744 11.0139 9.09718 10.8266 8.98092C10.6391 8.86452 10.3587 8.7934 10.0799 8.79014C9.80108 8.78687 9.52771 8.8553 9.34018 8.98092C9.15264 9.10655 9.03566 9.27278 9.04018 9.55968C9.04236 9.58111 9.04018 9.60255 9.03333 9.62328V9.99845C9.03551 10.1059 8.92803 10.2049 8.80996 10.2049C8.6919 10.2049 8.58504 10.1059 8.5866 9.99845V4.09679C8.5866 3.7182 8.17091 3.37182 7.61593 3.37182Z" fill="black"/>
<mask id="mask0_7861_94708" style="mask-type:luminance" maskUnits="userSpaceOnUse" x="2" y="1" width="15" height="19">
<path d="M16.75 1.96484H2.75V19.9648H16.75V1.96484Z" fill="white"/>
<path fill-rule="evenodd" clip-rule="evenodd" d="M7.61593 2.96484C8.37714 2.96484 9.03241 3.45729 9.03241 4.09677V8.68219C9.04674 8.67168 9.05967 8.66019 9.07431 8.65039C9.36325 8.45691 9.72914 8.37912 10.0861 8.38323C10.4431 8.38735 10.7974 8.47039 11.0771 8.644C11.3481 8.81222 11.5494 9.08761 11.5447 9.41354C11.8193 9.20615 12.1626 9.11104 12.5008 9.10834C12.853 9.10551 13.2062 9.19962 13.4707 9.4073C13.6947 9.58304 13.8497 9.84793 13.8686 10.1577C13.9218 10.1142 13.9706 10.0706 14.029 10.0369C14.3514 9.85075 14.736 9.81796 15.0827 9.90327C15.776 10.0739 16.3542 10.7232 16.2341 11.5694C15.7735 14.839 15.3762 16.2177 14.7617 18.5969C14.7371 18.6835 14.6435 18.7495 14.5453 18.7495C12.5647 18.7371 10.8578 18.7259 8.87909 18.7113H8.87224C7.74453 18.6796 6.56479 17.8046 5.60655 16.2883C4.64816 14.7719 3.91374 12.5907 3.75033 9.86513C3.7469 9.80934 3.77042 9.75256 3.8131 9.71253C4.05157 9.49889 4.28163 9.36133 4.51091 9.30556C4.58256 9.28809 4.64985 9.28057 4.72026 9.28015C4.87508 9.27887 5.02664 9.31478 5.15298 9.38193C5.52027 9.57697 5.73053 9.9665 5.91356 10.3741C6.02384 10.6195 6.12072 10.8668 6.20655 11.1054C6.22649 9.16857 6.19969 6.75075 6.19969 4.09718C6.19969 3.45766 6.85659 2.96484 7.61593 2.96484ZM7.61593 3.37182C7.06346 3.37182 6.64601 3.71819 6.64601 4.09677C6.64601 7.15448 6.68246 9.92612 6.63916 11.9826C6.60691 12.7967 6.24975 12.3916 5.94836 11.6837C5.81269 11.3364 5.67173 10.9047 5.5018 10.5263C5.33187 10.1478 5.1219 9.83979 4.92951 9.73774C4.83341 9.68664 4.74665 9.66932 4.62251 9.69956C4.51347 9.7261 4.37485 9.80077 4.20382 9.94116C4.37516 12.5677 5.0859 14.6538 5.99026 16.0845C6.90444 17.5309 8.01408 18.2781 8.88619 18.3039C10.8014 18.318 12.4693 18.3302 14.371 18.3421C14.9621 16.0596 15.3467 14.6976 15.7945 11.5185C15.888 10.8606 15.4467 10.4162 14.9641 10.2975C14.7229 10.2382 14.4825 10.2594 14.2733 10.3802C14.0642 10.501 13.8782 10.7299 13.7849 11.1179V11.1242C13.7827 11.1284 13.7804 11.1327 13.778 11.1368L13.7501 11.442C13.7604 11.559 13.6383 11.6704 13.5098 11.6612C13.3815 11.6518 13.2801 11.5242 13.3104 11.4102L13.3383 11.0794C13.3383 11.0644 13.3413 11.0495 13.3452 11.0349V11.0286V11.0224L13.4149 10.291C13.441 10.0229 13.3444 9.84955 13.1777 9.71866C13.0109 9.58777 12.7639 9.51311 12.5078 9.51509C12.2517 9.51722 11.9975 9.59274 11.81 9.74407C11.6458 9.87637 11.5259 10.0639 11.4959 10.3354C11.4938 10.3518 11.4902 10.3694 11.4891 10.3863C11.4869 10.4159 11.4838 10.4456 11.4822 10.4753V10.4944C11.4731 10.6636 11.4635 10.8335 11.4544 11.0032C11.4676 11.1204 11.347 11.2346 11.2181 11.2272C11.0891 11.2197 10.9854 11.0925 11.0148 10.9778C11.0232 10.8202 11.0343 10.6645 11.0427 10.5072C11.0405 10.4923 11.0405 10.4775 11.0427 10.4626C11.0402 10.4584 11.0377 10.4543 11.0358 10.45C11.0358 10.3952 11.0436 10.3428 11.0498 10.291V10.2718C11.0653 9.98921 11.0822 9.7094 11.0988 9.42609C11.109 9.23744 11.0139 9.09718 10.8266 8.98092C10.6391 8.86452 10.3587 8.7934 10.0799 8.79014C9.80108 8.78687 9.52771 8.8553 9.34018 8.98092C9.15264 9.10655 9.03566 9.27278 9.04018 9.55968C9.04236 9.58111 9.04018 9.60255 9.03333 9.62328V9.99845C9.03551 10.1059 8.92803 10.2049 8.80996 10.2049C8.6919 10.2049 8.58504 10.1059 8.5866 9.99845V4.09679C8.5866 3.7182 8.17091 3.37182 7.61593 3.37182Z" fill="black"/>
</mask>
<g mask="url(#mask0_7861_94708)">
<path d="M9.03242 8.68219H8.78242V9.17543L9.18022 8.88382L9.03242 8.68219ZM11.5447 9.41354L11.2948 9.40997L11.2874 9.92115L11.6954 9.61304L11.5447 9.41354ZM13.8686 10.1577L13.619 10.1728L13.6486 10.6596L14.0265 10.3514L13.8686 10.1577ZM14.7617 18.5969L15.0022 18.6653L15.0037 18.6594L14.7617 18.5969ZM14.5453 18.7495L14.5438 18.9995H14.5453V18.7495ZM8.8791 18.7113L8.88095 18.4613H8.8791V18.7113ZM8.87225 18.7113L8.86523 18.9613H8.87225V18.7113ZM3.81311 9.71253L3.64625 9.52628L3.64208 9.53019L3.81311 9.71253ZM6.20656 11.1054L5.97131 11.19L6.45654 11.108L6.20656 11.1054ZM6.63917 11.9826L6.88901 11.9925L6.88911 11.9879L6.63917 11.9826ZM5.94837 11.6837L5.71541 11.7747L5.71835 11.7816L5.94837 11.6837ZM4.20383 9.94116L4.04521 9.74793L3.94601 9.82936L3.95436 9.95744L4.20383 9.94116ZM8.8862 18.3039L8.87879 18.5539H8.88436L8.8862 18.3039ZM14.371 18.3421L14.3694 18.5921L14.5642 18.5933L14.613 18.4048L14.371 18.3421ZM13.7849 11.1179L13.5418 11.0595L13.5349 11.0883V11.1179H13.7849ZM13.7849 11.1242L14.0074 11.2381L14.0349 11.1844V11.1242H13.7849ZM13.778 11.1368L13.5606 11.0134L13.534 11.0603L13.5291 11.114L13.778 11.1368ZM13.7501 11.442L13.5012 11.4192L13.4991 11.4416L13.5011 11.4639L13.7501 11.442ZM13.3104 11.4102L13.552 11.4746L13.5577 11.4532L13.5595 11.4312L13.3104 11.4102ZM13.3383 11.0794L13.5874 11.1004L13.5883 11.0899V11.0794H13.3383ZM13.3452 11.0349L13.5867 11.0992L13.5952 11.0676V11.0349H13.3452ZM13.3452 11.0224L13.0963 10.9986L13.0952 11.0105V11.0224H13.3452ZM11.4959 10.3354L11.7438 10.3685L11.7444 10.3628L11.4959 10.3354ZM11.4891 10.3863L11.7384 10.4046L11.7386 10.4024L11.4891 10.3863ZM11.4822 10.4753L11.2322 10.4621V10.4753H11.4822ZM11.4822 10.4944L11.7322 10.508V10.4944H11.4822ZM11.4544 11.0032L11.2047 10.9897L11.2036 11.0105L11.2059 11.0312L11.4544 11.0032ZM11.0148 10.9778L11.2569 11.0399L11.2631 11.0159L11.2644 10.9911L11.0148 10.9778ZM11.0427 10.5072L11.2923 10.5206L11.2937 10.4957L11.29 10.471L11.0427 10.5072ZM11.0427 10.4626L11.29 10.4988L11.3027 10.412L11.2584 10.3364L11.0427 10.4626ZM11.0358 10.45H10.7858V10.5024L10.8069 10.5505L11.0358 10.45ZM11.0498 10.291L11.2981 10.3209L11.2998 10.306V10.291H11.0498ZM11.0498 10.2718L10.7998 10.2582V10.2718H11.0498ZM9.04019 9.55968L8.79022 9.56362L8.79039 9.57433L8.79147 9.58498L9.04019 9.55968ZM9.03334 9.62328L8.79598 9.54478L8.78334 9.58301V9.62328H9.03334ZM9.03334 9.99845H8.78328L8.78339 10.0035L9.03334 9.99845ZM8.58661 9.99845L8.83661 10.0021V9.99845H8.58661ZM7.61594 3.21484C8.29914 3.21484 8.78242 3.64859 8.78242 4.09677H9.28242C9.28242 3.26599 8.45517 2.71484 7.61594 2.71484V3.21484ZM8.78242 4.09677V8.68219H9.28242V4.09677H8.78242ZM9.18022 8.88382C9.1868 8.879 9.19261 8.87451 9.19716 8.87094C9.20089 8.86802 9.20638 8.86366 9.20819 8.86222C9.21427 8.85742 9.21469 8.85727 9.21332 8.85819L8.93532 8.4426C8.91931 8.45331 8.90594 8.4638 8.89832 8.46982C8.88862 8.47748 8.88707 8.47877 8.88462 8.48056L9.18022 8.88382ZM9.21332 8.85819C9.44846 8.70074 9.76037 8.62949 10.0833 8.63322L10.089 8.13325C9.69793 8.12874 9.27806 8.21309 8.93532 8.4426L9.21332 8.85819ZM10.0833 8.63322C10.4068 8.63694 10.7135 8.71256 10.9453 8.85642L11.209 8.43159C10.8813 8.22823 10.4794 8.13775 10.089 8.13325L10.0833 8.63322ZM10.9453 8.85642C11.1655 8.9931 11.2978 9.19652 11.2948 9.40997L11.7947 9.41712C11.801 8.97869 11.5308 8.63133 11.209 8.43159L10.9453 8.85642ZM11.6954 9.61304C11.9195 9.44379 12.2079 9.36069 12.5028 9.35834L12.4988 8.85835C12.1174 8.86139 11.7192 8.96851 11.3941 9.21405L11.6954 9.61304ZM12.5028 9.35834C12.8133 9.35583 13.1069 9.43948 13.3163 9.60393L13.6251 9.21067C13.3056 8.95976 12.8927 8.85518 12.4988 8.85835L12.5028 9.35834ZM13.3163 9.60393C13.4886 9.7391 13.6048 9.93998 13.619 10.1728L14.1181 10.1425C14.0946 9.75587 13.9007 9.42698 13.6251 9.21067L13.3163 9.60393ZM14.0265 10.3514C14.0917 10.2983 14.1182 10.274 14.1542 10.2533L13.904 9.82033C13.8231 9.86712 13.752 9.93014 13.7106 9.96391L14.0265 10.3514ZM14.1542 10.2533C14.4129 10.1039 14.7295 10.0738 15.023 10.146L15.1425 9.66052C14.7425 9.5621 14.2901 9.59747 13.904 9.82033L14.1542 10.2533ZM15.023 10.146C15.6128 10.2912 16.0858 10.8357 15.9866 11.5343L16.4816 11.6045C16.6227 10.6107 15.9392 9.85661 15.1425 9.66052L15.023 10.146ZM15.9866 11.5343C15.5281 14.7887 15.134 16.1555 14.5196 18.5344L15.0037 18.6594C15.6183 16.2798 16.0188 14.8894 16.4816 11.6045L15.9866 11.5343ZM14.5212 18.5285C14.5242 18.5181 14.5284 18.5111 14.5313 18.5073C14.5341 18.5035 14.5363 18.5019 14.537 18.5014C14.5374 18.501 14.5393 18.4995 14.5453 18.4995V18.9995C14.7413 18.9995 14.9434 18.8723 15.0022 18.6653L14.5212 18.5285ZM14.5469 18.4995C12.5663 18.4871 10.8595 18.4759 8.88095 18.4613L8.87725 18.9613C10.8561 18.9759 12.563 18.9871 14.5438 18.9995L14.5469 18.4995ZM8.8791 18.4613H8.87225V18.9613H8.8791V18.4613ZM8.8791 18.4613C7.87492 18.4331 6.75869 17.6435 5.8179 16.1547L5.39522 16.4218C6.37091 17.9658 7.614 18.9262 8.86523 18.9613L8.8791 18.4613ZM5.8179 16.1547C4.88547 14.6794 4.16119 12.5404 3.99989 9.85017L3.50079 9.88009C3.66631 12.6409 4.41086 14.8644 5.39522 16.4218L5.8179 16.1547ZM3.99989 9.85017C4.00064 9.86234 3.99832 9.87153 3.99558 9.87818C3.99283 9.88483 3.98894 9.89037 3.98414 9.89488L3.64208 9.53019C3.54862 9.61784 3.49251 9.74534 3.50079 9.88009L3.99989 9.85017ZM3.97993 9.89874C4.2006 9.70104 4.39475 9.59111 4.57002 9.54847L4.45183 9.06264C4.16854 9.13156 3.90253 9.29669 3.64625 9.52628L3.97993 9.89874ZM4.57002 9.54847C4.62149 9.53592 4.66943 9.53046 4.72178 9.53014L4.71876 9.03015C4.6303 9.03069 4.54367 9.04026 4.45183 9.06264L4.57002 9.54847ZM4.72178 9.53014C4.83803 9.52918 4.94866 9.55645 5.03567 9.60269L5.27032 9.16117C5.10464 9.07312 4.91217 9.02856 4.71876 9.03015L4.72178 9.53014ZM5.03567 9.60269C5.31937 9.75335 5.50101 10.0656 5.68551 10.4765L6.14163 10.2716C5.96007 9.86737 5.72118 9.4006 5.27032 9.16117L5.03567 9.60269ZM5.68551 10.4765C5.79256 10.7148 5.8871 10.9559 5.97131 11.19L6.4418 11.0208C6.35436 10.7777 6.25514 10.5242 6.14163 10.2716L5.68551 10.4765ZM6.45654 11.108C6.4765 9.16984 6.4497 6.74624 6.4497 4.09718H5.9497C5.9497 6.75525 5.97649 9.1673 5.95657 11.1028L6.45654 11.108ZM6.4497 4.09718C6.4497 3.649 6.93456 3.21484 7.61594 3.21484V2.71484C6.77864 2.71484 5.9497 3.26632 5.9497 4.09718H6.4497ZM7.61594 3.12182C7.28846 3.12182 6.9913 3.22435 6.77101 3.39445C6.55231 3.56333 6.39602 3.8118 6.39602 4.09677H6.89602C6.89602 4.00316 6.94845 3.88915 7.0766 3.7902C7.20316 3.69247 7.39095 3.62182 7.61594 3.62182V3.12182ZM6.39602 4.09677C6.39602 7.15996 6.43245 9.92424 6.38922 11.9774L6.88911 11.9879C6.93248 9.92799 6.89602 7.149 6.89602 4.09677H6.39602ZM6.38936 11.9727C6.38567 12.0661 6.37753 12.1344 6.3677 12.1823C6.35727 12.233 6.34772 12.2468 6.35068 12.2422C6.35643 12.2334 6.38872 12.1929 6.45406 12.1845C6.51026 12.1773 6.54103 12.201 6.53412 12.1964C6.51616 12.1843 6.46552 12.1329 6.39217 12.013C6.32404 11.9017 6.25059 11.7553 6.17839 11.5857L5.71835 11.7816C5.79685 11.966 5.88106 12.1357 5.96568 12.274C6.04507 12.4037 6.14225 12.5355 6.25528 12.6114C6.31387 12.6508 6.40592 12.6948 6.51773 12.6804C6.63867 12.6649 6.72086 12.5898 6.76934 12.5156C6.81503 12.4456 6.84103 12.3629 6.85748 12.2828C6.87452 12.1998 6.88465 12.1027 6.88901 11.9925L6.38936 11.9727ZM6.18123 11.5927C6.05384 11.2666 5.90226 10.8078 5.72988 10.4239L5.27375 10.6287C5.44122 11.0017 5.57147 11.4063 5.71541 11.7747L6.18123 11.5927ZM5.72988 10.4239C5.64005 10.2238 5.53731 10.037 5.42761 9.88318C5.3216 9.73457 5.19374 9.59489 5.04667 9.51689L4.81215 9.95848C4.85747 9.98252 4.93101 10.048 5.02056 10.1735C5.10643 10.2939 5.19364 10.4503 5.27375 10.6287L5.72988 10.4239ZM5.04667 9.51689C4.98103 9.48198 4.90739 9.45271 4.82143 9.4406C4.73508 9.42842 4.64999 9.43556 4.56336 9.45666L4.68166 9.94246C4.71917 9.93332 4.73955 9.934 4.75164 9.9357C4.76412 9.93746 4.78169 9.94228 4.81215 9.95848L5.04667 9.51689ZM4.56336 9.45666C4.40228 9.49588 4.22959 9.59658 4.04521 9.74793L4.36245 10.1344C4.52013 10.005 4.62467 9.95634 4.68166 9.94246L4.56336 9.45666ZM3.95436 9.95744C4.12796 12.6186 4.84877 14.7465 5.77895 16.2181L6.2016 15.9509C5.32305 14.561 4.62238 12.5168 4.4533 9.92489L3.95436 9.95744ZM5.77895 16.2181C6.71088 17.6925 7.88379 18.5244 8.87879 18.5539L8.8936 18.054C8.14439 18.0318 7.09802 17.3692 6.2016 15.9509L5.77895 16.2181ZM8.88436 18.5539C10.7996 18.568 12.4676 18.5802 14.3694 18.5921L14.3726 18.0921C12.471 18.0802 10.8033 18.068 8.88803 18.0539L8.88436 18.5539ZM14.613 18.4048C15.2044 16.1211 15.5921 14.7474 16.0421 11.5534L15.547 11.4833C15.1014 14.6474 14.7198 15.9982 14.129 18.2794L14.613 18.4048ZM16.0421 11.5534C16.1572 10.7434 15.605 10.1977 15.0239 10.0548L14.9044 10.5403C15.2883 10.6347 15.6188 10.9775 15.547 11.4833L16.0421 11.5534ZM15.0239 10.0548C14.731 9.98273 14.4225 10.0054 14.1483 10.1637L14.3984 10.5967C14.5426 10.5134 14.7149 10.4937 14.9044 10.5403L15.0239 10.0548ZM14.1483 10.1637C13.87 10.3244 13.6483 10.6167 13.5418 11.0595L14.0279 11.1764C14.1081 10.8432 14.2583 10.6775 14.3984 10.5967L14.1483 10.1637ZM13.5349 11.1179V11.1242H14.0349V11.1179H13.5349ZM13.5623 11.0102C13.5624 11.0102 13.5626 11.0097 13.5623 11.0102C13.562 11.0108 13.5612 11.0124 13.5606 11.0134L13.9954 11.2602C13.9989 11.2541 14.0031 11.2465 14.0074 11.2381L13.5623 11.0102ZM13.5291 11.114L13.5012 11.4192L13.9991 11.4647L14.027 11.1595L13.5291 11.114ZM13.5011 11.4639C13.4995 11.4459 13.5035 11.4321 13.5069 11.4245C13.5102 11.4173 13.5132 11.4145 13.5135 11.4142C13.5139 11.4138 13.5143 11.4135 13.5155 11.4131C13.5168 11.4126 13.521 11.4113 13.5277 11.4118L13.4916 11.9105C13.6326 11.9206 13.7611 11.8651 13.8505 11.7836C13.9389 11.7029 14.0127 11.5739 13.9992 11.4201L13.5011 11.4639ZM13.5277 11.4118C13.5408 11.4128 13.5454 11.4183 13.5463 11.4194C13.5467 11.4198 13.5614 11.4392 13.552 11.4746L13.0689 11.3458C13.0291 11.4952 13.0793 11.6353 13.1548 11.7304C13.2309 11.8262 13.3501 11.9002 13.4916 11.9105L13.5277 11.4118ZM13.5595 11.4312L13.5874 11.1004L13.0892 11.0584L13.0613 11.3892L13.5595 11.4312ZM13.5883 11.0794C13.5883 11.0882 13.5874 11.0946 13.5869 11.0977C13.5864 11.1007 13.5861 11.1016 13.5867 11.0992L13.1036 10.9705C13.0974 10.9939 13.0883 11.0329 13.0883 11.0794H13.5883ZM13.5952 11.0349V11.0286H13.0952V11.0349H13.5952ZM13.5952 11.0286V11.0224H13.0952V11.0286H13.5952ZM13.594 11.0461L13.6638 10.3148L13.1661 10.2669L13.0963 10.9986L13.594 11.0461ZM13.6638 10.3148C13.6803 10.1447 13.6589 9.99014 13.5968 9.85122C13.5348 9.7129 13.4395 9.6064 13.3321 9.52205L13.0233 9.91527C13.0826 9.96181 13.1189 10.0074 13.1404 10.0555C13.1617 10.103 13.1756 10.1688 13.1661 10.2669L13.6638 10.3148ZM13.3321 9.52205C13.1117 9.34913 12.8059 9.26277 12.5058 9.2651L12.5097 9.76508C12.7218 9.76344 12.9101 9.82641 13.0233 9.91527L13.3321 9.52205ZM12.5058 9.2651C12.2059 9.26759 11.8933 9.35557 11.653 9.54951L11.9668 9.93873C12.1015 9.83002 12.2974 9.76685 12.5097 9.76508L12.5058 9.2651ZM11.653 9.54951C11.4394 9.72162 11.2849 9.96828 11.2474 10.3081L11.7444 10.3628C11.7668 10.1595 11.8521 10.0312 11.9668 9.93873L11.653 9.54951ZM11.2481 10.3023C11.2474 10.3077 11.2472 10.3084 11.245 10.3229C11.2434 10.3334 11.2409 10.3506 11.2396 10.3701L11.7386 10.4024C11.7384 10.405 11.7382 10.405 11.7393 10.3983C11.7398 10.3946 11.7402 10.3923 11.7411 10.3866C11.7418 10.3818 11.7429 10.3755 11.7438 10.3685L11.2481 10.3023ZM11.2398 10.3679C11.2385 10.3854 11.2338 10.4307 11.2322 10.4621L11.7319 10.4884C11.7334 10.4604 11.7353 10.4464 11.7384 10.4046L11.2398 10.3679ZM11.2322 10.4753V10.4944H11.7322V10.4753H11.2322ZM11.2326 10.4809C11.2235 10.6481 11.2138 10.8214 11.2047 10.9897L11.704 11.0167C11.7133 10.8457 11.7229 10.6792 11.7322 10.508L11.2326 10.4809ZM11.2059 11.0312C11.2039 11.0132 11.2076 10.9992 11.2109 10.9913C11.2141 10.9838 11.2172 10.9808 11.2176 10.9805C11.2181 10.98 11.2185 10.9796 11.2198 10.9791C11.2213 10.9785 11.2255 10.9772 11.2324 10.9776L11.2035 11.4768C11.3452 11.4849 11.4734 11.4269 11.5615 11.3434C11.6488 11.2607 11.7202 11.1294 11.7028 10.9751L11.2059 11.0312ZM11.2324 10.9776C11.2456 10.9784 11.2501 10.9838 11.2508 10.9847C11.2509 10.9849 11.2661 11.0041 11.2569 11.0399L10.7726 10.9156C10.734 11.0661 10.7864 11.2063 10.8633 11.3006C10.9407 11.3957 11.0613 11.4685 11.2035 11.4768L11.2324 10.9776ZM11.2644 10.9911C11.2686 10.9136 11.2734 10.8363 11.2783 10.7579C11.2831 10.6798 11.288 10.6005 11.2923 10.5206L10.793 10.4939C10.7889 10.5712 10.7841 10.6484 10.7792 10.7269C10.7744 10.805 10.7694 10.8844 10.7652 10.9644L11.2644 10.9911ZM11.29 10.471C11.2914 10.4801 11.2914 10.4897 11.29 10.4988L10.7953 10.4264C10.7896 10.4653 10.7896 10.5045 10.7953 10.5434L11.29 10.471ZM11.2584 10.3364C11.258 10.3356 11.2576 10.3349 11.2573 10.3344C11.2583 10.3361 11.2613 10.3417 11.2647 10.3495L10.8069 10.5505C10.8122 10.5626 10.8174 10.5722 10.8207 10.5781C10.8224 10.5811 10.8239 10.5837 10.8249 10.5854C10.8254 10.5863 10.8258 10.5871 10.8262 10.5876C10.8265 10.5883 10.8267 10.5886 10.8269 10.5889L11.2584 10.3364ZM11.2858 10.45C11.2858 10.4144 11.2907 10.3821 11.2981 10.3209L10.8016 10.2612C10.7965 10.3035 10.7858 10.376 10.7858 10.45H11.2858ZM11.2998 10.291V10.2718H10.7998V10.291H11.2998ZM11.2995 10.2855C11.3149 10.0034 11.3318 9.72474 11.3483 9.44064L10.8492 9.41155C10.8327 9.69406 10.8153 9.97498 10.7998 10.2582L11.2995 10.2855ZM11.3483 9.44064C11.3561 9.29733 11.3232 9.16256 11.2485 9.0435C11.1762 8.92825 11.0729 8.83958 10.9585 8.76854L10.6948 9.19331C10.7676 9.23853 10.8055 9.27811 10.825 9.30922C10.8421 9.33652 10.8517 9.3662 10.8492 9.41155L11.3483 9.44064ZM10.9585 8.76854C10.7228 8.62228 10.3948 8.54381 10.0828 8.54015L10.077 9.04012C10.3227 9.043 10.5554 9.10677 10.6948 9.19331L10.9585 8.76854ZM10.0828 8.54015C9.76786 8.53647 9.44111 8.6124 9.20105 8.77322L9.47932 9.18863C9.61432 9.09819 9.83433 9.03728 10.077 9.04012L10.0828 8.54015ZM9.20105 8.77322C9.08487 8.85105 8.97662 8.95085 8.90001 9.08772C8.82279 9.22569 8.78739 9.38401 8.79022 9.56362L9.29016 9.55574C9.28847 9.44845 9.3093 9.3802 9.33632 9.33193C9.36396 9.28255 9.40797 9.23643 9.47932 9.18863L9.20105 8.77322ZM8.79147 9.58498C8.7902 9.57248 8.79145 9.55848 8.79598 9.54478L9.27069 9.70177C9.28893 9.64662 9.29454 9.58975 9.28891 9.53438L8.79147 9.58498ZM8.78334 9.62328L8.78328 9.99845H9.28334V9.62328H8.78334ZM8.78339 10.0035C8.78306 9.98748 8.78695 9.97547 8.79025 9.96855C8.79341 9.96191 8.79639 9.95898 8.79719 9.95824C8.79734 9.9581 8.80008 9.95485 8.80997 9.95485V10.4549C8.93794 10.4549 9.05345 10.4021 9.13631 10.3257C9.21847 10.2498 9.28612 10.1332 9.28328 9.99338L8.78339 10.0035ZM8.80997 9.95485C8.82001 9.95485 8.82296 9.95821 8.82316 9.9584C8.82396 9.95914 8.82682 9.96196 8.82986 9.96832C8.83302 9.97496 8.83684 9.98652 8.83661 10.0021L8.33664 9.99484C8.33463 10.1336 8.40165 10.2496 8.4837 10.3255C8.56646 10.402 8.68187 10.4549 8.80997 10.4549V9.95485ZM8.83661 9.99845V4.09679H8.33661V9.99845H8.83661ZM8.83661 4.09679C8.83661 3.81216 8.6811 3.56363 8.46226 3.39452C8.24191 3.22424 7.94447 3.12182 7.61594 3.12182V3.62182C7.84239 3.62182 8.03028 3.69259 8.15652 3.79015C8.28428 3.88887 8.33661 4.00282 8.33661 4.09679H8.83661Z" fill="black"/>
</g>
</svg>
