<svg width="12" height="12" viewBox="0 0 12 12" fill="none" xmlns="http://www.w3.org/2000/svg">
<path d="M11.2853 4.75962L1.60344 0.103639C1.19556 -0.0925307 0.734753 -0.00623423 0.400885 0.328738C0.0670178 0.663765 -0.072623 1.17997 0.0365021 1.67588L0.898277 5.59254H5.11764C5.3118 5.59254 5.46923 5.77497 5.46923 6.00001C5.46923 6.22503 5.31182 6.40749 5.11764 6.40749H0.898277L0.0365021 10.3241C-0.072623 10.8201 0.0669943 11.3363 0.400885 11.6713C0.735433 12.0069 1.19628 12.0922 1.60346 11.8964L11.2854 7.24041C11.7262 7.02843 12 6.55313 12 6.00001C12 5.4469 11.7262 4.97157 11.2853 4.75962Z" fill="white"/>
</svg>
