<svg width="22" height="22" viewBox="0 0 22 22" fill="none" xmlns="http://www.w3.org/2000/svg">
<path d="M2.53846 0.65H7.61538C8.65619 0.65 9.50385 1.49765 9.50385 2.53846V7.61538C9.50385 8.65619 8.65619 9.50385 7.61538 9.50385H2.53846C1.49765 9.50385 0.65 8.65619 0.65 7.61538V2.53846C0.65 1.49765 1.49765 0.65 2.53846 0.65Z" stroke="black" stroke-width="1.3"/>
<path d="M14.3842 12.4957H19.4611C20.5019 12.4957 21.3495 13.3434 21.3495 14.3842V19.4611C21.3495 20.5019 20.5019 21.3495 19.4611 21.3495H14.3842C13.3434 21.3495 12.4957 20.5019 12.4957 19.4611V14.3842C12.4957 13.3434 13.3434 12.4957 14.3842 12.4957Z" stroke="black" stroke-width="1.3"/>
<path d="M15.1786 7.91348C15.3438 8.07865 15.6117 8.07865 15.7769 7.9134L16.3751 7.31517C16.5404 7.14991 16.5404 6.88202 16.3751 6.71677L14.7344 5.07667H17.7683C18.2357 5.07667 18.6145 5.45549 18.6145 5.92282V9.73051C18.6145 9.96414 18.8039 10.1536 19.0376 10.1536H19.8837C20.1173 10.1536 20.3068 9.96414 20.3068 9.73051V5.92282C20.3068 4.52083 19.1703 3.38436 17.7683 3.38436H14.7339L16.3744 1.74324C16.5395 1.57799 16.5395 1.31018 16.3743 1.14501L15.7761 0.546781C15.6108 0.381528 15.3429 0.381527 15.1777 0.546866L12.0929 3.63237C11.7626 3.9627 11.7627 4.4984 12.0931 4.82874L15.1786 7.91348ZM6.81961 14.086C6.65435 13.9208 6.38654 13.9208 6.22129 14.0861L5.62306 14.6842C5.45781 14.8495 5.45781 15.1174 5.62314 15.2826L7.26384 16.9228H4.22987C3.76254 16.9228 3.38371 16.5439 3.38371 16.0767V12.269C3.38371 12.0353 3.19426 11.8459 2.96064 11.8459H2.11448C1.88086 11.8459 1.69141 12.0353 1.69141 12.269V16.0767C1.69141 17.4787 2.82788 18.6151 4.22987 18.6151H7.26434L5.62382 20.2562C5.45865 20.4214 5.45865 20.6892 5.62391 20.8545L6.22214 21.4526C6.38739 21.6179 6.65528 21.6179 6.82054 21.4526L9.90528 18.3671C10.2356 18.0367 10.2355 17.5011 9.90511 17.1707L6.81961 14.086Z" fill="black" stroke="white" stroke-width="0.5"/>
</svg>
