<svg width="147" height="36" viewBox="0 0 147 36" fill="none" xmlns="http://www.w3.org/2000/svg">
<g clip-path="url(#clip0_8573_58098)">
<path d="M38 20V22.6667C38 23.0203 37.8595 23.3594 37.6095 23.6095C37.3594 23.8595 37.0203 24 36.6667 24H27.3333C26.9797 24 26.6406 23.8595 26.3905 23.6095C26.1405 23.3594 26 23.0203 26 22.6667V20" stroke="black" stroke-width="1.33333" stroke-linecap="round" stroke-linejoin="round"/>
<path d="M28.668 16.667L32.0013 20.0003L35.3346 16.667" stroke="black" stroke-width="1.33333" stroke-linecap="round" stroke-linejoin="round"/>
<path d="M32 20V12" stroke="black" stroke-width="1.33333" stroke-linecap="round" stroke-linejoin="round"/>
</g>
<path d="M52.966 12.018H56.466C57.278 12.018 58.006 12.186 58.678 12.508C60.022 13.18 60.876 14.496 60.876 16.596V17.436C60.876 18.472 60.694 19.312 60.316 19.984C59.546 21.328 58.202 22 56.536 22H52.966V12.018ZM54.786 13.6V20.39H56.452C57.992 20.39 59.028 19.382 59.028 17.268V16.736C59.028 14.622 57.964 13.6 56.382 13.6H54.786ZM66.162 22.21C63.558 22.21 62.102 20.768 62.102 18.136V17.926C62.102 17.03 62.284 16.26 62.634 15.644C63.334 14.412 64.58 13.754 66.162 13.754C66.974 13.754 67.66 13.908 68.262 14.244C69.494 14.902 70.222 16.148 70.222 17.926V18.136C70.222 19.018 70.054 19.746 69.718 20.348C69.018 21.566 67.8 22.21 66.162 22.21ZM66.162 20.6C67.548 20.6 68.36 19.704 68.36 18.108V17.926C68.36 16.274 67.506 15.322 66.176 15.322C64.86 15.322 63.978 16.218 63.978 17.926V18.108C63.978 19.704 64.79 20.6 66.162 20.6ZM76.6411 16.638L74.5551 22H72.8891L70.7191 13.95H72.5391L73.9531 19.676L76.0671 13.95H77.2711L79.2311 19.662L80.9111 13.95H82.7031L80.1971 22H78.5591L76.6411 16.638ZM85.5327 22H83.6847V13.95H85.2387L85.4067 15.56C85.8407 14.454 86.7507 13.754 88.1367 13.754C90.0827 13.754 91.1187 15.042 91.1187 17.044V22H89.2707V17.492C89.2707 16.176 88.8507 15.35 87.5347 15.35C86.1627 15.35 85.5327 16.302 85.5327 17.8V22ZM92.7362 22V11.22H94.5702V22H92.7362ZM99.9725 22.21C97.3685 22.21 95.9125 20.768 95.9125 18.136V17.926C95.9125 17.03 96.0945 16.26 96.4445 15.644C97.1445 14.412 98.3905 13.754 99.9725 13.754C100.785 13.754 101.471 13.908 102.073 14.244C103.305 14.902 104.033 16.148 104.033 17.926V18.136C104.033 19.018 103.865 19.746 103.529 20.348C102.829 21.566 101.611 22.21 99.9725 22.21ZM99.9725 20.6C101.359 20.6 102.171 19.704 102.171 18.108V17.926C102.171 16.274 101.317 15.322 99.9865 15.322C98.6705 15.322 97.7885 16.218 97.7885 17.926V18.108C97.7885 19.704 98.6005 20.6 99.9725 20.6ZM110.939 20.39C110.393 21.44 109.315 22.21 107.649 22.21C105.899 22.21 105.017 21.37 105.017 20.054C105.017 19.158 105.409 18.486 106.067 18.08C106.291 17.926 106.529 17.814 106.753 17.744C107.229 17.576 107.831 17.464 108.839 17.31C110.281 17.128 110.855 16.932 110.855 16.274C110.855 15.602 110.421 15.182 109.161 15.182C107.831 15.182 107.229 15.756 107.173 16.792H105.283C105.409 14.958 106.753 13.754 109.063 13.754C109.945 13.754 110.617 13.866 111.149 14.104C112.199 14.552 112.619 15.406 112.619 16.568V22H111.135L110.939 20.39ZM108.279 20.796C108.811 20.796 109.259 20.67 109.651 20.432C110.435 19.942 110.869 19.13 110.869 18.36V17.926C110.533 18.164 109.973 18.332 109.245 18.444C108.265 18.598 107.873 18.71 107.495 18.948C107.173 19.158 107.019 19.438 107.019 19.788C107.019 20.46 107.439 20.796 108.279 20.796ZM120.161 20.32C119.727 21.412 118.817 22.168 117.375 22.168C115.317 22.168 113.959 20.726 113.959 18.01V17.814C113.959 16.932 114.113 16.19 114.407 15.588C114.995 14.384 116.059 13.768 117.431 13.768C118.761 13.768 119.643 14.342 120.105 15.336V11.22H121.883V22H120.357L120.161 20.32ZM117.935 20.586C119.307 20.586 120.147 19.592 120.147 17.996V17.856C120.147 16.302 119.335 15.294 118.005 15.294C116.619 15.294 115.849 16.232 115.849 17.842V17.996C115.849 19.718 116.717 20.586 117.935 20.586Z" fill="black"/>
<path d="M52 23.05H122.793V23.75H52V23.05Z" fill="black"/>
<defs>
<clipPath id="clip0_8573_58098">
<rect width="16" height="16" fill="white" transform="translate(24 10)"/>
</clipPath>
</defs>
</svg>
