<svg width="24" height="24" viewBox="0 0 24 24" fill="none" xmlns="http://www.w3.org/2000/svg">
<path d="M19.1755 6.27729C19.0406 6.20752 18.9091 6.13104 18.7818 6.04813C18.4115 5.80333 18.072 5.51489 17.7706 5.18901C17.0165 4.32613 16.7348 3.45076 16.6311 2.83787H16.6352C16.5486 2.32915 16.5844 2 16.5898 2H13.155V15.2818C13.155 15.4602 13.155 15.6364 13.1475 15.8106C13.1475 15.8322 13.1454 15.8522 13.1442 15.8756C13.1442 15.8851 13.1442 15.8951 13.1421 15.9051C13.1421 15.9076 13.1421 15.9101 13.1421 15.9126C13.1059 16.3892 12.9531 16.8495 12.6972 17.2532C12.4414 17.6568 12.0902 17.9914 11.6747 18.2275C11.2416 18.4739 10.7517 18.6032 10.2535 18.6025C8.65315 18.6025 7.35613 17.2976 7.35613 15.686C7.35613 14.0744 8.65315 12.7695 10.2535 12.7695C10.5564 12.7692 10.8575 12.8169 11.1455 12.9107L11.1497 9.41338C10.2753 9.30043 9.38699 9.36992 8.54081 9.61747C7.69462 9.86502 6.90892 10.2852 6.23327 10.8516C5.64124 11.366 5.14352 11.9798 4.76251 12.6653C4.61752 12.9153 4.07046 13.9198 4.00421 15.5502C3.96255 16.4755 4.24045 17.4342 4.37294 17.8305V17.8388C4.45627 18.0721 4.77917 18.8683 5.3054 19.5395C5.72973 20.078 6.23105 20.5509 6.79324 20.9432V20.9349L6.80157 20.9432C8.46441 22.0732 10.3081 21.999 10.3081 21.999C10.6272 21.9861 11.6963 21.999 12.9104 21.4236C14.257 20.7857 15.0237 19.8354 15.0237 19.8354C15.5134 19.2675 15.9029 18.6204 16.1753 17.9217C16.4861 17.1047 16.5898 16.1247 16.5898 15.7331V8.68675C16.6315 8.71175 17.1865 9.07881 17.1865 9.07881C17.1865 9.07881 17.986 9.59129 19.2335 9.92502C20.1284 10.1625 21.3342 10.2125 21.3342 10.2125V6.80268C20.9117 6.84851 20.0538 6.71518 19.1755 6.27729Z" fill="black"/>
</svg>
