<svg width="24" height="19" viewBox="0 0 24 19" fill="none" xmlns="http://www.w3.org/2000/svg">
<g id="Group 1000001823">
<path id="Vector" d="M15.3027 10.9033C15.6727 10.9033 15.9726 10.6033 15.9726 10.2334C15.9726 9.8634 15.6727 9.56348 15.3027 9.56348C14.9327 9.56348 14.6328 9.8634 14.6328 10.2334C14.6328 10.6033 14.9327 10.9033 15.3027 10.9033Z" fill="#487F82"/>
<path id="Vector_2" d="M17.9882 10.9033C18.3582 10.9033 18.6581 10.6033 18.6581 10.2334C18.6581 9.8634 18.3582 9.56348 17.9882 9.56348C17.6183 9.56348 17.3184 9.8634 17.3184 10.2334C17.3184 10.6033 17.6183 10.9033 17.9882 10.9033Z" fill="#487F82"/>
<path id="Vector_3" d="M20.6748 10.9033C21.0447 10.9033 21.3447 10.6033 21.3447 10.2334C21.3447 9.8634 21.0447 9.56348 20.6748 9.56348C20.3048 9.56348 20.0049 9.8634 20.0049 10.2334C20.0049 10.6033 20.3048 10.9033 20.6748 10.9033Z" fill="#487F82"/>
<path id="Vector_4" d="M21.7134 6.23211V5.01854C21.7134 2.96465 20.0427 1.29395 17.9891 1.29395C15.9355 1.29395 14.2645 2.96465 14.2645 5.01854V6.23211C12.9831 6.35591 11.978 7.43845 11.978 8.7517V11.7145C11.978 13.1105 13.1139 14.2467 14.5099 14.2467H15.6471C14.1745 16.3287 11.7891 17.5838 9.18699 17.5838C7.16794 17.5838 5.24562 16.8233 3.76918 15.4372C3.61591 15.2963 3.47202 15.1516 3.34153 15.0071C3.34099 15.0066 3.34045 15.0061 3.33992 15.0055C3.33938 15.005 3.33911 15.0045 3.33858 15.0039C3.11698 14.7617 2.90851 14.5028 2.71853 14.2346C2.50443 13.9329 2.08615 13.8616 1.7847 14.0755C1.48271 14.2893 1.41144 14.7076 1.62527 15.0093C1.8466 15.3212 2.0891 15.6221 2.3466 15.904C2.3466 15.9043 2.34714 15.9045 2.34714 15.9048C2.34741 15.9053 2.34794 15.9056 2.34821 15.9061C2.34875 15.9067 2.34902 15.9072 2.34955 15.9075C2.34955 15.9075 2.35009 15.908 2.35036 15.9083C2.50765 16.0822 2.67994 16.2556 2.8576 16.4187C4.57788 18.0337 6.82603 18.9233 9.18699 18.9233C12.5391 18.9233 15.5804 17.1398 17.2281 14.2464H21.4682C22.8643 14.2464 24.0001 13.1105 24.0001 11.7142V8.75144C24.0001 7.43818 22.9948 6.35591 21.7137 6.23184L21.7134 6.23211ZM15.604 5.01854C15.604 3.70368 16.674 2.63373 17.9888 2.63373C19.3037 2.63373 20.3734 3.70368 20.3734 5.01854V6.21952H15.6037L15.604 5.01854ZM22.6601 11.7142C22.6601 12.3718 22.1253 12.9066 21.468 12.9066H14.5097C13.8524 12.9066 13.3175 12.3718 13.3175 11.7142V8.75144C13.3175 8.09414 13.8524 7.5593 14.5097 7.5593H21.468C22.1253 7.5593 22.6601 8.09414 22.6601 8.75144V11.7142Z" fill="#487F82"/>
<path id="Vector_5" d="M1.62535 12.031C1.52755 11.7186 1.44823 11.3962 1.39008 11.0728C1.3247 10.7089 0.978771 10.467 0.611939 10.5321C0.248055 10.5977 0.00582254 10.9458 0.0712039 11.3099C0.139533 11.6883 0.232245 12.0659 0.346663 12.4316C0.436428 12.7181 0.700633 12.9013 0.985738 12.9013C1.05219 12.9013 1.11972 12.8914 1.18644 12.8705C1.53934 12.7599 1.73602 12.3839 1.62535 12.031Z" fill="#487F82"/>
<path id="Vector_6" d="M11.5884 2.11133C11.9011 2.21074 12.2106 2.33078 12.508 2.46851C12.5994 2.51085 12.6948 2.53068 12.7891 2.53068C13.0421 2.53068 13.2843 2.38679 13.3976 2.14214C13.5531 1.80666 13.407 1.40821 13.0713 1.2528C12.7229 1.09149 12.3607 0.95081 11.9941 0.834249C11.6412 0.722512 11.2647 0.917316 11.1527 1.26968C11.0407 1.62204 11.2358 1.99932 11.5884 2.11133Z" fill="#487F82"/>
<path id="Vector_7" d="M4.58734 3.07429C4.71033 3.07429 4.83466 3.04053 4.94587 2.96979C5.22374 2.79348 5.51447 2.63324 5.81002 2.4939C6.1447 2.33607 6.28806 1.93682 6.12996 1.60214C5.97214 1.26746 5.57261 1.12411 5.23847 1.28193C4.89254 1.44512 4.55251 1.63242 4.22801 1.83875C3.91557 2.03704 3.82313 2.45103 4.02142 2.76346C4.14923 2.96443 4.36574 3.07429 4.58734 3.07429Z" fill="#487F82"/>
<path id="Vector_8" d="M8.0843 1.81038C8.11243 1.81038 8.14137 1.8085 8.17004 1.80475C8.49427 1.76322 8.82573 1.74151 9.15585 1.74017C9.5259 1.73883 9.82467 1.43765 9.82307 1.0676C9.82146 0.698626 9.52188 0.400391 9.15317 0.400391H9.1505C8.76544 0.401998 8.37851 0.427186 7.99989 0.475686C7.63306 0.522579 7.37341 0.858328 7.42057 1.22516C7.46371 1.56332 7.75203 1.81038 8.0843 1.81038Z" fill="#487F82"/>
<path id="Vector_9" d="M1.58735 5.59397C1.69936 5.66579 1.82476 5.70008 1.94882 5.70008C2.16908 5.70008 2.38533 5.59129 2.51287 5.39193C2.68999 5.11621 2.88667 4.84798 3.09729 4.59476C3.33416 4.3102 3.2953 3.8879 3.01127 3.65129C2.7267 3.41442 2.3044 3.453 2.0678 3.73757C1.82181 4.03313 1.59244 4.3461 1.38558 4.66845C1.18569 4.97982 1.27599 5.39408 1.58735 5.59397Z" fill="#487F82"/>
<path id="Vector_10" d="M0.581968 9.188C0.611711 9.19202 0.641454 9.1939 0.670661 9.1939C1.00159 9.1939 1.28937 8.94872 1.33412 8.6119C1.37726 8.28606 1.4413 7.96023 1.52464 7.64377C1.61869 7.28605 1.40486 6.91948 1.04714 6.82543C0.691026 6.73272 0.323122 6.94521 0.228802 7.30293C0.131534 7.67351 0.0562378 8.05481 0.00586202 8.43612C-0.0426381 8.80295 0.215136 9.13923 0.581968 9.188Z" fill="#487F82"/>
<path id="Vector_11" d="M9.18672 3.26074C8.81667 3.26074 8.51683 3.56059 8.51683 3.93063V9.38435L5.55377 12.3474C5.29197 12.6089 5.29197 13.0331 5.55377 13.2946C5.68453 13.4254 5.85602 13.4908 6.02751 13.4908C6.19901 13.4908 6.37023 13.4254 6.50126 13.2946L9.66046 10.1354C9.78614 10.0098 9.85661 9.8396 9.85661 9.66168V3.93063C9.85661 3.56059 9.55676 3.26074 9.18672 3.26074Z" fill="#487F82"/>
</g>
</svg>
