<svg width="30" height="30" viewBox="0 0 30 30" fill="none" xmlns="http://www.w3.org/2000/svg">
<circle cx="15" cy="15" r="15" fill="#E02020"/>
<g clip-path="url(#clip0_2478_1657)">
<path fill-rule="evenodd" clip-rule="evenodd" d="M15 7.36667C10.7842 7.36667 7.36667 10.7842 7.36667 15C7.36667 19.2158 10.7842 22.6333 15 22.6333C19.2158 22.6333 22.6333 19.2158 22.6333 15C22.6333 10.7842 19.2158 7.36667 15 7.36667ZM5.96667 15C5.96667 10.011 10.011 5.96667 15 5.96667C19.989 5.96667 24.0333 10.011 24.0333 15C24.0333 19.989 19.989 24.0333 15 24.0333C10.011 24.0333 5.96667 19.989 5.96667 15ZM15 10.9667C15.3866 10.9667 15.7 11.2801 15.7 11.6667V15C15.7 15.3866 15.3866 15.7 15 15.7C14.6134 15.7 14.3 15.3866 14.3 15V11.6667C14.3 11.2801 14.6134 10.9667 15 10.9667ZM15 17.6334C14.6134 17.6334 14.3 17.9468 14.3 18.3334C14.3 18.72 14.6134 19.0334 15 19.0334H15.0083C15.3949 19.0334 15.7083 18.72 15.7083 18.3334C15.7083 17.9468 15.3949 17.6334 15.0083 17.6334H15Z" fill="white"/>
</g>
<defs>
<clipPath id="clip0_2478_1657">
<rect width="20" height="20" fill="white" transform="translate(5 5)"/>
</clipPath>
</defs>
</svg>
