<svg width="20" height="21" viewBox="0 0 20 21" fill="none" xmlns="http://www.w3.org/2000/svg">
<path fill-rule="evenodd" clip-rule="evenodd" d="M14.2962 14.3953L13.8739 14.3581L13.7736 14.3593L13.3384 14.4108L12.9289 14.531L12.529 14.7277L12.1902 14.972L11.9479 15.208L11.7376 15.4741L11.5641 15.766L11.4664 15.982L11.3667 16.2868H1.64286C1.288 16.2868 1 16.5748 1 16.9297C1 17.2846 1.288 17.5726 1.64286 17.5726H11.3667L11.4561 17.8503L11.5634 18.092L11.6798 18.2971L11.8784 18.5716L12.0925 18.7999L12.3522 19.0146L12.6878 19.2203L13.0786 19.3811L13.4984 19.4762L13.9407 19.5L14.3759 19.4486L14.7854 19.3283L15.1853 19.1316L15.5241 18.8873L15.7664 18.6514L15.9766 18.3852L16.1502 18.0933L16.2479 17.8773L16.3476 17.5726H18.3571C18.712 17.5726 19 17.2846 19 16.9297C19 16.5748 18.712 16.2868 18.3571 16.2868H16.3476L16.2582 16.009L16.1509 15.7673L16.0345 15.5622L15.8359 15.2877L15.6218 15.0595L15.3621 14.8447L15.0747 14.6641L14.6884 14.4956L14.2962 14.3953ZM6.58193 7.96632L6.15957 7.92903L6.05929 7.93032L5.62407 7.98175L5.21457 8.10197L4.81471 8.2987L4.47593 8.543L4.23357 8.77895L4.02336 9.04511L3.84978 9.33699L3.75207 9.55301L3.65243 9.85774H1.64286C1.288 9.85774 1 10.1458 1 10.5006C1 10.8555 1.288 11.1435 1.64286 11.1435H3.65243L3.74179 11.4213L3.84914 11.663L3.9655 11.8681L4.16414 12.1426L4.37821 12.3708L4.63793 12.5856L4.9735 12.7913L5.36436 12.952L5.78414 13.0472L6.22643 13.071L6.66164 13.0195L7.07114 12.8993L7.471 12.7026L7.80978 12.4583L8.05214 12.2223L8.26236 11.9562L8.43593 11.6643L8.53364 11.4483L8.63329 11.1435H18.3571C18.712 11.1435 19 10.8555 19 10.5006C19 10.1458 18.712 9.85774 18.3571 9.85774H8.63329L8.54393 9.58001L8.43657 9.33827L8.32021 9.13319L8.12157 8.85867L7.9075 8.63044L7.64779 8.41571L7.36043 8.23505L6.97407 8.06661L6.58193 7.96632ZM13.8571 1.5C12.6601 1.5 11.6528 2.32034 11.3667 3.42871H1.64286C1.288 3.42871 1 3.71673 1 4.07161C1 4.42649 1.288 4.71451 1.64286 4.71451H11.3667C11.6528 5.82288 12.6601 6.64322 13.8571 6.64322C15.0541 6.64322 16.0615 5.82288 16.3476 4.71451H18.3571C18.712 4.71451 19 4.42649 19 4.07161C19 3.71673 18.712 3.42871 18.3571 3.42871H16.3476C16.0615 2.32034 15.0541 1.5 13.8571 1.5ZM13.8571 18.2143C14.5672 18.2143 15.1429 17.6387 15.1429 16.9286C15.1429 16.2185 14.5672 15.6429 13.8571 15.6429C13.1471 15.6429 12.5714 16.2185 12.5714 16.9286C12.5714 17.6387 13.1471 18.2143 13.8571 18.2143ZM15.1429 4.07143C15.1429 4.78151 14.5672 5.35714 13.8571 5.35714C13.1471 5.35714 12.5714 4.78151 12.5714 4.07143C12.5714 3.36135 13.1471 2.78571 13.8571 2.78571C14.5672 2.78571 15.1429 3.36135 15.1429 4.07143ZM6.14286 11.7857C6.85294 11.7857 7.42857 11.2101 7.42857 10.5C7.42857 9.78992 6.85294 9.21429 6.14286 9.21429C5.43278 9.21429 4.85714 9.78992 4.85714 10.5C4.85714 11.2101 5.43278 11.7857 6.14286 11.7857Z" fill="#FF8926"/>
</svg>
