<svg width="107" height="107" viewBox="0 0 107 107" fill="none" xmlns="http://www.w3.org/2000/svg">
<path opacity="0.04" d="M115.492 59.4772L82.0592 46.4756C81.6847 46.3371 81.2916 46.2556 80.8929 46.2337L97.1868 29.9399C97.9217 29.2026 98.3345 28.204 98.3345 27.1629C98.3345 26.1219 97.9217 25.1233 97.1868 24.386L74.9418 2.11742C74.2046 1.38304 73.2064 0.970703 72.1658 0.970703C71.1253 0.970703 70.1271 1.38304 69.3899 2.11742L59.6372 11.8721L58.5536 10.9517C57.3806 9.89692 55.9301 9.20009 54.3737 8.94358C52.8172 8.68708 51.2198 8.88162 49.7704 9.50422C42.4592 12.1995 34.8042 13.8494 27.0318 14.4052C26.6002 13.3304 25.8537 12.4114 24.8902 11.7687C23.9267 11.126 22.7914 10.7898 21.6333 10.8042H3.93333C2.89015 10.8042 1.88969 11.2186 1.15205 11.9562C0.414404 12.6939 0 13.6943 0 14.7375L0 44.2375C0 45.2807 0.414404 46.2812 1.15205 47.0188C1.88969 47.7565 2.89015 48.1709 3.93333 48.1709H18.6165C19.9231 48.1687 21.1921 47.7328 22.2243 46.9316C23.2565 46.1304 23.9936 45.0092 24.3198 43.7439C25.1242 44.3339 25.9049 44.8865 26.729 45.3979C26.4987 46.0871 26.464 46.8267 26.6285 47.5346C26.7931 48.2424 27.1505 48.8908 27.6612 49.4079L43.2667 65.0016V69.8101C43.2667 70.8533 43.6811 71.8537 44.4187 72.5914C45.1564 73.329 46.1568 73.7434 47.2 73.7434V95.9274C46.6043 96.2697 46.1091 96.7626 45.7639 97.3567C45.4187 97.9507 45.2357 98.625 45.2333 99.3121V103.794C44.6374 104.137 44.1419 104.63 43.7967 105.224C43.4515 105.819 43.2687 106.493 43.2667 107.181V115.047C43.2667 116.091 43.6811 117.091 44.4187 117.829C45.1564 118.566 46.1568 118.981 47.2 118.981H114.067C115.11 118.981 116.11 118.566 116.848 117.829C117.586 117.091 118 116.091 118 115.047V107.181C117.998 106.493 117.815 105.819 117.47 105.224C117.125 104.63 116.629 104.137 116.033 103.794V99.3121C116.031 98.625 115.848 97.9507 115.503 97.3567C115.158 96.7626 114.662 96.2697 114.067 95.9274V73.7434C115.11 73.7434 116.11 73.329 116.848 72.5914C117.586 71.8537 118 70.8533 118 69.8101V63.147C118.004 62.3531 117.766 61.5769 117.318 60.9214C116.87 60.2659 116.233 59.7622 115.492 59.4772ZM90.2346 31.3283C89.1313 30.22 88.5119 28.7199 88.5119 27.156C88.5119 25.5922 89.1313 24.092 90.2346 22.9838L94.4 27.157L90.2346 31.3283ZM72.1629 4.90026L76.3362 9.07549C75.2282 10.1787 73.7284 10.7981 72.1649 10.7981C70.6013 10.7981 69.1015 10.1787 67.9936 9.07549L72.1629 4.90026ZM51.3025 13.1308C52.0741 12.7997 52.9247 12.6979 53.7526 12.8374C54.5806 12.9769 55.3508 13.3518 55.9713 13.9174L68.7114 24.6889C69.3689 25.3137 69.7521 26.1736 69.7771 27.0802C69.8022 27.9869 69.4671 28.8666 68.8451 29.5269C68.2069 30.1191 67.3701 30.4509 66.4995 30.4571C65.6289 30.4633 64.7874 30.1434 64.1409 29.5603C64.1409 29.5603 57.7079 24.0104 56.4433 22.8874C55.3167 21.8928 53.8529 21.3656 52.3507 21.4135C50.8486 21.4614 49.4214 22.0807 48.3603 23.145L29.205 42.3004C27.7124 41.3831 26.2803 40.3708 24.9177 39.2697L27.3839 18.3228C35.5611 17.7248 43.6132 15.9769 51.3025 13.1308ZM67.9877 42.4577C66.5042 43.8909 64.5173 44.6842 62.4546 44.6666C60.392 44.6491 58.4188 43.8221 56.96 42.3638C55.5012 40.9055 54.6735 38.9326 54.6552 36.87C54.6369 34.8074 55.4295 32.8201 56.8622 31.3362C57.3908 30.8212 57.9925 30.3872 58.648 30.048C60.3039 31.4699 61.5331 32.5083 61.537 32.5083C62.6097 33.4788 63.9464 34.1091 65.3777 34.3191C66.809 34.5292 68.2704 34.3097 69.5767 33.6883C70.2298 35.1393 70.4275 36.7541 70.1438 38.3197C69.8601 39.8854 69.1083 41.3282 67.9877 42.4577ZM18.6243 44.2415H3.93333V14.7415H21.6333C21.9103 14.7416 22.184 14.8003 22.4367 14.9136C22.6894 15.0268 22.9153 15.1922 23.0997 15.3988C23.284 15.6055 23.4227 15.8487 23.5065 16.1126C23.5904 16.3766 23.6175 16.6552 23.5862 16.9304L20.5772 42.497C20.5225 42.9782 20.2922 43.4222 19.9304 43.7441C19.5686 44.066 19.1007 44.2431 18.6165 44.2415H18.6243ZM34.6133 42.4577C35.7194 43.5641 36.3408 45.0645 36.3408 46.629C36.3408 48.1935 35.7194 49.6939 34.6133 50.8003L30.4381 46.627L34.6133 42.4577ZM45.7742 59.4753C45.2219 59.7043 44.7294 60.0568 44.3346 60.5058L37.3942 53.5792C39.2327 51.733 40.265 49.2335 40.265 46.628C40.265 44.0225 39.2327 41.5231 37.3942 39.6768L51.1451 25.9259C51.4967 25.5702 51.9707 25.3618 52.4705 25.3432C52.9703 25.3246 53.4584 25.4971 53.8355 25.8256C54.3921 26.3232 54.9644 26.8306 55.5367 27.336C53.6769 28.6634 52.2425 30.5023 51.4077 32.6293C50.5729 34.7562 50.3736 37.0798 50.834 39.3179C51.2943 41.556 52.3946 43.6122 54.0011 45.237C55.6077 46.8618 57.6514 47.9852 59.8841 48.4708C62.1168 48.9565 64.4425 48.7834 66.5788 47.9727C68.715 47.1619 70.57 45.7484 71.9184 43.9038C73.2667 42.0591 74.0505 39.8626 74.1746 37.5811C74.2986 35.2995 73.7576 33.031 72.6172 31.051C73.3798 29.812 73.7589 28.375 73.7067 26.921C73.6755 25.9354 73.4443 24.9664 73.0271 24.0728C72.6099 23.1793 72.0155 22.3799 71.2799 21.7231L62.6462 14.4307L65.2029 11.8741C67.0485 13.7152 69.549 14.7492 72.156 14.7492C74.763 14.7492 77.2635 13.7152 79.1092 11.8741L87.4478 20.2186C85.6081 22.065 84.5751 24.5653 84.5751 27.1718C84.5751 29.7783 85.6081 32.2785 87.4478 34.1249L72.4599 49.1149L45.7742 59.4753ZM55.0667 73.7434V95.3768H51.1333V73.7434H55.0667ZM112.1 103.243H104.233V99.3101H112.1V103.243ZM102.267 95.9235C101.671 96.2658 101.176 96.7587 100.831 97.3527C100.485 97.9468 100.302 98.6211 100.3 99.3081V103.241H88.5V99.3081C88.4976 98.6211 88.3146 97.9468 87.9694 97.3527C87.6243 96.7587 87.129 96.2658 86.5333 95.9235V73.7434H102.267V95.9235ZM76.7 99.3121H84.5667V103.245H76.7V99.3121ZM82.6 95.3787H78.6667V73.7454H82.6V95.3787ZM74.7333 95.9274C74.1376 96.2697 73.6424 96.7626 73.2972 97.3567C72.952 97.9507 72.7691 98.625 72.7667 99.3121V103.245H60.9667V99.3121C60.9642 98.625 60.7813 97.9507 60.4361 97.3567C60.0909 96.7626 59.5957 96.2697 59 95.9274V73.7434H74.7333V95.9274ZM49.1667 99.3121H57.0333V103.245H49.1667V99.3121ZM114.067 115.045H47.2V107.179H114.067V115.045ZM110.133 95.3787H106.2V73.7454H110.133V95.3787ZM47.2 69.8121V63.147L80.6333 50.1454L114.067 63.147V69.8121H47.2Z" fill="#12486B"/>
</svg>
