<svg width="21" height="20" viewBox="0 0 21 20" fill="none" xmlns="http://www.w3.org/2000/svg">
<g opacity="0.4">
<path d="M10.9688 0C8.99094 0 7.05754 0.58649 5.41305 1.6853C3.76856 2.78412 2.48684 4.3459 1.72996 6.17317C0.973086 8.00043 0.775049 10.0111 1.1609 11.9509C1.54675 13.8907 2.49916 15.6725 3.89769 17.0711C5.29621 18.4696 7.07804 19.422 9.01785 19.8079C10.9577 20.1937 12.9683 19.9957 14.7956 19.2388C16.6229 18.4819 18.1846 17.2002 19.2835 15.5557C20.3823 13.9112 20.9688 11.9778 20.9688 10C20.9688 7.34784 19.9152 4.8043 18.0398 2.92893C16.1645 1.05357 13.6209 0 10.9688 0ZM10.9688 18.4C9.30739 18.4 7.68334 17.9073 6.30197 16.9843C4.9206 16.0613 3.84394 14.7494 3.20816 13.2145C2.57239 11.6796 2.40604 9.99068 2.73016 8.36124C3.05428 6.7318 3.8543 5.23506 5.02906 4.0603C6.20382 2.88554 7.70056 2.08552 9.33 1.7614C10.9594 1.43729 12.6484 1.60364 14.1833 2.23941C15.7182 2.87519 17.0301 3.95184 17.9531 5.33321C18.8761 6.71458 19.3688 8.33864 19.3688 10C19.3688 12.2278 18.4838 14.3644 16.9085 15.9397C15.3331 17.515 13.1966 18.4 10.9688 18.4Z" fill="black"/>
<path d="M14.4428 12.3121L12.1263 9.99561L14.4428 7.67913C14.5964 7.52554 14.6826 7.31722 14.6826 7.10001C14.6826 6.8828 14.5964 6.67448 14.4428 6.52089C14.2892 6.3673 14.0809 6.28101 13.8636 6.28101C13.6464 6.28101 13.4381 6.3673 13.2845 6.52089L10.968 8.83737L8.65227 6.5216C8.49868 6.36801 8.29036 6.28172 8.07315 6.28172C7.85594 6.28172 7.64762 6.36801 7.49403 6.5216C7.34044 6.67519 7.25415 6.88351 7.25415 7.10072C7.25415 7.31793 7.34044 7.52625 7.49403 7.67984L9.81051 9.99632L7.49473 12.3121C7.34114 12.4657 7.25486 12.674 7.25486 12.8912C7.25486 13.1084 7.34114 13.3167 7.49473 13.4703C7.64833 13.6239 7.85664 13.7102 8.07386 13.7102C8.29107 13.7102 8.49938 13.6239 8.65297 13.4703L10.9695 11.1539L13.2852 13.4696C13.4388 13.6232 13.6471 13.7095 13.8644 13.7095C14.0816 13.7095 14.2899 13.6232 14.4435 13.4696C14.5971 13.316 14.6834 13.1077 14.6834 12.8905C14.6834 12.6733 14.5964 12.4657 14.4428 12.3121Z" fill="black"/>
</g>
</svg>
