<svg width="24" height="24" viewBox="0 0 24 24" fill="none" xmlns="http://www.w3.org/2000/svg">
<path d="M12.1578 3.29495L12.001 3.16861L11.8442 3.29493L5.77035 8.18679L5.92716 8.3815L5.77035 8.18679C5.64675 8.28634 5.49751 8.3489 5.33987 8.36724C5.18223 8.38558 5.02261 8.35896 4.87946 8.29044C4.73631 8.22193 4.61545 8.11432 4.53085 7.98004C4.44627 7.84579 4.40137 7.69019 4.40137 7.53146C4.40137 7.4057 4.42956 7.28154 4.48388 7.16811L4.2599 7.06085L4.48388 7.16811C4.5382 7.05468 4.61726 6.95488 4.71523 6.87604L4.55906 6.68195L4.71524 6.87604L6.08506 5.77375L6.17833 5.6987V5.57898V2.11397C6.17833 2.07508 6.19378 2.03778 6.22128 2.01027C6.24878 1.98277 6.28608 1.96732 6.32497 1.96732H8.34392C8.38282 1.96732 8.42012 1.98277 8.44762 2.01027C8.47512 2.03777 8.49057 2.07507 8.49057 2.11397V3.31494V3.83734L8.8974 3.50963L11.4726 1.43519C11.4728 1.4351 11.4729 1.43501 11.473 1.43492C11.6229 1.31523 11.809 1.25003 12.0008 1.25C12.1926 1.24997 12.3788 1.31513 12.5287 1.43478C12.5288 1.43487 12.5289 1.43496 12.529 1.43504L19.2849 6.87616C19.371 6.94546 19.4425 7.03103 19.4955 7.12799C19.5485 7.22494 19.5818 7.33138 19.5936 7.44122C19.6055 7.55107 19.5956 7.66217 19.5644 7.76818C19.5333 7.87419 19.4817 7.97303 19.4124 8.05907C19.3431 8.14511 19.2575 8.21665 19.1605 8.26962C19.0636 8.32259 18.9571 8.35594 18.8473 8.36777C18.7374 8.3796 18.6263 8.36968 18.5203 8.33858C18.4143 8.30747 18.3155 8.25579 18.2294 8.18649L12.1578 3.29495Z" fill="#FF8926" stroke="white" stroke-width="0.5"/>
<path d="M10.3123 7.9593L10.3123 7.9593V7.96099C10.3123 8.43694 10.2139 8.75476 10.0504 8.93586C9.9602 9.03149 9.85009 9.10616 9.72785 9.15462C9.60519 9.20324 9.47333 9.22427 9.34163 9.21621L9.34165 9.21593H9.33246C8.94612 9.21593 8.70986 9.03456 8.56304 8.79507C8.41127 8.54748 8.35557 8.23546 8.35557 7.99945H8.35562L8.35551 7.99537C8.348 7.71927 8.3864 7.44384 8.46915 7.18034C8.57702 6.87674 8.88736 6.67057 9.31472 6.67057V6.67072L9.32142 6.67042C9.52653 6.66124 9.72846 6.72357 9.89271 6.84675C10.057 6.96994 10.1733 7.14634 10.222 7.34581L10.2217 7.34587L10.2244 7.35463C10.285 7.55039 10.3146 7.7544 10.3123 7.9593Z" fill="#FF8926" stroke="white" stroke-width="0.3"/>
<path d="M10.8644 13.451L10.8644 13.451L10.8633 13.453C10.8002 13.5709 10.7069 13.6698 10.5929 13.7396C10.4791 13.8093 10.3488 13.8474 10.2153 13.85C10.0896 13.8514 9.96597 13.8176 9.85844 13.7524C9.75075 13.6872 9.6635 13.593 9.60658 13.4807C9.54965 13.3684 9.52534 13.2423 9.53639 13.1169C9.54744 12.9915 9.59341 12.8716 9.66909 12.771L9.66958 12.7713L9.67674 12.7598L13.3177 6.87682L13.318 6.87698L13.3225 6.86857C13.3866 6.74865 13.4746 6.64318 13.5811 6.55867C13.6826 6.47812 13.7989 6.41826 13.9234 6.38242H14.1481C14.2686 6.4044 14.3814 6.45688 14.4759 6.53493L14.4759 6.53498L14.4794 6.53773L14.5026 6.55576C14.6433 6.67942 14.7077 6.81859 14.7102 6.97775C14.7129 7.14474 14.6476 7.35088 14.4919 7.59921C14.4918 7.59934 14.4918 7.59947 14.4917 7.59959L14.3325 7.85026L14.3324 7.85025L14.331 7.85259C14.0825 8.26018 13.4634 9.25809 11.8831 11.8057C11.5851 12.2859 11.2531 12.8213 10.8829 13.4181L10.8827 13.418L10.8792 13.4243L10.8644 13.451Z" fill="#FF8926" stroke="white" stroke-width="0.3"/>
<path d="M14.6487 13.683L14.6487 13.6831C14.8 13.7083 14.9551 13.6968 15.101 13.6496C15.2463 13.6026 15.3782 13.5216 15.4858 13.4134C15.7112 13.1716 15.7607 12.8018 15.7607 12.432L14.6487 13.683ZM14.6487 13.683L14.6425 13.6822M14.6487 13.683L14.6425 13.6822M14.6425 13.6822C14.4927 13.6636 14.3495 13.6092 14.2252 13.5235C14.1025 13.4389 14.0016 13.3263 13.9311 13.195C13.8332 12.9682 13.7867 12.7225 13.795 12.4755L13.7951 12.4755V12.4705C13.7951 11.9709 13.8857 11.629 14.0398 11.4252L14.0399 11.425C14.173 11.2484 14.3939 11.1475 14.7631 11.1475V11.1476M14.6425 13.6822L14.7631 11.1476M14.7631 11.1476L14.7674 11.1475M14.7631 11.1476L14.7674 11.1475M14.7674 11.1475C14.992 11.1409 15.2119 11.2128 15.3893 11.3506M14.7674 11.1475L15.3893 11.3506M15.3893 11.3506C15.673 11.5888 15.7607 12.0221 15.7607 12.432L15.3893 11.3506Z" fill="#FF8926" stroke="white" stroke-width="0.3"/>
<path d="M12.7304 15C12.9622 15 13.3365 15.0405 13.6378 15.2691C13.916 15.4804 14.0551 15.7958 14.0485 16.201C14.0286 17.2977 12.5847 18.0241 10.2829 18.0993C10.008 18.108 9.78278 18.1485 9.60063 18.2035C9.68012 18.4148 9.84571 18.7331 10.1537 18.9183C10.3955 19.063 10.6836 19.1035 11.038 19.0398C11.4387 18.9675 12.3396 18.5189 13.2934 18.0443C15.827 16.7826 19.2979 15.055 20.7816 16.4035C20.9406 16.5453 21.0168 16.7421 20.9969 16.9447C20.9737 17.153 20.8512 17.344 20.6558 17.4656L13.1974 22.145C12.0349 22.8742 10.5644 23.1549 9.15683 22.9176L3.26826 21.9221C3.1126 21.8961 3 21.7774 3 21.6385L3 17.3961C3 17.3122 3.04305 17.2312 3.11592 17.1762C3.18878 17.1212 3.28482 17.0952 3.38087 17.1096C3.39412 17.1125 4.88448 17.2862 5.76544 16.2038C6.86168 14.8582 7.9778 14.9855 9.16015 15.1186L9.26944 15.1302C10.4882 15.2662 12.4985 15.0174 12.5151 15.0174C12.5383 15.0116 12.6178 15 12.7304 15ZM9.18664 15.7003L9.07735 15.6887C7.88837 15.5556 7.16969 15.4746 6.30528 16.5366C5.48393 17.5466 4.27508 17.6942 3.66238 17.6971L3.66238 21.3983L9.28269 22.3504C10.5081 22.5588 11.7931 22.3128 12.8099 21.6761L20.2683 16.9939C20.3047 16.9707 20.3312 16.9331 20.3345 16.8897C20.3378 16.8665 20.3345 16.8318 20.3014 16.8029C19.1754 15.7784 15.8303 17.4453 13.618 18.545C12.5284 19.0861 11.6706 19.5144 11.1638 19.6041C10.6306 19.6996 10.1603 19.6273 9.76954 19.39C9.37211 19.1498 9.14359 18.7881 9.01773 18.5074C8.94156 18.5768 8.90844 18.6289 8.90513 18.6347C8.82564 18.7794 8.62693 18.8373 8.46133 18.7678C8.29574 18.6984 8.2295 18.5247 8.30899 18.38C8.32223 18.3598 8.51101 18.0299 9.03429 17.7868C9.04423 17.781 9.05085 17.7781 9.06079 17.7752C9.35224 17.645 9.73973 17.5379 10.2498 17.5235C11.6805 17.4771 13.3596 17.1009 13.3762 16.1923C13.3795 15.9666 13.3199 15.8045 13.1974 15.709C13.0185 15.5701 12.7138 15.573 12.6078 15.5875C12.5416 15.5961 11.3063 15.7495 10.1438 15.7495C9.81259 15.7466 9.4814 15.735 9.18664 15.7003Z" fill="#FF8926" stroke="#FF8926" stroke-width="0.4"/>
</svg>
