<svg width="22" height="22" viewBox="0 0 22 22" fill="none" xmlns="http://www.w3.org/2000/svg">
<path d="M20.4917 4H1.53059C0.685341 4 0 5.04985 0 5.82144V16.6028C0 17.3744 0.685341 18 1.53059 18H20.4688C21.3141 18 21.9994 17.3744 21.9994 16.6028V5.82144C22.0223 5.04985 21.3369 4 20.4917 4ZM21 16.0068C21 16.5564 20.5564 17.003 20.0068 17.0068L2.17427 17.1289C1.61932 17.1327 1.16742 16.6839 1.16742 16.1289V6C1.16742 5.44772 1.61513 5 2.16742 5H20C20.5523 5 21 5.44772 21 6V16.0068ZM6.4879 13.1667C6.25945 13.4169 5.98531 13.5837 5.64264 13.6671C5.50557 13.7089 5.43704 13.7714 5.43704 13.9174C5.43704 14.0634 5.43704 14.1885 5.43704 14.3345C5.43704 14.4596 5.3685 14.5222 5.23144 14.5222C5.07152 14.5222 4.91161 14.5222 4.7517 14.5222C4.61463 14.5222 4.5461 14.4387 4.5461 14.3136C4.5461 14.2093 4.5461 14.1051 4.5461 14.0217C4.5461 13.7923 4.5461 13.7923 4.2948 13.7506C3.99782 13.7089 3.70084 13.6463 3.4267 13.5212C3.2211 13.4169 3.19826 13.3752 3.24395 13.1667C3.28964 13.0207 3.33533 12.8539 3.38102 12.7079C3.44955 12.541 3.49524 12.5202 3.678 12.6036C3.97498 12.7496 4.2948 12.833 4.63747 12.8747C4.84308 12.8956 5.07152 12.8747 5.27713 12.7913C5.64264 12.6453 5.71117 12.2491 5.39135 11.9989C5.27713 11.9154 5.1629 11.8529 5.02583 11.8112C4.70601 11.686 4.36334 11.5818 4.04351 11.4149C3.54093 11.1439 3.2211 10.7685 3.26679 10.2054C3.31248 9.57982 3.70084 9.1836 4.34049 8.97507C4.59178 8.89165 4.61463 8.89165 4.61463 8.64141C4.61463 8.55799 4.61463 8.47458 4.61463 8.39116C4.61463 8.20348 4.66032 8.16177 4.86592 8.16177C4.93445 8.16177 5.00299 8.16177 5.04868 8.16177C5.48273 8.16177 5.48273 8.16177 5.48273 8.55799C5.48273 8.84994 5.48273 8.84994 5.80255 8.89165C6.031 8.93336 6.25945 8.99592 6.4879 9.07933C6.60212 9.12104 6.64781 9.20446 6.62496 9.32958C6.57927 9.49641 6.51074 9.68409 6.46505 9.85092C6.41936 10.0178 6.35083 10.0386 6.19091 9.95519C5.84824 9.80921 5.48273 9.74665 5.11721 9.76751C5.02583 9.76751 4.91161 9.78836 4.82023 9.83007C4.50041 9.95519 4.43187 10.2888 4.72885 10.4974C4.86592 10.6017 5.02583 10.6642 5.18575 10.7268C5.48273 10.831 5.75686 10.9353 6.031 11.0813C6.85341 11.4775 7.1047 12.4785 6.4879 13.1667ZM18.1844 8.34945V9.01677C18.1844 9.12104 18.093 9.22531 17.9559 9.22531H8.6353C8.52107 9.22531 8.40685 9.1419 8.40685 9.01677V8.34945C8.40685 8.24519 8.49823 8.14092 8.6353 8.14092H17.9559C18.093 8.14092 18.1844 8.24519 18.1844 8.34945ZM8.42969 10.7685V10.1012C8.42969 9.9969 8.52107 9.89263 8.65814 9.89263H14.0038C14.118 9.89263 14.2322 9.97604 14.2322 10.1012V10.7685C14.2322 10.8728 14.1409 10.977 14.0038 10.977H8.6353C8.52107 10.977 8.42969 10.8936 8.42969 10.7685ZM18.0473 12.2908C18.093 12.3742 18.0702 12.4576 18.0473 12.541C18.0473 12.5619 18.0016 12.6453 17.9331 12.7079C17.8646 12.7704 17.796 12.833 17.6818 12.8539C17.3163 12.9998 16.9051 13.125 16.4482 13.1875C16.0827 13.2501 15.7628 13.1458 15.5344 12.9373L15.4202 12.9998C15.2146 13.0832 15.0318 13.1458 14.8491 13.2292C14.6206 13.3335 14.415 13.4378 14.1866 13.5629C14.0266 13.6463 13.8439 13.7297 13.684 13.8131C13.5469 13.8757 13.387 13.9382 13.2271 13.98C12.9986 14.0425 12.7702 13.98 12.6331 13.834C12.5189 13.7297 12.4732 13.5837 12.4961 13.4378C12.4961 13.4169 12.4961 13.3961 12.4961 13.3752C12.1534 13.6046 11.8336 13.8548 11.4909 14.0842C11.2853 14.2302 11.1025 14.3345 10.8969 14.4596C10.7827 14.5221 10.6685 14.5639 10.5771 14.5847C10.2573 14.6473 9.96029 14.4804 9.86891 14.1885C9.82322 14.0008 9.86891 13.834 9.89175 13.7297C9.9146 13.688 9.9146 13.6254 9.93744 13.5837C9.68615 13.8548 9.45771 14.1468 9.22926 14.4387L9.06935 14.6473C9.00081 14.7307 8.93228 14.8141 8.88659 14.8975C8.86374 14.9392 8.8409 15.0018 8.81805 15.0435L8.77236 15.1269V15.1478C8.72668 15.2937 8.58961 15.3772 8.42969 15.3772C8.40685 15.3772 8.384 15.3772 8.36116 15.3772C8.1784 15.3354 8.04133 15.1686 8.06418 15.0018C8.06418 14.9809 8.06418 14.9601 8.08702 14.9184C8.15556 14.689 8.26978 14.5013 8.384 14.3345C8.93228 13.5003 9.43486 12.8539 9.93744 12.2699C10.0974 12.0823 10.2801 11.9154 10.4629 11.7486L10.4857 11.7278C10.5771 11.6443 10.7142 11.5609 10.8512 11.5401C11.0568 11.4775 11.2624 11.5401 11.3995 11.6652C11.4909 11.7695 11.5594 11.9154 11.5366 12.0614C11.5137 12.1865 11.4909 12.3325 11.4452 12.4368C11.3767 12.6036 11.3081 12.7704 11.2396 12.9373C11.1939 13.0624 11.1482 13.1875 11.0797 13.3126C11.2396 13.1875 11.4223 13.0624 11.5823 12.9164C11.8107 12.7287 12.0392 12.5619 12.2904 12.3742C12.4275 12.2699 12.5646 12.2074 12.7017 12.124L12.7702 12.0823C12.9073 12.0197 13.0443 12.0197 13.09 12.0197C13.2271 12.0197 13.3641 12.0823 13.4784 12.1657C13.5698 12.2699 13.6154 12.3951 13.6154 12.5202C13.6154 12.6245 13.5926 12.7496 13.5469 12.8956C13.5469 12.9164 13.5469 12.9373 13.5241 12.9373C13.6154 12.8956 13.684 12.8539 13.7754 12.7913C13.9124 12.7079 14.0495 12.6245 14.1866 12.5619C14.5521 12.3534 14.8719 12.2074 15.1917 12.1031C15.4659 12.0197 15.7172 12.0197 15.9228 12.1448C16.0141 12.2074 16.1055 12.2699 16.1969 12.3742C16.2197 12.3951 16.2197 12.3951 16.2654 12.3951C16.2883 12.3951 16.3111 12.3951 16.3111 12.3951C16.5167 12.3742 16.6995 12.2908 16.9051 12.2282L16.9965 12.2074C17.0421 12.1865 17.0878 12.1657 17.1335 12.1657C17.2021 12.1448 17.2706 12.1031 17.3391 12.0823C17.4305 12.0406 17.5447 12.0406 17.6133 12.0197C17.6361 12.0197 17.659 12.0197 17.6818 12.0197C17.7732 12.0197 17.8646 12.0614 17.8874 12.0614C17.9559 12.1448 18.0245 12.2074 18.0473 12.2908Z" fill="white"/>
</svg>
