<svg width="26" height="19" viewBox="0 0 26 19" fill="none" xmlns="http://www.w3.org/2000/svg">
<path d="M3.66699 1.66797H22.3323C22.7168 1.66792 23.0968 1.75102 23.4461 1.91157C23.7955 2.07212 24.106 2.30631 24.3564 2.59811C24.6068 2.8899 24.7911 3.23238 24.8967 3.60208C25.0023 3.97178 25.0268 4.35995 24.9683 4.73997L23.295 14.276C23.1497 15.2206 22.6711 16.0819 21.9456 16.7041C21.2202 17.3263 20.296 17.6682 19.3403 17.668H6.65765C5.70218 17.6679 4.77829 17.3259 4.05316 16.7037C3.32802 16.0815 2.84955 15.2203 2.70432 14.276L1.03099 4.73997C0.972543 4.35995 0.99697 3.97178 1.10259 3.60208C1.20821 3.23238 1.39253 2.8899 1.64291 2.59811C1.89329 2.30631 2.20381 2.07212 2.55318 1.91157C2.90254 1.75102 3.2825 1.66792 3.66699 1.66797Z" stroke="#DE3924" stroke-width="1.5" stroke-linecap="round" stroke-linejoin="round"/>
</svg>
