<svg width="24" height="25" viewBox="0 0 24 25" fill="none" xmlns="http://www.w3.org/2000/svg">
<path d="M20.0625 13.5H19.6875C19.4804 13.5 19.3125 13.6628 19.3125 13.8636C19.3125 14.0644 19.4804 14.2273 19.6875 14.2273H20.0625C20.1122 14.2273 20.1599 14.2464 20.1951 14.2805C20.2302 14.3146 20.25 14.3609 20.25 14.4091V20.5909C20.25 20.6391 20.2302 20.6854 20.1951 20.7195C20.1599 20.7536 20.1122 20.7727 20.0625 20.7727H3.93751C3.83388 20.7727 3.75001 20.6914 3.75001 20.5909V14.4091C3.75001 14.3086 3.83388 14.2273 3.93751 14.2273H4.12501C4.33209 14.2273 4.50001 14.0644 4.50001 13.8636C4.50001 13.6628 4.33209 13.5 4.12501 13.5H3.93751C3.6889 13.5 3.45035 13.5958 3.27455 13.7662C3.09875 13.9367 3 14.168 3 14.4091V20.5909C3 20.832 3.09877 21.0633 3.27455 21.2338C3.45033 21.4042 3.68889 21.5 3.93751 21.5H20.0625C20.3111 21.5 20.5497 21.4042 20.7255 21.2338C20.9012 21.0633 21 20.832 21 20.5909V14.4091C21 14.168 20.9012 13.9367 20.7255 13.7662C20.5497 13.5958 20.3111 13.5 20.0625 13.5Z" fill="#FF8926" stroke="#FF8926" stroke-width="0.5"/>
<path d="M5.00135 17.1112C5.00135 17.2143 5.04292 17.3132 5.11691 17.3861C5.19089 17.459 5.2913 17.5 5.39593 17.5H18.8117C19.0296 17.5 19.2063 17.3259 19.2063 17.1112C19.2063 16.8965 19.0296 16.7224 18.8117 16.7224H14.9467C15.5652 16.1593 16.0537 15.4718 16.379 14.7066C18.1952 13.9526 19.5114 12.3575 19.8898 10.4518C20.2682 8.54618 19.6592 6.57979 18.2653 5.20727C16.8714 3.83448 14.8756 3.23533 12.9419 3.6092C11.008 3.9829 9.3899 5.28067 8.62559 7.07052C6.7721 7.83803 5.44076 9.48054 5.09055 11.4315C4.74036 13.3824 5.41943 15.375 6.89345 16.7223H5.39598C5.17808 16.7223 5.0014 16.8964 5.0014 17.1111L5.00135 17.1112ZM14.0767 4.28086C15.5846 4.28069 17.016 4.93435 17.9908 6.06796C18.9655 7.20138 19.3847 8.70014 19.1369 10.1658C18.8892 11.6312 17.9996 12.9152 16.7045 13.6763C17.1284 11.7397 16.5256 9.72373 15.104 8.32285C13.6825 6.92198 11.6364 6.32816 9.67098 6.7458C10.591 5.21145 12.268 4.27326 14.0765 4.28073L14.0767 4.28086ZM5.79051 12.4456C5.79016 10.657 6.74932 9.00145 8.3125 8.09228C9.87567 7.18294 11.8102 7.15553 13.3992 8.01991C14.9883 8.88446 15.9955 10.512 16.0475 12.3C16.0995 14.0877 15.1888 15.7697 13.6526 16.7224H8.18749C6.6916 15.8012 5.78497 14.1837 5.79042 12.4456L5.79051 12.4456Z" fill="#FF8926" stroke="#FF8926" stroke-width="0.5"/>
<path d="M13.8752 12.1977L11.3023 9.62477C11.1352 9.45841 10.8648 9.45841 10.6977 9.62477L8.12477 12.1977C7.95841 12.3648 7.95841 12.6352 8.12477 12.8023L10.6977 15.3752C10.8648 15.5416 11.1352 15.5416 11.3023 15.3752L13.8752 12.8023C14.0416 12.6352 14.0416 12.3648 13.8752 12.1977ZM11 14.4661L9.03393 12.5L11 10.5339L12.9661 12.5L11 14.4661Z" fill="#FF8926" stroke="#FF8926" stroke-width="0.5"/>
</svg>
