<svg width="24" height="24" viewBox="0 0 24 24" fill="none" xmlns="http://www.w3.org/2000/svg">
<path fill-rule="evenodd" clip-rule="evenodd" d="M4.10166 4.1451C4.15759 4.22489 5.45273 6.11002 6.97977 8.33425C8.50681 10.5585 9.91918 12.6154 10.1184 12.9052C10.3176 13.1951 10.4806 13.438 10.4806 13.4451C10.4806 13.4522 10.4064 13.5437 10.3157 13.6484C10.2251 13.753 9.96971 14.0493 9.7483 14.3067C9.52687 14.5642 9.1536 14.998 8.9188 15.2709C8.68402 15.5438 8.27097 16.024 8.0009 16.3381C7.73084 16.6522 7.2452 17.2168 6.9217 17.5929C5.92115 18.756 5.77676 18.924 5.01511 19.8111C4.60842 20.2848 4.21843 20.7377 4.14849 20.8176C4.07854 20.8974 4.02131 20.9712 4.02131 20.9814C4.02131 20.9934 4.27676 21 4.74102 21H5.46071L6.25194 20.0779C6.68712 19.5708 7.11641 19.0716 7.2059 18.9686C7.39944 18.746 8.87533 17.0287 8.99938 16.8818C9.04688 16.8256 9.11588 16.7455 9.1527 16.7039C9.18955 16.6623 9.47992 16.325 9.79797 15.9543C10.116 15.5836 10.385 15.2712 10.3956 15.2601C10.4063 15.249 10.5747 15.0531 10.7698 14.8248C10.9649 14.5965 11.1306 14.4097 11.138 14.4097C11.1453 14.4097 12.1477 15.8609 13.3654 17.6346C14.5831 19.4083 15.6011 20.891 15.6277 20.9294L15.676 20.9992L18.1447 20.9996C20.1749 20.9999 20.6117 20.9956 20.604 20.9754C20.5957 20.9539 19.413 19.2287 16.3786 14.8122C14.1942 11.6329 13.9037 11.2056 13.9121 11.1839C13.9202 11.1628 14.2177 10.8148 16.1738 8.53864C16.5093 8.14821 16.9719 7.60969 17.2016 7.34196C17.4314 7.07423 17.6634 6.80463 17.7172 6.74284C17.771 6.68106 18.0537 6.35248 18.3455 6.01267C18.6373 5.67285 19.1334 5.09545 19.4479 4.72956C19.7623 4.36367 20.0312 4.04984 20.0453 4.03215C20.0695 4.00187 20.0284 4 19.34 4H18.609L18.2839 4.37913C17.8511 4.8837 17.0689 5.79359 16.8468 6.05071C16.7486 6.16432 16.6262 6.30709 16.5747 6.36798C16.5232 6.42887 16.4216 6.54654 16.349 6.62948C16.2763 6.71242 15.9101 7.13835 15.5352 7.57599C15.1603 8.01363 14.8484 8.37591 14.8421 8.38106C14.8359 8.38621 14.7555 8.47939 14.6636 8.58815C14.5029 8.77837 14.3393 8.96877 13.589 9.83888C13.2597 10.2208 13.2428 10.2372 13.215 10.2021C13.199 10.1819 12.2339 8.77822 11.0703 7.08286L8.95468 4.00039L4 4L4.10166 4.1451ZM6.03519 5.15596C6.0538 5.18436 6.51665 5.84791 7.06378 6.63051C8.10144 8.11475 12.179 13.9507 14.8013 17.7048C15.6393 18.9045 16.3352 19.8966 16.3477 19.9096C16.3655 19.9281 16.6095 19.9321 17.4878 19.9283L18.6051 19.9235L15.6812 15.739C14.073 13.4375 11.7447 10.1054 10.5071 8.33425L8.25693 5.11399L6.00139 5.10433L6.03519 5.15596Z" fill="black"/>
</svg>
