<svg width="24" height="24" viewBox="0 0 24 24" fill="none" xmlns="http://www.w3.org/2000/svg">
<path fill-rule="evenodd" clip-rule="evenodd" d="M9.58613 15.5033V8.76916C11.9768 9.89407 13.8283 10.9808 16.0181 12.1524C14.212 13.154 11.9768 14.2779 9.58613 15.5033ZM22.9092 5.41994C22.4968 4.87663 21.794 4.45371 21.0457 4.31369C18.8463 3.89603 5.12518 3.89484 2.92698 4.31369C2.32693 4.42618 1.7926 4.69808 1.3336 5.12053C-0.600435 6.91561 0.00559944 16.542 0.471777 18.1014C0.667809 18.7763 0.921228 19.2631 1.24038 19.5826C1.65157 20.0051 2.21456 20.2959 2.86123 20.4264C4.67214 20.801 14.0016 21.0104 21.0074 20.4826C21.6529 20.3701 22.2243 20.0699 22.6749 19.6295C24.4631 17.8416 24.3412 7.67456 22.9092 5.41994Z" fill="black"/>
</svg>
