<svg width="16" height="18" viewBox="0 0 16 18" fill="none" xmlns="http://www.w3.org/2000/svg">
<path d="M13.5114 0.03125H2.17337C1.67212 0.03125 1.19157 0.23034 0.837101 0.58466C0.482792 0.939112 0.283691 1.41968 0.283691 1.92093V15.8729C0.283691 16.1775 0.394215 16.4718 0.594564 16.7013C0.794913 16.9308 1.07163 17.0798 1.3735 17.121C1.67537 17.162 1.98188 17.0923 2.23639 16.9249L4.75595 15.2998L7.07388 17.1895C7.29941 17.3748 7.58216 17.4759 7.87393 17.4759C8.16569 17.4759 8.44841 17.3746 8.67396 17.1893L10.9919 15.2997L13.48 16.9247C13.7336 17.0812 14.0346 17.1428 14.3293 17.0984C14.6242 17.0539 14.8936 16.9064 15.0899 16.6821C15.286 16.4576 15.3964 16.171 15.4011 15.8729V1.92096C15.4011 1.41972 15.2021 0.939163 14.8478 0.584693C14.4933 0.230376 14.0127 0.03125 13.5114 0.03125ZM14.1413 15.8729L11.6533 14.2415C11.4289 14.0954 11.1638 14.0245 10.8965 14.0393C10.6293 14.0541 10.3737 14.1535 10.1667 14.3233L7.84245 16.213L5.51815 14.3233C5.2939 14.1405 5.01369 14.0404 4.72447 14.0399C4.47926 14.0415 4.23938 14.1113 4.0316 14.2415L1.54352 15.8729V1.92093C1.54352 1.75389 1.60988 1.59361 1.72799 1.4755C1.84609 1.3574 2.00637 1.29103 2.17341 1.29103H13.5115C13.6785 1.29103 13.8388 1.3574 13.9569 1.4755C14.075 1.59361 14.1414 1.75389 14.1414 1.92093L14.1413 15.8729ZM12.5666 3.81061C12.5666 3.97764 12.5002 4.13792 12.3821 4.25603C12.264 4.37413 12.1037 4.4405 11.9367 4.4405H3.74811C3.523 4.4405 3.31506 4.32042 3.20258 4.12555C3.09011 3.93068 3.09011 3.69053 3.20258 3.49566C3.31506 3.30079 3.523 3.18072 3.74811 3.18072H11.9367C12.1037 3.18072 12.264 3.24708 12.3821 3.36518C12.5002 3.48328 12.5666 3.64357 12.5666 3.81061ZM12.5666 7.58996C12.5666 7.75699 12.5002 7.91729 12.3821 8.03538C12.264 8.15348 12.1037 8.21985 11.9367 8.21985H11.6988H3.74811C3.523 8.21985 3.31506 8.09978 3.20258 7.90491C3.09011 7.71003 3.09011 7.46988 3.20258 7.27501C3.31506 7.08014 3.523 6.96007 3.74811 6.96007H11.9367C12.1037 6.96007 12.264 7.02644 12.3821 7.14453C12.5002 7.26264 12.5666 7.42293 12.5666 7.58996ZM12.5666 10.1095C12.5666 10.2766 12.5002 10.4369 12.3821 10.5549C12.264 10.6731 12.1037 10.7394 11.9367 10.7394H3.74811C3.523 10.7394 3.31506 10.6193 3.20258 10.4245C3.09011 10.2296 3.09011 9.98946 3.20258 9.79459C3.31506 9.59971 3.523 9.47964 3.74811 9.47964H11.9367C12.1037 9.47964 12.264 9.54601 12.3821 9.66411C12.5002 9.78221 12.5666 9.9425 12.5666 10.1095ZM12.5666 12.6291C12.5666 12.7961 12.5002 12.9564 12.3821 13.0745C12.264 13.1926 12.1037 13.259 11.9367 13.259H3.74811C3.523 13.259 3.31506 13.1389 3.20258 12.944C3.09011 12.7492 3.09011 12.509 3.20258 12.3141C3.31506 12.1193 3.523 11.9992 3.74811 11.9992H11.9367C12.1037 11.9992 12.264 12.0656 12.3821 12.1837C12.5002 12.3018 12.5666 12.4621 12.5666 12.6291Z" fill="white"/>
</svg>
