<svg width="19" height="20" viewBox="0 0 19 20" fill="none" xmlns="http://www.w3.org/2000/svg">
<path d="M9.04672 1.71064C9.20287 1.57069 9.41661 1.37899 9.41661 1.01406C9.41661 0.889635 9.31581 0.789062 9.19162 0.789062C9.06742 0.789062 8.96662 0.889635 8.96662 1.01406C8.96662 1.1711 8.89508 1.2422 8.74636 1.3754C8.59021 1.51512 8.37646 1.70681 8.37646 2.07153C8.37646 2.43647 8.59021 2.62816 8.74636 2.76811C8.89508 2.90131 8.9664 2.97218 8.9664 3.129C8.9664 3.28537 8.89508 3.35647 8.74636 3.48944C8.59021 3.62916 8.37646 3.82041 8.37646 4.1849C8.37646 4.30932 8.47726 4.40989 8.60146 4.40989C8.72566 4.40989 8.82645 4.30932 8.82645 4.1849C8.82645 4.02875 8.89778 3.95765 9.0465 3.82468C9.20264 3.68496 9.41661 3.49349 9.41661 3.129C9.41661 2.76428 9.20287 2.57259 9.04672 2.43287C8.898 2.29945 8.82645 2.22857 8.82645 2.07153C8.82668 1.91471 8.898 1.84383 9.04672 1.71064Z" fill="white" stroke="white" stroke-width="0.8"/>
<path d="M10.6608 1.71064C10.8169 1.57069 11.0307 1.37899 11.0307 1.01406C11.0307 0.889635 10.9298 0.789062 10.8057 0.789062C10.6815 0.789062 10.5807 0.889635 10.5807 1.01406C10.5807 1.1711 10.5091 1.2422 10.3604 1.3754C10.2045 1.51512 9.99072 1.70681 9.99072 2.07153C9.99072 2.43647 10.2045 2.62816 10.3606 2.76811C10.5093 2.90131 10.5807 2.97218 10.5807 3.129C10.5807 3.28537 10.5093 3.35647 10.3606 3.48944C10.2047 3.62916 9.99072 3.82041 9.99072 4.1849C9.99072 4.30932 10.0915 4.40989 10.2157 4.40989C10.3399 4.40989 10.4407 4.30932 10.4407 4.1849C10.4407 4.02852 10.512 3.95765 10.6608 3.82468C10.8169 3.68496 11.0307 3.49349 11.0307 3.129C11.0307 2.76428 10.8169 2.57259 10.661 2.43287C10.5123 2.29945 10.4407 2.22857 10.4407 2.07153C10.4407 1.91471 10.512 1.84383 10.6608 1.71064Z" fill="white" stroke="white" stroke-width="0.8"/>
<path d="M15.7426 13.9014C15.1402 11.6922 13.2962 10 11.0451 9.59053C10.9227 9.56668 10.8057 9.64925 10.7835 9.77165C10.7612 9.89382 10.8424 10.0108 10.9646 10.0331C13.0465 10.4122 14.7517 11.9768 15.3085 14.0198C15.336 14.1199 15.4264 14.1856 15.5254 14.1856C15.545 14.1856 15.5648 14.1831 15.5848 14.1777C15.7045 14.1449 15.7752 14.0211 15.7426 13.9014Z" fill="white" stroke="white" stroke-width="0.8"/>
<path d="M18.192 16.5738H17.8559V16.0642C17.8559 11.5644 14.3156 7.87648 9.87446 7.63821C10.2889 7.46024 10.5803 7.0485 10.5803 6.56949C10.5803 5.92803 10.0587 5.40649 9.4175 5.40649C8.77627 5.40649 8.25473 5.92803 8.25473 6.56949C8.25473 7.0485 8.54588 7.46024 8.96054 7.63821C4.51916 7.87648 0.979105 11.5644 0.979105 16.0642V16.5738H0.642962C0.518767 16.5738 0.417969 16.6744 0.417969 16.7988V18.5637C0.417969 18.6881 0.518767 18.7887 0.642962 18.7887H18.1925C18.3167 18.7887 18.4175 18.6881 18.4175 18.5637V16.7988C18.417 16.6746 18.3162 16.5738 18.192 16.5738ZM8.70427 6.56949C8.70427 6.17642 9.02399 5.85648 9.41705 5.85648C9.81011 5.85648 10.1298 6.17642 10.1298 6.56949C10.1298 6.96255 9.81011 7.28249 9.41705 7.28249C9.02399 7.28249 8.70427 6.96255 8.70427 6.56949ZM1.42864 16.0645C1.42864 11.6595 5.01234 8.0756 9.41728 8.0756C13.8222 8.0756 17.4059 11.6595 17.4059 16.0645V16.5741H1.42864V16.0645ZM17.967 18.3387H0.867506V17.0238H17.967V18.3387Z" fill="white" stroke="white" stroke-width="0.8"/>
</svg>
