<svg width="20" height="19" viewBox="0 0 20 19" fill="none" xmlns="http://www.w3.org/2000/svg">
<path d="M14.7141 3.87183H6.99161C6.73777 3.87183 6.53467 4.07492 6.53467 4.32878V8.75105C6.53467 9.00492 6.73777 9.20801 6.99161 9.20801H14.7141C14.968 9.20801 15.171 9.00492 15.171 8.75105V4.32878C15.171 4.07492 14.968 3.87183 14.7141 3.87183ZM14.2571 8.2941H7.44857V4.78573H14.2571V8.2941Z" fill="white" stroke="white" stroke-width="0.3"/>
<path d="M18.7796 17.4806H17.231V2.89761C17.231 1.5166 16.1089 0.394531 14.7279 0.394531H6.97497C5.59397 0.394531 4.47189 1.5166 4.47189 2.89761V15.1806H4.26372C3.34983 15.1806 2.60855 14.4394 2.60855 13.5255V11.1532H3.16705C3.4209 11.1532 3.62399 10.9501 3.62399 10.6962V6.20796C3.62399 5.95411 3.4209 5.75102 3.16703 5.75102H2.60855V4.56294C2.60855 4.35985 2.78117 4.19231 2.98934 4.19231H3.16703C3.4209 4.19231 3.62399 3.98921 3.62399 3.73535C3.62399 3.48149 3.4209 3.2784 3.16703 3.2784H2.98934C2.27853 3.2784 1.69464 3.85721 1.69464 4.56294V5.75102H1.13614C0.882283 5.75102 0.679199 5.95411 0.679199 6.20796V10.6962C0.679199 10.9501 0.882283 11.1532 1.13614 11.1532H1.69464V13.5255C1.69464 14.942 2.84717 16.0945 4.26372 16.0945H4.47189V17.4806H2.92334C2.66947 17.4806 2.46638 17.6837 2.46638 17.9376C2.46638 18.1914 2.66947 18.3945 2.92334 18.3945H4.92885H16.7791H18.7846C19.0385 18.3945 19.2416 18.1914 19.2416 17.9376C19.2416 17.6837 19.0334 17.4806 18.7796 17.4806ZM1.59818 6.66492H2.71517V10.2393H1.59818V6.66492ZM5.38579 17.4806V2.89761C5.38579 2.01925 6.09661 1.30843 6.97497 1.30843H14.733C15.6114 1.30843 16.3222 2.01925 16.3222 2.89761V17.4806H5.38579Z" fill="white" stroke="white" stroke-width="0.3"/>
</svg>
