<svg width="20" height="19" viewBox="0 0 20 19" fill="none" xmlns="http://www.w3.org/2000/svg">
<path fill-rule="evenodd" clip-rule="evenodd" d="M2.94952 2.5956V4.06423H1.18634C0.775884 4.06423 0.44043 4.39969 0.44043 4.8156V17.1279C0.44043 17.4401 0.563157 17.7388 0.779975 17.9583C0.998157 18.1806 1.29543 18.3047 1.60498 18.3047H11.2227C11.5322 18.3047 11.8282 18.1806 12.0477 17.9583C12.2645 17.7388 12.3859 17.4401 12.3859 17.1279V4.8156C12.3859 4.39969 12.0518 4.06423 11.6413 4.06423H10.2954V2.5956H10.7495C11.1122 2.5956 11.4041 2.30242 11.4041 1.94105V0.959233C11.4041 0.597869 11.1122 0.304688 10.7495 0.304688H2.07679C1.71543 0.304688 1.42225 0.597869 1.42225 0.959233V1.94105C1.42225 2.30241 1.71543 2.5956 2.07679 2.5956L2.94952 2.5956ZM11.7313 15.032V17.1279C11.7313 17.267 11.6782 17.4006 11.5813 17.4988C11.4859 17.5956 11.3577 17.6501 11.2227 17.6501H1.60498C1.46998 17.6501 1.3418 17.5956 1.24634 17.4988C1.14952 17.4006 1.09498 17.267 1.09498 17.1279V15.032H11.7313ZM1.09498 8.1156V14.3774H11.7313V8.1156L1.09498 8.1156ZM6.17316 10.8565H4.80134C4.62134 10.8565 4.47407 11.0038 4.47407 11.1838C4.47407 11.3651 4.62134 11.5111 4.80134 11.5111H6.17316V12.8829C6.17316 13.0629 6.31907 13.2101 6.50043 13.2101C6.68043 13.2101 6.8277 13.0629 6.8277 12.8829V11.5111H8.19816C8.37952 11.5111 8.52543 11.3651 8.52543 11.1838C8.52543 11.0038 8.37952 10.8565 8.19816 10.8565H6.8277V9.48605C6.8277 9.30605 6.68043 9.15878 6.50043 9.15878C6.31907 9.15878 6.17316 9.30605 6.17316 9.48605V10.8565ZM3.60407 2.5956H9.64088V4.39151C9.64088 4.57151 9.78816 4.71878 9.96816 4.71878H11.6413L11.7313 4.8156V7.46105H1.09498V4.8156L1.18634 4.71878H3.27679C3.45816 4.71878 3.60407 4.57151 3.60407 4.39151L3.60407 2.5956ZM2.07679 1.94105H10.7495V0.959234H2.07679L2.07679 1.94105ZM18.9354 11.0924C18.6272 10.7856 18.2113 10.6138 17.7777 10.6138C17.3441 10.6138 16.9282 10.7856 16.62 11.0924L14.3059 13.4079C13.9991 13.7147 13.8272 14.1306 13.8272 14.5642C13.8272 14.9979 13.9991 15.4151 14.3059 15.722H14.3072C14.9454 16.3601 15.9818 16.3601 16.62 15.722L18.9354 13.4079C19.2422 13.0997 19.4141 12.6838 19.4141 12.2501C19.4141 11.8165 19.2422 11.4006 18.9354 11.0924ZM15.6954 12.9442L17.0836 14.3324L16.1577 15.2597C15.7745 15.6415 15.1527 15.6429 14.7695 15.2597V15.2583C14.5854 15.0742 14.4818 14.8247 14.4818 14.5642C14.4818 14.3038 14.5854 14.0542 14.7695 13.8701L15.6954 12.9442ZM17.5459 13.8701L16.1577 12.482L17.0836 11.5561C17.2677 11.372 17.5173 11.2683 17.7777 11.2683C18.0382 11.2683 18.2877 11.372 18.4718 11.5561C18.6559 11.7401 18.7595 11.9897 18.7595 12.2501C18.7595 12.5106 18.6559 12.7601 18.4718 12.9442L17.5459 13.8701ZM18.9818 6.83787C19.62 6.19969 19.62 5.16332 18.9818 4.52514V4.52378C18.675 4.21696 18.2577 4.04514 17.8241 4.04514C17.3904 4.04514 16.9745 4.21696 16.6677 4.52378L14.3522 6.83923C13.7141 7.47742 13.7141 8.51378 14.3522 9.15196L14.3536 9.15333C14.9918 9.79151 16.0282 9.79151 16.6663 9.15333L18.9818 6.83787ZM15.7418 6.3756L17.13 7.76378L16.2041 8.68969C15.8209 9.07287 15.1991 9.07287 14.8159 8.68969C14.4327 8.30651 14.4327 7.68469 14.8159 7.30151L15.7418 6.3756ZM17.5922 7.30151L16.2041 5.91332L17.13 4.98741C17.3141 4.80332 17.5636 4.69969 17.8241 4.69969C18.0845 4.69969 18.3341 4.80332 18.5182 4.98741H18.5195C18.9027 5.3706 18.9027 5.99241 18.5195 6.3756L17.5922 7.30151Z" fill="white" stroke="white" stroke-width="0.2"/>
</svg>
