<svg width="26" height="15" viewBox="0 0 26 15" fill="none" xmlns="http://www.w3.org/2000/svg">
<path d="M24.9701 2.40055C24.277 1.5048 23.0869 0.947793 21.3941 0.777542C20.9109 0.725966 20.4126 0.769882 19.9235 0.913138C18.7408 1.24215 16.1956 2.11637 12.2839 4.32217C12.1246 4.39483 11.9895 4.47227 11.8582 4.52539L9.64421 5.47702C9.56456 5.51335 9.51296 5.53013 9.43331 5.56646C8.81668 5.73943 6.6983 6.23883 5.17457 4.84299C5.15023 4.83914 5.15408 4.8148 5.13068 4.81109L4.07884 4.00534C3.92639 3.8833 3.73076 3.87631 3.5713 3.9499L1.04017 5.19487C0.905214 5.27138 0.814147 5.3798 0.791312 5.52397C0.768477 5.66815 0.793538 5.81894 0.898097 5.93436L5.17141 10.9106C5.25549 10.9978 5.34435 11.0608 5.46419 11.0798C5.51194 11.0873 5.53628 11.0912 5.58788 11.0744C5.61222 11.0783 7.57728 10.9231 10.2782 10.4661C9.39805 12.6117 8.98771 13.1848 8.89276 13.3176C8.7578 13.3941 8.71449 13.5101 8.71213 13.6825C8.71364 13.8305 8.76581 13.9616 8.87052 14.0761C8.9546 14.1633 9.08735 14.2582 9.4225 14.3113C9.68652 14.3531 10.1013 14.3699 10.7195 14.3449C12.498 14.2831 13.9387 11.8578 14.104 11.5894L15.3794 9.43249C19.8594 8.2985 23.0505 6.76451 24.8429 4.91124C25.4915 4.22798 25.5621 3.15847 24.9701 2.40055ZM13.1958 11.1249C12.8574 11.7105 11.6861 13.3677 10.6251 13.3952C10.3536 13.4011 10.1307 13.4148 9.9631 13.3882C10.4039 12.6231 11.117 11.0653 12.2802 7.90783L16.0532 6.26933L13.1958 11.1249ZM24.1355 4.25886C22.6086 5.83465 19.8872 7.19722 16.0301 8.28225L17.6747 5.4968C17.7772 5.3163 17.7636 5.09342 17.6179 4.92254C17.4731 4.75182 17.2569 4.71757 17.0703 4.81086L11.7199 7.10838C11.5886 7.16149 11.4976 7.2699 11.4552 7.38603C11.1586 8.17398 10.9042 8.84674 10.6624 9.44662C8.2885 9.85661 6.36628 10.0435 5.71733 10.1125L2.02318 5.81815L3.72748 4.98253L4.53813 5.60228C6.42719 7.32662 8.97575 6.74755 9.70028 6.51778C9.80334 6.48515 9.90733 6.45268 10.0142 6.39571L12.2563 5.42456C12.4156 5.35189 12.6022 5.25861 12.7887 5.16532C16.6169 3.02027 19.0874 2.15811 20.2185 1.84591C20.5802 1.73142 20.955 1.69192 21.3145 1.74886C22.6918 1.89311 23.6808 2.32037 24.2133 2.99396C24.4991 3.3588 24.4594 3.9167 24.1355 4.25886Z" fill="white" stroke="white" stroke-width="0.2"/>
</svg>
