<svg width="156" height="48" viewBox="0 0 156 48" fill="none" xmlns="http://www.w3.org/2000/svg">
<path d="M5 39V9H35V39H5Z" stroke="white" stroke-width="10"/>
<path d="M50.816 14.208C50.816 14.592 50.8853 14.9173 51.024 15.184C51.1627 15.4507 51.344 15.6693 51.568 15.84C51.8027 16 52.0747 16.1227 52.384 16.208C52.6933 16.2827 53.0133 16.32 53.344 16.32C53.568 16.32 53.808 16.304 54.064 16.272C54.32 16.2293 54.56 16.1547 54.784 16.048C55.008 15.9413 55.1947 15.7973 55.344 15.616C55.4933 15.424 55.568 15.184 55.568 14.896C55.568 14.5867 55.4667 14.336 55.264 14.144C55.072 13.952 54.816 13.792 54.496 13.664C54.176 13.536 53.8133 13.424 53.408 13.328C53.0027 13.232 52.592 13.1253 52.176 13.008C51.7493 12.9013 51.3333 12.7733 50.928 12.624C50.5227 12.464 50.16 12.2613 49.84 12.016C49.52 11.7707 49.2587 11.4667 49.056 11.104C48.864 10.7307 48.768 10.2827 48.768 9.76C48.768 9.17333 48.8907 8.66667 49.136 8.24C49.392 7.80267 49.7227 7.44 50.128 7.152C50.5333 6.864 50.992 6.65067 51.504 6.512C52.016 6.37333 52.528 6.304 53.04 6.304C53.6373 6.304 54.208 6.37333 54.752 6.512C55.3067 6.64 55.7973 6.85333 56.224 7.152C56.6507 7.45067 56.9867 7.83467 57.232 8.304C57.488 8.76267 57.616 9.32267 57.616 9.984H55.184C55.1627 9.64267 55.088 9.36 54.96 9.136C54.8427 8.912 54.6827 8.736 54.48 8.608C54.2773 8.48 54.0427 8.38933 53.776 8.336C53.52 8.28267 53.2373 8.256 52.928 8.256C52.7253 8.256 52.5227 8.27733 52.32 8.32C52.1173 8.36267 51.9307 8.43733 51.76 8.544C51.6 8.65067 51.4667 8.784 51.36 8.944C51.2533 9.104 51.2 9.30667 51.2 9.552C51.2 9.776 51.2427 9.95733 51.328 10.096C51.4133 10.2347 51.5787 10.3627 51.824 10.48C52.08 10.5973 52.4267 10.7147 52.864 10.832C53.312 10.9493 53.8933 11.0987 54.608 11.28C54.8213 11.3227 55.1147 11.4027 55.488 11.52C55.872 11.6267 56.2507 11.8027 56.624 12.048C56.9973 12.2933 57.3173 12.624 57.584 13.04C57.8613 13.4453 58 13.968 58 14.608C58 15.1307 57.8987 15.616 57.696 16.064C57.4933 16.512 57.1893 16.9013 56.784 17.232C56.3893 17.552 55.8933 17.8027 55.296 17.984C54.7093 18.1653 54.0267 18.256 53.248 18.256C52.6187 18.256 52.0053 18.176 51.408 18.016C50.8213 17.8667 50.2987 17.6267 49.84 17.296C49.392 16.9653 49.0347 16.544 48.768 16.032C48.5013 15.52 48.3733 14.912 48.384 14.208H50.816ZM59.4946 6.576H63.0306L65.7026 14.432H65.7346L68.2626 6.576H71.7986V18H69.4466V9.904H69.4146L66.6146 18H64.6786L61.8786 9.984H61.8466V18H59.4946V6.576ZM76.8903 13.584H79.8503L78.4103 9.392H78.3783L76.8903 13.584ZM77.1302 6.576H79.7063L83.9783 18H81.3703L80.5063 15.456H76.2343L75.3383 18H72.8102L77.1302 6.576ZM87.4754 11.744H90.2274C90.8034 11.744 91.2354 11.616 91.5234 11.36C91.8114 11.104 91.9554 10.688 91.9554 10.112C91.9554 9.55733 91.8114 9.15733 91.5234 8.912C91.2354 8.656 90.8034 8.528 90.2274 8.528H87.4754V11.744ZM84.9634 6.576H91.1234C91.6354 6.576 92.094 6.66133 92.4994 6.832C92.9154 6.992 93.2674 7.216 93.5554 7.504C93.854 7.792 94.078 8.128 94.2274 8.512C94.3874 8.88533 94.4674 9.29067 94.4674 9.728C94.4674 10.4 94.3234 10.9813 94.0354 11.472C93.758 11.9627 93.2994 12.336 92.6594 12.592V12.624C92.9687 12.7093 93.2247 12.8427 93.4274 13.024C93.63 13.1947 93.7954 13.4027 93.9234 13.648C94.0514 13.8827 94.142 14.144 94.1954 14.432C94.2594 14.72 94.302 15.008 94.3234 15.296C94.334 15.4773 94.3447 15.6907 94.3554 15.936C94.366 16.1813 94.382 16.432 94.4034 16.688C94.4354 16.944 94.478 17.1893 94.5314 17.424C94.5954 17.648 94.686 17.84 94.8034 18H92.2914C92.1527 17.6373 92.0674 17.2053 92.0354 16.704C92.0034 16.2027 91.9554 15.7227 91.8914 15.264C91.806 14.6667 91.6247 14.2293 91.3474 13.952C91.07 13.6747 90.6167 13.536 89.9874 13.536H87.4754V18H84.9634V6.576ZM98.757 8.688H95.333V6.576H104.693V8.688H101.269V18H98.757V8.688ZM51.616 35.2H54.16C54.608 35.2 54.976 35.0933 55.264 34.88C55.552 34.6667 55.696 34.32 55.696 33.84C55.696 33.5733 55.648 33.3547 55.552 33.184C55.456 33.0133 55.328 32.88 55.168 32.784C55.008 32.688 54.8213 32.624 54.608 32.592C54.4053 32.5493 54.192 32.528 53.968 32.528H51.616V35.2ZM49.104 30.576H54.48C55.024 30.576 55.52 30.624 55.968 30.72C56.416 30.816 56.8 30.976 57.12 31.2C57.44 31.4133 57.6853 31.7013 57.856 32.064C58.0373 32.4267 58.128 32.8747 58.128 33.408C58.128 33.984 57.9947 34.464 57.728 34.848C57.472 35.232 57.088 35.5467 56.576 35.792C57.28 35.9947 57.8027 36.352 58.144 36.864C58.496 37.3653 58.672 37.9733 58.672 38.688C58.672 39.264 58.56 39.7653 58.336 40.192C58.112 40.608 57.808 40.9493 57.424 41.216C57.0507 41.4827 56.6187 41.68 56.128 41.808C55.648 41.936 55.152 42 54.64 42H49.104V30.576ZM51.616 40.048H54.304C54.5493 40.048 54.784 40.0267 55.008 39.984C55.232 39.9307 55.4293 39.8507 55.6 39.744C55.7707 39.6267 55.904 39.472 56 39.28C56.1067 39.088 56.16 38.8427 56.16 38.544C56.16 37.9573 55.9947 37.5413 55.664 37.296C55.3333 37.04 54.896 36.912 54.352 36.912H51.616V40.048ZM63.2496 37.584H66.2096L64.7696 33.392H64.7376L63.2496 37.584ZM63.4896 30.576H66.0656L70.3376 42H67.7296L66.8656 39.456H62.5936L61.6976 42H59.1696L63.4896 30.576ZM71.3228 30.576H73.8188L78.5868 38.24H78.6188V30.576H80.9708V42H78.4588L73.7068 34.352H73.6748V42H71.3228V30.576ZM83.1821 30.576H85.6941V35.312L90.1581 30.576H93.2941L88.8301 35.088L93.7261 42H90.5741L87.1341 36.864L85.6941 38.32V42H83.1821V30.576Z" fill="white"/>
</svg>
