<svg width="82" height="81" viewBox="0 0 82 81" fill="none" xmlns="http://www.w3.org/2000/svg">
<path fill-rule="evenodd" clip-rule="evenodd" d="M12.1718 57.115C11.966 52.3545 17.288 46.3475 24.2903 48.4032C22.253 51.0864 20.9971 53.2546 20.5476 54.8949C19.8881 57.3228 21.4801 59.3092 23.9458 58.7466C25.7226 58.3398 28.0203 56.864 30.528 54.9511C32.3468 61.0101 27.5204 67.268 22.0976 67.4498C22.5975 65.5499 24.6683 61.2957 21.77 63.2519C19.7369 64.6281 16.0489 66.779 13.3185 66.1774C12.3188 60.8023 19.0144 55.0723 14.9525 56.085C13.9964 56.3381 13.0654 56.683 12.1718 57.115Z" fill="#F04E39"/>
<path d="M25.7059 41.4825C30.8095 25.7553 44.1335 14.8579 60.7633 16.0957C61.0521 16.1162 61.3228 16.2477 61.5219 16.4641C61.721 16.6805 61.8341 16.966 61.8386 17.2642C63.3592 34.7485 52.1355 47.7708 37.2573 53.8384V63.3596C37.2577 63.5818 37.1977 63.7997 37.0841 63.9886C36.9705 64.1776 36.8079 64.3299 36.6146 64.4285L29.4737 68.9857C29.3087 69.0899 29.1211 69.1499 28.9278 69.1603C28.7346 69.1706 28.5419 69.1309 28.3673 69.0449C28.1928 68.9588 28.0419 68.8291 27.9285 68.6676C27.815 68.5061 27.7426 68.3179 27.7179 68.1201C26.1175 55.6647 24.4331 55.0675 14.5283 51.536L11.2015 50.3459C10.912 50.2401 10.6751 50.0202 10.5427 49.7346C10.4104 49.449 10.3936 49.1209 10.4958 48.8225C10.539 48.6914 10.6029 48.5686 10.6848 48.459L15.4062 41.5345C15.5174 41.3693 15.6674 41.2358 15.8422 41.1465C16.0171 41.0572 16.211 41.015 16.4059 41.0238L25.7059 41.4782V41.4825Z" fill="#262626"/>
<path fill-rule="evenodd" clip-rule="evenodd" d="M41.6523 23.0374C46.7296 19.4348 52.848 17.7249 58.9962 18.1902C59.2344 18.2076 59.4577 18.3163 59.6218 18.495C59.7859 18.6737 59.8789 18.9094 59.8826 19.1553C60.4538 25.7249 58.572 31.8012 55.1948 36.9859L41.6523 23.0374Z" fill="#F04E39"/>
<path fill-rule="evenodd" clip-rule="evenodd" d="M26.3281 46.0265C28.4158 38.2711 32.6541 30.758 38.5726 25.4824L52.8543 40.1969C47.6196 46.358 40.7426 50.7977 33.0783 52.9639L29.3609 49.1511L26.3281 46.0265Z" fill="white"/>
<path d="M43.2135 35.126C42.6365 34.5309 41.8774 34.1601 41.065 34.0766C40.2527 33.9931 39.4374 34.202 38.7577 34.6678C38.078 35.1337 37.5759 35.8277 37.3367 36.6319C37.0975 37.4361 37.136 38.3008 37.4457 39.079C37.7554 39.8572 38.3171 40.5009 39.0354 40.9007C39.7537 41.3004 40.5841 41.4315 41.3856 41.2716C42.1871 41.1118 42.9101 40.6709 43.4317 40.0239C43.9533 39.3769 44.2414 38.5637 44.2468 37.7226C44.2509 37.2408 44.1616 36.7629 43.9842 36.317C43.8067 35.8711 43.5447 35.4662 43.2135 35.126Z" fill="#262626"/>
<circle cx="77.425" cy="8.34685" r="3.79412" fill="#F04E39"/>
<circle cx="10.9006" cy="7.5881" r="4.55294" fill="#F04E39"/>
<circle cx="31.8956" cy="78.7237" r="2.27647" fill="#F04E39"/>
<circle cx="75.6544" cy="72.8458" r="1.51765" fill="#F04E39"/>
<circle cx="78.9424" cy="53.3702" r="1.26471" fill="#F04E39"/>
<circle cx="7.61241" cy="72.089" r="2.27647" fill="#F04E39"/>
<circle cx="59.7178" cy="72.1455" r="0.758824" fill="#F04E39"/>
<circle cx="56.4298" cy="1.51765" r="1.51765" fill="#F04E39"/>
<circle cx="1.79497" cy="43.5059" r="1.01176" fill="#F04E39"/>
</svg>
