<svg width="99" height="31" viewBox="0 0 99 31" fill="none" xmlns="http://www.w3.org/2000/svg">
<path d="M13.0118 2.44129C13.0772 4.51088 12.6168 14.5127 8.83896 19.3991C5.06208 14.5127 4.60265 4.51088 4.66803 2.44129H0.00445528C-0.064642 5.76194 0.595556 17.6328 7.2949 23.3643C7.362 23.4336 7.56007 23.6028 7.85195 23.6028H9.82509C10.1216 23.6028 10.3177 23.4336 10.3831 23.3643C17.0843 17.6328 17.7389 5.76194 17.6782 2.44129H13.0118ZM88.1941 7.09097H79.3781V2.38996L74.4844 3.81311V7.09097H72.3823V10.1882H74.4844V19.0426C74.4844 21.8556 75.9961 23.9594 79.5733 23.9594C81.1541 23.9594 82.5978 23.5858 83.3834 23.0097L82.3999 20.1264C82.0059 20.3992 81.3836 20.5332 80.9203 20.5332C80.1008 20.5332 79.3781 20.23 79.3781 18.7023V10.1882H83.6651C84.4089 15.7486 86.8398 20.1435 90.0983 22.5543C89.0818 24.7285 87.0119 26.5937 84.8427 27.4075L86.2211 31C94.236 27.5776 98.3435 16.4531 99 7.09097H94.236C94.0721 12.3148 93.2188 16.0814 91.8717 19.0978C89.6702 16.7886 88.3562 12.2816 88.1941 7.09097ZM67.8098 0C66.3293 0 65.0485 0.982032 65.0485 2.51069C65.0485 4.03744 66.3293 5.02043 67.8098 5.02043C69.2895 5.02043 70.5693 4.03744 70.5693 2.51069C70.5693 0.982032 69.2895 0 67.8098 0ZM65.3745 23.6524H70.2415V7.09097H65.3745V23.6524ZM65.3745 23.6524H70.2415V7.09097H65.3745V23.6524ZM27.6452 20.2956C27.6452 20.5305 27.5125 20.6996 27.3496 20.77C27.0531 20.9078 26.5615 20.9734 25.8691 20.9734C23.9613 20.9734 23.0746 20.058 23.0746 18.632C23.0746 16.762 24.4898 15.6441 27.6452 15.5443V20.2956ZM25.673 6.78486C23.1418 6.78486 20.874 7.36285 19.2949 8.04068L20.2811 10.7909C21.4955 10.249 23.0746 9.77277 24.685 9.77277C26.462 9.77277 27.6452 10.2804 27.6452 12.0486V12.7607C21.9587 13.1001 18.1772 14.5223 18.1772 18.7346C18.1772 22.2273 20.7764 23.9594 25.835 23.9594C28.1046 23.9594 31.0934 23.4832 32.1145 22.8377C32.3115 22.7035 32.5076 22.5696 32.5076 22.0923V12.5211C32.5076 9.1596 30.6689 6.78486 25.673 6.78486ZM60.6363 20.5656C58.3032 20.5656 56.5271 18.7023 56.5271 15.4805C56.5271 12.2597 58.2037 10.1882 60.4043 10.1882C61.0267 10.1882 61.5543 10.2909 62.243 10.5628L63.2945 7.57675C62.2762 7.03771 61.1602 6.7972 59.6815 6.7972C54.8863 6.7972 51.6342 10.1559 51.6342 15.6165C51.6342 21.0771 55.0815 23.9594 59.78 23.9594C61.3877 23.9594 62.5073 23.7227 63.5247 23.1809L62.4732 20.1967C61.7827 20.4658 61.2587 20.5656 60.6363 20.5656ZM42.2307 6.7972C39.7005 6.7972 37.138 7.23834 35.6943 7.88289C35.3334 8.05494 35.1658 8.18804 35.1658 8.59492V23.6524H40.0301V10.2909C40.0301 10.1881 40.064 10.1559 40.2262 10.0874C40.5236 9.98669 41.2758 9.78224 42.133 9.78224C44.1356 9.78224 44.631 10.9363 44.631 12.157V23.6523H49.4916V12.6304C49.4916 11.5467 49.4235 10.9021 49.2596 10.3926C48.6031 8.25456 46.5655 6.7972 42.2307 6.7972Z" fill="white"/>
</svg>
