<svg width="51" height="36" viewBox="0 0 51 36" fill="none" xmlns="http://www.w3.org/2000/svg">
<g clip-path="url(#clip0_8777_7881)">
<path d="M30.3922 8.56836H19.9749V27.435H30.3922V8.56836Z" fill="#FF5F00"/>
<path d="M20.6363 18.0008C20.6363 14.3342 22.323 10.8342 25.1671 8.56749C20.008 4.46749 12.5009 5.36749 8.43319 10.6008C4.39855 15.8008 5.29146 23.3342 10.4836 27.4342C14.8159 30.8675 20.8678 30.8675 25.2001 27.4342C22.323 25.1675 20.6363 21.6675 20.6363 18.0008Z" fill="#EB001B"/>
<path d="M44.4474 18.0008C44.4474 24.6342 39.123 30.0008 32.5419 30.0008C29.8632 30.0008 27.2837 29.1008 25.2002 27.4342C30.3593 23.3342 31.2522 15.8008 27.1844 10.5675C26.5892 9.83416 25.9278 9.13416 25.2002 8.56749C30.3593 4.46749 37.8663 5.36749 41.901 10.6008C43.5545 12.7008 44.4474 15.3008 44.4474 18.0008Z" fill="#F79E1B"/>
</g>
<defs>
<clipPath id="clip0_8777_7881">
<rect width="50.4" height="36" fill="white"/>
</clipPath>
</defs>
</svg>
