<svg width="310" height="242" viewBox="0 0 310 242" fill="none" xmlns="http://www.w3.org/2000/svg">
<path opacity="0.5" d="M231.873 238.938C222.003 241.582 211.859 235.725 209.215 225.856C206.57 215.987 212.427 205.843 222.296 203.199C232.165 200.554 242.31 206.411 244.954 216.28C247.598 226.149 241.742 236.293 231.873 238.938Z" fill="#4F84A4" stroke="#4F84A4" stroke-width="3"/>
<path opacity="0.3" d="M306.564 35.8901C308.923 31.8014 310.017 27.1052 309.707 22.395C309.398 17.6849 307.698 13.1723 304.824 9.42789C301.95 5.68344 298.03 2.87521 293.56 1.35824C289.09 -0.15872 284.271 -0.316308 279.711 0.905401C275.152 2.12711 271.057 4.67326 267.945 8.22195C264.832 11.7706 262.841 16.1625 262.225 20.8424C261.608 25.5222 262.392 30.2799 264.479 34.5139C266.566 38.7479 269.861 42.2681 273.948 44.6295C276.664 46.1982 279.661 47.2165 282.77 47.6262C285.879 48.036 289.038 47.8292 292.067 47.0176C295.096 46.206 297.935 44.8055 300.423 42.8962C302.91 40.9869 304.997 38.6062 306.564 35.8901Z" fill="#5D97BF"/>
<path opacity="0.3" d="M29.9604 65.2749L29.9575 65.2757C24.0988 66.8455 17.8565 66.0237 12.6037 62.991C7.351 59.9584 3.51815 54.9632 1.94832 49.1046L1.94753 49.1016C0.758277 44.7166 0.897801 40.0771 2.34846 35.7715C3.7991 31.4658 6.49555 27.6878 10.0959 24.9165C13.6963 22.1451 18.0385 20.5052 22.572 20.2046C27.1055 19.904 31.6262 20.9563 35.5609 23.228C39.4957 25.4997 42.6673 28.8886 44.6738 32.9651C46.6802 37.0415 47.4311 41.6219 46.8312 46.1256C46.2313 50.6293 44.3077 54.8535 41.3042 58.2626C38.3007 61.6717 34.3526 64.1123 29.9604 65.2749Z" fill="#739FC3" stroke="#739FC3" stroke-width="2"/>
</svg>
