<svg width="22" height="23" viewBox="0 0 22 23" fill="none" xmlns="http://www.w3.org/2000/svg">
<g id="Group 16884">
<g id="Group 16882">
<path id="Path 11972" d="M13.0325 13.6767H16.9861L16.448 14.1818C16.3498 14.2733 16.292 14.4001 16.2872 14.5343C16.2825 14.6684 16.3313 14.799 16.4228 14.8972C16.5143 14.9954 16.6411 15.0533 16.7753 15.058C16.9095 15.0627 17.04 15.014 17.1382 14.9224L18.6049 13.5429C18.6538 13.4944 18.6926 13.4367 18.7191 13.3731C18.7456 13.3096 18.7592 13.2414 18.7592 13.1725C18.7592 13.1037 18.7456 13.0355 18.7191 12.9719C18.6926 12.9084 18.6538 12.8507 18.6049 12.8022L17.1382 11.4226C17.0896 11.3773 17.0325 11.342 16.9703 11.3187C16.908 11.2955 16.8417 11.2847 16.7753 11.2871C16.7089 11.2894 16.6435 11.3048 16.5831 11.3324C16.5226 11.36 16.4681 11.3992 16.4228 11.4478C16.3775 11.4965 16.3422 11.5535 16.3189 11.6158C16.2956 11.6781 16.2849 11.7443 16.2872 11.8108C16.2896 11.8772 16.305 11.9425 16.3326 12.003C16.3601 12.0635 16.3994 12.118 16.448 12.1633L16.9861 12.6684H13.0325C12.9041 12.6761 12.7834 12.7326 12.6952 12.8263C12.607 12.92 12.5579 13.0438 12.5579 13.1725C12.5579 13.3012 12.607 13.4251 12.6952 13.5188C12.7834 13.6124 12.9041 13.6689 13.0325 13.6767Z" fill="white"/>
<path id="Path 11973" d="M12.4605 18.6193C12.5588 18.7108 12.6893 18.7596 12.8235 18.7549C12.9577 18.7502 13.0845 18.6923 13.176 18.5941C13.2675 18.4959 13.3163 18.3653 13.3116 18.2312C13.3068 18.097 13.249 17.9702 13.1508 17.8787L12.6127 17.3736H16.5662C16.6947 17.3658 16.8154 17.3093 16.9036 17.2157C16.9918 17.122 17.0409 16.9981 17.0409 16.8694C17.0409 16.7407 16.9918 16.6169 16.9036 16.5232C16.8154 16.4295 16.6947 16.373 16.5662 16.3653H12.6127L13.1508 15.8602C13.1994 15.8149 13.2386 15.7604 13.2662 15.6999C13.2938 15.6394 13.3092 15.5741 13.3116 15.5077C13.3139 15.4413 13.3031 15.375 13.2799 15.3127C13.2566 15.2504 13.2213 15.1934 13.176 15.1447C13.1307 15.0961 13.0762 15.0569 13.0157 15.0293C12.9552 15.0017 12.8899 14.9863 12.8235 14.984C12.757 14.9816 12.6908 14.9924 12.6285 15.0157C12.5663 15.0389 12.5092 15.0742 12.4605 15.1195L10.9939 16.4991C10.945 16.5476 10.9062 16.6053 10.8797 16.6688C10.8532 16.7324 10.8396 16.8006 10.8396 16.8694C10.8396 16.9383 10.8532 17.0065 10.8797 17.07C10.9062 17.1336 10.945 17.1913 10.9939 17.2398L12.4605 18.6193Z" fill="white"/>
</g>
<g id="noun-blocked-credit-card-584320">
<path id="Path 11966" d="M6.36992 10.7857H2.62446C2.50393 10.7804 2.39011 10.7287 2.30671 10.6416C2.22331 10.5544 2.17676 10.4384 2.17676 10.3177C2.17676 10.1971 2.22331 10.0811 2.30671 9.99394C2.39011 9.90677 2.50393 9.85513 2.62446 9.84979H6.36992C6.49044 9.85513 6.60426 9.90677 6.68766 9.99394C6.77106 10.0811 6.81761 10.1971 6.81761 10.3177C6.81761 10.4384 6.77106 10.5544 6.68766 10.6416C6.60426 10.7287 6.49044 10.7804 6.36992 10.7857Z" fill="white"/>
<path id="Path 11967" d="M21.9998 2.29471C22.0014 2.04147 21.9527 1.79044 21.8565 1.55618C21.7603 1.32192 21.6186 1.10908 21.4395 0.930013C21.2605 0.750946 21.0476 0.609213 20.8134 0.513034C20.5791 0.416856 20.3281 0.368145 20.0748 0.369727H1.92502C1.67178 0.368145 1.42075 0.416856 1.18649 0.513034C0.952227 0.609213 0.739392 0.750946 0.560325 0.930013C0.381258 1.10908 0.239521 1.32192 0.143342 1.55618C0.0471631 1.79044 -0.00154503 2.04147 3.73528e-05 2.29471V12.7996C0.00622037 13.3082 0.211017 13.7943 0.570689 14.1539C0.930361 14.5136 1.4164 14.7184 1.92502 14.7246H7.69996V15.0546C7.69996 16.9508 8.45325 18.7695 9.79412 20.1103C11.135 21.4512 12.9536 22.2045 14.8499 22.2045C16.7462 22.2045 18.5648 21.4512 19.9056 20.1103C21.2465 18.7695 21.9998 16.9508 21.9998 15.0546C21.9993 14.555 21.944 14.0571 21.8348 13.5696C21.9473 13.3287 22.0038 13.0654 21.9998 12.7996V2.29471ZM14.8499 21.0495C14.0547 21.0518 13.267 20.8969 12.532 20.5937C11.7969 20.2904 11.1291 19.8449 10.5668 19.2826C10.0046 18.7204 9.55901 18.0525 9.25579 17.3175C8.95257 16.5824 8.79764 15.7947 8.79994 14.9996V14.6696C8.79671 14.2965 8.8524 13.9253 8.96494 13.5696C9.28263 12.2706 10.0211 11.1131 11.0653 10.2776C12.1094 9.44204 13.4006 8.97536 14.7377 8.95025C16.0748 8.92514 17.3826 9.34301 18.4574 10.1388C19.5322 10.9345 20.3136 12.0634 20.6798 13.3496C20.7796 13.7291 20.8531 14.115 20.8998 14.5046V14.9996C20.9021 15.7947 20.7472 16.5824 20.444 17.3175C20.1407 18.0525 19.6952 18.7204 19.133 19.2826C18.5707 19.8449 17.9029 20.2904 17.1678 20.5937C16.4328 20.8969 15.645 21.0518 14.8499 21.0495ZM20.8998 11.2046C20.2602 10.1768 19.3689 9.32922 18.3102 8.74213C17.2515 8.15503 16.0605 7.84785 14.8499 7.84965C13.1984 7.85116 11.5977 8.42031 10.316 9.4617C9.03428 10.5031 8.14949 11.9534 7.80995 13.5696H1.92502C1.7079 13.5642 1.50115 13.4756 1.34758 13.322C1.19401 13.1685 1.10537 12.9617 1.10002 12.7446V5.37559H20.8998V11.2046ZM20.8998 4.27469H1.10002V2.29471C1.09803 2.18582 1.11801 2.07765 1.15877 1.97666C1.19952 1.87567 1.26022 1.78393 1.33723 1.70692C1.41424 1.62991 1.50598 1.56922 1.60697 1.52846C1.70796 1.48771 1.81613 1.46773 1.92502 1.46972H20.0198C20.2369 1.47506 20.4437 1.5637 20.5973 1.71727C20.7508 1.87084 20.8395 2.07759 20.8448 2.29471V4.27469H20.8998Z" fill="white"/>
</g>
</g>
</svg>
