<svg width="27" height="33" viewBox="0 0 27 33" fill="none" xmlns="http://www.w3.org/2000/svg">
<path id="Vector" d="M13.4109 30.4084C15.0002 29.4235 16.451 28.2509 17.7283 26.9188C18.8372 25.7658 19.816 24.5061 20.6489 23.1603L22.3949 24.3502C21.51 25.7575 20.4776 27.0765 19.3135 28.2873C17.7719 29.8972 15.9985 31.2929 14.0458 32.4331C13.8716 32.5544 13.663 32.6231 13.447 32.6302C13.2311 32.6374 13.0179 32.5827 12.8352 32.4733C10.0382 30.7999 7.55361 28.6977 5.48289 26.2526C2.78873 23.0579 1.09774 19.5141 0.515733 16.0968C-0.0768545 12.6112 0.481871 9.26 2.31678 6.51486C3.06665 5.40098 4.00724 4.41352 5.09982 3.59313C7.69663 1.63461 10.6447 0.607194 13.5908 0.631274C16.4373 0.653348 19.2479 1.65669 21.6775 3.75768C22.5177 4.48639 23.2433 5.32572 23.8319 6.24998C25.6563 9.10548 26.16 12.6714 25.5356 16.3416L23.5695 15.0111C23.8743 12.1717 23.3938 9.46869 22.0097 7.29947C21.5249 6.5438 20.9291 5.85733 20.2404 5.26068C18.2193 3.51287 15.9061 2.67809 13.5802 2.652C11.1252 2.63795 8.6363 3.52089 6.42679 5.18443C5.52371 5.86415 4.74748 6.6829 4.13052 7.60649C2.58556 9.91016 2.11995 12.7757 2.63 15.7797C3.15275 18.8519 4.69559 22.0646 7.1506 24.9863C8.9314 27.0873 11.0438 28.9149 13.413 30.4044L13.4109 30.4084ZM11.2945 6.52891C12.6962 6.19438 14.1671 6.2251 15.5519 6.61782C16.9367 7.01054 18.1839 7.75067 19.1617 8.75999C20.1395 9.76931 20.8115 11.0103 21.1069 12.3519C21.4022 13.6935 21.3097 15.0858 20.8394 16.3817L26.2891 20.066L24.5028 22.6345L19.2034 19.0185C18.3627 19.8977 17.3166 20.5782 16.1488 21.0055C14.9811 21.4327 13.7241 21.595 12.4784 21.4791C11.2327 21.3633 10.0328 20.9727 8.97485 20.3385C7.91686 19.7043 7.03009 18.8442 6.38547 17.8269C5.74085 16.8096 5.35628 15.6633 5.26251 14.4799C5.16874 13.2964 5.36838 12.1086 5.84546 11.0113C6.32254 9.91413 7.06382 8.93801 8.01 8.16106C8.95618 7.38412 10.081 6.82791 11.2945 6.53693L11.2945 6.52891ZM16.5008 8.76836C15.2466 8.05885 13.7717 7.7836 12.3274 7.98952C10.8832 8.19543 9.55887 8.86977 8.58017 9.89764C7.60147 10.9255 7.0289 12.2433 6.96002 13.6266C6.89113 15.0098 7.33019 16.3729 8.20239 17.4837C9.07459 18.5944 10.326 19.384 11.7433 19.7181C13.1607 20.0521 14.6564 19.9098 15.9755 19.3155C17.2947 18.7212 18.3557 17.7117 18.9779 16.4588C19.6 15.2059 19.7448 13.7873 19.3875 12.4446C19.1854 11.6818 18.8263 10.9643 18.3309 10.3334C17.8355 9.70257 17.2136 9.17069 16.5008 8.76836Z" fill="white"/>
</svg>
