<svg width="27" height="27" viewBox="0 0 27 27" fill="none" xmlns="http://www.w3.org/2000/svg">
<path id="Vector" d="M25.5693 6.97967L13.8381 0.985447C13.4659 0.796588 13.0553 0.793851 12.6831 0.985447L0.949162 6.97967C0.429115 7.24791 0.158143 7.83364 0.294998 8.40296C0.431852 8.97501 0.938213 9.37736 1.52669 9.37736L2.73374 9.37736L2.73374 10.0534C2.73374 10.5242 3.11694 10.9047 3.58772 10.9047L4.27746 10.9047L4.27746 22.8165L3.58771 22.8165C3.11694 22.8165 2.73374 23.1997 2.73374 23.6677L2.73374 24.3438L2.19454 24.3438C1.72649 24.3438 1.3433 24.727 1.3433 25.195L1.3433 26.2789C1.3433 26.5033 1.52669 26.684 1.74839 26.684L25.1587 26.684C25.3832 26.684 25.5638 26.5033 25.5638 26.2789L25.5638 25.195C25.5638 24.7242 25.1806 24.3438 24.7098 24.3438L24.1706 24.3438L24.1706 23.6677C24.1706 23.1969 23.7902 22.8165 23.3194 22.8165L22.6269 22.8165L22.6269 10.9047L23.3194 10.9047C23.7874 10.9047 24.1706 10.5215 24.1706 10.0534L24.1706 9.37736L24.989 9.37736C25.5775 9.37736 26.0839 8.97775 26.2207 8.40843C26.3658 7.83638 26.0975 7.24791 25.5693 6.97967ZM5.09038 10.9047L7.23352 10.9047L7.23352 22.8165L5.09038 22.8165L5.09038 10.9047ZM14.5279 10.9047L14.5279 22.8165L12.3847 22.8165L12.3847 10.9047L14.5279 10.9047ZM15.3408 10.9047L18.8661 10.9047L18.8661 22.8165L15.3408 22.8165L15.3408 10.9047ZM11.5718 22.8165L8.0437 22.8165L8.0437 10.9047L11.5718 10.9047L11.5718 22.8165ZM24.7153 25.1567C24.7372 25.1567 24.7564 25.1731 24.7564 25.195L24.7564 25.8711L2.15622 25.8711L2.15622 25.195C2.15622 25.1731 2.17264 25.1567 2.19454 25.1567L2.73374 25.1567L24.1734 25.1567L24.7153 25.1567ZM23.3221 23.6294C23.3413 23.6294 23.3604 23.6485 23.3604 23.6677L23.3604 24.3438L3.54666 24.3438L3.54666 23.6677C3.54666 23.6485 3.56856 23.6294 3.58771 23.6294L4.27746 23.6294L8.0437 23.6294L11.5718 23.6294L15.3408 23.6294L18.8661 23.6294L22.6324 23.6294L23.3221 23.6294ZM21.8195 22.8165L19.6763 22.8165L19.6763 10.9047L21.8195 10.9047L21.8195 22.8165ZM23.3604 10.0534C23.3604 10.0726 23.3413 10.0917 23.3221 10.0917L22.6296 10.0917L18.8661 10.0917L15.3408 10.0917L11.5718 10.0917L8.0437 10.0917L4.27746 10.0917L3.58772 10.0917C3.56582 10.0917 3.54666 10.0726 3.54666 10.0534L3.54666 9.37736L23.3604 9.37736L23.3604 10.0534ZM25.4352 8.21684C25.3859 8.42486 25.208 8.56445 24.9945 8.56445L24.1761 8.56445L2.73374 8.56445L1.52669 8.56445C1.31319 8.56445 1.13528 8.42485 1.08602 8.21684C1.03675 8.00608 1.12981 7.8008 1.31867 7.70226L13.0526 1.70804C13.121 1.67246 13.1894 1.65603 13.2606 1.65603C13.329 1.65603 13.4002 1.67246 13.4686 1.70804L25.2025 7.70226C25.3914 7.8008 25.4872 8.00608 25.4352 8.21684Z" fill="white"/>
</svg>
