<svg width="30" height="30" viewBox="0 0 30 30" fill="none" xmlns="http://www.w3.org/2000/svg">
<path d="M26.6406 19.9997L26.6032 19.9623L23.7945 18.2021C23.008 17.6404 22.1467 17.4906 21.2479 17.7527C20.1993 18.0523 19.3005 18.9886 18.8511 20.187C18.5889 20.9359 18.1395 21.1981 17.3531 21.0857C14.4695 20.7113 9.56354 15.5432 9.26394 12.5846C9.18904 11.7608 9.45119 11.3114 10.2002 11.0867C11.2488 10.6747 11.9978 9.92572 12.2974 8.98947C12.5595 8.05323 12.3723 7.07953 11.7356 6.18074L9.97548 3.372L9.93803 3.33455C9.07669 2.17361 8.17789 1.57442 7.09185 1.49952C5.74366 1.38717 4.28312 2.13616 2.67278 3.7465C-1.18455 7.60383 2.11103 16.7416 7.6536 22.2841C11.5109 26.1415 17.1284 28.9502 21.51 28.9502C23.3076 28.9502 24.8805 28.4634 26.0414 27.4148C26.1163 27.3773 26.1912 27.3399 26.2287 27.265C27.839 25.6546 28.588 24.1941 28.4757 22.8459C28.4008 21.7598 27.8016 20.8236 26.6406 19.9997ZM25.255 26.0666C25.2175 26.104 25.1426 26.1415 25.1052 26.1789C22.1467 29.1375 14.1699 26.7032 8.66474 21.1981C3.19707 15.7304 0.800287 7.75363 3.75882 4.7951C5.03211 3.5218 6.11816 2.88516 7.01695 2.96006C7.61615 2.99751 8.17789 3.40945 8.73964 4.15845L10.4998 6.96718L10.5372 7.00463C10.9117 7.49148 11.0241 8.05323 10.8743 8.54007C10.7245 9.02692 10.3125 9.43887 9.67589 9.66357C8.32769 10.113 7.61615 11.2365 7.76595 12.7344C8.14044 16.4045 13.5707 22.0969 17.1658 22.5837C17.3156 22.6212 17.5029 22.6212 17.6527 22.6212C18.8885 22.6212 19.8248 21.9471 20.2742 20.7487C20.5738 19.9997 21.0981 19.4005 21.6973 19.2133C22.1092 19.1009 22.5212 19.1758 22.9331 19.4754L22.9706 19.5129L25.7793 21.273C26.5657 21.8347 26.9402 22.3965 26.9777 22.9957C27.0526 23.7821 26.4534 24.8307 25.255 26.0666Z" fill="white"/>
<path d="M15.4052 1.0498C14.9933 1.0498 14.6562 1.38685 14.6562 1.7988C14.6562 2.21075 14.9933 2.5478 15.4052 2.5478C22.0713 2.5478 27.5015 7.97801 27.5015 14.6441C27.5015 15.056 27.8386 15.3931 28.2505 15.3931C28.6625 15.3931 28.9995 15.056 28.9995 14.6441C28.9995 7.11667 22.8952 1.0498 15.4052 1.0498Z" fill="white"/>
<path d="M15.4052 5.58173C20.3861 5.58173 24.4681 9.62631 24.4681 14.6446C24.4681 15.0565 24.8051 15.3936 25.2171 15.3936C25.629 15.3936 25.9661 15.0565 25.9661 14.6446C25.9661 8.83986 21.2474 4.08374 15.4052 4.08374C14.9933 4.08374 14.6562 4.42079 14.6562 4.83274C14.6562 5.24468 14.9933 5.58173 15.4052 5.58173Z" fill="white"/>
<path d="M15.4052 8.68974C18.7008 8.68974 21.3598 11.3487 21.3598 14.6068C21.3598 15.0187 21.6968 15.3558 22.1088 15.3558C22.5207 15.3558 22.8578 15.0187 22.8578 14.6068C22.8578 10.4873 19.5247 7.1543 15.4052 7.1543C14.9933 7.1543 14.6562 7.49134 14.6562 7.90329C14.6562 8.35269 14.9933 8.68974 15.4052 8.68974Z" fill="white"/>
</svg>
