<svg width="23" height="21" viewBox="0 0 23 21" fill="none" xmlns="http://www.w3.org/2000/svg">
<g id="Group">
<path id="Vector" d="M19.4222 0.287109H8.8283C8.04784 0.287109 7.29934 0.597148 6.74746 1.14902C6.19559 1.70089 5.88555 2.44939 5.88555 3.22986V7.34971H2.9428C2.16234 7.34971 1.41384 7.65975 0.861963 8.21162C0.310091 8.76349 5.18533e-05 9.51199 5.18533e-05 10.2925V19.7093C-0.00179755 19.8472 0.0458778 19.9813 0.134426 20.0871C0.222974 20.1929 0.346527 20.2635 0.482663 20.286H0.588602C0.712377 20.2934 0.835409 20.2623 0.940795 20.197C1.04618 20.1317 1.12875 20.0353 1.17715 19.9211C1.56549 18.9911 2.21909 18.1959 3.05641 17.6349C3.89372 17.0739 4.87769 16.7719 5.88555 16.7665H12.3596C13.1401 16.7665 13.8886 16.4565 14.4404 15.9046C14.9923 15.3527 15.3024 14.6042 15.3024 13.8238V12.0581H16.5736C17.5815 12.0635 18.5654 12.3655 19.4028 12.9265C20.2401 13.4876 20.8937 14.2827 21.282 15.2127C21.3264 15.3234 21.4027 15.4182 21.5013 15.4853C21.5998 15.5524 21.7161 15.5886 21.8353 15.5894H21.9412C22.0685 15.5546 22.18 15.4772 22.2571 15.3701C22.3343 15.263 22.3723 15.1326 22.365 15.0009V3.22986C22.365 2.44939 22.0549 1.70089 21.503 1.14902C20.9512 0.597148 20.2027 0.287109 19.4222 0.287109ZM14.1253 10.881H8.8283C8.36002 10.881 7.91092 10.695 7.5798 10.3639C7.24867 10.0327 7.06265 9.58364 7.06265 9.11536V8.52681H12.3596C12.8279 8.52681 13.277 8.71283 13.6081 9.04396C13.9392 9.37508 14.1253 9.82418 14.1253 10.2925V10.881ZM14.1253 13.8238C14.1253 14.292 13.9392 14.7411 13.6081 15.0723C13.277 15.4034 12.8279 15.5894 12.3596 15.5894H5.297C5.23085 15.5772 5.16304 15.5772 5.09689 15.5894C3.56491 15.7517 2.15762 16.5081 1.17715 17.6964V10.2925C1.17715 9.82418 1.36317 9.37508 1.6943 9.04396C2.02542 8.71283 2.47452 8.52681 2.9428 8.52681H5.88555V9.11536C5.88555 9.89582 6.19559 10.6443 6.74746 11.1962C7.29934 11.7481 8.04784 12.0581 8.8283 12.0581H14.1253V13.8238ZM21.1879 12.988C20.6218 12.3182 19.9145 11.7819 19.1168 11.4176C18.319 11.0533 17.4505 10.8701 16.5736 10.881H15.3024V10.2925C15.3024 9.51199 14.9923 8.76349 14.4404 8.21162C13.8886 7.65975 13.1401 7.34971 12.3596 7.34971H7.06265V3.22986C7.06265 2.76158 7.24867 2.31248 7.5798 1.98136C7.91092 1.65023 8.36002 1.46421 8.8283 1.46421H19.4222C19.8905 1.46421 20.3396 1.65023 20.6707 1.98136C21.0018 2.31248 21.1879 2.76158 21.1879 3.22986V12.988Z" fill="white"/>
</g>
</svg>
