<svg width="27" height="32" viewBox="0 0 27 32" fill="none" xmlns="http://www.w3.org/2000/svg">
<g id="Group 12253">
<path id="Vector" d="M16.8957 15.5368C19.1874 13.7265 20.729 10.3579 20.729 7.15785C20.729 2.5261 17.479 0 13.4374 0C9.39575 0 6.14578 2.52648 6.14578 7.15785C6.14578 10.3578 7.68736 13.7686 9.97908 15.5368C4.39587 16.8001 0.3125 20.9683 0.3125 24.8421C0.3125 29.4739 6.18752 32 13.4374 32C14.7709 32 16.0624 31.9157 17.3122 31.7474C15.9377 30.5685 15.1042 28.8841 15.1042 26.9474C15.1042 23.4526 17.8958 20.6316 21.3541 20.6316C23.354 20.6316 25.1458 21.5999 26.3125 23.0737C25.3127 19.7892 21.6459 16.6313 16.8959 15.5368L16.8957 15.5368Z" fill="#12486B"/>
<path id="Vector_2" d="M21.3544 22.9473C21.021 22.9473 20.7295 23.2421 20.7295 23.5787V26.3154L18.0214 26.3157C17.688 26.3157 17.3965 26.6106 17.3965 26.9472C17.3965 27.2841 17.6883 27.5786 18.0214 27.5786H20.7295V30.3157C20.7295 30.6525 21.0213 30.9471 21.3544 30.9471C21.6878 30.9471 21.9793 30.6522 21.9793 30.3157V27.5789H24.6877C25.0211 27.5789 25.3126 27.2841 25.3126 26.9475C25.3126 26.6106 25.0208 26.316 24.6877 26.316H21.9796V23.579C21.9796 23.2421 21.6878 22.9473 21.3544 22.9473Z" fill="#12486B"/>
</g>
</svg>
