<svg width="26" height="32" viewBox="0 0 26 32" fill="none" xmlns="http://www.w3.org/2000/svg">
<path d="M16.5832 15.5368C18.8749 13.7265 20.4165 10.3579 20.4165 7.15785C20.4165 2.5261 17.1665 0 13.1249 0C9.08325 0 5.83328 2.52648 5.83328 7.15785C5.83328 10.3578 7.37486 13.7686 9.66658 15.5368C4.08337 16.8001 0 20.9683 0 24.8421C0 29.4739 5.87502 32 13.1249 32C14.4584 32 15.7499 31.9157 16.9997 31.7474C15.6252 30.5685 14.7917 28.8841 14.7917 26.9474C14.7917 23.4526 17.5833 20.6316 21.0416 20.6316C23.0415 20.6316 24.8333 21.5999 26 23.0737C25.0002 19.7892 21.3334 16.6313 16.5834 15.5368L16.5832 15.5368Z" fill="white"/>
<path d="M21.0419 22.9473C20.7085 22.9473 20.417 23.2421 20.417 23.5787V26.3154L17.7089 26.3157C17.3755 26.3157 17.084 26.6106 17.084 26.9472C17.084 27.2841 17.3758 27.5786 17.7089 27.5786H20.417V30.3157C20.417 30.6525 20.7088 30.9471 21.0419 30.9471C21.3753 30.9471 21.6668 30.6522 21.6668 30.3157V27.5789H24.3752C24.7086 27.5789 25.0001 27.2841 25.0001 26.9475C25.0001 26.6106 24.7083 26.316 24.3752 26.316H21.6671V23.579C21.6671 23.2421 21.3753 22.9473 21.0419 22.9473Z" fill="white"/>
</svg>
