<svg width="29" height="32" viewBox="0 0 29 32" fill="none" xmlns="http://www.w3.org/2000/svg">
<g id="Group 1000002184">
<g id="Group">
<g id="Group_2">
<path id="Vector" d="M19.5713 21.425C19.8287 21.15 20.1633 20.75 20.1633 20.225C20.1633 19.7 19.8287 19.3 19.5713 19.025C19.4941 18.925 19.3654 18.775 19.3397 18.725C19.3139 18.65 19.3397 18.45 19.3397 18.325C19.3654 17.95 19.3911 17.45 19.0823 17.025C18.7734 16.6 18.2586 16.475 17.8725 16.4C17.7438 16.375 17.5379 16.325 17.4864 16.275C17.4349 16.225 17.332 16.05 17.2548 15.95C17.0488 15.625 16.7657 15.2 16.2509 15.05C16.1222 15 15.9935 15 15.8391 15C15.4787 15 15.1698 15.125 14.9124 15.225C14.7837 15.275 14.5778 15.35 14.5006 15.35C14.4234 15.35 14.2175 15.275 14.0888 15.225C13.8056 15.125 13.4968 15 13.1621 15C13.0335 15 12.879 15.025 12.7503 15.05C12.2355 15.225 11.9524 15.65 11.7465 15.95C11.6693 16.05 11.5663 16.225 11.5148 16.275C11.4633 16.325 11.2574 16.375 11.1287 16.4C10.7684 16.5 10.2536 16.6 9.91896 17.025C9.61008 17.45 9.63582 17.95 9.66156 18.325C9.66156 18.45 9.6873 18.675 9.66156 18.725C9.63582 18.775 9.50712 18.95 9.4299 19.025C9.17251 19.3 8.83789 19.7 8.83789 20.225C8.83789 20.75 9.17251 21.15 9.4299 21.425C9.50712 21.525 9.63582 21.675 9.66156 21.725C9.6873 21.8 9.66156 22 9.66156 22.125C9.63582 22.5 9.61008 23 9.91896 23.425C10.2278 23.85 10.7426 23.975 11.1287 24.05C11.2574 24.075 11.4633 24.125 11.5148 24.175C11.5663 24.225 11.6693 24.4 11.7465 24.5C11.9524 24.825 12.2355 25.25 12.7503 25.4C12.879 25.45 13.0077 25.45 13.1621 25.45C13.5225 25.45 13.8314 25.325 14.0888 25.225C14.2175 25.175 14.4234 25.1 14.5006 25.1C14.5778 25.1 14.7837 25.175 14.9124 25.225C15.1956 25.325 15.5045 25.45 15.8391 25.45C15.9678 25.45 16.1222 25.425 16.2509 25.4C16.7657 25.225 17.0488 24.8 17.2548 24.5C17.332 24.4 17.4349 24.225 17.4864 24.175C17.5379 24.125 17.7438 24.075 17.8725 24.05C18.2329 23.95 18.7477 23.85 19.0823 23.425C19.3911 23 19.3654 22.5 19.3397 22.125C19.3397 22 19.3139 21.775 19.3397 21.725C19.3654 21.675 19.4941 21.525 19.5713 21.425ZM18.9021 20.9C18.7476 21.075 18.5675 21.275 18.4903 21.475C18.413 21.7 18.4388 21.95 18.4645 22.2C18.4903 22.475 18.516 22.775 18.3873 22.925C18.2586 23.1 17.9755 23.175 17.6923 23.225C17.4349 23.275 17.1775 23.35 16.9974 23.475C16.8172 23.6 16.6627 23.825 16.534 24.025C16.3796 24.275 16.2252 24.5 15.9935 24.575C15.942 24.6 15.9163 24.6 15.8648 24.6C15.6846 24.6 15.4787 24.525 15.2728 24.425C15.0411 24.325 14.7837 24.225 14.5263 24.225C14.269 24.225 14.0373 24.325 13.7799 24.425C13.574 24.5 13.3681 24.6 13.1879 24.6C13.1364 24.6 13.0849 24.6 13.0592 24.575C12.8533 24.5 12.6731 24.25 12.5187 24.025C12.39 23.825 12.2355 23.6 12.0553 23.475C11.8494 23.35 11.6178 23.275 11.3604 23.225C11.0772 23.15 10.7941 23.1 10.6654 22.925C10.5367 22.75 10.5624 22.475 10.5882 22.2C10.6139 21.95 10.6139 21.7 10.5367 21.475C10.4595 21.275 10.305 21.075 10.1249 20.9C9.94469 20.675 9.73878 20.45 9.73878 20.225C9.73878 20 9.94469 19.775 10.1249 19.55C10.2793 19.375 10.4595 19.175 10.5367 18.975C10.6139 18.75 10.5882 18.5 10.5624 18.25C10.5367 17.975 10.511 17.675 10.6397 17.525C10.7684 17.35 11.0515 17.275 11.3346 17.225C11.592 17.175 11.8494 17.1 12.0296 16.975C12.2098 16.85 12.3642 16.625 12.4929 16.425C12.6474 16.175 12.8018 15.95 13.0335 15.875C13.0849 15.85 13.1107 15.85 13.1621 15.85C13.3423 15.85 13.5482 15.925 13.7542 16.025C13.9858 16.125 14.2432 16.225 14.5006 16.225C14.758 16.225 14.9897 16.125 15.2471 16.025C15.453 15.95 15.6589 15.85 15.8391 15.85C15.8906 15.85 15.942 15.85 15.9678 15.875C16.1737 15.95 16.3539 16.2 16.5083 16.425C16.637 16.625 16.7914 16.85 16.9716 16.975C17.1775 17.1 17.4092 17.175 17.6666 17.225C17.9497 17.3 18.2329 17.35 18.3616 17.525C18.4903 17.7 18.4645 17.975 18.4388 18.25C18.413 18.5 18.413 18.75 18.4645 18.975C18.5417 19.175 18.6962 19.375 18.8763 19.55C19.0565 19.775 19.2624 20 19.2624 20.225C19.2882 20.45 19.0823 20.675 18.9021 20.9ZM16.0192 19.725C15.3243 19.725 14.9897 20.175 14.9897 21.1C14.9897 21.55 15.0669 21.875 15.2471 22.125C15.4272 22.35 15.6846 22.475 16.0192 22.475C16.3539 22.475 16.6113 22.35 16.7914 22.125C16.9716 21.9 17.0488 21.55 17.0488 21.1C17.0488 20.65 16.9459 20.325 16.7657 20.075C16.6113 19.85 16.3539 19.725 16.0192 19.725ZM16.0192 21.85C15.9163 21.85 15.8391 21.8 15.8133 21.675C15.7619 21.55 15.7361 21.35 15.7361 21.1C15.7361 20.85 15.7619 20.65 15.8133 20.525C15.8648 20.4 15.942 20.35 16.0192 20.35C16.1994 20.35 16.3024 20.6 16.3024 21.1C16.3281 21.6 16.2252 21.85 16.0192 21.85ZM13.7542 20.375C13.9343 20.15 14.0116 19.8 14.0116 19.35C14.0116 18.9 13.9086 18.575 13.7284 18.325C13.5482 18.1 13.2908 17.975 12.9562 17.975C12.2613 17.975 11.9266 18.425 11.9266 19.35C11.9266 19.8 12.0039 20.15 12.184 20.375C12.3642 20.6 12.6216 20.725 12.9562 20.725C13.3166 20.725 13.574 20.625 13.7542 20.375ZM12.7503 19.925C12.6988 19.8 12.6731 19.6 12.6731 19.35C12.6731 19.1 12.6988 18.9 12.7503 18.775C12.8018 18.65 12.879 18.6 12.9562 18.6C13.1364 18.6 13.2394 18.85 13.2394 19.35C13.2394 19.85 13.1364 20.1 12.9562 20.1C12.879 20.1 12.8018 20.05 12.7503 19.925ZM15.35 18.05L12.9305 22.425H13.6512L16.0707 18.05H15.35Z" fill="white"/>
</g>
</g>
<g id="Gruppe 13320">
<path id="Path 11101" fill-rule="evenodd" clip-rule="evenodd" d="M8.43543 6.87636V5.93244C8.45155 4.35406 9.09586 2.84571 10.2284 1.73496C11.361 0.624213 12.8903 0.000759806 14.4844 0C16.0784 0.000759806 17.6078 0.624213 18.7403 1.73496C19.8729 2.84571 20.5172 4.35406 20.5333 5.93244V6.87476H24.9514C25.2297 6.87499 25.4982 6.97713 25.7051 7.16155C25.912 7.34596 26.0428 7.59962 26.0722 7.87374L28.5 30.8829C28.4987 31.1788 28.3795 31.4622 28.1682 31.6714C27.9569 31.8806 27.6707 31.9987 27.3719 32H1.6355C0.944953 32 0.431675 31.601 0.507418 30.8829L2.94408 7.87374C2.97343 7.60031 3.1036 7.34719 3.30966 7.16287C3.51572 6.97855 3.7832 6.87597 4.06088 6.87476L8.43543 6.87636ZM18.2828 9.1057H10.686V10.9409C10.686 11.2371 10.5671 11.5213 10.3555 11.7308C10.144 11.9403 9.85706 12.0579 9.55787 12.0579C9.25868 12.0579 8.97175 11.9403 8.76019 11.7308C8.54864 11.5213 8.42979 11.2371 8.42979 10.9409V9.1057H5.07938L2.88606 29.7659H26.1238L23.9345 9.1065H20.5325V10.9417C20.5325 11.2379 20.4137 11.5221 20.2021 11.7316C19.9905 11.9411 19.7036 12.0587 19.4044 12.0587C19.1052 12.0587 18.8183 11.9411 18.6067 11.7316C18.3952 11.5221 18.2763 11.2379 18.2763 10.9417L18.2828 9.1057ZM18.2828 6.87156V5.9436C18.2709 4.95365 17.8655 4.00822 17.1545 3.31222C16.4435 2.61621 15.4842 2.22571 14.4844 2.22536C13.4842 2.22572 12.5245 2.61655 11.8134 3.31307C11.1023 4.00959 10.6972 4.95563 10.686 5.946V6.87236L18.2828 6.87156Z" fill="white"/>
</g>
</g>
</svg>
