<svg width="25" height="24" viewBox="0 0 25 24" fill="none" xmlns="http://www.w3.org/2000/svg">
<path fill-rule="evenodd" clip-rule="evenodd" d="M10.7555 3.1128C8.24458 3.1128 6.20911 5.02115 6.20911 7.37522C6.20911 9.72933 8.24458 11.6377 10.7555 11.6377C13.2664 11.6377 15.3018 9.72933 15.3018 7.37522C15.3018 5.02115 13.2664 3.1128 10.7555 3.1128ZM4.91016 7.37522C4.91016 4.34856 7.52719 1.89496 10.7555 1.89496C13.9838 1.89496 16.6008 4.34856 16.6008 7.37522C16.6008 10.4019 13.9838 12.8555 10.7555 12.8555C7.52719 12.8555 4.91016 10.4019 4.91016 7.37522Z" fill="#FFFFFF"/>
<path fill-rule="evenodd" clip-rule="evenodd" d="M2.3125 19.5531C2.3125 15.1812 6.09266 11.6371 10.7557 11.6371C15.4187 11.6371 19.199 15.1812 19.199 19.5531V19.8947C19.199 20.5065 18.7418 21.0347 18.1032 21.1608L15.8282 21.6098C13.5458 22.0602 11.2122 22.2035 8.89724 22.0392C8.53958 22.0137 8.27156 21.7213 8.29865 21.3859C8.32572 21.0507 8.63761 20.7994 8.99529 20.8248C11.1881 20.9804 13.3986 20.8448 15.5606 20.4181L17.8356 19.9691C17.8731 19.9617 17.9 19.9306 17.9 19.8947V19.5531C17.9 15.8538 14.7013 12.855 10.7557 12.855C6.81004 12.855 3.61146 15.8538 3.61146 19.5531V19.8947C3.61146 19.9306 3.63832 19.9617 3.67585 19.9691L5.95089 20.4181C6.30189 20.4874 6.52653 20.8103 6.45264 21.1394C6.37874 21.4685 6.03429 21.6791 5.68329 21.6098L3.40825 21.1608C2.76963 21.0347 2.3125 20.5065 2.3125 19.8947V19.5531Z" fill="#FFFFFF"/>
<path d="M19.6816 8.89496V13.895" stroke="#FFFFFF" stroke-linecap="round" stroke-linejoin="round"/>
<path d="M17.0498 11.395H22.313" stroke="#FFFFFF" stroke-linecap="round" stroke-linejoin="round"/>
</svg>
