<svg width="30" height="20" viewBox="0 0 30 20" fill="none" xmlns="http://www.w3.org/2000/svg">
<path d="M29.0607 1.81517H26.2492C26.1256 1.81422 26.003 1.83701 25.8886 1.88223C25.7741 1.92744 25.67 1.99419 25.5822 2.07862L23.9916 3.6331H22.4984V2.72414C22.4939 2.00287 22.1965 1.31239 21.6706 0.802439C21.1446 0.292483 20.4327 0.0041614 19.689 0H2.81434C2.06984 0.0028942 1.35659 0.290656 0.829608 0.800748C0.302625 1.31084 0.00449033 2.00204 0 2.72414V17.2717C0.00336955 17.9945 0.301007 18.6868 0.82811 19.1978C1.35521 19.7088 2.0691 19.9971 2.81434 20H19.689C20.4337 19.9964 21.1467 19.7078 21.6732 19.1971C22.1997 18.6863 22.497 17.9946 22.5005 17.2724V16.3628H23.9888L25.5936 17.9172C25.768 18.0856 26.0039 18.1803 26.2499 18.1807H29.0614C29.3099 18.1798 29.548 18.0837 29.7238 17.9133C29.8996 17.7429 29.9989 17.5121 30 17.271V2.72414C29.9987 2.4831 29.8992 2.25233 29.7233 2.08208C29.5474 1.91183 29.3092 1.8159 29.0607 1.81517ZM28.1257 16.3621H26.6325L25.0312 14.8076C24.8568 14.6392 24.6209 14.5445 24.3749 14.5441H21.5598C21.3114 14.545 21.0734 14.6411 20.8977 14.8113C20.7219 14.9815 20.6225 15.2122 20.6212 15.4531V17.2717C20.6203 17.5122 20.5216 17.7427 20.3465 17.913C20.1714 18.0833 19.9341 18.1797 19.6862 18.1814H2.81434C2.56583 18.1805 2.32774 18.0844 2.15195 17.914C1.97615 17.7436 1.87688 17.5128 1.87576 17.2717V2.72414C1.87707 2.48322 1.97642 2.25255 2.1522 2.08232C2.32797 1.91209 2.56595 1.81608 2.81434 1.81517H19.689C19.9362 1.81771 20.1725 1.91446 20.3468 2.08453C20.5211 2.25461 20.6194 2.48435 20.6205 2.72414V11.8166H22.497V5.44828H24.3734C24.4965 5.44889 24.6184 5.42593 24.7322 5.38072C24.8461 5.33551 24.9496 5.26894 25.0369 5.18483L26.631 3.63034H28.1242L28.1257 16.3621Z" fill="white"/>
</svg>
