<svg width="375" height="273" viewBox="0 0 375 273" fill="none" xmlns="http://www.w3.org/2000/svg">
<g opacity="0.3">
<path d="M977.289 221.774C904.274 182.107 544.965 23.0958 279.457 162.708C70.8701 272.387 -13.6249 -35.2453 -135 96.0508" stroke="#0066A5" stroke-miterlimit="10"/>
<path d="M977.284 213.284C894.943 176.846 551.717 35.5956 287.852 161.923C79.6107 261.622 -12.4238 -27.5717 -134.738 102.806" stroke="#0066A5" stroke-miterlimit="10"/>
<path d="M977.285 204.792C885.61 171.583 558.422 48.0518 296.253 161.137C88.3076 250.834 -11.2208 -19.8992 -134.475 109.558" stroke="#0066A5" stroke-miterlimit="10"/>
<path d="M977.285 196.301C876.282 166.322 565.072 60.4624 304.652 160.353C96.9617 240.017 -10.0178 -12.2263 -134.211 116.313" stroke="#0066A5" stroke-miterlimit="10"/>
<path d="M977.284 187.808C866.952 161.06 571.668 72.8159 313.047 159.564C105.57 229.16 -8.81589 -4.557 -133.949 123.061" stroke="#0066A5" stroke-miterlimit="10"/>
<path d="M977.286 179.317C857.632 155.799 578.217 85.104 321.446 158.783C114.139 218.268 -7.61268 3.12012 -133.684 129.82" stroke="#0066A5" stroke-miterlimit="10"/>
<path d="M977.285 170.826C848.306 150.537 584.716 97.3221 329.841 157.998C122.668 207.321 -6.40967 10.7936 -133.42 136.574" stroke="#0066A5" stroke-miterlimit="10"/>
<path d="M977.285 162.335C838.984 145.275 591.171 109.451 338.234 157.212C131.16 196.314 -5.20753 18.4655 -133.156 143.327" stroke="#0066A5" stroke-miterlimit="10"/>
<path d="M977.285 153.844C829.663 140.013 597.587 121.494 346.63 156.428C139.617 185.243 -4.00344 26.1402 -132.891 150.082" stroke="#0066A5" stroke-miterlimit="10"/>
<path d="M977.284 145.353C820.341 134.751 603.969 133.442 355.017 155.647C148.047 174.108 -2.80519 33.8167 -132.631 156.838" stroke="#0066A5" stroke-miterlimit="10"/>
<path d="M977.285 136.862C811.023 129.49 610.326 145.288 363.408 154.858C156.456 162.879 -1.60305 41.4863 -132.367 163.59" stroke="#0066A5" stroke-miterlimit="10"/>
<path d="M977.286 128.37C801.707 124.228 616.666 157.029 371.798 154.072C164.846 151.574 -0.400289 49.1585 -132.105 170.343" stroke="#0066A5" stroke-miterlimit="10"/>
<path d="M977.286 119.879C792.391 118.965 622.989 168.663 380.186 153.286C173.226 140.182 0.800366 56.8348 -131.84 177.096" stroke="#0066A5" stroke-miterlimit="10"/>
<path d="M977.284 111.388C783.075 113.704 629.307 180.189 388.571 152.503C181.601 128.699 2.00117 64.5044 -131.58 183.85" stroke="#0066A5" stroke-miterlimit="10"/>
<path d="M977.286 102.894C773.762 108.44 635.634 191.605 396.958 151.715C189.98 117.124 3.20293 72.1819 -131.312 190.605" stroke="#0066A5" stroke-miterlimit="10"/>
<path d="M977.285 94.4043C764.45 103.181 641.97 202.923 405.342 150.932C198.369 105.458 4.40311 79.8507 -131.051 197.353" stroke="#0066A5" stroke-miterlimit="10"/>
<path d="M977.285 85.9131C755.139 97.9187 648.327 214.141 413.724 150.147C206.776 93.7016 5.60402 87.5235 -130.783 204.111" stroke="#0066A5" stroke-miterlimit="10"/>
<path d="M977.285 77.4219C745.83 92.6569 654.713 225.256 422.103 149.363C215.203 81.8568 6.80091 95.1972 -130.527 210.865" stroke="#0066A5" stroke-miterlimit="10"/>
<path d="M977.285 68.9316C736.522 87.3927 661.132 236.288 430.487 148.578C223.668 69.9279 8.00526 102.872 -130.26 217.618" stroke="#0066A5" stroke-miterlimit="10"/>
<path d="M977.285 60.4395C727.216 82.1333 667.592 247.239 438.867 147.791C232.167 57.9204 9.20997 110.544 -129.996 224.373" stroke="#0066A5" stroke-miterlimit="10"/>
<path d="M977.286 51.9482C717.911 76.8749 674.098 258.121 447.246 147.007C240.705 45.8416 10.407 118.217 -129.732 231.127" stroke="#0066A5" stroke-miterlimit="10"/>
<path d="M977.286 43.457C708.607 71.6113 680.652 268.943 455.624 146.221C249.288 33.6974 11.6074 125.888 -129.469 237.88" stroke="#0066A5" stroke-miterlimit="10"/>
<path d="M977.287 34.9648C699.305 66.3477 687.26 279.71 464.004 145.437C257.925 21.496 12.8117 133.563 -129.201 244.633" stroke="#0066A5" stroke-miterlimit="10"/>
<path d="M977.284 26.4746C690.002 61.0852 693.919 290.436 472.374 144.652C266.601 9.24633 14.0063 141.236 -128.943 251.388" stroke="#0066A5" stroke-miterlimit="10"/>
<path d="M977.285 17.9834C680.703 55.8234 700.638 301.13 480.746 143.867C275.331 -3.04344 15.2059 148.909 -128.68 258.142" stroke="#0066A5" stroke-miterlimit="10"/>
<path d="M977.285 9.49121C671.404 50.5614 707.408 311.8 489.121 143.082C284.12 -15.3665 16.4054 156.582 -128.416 264.895" stroke="#0066A5" stroke-miterlimit="10"/>
<path d="M977.285 1C662.107 45.3005 714.235 322.456 497.489 142.296C292.958 -27.7141 17.6058 164.255 -128.152 271.649" stroke="#0066A5" stroke-miterlimit="10"/>
</g>
</svg>
