<svg width="32" height="32" viewBox="0 0 32 32" fill="none" xmlns="http://www.w3.org/2000/svg">
<path d="M29.4607 8.24719L16.4831 1L3 8.24719V23.2472L16.4831 31L29.4607 23.2472" stroke="#016B83"/>
<path d="M19.8186 17.239C19.8186 17.22 19.8207 17.2009 19.8248 17.1829C19.6607 17.2285 19.4914 17.2695 19.3176 17.3061C18.8489 17.637 18.2364 17.9093 17.5305 18.0971C16.8352 18.2818 16.0459 18.3865 15.2101 18.3865C15.0481 18.3865 14.8881 18.3825 14.7301 18.375V19.4494C14.8875 19.4574 15.0481 19.4614 15.2101 19.4614C15.6058 19.4614 15.9846 19.4373 16.3419 19.3928C16.7151 19.3462 17.0704 19.2771 17.4007 19.189C17.5397 19.152 17.6828 19.2321 17.7207 19.3682C17.7585 19.5044 17.6767 19.6446 17.5377 19.6817C17.1829 19.7763 16.8036 19.8504 16.4074 19.8999C16.0188 19.9485 15.617 19.9745 15.2101 19.9745C15.0481 19.9745 14.8881 19.9705 14.7301 19.963V21.0369C14.888 21.0449 15.0481 21.0489 15.2101 21.0489C16.5122 21.0489 17.687 20.7826 18.5331 20.352C19.3275 19.948 19.8188 19.4073 19.8188 18.8266V18.4581C19.7078 18.5793 19.5805 18.6949 19.4389 18.804C19.3254 18.8912 19.1608 18.8721 19.0719 18.761C18.9829 18.6498 19.0024 18.4886 19.1159 18.4015C19.349 18.2218 19.5304 18.0275 19.6501 17.8243C19.7574 17.6415 19.8167 17.4478 19.8183 17.2485V17.239L19.8186 17.239ZM17.7732 17.4898C17.6562 17.4938 17.5381 17.4963 17.419 17.4963C16.2156 17.4963 14.9171 17.281 13.8548 16.7413C12.8866 16.2487 12.287 15.5493 12.287 14.7613V13.9452C11.8014 14.141 11.398 14.3833 11.1061 14.6582C10.7851 14.9601 10.6025 15.299 10.6025 15.6524C10.6025 16.2332 11.0938 16.7739 11.8877 17.1779C12.8867 17.686 14.1187 17.8748 15.2107 17.8748C15.9995 17.8748 16.7423 17.7767 17.3941 17.6034C17.5245 17.5689 17.6513 17.5308 17.7735 17.4908L17.7732 17.4898ZM12.2869 13.395V13.1732C12.2869 12.3852 12.886 11.6859 13.8543 11.1932C14.7709 10.7266 16.0316 10.4382 17.419 10.4382C17.785 10.4382 18.1459 10.4587 18.4961 10.4978C18.8514 10.5373 19.196 10.5974 19.5231 10.6745C19.6632 10.7071 19.7496 10.8447 19.7164 10.9819C19.6832 11.1191 19.5426 11.2037 19.4025 11.1712C19.0999 11.1001 18.7773 11.044 18.4389 11.0064C18.1137 10.9704 17.7728 10.9509 17.419 10.9509C16.1164 10.9509 14.9416 11.2172 14.0955 11.6478C13.3047 12.0503 12.8139 12.5885 12.8103 13.1668V13.1868C12.818 13.7626 13.3077 14.2978 14.0955 14.6988C15.0786 15.1989 16.3019 15.3957 17.419 15.3957C18.7211 15.3957 19.8959 15.1294 20.7419 14.6988C21.5358 14.2948 22.0271 13.7541 22.0271 13.1734C22.0271 12.9466 21.9525 12.7263 21.8155 12.519C21.6636 12.2902 21.4357 12.0749 21.1453 11.8817C21.0262 11.8021 20.9955 11.6429 21.0768 11.5262C21.1581 11.4096 21.3206 11.3795 21.4397 11.4591C21.7853 11.6899 22.0624 11.9533 22.2531 12.2407C22.4448 12.5295 22.5496 12.8409 22.5506 13.1669V14.761C22.5506 15.549 21.9515 16.2484 20.9828 16.741C20.7599 16.8547 20.516 16.9573 20.2553 17.0484C20.3085 17.0955 20.3422 17.1636 20.3422 17.2392V18.8268C20.3422 19.6148 19.7431 20.3141 18.7744 20.8068C17.8583 21.2734 16.5971 21.5618 15.2102 21.5618C14.9889 21.5618 14.7711 21.5543 14.5569 21.5403C14.5293 21.5498 14.4996 21.5553 14.4685 21.5553C14.423 21.5553 14.3795 21.5438 14.3422 21.5232C13.5979 21.4567 12.9082 21.3065 12.3116 21.0922L12.3003 21.0927C12.2283 21.0927 12.1633 21.0641 12.1163 21.0186C11.9512 20.953 11.7943 20.8824 11.6465 20.8073C10.6778 20.3147 10.0787 19.6153 10.0787 18.8273V15.6457C10.0807 15.148 10.3215 14.6869 10.7438 14.2894C11.1231 13.933 11.6532 13.6271 12.2871 13.3958L12.2869 13.395ZM10.6024 16.8715V17.239C10.6024 17.8198 11.0937 18.3605 11.8881 18.7644C11.9372 18.7895 11.9873 18.814 12.0389 18.8375V17.8117C11.9019 17.7551 11.7711 17.6951 11.6463 17.6315C11.2205 17.4147 10.8662 17.1584 10.6024 16.8715ZM12.5625 18.0015V19.0484C13.0512 19.2176 13.6074 19.3412 14.207 19.4073V18.3354C13.6155 18.2744 13.0609 18.1597 12.5625 18.002V18.0015ZM12.8109 14.3934V14.7608C12.8109 15.3416 13.3027 15.8823 14.0966 16.2863C14.1329 16.3048 14.1697 16.3228 14.2071 16.3408V15.317C14.0849 15.2654 13.9668 15.2109 13.8543 15.1533C13.4285 14.9365 13.0742 14.6797 12.8104 14.3933L12.8109 14.3934ZM14.7311 16.5562C15.2183 16.7289 15.7745 16.8555 16.3756 16.9246V15.8532C15.7831 15.7892 15.2284 15.6715 14.7311 15.5113V16.5566V16.5562ZM16.8991 16.9687C17.0698 16.9782 17.2436 16.9832 17.4195 16.9832C18.0324 16.9832 18.6173 16.9241 19.153 16.8165L19.1592 16.8155C19.7588 16.6948 20.2961 16.5131 20.7424 16.2863C21.5369 15.8823 22.0281 15.3416 22.0281 14.7609V14.3934C21.7643 14.6803 21.4101 14.9366 20.9842 15.1539C20.0676 15.6205 18.8069 15.9089 17.4196 15.9089C17.2442 15.9089 17.0704 15.9044 16.8997 15.8953V16.9692L16.8991 16.9687ZM10.6025 18.4592V18.8266C10.6025 19.4074 11.0938 19.9481 11.8882 20.3521C11.9373 20.3771 11.9879 20.4016 12.039 20.4252V19.3993C11.9025 19.3428 11.7711 19.2827 11.6469 19.2191C11.221 19.0023 10.8663 18.746 10.603 18.4591L10.6025 18.4592ZM12.5625 19.5891V20.636C13.0513 20.8052 13.6075 20.9289 14.2071 20.9949V19.9231C13.6156 19.862 13.0609 19.7468 12.5625 19.5896V19.5891ZM18.4614 18.8011C18.5908 18.7385 18.7472 18.7906 18.8111 18.9172C18.875 19.0439 18.8218 19.1971 18.6925 19.2597L18.5085 19.3453L18.3183 19.4254C18.1844 19.4785 18.032 19.4149 17.9778 19.2842C17.9236 19.1531 17.9886 19.0039 18.122 18.9508L18.2938 18.8787L18.4614 18.8011ZM20.7072 11.0631C20.8385 11.1206 20.8978 11.2718 20.8391 11.4005C20.7803 11.5292 20.6259 11.5872 20.4945 11.5297L20.3263 11.4586L20.1504 11.3925C20.015 11.3439 19.9454 11.1967 19.995 11.0641C20.0446 10.9314 20.1949 10.8633 20.3304 10.9119L20.5226 10.9849L20.7077 11.063L20.7072 11.0631Z" fill="#016B83"/>
</svg>
