<svg width="123" height="48" viewBox="0 0 123 48" fill="none" xmlns="http://www.w3.org/2000/svg">
<path d="M40.5527 12.4113L21.1543 1.57839L1 12.4113V34.8329L21.1543 46.4216L40.5527 34.8329" stroke="#016B83" stroke-width="2"/>
<path d="M26.14 25.852C26.14 25.8236 26.1431 25.7951 26.1492 25.7682C25.9039 25.8363 25.651 25.8976 25.3911 25.9523C24.6904 26.4469 23.775 26.854 22.7197 27.1347C21.6805 27.4108 20.5006 27.5672 19.2513 27.5672C19.0091 27.5672 18.7699 27.5613 18.5338 27.55V29.156C18.7691 29.168 19.0091 29.174 19.2513 29.174C19.8428 29.174 20.409 29.138 20.9432 29.0714C21.501 29.0018 22.0321 28.8986 22.5257 28.7669C22.7336 28.7115 22.9475 28.8312 23.0041 29.0348C23.0606 29.2383 22.9383 29.4479 22.7305 29.5032C22.2002 29.6447 21.6332 29.7554 21.041 29.8295C20.4602 29.9021 19.8596 29.941 19.2513 29.941C19.0091 29.941 18.7699 29.935 18.5338 29.9238V31.529C18.7699 31.541 19.0091 31.547 19.2513 31.547C21.1976 31.547 22.9537 31.1489 24.2184 30.5053C25.4059 29.9014 26.1402 29.0931 26.1402 28.2251V27.6743C25.9744 27.8554 25.7841 28.0283 25.5725 28.1914C25.4028 28.3216 25.1568 28.2932 25.0238 28.1271C24.8908 27.9609 24.9199 27.72 25.0895 27.5897C25.438 27.3211 25.7093 27.0307 25.8881 26.7269C26.0485 26.4537 26.1372 26.1641 26.1395 25.8663V25.852L26.14 25.852ZM23.0826 26.2269C22.9076 26.2329 22.7311 26.2366 22.5531 26.2366C20.7543 26.2366 18.8134 25.9149 17.2255 25.1081C15.7782 24.3717 14.8819 23.3263 14.8819 22.1484V20.9286C14.156 21.2212 13.5531 21.5834 13.1168 21.9942C12.6369 22.4455 12.3641 22.9521 12.3641 23.4805C12.3641 24.3486 13.0984 25.1568 14.2851 25.7607C15.7783 26.5202 17.6199 26.8024 19.2522 26.8024C20.4313 26.8024 21.5416 26.6557 22.5159 26.3968C22.7108 26.3451 22.9003 26.2883 23.0829 26.2284L23.0826 26.2269ZM14.8817 20.1061V19.7746C14.8817 18.5967 15.7773 17.5513 17.2247 16.8149C18.5948 16.1174 20.4793 15.6864 22.5531 15.6864C23.1002 15.6864 23.6397 15.7171 24.1631 15.7754C24.6942 15.8345 25.2093 15.9243 25.6983 16.0396C25.9077 16.0882 26.0369 16.294 25.9872 16.4991C25.9375 16.7041 25.7274 16.8306 25.518 16.782C25.0656 16.6757 24.5835 16.5919 24.0776 16.5357C23.5916 16.4819 23.0819 16.4527 22.5531 16.4527C20.606 16.4527 18.85 16.8508 17.5853 17.4944C16.4031 18.0961 15.6695 18.9006 15.6642 19.765V19.7949C15.6757 20.6555 16.4077 21.4555 17.5853 22.055C19.0547 22.8026 20.8833 23.0967 22.5531 23.0967C24.4994 23.0967 26.2554 22.6986 27.5201 22.055C28.7069 21.4511 29.4412 20.6428 29.4412 19.7748C29.4412 19.4358 29.3297 19.1065 29.1249 18.7967C28.8979 18.4547 28.5571 18.1329 28.1231 17.844C27.945 17.7251 27.8992 17.4871 28.0207 17.3127C28.1422 17.1384 28.3852 17.0934 28.5632 17.2124C29.0798 17.5574 29.4939 17.9511 29.779 18.3806C30.0655 18.8124 30.2222 19.2779 30.2237 19.7651V22.148C30.2237 23.3259 29.3281 24.3713 27.8801 25.1077C27.547 25.2776 27.1825 25.431 26.7927 25.5672C26.8722 25.6375 26.9226 25.7393 26.9226 25.8523V28.2254C26.9226 29.4033 26.0271 30.4487 24.5791 31.1851C23.2097 31.8826 21.3245 32.3136 19.2515 32.3136C18.9206 32.3136 18.5951 32.3024 18.2749 32.2815C18.2337 32.2957 18.1893 32.3039 18.1427 32.3039C18.0747 32.3039 18.0098 32.2867 17.954 32.256C16.8414 32.1565 15.8105 31.932 14.9187 31.6117L14.9019 31.6124C14.7941 31.6124 14.6971 31.5698 14.6268 31.5017C14.38 31.4036 14.1454 31.2981 13.9246 31.1859C12.4765 30.4495 11.581 29.404 11.581 28.2261V23.4704C11.5841 22.7265 11.944 22.0373 12.5751 21.4431C13.1421 20.9102 13.9346 20.453 14.8821 20.1072L14.8817 20.1061ZM12.3639 25.3027V25.852C12.3639 26.7201 13.0982 27.5284 14.2857 28.1322C14.3591 28.1696 14.434 28.2063 14.5111 28.2415V26.7081C14.3063 26.6235 14.1107 26.5337 13.9243 26.4387C13.2877 26.1147 12.7582 25.7316 12.3639 25.3027ZM15.2937 26.9918V28.5566C16.0243 28.8096 16.8556 28.9944 17.7519 29.0932V27.4909C16.8678 27.3996 16.0387 27.2283 15.2937 26.9925V26.9918ZM15.6651 21.5984V22.1477C15.6651 23.0158 16.4002 23.824 17.5869 24.4279C17.6412 24.4556 17.6962 24.4825 17.752 24.5095V22.9791C17.5694 22.902 17.3928 22.8204 17.2247 22.7344C16.5882 22.4103 16.0586 22.0264 15.6643 21.5984L15.6651 21.5984ZM18.5353 24.8313C19.2635 25.0895 20.0949 25.2788 20.9935 25.3821V23.7806C20.1078 23.6848 19.2787 23.509 18.5353 23.2695V24.8321V24.8313ZM21.7759 25.448C22.0312 25.4622 22.291 25.4697 22.5539 25.4697C23.4701 25.4697 24.3443 25.3814 25.1451 25.2205L25.1542 25.219C26.0506 25.0386 26.8537 24.767 27.5209 24.428C28.7084 23.8241 29.4427 23.0158 29.4427 22.1478V21.5985C29.0484 22.0273 28.5189 22.4105 27.8823 22.7353C26.5122 23.4327 24.6277 23.8638 22.554 23.8638C22.2919 23.8638 22.032 23.857 21.7768 23.8436V25.4488L21.7759 25.448ZM12.364 27.6759V28.2252C12.364 29.0933 13.0983 29.9015 14.2858 30.5054C14.3592 30.5428 14.4348 30.5794 14.5112 30.6146V29.0812C14.3072 28.9967 14.1108 28.9069 13.9251 28.8118C13.2886 28.4878 12.7583 28.1046 12.3647 27.6758L12.364 27.6759ZM15.2938 29.3649V30.9297C16.0243 31.1827 16.8557 31.3675 17.752 31.4663V29.8641C16.8679 29.7728 16.0388 29.6007 15.2938 29.3657V29.3649ZM24.1113 28.187C24.3046 28.0935 24.5385 28.1713 24.634 28.3606C24.7295 28.55 24.65 28.779 24.4567 28.8725L24.1816 29.0005L23.8973 29.1202C23.6971 29.1995 23.4694 29.1045 23.3884 28.9092C23.3074 28.7131 23.4045 28.4901 23.6039 28.4108L23.8607 28.303L24.1113 28.187ZM27.4682 16.6204C27.6646 16.7064 27.7532 16.9324 27.6653 17.1248C27.5774 17.3171 27.3467 17.4039 27.1503 17.3178L26.8989 17.2116L26.636 17.1128C26.4335 17.0402 26.3296 16.8202 26.4037 16.6219C26.4778 16.4235 26.7025 16.3218 26.905 16.3944L27.1923 16.5036L27.4689 16.6204L27.4682 16.6204Z" fill="#016B83"/>
<path d="M47.579 9.25996H43.2622V6.59727H55.0628V9.25996H50.746V21H47.579V9.25996ZM56.4209 6.59727H59.2853V12.0235H59.3459C59.7089 11.4183 60.1729 10.9813 60.7377 10.7123C61.3025 10.4299 61.8539 10.2887 62.3918 10.2887C63.1583 10.2887 63.7837 10.3963 64.2678 10.6115C64.7654 10.8132 65.1554 11.1023 65.4378 11.4789C65.7202 11.842 65.9152 12.2925 66.0228 12.8304C66.1438 13.3549 66.2043 13.9398 66.2043 14.5853V21H63.3399V15.1098C63.3399 14.2491 63.2054 13.6104 62.9365 13.1935C62.6675 12.7631 62.1901 12.548 61.5042 12.548C60.7243 12.548 60.1595 12.7833 59.8098 13.254C59.4602 13.7112 59.2853 14.471 59.2853 15.5334V21H56.4209V6.59727ZM68.3783 10.5711H71.1015V12.5076H71.1418C71.2763 12.1849 71.4579 11.889 71.6865 11.6201C71.9151 11.3377 72.1773 11.1023 72.4732 10.9141C72.769 10.7123 73.0851 10.5577 73.4213 10.4501C73.7575 10.3425 74.1071 10.2887 74.4702 10.2887C74.6585 10.2887 74.8669 10.3223 75.0955 10.3896V13.0523C74.9611 13.0254 74.7997 13.0052 74.6114 12.9918C74.4231 12.9649 74.2416 12.9514 74.0668 12.9514C73.5423 12.9514 73.0985 13.0388 72.7354 13.2136C72.3723 13.3885 72.0765 13.6305 71.8479 13.9398C71.6327 14.2357 71.478 14.5853 71.3839 14.9888C71.2898 15.3922 71.2427 15.8293 71.2427 16.2999V21H68.3783V10.5711ZM79.1636 8.95738H76.2992V6.59727H79.1636V8.95738ZM76.2992 10.5711H79.1636V21H76.2992V10.5711ZM87.1883 21H84.0011L80.4307 10.5711H83.4363L85.635 17.6918H85.6754L87.8741 10.5711H90.7184L87.1883 21ZM98.9189 14.666C98.7844 13.9398 98.5423 13.3885 98.1927 13.0119C97.8565 12.6354 97.3387 12.4471 96.6394 12.4471C96.1822 12.4471 95.7989 12.5278 95.4896 12.6892C95.1938 12.8371 94.9517 13.0254 94.7634 13.254C94.5886 13.4826 94.4609 13.7247 94.3802 13.9802C94.3129 14.2357 94.2726 14.4643 94.2592 14.666H98.9189ZM94.2592 16.4815C94.2995 17.4094 94.5348 18.0818 94.9652 18.4987C95.3955 18.9156 96.0141 19.124 96.821 19.124C97.3992 19.124 97.8968 18.9828 98.3137 18.7004C98.7306 18.4045 98.9861 18.0952 99.0802 17.7725H101.602C101.198 19.0232 100.58 19.9174 99.7459 20.4554C98.9121 20.9933 97.9035 21.2622 96.7201 21.2622C95.8998 21.2622 95.1602 21.1345 94.5012 20.879C93.8423 20.61 93.2842 20.2335 92.8269 19.7493C92.3697 19.2652 92.0133 18.687 91.7578 18.0146C91.5158 17.3422 91.3947 16.6025 91.3947 15.7957C91.3947 15.0157 91.5225 14.2895 91.778 13.6171C92.0335 12.9447 92.3966 12.3664 92.8673 11.8823C93.338 11.3847 93.8961 10.9947 94.5416 10.7123C95.2005 10.4299 95.9267 10.2887 96.7201 10.2887C97.6077 10.2887 98.3809 10.4635 99.0399 10.8132C99.6988 11.1494 100.237 11.6066 100.654 12.1849C101.084 12.7631 101.393 13.4221 101.582 14.1617C101.77 14.9014 101.837 15.6746 101.783 16.4815H94.2592Z" fill="#016B83"/>
<path d="M56.616 35.5536C56.616 37.5035 56.0714 38.9559 54.9821 39.9107C53.8928 40.8521 52.3867 41.3228 50.4636 41.3228C48.5137 41.3228 47.0008 40.8521 45.9249 39.9107C44.8625 38.9694 44.3313 37.517 44.3313 35.5536V26.5973H47.4983V35.5536C47.4983 35.9436 47.532 36.3268 47.5992 36.7034C47.6664 37.0799 47.8076 37.4161 48.0228 37.712C48.238 37.9944 48.5338 38.2297 48.9104 38.418C49.3004 38.5928 49.8181 38.6802 50.4636 38.6802C51.5932 38.6802 52.3732 38.4314 52.8035 37.9339C53.2339 37.4229 53.449 36.6294 53.449 35.5536V26.5973H56.616V35.5536ZM59.0409 30.5711H61.7641V32.0235H61.8246C62.1877 31.4183 62.6584 30.9813 63.2367 30.7123C63.8149 30.4299 64.4066 30.2887 65.0118 30.2887C65.7783 30.2887 66.4037 30.3963 66.8878 30.6115C67.3854 30.8132 67.7753 31.1023 68.0578 31.4789C68.3402 31.842 68.5352 32.2925 68.6427 32.8304C68.7638 33.3549 68.8243 33.9398 68.8243 34.5853V41H65.9599V35.1098C65.9599 34.2491 65.8254 33.6104 65.5564 33.1935C65.2875 32.7631 64.8101 32.548 64.1242 32.548C63.3443 32.548 62.7794 32.7833 62.4298 33.254C62.0801 33.7112 61.9053 34.471 61.9053 35.5334V41H59.0409V30.5711ZM73.9434 28.9574H71.079V26.5973H73.9434V28.9574ZM71.079 30.5711H73.9434V41H71.079V30.5711ZM78.7405 35.7957C78.7405 36.2125 78.7808 36.6227 78.8615 37.0261C78.9422 37.4161 79.0767 37.7725 79.265 38.0952C79.4667 38.4045 79.7289 38.6533 80.0517 38.8416C80.3744 39.0299 80.7779 39.124 81.262 39.124C81.7461 39.124 82.1496 39.0299 82.4723 38.8416C82.8085 38.6533 83.0707 38.4045 83.259 38.0952C83.4607 37.7725 83.6019 37.4161 83.6826 37.0261C83.7633 36.6227 83.8036 36.2125 83.8036 35.7957C83.8036 35.3788 83.7633 34.9686 83.6826 34.5652C83.6019 34.1617 83.4607 33.8054 83.259 33.4961C83.0707 33.1868 82.8085 32.938 82.4723 32.7497C82.1496 32.548 81.7461 32.4471 81.262 32.4471C80.7779 32.4471 80.3744 32.548 80.0517 32.7497C79.7289 32.938 79.4667 33.1868 79.265 33.4961C79.0767 33.8054 78.9422 34.1617 78.8615 34.5652C78.7808 34.9686 78.7405 35.3788 78.7405 35.7957ZM75.8761 35.7957C75.8761 34.9619 76.0038 34.2088 76.2594 33.5364C76.5149 32.8506 76.878 32.2723 77.3486 31.8016C77.8193 31.3175 78.3841 30.9477 79.0431 30.6922C79.702 30.4232 80.4417 30.2887 81.262 30.2887C82.0823 30.2887 82.822 30.4232 83.4809 30.6922C84.1533 30.9477 84.7248 31.3175 85.1955 31.8016C85.6662 32.2723 86.0293 32.8506 86.2848 33.5364C86.5403 34.2088 86.6681 34.9619 86.6681 35.7957C86.6681 36.6294 86.5403 37.3825 86.2848 38.0549C86.0293 38.7273 85.6662 39.3056 85.1955 39.7897C84.7248 40.2604 84.1533 40.6235 83.4809 40.879C82.822 41.1345 82.0823 41.2622 81.262 41.2622C80.4417 41.2622 79.702 41.1345 79.0431 40.879C78.3841 40.6235 77.8193 40.2604 77.3486 39.7897C76.878 39.3056 76.5149 38.7273 76.2594 38.0549C76.0038 37.3825 75.8761 36.6294 75.8761 35.7957ZM88.5305 30.5711H91.2537V32.0235H91.3142C91.6773 31.4183 92.148 30.9813 92.7262 30.7123C93.3045 30.4299 93.8962 30.2887 94.5014 30.2887C95.2679 30.2887 95.8932 30.3963 96.3774 30.6115C96.8749 30.8132 97.2649 31.1023 97.5473 31.4789C97.8297 31.842 98.0247 32.2925 98.1323 32.8304C98.2533 33.3549 98.3139 33.9398 98.3139 34.5853V41H95.4495V35.1098C95.4495 34.2491 95.315 33.6104 95.046 33.1935C94.7771 32.7631 94.2997 32.548 93.6138 32.548C92.8338 32.548 92.269 32.7833 91.9194 33.254C91.5697 33.7112 91.3949 34.471 91.3949 35.5334V41H88.5305V30.5711Z" fill="#FF8926"/>
</svg>
