<svg width="24" height="24" viewBox="0 0 24 24" fill="none" xmlns="http://www.w3.org/2000/svg">
<g id="Icon" clip-path="url(#clip0_666_9078)">
<path id="Vector" d="M8.79922 11.2C9.9068 11.2 10.9895 10.8716 11.9104 10.2562C12.8313 9.64089 13.5491 8.76629 13.9729 7.74303C14.3968 6.71976 14.5077 5.59379 14.2916 4.5075C14.0755 3.4212 13.5422 2.42338 12.759 1.6402C11.9758 0.85703 10.978 0.323682 9.89173 0.107605C8.80543 -0.108472 7.67946 0.00242639 6.65619 0.426277C5.63293 0.850128 4.75833 1.56789 4.14299 2.48881C3.52765 3.40972 3.19922 4.49243 3.19922 5.6C3.20091 7.08469 3.79146 8.50809 4.84129 9.55793C5.89113 10.6078 7.31453 11.1983 8.79922 11.2ZM8.79922 1.6C9.59035 1.6 10.3637 1.8346 11.0215 2.27412C11.6793 2.71365 12.192 3.33836 12.4947 4.06927C12.7975 4.80017 12.8767 5.60444 12.7224 6.38036C12.568 7.15629 12.1871 7.86902 11.6276 8.42843C11.0682 8.98784 10.3555 9.3688 9.57958 9.52314C8.80366 9.67748 7.99939 9.59827 7.26849 9.29552C6.53758 8.99277 5.91287 8.48008 5.47334 7.82228C5.03382 7.16449 4.79922 6.39113 4.79922 5.6C4.80049 4.53953 5.22232 3.52285 5.9722 2.77298C6.72207 2.02311 7.73874 1.60127 8.79922 1.6Z" fill="#FF8926"/>
<path id="Vector_2" d="M12.1768 12.8H5.4232C3.98547 12.8015 2.60704 13.3733 1.59034 14.3898C0.573635 15.4064 0.00169417 16.7847 0 18.2224V23.2C0 23.4122 0.0842854 23.6157 0.234315 23.7657C0.384344 23.9158 0.587827 24 0.8 24H16.8C17.0122 24 17.2157 23.9158 17.3657 23.7657C17.5157 23.6157 17.6 23.4122 17.6 23.2V18.2224C17.5983 16.7847 17.0264 15.4064 16.0097 14.3898C14.993 13.3733 13.6145 12.8015 12.1768 12.8ZM16 22.4H1.6V18.2224C1.60127 17.2089 2.0045 16.2373 2.72124 15.5207C3.43798 14.8041 4.40969 14.4011 5.4232 14.4H12.1768C13.1903 14.4011 14.162 14.8041 14.8788 15.5207C15.5955 16.2373 15.9987 17.2089 16 18.2224V22.4Z" fill="#FF8926"/>
<path id="Vector_3" d="M23.2 9.60045H20.8V7.20045C20.8 6.98828 20.7157 6.7848 20.5657 6.63477C20.4157 6.48474 20.2122 6.40045 20 6.40045C19.7878 6.40045 19.5843 6.48474 19.4343 6.63477C19.2843 6.7848 19.2 6.98828 19.2 7.20045V9.60045H16.8C16.5878 9.60045 16.3843 9.68474 16.2343 9.83477C16.0843 9.9848 16 10.1883 16 10.4005C16 10.6126 16.0843 10.8161 16.2343 10.9661C16.3843 11.1162 16.5878 11.2005 16.8 11.2005H19.2V13.6005C19.2 13.8126 19.2843 14.0161 19.4343 14.1661C19.5843 14.3162 19.7878 14.4005 20 14.4005C20.2122 14.4005 20.4157 14.3162 20.5657 14.1661C20.7157 14.0161 20.8 13.8126 20.8 13.6005V11.2005H23.2C23.4122 11.2005 23.6157 11.1162 23.7657 10.9661C23.9157 10.8161 24 10.6126 24 10.4005C24 10.1883 23.9157 9.9848 23.7657 9.83477C23.6157 9.68474 23.4122 9.60045 23.2 9.60045Z" fill="#FF8926"/>
</g>
<defs>
<clipPath id="clip0_666_9078">
<rect width="24" height="24" fill="white"/>
</clipPath>
</defs>
</svg>
