<svg width="21" height="22" viewBox="0 0 21 22" fill="none" xmlns="http://www.w3.org/2000/svg">
<path d="M2.94736 5.28002H8.8421C8.9538 5.28002 9.0609 5.23367 9.1398 5.15115C9.2188 5.06864 9.2631 4.95672 9.2631 4.84002C9.2631 4.72333 9.2188 4.61141 9.1398 4.5289C9.0609 4.44638 8.9538 4.40002 8.8421 4.40002H2.94736C2.83569 4.40002 2.72859 4.44638 2.64963 4.5289C2.57067 4.61141 2.52631 4.72333 2.52631 4.84002C2.52631 4.95672 2.57067 5.06864 2.64963 5.15115C2.72859 5.23367 2.83569 5.28002 2.94736 5.28002Z" fill="#FF8926"/>
<path d="M13.0526 7.04004H2.94736C2.83569 7.04004 2.72859 7.0864 2.64963 7.16891C2.57067 7.25143 2.52631 7.36334 2.52631 7.48004C2.52631 7.59673 2.57067 7.70865 2.64963 7.79117C2.72859 7.87368 2.83569 7.92004 2.94736 7.92004H13.0526C13.1643 7.92004 13.2714 7.87368 13.3504 7.79117C13.4293 7.70865 13.4737 7.59673 13.4737 7.48004C13.4737 7.36334 13.4293 7.25143 13.3504 7.16891C13.2714 7.0864 13.1643 7.04004 13.0526 7.04004Z" fill="#FF8926"/>
<path d="M2.94736 10.5601H7.99999C8.1117 10.5601 8.2188 10.5137 8.2977 10.4312C8.3767 10.3487 8.421 10.2367 8.421 10.1201C8.421 10.0034 8.3767 9.89144 8.2977 9.80893C8.2188 9.72641 8.1117 9.68005 7.99999 9.68005H2.94736C2.83569 9.68005 2.72859 9.72641 2.64963 9.80893C2.57067 9.89144 2.52631 10.0034 2.52631 10.1201C2.52631 10.2367 2.57067 10.3487 2.64963 10.4312C2.72859 10.5137 2.83569 10.5601 2.94736 10.5601Z" fill="#FF8926"/>
<path d="M2.94736 15.5601H7.99999C8.1117 15.5601 8.2188 15.5137 8.2977 15.4312C8.3767 15.3487 8.421 15.2367 8.421 15.1201C8.421 15.0034 8.3767 14.8914 8.2977 14.8089C8.2188 14.7264 8.1117 14.6801 7.99999 14.6801H2.94736C2.83569 14.6801 2.72859 14.7264 2.64963 14.8089C2.57067 14.8914 2.52631 15.0034 2.52631 15.1201C2.52631 15.2367 2.57067 15.3487 2.64963 15.4312C2.72859 15.5137 2.83569 15.5601 2.94736 15.5601Z" fill="#FF8926"/>
<path d="M13.0526 9.68005H9.68422C9.57252 9.68005 9.46542 9.72641 9.38642 9.80893C9.30752 9.89144 9.26312 10.0034 9.26312 10.1201C9.26312 10.2367 9.30752 10.3487 9.38642 10.4312C9.46542 10.5137 9.57252 10.5601 9.68422 10.5601H13.0526C13.1643 10.5601 13.2714 10.5137 13.3503 10.4312C13.4293 10.3487 13.4736 10.2367 13.4736 10.1201C13.4736 10.0034 13.4293 9.89144 13.3503 9.80893C13.2714 9.72641 13.1643 9.68005 13.0526 9.68005Z" fill="#FF8926"/>
<path d="M3.08988 13.08H9.8527C10.0022 13.08 10.1455 13.0336 10.2512 12.9511C10.3569 12.8686 10.4163 12.7566 10.4163 12.64C10.4163 12.5233 10.3569 12.4113 10.2512 12.3288C10.1455 12.2463 10.0022 12.2 9.8527 12.2H3.08988C2.94041 12.2 2.79706 12.2463 2.69137 12.3288C2.58568 12.4113 2.52631 12.5233 2.52631 12.64C2.52631 12.7566 2.58568 12.8686 2.69137 12.9511C2.79706 13.0336 2.94041 13.08 3.08988 13.08Z" fill="#FF8926"/>
<path fill-rule="evenodd" clip-rule="evenodd" d="M15.8771 4.1168L11.6665 0.116802C11.6274 0.0796808 11.5809 0.0502583 11.5297 0.0302169C11.4786 0.0101756 11.4238 -9.16492e-05 11.3684 6.16364e-07H1.38863C1.02048 0.000425647 0.66754 0.139548 0.40721 0.386855C0.14689 0.634161 0.00045 0.969459 0 1.3192V18.6792C0 19.0292 0.14625 19.3649 0.40662 19.6126C0.66699 19.8602 1.02019 19.9996 1.38863 20H10.6822C10.3014 19.7698 9.9511 19.5011 9.6381 19.2H1.38863C1.24375 19.1998 1.10487 19.145 1.00242 19.0477C0.89998 18.9504 0.84233 18.8184 0.84211 18.6808V1.3192C0.84233 1.18157 0.89998 1.04963 1.00242 0.952306C1.10487 0.854983 1.24375 0.800214 1.38863 0.800002H10.9474V4.4C10.9474 4.50609 10.9917 4.60783 11.0707 4.68284C11.1497 4.75786 11.2568 4.8 11.3684 4.8H15.1579V10.1015C15.4465 10.1528 15.7278 10.2229 16 10.3104V4.4C16.0001 4.34744 15.9893 4.29537 15.9682 4.24678C15.9471 4.19818 15.9161 4.15402 15.8771 4.1168ZM11.7895 1.3656L14.5625 4H11.7895V1.3656Z" fill="#FF8926"/>
<path d="M20.75 16C20.75 12.8244 18.1756 10.25 15 10.25C11.8244 10.25 9.25 12.8244 9.25 16C9.25 19.1756 11.8244 21.75 15 21.75C18.1756 21.75 20.75 19.1756 20.75 16Z" stroke="#FF8926" stroke-width="0.5"/>
<path d="M17.5852 15.3202C18.0942 15.2043 18.464 14.7087 18.464 14.1399C18.464 13.6949 18.2406 13.2886 17.8818 13.0781L15.7874 11.8524C15.5226 11.6978 15.2248 11.6152 14.9245 11.6152C14.6243 11.6152 14.3265 11.6965 14.0616 11.8524L11.9672 13.0781C11.6084 13.2886 11.3851 13.6949 11.3851 14.1399C11.3851 14.7074 11.7549 15.2043 12.2638 15.3202L12.3615 15.3429V17.1015L12.3041 17.1401C12.1198 17.2653 11.9709 17.4452 11.872 17.6597L11.4754 18.5257C11.3423 18.8174 11.3558 19.1558 11.5132 19.4329C11.6694 19.71 11.9416 19.8752 12.2394 19.8752H17.6096C17.9074 19.8752 18.1796 19.71 18.3358 19.4329C18.4933 19.1558 18.5067 18.8161 18.3737 18.5257L17.977 17.6597C17.8794 17.4452 17.7292 17.2653 17.5449 17.1401L17.4876 17.1015V15.3429L17.5852 15.3202ZM17.7195 18.8827C17.7597 18.9706 17.7012 19.0759 17.6108 19.0759H12.2394C12.1491 19.0759 12.0893 18.972 12.1308 18.8827L12.5275 18.0167C12.6043 17.8489 12.7606 17.7436 12.9327 17.7436H16.9176C17.0885 17.7436 17.2459 17.8489 17.3216 18.0167L17.7183 18.8827H17.7195ZM13.095 16.9443V15.3456H14.5596V16.9443H13.095ZM15.2919 16.9443V15.3456H16.7565V16.9443H15.2919ZM17.3606 14.5462H12.4896C12.2846 14.5462 12.1174 14.3637 12.1174 14.1399C12.1174 13.9907 12.193 13.8534 12.3139 13.7815L14.4082 12.5558C14.7256 12.3706 15.1259 12.3706 15.442 12.5558L17.5364 13.7815C17.6572 13.8521 17.7329 13.9893 17.7329 14.1399C17.7329 14.3637 17.5657 14.5462 17.3606 14.5462Z" fill="#FF8926"/>
</svg>
