<svg width="22" height="17" viewBox="0 0 22 17" fill="none" xmlns="http://www.w3.org/2000/svg">
<path fill-rule="evenodd" clip-rule="evenodd" d="M1.27475 12.4684C0.942682 12.1369 0.737226 11.6788 0.737226 11.1746V2.56849C0.737226 2.06435 0.942682 1.60624 1.27475 1.27475C1.60624 0.942682 2.06435 0.737226 2.56849 0.737226H16.0469C16.551 0.737226 17.0086 0.942682 17.3406 1.27475C17.6727 1.60624 17.8782 2.06435 17.8782 2.56849V5.25106C18.1314 5.31641 18.3776 5.39934 18.6154 5.49849V2.56849C18.6154 1.86062 18.3271 1.21835 17.862 0.75334C17.397 0.28833 16.7548 0 16.0469 0H2.56849C1.86062 0 1.21835 0.28833 0.75334 0.75334C0.28833 1.21835 0 1.86062 0 2.56849V11.1746C0 11.8825 0.28833 12.5248 0.75334 12.9898C1.21835 13.4548 1.86062 13.7431 2.56849 13.7431H12.0022C11.8378 13.5101 11.6911 13.2637 11.564 13.0059H2.56849C2.06435 13.0059 1.60624 12.8005 1.27475 12.4684ZM13.2995 6.10353C12.7334 6.50932 12.2474 7.01992 11.87 7.60697L10.876 8.65219C10.8466 8.68326 10.8167 8.71319 10.7867 8.74139C10.3557 9.15173 9.83313 9.35661 9.30769 9.35661C8.78283 9.35661 8.26027 9.15115 7.82921 8.74139C7.79871 8.71262 7.76878 8.68269 7.73943 8.65219L6.37433 7.21687L2.35728 11.4405C2.21743 11.5879 1.98435 11.5936 1.83702 11.4532C1.68969 11.3133 1.68451 11.0803 1.82436 10.9335L5.86673 6.68337L2.12247 2.74632C1.98263 2.59899 1.98838 2.36649 2.13514 2.22664C2.28247 2.08679 2.51497 2.09255 2.65482 2.2393L8.27178 8.14574C8.2925 8.16761 8.31379 8.1889 8.33566 8.20905C8.62341 8.48299 8.96642 8.61996 9.30769 8.61996C9.64839 8.61996 9.99197 8.48299 10.2797 8.20905C10.301 8.1889 10.3223 8.16761 10.343 8.14574L15.96 2.2393C16.0998 2.09197 16.3329 2.08679 16.4797 2.22664C16.627 2.36649 16.6328 2.59957 16.4923 2.74632L13.2995 6.10353Z" fill="#FF8926"/>
<path d="M21.625 10.9999C21.625 13.5967 19.5199 15.7018 16.9231 15.7018C14.3263 15.7018 12.2212 13.5967 12.2212 10.9999C12.2212 8.4031 14.3263 6.29797 16.9231 6.29797C19.5199 6.29797 21.625 8.4031 21.625 10.9999Z" stroke="#FF8926" stroke-width="0.75"/>
<path d="M17.8889 11.3611C17.7986 11.3611 17.7014 11.3611 17.6111 11.3681V9.69444H17.6042C17.6111 9.67361 17.6111 9.64583 17.6111 9.625C17.6111 9.19444 16.6736 9 15.8056 9C14.9375 9 14 9.19444 14 9.625C14 9.64583 14 9.67361 14.0069 9.69444H14V12.4028C14 12.8333 14.9375 13.0278 15.8056 13.0278C15.8958 13.0278 15.9931 13.0278 16.0833 13.0208V13.375C16.0833 13.8056 17.0208 14 17.8889 14C18.7569 14 19.6944 13.8056 19.6944 13.375V11.9861C19.6944 11.5556 18.7569 11.3611 17.8889 11.3611ZM17.2847 11.3958C17.3056 11.3889 17.3194 11.3819 17.3333 11.3681V11.3889C17.3194 11.3889 17.2986 11.3889 17.2847 11.3958ZM15.8056 9.27778C16.7986 9.27778 17.3333 9.52083 17.3333 9.625C17.3333 9.72917 16.7986 9.97222 15.8056 9.97222C14.8125 9.97222 14.2778 9.72917 14.2778 9.625C14.2778 9.52083 14.8125 9.27778 15.8056 9.27778ZM14.2778 9.97917C14.6181 10.1667 15.2292 10.25 15.8056 10.25C16.3819 10.25 16.9931 10.1667 17.3333 9.97917V10.3194C17.3333 10.4236 16.7986 10.6667 15.8056 10.6667C14.8125 10.6667 14.2778 10.4236 14.2778 10.3194V9.97917ZM14.2778 10.6736C14.6181 10.8611 15.2292 10.9444 15.8056 10.9444C16.3819 10.9444 16.9931 10.8611 17.3333 10.6736V11.0139C17.3333 11.1181 16.7986 11.3611 15.8056 11.3611C14.8125 11.3611 14.2778 11.1181 14.2778 11.0139V10.6736ZM14.2778 11.3681C14.6181 11.5556 15.2292 11.6389 15.8056 11.6389C16.0069 11.6389 16.2153 11.625 16.4097 11.6042C16.2083 11.7014 16.0833 11.8264 16.0833 11.9861V12.0486C15.9931 12.0556 15.8958 12.0556 15.8056 12.0556C14.8125 12.0556 14.2778 11.8125 14.2778 11.7083V11.3681ZM15.8056 12.75C14.8125 12.75 14.2778 12.5069 14.2778 12.4028V12.0625C14.6181 12.25 15.2292 12.3333 15.8056 12.3333C15.8958 12.3333 15.9931 12.3333 16.0833 12.3264V12.7431C15.9931 12.75 15.8958 12.75 15.8056 12.75ZM17.8889 13.7222C16.8958 13.7222 16.3611 13.4792 16.3611 13.375V13.0347C16.7014 13.2222 17.3125 13.3056 17.8889 13.3056C18.4653 13.3056 19.0764 13.2222 19.4167 13.0347V13.375C19.4167 13.4792 18.8819 13.7222 17.8889 13.7222ZM17.8889 13.0278C16.8958 13.0278 16.3611 12.7847 16.3611 12.6806V12.3403C16.7014 12.5278 17.3125 12.6111 17.8889 12.6111C18.4653 12.6111 19.0764 12.5278 19.4167 12.3403V12.6806C19.4167 12.7847 18.8819 13.0278 17.8889 13.0278ZM17.8889 12.3333C16.8958 12.3333 16.3611 12.0903 16.3611 11.9861C16.3611 11.8819 16.8958 11.6389 17.8889 11.6389C18.8819 11.6389 19.4167 11.8819 19.4167 11.9861C19.4167 12.0903 18.8819 12.3333 17.8889 12.3333Z" fill="#FF8926"/>
</svg>
