<svg width="23" height="22" viewBox="0 0 23 22" fill="none" xmlns="http://www.w3.org/2000/svg">
<g clip-path="url(#clip0_3537_11934)">
<path d="M6.86992 10.4984H3.12446C3.00393 10.4931 2.89011 10.4414 2.80671 10.3543C2.72331 10.2671 2.67676 10.1511 2.67676 10.0305C2.67676 9.90981 2.72331 9.79382 2.80671 9.70665C2.89011 9.61948 3.00393 9.56784 3.12446 9.5625H6.86992C6.99044 9.56784 7.10426 9.61948 7.18766 9.70665C7.27106 9.79382 7.31761 9.90981 7.31761 10.0305C7.31761 10.1511 7.27106 10.2671 7.18766 10.3543C7.10426 10.4414 6.99044 10.4931 6.86992 10.4984Z" fill="#FF8926"/>
<path d="M19.9995 19.4987L10.468 10.9018C10.3818 10.8174 10.3316 10.7029 10.3277 10.5824C10.3239 10.4618 10.3667 10.3444 10.4473 10.2546C10.5278 10.1648 10.6399 10.1095 10.7602 10.1003C10.8805 10.0911 10.9997 10.1287 11.093 10.2052L20.6245 18.8021C20.7107 18.8866 20.7609 19.001 20.7648 19.1216C20.7686 19.2422 20.7258 19.3596 20.6453 19.4494C20.5647 19.5392 20.4526 19.5944 20.3323 19.6036C20.212 19.6128 20.0928 19.5752 19.9995 19.4987Z" fill="#FF8926"/>
<path d="M22.4998 2.00705C22.5014 1.75381 22.4527 1.50279 22.3565 1.26852C22.2603 1.03426 22.1186 0.821421 21.9395 0.642355C21.7605 0.463288 21.5476 0.321555 21.3134 0.225376C21.0791 0.129197 20.8281 0.0804862 20.5748 0.0820686H2.42502C2.17178 0.0804862 1.92075 0.129197 1.68649 0.225376C1.45223 0.321555 1.23939 0.463288 1.06032 0.642355C0.881258 0.821421 0.739521 1.03426 0.643342 1.26852C0.547163 1.50279 0.498455 1.75381 0.500037 2.00705V12.5119C0.50622 13.0206 0.711017 13.5066 1.07069 13.8663C1.43036 14.2259 1.9164 14.4307 2.42502 14.4369H8.19996V14.7669C8.19996 16.6632 8.95325 18.4818 10.2941 19.8227C11.635 21.1635 13.4536 21.9168 15.3499 21.9168C17.2462 21.9168 19.0648 21.1635 20.4056 19.8227C21.7465 18.4818 22.4998 16.6632 22.4998 14.7669C22.4993 14.2674 22.444 13.7694 22.3348 13.2819C22.4473 13.0411 22.5038 12.7778 22.4998 12.5119V2.00705ZM15.3499 20.7618C14.5547 20.7641 13.767 20.6092 13.032 20.306C12.2969 20.0028 11.6291 19.5572 11.0668 18.995C10.5046 18.4327 10.059 17.7649 9.75579 17.0298C9.45257 16.2948 9.29764 15.507 9.29994 14.7119V14.3819C9.29671 14.0089 9.3524 13.6376 9.46494 13.2819C9.78263 11.9829 10.5211 10.8254 11.5653 9.98992C12.6094 9.15438 13.9006 8.6877 15.2377 8.66259C16.5748 8.63748 17.8826 9.05536 18.9574 9.8511C20.0322 10.6468 20.8136 11.7758 21.1798 13.0619C21.2796 13.4414 21.3531 13.8273 21.3998 14.2169V14.7119C21.4021 15.507 21.2472 16.2948 20.944 17.0298C20.6407 17.7649 20.1952 18.4327 19.633 18.995C19.0707 19.5572 18.4029 20.0028 17.6678 20.306C16.9328 20.6092 16.145 20.7641 15.3499 20.7618ZM21.3998 10.917C20.7602 9.88914 19.8689 9.04156 18.8102 8.45447C17.7515 7.86737 16.5605 7.56019 15.3499 7.56199C13.6984 7.5635 12.0977 8.13265 10.816 9.17404C9.53428 10.2154 8.64949 11.6658 8.30995 13.2819H2.42502C2.2079 13.2766 2.00115 13.1879 1.84758 13.0344C1.69401 12.8808 1.60537 12.6741 1.60002 12.4569V5.08793H21.3998V10.917ZM21.3998 3.98703H1.60002V2.00705C1.59803 1.89816 1.61801 1.78999 1.65877 1.689C1.69952 1.58801 1.76022 1.49627 1.83723 1.41926C1.91424 1.34225 2.00598 1.28156 2.10697 1.2408C2.20796 1.20005 2.31613 1.18007 2.42502 1.18206H20.5198C20.7369 1.1874 20.9437 1.27604 21.0973 1.42961C21.2508 1.58318 21.3395 1.78993 21.3448 2.00705V3.98703H21.3998Z" fill="#FF8926"/>
</g>
<defs>
<clipPath id="clip0_3537_11934">
<rect width="22" height="22" fill="white" transform="translate(0.5)"/>
</clipPath>
</defs>
</svg>
