<svg width="22" height="22" viewBox="0 0 22 22" fill="none" xmlns="http://www.w3.org/2000/svg">
<g clip-path="url(#clip0_3537_33795)">
<path d="M6.36992 10.4984H2.62446C2.50393 10.4931 2.39011 10.4414 2.30671 10.3543C2.22331 10.2671 2.17676 10.1511 2.17676 10.0305C2.17676 9.90981 2.22331 9.79382 2.30671 9.70665C2.39011 9.61948 2.50393 9.56784 2.62446 9.5625H6.36992C6.49044 9.56784 6.60426 9.61948 6.68766 9.70665C6.77106 9.79382 6.81761 9.90981 6.81761 10.0305C6.81761 10.1511 6.77106 10.2671 6.68766 10.3543C6.60426 10.4414 6.49044 10.4931 6.36992 10.4984Z" fill="#FF8926"/>
<path d="M19.4995 19.4987L9.96797 10.9018C9.88183 10.8174 9.83159 10.7029 9.82773 10.5824C9.82387 10.4618 9.86669 10.3444 9.94725 10.2546C10.0278 10.1648 10.1399 10.1095 10.2602 10.1003C10.3805 10.0911 10.4997 10.1287 10.593 10.2052L20.1245 18.8021C20.2107 18.8866 20.2609 19.001 20.2648 19.1216C20.2686 19.2422 20.2258 19.3596 20.1453 19.4494C20.0647 19.5392 19.9526 19.5944 19.8323 19.6036C19.712 19.6128 19.5928 19.5752 19.4995 19.4987Z" fill="#FF8926"/>
<path d="M21.9998 2.00705C22.0014 1.75381 21.9527 1.50279 21.8565 1.26852C21.7603 1.03426 21.6186 0.821421 21.4395 0.642355C21.2605 0.463288 21.0476 0.321555 20.8134 0.225376C20.5791 0.129197 20.3281 0.0804862 20.0748 0.0820686H1.92502C1.67178 0.0804862 1.42075 0.129197 1.18649 0.225376C0.952227 0.321555 0.739392 0.463288 0.560325 0.642355C0.381258 0.821421 0.239521 1.03426 0.143342 1.26852C0.0471631 1.50279 -0.00154503 1.75381 3.73528e-05 2.00705V12.5119C0.00622037 13.0206 0.211017 13.5066 0.570689 13.8663C0.930361 14.2259 1.4164 14.4307 1.92502 14.4369H7.69996V14.7669C7.69996 16.6632 8.45325 18.4818 9.79412 19.8227C11.135 21.1635 12.9536 21.9168 14.8499 21.9168C16.7462 21.9168 18.5648 21.1635 19.9056 19.8227C21.2465 18.4818 21.9998 16.6632 21.9998 14.7669C21.9993 14.2674 21.944 13.7694 21.8348 13.2819C21.9473 13.0411 22.0038 12.7778 21.9998 12.5119V2.00705ZM14.8499 20.7618C14.0547 20.7641 13.267 20.6092 12.532 20.306C11.7969 20.0028 11.1291 19.5572 10.5668 18.995C10.0046 18.4327 9.55901 17.7649 9.25579 17.0298C8.95257 16.2948 8.79764 15.507 8.79994 14.7119V14.3819C8.79671 14.0089 8.8524 13.6376 8.96494 13.2819C9.28263 11.9829 10.0211 10.8254 11.0653 9.98992C12.1094 9.15438 13.4006 8.6877 14.7377 8.66259C16.0748 8.63748 17.3826 9.05536 18.4574 9.8511C19.5322 10.6468 20.3136 11.7758 20.6798 13.0619C20.7796 13.4414 20.8531 13.8273 20.8998 14.2169V14.7119C20.9021 15.507 20.7472 16.2948 20.444 17.0298C20.1407 17.7649 19.6952 18.4327 19.133 18.995C18.5707 19.5572 17.9029 20.0028 17.1678 20.306C16.4328 20.6092 15.645 20.7641 14.8499 20.7618ZM20.8998 10.917C20.2602 9.88914 19.3689 9.04156 18.3102 8.45447C17.2515 7.86737 16.0605 7.56019 14.8499 7.56199C13.1984 7.5635 11.5977 8.13265 10.316 9.17404C9.03428 10.2154 8.14949 11.6658 7.80995 13.2819H1.92502C1.7079 13.2766 1.50115 13.1879 1.34758 13.0344C1.19401 12.8808 1.10537 12.6741 1.10002 12.4569V5.08793H20.8998V10.917ZM20.8998 3.98703H1.10002V2.00705C1.09803 1.89816 1.11801 1.78999 1.15877 1.689C1.19952 1.58801 1.26022 1.49627 1.33723 1.41926C1.41424 1.34225 1.50598 1.28156 1.60697 1.2408C1.70796 1.20005 1.81613 1.18007 1.92502 1.18206H20.0198C20.2369 1.1874 20.4437 1.27604 20.5973 1.42961C20.7508 1.58318 20.8395 1.78993 20.8448 2.00705V3.98703H20.8998Z" fill="#FF8926"/>
</g>
<defs>
<clipPath id="clip0_3537_33795">
<rect width="22" height="22" fill="white"/>
</clipPath>
</defs>
</svg>
