<svg width="22" height="22" viewBox="0 0 22 22" fill="none" xmlns="http://www.w3.org/2000/svg">
<path d="M5.23856 16.6899H16.762C17.9862 16.6607 19.1504 16.1539 20.0059 15.2778C20.8615 14.4017 21.3404 12.2257 21.3404 11.0012C21.3404 9.77664 20.8615 7.60066 20.0059 6.72454C19.1504 5.84841 17.9862 5.34164 16.762 5.3125H5.23856C4.01437 5.34164 2.85012 5.84841 1.9946 6.72454C1.13909 7.60066 0.660156 9.77664 0.660156 11.0012C0.660156 12.2257 1.13909 14.4017 1.9946 15.2778C2.85012 16.1539 4.01437 16.6607 5.23856 16.6899ZM5.23856 6.64036H16.762C17.637 6.66496 18.4679 7.02983 19.0781 7.65743C19.6883 8.28502 20.0296 10.1258 20.0296 11.0012C20.0296 11.8765 19.6883 13.7173 19.0781 14.3449C18.4679 14.9725 17.637 15.3374 16.762 15.362H5.23856C4.36358 15.3374 3.53268 14.9725 2.92248 14.3449C2.31228 13.7173 1.97091 11.8765 1.97091 11.0012C1.97091 10.1258 2.31228 8.28502 2.92248 7.65743C3.53268 7.02983 4.36358 6.66496 5.23856 6.64036Z" fill="#FF8926"/>
<path d="M5.5881 10.8333L4.81477 10.54L4.63477 11.0533L5.42143 11.3133L4.9281 11.9667L5.3681 12.2933L5.86143 11.6067L6.3281 12.2933L6.77477 11.9667L6.28143 11.3133L7.05477 11.0533L6.87477 10.54L6.12143 10.8333V10H5.5881V10.8333Z" fill="#FF8926"/>
<path d="M10.5842 10.6341L9.81086 10.3408L9.63086 10.8541L10.4175 11.1141L9.92419 11.7674L10.3642 12.0941L10.8575 11.4074L11.3242 12.0941L11.7709 11.7674L11.2775 11.1141L12.0509 10.8541L11.8709 10.3408L11.1175 10.6341V9.80078H10.5842V10.6341Z" fill="#FF8926"/>
<path d="M15.5881 10.8333L14.8148 10.54L14.6348 11.0533L15.4214 11.3133L14.9281 11.9667L15.3681 12.2933L15.8614 11.6067L16.3281 12.2933L16.7748 11.9667L16.2814 11.3133L17.0548 11.0533L16.8748 10.54L16.1214 10.8333V10H15.5881V10.8333Z" fill="#FF8926"/>
</svg>
