<svg width="30" height="18" viewBox="0 0 30 18" fill="none" xmlns="http://www.w3.org/2000/svg">
<path d="M27.727 17.2737H2.27522C1.57528 17.2737 1.0022 16.705 1.0022 16.0007V2.27303C1.0022 1.57308 1.5709 1 2.27522 1H27.727C28.4269 1 29 1.56871 29 2.27303V16.0007C29 16.7006 28.4313 17.2737 27.727 17.2737ZM2.27522 1.84868C2.04337 1.84868 1.85088 2.04117 1.85088 2.27303V16.0007C1.85088 16.2326 2.04337 16.425 2.27522 16.425H27.727C27.9588 16.425 28.1513 16.2326 28.1513 16.0007V2.27303C28.1513 2.04117 27.9588 1.84868 27.727 1.84868H2.27522Z" fill="#016B83" stroke="#016B83" stroke-width="0.25"/>
<path d="M1.42653 6.29115C1.31716 6.29115 1.2078 6.25178 1.12468 6.16866C0.958441 6.00242 0.958441 5.73557 1.12468 5.56933L5.56933 1.12468C5.73557 0.958441 6.00242 0.958441 6.16866 1.12468C6.3349 1.29091 6.3349 1.55777 6.16866 1.72401L1.72838 6.16866C1.64526 6.25178 1.5359 6.29115 1.42653 6.29115Z" fill="#016B83" stroke="#016B83" stroke-width="0.25"/>
<path d="M1.42653 9.22217C1.31716 9.22217 1.2078 9.1828 1.12468 9.09968C0.958441 8.93344 0.958441 8.66659 1.12468 8.50035L8.50035 1.12468C8.66659 0.958441 8.93344 0.958441 9.09968 1.12468C9.26592 1.29091 9.26592 1.55777 9.09968 1.72401L1.72838 9.0953C1.64526 9.17842 1.5359 9.22217 1.42653 9.22217Z" fill="#016B83" stroke="#016B83" stroke-width="0.25"/>
<path d="M25.9421 5.9229H20.4826C20.2463 5.9229 20.0582 5.73479 20.0582 5.49856C20.0582 5.26233 20.2463 5.07422 20.4826 5.07422H25.9378C26.174 5.07422 26.3621 5.26233 26.3621 5.49856C26.3665 5.73042 26.174 5.9229 25.9421 5.9229Z" fill="#016B83" stroke="#016B83" stroke-width="0.25"/>
<path d="M25.9421 8.07134H5.26748C5.03125 8.07134 4.84314 7.88323 4.84314 7.647C4.84314 7.41077 5.03125 7.22266 5.26748 7.22266H25.9421C26.1783 7.22266 26.3665 7.41077 26.3665 7.647C26.3665 7.88323 26.174 8.07134 25.9421 8.07134Z" fill="#016B83" stroke="#016B83" stroke-width="0.25"/>
<path d="M16.2785 11.0674H5.26748C5.03125 11.0674 4.84314 10.8793 4.84314 10.6431C4.84314 10.4069 5.03125 10.2188 5.26748 10.2188H16.2785C16.5147 10.2188 16.7028 10.4069 16.7028 10.6431C16.7028 10.8793 16.5147 11.0674 16.2785 11.0674Z" fill="#016B83" stroke="#016B83" stroke-width="0.25"/>
<path d="M12.6913 14.0674H5.26748C5.03125 14.0674 4.84314 13.8793 4.84314 13.6431C4.84314 13.4069 5.03125 13.2188 5.26748 13.2188H12.6957C12.9319 13.2188 13.12 13.4069 13.12 13.6431C13.1156 13.8749 12.9275 14.0674 12.6913 14.0674Z" fill="#016B83" stroke="#016B83" stroke-width="0.25"/>
<path d="M25.9421 12.0607H18.7896C18.5533 12.0607 18.3652 11.8726 18.3652 11.6364V9.61965C18.3652 9.38342 18.5533 9.19531 18.7896 9.19531H25.9421C26.1784 9.19531 26.3665 9.38342 26.3665 9.61965V11.6364C26.3665 11.8726 26.174 12.0607 25.9421 12.0607ZM19.2139 11.212H25.5178V10.044H19.2139V11.212Z" fill="#016B83" stroke="#016B83" stroke-width="0.25"/>
</svg>
