<svg width="24" height="17" viewBox="0 0 24 17" fill="none" xmlns="http://www.w3.org/2000/svg">
<g id="Group 1000002329">
<g id="Group 1000002324">
<g id="Group 1000002317">
<g id="Group">
<path id="Vector" d="M22.1053 16.974H1.85526C0.828947 16.974 0 16.1392 0 15.1057V1.86834C0 0.834789 0.828947 0 1.85526 0H22.1447C23.1711 0 24 0.834789 24 1.86834V15.1057C23.9605 16.1392 23.1316 16.974 22.1053 16.974ZM2.02631 0.987061C1.43421 0.987061 0.960526 1.46408 0.960526 2.06036V14.9138C0.960526 15.51 1.43421 15.9871 2.02631 15.9871H21.8947C22.4868 15.9871 22.9605 15.51 22.9605 14.9138V2.06036C22.9605 1.46408 22.4868 0.987061 21.8947 0.987061H2.02631Z" fill="#FF8926"/>
</g>
<g id="Group_2">
<path id="Vector_2" d="M16.4993 8.09322C15.1966 8.09322 14.1309 7.01992 14.1309 5.70811C14.1309 4.3963 15.1966 3.323 16.4993 3.323C17.8019 3.323 18.8677 4.3963 18.8677 5.70811C18.8677 7.01992 17.8019 8.09322 16.4993 8.09322ZM16.4993 4.11803C15.6309 4.11803 14.9203 4.83357 14.9203 5.70811C14.9203 6.58265 15.6309 7.29818 16.4993 7.29818C17.3677 7.29818 18.0782 6.58265 18.0782 5.70811C18.0782 4.83357 17.3677 4.11803 16.4993 4.11803Z" fill="#FF8926"/>
</g>
<g id="Group_3">
<path id="Vector_3" d="M19.2236 8.09334C18.592 8.09334 18.0394 7.85483 17.5657 7.41756C17.4078 7.25855 17.4078 7.02004 17.5657 6.86103C17.7236 6.70203 17.9604 6.70203 18.1183 6.86103C18.3946 7.1393 18.7894 7.2983 19.2236 7.2983C20.092 7.2983 20.8025 6.58277 20.8025 5.70823C20.8025 4.83369 20.092 4.11816 19.2236 4.11816C18.8288 4.11816 18.4341 4.27716 18.1183 4.55543C17.9604 4.71443 17.7236 4.71443 17.5657 4.55543C17.4078 4.39642 17.4078 4.15791 17.5657 3.9989C17.9999 3.56163 18.592 3.32312 19.2236 3.32312C20.5262 3.32312 21.592 4.39642 21.592 5.70823C21.592 7.02004 20.5262 8.09334 19.2236 8.09334Z" fill="#FF8926"/>
</g>
<g id="Group_4">
<path id="Vector_4" d="M21.1577 13.6251H19.1445C18.9077 13.6251 18.7498 13.4251 18.7498 13.1251C18.7498 12.8251 18.9077 12.6251 19.1445 12.6251H21.1577C21.3945 12.6251 21.5524 12.8251 21.5524 13.1251C21.5524 13.4251 21.3945 13.6251 21.1577 13.6251ZM17.1314 13.6251H15.1182C14.8814 13.6251 14.7235 13.4251 14.7235 13.1251C14.7235 12.8251 14.8814 12.6251 15.1182 12.6251H17.1314C17.3682 12.6251 17.5261 12.8251 17.5261 13.1251C17.5261 13.4251 17.3682 13.6251 17.1314 13.6251ZM13.1051 13.6251H11.0919C10.8551 13.6251 10.6972 13.4251 10.6972 13.1251C10.6972 12.8251 10.8551 12.6251 11.0919 12.6251H13.1051C13.3419 12.6251 13.4998 12.8251 13.4998 13.1251C13.4998 13.4251 13.3419 13.6251 13.1051 13.6251ZM9.07874 13.6251H7.06558C6.82874 13.6251 6.67085 13.4251 6.67085 13.1251C6.67085 12.8251 6.82874 12.6251 7.06558 12.6251H9.07874C9.31558 12.6251 9.47348 12.8251 9.47348 13.1251C9.47348 13.4251 9.27611 13.6251 9.07874 13.6251ZM5.05243 13.6251H3.03927C2.80243 13.6251 2.64453 13.4251 2.64453 13.1251C2.64453 12.8251 2.80243 12.6251 3.03927 12.6251H5.05243C5.28927 12.6251 5.44716 12.8251 5.44716 13.1251C5.44716 13.4251 5.24979 13.6251 5.05243 13.6251Z" fill="#FF8926"/>
</g>
<g id="Group_5">
<path id="Vector_5" d="M10.0259 5.59485H4.1838C3.94696 5.59485 3.78906 5.39485 3.78906 5.09485C3.78906 4.79485 3.94696 4.59485 4.1838 4.59485H10.0259C10.2627 4.59485 10.4206 4.79485 10.4206 5.09485C10.4206 5.39485 10.2233 5.59485 10.0259 5.59485Z" fill="#FF8926"/>
</g>
<g id="Group_6">
<path id="Vector_6" d="M8.48643 7.42285H4.1838C3.94696 7.42285 3.78906 7.22285 3.78906 6.92285C3.78906 6.62285 3.94696 6.42285 4.1838 6.42285H8.48643C8.72327 6.42285 8.88117 6.62285 8.88117 6.92285C8.88117 7.22285 8.6838 7.42285 8.48643 7.42285Z" fill="#FF8926"/>
</g>
</g>
</g>
</g>
</svg>
