<svg width="24" height="19" viewBox="0 0 24 19" fill="none" xmlns="http://www.w3.org/2000/svg">
<path d="M7.99951 10.1842C7.99956 10.2545 7.98343 10.3242 7.95203 10.3892C7.92064 10.4542 7.8746 10.5133 7.81656 10.5631C7.75851 10.6128 7.6896 10.6523 7.61375 10.6792C7.5379 10.7061 7.4566 10.7199 7.37451 10.7199H3.62451C3.45875 10.7199 3.29978 10.6634 3.18257 10.563C3.06536 10.4625 2.99951 10.3262 2.99951 10.1842C2.99951 10.0421 3.06536 9.90581 3.18257 9.80534C3.29978 9.70488 3.45875 9.64844 3.62451 9.64844H7.37451C7.4566 9.6484 7.5379 9.66223 7.61375 9.68913C7.6896 9.71604 7.75851 9.7555 7.81656 9.80525C7.8746 9.85501 7.92064 9.91408 7.95203 9.97909C7.98343 10.0441 7.99956 10.1138 7.99951 10.1842Z" fill="white"/>
<path fill-rule="evenodd" clip-rule="evenodd" d="M2.5 0H19.5C20.1628 0.000833661 20.7982 0.283307 21.2669 0.785456C21.7356 1.28761 21.9992 1.96843 22 2.67857V8.52779C21.6934 8.25338 21.3584 8.01003 21 7.80269V5.35714H1V12.3214C1.00043 12.7475 1.15861 13.156 1.43982 13.4573C1.72103 13.7586 2.10231 13.9281 2.5 13.9286H12.0714C12.1288 14.2979 12.2199 14.6562 12.3414 15H2.5C1.8372 14.9992 1.20176 14.7167 0.733092 14.2145C0.26442 13.7124 0.000778084 13.0316 0 12.3214V2.67857C0.000778084 1.96843 0.26442 1.28761 0.733092 0.785456C1.20176 0.283307 1.8372 0.000833661 2.5 0ZM19.5 1.07143H2.5C2.10231 1.07189 1.72103 1.24137 1.43982 1.54266C1.15861 1.84396 1.00043 2.25247 1 2.67857V4.28571H21V2.67857C20.9996 2.25247 20.8414 1.84396 20.5602 1.54266C20.279 1.24137 19.8977 1.07189 19.5 1.07143Z" fill="white"/>
<rect x="12.375" y="7.375" width="11.25" height="11.25" rx="5.625" stroke="white" stroke-width="0.75"/>
<path d="M16.5316 11.349H18.5948C18.6339 11.349 18.6714 11.3328 18.699 11.3039C18.7266 11.275 18.7422 11.2359 18.7422 11.195C18.7422 11.1542 18.7266 11.115 18.699 11.0861C18.6714 11.0572 18.6339 11.041 18.5948 11.041H16.5316C16.4926 11.041 16.4551 11.0572 16.4274 11.0861C16.3998 11.115 16.3843 11.1542 16.3843 11.195C16.3843 11.2359 16.3998 11.275 16.4274 11.3039C16.4551 11.3328 16.4926 11.349 16.5316 11.349Z" fill="white"/>
<path d="M20.0685 11.9648H16.5316C16.4926 11.9648 16.4551 11.9811 16.4274 12.0099C16.3998 12.0388 16.3843 12.078 16.3843 12.1188C16.3843 12.1597 16.3998 12.1989 16.4274 12.2277C16.4551 12.2566 16.4926 12.2728 16.5316 12.2728H20.0685C20.1076 12.2728 20.1451 12.2566 20.1727 12.2277C20.2003 12.1989 20.2159 12.1597 20.2159 12.1188C20.2159 12.078 20.2003 12.0388 20.1727 12.0099C20.1451 11.9811 20.1076 11.9648 20.0685 11.9648Z" fill="white"/>
<path d="M16.5316 13.1947H18.3001C18.3392 13.1947 18.3766 13.1785 18.4043 13.1496C18.4319 13.1207 18.4474 13.0816 18.4474 13.0407C18.4474 12.9999 18.4319 12.9607 18.4043 12.9318C18.3766 12.9029 18.3392 12.8867 18.3001 12.8867H16.5316C16.4926 12.8867 16.4551 12.9029 16.4274 12.9318C16.3998 12.9607 16.3843 12.9999 16.3843 13.0407C16.3843 13.0816 16.3998 13.1207 16.4274 13.1496C16.4551 13.1785 16.4926 13.1947 16.5316 13.1947Z" fill="white"/>
<path d="M16.5316 14.9447H18.3001C18.3392 14.9447 18.3766 14.9285 18.4043 14.8996C18.4319 14.8707 18.4474 14.8316 18.4474 14.7907C18.4474 14.7499 18.4319 14.7107 18.4043 14.6818C18.3766 14.6529 18.3392 14.6367 18.3001 14.6367H16.5316C16.4926 14.6367 16.4551 14.6529 16.4274 14.6818C16.3998 14.7107 16.3843 14.7499 16.3843 14.7907C16.3843 14.8316 16.3998 14.8707 16.4274 14.8996C16.4551 14.9285 16.4926 14.9447 16.5316 14.9447Z" fill="white"/>
<path d="M20.0685 12.8867H18.8896C18.8505 12.8867 18.813 12.9029 18.7854 12.9318C18.7577 12.9607 18.7422 12.9999 18.7422 13.0407C18.7422 13.0816 18.7577 13.1207 18.7854 13.1496C18.813 13.1785 18.8505 13.1947 18.8896 13.1947H20.0685C20.1076 13.1947 20.1451 13.1785 20.1727 13.1496C20.2003 13.1207 20.2159 13.0816 20.2159 13.0407C20.2159 12.9999 20.2003 12.9607 20.1727 12.9318C20.1451 12.9029 20.1076 12.8867 20.0685 12.8867Z" fill="white"/>
<path d="M16.5815 14.0775H18.9485C19.0008 14.0775 19.051 14.0613 19.088 14.0324C19.125 14.0035 19.1458 13.9644 19.1458 13.9235C19.1458 13.8827 19.125 13.8435 19.088 13.8146C19.051 13.7858 19.0008 13.7695 18.9485 13.7695H16.5815C16.5292 13.7695 16.479 13.7858 16.4421 13.8146C16.4051 13.8435 16.3843 13.8827 16.3843 13.9235C16.3843 13.9644 16.4051 14.0035 16.4421 14.0324C16.479 14.0613 16.5292 14.0775 16.5815 14.0775Z" fill="white"/>
<mask id="path-10-outside-1_8399_40434" maskUnits="userSpaceOnUse" x="14.5" y="8.5" width="7" height="9" fill="black">
<rect fill="white" x="14.5" y="8.5" width="7" height="9"/>
<path fill-rule="evenodd" clip-rule="evenodd" d="M19.5833 9.54088L21.057 10.9409C21.0706 10.9539 21.0815 10.9694 21.0889 10.9864C21.0963 11.0034 21.1 11.0216 21.1 11.04V16.0383C21.0998 16.1608 21.0485 16.2782 20.9573 16.3648C20.866 16.4514 20.7423 16.5 20.6134 16.5H15.986C15.8571 16.4999 15.7334 16.4511 15.6423 16.3644C15.5512 16.2777 15.5 16.1602 15.5 16.0377V9.96172C15.5002 9.83931 15.5514 9.72196 15.6425 9.6354C15.7336 9.54884 15.8572 9.50015 15.986 9.5H19.4789C19.4983 9.49997 19.5175 9.50356 19.5354 9.51058C19.5533 9.51759 19.5696 9.52789 19.5833 9.54088ZM20.5969 10.9L19.6263 9.97796V10.9H20.5969ZM15.986 16.22H20.614C20.6647 16.2199 20.7133 16.2008 20.7492 16.1667C20.785 16.1326 20.8052 16.0865 20.8053 16.0383V11.18H19.4789C19.4399 11.18 19.4024 11.1653 19.3747 11.139C19.3471 11.1127 19.3316 11.0771 19.3316 11.04V9.78H15.986C15.9353 9.78008 15.8867 9.79924 15.8508 9.83331C15.815 9.86737 15.7948 9.91355 15.7947 9.96172V16.0383C15.7948 16.0865 15.815 16.1326 15.8508 16.1667C15.8867 16.2008 15.9353 16.2199 15.986 16.22Z"/>
</mask>
<path fill-rule="evenodd" clip-rule="evenodd" d="M19.5833 9.54088L21.057 10.9409C21.0706 10.9539 21.0815 10.9694 21.0889 10.9864C21.0963 11.0034 21.1 11.0216 21.1 11.04V16.0383C21.0998 16.1608 21.0485 16.2782 20.9573 16.3648C20.866 16.4514 20.7423 16.5 20.6134 16.5H15.986C15.8571 16.4999 15.7334 16.4511 15.6423 16.3644C15.5512 16.2777 15.5 16.1602 15.5 16.0377V9.96172C15.5002 9.83931 15.5514 9.72196 15.6425 9.6354C15.7336 9.54884 15.8572 9.50015 15.986 9.5H19.4789C19.4983 9.49997 19.5175 9.50356 19.5354 9.51058C19.5533 9.51759 19.5696 9.52789 19.5833 9.54088ZM20.5969 10.9L19.6263 9.97796V10.9H20.5969ZM15.986 16.22H20.614C20.6647 16.2199 20.7133 16.2008 20.7492 16.1667C20.785 16.1326 20.8052 16.0865 20.8053 16.0383V11.18H19.4789C19.4399 11.18 19.4024 11.1653 19.3747 11.139C19.3471 11.1127 19.3316 11.0771 19.3316 11.04V9.78H15.986C15.9353 9.78008 15.8867 9.79924 15.8508 9.83331C15.815 9.86737 15.7948 9.91355 15.7947 9.96172V16.0383C15.7948 16.0865 15.815 16.1326 15.8508 16.1667C15.8867 16.2008 15.9353 16.2199 15.986 16.22Z" fill="white"/>
<path d="M21.057 10.9409L21.1604 10.8323L21.1603 10.8321L21.057 10.9409ZM19.5833 9.54088L19.6866 9.43213L19.6865 9.432L19.5833 9.54088ZM21.0889 10.9864L20.9513 11.0461L20.9513 11.0461L21.0889 10.9864ZM21.1 11.04L20.95 11.0397V11.04H21.1ZM21.1 16.0383L21.25 16.0385V16.0383H21.1ZM20.9573 16.3648L20.854 16.256L20.854 16.256L20.9573 16.3648ZM15.986 16.5L15.9858 16.65H15.986V16.5ZM15.6423 16.3644L15.5389 16.4731L15.5389 16.4731L15.6423 16.3644ZM15.5 9.96172L15.35 9.96153V9.96172H15.5ZM15.6425 9.6354L15.5392 9.52665L15.5392 9.52665L15.6425 9.6354ZM15.986 9.5L15.986 9.35L15.9858 9.35L15.986 9.5ZM19.4789 9.5L19.4789 9.65L19.4792 9.65L19.4789 9.5ZM19.5354 9.51058L19.5901 9.37091L19.5901 9.37091L19.5354 9.51058ZM19.6263 9.97796L19.7296 9.86921L19.4763 9.62856V9.97796H19.6263ZM20.5969 10.9V11.05H20.9726L20.7002 10.7913L20.5969 10.9ZM19.6263 10.9H19.4763V11.05H19.6263V10.9ZM20.614 16.22V16.37L20.6142 16.37L20.614 16.22ZM15.986 16.22L15.9858 16.37H15.986V16.22ZM20.7492 16.1667L20.6458 16.0579L20.6458 16.0579L20.7492 16.1667ZM20.8053 16.0383L20.9553 16.0385V16.0383H20.8053ZM20.8053 11.18H20.9553V11.03H20.8053V11.18ZM19.3747 11.139L19.4781 11.0302L19.4781 11.0302L19.3747 11.139ZM19.3316 9.78H19.4816V9.63H19.3316V9.78ZM15.986 9.78L15.986 9.63L15.9858 9.63L15.986 9.78ZM15.8508 9.83331L15.7475 9.72456L15.7475 9.72456L15.8508 9.83331ZM15.7947 9.96172L15.6447 9.96148V9.96172H15.7947ZM15.7947 16.0383L15.6447 16.0383L15.6447 16.0385L15.7947 16.0383ZM15.8508 16.1667L15.9542 16.0579L15.9542 16.0579L15.8508 16.1667ZM21.1603 10.8321L19.6866 9.43213L19.48 9.64963L20.9537 11.0496L21.1603 10.8321ZM21.2265 10.9266C21.2109 10.8909 21.1884 10.8589 21.1604 10.8323L20.9535 11.0495C20.9529 11.0489 20.952 11.0479 20.9513 11.0461L21.2265 10.9266ZM21.25 11.0403C21.2501 11.0011 21.242 10.9624 21.2265 10.9266L20.9513 11.0461C20.9505 11.0443 20.95 11.0421 20.95 11.0397L21.25 11.0403ZM21.25 16.0383V11.04H20.95V16.0383H21.25ZM21.0605 16.4736C21.1807 16.3596 21.2498 16.2033 21.25 16.0385L20.95 16.0381C20.9499 16.1183 20.9164 16.1968 20.854 16.256L21.0605 16.4736ZM20.6134 16.65C20.7797 16.65 20.9406 16.5874 21.0605 16.4736L20.854 16.256C20.7914 16.3154 20.705 16.35 20.6134 16.35V16.65ZM15.986 16.65H20.6134V16.35H15.986V16.65ZM15.5389 16.4731C15.6587 16.587 15.8196 16.6498 15.9858 16.65L15.9862 16.35C15.8946 16.3499 15.8082 16.3152 15.7457 16.2557L15.5389 16.4731ZM15.35 16.0377C15.35 16.2025 15.4189 16.3589 15.5389 16.4731L15.7457 16.2557C15.6834 16.1965 15.65 16.1179 15.65 16.0377H15.35ZM15.35 9.96172V16.0377H15.65V9.96172H15.35ZM15.5392 9.52665C15.4192 9.64063 15.3502 9.79685 15.35 9.96153L15.65 9.96191C15.6501 9.88177 15.6836 9.80328 15.7458 9.74415L15.5392 9.52665ZM15.9858 9.35C15.8197 9.35019 15.6589 9.41292 15.5392 9.52665L15.7458 9.74415C15.8083 9.68477 15.8947 9.65011 15.9862 9.65L15.9858 9.35ZM19.4789 9.35H15.986V9.65H19.4789V9.35ZM19.5901 9.37091C19.5546 9.35699 19.5167 9.34994 19.4787 9.35L19.4792 9.65C19.4799 9.65 19.4804 9.65014 19.4807 9.65024L19.5901 9.37091ZM19.6865 9.432C19.6585 9.40548 19.6257 9.38484 19.5901 9.37091L19.4807 9.65024L19.4801 9.64976L19.6865 9.432ZM19.523 10.0867L20.4936 11.0088L20.7002 10.7913L19.7296 9.86921L19.523 10.0867ZM19.7763 10.9V9.97796H19.4763V10.9H19.7763ZM20.5969 10.75H19.6263V11.05H20.5969V10.75ZM20.614 16.07H15.986V16.37H20.614V16.07ZM20.6458 16.0579C20.6386 16.0648 20.6272 16.07 20.6138 16.07L20.6142 16.37C20.7022 16.3699 20.788 16.3367 20.8525 16.2754L20.6458 16.0579ZM20.6553 16.038C20.6553 16.044 20.6528 16.0513 20.6458 16.0579L20.8525 16.2754C20.9172 16.214 20.9551 16.1289 20.9553 16.0385L20.6553 16.038ZM20.6553 11.18V16.0383H20.9553V11.18H20.6553ZM19.4789 11.33H20.8053V11.03H19.4789V11.33ZM19.2714 11.2477C19.3277 11.3012 19.4025 11.33 19.4789 11.33V11.03L19.4781 11.0302L19.2714 11.2477ZM19.1816 11.04C19.1816 11.1195 19.2149 11.194 19.2714 11.2477L19.4781 11.0302C19.4793 11.0315 19.4816 11.0348 19.4816 11.04H19.1816ZM19.1816 9.78V11.04H19.4816V9.78H19.1816ZM15.986 9.93H19.3316V9.63H15.986V9.93ZM15.9542 9.94206C15.9614 9.93516 15.9728 9.93002 15.9862 9.93L15.9858 9.63C15.8978 9.63013 15.812 9.66333 15.7475 9.72456L15.9542 9.94206ZM15.9447 9.96196C15.9447 9.95604 15.9472 9.94871 15.9542 9.94206L15.7475 9.72456C15.6828 9.78603 15.6449 9.87106 15.6447 9.96148L15.9447 9.96196ZM15.9447 16.0383V9.96172H15.6447V16.0383H15.9447ZM15.9542 16.0579C15.9472 16.0513 15.9447 16.044 15.9447 16.038L15.6447 16.0385C15.6449 16.1289 15.6828 16.214 15.7475 16.2754L15.9542 16.0579ZM15.9862 16.07C15.9728 16.07 15.9614 16.0648 15.9542 16.0579L15.7475 16.2754C15.812 16.3367 15.8978 16.3699 15.9858 16.37L15.9862 16.07Z" fill="white" mask="url(#path-10-outside-1_8399_40434)"/>
</svg>
