<svg width="24" height="24" viewBox="0 0 24 24" fill="none" xmlns="http://www.w3.org/2000/svg">
<path d="M7.70915 9.92727H16.2546C16.4728 9.92727 16.6182 9.78182 16.6182 9.56364V7.67273C16.6182 6.25455 15.4546 5.12727 14.0728 5.12727H13.1637C14.0728 4.69091 14.7273 3.78182 14.7273 2.69091C14.7273 1.2 13.5273 0 12.0364 0C10.5455 0 9.34551 1.2 9.34551 2.69091C9.34551 3.74545 9.9637 4.69091 10.9092 5.12727H9.92733C8.50915 5.12727 7.38188 6.29091 7.38188 7.67273V9.56364C7.34551 9.74545 7.52733 9.92727 7.70915 9.92727ZM10.0728 2.69091C10.0728 1.6 10.9455 0.727273 12.0364 0.727273C13.1273 0.727273 14.0001 1.6 14.0001 2.69091C14.0001 3.78182 13.1273 4.65455 12.0364 4.65455C10.9455 4.65455 10.0728 3.74545 10.0728 2.69091ZM8.07279 7.67273C8.07279 6.65455 8.90915 5.85455 9.89097 5.85455H14.0728C15.091 5.85455 15.891 6.69091 15.891 7.67273V9.2H8.07279V7.67273Z" fill="white"/>
<path d="M11.9999 10.7637C11.7817 10.7637 11.6363 10.9091 11.6363 11.1273V13.6728L11.0908 13.1273C10.9454 12.9819 10.7272 12.9819 10.5817 13.1273C10.4363 13.2728 10.4363 13.4909 10.5817 13.6364L11.7454 14.8C11.8181 14.8728 11.9272 14.9091 11.9999 14.9091C12.109 14.9091 12.1817 14.8728 12.2545 14.8L13.4181 13.6364C13.5636 13.4909 13.5636 13.2728 13.4181 13.1273C13.2727 12.9819 13.0545 12.9819 12.909 13.1273L12.3636 13.6364V11.0909C12.3636 10.9091 12.1817 10.7637 11.9999 10.7637Z" fill="white"/>
<path d="M5.0909 14.9819C5.16363 15.0546 5.27272 15.091 5.34544 15.091H7.01817C7.23635 15.091 7.38181 14.9455 7.38181 14.7273C7.38181 14.5092 7.23635 14.3637 7.01817 14.3637H6.25454L8.47272 12.1455C8.61817 12.0001 8.61817 11.7819 8.47272 11.6364C8.32726 11.491 8.10908 11.491 7.96363 11.6364L5.74544 13.8546V13.091C5.74544 12.8728 5.59999 12.7273 5.38181 12.7273C5.16363 12.7273 5.01817 12.8728 5.01817 13.091V14.7273C4.98181 14.8001 5.01817 14.9455 5.0909 14.9819Z" fill="white"/>
<path d="M16.0728 11.5993C15.9273 11.4539 15.7091 11.4539 15.5637 11.5993C15.4182 11.7448 15.4182 11.963 15.5637 12.1084L17.7819 14.3266H17.0182C16.8 14.3266 16.6546 14.4721 16.6546 14.6902C16.6546 14.9084 16.8 15.0539 17.0182 15.0539H18.691C18.8 15.0539 18.8728 15.0175 18.9455 14.9448C19.0182 14.8721 19.0546 14.7993 19.0546 14.6902V13.0902C19.0546 12.8721 18.9091 12.7266 18.691 12.7266C18.4728 12.7266 18.3273 12.8721 18.3273 13.0902V13.8539L16.0728 11.5993Z" fill="white"/>
<path d="M5.09091 19.9638H5.05454C5.67273 19.5638 6.10909 18.8729 6.10909 18.0729C6.10909 16.8365 5.09091 15.8184 3.85455 15.8184C2.61818 15.8184 1.6 16.8365 1.6 18.0729C1.6 18.8729 2.03636 19.5638 2.65455 19.9638H2.54545C1.12727 19.9638 0 21.1275 0 22.5093V23.6365C0 23.8547 0.145455 24.0002 0.363636 24.0002H7.27273C7.49091 24.0002 7.63636 23.8547 7.63636 23.6365V22.5093C7.63636 21.1275 6.50909 19.9638 5.09091 19.9638ZM3.85455 16.5456C4.69091 16.5456 5.38182 17.2365 5.38182 18.0729C5.38182 18.9093 4.69091 19.6002 3.85455 19.6002C3.01818 19.6002 2.32727 18.9093 2.32727 18.0729C2.32727 17.2365 3.01818 16.5456 3.85455 16.5456ZM6.90909 23.2729H0.727273V22.5093C0.727273 21.4911 1.56364 20.6911 2.54545 20.6911H5.09091C6.10909 20.6911 6.90909 21.5275 6.90909 22.5093V23.2729Z" fill="white"/>
<path d="M13.2728 19.9638H13.2364C13.8546 19.5638 14.291 18.8729 14.291 18.0729C14.291 16.8365 13.2728 15.8184 12.0364 15.8184C10.8001 15.8184 9.78188 16.8365 9.78188 18.0729C9.78188 18.8729 10.2182 19.5638 10.8364 19.9638H10.7273C9.30916 19.9638 8.18188 21.1275 8.18188 22.5093V23.6365C8.18188 23.8547 8.32734 24.0002 8.54552 24.0002H15.4546C15.6728 24.0002 15.8182 23.8547 15.8182 23.6365V22.5093C15.8182 21.1275 14.691 19.9638 13.2728 19.9638ZM12.0364 16.5456C12.8728 16.5456 13.5637 17.2365 13.5637 18.0729C13.5637 18.9093 12.8728 19.6002 12.0364 19.6002C11.2001 19.6002 10.5092 18.9093 10.5092 18.0729C10.5092 17.2365 11.2001 16.5456 12.0364 16.5456ZM15.091 23.2729H8.90916V22.5093C8.90916 21.4911 9.74552 20.6911 10.7273 20.6911H13.2728C14.291 20.6911 15.091 21.5275 15.091 22.5093V23.2729Z" fill="white"/>
<path d="M21.4547 19.9638H21.4183C22.0365 19.5638 22.4729 18.8729 22.4729 18.0729C22.4729 16.8365 21.4547 15.8184 20.2183 15.8184C18.982 15.8184 17.9638 16.8365 17.9638 18.0729C17.9638 18.8729 18.4001 19.5638 19.0183 19.9638H18.9092C17.491 19.9638 16.3638 21.1275 16.3638 22.5093V23.6365C16.3638 23.8547 16.5092 24.0002 16.7274 24.0002H23.6365C23.8547 24.0002 24.0001 23.8547 24.0001 23.6365V22.5093C24.0001 21.1275 22.8365 19.9638 21.4547 19.9638ZM20.2183 16.5456C21.0547 16.5456 21.7456 17.2365 21.7456 18.0729C21.7456 18.9093 21.0547 19.6002 20.2183 19.6002C19.382 19.6002 18.691 18.9093 18.691 18.0729C18.691 17.2365 19.3456 16.5456 20.2183 16.5456ZM23.2729 23.2729H17.091V22.5093C17.091 21.4911 17.9274 20.6911 18.9092 20.6911H21.4547C22.4729 20.6911 23.2729 21.5275 23.2729 22.5093V23.2729Z" fill="white"/>
</svg>
