<svg width="22" height="22" viewBox="0 0 22 22" fill="none" xmlns="http://www.w3.org/2000/svg">
<g clip-path="url(#clip0_4869_28887)">
<path d="M21.5266 0.0592056C21.4336 0.0204765 21.334 0.000361379 21.2333 0H17.1402C16.9367 0 16.7415 0.0808552 16.5976 0.224778C16.4537 0.368702 16.3728 0.563903 16.3728 0.767442C16.3728 0.97098 16.4537 1.16618 16.5976 1.3101C16.7415 1.45403 16.9367 1.53488 17.1402 1.53488H19.3806L15.5744 5.34112C15.5027 5.41228 15.4458 5.49689 15.4069 5.5901C15.368 5.68332 15.3478 5.78329 15.3477 5.8843C15.3475 5.9853 15.3672 6.08535 15.4058 6.17871C15.4444 6.27206 15.501 6.35688 15.5724 6.4283C15.6438 6.49972 15.7287 6.55634 15.822 6.59491C15.9154 6.63348 16.0154 6.65324 16.1164 6.65305C16.2174 6.65287 16.3174 6.63275 16.4106 6.59384C16.5038 6.55493 16.5884 6.498 16.6596 6.42632L20.4658 2.6201V4.86046C20.4658 5.064 20.5467 5.2592 20.6906 5.40313C20.8345 5.54705 21.0297 5.6279 21.2333 5.6279C21.4368 5.6279 21.632 5.54705 21.7759 5.40313C21.9199 5.2592 22.0007 5.064 22.0007 4.86046V0.767442C22.0001 0.615831 21.9548 0.467759 21.8705 0.341775C21.7862 0.215791 21.6665 0.117497 21.5266 0.0592056Z" fill="#FF8926"/>
<path d="M10.9992 8.0456C11.289 8.04589 11.5668 8.1611 11.7717 8.36594C11.9767 8.57078 12.092 8.84855 12.0924 9.13831C12.0924 9.34185 12.1733 9.53705 12.3172 9.68097C12.4611 9.82489 12.6563 9.90575 12.8599 9.90575C13.0634 9.90575 13.2586 9.82489 13.4025 9.68097C13.5465 9.53705 13.6273 9.34185 13.6273 9.13831C13.6253 8.57741 13.4435 8.03194 13.1086 7.58199C12.7737 7.13204 12.3034 6.80132 11.7667 6.63838V5.88268C11.7667 5.67914 11.6858 5.48394 11.5419 5.34001C11.398 5.19609 11.2028 5.11523 10.9992 5.11523C10.7957 5.11523 10.6005 5.19609 10.4566 5.34001C10.3126 5.48394 10.2318 5.67914 10.2318 5.88268V6.63838C9.6297 6.82075 9.11333 7.21364 8.77701 7.74527C8.44068 8.27691 8.30685 8.9118 8.39996 9.53396C8.49307 10.1561 8.80691 10.724 9.28414 11.1339C9.76137 11.5438 10.3701 11.7683 10.9992 11.7664C11.2154 11.7664 11.4266 11.8306 11.6063 11.9507C11.786 12.0708 11.9261 12.2415 12.0088 12.4412C12.0915 12.6409 12.1131 12.8607 12.0709 13.0726C12.0287 13.2846 11.9246 13.4794 11.7718 13.6322C11.619 13.785 11.4242 13.8891 11.2123 13.9313C11.0003 13.9735 10.7805 13.9519 10.5808 13.8692C10.3811 13.7865 10.2104 13.6464 10.0903 13.4667C9.9702 13.287 9.90606 13.0757 9.90601 12.8596C9.90601 12.6561 9.82516 12.4609 9.68123 12.3169C9.53731 12.173 9.34211 12.0922 9.13857 12.0922C8.93503 12.0922 8.73983 12.173 8.59591 12.3169C8.45199 12.4609 8.37113 12.6561 8.37113 12.8596C8.37315 13.4205 8.55496 13.966 8.88985 14.4159C9.22474 14.8659 9.69507 15.1966 10.2318 15.3595V16.1152C10.2318 16.3188 10.3126 16.514 10.4566 16.6579C10.6005 16.8018 10.7957 16.8827 10.9992 16.8827C11.2028 16.8827 11.398 16.8018 11.5419 16.6579C11.6858 16.514 11.7667 16.3188 11.7667 16.1152V15.3595C12.3687 15.1772 12.8851 14.7843 13.2214 14.2526C13.5578 13.721 13.6916 13.0861 13.5985 12.4639C13.5054 11.8418 13.1915 11.2739 12.7143 10.864C12.2371 10.4541 11.6283 10.2296 10.9992 10.2315C10.8554 10.232 10.7129 10.204 10.5799 10.1493C10.4469 10.0945 10.3261 10.0141 10.2242 9.91258C10.1224 9.81104 10.0416 9.69041 9.98643 9.55759C9.9313 9.42477 9.90291 9.28237 9.90291 9.13856C9.90291 8.99475 9.9313 8.85235 9.98643 8.71953C10.0416 8.58671 10.1224 8.46607 10.2242 8.36454C10.3261 8.263 10.4469 8.18257 10.5799 8.12784C10.7129 8.07311 10.8554 8.04516 10.9992 8.0456Z" fill="#FF8926"/>
<path d="M21.2326 10.2326C21.029 10.2326 20.8339 10.3135 20.69 10.4574C20.546 10.6013 20.4652 10.7965 20.4651 11C20.4651 12.872 19.91 14.702 18.87 16.2585C17.8299 17.8151 16.3517 19.0282 14.6221 19.7446C12.8926 20.461 10.9895 20.6485 9.15345 20.2832C7.3174 19.918 5.63088 19.0166 4.30716 17.6928C2.98344 16.3691 2.08197 14.6826 1.71676 12.8465C1.35154 11.0105 1.53899 9.10738 2.25538 7.37786C2.97177 5.64833 4.18494 4.17008 5.74147 3.13004C7.298 2.09 9.12798 1.53488 11 1.53488C11.2035 1.53488 11.3987 1.45403 11.5427 1.3101C11.6866 1.16618 11.7674 0.97098 11.7674 0.767442C11.7674 0.563904 11.6866 0.368702 11.5427 0.224778C11.3987 0.0808553 11.2035 0 11 0C8.82441 0 6.69767 0.645139 4.88873 1.85383C3.07979 3.06253 1.66989 4.78049 0.83733 6.79048C0.00476612 8.80047 -0.213071 11.0122 0.211367 13.146C0.635804 15.2798 1.68345 17.2398 3.22183 18.7782C4.76021 20.3165 6.72022 21.3642 8.85401 21.7886C10.9878 22.2131 13.1995 21.9952 15.2095 21.1627C17.2195 20.3301 18.9375 18.9202 20.1462 17.1113C21.3549 15.3023 22 13.1756 22 11C21.9999 10.7965 21.9191 10.6013 21.7752 10.4574C21.6313 10.3135 21.4361 10.2326 21.2326 10.2326Z" fill="#FF8926"/>
</g>
<defs>
<clipPath id="clip0_4869_28887">
<rect width="22" height="22" fill="white"/>
</clipPath>
</defs>
</svg>
