<svg width="22" height="22" viewBox="0 0 22 22" fill="none" xmlns="http://www.w3.org/2000/svg">
<g clip-path="url(#clip0_4869_30280)">
<path d="M8.06693 10.2667C9.08221 10.2667 10.0747 9.9656 10.9189 9.40155C11.763 8.83749 12.421 8.03577 12.8095 7.09778C13.198 6.15978 13.2997 5.12764 13.1016 4.13187C12.9036 3.1361 12.4147 2.22143 11.6967 1.50352C10.9788 0.785611 10.0642 0.296709 9.06839 0.0986378C8.07262 -0.0994329 7.04048 0.00222419 6.10249 0.390754C5.16449 0.779284 4.36277 1.43724 3.79872 2.28141C3.23466 3.12558 2.93359 4.11806 2.93359 5.13334C2.93515 6.4943 3.47648 7.79908 4.43883 8.76143C5.40118 9.72378 6.70596 10.2651 8.06693 10.2667ZM8.06693 1.46667C8.79213 1.46667 9.50104 1.68171 10.104 2.08461C10.707 2.48751 11.177 3.06017 11.4545 3.73016C11.732 4.40016 11.8046 5.1374 11.6631 5.84867C11.5217 6.55993 11.1724 7.21327 10.6597 7.72606C10.1469 8.23885 9.49352 8.58807 8.78226 8.72955C8.071 8.87103 7.33375 8.79841 6.66376 8.52089C5.99376 8.24337 5.4211 7.77341 5.01821 7.17043C4.61531 6.56745 4.40026 5.85853 4.40026 5.13334C4.40143 4.16123 4.78811 3.22928 5.47549 2.5419C6.16287 1.85452 7.09483 1.46783 8.06693 1.46667Z" fill="#FF8926"/>
<path d="M11.1621 11.7324H4.97127C3.65335 11.7338 2.38979 12.2579 1.45781 13.1897C0.525832 14.1216 0.00155299 15.385 0 16.703V21.2658C0 21.4602 0.0772617 21.6468 0.214788 21.7843C0.352315 21.9218 0.538841 21.9991 0.733333 21.9991H15.4C15.5945 21.9991 15.781 21.9218 15.9185 21.7843C16.0561 21.6468 16.1333 21.4602 16.1333 21.2658V16.703C16.1318 15.385 15.6075 14.1216 14.6755 13.1897C13.7435 12.2579 12.48 11.7338 11.1621 11.7324ZM14.6667 20.5324H1.46667V16.703C1.46783 15.7739 1.83746 14.8832 2.49447 14.2264C3.15148 13.5695 4.04221 13.2001 4.97127 13.1991H11.1621C12.0911 13.2001 12.9819 13.5695 13.6389 14.2264C14.2959 14.8832 14.6655 15.7739 14.6667 16.703V20.5324Z" fill="#FF8926"/>
<path d="M21.266 8.80052H19.066V6.60052C19.066 6.40603 18.9888 6.2195 18.8512 6.08198C18.7137 5.94445 18.5272 5.86719 18.3327 5.86719C18.1382 5.86719 17.9517 5.94445 17.8141 6.08198C17.6766 6.2195 17.5993 6.40603 17.5993 6.60052V8.80052H15.3993C15.2049 8.80052 15.0183 8.87778 14.8808 9.01531C14.7433 9.15284 14.666 9.33936 14.666 9.53385C14.666 9.72835 14.7433 9.91487 14.8808 10.0524C15.0183 10.1899 15.2049 10.2672 15.3993 10.2672H17.5993V12.4672C17.5993 12.6617 17.6766 12.8482 17.8141 12.9857C17.9517 13.1233 18.1382 13.2005 18.3327 13.2005C18.5272 13.2005 18.7137 13.1233 18.8512 12.9857C18.9888 12.8482 19.066 12.6617 19.066 12.4672V10.2672H21.266C21.4605 10.2672 21.647 10.1899 21.7846 10.0524C21.9221 9.91487 21.9993 9.72835 21.9993 9.53385C21.9993 9.33936 21.9221 9.15284 21.7846 9.01531C21.647 8.87778 21.4605 8.80052 21.266 8.80052Z" fill="#FF8926"/>
</g>
<defs>
<clipPath id="clip0_4869_30280">
<rect width="22" height="22" fill="white"/>
</clipPath>
</defs>
</svg>
