<svg width="107" height="22" viewBox="0 0 107 22" fill="none" xmlns="http://www.w3.org/2000/svg">
<path fill-rule="evenodd" clip-rule="evenodd" d="M104.133 2H106.3V0H0V1.58401V2H1.59806C23.642 7.79971 32.7257 12.78 38.7947 16.1074C43.844 18.8758 46.8064 20.5 53.4097 20.5C59.2562 20.5 62.8639 18.5088 68.2156 15.555C74.8934 11.8692 84.2867 6.68479 104.133 2Z" fill="white"/>
<path d="M53 20.4999C65.4774 20.4999 66.5374 11.087 101.776 3C102.609 2.83333 104.476 2.5 105.276 2.5M53.2759 20.4999C40.7985 20.4999 39.7385 11.087 4.5 3C3.66667 2.83333 1.8 2.5 1 2.5" stroke="#D9D9D9" stroke-width="2" stroke-linecap="square"/>
</svg>
