<svg width="16" height="7" viewBox="0 0 16 7" fill="none" xmlns="http://www.w3.org/2000/svg">
<path d="M7.93789 6.99861C7.67761 6.98695 7.43016 6.90243 7.23708 6.75923L0.424022 1.65233C0.303246 1.57292 0.203623 1.47413 0.131289 1.36205C0.0589553 1.24997 0.0154382 1.12698 0.00341996 1.00063C-0.00859635 0.874286 0.011139 0.747272 0.061411 0.627398C0.111683 0.507523 0.19143 0.397322 0.295739 0.303597C0.400048 0.209872 0.526712 0.134593 0.667936 0.0824025C0.809159 0.0302117 0.96195 0.00221634 1.11691 0.000127502C1.27186 -0.00196133 1.4257 0.0219042 1.56895 0.0702602C1.7122 0.118616 1.84183 0.190433 1.94986 0.281296L7.40033 4.36573C7.75575 4.63208 8.24426 4.63208 8.59969 4.36573L14.0501 0.281295C14.1582 0.190432 14.2878 0.118615 14.4311 0.0702591C14.5743 0.0219031 14.7281 -0.00196253 14.8831 0.000126277C15.0381 0.00221508 15.1908 0.0302104 15.3321 0.0824012C15.4733 0.134592 15.6 0.20987 15.7043 0.303596C15.8086 0.397321 15.8883 0.507522 15.9386 0.627397C15.9889 0.747271 16.0086 0.874285 15.9966 1.00063C15.9846 1.12698 15.941 1.24997 15.8687 1.36205C15.7964 1.47412 15.6968 1.57292 15.576 1.65233L8.76293 6.75923C8.65162 6.84178 8.52138 6.90545 8.37975 6.94654C8.23813 6.98764 8.08794 7.00533 7.93789 6.99861Z" fill="#D5F7F4"/>
</svg>
