<svg width="22" height="17" viewBox="0 0 22 17" fill="none" xmlns="http://www.w3.org/2000/svg">
<path fill-rule="evenodd" clip-rule="evenodd" d="M1.27475 12.4684C0.942682 12.1369 0.737226 11.6788 0.737226 11.1746V2.56849C0.737226 2.06435 0.942682 1.60624 1.27475 1.27475C1.60624 0.942682 2.06435 0.737226 2.56849 0.737226H16.0469C16.551 0.737226 17.0086 0.942682 17.3406 1.27475C17.6727 1.60624 17.8782 2.06435 17.8782 2.56849V5.25106C18.1314 5.31641 18.3776 5.39934 18.6154 5.49849V2.56849C18.6154 1.86062 18.3271 1.21835 17.862 0.75334C17.397 0.28833 16.7548 0 16.0469 0H2.56849C1.86062 0 1.21835 0.28833 0.75334 0.75334C0.28833 1.21835 0 1.86062 0 2.56849V11.1746C0 11.8825 0.28833 12.5248 0.75334 12.9898C1.21835 13.4548 1.86062 13.7431 2.56849 13.7431H12.0022C11.8378 13.5101 11.6911 13.2637 11.564 13.0059H2.56849C2.06435 13.0059 1.60624 12.8005 1.27475 12.4684ZM13.2995 6.10353C12.7334 6.50932 12.2474 7.01992 11.87 7.60697L10.876 8.65219C10.8466 8.68326 10.8167 8.71319 10.7867 8.74139C10.3557 9.15173 9.83313 9.35661 9.30769 9.35661C8.78283 9.35661 8.26027 9.15115 7.82921 8.74139C7.79871 8.71262 7.76878 8.68269 7.73943 8.65219L6.37433 7.21687L2.35728 11.4405C2.21743 11.5879 1.98435 11.5936 1.83702 11.4532C1.68969 11.3133 1.68451 11.0803 1.82436 10.9335L5.86673 6.68337L2.12247 2.74632C1.98263 2.59899 1.98838 2.36649 2.13514 2.22664C2.28247 2.08679 2.51497 2.09255 2.65482 2.2393L8.27178 8.14574C8.2925 8.16761 8.31379 8.1889 8.33566 8.20905C8.62341 8.48299 8.96642 8.61996 9.30769 8.61996C9.64839 8.61996 9.99197 8.48299 10.2797 8.20905C10.301 8.1889 10.3223 8.16761 10.343 8.14574L15.96 2.2393C16.0998 2.09197 16.3329 2.08679 16.4797 2.22664C16.627 2.36649 16.6328 2.59957 16.4923 2.74632L13.2995 6.10353Z" fill="#FF8926"/>
<path d="M21.625 10.9999C21.625 13.5967 19.5199 15.7018 16.9231 15.7018C14.3263 15.7018 12.2212 13.5967 12.2212 10.9999C12.2212 8.4031 14.3263 6.29797 16.9231 6.29797C19.5199 6.29797 21.625 8.4031 21.625 10.9999Z" stroke="#FF8926" stroke-width="0.75"/>
<path d="M18.8309 10.272C19.1959 10.1889 19.4611 9.83352 19.4611 9.42559C19.4611 9.10651 19.3009 8.81513 19.0436 8.66419L17.5417 7.78528C17.3518 7.67447 17.1383 7.61523 16.923 7.61523C16.7077 7.61523 16.4941 7.67351 16.3042 7.78528L14.8024 8.66419C14.5451 8.81513 14.3849 9.10651 14.3849 9.42559C14.3849 9.83257 14.6501 10.1889 15.0151 10.272L15.0851 10.2883V11.5493L15.0439 11.577C14.9118 11.6668 14.805 11.7958 14.7341 11.9496L14.4497 12.5706C14.3543 12.7798 14.3639 13.0224 14.4768 13.2211C14.5888 13.4198 14.784 13.5383 14.9975 13.5383H18.8484C19.062 13.5383 19.2571 13.4198 19.3692 13.2211C19.4821 13.0224 19.4917 12.7788 19.3963 12.5706L19.1119 11.9496C19.0418 11.7958 18.9342 11.6668 18.802 11.577L18.7609 11.5493V10.2883L18.8309 10.272ZM18.9272 12.8266C18.9561 12.8896 18.9141 12.9651 18.8493 12.9651H14.9975C14.9328 12.9651 14.8899 12.8906 14.9197 12.8266L15.2041 12.2056C15.2592 12.0852 15.3713 12.0098 15.4947 12.0098H18.3522C18.4747 12.0098 18.5876 12.0852 18.6419 12.2056L18.9272 12.8266ZM15.6111 11.4366V10.2902H16.6613V11.4366H15.6111ZM17.1864 11.4366V10.2902H18.2367V11.4366H17.1864ZM18.6699 9.71697H15.177C15.0299 9.71697 14.91 9.58609 14.91 9.42559C14.91 9.3186 14.9643 9.2202 15.0509 9.16861L16.5528 8.2897C16.7803 8.15691 17.0674 8.15691 17.2941 8.2897L18.7959 9.16861C18.8826 9.21924 18.9368 9.31764 18.9368 9.42559C18.9368 9.58609 18.8169 9.71697 18.6699 9.71697Z" fill="#FF8926"/>
</svg>
