<svg width="22" height="22" viewBox="0 0 22 22" fill="none" xmlns="http://www.w3.org/2000/svg">
<path d="M17.7084 8.06169L19.81 7.19134C20.001 7.10642 20.1284 6.97906 20.2133 6.788C20.2982 6.59695 20.2982 6.4059 20.2133 6.23607C20.0647 5.85397 19.6189 5.68414 19.258 5.83274L17.1352 6.70309C16.8593 6.80923 16.6895 7.0852 16.6895 7.38239C16.6895 7.48853 16.7107 7.57344 16.7531 7.65835C16.9017 8.04046 17.3263 8.23151 17.7084 8.06169Z" fill="#FF8926"/>
<path d="M19.7885 14.2597L17.6869 13.3894C17.3048 13.2408 16.8803 13.4106 16.7317 13.7927C16.6892 13.8776 16.668 13.9838 16.668 14.0687C16.668 14.3659 16.8378 14.6418 17.1138 14.748L19.2153 15.6183C19.5974 15.7669 20.022 15.5971 20.1706 15.215C20.3404 14.8541 20.1706 14.4296 19.7885 14.2597Z" fill="#FF8926"/>
<path d="M20.3408 9.99316H18.0906C17.6873 9.99316 17.3477 10.3116 17.3477 10.7361C17.3477 11.1395 17.6661 11.4791 18.0906 11.4791H20.3408C20.7441 11.4791 21.0838 11.1607 21.0838 10.7361C21.0838 10.3328 20.7654 9.99316 20.3408 9.99316Z" fill="#FF8926"/>
<path d="M4.86564 6.70237L2.76406 5.85325C2.38196 5.70465 1.9574 5.87448 1.8088 6.25658C1.72389 6.44763 1.72389 6.63869 1.8088 6.80851C1.89371 6.99956 2.02108 7.12693 2.21213 7.21184L4.31371 8.08219C4.69582 8.23079 5.12038 8.06097 5.26898 7.67886C5.31143 7.59395 5.33266 7.48781 5.33266 7.4029C5.31143 7.08448 5.14161 6.82974 4.86564 6.70237Z" fill="#FF8926"/>
<path d="M4.29273 13.411L2.19115 14.2813C1.80905 14.4299 1.63922 14.8545 1.78782 15.2366C1.93641 15.6187 2.3822 15.7885 2.74308 15.6399L4.84466 14.7696C5.12062 14.6634 5.29045 14.3875 5.29045 14.0903C5.29045 13.9841 5.26922 13.8992 5.22676 13.8143C5.0994 13.4322 4.67484 13.2412 4.29273 13.411Z" fill="#FF8926"/>
<path d="M4.65313 10.7361C4.65313 10.3328 4.33471 9.99316 3.91015 9.99316H1.65997C1.25664 9.99316 0.916992 10.3116 0.916992 10.7361C0.916992 11.1395 1.23541 11.4791 1.65997 11.4791H3.93138C4.31348 11.4791 4.65313 11.1395 4.65313 10.7361Z" fill="#FF8926"/>
<path d="M14.3115 8.18865L13.3987 8.20988L13.7383 5.19549C13.802 4.55865 13.4624 3.98549 12.868 3.75199C12.2736 3.5397 11.6368 3.73076 11.2547 4.26146L6.52081 11.1394C6.22361 11.5639 6.20238 12.1158 6.43589 12.5616C6.69063 13.0074 7.15765 13.3046 7.66712 13.2834L8.57993 13.2622L8.24028 16.2765C8.1766 16.9134 8.51624 17.4865 9.11063 17.7201C9.28045 17.7837 9.42905 17.805 9.59888 17.805C10.0447 17.805 10.448 17.5927 10.7027 17.2106L15.4366 10.3539C15.7338 9.92935 15.755 9.37742 15.5215 8.93163C15.3092 8.46462 14.821 8.16742 14.3115 8.18865ZM9.7687 16.0006L10.1508 12.5829C10.172 12.3706 10.1083 12.1583 9.95975 12.0097C9.81116 11.8611 9.6201 11.7762 9.40782 11.7762C9.40782 11.7762 9.40782 11.7762 9.3866 11.7762L7.85817 11.7974L12.2312 5.47146L11.8491 8.88918C11.8278 9.10146 11.8915 9.31374 12.0401 9.46234C12.1887 9.61093 12.3798 9.69584 12.592 9.69584L14.1417 9.65339L9.7687 16.0006Z" fill="#FF8926"/>
</svg>
