<svg width="22" height="17" viewBox="0 0 22 17" fill="none" xmlns="http://www.w3.org/2000/svg">
<path fill-rule="evenodd" clip-rule="evenodd" d="M1.27475 12.4684C0.942682 12.1369 0.737226 11.6788 0.737226 11.1746V2.56849C0.737226 2.06435 0.942682 1.60624 1.27475 1.27475C1.60624 0.942682 2.06435 0.737226 2.56849 0.737226H16.0469C16.551 0.737226 17.0086 0.942682 17.3406 1.27475C17.6727 1.60624 17.8782 2.06435 17.8782 2.56849V5.25106C18.1314 5.31641 18.3776 5.39934 18.6154 5.49849V2.56849C18.6154 1.86062 18.3271 1.21835 17.862 0.75334C17.397 0.28833 16.7548 0 16.0469 0H2.56849C1.86062 0 1.21835 0.28833 0.75334 0.75334C0.28833 1.21835 0 1.86062 0 2.56849V11.1746C0 11.8825 0.28833 12.5248 0.75334 12.9898C1.21835 13.4548 1.86062 13.7431 2.56849 13.7431H12.0022C11.8378 13.5101 11.6911 13.2637 11.564 13.0059H2.56849C2.06435 13.0059 1.60624 12.8005 1.27475 12.4684ZM13.2995 6.10353C12.7334 6.50932 12.2474 7.01992 11.87 7.60697L10.876 8.65219C10.8466 8.68326 10.8167 8.71319 10.7867 8.74139C10.3557 9.15173 9.83313 9.35661 9.30769 9.35661C8.78283 9.35661 8.26027 9.15115 7.82921 8.74139C7.79871 8.71262 7.76878 8.68269 7.73943 8.65219L6.37433 7.21687L2.35728 11.4405C2.21743 11.5879 1.98435 11.5936 1.83702 11.4532C1.68969 11.3133 1.68451 11.0803 1.82436 10.9335L5.86673 6.68337L2.12247 2.74632C1.98263 2.59899 1.98838 2.36649 2.13514 2.22664C2.28247 2.08679 2.51497 2.09255 2.65482 2.2393L8.27178 8.14574C8.2925 8.16761 8.31379 8.1889 8.33566 8.20905C8.62341 8.48299 8.96642 8.61996 9.30769 8.61996C9.64839 8.61996 9.99197 8.48299 10.2797 8.20905C10.301 8.1889 10.3223 8.16761 10.343 8.14574L15.96 2.2393C16.0998 2.09197 16.3329 2.08679 16.4797 2.22664C16.627 2.36649 16.6328 2.59957 16.4923 2.74632L13.2995 6.10353Z" fill="#FF8926"/>
<path d="M21.625 10.9999C21.625 13.5967 19.5199 15.7018 16.9231 15.7018C14.3263 15.7018 12.2212 13.5967 12.2212 10.9999C12.2212 8.4031 14.3263 6.29797 16.9231 6.29797C19.5199 6.29797 21.625 8.4031 21.625 10.9999Z" stroke="#FF8926" stroke-width="0.75"/>
<path d="M20.9635 11.0208L19.6751 8.64487C19.6006 8.5083 19.4351 8.45865 19.3068 8.53779L18.8198 8.8373C18.7564 8.87609 18.7109 8.93972 18.6916 9.01731C18.6736 9.09335 18.6833 9.1725 18.7191 9.24078L18.7605 9.31682C18.6571 9.36648 18.4419 9.42235 18.0777 9.30596C18.0612 9.29975 18.0432 9.29665 18.0253 9.29354C17.8253 9.26251 16.7976 9.11663 16.2389 9.35251C16.1727 9.38045 16.112 9.43166 16.0651 9.49839C16.0362 9.54029 16.0072 9.58219 15.9796 9.62254C15.8127 9.60081 15.6734 9.57288 15.552 9.53253C15.4375 9.49528 15.3216 9.43631 15.2085 9.37579L15.2802 9.24388C15.3175 9.1756 15.3271 9.09646 15.3078 9.02042C15.2885 8.94282 15.243 8.8792 15.1795 8.8404L14.6926 8.54089C14.5643 8.46175 14.3988 8.50986 14.3243 8.64797L13.0373 11.0208C13.0001 11.089 12.9904 11.1682 13.0097 11.2442C13.029 11.3203 13.0745 11.3854 13.138 11.4242L13.6249 11.7237C13.6663 11.7501 13.7132 11.761 13.7574 11.761C13.8512 11.761 13.9422 11.7098 13.9919 11.6167L14.0636 11.4832L14.374 11.8588L14.356 11.8867C14.2871 11.9984 14.2608 12.1319 14.2843 12.2638C14.3077 12.3972 14.3781 12.5105 14.4816 12.5866C14.5519 12.6378 14.6305 12.6642 14.7105 12.6688C14.705 12.7169 14.705 12.7666 14.7133 12.8162C14.7354 12.9435 14.803 13.0537 14.9037 13.1251L14.9395 13.1499C15.0154 13.2042 15.1009 13.2306 15.1864 13.2306C15.2099 13.2306 15.2333 13.2259 15.2554 13.2213C15.2789 13.347 15.3465 13.4556 15.4458 13.527L15.4803 13.5534C15.5561 13.6077 15.6417 13.6341 15.7272 13.6341C15.7686 13.6341 15.8086 13.6263 15.8486 13.6139C15.8789 13.707 15.9341 13.7877 16.0113 13.8436L16.0431 13.8669C16.1148 13.9181 16.1962 13.9429 16.2762 13.9429C16.4114 13.9429 16.5438 13.8731 16.6252 13.7458L16.6569 13.6962C16.748 13.7241 16.8445 13.7536 16.9411 13.7831C17.0335 13.811 17.1259 13.8405 17.2073 13.8653C17.2652 13.8824 17.3259 13.8917 17.3852 13.8917C17.5066 13.8917 17.628 13.8575 17.7356 13.7893C17.8432 13.721 17.9274 13.6263 17.9798 13.5161C17.9991 13.5177 18.0184 13.5223 18.0377 13.5223C18.1219 13.5223 18.206 13.5022 18.2805 13.4634C18.3991 13.4013 18.4833 13.2989 18.5136 13.1809C18.5233 13.1406 18.526 13.0987 18.5247 13.0568C18.5315 13.0568 18.5371 13.0583 18.544 13.0583C18.5771 13.0583 18.6102 13.0552 18.6433 13.049C18.7771 13.0211 18.8874 12.9435 18.9454 12.8318C18.9854 12.7573 19.0019 12.6642 18.995 12.5695C19.0268 12.5757 19.0585 12.5804 19.0875 12.5804C19.2433 12.5804 19.3647 12.5028 19.4516 12.346C19.5109 12.2405 19.5261 12.1024 19.4944 11.9689C19.4902 11.9503 19.482 11.9317 19.4751 11.9131C19.522 11.8944 19.5675 11.8681 19.6075 11.8308L19.9496 11.5158L20.0062 11.6198C20.0558 11.7129 20.1469 11.7641 20.2407 11.7641C20.2862 11.7641 20.3317 11.7517 20.3731 11.7268L20.86 11.4273C20.9235 11.3885 20.969 11.3234 20.9883 11.2473C21.0104 11.1682 21.0007 11.089 20.9635 11.0208ZM13.7574 11.4584L13.2801 11.1651L14.5588 8.80316L15.0375 9.09801L13.7574 11.4584ZM14.556 12.2064C14.5464 12.1552 14.5574 12.1024 14.5836 12.0589L14.6885 11.8898C14.7464 11.7967 14.8637 11.7734 14.9506 11.8355C14.9919 11.865 15.0195 11.9115 15.0292 11.9627C15.0388 12.0139 15.0278 12.0667 15.0016 12.1102L14.9671 12.1645L14.8926 12.2809C14.8333 12.3709 14.7188 12.3941 14.6333 12.3321C14.5933 12.3041 14.5657 12.2576 14.556 12.2064ZM15.0913 12.8969L15.0568 12.8721C15.0195 12.8457 14.9947 12.8054 14.9864 12.7588C14.9781 12.7138 14.9878 12.6688 15.0113 12.63L15.1216 12.4562C15.123 12.4547 15.1244 12.4531 15.1257 12.4516L15.1933 12.3429L15.4927 11.8696C15.5258 11.8184 15.5796 11.7889 15.6348 11.7889C15.6679 11.7889 15.7023 11.7998 15.7313 11.82L15.7658 11.8448C15.803 11.8712 15.8279 11.9115 15.8362 11.9581C15.8444 12.0031 15.8348 12.0481 15.8113 12.0869L15.4251 12.6968L15.3299 12.8473C15.2775 12.9326 15.1699 12.9544 15.0913 12.8969ZM15.632 13.2989L15.5975 13.274C15.5603 13.2477 15.5354 13.2073 15.5272 13.1608C15.5189 13.1158 15.5285 13.0692 15.552 13.032L15.9396 12.419C15.9727 12.3662 16.0265 12.3383 16.0817 12.3383C16.1148 12.3383 16.1493 12.3491 16.1796 12.3693L16.2155 12.3941C16.2527 12.4205 16.2789 12.4609 16.2858 12.5074C16.2941 12.5524 16.2845 12.599 16.261 12.6362L16.1548 12.8038L16.0913 12.9047L15.8734 13.2492C15.8196 13.3346 15.7106 13.3563 15.632 13.2989ZM16.399 13.5705C16.3534 13.6418 16.2624 13.6605 16.1948 13.6124L16.1631 13.5891C16.1313 13.5658 16.1093 13.5317 16.1024 13.4929C16.0955 13.4541 16.1038 13.4168 16.1231 13.3842L16.3796 12.9792C16.4072 12.9342 16.4541 12.9109 16.501 12.9109C16.53 12.9109 16.559 12.9202 16.5838 12.9373L16.6169 12.9606C16.6486 12.9839 16.6707 13.018 16.6776 13.0568C16.6845 13.0956 16.6762 13.1328 16.6569 13.1654L16.399 13.5705ZM19.2185 12.1846C19.184 12.2483 19.1095 12.3786 18.7178 12.1179C18.5522 12.0077 18.4019 11.9162 18.257 11.8277C18.1219 11.7455 17.9867 11.6632 17.8349 11.5639C17.7701 11.5205 17.6846 11.5437 17.646 11.6167C17.6073 11.6881 17.628 11.7812 17.6929 11.8246C17.8474 11.9255 17.9853 12.0108 18.1232 12.0931C18.2722 12.1831 18.4129 12.27 18.5743 12.3771C18.5771 12.3786 18.5784 12.3802 18.5812 12.3817C18.6474 12.4205 18.6971 12.4842 18.715 12.5555C18.7274 12.6021 18.7247 12.6455 18.7095 12.675C18.6916 12.7076 18.646 12.7371 18.5936 12.748C18.515 12.7635 18.4322 12.7402 18.3688 12.6843C18.3633 12.6797 18.3577 12.675 18.3522 12.6719C18.2074 12.5804 18.0708 12.4888 17.9343 12.3972C17.7949 12.3041 17.6556 12.211 17.5066 12.1179C17.4404 12.076 17.3563 12.1008 17.3177 12.1738C17.279 12.2467 17.3025 12.3383 17.3687 12.3802C17.5149 12.4717 17.6515 12.5648 17.7894 12.6564C17.8998 12.7309 18.0115 12.8038 18.1274 12.8783C18.1288 12.8783 18.1288 12.8799 18.1288 12.8799C18.2212 12.9451 18.2626 13.0444 18.2488 13.0971C18.2432 13.122 18.217 13.1592 18.1632 13.1871C18.126 13.2058 18.0253 13.2446 17.9039 13.1871L17.1976 12.8038C17.1287 12.7666 17.0473 12.7976 17.0128 12.8721C16.9783 12.9466 17.0073 13.0382 17.0749 13.0754L17.708 13.4184C17.6791 13.4587 17.6432 13.4944 17.5977 13.5239C17.4997 13.586 17.3839 13.603 17.279 13.5705C17.1976 13.5456 17.1066 13.5177 17.0142 13.4898C16.9507 13.4696 16.8859 13.4494 16.8224 13.4308L16.8804 13.3377C16.9438 13.2368 16.9673 13.1173 16.9452 12.9978C16.9245 12.8768 16.8597 12.7744 16.7659 12.7061L16.7328 12.6828C16.6776 12.6424 16.6169 12.6207 16.5548 12.613C16.5631 12.5586 16.5631 12.5043 16.5535 12.45C16.5314 12.3228 16.4624 12.2126 16.3631 12.1412L16.3272 12.1164C16.2596 12.0683 16.1851 12.045 16.1093 12.0388C16.1134 11.9938 16.1134 11.9472 16.1051 11.9022C16.0831 11.775 16.0141 11.6648 15.9148 11.5934L15.8803 11.5686C15.6775 11.4227 15.4003 11.4817 15.2637 11.6974L15.2375 11.7393C15.203 11.6787 15.1575 11.626 15.1023 11.5856C14.9271 11.4584 14.7009 11.4801 14.5478 11.6213L14.2112 11.2147L15.0664 9.63805C15.1961 9.70789 15.3313 9.77772 15.472 9.82428C15.5699 9.85687 15.6775 9.88169 15.7961 9.90342C15.7534 9.97015 15.7134 10.0353 15.6748 10.1005C15.6113 10.206 15.5382 10.3333 15.4761 10.4652L15.4623 10.4931C15.4416 10.535 15.4168 10.5862 15.4044 10.6437C15.3823 10.7414 15.3865 10.9168 15.6513 10.999C15.861 11.0642 16.0955 10.9944 16.3507 10.7864C16.4417 10.7135 16.4886 10.653 16.5314 10.6002C16.5769 10.5428 16.6128 10.4978 16.7079 10.4342C16.8155 10.3628 16.8735 10.3519 16.9162 10.3504C17.0004 10.3488 17.0666 10.3829 17.09 10.3985L18.1053 11.0611C18.1094 11.0642 18.115 11.0673 18.1191 11.0704L19.0792 11.8463C19.0833 11.8494 19.0875 11.851 19.0916 11.8541C19.093 11.8541 19.093 11.8557 19.093 11.8557C19.1606 11.8976 19.2102 11.9658 19.2282 12.0419C19.242 12.0962 19.2378 12.149 19.2185 12.1846ZM19.4323 11.5965C19.3785 11.6462 19.2999 11.6477 19.2433 11.6027L18.2833 10.8221C18.2722 10.8128 18.2612 10.805 18.2488 10.7957L17.2321 10.1331C17.177 10.0974 17.0625 10.0369 16.9093 10.0431C16.799 10.0462 16.6928 10.0865 16.5659 10.1703C16.4334 10.2588 16.3755 10.3317 16.3245 10.3969C16.2872 10.445 16.2541 10.4854 16.1865 10.5412C16.0058 10.6871 15.8513 10.743 15.7286 10.7042C15.7079 10.698 15.6927 10.6918 15.683 10.6871C15.6899 10.67 15.6996 10.6514 15.7079 10.6343L15.7244 10.6018C15.781 10.4823 15.8458 10.369 15.9093 10.265C16.0169 10.0834 16.141 9.89411 16.2872 9.68461C16.2983 9.66909 16.3162 9.64736 16.3396 9.63805C16.8445 9.42545 17.8722 9.57908 17.9881 9.59615C17.9936 9.59771 17.9991 9.59771 18.0046 9.60081C18.4695 9.74824 18.7578 9.66444 18.9068 9.58219L19.813 11.252L19.4323 11.5965ZM20.2434 11.4584L18.9633 9.09801L19.4378 8.8016L20.7207 11.1651L20.2434 11.4584Z" fill="#FF8926"/>
</svg>
