<svg width="22" height="22" viewBox="0 0 22 22" fill="none" xmlns="http://www.w3.org/2000/svg">
<g clip-path="url(#clip0_6135_52668)">
<path fill-rule="evenodd" clip-rule="evenodd" d="M16.2509 15.761L15.7347 15.7154L15.6121 15.717L15.0802 15.7798L14.5797 15.9268L14.091 16.1672L13.6769 16.4658L13.3807 16.7542L13.1238 17.0795L12.9116 17.4362L12.7922 17.7003L12.6704 18.0727H0.785714C0.352 18.0727 0 18.4247 0 18.8585C0 19.2922 0.352 19.6443 0.785714 19.6443H12.6704L12.7796 19.9837L12.9109 20.2792L13.0531 20.5298L13.2959 20.8653L13.5575 21.1443L13.8749 21.4067L14.2851 21.6582L14.7628 21.8546L15.2759 21.9709L15.8164 22L16.3484 21.9371L16.8489 21.7902L17.3376 21.5498L17.7516 21.2512L18.0479 20.9628L18.3048 20.6375L18.5169 20.2807L18.6364 20.0167L18.7581 19.6443H21.2143C21.648 19.6443 22 19.2922 22 18.8585C22 18.4247 21.648 18.0727 21.2143 18.0727H18.7581L18.6489 17.7333L18.5177 17.4378L18.3755 17.1872L18.1327 16.8516L17.8711 16.5727L17.5536 16.3102L17.2024 16.0894L16.7302 15.8836L16.2509 15.761ZM6.82236 7.90328L6.30614 7.8577L6.18357 7.85927L5.65164 7.92214L5.15114 8.06908L4.66243 8.30952L4.24836 8.60812L3.95214 8.89649L3.69521 9.2218L3.48307 9.57854L3.36364 9.84256L3.24186 10.215H0.785714C0.352 10.215 0 10.567 0 11.0008C0 11.4345 0.352 11.7866 0.785714 11.7866H3.24186L3.35107 12.126L3.48229 12.4215L3.6245 12.6721L3.86729 13.0076L4.12893 13.2866L4.44636 13.549L4.8565 13.8005L5.33422 13.9969L5.84729 14.1132L6.38786 14.1423L6.91979 14.0794L7.42029 13.9325L7.909 13.692L8.32307 13.3935L8.61929 13.1051L8.87621 12.7798L9.08836 12.423L9.20779 12.159L9.32957 11.7866H21.2143C21.648 11.7866 22 11.4345 22 11.0008C22 10.567 21.648 10.215 21.2143 10.215H9.32957L9.22036 9.87556L9.08914 9.58011L8.94693 9.32945L8.70414 8.99393L8.4425 8.71498L8.12507 8.45253L7.77386 8.23173L7.30164 8.02586L6.82236 7.90328ZM15.7143 0C14.2513 0 13.0201 1.00264 12.6704 2.35731H0.785714C0.352 2.35731 0 2.70934 0 3.14308C0 3.57683 0.352 3.92885 0.785714 3.92885H12.6704C13.0201 5.28352 14.2513 6.28616 15.7143 6.28616C17.1773 6.28616 18.4085 5.28352 18.7581 3.92885H21.2143C21.648 3.92885 22 3.57683 22 3.14308C22 2.70934 21.648 2.35731 21.2143 2.35731H18.7581C18.4085 1.00264 17.1773 0 15.7143 0ZM15.7143 20.4286C16.5822 20.4286 17.2857 19.7251 17.2857 18.8572C17.2857 17.9893 16.5822 17.2858 15.7143 17.2858C14.8464 17.2858 14.1428 17.9893 14.1428 18.8572C14.1428 19.7251 14.8464 20.4286 15.7143 20.4286ZM17.2857 3.14291C17.2857 4.01078 16.5822 4.71434 15.7143 4.71434C14.8464 4.71434 14.1428 4.01078 14.1428 3.14291C14.1428 2.27503 14.8464 1.57148 15.7143 1.57148C16.5822 1.57148 17.2857 2.27503 17.2857 3.14291ZM6.2856 12.5714C7.15347 12.5714 7.85703 11.8679 7.85703 11C7.85703 10.1321 7.15347 9.42859 6.2856 9.42859C5.41772 9.42859 4.71417 10.1321 4.71417 11C4.71417 11.8679 5.41772 12.5714 6.2856 12.5714Z" fill="white"/>
</g>
<defs>
<clipPath id="clip0_6135_52668">
<rect width="22" height="22" fill="white"/>
</clipPath>
</defs>
</svg>
