<svg width="22" height="22" viewBox="0 0 22 22" fill="none" xmlns="http://www.w3.org/2000/svg">
<g clip-path="url(#clip0_3908_18169)">
<path d="M11.464 9.86824H8.37307C8.26144 9.86824 8.15439 9.82367 8.07546 9.74432C7.99652 9.66498 7.95218 9.55737 7.95218 9.44516C7.95218 9.33296 7.99652 9.22535 8.07546 9.146C8.15439 9.06666 8.26144 9.02209 8.37307 9.02209H11.464C11.6823 9.02209 11.8918 8.9349 12.0461 8.7797C12.2005 8.6245 12.2873 8.41401 12.2873 8.19453C12.2873 7.97504 12.2005 7.76455 12.0461 7.60935C11.8918 7.45416 11.6823 7.36697 11.464 7.36697H9.61725C9.39834 7.36736 9.18151 7.32435 8.97915 7.24042C8.77679 7.15648 8.59289 7.03326 8.43796 6.8778C8.28302 6.72234 8.16011 6.5377 8.07625 6.33444C7.99239 6.13118 7.94922 5.9133 7.94922 5.69325C7.94922 5.4732 7.99239 5.25532 8.07625 5.05206C8.16011 4.8488 8.28302 4.66416 8.43796 4.5087C8.59289 4.35324 8.77679 4.23002 8.97915 4.14608C9.18151 4.06215 9.39834 4.01914 9.61725 4.01953H12.7084C12.82 4.01953 12.9271 4.06411 13.006 4.14345C13.0849 4.22279 13.1293 4.3304 13.1293 4.44261C13.1293 4.55482 13.0849 4.66243 13.006 4.74177C12.9271 4.82111 12.82 4.86569 12.7084 4.86569H9.61725C9.50896 4.86541 9.40168 4.88662 9.30156 4.92808C9.20143 4.96955 9.11042 5.03046 9.03375 5.10733C8.95708 5.18421 8.89625 5.27553 8.85475 5.37607C8.81325 5.47661 8.79188 5.5844 8.79188 5.69325C8.79188 5.8021 8.81325 5.90989 8.85475 6.01043C8.89625 6.11097 8.95708 6.20229 9.03375 6.27917C9.11042 6.35604 9.20143 6.41695 9.30156 6.45842C9.40168 6.49989 9.50896 6.52109 9.61725 6.52081H11.464C11.9056 6.52081 12.3291 6.69715 12.6414 7.01103C12.9536 7.32491 13.1291 7.75063 13.1291 8.19453C13.1291 8.63842 12.9536 9.06414 12.6414 9.37802C12.3291 9.6919 11.9056 9.86824 11.464 9.86824Z" fill="#FF8926" stroke="#FF8926" stroke-width="0.5"/>
<path d="M10.542 10.9596C10.4867 10.9596 10.432 10.9487 10.3809 10.9274C10.3298 10.9062 10.2834 10.875 10.2443 10.8357C10.2053 10.7964 10.1743 10.7498 10.1531 10.6984C10.132 10.6471 10.1211 10.5921 10.1211 10.5365V3.35081C10.1211 3.2386 10.1654 3.13099 10.2444 3.05165C10.3233 2.97231 10.4304 2.92773 10.542 2.92773C10.6536 2.92773 10.7607 2.97231 10.8396 3.05165C10.9185 3.13099 10.9629 3.2386 10.9629 3.35081V10.5365C10.9629 10.5921 10.952 10.6471 10.9309 10.6984C10.9097 10.7498 10.8787 10.7964 10.8396 10.8357C10.8005 10.875 10.7541 10.9062 10.7031 10.9274C10.652 10.9487 10.5973 10.9596 10.542 10.9596Z" fill="#FF8926" stroke="#FF8926" stroke-width="0.5"/>
<path d="M18.8298 22C18.7745 22 18.7198 21.989 18.6687 21.9678C18.6176 21.9465 18.5712 21.9153 18.5322 21.876L17.1723 20.5093L15.8124 21.876C15.7733 21.9153 15.7269 21.9465 15.6759 21.9678C15.6248 21.989 15.5701 22 15.5148 22C15.4596 22 15.4048 21.989 15.3538 21.9678C15.3027 21.9465 15.2563 21.9153 15.2172 21.876L13.8574 20.5093L12.4975 21.876C12.4584 21.9153 12.412 21.9465 12.361 21.9678C12.3099 21.989 12.2552 22 12.1999 22C12.1446 22 12.0899 21.989 12.0388 21.9678C11.9878 21.9465 11.9414 21.9153 11.9023 21.876L10.5424 20.5093L9.18231 21.876C9.14324 21.9153 9.09685 21.9465 9.04579 21.9678C8.99472 21.989 8.94 22 8.88473 22C8.82945 22 8.77473 21.989 8.72367 21.9678C8.67261 21.9465 8.62621 21.9153 8.58714 21.876L7.22727 20.5093L5.86739 21.876C5.82831 21.9153 5.78192 21.9465 5.73086 21.9678C5.6798 21.989 5.62507 22 5.5698 22C5.51453 22 5.4598 21.989 5.40874 21.9678C5.35768 21.9465 5.31129 21.9153 5.27222 21.876L3.91234 20.5093L2.55246 21.876C2.49361 21.9352 2.41862 21.9755 2.33697 21.9919C2.25533 22.0082 2.1707 21.9998 2.0938 21.9678C2.01689 21.9358 1.95115 21.8815 1.90491 21.812C1.85866 21.7424 1.83398 21.6606 1.83398 21.5769V0.423077C1.83397 0.367514 1.84485 0.312492 1.86599 0.261155C1.88714 0.209818 1.91814 0.163173 1.95723 0.123884C1.99631 0.0845945 2.04272 0.0534316 2.09379 0.0321751C2.14486 0.0109187 2.1996 -1.45765e-05 2.25488 1.45853e-08H18.8298C18.885 -1.45765e-05 18.9398 0.0109187 18.9908 0.0321751C19.0419 0.0534316 19.0883 0.0845945 19.1274 0.123884C19.1665 0.163173 19.1975 0.209818 19.2186 0.261155C19.2398 0.312492 19.2507 0.367514 19.2507 0.423077V21.5769C19.2507 21.6891 19.2063 21.7967 19.1274 21.8761C19.0484 21.9554 18.9414 22 18.8298 22ZM7.22728 19.488C7.28256 19.4879 7.33731 19.4988 7.38838 19.5201C7.43945 19.5414 7.48583 19.5726 7.52486 19.6119L8.88474 20.9787L10.2448 19.6119C10.2839 19.5726 10.3303 19.5415 10.3814 19.5202C10.4324 19.4989 10.4871 19.488 10.5424 19.488C10.5977 19.488 10.6524 19.4989 10.7035 19.5202C10.7545 19.5415 10.8009 19.5726 10.84 19.6119L12.1999 20.9787L13.5598 19.6119C13.5988 19.5726 13.6452 19.5415 13.6963 19.5202C13.7474 19.4989 13.8021 19.488 13.8574 19.488C13.9126 19.488 13.9674 19.4989 14.0184 19.5202C14.0695 19.5415 14.1159 19.5726 14.1549 19.6119L15.5148 20.9787L16.8747 19.6119C16.9138 19.5726 16.9602 19.5415 17.0112 19.5202C17.0623 19.4989 17.117 19.488 17.1723 19.488C17.2276 19.488 17.2823 19.4989 17.3333 19.5202C17.3844 19.5415 17.4308 19.5726 17.4699 19.6119L18.4089 20.5556V0.846148H2.67577V20.5556L3.61476 19.6119C3.65383 19.5726 3.70023 19.5415 3.75129 19.5202C3.80235 19.4989 3.85708 19.488 3.91235 19.488C3.96762 19.488 4.02234 19.4989 4.07341 19.5202C4.12447 19.5415 4.17086 19.5726 4.20993 19.6119L5.56981 20.9787L6.9297 19.6119C6.96873 19.5726 7.01511 19.5414 7.06618 19.5201C7.11724 19.4988 7.172 19.4879 7.22728 19.488Z" fill="#FF8926" stroke="#FF8926" stroke-width="0.5"/>
<path d="M15.4627 14.2251H5.62206C5.51044 14.2251 5.40338 14.1805 5.32445 14.1011C5.24552 14.0218 5.20117 13.9142 5.20117 13.802C5.20117 13.6898 5.24552 13.5822 5.32445 13.5028C5.40338 13.4235 5.51044 13.3789 5.62206 13.3789H15.4627C15.5743 13.3789 15.6814 13.4235 15.7603 13.5028C15.8392 13.5822 15.8836 13.6898 15.8836 13.802C15.8836 13.9142 15.8392 14.0218 15.7603 14.1011C15.6814 14.1805 15.5743 14.2251 15.4627 14.2251Z" fill="#FF8926" stroke="#FF8926" stroke-width="0.5"/>
<path d="M15.4627 16.9926H5.62206C5.51044 16.9926 5.40338 16.9481 5.32445 16.8687C5.24552 16.7894 5.20117 16.6818 5.20117 16.5696C5.20117 16.4574 5.24552 16.3497 5.32445 16.2704C5.40338 16.1911 5.51044 16.1465 5.62206 16.1465H15.4627C15.5743 16.1465 15.6814 16.1911 15.7603 16.2704C15.8392 16.3497 15.8836 16.4574 15.8836 16.5696C15.8836 16.6818 15.8392 16.7894 15.7603 16.8687C15.6814 16.9481 15.5743 16.9926 15.4627 16.9926Z" fill="#FF8926" stroke="#FF8926" stroke-width="0.5"/>
</g>
<defs>
<clipPath id="clip0_3908_18169">
<rect width="22" height="22" fill="white"/>
</clipPath>
</defs>
</svg>
