<svg width="22" height="25" viewBox="0 0 22 25" fill="none" xmlns="http://www.w3.org/2000/svg">
<path d="M13.4501 3.86053H8.0495L6.92009 2.01241C6.55046 1.37583 6.75581 0.554438 7.39238 0.184813C7.59773 0.0616042 7.82361 0 8.0495 0H13.4501C14.1894 0.0205348 14.7849 0.616043 14.7644 1.35529C14.7644 1.58118 14.7028 1.80706 14.5796 2.01241L13.4501 3.86053ZM8.39859 3.24449H13.101L14.0662 1.70438C14.1894 1.4785 14.1894 1.21155 14.0662 0.985668C13.943 0.759786 13.7171 0.616043 13.4501 0.616043H8.0495C7.65934 0.636578 7.33078 0.965134 7.35131 1.35529C7.35131 1.4785 7.39238 1.60171 7.45399 1.70438L8.39859 3.24449Z" fill="white"/>
<path d="M17.2699 14.0868L16.6539 14.0047C16.736 13.1012 16.5512 12.1976 16.12 11.4173L13.1014 5.8524H8.41943L5.38029 11.4173C5.0312 12.0334 4.84639 12.711 4.82585 13.4092H4.20981C4.23034 12.6083 4.45623 11.828 4.84639 11.1298L8.04981 5.23636H13.4505L16.6539 11.1093C17.1672 12.0128 17.3726 13.0601 17.2699 14.0868Z" fill="white"/>
<path d="M13.204 5.85251H8.29623C7.78286 5.85251 7.37216 5.44182 7.37216 4.92845V4.16866C7.37216 3.65529 7.78286 3.2446 8.29623 3.2446H13.204C13.7174 3.2446 14.1281 3.65529 14.1281 4.16866V4.92845C14.1281 5.44182 13.7174 5.85251 13.204 5.85251ZM8.29623 3.86064C8.13195 3.86064 7.9882 4.00438 7.9882 4.16866V4.92845C7.9882 5.09273 8.13195 5.23647 8.29623 5.23647H13.204C13.3683 5.23647 13.5121 5.09273 13.5121 4.92845V4.16866C13.5121 4.00438 13.3683 3.86064 13.204 3.86064H8.29623Z" fill="white"/>
<path d="M13.3476 21.1302H1.08834C0.492834 21.1302 0 20.6374 0 20.0419V15.4421C0 14.7233 0.574973 14.1484 1.29369 14.1484H2.34096C2.46417 14.1484 2.56684 14.1073 2.66952 14.0662L5.19529 12.6699C5.62652 12.444 6.09882 12.3208 6.59166 12.3208H10.904C11.828 12.3208 12.5878 13.0806 12.5878 14.0046C12.5673 14.9287 11.828 15.6679 10.904 15.6679H7.90588C7.51572 15.6885 7.2077 15.9965 7.2077 16.3867V16.4688C7.2077 16.859 7.51572 17.167 7.90588 17.167H13.2039C13.5735 17.167 13.9226 17.0027 14.1484 16.6947H14.169L18.0706 12.444C18.3786 12.0949 18.8304 11.9101 19.2821 11.9101C20.1857 11.8896 20.9249 12.6288 20.9455 13.5323V13.5529V13.7993C20.9455 14.1894 20.8222 14.5591 20.5758 14.8466L16.9206 19.4258C16.0582 20.5141 14.744 21.1302 13.3476 21.1302ZM1.29369 14.7644C0.924064 14.7644 0.616043 15.0724 0.616043 15.4421V20.0419C0.616043 20.3088 0.82139 20.5142 1.08834 20.5142H13.3476C14.5386 20.5142 15.6886 19.9802 16.4278 19.0356L20.1035 14.4564C20.2473 14.2716 20.3294 14.0457 20.3294 13.7993V13.5529C20.3294 12.9779 19.8776 12.5261 19.3027 12.5261H19.2821C18.9947 12.5261 18.7277 12.6493 18.5224 12.8547L14.6207 17.1054C14.2717 17.5366 13.7583 17.783 13.2039 17.783H7.90588C7.18717 17.783 6.59166 17.1875 6.59166 16.4688V16.3867C6.59166 15.6474 7.16663 15.0724 7.90588 15.0519H10.7397C11.3147 15.134 11.8691 14.7233 11.9512 14.1484C12.0334 13.5734 11.6227 13.019 11.0477 12.9368C10.945 12.9163 11.0066 12.9163 10.9245 12.9368H6.61219C6.22203 12.9368 5.85241 13.0395 5.50332 13.2243L2.97754 14.6001C2.79273 14.7028 2.58738 14.7644 2.3615 14.7644H1.29369Z" fill="white"/>
<path d="M10.4726 12.7108H9.85654V15.3803H10.4726V12.7108Z" fill="white"/>
<path d="M21.3818 18.9818C21.3818 16.2103 19.1351 13.9636 16.3636 13.9636C13.5922 13.9636 11.3455 16.2103 11.3455 18.9818C11.3455 21.7533 13.5922 24 16.3636 24C19.1351 24 21.3818 21.7533 21.3818 18.9818Z" fill="#333333" stroke="white" stroke-width="0.8"/>
<path d="M9.25879 10.3042L10.0596 9.13477L9.38574 8.09473C9.32227 7.99382 9.27425 7.90755 9.2417 7.83594C9.21077 7.7627 9.19531 7.69271 9.19531 7.62598C9.19531 7.55762 9.22542 7.49658 9.28564 7.44287C9.34749 7.38753 9.42236 7.35986 9.51025 7.35986C9.61117 7.35986 9.68929 7.38997 9.74463 7.4502C9.8016 7.50879 9.87972 7.61865 9.979 7.77979L10.5161 8.64893L11.0898 7.77979C11.137 7.70654 11.1769 7.64388 11.2095 7.5918C11.2437 7.53971 11.2762 7.49658 11.3071 7.4624C11.3381 7.42822 11.3722 7.40299 11.4097 7.38672C11.4487 7.36882 11.4935 7.35986 11.5439 7.35986C11.6351 7.35986 11.7091 7.38753 11.7661 7.44287C11.8247 7.49658 11.854 7.56087 11.854 7.63574C11.854 7.74479 11.7913 7.8929 11.666 8.08008L10.9604 9.13477L11.7197 10.3042C11.7881 10.4067 11.8377 10.4922 11.8687 10.5605C11.8996 10.6273 11.915 10.6908 11.915 10.751C11.915 10.8079 11.9012 10.86 11.8735 10.9072C11.8459 10.9544 11.8068 10.9919 11.7563 11.0195C11.7059 11.0472 11.6489 11.061 11.5854 11.061C11.5171 11.061 11.4593 11.0464 11.4121 11.0171C11.3649 10.9894 11.3267 10.9544 11.2974 10.9121C11.2681 10.8698 11.2135 10.7876 11.1338 10.6655L10.5039 9.67432L9.83496 10.6948C9.78288 10.7762 9.74544 10.8332 9.72266 10.8657C9.7015 10.8983 9.67546 10.93 9.64453 10.9609C9.61361 10.9919 9.57699 11.0163 9.53467 11.0342C9.49235 11.0521 9.44271 11.061 9.38574 11.061C9.29785 11.061 9.22461 11.0342 9.16602 10.9805C9.10905 10.9268 9.08057 10.8486 9.08057 10.7461C9.08057 10.6257 9.13997 10.4784 9.25879 10.3042Z" fill="white"/>
<path d="M18.7718 19.1837H16.8564V16.4082C16.8564 16.2999 16.8113 16.1961 16.731 16.1195C16.6507 16.043 16.5418 16 16.4282 16C16.3146 16 16.2057 16.043 16.1254 16.1195C16.0451 16.1961 16 16.2999 16 16.4082V19.5918C16 19.7001 16.0451 19.8039 16.1254 19.8805C16.2057 19.957 16.3146 20 16.4282 20H18.7718C18.8854 20 18.9943 19.957 19.0746 19.8805C19.1549 19.8039 19.2 19.7001 19.2 19.5918C19.2 19.4836 19.1549 19.3798 19.0746 19.3032C18.9943 19.2267 18.8854 19.1837 18.7718 19.1837Z" fill="white"/>
</svg>
