<svg width="23" height="22" viewBox="0 0 23 22" fill="none" xmlns="http://www.w3.org/2000/svg">
<path d="M9.04169 2.58759C8.75583 2.27333 8.30356 2.17215 7.91104 2.33464C7.51852 2.49714 7.2701 2.88839 7.28999 3.31218L7.34564 4.47611C7.37986 5.11527 7.14106 5.73889 6.68868 6.19171C6.2363 6.64453 5.61291 6.88394 4.97488 6.8504L3.81003 6.79132C3.38562 6.77104 2.99417 7.01941 2.83175 7.41203C2.66933 7.80465 2.77091 8.25698 3.08579 8.5426L3.95214 9.32906C4.42618 9.75724 4.69671 10.3662 4.69671 11.005C4.69671 11.6437 4.42618 12.2527 3.95206 12.6809L3.08511 13.4637C2.76935 13.7495 2.66762 14.2031 2.83107 14.5964C2.99453 14.9897 3.3878 15.2376 3.81404 15.2153L4.98026 15.1562C5.61821 15.1234 6.24019 15.3625 6.69189 15.8142C7.14359 16.2659 7.38269 16.8879 7.34987 17.5258L7.29004 18.689C7.2706 19.1132 7.51918 19.504 7.91159 19.6662C8.30399 19.8284 8.75598 19.7272 9.04127 19.4136L9.82765 18.5473C10.2557 18.0733 10.8645 17.8027 11.5032 17.8027C12.1419 17.8027 12.7507 18.0733 13.1785 18.5471L13.96 19.4117C14.2462 19.7243 14.6974 19.8244 15.0889 19.6621C15.4804 19.4998 15.7285 19.1099 15.7098 18.6904L15.6507 17.5241C15.6179 16.8862 15.857 16.2642 16.3087 15.8125C16.7604 15.3608 17.3823 15.1217 18.0199 15.1545L19.1867 15.2137C19.6123 15.2354 20.0055 14.9869 20.1687 14.5932C20.3318 14.1994 20.2296 13.7457 19.9137 13.4603L19.0451 12.6767C18.5711 12.2485 18.3005 11.6396 18.3005 11.0008C18.3005 10.362 18.5711 9.75308 19.0454 9.32463L19.9133 8.54168C20.2292 8.25614 20.3315 7.80279 20.1688 7.40924C20.0061 7.0157 19.6135 6.76697 19.189 6.7879L18.0212 6.84712C17.3846 6.8782 16.7646 6.63866 16.3143 6.18768C15.8639 5.7367 15.6253 5.11633 15.6573 4.47955L15.7165 3.31275C15.7382 2.88712 15.4897 2.49389 15.096 2.33074C14.7023 2.1676 14.2485 2.26983 13.961 2.58803L13.1751 3.45036C12.7473 3.92521 12.1382 4.19632 11.499 4.19632C10.8602 4.19632 10.2513 3.92546 9.82359 3.45101L9.04169 2.58759ZM15.5745 1.17596C16.4567 1.54152 17.0135 2.42262 16.9649 3.37619L16.9057 4.54259C16.8915 4.82653 16.9979 5.10327 17.1988 5.30444C17.3997 5.50562 17.6763 5.61247 17.959 5.59867L19.1266 5.53946C20.0796 5.49247 20.9593 6.04979 21.3239 6.9316C21.6886 7.81341 21.4594 8.82924 20.751 9.46944L19.883 10.2525C19.6713 10.4437 19.5505 10.7156 19.5505 11.0008C19.5505 11.286 19.6713 11.5579 19.8827 11.7488L20.7514 12.5325C21.4599 13.1727 21.689 14.1895 21.3234 15.0717C20.9579 15.9539 20.0768 16.5106 19.1232 16.4621L17.9561 16.4029C17.6715 16.3882 17.3941 16.4949 17.1926 16.6964C16.9911 16.8979 16.8844 17.1753 16.8991 17.4604L16.9584 18.6309C17.0007 19.5796 16.4447 20.4532 15.5675 20.8168C14.6903 21.1804 13.6793 20.9562 13.0354 20.2528L12.251 19.3851C12.06 19.1735 11.7882 19.0527 11.5032 19.0527C11.2182 19.0527 10.9464 19.1735 10.7543 19.3863L9.96634 20.2543C9.32608 20.9581 8.31331 21.1849 7.43405 20.8214C6.55479 20.4579 5.99779 19.5822 6.04152 18.6283L6.10152 17.4616C6.11616 17.177 6.0095 16.8996 5.80801 16.6981C5.60651 16.4966 5.32906 16.3899 5.04402 16.4046L3.87828 16.4637C2.92482 16.5135 2.04322 15.9578 1.6768 15.0762C1.31037 14.1945 1.53843 13.1777 2.24683 12.5365L3.11426 11.7532C3.32592 11.562 3.44671 11.2902 3.44671 11.005C3.44671 10.7197 3.32592 10.4479 3.11311 10.2556L2.24578 9.46829C1.5403 8.82834 1.31258 7.81435 1.67668 6.9342C2.04079 6.05405 2.9183 5.49727 3.87152 5.54284L5.03935 5.60206C5.32448 5.61705 5.60257 5.51026 5.80437 5.30826C6.00617 5.10626 6.11269 4.82807 6.09725 4.53939L6.04139 3.37132C5.99678 2.42047 6.5534 1.5438 7.43292 1.1797C8.31244 0.815598 9.32584 1.04231 9.9673 1.7475L10.7506 2.6125C10.9425 2.82544 11.2141 2.94632 11.499 2.94632C11.784 2.94632 12.0556 2.82544 12.2488 2.61104L13.0353 1.74802C13.6755 1.03947 14.6923 0.810401 15.5745 1.17596ZM11.499 6.6262C9.08279 6.6262 7.12403 8.58496 7.12403 11.0012C7.12403 13.4174 9.08279 15.3762 11.499 15.3762C13.9153 15.3762 15.874 13.4174 15.874 11.0012C15.874 8.58496 13.9153 6.6262 11.499 6.6262ZM11.499 7.8762C13.2249 7.8762 14.624 9.27531 14.624 11.0012C14.624 12.7271 13.2249 14.1262 11.499 14.1262C9.77314 14.1262 8.37403 12.7271 8.37403 11.0012C8.37403 9.27531 9.77314 7.8762 11.499 7.8762Z" fill="#FF8926"/>
</svg>
