<svg width="23" height="20" viewBox="0 0 23 20" fill="none" xmlns="http://www.w3.org/2000/svg">
<g id="Limit Slider">
<path id="Path 11652" d="M21.6554 9.65685H13.1941V8.96957C13.1942 8.78719 13.1307 8.6122 13.0176 8.48299L11.8088 7.10842C11.7527 7.04445 11.6861 6.99372 11.6128 6.95909C11.5394 6.92446 11.4608 6.90662 11.3814 6.90662C11.302 6.90662 11.2234 6.92446 11.15 6.95909C11.0767 6.99372 11.0101 7.04445 10.954 7.10842L9.74526 8.48299C9.68898 8.54684 9.64433 8.62268 9.61387 8.70618C9.58341 8.78967 9.56773 8.87917 9.56774 8.96957V9.65685H1.10634C0.946042 9.65685 0.79232 9.72927 0.678975 9.85816C0.565631 9.98705 0.501953 10.1619 0.501953 10.3441C0.501953 10.5264 0.565631 10.7012 0.678975 10.8301C0.79232 10.959 0.946042 11.0314 1.10634 11.0314H9.56774V12.406C9.56774 12.5882 9.63141 12.7631 9.74476 12.892C9.8581 13.0209 10.0118 13.0933 10.1721 13.0933H12.5897C12.75 13.0933 12.9037 13.0209 13.017 12.892C13.1304 12.7631 13.1941 12.5882 13.1941 12.406V11.0314H21.6554C21.8157 11.0314 21.9695 10.959 22.0828 10.8301C22.1962 10.7012 22.2598 10.5264 22.2598 10.3441C22.2598 10.1619 22.1962 9.98705 22.0828 9.85816C21.9695 9.72927 21.8157 9.65685 21.6554 9.65685ZM11.9853 11.7187H10.7765V9.24962L11.3809 8.56233L11.9853 9.24962V11.7187Z" fill="#FF8926"/>
<path id="Path 11653" d="M21.046 16.5636H7.70645V15.8763C7.70662 15.6939 7.64314 15.5189 7.52996 15.3897L6.32118 14.0152C6.26513 13.9512 6.19852 13.9005 6.12518 13.8658C6.05185 13.8312 5.97322 13.8134 5.89381 13.8134C5.8144 13.8134 5.73576 13.8312 5.66242 13.8658C5.58908 13.9005 5.52248 13.9512 5.46642 14.0152L4.25766 15.3897C4.20138 15.4536 4.15673 15.5294 4.12627 15.6129C4.09581 15.6964 4.08013 15.7859 4.08014 15.8763V16.5636H1.10438C0.944089 16.5636 0.790367 16.636 0.677022 16.7649C0.563678 16.8938 0.5 17.0686 0.5 17.2509C0.5 17.4332 0.563678 17.608 0.677022 17.7369C0.790367 17.8658 0.944089 17.9381 1.10438 17.9381H4.08014V19.3127C4.08014 19.495 4.14381 19.6698 4.25716 19.7987C4.3705 19.9276 4.52423 20 4.68452 20H7.10206C7.26236 20 7.41609 19.9276 7.52943 19.7987C7.64278 19.6698 7.70645 19.495 7.70645 19.3127V17.9381H21.046C21.2063 17.9381 21.3601 17.8658 21.4734 17.7369C21.5867 17.608 21.6504 17.4332 21.6504 17.2509C21.6504 17.0686 21.5867 16.8938 21.4734 16.7649C21.3601 16.636 21.2063 16.5636 21.046 16.5636ZM6.49871 18.6254H5.28993V16.1564L5.89432 15.4691L6.49871 16.1564V18.6254Z" fill="#FF8926"/>
<path id="Path 11654" d="M21.8976 2.75024H19.6401V2.06295C19.6403 1.88057 19.5768 1.70558 19.4636 1.57638L18.2549 0.201801C18.1988 0.137837 18.1322 0.0871008 18.0589 0.0524711C17.9855 0.0178414 17.9069 0 17.8275 0C17.7481 0 17.6695 0.0178414 17.5961 0.0524711C17.5228 0.0871008 17.4562 0.137837 17.4001 0.201801L16.1914 1.57638C16.1351 1.64022 16.0904 1.71607 16.06 1.79956C16.0295 1.88306 16.0138 1.97255 16.0138 2.06295V2.75024H1.10634C0.946042 2.75024 0.79232 2.82265 0.678975 2.95154C0.565631 3.08043 0.501953 3.25525 0.501953 3.43753C0.501953 3.6198 0.565631 3.79462 0.678975 3.92351C0.79232 4.0524 0.946042 4.12479 1.10634 4.12479H16.0118V5.49935C16.0118 5.68163 16.0755 5.85647 16.1888 5.98536C16.3021 6.11425 16.4559 6.18666 16.6162 6.18666H19.0337C19.194 6.18666 19.3477 6.11425 19.4611 5.98536C19.5744 5.85647 19.6381 5.68163 19.6381 5.49935V4.12479H21.8956C22.0559 4.12479 22.2096 4.0524 22.3229 3.92351C22.4363 3.79462 22.4999 3.6198 22.4999 3.43753C22.4999 3.25525 22.4363 3.08043 22.3229 2.95154C22.2096 2.82265 22.0559 2.75024 21.8956 2.75024H21.8976ZM18.4283 4.81208H17.2195V2.343L17.8239 1.65572L18.4283 2.343V4.81208Z" fill="#FF8926"/>
</g>
</svg>
