<svg width="25" height="24" viewBox="0 0 25 24" fill="none" xmlns="http://www.w3.org/2000/svg">
<path d="M2.5 12C2.5 13.3132 2.75866 14.6136 3.2612 15.8268C3.76375 17.0401 4.50035 18.1425 5.42893 19.0711C6.35752 19.9997 7.45991 20.7363 8.67317 21.2388C9.88642 21.7413 11.1868 22 12.5 22C13.8132 22 15.1136 21.7413 16.3268 21.2388C17.5401 20.7363 18.6425 19.9997 19.5711 19.0711C20.4997 18.1425 21.2363 17.0401 21.7388 15.8268C22.2413 14.6136 22.5 13.3132 22.5 12C22.5 10.6868 22.2413 9.38642 21.7388 8.17317C21.2363 6.95991 20.4997 5.85752 19.5711 4.92893C18.6425 4.00035 17.5401 3.26375 16.3268 2.7612C15.1136 2.25866 13.8132 2 12.5 2C11.1868 2 9.88642 2.25866 8.67317 2.7612C7.45991 3.26375 6.35752 4.00035 5.42893 4.92893C4.50035 5.85752 3.76375 6.95991 3.2612 8.17317C2.75866 9.38642 2.5 10.6868 2.5 12Z" stroke="black" stroke-linecap="round" stroke-linejoin="round"/>
<path d="M8.05469 12V12.0111" stroke="black" stroke-width="2.5" stroke-linecap="round" stroke-linejoin="round"/>
<path d="M12.5 12V12.0111" stroke="black" stroke-width="2.5" stroke-linecap="round" stroke-linejoin="round"/>
<path d="M16.9453 12V12.0111" stroke="black" stroke-width="2.5" stroke-linecap="round" stroke-linejoin="round"/>
</svg>
