<svg width="24" height="24" viewBox="0 0 24 24" fill="none" xmlns="http://www.w3.org/2000/svg">
<g id="Icon" clip-path="url(#clip0_666_9894)">
<path id="Vector" fill-rule="evenodd" clip-rule="evenodd" d="M0 2.39996C0 1.0745 1.0745 0 2.39996 0H5.59991C6.92537 0 7.99987 1.0745 7.99987 2.39996V6.3999C7.99987 7.72535 6.92537 8.79986 5.59991 8.79986H2.39996C1.0745 8.79986 0 7.72535 0 6.3999V2.39996ZM2.39996 1.59997C1.95814 1.59997 1.59997 1.95814 1.59997 2.39996V6.3999C1.59997 6.84173 1.95814 7.19988 2.39996 7.19988H5.59991C6.04174 7.19988 6.3999 6.84173 6.3999 6.3999V2.39996C6.3999 1.95814 6.04174 1.59997 5.59991 1.59997H2.39996Z" fill="#FF8926"/>
<path id="Vector_2" fill-rule="evenodd" clip-rule="evenodd" d="M14.4004 17.6002C14.4004 18.9256 15.4749 20.0001 16.8004 20.0001H21.6003C22.9257 20.0001 24.0002 18.9256 24.0002 17.6002V12.8002C24.0002 11.4748 22.9257 10.4003 21.6003 10.4003H16.8004C15.4749 10.4003 14.4004 11.4748 14.4004 12.8002V17.6002ZM16.8004 18.4001C16.3585 18.4001 16.0004 18.042 16.0004 17.6002V12.8002C16.0004 12.3584 16.3585 12.0002 16.8004 12.0002H21.6003C22.0421 12.0002 22.4003 12.3584 22.4003 12.8002V17.6002C22.4003 18.042 22.0421 18.4001 21.6003 18.4001H16.8004Z" fill="#FF8926"/>
<path id="Vector_3" d="M6.40072 13.6001C6.84256 13.6001 7.20071 13.9583 7.20071 14.4001V16.4001H9.20068C9.64251 16.4001 10.0007 16.7582 10.0007 17.2C10.0007 17.6419 9.64251 18 9.20068 18H7.20071V20C7.20071 20.4418 6.84256 20.8 6.40072 20.8C5.95889 20.8 5.60074 20.4418 5.60074 20V18H3.60077C3.15895 18 2.80078 17.6419 2.80078 17.2C2.80078 16.7582 3.15895 16.4001 3.60077 16.4001H5.60074V14.4001C5.60074 13.9583 5.95889 13.6001 6.40072 13.6001Z" fill="#FF8926"/>
<path id="Vector_4" fill-rule="evenodd" clip-rule="evenodd" d="M2.39996 10.4003C1.0745 10.4003 0 11.4748 0 12.8002V21.6001C0 22.9255 1.0745 24 2.39996 24H10.3998C11.7253 24 12.7998 22.9255 12.7998 21.6001V12.8002C12.7998 11.4748 11.7253 10.4003 10.3998 10.4003H2.39996ZM1.59997 12.8002C1.59997 12.3584 1.95814 12.0002 2.39996 12.0002H10.3998C10.8417 12.0002 11.1998 12.3584 11.1998 12.8002V21.6001C11.1998 22.0419 10.8417 22.4001 10.3998 22.4001H2.39996C1.95814 22.4001 1.59997 22.0419 1.59997 21.6001V12.8002Z" fill="#FF8926"/>
<path id="Vector_5" fill-rule="evenodd" clip-rule="evenodd" d="M11.9996 8.79986C10.6741 8.79986 9.59961 7.72535 9.59961 6.3999V2.39996C9.59961 1.0745 10.6741 0 11.9996 0H21.5994C22.9249 0 23.9994 1.0745 23.9994 2.39996V6.3999C23.9994 7.72535 22.9249 8.79986 21.5994 8.79986H11.9996ZM11.1996 6.3999C11.1996 6.84173 11.5577 7.19988 11.9996 7.19988H21.5994C22.0412 7.19988 22.3994 6.84173 22.3994 6.3999V2.39996C22.3994 1.95814 22.0412 1.59997 21.5994 1.59997H11.9996C11.5577 1.59997 11.1996 1.95814 11.1996 2.39996V6.3999Z" fill="#FF8926"/>
</g>
<defs>
<clipPath id="clip0_666_9894">
<rect width="24" height="24" fill="white"/>
</clipPath>
</defs>
</svg>
