<svg width="23" height="22" viewBox="0 0 23 22" fill="none" xmlns="http://www.w3.org/2000/svg">
<g clip-path="url(#clip0_3537_26769)">
<path fill-rule="evenodd" clip-rule="evenodd" d="M0.5 2.19996C0.5 0.984957 1.48496 0 2.69996 0H5.63325C6.84825 0 7.83321 0.984957 7.83321 2.19996V5.86657C7.83321 7.08157 6.84825 8.06654 5.63325 8.06654H2.69996C1.48496 8.06654 0.5 7.08157 0.5 5.86657V2.19996ZM2.69996 1.46664C2.29496 1.46664 1.96664 1.79496 1.96664 2.19996V5.86657C1.96664 6.27158 2.29496 6.59989 2.69996 6.59989H5.63325C6.03826 6.59989 6.36657 6.27158 6.36657 5.86657V2.19996C6.36657 1.79496 6.03826 1.46664 5.63325 1.46664H2.69996Z" fill="#FF8926"/>
<path fill-rule="evenodd" clip-rule="evenodd" d="M13.7002 16.135C13.7002 17.3501 14.6852 18.335 15.9002 18.335H20.3001C21.5151 18.335 22.5001 17.3501 22.5001 16.135V11.7351C22.5001 10.5201 21.5151 9.53516 20.3001 9.53516H15.9002C14.6852 9.53516 13.7002 10.5201 13.7002 11.7351V16.135ZM15.9002 16.8684C15.4951 16.8684 15.1668 16.5401 15.1668 16.135V11.7351C15.1668 11.3301 15.4951 11.0018 15.9002 11.0018H20.3001C20.7051 11.0018 21.0334 11.3301 21.0334 11.7351V16.135C21.0334 16.5401 20.7051 16.8684 20.3001 16.8684H15.9002Z" fill="#FF8926"/>
<path d="M6.36635 12.4648C6.77137 12.4648 7.09967 12.7932 7.09967 13.1982V15.0315H8.93298C9.33799 15.0315 9.6663 15.3598 9.6663 15.7648C9.6663 16.1698 9.33799 16.4981 8.93298 16.4981H7.09967V18.3314C7.09967 18.7364 6.77137 19.0647 6.36635 19.0647C5.96134 19.0647 5.63303 18.7364 5.63303 18.3314V16.4981H3.79973C3.39473 16.4981 3.06641 16.1698 3.06641 15.7648C3.06641 15.3598 3.39473 15.0315 3.79973 15.0315H5.63303V13.1982C5.63303 12.7932 5.96134 12.4648 6.36635 12.4648Z" fill="#FF8926"/>
<path fill-rule="evenodd" clip-rule="evenodd" d="M2.69996 9.53516C1.48496 9.53516 0.5 10.5201 0.5 11.7351V19.8017C0.5 21.0167 1.48496 22.0016 2.69996 22.0016H10.0332C11.2482 22.0016 12.2331 21.0167 12.2331 19.8017V11.7351C12.2331 10.5201 11.2482 9.53516 10.0332 9.53516H2.69996ZM1.96664 11.7351C1.96664 11.3301 2.29496 11.0018 2.69996 11.0018H10.0332C10.4382 11.0018 10.7665 11.3301 10.7665 11.7351V19.8017C10.7665 20.2067 10.4382 20.535 10.0332 20.535H2.69996C2.29496 20.535 1.96664 20.2067 1.96664 19.8017V11.7351Z" fill="#FF8926"/>
<path fill-rule="evenodd" clip-rule="evenodd" d="M11.4998 8.06654C10.2848 8.06654 9.2998 7.08157 9.2998 5.86657V2.19996C9.2998 0.984957 10.2848 0 11.4998 0H20.2996C21.5146 0 22.4996 0.984957 22.4996 2.19996V5.86657C22.4996 7.08157 21.5146 8.06654 20.2996 8.06654H11.4998ZM10.7664 5.86657C10.7664 6.27158 11.0948 6.59989 11.4998 6.59989H20.2996C20.7046 6.59989 21.0329 6.27158 21.0329 5.86657V2.19996C21.0329 1.79496 20.7046 1.46664 20.2996 1.46664H11.4998C11.0948 1.46664 10.7664 1.79496 10.7664 2.19996V5.86657Z" fill="#FF8926"/>
</g>
<defs>
<clipPath id="clip0_3537_26769">
<rect width="22" height="22" fill="white" transform="translate(0.5)"/>
</clipPath>
</defs>
</svg>
