<svg width="24" height="15" viewBox="0 0 24 15" fill="none" xmlns="http://www.w3.org/2000/svg">
<path d="M22.6491 15H8.63042C8.27226 14.9995 7.92889 14.8456 7.67563 14.572C7.42237 14.2984 7.2799 13.9274 7.27946 13.5404V9.9596C6.30519 9.80268 5.40603 9.30296 4.72131 8.53788H4.08362C4.05776 8.77309 3.95303 8.98991 3.78923 9.14735C3.62543 9.30478 3.41391 9.39191 3.19467 9.39225H0.895179C0.65785 9.39195 0.430322 9.28995 0.262504 9.10864C0.094687 8.92733 0.000282917 8.6815 0 8.42508V0.967172C0.000282917 0.710756 0.094687 0.464929 0.262504 0.283615C0.430322 0.102302 0.65785 0.00030567 0.895179 0H3.19467C3.41403 0.000282365 3.62568 0.0874321 3.78957 0.244956C3.95346 0.402479 4.05821 0.619448 4.08401 0.854799H14.6937C16.518 0.975585 17.5635 1.97896 17.7571 3.76557H22.6491C23.0072 3.76605 23.3506 3.91998 23.6038 4.1936C23.8571 4.46723 23.9996 4.8382 24 5.22517V13.5404C23.9996 13.9274 23.8571 14.2984 23.6038 14.572C23.3506 14.8456 23.0072 14.9995 22.6491 15ZM8.07725 6.63805V13.5404C8.07648 13.6191 8.09026 13.6972 8.11779 13.7701C8.14532 13.843 8.18603 13.9092 8.23755 13.9649C8.28907 14.0205 8.35036 14.0645 8.41782 14.0942C8.48528 14.124 8.55755 14.1389 8.63041 14.138H22.6491C22.7957 14.1379 22.9363 14.0748 23.04 13.9628C23.1437 13.8508 23.202 13.6989 23.2022 13.5404V5.22514C23.202 5.06669 23.1437 4.91478 23.04 4.80274C22.9363 4.6907 22.7957 4.62768 22.6491 4.6275H13.0152L13.4476 5.09468H20.3589C20.4113 5.09465 20.4632 5.10577 20.5116 5.12742C20.56 5.14907 20.604 5.18081 20.641 5.22084C20.6781 5.26086 20.7075 5.30839 20.7275 5.36069C20.7475 5.41299 20.7578 5.46905 20.7578 5.52565C20.7583 5.98763 20.9283 6.43054 21.2306 6.75721C21.533 7.08389 21.9429 7.26763 22.3705 7.26813C22.4229 7.2681 22.4748 7.27923 22.5232 7.30087C22.5716 7.32252 22.6156 7.35427 22.6526 7.39429C22.6897 7.43432 22.7191 7.48184 22.7391 7.53415C22.7591 7.58645 22.7694 7.64251 22.7694 7.69911V11.0661C22.7694 11.1227 22.7591 11.1788 22.7391 11.2311C22.7191 11.2834 22.6897 11.3309 22.6526 11.3709C22.6156 11.411 22.5716 11.4427 22.5232 11.4643C22.4748 11.486 22.4229 11.4971 22.3705 11.4971C21.9429 11.4976 21.533 11.6813 21.2306 12.008C20.9283 12.3346 20.7582 12.7775 20.7578 13.2395C20.7578 13.2961 20.7475 13.3522 20.7275 13.4045C20.7074 13.4568 20.6781 13.5043 20.641 13.5443C20.604 13.5844 20.56 13.6161 20.5116 13.6377C20.4632 13.6594 20.4113 13.6705 20.3589 13.6705H10.9206C10.8682 13.6705 10.8163 13.6594 10.7679 13.6377C10.7195 13.6161 10.6755 13.5844 10.6385 13.5443C10.6014 13.5043 10.572 13.4568 10.552 13.4045C10.532 13.3522 10.5217 13.2961 10.5217 13.2395C10.52 12.7762 10.3482 12.3326 10.0441 12.0059C9.74004 11.6793 9.32843 11.4963 8.89962 11.4971C8.84723 11.4971 8.79534 11.486 8.74693 11.4643C8.69852 11.4427 8.65454 11.411 8.61749 11.3709C8.58044 11.3309 8.55106 11.2834 8.53103 11.2311C8.51099 11.1788 8.50069 11.1227 8.50072 11.0661V7.69911C8.50135 7.58502 8.54358 7.47579 8.61825 7.39511C8.69292 7.31444 8.79402 7.26881 8.89962 7.26813C9.1744 7.2671 9.44448 7.19115 9.68486 7.04731C9.92524 6.90348 10.1281 6.69642 10.2747 6.44532L9.88556 6.02486C9.37062 6.45749 8.72865 6.67517 8.07725 6.63805ZM11.2863 12.8085H19.9931C20.0769 12.2745 20.3123 11.7818 20.6668 11.3988C21.0213 11.0158 21.4773 10.7614 21.9716 10.6709V8.09427C21.4773 8.00377 21.0213 7.74938 20.6668 7.36637C20.3123 6.98335 20.0769 6.49068 19.9931 5.95663H14.1592C14.3337 6.31305 14.3848 6.72502 14.3034 7.11851C14.222 7.51201 14.0133 7.86122 13.7149 8.10341C13.4166 8.3456 13.048 8.46488 12.6756 8.43983C12.3031 8.41477 11.9511 8.24701 11.6828 7.96671L10.8496 7.06651C10.4765 7.61475 9.91986 7.98385 9.29846 8.09513V10.6705C9.7942 10.7599 10.2519 11.0137 10.6081 11.3968C10.9643 11.78 11.2013 12.2733 11.2863 12.8085ZM4.08988 7.67592H4.89505C5.43348 7.76931 5.66271 8.77394 7.27947 9.09007V6.39474C6.9803 6.23247 6.70704 6.01964 6.46999 5.76428C6.39666 5.6839 6.35543 5.57566 6.35515 5.4628C6.35488 5.34994 6.39559 5.24147 6.46853 5.16068C6.54147 5.0799 6.64083 5.03324 6.74526 5.03074C6.84969 5.02823 6.95087 5.07008 7.02705 5.14729C7.25725 5.40713 7.54138 5.60405 7.85596 5.72177C8.18097 5.79775 8.51859 5.7824 8.83655 5.67718C9.1545 5.57196 9.44216 5.38038 9.67202 5.12076C9.74863 5.05379 9.84546 5.01983 9.94387 5.02542C10.0423 5.03102 10.1353 5.07577 10.205 5.15106L12.247 7.35729C12.3929 7.50782 12.5869 7.59182 12.7886 7.59182C12.9904 7.59182 13.1844 7.50782 13.3303 7.35729C13.4738 7.20198 13.5544 6.99151 13.5544 6.77206C13.5544 6.55261 13.4738 6.34213 13.3303 6.18683C13.2977 6.15916 11.789 4.51619 11.7597 4.4899L11.3568 4.05468C10.9846 3.66606 11.5611 3.04336 11.9209 3.44528L12.2174 3.76554H16.9531C16.782 2.46208 16.047 1.80763 14.6691 1.71587L4.08988 1.71675V7.67592ZM0.895179 0.861953C0.869353 0.861962 0.844588 0.87305 0.826326 0.892781C0.808064 0.912511 0.797801 0.939269 0.797793 0.967172V8.42508C0.797801 8.45299 0.808064 8.47974 0.826326 8.49947C0.844588 8.5192 0.869353 8.53029 0.895179 8.5303H3.19467C3.2205 8.53029 3.24526 8.5192 3.26352 8.49947C3.28179 8.47974 3.29205 8.45298 3.29206 8.42508V0.967172C3.29205 0.93927 3.28179 0.912514 3.26352 0.892784C3.24526 0.873054 3.2205 0.861965 3.19467 0.861953H0.895179ZM15.6376 11.0564C15.4338 11.0571 15.2318 11.0144 15.0433 10.9306C14.8548 10.8468 14.6834 10.7236 14.539 10.5681C14.3947 10.4127 14.2801 10.2279 14.202 10.0245C14.1238 9.82111 14.0836 9.60304 14.0836 9.38281C14.0836 9.16257 14.1238 8.9445 14.202 8.7411C14.2801 8.5377 14.3947 8.35296 14.539 8.19748C14.6834 8.042 14.8548 7.91884 15.0433 7.83505C15.2318 7.75126 15.4338 7.70849 15.6376 7.7092C15.8414 7.70849 16.0434 7.75126 16.2319 7.83505C16.4204 7.91884 16.5918 8.042 16.7361 8.19748C16.8805 8.35296 16.9951 8.5377 17.0732 8.7411C17.1514 8.9445 17.1916 9.16257 17.1916 9.38281C17.1916 9.60304 17.1514 9.82111 17.0732 10.0245C16.9951 10.2279 16.8805 10.4127 16.7361 10.5681C16.5918 10.7236 16.4204 10.8468 16.2319 10.9306C16.0434 11.0144 15.8414 11.0571 15.6376 11.0564ZM14.8694 9.38259C14.8714 9.60179 14.9537 9.81122 15.0981 9.96513C15.2426 10.119 15.4376 10.2049 15.6405 10.2041C15.8434 10.2032 16.0377 10.1156 16.181 9.96041C16.3243 9.80524 16.405 9.59511 16.4054 9.3759C16.4034 9.1567 16.3211 8.94727 16.1767 8.79335C16.0322 8.63944 15.8372 8.55354 15.6343 8.55443C15.4314 8.55531 15.2371 8.6429 15.0938 8.79806C14.9505 8.95323 14.8698 9.16338 14.8694 9.38259Z" fill="white"/>
</svg>
