<svg width="24" height="24" viewBox="0 0 24 24" fill="none" xmlns="http://www.w3.org/2000/svg">
<path d="M11.598 6.02101C11.3867 5.81979 11.3867 5.49515 11.598 5.29393L14.838 2.20822C15.0493 2.007 15.3901 2.007 15.6014 2.20822C15.8127 2.40944 15.8127 2.73407 15.6014 2.9353L12.3614 6.02101C12.2561 6.12129 12.1177 6.17144 11.9794 6.17144C11.841 6.17144 11.7033 6.12129 11.598 6.02101ZM11.98 3.08571C12.2784 3.08571 12.52 2.85558 12.52 2.57143C12.52 2.28728 12.2784 2.05714 11.98 2.05714C11.6817 2.05714 11.44 2.28728 11.44 2.57143C11.44 2.85558 11.6817 3.08571 11.98 3.08571ZM14.68 5.65714C14.68 5.94129 14.9217 6.17143 15.22 6.17143C15.5184 6.17143 15.76 5.94129 15.76 5.65714C15.76 5.37299 15.5184 5.14286 15.22 5.14286C14.9217 5.14286 14.68 5.37299 14.68 5.65714ZM19 1.54286V12.8571C19 13.7076 18.273 14.4 17.38 14.4H9.82001C8.92698 14.4 8.20001 13.7076 8.20001 12.8571V1.54286C8.20001 0.692352 8.92698 0 9.82001 0H17.38C18.273 0 19 0.692352 19 1.54286ZM17.92 1.54286C17.92 1.25935 17.6784 1.02857 17.38 1.02857H9.82001C9.52166 1.02857 9.28001 1.25935 9.28001 1.54286V12.8571C9.28001 13.1406 9.52166 13.3714 9.82001 13.3714H17.38C17.6784 13.3714 17.92 13.1406 17.92 12.8571V1.54286ZM16.3 7.2H10.9C10.6017 7.2 10.36 7.43014 10.36 7.71429C10.36 7.99843 10.6017 8.22857 10.9 8.22857H16.3C16.5984 8.22857 16.84 7.99843 16.84 7.71429C16.84 7.43014 16.5984 7.2 16.3 7.2ZM16.3 9.25714H10.9C10.6017 9.25714 10.36 9.48728 10.36 9.77143C10.36 10.0556 10.6017 10.2857 10.9 10.2857H16.3C16.5984 10.2857 16.84 10.0556 16.84 9.77143C16.84 9.48728 16.5984 9.25714 16.3 9.25714ZM15.22 11.3143H11.98C11.6817 11.3143 11.44 11.5444 11.44 11.8286C11.44 12.1127 11.6817 12.3429 11.98 12.3429H15.22C15.5184 12.3429 15.76 12.1127 15.76 11.8286C15.76 11.5444 15.5184 11.3143 15.22 11.3143Z" fill="white"/>
<path d="M22.2497 15.4928L21.9509 15.2152C20.8962 14.2143 19.2186 14.1252 18.0595 15.0027L15.3992 16.9495C15.0825 16.665 14.6865 16.4731 14.2473 16.3977L9.99953 15.6779C9.41636 15.5819 8.82239 15.6539 8.28602 15.8904L6.06853 16.8673V16.6171C6.06853 16.0755 5.60416 15.6299 5.03539 15.6299H2.03315C1.46438 15.6299 1 16.0721 1 16.6171V22.8724C1 23.4139 1.46438 23.8595 2.03315 23.8595H5.03179C5.51776 23.8595 5.92814 23.5339 6.03613 23.102L12.6994 23.9932C12.721 23.9966 12.7426 23.9966 12.7642 24C12.8074 24 12.847 24 12.8866 24C13.4877 24 14.0673 23.7978 14.5281 23.4208L22.1669 17.1518C22.4225 16.953 22.5809 16.6582 22.5989 16.3463C22.6133 16.0309 22.4909 15.719 22.2497 15.4928ZM4.62861 22.485H2.43992V17.0009H4.62861V22.485ZM13.5921 22.3822C13.3869 22.5467 13.1278 22.6393 12.8614 22.629L6.06853 21.7207V18.3754L8.89078 17.1312C9.16077 17.0112 9.45595 16.9769 9.74754 17.0249L13.9989 17.7447C14.2077 17.779 14.3913 17.8887 14.5101 18.0532C14.5389 18.0943 14.5641 18.1355 14.5857 18.1766C14.5893 18.1834 14.5929 18.1937 14.5965 18.2006C14.6505 18.3274 14.6685 18.4679 14.6433 18.605C14.5677 19.0095 14.1537 19.2734 13.7325 19.2049L9.77634 18.5125C9.38396 18.4439 9.00958 18.6907 8.93758 19.0643C8.86558 19.4379 9.12477 19.7944 9.51715 19.863L13.4769 20.5553C13.6101 20.5759 13.7397 20.5896 13.8693 20.5896C14.9313 20.5896 15.8708 19.8698 16.0616 18.8484C16.1048 18.6256 16.1048 18.4028 16.0724 18.1834L18.9487 16.0789C19.5462 15.6265 20.3994 15.6745 20.9393 16.1852L21.0293 16.2709L13.5921 22.3822Z" fill="white"/>
</svg>
