<svg width="24" height="24" viewBox="0 0 24 24" fill="none" xmlns="http://www.w3.org/2000/svg">
<path d="M4.56492 6C2.51166 6 0.847168 7.68102 0.847168 9.75467V19.8453C0.847168 21.9188 2.51168 23.6 4.56492 23.6H18.3321C20.3854 23.6 22.0499 21.9188 22.0499 19.8453V16.6773C22.0499 16.1589 21.6339 15.7387 21.1204 15.7387C20.6072 15.7387 20.191 16.1589 20.191 16.6773V19.8453C20.191 20.882 19.3588 21.7227 18.3321 21.7227H4.56492C3.53832 21.7227 2.70604 20.8822 2.70604 19.8453V9.75467C2.70604 8.71783 3.53828 7.87733 4.56492 7.87733H18.3321C19.3588 7.87733 20.191 8.71785 20.191 9.75467V12.864C20.191 13.3824 20.6072 13.8027 21.1204 13.8027C21.6339 13.8027 22.0499 13.3824 22.0499 12.864V9.75467C22.0499 7.68104 20.3854 6 18.3321 6H4.56492Z" fill="#FF8926" stroke="white" stroke-width="0.45"/>
<path d="M17.5771 11.9844C16.5505 11.9844 15.7183 12.8249 15.7183 13.8617V15.739C15.7183 16.7759 16.5505 17.6164 17.5771 17.6164H21.2949C22.3215 17.6164 23.1538 16.7759 23.1538 15.739V13.8617C23.1538 12.8249 22.3215 11.9844 21.2949 11.9844H17.5771ZM17.5771 13.8617H21.2949V15.739H17.5771V13.8617Z" fill="#FF8926" stroke="white" stroke-width="0.45"/>
<path d="M5.49411 9.63672C4.98095 9.63672 4.56494 10.057 4.56494 10.5754C4.56494 11.0938 4.98095 11.5141 5.49411 11.5141H6.94593C7.4591 11.5141 7.8751 11.0938 7.8751 10.5754C7.8751 10.057 7.4591 9.63672 6.94593 9.63672H5.49411Z" fill="#FF8926"/>
<path fill-rule="evenodd" clip-rule="evenodd" d="M13.4959 3.74407L11.8312 2.13909V6.63637C11.8312 7.12121 11.059 7.12121 11.059 6.63637V2.20597L9.49728 3.81094C9.23986 4.09516 8.7765 3.66048 9.03392 3.37626L11.2821 1.06911C11.3679 0.985513 11.5395 0.968795 11.6253 1.06911L13.9421 3.29267C14.2167 3.56016 13.7705 4.02828 13.4959 3.74407Z" fill="#FF8926" stroke="#FF8926" stroke-width="0.45"/>
</svg>
