<svg width="24" height="24" viewBox="0 0 24 24" fill="none" xmlns="http://www.w3.org/2000/svg">
<path d="M1.33864 22.9627H5.93964C6.02946 22.9627 6.11559 22.927 6.1791 22.8635C6.24261 22.8 6.27829 22.7139 6.27829 22.6241C6.27829 22.3423 6.50672 22.1139 6.7885 22.1139H7.65317L9.35315 22.6625C11.0706 23.2178 12.8923 23.3724 14.6788 23.1145C16.4652 22.8566 18.1689 22.1931 19.6591 21.1747L22.3863 19.3122C22.7081 19.0754 22.9227 18.7204 22.9828 18.3254C23.043 17.9304 22.9437 17.5277 22.7069 17.2058C22.4701 16.884 22.1151 16.6694 21.7201 16.6093C21.3251 16.5492 20.9224 16.6484 20.6005 16.8852L17.8124 19.0909H17.5031C17.4399 17.5354 15.9092 16.5759 14.435 16.5443L13.2249 16.515C12.3377 15.9076 11.2787 15.6016 10.2042 15.6423C9.12977 15.6829 8.09688 16.0681 7.25809 16.7408H6.84043C6.52997 16.7408 6.27829 16.4891 6.27829 16.1786C6.27829 16.0888 6.24261 16.0027 6.1791 15.9392C6.11559 15.8757 6.02946 15.84 5.93964 15.84H1.33864C1.24883 15.84 1.16269 15.8757 1.09919 15.9392C1.03568 16.0027 1 16.0888 1 16.1786V22.6241C1 22.7139 1.03568 22.8 1.09919 22.8635C1.16269 22.927 1.24883 22.9627 1.33864 22.9627ZM7.38 17.418C7.46345 17.4171 7.54372 17.3858 7.60576 17.33C7.70284 17.2419 10.0237 15.1898 12.9292 17.1404C12.9825 17.1769 13.0452 17.1972 13.1098 17.1991L14.4192 17.2261C15.5638 17.251 16.7491 17.9531 16.8213 19.0954H12.4754C12.2884 19.0954 12.1368 19.2471 12.1368 19.4341C12.1368 19.6211 12.2884 19.7727 12.4754 19.7727H17.9298C18.0062 19.7725 18.0803 19.7462 18.1398 19.6982L21.0227 17.418C21.1527 17.316 21.3101 17.2551 21.4748 17.243C21.6395 17.2309 21.8042 17.2682 21.9476 17.3501C22.0911 17.432 22.2068 17.5548 22.2802 17.7028C22.3535 17.8508 22.381 18.0174 22.3592 18.1811C22.3445 18.2964 22.3052 18.4073 22.2441 18.5062C22.1829 18.6051 22.1013 18.6898 22.0048 18.7545L19.2753 20.6171C17.8715 21.576 16.2668 22.2011 14.5842 22.4445C12.9017 22.6879 11.1857 22.5431 9.56762 22.0213L7.81797 21.4569C7.78453 21.4454 7.74948 21.4393 7.71412 21.4388H6.87829C6.54692 21.4388 6.27829 21.1702 6.27829 20.8388V18.018C6.27829 17.6867 6.54692 17.418 6.87829 17.418H7.38ZM5.601 17.0794V21.69C5.601 22.0213 5.33237 22.29 5.001 22.29H4.00209C3.67072 22.29 3.40209 22.0213 3.40209 21.69V17.115C3.40209 16.7836 3.67072 16.515 4.00209 16.515H5.0366C5.34831 16.515 5.601 16.7677 5.601 17.0794ZM1.67728 17.0388C1.67728 16.7495 1.91178 16.515 2.20105 16.515C2.49031 16.515 2.72481 16.7495 2.72481 17.0388V21.7594C2.72481 22.0487 2.49031 22.2832 2.20105 22.2832C1.91178 22.2832 1.67728 22.0487 1.67728 21.7594V17.0388ZM10.1569 13.0541C10.7959 13.0545 11.4207 12.8654 11.9523 12.5107C12.4839 12.156 12.8983 11.6516 13.1432 11.0613C13.388 10.471 13.4523 9.8214 13.3279 9.19457C13.2035 8.56774 12.896 7.99188 12.4443 7.53984C11.9926 7.08781 11.417 6.77989 10.7902 6.65506C10.1635 6.53022 9.51378 6.59406 8.92332 6.83851C8.33287 7.08297 7.82818 7.49705 7.47309 8.02837C7.11801 8.55969 6.92848 9.18439 6.92848 9.82345C6.92967 10.6795 7.27011 11.5002 7.87523 12.1057C8.48034 12.7113 9.30079 13.0523 10.1569 13.0541ZM10.1569 7.27235C10.6621 7.27191 11.156 7.42133 11.5763 7.70173C11.9965 7.98212 12.3241 8.38088 12.5177 8.84754C12.7112 9.31419 12.762 9.82778 12.6635 10.3233C12.5651 10.8188 12.3218 11.274 11.9646 11.6312C11.6074 11.9884 11.1522 12.2317 10.6567 12.3301C10.1612 12.4286 9.6476 12.3778 9.18094 12.1843C8.71429 11.9907 8.31553 11.6631 8.03514 11.2429C7.75474 10.8226 7.60531 10.3286 7.60576 9.82345C7.60695 9.14722 7.87611 8.49903 8.35428 8.02087C8.83244 7.54271 9.48063 7.27355 10.1569 7.27235ZM10.1569 8.78495V8.10767C10.6121 8.10767 11.0488 8.28836 11.3709 8.61007C11.693 8.93178 11.8743 9.36819 11.8749 9.82345H11.1976C11.197 9.54781 11.0871 9.28367 10.892 9.08898C10.6969 8.89429 10.4325 8.78495 10.1569 8.78495ZM18.4874 9.35161C19.1268 9.35161 19.7517 9.1619 20.2832 8.80652C20.8147 8.45113 21.2287 7.94604 21.473 7.35519C21.7172 6.76434 21.7807 6.11431 21.6553 5.48738C21.5299 4.86045 21.2213 4.28482 20.7686 3.83337C20.3159 3.38192 19.7394 3.07495 19.1121 2.95132C18.4849 2.82768 17.835 2.89295 17.2448 3.13885C16.6547 3.38476 16.1508 3.80024 15.7969 4.33271C15.443 4.86517 15.255 5.49066 15.2568 6.13C15.2598 6.98507 15.6014 7.80413 16.2069 8.40791C16.8123 9.0117 17.6324 9.35102 18.4874 9.35161ZM18.4874 3.56762C18.992 3.56762 19.4853 3.71715 19.905 3.99732C20.3247 4.27749 20.652 4.67573 20.8455 5.14177C21.0391 5.60781 21.0901 6.12074 20.9924 6.6158C20.8946 7.11085 20.6523 7.56583 20.2961 7.92328C19.9399 8.28073 19.4858 8.52462 18.9911 8.62416C18.4964 8.7237 17.9833 8.67442 17.5165 8.48255C17.0498 8.29067 16.6504 7.96481 16.3688 7.5461C16.0871 7.12739 15.9359 6.63462 15.9341 6.13C15.9332 5.79402 15.9986 5.46115 16.1264 5.15046C16.2543 4.83976 16.4422 4.55733 16.6794 4.31933C16.9166 4.08133 17.1983 3.89244 17.5086 3.76345C17.8188 3.63446 18.1514 3.56792 18.4874 3.56762ZM18.4874 5.08022V4.40293C18.7136 4.40353 18.9375 4.44867 19.1463 4.53578C19.355 4.6229 19.5446 4.75028 19.7041 4.91065C19.8637 5.07102 19.9901 5.26125 20.0761 5.47047C20.1621 5.67968 20.2061 5.90379 20.2055 6.13H19.5282C19.5291 5.99265 19.5028 5.85648 19.451 5.7293C19.3991 5.60212 19.3226 5.48644 19.2259 5.3889C19.1292 5.29136 19.0142 5.21388 18.8874 5.1609C18.7607 5.10793 18.6248 5.08051 18.4874 5.08022ZM15.6519 15.3343C15.6716 15.4054 15.714 15.4682 15.7727 15.5131C15.8314 15.5579 15.9031 15.5823 15.977 15.5826C16.0083 15.5825 16.0395 15.578 16.0695 15.5691L18.0314 15.0182L19.991 14.4673L21.9551 13.9165C22.0396 13.8899 22.1105 13.8314 22.1526 13.7534C22.1948 13.6755 22.2049 13.5841 22.1809 13.4988L21.6368 11.5483C21.6102 11.4637 21.5517 11.3929 21.4737 11.3507C21.3958 11.3086 21.3044 11.2985 21.2191 11.3225L19.2573 11.8734L17.2954 12.4242L15.3335 12.9751C15.2478 13.0006 15.1751 13.0579 15.1304 13.1354C15.0871 13.2139 15.0766 13.3064 15.101 13.3927L15.6519 15.3343ZM18.73 12.7063C18.9426 12.6465 19.1635 12.7705 19.2233 12.9831L19.3746 13.5218C19.4345 13.7347 19.3102 13.9557 19.0972 14.0152L18.5581 14.1658C18.3456 14.2252 18.1252 14.1013 18.0654 13.8889L17.9141 13.3512C17.8542 13.1385 17.9781 12.9176 18.1909 12.8578L18.73 12.7063ZM21.3344 12.9693C21.3942 13.1819 21.2702 13.4028 21.0576 13.4626L20.5183 13.6141C20.3056 13.6739 20.0848 13.5499 20.025 13.3373L19.8735 12.798C19.8137 12.5853 19.9376 12.3645 20.1503 12.3047L20.6896 12.1532C20.9022 12.0934 21.1231 12.2173 21.1829 12.43L21.3344 12.9693ZM16.7681 13.2571C16.9808 13.1974 17.2016 13.3213 17.2614 13.534L17.4129 14.0732C17.4727 14.2859 17.3488 14.5068 17.1361 14.5665L16.5968 14.7181C16.3842 14.7779 16.1633 14.6539 16.1035 14.4412L15.952 13.902C15.8922 13.6893 16.0162 13.4684 16.2288 13.4087L16.7681 13.2571ZM11.7191 5.09376C11.7191 5.28079 11.5675 5.4324 11.3805 5.4324C11.1935 5.4324 11.0418 5.28079 11.0418 5.09376V2.74133C11.0418 2.55431 11.1935 2.40269 11.3805 2.40269C11.5675 2.40269 11.7191 2.55431 11.7191 2.74134V5.09376ZM9.27413 3.45474C9.27413 3.64177 9.12252 3.79338 8.93549 3.79338C8.74846 3.79338 8.59685 3.64177 8.59685 3.45474V1.10231C8.59685 0.915287 8.74846 0.763672 8.93549 0.763672C9.12252 0.763672 9.27413 0.915287 9.27413 1.10231V3.45474Z" fill="#FF8926" stroke="#FF8926" stroke-width="0.4"/>
</svg>
