<svg width="21" height="8" viewBox="0 0 21 8" fill="none" xmlns="http://www.w3.org/2000/svg">
<path d="M5.70382 7.95133C7.81847 7.95133 9.55096 6.28254 9.6465 4.187C9.91401 4.08509 10.2197 4.04051 10.5 4.04051C10.7803 4.04051 11.086 4.08509 11.3535 4.187C11.4554 6.28254 13.1815 7.95133 15.3025 7.95133C17.3025 7.95133 18.9522 6.46726 19.2197 4.54369H20.0287C20.3344 4.54369 20.5 4.37172 20.5 4.05961V3.58191C20.5 3.26344 20.3408 3.1042 20.0287 3.1042H19.1561C18.7484 1.35261 17.1815 0.046875 15.3025 0.046875C13.4873 0.046875 11.9522 1.2698 11.4936 2.94496C11.1752 2.82395 10.7994 2.77299 10.5 2.77299C10.2006 2.77299 9.83121 2.82395 9.51274 2.94496C9.04777 1.2698 7.51911 0.046875 5.70382 0.046875C3.82484 0.046875 2.25159 1.35261 1.85032 3.1042H0.977707C0.665605 3.1042 0.5 3.26344 0.5 3.58191V4.05961C0.5 4.37172 0.665605 4.54369 0.977707 4.54369H1.78662C2.04777 6.46726 3.70382 7.95133 5.70382 7.95133ZM5.70382 6.62012C4.25159 6.62012 3.07325 5.44815 3.07325 3.99592C3.07325 2.55006 4.25159 1.37809 5.70382 1.37809C7.14331 1.37809 8.32166 2.55006 8.32166 3.99592C8.32166 5.44178 7.14331 6.62012 5.70382 6.62012ZM15.3025 6.62012C13.8567 6.62012 12.6783 5.44178 12.6783 3.99592C12.6783 2.55006 13.8567 1.37809 15.3025 1.37809C16.7548 1.37809 17.9268 2.55006 17.9268 3.99592C17.9268 5.44815 16.7548 6.62012 15.3025 6.62012Z" fill="white"/>
</svg>
