<svg width="23" height="22" viewBox="0 0 23 22" fill="none" xmlns="http://www.w3.org/2000/svg">
<g id="Group 16884">
<g id="Group 16882">
<path id="Path 11972" d="M13.5333 13.3897H17.4868L16.9487 13.8948C16.8505 13.9863 16.7927 14.1131 16.788 14.2473C16.7832 14.3815 16.832 14.512 16.9235 14.6102C17.0151 14.7084 17.1419 14.7663 17.276 14.771C17.4102 14.7757 17.5408 14.727 17.639 14.6354L19.1056 13.2559C19.1545 13.2074 19.1933 13.1497 19.2198 13.0861C19.2463 13.0226 19.2599 12.9544 19.2599 12.8855C19.2599 12.8167 19.2463 12.7485 19.2198 12.6849C19.1933 12.6214 19.1545 12.5637 19.1056 12.5152L17.639 11.1356C17.5903 11.0903 17.5333 11.055 17.471 11.0318C17.4087 11.0085 17.3425 10.9977 17.276 11.0001C17.2096 11.0024 17.1443 11.0178 17.0838 11.0454C17.0233 11.073 16.9689 11.1122 16.9235 11.1609C16.8782 11.2095 16.8429 11.2666 16.8196 11.3288C16.7964 11.3911 16.7856 11.4574 16.788 11.5238C16.7903 11.5902 16.8057 11.6556 16.8333 11.716C16.8609 11.7765 16.9001 11.831 16.9487 11.8763L17.4868 12.3814H13.5333C13.4048 12.3891 13.2842 12.4456 13.1959 12.5393C13.1077 12.633 13.0586 12.7569 13.0586 12.8855C13.0586 13.0142 13.1077 13.1381 13.1959 13.2318C13.2842 13.3255 13.4048 13.3819 13.5333 13.3897Z" fill="#FF8926"/>
<path id="Path 11973" d="M12.9608 18.3323C13.059 18.4239 13.1896 18.4726 13.3237 18.4679C13.4579 18.4632 13.5847 18.4053 13.6762 18.3071C13.7678 18.2089 13.8165 18.0784 13.8118 17.9442C13.8071 17.81 13.7492 17.6832 13.651 17.5917L13.1129 17.0866H17.0665C17.1949 17.0789 17.3156 17.0224 17.4038 16.9287C17.492 16.835 17.5412 16.7111 17.5412 16.5824C17.5412 16.4537 17.492 16.3299 17.4038 16.2362C17.3156 16.1425 17.1949 16.086 17.0665 16.0783H13.1129L13.651 15.5732C13.6997 15.5279 13.7389 15.4734 13.7665 15.4129C13.7941 15.3525 13.8095 15.2871 13.8118 15.2207C13.8141 15.1543 13.8034 15.088 13.7801 15.0257C13.7569 14.9634 13.7216 14.9064 13.6762 14.8577C13.6309 14.8091 13.5764 14.7699 13.516 14.7423C13.4555 14.7147 13.3902 14.6993 13.3237 14.697C13.2573 14.6946 13.1911 14.7054 13.1288 14.7287C13.0665 14.7519 13.0094 14.7872 12.9608 14.8325L11.4941 16.2121C11.4452 16.2606 11.4064 16.3183 11.38 16.3819C11.3535 16.4454 11.3398 16.5136 11.3398 16.5824C11.3398 16.6513 11.3535 16.7195 11.38 16.783C11.4064 16.8466 11.4452 16.9043 11.4941 16.9528L12.9608 18.3323Z" fill="#FF8926"/>
</g>
<g id="noun-blocked-credit-card-584320">
<path id="Path 11966" d="M6.86894 10.4986H3.12348C3.00295 10.4933 2.88914 10.4417 2.80574 10.3545C2.72233 10.2673 2.67578 10.1513 2.67578 10.0307C2.67578 9.91005 2.72233 9.79407 2.80574 9.70689C2.88914 9.61972 3.00295 9.56808 3.12348 9.56274H6.86894C6.98946 9.56808 7.10328 9.61972 7.18668 9.70689C7.27008 9.79407 7.31664 9.91005 7.31664 10.0307C7.31664 10.1513 7.27008 10.2673 7.18668 10.3545C7.10328 10.4417 6.98946 10.4933 6.86894 10.4986Z" fill="#FF8926"/>
<path id="Path 11967" d="M22.4998 2.00766C22.5014 1.75442 22.4527 1.5034 22.3565 1.26913C22.2603 1.03487 22.1186 0.822032 21.9395 0.642965C21.7605 0.463898 21.5476 0.322165 21.3134 0.225986C21.0791 0.129807 20.8281 0.0810966 20.5748 0.082679H2.42502C2.17178 0.0810966 1.92075 0.129807 1.68649 0.225986C1.45223 0.322165 1.23939 0.463898 1.06032 0.642965C0.881258 0.822032 0.739521 1.03487 0.643342 1.26913C0.547163 1.5034 0.498455 1.75442 0.500037 2.00766V12.5125C0.50622 13.0212 0.711017 13.5072 1.07069 13.8669C1.43036 14.2265 1.9164 14.4313 2.42502 14.4375H8.19996V14.7675C8.19996 16.6638 8.95325 18.4824 10.2941 19.8233C11.635 21.1642 13.4536 21.9174 15.3499 21.9174C17.2462 21.9174 19.0648 21.1642 20.4056 19.8233C21.7465 18.4824 22.4998 16.6638 22.4998 14.7675C22.4993 14.268 22.444 13.77 22.3348 13.2825C22.4473 13.0417 22.5038 12.7784 22.4998 12.5125V2.00766ZM15.3499 20.7625C14.5547 20.7648 13.767 20.6098 13.032 20.3066C12.2969 20.0034 11.6291 19.5578 11.0668 18.9956C10.5046 18.4334 10.059 17.7655 9.75579 17.0305C9.45257 16.2954 9.29764 15.5077 9.29994 14.7125V14.3825C9.29671 14.0095 9.3524 13.6382 9.46494 13.2825C9.78263 11.9835 10.5211 10.8261 11.5653 9.99053C12.6094 9.15499 13.9006 8.68831 15.2377 8.6632C16.5748 8.63809 17.8826 9.05597 18.9574 9.85171C20.0322 10.6474 20.8136 11.7764 21.1798 13.0625C21.2796 13.442 21.3531 13.8279 21.3998 14.2175V14.7125C21.4021 15.5077 21.2472 16.2954 20.944 17.0305C20.6407 17.7655 20.1952 18.4334 19.633 18.9956C19.0707 19.5578 18.4029 20.0034 17.6678 20.3066C16.9328 20.6098 16.145 20.7648 15.3499 20.7625ZM21.3998 10.9176C20.7602 9.88975 19.8689 9.04217 18.8102 8.45508C17.7515 7.86798 16.5605 7.5608 15.3499 7.5626C13.6984 7.56411 12.0977 8.13326 10.816 9.17465C9.53428 10.216 8.64949 11.6664 8.30995 13.2825H2.42502C2.2079 13.2772 2.00115 13.1886 1.84758 13.035C1.69401 12.8814 1.60537 12.6747 1.60002 12.4575V5.08854H21.3998V10.9176ZM21.3998 3.98764H1.60002V2.00766C1.59803 1.89877 1.61801 1.7906 1.65877 1.68961C1.69952 1.58862 1.76022 1.49688 1.83723 1.41987C1.91424 1.34286 2.00598 1.28217 2.10697 1.24141C2.20796 1.20066 2.31613 1.18068 2.42502 1.18267H20.5198C20.7369 1.18801 20.9437 1.27665 21.0973 1.43022C21.2508 1.58379 21.3395 1.79054 21.3448 2.00766V3.98764H21.3998Z" fill="#FF8926"/>
</g>
</g>
</svg>
