<svg width="25" height="24" viewBox="0 0 25 24" fill="none" xmlns="http://www.w3.org/2000/svg">
<g clip-path="url(#clip0_12509_16468)">
<g clip-path="url(#clip1_12509_16468)">
<path d="M4.92265 4.65586C4.92265 5.02972 4.61957 5.3328 4.2457 5.3328C3.87183 5.3328 3.56875 5.02972 3.56875 4.65586C3.56875 4.28199 3.87183 3.97891 4.2457 3.97891C4.61957 3.97891 4.92265 4.28199 4.92265 4.65586Z" fill="black" stroke="white" stroke-width="0.2"/>
<path d="M4.92265 8.32871C4.92265 8.70258 4.61957 9.00566 4.2457 9.00566C3.87183 9.00566 3.56875 8.70258 3.56875 8.32871C3.56875 7.95484 3.87183 7.65176 4.2457 7.65176C4.61957 7.65176 4.92265 7.95484 4.92265 8.32871Z" fill="black" stroke="white" stroke-width="0.2"/>
<path d="M4.92265 12.0001C4.92265 12.374 4.61957 12.677 4.2457 12.677C3.87183 12.677 3.56875 12.374 3.56875 12.0001C3.56875 11.6262 3.87183 11.3231 4.2457 11.3231C4.61957 11.3231 4.92265 11.6262 4.92265 12.0001Z" fill="black" stroke="white" stroke-width="0.2"/>
<path d="M15.2296 5.16624H6.55548C6.42018 5.16624 6.29041 5.11249 6.19474 5.01681C6.09906 4.92114 6.04531 4.79137 6.04531 4.65607C6.04531 4.52076 6.09906 4.391 6.19474 4.29532C6.29041 4.19965 6.42018 4.1459 6.55548 4.1459H15.2296C15.365 4.1459 15.4947 4.19965 15.5904 4.29532C15.6861 4.391 15.7398 4.52076 15.7398 4.65607C15.7398 4.79137 15.6861 4.92114 15.5904 5.01681C15.4947 5.11249 15.365 5.16624 15.2296 5.16624ZM13.788 8.83864H6.55548C6.42018 8.83864 6.29041 8.78489 6.19474 8.68922C6.09906 8.59354 6.04531 8.46378 6.04531 8.32847C6.04531 8.19317 6.09906 8.06341 6.19474 7.96773C6.29041 7.87205 6.42018 7.8183 6.55548 7.8183H13.788C13.9233 7.8183 14.0531 7.87205 14.1488 7.96773C14.2444 8.06341 14.2982 8.19317 14.2982 8.32847C14.2982 8.46378 14.2444 8.59354 14.1488 8.68922C14.0531 8.78489 13.9233 8.83864 13.788 8.83864ZM12.2927 12.5102H6.55548C6.42018 12.5102 6.29041 12.4565 6.19474 12.3608C6.09906 12.2651 6.04531 12.1354 6.04531 12.0001C6.04531 11.8648 6.09906 11.735 6.19474 11.6393C6.29041 11.5436 6.42018 11.4899 6.55548 11.4899H12.2927C12.428 11.4899 12.5578 11.5436 12.6534 11.6393C12.7491 11.735 12.8029 11.8648 12.8029 12.0001C12.8029 12.1354 12.7491 12.2651 12.6534 12.3608C12.5578 12.4565 12.428 12.5102 12.2927 12.5102Z" fill="black" stroke="white" stroke-width="0.2"/>
<mask id="path-5-inside-1_12509_16468" fill="white">
<path fill-rule="evenodd" clip-rule="evenodd" d="M14.9301 15.1416C15.7691 14.3025 16.907 13.8309 18.0936 13.8305L18.096 13.8304C20.5647 13.8319 22.5679 15.8359 22.5679 18.305C22.5679 20.775 20.5633 22.7796 18.0934 22.7796C17.0506 22.7792 16.0455 22.415 15.2477 21.7573C15.0076 21.5591 14.7885 21.3363 14.5942 21.0929C14.0293 20.3839 13.6918 19.5184 13.6293 18.611C13.6225 18.5099 13.619 18.4079 13.619 18.3051C13.6195 17.1185 14.091 15.9806 14.9301 15.1416ZM18.1055 23.9999C18.1015 24 18.0976 24 18.0936 24H2.4326C1.83952 24 1.27002 23.7641 0.850228 23.3451C0.431078 22.9251 0.195562 22.3561 0.195312 21.7627V2.23729C0.195312 1.6442 0.431245 1.07471 0.850228 0.654915C1.2702 0.235766 1.83925 0.000249124 2.4326 0H16.4665C17.0596 0 17.6291 0.235932 18.0489 0.654915C18.4679 1.07471 18.7038 1.6442 18.7038 2.23729V12.6425C21.56 12.9476 23.7883 15.3684 23.7883 18.305C23.7883 21.4438 21.2427 23.9934 18.1055 23.9999ZM14.5722 22.7797H2.4326C2.16302 22.7792 1.90461 22.6719 1.71398 22.4813C1.52336 22.2907 1.41608 22.0323 1.41565 21.7627V2.23729C1.41608 1.96771 1.52336 1.70929 1.71398 1.51867C1.90461 1.32805 2.16302 1.22077 2.4326 1.22034H16.4665C16.7361 1.22077 16.9945 1.32805 17.1851 1.51867C17.3757 1.70929 17.483 1.96771 17.4834 2.23729V12.6425C14.6269 12.9473 12.3984 15.3683 12.3984 18.305C12.3984 19.2553 12.6318 20.1517 13.0443 20.9397C13.3997 21.6205 13.8896 22.2224 14.4843 22.7089C14.5134 22.7328 14.5427 22.7564 14.5722 22.7797Z"/>
</mask>
<path fill-rule="evenodd" clip-rule="evenodd" d="M14.9301 15.1416C15.7691 14.3025 16.907 13.8309 18.0936 13.8305L18.096 13.8304C20.5647 13.8319 22.5679 15.8359 22.5679 18.305C22.5679 20.775 20.5633 22.7796 18.0934 22.7796C17.0506 22.7792 16.0455 22.415 15.2477 21.7573C15.0076 21.5591 14.7885 21.3363 14.5942 21.0929C14.0293 20.3839 13.6918 19.5184 13.6293 18.611C13.6225 18.5099 13.619 18.4079 13.619 18.3051C13.6195 17.1185 14.091 15.9806 14.9301 15.1416ZM18.1055 23.9999C18.1015 24 18.0976 24 18.0936 24H2.4326C1.83952 24 1.27002 23.7641 0.850228 23.3451C0.431078 22.9251 0.195562 22.3561 0.195312 21.7627V2.23729C0.195312 1.6442 0.431245 1.07471 0.850228 0.654915C1.2702 0.235766 1.83925 0.000249124 2.4326 0H16.4665C17.0596 0 17.6291 0.235932 18.0489 0.654915C18.4679 1.07471 18.7038 1.6442 18.7038 2.23729V12.6425C21.56 12.9476 23.7883 15.3684 23.7883 18.305C23.7883 21.4438 21.2427 23.9934 18.1055 23.9999ZM14.5722 22.7797H2.4326C2.16302 22.7792 1.90461 22.6719 1.71398 22.4813C1.52336 22.2907 1.41608 22.0323 1.41565 21.7627V2.23729C1.41608 1.96771 1.52336 1.70929 1.71398 1.51867C1.90461 1.32805 2.16302 1.22077 2.4326 1.22034H16.4665C16.7361 1.22077 16.9945 1.32805 17.1851 1.51867C17.3757 1.70929 17.483 1.96771 17.4834 2.23729V12.6425C14.6269 12.9473 12.3984 15.3683 12.3984 18.305C12.3984 19.2553 12.6318 20.1517 13.0443 20.9397C13.3997 21.6205 13.8896 22.2224 14.4843 22.7089C14.5134 22.7328 14.5427 22.7564 14.5722 22.7797Z" fill="black"/>
<path d="M18.0936 13.8305L18.0937 14.0306L18.0987 14.0304L18.0936 13.8305ZM18.096 13.8304L18.0961 13.6304L18.0909 13.6305L18.096 13.8304ZM18.0934 22.7796L18.0933 22.9796H18.0934V22.7796ZM15.2477 21.7573L15.1204 21.9116L15.1205 21.9117L15.2477 21.7573ZM14.5942 21.0929L14.4378 21.2175L14.4379 21.2176L14.5942 21.0929ZM13.6293 18.611L13.4298 18.6244L13.4298 18.6247L13.6293 18.611ZM13.619 18.3051L13.419 18.305V18.3051H13.619ZM18.1055 23.9999L18.1051 23.7999L18.1023 23.7999L18.1055 23.9999ZM18.0936 24L18.0943 23.8H18.0936V24ZM0.850228 23.3451L0.708667 23.4864L0.708944 23.4866L0.850228 23.3451ZM0.195312 21.7627H-0.00468752L-0.00468749 21.7628L0.195312 21.7627ZM0.850228 0.654915L0.708946 0.513354L0.708669 0.513631L0.850228 0.654915ZM2.4326 0V-0.2L2.43252 -0.2L2.4326 0ZM18.0489 0.654915L18.1904 0.513631L18.1902 0.513357L18.0489 0.654915ZM18.7038 12.6425H18.5038V12.8223L18.6825 12.8414L18.7038 12.6425ZM14.5722 22.7797V22.9797H15.149L14.696 22.6226L14.5722 22.7797ZM2.4326 22.7797L2.43228 22.9797H2.4326V22.7797ZM1.41565 21.7627H1.21565L1.21565 21.763L1.41565 21.7627ZM1.41565 2.23729L1.21565 2.23697V2.23729H1.41565ZM2.4326 1.22034V1.02034L2.43228 1.02034L2.4326 1.22034ZM16.4665 1.22034L16.4668 1.02034H16.4665V1.22034ZM17.1851 1.51867L17.3265 1.37725L17.3265 1.37725L17.1851 1.51867ZM17.4834 2.23729H17.6834L17.6834 2.23697L17.4834 2.23729ZM17.4834 12.6425L17.5047 12.8413L17.6834 12.8223V12.6425H17.4834ZM13.0443 20.9397L13.2216 20.8472L13.2215 20.847L13.0443 20.9397ZM14.4843 22.7089L14.6112 22.5543L14.6109 22.5541L14.4843 22.7089ZM18.0935 13.6305C16.8539 13.631 15.6652 14.1236 14.7887 15.0001L15.0715 15.283C15.8731 14.4814 16.9601 14.0309 18.0937 14.0305L18.0935 13.6305ZM18.0909 13.6305L18.0885 13.6306L18.0987 14.0304L18.1011 14.0304L18.0909 13.6305ZM18.0959 14.0304C20.4542 14.0318 22.3679 15.9463 22.3679 18.305H22.7679C22.7679 15.7255 20.6753 13.6319 18.0961 13.6304L18.0959 14.0304ZM22.3679 18.305C22.3679 20.6645 20.4529 22.5796 18.0934 22.5796V22.9796C20.6738 22.9796 22.7679 20.8854 22.7679 18.305H22.3679ZM18.0934 22.5796C17.0973 22.5792 16.1371 22.2313 15.375 21.603L15.1205 21.9117C15.9539 22.5987 17.004 22.9792 18.0933 22.9796L18.0934 22.5796ZM14.4379 21.2176C14.6408 21.4719 14.8696 21.7046 15.1204 21.9116L15.3751 21.6031C15.1456 21.4137 14.9362 21.2008 14.7505 20.9681L14.4379 21.2176ZM14.7506 20.9682C14.2109 20.291 13.8885 19.4641 13.8289 18.5972L13.4298 18.6247C13.4951 19.5726 13.8476 20.4769 14.4378 21.2175L14.7506 20.9682ZM13.419 18.3051C13.419 18.4124 13.4227 18.5189 13.4298 18.6244L13.8289 18.5975C13.8224 18.5009 13.819 18.4034 13.819 18.3051H13.419ZM14.7887 15.0001C13.9121 15.8767 13.4195 17.0654 13.419 18.305L13.819 18.3052C13.8195 17.1716 14.2699 16.0845 15.0715 15.283L14.7887 15.0001ZM18.1023 23.7999C18.0996 23.8 18.0969 23.8 18.0943 23.8L18.0929 24.2C18.0982 24.2 18.1035 24.2 18.1087 24.1999L18.1023 23.7999ZM18.0936 23.8H2.4326V24.2H18.0936V23.8ZM2.4326 23.8C1.89258 23.8 1.37387 23.5851 0.991512 23.2035L0.708944 23.4866C1.16618 23.943 1.78645 24.2 2.4326 24.2V23.8ZM0.991789 23.2038C0.61004 22.8213 0.395539 22.303 0.395312 21.7626L-0.00468749 21.7628C-0.00441614 22.4091 0.252116 23.0289 0.708667 23.4864L0.991789 23.2038ZM0.395313 21.7627V2.23729H-0.0046875V21.7627H0.395313ZM0.395313 2.23729C0.395313 1.69726 0.610167 1.17856 0.991786 0.796199L0.708669 0.513631C0.252323 0.970864 -0.0046875 1.59114 -0.0046875 2.23729H0.395313ZM0.991509 0.796476C1.37401 0.414728 1.89228 0.200227 2.43268 0.2L2.43252 -0.2C1.78622 -0.199729 1.1664 0.0568036 0.708946 0.513354L0.991509 0.796476ZM2.4326 0.2H16.4665V-0.2H2.4326V0.2ZM16.4665 0.2C17.0065 0.2 17.5252 0.414854 17.9076 0.796474L18.1902 0.513357C17.7329 0.0570103 17.1126 -0.2 16.4665 -0.2V0.2ZM17.9073 0.796199C18.2889 1.17856 18.5038 1.69726 18.5038 2.23729H18.9038C18.9038 1.59114 18.6468 0.970864 18.1904 0.513631L17.9073 0.796199ZM18.5038 2.23729V12.6425H18.9038V2.23729H18.5038ZM23.9883 18.305C23.9883 15.2651 21.6818 12.7594 18.725 12.4436L18.6825 12.8414C21.4383 13.1357 23.5883 15.4718 23.5883 18.305H23.9883ZM18.1059 24.1999C21.3534 24.1931 23.9883 21.5541 23.9883 18.305H23.5883C23.5883 21.3334 21.132 23.7936 18.1051 23.7999L18.1059 24.1999ZM14.5722 22.5797H2.4326V22.9797H14.5722V22.5797ZM2.43292 22.5797C2.21627 22.5793 2.0086 22.4931 1.85541 22.3399L1.57256 22.6227C1.80061 22.8508 2.10977 22.9791 2.43228 22.9797L2.43292 22.5797ZM1.85541 22.3399C1.70221 22.1867 1.616 21.979 1.61565 21.7624L1.21565 21.763C1.21617 22.0855 1.34451 22.3947 1.57256 22.6227L1.85541 22.3399ZM1.61565 21.7627V2.23729H1.21565V21.7627H1.61565ZM1.61565 2.23761C1.616 2.02096 1.70221 1.81329 1.85541 1.66009L1.57256 1.37725C1.34451 1.6053 1.21617 1.91446 1.21565 2.23697L1.61565 2.23761ZM1.85541 1.66009C2.0086 1.5069 2.21627 1.42068 2.43292 1.42034L2.43228 1.02034C2.10977 1.02085 1.80061 1.1492 1.57256 1.37725L1.85541 1.66009ZM2.4326 1.42034H16.4665V1.02034H2.4326V1.42034ZM16.4662 1.42034C16.6828 1.42068 16.8905 1.5069 17.0437 1.66009L17.3265 1.37725C17.0985 1.1492 16.7893 1.02085 16.4668 1.02034L16.4662 1.42034ZM17.0437 1.66009C17.1969 1.81329 17.2831 2.02096 17.2834 2.23761L17.6834 2.23697C17.6829 1.91446 17.5546 1.6053 17.3265 1.37725L17.0437 1.66009ZM17.2834 2.23729V12.6425H17.6834V2.23729H17.2834ZM17.4622 12.4436C14.5052 12.7591 12.1984 15.2649 12.1984 18.305H12.5984C12.5984 15.4716 14.7487 13.1354 17.5047 12.8413L17.4622 12.4436ZM12.1984 18.305C12.1984 19.2884 12.44 20.2165 12.8671 21.0325L13.2215 20.847C12.8236 20.0868 12.5984 19.2222 12.5984 18.305H12.1984ZM12.867 21.0323C13.2349 21.7371 13.742 22.3601 14.3577 22.8637L14.6109 22.5541C14.0371 22.0848 13.5645 21.504 13.2216 20.8472L12.867 21.0323ZM14.3574 22.8635C14.3875 22.8882 14.4178 22.9126 14.4484 22.9367L14.696 22.6226C14.6675 22.6001 14.6392 22.5774 14.6112 22.5543L14.3574 22.8635Z" fill="white" mask="url(#path-5-inside-1_12509_16468)"/>
<g clip-path="url(#clip2_12509_16468)">
<path d="M20.3821 16.312L16.0078 20.6872" stroke="black" stroke-width="0.624965" stroke-linecap="round" stroke-linejoin="round"/>
<path d="M16.4764 17.5626C16.9078 17.5626 17.2576 17.2128 17.2576 16.7813C17.2576 16.3498 16.9078 16 16.4764 16C16.045 16 15.6953 16.3498 15.6953 16.7813C15.6953 17.2128 16.045 17.5626 16.4764 17.5626Z" stroke="black" stroke-width="0.624965" stroke-linecap="round" stroke-linejoin="round"/>
<path d="M19.9139 21.0001C20.3453 21.0001 20.6951 20.6503 20.6951 20.2188C20.6951 19.7873 20.3453 19.4375 19.9139 19.4375C19.4825 19.4375 19.1328 19.7873 19.1328 20.2188C19.1328 20.6503 19.4825 21.0001 19.9139 21.0001Z" stroke="black" stroke-width="0.624965" stroke-linecap="round" stroke-linejoin="round"/>
</g>
</g>
</g>
<defs>
<clipPath id="clip0_12509_16468">
<rect width="24" height="24" fill="white" transform="translate(0.195312)"/>
</clipPath>
<clipPath id="clip1_12509_16468">
<rect width="24" height="24" fill="white" transform="translate(0.195312)"/>
</clipPath>
<clipPath id="clip2_12509_16468">
<rect width="6" height="6" fill="white" transform="translate(15.1953 15.5)"/>
</clipPath>
</defs>
</svg>
