<svg width="25" height="24" viewBox="0 0 25 24" fill="none" xmlns="http://www.w3.org/2000/svg">
<g clip-path="url(#clip0_10589_19573)">
<path d="M20.4388 6.81622C20.4388 7.46831 20.4388 8.12041 20.4388 8.77251C20.4388 10.2489 20.4388 11.7252 20.4388 13.2016C20.4388 14.7824 20.4388 16.3631 20.4388 17.9438C20.4388 18.9091 20.4388 19.8743 20.4388 20.8396C20.4388 20.9004 20.4388 20.9612 20.4388 21.0219C20.4388 21.0693 20.4367 21.1165 20.4335 21.1638C20.4321 21.1846 20.4169 21.2993 20.4335 21.1835C20.4287 21.2169 20.4221 21.2499 20.4154 21.2829C20.4001 21.359 20.3776 21.4335 20.3525 21.5068C20.346 21.5257 20.3034 21.6291 20.3479 21.5251C20.335 21.5552 20.3205 21.5846 20.306 21.6138C20.2771 21.6722 20.2435 21.728 20.2085 21.7828C20.191 21.8102 20.1721 21.8365 20.1532 21.8628C20.2177 21.773 20.1541 21.8606 20.141 21.8763C20.0926 21.9343 20.0392 21.9877 19.9841 22.0391C19.9604 22.0611 19.9356 22.0819 19.9108 22.1026C19.8263 22.1732 19.9853 22.0486 19.8958 22.113C19.8431 22.1509 19.7874 22.1845 19.7309 22.2165C19.7025 22.2325 19.6733 22.247 19.6441 22.2615C19.6259 22.2705 19.5237 22.3128 19.628 22.2704C19.5565 22.2995 19.4824 22.3219 19.4078 22.3414C19.3754 22.3499 19.3425 22.3565 19.3097 22.3631C19.2892 22.3673 19.1761 22.3825 19.2916 22.3681C19.2233 22.3766 19.1544 22.3792 19.0855 22.3799C19.0821 22.3799 19.0787 22.3799 19.0753 22.3799C19.002 22.3799 18.9288 22.3799 18.8555 22.3799C17.8272 22.3799 16.7989 22.3799 15.7706 22.3799C14.1671 22.3799 12.5635 22.3799 10.96 22.3799C9.58298 22.3799 8.20594 22.3799 6.82888 22.3799C6.47581 22.3799 6.12274 22.3799 5.76968 22.3799C5.72084 22.3799 5.67202 22.3799 5.62318 22.3799C5.55422 22.3799 5.48565 22.3753 5.41711 22.3681C5.53235 22.3802 5.42014 22.367 5.39902 22.3631C5.36611 22.3571 5.33354 22.3492 5.30104 22.3414C5.23665 22.3258 5.1737 22.3049 5.11152 22.2822C5.00643 22.2439 5.19591 22.3213 5.0943 22.2755C5.05463 22.2576 5.01617 22.2372 4.97794 22.2164C4.92082 22.1855 4.86637 22.1499 4.813 22.113C4.7224 22.0502 4.88378 22.1716 4.798 22.1026C4.77283 22.0823 4.74876 22.0607 4.72471 22.0391C4.67659 21.9959 4.63207 21.9489 4.58895 21.9008C4.56733 21.8767 4.54706 21.8515 4.52682 21.8263C4.59928 21.9164 4.51273 21.8015 4.50028 21.7828C4.46421 21.7286 4.43266 21.6716 4.40275 21.6138C4.38772 21.5848 4.37428 21.555 4.36084 21.5251C4.40702 21.6278 4.36327 21.526 4.35629 21.5068C4.33356 21.4444 4.31615 21.3801 4.30055 21.3156C4.29267 21.283 4.28661 21.2499 4.2806 21.2169C4.27285 21.1674 4.27322 21.1724 4.28167 21.2319C4.27908 21.2092 4.2769 21.1866 4.27516 21.1638C4.27064 21.1113 4.26992 21.0585 4.26992 21.0058C4.26992 20.9391 4.26992 20.8725 4.26992 20.8058C4.26992 20.4813 4.26992 20.1568 4.26992 19.8322C4.26992 18.6133 4.26992 17.3944 4.26992 16.1755C4.26992 14.5686 4.26992 12.9616 4.26992 11.3547C4.26992 9.80569 4.26992 8.25673 4.26992 6.70774C4.26992 5.6628 4.26992 4.61787 4.26992 3.57293C4.26992 3.37886 4.26992 3.18478 4.26992 2.99071C4.26992 2.91628 4.27389 2.84219 4.28167 2.76815C4.26954 2.88346 4.28278 2.77116 4.28663 2.75005C4.29265 2.71709 4.30052 2.68452 4.30837 2.65197C4.32395 2.58753 4.34489 2.52453 4.36755 2.46228C4.40583 2.35711 4.32849 2.54673 4.37428 2.44505C4.3877 2.41526 4.40273 2.38623 4.41776 2.35724C4.45263 2.28989 4.4936 2.22584 4.5367 2.16351C4.59941 2.07284 4.47807 2.23435 4.54709 2.14852C4.56733 2.12331 4.58895 2.09925 4.61054 2.07518C4.65371 2.02705 4.70069 1.9825 4.74876 1.93934C4.77281 1.91771 4.79802 1.89742 4.82319 1.87716C4.73669 1.94682 4.82317 1.88002 4.83964 1.8686C4.90202 1.82539 4.9682 1.78793 5.0355 1.75302C5.06451 1.73798 5.09435 1.72453 5.12414 1.71111C5.02158 1.75732 5.12327 1.71354 5.14245 1.70656C5.20483 1.68383 5.269 1.66638 5.33346 1.65079C5.36608 1.64291 5.39912 1.63687 5.43211 1.63083C5.54527 1.61014 5.3358 1.64047 5.45099 1.62834C5.50818 1.62232 5.56602 1.62014 5.6235 1.62014C6.51444 1.62014 7.40536 1.62014 8.29627 1.62014C9.88234 1.62014 11.4684 1.62014 13.0545 1.62014C13.7852 1.62014 14.5159 1.62014 15.2466 1.62014C15.1442 1.57767 15.0417 1.53518 14.9392 1.49272C15.6424 2.19641 16.3455 2.90009 17.0487 3.6038C18.0795 4.63539 19.1103 5.66698 20.1411 6.69857C20.2827 6.84033 20.4244 6.98209 20.5661 7.12385C20.7335 7.29147 21.0134 7.29147 21.1809 7.12385C21.3484 6.95624 21.3484 6.67617 21.1809 6.50855C20.4777 5.80486 19.7746 5.10118 19.0714 4.39747C18.0406 3.36588 17.0098 2.33429 15.979 1.3027C15.7827 1.10629 15.5279 0.75 15.2252 0.75C14.9008 0.75 14.5765 0.75 14.2521 0.75C12.7735 0.75 11.2949 0.75 9.81633 0.75C8.533 0.75 7.24967 0.75 5.96633 0.75C5.85909 0.75 5.75182 0.75 5.64454 0.75C5.20515 0.75 4.76749 0.872892 4.40074 1.11723C3.74427 1.55455 3.40039 2.27775 3.40039 3.05647C3.40039 3.79293 3.40039 4.52938 3.40039 5.26584C3.40039 6.67582 3.40039 8.0858 3.40039 9.49579C3.40039 11.1333 3.40039 12.7707 3.40039 14.4082C3.40039 15.8271 3.40039 17.246 3.40039 18.6649C3.40039 19.4192 3.40039 20.1735 3.40039 20.9278C3.40039 21.6319 3.66586 22.3172 4.23387 22.758C4.63799 23.0716 5.11686 23.25 5.6318 23.25C5.70322 23.25 5.77462 23.25 5.84604 23.25C6.86947 23.25 7.8929 23.25 8.91632 23.25C10.519 23.25 12.1216 23.25 13.7242 23.25C15.1044 23.25 16.4846 23.25 17.8647 23.25C18.2209 23.25 18.577 23.25 18.9332 23.25C18.9839 23.25 19.0346 23.25 19.0854 23.25C19.7076 23.25 20.3188 22.9796 20.7346 22.5161C21.1012 22.1074 21.3082 21.5716 21.3082 21.0219C21.3082 20.9611 21.3082 20.9003 21.3082 20.8395C21.3082 20.4788 21.3082 20.1181 21.3082 19.7575C21.3082 18.3945 21.3082 17.0315 21.3082 15.6685C21.3082 14.05 21.3082 12.4314 21.3082 10.8129C21.3082 9.65868 21.3082 8.50445 21.3082 7.35025C21.3082 7.17221 21.3082 6.9942 21.3082 6.81619C21.3082 6.57901 21.1104 6.38111 20.8734 6.38111C20.6364 6.38111 20.4388 6.57906 20.4388 6.81622Z" fill="black"/>
<path d="M6.36287 6.9102C7.00669 6.9102 7.65054 6.9102 8.29436 6.9102C9.63755 6.9102 10.9807 6.9102 12.3239 6.9102C13.484 6.9102 14.6441 6.9102 15.8041 6.9102C16.0453 6.9102 16.2866 6.9102 16.5278 6.9102C16.7309 6.9102 16.9004 6.7123 16.9004 6.47512C16.9004 6.23794 16.7309 6.04004 16.5278 6.04004C15.884 6.04004 15.2401 6.04004 14.5963 6.04004C13.2531 6.04004 11.9099 6.04004 10.5668 6.04004C9.40669 6.04004 8.24662 6.04004 7.08655 6.04004C6.84532 6.04004 6.6041 6.04004 6.36289 6.04004C6.15974 6.04004 5.99023 6.23794 5.99023 6.47512C5.99023 6.7123 6.15974 6.9102 6.36287 6.9102Z" fill="black"/>
<path d="M6.36287 10.2832C7.16666 10.2832 7.97043 10.2832 8.77419 10.2832C10.0966 10.2832 11.419 10.2832 12.7413 10.2832C13.1055 10.2832 13.4697 10.2832 13.8339 10.2832C14.037 10.2832 14.2065 10.0853 14.2065 9.84817C14.2065 9.61099 14.037 9.41309 13.8339 9.41309C13.0301 9.41309 12.2263 9.41309 11.4225 9.41309C10.1002 9.41309 8.77777 9.41309 7.45539 9.41309C7.09123 9.41309 6.72705 9.41309 6.36289 9.41309C6.15974 9.41309 5.99023 9.61099 5.99023 9.84817C5.99023 10.0853 6.15974 10.2832 6.36287 10.2832Z" fill="black"/>
<g clip-path="url(#clip1_10589_19573)">
<path d="M11.3691 12.4688L14.2413 19.3628L15.261 16.3606L18.2632 15.3409L11.3691 12.4688Z" stroke="black" stroke-width="0.75" stroke-linecap="round" stroke-linejoin="round"/>
<path d="M15.4316 16.5312L17.8691 18.9688" stroke="black" stroke-width="0.75" stroke-linecap="round" stroke-linejoin="round"/>
</g>
</g>
<defs>
<clipPath id="clip0_10589_19573">
<rect width="24" height="24" fill="white" transform="translate(0.400391)"/>
</clipPath>
<clipPath id="clip1_10589_19573">
<rect width="9.75" height="9.75" fill="white" transform="translate(10.1504 11.25)"/>
</clipPath>
</defs>
</svg>
