<svg width="25" height="24" viewBox="0 0 25 24" fill="none" xmlns="http://www.w3.org/2000/svg">
<g clip-path="url(#clip0_12509_16446)">
<mask id="mask0_12509_16446" style="mask-type:luminance" maskUnits="userSpaceOnUse" x="0" y="0" width="25" height="24">
<path d="M24.5938 0H0.59375V24H24.5938V0Z" fill="white"/>
</mask>
<g mask="url(#mask0_12509_16446)">
<mask id="mask1_12509_16446" style="mask-type:luminance" maskUnits="userSpaceOnUse" x="0" y="0" width="25" height="24">
<path d="M24.5938 0H0.59375V24H24.5938V0Z" fill="white"/>
</mask>
<g mask="url(#mask1_12509_16446)">
<path d="M5.32265 4.65595C5.32265 5.02982 5.01957 5.3329 4.6457 5.3329C4.27183 5.3329 3.96875 5.02982 3.96875 4.65595C3.96875 4.28208 4.27183 3.979 4.6457 3.979C5.01957 3.979 5.32265 4.28208 5.32265 4.65595Z" fill="black" stroke="white" stroke-width="0.2"/>
<path d="M5.32265 8.32832C5.32265 8.70219 5.01957 9.00527 4.6457 9.00527C4.27183 9.00527 3.96875 8.70219 3.96875 8.32832C3.96875 7.95445 4.27183 7.65137 4.6457 7.65137C5.01957 7.65137 5.32265 7.95445 5.32265 8.32832Z" fill="black" stroke="white" stroke-width="0.2"/>
<path d="M5.32265 12.0002C5.32265 12.374 5.01957 12.6771 4.6457 12.6771C4.27183 12.6771 3.96875 12.374 3.96875 12.0002C3.96875 11.6263 4.27183 11.3232 4.6457 11.3232C5.01957 11.3232 5.32265 11.6263 5.32265 12.0002Z" fill="black" stroke="white" stroke-width="0.2"/>
<path d="M15.6296 5.16634H6.95548C6.82017 5.16634 6.69041 5.11259 6.59474 5.01691C6.49906 4.92123 6.44531 4.79147 6.44531 4.65617C6.44531 4.52086 6.49906 4.3911 6.59474 4.29542C6.69041 4.19975 6.82017 4.146 6.95548 4.146H15.6296C15.7649 4.146 15.8947 4.19975 15.9904 4.29542C16.0861 4.3911 16.1398 4.52086 16.1398 4.65617C16.1398 4.79147 16.0861 4.92123 15.9904 5.01691C15.8947 5.11259 15.7649 5.16634 15.6296 5.16634ZM14.188 8.83874H6.95548C6.82017 8.83874 6.69041 8.78499 6.59474 8.68932C6.49906 8.59364 6.44531 8.46388 6.44531 8.32857C6.44531 8.19327 6.49906 8.0635 6.59474 7.96783C6.69041 7.87215 6.82017 7.8184 6.95548 7.8184H14.188C14.3233 7.8184 14.4531 7.87215 14.5488 7.96783C14.6444 8.0635 14.6982 8.19327 14.6982 8.32857C14.6982 8.46388 14.6444 8.59364 14.5488 8.68932C14.4531 8.78499 14.3233 8.83874 14.188 8.83874ZM12.6927 12.5103H6.95548C6.82017 12.5103 6.69041 12.4566 6.59474 12.3609C6.49906 12.2652 6.44531 12.1355 6.44531 12.0001C6.44531 11.8648 6.49906 11.7351 6.59474 11.6394C6.69041 11.5437 6.82017 11.49 6.95548 11.49H12.6927C12.828 11.49 12.9578 11.5437 13.0534 11.6394C13.1491 11.7351 13.2029 11.8648 13.2029 12.0001C13.2029 12.1355 13.1491 12.2652 13.0534 12.3609C12.9578 12.4566 12.828 12.5103 12.6927 12.5103Z" fill="black" stroke="white" stroke-width="0.2"/>
<path fill-rule="evenodd" clip-rule="evenodd" d="M15.3286 15.1416C16.1676 14.3025 17.3055 13.8309 18.4921 13.8305L18.4944 13.8304C20.9632 13.8319 22.9664 15.8359 22.9664 18.305C22.9664 20.775 20.9618 22.7796 18.4918 22.7796C17.4491 22.7792 16.4439 22.415 15.6461 21.7573C15.406 21.5591 15.1869 21.3363 14.9927 21.0929C14.4277 20.3839 14.0903 19.5184 14.0278 18.611C14.021 18.5099 14.0175 18.4079 14.0175 18.3051C14.018 17.1185 14.4895 15.9806 15.3286 15.1416ZM18.504 23.9999C18.5 24 18.496 24 18.4921 24H2.83104C2.23795 24 1.66846 23.7641 1.24866 23.3451C0.829516 22.9251 0.593999 22.3561 0.59375 21.7627V2.23729C0.59375 1.6442 0.829682 1.07471 1.24866 0.654915C1.66864 0.235766 2.23769 0.000249124 2.83104 0H16.865C17.458 0 18.0275 0.235932 18.4473 0.654915C18.8662 1.07471 19.1022 1.6442 19.1022 2.23729V12.6425C21.9584 12.9476 24.1868 15.3684 24.1868 18.305C24.1868 21.4438 21.6411 23.9934 18.504 23.9999ZM14.9706 22.7797H2.83104C2.56146 22.7792 2.30304 22.6719 2.11242 22.4813C1.9218 22.2907 1.81452 22.0323 1.81409 21.7627V2.23729C1.81452 1.96771 1.9218 1.70929 2.11242 1.51867C2.30304 1.32805 2.56146 1.22077 2.83104 1.22034H16.865C17.1346 1.22077 17.393 1.32805 17.5835 1.51867C17.7741 1.70929 17.8814 1.96771 17.8818 2.23729V12.6425C15.0253 12.9473 12.7969 15.3683 12.7969 18.305C12.7969 19.2553 13.0302 20.1517 13.4427 20.9397C13.7982 21.6205 14.2879 22.2224 14.8827 22.7089C14.9118 22.7328 14.9411 22.7564 14.9706 22.7797Z" fill="black"/>
<mask id="mask2_12509_16446" style="mask-type:luminance" maskUnits="userSpaceOnUse" x="0" y="0" width="25" height="24">
<path fill-rule="evenodd" clip-rule="evenodd" d="M15.3286 15.1416C16.1676 14.3025 17.3055 13.8309 18.4921 13.8305L18.4944 13.8304C20.9632 13.8319 22.9664 15.8359 22.9664 18.305C22.9664 20.775 20.9618 22.7796 18.4918 22.7796C17.4491 22.7792 16.4439 22.415 15.6461 21.7573C15.406 21.5591 15.1869 21.3363 14.9927 21.0929C14.4277 20.3839 14.0903 19.5184 14.0278 18.611C14.021 18.5099 14.0175 18.4079 14.0175 18.3051C14.018 17.1185 14.4895 15.9806 15.3286 15.1416ZM18.504 23.9999C18.5 24 18.496 24 18.4921 24H2.83104C2.23795 24 1.66846 23.7641 1.24866 23.3451C0.829516 22.9251 0.593999 22.3561 0.59375 21.7627V2.23729C0.59375 1.6442 0.829682 1.07471 1.24866 0.654915C1.66864 0.235766 2.23769 0.000249124 2.83104 0H16.865C17.458 0 18.0275 0.235932 18.4473 0.654915C18.8662 1.07471 19.1022 1.6442 19.1022 2.23729V12.6425C21.9584 12.9476 24.1868 15.3684 24.1868 18.305C24.1868 21.4438 21.6411 23.9934 18.504 23.9999ZM14.9706 22.7797H2.83104C2.56146 22.7792 2.30304 22.6719 2.11242 22.4813C1.9218 22.2907 1.81452 22.0323 1.81409 21.7627V2.23729C1.81452 1.96771 1.9218 1.70929 2.11242 1.51867C2.30304 1.32805 2.56146 1.22077 2.83104 1.22034H16.865C17.1346 1.22077 17.393 1.32805 17.5835 1.51867C17.7741 1.70929 17.8814 1.96771 17.8818 2.23729V12.6425C15.0253 12.9473 12.7969 15.3683 12.7969 18.305C12.7969 19.2553 13.0302 20.1517 13.4427 20.9397C13.7982 21.6205 14.2879 22.2224 14.8827 22.7089C14.9118 22.7328 14.9411 22.7564 14.9706 22.7797Z" fill="white"/>
</mask>
<g mask="url(#mask2_12509_16446)">
<path d="M18.4889 13.8303L18.489 14.0304L18.494 14.0302L18.4889 13.8303ZM18.4913 13.8302L18.4914 13.6302L18.4861 13.6303L18.4913 13.8302ZM18.5008 23.9997L18.5003 23.7997H18.4976L18.5008 23.9997ZM19.0991 12.6423H18.8991V12.8221L19.0778 12.8412L19.0991 12.6423ZM14.9675 22.7795V22.9795H15.5443L15.0913 22.6224L14.9675 22.7795ZM17.8787 12.6423L17.9 12.8411L18.0787 12.8221V12.6423H17.8787ZM18.4888 13.6303C17.2492 13.6308 16.0605 14.1234 15.184 14.9999L15.4668 15.2828C16.2684 14.4812 17.3554 14.0308 18.489 14.0304L18.4888 13.6303ZM18.4861 13.6303L18.4838 13.6304L18.494 14.0302H18.4964L18.4861 13.6303ZM18.4911 14.0302C20.8495 14.0316 22.7632 15.9461 22.7632 18.3048H23.1632C23.1632 15.7253 21.0705 13.6317 18.4914 13.6302L18.4911 14.0302ZM22.7632 18.3048C22.7632 20.6643 20.8481 22.5794 18.4886 22.5794V22.9794C21.0691 22.9794 23.1632 20.8852 23.1632 18.3048H22.7632ZM18.4886 22.5794C17.4925 22.579 16.5324 22.2311 15.7703 21.6028L15.5157 21.9114C16.3491 22.5984 17.3992 22.979 18.4886 22.9794V22.5794ZM14.8331 21.2173C15.036 21.4716 15.2649 21.7044 15.5157 21.9114L15.7703 21.6028C15.5408 21.4134 15.3315 21.2006 15.1458 20.9679L14.8331 21.2173ZM15.1458 20.9679C14.6061 20.2907 14.2838 19.4639 14.2242 18.597L13.8251 18.6242C13.8904 19.5721 14.2429 20.4767 14.8331 21.2173L15.1458 20.9679ZM13.8143 18.3048C13.8143 18.4121 13.818 18.5187 13.8251 18.6242L14.2242 18.597C14.2176 18.5004 14.2143 18.4032 14.2143 18.3049L13.8143 18.3048ZM15.184 14.9999C14.3074 15.8765 13.8148 17.0652 13.8143 18.3048L14.2143 18.3049C14.2147 17.1713 14.6652 16.0843 15.4668 15.2828L15.184 14.9999ZM18.4976 23.7997C18.4948 23.7998 18.4922 23.7998 18.4896 23.7998L18.4882 24.1998C18.4935 24.1998 18.4988 24.1998 18.5039 24.1997L18.4976 23.7997ZM18.4896 23.7998H2.82791V24.1998H18.4882L18.4896 23.7998ZM2.82791 23.7998C2.28788 23.7998 1.76919 23.5849 1.38682 23.2033L1.10398 23.4862C1.56121 23.9426 2.18176 24.1998 2.82791 24.1998V23.7998ZM1.38682 23.2033C1.00508 22.8208 0.790852 22.3028 0.790625 21.7624L0.390625 21.7625C0.390896 22.4088 0.647429 23.0287 1.10398 23.4862L1.38682 23.2033ZM0.790625 21.7624V2.23709H0.390625V21.7625L0.790625 21.7624ZM0.790625 2.23709C0.790625 1.69706 1.00548 1.17836 1.3871 0.796004L1.10426 0.513159C0.647911 0.970392 0.390625 1.59094 0.390625 2.23709H0.790625ZM1.3871 0.796004C1.7696 0.414256 2.2876 0.200032 2.828 0.199805L2.82791 -0.200195C2.18162 -0.199924 1.56171 0.0566083 1.10426 0.513159L1.3871 0.796004ZM2.828 0.199805H16.8618V-0.200195H2.82791L2.828 0.199805ZM16.8618 0.199805C17.4018 0.199805 17.9205 0.414659 18.3029 0.796279L18.5857 0.513436C18.1285 0.057089 17.5079 -0.200195 16.8618 -0.200195V0.199805ZM18.3029 0.796279C18.6845 1.17864 18.8991 1.69706 18.8991 2.23709H19.2991C19.2991 1.59094 19.0421 0.970669 18.5857 0.513436L18.3029 0.796279ZM18.8991 2.23709V12.6423H19.2991V2.23709H18.8991ZM24.3836 18.3048C24.3836 15.2649 22.0771 12.7592 19.1203 12.4434L19.0778 12.8412C21.8336 13.1355 23.9836 15.4716 23.9836 18.3048H24.3836ZM18.5012 24.1997C21.7487 24.1929 24.3836 21.5539 24.3836 18.3048H23.9836C23.9836 21.3332 21.5273 23.7934 18.5003 23.7997L18.5012 24.1997ZM14.9675 22.5795H2.82791L2.82759 22.9795H14.9675V22.5795ZM2.82791 22.5795C2.61126 22.5791 2.40391 22.4929 2.25072 22.3397L1.96788 22.6225C2.19592 22.8506 2.50508 22.9789 2.82759 22.9795L2.82791 22.5795ZM2.25072 22.3397C2.09753 22.1865 2.0113 21.9788 2.01096 21.7622L1.61097 21.7625C1.61147 22.085 1.73983 22.3945 1.96788 22.6225L2.25072 22.3397ZM2.01096 21.7622V2.23709L1.61097 2.23677V21.7625L2.01096 21.7622ZM2.01096 2.23709C2.0113 2.02044 2.09753 1.81309 2.25072 1.65989L1.96788 1.37705C1.73983 1.6051 1.61147 1.91426 1.61097 2.23677L2.01096 2.23709ZM2.25072 1.65989C2.40391 1.5067 2.61159 1.42048 2.82824 1.42014L2.82791 1.02014C2.5054 1.02065 2.19592 1.149 1.96788 1.37705L2.25072 1.65989ZM2.82824 1.42014H16.8618L16.8621 1.02014H2.82791L2.82824 1.42014ZM16.8618 1.42014C17.0784 1.42048 17.2858 1.5067 17.439 1.65989L17.7218 1.37705C17.4938 1.149 17.1846 1.02065 16.8621 1.02014L16.8618 1.42014ZM17.439 1.65989C17.5922 1.81309 17.6784 2.02076 17.6787 2.23741L18.0787 2.23709C18.0782 1.91458 17.9499 1.6051 17.7218 1.37705L17.439 1.65989ZM17.6787 2.23741V12.6423H18.0787V2.23709L17.6787 2.23741ZM17.8575 12.4434C14.9005 12.7589 12.5937 15.2647 12.5937 18.3048H12.9937C12.9937 15.4714 15.144 13.1352 17.9 12.8411L17.8575 12.4434ZM12.5937 18.3048C12.5937 19.2882 12.8353 20.2163 13.2624 21.0323L13.6168 20.847C13.2189 20.0868 12.9937 19.222 12.9937 18.3048H12.5937ZM13.2624 21.0323C13.6303 21.7371 14.1373 22.3599 14.753 22.8635L15.0065 22.5541C14.4327 22.0848 13.9598 21.5038 13.6168 20.847L13.2624 21.0323ZM14.753 22.8635C14.7831 22.8882 14.8131 22.9124 14.8437 22.9365L15.0913 22.6224C15.0628 22.5999 15.0345 22.5772 15.0065 22.5541L14.753 22.8635Z" fill="white"/>
</g>
<path d="M20.0406 18.6548C19.381 18.1069 18.3795 18.1094 17.8998 17.8823C17.4213 17.6618 17.5663 16.8952 18.2595 16.7654C18.7158 16.6792 19.3103 16.8461 19.6456 17.1546C19.8339 17.3285 20.1334 17.3176 20.3097 17.127C20.4853 16.9362 20.4734 16.6388 20.2821 16.4629C19.9625 16.1692 19.5208 15.9736 19.062 15.8774L19.0711 15.3592C19.0751 15.0998 18.8671 14.8877 18.6089 14.8809C18.3495 14.8769 18.1354 15.0833 18.1306 15.3431L18.1219 15.8394C16.4877 16.1164 16.1896 18.1229 17.5034 18.7352C18.2336 19.0701 19.6276 19.0578 19.582 19.71C19.5666 19.9399 19.4012 20.1976 19.1793 20.3376C18.6644 20.6624 17.7372 20.3956 17.3357 19.9258C17.1695 19.7281 16.8713 19.7043 16.6734 19.8724C16.4754 20.0406 16.4518 20.3369 16.62 20.5348C16.9781 20.9574 17.523 21.2398 18.0617 21.3584L18.0549 21.7498C18.0519 21.9472 18.1709 22.1184 18.3422 22.1908C18.6503 22.321 18.9893 22.0971 18.9954 21.766L19.0022 21.3743C19.239 21.3326 19.4705 21.2649 19.6803 21.1327C20.1548 20.8336 20.4846 20.3 20.5198 19.7735C20.5494 19.3356 20.3793 18.9381 20.0406 18.6548Z" fill="black" stroke="white" stroke-width="0.3"/>
</g>
</g>
</g>
<defs>
<clipPath id="clip0_12509_16446">
<rect width="24" height="24" fill="white" transform="translate(0.59375)"/>
</clipPath>
</defs>
</svg>
