<svg width="24" height="24" viewBox="0 0 24 24" fill="none" xmlns="http://www.w3.org/2000/svg">
<path d="M22.85 7.9H19.4V2.91667C19.3994 2.40852 19.1973 1.92136 18.8379 1.56205C18.4786 1.20274 17.9915 1.00061 17.4833 1L7.51667 1C7.00852 1.00061 6.52136 1.20274 6.16205 1.56205C5.80274 1.92136 5.60061 2.40852 5.6 2.91667V5.6H2.15C1.845 5.6 1.55249 5.72116 1.33683 5.93683C1.12116 6.15249 1 6.445 1 6.75L1 14.4167C1 14.7217 1.12116 15.0142 1.33683 15.2298C1.55249 15.4455 1.845 15.5667 2.15 15.5667H2.91667V19.0167C2.91667 19.3217 3.03783 19.6142 3.25349 19.8298C3.46916 20.0455 3.76167 20.1667 4.06667 20.1667H5.6V22.0833C5.60061 22.5915 5.80274 23.0786 6.16205 23.4379C6.52136 23.7973 7.00852 23.9994 7.51667 24H17.4833C17.9915 23.9994 18.4786 23.7973 18.8379 23.4379C19.1973 23.0786 19.3994 22.5915 19.4 22.0833V20.1667H22.85C23.155 20.1667 23.4475 20.0455 23.6632 19.8298C23.8788 19.6142 24 19.3217 24 19.0167V9.05C24 8.745 23.8788 8.45249 23.6632 8.23683C23.4475 8.02116 23.155 7.9 22.85 7.9ZM23.2333 9.05V17.4833C23.2333 17.585 23.1929 17.6825 23.1211 17.7544C23.0492 17.8263 22.9517 17.8667 22.85 17.8667H8.27337C8.52706 17.5369 8.66526 17.1328 8.66667 16.7167V8.66667H22.85C22.9517 8.66667 23.0492 8.70705 23.1211 8.77894C23.1929 8.85083 23.2333 8.94833 23.2333 9.05ZM4.06667 17.8667C3.965 17.8667 3.8675 17.8263 3.79561 17.7544C3.72372 17.6825 3.68333 17.585 3.68333 17.4833V15.5667H6.75C7.055 15.5667 7.34751 15.6878 7.56317 15.9035C7.77884 16.1192 7.9 16.4117 7.9 16.7167C7.9 17.0217 7.77884 17.3142 7.56317 17.5298C7.34751 17.7455 7.055 17.8667 6.75 17.8667H4.06667ZM15.5667 1.76667V2.53333C15.5667 2.635 15.5263 2.7325 15.4544 2.80439C15.3825 2.87628 15.285 2.91667 15.1833 2.91667H9.81667C9.715 2.91667 9.6175 2.87628 9.54561 2.80439C9.47372 2.7325 9.43333 2.635 9.43333 2.53333V1.76667H15.5667ZM6.36667 2.91667C6.36667 2.61167 6.48783 2.31916 6.70349 2.10349C6.91916 1.88783 7.21167 1.76667 7.51667 1.76667H8.66667V2.53333C8.66667 2.83833 8.78783 3.13084 9.00349 3.34651C9.21916 3.56217 9.51167 3.68333 9.81667 3.68333H15.1833C15.4883 3.68333 15.7808 3.56217 15.9965 3.34651C16.2122 3.13084 16.3333 2.83833 16.3333 2.53333V1.76667H17.4833C17.7883 1.76667 18.0808 1.88783 18.2965 2.10349C18.5122 2.31916 18.6333 2.61167 18.6333 2.91667V7.9H8.66667V7.51667C8.66606 7.00852 8.46393 6.52136 8.10462 6.16205C7.7453 5.80274 7.25814 5.60061 6.75 5.6H6.36667V2.91667ZM2.15 14.8C2.04833 14.8 1.95083 14.7596 1.87894 14.6877C1.80705 14.6158 1.76667 14.5183 1.76667 14.4167V6.75C1.76667 6.64833 1.80705 6.55083 1.87894 6.47894C1.95083 6.40705 2.04833 6.36667 2.15 6.36667H6.75C7.055 6.36667 7.34751 6.48783 7.56317 6.70349C7.77884 6.91916 7.9 7.21167 7.9 7.51667V15.1833C7.56859 14.9338 7.16483 14.7992 6.75 14.8H2.15ZM18.6333 22.0833C18.6333 22.3883 18.5122 22.6808 18.2965 22.8965C18.0808 23.1122 17.7883 23.2333 17.4833 23.2333H7.51667C7.21167 23.2333 6.91916 23.1122 6.70349 22.8965C6.48783 22.6808 6.36667 22.3883 6.36667 22.0833V20.1667H18.6333V22.0833ZM22.85 19.4H4.06667C3.965 19.4 3.8675 19.3596 3.79561 19.2877C3.72372 19.2158 3.68333 19.1183 3.68333 19.0167V18.5628C3.8061 18.6082 3.93578 18.6321 4.06667 18.6333H22.85C22.9809 18.6321 23.1106 18.6082 23.2333 18.5628V19.0167C23.2333 19.1183 23.1929 19.2158 23.1211 19.2877C23.0492 19.3596 22.9517 19.4 22.85 19.4Z" fill="#FF8926"/>
<path d="M7.5167 3.68334C7.61836 3.68334 7.71586 3.64295 7.78775 3.57106C7.85964 3.49918 7.90003 3.40167 7.90003 3.30001V2.91667C7.90003 2.81501 7.85964 2.71751 7.78775 2.64562C7.71586 2.57373 7.61836 2.53334 7.5167 2.53334C7.41503 2.53334 7.31753 2.57373 7.24564 2.64562C7.17375 2.71751 7.13336 2.81501 7.13336 2.91667V3.30001C7.13336 3.40167 7.17375 3.49918 7.24564 3.57106C7.31753 3.64295 7.41503 3.68334 7.5167 3.68334Z" fill="#FF8926"/>
<path d="M17.4833 3.68334C17.585 3.68334 17.6825 3.64295 17.7544 3.57106C17.8263 3.49918 17.8666 3.40167 17.8666 3.30001V2.91667C17.8666 2.81501 17.8263 2.71751 17.7544 2.64562C17.6825 2.57373 17.585 2.53334 17.4833 2.53334C17.3816 2.53334 17.2841 2.57373 17.2123 2.64562C17.1404 2.71751 17.1 2.81501 17.1 2.91667V3.30001C17.1 3.40167 17.1404 3.49918 17.2123 3.57106C17.2841 3.64295 17.3816 3.68334 17.4833 3.68334Z" fill="#FF8926"/>
<path d="M10.2 22.4667H14.8C14.9017 22.4667 14.9992 22.4263 15.071 22.3544C15.1429 22.2825 15.1833 22.185 15.1833 22.0833C15.1833 21.9817 15.1429 21.8842 15.071 21.8123C14.9992 21.7404 14.9017 21.7 14.8 21.7H10.2C10.0983 21.7 10.0008 21.7404 9.92893 21.8123C9.85704 21.8842 9.81665 21.9817 9.81665 22.0833C9.81665 22.185 9.85704 22.2825 9.92893 22.3544C10.0008 22.4263 10.0983 22.4667 10.2 22.4667Z" fill="#FF8926"/>
<path d="M9.81668 15.5667H15.95C16.0517 15.5667 16.1492 15.5263 16.2211 15.4544C16.293 15.3825 16.3333 15.285 16.3333 15.1833C16.3333 15.0817 16.293 14.9842 16.2211 14.9123C16.1492 14.8404 16.0517 14.8 15.95 14.8H9.81668C9.71502 14.8 9.61751 14.8404 9.54563 14.9123C9.47374 14.9842 9.43335 15.0817 9.43335 15.1833C9.43335 15.285 9.47374 15.3825 9.54563 15.4544C9.61751 15.5263 9.71502 15.5667 9.81668 15.5667Z" fill="#FF8926"/>
<path d="M22.0834 16.3333H9.81668C9.71502 16.3333 9.61751 16.3737 9.54563 16.4456C9.47374 16.5175 9.43335 16.615 9.43335 16.7167C9.43335 16.8183 9.47374 16.9158 9.54563 16.9877C9.61751 17.0596 9.71502 17.1 9.81668 17.1H22.0834C22.185 17.1 22.2825 17.0596 22.3544 16.9877C22.4263 16.9158 22.4667 16.8183 22.4667 16.7167C22.4667 16.615 22.4263 16.5175 22.3544 16.4456C22.2825 16.3737 22.185 16.3333 22.0834 16.3333Z" fill="#FF8926"/>
<path d="M18.6333 14.0333V14.4167C18.6346 14.5475 18.6585 14.6772 18.7039 14.8H17.8667C17.765 14.8 17.6675 14.8404 17.5956 14.9123C17.5237 14.9842 17.4833 15.0817 17.4833 15.1833C17.4833 15.285 17.5237 15.3825 17.5956 15.4544C17.6675 15.5263 17.765 15.5667 17.8667 15.5667H20.9333C21.34 15.5667 21.73 15.4051 22.0176 15.1176C22.3051 14.83 22.4667 14.44 22.4667 14.0333C22.4667 13.9317 22.4263 13.8342 22.3544 13.7623C22.2825 13.6904 22.185 13.65 22.0833 13.65C21.9817 13.65 21.8842 13.6904 21.8123 13.7623C21.7404 13.8342 21.7 13.9317 21.7 14.0333C21.7 14.2367 21.6192 14.4317 21.4755 14.5754C21.3317 14.7192 21.1367 14.8 20.9333 14.8H20.8628C20.9082 14.6772 20.9321 14.5475 20.9333 14.4167V14.0333C20.9333 13.7283 20.8122 13.4358 20.5965 13.2202C20.3808 13.0045 20.0883 12.8833 19.7833 12.8833C19.4783 12.8833 19.1858 13.0045 18.9702 13.2202C18.7545 13.4358 18.6333 13.7283 18.6333 14.0333ZM19.4 14.0333C19.4 13.9317 19.4404 13.8342 19.5123 13.7623C19.5842 13.6904 19.6817 13.65 19.7833 13.65C19.885 13.65 19.9825 13.6904 20.0544 13.7623C20.1263 13.8342 20.1667 13.9317 20.1667 14.0333V14.4167C20.1667 14.5183 20.1263 14.6158 20.0544 14.6877C19.9825 14.7596 19.885 14.8 19.7833 14.8C19.6817 14.8 19.5842 14.7596 19.5123 14.6877C19.4404 14.6158 19.4 14.5183 19.4 14.4167V14.0333Z" fill="#FF8926"/>
<path d="M9.81668 10.5833H10.9667C11.0683 10.5833 11.1659 10.543 11.2377 10.4711C11.3096 10.3992 11.35 10.3017 11.35 10.2C11.35 10.0983 11.3096 10.0008 11.2377 9.92896C11.1659 9.85707 11.0683 9.81668 10.9667 9.81668H9.81668C9.71502 9.81668 9.61751 9.85707 9.54563 9.92896C9.47374 10.0008 9.43335 10.0983 9.43335 10.2C9.43335 10.3017 9.47374 10.3992 9.54563 10.4711C9.61751 10.543 9.71502 10.5833 9.81668 10.5833Z" fill="#FF8926"/>
<path d="M9.81668 12.1167H13.2667C13.3683 12.1167 13.4659 12.0763 13.5377 12.0044C13.6096 11.9325 13.65 11.835 13.65 11.7333C13.65 11.6317 13.6096 11.5342 13.5377 11.4623C13.4659 11.3904 13.3683 11.35 13.2667 11.35H9.81668C9.71502 11.35 9.61751 11.3904 9.54563 11.4623C9.47374 11.5342 9.43335 11.6317 9.43335 11.7333C9.43335 11.835 9.47374 11.9325 9.54563 12.0044C9.61751 12.0763 9.71502 12.1167 9.81668 12.1167Z" fill="#FF8926"/>
</svg>
