<!-- <svg width="32" height="32" viewBox="0 0 32 32" fill="none" xmlns="http://www.w3.org/2000/svg">
<path d="M30.5312 25.375H1.46875C1.34443 25.375 1.2252 25.323 1.13729 25.2305C1.04939 25.1379 1 25.0124 1 24.8816V7.11842C1 6.98756 1.04939 6.86205 1.13729 6.76952C1.2252 6.67699 1.34443 6.625 1.46875 6.625H30.5312C30.6556 6.625 30.7748 6.67699 30.8627 6.76952C30.9506 6.86205 31 6.98756 31 7.11842V24.8816C31 25.0124 30.9506 25.1379 30.8627 25.2305C30.7748 25.323 30.6556 25.375 30.5312 25.375ZM1.9375 24.3882H30.0625V7.61184H1.9375V24.3882Z" fill="#F04E39"/>
<path d="M5.21875 25.375H1.46875C1.34443 25.375 1.2252 25.323 1.13729 25.2305C1.04939 25.1379 1 25.0124 1 24.8816V7.11842C1 6.98756 1.04939 6.86205 1.13729 6.76952C1.2252 6.67699 1.34443 6.625 1.46875 6.625H5.21875C5.34307 6.625 5.4623 6.67699 5.55021 6.76952C5.63811 6.86205 5.6875 6.98756 5.6875 7.11842V24.8816C5.6875 25.0124 5.63811 25.1379 5.55021 25.2305C5.4623 25.323 5.34307 25.375 5.21875 25.375ZM1.9375 24.3882H4.75V7.61184H1.9375V24.3882Z" fill="#F04E39"/>
<path d="M17.875 12.9478H8.03125C7.90693 12.9478 7.7877 12.8958 7.69979 12.8033C7.61189 12.7107 7.5625 12.5852 7.5625 12.4544C7.5625 12.3235 7.61189 12.198 7.69979 12.1055C7.7877 12.0129 7.90693 11.9609 8.03125 11.9609H17.875C17.9993 11.9609 18.1185 12.0129 18.2065 12.1055C18.2944 12.198 18.3438 12.3235 18.3438 12.4544C18.3438 12.5852 18.2944 12.7107 18.2065 12.8033C18.1185 12.8958 17.9993 12.9478 17.875 12.9478Z" fill="#F04E39"/>
<path d="M17.875 15.4146H8.03125C7.90693 15.4146 7.7877 15.3626 7.69979 15.2701C7.61189 15.1775 7.5625 15.052 7.5625 14.9212C7.5625 14.7903 7.61189 14.6648 7.69979 14.5723C7.7877 14.4797 7.90693 14.4277 8.03125 14.4277H17.875C17.9993 14.4277 18.1185 14.4797 18.2065 14.5723C18.2944 14.6648 18.3438 14.7903 18.3438 14.9212C18.3438 15.052 18.2944 15.1775 18.2065 15.2701C18.1185 15.3626 17.9993 15.4146 17.875 15.4146Z" fill="#F04E39"/>
<path d="M16.8465 22C16.739 22.0002 16.6324 21.9885 16.5326 21.9654C16.4293 21.9416 16.3352 21.9063 16.2556 21.8616C16.176 21.8168 16.1124 21.7635 16.0686 21.7046C16.0248 21.6457 16.0015 21.5824 16.0001 21.5182C15.9987 21.4541 16.0192 21.3905 16.0604 21.331C16.7241 20.4395 17.2697 19.5202 17.6926 18.5812C17.6991 18.5157 17.7124 18.4505 17.7324 18.386C17.7852 18.2785 17.8954 18.1834 18.0473 18.1141C18.1992 18.0448 18.385 18.0049 18.5785 18C19.5236 18 19.9323 19.0321 20.1075 19.7792C20.4459 19.5601 20.803 19.4098 21.3013 19.5093C21.4917 19.5486 21.6551 19.6222 21.7672 19.7192C21.8792 19.8163 21.9339 19.9316 21.9232 20.0481H26.1539C26.3783 20.0481 26.5935 20.0995 26.7522 20.191C26.9109 20.2825 27 20.4066 27 20.536C27 20.6655 26.9109 20.7896 26.7522 20.8811C26.5935 20.9726 26.3783 21.024 26.1539 21.024H21.9232C21.5338 21.0239 21.1554 20.9491 20.8478 20.8113C20.3926 21.1343 19.9019 21.4003 19.2554 21.2714C18.9288 21.207 18.5387 21.0274 18.5387 20.536C18.5387 20.4731 18.5345 20.4077 18.5269 20.3409C18.2011 20.863 17.8542 21.3724 17.6325 21.6926C17.5699 21.7833 17.4615 21.8611 17.3214 21.9159C17.1812 21.9707 17.0158 22 16.8465 22Z" fill="#F04E39"/>
</svg> -->



<svg width="25" height="24" viewBox="0 0 25 24" fill="none" xmlns="http://www.w3.org/2000/svg">
<path d="M0.395313 3.42857C0.395313 1.65443 1.84974 0.2 3.62388 0.2H15.6239C17.398 0.2 18.8525 1.65443 18.8525 3.42857V5.14286C18.8525 5.31714 18.7832 5.48429 18.66 5.60753C18.5367 5.73077 18.3696 5.8 18.1953 5.8C18.021 5.8 17.8539 5.73077 17.7306 5.60753C17.6074 5.48429 17.5382 5.31714 17.5382 5.14286V3.42857C17.5382 2.35357 16.6989 1.51429 15.6239 1.51429H3.62388C2.54889 1.51429 1.7096 2.35357 1.7096 3.42857V20.5714C1.7096 21.6464 2.54889 22.4857 3.62388 22.4857H12.1953C12.3696 22.4857 12.5367 22.5549 12.66 22.6782C12.7832 22.8014 12.8525 22.9686 12.8525 23.1429C12.8525 23.3171 12.7832 23.4843 12.66 23.6075C12.5367 23.7308 12.3696 23.8 12.1953 23.8H3.62388C1.84974 23.8 0.395313 22.3456 0.395313 20.5714V3.42857Z" fill="black" stroke="white" stroke-width="0.4"/>
<path d="M14.9768 17.7771V17.6728L14.8912 17.6131C13.3853 16.5624 12.3953 14.822 12.3953 12.8569C12.3953 9.66384 15.0022 7.05693 18.1953 7.05693C21.3884 7.05693 23.9953 9.66384 23.9953 12.8569C23.9953 14.822 23.0053 16.5624 21.4994 17.6131L21.4138 17.6728V17.7771V23.1425C21.4137 23.2615 21.3813 23.3783 21.32 23.4803C21.2587 23.5824 21.1709 23.6658 21.0659 23.7218C20.9608 23.7778 20.8426 23.8043 20.7237 23.7983C20.6048 23.7924 20.4898 23.7542 20.3909 23.688L20.3908 23.6879L18.3065 22.2934L18.1953 22.219L18.0841 22.2934L15.9998 23.6879L15.9998 23.688C15.9009 23.7542 15.7858 23.7924 15.6669 23.7983C15.5481 23.8043 15.4298 23.7778 15.3248 23.7218C15.2197 23.6658 15.1319 23.5823 15.0706 23.4803C15.0093 23.3783 14.9769 23.2615 14.9768 23.1425V17.7771ZM16.5481 18.4141L16.2911 18.3376V18.6058V21.5389V21.9135L16.6024 21.705L17.8295 20.883L17.8295 20.883C17.9377 20.8105 18.0651 20.7718 18.1953 20.7718C18.3256 20.7718 18.4529 20.8105 18.5611 20.883L18.5611 20.883L19.7882 21.705L20.0996 21.9135V21.5389V18.6058V18.3376L19.8425 18.4141C19.3192 18.57 18.7666 18.6569 18.1953 18.6569C17.624 18.6569 17.0715 18.57 16.5481 18.4141ZM22.681 12.8569C22.681 10.3694 20.6829 8.37122 18.1953 8.37122C15.7078 8.37122 13.7096 10.3694 13.7096 12.8569C13.7096 15.3445 15.7078 17.3426 18.1953 17.3426C20.6829 17.3426 22.681 15.3445 22.681 12.8569Z" fill="black" stroke="white" stroke-width="0.4"/>
<path d="M4.87685 4.67812C5.00009 4.55488 5.16723 4.48564 5.34152 4.48564H7.91295C8.08723 4.48564 8.25438 4.55488 8.37762 4.67812C8.50085 4.80136 8.57009 4.9685 8.57009 5.14279C8.57009 5.31707 8.50085 5.48422 8.37762 5.60746C8.25438 5.7307 8.08723 5.79993 7.91295 5.79993H5.34152C5.16723 5.79993 5.00009 5.7307 4.87685 5.60746C4.75361 5.48422 4.68438 5.31707 4.68438 5.14279C4.68438 4.9685 4.75361 4.80136 4.87685 4.67812ZM4.87685 8.10669C5.00009 7.98345 5.16723 7.91422 5.34152 7.91422H10.4844C10.6587 7.91422 10.8258 7.98345 10.949 8.10669C11.0723 8.22993 11.1415 8.39707 11.1415 8.57136C11.1415 8.74564 11.0723 8.91279 10.949 9.03603C10.8258 9.15927 10.6587 9.2285 10.4844 9.2285H5.34152C5.16723 9.2285 5.00009 9.15927 4.87685 9.03603C4.75361 8.91279 4.68438 8.74564 4.68438 8.57136C4.68438 8.39707 4.75361 8.22993 4.87685 8.10669ZM4.87685 11.5353C5.00009 11.412 5.16723 11.3428 5.34152 11.3428H7.91295C8.08723 11.3428 8.25438 11.412 8.37762 11.5353C8.50085 11.6585 8.57009 11.8256 8.57009 11.9999C8.57009 12.1742 8.50085 12.3414 8.37762 12.4646C8.25438 12.5878 8.08723 12.6571 7.91295 12.6571H5.34152C5.16723 12.6571 5.00009 12.5878 4.87685 12.4646C4.75361 12.3414 4.68438 12.1742 4.68438 11.9999C4.68438 11.8256 4.75361 11.6585 4.87685 11.5353Z" fill="black" stroke="white" stroke-width="0.4"/>
</svg>

