<svg width="25" height="24" viewBox="0 0 25 24" fill="none" xmlns="http://www.w3.org/2000/svg">
<g clip-path="url(#clip0_9544_10894)">
<path d="M5.71413 18.6161H5.52663V18.4286V3.16071C5.52663 2.61318 5.97017 2.16964 6.51771 2.16964H16.1606C16.7081 2.16964 17.1516 2.61318 17.1516 3.16071V6.375C17.1516 6.71543 17.4273 6.99107 17.7677 6.99107C18.1081 6.99107 18.3838 6.71543 18.3838 6.375V3.16071C18.3838 1.93335 17.3879 0.9375 16.1606 0.9375H6.51771C5.29034 0.9375 4.29449 1.93335 4.29449 3.16071V20.8393C4.29449 22.0667 5.29034 23.0625 6.51771 23.0625H16.1606C17.3879 23.0625 18.3838 22.0667 18.3838 20.8393V17.625C18.3838 17.2846 18.1081 17.0089 17.7677 17.0089C17.4273 17.0089 17.1516 17.2846 17.1516 17.625V18.4286V18.6161H16.9641H5.71413ZM5.52663 20.0357V19.8482H5.71413H16.9641H17.1516V20.0357V20.8393C17.1516 21.3868 16.7081 21.8304 16.1606 21.8304H6.51771C5.97017 21.8304 5.52663 21.3868 5.52663 20.8393V20.0357ZM18.9038 12.9911H18.7163V12.8036V12.8026V12.7249L18.7712 12.67L19.0062 12.4349C19.2464 12.1948 19.2464 11.8042 19.0062 11.5641C18.766 11.3239 18.3755 11.3239 18.1353 11.5641L16.5282 13.1712L16.528 13.1714C16.2871 13.4115 16.2871 13.8017 16.528 14.0419L16.5282 14.0421L18.1353 15.6492C18.3755 15.8894 18.766 15.8894 19.0062 15.6492C19.2464 15.4091 19.2464 15.0185 19.0062 14.7783L18.7712 14.5433L18.4511 14.2232H18.9038H21.7856C22.126 14.2232 22.4016 13.9476 22.4016 13.6071C22.4016 13.2667 22.126 12.9911 21.7856 12.9911H18.9038ZM19.846 9.40179H20.0335V9.58929V9.59028V9.66795L19.9785 9.72287L19.7435 9.95791C19.5033 10.1981 19.5033 10.5886 19.7435 10.8288C19.9837 11.069 20.3742 11.069 20.6144 10.8288L22.2215 9.22166L22.2217 9.22145C22.4626 8.98131 22.4626 8.59111 22.2217 8.35098L22.2215 8.35077L20.6144 6.74362C20.3742 6.50344 19.9837 6.50344 19.7435 6.74362C19.5033 6.98381 19.5033 7.37433 19.7435 7.61452L19.9785 7.84956L20.2986 8.16964H19.846H16.9642C16.6237 8.16964 16.3481 8.44528 16.3481 8.78571C16.3481 9.12614 16.6237 9.40179 16.9642 9.40179H19.846Z" fill="black" stroke="white" stroke-width="0.375"/>
</g>
<defs>
<clipPath id="clip0_9544_10894">
<rect width="24" height="24" fill="white" transform="translate(0.800003)"/>
</clipPath>
</defs>
</svg>
