


<svg width="24" height="24" viewBox="0 0 24 24" fill="none" xmlns="http://www.w3.org/2000/svg">
<g clip-path="url(#clip0_12397_47882)">
<path d="M22.913 19.2469C22.9138 20.3499 22.5336 21.4188 21.8377 22.2702C21.1418 23.1215 20.1736 23.7023 19.0992 23.9127C18.0249 24.1232 16.9113 23.9502 15.9496 23.4236C14.9879 22.8969 14.2381 22.0493 13.8289 21.0263H4.11956C3.2922 21.0263 2.49873 20.6951 1.9137 20.1055C1.32867 19.5159 1 18.7162 1 17.8824V3.14389C1 2.31008 1.32867 1.51042 1.9137 0.920823C2.49873 0.33123 3.2922 0 4.11956 0H16.0987C16.926 0 17.7195 0.33123 18.3045 0.920823C18.8896 1.51042 19.2182 2.31008 19.2182 3.14389V14.6128C20.2646 14.8478 21.2005 15.4346 21.872 16.2768C22.5435 17.119 22.9107 18.1665 22.913 19.2469ZM13.5307 19.7688C13.4278 19.1211 13.4656 18.4586 13.6413 17.8271C13.817 17.1955 14.1266 16.6099 14.5486 16.1106C14.9707 15.6113 15.4951 15.2101 16.0859 14.9348C16.6766 14.6595 17.3196 14.5166 17.9704 14.5159V3.14389C17.9731 2.89542 17.9265 2.64892 17.8334 2.41884C17.7403 2.18877 17.6025 1.97975 17.4281 1.80405C17.2538 1.62834 17.0464 1.4895 16.8181 1.39566C16.5898 1.30181 16.3452 1.25486 16.0987 1.25755H4.11956C3.87302 1.25486 3.62843 1.30181 3.40013 1.39566C3.17183 1.4895 2.96443 1.62834 2.79009 1.80405C2.61574 1.97975 2.47797 2.18877 2.38486 2.41884C2.29174 2.64892 2.24515 2.89542 2.24782 3.14389V17.8824C2.24515 18.1309 2.29174 18.3774 2.38486 18.6075C2.47797 18.8375 2.61574 19.0466 2.79009 19.2223C2.96443 19.398 3.17183 19.5368 3.40013 19.6307C3.62843 19.7245 3.87302 19.7714 4.11956 19.7688H13.5307ZM21.6652 19.2469C21.6652 18.5552 21.4617 17.879 21.0804 17.3039C20.6991 16.7288 20.1571 16.2805 19.523 16.0158C18.8889 15.7511 18.1912 15.6819 17.518 15.8168C16.8449 15.9518 16.2265 16.2848 15.7412 16.7739C15.2559 17.263 14.9254 17.8862 14.7915 18.5646C14.6576 19.243 14.7263 19.9462 14.989 20.5852C15.2516 21.2243 15.6964 21.7704 16.2671 22.1547C16.8378 22.539 17.5087 22.7441 18.195 22.7441C19.1152 22.7435 19.9974 22.3748 20.6481 21.7191C21.2987 21.0634 21.6646 20.1742 21.6652 19.2469ZM18.195 16.7318C18.0295 16.7318 17.8709 16.798 17.7538 16.9159C17.6368 17.0338 17.5711 17.1938 17.5711 17.3605V18.813L16.8224 19.1073C16.746 19.1373 16.6763 19.1821 16.6171 19.2392C16.558 19.2964 16.5105 19.3647 16.4776 19.4403C16.4446 19.5159 16.4267 19.5973 16.425 19.6799C16.4233 19.7625 16.4377 19.8446 16.4674 19.9215C16.4972 19.9985 16.5416 20.0688 16.5983 20.1284C16.655 20.1881 16.7228 20.2359 16.7979 20.2691C16.8729 20.3023 16.9537 20.3203 17.0356 20.3221C17.1175 20.3238 17.199 20.3093 17.2754 20.2793L18.4209 19.8279C18.5379 19.7818 18.6383 19.7012 18.7091 19.5966C18.7799 19.4921 18.8178 19.3684 18.8177 19.2418V17.3555C18.816 17.1901 18.7498 17.0319 18.6332 16.9154C18.5166 16.7989 18.3592 16.7321 18.195 16.7318Z" fill="black" stroke="white" stroke-width="0.3"/>
<path d="M4.3757 5.87016C5.02483 5.87016 5.67397 5.87016 6.32309 5.87016C7.67733 5.87016 9.03157 5.87016 10.3858 5.87016C11.5554 5.87016 12.725 5.87016 13.8947 5.87016C14.1379 5.87016 14.3811 5.87016 14.6243 5.87016C14.8291 5.87016 15 5.67226 15 5.43508C15 5.1979 14.8291 5 14.6243 5C13.9752 5 13.326 5 12.6769 5C11.3227 5 9.96843 5 8.61419 5C7.44457 5 6.27496 5 5.10534 5C4.86213 5 4.61891 5 4.37572 5C4.1709 5 4 5.1979 4 5.43508C4 5.67226 4.1709 5.87016 4.3757 5.87016Z" fill="black"/>
<path d="M4.3757 9.74028C5.02483 9.74028 5.67397 9.74028 6.32309 9.74028C7.67733 9.74028 9.03157 9.74028 10.3858 9.74028C11.5554 9.74028 12.725 9.74028 13.8947 9.74028C14.1379 9.74028 14.3811 9.74028 14.6243 9.74028C14.8291 9.74028 15 9.54238 15 9.3052C15 9.06802 14.8291 8.87012 14.6243 8.87012C13.9752 8.87012 13.326 8.87012 12.6769 8.87012C11.3227 8.87012 9.96843 8.87012 8.61419 8.87012C7.44457 8.87012 6.27496 8.87012 5.10534 8.87012C4.86213 8.87012 4.61891 8.87012 4.37572 8.87012C4.1709 8.87012 4 9.06802 4 9.3052C4 9.54238 4.1709 9.74028 4.3757 9.74028Z" fill="black"/>
<path d="M4.3757 13.6104C5.18611 13.6104 5.99649 13.6104 6.80687 13.6104C8.14016 13.6104 9.47342 13.6104 10.8067 13.6104C11.1739 13.6104 11.541 13.6104 11.9082 13.6104C12.113 13.6104 12.2839 13.4125 12.2839 13.1753C12.2839 12.9381 12.113 12.7402 11.9082 12.7402C11.0978 12.7402 10.2874 12.7402 9.47703 12.7402C8.14374 12.7402 6.81048 12.7402 5.47722 12.7402C5.11006 12.7402 4.74288 12.7402 4.37572 12.7402C4.1709 12.7402 4 12.9381 4 13.1753C4 13.4125 4.1709 13.6104 4.3757 13.6104Z" fill="black"/>
</g>
<defs>
<clipPath id="clip0_12397_47882">
<rect width="24" height="24" fill="white"/>
</clipPath>
</defs>
</svg>
