<svg width="25" height="24" viewBox="0 0 25 24" fill="none" xmlns="http://www.w3.org/2000/svg">
<g clip-path="url(#clip0_6611_8315)">
<path d="M18.6235 19.7605H3.5204C2.40665 19.7605 1.5 18.8544 1.5 17.7407C1.5 16.6264 2.40614 15.7192 3.5204 15.7192C4.54568 15.7192 5.41398 16.4934 5.53926 17.5203C5.55665 17.6604 5.45642 17.7877 5.31631 17.8051C5.17619 17.822 5.04886 17.7222 5.03148 17.5821C4.93892 16.8243 4.27517 16.2301 3.51989 16.2301C2.6879 16.2301 2.01085 16.9076 2.01085 17.7401C2.01085 18.5721 2.6879 19.2487 3.51989 19.2487H18.623C19.1154 19.2487 19.5158 18.8483 19.5158 18.3558V17.5515C19.5158 17.4103 19.6304 17.2958 19.7715 17.2958C19.9127 17.2958 20.0272 17.4103 20.0272 17.5515V18.3558C20.0277 19.1305 19.3977 19.7605 18.6235 19.7605Z" fill="black" stroke="black" stroke-width="0.15"/>
<path d="M1.75568 17.9945C1.61455 17.9945 1.5 17.8799 1.5 17.7388V6.0204C1.5 4.90614 2.40665 4 3.5204 4C4.54824 4 5.39864 4.77114 5.52494 5.76472H22.7712C23.0995 5.76472 23.4084 5.89256 23.6405 6.12523C23.8727 6.35739 24 6.66625 24 6.99506L23.9693 16.5806C23.9683 17.2566 23.4176 17.8068 22.741 17.8068H5.28562C5.14449 17.8068 5.02994 17.6923 5.02994 17.5511V6.0204C5.02994 5.18841 4.3529 4.51136 3.52091 4.51136C2.68892 4.51136 2.01136 5.1879 2.01136 6.0204V17.7393C2.01136 17.8805 1.89682 17.9945 1.75568 17.9945ZM5.54131 17.2949H22.741C23.1358 17.2949 23.4574 16.9738 23.458 16.579L23.4886 6.99352C23.4886 6.80227 23.4145 6.62227 23.279 6.48625C23.1435 6.35023 22.9635 6.27608 22.7717 6.27608H5.54131V17.2949Z" fill="black" stroke="black" stroke-width="0.15"/>
<path d="M5.75 12H20.75" stroke="black" stroke-width="0.75" stroke-linecap="round"/>
<path d="M5.75 14.25H20.75" stroke="black" stroke-width="0.75" stroke-linecap="round"/>
</g>
<defs>
<clipPath id="clip0_6611_8315">
<rect width="24" height="24" fill="white" transform="translate(0.5)"/>
</clipPath>
</defs>
</svg>
