<svg width="32" height="32" viewBox="0 0 32 32" fill="none" xmlns="http://www.w3.org/2000/svg">
<path d="M27.2969 8.50759C25.6475 8.50759 23.9981 8.50759 22.3486 8.50759C22.1099 8.50759 21.8712 8.50759 21.6325 8.50759C21.5658 8.50759 21.4995 8.50428 21.433 8.49848C21.5852 8.51177 21.4383 8.49795 21.4089 8.49241C21.3652 8.48416 21.3221 8.47269 21.2792 8.46125C21.2365 8.44988 21.1948 8.43543 21.1532 8.42101C21.0927 8.39761 21.0983 8.40079 21.1698 8.43052C21.1433 8.41872 21.117 8.40629 21.0911 8.39323C21.0132 8.35518 20.9397 8.30887 20.8682 8.26017C20.7471 8.1778 20.9615 8.33897 20.8489 8.24565C20.8157 8.21817 20.7845 8.1884 20.7534 8.15867C20.7222 8.12893 20.6932 8.09704 20.6642 8.06519C20.6461 8.0452 20.5577 7.93017 20.6466 8.04848C20.5859 7.9676 20.535 7.87985 20.4886 7.79018C20.4758 7.76562 20.4204 7.63037 20.4761 7.76917C20.4597 7.72833 20.4464 7.68633 20.4329 7.64446C20.4058 7.5594 20.3882 7.47162 20.3738 7.38361C20.3995 7.5416 20.3742 7.30333 20.3742 7.26404C20.3742 7.25877 20.3742 7.2535 20.3742 7.24823C20.3742 7.16851 20.3742 7.08878 20.3742 7.00906C20.3742 6.63199 20.3742 6.25489 20.3742 5.87782C20.3742 4.44505 20.3742 3.01232 20.3742 1.57955C20.0443 1.71629 19.7145 1.85303 19.3846 1.98977C20.3222 2.92802 21.2597 3.86627 22.1972 4.80455C23.5717 6.18 24.9461 7.55546 26.3205 8.93091C26.5093 9.11992 26.6982 9.30894 26.8871 9.49795C27.1104 9.72145 27.4835 9.72145 27.7068 9.49795C27.9301 9.27446 27.9301 8.90104 27.7068 8.67755C26.7693 7.7393 25.8318 6.80105 24.8942 5.86277C23.5198 4.48732 22.1454 3.11187 20.771 1.73642C20.5821 1.5474 20.3933 1.35838 20.2044 1.16937C19.8467 0.811426 19.2148 1.07357 19.2148 1.57959C19.2148 3.23028 19.2148 4.88093 19.2148 6.53162C19.2148 6.77049 19.2148 7.00939 19.2148 7.24826C19.2148 8.03426 19.5907 8.74275 20.2135 9.21095C20.9358 9.75403 21.8237 9.66784 22.6703 9.66784C24.2125 9.66784 25.7547 9.66784 27.297 9.66784C27.613 9.66784 27.8766 9.40398 27.8766 9.08774C27.8766 8.77149 27.6129 8.50759 27.2969 8.50759Z" fill="#F04E39"/>
<path d="M26.7178 9.08829C26.7178 9.95775 26.7178 10.8272 26.7178 11.6967C26.7178 13.6652 26.7178 15.6337 26.7178 17.6021C26.7178 19.7098 26.7178 21.8175 26.7178 23.9251C26.7178 25.2121 26.7178 26.4991 26.7178 27.7861C26.7178 27.8672 26.7178 27.9482 26.7178 28.0292C26.7178 28.0924 26.715 28.1554 26.7108 28.2184C26.7089 28.2461 26.6887 28.3991 26.7108 28.2447C26.7045 28.2892 26.6956 28.3332 26.6867 28.3772C26.6662 28.4787 26.6363 28.578 26.6028 28.6757C26.5941 28.701 26.5374 28.8388 26.5967 28.7002C26.5795 28.7403 26.5602 28.7794 26.5408 28.8185C26.5023 28.8963 26.4575 28.9707 26.4108 29.0438C26.3875 29.0802 26.3622 29.1153 26.337 29.1504C26.4231 29.0307 26.3383 29.1475 26.3208 29.1685C26.2563 29.2457 26.1851 29.317 26.1116 29.3855C26.0801 29.4148 26.047 29.4425 26.0139 29.4701C25.9012 29.5643 26.1132 29.3981 25.9939 29.484C25.9236 29.5346 25.8494 29.5794 25.774 29.622C25.7361 29.6434 25.6972 29.6627 25.6582 29.682C25.634 29.694 25.4978 29.7504 25.6368 29.6938C25.5414 29.7326 25.4427 29.7625 25.3432 29.7885C25.3 29.7998 25.2562 29.8087 25.2125 29.8175C25.1851 29.823 25.0343 29.8433 25.1883 29.8241C25.0972 29.8355 25.0053 29.8389 24.9135 29.8398C24.909 29.8399 24.9044 29.8398 24.8999 29.8398C24.8022 29.8398 24.7046 29.8398 24.6068 29.8398C23.2358 29.8398 21.8647 29.8398 20.4936 29.8398C18.3556 29.8398 16.2175 29.8398 14.0795 29.8398C12.2435 29.8398 10.4074 29.8398 8.57132 29.8398C8.10056 29.8398 7.62981 29.8398 7.15905 29.8398C7.09393 29.8398 7.02884 29.8398 6.96372 29.8398C6.87177 29.8398 6.78035 29.8338 6.68896 29.8241C6.84262 29.8403 6.693 29.8226 6.66484 29.8175C6.62095 29.8095 6.57753 29.799 6.5342 29.7885C6.44835 29.7678 6.36441 29.7398 6.2815 29.7096C6.14139 29.6585 6.39402 29.7617 6.25855 29.7006C6.20565 29.6768 6.15437 29.6496 6.10339 29.6219C6.02724 29.5807 5.95464 29.5332 5.88349 29.484C5.76268 29.4003 5.97786 29.5622 5.86348 29.4701C5.82992 29.4431 5.79783 29.4142 5.76576 29.3854C5.7016 29.3278 5.64224 29.2651 5.58474 29.201C5.55592 29.1689 5.5289 29.1353 5.5019 29.1017C5.59852 29.2219 5.48312 29.0687 5.46652 29.0438C5.41843 28.9715 5.37636 28.8954 5.33648 28.8185C5.31644 28.7797 5.29852 28.7399 5.2806 28.7002C5.34218 28.837 5.28385 28.7013 5.27454 28.6757C5.24423 28.5925 5.22101 28.5069 5.20021 28.4208C5.18971 28.3773 5.18163 28.3332 5.17361 28.2891C5.16327 28.2232 5.16377 28.2299 5.17503 28.3092C5.17159 28.279 5.16867 28.2487 5.16636 28.2184C5.16033 28.1484 5.15937 28.078 5.15937 28.0077C5.15937 27.9188 5.15937 27.83 5.15937 27.7411C5.15937 27.3084 5.15937 26.8757 5.15937 26.4429C5.15937 24.8178 5.15937 23.1926 5.15937 21.5674C5.15937 19.4247 5.15937 17.2822 5.15937 15.1395C5.15937 13.0743 5.15937 11.009 5.15937 8.94366C5.15937 7.55041 5.15937 6.15715 5.15937 4.7639C5.15937 4.50514 5.15937 4.24638 5.15937 3.98762C5.15937 3.88837 5.16467 3.78959 5.17503 3.69087C5.15887 3.84461 5.17652 3.69488 5.18166 3.66674C5.18967 3.62278 5.20017 3.57936 5.21064 3.53596C5.23141 3.45004 5.25933 3.36604 5.28954 3.28304C5.34059 3.14282 5.23747 3.39564 5.29852 3.26006C5.31641 3.22035 5.33645 3.18163 5.35649 3.14298C5.40299 3.05318 5.45761 2.96779 5.51508 2.88469C5.59869 2.76379 5.43691 2.97913 5.52893 2.8647C5.55592 2.83108 5.58474 2.799 5.61353 2.76691C5.6711 2.70273 5.73373 2.64333 5.79783 2.58578C5.82989 2.55694 5.86351 2.52989 5.89707 2.50288C5.78173 2.59576 5.89703 2.50669 5.91899 2.49147C6.00217 2.43386 6.09041 2.3839 6.18014 2.33736C6.21883 2.31731 6.25861 2.29937 6.29833 2.28147C6.16159 2.3431 6.29717 2.28472 6.32274 2.27541C6.40591 2.24511 6.49147 2.22184 6.57743 2.20105C6.62092 2.19055 6.66498 2.18249 6.70896 2.17444C6.85984 2.14686 6.58054 2.1873 6.73414 2.17112C6.81039 2.1631 6.8875 2.16018 6.96415 2.16018C8.15207 2.16018 9.33995 2.16018 10.5278 2.16018C12.6426 2.16018 14.7574 2.16018 16.8721 2.16018C17.8464 2.16018 18.8207 2.16018 19.795 2.16018C19.6583 2.10356 19.5217 2.04691 19.3851 1.99029C20.3226 2.92854 21.2602 3.86679 22.1977 4.80507C23.5721 6.18052 24.9465 7.55598 26.3209 8.93143C26.5098 9.12044 26.6987 9.30946 26.8876 9.49847C27.1109 9.72196 27.484 9.72196 27.7073 9.49847C27.9306 9.27498 27.9306 8.90156 27.7073 8.67807C26.7698 7.73982 25.8322 6.80157 24.8947 5.86329C23.5203 4.48784 22.1459 3.11239 20.7715 1.73694C20.5098 1.47506 20.1701 1 19.7664 1C19.3339 1 18.9014 1 18.469 1C16.4975 1 14.526 1 12.5546 1C10.8435 1 9.13237 1 7.42126 1C7.27826 1 7.13523 1 6.99221 1C6.40634 1 5.8228 1.16386 5.3338 1.48964C4.4585 2.07273 4 3.03701 4 4.0753C4 5.05724 4 6.03918 4 7.02112C4 8.90109 4 10.7811 4 12.6611C4 14.8443 4 17.0276 4 19.2109C4 21.1027 4 22.9947 4 24.8865C4 25.8922 4 26.898 4 27.9037C4 28.8425 4.35396 29.7563 5.1113 30.344C5.65013 30.7621 6.28862 31 6.97521 31C7.07044 31 7.16564 31 7.26087 31C8.62544 31 9.99001 31 11.3546 31C13.4914 31 15.6283 31 17.7651 31C19.6054 31 21.4456 31 23.2858 31C23.7607 31 24.2355 31 24.7104 31C24.778 31 24.8457 31 24.9133 31C25.7429 31 26.5578 30.6395 27.1123 30.0214C27.601 29.4765 27.8771 28.7622 27.8771 28.0292C27.8771 27.9481 27.8771 27.8671 27.8771 27.786C27.8771 27.3051 27.8771 26.8242 27.8771 26.3433C27.8771 24.526 27.8771 22.7087 27.8771 20.8913C27.8771 18.7333 27.8771 16.5753 27.8771 14.4172C27.8771 12.8782 27.8771 11.3393 27.8771 9.80033C27.8771 9.56295 27.8771 9.3256 27.8771 9.08825C27.8771 8.77201 27.6134 8.50815 27.2974 8.50815C26.9814 8.50815 26.7178 8.77208 26.7178 9.08829Z" fill="#F04E39"/>
<path d="M8.03276 17.7169C9.03422 17.7169 10.0357 17.7169 11.0372 17.7169C13.1265 17.7169 15.2158 17.7169 17.3051 17.7169C19.1096 17.7169 20.9141 17.7169 22.7186 17.7169C23.0938 17.7169 23.469 17.7169 23.8442 17.7169C24.1602 17.7169 24.4239 17.453 24.4239 17.1367C24.4239 16.8205 24.1602 16.5566 23.8442 16.5566C22.8428 16.5566 21.8413 16.5566 20.8398 16.5566C18.7505 16.5566 16.6612 16.5566 14.5719 16.5566C12.7674 16.5566 10.9629 16.5566 9.15844 16.5566C8.78321 16.5566 8.40798 16.5566 8.03279 16.5566C7.71679 16.5566 7.45312 16.8205 7.45312 17.1367C7.45312 17.453 7.71679 17.7169 8.03276 17.7169Z" fill="#F04E39"/>
<path d="M8.03276 22.2129C9.03422 22.2129 10.0357 22.2129 11.0372 22.2129C13.1265 22.2129 15.2158 22.2129 17.3051 22.2129C19.1096 22.2129 20.9141 22.2129 22.7186 22.2129C23.0938 22.2129 23.469 22.2129 23.8442 22.2129C24.1602 22.2129 24.4239 21.9491 24.4239 21.6328C24.4239 21.3166 24.1602 21.0527 23.8442 21.0527C22.8428 21.0527 21.8413 21.0527 20.8398 21.0527C18.7505 21.0527 16.6612 21.0527 14.5719 21.0527C12.7674 21.0527 10.9629 21.0527 9.15844 21.0527C8.78321 21.0527 8.40798 21.0527 8.03279 21.0527C7.71679 21.0527 7.45312 21.3166 7.45312 21.6328C7.45312 21.9491 7.71679 22.2129 8.03276 22.2129Z" fill="#F04E39"/>
<path d="M8.03276 26.711C9.28305 26.711 10.5333 26.711 11.7836 26.711C13.8406 26.711 15.8975 26.711 17.9545 26.711C18.5209 26.711 19.0874 26.711 19.6539 26.711C19.9699 26.711 20.2335 26.4471 20.2335 26.1309C20.2335 25.8146 19.9699 25.5508 19.6539 25.5508C18.4036 25.5508 17.1533 25.5508 15.9031 25.5508C13.8461 25.5508 11.7891 25.5508 9.73217 25.5508C9.16572 25.5508 8.59924 25.5508 8.03279 25.5508C7.71679 25.5508 7.45312 25.8146 7.45312 26.1309C7.45312 26.4471 7.71679 26.711 8.03276 26.711Z" fill="#F04E39"/>
</svg>
