<svg width="25" height="24" viewBox="0 0 25 24" fill="none" xmlns="http://www.w3.org/2000/svg">
<path d="M22.1445 5.95796V5.958V5.95829V5.95858V5.95887V5.95916V5.95945V5.95973V5.96002V5.96031V5.9606V5.96089V5.96118V5.96147V5.96176V5.96205V5.96234V5.96263V5.96292V5.96321V5.9635V5.96379V5.96408V5.96437V5.96466V5.96495V5.96524V5.96553V5.96581V5.9661V5.96639V5.96668V5.96697V5.96726V5.96755V5.96784V5.96813V5.96842V5.96871V5.969V5.96929V5.96958V5.96987V5.97016V5.97045V5.97074V5.97103V5.97132V5.97161V5.9719V5.97219V5.97248V5.97277V5.97306V5.97335V5.97364V5.97393V5.97422V5.97451V5.9748V5.97509V5.97538V5.97567V5.97596V5.97625V5.97654V5.97683V5.97713V5.97742V5.97771V5.978V5.97829V5.97858V5.97887V5.97916V5.97945V5.97974V5.98003V5.98032V5.98061V5.9809V5.98119V5.98148V5.98177V5.98206V5.98235V5.98264V5.98293V5.98323V5.98352V5.98381V5.9841V5.98439V5.98468V5.98497V5.98526V5.98555V5.98584V5.98613V5.98642V5.98672V5.98701V5.9873V5.98759V5.98788V5.98817V5.98846V5.98875V5.98904V5.98933V5.98962V5.98992V5.99021V5.9905V5.99079V5.99108V5.99137V5.99166V5.99195V5.99224V5.99254V5.99283V5.99312V5.99341V5.9937V5.99399V5.99428V5.99458V5.99487V5.99516V5.99545V5.99574V5.99603V5.99632V5.99661V5.99691V5.9972V5.99749V5.99778V5.99807V5.99836V5.99865V5.99895V5.99924V5.99953V5.99982V6.00011V6.0004V6.0007V6.00099V6.00128V6.00157V6.00186V6.00215V6.00245V6.00274V6.00303V6.00332V6.00361V6.00391V6.0042V6.00449V6.00478V6.00507V6.00537V6.00566V6.00595V6.00624V6.00653V6.00683V6.00712V6.00741V6.0077V6.00799V6.00829V6.00858V6.00887V6.00916V6.00945V6.00975V6.01004V6.01033V6.01062V6.01092V6.01121V6.0115V6.01179V6.01208V6.01238V6.01267V6.01296V6.01325V6.01355V6.01384V6.01413V6.01442V6.01472V6.01501V6.0153V6.01559V6.01589V6.01618V6.01647V6.01676V6.01706V6.01735V6.01764V6.01793V6.01823V6.01852V6.01881V6.0191V6.0194V6.01969V6.01998V6.02028V6.02057V6.02086V6.02115V6.02145V6.02174V6.02203V6.02233V6.02262V6.02291V6.0232V6.0235V6.02379V6.02408V6.02438V6.02467V6.02496V6.02526V6.02555V6.02584V6.02613V6.02643V6.02672V6.02701V6.02731V6.0276V6.02789V6.02819V6.02848V6.02877V6.02907V6.02936V6.02965V6.02995V6.03024V6.03053V6.03083V6.03112V6.03141V6.03171V6.032V6.03229V6.03259V6.03288V6.03317V6.03347V6.03376V6.03406V6.03435V6.03464V6.03494V6.03523V6.03552V6.03582V6.03611V6.0364V6.0367V6.03699V6.03729V6.03758V6.03787V6.03817V6.03846V6.03875V6.03905V6.03934V6.03964V6.03993V6.04022V6.04052V6.04081V6.04111V6.0414V6.04169V6.04199V6.04228V6.04258V6.04287V6.04316V6.04346V6.04375V6.04405V6.04434V6.04463V6.04493V6.04522V6.04552V6.04581V6.04611V6.0464V6.04669V6.04699V6.04728V6.04758V6.04787V6.04817V6.04846V6.04875V6.04905V6.04934V6.04964V6.04993V6.05023V6.05052V6.05082V6.05111V6.0514V6.0517V6.05199V6.05229V6.05258V6.05288V6.05317V6.05347V6.05376V6.05406V6.05435V6.05465V6.05494V6.05524V6.05553V6.05583V6.05612V6.05642V6.05671V6.057V6.0573V6.05759V6.05789V6.05818V6.05848V6.05877V6.05907V6.05936V6.05966V6.05995V6.06025V6.06054V6.06084V6.06113V6.06143V6.06172V6.06202V6.06231V6.06261V6.06291V6.0632V6.0635V6.06379V6.06409V6.06438V6.06468V6.06497V6.06527V6.06556V6.06586V6.06615V6.06645V6.06674V6.06704V6.06734V6.06763V6.06793V6.06822V6.06852V6.06881V6.06911V6.0694V6.0697V6.06999V6.07029V6.07059V6.07088V6.07118V6.07147V6.07177V6.07206V6.07236V6.07266V6.07295V6.07325V6.07354V6.07384V6.07414V6.07443V6.07473V6.07502V6.07532V6.07561V6.07591V6.07621V6.0765V6.0768V6.07709V6.07739V6.07769V6.07798V6.07828V6.07857V6.07887V6.07917V6.07946V6.07976V6.08006V6.08035V6.08065V6.08094V6.08124V6.08154V6.08183V6.08213V6.08243V6.08272V6.08302V6.08331V6.08361V6.08391V6.0842V6.0845V6.0848V6.08509V6.08539V6.08569V6.08598V6.08628V6.08658V6.08687V6.08717V6.08746V6.08776V6.08806V6.08835V6.08865V6.08895V6.08924V6.08954V6.08984V6.09013V6.09043V6.09073V6.09103V6.09132V6.09162V6.09192V6.09221V6.09251V6.09281V6.0931V6.0934V6.0937V6.09399V6.09429V6.09459V6.09488V6.09518V6.09548V6.09578V6.09607V6.09637V6.09667V6.09696V6.09726V6.09756V6.09786V6.09815V6.09845V6.09875V6.09904V6.09934V6.09964V6.09994V6.10023V6.10053V6.10083V6.10113V6.10142V6.10172V6.10202V6.10232V6.10261V6.10291V6.10321V6.10351V6.1038V6.1041V6.1044V6.1047V6.10499V6.10529V6.10559V6.10589V6.10618V6.10648V6.10678V6.10708V6.10737V6.10767V6.10797V6.10827V20.7637C22.1445 21.4912 21.7512 22.0664 21.2348 22.3319C20.7214 22.5958 20.0829 22.5566 19.5702 22.046L19.5702 22.046C19.5139 21.99 19.4417 21.9582 19.3654 21.9582C19.2891 21.9582 19.2169 21.99 19.1606 22.046L19.1606 22.046L18.696 22.5087C17.8447 23.3565 16.559 23.3565 15.7078 22.5087C15.3253 22.1277 14.7516 22.1277 14.3691 22.5087C13.5178 23.3565 12.2322 23.3565 11.3809 22.5087C10.9984 22.1277 10.4247 22.1277 10.0422 22.5087C9.19091 23.3565 7.9053 23.3565 7.05397 22.5087L6.58947 22.046L6.58945 22.046C6.53317 21.99 6.46095 21.9582 6.38466 21.9582C6.30838 21.9582 6.23615 21.99 6.17988 22.046L6.25429 22.1207L6.17987 22.046C5.66718 22.5566 5.02865 22.5958 4.51528 22.3319C3.99883 22.0664 3.60554 21.4912 3.60554 20.7637V6.10827L3.6055 5.95796C3.60513 4.84906 3.60591 4.1243 3.78891 3.5177L3.68793 3.48724L3.78891 3.5177C4.13669 2.36484 4.94621 1.45494 5.98251 1.06249C6.5271 0.856243 7.17761 0.855047 8.16221 0.855511L8.30293 0.855552H17.4471L17.5878 0.855511C18.5724 0.855047 19.2229 0.856243 19.7675 1.06249C20.8038 1.45494 21.6133 2.36484 21.9611 3.5177C22.1441 4.1243 22.1449 4.84906 22.1445 5.95796ZM6.38179 2.34779L6.38179 2.34779C5.71397 2.6007 5.18553 3.18986 4.95729 3.94645C4.8448 4.3193 4.8369 4.80617 4.8369 6.10827V20.7637C4.8369 20.926 4.91509 21.0398 5.02482 21.0951L5.02488 21.0951C5.08069 21.1232 5.13931 21.1324 5.19276 21.1246L5.19279 21.1246C5.24302 21.1172 5.29852 21.0937 5.35503 21.0374L5.35504 21.0374C5.94146 20.4533 6.82787 20.4533 7.41428 21.0374L7.87879 21.5001L7.95322 21.4253L7.8788 21.5001C8.26129 21.881 8.83494 21.881 9.21741 21.5001L9.14299 21.4253L9.21742 21.5001C10.0687 20.6521 11.3544 20.6521 12.2057 21.5001L12.2801 21.4253L12.2057 21.5001C12.5882 21.881 13.1619 21.881 13.5444 21.5001L13.5444 21.5001C14.3956 20.6521 15.6813 20.6521 16.5326 21.5001L16.607 21.4253L16.5326 21.5001C16.9151 21.881 17.4887 21.881 17.8712 21.5001L17.7968 21.4253L17.8713 21.5001L18.3358 21.0374L18.2613 20.9627L18.3358 21.0374C18.9221 20.4533 19.8085 20.4533 20.395 21.0374C20.4515 21.0937 20.507 21.1172 20.5573 21.1246C20.6107 21.1324 20.6693 21.1232 20.7251 21.0951L20.7253 21.095C20.8348 21.0398 20.9131 20.9261 20.9131 20.7637V6.10827C20.9131 4.80617 20.9052 4.3193 20.7927 3.94644C20.5644 3.18986 20.0361 2.6007 19.3682 2.34779L19.3309 2.44642L19.3682 2.34779C19.2011 2.28453 19.0116 2.25197 18.7211 2.23451C18.4313 2.21708 18.0333 2.21438 17.4471 2.21438H8.30293C7.7167 2.21438 7.3187 2.21708 7.02889 2.23451C6.7384 2.25197 6.54884 2.28453 6.38179 2.34779ZM7.45167 7.29076C7.45167 6.90695 7.73554 6.61135 8.06735 6.61135H8.54811C8.87991 6.61135 9.16379 6.90695 9.16379 7.29076C9.16379 7.67458 8.87991 7.97017 8.54811 7.97017H8.06735C7.73554 7.97017 7.45167 7.67458 7.45167 7.29076ZM10.817 7.29076C10.817 6.90695 11.1009 6.61135 11.4327 6.61135H17.6827C18.0145 6.61135 18.2984 6.90695 18.2984 7.29076C18.2984 7.67458 18.0145 7.97017 17.6827 7.97017H11.4327C11.1009 7.97017 10.817 7.67457 10.817 7.29076ZM7.45167 10.9536C7.45167 10.5698 7.73554 10.2741 8.06735 10.2741H8.54811C8.87991 10.2741 9.16379 10.5698 9.16379 10.9536C9.16379 11.3374 8.87991 11.633 8.54811 11.633H8.06735C7.73554 11.633 7.45167 11.3374 7.45167 10.9536ZM10.817 10.9536C10.817 10.5698 11.1009 10.2741 11.4327 10.2741H17.6827C18.0145 10.2741 18.2984 10.5698 18.2984 10.9536C18.2984 11.3374 18.0145 11.633 17.6827 11.633H11.4327C11.1009 11.633 10.817 11.3374 10.817 10.9536ZM7.45167 14.6163C7.45167 14.2325 7.73554 13.9369 8.06735 13.9369H8.54811C8.87991 13.9369 9.16379 14.2325 9.16379 14.6163C9.16379 15.0001 8.87991 15.2957 8.54811 15.2957H8.06735C7.73554 15.2957 7.45167 15.0001 7.45167 14.6163ZM10.817 14.6163C10.817 14.2325 11.1009 13.9369 11.4327 13.9369H17.6827C18.0145 13.9369 18.2984 14.2325 18.2984 14.6163C18.2984 15.0001 18.0145 15.2957 17.6827 15.2957H11.4327C11.1009 15.2957 10.817 15.0001 10.817 14.6163Z" fill="black" stroke="white" stroke-width="0.210938"/>
</svg>
