<svg width="25" height="24" viewBox="0 0 25 24" fill="none" xmlns="http://www.w3.org/2000/svg">
<path d="M3.33594 12C3.33594 13.1819 3.56873 14.3522 4.02102 15.4442C4.47331 16.5361 5.13625 17.5282 5.97198 18.364C6.8077 19.1997 7.79986 19.8626 8.89179 20.3149C9.98372 20.7672 11.154 21 12.3359 21C13.5178 21 14.6882 20.7672 15.7801 20.3149C16.872 19.8626 17.8642 19.1997 18.6999 18.364C19.5356 17.5282 20.1986 16.5361 20.6509 15.4442C21.1031 14.3522 21.3359 13.1819 21.3359 12C21.3359 9.61305 20.3877 7.32387 18.6999 5.63604C17.0121 3.94821 14.7229 3 12.3359 3C9.94899 3 7.6598 3.94821 5.97198 5.63604C4.28415 7.32387 3.33594 9.61305 3.33594 12Z" stroke="black" stroke-width="1.5" stroke-linecap="round" stroke-linejoin="round"/>
<path d="M12.3359 9H12.3459" stroke="black" stroke-width="2" stroke-linecap="round" stroke-linejoin="round"/>
<path d="M11.3359 12H12.3359V16H13.3359" stroke="black" stroke-width="1.5" stroke-linecap="round" stroke-linejoin="round"/>
</svg>
