<svg width="32" height="32" viewBox="0 0 32 32" fill="none" xmlns="http://www.w3.org/2000/svg">
<path d="M26.4319 15.9023L26.4446 15.39C26.4811 13.9131 26.7066 11.9279 27.0788 9.90431C27.4492 7.87844 27.9696 5.78415 28.5763 4.09731L28.5535 4.08824L28.7501 3.61862C28.7871 3.5302 28.8042 3.45285 28.8038 3.38901L28.8038 3.38385C28.8043 3.26462 28.7635 3.14637 28.7101 3.05906C28.5912 2.87177 28.4584 2.77534 28.2655 2.65757C27.9409 2.47008 27.5434 2.32864 27.0245 2.18557C26.2563 1.97888 25.302 1.8097 24.2664 1.68891C23.2328 1.56917 22.1326 1.50001 21.0926 1.5L26.4319 15.9023ZM26.4319 15.9023H26.9444H26.9468H26.9492H26.9515H26.9539H26.9563H26.9586H26.961H26.9633H26.9657H26.9681H26.9704H26.9727H26.9751H26.9774H26.9798H26.9821H26.9844H26.9868H26.9891H26.9914H26.9938H26.9961H26.9984H27.0007H27.003H27.0054H27.0077H27.01H27.0123H27.0146H27.0169H27.0192H27.0215H27.0238H27.026H27.0283H27.0306H27.0329H27.0352H27.0375H27.0397H27.042H27.0443H27.0465H27.0488H27.0511H27.0533H27.0556H27.0578H27.0601H27.0623H27.0646H27.0668H27.069H27.0713H27.0735H27.0758H27.078H27.0802H27.0824H27.0847H27.0869H27.0891H27.0913H27.0935H27.0957H27.0979H27.1001H27.1023H27.1045H27.1067H27.1089H27.1111H27.1133H27.1155H27.1177H27.1198H27.122H27.1242H27.1264H27.1285H27.1307H27.1329H27.135H27.1372H27.1393H27.1415H27.1436H27.1458H27.1479H27.1501H27.1522H27.1543H27.1565H27.1586H27.1607H27.1629H27.165H27.1671H27.1692H27.1713H27.1735H27.1756H27.1777H27.1798H27.1819H27.184H27.1861H27.1882H27.1903H27.1923H27.1944H27.1965H27.1986H27.2007H27.2027H27.2048H27.2069H27.2089H27.211H27.2131H27.2151H27.2172H27.2192H27.2213H27.2233H27.2254H27.2274H27.2294H27.2315H27.2335H27.2355H27.2376H27.2396H27.2416H27.2436H27.2456H27.2477H27.2497H27.2517H27.2537H27.2557H27.2577H27.2597H27.2617H27.2637H27.2656H27.2676H27.2696H27.2716H27.2736H27.2755H27.2775H27.2795H27.2814H27.2834H27.2854H27.2873H27.2893H27.2912H27.2932H27.2951H27.2971H27.299H27.3009H27.3029H27.3048H27.3067H27.3087H27.3106H27.3125H27.3144H27.3163H27.3182H27.3201H27.3221H27.324H27.3259H27.3277H27.3296H27.3315H27.3334H27.3353H27.3372H27.3391H27.3409H27.3428H27.3447H27.3466H27.3484H27.3503H27.3521H27.354H27.3558H27.3577H27.3595H27.3614H27.3632H27.3651H27.3669H27.3687H27.3706H27.3724H27.3742H27.376H27.3778H27.3797H27.3815H27.3833H27.3851H27.3869H27.3887H27.3905H27.3923H27.3941H27.3959H27.3976H27.3994H27.4012H27.403H27.4048H27.4065H27.4083H27.4101H27.4118H27.4136H27.4153H27.4171H27.4188H27.4206H27.4223H27.4241H27.4258H27.4275H27.4293H27.431H27.4327H27.4344H27.4362H27.4379H27.4396H27.4413H27.443H27.4447H27.4464H27.4481H27.4498H27.4515H27.4532H27.4549H27.4565H27.4582H27.4599H27.4616H27.4632H27.4649H27.4666H27.4682H27.4699H27.4716H27.4732H27.4749H27.4765H27.4781H27.4798H27.4814H27.4831H27.4847H27.4863H27.4879H27.4896H27.4912H27.4928H27.4944H27.496H27.4976H27.4992H27.5008H27.5024H27.504H27.5056H27.5072H27.5088H27.5103H27.5119H27.5135H27.5151H27.5166H27.5182H27.5198H27.5213H27.5229H27.5244H27.526H27.5275H27.5291H27.5306H27.5321H27.5337H27.5352H27.5367H27.5383H27.5398H27.5413H27.5428H27.5443H27.5458H27.5473H27.5488H27.5503H27.5518H27.5533H27.5548H27.5563H27.5578H27.5593H27.5607H27.5622H27.5637H27.5652H27.5666H27.5681H27.5695H27.571H27.5724H27.5739H27.5753H27.5768H27.5782H27.5797H27.5811H27.5825H27.5839H27.5854H27.5868H27.5882H27.5896H27.591H27.5924H27.5938H27.5952H27.5966H27.598H27.5994H27.6008H27.6022H27.6035H27.6049H27.6063H27.6077H27.609H27.6104H27.6118H27.6131H27.6145H27.6158H27.6172H27.6185H27.6199H27.6212H27.6225H27.6239H27.6252H27.6265H27.6278H27.6291H27.6305H27.6318H27.6331H27.6344H27.6357H27.637H27.6383H27.6396H27.6409H27.6421H27.6434H27.6447H27.646H27.6472H27.6485H27.6498H27.651H27.6523H27.6535H27.6548H27.656H27.6573H27.6585H27.6598H27.661H27.6622H27.6635H27.6647H27.6659H27.6671H27.6683H27.6695H27.6708H27.672H27.6732H27.6744H27.6755H27.6767H27.6779H27.6791H27.6803H27.6815H27.6826H27.6838H27.685H27.6861H27.6873H27.6885H27.6896H27.6908H27.6919H27.693H27.6942H27.6953H27.6965H27.6976H27.6987H27.6998H27.7009H27.7021H27.7032H27.7043H27.7054H27.7065H27.7076H27.7087H27.7098H27.7109H27.7119H27.713H27.7141H27.7152H27.7162H27.7173H27.7184H27.7194H27.7205H27.7215H27.7226H27.7236H27.7247H27.7257H27.7268H27.7278H27.7288H27.7298H27.7309H27.7319H27.7329H27.7339H27.7349H27.7359H27.7369H27.7379H27.7389H27.7399H27.7409H27.7419H27.7429H27.7438H27.7448H27.7458H27.7467H27.7477H27.7487H27.7496H27.7506H27.7515H27.7525H27.7534H27.7543H27.7553H27.7562H27.7571H27.7581H27.759H27.7599H27.7608H27.7617H27.7626H27.7635H27.7644H27.7653H27.7662H27.7671H27.768H27.7689H27.7697H27.7706H27.7715H27.7723H27.7732H27.7741H27.7749H27.7758H27.7766H27.7775H27.7783H27.7791H27.78H27.7808H27.7816H27.7824H27.7833H27.7841H27.7849C28.6527 15.9023 29.4483 16.4147 29.7547 17.1524C30.0446 17.8501 29.9496 18.9019 28.711 20.0918L28.6188 20.1804L28.5805 20.3024C28.4557 20.6994 28.3263 21.1144 28.1938 21.5398C27.7623 22.9243 27.2965 24.419 26.8417 25.7589C26.5447 26.634 26.255 27.4352 25.9856 28.09C25.7111 28.7573 25.4737 29.2319 25.2885 29.4833L25.2884 29.4835C24.6952 30.2893 23.839 30.5312 22.7935 30.4969C21.9878 30.4706 21.1513 30.2856 20.3183 30.1014C20.0372 30.0393 19.7564 29.9772 19.4774 29.9214C19.0496 29.8355 18.3483 29.6159 17.4696 29.3203C17.0642 29.1839 16.6281 29.0339 16.1721 28.877L16.0738 28.8431C15.5828 28.6742 15.0708 28.4983 14.5548 28.3252C13.5242 27.9794 12.4698 27.6421 11.5243 27.3909C10.8132 27.202 10.1382 27.0546 9.57031 26.995M26.4319 15.9023L9.57031 26.995M9.57031 26.995V17.3311C10.1003 17.2361 10.5677 16.9966 10.985 16.6916C11.5211 16.2998 12.0008 15.7802 12.4455 15.2786C12.5189 15.1958 12.5913 15.1135 12.6631 15.032C13.0381 14.606 13.3944 14.2013 13.7741 13.853C14.2224 13.4416 14.6648 13.1468 15.1397 13.0147L15.555 12.8993L15.5019 12.4715C15.3982 11.6354 15.2641 10.7533 15.1002 9.86447C14.7268 7.81779 14.2026 5.71403 13.5995 4.06664L13.6186 4.05723L13.4347 3.62235C13.3981 3.53581 13.3804 3.45674 13.3808 3.38895H13.3808L13.3808 3.38385C13.3803 3.26454 13.4218 3.14406 13.4756 3.05575C13.5347 2.95979 13.6036 2.88778 13.6844 2.81963C13.8512 2.68234 14.0333 2.58591 14.2762 2.48083C14.7518 2.2814 15.3606 2.11742 16.0951 1.97011C17.5523 1.68123 19.3961 1.50094 21.0923 1.5L9.57031 26.995ZM25.7377 15.9023H25.2489H25.2322H25.2156H25.1989H25.1821H25.1654H25.1486H25.1317H25.1149H25.098H25.0811H25.0641H25.0471H25.0301H25.0131H24.996H24.9789H24.9618H24.9446H24.9274H24.9102H24.8929H24.8757H24.8584H24.841H24.8237H24.8063H24.7889H24.7714H24.7539H24.7364H24.7189H24.7014H24.6838H24.6662H24.6485H24.6309H24.6132H24.5955H24.5778H24.56H24.5422H24.5244H24.5066H24.4887H24.4708H24.4529H24.435H24.4171H24.3991H24.3811H24.3631H24.345H24.327H24.3089H24.2908H24.2726H24.2545H24.2363H24.2181H24.1999H24.1817H24.1634H24.1451H24.1268H24.1085H24.0902H24.0718H24.0534H24.035H24.0166H23.9982H23.9797H23.9613H23.9428H23.9243H23.9058H23.8872H23.8687H23.8501H23.8315H23.8129H23.7943H23.7756H23.757H23.7383H23.7196H23.7009H23.6822H23.6634H23.6447H23.6259H23.6071H23.5883H23.5695H23.5507H23.5319H23.513H23.4942H23.4753H23.4564H23.4375H23.4186H23.3996H23.3807H23.3618H23.3428H23.3238H23.3048H23.2858H23.2668H23.2478H23.2288H23.2097H23.1907H23.1716H23.1526H23.1335H23.1144H23.0953H23.0762H23.0571H23.038H23.0188H22.9997H22.9806H22.9614H22.9422H22.9231H22.9039H22.8847H22.8655H22.8463H22.8271H22.8079H22.7887H22.7695H22.7503H22.731H22.7118H22.6925H22.6733H22.654H22.6348H22.6155H22.5963H22.577H22.5577H22.5385H22.5192H22.4999H22.4806H22.4613H22.4421H22.4228H22.4035H22.3842H22.3649H22.3456H22.3263H22.307H22.2877H22.2684H22.2491H22.2298H22.2105H22.1912H22.1719H22.1526H22.1333H22.1141H22.0948H22.0755H22.0562H22.0369H22.0176H21.9983H21.979H21.9598H21.9405H21.9212H21.902H21.8827H21.8634H21.8442H21.8249H21.8057H21.7864H21.7672H21.748H21.7287H21.7095H21.6903H21.6711H21.6519H21.6327H21.6135H21.5943H21.5751H21.556H21.5368H21.5176H21.4985H21.4793H21.4602H21.4411H21.422H21.4028H21.3837H21.3647H21.3456H21.3265H21.3074H21.2884H21.2693H21.2503H21.2313H21.2123H21.1933H21.1743H21.1553H21.1363H21.1174H21.0984H21.0795H21.0606H21.0417H21.0228H21.0039H20.985H20.9662H20.9473H20.9285H20.9097H20.8909H20.8721H20.8533H20.8346H20.8158H20.7971H20.7784H20.7597H20.741H20.7223H20.7037H20.6851H20.6664H20.6478H20.6293H20.6107H20.5921H20.5736H20.5551H20.5366H20.5181H20.4997H20.4812H20.4628H20.4444H20.426H20.4076H20.3893H20.371H20.3527H20.3344H20.3161H20.2979H20.2796H20.2614H20.2432H20.2251H20.2069H20.1888H20.1707H20.1527H20.1346H20.1166H20.0986H20.0806H20.0626H20.0447H20.0268H20.0089H19.991H19.9732H19.9553H19.9375H19.9198H19.902H19.8843H19.8666H19.8489H19.8313H19.8137H19.7961H19.7785H19.761H19.7435H19.726H19.7085H19.6911H19.6737H19.6563H19.639H19.6217H19.6044H19.5871H19.5699H19.5527H19.5355H19.5183H19.5012H19.4841H19.4671H19.45H19.4331H19.4161H19.3991H19.3822H19.3654H19.3485H19.3317H19.3149H19.2982H19.2815H19.2648H19.2481H19.2315H19.2149H19.1984H19.1819H19.1654H19.1489H19.1325H19.1161H19.0998H19.0835H19.0672H19.0509H19.0347H19.0186H19.0024H18.9863H18.9702H18.9542H18.9382H18.9223H18.9063H18.8905H18.8746H18.8588H18.843H18.8273H18.8116H18.7959H18.7803H18.7647H18.7492H18.7337H18.7182H18.7028H18.6874H18.6721H18.6568H18.6415H18.6263H18.6111H18.5959H18.5808H18.5658H18.5508H18.5358H18.5208H18.5059H18.4911H18.4763H18.4615H18.4468H18.4321H18.4175H18.4029H18.3883H18.3738H18.3593H18.3449H18.3305H18.3162H18.3019H18.2877H18.2735H18.2593H18.2452H18.2312H18.2172H18.2032H18.1893H18.1754H18.1616H18.1478H18.1341H18.1204H18.1067H18.0931H18.0796H18.0661H18.0527H18.0393H18.0259H18.0126H17.9994H17.9862H17.973H17.9599H17.9469H17.9339H17.9209H17.908H17.8951H17.8824H17.8696H17.8569H17.8443H17.8317H17.8191H17.8066H17.7942H17.7818H17.7695H17.7572H17.745H17.7328H17.7207H17.7086H17.6966H17.6847H17.6728H17.6609H17.6491H17.6374H17.6257H17.6141H17.6025H17.591H17.5796H17.5682H17.5568H17.5455H17.5343H17.5231H17.512H17.5009H17.4899H17.479H17.4681H17.4573H17.4465H17.4358H17.4251H17.4145H17.404H17.3935H17.3831H17.3728H17.3625H17.3522H17.3421H17.332H17.3219H17.3119H17.302H17.2921H17.2823H17.2726H17.2629H17.2533H17.2437H17.2342H17.2248H17.2154H17.2061H17.1968H17.1877H17.1785H17.1695H17.1605H17.1516H17.1427H17.1339H17.1252H17.1165H17.108H17.0994H17.091H17.0826H17.0742H17.066H17.0578H17.0496H17.0416H17.0336H17.0256H17.0178H17.01H17.0022H16.9946H16.987H16.9795H16.972H16.9646H16.9573H16.9501H16.9429H16.9358H16.4474L16.4359 15.4141C16.3992 13.8547 16.167 11.8303 15.7848 9.73917L25.7377 15.9023ZM25.7377 15.9023L25.7487 15.4136M25.7377 15.9023L25.7487 15.4136M25.7487 15.4136C25.7837 13.8648 26.0139 11.8609 26.3943 9.77887C26.6464 8.40799 26.8764 7.25082 27.2387 5.97249L27.2576 5.90564V5.83617V5.73144V5.38853L26.9377 5.265C26.1118 4.94609 25.6584 4.54155 25.4029 4.1504C25.1455 3.75619 25.0588 3.32934 25.0464 2.91582L25.0337 2.49154L24.6129 2.43522C23.4917 2.28514 22.2446 2.19456 21.0925 2.19549C19.9621 2.19366 18.7382 2.28239 17.6336 2.42676L17.2005 2.48337L17.1984 2.92017C17.1964 3.3467 17.1216 3.79109 16.8677 4.20159C16.6167 4.60738 16.16 5.02982 15.3045 5.36023L14.9534 5.49585L14.9866 5.87079L15.002 6.04413L15.0061 6.09068M25.7487 15.4136L15.0061 6.09068M15.0061 6.09068L15.0188 6.13566M15.0061 6.09068L15.0188 6.13566M15.0188 6.13566C15.3304 7.24119 15.4963 8.15378 15.705 9.30173M15.0188 6.13566L15.705 9.30173M15.705 9.30173C15.7308 9.44361 15.7573 9.58909 15.7848 9.73897L15.705 9.30173Z" stroke="#F04E39"/>
<path d="M1.5 28.1407V18.9341C1.5 18.0733 2.19794 17.375 3.05994 17.375H6.39149V28.8273C6.39149 29.3091 6.00031 29.7007 5.51727 29.7007H3.05994C2.19807 29.7007 1.5 29.0026 1.5 28.1407Z" stroke="#F04E39"/>
</svg>
