<svg width="25" height="24" viewBox="0 0 25 24" fill="none" xmlns="http://www.w3.org/2000/svg">
<path d="M5.41328 18.6161H5.22578V18.4286V3.16071C5.22578 2.61318 5.66931 2.16964 6.21685 2.16964H15.8597C16.4072 2.16964 16.8508 2.61318 16.8508 3.16071V6.375C16.8508 6.71543 17.1264 6.99107 17.4668 6.99107C17.8073 6.99107 18.0829 6.71543 18.0829 6.375V3.16071C18.0829 1.93335 17.0871 0.9375 15.8597 0.9375H6.21685C4.98948 0.9375 3.99363 1.93335 3.99363 3.16071V20.8393C3.99363 22.0667 4.98948 23.0625 6.21685 23.0625H15.8597C17.0871 23.0625 18.0829 22.0667 18.0829 20.8393V17.625C18.0829 17.2846 17.8073 17.0089 17.4668 17.0089C17.1264 17.0089 16.8508 17.2846 16.8508 17.625V18.4286V18.6161H16.6633H5.41328ZM5.22578 20.0357V19.8482H5.41328H16.6633H16.8508V20.0357V20.8393C16.8508 21.3868 16.4072 21.8304 15.8597 21.8304H6.21685C5.66931 21.8304 5.22578 21.3868 5.22578 20.8393V20.0357ZM18.6029 12.9911H18.4154V12.8036V12.8026V12.7249L18.4703 12.67L18.7054 12.4349C18.9455 12.1948 18.9455 11.8042 18.7054 11.5641C18.4652 11.3239 18.0747 11.3239 17.8345 11.5641L16.2273 13.1712L16.2271 13.1714C15.9862 13.4115 15.9862 13.8017 16.2271 14.0419L16.2273 14.0421L17.8345 15.6492C18.0747 15.8894 18.4652 15.8894 18.7054 15.6492C18.9455 15.4091 18.9455 15.0185 18.7054 14.7783L18.4703 14.5433L18.1502 14.2232H18.6029H21.4847C21.8251 14.2232 22.1008 13.9476 22.1008 13.6071C22.1008 13.2667 21.8251 12.9911 21.4847 12.9911H18.6029ZM19.5451 9.40179H19.7326V9.58929V9.59028V9.66795L19.6777 9.72287L19.4426 9.95791C19.2025 10.1981 19.2025 10.5886 19.4426 10.8288C19.6828 11.069 20.0733 11.069 20.3135 10.8288L21.9207 9.22166L21.9209 9.22145C22.1618 8.98131 22.1618 8.59111 21.9209 8.35098L21.9207 8.35077L20.3135 6.74362C20.0733 6.50344 19.6828 6.50344 19.4426 6.74362C19.2025 6.98381 19.2025 7.37433 19.4426 7.61452L19.6777 7.84956L19.9978 8.16964H19.5451H16.6633C16.3229 8.16964 16.0472 8.44528 16.0472 8.78571C16.0472 9.12614 16.3229 9.40179 16.6633 9.40179H19.5451Z" fill="black" stroke="white" stroke-width="0.375"/>
</svg>
