<svg width="25" height="24" viewBox="0 0 25 24" fill="none" xmlns="http://www.w3.org/2000/svg">
<g clip-path="url(#clip0_9544_7596)">
<path d="M20.4384 6.81622C20.4384 7.46831 20.4384 8.12041 20.4384 8.77251C20.4384 10.2489 20.4384 11.7252 20.4384 13.2016C20.4384 14.7824 20.4384 16.3631 20.4384 17.9438C20.4384 18.9091 20.4384 19.8743 20.4384 20.8396C20.4384 20.9004 20.4384 20.9612 20.4384 21.0219C20.4384 21.0693 20.4363 21.1165 20.4331 21.1638C20.4317 21.1846 20.4165 21.2993 20.4331 21.1835C20.4284 21.2169 20.4217 21.2499 20.415 21.2829C20.3997 21.359 20.3772 21.4335 20.3521 21.5068C20.3456 21.5257 20.303 21.6291 20.3475 21.5251C20.3346 21.5552 20.3201 21.5846 20.3056 21.6138C20.2767 21.6722 20.2431 21.728 20.2081 21.7828C20.1906 21.8102 20.1717 21.8365 20.1528 21.8628C20.2173 21.773 20.1537 21.8606 20.1406 21.8763C20.0923 21.9343 20.0389 21.9877 19.9837 22.0391C19.9601 22.0611 19.9352 22.0819 19.9104 22.1026C19.8259 22.1732 19.9849 22.0486 19.8954 22.113C19.8427 22.1509 19.787 22.1845 19.7305 22.2165C19.7021 22.2325 19.6729 22.247 19.6437 22.2615C19.6255 22.2705 19.5233 22.3128 19.6276 22.2704C19.5561 22.2995 19.482 22.3219 19.4074 22.3414C19.375 22.3499 19.3422 22.3565 19.3094 22.3631C19.2888 22.3673 19.1757 22.3825 19.2913 22.3681C19.2229 22.3766 19.154 22.3792 19.0851 22.3799C19.0817 22.3799 19.0783 22.3799 19.0749 22.3799C19.0017 22.3799 18.9284 22.3799 18.8551 22.3799C17.8268 22.3799 16.7985 22.3799 15.7702 22.3799C14.1667 22.3799 12.5631 22.3799 10.9596 22.3799C9.5826 22.3799 8.20556 22.3799 6.8285 22.3799C6.47543 22.3799 6.12236 22.3799 5.7693 22.3799C5.72046 22.3799 5.67164 22.3799 5.6228 22.3799C5.55383 22.3799 5.48527 22.3753 5.41673 22.3681C5.53197 22.3802 5.41976 22.367 5.39864 22.3631C5.36572 22.3571 5.33316 22.3492 5.30066 22.3414C5.23627 22.3258 5.17332 22.3049 5.11113 22.2822C5.00605 22.2439 5.19553 22.3213 5.09392 22.2755C5.05424 22.2576 5.01579 22.2372 4.97755 22.2164C4.92044 22.1855 4.86599 22.1499 4.81262 22.113C4.72202 22.0502 4.8834 22.1716 4.79762 22.1026C4.77245 22.0823 4.74838 22.0607 4.72433 22.0391C4.67621 21.9959 4.63169 21.9489 4.58857 21.9008C4.56695 21.8767 4.54668 21.8515 4.52643 21.8263C4.5989 21.9164 4.51235 21.8015 4.4999 21.7828C4.46383 21.7286 4.43228 21.6716 4.40237 21.6138C4.38734 21.5848 4.3739 21.555 4.36046 21.5251C4.40664 21.6278 4.36289 21.526 4.35591 21.5068C4.33318 21.4444 4.31577 21.3801 4.30016 21.3156C4.29229 21.283 4.28623 21.2499 4.28022 21.2169C4.27247 21.1674 4.27284 21.1724 4.28128 21.2319C4.2787 21.2092 4.27651 21.1866 4.27478 21.1638C4.27025 21.1113 4.26953 21.0585 4.26953 21.0058C4.26953 20.9391 4.26953 20.8725 4.26953 20.8058C4.26953 20.4813 4.26953 20.1568 4.26953 19.8322C4.26953 18.6133 4.26953 17.3944 4.26953 16.1755C4.26953 14.5686 4.26953 12.9616 4.26953 11.3547C4.26953 9.80569 4.26953 8.25673 4.26953 6.70774C4.26953 5.6628 4.26953 4.61787 4.26953 3.57293C4.26953 3.37886 4.26953 3.18478 4.26953 2.99071C4.26953 2.91628 4.27351 2.84219 4.28128 2.76815C4.26916 2.88346 4.2824 2.77116 4.28625 2.75005C4.29226 2.71709 4.30014 2.68452 4.30799 2.65197C4.32357 2.58753 4.34451 2.52453 4.36717 2.46228C4.40545 2.35711 4.32811 2.54673 4.3739 2.44505C4.38731 2.41526 4.40234 2.38623 4.41737 2.35724C4.45225 2.28989 4.49322 2.22584 4.53632 2.16351C4.59902 2.07284 4.47769 2.23435 4.54671 2.14852C4.56695 2.12331 4.58857 2.09925 4.61015 2.07518C4.65333 2.02705 4.70031 1.9825 4.74838 1.93934C4.77243 1.91771 4.79764 1.89742 4.82281 1.87716C4.73631 1.94682 4.82278 1.88002 4.83925 1.8686C4.90164 1.82539 4.96782 1.78793 5.03512 1.75302C5.06413 1.73798 5.09397 1.72453 5.12375 1.71111C5.0212 1.75732 5.12289 1.71354 5.14206 1.70656C5.20444 1.68383 5.26861 1.66638 5.33308 1.65079C5.3657 1.64291 5.39874 1.63687 5.43173 1.63083C5.54489 1.61014 5.33542 1.64047 5.45061 1.62834C5.5078 1.62232 5.56563 1.62014 5.62312 1.62014C6.51406 1.62014 7.40497 1.62014 8.29589 1.62014C9.88196 1.62014 11.468 1.62014 13.0541 1.62014C13.7848 1.62014 14.5155 1.62014 15.2462 1.62014C15.1438 1.57767 15.0413 1.53518 14.9388 1.49272C15.642 2.19641 16.3451 2.90009 17.0483 3.6038C18.0791 4.63539 19.1099 5.66698 20.1407 6.69857C20.2824 6.84033 20.424 6.98209 20.5657 7.12385C20.7332 7.29147 21.013 7.29147 21.1805 7.12385C21.348 6.95624 21.348 6.67617 21.1805 6.50855C20.4773 5.80486 19.7742 5.10118 19.071 4.39747C18.0402 3.36588 17.0094 2.33429 15.9786 1.3027C15.7824 1.10629 15.5276 0.75 15.2248 0.75C14.9004 0.75 14.5761 0.75 14.2517 0.75C12.7731 0.75 11.2945 0.75 9.81595 0.75C8.53262 0.75 7.24928 0.75 5.96595 0.75C5.85871 0.75 5.75143 0.75 5.64416 0.75C5.20477 0.75 4.76711 0.872892 4.40036 1.11723C3.74388 1.55455 3.40001 2.27775 3.40001 3.05647C3.40001 3.79293 3.40001 4.52938 3.40001 5.26584C3.40001 6.67582 3.40001 8.0858 3.40001 9.49579C3.40001 11.1333 3.40001 12.7707 3.40001 14.4082C3.40001 15.8271 3.40001 17.246 3.40001 18.6649C3.40001 19.4192 3.40001 20.1735 3.40001 20.9278C3.40001 21.6319 3.66548 22.3172 4.23349 22.758C4.63761 23.0716 5.11648 23.25 5.63142 23.25C5.70284 23.25 5.77424 23.25 5.84566 23.25C6.86909 23.25 7.89252 23.25 8.91594 23.25C10.5186 23.25 12.1212 23.25 13.7239 23.25C15.104 23.25 16.4842 23.25 17.8644 23.25C18.2205 23.25 18.5766 23.25 18.9328 23.25C18.9835 23.25 19.0343 23.25 19.085 23.25C19.7072 23.25 20.3184 22.9796 20.7342 22.5161C21.1008 22.1074 21.3078 21.5716 21.3078 21.0219C21.3078 20.9611 21.3078 20.9003 21.3078 20.8395C21.3078 20.4788 21.3078 20.1181 21.3078 19.7575C21.3078 18.3945 21.3078 17.0315 21.3078 15.6685C21.3078 14.05 21.3078 12.4314 21.3078 10.8129C21.3078 9.65868 21.3078 8.50445 21.3078 7.35025C21.3078 7.17221 21.3078 6.9942 21.3078 6.81619C21.3078 6.57901 21.1101 6.38111 20.8731 6.38111C20.636 6.38111 20.4384 6.57906 20.4384 6.81622Z" fill="black"/>
<path d="M6.36249 6.9102C7.00631 6.9102 7.65016 6.9102 8.29398 6.9102C9.63716 6.9102 10.9803 6.9102 12.3235 6.9102C13.4836 6.9102 14.6437 6.9102 15.8037 6.9102C16.045 6.9102 16.2862 6.9102 16.5274 6.9102C16.7305 6.9102 16.9001 6.7123 16.9001 6.47512C16.9001 6.23794 16.7305 6.04004 16.5274 6.04004C15.8836 6.04004 15.2397 6.04004 14.5959 6.04004C13.2527 6.04004 11.9096 6.04004 10.5664 6.04004C9.40631 6.04004 8.24624 6.04004 7.08617 6.04004C6.84494 6.04004 6.60371 6.04004 6.36251 6.04004C6.15936 6.04004 5.98985 6.23794 5.98985 6.47512C5.98985 6.7123 6.15936 6.9102 6.36249 6.9102Z" fill="black"/>
<path d="M6.36249 10.2832C7.16628 10.2832 7.97005 10.2832 8.77381 10.2832C10.0962 10.2832 11.4186 10.2832 12.741 10.2832C13.1051 10.2832 13.4693 10.2832 13.8335 10.2832C14.0366 10.2832 14.2062 10.0853 14.2062 9.84817C14.2062 9.61099 14.0366 9.41309 13.8335 9.41309C13.0297 9.41309 12.2259 9.41309 11.4222 9.41309C10.0998 9.41309 8.77739 9.41309 7.45501 9.41309C7.09085 9.41309 6.72667 9.41309 6.36251 9.41309C6.15936 9.41309 5.98985 9.61099 5.98985 9.84817C5.98985 10.0853 6.15936 10.2832 6.36249 10.2832Z" fill="black"/>
<g clip-path="url(#clip1_9544_7596)">
<path d="M11.3688 12.4688L14.2409 19.3628L15.2606 16.3606L18.2628 15.3409L11.3688 12.4688Z" stroke="black" stroke-width="0.75" stroke-linecap="round" stroke-linejoin="round"/>
<path d="M15.4313 16.5312L17.8688 18.9688" stroke="black" stroke-width="0.75" stroke-linecap="round" stroke-linejoin="round"/>
</g>
</g>
<defs>
<clipPath id="clip0_9544_7596">
<rect width="24" height="24" fill="white" transform="translate(0.400009)"/>
</clipPath>
<clipPath id="clip1_9544_7596">
<rect width="9.75" height="9.75" fill="white" transform="translate(10.15 11.25)"/>
</clipPath>
</defs>
</svg>
