<svg width="26" height="24" viewBox="0 0 26 24" fill="none" xmlns="http://www.w3.org/2000/svg">
<path d="M17.5886 15.0635C17.9649 15.0635 18.2705 15.3627 18.2705 15.7288C18.2705 16.0948 17.9649 16.394 17.5886 16.394C17.2122 16.394 16.9066 16.0948 16.9066 15.7288C16.9066 15.3627 17.2133 15.0635 17.5886 15.0635ZM24.1537 8.05904V20.9265C24.1537 22.07 23.1999 23 22.028 23H3.97286C2.80063 23 1.84717 22.0697 1.84717 20.9265V7.88662C1.84717 6.83833 2.72084 5.98528 3.79497 5.98528H8.48699L17.1803 1.0892C17.3371 1.00093 17.5232 0.977002 17.6979 1.02265C17.8727 1.0683 18.0216 1.17995 18.1121 1.33258L20.8651 5.98528H22.0277C23.1999 5.98528 24.1534 6.91532 24.1534 8.05877L24.1537 8.05904ZM21.6527 7.31627L22.3107 8.42809C22.3209 8.44514 22.3296 8.46219 22.3378 8.47979C22.4946 8.50234 22.646 8.54167 22.7897 8.59557V8.05904C22.7897 7.6493 22.448 7.31627 22.0283 7.31627H21.6527ZM20.7531 8.45752L18.935 5.38496C18.4854 5.54721 18.0064 5.63163 17.5217 5.63163C16.3047 5.63163 15.157 5.09456 14.3918 4.19696L6.82675 8.45779H9.12498C9.34122 7.63582 9.88504 6.92715 10.655 6.49375C12.2151 5.61541 14.2173 6.13873 15.1184 7.66002C15.2664 7.90999 15.3786 8.17922 15.4527 8.45779H20.7534L20.7531 8.45752ZM13.9368 8.32524C13.4119 7.43892 12.2456 7.13422 11.3367 7.646C10.9964 7.83767 10.7325 8.12202 10.5695 8.45752H14.0076C13.9856 8.41297 13.9628 8.36869 13.9368 8.32524ZM15.5993 3.51662C16.1011 4.01079 16.7927 4.30091 17.5217 4.30091C17.765 4.30091 18.0061 4.26901 18.2378 4.20714L17.272 2.57474L15.5993 3.51689V3.51662ZM3.21167 7.8869C3.21167 8.19627 3.47893 8.45752 3.79525 8.45752H4.09831L6.12477 7.31627H3.79525C3.47329 7.31627 3.21167 7.5723 3.21167 7.8869ZM22.7897 14.0845H17.5888C16.6593 14.0845 15.9029 14.8221 15.9029 15.729C15.9029 16.636 16.6591 17.3735 17.5888 17.3735H22.7897V14.0845ZM22.7897 10.531C22.7897 10.1213 22.448 9.78824 22.0283 9.78824H3.79497C3.5917 9.78824 3.39576 9.75771 3.21139 9.70106V20.9268C3.21139 21.3365 3.55308 21.6696 3.97286 21.6696H22.0277C22.4478 21.6696 22.7892 21.3363 22.7892 20.9268V18.704H17.5883C15.9066 18.704 14.5384 17.3694 14.5384 15.729C14.5384 14.0887 15.9066 12.7541 17.5883 12.7541H22.7892V10.5313L22.7897 10.531Z" fill="#FF8926"/>
</svg>
