<svg width="24" height="24" viewBox="0 0 24 24" fill="none" xmlns="http://www.w3.org/2000/svg">
<g clip-path="url(#clip0_9544_1098)">
<path d="M20.4728 6.3807C19.2357 6.3807 17.9986 6.3807 16.7616 6.3807C16.5826 6.3807 16.4035 6.3807 16.2245 6.3807C16.1745 6.3807 16.1247 6.37821 16.0749 6.37386C16.189 6.38383 16.0789 6.37346 16.0568 6.36931C16.024 6.36312 15.9917 6.35452 15.9595 6.34594C15.9275 6.33741 15.8962 6.32657 15.865 6.31576C15.8197 6.2982 15.8238 6.30059 15.8775 6.32289C15.8576 6.31404 15.8379 6.30472 15.8184 6.29492C15.76 6.26638 15.7049 6.23165 15.6512 6.19513C15.5604 6.13335 15.7212 6.25422 15.6368 6.18424C15.6119 6.16363 15.5885 6.1413 15.5651 6.119C15.5418 6.0967 15.52 6.07278 15.4983 6.04889C15.4846 6.0339 15.4184 5.94763 15.485 6.03636C15.4395 5.9757 15.4013 5.90989 15.3665 5.84264C15.357 5.82422 15.3154 5.72278 15.3572 5.82688C15.3449 5.79625 15.3349 5.76475 15.3248 5.73335C15.3045 5.66955 15.2912 5.60372 15.2805 5.53771C15.2998 5.6562 15.2807 5.47749 15.2807 5.44803C15.2807 5.44408 15.2807 5.44013 15.2807 5.43617C15.2807 5.37638 15.2807 5.31659 15.2807 5.2568C15.2807 4.97399 15.2807 4.69117 15.2807 4.40836C15.2807 3.33379 15.2807 2.25924 15.2807 1.18467C15.0334 1.28722 14.786 1.38978 14.5386 1.49233C15.2417 2.19602 15.9449 2.8997 16.648 3.60342C17.6788 4.635 18.7096 5.66659 19.7405 6.69818C19.8821 6.83994 20.0238 6.9817 20.1654 7.12347C20.3329 7.29108 20.6127 7.29108 20.7802 7.12347C20.9477 6.95585 20.9477 6.67578 20.7802 6.50816C20.0771 5.80448 19.3739 5.10079 18.6708 4.39708C17.64 3.36549 16.6092 2.3339 15.5784 1.30231C15.4367 1.16055 15.295 1.01879 15.1534 0.877027C14.8851 0.60857 14.4112 0.805176 14.4112 1.18469C14.4112 2.42271 14.4112 3.6607 14.4112 4.89871C14.4112 5.07787 14.4112 5.25704 14.4112 5.4362C14.4112 6.0257 14.6931 6.55707 15.1602 6.90821C15.702 7.31552 16.3679 7.25088 17.0028 7.25088C18.1595 7.25088 19.3161 7.25088 20.4728 7.25088C20.7098 7.25088 20.9076 7.05298 20.9076 6.8158C20.9076 6.57862 20.7098 6.3807 20.4728 6.3807Z" fill="black"/>
<path d="M20.0384 6.81622C20.0384 7.46831 20.0384 8.12041 20.0384 8.77251C20.0384 10.2489 20.0384 11.7252 20.0384 13.2016C20.0384 14.7824 20.0384 16.3631 20.0384 17.9438C20.0384 18.9091 20.0384 19.8743 20.0384 20.8396C20.0384 20.9004 20.0384 20.9612 20.0384 21.0219C20.0384 21.0693 20.0363 21.1165 20.0331 21.1638C20.0317 21.1846 20.0165 21.2993 20.0331 21.1835C20.0284 21.2169 20.0217 21.2499 20.015 21.2829C19.9997 21.359 19.9772 21.4335 19.9521 21.5068C19.9456 21.5257 19.903 21.6291 19.9475 21.5251C19.9346 21.5552 19.9201 21.5846 19.9056 21.6138C19.8768 21.6722 19.8431 21.728 19.8081 21.7828C19.7906 21.8102 19.7717 21.8365 19.7528 21.8628C19.8173 21.773 19.7537 21.8606 19.7406 21.8763C19.6923 21.9343 19.6389 21.9877 19.5837 22.0391C19.5601 22.0611 19.5352 22.0819 19.5104 22.1026C19.4259 22.1732 19.5849 22.0486 19.4954 22.113C19.4427 22.1509 19.387 22.1845 19.3305 22.2165C19.3021 22.2325 19.2729 22.247 19.2437 22.2615C19.2255 22.2705 19.1233 22.3128 19.2276 22.2704C19.1561 22.2995 19.082 22.3219 19.0074 22.3414C18.975 22.3499 18.9422 22.3565 18.9094 22.3631C18.8889 22.3673 18.7757 22.3825 18.8913 22.3681C18.8229 22.3766 18.754 22.3792 18.6851 22.3799C18.6817 22.3799 18.6783 22.3799 18.6749 22.3799C18.6017 22.3799 18.5284 22.3799 18.4551 22.3799C17.4268 22.3799 16.3985 22.3799 15.3702 22.3799C13.7667 22.3799 12.1632 22.3799 10.5596 22.3799C9.18261 22.3799 7.80557 22.3799 6.4285 22.3799C6.07544 22.3799 5.72237 22.3799 5.3693 22.3799C5.32046 22.3799 5.27165 22.3799 5.2228 22.3799C5.15384 22.3799 5.08527 22.3753 5.01673 22.3681C5.13198 22.3802 5.01976 22.367 4.99865 22.3631C4.96573 22.3571 4.93316 22.3492 4.90067 22.3414C4.83627 22.3258 4.77332 22.3049 4.71114 22.2822C4.60606 22.2439 4.79553 22.3213 4.69392 22.2755C4.65425 22.2576 4.61579 22.2372 4.57756 22.2164C4.52045 22.1855 4.46599 22.1499 4.41263 22.113C4.32203 22.0502 4.48341 22.1716 4.39762 22.1026C4.37246 22.0823 4.34839 22.0607 4.32434 22.0391C4.27622 21.9959 4.2317 21.9489 4.18857 21.9008C4.16696 21.8767 4.14669 21.8515 4.12644 21.8263C4.19891 21.9164 4.11235 21.8015 4.09991 21.7828C4.06384 21.7286 4.03229 21.6716 4.00237 21.6138C3.98734 21.5848 3.9739 21.555 3.96046 21.5251C4.00665 21.6278 3.9629 21.526 3.95592 21.5068C3.93319 21.4444 3.91577 21.3801 3.90017 21.3156C3.8923 21.283 3.88623 21.2499 3.88022 21.2169C3.87247 21.1674 3.87284 21.1724 3.88129 21.2319C3.87871 21.2092 3.87652 21.1866 3.87478 21.1638C3.87026 21.1113 3.86954 21.0585 3.86954 21.0058C3.86954 20.9391 3.86954 20.8725 3.86954 20.8058C3.86954 20.4813 3.86954 20.1568 3.86954 19.8322C3.86954 18.6133 3.86954 17.3944 3.86954 16.1755C3.86954 14.5686 3.86954 12.9616 3.86954 11.3547C3.86954 9.80569 3.86954 8.25673 3.86954 6.70774C3.86954 5.6628 3.86954 4.61787 3.86954 3.57293C3.86954 3.37886 3.86954 3.18478 3.86954 2.99071C3.86954 2.91628 3.87351 2.84219 3.88129 2.76815C3.86917 2.88346 3.88241 2.77116 3.88626 2.75005C3.89227 2.71709 3.90015 2.68452 3.908 2.65197C3.92357 2.58753 3.94452 2.52453 3.96717 2.46228C4.00546 2.35711 3.92812 2.54673 3.9739 2.44505C3.98732 2.41526 4.00235 2.38623 4.01738 2.35724C4.05226 2.28989 4.09322 2.22584 4.13633 2.16351C4.19903 2.07284 4.0777 2.23435 4.14671 2.14852C4.16696 2.12331 4.18857 2.09925 4.21016 2.07518C4.25334 2.02705 4.30031 1.9825 4.34839 1.93934C4.37243 1.91771 4.39765 1.89742 4.42281 1.87716C4.33631 1.94682 4.42279 1.88002 4.43926 1.8686C4.50164 1.82539 4.56782 1.78793 4.63512 1.75302C4.66414 1.73798 4.69397 1.72453 4.72376 1.71111C4.62121 1.75732 4.72289 1.71354 4.74207 1.70656C4.80445 1.68383 4.86862 1.66638 4.93309 1.65079C4.96571 1.64291 4.99875 1.63687 5.03174 1.63083C5.1449 1.61014 4.93542 1.64047 5.05062 1.62834C5.10781 1.62232 5.16564 1.62014 5.22313 1.62014C6.11407 1.62014 7.00498 1.62014 7.89589 1.62014C9.48196 1.62014 11.068 1.62014 12.6541 1.62014C13.3848 1.62014 14.1155 1.62014 14.8463 1.62014C14.7438 1.57767 14.6413 1.53518 14.5388 1.49272C15.242 2.19641 15.9451 2.90009 16.6483 3.6038C17.6791 4.63539 18.7099 5.66698 19.7407 6.69857C19.8824 6.84033 20.024 6.98209 20.1657 7.12385C20.3332 7.29147 20.613 7.29147 20.7805 7.12385C20.948 6.95624 20.948 6.67617 20.7805 6.50855C20.0773 5.80486 19.3742 5.10118 18.671 4.39747C17.6402 3.36588 16.6094 2.33429 15.5786 1.3027C15.3824 1.10629 15.1276 0.75 14.8248 0.75C14.5004 0.75 14.1761 0.75 13.8517 0.75C12.3731 0.75 10.8946 0.75 9.41595 0.75C8.13262 0.75 6.84929 0.75 5.56596 0.75C5.45871 0.75 5.35144 0.75 5.24417 0.75C4.80477 0.75 4.36712 0.872892 4.00036 1.11723C3.34389 1.55455 3.00002 2.27775 3.00002 3.05647C3.00002 3.79293 3.00002 4.52938 3.00002 5.26584C3.00002 6.67582 3.00002 8.0858 3.00002 9.49579C3.00002 11.1333 3.00002 12.7707 3.00002 14.4082C3.00002 15.8271 3.00002 17.246 3.00002 18.6649C3.00002 19.4192 3.00002 20.1735 3.00002 20.9278C3.00002 21.6319 3.26549 22.3172 3.83349 22.758C4.23761 23.0716 4.71648 23.25 5.23142 23.25C5.30285 23.25 5.37425 23.25 5.44567 23.25C6.4691 23.25 7.49252 23.25 8.51595 23.25C10.1186 23.25 11.7212 23.25 13.3239 23.25C14.704 23.25 16.0842 23.25 17.4644 23.25C17.8205 23.25 18.1766 23.25 18.5328 23.25C18.5835 23.25 18.6343 23.25 18.685 23.25C19.3072 23.25 19.9184 22.9796 20.3342 22.5161C20.7008 22.1074 20.9078 21.5716 20.9078 21.0219C20.9078 20.9611 20.9078 20.9003 20.9078 20.8395C20.9078 20.4788 20.9078 20.1181 20.9078 19.7575C20.9078 18.3945 20.9078 17.0315 20.9078 15.6685C20.9078 14.05 20.9078 12.4314 20.9078 10.8129C20.9078 9.65868 20.9078 8.50445 20.9078 7.35025C20.9078 7.17221 20.9078 6.9942 20.9078 6.81619C20.9078 6.57901 20.7101 6.38111 20.4731 6.38111C20.2361 6.38111 20.0384 6.57906 20.0384 6.81622Z" fill="black"/>
<path d="M12 10.5L12 18" stroke="black" stroke-width="1.125" stroke-linecap="round" stroke-linejoin="round"/>
<path d="M15.75 14.25L12 18L8.25002 14.25" stroke="black" stroke-width="1.125" stroke-linecap="round" stroke-linejoin="round"/>
</g>
<defs>
<clipPath id="clip0_9544_1098">
<rect width="24" height="24" fill="white"/>
</clipPath>
</defs>
</svg>
