<svg width="22" height="22" viewBox="0 0 22 22" fill="none" xmlns="http://www.w3.org/2000/svg">
<path d="M2.75 15.7267C2.75 19.7248 5.60577 21.8507 11 21.8507C16.3942 21.8507 19.25 19.7248 19.25 15.7267C19.25 12.9979 16.426 9.69786 13.8558 7.28632C14.2683 7.06421 14.4904 6.68344 14.4904 6.27094C14.4904 5.76325 14.1731 5.35074 13.7288 5.19209C14.3 4.39882 14.6173 3.70074 14.6173 3.09786C14.6173 3.06613 14.6173 3.0344 14.6173 3.00267C13.3481 -0.868486 10.8413 1.60651 7.60481 2.81228C7.47788 2.84401 7.38269 2.97094 7.38269 3.09786C7.38269 3.70074 7.66827 4.39882 8.27115 5.19209C7.79519 5.35074 7.50962 5.79498 7.50962 6.27094C7.50962 6.71517 7.76346 7.09594 8.14423 7.28632C5.60577 9.69786 2.75 12.9979 2.75 15.7267ZM13.9827 3.16132C13.951 3.66901 13.6337 4.36709 12.999 5.12863H9.03269C8.46154 4.43055 8.1125 3.82767 8.04904 3.31998C11.349 2.01901 12.999 0.146898 13.9827 3.16132ZM8.68365 5.76324C9.60385 5.76324 12.4279 5.76324 13.3481 5.76324C13.6337 5.76324 13.8558 5.98536 13.8558 6.27094C13.8558 6.55651 13.6019 6.77863 13.3481 6.77863C12.174 6.77863 9.60385 6.77863 8.68365 6.77863C8.39808 6.77863 8.17596 6.55651 8.17596 6.27094C8.17596 5.98536 8.39808 5.76324 8.68365 5.76324ZM8.9375 7.41325H13.0625C15.1885 9.38055 18.6154 12.9661 18.6154 15.7267C18.6154 19.3757 16.0452 21.2161 11 21.2161C5.95481 21.2161 3.38462 19.3757 3.38462 15.7267C3.38462 12.9661 6.81154 9.38055 8.9375 7.41325Z" fill="white" stroke="white" stroke-width="0.2"/>
<path d="M9.06428 15.7594L8.33447 16.6161C9.06428 17.2508 9.88928 17.5998 10.7777 17.695V18.4248H11.4124V17.695C12.6499 17.6315 13.6652 16.9334 13.6652 15.6642C13.6652 14.3315 12.7133 13.8873 11.4441 13.6017H11.4124V11.7296C11.92 11.7931 12.396 11.9834 12.8402 12.3008L13.4749 11.3806C12.8085 10.9363 12.1422 10.6825 11.3806 10.619V10.1113H10.746V10.619C9.50851 10.6825 8.55659 11.4123 8.55659 12.6181C8.55659 13.919 9.47678 14.3315 10.746 14.6171V16.5527C10.1749 16.5527 9.6037 16.2671 9.06428 15.7594ZM11.4124 14.8709C12.0152 15.0613 12.4595 15.22 12.4595 15.8229C12.4595 16.3623 11.9518 16.6161 11.4124 16.6796V14.8709ZM9.82582 12.5546C9.82582 12.0469 10.27 11.7613 10.7777 11.7296V13.4431C10.2066 13.2844 9.82582 13.1258 9.82582 12.5546Z" fill="white" stroke="white" stroke-width="0.25"/>
</svg>
