<svg width="25" height="24" viewBox="0 0 25 24" fill="none" xmlns="http://www.w3.org/2000/svg">
<path d="M4.5 7C4.5 6.46957 4.71071 5.96086 5.08579 5.58579C5.46086 5.21071 5.96957 5 6.5 5H18.5C19.0304 5 19.5391 5.21071 19.9142 5.58579C20.2893 5.96086 20.5 6.46957 20.5 7V19C20.5 19.5304 20.2893 20.0391 19.9142 20.4142C19.5391 20.7893 19.0304 21 18.5 21H6.5C5.96957 21 5.46086 20.7893 5.08579 20.4142C4.71071 20.0391 4.5 19.5304 4.5 19V7Z" stroke="black" stroke-width="1.5" stroke-linecap="round" stroke-linejoin="round"/>
<path d="M16.5 3V7" stroke="black" stroke-width="1.5" stroke-linecap="round" stroke-linejoin="round"/>
<path d="M8.5 3V7" stroke="black" stroke-width="1.5" stroke-linecap="round" stroke-linejoin="round"/>
<path d="M4.5 11H20.5" stroke="black" stroke-width="1.5" stroke-linecap="round" stroke-linejoin="round"/>
</svg>
