<svg width="32" height="32" viewBox="0 0 32 32" fill="none" xmlns="http://www.w3.org/2000/svg">
<path d="M10.6663 19.7304L10.649 19.8452H10.7652H21.2372H21.3533L21.3361 19.7304C21.1504 18.4938 20.5082 17.3638 19.5282 16.5471C18.5483 15.7304 17.2961 15.2813 16.0012 15.2813C14.7062 15.2813 13.454 15.7304 12.4741 16.5471C11.4941 17.3638 10.8519 18.4938 10.6663 19.7304ZM16.0012 6.55433C15.6909 6.55433 15.3836 6.61315 15.0967 6.72752C14.8099 6.8419 14.549 7.00963 14.329 7.22133C14.1091 7.43303 13.9344 7.68457 13.8152 7.96168C13.6959 8.2388 13.6345 8.53596 13.6345 8.83615C13.6345 9.13634 13.6959 9.4335 13.8152 9.71062C13.9344 9.98774 14.1091 10.2393 14.329 10.451C14.549 10.6627 14.8099 10.8304 15.0967 10.9448C15.3836 11.0591 15.6909 11.118 16.0012 11.118C16.6276 11.118 17.2292 10.8785 17.6733 10.451C18.1175 10.0234 18.3678 9.44258 18.3678 8.83615C18.3678 8.22972 18.1175 7.64893 17.6733 7.22133C17.2292 6.79385 16.6276 6.55433 16.0012 6.55433ZM12.3234 8.83615C12.3234 7.89951 12.7099 7.00042 13.3992 6.3369C14.0887 5.67326 15.0246 5.29979 16.0012 5.29979C16.9778 5.29979 17.9137 5.67326 18.6031 6.3369C19.2924 7.00042 19.6789 7.89951 19.6789 8.83615C19.6789 9.7728 19.2924 10.6719 18.6031 11.3354C17.9137 11.999 16.9778 12.3725 16.0012 12.3725C15.0246 12.3725 14.0887 11.999 13.3992 11.3354C12.7099 10.6719 12.3234 9.7728 12.3234 8.83615ZM9.30117 20.4725C9.30117 18.7643 10.0061 17.1253 11.2622 15.9162C12.5184 14.707 14.223 14.0271 16.0012 14.0271C17.7793 14.0271 19.4839 14.707 20.7401 15.9162C21.9962 17.1253 22.7012 18.7643 22.7012 20.4725C22.7012 20.6376 22.6331 20.7968 22.5105 20.9147C22.3879 21.0328 22.2207 21.0998 22.0456 21.0998H9.95673C9.78166 21.0998 9.61449 21.0328 9.49182 20.9147C9.36927 20.7968 9.30117 20.6376 9.30117 20.4725Z" fill="#F04E39" stroke="white" stroke-width="0.2"/>
<path d="M4.95212 3.36946L4.95209 3.36946C4.74507 3.36884 4.53996 3.40896 4.34851 3.48753C4.15706 3.5661 3.98302 3.68158 3.83638 3.82736C3.68973 3.97315 3.57337 4.14637 3.49396 4.33711C3.41456 4.52785 3.37368 4.73236 3.37368 4.93889V21.9168C3.37368 22.3331 3.53955 22.7323 3.83471 23.0266C4.12985 23.3209 4.53009 23.4862 4.94737 23.4862H10.8421C10.9259 23.4862 11.0089 23.5027 11.0863 23.5348C11.1637 23.5668 11.2339 23.6138 11.2931 23.6729L11.2932 23.673L15.9294 28.2959L16 28.3663L16.0706 28.2959L20.7068 23.673L20.7069 23.6729C20.7661 23.6138 20.8363 23.5668 20.9137 23.5348C20.9911 23.5027 21.0741 23.4862 21.1579 23.4862H27.0526C27.4699 23.4862 27.8701 23.3209 28.1653 23.0266C28.4604 22.7323 28.6263 22.3331 28.6263 21.9168V5.01237C28.6263 4.59685 28.4611 4.19833 28.167 3.90417C27.8728 3.61001 27.4738 3.44418 27.0574 3.44293C27.0574 3.44293 27.0574 3.44293 27.0574 3.44293L4.95212 3.36946ZM4.95733 2.10002L4.95736 2.10002L27.0626 2.17202C27.0626 2.17202 27.0626 2.17202 27.0626 2.17202C27.8161 2.17466 28.5378 2.47498 29.0697 3.00711C29.6015 3.53924 29.9 4.25979 29.9 5.0109V21.9168C29.9 22.6696 29.6001 23.3916 29.0661 23.9241C28.5322 24.4565 27.8079 24.7557 27.0526 24.7557H21.4629H21.4216L21.3923 24.7849L16.4511 29.7133L16.451 29.7134C16.3918 29.7725 16.3216 29.8195 16.2442 29.8515L16.2824 29.9439L16.2442 29.8515C16.1668 29.8835 16.0838 29.9 16 29.9C15.9162 29.9 15.8332 29.8835 15.7558 29.8515L15.7176 29.9439L15.7558 29.8515C15.6784 29.8195 15.6082 29.7725 15.549 29.7134L15.5489 29.7133L10.6077 24.7849L10.5784 24.7557H10.5371H4.94737C4.19211 24.7557 3.46784 24.4565 2.93387 23.9241C2.39992 23.3916 2.1 22.6696 2.1 21.9168V4.93889C2.1 4.56529 2.17396 4.19535 2.31765 3.8503C2.46135 3.50524 2.67195 3.19184 2.93739 2.92809C3.20284 2.66433 3.51791 2.4554 3.86454 2.31329C4.21117 2.17119 4.58254 2.09871 4.95733 2.10002Z" fill="#F04E39" stroke="white" stroke-width="0.2"/>
</svg>
