<svg width="23" height="24" viewBox="0 0 23 24" fill="none" xmlns="http://www.w3.org/2000/svg">
<path d="M7.09581 12.8803C7.73487 12.8807 8.3597 12.6916 8.89127 12.3369C9.42284 11.9822 9.83727 11.4778 10.0821 10.8875C10.327 10.2972 10.3913 9.64757 10.2669 9.02074C10.1425 8.39391 9.83499 7.81805 9.38327 7.36602C8.93155 6.91398 8.35591 6.60606 7.72916 6.48123C7.10242 6.35639 6.45273 6.42023 5.86228 6.66469C5.27183 6.90914 4.76714 7.32322 4.41205 7.85454C4.05696 8.38587 3.86743 9.01057 3.86743 9.64962C3.86862 10.5057 4.20907 11.3264 4.81418 11.9319C5.4193 12.5374 6.23975 12.8785 7.09581 12.8803ZM7.09581 7.09853C7.60101 7.09808 8.09498 7.24751 8.51523 7.5279C8.93547 7.8083 9.26309 8.20705 9.45663 8.67371C9.65016 9.14037 9.70092 9.65395 9.60247 10.1495C9.50402 10.645 9.26079 11.1001 8.90356 11.4574C8.54633 11.8146 8.09116 12.0578 7.59565 12.1563C7.10014 12.2547 6.58655 12.204 6.1199 12.0104C5.65324 11.8169 5.25449 11.4893 4.97409 11.069C4.6937 10.6488 4.54427 10.1548 4.54471 9.64962C4.54591 8.9734 4.81507 8.32521 5.29323 7.84704C5.7714 7.36888 6.41958 7.09972 7.09581 7.09853ZM7.09581 8.61112V7.93384C7.55107 7.93384 7.98772 8.11454 8.30985 8.43624C8.63198 8.75795 8.81325 9.19436 8.81385 9.64962H8.13657C8.13597 9.37399 8.02605 9.10985 7.83094 8.91515C7.63582 8.72046 7.37145 8.61112 7.09581 8.61112ZM15.4264 9.17778C16.0657 9.17778 16.6907 8.98808 17.2222 8.63269C17.7536 8.2773 18.1677 7.77221 18.412 7.18136C18.6562 6.59051 18.7197 5.94048 18.5943 5.31355C18.4689 4.68662 18.1603 4.111 17.7076 3.65955C17.2549 3.2081 16.6784 2.90112 16.0511 2.77749C15.4238 2.65386 14.774 2.71912 14.1838 2.96503C13.5936 3.21093 13.0897 3.62642 12.7358 4.15888C12.3819 4.69134 12.194 5.31683 12.1957 5.95618C12.1987 6.81124 12.5403 7.63031 13.1458 8.23409C13.7513 8.83787 14.5713 9.17719 15.4264 9.17778ZM15.4264 3.39379C15.931 3.39379 16.4243 3.54332 16.844 3.82349C17.2637 4.10366 17.591 4.50191 17.7845 4.96794C17.978 5.43398 18.0291 5.94691 17.9313 6.44197C17.8335 6.93702 17.5912 7.392 17.235 7.74945C16.8789 8.1069 16.4247 8.35079 15.93 8.45033C15.4353 8.54987 14.9222 8.50059 14.4555 8.30872C13.9888 8.11685 13.5894 7.79098 13.3077 7.37227C13.0261 6.95357 12.8748 6.46079 12.873 5.95618C12.8721 5.62019 12.9375 5.28732 13.0654 4.97663C13.1933 4.66593 13.3812 4.3835 13.6184 4.1455C13.8555 3.90751 14.1373 3.71861 14.4475 3.58962C14.7578 3.46063 15.0904 3.39409 15.4264 3.39379ZM15.4264 4.90639V4.22911C15.6526 4.2297 15.8765 4.27484 16.0852 4.36195C16.294 4.44907 16.4836 4.57645 16.6431 4.73682C16.8026 4.8972 16.929 5.08742 17.015 5.29664C17.101 5.50586 17.145 5.72997 17.1444 5.95618H16.4671C16.468 5.81883 16.4418 5.68265 16.3899 5.55547C16.338 5.42829 16.2615 5.31261 16.1648 5.21507C16.0681 5.11753 15.9531 5.04005 15.8264 4.98708C15.6997 4.9341 15.5637 4.90668 15.4264 4.90639ZM12.5908 15.1604C12.6105 15.2316 12.6529 15.2944 12.7116 15.3392C12.7703 15.3841 12.8421 15.4085 12.9159 15.4088C12.9473 15.4087 12.9784 15.4042 13.0085 15.3952L14.9703 14.8444L16.9299 14.2935L18.8941 13.7427C18.9786 13.7161 19.0495 13.6576 19.0916 13.5796C19.1337 13.5016 19.1439 13.4103 19.1198 13.325L18.5757 11.3744C18.5491 11.2899 18.4906 11.219 18.4127 11.1769C18.3347 11.1347 18.2434 11.1246 18.1581 11.1487L16.1962 11.6995L14.2344 12.2504L12.2725 12.8012C12.1868 12.8267 12.1141 12.8841 12.0693 12.9615C12.0261 13.0401 12.0155 13.1326 12.04 13.2189L12.5908 15.1604ZM15.6689 12.5324C15.8816 12.4727 16.1024 12.5966 16.1622 12.8093L16.3136 13.3479C16.3734 13.5608 16.2491 13.7819 16.0361 13.8414L15.497 13.992C15.2846 14.0513 15.0642 13.9275 15.0044 13.7151L14.853 13.1774C14.7931 12.9647 14.9171 12.7437 15.1298 12.6839L15.6689 12.5324ZM18.2734 12.7954C18.3331 13.0081 18.2092 13.229 17.9965 13.2887L17.4573 13.4403C17.2446 13.5001 17.0237 13.3761 16.964 13.1634L16.8124 12.6242C16.7526 12.4115 16.8766 12.1906 17.0893 12.1309L17.6285 11.9793C17.8412 11.9196 18.062 12.0435 18.1218 12.2562L18.2734 12.7954ZM13.7071 13.0833C13.9197 13.0235 14.1406 13.1475 14.2004 13.3602L14.3519 13.8994C14.4117 14.1121 14.2877 14.3329 14.075 14.3927L13.5358 14.5443C13.3231 14.604 13.1023 14.4801 13.0425 14.2674L12.8909 13.7281C12.8312 13.5155 12.9551 13.2946 13.1678 13.2348L13.7071 13.0833ZM8.65807 4.91993C8.65807 5.10696 8.50646 5.25857 8.31943 5.25857C8.13241 5.25857 7.98079 5.10696 7.98079 4.91993V2.56751C7.98079 2.38048 8.13241 2.22887 8.31943 2.22887C8.50646 2.22887 8.65807 2.38048 8.65807 2.56751V4.91993ZM6.21309 3.28091C6.21309 3.46794 6.06147 3.61955 5.87445 3.61955C5.68742 3.61955 5.5358 3.46794 5.5358 3.28091V0.928485C5.5358 0.741459 5.68742 0.589844 5.87445 0.589844C6.06147 0.589844 6.21309 0.741459 6.21309 0.928485V3.28091Z" fill="white"/>
<path d="M7.09581 12.8803C7.73487 12.8807 8.3597 12.6916 8.89127 12.3369C9.42284 11.9822 9.83727 11.4778 10.0821 10.8875C10.327 10.2972 10.3913 9.64757 10.2669 9.02074C10.1425 8.39391 9.83499 7.81805 9.38327 7.36602C8.93155 6.91398 8.35591 6.60606 7.72916 6.48123C7.10242 6.35639 6.45273 6.42023 5.86228 6.66469C5.27183 6.90914 4.76714 7.32322 4.41205 7.85454C4.05696 8.38587 3.86743 9.01057 3.86743 9.64962C3.86862 10.5057 4.20907 11.3264 4.81418 11.9319C5.4193 12.5374 6.23975 12.8785 7.09581 12.8803ZM7.09581 7.09853C7.60101 7.09808 8.09498 7.24751 8.51523 7.5279C8.93547 7.8083 9.26309 8.20705 9.45663 8.67371C9.65016 9.14037 9.70092 9.65395 9.60247 10.1495C9.50402 10.645 9.26079 11.1001 8.90356 11.4574C8.54633 11.8146 8.09116 12.0578 7.59565 12.1563C7.10014 12.2547 6.58655 12.204 6.1199 12.0104C5.65324 11.8169 5.25449 11.4893 4.97409 11.069C4.6937 10.6488 4.54427 10.1548 4.54471 9.64962C4.54591 8.9734 4.81507 8.32521 5.29323 7.84704C5.7714 7.36888 6.41958 7.09972 7.09581 7.09853ZM7.09581 8.61112V7.93384C7.55107 7.93384 7.98772 8.11454 8.30985 8.43624C8.63198 8.75795 8.81325 9.19436 8.81385 9.64962H8.13657C8.13597 9.37399 8.02605 9.10985 7.83094 8.91515C7.63582 8.72046 7.37145 8.61112 7.09581 8.61112ZM15.4264 9.17778C16.0657 9.17778 16.6907 8.98808 17.2222 8.63269C17.7536 8.2773 18.1677 7.77221 18.412 7.18136C18.6562 6.59051 18.7197 5.94048 18.5943 5.31355C18.4689 4.68662 18.1603 4.111 17.7076 3.65955C17.2549 3.2081 16.6784 2.90112 16.0511 2.77749C15.4238 2.65386 14.774 2.71912 14.1838 2.96503C13.5936 3.21093 13.0897 3.62642 12.7358 4.15888C12.3819 4.69134 12.194 5.31683 12.1957 5.95618C12.1987 6.81124 12.5403 7.63031 13.1458 8.23409C13.7513 8.83787 14.5713 9.17719 15.4264 9.17778ZM15.4264 3.39379C15.931 3.39379 16.4243 3.54332 16.844 3.82349C17.2637 4.10366 17.591 4.50191 17.7845 4.96794C17.978 5.43398 18.0291 5.94691 17.9313 6.44197C17.8335 6.93702 17.5912 7.392 17.235 7.74945C16.8789 8.1069 16.4247 8.35079 15.93 8.45033C15.4353 8.54987 14.9222 8.50059 14.4555 8.30872C13.9888 8.11685 13.5894 7.79098 13.3077 7.37227C13.0261 6.95357 12.8748 6.46079 12.873 5.95618C12.8721 5.62019 12.9375 5.28732 13.0654 4.97663C13.1933 4.66593 13.3812 4.3835 13.6184 4.1455C13.8555 3.90751 14.1373 3.71861 14.4475 3.58962C14.7578 3.46063 15.0904 3.39409 15.4264 3.39379ZM15.4264 4.90639V4.22911C15.6526 4.2297 15.8765 4.27484 16.0852 4.36195C16.294 4.44907 16.4836 4.57645 16.6431 4.73682C16.8026 4.8972 16.929 5.08742 17.015 5.29664C17.101 5.50586 17.145 5.72997 17.1444 5.95618H16.4671C16.468 5.81883 16.4418 5.68265 16.3899 5.55547C16.338 5.42829 16.2615 5.31261 16.1648 5.21507C16.0681 5.11753 15.9531 5.04005 15.8264 4.98708C15.6997 4.9341 15.5637 4.90668 15.4264 4.90639ZM12.5908 15.1604C12.6105 15.2316 12.6529 15.2944 12.7116 15.3392C12.7703 15.3841 12.8421 15.4085 12.9159 15.4088C12.9473 15.4087 12.9784 15.4042 13.0085 15.3952L14.9703 14.8444L16.9299 14.2935L18.8941 13.7427C18.9786 13.7161 19.0495 13.6576 19.0916 13.5796C19.1337 13.5016 19.1439 13.4103 19.1198 13.325L18.5757 11.3744C18.5491 11.2899 18.4906 11.219 18.4127 11.1769C18.3347 11.1347 18.2434 11.1246 18.1581 11.1487L16.1962 11.6995L14.2344 12.2504L12.2725 12.8012C12.1868 12.8267 12.1141 12.8841 12.0693 12.9615C12.0261 13.0401 12.0155 13.1326 12.04 13.2189L12.5908 15.1604ZM15.6689 12.5324C15.8816 12.4727 16.1024 12.5966 16.1622 12.8093L16.3136 13.3479C16.3734 13.5608 16.2491 13.7819 16.0361 13.8414L15.497 13.992C15.2846 14.0513 15.0642 13.9275 15.0044 13.7151L14.853 13.1774C14.7931 12.9647 14.9171 12.7437 15.1298 12.6839L15.6689 12.5324ZM18.2734 12.7954C18.3331 13.0081 18.2092 13.229 17.9965 13.2887L17.4573 13.4403C17.2446 13.5001 17.0237 13.3761 16.964 13.1634L16.8124 12.6242C16.7526 12.4115 16.8766 12.1906 17.0893 12.1309L17.6285 11.9793C17.8412 11.9196 18.062 12.0435 18.1218 12.2562L18.2734 12.7954ZM13.7071 13.0833C13.9197 13.0235 14.1406 13.1475 14.2004 13.3602L14.3519 13.8994C14.4117 14.1121 14.2877 14.3329 14.075 14.3927L13.5358 14.5443C13.3231 14.604 13.1023 14.4801 13.0425 14.2674L12.8909 13.7281C12.8312 13.5155 12.9551 13.2946 13.1678 13.2348L13.7071 13.0833ZM8.65807 4.91993C8.65807 5.10696 8.50646 5.25857 8.31943 5.25857C8.13241 5.25857 7.98079 5.10696 7.98079 4.91993V2.56751C7.98079 2.38048 8.13241 2.22887 8.31943 2.22887C8.50646 2.22887 8.65807 2.38048 8.65807 2.56751V4.91993ZM6.21309 3.28091C6.21309 3.46794 6.06147 3.61955 5.87445 3.61955C5.68742 3.61955 5.5358 3.46794 5.5358 3.28091V0.928485C5.5358 0.741459 5.68742 0.589844 5.87445 0.589844C6.06147 0.589844 6.21309 0.741459 6.21309 0.928485V3.28091Z" stroke="white"/>
<path d="M12.2304 16.4082C12.4622 16.4082 12.8365 16.4437 13.1378 16.6437C13.416 16.8285 13.5551 17.1045 13.5485 17.459C13.5286 18.4187 12.0847 19.0543 9.78288 19.1201C9.50799 19.1277 9.28278 19.1632 9.10063 19.2113C9.18012 19.3961 9.34571 19.6747 9.65372 19.8367C9.89549 19.9633 10.1836 19.9988 10.538 19.9431C10.9387 19.8798 11.8396 19.4873 12.7934 19.072C15.327 17.968 18.7979 16.4563 20.2816 17.6363C20.4406 17.7604 20.5168 17.9325 20.4969 18.1098C20.4737 18.2921 20.3512 18.4592 20.1558 18.5656L12.6974 22.66C11.5349 23.2981 10.0644 23.5438 8.65683 23.3361L2.76826 22.4651C2.6126 22.4423 2.5 22.3385 2.5 22.2169L2.5 18.5048C2.5 18.4314 2.54305 18.3605 2.61592 18.3124C2.68878 18.2643 2.78482 18.2415 2.88087 18.2541C2.89412 18.2567 4.38448 18.4086 5.26544 17.4616C6.36168 16.2841 7.4778 16.3955 8.66015 16.512L8.76944 16.5221C9.98822 16.6412 11.9985 16.4234 12.0151 16.4234C12.0383 16.4183 12.1178 16.4082 12.2304 16.4082ZM8.68664 17.021L8.57735 17.0108C7.38837 16.8944 6.66969 16.8235 5.80528 17.7528C4.98393 18.6365 3.77508 18.7656 3.16238 18.7682L3.16238 22.0067L8.78269 22.8398C10.0081 23.0221 11.2931 22.8069 12.3099 22.2498L19.7683 18.1528C19.8047 18.1326 19.8312 18.0997 19.8345 18.0617C19.8378 18.0414 19.8345 18.011 19.8014 17.9857C18.6754 17.0893 15.3303 18.5479 13.118 19.5101C12.0284 19.9836 11.1706 20.3583 10.6638 20.4368C10.1306 20.5204 9.66034 20.4571 9.26954 20.2494C8.87211 20.0393 8.64359 19.7228 8.51773 19.4771C8.44156 19.5379 8.40844 19.5835 8.40513 19.5886C8.32564 19.7152 8.12693 19.7658 7.96133 19.705C7.79574 19.6443 7.7295 19.4923 7.80899 19.3657C7.82223 19.348 8.01101 19.0593 8.53429 18.8466C8.54423 18.8416 8.55085 18.839 8.56079 18.8365C8.85224 18.7226 9.23973 18.6289 9.74976 18.6162C11.1805 18.5757 12.8596 18.2465 12.8762 17.4514C12.8795 17.2539 12.8199 17.1121 12.6974 17.0286C12.5185 16.907 12.2138 16.9096 12.1078 16.9222C12.0416 16.9298 10.8063 17.064 9.64378 17.064C9.31259 17.0615 8.9814 17.0514 8.68664 17.021Z" fill="white" stroke="white" stroke-width="0.2"/>
</svg>
