<svg width="25" height="24" viewBox="0 0 25 24" fill="none" xmlns="http://www.w3.org/2000/svg">
<g clip-path="url(#clip0_6611_8775)">
<path d="M20.5384 6.81622C20.5384 7.46831 20.5384 8.12041 20.5384 8.77251C20.5384 10.2489 20.5384 11.7252 20.5384 13.2016C20.5384 14.7824 20.5384 16.3631 20.5384 17.9438C20.5384 18.9091 20.5384 19.8743 20.5384 20.8396C20.5384 20.9004 20.5384 20.9612 20.5384 21.0219C20.5384 21.0693 20.5363 21.1165 20.5331 21.1638C20.5317 21.1846 20.5165 21.2993 20.5331 21.1835C20.5284 21.2169 20.5217 21.2499 20.515 21.2829C20.4997 21.359 20.4772 21.4335 20.4521 21.5068C20.4456 21.5257 20.403 21.6291 20.4475 21.5251C20.4346 21.5552 20.4201 21.5846 20.4056 21.6138C20.3767 21.6722 20.3431 21.728 20.3081 21.7828C20.2906 21.8102 20.2717 21.8365 20.2528 21.8628C20.3173 21.773 20.2537 21.8606 20.2406 21.8763C20.1923 21.9343 20.1388 21.9877 20.0837 22.0391C20.06 22.0611 20.0352 22.0819 20.0104 22.1026C19.9259 22.1732 20.0849 22.0486 19.9954 22.113C19.9427 22.1509 19.887 22.1845 19.8305 22.2165C19.8021 22.2325 19.7729 22.247 19.7437 22.2615C19.7255 22.2705 19.6233 22.3128 19.7276 22.2704C19.6561 22.2995 19.582 22.3219 19.5074 22.3414C19.475 22.3499 19.4422 22.3565 19.4094 22.3631C19.3888 22.3673 19.2757 22.3825 19.3912 22.3681C19.3229 22.3766 19.254 22.3792 19.1851 22.3799C19.1817 22.3799 19.1783 22.3799 19.1749 22.3799C19.1017 22.3799 19.0284 22.3799 18.9551 22.3799C17.9268 22.3799 16.8985 22.3799 15.8702 22.3799C14.2667 22.3799 12.6631 22.3799 11.0596 22.3799C9.68259 22.3799 8.30555 22.3799 6.92849 22.3799C6.57542 22.3799 6.22235 22.3799 5.86929 22.3799C5.82045 22.3799 5.77163 22.3799 5.72279 22.3799C5.65383 22.3799 5.58526 22.3753 5.51672 22.3681C5.63196 22.3802 5.51975 22.367 5.49863 22.3631C5.46572 22.3571 5.43315 22.3492 5.40065 22.3414C5.33626 22.3258 5.27331 22.3049 5.21113 22.2822C5.10604 22.2439 5.29552 22.3213 5.19391 22.2755C5.15424 22.2576 5.11578 22.2372 5.07755 22.2164C5.02043 22.1855 4.96598 22.1499 4.91261 22.113C4.82201 22.0502 4.98339 22.1716 4.89761 22.1026C4.87244 22.0823 4.84837 22.0607 4.82432 22.0391C4.7762 21.9959 4.73168 21.9489 4.68856 21.9008C4.66694 21.8767 4.64667 21.8515 4.62642 21.8263C4.69889 21.9164 4.61234 21.8015 4.59989 21.7828C4.56382 21.7286 4.53227 21.6716 4.50236 21.6138C4.48733 21.5848 4.47389 21.555 4.46045 21.5251C4.50663 21.6278 4.46288 21.526 4.4559 21.5068C4.43317 21.4444 4.41576 21.3801 4.40016 21.3156C4.39228 21.283 4.38622 21.2499 4.38021 21.2169C4.37246 21.1674 4.37283 21.1724 4.38128 21.2319C4.37869 21.2092 4.37651 21.1866 4.37477 21.1638C4.37024 21.1113 4.36952 21.0585 4.36952 21.0058C4.36952 20.9391 4.36952 20.8725 4.36952 20.8058C4.36952 20.4813 4.36952 20.1568 4.36952 19.8322C4.36952 18.6133 4.36952 17.3944 4.36952 16.1755C4.36952 14.5686 4.36952 12.9616 4.36952 11.3547C4.36952 9.80569 4.36952 8.25673 4.36952 6.70774C4.36952 5.6628 4.36952 4.61787 4.36952 3.57293C4.36952 3.37886 4.36952 3.18478 4.36952 2.99071C4.36952 2.91628 4.3735 2.84219 4.38128 2.76815C4.36915 2.88346 4.38239 2.77116 4.38624 2.75005C4.39226 2.71709 4.40013 2.68452 4.40798 2.65197C4.42356 2.58753 4.4445 2.52453 4.46716 2.46228C4.50544 2.35711 4.4281 2.54673 4.47389 2.44505C4.4873 2.41526 4.50233 2.38623 4.51736 2.35724C4.55224 2.28989 4.59321 2.22584 4.63631 2.16351C4.69902 2.07284 4.57768 2.23435 4.6467 2.14852C4.66694 2.12331 4.68856 2.09925 4.71014 2.07518C4.75332 2.02705 4.8003 1.9825 4.84837 1.93934C4.87242 1.91771 4.89763 1.89742 4.9228 1.87716C4.8363 1.94682 4.92277 1.88002 4.93925 1.8686C5.00163 1.82539 5.06781 1.78793 5.13511 1.75302C5.16412 1.73798 5.19396 1.72453 5.22375 1.71111C5.12119 1.75732 5.22288 1.71354 5.24205 1.70656C5.30444 1.68383 5.3686 1.66638 5.43307 1.65079C5.46569 1.64291 5.49873 1.63687 5.53172 1.63083C5.64488 1.61014 5.43541 1.64047 5.5506 1.62834C5.60779 1.62232 5.66563 1.62014 5.72311 1.62014C6.61405 1.62014 7.50497 1.62014 8.39588 1.62014C9.98195 1.62014 11.568 1.62014 13.1541 1.62014C13.8848 1.62014 14.6155 1.62014 15.3462 1.62014C15.2438 1.57767 15.1413 1.53518 15.0388 1.49272C15.742 2.19641 16.4451 2.90009 17.1483 3.6038C18.1791 4.63539 19.2099 5.66698 20.2407 6.69857C20.3824 6.84033 20.524 6.98209 20.6657 7.12385C20.8332 7.29147 21.113 7.29147 21.2805 7.12385C21.448 6.95624 21.448 6.67617 21.2805 6.50855C20.5773 5.80486 19.8742 5.10118 19.171 4.39747C18.1402 3.36588 17.1094 2.33429 16.0786 1.3027C15.8823 1.10629 15.6276 0.75 15.3248 0.75C15.0004 0.75 14.6761 0.75 14.3517 0.75C12.8731 0.75 11.3945 0.75 9.91594 0.75C8.63261 0.75 7.34927 0.75 6.06594 0.75C5.9587 0.75 5.85143 0.75 5.74415 0.75C5.30476 0.75 4.8671 0.872892 4.50035 1.11723C3.84387 1.55455 3.5 2.27775 3.5 3.05647C3.5 3.79293 3.5 4.52938 3.5 5.26584C3.5 6.67582 3.5 8.0858 3.5 9.49579C3.5 11.1333 3.5 12.7707 3.5 14.4082C3.5 15.8271 3.5 17.246 3.5 18.6649C3.5 19.4192 3.5 20.1735 3.5 20.9278C3.5 21.6319 3.76547 22.3172 4.33348 22.758C4.7376 23.0716 5.21647 23.25 5.73141 23.25C5.80283 23.25 5.87423 23.25 5.94565 23.25C6.96908 23.25 7.99251 23.25 9.01593 23.25C10.6186 23.25 12.2212 23.25 13.8238 23.25C15.204 23.25 16.5842 23.25 17.9643 23.25C18.3205 23.25 18.6766 23.25 19.0328 23.25C19.0835 23.25 19.1342 23.25 19.185 23.25C19.8072 23.25 20.4184 22.9796 20.8342 22.5161C21.2008 22.1074 21.4078 21.5716 21.4078 21.0219C21.4078 20.9611 21.4078 20.9003 21.4078 20.8395C21.4078 20.4788 21.4078 20.1181 21.4078 19.7575C21.4078 18.3945 21.4078 17.0315 21.4078 15.6685C21.4078 14.05 21.4078 12.4314 21.4078 10.8129C21.4078 9.65868 21.4078 8.50445 21.4078 7.35025C21.4078 7.17221 21.4078 6.9942 21.4078 6.81619C21.4078 6.57901 21.21 6.38111 20.973 6.38111C20.736 6.38111 20.5384 6.57906 20.5384 6.81622Z" fill="black"/>
<path d="M6.46248 6.91044C7.1063 6.91044 7.75015 6.91044 8.39397 6.91044C9.73715 6.91044 11.0803 6.91044 12.4235 6.91044C13.5836 6.91044 14.7437 6.91044 15.9037 6.91044C16.145 6.91044 16.3862 6.91044 16.6274 6.91044C16.8305 6.91044 17 6.71254 17 6.47536C17 6.23818 16.8305 6.04028 16.6274 6.04028C15.9836 6.04028 15.3397 6.04028 14.6959 6.04028C13.3527 6.04028 12.0096 6.04028 10.6664 6.04028C9.5063 6.04028 8.34623 6.04028 7.18616 6.04028C6.94493 6.04028 6.70371 6.04028 6.4625 6.04028C6.25935 6.04028 6.08984 6.23818 6.08984 6.47536C6.08984 6.71254 6.25935 6.91044 6.46248 6.91044Z" fill="black"/>
<path d="M6.46248 10.2828C7.26627 10.2828 8.07004 10.2828 8.8738 10.2828C10.1962 10.2828 11.5186 10.2828 12.841 10.2828C13.2051 10.2828 13.5693 10.2828 13.9335 10.2828C14.1366 10.2828 14.3061 10.0849 14.3061 9.84768C14.3061 9.6105 14.1366 9.4126 13.9335 9.4126C13.1297 9.4126 12.3259 9.4126 11.5222 9.4126C10.1998 9.4126 8.87738 9.4126 7.555 9.4126C7.19084 9.4126 6.82666 9.4126 6.4625 9.4126C6.25935 9.4126 6.08984 9.6105 6.08984 9.84768C6.08984 10.0849 6.25935 10.2828 6.46248 10.2828Z" fill="black"/>
<path d="M11.4688 12.4688L14.3409 19.3628L15.3606 16.3606L18.3628 15.3409L11.4688 12.4688Z" stroke="black" stroke-width="0.75" stroke-linecap="round" stroke-linejoin="round"/>
<path d="M15.5312 16.5312L17.9688 18.9688" stroke="black" stroke-width="0.75" stroke-linecap="round" stroke-linejoin="round"/>
</g>
<defs>
<clipPath id="clip0_6611_8775">
<rect width="24" height="24" fill="white" transform="translate(0.5)"/>
</clipPath>
</defs>
</svg>
