<svg width="23" height="22" viewBox="0 0 23 22" fill="none" xmlns="http://www.w3.org/2000/svg">
<path fill-rule="evenodd" clip-rule="evenodd" d="M15.7962 14.8953L15.3739 14.8581L15.2736 14.8593L14.8384 14.9108L14.4289 15.031L14.029 15.2277L13.6902 15.472L13.4479 15.708L13.2376 15.9741L13.0641 16.266L12.9664 16.482L12.8667 16.7868H3.14286C2.788 16.7868 2.5 17.0748 2.5 17.4297C2.5 17.7846 2.788 18.0726 3.14286 18.0726H12.8667L12.9561 18.3503L13.0634 18.592L13.1798 18.7971L13.3784 19.0716L13.5925 19.2999L13.8522 19.5146L14.1878 19.7203L14.5786 19.8811L14.9984 19.9762L15.4407 20L15.8759 19.9486L16.2854 19.8283L16.6853 19.6316L17.0241 19.3873L17.2664 19.1514L17.4766 18.8852L17.6502 18.5933L17.7479 18.3773L17.8476 18.0726H19.8571C20.212 18.0726 20.5 17.7846 20.5 17.4297C20.5 17.0748 20.212 16.7868 19.8571 16.7868H17.8476L17.7582 16.509L17.6509 16.2673L17.5345 16.0622L17.3359 15.7877L17.1218 15.5595L16.8621 15.3447L16.5747 15.1641L16.1884 14.9956L15.7962 14.8953ZM8.08193 8.46632L7.65957 8.42903L7.55929 8.43032L7.12407 8.48175L6.71457 8.60197L6.31471 8.7987L5.97593 9.043L5.73357 9.27895L5.52336 9.54511L5.34978 9.83699L5.25207 10.053L5.15243 10.3577H3.14286C2.788 10.3577 2.5 10.6458 2.5 11.0006C2.5 11.3555 2.788 11.6435 3.14286 11.6435H5.15243L5.24179 11.9213L5.34914 12.163L5.4655 12.3681L5.66414 12.6426L5.87821 12.8708L6.13793 13.0856L6.4735 13.2913L6.86436 13.452L7.28414 13.5472L7.72643 13.571L8.16164 13.5195L8.57114 13.3993L8.971 13.2026L9.30978 12.9583L9.55214 12.7223L9.76236 12.4562L9.93593 12.1643L10.0336 11.9483L10.1333 11.6435H19.8571C20.212 11.6435 20.5 11.3555 20.5 11.0006C20.5 10.6458 20.212 10.3577 19.8571 10.3577H10.1333L10.0439 10.08L9.93657 9.83827L9.82021 9.63319L9.62157 9.35867L9.4075 9.13044L9.14779 8.91571L8.86043 8.73505L8.47407 8.56661L8.08193 8.46632ZM15.3571 2C14.1601 2 13.1528 2.82034 12.8667 3.92871H3.14286C2.788 3.92871 2.5 4.21673 2.5 4.57161C2.5 4.92649 2.788 5.21451 3.14286 5.21451H12.8667C13.1528 6.32288 14.1601 7.14322 15.3571 7.14322C16.5541 7.14322 17.5615 6.32288 17.8476 5.21451H19.8571C20.212 5.21451 20.5 4.92649 20.5 4.57161C20.5 4.21673 20.212 3.92871 19.8571 3.92871H17.8476C17.5615 2.82034 16.5541 2 15.3571 2ZM15.3571 18.7143C16.0672 18.7143 16.6429 18.1387 16.6429 17.4286C16.6429 16.7185 16.0672 16.1429 15.3571 16.1429C14.6471 16.1429 14.0714 16.7185 14.0714 17.4286C14.0714 18.1387 14.6471 18.7143 15.3571 18.7143ZM16.6429 4.57143C16.6429 5.28151 16.0672 5.85714 15.3571 5.85714C14.6471 5.85714 14.0714 5.28151 14.0714 4.57143C14.0714 3.86135 14.6471 3.28571 15.3571 3.28571C16.0672 3.28571 16.6429 3.86135 16.6429 4.57143ZM7.64286 12.2857C8.35294 12.2857 8.92857 11.7101 8.92857 11C8.92857 10.2899 8.35294 9.71429 7.64286 9.71429C6.93278 9.71429 6.35714 10.2899 6.35714 11C6.35714 11.7101 6.93278 12.2857 7.64286 12.2857Z" fill="#FF8926"/>
</svg>
