<svg width="20" height="20" viewBox="0 0 20 20" fill="none" xmlns="http://www.w3.org/2000/svg">
<path fill-rule="evenodd" clip-rule="evenodd" d="M11.3106 1.48437C9.68331 1.48437 8.36411 2.72607 8.36411 4.2578C8.36411 5.78952 9.68331 7.03123 11.3106 7.03123C12.9378 7.03123 14.257 5.78952 14.257 4.2578C14.257 2.72607 12.9378 1.48437 11.3106 1.48437ZM7.18555 4.2578C7.18555 2.11338 9.03239 0.375 11.3106 0.375C13.5887 0.375 15.4355 2.11338 15.4355 4.2578C15.4355 6.4022 13.5887 8.1406 11.3106 8.1406C9.03239 8.1406 7.18555 6.4022 7.18555 4.2578Z" fill="#FF8926" stroke="#FF8926" stroke-width="0.6"/>
<path fill-rule="evenodd" clip-rule="evenodd" d="M8.18711 10.4595C8.18711 10.2058 8.42418 10 8.71662 10H12.5677C15.828 10 18.6412 11.9852 19.3063 14.7553L19.5457 15.7518C20.0254 17.7495 18.2683 19.625 15.9171 19.625H6.83029C4.53343 19.625 2.7902 17.8295 3.17959 15.8651C3.33652 15.0733 3.61866 14.3042 4.01802 13.5795L4.87488 12.0246C5.00105 11.7956 5.31721 11.6988 5.58103 11.8083C5.84484 11.9178 5.95642 12.1922 5.83024 12.4212L4.97338 13.976C4.61608 14.6245 4.36366 15.3125 4.22326 16.0208C3.94519 17.4238 5.19006 18.7059 6.83029 18.7059H15.9171C17.5966 18.7059 18.8516 17.3662 18.5089 15.9393L18.2697 14.9428C17.7068 12.5988 15.3264 10.9191 12.5677 10.9191H8.71662C8.42418 10.9191 8.18711 10.7134 8.18711 10.4595Z" fill="#FF8926" stroke="#FF8926" stroke-width="0.6"/>
<path fill-rule="evenodd" clip-rule="evenodd" d="M0.418826 13.9427C0.301098 13.6785 0.42872 13.3726 0.703862 13.2596L5.18756 11.4171C5.4627 11.304 5.78117 11.4266 5.8989 11.6908L7.81729 15.9969C7.93501 16.2612 7.80739 16.5671 7.53225 16.6801C7.25711 16.7932 6.93863 16.6707 6.8209 16.4064L5.11567 12.5788L1.13016 14.2164C0.855023 14.3295 0.536542 14.2069 0.418826 13.9427Z" fill="#FF8926" stroke="#FF8926" stroke-width="0.6"/>
</svg>
