<svg width="24" height="24" viewBox="0 0 24 24" fill="none" xmlns="http://www.w3.org/2000/svg">
<g id="Icon" clip-path="url(#clip0_666_9727)">
<path id="Vector" d="M23.4828 0.0645879C23.3814 0.0223381 23.2727 0.000394231 23.1629 0H18.6977C18.4757 0 18.2628 0.0882057 18.1057 0.245213C17.9487 0.40222 17.8605 0.615167 17.8605 0.837209C17.8605 1.05925 17.9487 1.2722 18.1057 1.42921C18.2628 1.58621 18.4757 1.67442 18.6977 1.67442H21.1418L16.9895 5.82667C16.9113 5.9043 16.8492 5.99661 16.8068 6.0983C16.7643 6.19998 16.7424 6.30904 16.7422 6.41923C16.742 6.52942 16.7635 6.63857 16.8056 6.74041C16.8477 6.84225 16.9095 6.93478 16.9874 7.01269C17.0653 7.09061 17.1578 7.15237 17.2597 7.19445C17.3615 7.23652 17.4706 7.25808 17.5808 7.25788C17.691 7.25768 17.8001 7.23572 17.9018 7.19328C18.0035 7.15083 18.0958 7.08873 18.1734 7.01053L22.3256 2.85829V5.30232C22.3256 5.52437 22.4139 5.73731 22.5709 5.89432C22.7279 6.05133 22.9408 6.13953 23.1629 6.13953C23.3849 6.13953 23.5978 6.05133 23.7549 5.89432C23.9119 5.73731 24.0001 5.52437 24.0001 5.30232V0.837209C23.9994 0.671816 23.95 0.510283 23.858 0.372845C23.766 0.235408 23.6355 0.128178 23.4828 0.0645879Z" fill="#FF8926"/>
<path id="Vector_2" d="M11.9999 8.77782C12.316 8.77814 12.619 8.90381 12.8426 9.12728C13.0662 9.35075 13.192 9.65376 13.1924 9.96986C13.1924 10.1919 13.2806 10.4049 13.4377 10.5619C13.5947 10.7189 13.8076 10.8071 14.0297 10.8071C14.2517 10.8071 14.4646 10.7189 14.6216 10.5619C14.7787 10.4049 14.8669 10.1919 14.8669 9.96986C14.8647 9.35798 14.6663 8.76292 14.301 8.27206C13.9357 7.78121 13.4226 7.42042 12.8371 7.24267V6.41826C12.8371 6.19622 12.7489 5.98327 12.5919 5.82627C12.4348 5.66926 12.2219 5.58105 11.9999 5.58105C11.7778 5.58105 11.5649 5.66926 11.4079 5.82627C11.2509 5.98327 11.1626 6.19622 11.1626 6.41826V7.24267C10.5058 7.44162 9.94253 7.87022 9.57563 8.45019C9.20873 9.03015 9.06273 9.72276 9.1643 10.4015C9.26588 11.0802 9.60825 11.6997 10.1289 12.1469C10.6495 12.594 11.3136 12.8389 11.9999 12.8369C12.2357 12.8369 12.4661 12.9069 12.6622 13.0379C12.8582 13.169 13.011 13.3552 13.1012 13.573C13.1914 13.7909 13.215 14.0306 13.169 14.2619C13.123 14.4931 13.0094 14.7056 12.8427 14.8723C12.676 15.039 12.4635 15.1526 12.2323 15.1986C12.001 15.2446 11.7613 15.221 11.5434 15.1308C11.3256 15.0406 11.1394 14.8878 11.0083 14.6918C10.8773 14.4957 10.8073 14.2653 10.8073 14.0295C10.8073 13.8074 10.7191 13.5945 10.5621 13.4375C10.4051 13.2805 10.1921 13.1922 9.97006 13.1922C9.74802 13.1922 9.53507 13.2805 9.37806 13.4375C9.22106 13.5945 9.13285 13.8074 9.13285 14.0295C9.13506 14.6413 9.33339 15.2364 9.69873 15.7273C10.0641 16.2181 10.5771 16.5789 11.1626 16.7566V17.5811C11.1626 17.8031 11.2509 18.016 11.4079 18.173C11.5649 18.3301 11.7778 18.4183 11.9999 18.4183C12.2219 18.4183 12.4348 18.3301 12.5919 18.173C12.7489 18.016 12.8371 17.8031 12.8371 17.5811V16.7566C13.4939 16.5577 14.0572 16.1291 14.4241 15.5491C14.791 14.9692 14.937 14.2766 14.8354 13.5978C14.7338 12.9191 14.3915 12.2996 13.8709 11.8525C13.3502 11.4053 12.6861 11.1604 11.9999 11.1624C11.843 11.1629 11.6875 11.1324 11.5425 11.0727C11.3974 11.013 11.2655 10.9253 11.1544 10.8145C11.0433 10.7038 10.9551 10.5722 10.895 10.4273C10.8349 10.2824 10.8039 10.127 10.8039 9.97013C10.8039 9.81325 10.8349 9.65791 10.895 9.51301C10.9551 9.36811 11.0433 9.23651 11.1544 9.12575C11.2655 9.01498 11.3974 8.92724 11.5425 8.86753C11.6875 8.80783 11.843 8.77734 11.9999 8.77782Z" fill="#FF8926"/>
<path id="Vector_3" d="M23.1628 11.1628C22.9408 11.1628 22.7279 11.2511 22.5709 11.4081C22.4139 11.5651 22.3256 11.778 22.3256 12C22.3256 14.0422 21.72 16.0385 20.5854 17.7366C19.4508 19.4346 17.8382 20.7581 15.9514 21.5396C14.0647 22.3211 11.9885 22.5256 9.98558 22.1272C7.98262 21.7288 6.14277 20.7453 4.69872 19.3013C3.25466 17.8572 2.27124 16.0174 1.87283 14.0144C1.47441 12.0115 1.67889 9.93532 2.46041 8.04857C3.24193 6.16182 4.56539 4.54918 6.26342 3.41459C7.96145 2.28 9.9578 1.67442 12 1.67442C12.222 1.67442 12.435 1.58621 12.592 1.42921C12.749 1.2722 12.8372 1.05925 12.8372 0.837209C12.8372 0.615167 12.749 0.40222 12.592 0.245213C12.435 0.0882057 12.222 0 12 0C9.62663 0 7.30655 0.703788 5.33316 2.02236C3.35977 3.34094 1.8217 5.21508 0.913451 7.4078C0.00519941 9.60051 -0.232441 12.0133 0.230582 14.3411C0.693605 16.6689 1.83649 18.807 3.51472 20.4853C5.19295 22.1635 7.33115 23.3064 9.65892 23.7694C11.9867 24.2324 14.3995 23.9948 16.5922 23.0865C18.7849 22.1783 20.6591 20.6402 21.9776 18.6668C23.2962 16.6934 24 14.3734 24 12C23.9999 11.778 23.9117 11.5651 23.7547 11.4081C23.5977 11.2511 23.3848 11.1628 23.1628 11.1628Z" fill="#FF8926"/>
</g>
<defs>
<clipPath id="clip0_666_9727">
<rect width="24" height="24" fill="white"/>
</clipPath>
</defs>
</svg>
