<svg width="24" height="24" viewBox="0 0 24 24" fill="none" xmlns="http://www.w3.org/2000/svg">
<path d="M8.69489 6.72509L10.6821 8.72509L11.0539 8.3509L9.06412 6.3509C8.9872 6.27348 9.06412 6.00251 9.06412 6.00251L7.71796 4.83606L7.18463 5.37283L8.34617 6.72509C8.34617 6.72509 8.62822 6.66058 8.69489 6.72509Z" fill="white"/>
<path d="M13.5385 9.90967L12.2282 11.2284L15.0769 14.0903C15.1317 14.1457 15.1969 14.1897 15.2686 14.2197C15.3403 14.2497 15.4172 14.2651 15.4949 14.2651C15.5725 14.2651 15.6495 14.2497 15.7212 14.2197C15.7929 14.1897 15.858 14.1457 15.9128 14.0903L16.3769 13.6232C16.432 13.5681 16.4757 13.5025 16.5055 13.4303C16.5353 13.3581 16.5506 13.2807 16.5506 13.2026C16.5506 13.1244 16.5353 13.047 16.5055 12.9748C16.4757 12.9026 16.432 12.8371 16.3769 12.7819L13.5385 9.90967Z" fill="white"/>
<path d="M15.3795 7.15622C15.3054 7.23078 15.2174 7.28992 15.1207 7.33027C15.0239 7.37062 14.9201 7.39139 14.8154 7.39139C14.7106 7.39139 14.6069 7.37062 14.5101 7.33027C14.4133 7.28992 14.3253 7.23078 14.2513 7.15622C14.1772 7.08167 14.1184 6.99316 14.0783 6.89574C14.0382 6.79833 14.0176 6.69392 14.0176 6.58848C14.0176 6.48304 14.0382 6.37864 14.0783 6.28122C14.1184 6.18381 14.1772 6.0953 14.2513 6.02074L15.5 4.77687C15.2224 4.64763 14.9211 4.57819 14.6154 4.573C14.0293 4.57772 13.4685 4.81415 13.054 5.23127C12.6396 5.6484 12.4047 6.21279 12.4 6.80268C12.4051 7.11041 12.4741 7.41367 12.6025 7.693L7.4128 12.9059C7.33872 12.9805 7.27996 13.069 7.23986 13.1664C7.19977 13.2638 7.17914 13.3682 7.17914 13.4736C7.17914 13.5791 7.19977 13.6835 7.23986 13.7809C7.27996 13.8783 7.33872 13.9668 7.4128 14.0414C7.48688 14.1159 7.57482 14.1751 7.67161 14.2154C7.7684 14.2558 7.87214 14.2766 7.9769 14.2766C8.08166 14.2766 8.1854 14.2558 8.28219 14.2154C8.37898 14.1751 8.46692 14.1159 8.541 14.0414L13.7282 8.81558C14.0057 8.94482 14.307 9.01426 14.6128 9.01945C15.1989 9.01473 15.7597 8.7783 16.1741 8.36117C16.5886 7.94405 16.8235 7.37966 16.8282 6.78977C16.8198 6.48129 16.7473 6.17801 16.6154 5.89945L15.3795 7.15622Z" fill="white"/>
<path d="M18.9231 2H5.07692C4.26087 2 3.47824 2.32627 2.90121 2.90702C2.32417 3.48778 2 4.27546 2 5.09677V14.3871C2 14.7938 2.07959 15.1965 2.23422 15.5722C2.38885 15.9479 2.61549 16.2893 2.90121 16.5768C3.18693 16.8644 3.52613 17.0925 3.89944 17.2481C4.27274 17.4038 4.67286 17.4839 5.07692 17.4839H9.99487L14.2872 21.7419C14.4499 21.9055 14.67 21.9982 14.9 22C15.0189 22.0003 15.136 21.971 15.241 21.9148C15.3618 21.8513 15.4601 21.7517 15.5225 21.6297C15.585 21.5078 15.6084 21.3694 15.5897 21.2335L15.4923 17.4865H18.9231C19.7391 17.4865 20.5218 17.1602 21.0988 16.5794C21.6758 15.9987 22 15.211 22 14.3897V5.09935C22.0003 4.69246 21.921 4.28949 21.7665 3.91348C21.612 3.53746 21.3854 3.19577 21.0997 2.90794C20.8139 2.6201 20.4746 2.39176 20.1012 2.23597C19.7277 2.08019 19.3274 2 18.9231 2ZM20.9744 14.3871C20.9744 14.6582 20.9213 14.9267 20.8182 15.1772C20.7151 15.4276 20.564 15.6552 20.3736 15.8469C20.1831 16.0386 19.9569 16.1907 19.7081 16.2945C19.4592 16.3982 19.1925 16.4516 18.9231 16.4516H14.959C14.8905 16.4516 14.8228 16.4654 14.7597 16.4921C14.6966 16.5188 14.6395 16.558 14.5917 16.6073C14.544 16.6566 14.5065 16.715 14.4814 16.7792C14.4564 16.8433 14.4444 16.9118 14.4462 16.9806L14.5385 20.5394L10.5641 16.6013C10.4686 16.5059 10.3397 16.4522 10.2051 16.4516H5.07692C4.53289 16.4516 4.01114 16.2341 3.62645 15.8469C3.24176 15.4598 3.02564 14.9346 3.02564 14.3871V5.09677C3.02564 4.54923 3.24176 4.02411 3.62645 3.63694C4.01114 3.24977 4.53289 3.03226 5.07692 3.03226H18.9231C19.4671 3.03226 19.9889 3.24977 20.3736 3.63694C20.7582 4.02411 20.9744 4.54923 20.9744 5.09677V14.3871Z" fill="white"/>
</svg>
