<svg width="18" height="18" viewBox="0 0 18 18" fill="none" xmlns="http://www.w3.org/2000/svg">
<mask id="path-1-inside-1_7856_60263" fill="white">
<path fill-rule="evenodd" clip-rule="evenodd" d="M12.8739 12.8581L13.2962 12.8953L13.6884 12.9956L14.0747 13.1641L14.3621 13.3447L14.6218 13.5595L14.8359 13.7877L15.0345 14.0622L15.1509 14.2673L15.2582 14.509L15.3476 14.7868H17.3571C17.712 14.7868 18 15.0748 18 15.4297C18 15.7846 17.712 16.0726 17.3571 16.0726H15.3476L15.2479 16.3773L15.1502 16.5933L14.9766 16.8852L14.7664 17.1514L14.5241 17.3873L14.1853 17.6316L13.7854 17.8283L13.3759 17.9486L12.9407 18L12.4984 17.9762L12.0786 17.8811L11.6878 17.7203L11.3522 17.5146L11.0925 17.2999L10.8784 17.0716L10.6798 16.7971L10.5634 16.592L10.4561 16.3503L10.3667 16.0726H0.642857C0.288 16.0726 0 15.7846 0 15.4297C0 15.0748 0.288 14.7868 0.642857 14.7868H10.3667L10.4664 14.482L10.5641 14.266L10.7376 13.9741L10.9479 13.708L11.1902 13.472L11.529 13.2277L11.9289 13.031L12.3384 12.9108L12.7736 12.8593L12.8739 12.8581ZM5.15957 6.42903L5.58193 6.46632L5.97407 6.56661L6.36043 6.73505L6.64779 6.91571L6.9075 7.13044L7.12157 7.35867L7.32021 7.63319L7.43657 7.83827L7.54393 8.08001L7.63329 8.35774H17.3571C17.712 8.35774 18 8.64576 18 9.00064C18 9.35553 17.712 9.64355 17.3571 9.64355H7.63329L7.53364 9.94828L7.43593 10.1643L7.26236 10.4562L7.05214 10.7223L6.80978 10.9583L6.471 11.2026L6.07114 11.3993L5.66164 11.5195L5.22643 11.571L4.78414 11.5472L4.36436 11.452L3.9735 11.2913L3.63793 11.0856L3.37821 10.8708L3.16414 10.6426L2.9655 10.3681L2.84914 10.163L2.74179 9.92128L2.65243 9.64355H0.642857C0.288 9.64355 0 9.35553 0 9.00064C0 8.64576 0.288 8.35774 0.642857 8.35774H2.65243L2.75207 8.05301L2.84978 7.83699L3.02336 7.54511L3.23357 7.27895L3.47593 7.043L3.81471 6.7987L4.21457 6.60197L4.62407 6.48175L5.05929 6.43032L5.15957 6.42903ZM10.3667 1.92871C10.6528 0.820344 11.6601 0 12.8571 0C14.0541 0 15.0615 0.820344 15.3476 1.92871H17.3571C17.712 1.92871 18 2.21673 18 2.57161C18 2.92649 17.712 3.21452 17.3571 3.21452H15.3476C15.0615 4.32288 14.0541 5.14322 12.8571 5.14322C11.6601 5.14322 10.6528 4.32288 10.3667 3.21452H0.642857C0.288 3.21452 0 2.92649 0 2.57161C0 2.21673 0.288 1.92871 0.642857 1.92871H10.3667Z"/>
</mask>
<path fill-rule="evenodd" clip-rule="evenodd" d="M12.8739 12.8581L13.2962 12.8953L13.6884 12.9956L14.0747 13.1641L14.3621 13.3447L14.6218 13.5595L14.8359 13.7877L15.0345 14.0622L15.1509 14.2673L15.2582 14.509L15.3476 14.7868H17.3571C17.712 14.7868 18 15.0748 18 15.4297C18 15.7846 17.712 16.0726 17.3571 16.0726H15.3476L15.2479 16.3773L15.1502 16.5933L14.9766 16.8852L14.7664 17.1514L14.5241 17.3873L14.1853 17.6316L13.7854 17.8283L13.3759 17.9486L12.9407 18L12.4984 17.9762L12.0786 17.8811L11.6878 17.7203L11.3522 17.5146L11.0925 17.2999L10.8784 17.0716L10.6798 16.7971L10.5634 16.592L10.4561 16.3503L10.3667 16.0726H0.642857C0.288 16.0726 0 15.7846 0 15.4297C0 15.0748 0.288 14.7868 0.642857 14.7868H10.3667L10.4664 14.482L10.5641 14.266L10.7376 13.9741L10.9479 13.708L11.1902 13.472L11.529 13.2277L11.9289 13.031L12.3384 12.9108L12.7736 12.8593L12.8739 12.8581ZM5.15957 6.42903L5.58193 6.46632L5.97407 6.56661L6.36043 6.73505L6.64779 6.91571L6.9075 7.13044L7.12157 7.35867L7.32021 7.63319L7.43657 7.83827L7.54393 8.08001L7.63329 8.35774H17.3571C17.712 8.35774 18 8.64576 18 9.00064C18 9.35553 17.712 9.64355 17.3571 9.64355H7.63329L7.53364 9.94828L7.43593 10.1643L7.26236 10.4562L7.05214 10.7223L6.80978 10.9583L6.471 11.2026L6.07114 11.3993L5.66164 11.5195L5.22643 11.571L4.78414 11.5472L4.36436 11.452L3.9735 11.2913L3.63793 11.0856L3.37821 10.8708L3.16414 10.6426L2.9655 10.3681L2.84914 10.163L2.74179 9.92128L2.65243 9.64355H0.642857C0.288 9.64355 0 9.35553 0 9.00064C0 8.64576 0.288 8.35774 0.642857 8.35774H2.65243L2.75207 8.05301L2.84978 7.83699L3.02336 7.54511L3.23357 7.27895L3.47593 7.043L3.81471 6.7987L4.21457 6.60197L4.62407 6.48175L5.05929 6.43032L5.15957 6.42903ZM10.3667 1.92871C10.6528 0.820344 11.6601 0 12.8571 0C14.0541 0 15.0615 0.820344 15.3476 1.92871H17.3571C17.712 1.92871 18 2.21673 18 2.57161C18 2.92649 17.712 3.21452 17.3571 3.21452H15.3476C15.0615 4.32288 14.0541 5.14322 12.8571 5.14322C11.6601 5.14322 10.6528 4.32288 10.3667 3.21452H0.642857C0.288 3.21452 0 2.92649 0 2.57161C0 2.21673 0.288 1.92871 0.642857 1.92871H10.3667Z" fill="#FF8926" stroke="white" stroke-width="0.4" mask="url(#path-1-inside-1_7856_60263)"/>
</svg>
