<svg width="20" height="20" viewBox="0 0 20 20" fill="none" xmlns="http://www.w3.org/2000/svg">
<path d="M7.54169 1.58759C7.25583 1.27333 6.80356 1.17215 6.41104 1.33464C6.01852 1.49714 5.7701 1.88839 5.78999 2.31218L5.84564 3.47611C5.87986 4.11527 5.64106 4.73889 5.18868 5.19171C4.7363 5.64453 4.11291 5.88394 3.47488 5.8504L2.31003 5.79132C1.88562 5.77104 1.49417 6.01941 1.33175 6.41203C1.16933 6.80465 1.27091 7.25698 1.58579 7.5426L2.45214 8.32906C2.92618 8.75724 3.19671 9.36616 3.19671 10.005C3.19671 10.6437 2.92618 11.2527 2.45206 11.6809L1.58511 12.4637C1.26935 12.7495 1.16762 13.2031 1.33107 13.5964C1.49453 13.9897 1.8878 14.2376 2.31404 14.2153L3.48026 14.1562C4.11821 14.1234 4.74019 14.3625 5.19189 14.8142C5.64359 15.2659 5.88269 15.8879 5.84987 16.5258L5.79004 17.689C5.7706 18.1132 6.01918 18.504 6.41159 18.6662C6.80399 18.8284 7.25598 18.7272 7.54127 18.4136L8.32765 17.5473C8.75568 17.0733 9.3645 16.8027 10.0032 16.8027C10.6419 16.8027 11.2507 17.0733 11.6785 17.5471L12.46 18.4117C12.7462 18.7243 13.1974 18.8244 13.5889 18.6621C13.9804 18.4998 14.2285 18.1099 14.2098 17.6904L14.1507 16.5241C14.1179 15.8862 14.357 15.2642 14.8087 14.8125C15.2604 14.3608 15.8823 14.1217 16.5199 14.1545L17.6867 14.2137C18.1123 14.2354 18.5055 13.9869 18.6687 13.5932C18.8318 13.1994 18.7296 12.7457 18.4137 12.4603L17.5451 11.6767C17.0711 11.2485 16.8005 10.6396 16.8005 10.0008C16.8005 9.36199 17.0711 8.75308 17.5454 8.32463L18.4133 7.54168C18.7292 7.25614 18.8315 6.80279 18.6688 6.40924C18.5061 6.0157 18.1135 5.76697 17.689 5.7879L16.5212 5.84712C15.8846 5.8782 15.2646 5.63866 14.8143 5.18768C14.3639 4.7367 14.1253 4.11633 14.1573 3.47955L14.2165 2.31275C14.2382 1.88712 13.9897 1.49389 13.596 1.33074C13.2023 1.1676 12.7485 1.26983 12.461 1.58803L11.6751 2.45036C11.2473 2.92521 10.6382 3.19632 9.99903 3.19632C9.3602 3.19632 8.75134 2.92546 8.32359 2.45101L7.54169 1.58759ZM14.0745 0.175958C14.9567 0.541516 15.5135 1.42262 15.4649 2.37619L15.4057 3.54259C15.3915 3.82653 15.4979 4.10327 15.6988 4.30444C15.8997 4.50562 16.1763 4.61247 16.459 4.59867L17.6266 4.53946C18.5796 4.49247 19.4593 5.04979 19.8239 5.9316C20.1886 6.81341 19.9594 7.82924 19.251 8.46944L18.383 9.25251C18.1713 9.44369 18.0505 9.71557 18.0505 10.0008C18.0505 10.286 18.1713 10.5579 18.3827 10.7488L19.2514 11.5325C19.9599 12.1727 20.189 13.1895 19.8234 14.0717C19.4579 14.9539 18.5768 15.5106 17.6232 15.4621L16.4561 15.4029C16.1715 15.3882 15.8941 15.4949 15.6926 15.6964C15.4911 15.8979 15.3844 16.1753 15.3991 16.4604L15.4584 17.6309C15.5007 18.5796 14.9447 19.4532 14.0675 19.8168C13.1903 20.1804 12.1793 19.9562 11.5354 19.2528L10.751 18.3851C10.56 18.1735 10.2882 18.0527 10.0032 18.0527C9.71815 18.0527 9.44644 18.1735 9.2543 18.3863L8.46634 19.2543C7.82608 19.9581 6.81331 20.1849 5.93405 19.8214C5.05479 19.4579 4.49779 18.5822 4.54152 17.6283L4.60152 16.4616C4.61616 16.177 4.5095 15.8996 4.30801 15.6981C4.10651 15.4966 3.82906 15.3899 3.54402 15.4046L2.37828 15.4637C1.42482 15.5135 0.543219 14.9578 0.176796 14.0762C-0.189627 13.1945 0.0384286 12.1777 0.746833 11.5365L1.61426 10.7532C1.82592 10.562 1.94671 10.2902 1.94671 10.005C1.94671 9.71973 1.82592 9.44786 1.61311 9.25563L0.745781 8.46829C0.0402997 7.82834 -0.187419 6.81435 0.176684 5.9342C0.540787 5.05405 1.4183 4.49727 2.37152 4.54284L3.53935 4.60206C3.82448 4.61705 4.10257 4.51026 4.30437 4.30826C4.50617 4.10626 4.61269 3.82807 4.59725 3.53939L4.54139 2.37132C4.49678 1.42047 5.0534 0.543796 5.93292 0.179697C6.81244 -0.184402 7.82584 0.0423144 8.4673 0.747503L9.25063 1.6125C9.44246 1.82544 9.71406 1.94632 9.99903 1.94632C10.284 1.94632 10.5556 1.82544 10.7488 1.61104L11.5353 0.74802C12.1755 0.0394737 13.1923 -0.189599 14.0745 0.175958ZM9.99903 5.6262C7.58279 5.6262 5.62403 7.58496 5.62403 10.0012C5.62403 12.4174 7.58279 14.3762 9.99903 14.3762C12.4153 14.3762 14.374 12.4174 14.374 10.0012C14.374 7.58496 12.4153 5.6262 9.99903 5.6262ZM9.99903 6.8762C11.7249 6.8762 13.124 8.27531 13.124 10.0012C13.124 11.7271 11.7249 13.1262 9.99903 13.1262C8.27314 13.1262 6.87403 11.7271 6.87403 10.0012C6.87403 8.27531 8.27314 6.8762 9.99903 6.8762Z" fill="#F1F6F9"/>
</svg>
