<svg width="25" height="24" viewBox="0 0 25 24" fill="none" xmlns="http://www.w3.org/2000/svg">
<g clip-path="url(#clip0_6611_2060)">
<path d="M24.125 19.5H0.875C0.775544 19.5 0.680161 19.4584 0.609835 19.3844C0.539509 19.3104 0.5 19.21 0.5 19.1053V4.89474C0.5 4.79005 0.539509 4.68964 0.609835 4.61562C0.680161 4.54159 0.775544 4.5 0.875 4.5H24.125C24.2245 4.5 24.3198 4.54159 24.3902 4.61562C24.4605 4.68964 24.5 4.79005 24.5 4.89474V19.1053C24.5 19.21 24.4605 19.3104 24.3902 19.3844C24.3198 19.4584 24.2245 19.5 24.125 19.5ZM1.25 18.7105H23.75V5.28947H1.25V18.7105Z" fill="black"/>
<path d="M3.875 19.5H0.875C0.775544 19.5 0.680161 19.4584 0.609835 19.3844C0.539509 19.3104 0.5 19.21 0.5 19.1053V4.89474C0.5 4.79005 0.539509 4.68964 0.609835 4.61562C0.680161 4.54159 0.775544 4.5 0.875 4.5H3.875C3.97446 4.5 4.06984 4.54159 4.14016 4.61562C4.21049 4.68964 4.25 4.79005 4.25 4.89474V19.1053C4.25 19.21 4.21049 19.3104 4.14016 19.3844C4.06984 19.4584 3.97446 19.5 3.875 19.5ZM1.25 18.7105H3.5V5.28947H1.25V18.7105Z" fill="black"/>
<path d="M16.512 9.20978L16.6771 9.40304V9.1489V7.32893C16.6771 7.06097 16.8943 6.84375 17.1623 6.84375C17.4351 6.84375 17.6562 7.06492 17.6562 7.33774V11.0773H13.636C13.3825 11.0773 13.1771 10.8719 13.1771 10.6184C13.1771 10.365 13.3825 10.1595 13.636 10.1595H15.8521H16.0374L15.9277 10.0103C15.1609 8.96758 13.8936 8.31414 12.5 8.31414C10.1979 8.31414 8.32292 10.0833 8.32292 12.2763C8.32292 14.4693 10.1979 16.2385 12.5 16.2385C14.0111 16.2385 15.3737 15.4698 16.1105 14.2705C16.2542 14.0365 16.5325 13.9215 16.7733 14.0139C17.0335 14.1137 17.1493 14.4043 17.0172 14.6311C16.1252 16.1629 14.4112 17.1558 12.5 17.1558C9.64744 17.1558 7.34375 14.9667 7.34375 12.2763C7.34375 9.58592 9.64745 7.39638 12.5 7.39638C14.0958 7.39638 15.5547 8.08878 16.512 9.20978Z" fill="black" stroke="white" stroke-width="0.1875"/>
</g>
<defs>
<clipPath id="clip0_6611_2060">
<rect width="24" height="24" fill="white" transform="translate(0.5)"/>
</clipPath>
</defs>
</svg>
