<svg width="22" height="22" viewBox="0 0 22 22" fill="none" xmlns="http://www.w3.org/2000/svg">
<path d="M14.5906 0.917969H7.86838C6.75411 0.917969 5.68547 1.32656 4.89755 2.05387C4.10964 2.78117 3.66699 3.76761 3.66699 4.79617V9.96712C3.66597 10.8608 4.00024 11.7272 4.61297 12.4191C5.2257 13.1111 6.0791 13.5858 7.02811 13.7626V18.2406C7.02811 18.9949 7.35271 19.7183 7.93051 20.2516C8.50832 20.785 9.29199 21.0846 10.1091 21.0846H12.3499C13.167 21.0846 13.9507 20.785 14.5285 20.2516C15.1063 19.7183 15.4309 18.9949 15.4309 18.2406V13.7626C16.3799 13.5858 17.2333 13.1111 17.846 12.4191C18.4587 11.7272 18.793 10.8608 18.792 9.96712V4.79617C18.792 3.76761 18.3493 2.78117 17.5614 2.05387C16.7735 1.32656 15.7049 0.917969 14.5906 0.917969ZM13.7503 18.2406C13.7503 18.5835 13.6028 18.9123 13.3401 19.1547C13.0775 19.3972 12.7213 19.5334 12.3499 19.5334H10.1091C9.7377 19.5334 9.38148 19.3972 9.11885 19.1547C8.85621 18.9123 8.70866 18.5835 8.70866 18.2406V13.0697C8.70866 12.7268 8.85621 12.398 9.11885 12.1556C9.38148 11.9131 9.7377 11.7769 10.1091 11.7769H12.3499C12.7213 11.7769 13.0775 11.9131 13.3401 12.1556C13.6028 12.398 13.7503 12.7268 13.7503 13.0697V18.2406ZM17.1114 9.96712C17.1094 10.4746 16.9276 10.9675 16.5939 11.3708C16.2601 11.7741 15.7927 12.0656 15.2628 12.201C15.0676 11.6287 14.68 11.1288 14.1563 10.7736C13.6325 10.4185 12.9998 10.2265 12.3499 10.2257H10.1091C9.45922 10.2265 8.8265 10.4185 8.30273 10.7736C7.77896 11.1288 7.39137 11.6287 7.19616 12.201C6.66629 12.0656 6.19887 11.7741 5.86513 11.3708C5.53139 10.9675 5.34963 10.4746 5.34755 9.96712V4.79617C5.34755 4.17904 5.61314 3.58717 6.08589 3.15079C6.55863 2.71441 7.19982 2.46925 7.86838 2.46925H14.5906C15.2592 2.46925 15.9004 2.71441 16.3731 3.15079C16.8458 3.58717 17.1114 4.17904 17.1114 4.79617V9.96712Z" fill="#FF8926"/>
<path d="M11.2293 4.01979C10.3746 4.01531 9.53128 4.20094 8.77071 4.56097C8.01015 4.921 7.35472 5.44484 6.85988 6.08816C6.74529 6.25296 6.70349 6.45203 6.74309 6.64441C6.78269 6.83678 6.90067 7.00783 7.07275 7.12235C7.21025 7.21322 7.37425 7.26368 7.54331 7.26714C7.67914 7.26635 7.81285 7.23596 7.93356 7.17846C8.05427 7.12095 8.15855 7.03794 8.23794 6.9362C8.57315 6.49034 9.02033 6.12604 9.54127 5.87445C10.0622 5.62285 10.6414 5.49143 11.2293 5.49143C11.8173 5.49143 12.3964 5.62285 12.9174 5.87445C13.4383 6.12604 13.8855 6.49034 14.2207 6.9362C14.2788 7.02894 14.357 7.10958 14.4505 7.17303C14.5441 7.23648 14.6508 7.28136 14.764 7.30484C14.8772 7.32832 14.9945 7.3299 15.1084 7.30948C15.2224 7.28905 15.3305 7.24707 15.4259 7.18617C15.5214 7.12527 15.6022 7.04677 15.6632 6.95562C15.7241 6.86448 15.764 6.76266 15.7802 6.65659C15.7965 6.55052 15.7887 6.4425 15.7575 6.33933C15.7263 6.23615 15.6722 6.14007 15.5988 6.05714C15.1003 5.41953 14.4432 4.9017 13.6829 4.54718C12.9225 4.19265 12.0811 4.01179 11.2293 4.01979Z" fill="#FF8926"/>
<path d="M11.2298 6.08984C10.6366 6.09182 10.0564 6.25068 9.55804 6.54761C9.05965 6.84454 8.66388 7.26709 8.41762 7.76523C8.37102 7.8588 8.34508 7.96 8.3413 8.06293C8.33752 8.16585 8.35599 8.26844 8.39562 8.36471C8.43525 8.46098 8.49525 8.549 8.57213 8.62363C8.649 8.69827 8.7412 8.75802 8.84336 8.79942C8.95117 8.84891 9.07029 8.87374 9.19068 8.87181C9.35092 8.86878 9.50709 8.8246 9.64165 8.74422C9.77622 8.66385 9.88387 8.55046 9.95253 8.41677C10.0632 8.1896 10.2426 7.99679 10.4692 7.86153C10.6958 7.72626 10.9599 7.6543 11.2298 7.6543C11.4996 7.6543 11.7637 7.72626 11.9903 7.86153C12.2169 7.99679 12.3963 8.1896 12.507 8.41677C12.5526 8.5098 12.6176 8.59363 12.6983 8.66346C12.779 8.7333 12.8738 8.78778 12.9773 8.82379C13.0809 8.85981 13.191 8.87665 13.3016 8.87335C13.4122 8.87005 13.521 8.84669 13.6217 8.80459C13.7225 8.76249 13.8133 8.70247 13.889 8.62797C13.9647 8.55348 14.0237 8.46595 14.0627 8.3704C14.1017 8.27485 14.1199 8.17314 14.1164 8.07107C14.1128 7.96901 14.0875 7.8686 14.0419 7.77557C13.7984 7.27472 13.4036 6.84931 12.9048 6.55032C12.4061 6.25133 11.8245 6.09145 11.2298 6.08984Z" fill="#FF8926"/>
</svg>
