<svg width="22" height="20" viewBox="0 0 22 20" fill="none" xmlns="http://www.w3.org/2000/svg">
<path d="M21.9998 9.85289V6.13896C21.9998 4.66001 20.873 3.4568 19.4881 3.4568H17.7058L16.3726 1.12801C16.3023 1.00526 16.1892 0.917357 16.0583 0.883638C15.9274 0.849935 15.7892 0.873088 15.6742 0.948147L14.7638 1.54238L14.0295 0.2595C13.9592 0.136747 13.8462 0.0488434 13.7152 0.0150797C13.5844 -0.0185481 13.4462 0.00454459 13.3311 0.0795733L8.15698 3.4568H6.68539C5.30041 3.4568 4.17362 4.66001 4.17362 6.13896V6.7592C1.8303 7.0305 0 9.1552 0 11.7284C0 14.3016 1.8303 16.4263 4.17362 16.6976V17.3178C4.17362 18.7968 5.30041 20 6.68539 20H19.4881C20.873 20 21.9998 18.7968 21.9998 17.3178V13.6039C21.9998 13.6027 22 13.6016 22 13.6004V9.85639C22 9.85521 21.9998 9.85406 21.9998 9.85289ZM14.859 2.75178C14.8594 2.75152 14.8598 2.75133 14.8602 2.75107C14.8607 2.7508 14.861 2.7505 14.8614 2.75023L15.7707 2.15673L16.515 3.4568H13.7789L14.859 2.75178ZM13.4275 1.28818L13.8969 2.1082L11.8308 3.4568H10.1051L13.4275 1.28818ZM4.68156 15.6426C2.66037 15.6426 1.016 13.8867 1.016 11.7284C1.016 9.57011 2.66037 7.81419 4.68156 7.81419C6.70274 7.81419 8.34712 9.57011 8.34712 11.7284C8.34712 13.8867 6.70274 15.6426 4.68156 15.6426ZM20.9838 13.058H17.936C17.2494 13.058 16.6909 12.4615 16.6909 11.7284C16.6909 10.9953 17.2494 10.3988 17.936 10.3988H20.9838V13.058ZM20.9838 9.31392H17.936C16.6892 9.31392 15.6749 10.397 15.6749 11.7284C15.6749 13.0598 16.6892 14.1429 17.936 14.1429H20.9838V17.3178C20.9838 18.1986 20.3129 18.9151 19.4881 18.9151H6.68539C5.8606 18.9151 5.18961 18.1986 5.18961 17.3178V16.6976C7.5329 16.4262 9.36312 14.3016 9.36312 11.7284C9.36312 9.15524 7.5329 7.03058 5.18961 6.75921V6.13896C5.18961 5.25823 5.8606 4.54172 6.68539 4.54172H8.29917C8.29961 4.54172 8.30005 4.54181 8.30049 4.54181C8.3009 4.54181 8.30132 4.54172 8.30173 4.54172H17.4201C17.4205 4.54172 17.421 4.54181 17.4214 4.54181C17.4218 4.54181 17.4222 4.54172 17.4226 4.54172H19.4881C20.3129 4.54172 20.9838 5.25823 20.9838 6.13896V9.31392Z" fill="white"/>
<path d="M17.4873 11.731C17.4873 12.0355 17.7185 12.2823 18.0036 12.2823C18.2887 12.2823 18.5199 12.0355 18.5199 11.731C18.5199 11.4265 18.2887 11.1797 18.0036 11.1797C17.7185 11.1797 17.4873 11.4265 17.4873 11.731Z" fill="white"/>
<path d="M6.7837 11.1896H5.18997V9.48778C5.18997 9.18818 4.96255 8.94531 4.68198 8.94531C4.40141 8.94531 4.17399 9.18818 4.17399 9.48778V11.1896H2.58026C2.2997 11.1896 2.07227 11.4325 2.07227 11.7321C2.07227 12.0317 2.2997 12.2745 2.58026 12.2745H4.17399V13.9764C4.17399 14.276 4.40141 14.5188 4.68198 14.5188C4.96255 14.5188 5.18997 14.276 5.18997 13.9764V12.2745H6.7837C7.06427 12.2745 7.2917 12.0317 7.2917 11.7321C7.2917 11.4325 7.06427 11.1896 6.7837 11.1896Z" fill="white"/>
</svg>
