<svg width="23" height="22" viewBox="0 0 23 22" fill="none" xmlns="http://www.w3.org/2000/svg">
<path d="M17.6515 2.97164C17.4761 2.82063 17.2506 2.74173 17.0199 2.75069C16.7891 2.75965 16.5703 2.85582 16.4071 3.01997C16.2438 3.18413 16.1482 3.40419 16.1392 3.63617C16.1303 3.86815 16.2088 4.09496 16.359 4.27129L17.5415 5.46956H3.25065C3.00754 5.46956 2.77438 5.56667 2.60247 5.73953C2.43056 5.91239 2.33398 6.14684 2.33398 6.3913C2.33398 6.63576 2.43056 6.87021 2.60247 7.04307C2.77438 7.21593 3.00754 7.31304 3.25065 7.31304H17.5415L16.3498 8.50208C16.2539 8.58471 16.1759 8.6864 16.1209 8.80076C16.0659 8.91511 16.035 9.03967 16.0301 9.16661C16.0252 9.29355 16.0465 9.42014 16.0926 9.53842C16.1387 9.6567 16.2086 9.76413 16.2979 9.85395C16.3872 9.94378 16.4941 10.0141 16.6117 10.0604C16.7293 10.1068 16.8552 10.1281 16.9815 10.1232C17.1077 10.1183 17.2316 10.0872 17.3453 10.0319C17.459 9.97659 17.5601 9.89823 17.6423 9.80174L20.3923 7.03652C20.563 6.86382 20.6589 6.6302 20.6589 6.38669C20.6589 6.14318 20.563 5.90956 20.3923 5.73686L17.6515 2.97164Z" fill="#FF8926"/>
<path d="M19.7514 14.6869H5.46054L6.64304 13.4979C6.79322 13.3215 6.87169 13.0947 6.86278 12.8627C6.85387 12.6307 6.75823 12.4107 6.59498 12.2465C6.43172 12.0824 6.21288 11.9862 5.98218 11.9772C5.75147 11.9683 5.5259 12.0472 5.35054 12.1982L2.60054 14.9634C2.42981 15.1361 2.33398 15.3697 2.33398 15.6133C2.33398 15.8568 2.42981 16.0904 2.60054 16.2631L5.35054 19.0283C5.5259 19.1793 5.75147 19.2582 5.98218 19.2493C6.21288 19.2403 6.43172 19.1441 6.59498 18.98C6.75823 18.8158 6.85387 18.5958 6.86278 18.3638C6.87169 18.1318 6.79322 17.905 6.64304 17.7286L5.46054 16.5304H19.7514C19.9945 16.5304 20.2277 16.4333 20.3996 16.2604C20.5715 16.0876 20.668 15.8531 20.668 15.6086C20.668 15.3642 20.5715 15.1297 20.3996 14.9569C20.2277 14.784 19.9945 14.6869 19.7514 14.6869Z" fill="#FF8926"/>
</svg>
