<svg width="24" height="24" viewBox="0 0 24 24" fill="none" xmlns="http://www.w3.org/2000/svg">
<g clip-path="url(#clip0_17690_139274)">
<path d="M3 17.1571C3 21.5187 6.11538 23.8379 12 23.8379C17.8846 23.8379 21 21.5187 21 17.1571C21 14.1802 17.9192 10.5802 15.1154 7.94943C15.5654 7.70712 15.8077 7.29173 15.8077 6.84173C15.8077 6.28789 15.4615 5.83789 14.9769 5.66481C15.6 4.79942 15.9462 4.03789 15.9462 3.38019C15.9462 3.34558 15.9462 3.31096 15.9462 3.27635C14.5615 -0.946729 11.8269 1.75327 8.29615 3.06866C8.15769 3.10327 8.05385 3.24173 8.05385 3.38019C8.05385 4.03789 8.36538 4.79942 9.02308 5.66481C8.50385 5.83789 8.19231 6.3225 8.19231 6.84173C8.19231 7.32635 8.46923 7.74173 8.88462 7.94943C6.11538 10.5802 3 14.1802 3 17.1571ZM15.2538 3.44942C15.2192 4.00327 14.8731 4.76481 14.1808 5.59558H9.85385C9.23077 4.83404 8.85 4.17635 8.78077 3.6225C12.3808 2.20327 14.1808 0.160963 15.2538 3.44942ZM9.47308 6.28789C10.4769 6.28789 13.5577 6.28789 14.5615 6.28789C14.8731 6.28789 15.1154 6.53019 15.1154 6.84173C15.1154 7.15327 14.8385 7.39558 14.5615 7.39558C13.2808 7.39558 10.4769 7.39558 9.47308 7.39558C9.16154 7.39558 8.91923 7.15327 8.91923 6.84173C8.91923 6.53019 9.16154 6.28789 9.47308 6.28789ZM9.75 8.08789H14.25C16.5692 10.234 20.3077 14.1456 20.3077 17.1571C20.3077 21.1379 17.5038 23.1456 12 23.1456C6.49615 23.1456 3.69231 21.1379 3.69231 17.1571C3.69231 14.1456 7.43077 10.234 9.75 8.08789Z" fill="#FF7A0A" stroke="#FF7A0A" stroke-width="0.75"/>
<path d="M9.88844 17.1918L9.09229 18.1264C9.88844 18.8187 10.7884 19.1995 11.7577 19.3034V20.0995H12.45V19.3034C13.8 19.2341 14.9077 18.4726 14.9077 17.088C14.9077 15.6341 13.8692 15.1495 12.4846 14.838H12.45V12.7957C13.0038 12.8649 13.5231 13.0726 14.0077 13.4187L14.7 12.4149C13.9731 11.9303 13.2461 11.6534 12.4154 11.5841V11.0303H11.7231V11.5841C10.3731 11.6534 9.33459 12.4495 9.33459 13.7649C9.33459 15.1841 10.3384 15.6341 11.7231 15.9457V18.0572C11.1 18.0572 10.4769 17.7457 9.88844 17.1918ZM12.45 16.2226C13.1077 16.4303 13.5923 16.6034 13.5923 17.261C13.5923 17.8495 13.0384 18.1264 12.45 18.1957V16.2226ZM10.7192 13.6957C10.7192 13.1418 11.2038 12.8303 11.7577 12.7957V14.6649C11.1346 14.4918 10.7192 14.3187 10.7192 13.6957Z" fill="#FF7A0A" stroke="#FF7A0A" stroke-width="0.25"/>
</g>
<defs>
<clipPath id="clip0_17690_139274">
<rect width="24" height="24" fill="white"/>
</clipPath>
</defs>
</svg>
