<svg width="26" height="26" viewBox="0 0 26 26" fill="none" xmlns="http://www.w3.org/2000/svg">
<mask id="path-1-outside-1_18346_83136" maskUnits="userSpaceOnUse" x="0" y="0" width="26" height="26" fill="black">
<rect fill="white" width="26" height="26"/>
<path d="M22.7221 22.0069C22.7221 22.1685 22.5912 22.2997 22.4293 22.2997H20.4792C20.3176 22.2997 20.1864 22.1688 20.1864 22.0069V20.0571C20.1864 19.8955 20.3173 19.7643 20.4792 19.7643C20.6408 19.7643 20.772 19.8952 20.772 20.0571V21.36C23.0933 19.2016 24.4147 16.1845 24.4147 13C24.4147 6.70587 19.2941 1.58533 13 1.58533C10.9251 1.58533 8.89387 2.14747 7.1256 3.21093C6.9872 3.29413 6.8072 3.2496 6.724 3.11093C6.6408 2.97253 6.68533 2.79253 6.824 2.70933C8.6832 1.5912 10.8189 1 13 1C16.2053 1 19.2187 2.24827 21.4853 4.51467C23.7517 6.78133 25 9.79467 25 13C25 16.3115 23.6413 19.4507 21.2499 21.7144H22.4293C22.5909 21.7144 22.7221 21.8453 22.7221 22.0069ZM18.8744 22.7891C17.1061 23.8525 15.0747 24.4147 13 24.4147C6.70587 24.4147 1.58533 19.2941 1.58533 13C1.58533 9.81547 2.9064 6.7984 5.22773 4.64V5.94293C5.22773 6.10453 5.35867 6.23573 5.52053 6.23573C5.68213 6.23573 5.81333 6.1048 5.81333 5.94293V3.9928C5.81333 3.8312 5.6824 3.7 5.52053 3.7H3.57067C3.40907 3.7 3.27787 3.83093 3.27787 3.9928C3.27787 4.1544 3.4088 4.2856 3.57067 4.2856H4.75013C2.35867 6.54933 1 9.68827 1 13C1 16.2053 2.24827 19.2187 4.51467 21.4853C6.78133 23.7517 9.79467 25 13 25C15.1811 25 17.3168 24.4088 19.176 23.2907C19.3144 23.2075 19.3592 23.0275 19.276 22.8891C19.1928 22.7504 19.0128 22.7059 18.8744 22.7891ZM19.3045 16.5419C19.2672 16.6083 19.2704 16.6763 19.3136 16.7387L19.896 17.5795C20.1085 17.8861 20.0712 18.3 19.8075 18.5637L18.5635 19.8077C18.2997 20.0715 17.8856 20.1088 17.5792 19.8963L16.7381 19.3136C16.6757 19.2704 16.6075 19.2672 16.5413 19.3045C16.0397 19.5869 15.5056 19.8085 14.9533 19.9632C14.8803 19.9837 14.8344 20.0341 14.8208 20.1088L14.6381 21.1144C14.5715 21.4813 14.2525 21.7477 13.8795 21.7477H12.1203C11.7472 21.7477 11.4283 21.4813 11.3616 21.1144L11.1789 20.1091C11.1653 20.0341 11.1195 19.984 11.0461 19.9635C10.4933 19.8088 9.95893 19.5872 9.45787 19.3048C9.39147 19.2675 9.32347 19.2707 9.26107 19.3139L8.42053 19.8963C8.11387 20.1085 7.7 20.0715 7.43627 19.8077L6.19253 18.564C5.9288 18.3003 5.89147 17.8861 6.10373 17.5797L6.6864 16.7387C6.7296 16.676 6.7328 16.608 6.69547 16.5419C6.41307 16.0403 6.19147 15.5061 6.0368 14.9539C6.01627 14.8808 5.96587 14.8349 5.8912 14.8213L4.8856 14.6387C4.51867 14.572 4.25227 14.2531 4.25227 13.88V12.1208C4.25227 11.7477 4.51867 11.4288 4.8856 11.3621L5.8912 11.1797C5.96587 11.1661 6.01627 11.1203 6.0368 11.0469C6.19147 10.4941 6.41307 9.95973 6.69547 9.4584C6.7328 9.392 6.7296 9.324 6.6864 9.2616L6.104 8.42107C5.89147 8.1144 5.9288 7.70053 6.19253 7.4368L7.43653 6.1928C7.70027 5.92907 8.11413 5.89173 8.4208 6.10427L9.26187 6.68693C9.32427 6.73013 9.39227 6.73333 9.45867 6.696C9.96027 6.4136 10.4947 6.192 11.0467 6.03733C11.1197 6.0168 11.1656 5.9664 11.1792 5.89173L11.3619 4.88613C11.4285 4.5192 11.7475 4.2528 12.1205 4.2528H13.8797C14.2528 4.2528 14.5717 4.5192 14.6384 4.88613L14.8211 5.89173C14.8347 5.96667 14.8805 6.01707 14.9539 6.03733C15.5061 6.192 16.0405 6.4136 16.5419 6.696C16.6083 6.73333 16.6763 6.73013 16.7387 6.68693L17.5795 6.10427C17.8861 5.892 18.3 5.92907 18.5637 6.1928L19.8075 7.43653C20.0712 7.70027 20.1085 8.1144 19.896 8.4208L19.3133 9.26187C19.2701 9.32427 19.2669 9.39253 19.3043 9.45867C19.5864 9.95973 19.808 10.4941 19.9627 11.0467C19.9832 11.1197 20.0336 11.1656 20.1085 11.1792L21.1144 11.3619C21.4813 11.4285 21.7477 11.7475 21.7477 12.1205V13.8797C21.7477 14.2528 21.4813 14.5717 21.1144 14.6384L20.1088 14.8208C20.0341 14.8344 19.9837 14.8803 19.9632 14.9533C19.8083 15.5061 19.5867 16.0405 19.3045 16.5419ZM18.7947 16.2547C19.0539 15.7944 19.2573 15.3035 19.3997 14.7957C19.48 14.5091 19.7117 14.2981 20.0045 14.2451L21.0101 14.0627C21.1 14.0464 21.1627 13.9712 21.1627 13.88V12.1208C21.1627 12.0296 21.1 11.9544 21.0101 11.9381L20.0043 11.7555C19.7115 11.7024 19.4797 11.4912 19.3995 11.2048C19.2573 10.6973 19.0539 10.2067 18.7944 9.74613C18.6483 9.48667 18.6629 9.17333 18.8325 8.9288L19.4152 8.08773C19.4672 8.0128 19.4584 7.9152 19.3939 7.85067L18.1501 6.60693C18.0856 6.5424 17.988 6.5336 17.9131 6.5856L17.0723 7.168C16.8275 7.3376 16.5144 7.35227 16.2547 7.20613C15.7941 6.94667 15.3032 6.7432 14.796 6.60107C14.5093 6.5208 14.2984 6.28907 14.2453 5.99627L14.0627 4.99067C14.0464 4.9008 13.9712 4.83813 13.88 4.83813H12.1208C12.0296 4.83813 11.9544 4.9008 11.9381 4.99067L11.7555 5.99627C11.7024 6.28907 11.4915 6.5208 11.2048 6.60107C10.6979 6.74293 10.2069 6.94667 9.74613 7.20613C9.48667 7.35227 9.1736 7.3376 8.9288 7.168L8.08773 6.58533C8.0128 6.53333 7.9152 6.54213 7.85067 6.60667L6.60667 7.85067C6.54213 7.9152 6.53333 8.0128 6.58533 8.08773L7.16773 8.92827C7.33733 9.17307 7.352 9.4864 7.20587 9.7456C6.94667 10.2061 6.7432 10.6968 6.6008 11.2045C6.52053 11.4912 6.2888 11.7021 5.996 11.7552L4.9904 11.9376C4.90053 11.9539 4.83787 12.0291 4.83787 12.1203V13.8795C4.83787 13.9707 4.90053 14.0459 4.9904 14.0621L5.996 14.2448C6.2888 14.2979 6.52053 14.5091 6.6008 14.7955C6.74293 15.3027 6.9464 15.7936 7.20587 16.2541C7.352 16.5136 7.33733 16.8267 7.16773 17.0715L6.58507 17.9125C6.53307 17.9875 6.54187 18.0851 6.6064 18.1496L7.85013 19.3936C7.91467 19.4581 8.01227 19.4669 8.0872 19.4149L8.92773 18.8325C9.06027 18.7408 9.21307 18.6944 9.3664 18.6944C9.496 18.6944 9.6264 18.7277 9.74533 18.7947C10.2059 19.0539 10.6968 19.2576 11.2045 19.3997C11.4912 19.48 11.7021 19.7117 11.7552 20.0045L11.9379 21.0099C11.9541 21.0997 12.0293 21.1624 12.1205 21.1624H13.8797C13.9709 21.1624 14.0461 21.0997 14.0624 21.0099L14.2451 20.004C14.2981 19.7112 14.5093 19.4795 14.7957 19.3992C15.3029 19.2571 15.7936 19.0536 16.2544 18.7941C16.5139 18.648 16.8272 18.6627 17.0717 18.8323L17.9128 19.4149C17.9877 19.4669 18.0853 19.4581 18.1499 19.3936L19.3939 18.1496C19.4584 18.0851 19.4672 17.9875 19.4152 17.9125L18.8328 17.072C18.6629 16.8272 18.6485 16.5141 18.7947 16.2547ZM17.6797 13C17.6797 15.5805 15.5803 17.6797 13 17.6797C10.4195 17.6797 8.32 15.5803 8.32 13C8.32 10.4195 10.4195 8.32027 13 8.32027C15.5805 8.32 17.6797 10.4195 17.6797 13ZM17.0944 13C17.0944 10.7424 15.2576 8.9056 13 8.9056C10.7424 8.9056 8.9056 10.7421 8.9056 13C8.9056 15.2576 10.7424 17.0944 13 17.0944C15.2576 17.0944 17.0944 15.2576 17.0944 13ZM13.0024 12.7072H12.9976C12.8432 12.7072 12.6933 12.6424 12.5755 12.5251C12.448 12.3981 12.3779 12.2293 12.3779 12.0504C12.3779 11.6875 12.6731 11.3923 13.036 11.3923C13.2915 11.3923 13.5261 11.5421 13.6336 11.7741C13.7016 11.9208 13.8757 11.9845 14.0221 11.9165C14.1688 11.8485 14.2325 11.6747 14.1645 11.528C14.0035 11.1805 13.6915 10.9307 13.3285 10.8421V10.5104C13.3285 10.3488 13.1976 10.2176 13.0357 10.2176C12.8739 10.2176 12.7429 10.3485 12.7429 10.5104V10.8419C12.1981 10.9739 11.792 11.4656 11.792 12.0507C11.792 12.3864 11.9232 12.7021 12.1616 12.9397C12.3899 13.1675 12.6867 13.2928 12.9971 13.2928H13.0019C13.1563 13.2928 13.3061 13.3576 13.424 13.4749C13.5515 13.6019 13.6216 13.7704 13.6216 13.9496C13.6216 14.3125 13.3264 14.6077 12.9635 14.6077C12.708 14.6077 12.4733 14.4579 12.3659 14.2259C12.2979 14.0792 12.124 14.0155 11.9773 14.0835C11.8307 14.1515 11.7669 14.3253 11.8349 14.472C12.0064 14.8421 12.3496 15.1016 12.7429 15.1731V15.4896C12.7429 15.6512 12.8739 15.7824 13.0357 15.7824C13.1976 15.7824 13.3285 15.6515 13.3285 15.4896V15.1384C13.8368 14.9821 14.2072 14.5083 14.2072 13.9493C14.2072 13.6136 14.076 13.2979 13.8376 13.0603C13.6093 12.8325 13.3128 12.7072 13.0024 12.7072Z"/>
</mask>
<path d="M22.7221 22.0069C22.7221 22.1685 22.5912 22.2997 22.4293 22.2997H20.4792C20.3176 22.2997 20.1864 22.1688 20.1864 22.0069V20.0571C20.1864 19.8955 20.3173 19.7643 20.4792 19.7643C20.6408 19.7643 20.772 19.8952 20.772 20.0571V21.36C23.0933 19.2016 24.4147 16.1845 24.4147 13C24.4147 6.70587 19.2941 1.58533 13 1.58533C10.9251 1.58533 8.89387 2.14747 7.1256 3.21093C6.9872 3.29413 6.8072 3.2496 6.724 3.11093C6.6408 2.97253 6.68533 2.79253 6.824 2.70933C8.6832 1.5912 10.8189 1 13 1C16.2053 1 19.2187 2.24827 21.4853 4.51467C23.7517 6.78133 25 9.79467 25 13C25 16.3115 23.6413 19.4507 21.2499 21.7144H22.4293C22.5909 21.7144 22.7221 21.8453 22.7221 22.0069ZM18.8744 22.7891C17.1061 23.8525 15.0747 24.4147 13 24.4147C6.70587 24.4147 1.58533 19.2941 1.58533 13C1.58533 9.81547 2.9064 6.7984 5.22773 4.64V5.94293C5.22773 6.10453 5.35867 6.23573 5.52053 6.23573C5.68213 6.23573 5.81333 6.1048 5.81333 5.94293V3.9928C5.81333 3.8312 5.6824 3.7 5.52053 3.7H3.57067C3.40907 3.7 3.27787 3.83093 3.27787 3.9928C3.27787 4.1544 3.4088 4.2856 3.57067 4.2856H4.75013C2.35867 6.54933 1 9.68827 1 13C1 16.2053 2.24827 19.2187 4.51467 21.4853C6.78133 23.7517 9.79467 25 13 25C15.1811 25 17.3168 24.4088 19.176 23.2907C19.3144 23.2075 19.3592 23.0275 19.276 22.8891C19.1928 22.7504 19.0128 22.7059 18.8744 22.7891ZM19.3045 16.5419C19.2672 16.6083 19.2704 16.6763 19.3136 16.7387L19.896 17.5795C20.1085 17.8861 20.0712 18.3 19.8075 18.5637L18.5635 19.8077C18.2997 20.0715 17.8856 20.1088 17.5792 19.8963L16.7381 19.3136C16.6757 19.2704 16.6075 19.2672 16.5413 19.3045C16.0397 19.5869 15.5056 19.8085 14.9533 19.9632C14.8803 19.9837 14.8344 20.0341 14.8208 20.1088L14.6381 21.1144C14.5715 21.4813 14.2525 21.7477 13.8795 21.7477H12.1203C11.7472 21.7477 11.4283 21.4813 11.3616 21.1144L11.1789 20.1091C11.1653 20.0341 11.1195 19.984 11.0461 19.9635C10.4933 19.8088 9.95893 19.5872 9.45787 19.3048C9.39147 19.2675 9.32347 19.2707 9.26107 19.3139L8.42053 19.8963C8.11387 20.1085 7.7 20.0715 7.43627 19.8077L6.19253 18.564C5.9288 18.3003 5.89147 17.8861 6.10373 17.5797L6.6864 16.7387C6.7296 16.676 6.7328 16.608 6.69547 16.5419C6.41307 16.0403 6.19147 15.5061 6.0368 14.9539C6.01627 14.8808 5.96587 14.8349 5.8912 14.8213L4.8856 14.6387C4.51867 14.572 4.25227 14.2531 4.25227 13.88V12.1208C4.25227 11.7477 4.51867 11.4288 4.8856 11.3621L5.8912 11.1797C5.96587 11.1661 6.01627 11.1203 6.0368 11.0469C6.19147 10.4941 6.41307 9.95973 6.69547 9.4584C6.7328 9.392 6.7296 9.324 6.6864 9.2616L6.104 8.42107C5.89147 8.1144 5.9288 7.70053 6.19253 7.4368L7.43653 6.1928C7.70027 5.92907 8.11413 5.89173 8.4208 6.10427L9.26187 6.68693C9.32427 6.73013 9.39227 6.73333 9.45867 6.696C9.96027 6.4136 10.4947 6.192 11.0467 6.03733C11.1197 6.0168 11.1656 5.9664 11.1792 5.89173L11.3619 4.88613C11.4285 4.5192 11.7475 4.2528 12.1205 4.2528H13.8797C14.2528 4.2528 14.5717 4.5192 14.6384 4.88613L14.8211 5.89173C14.8347 5.96667 14.8805 6.01707 14.9539 6.03733C15.5061 6.192 16.0405 6.4136 16.5419 6.696C16.6083 6.73333 16.6763 6.73013 16.7387 6.68693L17.5795 6.10427C17.8861 5.892 18.3 5.92907 18.5637 6.1928L19.8075 7.43653C20.0712 7.70027 20.1085 8.1144 19.896 8.4208L19.3133 9.26187C19.2701 9.32427 19.2669 9.39253 19.3043 9.45867C19.5864 9.95973 19.808 10.4941 19.9627 11.0467C19.9832 11.1197 20.0336 11.1656 20.1085 11.1792L21.1144 11.3619C21.4813 11.4285 21.7477 11.7475 21.7477 12.1205V13.8797C21.7477 14.2528 21.4813 14.5717 21.1144 14.6384L20.1088 14.8208C20.0341 14.8344 19.9837 14.8803 19.9632 14.9533C19.8083 15.5061 19.5867 16.0405 19.3045 16.5419ZM18.7947 16.2547C19.0539 15.7944 19.2573 15.3035 19.3997 14.7957C19.48 14.5091 19.7117 14.2981 20.0045 14.2451L21.0101 14.0627C21.1 14.0464 21.1627 13.9712 21.1627 13.88V12.1208C21.1627 12.0296 21.1 11.9544 21.0101 11.9381L20.0043 11.7555C19.7115 11.7024 19.4797 11.4912 19.3995 11.2048C19.2573 10.6973 19.0539 10.2067 18.7944 9.74613C18.6483 9.48667 18.6629 9.17333 18.8325 8.9288L19.4152 8.08773C19.4672 8.0128 19.4584 7.9152 19.3939 7.85067L18.1501 6.60693C18.0856 6.5424 17.988 6.5336 17.9131 6.5856L17.0723 7.168C16.8275 7.3376 16.5144 7.35227 16.2547 7.20613C15.7941 6.94667 15.3032 6.7432 14.796 6.60107C14.5093 6.5208 14.2984 6.28907 14.2453 5.99627L14.0627 4.99067C14.0464 4.9008 13.9712 4.83813 13.88 4.83813H12.1208C12.0296 4.83813 11.9544 4.9008 11.9381 4.99067L11.7555 5.99627C11.7024 6.28907 11.4915 6.5208 11.2048 6.60107C10.6979 6.74293 10.2069 6.94667 9.74613 7.20613C9.48667 7.35227 9.1736 7.3376 8.9288 7.168L8.08773 6.58533C8.0128 6.53333 7.9152 6.54213 7.85067 6.60667L6.60667 7.85067C6.54213 7.9152 6.53333 8.0128 6.58533 8.08773L7.16773 8.92827C7.33733 9.17307 7.352 9.4864 7.20587 9.7456C6.94667 10.2061 6.7432 10.6968 6.6008 11.2045C6.52053 11.4912 6.2888 11.7021 5.996 11.7552L4.9904 11.9376C4.90053 11.9539 4.83787 12.0291 4.83787 12.1203V13.8795C4.83787 13.9707 4.90053 14.0459 4.9904 14.0621L5.996 14.2448C6.2888 14.2979 6.52053 14.5091 6.6008 14.7955C6.74293 15.3027 6.9464 15.7936 7.20587 16.2541C7.352 16.5136 7.33733 16.8267 7.16773 17.0715L6.58507 17.9125C6.53307 17.9875 6.54187 18.0851 6.6064 18.1496L7.85013 19.3936C7.91467 19.4581 8.01227 19.4669 8.0872 19.4149L8.92773 18.8325C9.06027 18.7408 9.21307 18.6944 9.3664 18.6944C9.496 18.6944 9.6264 18.7277 9.74533 18.7947C10.2059 19.0539 10.6968 19.2576 11.2045 19.3997C11.4912 19.48 11.7021 19.7117 11.7552 20.0045L11.9379 21.0099C11.9541 21.0997 12.0293 21.1624 12.1205 21.1624H13.8797C13.9709 21.1624 14.0461 21.0997 14.0624 21.0099L14.2451 20.004C14.2981 19.7112 14.5093 19.4795 14.7957 19.3992C15.3029 19.2571 15.7936 19.0536 16.2544 18.7941C16.5139 18.648 16.8272 18.6627 17.0717 18.8323L17.9128 19.4149C17.9877 19.4669 18.0853 19.4581 18.1499 19.3936L19.3939 18.1496C19.4584 18.0851 19.4672 17.9875 19.4152 17.9125L18.8328 17.072C18.6629 16.8272 18.6485 16.5141 18.7947 16.2547ZM17.6797 13C17.6797 15.5805 15.5803 17.6797 13 17.6797C10.4195 17.6797 8.32 15.5803 8.32 13C8.32 10.4195 10.4195 8.32027 13 8.32027C15.5805 8.32 17.6797 10.4195 17.6797 13ZM17.0944 13C17.0944 10.7424 15.2576 8.9056 13 8.9056C10.7424 8.9056 8.9056 10.7421 8.9056 13C8.9056 15.2576 10.7424 17.0944 13 17.0944C15.2576 17.0944 17.0944 15.2576 17.0944 13ZM13.0024 12.7072H12.9976C12.8432 12.7072 12.6933 12.6424 12.5755 12.5251C12.448 12.3981 12.3779 12.2293 12.3779 12.0504C12.3779 11.6875 12.6731 11.3923 13.036 11.3923C13.2915 11.3923 13.5261 11.5421 13.6336 11.7741C13.7016 11.9208 13.8757 11.9845 14.0221 11.9165C14.1688 11.8485 14.2325 11.6747 14.1645 11.528C14.0035 11.1805 13.6915 10.9307 13.3285 10.8421V10.5104C13.3285 10.3488 13.1976 10.2176 13.0357 10.2176C12.8739 10.2176 12.7429 10.3485 12.7429 10.5104V10.8419C12.1981 10.9739 11.792 11.4656 11.792 12.0507C11.792 12.3864 11.9232 12.7021 12.1616 12.9397C12.3899 13.1675 12.6867 13.2928 12.9971 13.2928H13.0019C13.1563 13.2928 13.3061 13.3576 13.424 13.4749C13.5515 13.6019 13.6216 13.7704 13.6216 13.9496C13.6216 14.3125 13.3264 14.6077 12.9635 14.6077C12.708 14.6077 12.4733 14.4579 12.3659 14.2259C12.2979 14.0792 12.124 14.0155 11.9773 14.0835C11.8307 14.1515 11.7669 14.3253 11.8349 14.472C12.0064 14.8421 12.3496 15.1016 12.7429 15.1731V15.4896C12.7429 15.6512 12.8739 15.7824 13.0357 15.7824C13.1976 15.7824 13.3285 15.6515 13.3285 15.4896V15.1384C13.8368 14.9821 14.2072 14.5083 14.2072 13.9493C14.2072 13.6136 14.076 13.2979 13.8376 13.0603C13.6093 12.8325 13.3128 12.7072 13.0024 12.7072Z" fill="white"/>
<path d="M22.7221 22.0069C22.7221 22.1685 22.5912 22.2997 22.4293 22.2997H20.4792C20.3176 22.2997 20.1864 22.1688 20.1864 22.0069V20.0571C20.1864 19.8955 20.3173 19.7643 20.4792 19.7643C20.6408 19.7643 20.772 19.8952 20.772 20.0571V21.36C23.0933 19.2016 24.4147 16.1845 24.4147 13C24.4147 6.70587 19.2941 1.58533 13 1.58533C10.9251 1.58533 8.89387 2.14747 7.1256 3.21093C6.9872 3.29413 6.8072 3.2496 6.724 3.11093C6.6408 2.97253 6.68533 2.79253 6.824 2.70933C8.6832 1.5912 10.8189 1 13 1C16.2053 1 19.2187 2.24827 21.4853 4.51467C23.7517 6.78133 25 9.79467 25 13C25 16.3115 23.6413 19.4507 21.2499 21.7144H22.4293C22.5909 21.7144 22.7221 21.8453 22.7221 22.0069ZM18.8744 22.7891C17.1061 23.8525 15.0747 24.4147 13 24.4147C6.70587 24.4147 1.58533 19.2941 1.58533 13C1.58533 9.81547 2.9064 6.7984 5.22773 4.64V5.94293C5.22773 6.10453 5.35867 6.23573 5.52053 6.23573C5.68213 6.23573 5.81333 6.1048 5.81333 5.94293V3.9928C5.81333 3.8312 5.6824 3.7 5.52053 3.7H3.57067C3.40907 3.7 3.27787 3.83093 3.27787 3.9928C3.27787 4.1544 3.4088 4.2856 3.57067 4.2856H4.75013C2.35867 6.54933 1 9.68827 1 13C1 16.2053 2.24827 19.2187 4.51467 21.4853C6.78133 23.7517 9.79467 25 13 25C15.1811 25 17.3168 24.4088 19.176 23.2907C19.3144 23.2075 19.3592 23.0275 19.276 22.8891C19.1928 22.7504 19.0128 22.7059 18.8744 22.7891ZM19.3045 16.5419C19.2672 16.6083 19.2704 16.6763 19.3136 16.7387L19.896 17.5795C20.1085 17.8861 20.0712 18.3 19.8075 18.5637L18.5635 19.8077C18.2997 20.0715 17.8856 20.1088 17.5792 19.8963L16.7381 19.3136C16.6757 19.2704 16.6075 19.2672 16.5413 19.3045C16.0397 19.5869 15.5056 19.8085 14.9533 19.9632C14.8803 19.9837 14.8344 20.0341 14.8208 20.1088L14.6381 21.1144C14.5715 21.4813 14.2525 21.7477 13.8795 21.7477H12.1203C11.7472 21.7477 11.4283 21.4813 11.3616 21.1144L11.1789 20.1091C11.1653 20.0341 11.1195 19.984 11.0461 19.9635C10.4933 19.8088 9.95893 19.5872 9.45787 19.3048C9.39147 19.2675 9.32347 19.2707 9.26107 19.3139L8.42053 19.8963C8.11387 20.1085 7.7 20.0715 7.43627 19.8077L6.19253 18.564C5.9288 18.3003 5.89147 17.8861 6.10373 17.5797L6.6864 16.7387C6.7296 16.676 6.7328 16.608 6.69547 16.5419C6.41307 16.0403 6.19147 15.5061 6.0368 14.9539C6.01627 14.8808 5.96587 14.8349 5.8912 14.8213L4.8856 14.6387C4.51867 14.572 4.25227 14.2531 4.25227 13.88V12.1208C4.25227 11.7477 4.51867 11.4288 4.8856 11.3621L5.8912 11.1797C5.96587 11.1661 6.01627 11.1203 6.0368 11.0469C6.19147 10.4941 6.41307 9.95973 6.69547 9.4584C6.7328 9.392 6.7296 9.324 6.6864 9.2616L6.104 8.42107C5.89147 8.1144 5.9288 7.70053 6.19253 7.4368L7.43653 6.1928C7.70027 5.92907 8.11413 5.89173 8.4208 6.10427L9.26187 6.68693C9.32427 6.73013 9.39227 6.73333 9.45867 6.696C9.96027 6.4136 10.4947 6.192 11.0467 6.03733C11.1197 6.0168 11.1656 5.9664 11.1792 5.89173L11.3619 4.88613C11.4285 4.5192 11.7475 4.2528 12.1205 4.2528H13.8797C14.2528 4.2528 14.5717 4.5192 14.6384 4.88613L14.8211 5.89173C14.8347 5.96667 14.8805 6.01707 14.9539 6.03733C15.5061 6.192 16.0405 6.4136 16.5419 6.696C16.6083 6.73333 16.6763 6.73013 16.7387 6.68693L17.5795 6.10427C17.8861 5.892 18.3 5.92907 18.5637 6.1928L19.8075 7.43653C20.0712 7.70027 20.1085 8.1144 19.896 8.4208L19.3133 9.26187C19.2701 9.32427 19.2669 9.39253 19.3043 9.45867C19.5864 9.95973 19.808 10.4941 19.9627 11.0467C19.9832 11.1197 20.0336 11.1656 20.1085 11.1792L21.1144 11.3619C21.4813 11.4285 21.7477 11.7475 21.7477 12.1205V13.8797C21.7477 14.2528 21.4813 14.5717 21.1144 14.6384L20.1088 14.8208C20.0341 14.8344 19.9837 14.8803 19.9632 14.9533C19.8083 15.5061 19.5867 16.0405 19.3045 16.5419ZM18.7947 16.2547C19.0539 15.7944 19.2573 15.3035 19.3997 14.7957C19.48 14.5091 19.7117 14.2981 20.0045 14.2451L21.0101 14.0627C21.1 14.0464 21.1627 13.9712 21.1627 13.88V12.1208C21.1627 12.0296 21.1 11.9544 21.0101 11.9381L20.0043 11.7555C19.7115 11.7024 19.4797 11.4912 19.3995 11.2048C19.2573 10.6973 19.0539 10.2067 18.7944 9.74613C18.6483 9.48667 18.6629 9.17333 18.8325 8.9288L19.4152 8.08773C19.4672 8.0128 19.4584 7.9152 19.3939 7.85067L18.1501 6.60693C18.0856 6.5424 17.988 6.5336 17.9131 6.5856L17.0723 7.168C16.8275 7.3376 16.5144 7.35227 16.2547 7.20613C15.7941 6.94667 15.3032 6.7432 14.796 6.60107C14.5093 6.5208 14.2984 6.28907 14.2453 5.99627L14.0627 4.99067C14.0464 4.9008 13.9712 4.83813 13.88 4.83813H12.1208C12.0296 4.83813 11.9544 4.9008 11.9381 4.99067L11.7555 5.99627C11.7024 6.28907 11.4915 6.5208 11.2048 6.60107C10.6979 6.74293 10.2069 6.94667 9.74613 7.20613C9.48667 7.35227 9.1736 7.3376 8.9288 7.168L8.08773 6.58533C8.0128 6.53333 7.9152 6.54213 7.85067 6.60667L6.60667 7.85067C6.54213 7.9152 6.53333 8.0128 6.58533 8.08773L7.16773 8.92827C7.33733 9.17307 7.352 9.4864 7.20587 9.7456C6.94667 10.2061 6.7432 10.6968 6.6008 11.2045C6.52053 11.4912 6.2888 11.7021 5.996 11.7552L4.9904 11.9376C4.90053 11.9539 4.83787 12.0291 4.83787 12.1203V13.8795C4.83787 13.9707 4.90053 14.0459 4.9904 14.0621L5.996 14.2448C6.2888 14.2979 6.52053 14.5091 6.6008 14.7955C6.74293 15.3027 6.9464 15.7936 7.20587 16.2541C7.352 16.5136 7.33733 16.8267 7.16773 17.0715L6.58507 17.9125C6.53307 17.9875 6.54187 18.0851 6.6064 18.1496L7.85013 19.3936C7.91467 19.4581 8.01227 19.4669 8.0872 19.4149L8.92773 18.8325C9.06027 18.7408 9.21307 18.6944 9.3664 18.6944C9.496 18.6944 9.6264 18.7277 9.74533 18.7947C10.2059 19.0539 10.6968 19.2576 11.2045 19.3997C11.4912 19.48 11.7021 19.7117 11.7552 20.0045L11.9379 21.0099C11.9541 21.0997 12.0293 21.1624 12.1205 21.1624H13.8797C13.9709 21.1624 14.0461 21.0997 14.0624 21.0099L14.2451 20.004C14.2981 19.7112 14.5093 19.4795 14.7957 19.3992C15.3029 19.2571 15.7936 19.0536 16.2544 18.7941C16.5139 18.648 16.8272 18.6627 17.0717 18.8323L17.9128 19.4149C17.9877 19.4669 18.0853 19.4581 18.1499 19.3936L19.3939 18.1496C19.4584 18.0851 19.4672 17.9875 19.4152 17.9125L18.8328 17.072C18.6629 16.8272 18.6485 16.5141 18.7947 16.2547ZM17.6797 13C17.6797 15.5805 15.5803 17.6797 13 17.6797C10.4195 17.6797 8.32 15.5803 8.32 13C8.32 10.4195 10.4195 8.32027 13 8.32027C15.5805 8.32 17.6797 10.4195 17.6797 13ZM17.0944 13C17.0944 10.7424 15.2576 8.9056 13 8.9056C10.7424 8.9056 8.9056 10.7421 8.9056 13C8.9056 15.2576 10.7424 17.0944 13 17.0944C15.2576 17.0944 17.0944 15.2576 17.0944 13ZM13.0024 12.7072H12.9976C12.8432 12.7072 12.6933 12.6424 12.5755 12.5251C12.448 12.3981 12.3779 12.2293 12.3779 12.0504C12.3779 11.6875 12.6731 11.3923 13.036 11.3923C13.2915 11.3923 13.5261 11.5421 13.6336 11.7741C13.7016 11.9208 13.8757 11.9845 14.0221 11.9165C14.1688 11.8485 14.2325 11.6747 14.1645 11.528C14.0035 11.1805 13.6915 10.9307 13.3285 10.8421V10.5104C13.3285 10.3488 13.1976 10.2176 13.0357 10.2176C12.8739 10.2176 12.7429 10.3485 12.7429 10.5104V10.8419C12.1981 10.9739 11.792 11.4656 11.792 12.0507C11.792 12.3864 11.9232 12.7021 12.1616 12.9397C12.3899 13.1675 12.6867 13.2928 12.9971 13.2928H13.0019C13.1563 13.2928 13.3061 13.3576 13.424 13.4749C13.5515 13.6019 13.6216 13.7704 13.6216 13.9496C13.6216 14.3125 13.3264 14.6077 12.9635 14.6077C12.708 14.6077 12.4733 14.4579 12.3659 14.2259C12.2979 14.0792 12.124 14.0155 11.9773 14.0835C11.8307 14.1515 11.7669 14.3253 11.8349 14.472C12.0064 14.8421 12.3496 15.1016 12.7429 15.1731V15.4896C12.7429 15.6512 12.8739 15.7824 13.0357 15.7824C13.1976 15.7824 13.3285 15.6515 13.3285 15.4896V15.1384C13.8368 14.9821 14.2072 14.5083 14.2072 13.9493C14.2072 13.6136 14.076 13.2979 13.8376 13.0603C13.6093 12.8325 13.3128 12.7072 13.0024 12.7072Z" stroke="white" stroke-width="0.4" mask="url(#path-1-outside-1_18346_83136)"/>
</svg>
