<svg width="22" height="17" viewBox="0 0 22 17" fill="none" xmlns="http://www.w3.org/2000/svg">
<path fill-rule="evenodd" clip-rule="evenodd" d="M1.27475 12.4684C0.942682 12.1369 0.737226 11.6788 0.737226 11.1746V2.56849C0.737226 2.06435 0.942682 1.60624 1.27475 1.27475C1.60624 0.942682 2.06435 0.737226 2.56849 0.737226H16.0469C16.551 0.737226 17.0086 0.942682 17.3406 1.27475C17.6727 1.60624 17.8782 2.06435 17.8782 2.56849V5.25106C18.1314 5.31641 18.3776 5.39934 18.6154 5.49849V2.56849C18.6154 1.86062 18.3271 1.21835 17.862 0.75334C17.397 0.28833 16.7548 0 16.0469 0H2.56849C1.86062 0 1.21835 0.28833 0.75334 0.75334C0.28833 1.21835 0 1.86062 0 2.56849V11.1746C0 11.8825 0.28833 12.5248 0.75334 12.9898C1.21835 13.4548 1.86062 13.7431 2.56849 13.7431H12.0022C11.8378 13.5101 11.6911 13.2637 11.564 13.0059H2.56849C2.06435 13.0059 1.60624 12.8005 1.27475 12.4684ZM13.2995 6.10353C12.7334 6.50932 12.2474 7.01992 11.87 7.60697L10.876 8.65219C10.8466 8.68326 10.8167 8.71319 10.7867 8.74139C10.3557 9.15173 9.83313 9.35661 9.30769 9.35661C8.78283 9.35661 8.26027 9.15115 7.82921 8.74139C7.79871 8.71262 7.76878 8.68269 7.73943 8.65219L6.37433 7.21687L2.35728 11.4405C2.21743 11.5879 1.98435 11.5936 1.83702 11.4532C1.68969 11.3133 1.68451 11.0803 1.82436 10.9335L5.86673 6.68337L2.12247 2.74632C1.98263 2.59899 1.98838 2.36649 2.13514 2.22664C2.28247 2.08679 2.51497 2.09255 2.65482 2.2393L8.27178 8.14574C8.2925 8.16761 8.31379 8.1889 8.33566 8.20905C8.62341 8.48299 8.96642 8.61996 9.30769 8.61996C9.64839 8.61996 9.99197 8.48299 10.2797 8.20905C10.301 8.1889 10.3223 8.16761 10.343 8.14574L15.96 2.2393C16.0998 2.09197 16.3329 2.08679 16.4797 2.22664C16.627 2.36649 16.6328 2.59957 16.4923 2.74632L13.2995 6.10353Z" fill="#FF8926"/>
<path d="M21.625 10.9999C21.625 13.5967 19.5199 15.7018 16.9231 15.7018C14.3263 15.7018 12.2212 13.5967 12.2212 10.9999C12.2212 8.4031 14.3263 6.29797 16.9231 6.29797C19.5199 6.29797 21.625 8.4031 21.625 10.9999Z" stroke="#FF8926" stroke-width="0.75"/>
<path d="M16.2585 10.5088C16.1802 10.4249 16.1802 10.2896 16.2585 10.2058L17.4585 8.92009C17.5368 8.83625 17.663 8.83625 17.7413 8.92009C17.8195 9.00393 17.8195 9.1392 17.7413 9.22304L16.5413 10.5088C16.5023 10.5505 16.451 10.5714 16.3998 10.5714C16.3485 10.5714 16.2975 10.5505 16.2585 10.5088ZM16.4 9.28571C16.5105 9.28571 16.6 9.18982 16.6 9.07143C16.6 8.95303 16.5105 8.85714 16.4 8.85714C16.2895 8.85714 16.2 8.95303 16.2 9.07143C16.2 9.18982 16.2895 9.28571 16.4 9.28571ZM17.4 10.3571C17.4 10.4755 17.4895 10.5714 17.6 10.5714C17.7105 10.5714 17.8 10.4755 17.8 10.3571C17.8 10.2387 17.7105 10.1429 17.6 10.1429C17.4895 10.1429 17.4 10.2387 17.4 10.3571ZM19 8.64286V13.3571C19 13.7115 18.7308 14 18.4 14H15.6C15.2692 14 15 13.7115 15 13.3571V8.64286C15 8.28848 15.2692 8 15.6 8H18.4C18.7308 8 19 8.28848 19 8.64286ZM18.6 8.64286C18.6 8.52473 18.5105 8.42857 18.4 8.42857H15.6C15.4895 8.42857 15.4 8.52473 15.4 8.64286V13.3571C15.4 13.4753 15.4895 13.5714 15.6 13.5714H18.4C18.5105 13.5714 18.6 13.4753 18.6 13.3571V8.64286ZM18 11H16C15.8895 11 15.8 11.0959 15.8 11.2143C15.8 11.3327 15.8895 11.4286 16 11.4286H18C18.1105 11.4286 18.2 11.3327 18.2 11.2143C18.2 11.0959 18.1105 11 18 11ZM18 11.8571H16C15.8895 11.8571 15.8 11.953 15.8 12.0714C15.8 12.1898 15.8895 12.2857 16 12.2857H18C18.1105 12.2857 18.2 12.1898 18.2 12.0714C18.2 11.953 18.1105 11.8571 18 11.8571ZM17.6 12.7143H16.4C16.2895 12.7143 16.2 12.8102 16.2 12.9286C16.2 13.047 16.2895 13.1429 16.4 13.1429H17.6C17.7105 13.1429 17.8 13.047 17.8 12.9286C17.8 12.8102 17.7105 12.7143 17.6 12.7143Z" fill="#FF8926"/>
</svg>
