<svg width="22" height="22" viewBox="0 0 22 22" fill="none" xmlns="http://www.w3.org/2000/svg">
<g clip-path="url(#clip0_2610_31297)">
<path fill-rule="evenodd" clip-rule="evenodd" d="M12.3106 2.48437C10.6833 2.48437 9.36411 3.72607 9.36411 5.2578C9.36411 6.78952 10.6833 8.03123 12.3106 8.03123C13.9378 8.03123 15.257 6.78952 15.257 5.2578C15.257 3.72607 13.9378 2.48437 12.3106 2.48437ZM8.18555 5.2578C8.18555 3.11338 10.0324 1.375 12.3106 1.375C14.5887 1.375 16.4355 3.11338 16.4355 5.2578C16.4355 7.4022 14.5887 9.1406 12.3106 9.1406C10.0324 9.1406 8.18555 7.4022 8.18555 5.2578Z" fill="#FF8926" stroke="#FF8926" stroke-width="0.8"/>
<path fill-rule="evenodd" clip-rule="evenodd" d="M9.18711 11.4595C9.18711 11.2058 9.42418 11 9.71662 11H13.5677C16.828 11 19.6412 12.9852 20.3063 15.7553L20.5457 16.7518C21.0254 18.7495 19.2683 20.625 16.9171 20.625H7.83029C5.53343 20.625 3.7902 18.8295 4.17959 16.8651C4.33652 16.0733 4.61866 15.3042 5.01802 14.5795L5.87488 13.0246C6.00105 12.7956 6.31721 12.6988 6.58103 12.8083C6.84484 12.9178 6.95642 13.1922 6.83024 13.4212L5.97338 14.976C5.61608 15.6245 5.36366 16.3125 5.22326 17.0208C4.94519 18.4238 6.19006 19.7059 7.83029 19.7059H16.9171C18.5966 19.7059 19.8516 18.3662 19.5089 16.9393L19.2697 15.9428C18.7068 13.5988 16.3264 11.9191 13.5677 11.9191H9.71662C9.42418 11.9191 9.18711 11.7134 9.18711 11.4595Z" fill="#FF8926" stroke="#FF8926" stroke-width="0.8"/>
</g>
<defs>
<clipPath id="clip0_2610_31297">
<rect width="22" height="22" fill="white"/>
</clipPath>
</defs>
</svg>
