<svg width="24" height="24" viewBox="0 0 24 24" fill="none" xmlns="http://www.w3.org/2000/svg">
<g id="Icon">
<path id="Vector" d="M18.71 3.24179C18.5187 3.07705 18.2726 2.99097 18.0209 3.00075C17.7693 3.01052 17.5305 3.11543 17.3524 3.29452C17.1743 3.4736 17.07 3.71366 17.0603 3.96673C17.0506 4.21979 17.1362 4.46723 17.3 4.65959L18.59 5.96679H3C2.73478 5.96679 2.48043 6.07273 2.29289 6.2613C2.10536 6.44988 2 6.70564 2 6.97232C2 7.23901 2.10536 7.49477 2.29289 7.68334C2.48043 7.87192 2.73478 7.97786 3 7.97786H18.59L17.29 9.275C17.1853 9.36514 17.1003 9.47607 17.0403 9.60082C16.9803 9.72558 16.9465 9.86146 16.9412 9.99994C16.9359 10.1384 16.9591 10.2765 17.0094 10.4055C17.0596 10.5346 17.1359 10.6518 17.2333 10.7498C17.3308 10.8478 17.4474 10.9244 17.5757 10.975C17.704 11.0255 17.8413 11.0489 17.9791 11.0435C18.1168 11.0382 18.2519 11.0043 18.376 10.9439C18.5 10.8836 18.6104 10.7981 18.7 10.6928L21.7 7.6762C21.8863 7.4878 21.9908 7.23294 21.9908 6.9673C21.9908 6.70165 21.8863 6.44679 21.7 6.25839L18.71 3.24179Z" fill="#FF8926"/>
<path id="Vector_2" d="M21.0008 16.0222H5.41079L6.70079 14.725C6.86462 14.5327 6.95023 14.2852 6.9405 14.0322C6.93078 13.7791 6.82645 13.539 6.64836 13.3599C6.47026 13.1809 6.23152 13.076 5.97985 13.0662C5.72817 13.0564 5.48209 13.1425 5.29079 13.3072L2.29079 16.3238C2.10454 16.5122 2 16.7671 2 17.0327C2 17.2984 2.10454 17.5532 2.29079 17.7416L5.29079 20.7582C5.48209 20.923 5.72817 21.009 5.97985 20.9993C6.23152 20.9895 6.47026 20.8846 6.64836 20.7055C6.82645 20.5264 6.93078 20.2864 6.9405 20.0333C6.95023 19.7802 6.86462 19.5328 6.70079 19.3404L5.41079 18.0332H21.0008C21.266 18.0332 21.5204 17.9273 21.7079 17.7387C21.8954 17.5501 22.0008 17.2944 22.0008 17.0277C22.0008 16.761 21.8954 16.5053 21.7079 16.3167C21.5204 16.1281 21.266 16.0222 21.0008 16.0222Z" fill="#FF8926"/>
</g>
</svg>
