<svg width="22" height="22" viewBox="0 0 22 22" fill="none" xmlns="http://www.w3.org/2000/svg">
<g clip-path="url(#clip0_6348_11098)">
<path d="M21.6333 9.82679H20.6653V6.43596C20.6653 5.30213 19.7229 4.37999 18.5643 4.37999H18.5166V2.96269C18.5166 1.88089 17.6146 1 16.5073 1H2.00566C0.900178 1 0 1.88087 0 2.96269V18.9404C0 20.0761 0.944154 21 2.10467 21H18.5644C19.723 21 20.6653 20.0761 20.6653 18.9404V15.5523H21.6333C21.8359 15.5523 22 15.3918 22 15.1935V10.1854C22 9.98713 21.8359 9.82656 21.6333 9.82656L21.6333 9.82679ZM0.733476 2.96269C0.733476 2.27557 1.30456 1.71762 2.00581 1.71762H16.5074C17.2114 1.71762 17.7834 2.27646 17.7834 2.96269V4.37999H2.10496C1.58062 4.37999 1.10214 4.56926 0.733616 4.87964L0.733476 2.96269ZM19.9319 18.9404C19.9319 19.6805 19.3178 20.2824 18.5643 20.2824H2.1046C1.34835 20.2824 0.733265 19.6805 0.733265 18.9404V6.43596C0.733265 5.69772 1.34835 5.09761 2.1046 5.09761H18.5643C19.3187 5.09761 19.9319 5.69772 19.9319 6.43596V9.82679H15.7868C14.1735 9.82679 12.8608 11.1113 12.8608 12.6901C12.8608 14.269 14.1734 15.5535 15.7868 15.5535H19.9319V18.9416V18.9404ZM21.2666 14.8347H15.7867C14.5776 14.8347 13.594 13.8722 13.594 12.689C13.594 11.5059 14.5776 10.5434 15.7867 10.5434H20.2967H20.2986H20.3004H21.2666L21.2666 14.8347Z" fill="white" stroke="white" stroke-width="0.5"/>
<path d="M16.0658 11.4062C15.3434 11.4062 14.7559 11.9821 14.7559 12.689C14.7559 13.3958 15.3434 13.9717 16.0658 13.9717C16.7881 13.9717 17.3766 13.3958 17.3766 12.689C17.3766 11.9821 16.7881 11.4062 16.0658 11.4062ZM16.0658 13.2532C15.7477 13.2532 15.4892 13.0003 15.4892 12.6881C15.4892 12.3768 15.7477 12.123 16.0658 12.123C16.3839 12.123 16.6433 12.376 16.6433 12.6881C16.6433 12.9994 16.3847 13.2532 16.0658 13.2532Z" fill="white" stroke="white" stroke-width="0.5"/>
</g>
<defs>
<clipPath id="clip0_6348_11098">
<rect width="22" height="22" fill="white"/>
</clipPath>
</defs>
</svg>
