<svg width="24" height="24" viewBox="0 0 24 24" fill="none" xmlns="http://www.w3.org/2000/svg">
<path d="M20.5383 17.4852L18.6276 19.7781L17.6367 18.7872C17.4634 18.6139 17.1834 18.6139 17.0101 18.7872C16.8368 18.9605 16.8368 19.2405 17.0101 19.4138L18.3432 20.7468C18.4276 20.8313 18.5387 20.8757 18.6587 20.8757C18.6676 20.8757 18.672 20.8757 18.6809 20.8757C18.8053 20.8713 18.9209 20.8135 19.0008 20.7157L21.2227 18.0496C21.3782 17.8629 21.356 17.583 21.1649 17.423C20.9738 17.263 20.6983 17.2897 20.5383 17.4808V17.4852Z" fill="white"/>
<path d="M17.7788 4.43945H17.7744C17.53 4.43945 17.3345 4.63942 17.3345 4.88382C17.3345 5.12821 17.5344 5.32818 17.7788 5.32818C18.0232 5.32818 18.2232 5.12821 18.2232 4.88382C18.2232 4.63942 18.0232 4.43945 17.7788 4.43945Z" fill="white"/>
<path d="M19.1076 4.43945C18.8632 4.43945 18.6677 4.63942 18.6677 4.88382C18.6677 5.12821 18.8677 5.32818 19.1121 5.32818C19.3565 5.32818 19.5564 5.12821 19.5564 4.88382C19.5564 4.63942 19.3565 4.43945 19.1121 4.43945H19.1076Z" fill="white"/>
<path d="M16.4458 4.43945H16.4414C16.197 4.43945 16.0015 4.63942 16.0015 4.88382C16.0015 5.12821 16.2014 5.32818 16.4458 5.32818C16.6902 5.32818 16.8902 5.12821 16.8902 4.88382C16.8902 4.63942 16.6902 4.43945 16.4458 4.43945Z" fill="white"/>
<path d="M4.88365 3.10645C3.90161 3.10645 3.1062 3.90185 3.1062 4.88389C3.1062 5.86593 3.90161 6.66134 4.88365 6.66134C5.86569 6.66134 6.6611 5.86593 6.6611 4.88389C6.6611 3.90185 5.86569 3.10645 4.88365 3.10645ZM4.88365 5.77262C4.39485 5.77262 3.99493 5.37269 3.99493 4.88389C3.99493 4.3951 4.39485 3.99517 4.88365 3.99517C5.37245 3.99517 5.77237 4.3951 5.77237 4.88389C5.77237 5.37269 5.37245 5.77262 4.88365 5.77262Z" fill="white"/>
<path d="M19.1031 14.2151C16.5569 14.2151 14.464 16.1703 14.2374 18.6588H9.29161C9.07387 17.1524 7.78078 15.9926 6.21663 15.9926C4.65247 15.9926 3.42603 17.0946 3.15941 18.5432C1.83522 18.1744 0.884281 16.9613 0.884281 15.5482C0.884281 14.7217 1.20866 13.9396 1.79078 13.3486C2.38178 12.7621 3.16386 12.4377 3.99482 12.4377H8.91835C9.13609 13.9441 10.4292 15.1039 11.9933 15.1039C13.5575 15.1039 14.8506 13.9441 15.0683 12.4377H19.9919C22.1959 12.4377 23.9911 10.6425 23.9911 8.43844C23.9911 7.37197 23.5779 6.36771 22.818 5.60785C22.2803 5.07462 21.5916 4.70135 20.8584 4.53694C20.6851 2.98611 19.3653 1.773 17.77 1.773C16.1748 1.773 14.9128 2.93279 14.6951 4.43918H9.77152V4.03036C9.77152 3.78597 9.57156 3.586 9.32716 3.586H8.69172C8.6384 3.42159 8.57174 3.26606 8.4962 3.11053L8.94501 2.66173C9.11831 2.48843 9.11831 2.20848 8.94501 2.03518L7.73634 0.826513C7.56304 0.653212 7.2831 0.653212 7.10979 0.826513L6.66099 1.27532C6.50546 1.19978 6.34994 1.13312 6.18552 1.0798V0.444362C6.18552 0.199963 5.98556 0 5.74116 0H4.03036C3.78597 0 3.586 0.199963 3.586 0.444362V1.0798C3.42159 1.13312 3.26606 1.19978 3.11053 1.27532L2.66173 0.826513C2.48843 0.653212 2.20848 0.653212 2.03518 0.826513L0.826513 2.03518C0.653212 2.20848 0.653212 2.48843 0.826513 2.66173L1.27532 3.11053C1.19978 3.26606 1.13312 3.42159 1.0798 3.586H0.444362C0.199963 3.586 0 3.78597 0 4.03036V5.74116C0 5.98556 0.199963 6.18552 0.444362 6.18552H1.0798C1.13312 6.34994 1.19978 6.50546 1.27532 6.66099L0.826513 7.10979C0.653212 7.2831 0.653212 7.56304 0.826513 7.73634L2.03518 8.94501C2.12405 9.03388 2.23514 9.07387 2.35068 9.07387C2.46621 9.07387 2.5773 9.02944 2.66617 8.94501L3.11498 8.4962C3.27051 8.57174 3.42603 8.6384 3.59045 8.69172V9.32716C3.59045 9.57156 3.79041 9.77152 4.03481 9.77152H5.7456C5.99 9.77152 6.18996 9.57156 6.18996 9.32716V8.69172C6.35438 8.6384 6.50991 8.57174 6.66543 8.4962L7.11424 8.94501C7.20311 9.03388 7.3142 9.07387 7.42973 9.07387C7.54527 9.07387 7.65636 9.02944 7.74523 8.94501L8.9539 7.73634C9.1272 7.56304 9.1272 7.2831 8.9539 7.10979L8.50509 6.66099C8.58063 6.50546 8.64729 6.34994 8.70061 6.18552H9.33605C9.58045 6.18552 9.78041 5.98556 9.78041 5.74116V5.33235H14.7039C14.9217 6.83873 16.2148 7.99852 17.7789 7.99852C19.3431 7.99852 20.5695 6.8965 20.8361 5.45232C21.3472 5.59452 21.8226 5.86558 22.2003 6.24329C22.7869 6.83429 23.1113 7.61637 23.1113 8.44732C23.1113 10.1626 21.716 11.5579 20.0007 11.5579H15.0772C14.8595 10.0515 13.5664 8.89169 12.0022 8.89169C10.4381 8.89169 9.14497 10.0515 8.92724 11.5579H4.0037C2.93723 11.5579 1.93298 11.9711 1.17312 12.731C0.4177 13.4908 0.00444351 14.4951 0.00444351 15.5571C0.00444351 17.4457 1.32864 19.0631 3.1372 19.4631C3.3105 21.0139 4.63025 22.2226 6.22551 22.2226C7.82077 22.2226 9.08276 21.0628 9.3005 19.5564H14.2462C14.4729 22.0448 16.5658 24 19.112 24C21.8093 24 24 21.8093 24 19.112C24 16.4147 21.8093 14.224 19.112 14.224L19.1031 14.2151ZM8.8828 5.29235H8.37178C8.37178 5.29235 8.34956 5.2968 8.33623 5.30124C8.30513 5.30124 8.27847 5.31013 8.2518 5.31901C8.2207 5.3279 8.19404 5.33679 8.16738 5.35012C8.14516 5.36345 8.12294 5.37678 8.10517 5.39456C8.08295 5.41233 8.05629 5.43011 8.03851 5.45677C8.02074 5.47899 8.00741 5.5012 7.99407 5.52342C7.9763 5.55008 7.96297 5.57674 7.95408 5.60785C7.95408 5.62118 7.94075 5.63007 7.94075 5.63896C7.86521 5.95001 7.74523 6.24773 7.57637 6.51879C7.57193 6.52768 7.56749 6.54101 7.56304 6.55434C7.54971 6.581 7.54082 6.60767 7.53194 6.63877C7.52305 6.66543 7.51861 6.69209 7.51416 6.71875C7.51416 6.74542 7.51416 6.77652 7.51416 6.80318C7.51416 6.82985 7.52305 6.85651 7.53194 6.88761C7.54082 6.91427 7.55416 6.93649 7.56749 6.96315C7.58082 6.98982 7.59859 7.01648 7.61637 7.0387C7.62525 7.04758 7.62525 7.06091 7.63414 7.0698L7.99852 7.43418L7.4164 8.01629L7.05203 7.65192C7.05203 7.65192 7.02981 7.63859 7.02092 7.63414C6.9987 7.61192 6.97204 7.59859 6.94538 7.58526C6.91872 7.57193 6.8965 7.5586 6.86984 7.54971C6.84318 7.54083 6.81652 7.53638 6.78541 7.53194C6.75875 7.53194 6.72764 7.52749 6.70098 7.53194C6.67432 7.53194 6.64766 7.54083 6.621 7.54971C6.58989 7.5586 6.56323 7.56749 6.53657 7.58082C6.52768 7.58526 6.51435 7.58526 6.50102 7.59415C6.22996 7.76301 5.93223 7.88298 5.62118 7.95853C5.60785 7.95853 5.59896 7.97186 5.59008 7.97186C5.55897 7.98074 5.53675 7.99407 5.51009 8.00741C5.48343 8.02074 5.46121 8.03407 5.44344 8.05184C5.42122 8.06962 5.40344 8.09184 5.38567 8.11405C5.36789 8.13627 5.35012 8.15849 5.33679 8.18515C5.32346 8.20737 5.31457 8.23403 5.31013 8.26069C5.30124 8.2918 5.2968 8.31846 5.29235 8.34956C5.29235 8.3629 5.28347 8.37178 5.28347 8.38511V8.89613H4.4614V8.38511C4.4614 8.38511 4.45695 8.3629 4.45251 8.34956C4.45251 8.31846 4.44362 8.2918 4.43473 8.26069C4.42585 8.23403 4.41696 8.20737 4.40807 8.18515C4.39474 8.15849 4.37697 8.13627 4.35919 8.11405C4.34142 8.09184 4.32364 8.06962 4.30142 8.05184C4.27921 8.03407 4.25699 8.02074 4.23477 8.00741C4.20811 7.99407 4.18145 7.98074 4.15479 7.97186C4.14145 7.97186 4.13257 7.95853 4.12368 7.95853C3.81263 7.88298 3.5149 7.76301 3.24384 7.59415C3.23496 7.58971 3.22163 7.58526 3.20829 7.58082C3.18163 7.56749 3.15497 7.5586 3.12387 7.54971C3.0972 7.54083 3.07054 7.53638 3.04388 7.53194C3.01277 7.53194 2.98611 7.53194 2.95945 7.53194C2.93279 7.53194 2.90613 7.54083 2.87947 7.54971C2.8528 7.5586 2.82614 7.57193 2.80392 7.58526C2.77726 7.59859 2.75504 7.61637 2.72838 7.63414C2.7195 7.64303 2.70617 7.64747 2.69728 7.65636L2.3329 8.02074L1.75079 7.43862L2.11516 7.07424C2.11516 7.07424 2.12849 7.05203 2.13294 7.04314C2.15516 7.02092 2.16849 6.99426 2.18182 6.9676C2.19515 6.94094 2.20848 6.91872 2.21737 6.89206C2.22625 6.8654 2.2307 6.83873 2.23514 6.80763C2.23514 6.78097 2.23958 6.74986 2.23514 6.7232C2.23514 6.69654 2.22625 6.66988 2.21737 6.64321C2.20848 6.61211 2.19959 6.58545 2.18626 6.55878C2.18182 6.5499 2.18182 6.53657 2.17293 6.52324C2.00407 6.25218 1.8841 5.95445 1.80855 5.6434C1.80855 5.63007 1.79522 5.62118 1.79522 5.61229C1.78634 5.58119 1.773 5.55453 1.75523 5.52787C1.7419 5.50565 1.72857 5.48343 1.71079 5.46121C1.69302 5.43899 1.6708 5.42122 1.64414 5.40344C1.62192 5.38567 1.5997 5.37234 1.57749 5.35901C1.55082 5.34568 1.52861 5.33679 1.4975 5.3279C1.4664 5.31901 1.43973 5.31457 1.40863 5.31013C1.3953 5.31013 1.38641 5.30124 1.37308 5.30124H0.862062V4.47917H1.37308C1.43085 4.47917 1.47973 4.46584 1.53305 4.44807C1.55082 4.43918 1.56415 4.43029 1.58193 4.4214C1.61303 4.40363 1.64414 4.38585 1.66636 4.36364C1.67969 4.35031 1.69302 4.33697 1.70635 4.3192C1.72857 4.29254 1.74634 4.26588 1.75967 4.23921C1.76856 4.22144 1.77745 4.19922 1.78634 4.18145C1.79078 4.16812 1.79967 4.15923 1.80411 4.14146C1.87965 3.8304 1.99963 3.53268 2.16849 3.26162C2.17293 3.25273 2.17737 3.2394 2.18182 3.22607C2.19515 3.19941 2.20404 3.17275 2.21292 3.14164C2.22181 3.11498 2.22625 3.08832 2.2307 3.06165C2.2307 3.03499 2.2307 3.00389 2.2307 2.97723C2.2307 2.95056 2.22181 2.9239 2.21292 2.8928C2.20404 2.86614 2.19071 2.84392 2.17737 2.81726C2.16404 2.79059 2.14627 2.76393 2.12849 2.74171C2.11961 2.73283 2.11961 2.7195 2.11072 2.71061L1.74634 2.34623L2.32846 1.76412L2.69283 2.12849C2.73283 2.16404 2.77282 2.19515 2.8217 2.21292C2.83503 2.21737 2.84392 2.22181 2.85725 2.22625C2.90613 2.24403 2.95501 2.25292 3.00389 2.25292C3.05277 2.25292 3.10165 2.23959 3.15053 2.22625C3.16386 2.22181 3.17719 2.21737 3.19052 2.20848C3.20385 2.19959 3.22163 2.19959 3.23496 2.19071C3.50602 2.02185 3.80374 1.90187 4.11479 1.82633C4.12812 1.82633 4.13701 1.813 4.1459 1.813C4.177 1.80411 4.19922 1.79078 4.22588 1.77745C4.25255 1.76412 4.27476 1.75079 4.29254 1.73301C4.31476 1.71524 4.33253 1.69302 4.35031 1.6708C4.36808 1.64858 4.38585 1.62637 4.39919 1.5997C4.41252 1.57749 4.4214 1.55082 4.42585 1.52416C4.43473 1.49306 4.43918 1.46639 4.44362 1.43529C4.44362 1.42196 4.45251 1.41307 4.45251 1.39974V0.888724H5.27458V1.39974C5.27458 1.39974 5.27902 1.42196 5.28347 1.43529C5.28347 1.46639 5.29235 1.49306 5.30124 1.52416C5.31013 1.55082 5.31901 1.57749 5.3279 1.5997C5.34123 1.62637 5.35901 1.64858 5.37678 1.6708C5.39456 1.69302 5.41233 1.71524 5.43455 1.73301C5.45677 1.75079 5.47898 1.76412 5.5012 1.77745C5.52786 1.79078 5.55453 1.80411 5.58119 1.813C5.59452 1.813 5.60341 1.82633 5.61229 1.82633C5.92335 1.90187 6.22107 2.02185 6.49213 2.19071C6.50546 2.19959 6.52324 2.20404 6.53657 2.20848C6.5499 2.21292 6.56323 2.22181 6.57656 2.22625C6.62544 2.24403 6.67432 2.25292 6.7232 2.25292C6.77208 2.25292 6.82096 2.23959 6.86984 2.22625C6.88317 2.22625 6.89206 2.21737 6.90539 2.21292C6.95427 2.19071 6.99426 2.16404 7.03425 2.12849L7.39863 1.76412L7.98074 2.34623L7.61637 2.71061C7.61637 2.71061 7.60304 2.73283 7.59859 2.74171C7.57637 2.76393 7.56304 2.79059 7.54971 2.81726C7.53638 2.84392 7.52305 2.86614 7.51416 2.8928C7.50528 2.91946 7.50083 2.94612 7.49639 2.97723C7.49639 3.00389 7.49195 3.03499 7.49639 3.06165C7.49639 3.08832 7.50528 3.11498 7.51416 3.14164C7.52305 3.17275 7.53194 3.19941 7.54527 3.22607C7.54971 3.23496 7.54971 3.24829 7.5586 3.26162C7.72746 3.53268 7.84744 3.8304 7.92298 4.14146C7.92298 4.15479 7.93631 4.16812 7.94075 4.18145C7.94964 4.20367 7.95853 4.22144 7.96741 4.23921C7.98074 4.27032 8.00296 4.29698 8.02074 4.3192C8.03407 4.33697 8.0474 4.35031 8.06073 4.36364C8.08739 4.38585 8.11405 4.40363 8.14516 4.4214C8.16293 4.43029 8.17626 4.43918 8.19404 4.44807C8.24292 4.46584 8.29624 4.47917 8.35401 4.47917H8.86502V5.30124L8.8828 5.29235ZM17.77 7.10535C16.5436 7.10535 15.5482 6.10998 15.5482 4.88354C15.5482 3.6571 16.5436 2.66173 17.77 2.66173C18.9965 2.66173 19.9919 3.6571 19.9919 4.88354C19.9919 6.10998 18.9965 7.10535 17.77 7.10535ZM11.9933 9.77152C13.2198 9.77152 14.2151 10.7669 14.2151 11.9933C14.2151 13.2198 13.2198 14.2151 11.9933 14.2151C10.7669 14.2151 9.77152 13.2198 9.77152 11.9933C9.77152 10.7669 10.7669 9.77152 11.9933 9.77152ZM6.21663 21.3249C4.99019 21.3249 3.99482 20.3296 3.99482 19.1031C3.99482 17.8767 4.99019 16.8813 6.21663 16.8813C7.44307 16.8813 8.43844 17.8767 8.43844 19.1031C8.43844 20.3296 7.44307 21.3249 6.21663 21.3249ZM19.1031 23.1024C16.8991 23.1024 15.1039 21.3072 15.1039 19.1031C15.1039 16.8991 16.8991 15.1039 19.1031 15.1039C21.3072 15.1039 23.1024 16.8991 23.1024 19.1031C23.1024 21.3072 21.3072 23.1024 19.1031 23.1024Z" fill="white"/>
<path d="M12.0022 12.4376C12.2466 12.4376 12.4466 12.2376 12.4466 11.9932C12.4466 11.7488 12.2466 11.5488 12.0022 11.5488H11.9978C11.7534 11.5488 11.5579 11.7488 11.5579 11.9932C11.5579 12.2376 11.7578 12.4376 12.0022 12.4376Z" fill="white"/>
<path d="M13.3352 12.4376C13.5796 12.4376 13.7796 12.2376 13.7796 11.9932C13.7796 11.7488 13.5796 11.5488 13.3352 11.5488H13.3308C13.0864 11.5488 12.8909 11.7488 12.8909 11.9932C12.8909 12.2376 13.0908 12.4376 13.3352 12.4376Z" fill="white"/>
<path d="M11.1136 11.9932C11.1136 11.7488 10.9136 11.5488 10.6692 11.5488H10.6648C10.4204 11.5488 10.2249 11.7488 10.2249 11.9932C10.2249 12.2376 10.4248 12.4376 10.6692 12.4376C10.9136 12.4376 11.1136 12.2376 11.1136 11.9932Z" fill="white"/>
<path d="M6.22561 18.6592H6.22117C5.97677 18.6592 5.78125 18.8591 5.78125 19.1035C5.78125 19.3479 5.98121 19.5479 6.22561 19.5479C6.47001 19.5479 6.66997 19.3479 6.66997 19.1035C6.66997 18.8591 6.47001 18.6592 6.22561 18.6592Z" fill="white"/>
<path d="M4.89236 18.6592H4.88792C4.64352 18.6592 4.448 18.8591 4.448 19.1035C4.448 19.3479 4.64796 19.5479 4.89236 19.5479C5.13676 19.5479 5.33672 19.3479 5.33672 19.1035C5.33672 18.8591 5.13676 18.6592 4.89236 18.6592Z" fill="white"/>
<path d="M7.55418 18.6592C7.30978 18.6592 7.11426 18.8591 7.11426 19.1035C7.11426 19.3479 7.31422 19.5479 7.55862 19.5479C7.80302 19.5479 8.00298 19.3479 8.00298 19.1035C8.00298 18.8591 7.80302 18.6592 7.55862 18.6592H7.55418Z" fill="white"/>
</svg>
