<svg width="77" height="24" viewBox="0 0 77 24" fill="none" xmlns="http://www.w3.org/2000/svg">
<path d="M3 21V3H21V21H3Z" stroke="white" stroke-width="6"/>
<path d="M33.896 9.144C33.896 9.472 33.952 9.752 34.064 9.984C34.176 10.216 34.332 10.408 34.532 10.56C34.732 10.704 34.96 10.812 35.216 10.884C35.48 10.948 35.764 10.98 36.068 10.98C36.396 10.98 36.676 10.944 36.908 10.872C37.14 10.792 37.328 10.692 37.472 10.572C37.616 10.452 37.72 10.316 37.784 10.164C37.848 10.004 37.88 9.844 37.88 9.684C37.88 9.356 37.804 9.116 37.652 8.964C37.508 8.804 37.348 8.692 37.172 8.628C36.868 8.516 36.512 8.412 36.104 8.316C35.704 8.212 35.208 8.08 34.616 7.92C34.248 7.824 33.94 7.7 33.692 7.548C33.452 7.388 33.26 7.212 33.116 7.02C32.972 6.828 32.868 6.624 32.804 6.408C32.748 6.192 32.72 5.972 32.72 5.748C32.72 5.316 32.808 4.944 32.984 4.632C33.168 4.312 33.408 4.048 33.704 3.84C34 3.632 34.336 3.48 34.712 3.384C35.088 3.28 35.468 3.228 35.852 3.228C36.3 3.228 36.72 3.288 37.112 3.408C37.512 3.52 37.86 3.692 38.156 3.924C38.46 4.156 38.7 4.444 38.876 4.788C39.052 5.124 39.14 5.516 39.14 5.964H37.64C37.6 5.412 37.412 5.024 37.076 4.8C36.74 4.568 36.312 4.452 35.792 4.452C35.616 4.452 35.436 4.472 35.252 4.512C35.068 4.544 34.9 4.604 34.748 4.692C34.596 4.772 34.468 4.884 34.364 5.028C34.268 5.172 34.22 5.352 34.22 5.568C34.22 5.872 34.312 6.112 34.496 6.288C34.688 6.456 34.936 6.584 35.24 6.672C35.272 6.68 35.396 6.716 35.612 6.78C35.836 6.836 36.084 6.9 36.356 6.972C36.628 7.044 36.892 7.116 37.148 7.188C37.412 7.252 37.6 7.3 37.712 7.332C37.992 7.42 38.236 7.54 38.444 7.692C38.652 7.844 38.824 8.02 38.96 8.22C39.104 8.412 39.208 8.62 39.272 8.844C39.344 9.068 39.38 9.292 39.38 9.516C39.38 9.996 39.28 10.408 39.08 10.752C38.888 11.088 38.632 11.364 38.312 11.58C37.992 11.796 37.628 11.952 37.22 12.048C36.812 12.152 36.396 12.204 35.972 12.204C35.484 12.204 35.024 12.144 34.592 12.024C34.16 11.904 33.784 11.72 33.464 11.472C33.144 11.224 32.888 10.908 32.696 10.524C32.504 10.132 32.404 9.672 32.396 9.144H33.896ZM40.6693 3.432H42.7812L45.1453 10.14H45.1693L47.4733 3.432H49.5613V12H48.1333V5.388H48.1093L45.7333 12H44.4973L42.1213 5.388H42.0973V12H40.6693V3.432ZM53.6493 3.432H55.2453L58.5453 12H56.9373L56.1333 9.732H52.7133L51.9093 12H50.3613L53.6493 3.432ZM53.1213 8.592H55.7373L54.4533 4.908H54.4173L53.1213 8.592ZM59.3612 3.432H63.4532C64.3972 3.432 65.1052 3.636 65.5772 4.044C66.0492 4.452 66.2852 5.02 66.2852 5.748C66.2852 6.156 66.2252 6.496 66.1052 6.768C65.9852 7.032 65.8452 7.248 65.6852 7.416C65.5252 7.576 65.3652 7.692 65.2052 7.764C65.0532 7.836 64.9412 7.884 64.8692 7.908V7.932C64.9972 7.948 65.1332 7.988 65.2772 8.052C65.4292 8.116 65.5692 8.22 65.6972 8.364C65.8252 8.5 65.9292 8.68 66.0092 8.904C66.0972 9.128 66.1412 9.408 66.1412 9.744C66.1412 10.248 66.1772 10.708 66.2492 11.124C66.3292 11.532 66.4492 11.824 66.6092 12H65.0012C64.8892 11.816 64.8212 11.612 64.7972 11.388C64.7812 11.164 64.7732 10.948 64.7732 10.74C64.7732 10.348 64.7492 10.012 64.7012 9.732C64.6532 9.444 64.5652 9.208 64.4372 9.024C64.3092 8.832 64.1332 8.692 63.9092 8.604C63.6932 8.516 63.4132 8.472 63.0692 8.472H60.8612V12H59.3612V3.432ZM60.8612 7.332H63.3212C63.8012 7.332 64.1652 7.22 64.4132 6.996C64.6612 6.764 64.7852 6.42 64.7852 5.964C64.7852 5.692 64.7452 5.472 64.6652 5.304C64.5852 5.128 64.4732 4.992 64.3292 4.896C64.1932 4.8 64.0332 4.736 63.8492 4.704C63.6732 4.672 63.4892 4.656 63.2972 4.656H60.8612V7.332ZM66.7835 3.432H73.7195V4.728H70.9955V12H69.4955V4.728H66.7835V3.432Z" fill="white"/>
<path d="M34.412 17.02H36.86C37.22 17.02 37.52 16.92 37.76 16.72C38 16.512 38.12 16.216 38.12 15.832C38.12 15.4 38.012 15.096 37.796 14.92C37.58 14.744 37.268 14.656 36.86 14.656H34.412V17.02ZM32.912 13.432H37.076C37.844 13.432 38.46 13.608 38.924 13.96C39.388 14.312 39.62 14.844 39.62 15.556C39.62 15.988 39.512 16.36 39.296 16.672C39.088 16.976 38.788 17.212 38.396 17.38V17.404C38.924 17.516 39.324 17.768 39.596 18.16C39.868 18.544 40.004 19.028 40.004 19.612C40.004 19.948 39.944 20.264 39.824 20.56C39.704 20.848 39.516 21.1 39.26 21.316C39.004 21.524 38.676 21.692 38.276 21.82C37.876 21.94 37.4 22 36.848 22H32.912V13.432ZM34.412 20.776H37.064C37.52 20.776 37.872 20.66 38.12 20.428C38.376 20.188 38.504 19.852 38.504 19.42C38.504 18.996 38.376 18.672 38.12 18.448C37.872 18.216 37.52 18.1 37.064 18.1H34.412V20.776ZM43.6532 13.432H45.2492L48.5492 22H46.9412L46.1372 19.732H42.7172L41.9132 22H40.3652L43.6532 13.432ZM43.1252 18.592H45.7412L44.4572 14.908H44.4212L43.1252 18.592ZM49.3051 13.432H50.8891L54.8011 19.744H54.8251V13.432H56.2531V22H54.6691L50.7691 15.7H50.7331V22H49.3051V13.432ZM58.0253 13.432H59.5253V17.332L63.3413 13.432H65.1893L61.7693 16.852L65.4293 22H63.5573L60.7493 17.908L59.5253 19.12V22H58.0253V13.432Z" fill="white"/>
</svg>
