<svg width="140" height="178" viewBox="0 0 140 178" fill="none" xmlns="http://www.w3.org/2000/svg">
<path d="M139.5 177.888C139.5 177.949 108.381 178 70.0034 178C31.6123 178 0.5 177.95 0.5 177.888C0.5 177.826 31.6119 177.776 70.0034 177.776C108.381 177.776 139.5 177.827 139.5 177.888Z" fill="#263238"/>
<path d="M109.177 125.341C102.254 120.709 100.684 112.11 100.957 104.38C101.003 103.09 100.855 101.729 101.496 100.597C102.137 99.4652 103.632 98.6917 104.838 99.2351C105.838 99.6863 106.274 100.801 106.834 101.723C107.578 102.949 108.688 103.964 109.993 104.613C110.851 105.039 111.912 105.3 112.759 104.853C113.921 104.238 114.058 102.701 114.05 101.417C114.034 99.0257 114.019 96.6335 114.003 94.2423C113.995 92.9593 113.991 91.6488 114.408 90.4311C114.824 89.2133 115.745 88.0818 117.019 87.7397C118.294 87.3981 119.87 88.1016 120.139 89.358C120.251 89.8808 120.14 90.4233 120.177 90.956C120.215 91.4887 120.474 92.078 121.002 92.2266C121.537 92.3772 122.073 92.0132 122.473 91.6376C123.856 90.3422 124.795 88.6729 125.672 87.013C126.549 85.3532 127.4 83.6538 128.654 82.2404C129.909 80.8269 131.645 79.7074 133.563 79.6031C135.482 79.4993 137.527 80.6333 138.012 82.4378C138.498 84.247 137.396 86.0825 136.197 87.547C134.418 89.7198 132.313 91.6415 129.97 93.2323C129.548 93.5194 129.09 93.8298 128.928 94.3049C128.637 95.1604 129.483 96.0103 130.365 96.2914C131.364 96.6099 132.448 96.5108 133.492 96.6284C134.537 96.746 135.669 97.1877 136.064 98.1333C136.613 99.445 135.467 100.82 134.34 101.72C132.084 103.523 129.507 104.948 126.758 105.912C125.772 106.258 124.735 106.561 123.94 107.224C123.146 107.888 122.666 109.041 123.146 109.945C123.627 110.849 124.859 111.139 125.892 110.955C126.924 110.772 127.848 110.235 128.832 109.879C130.673 109.214 133.051 109.335 134.23 110.859C135.005 111.861 135.074 113.256 134.681 114.45C134.29 115.644 133.495 116.673 132.651 117.622C129.699 120.938 125.922 123.608 121.65 125.026C117.38 126.444 113.422 126.828 109.177 125.341Z" fill="#016B83"/>
<path d="M136.076 80.6775C136.079 80.6805 136.035 80.7221 135.946 80.7994C135.847 80.8839 135.715 80.9964 135.548 81.1393C135.197 81.4364 134.68 81.8746 134.03 82.4562C132.728 83.6156 130.899 85.36 128.912 87.7466C127.915 88.936 126.879 90.2825 125.795 91.7475C124.712 93.215 123.566 94.7899 122.426 96.4888C121.286 98.1869 120.144 100.007 119.12 101.973C118.604 102.954 118.143 103.981 117.673 105.027C117.206 106.074 116.732 107.135 116.252 108.21C114.348 112.513 112.674 116.673 111.477 120.559C110.274 124.441 109.558 128.039 109.245 131.088C108.923 134.138 108.989 136.628 109.119 138.336C109.189 139.191 109.258 139.854 109.32 140.301C109.346 140.516 109.366 140.684 109.382 140.811C109.395 140.926 109.399 140.986 109.395 140.987C109.391 140.987 109.378 140.929 109.357 140.815C109.336 140.689 109.307 140.521 109.271 140.308C109.192 139.862 109.108 139.2 109.023 138.344C108.864 136.634 108.771 134.136 109.071 131.072C109.363 128.01 110.065 124.394 111.26 120.496C112.448 116.595 114.12 112.423 116.026 108.116C116.506 107.041 116.981 105.979 117.449 104.932C117.919 103.888 118.384 102.853 118.905 101.868C119.938 99.8914 121.088 98.0671 122.237 96.3686C123.384 94.6684 124.539 93.0953 125.629 91.632C126.723 90.17 127.769 88.8261 128.777 87.6401C130.787 85.2596 132.642 83.5272 133.965 82.388C134.627 81.8158 135.154 81.3883 135.516 81.1028C135.69 80.9676 135.827 80.8612 135.93 80.7809C136.024 80.7092 136.074 80.674 136.076 80.6775Z" fill="#263238"/>
<path d="M118.976 101.858C118.959 101.861 118.913 101.666 118.845 101.311C118.774 100.956 118.69 100.44 118.596 99.8009C118.406 98.5231 118.208 96.7503 117.996 94.7947C117.785 92.8378 117.56 91.0728 117.351 89.8014C117.249 89.1657 117.16 88.6515 117.094 88.2969C117.03 87.942 117.003 87.7437 117.019 87.7398C117.036 87.7364 117.095 87.9278 117.188 88.2776C117.283 88.627 117.398 89.1378 117.523 89.7722C117.777 91.041 118.03 92.8104 118.241 94.769C118.444 96.6992 118.628 98.4454 118.769 99.7799C118.836 100.382 118.894 100.89 118.94 101.297C118.979 101.656 118.993 101.856 118.976 101.858Z" fill="#263238"/>
<path d="M136.201 98.775C136.201 98.7913 135.956 98.8188 135.514 98.854C135.072 98.8918 134.432 98.9428 133.644 99.0304C132.066 99.1935 129.895 99.4918 127.515 99.9215C125.134 100.355 122.998 100.836 121.463 101.226C120.693 101.416 120.075 101.586 119.647 101.701C119.22 101.817 118.981 101.874 118.975 101.859C118.97 101.843 119.199 101.756 119.619 101.612C120.039 101.47 120.651 101.275 121.417 101.063C122.944 100.63 125.082 100.122 127.469 99.6867C129.857 99.2562 132.04 98.9827 133.627 98.8626C134.42 98.7965 135.064 98.7703 135.509 98.7617C135.954 98.7544 136.2 98.7583 136.201 98.775Z" fill="#263238"/>
<path d="M111.472 120.192C111.464 120.196 111.424 120.126 111.354 119.991C111.274 119.829 111.177 119.632 111.059 119.394C110.806 118.874 110.46 118.114 110.045 117.168C109.214 115.278 108.151 112.633 107.021 109.699C105.889 106.763 104.854 104.112 104.065 102.208C103.679 101.283 103.361 100.521 103.124 99.9553C103.023 99.7098 102.94 99.5072 102.871 99.3407C102.816 99.1994 102.791 99.1235 102.799 99.1196C102.807 99.1166 102.847 99.1857 102.917 99.3213C102.997 99.4827 103.094 99.6793 103.212 99.918C103.465 100.437 103.811 101.198 104.226 102.144C105.057 104.034 106.12 106.679 107.251 109.614C108.382 112.549 109.417 115.2 110.206 117.104C110.592 118.029 110.91 118.791 111.147 119.356C111.248 119.602 111.331 119.805 111.4 119.971C111.455 120.113 111.48 120.189 111.472 120.192Z" fill="#263238"/>
<path d="M134.362 113.126C134.365 113.134 134.286 113.165 134.135 113.216C133.956 113.273 133.736 113.344 133.471 113.429C132.857 113.62 132.028 113.877 131.019 114.19C128.95 114.833 126.102 115.752 122.957 116.772C119.81 117.793 116.951 118.688 114.867 119.29C113.825 119.591 112.979 119.827 112.392 119.978C112.12 120.046 111.896 120.102 111.714 120.148C111.558 120.185 111.475 120.2 111.473 120.192C111.47 120.184 111.549 120.154 111.7 120.102C111.878 120.045 112.098 119.975 112.365 119.889C112.978 119.699 113.807 119.441 114.815 119.128C116.885 118.486 119.733 117.566 122.879 116.545C126.025 115.525 128.884 114.63 130.968 114.028C132.01 113.727 132.855 113.491 133.443 113.34C133.715 113.272 133.939 113.215 134.121 113.169C134.277 113.133 134.36 113.118 134.362 113.126Z" fill="#263238"/>
<path d="M125.024 9.004L122.715 9.79509L121.728 6.90675C119.907 1.57907 114.094 -1.27149 108.778 0.550192C103.459 2.37273 100.615 8.18931 102.436 13.517L103.423 16.4053L101.106 17.199C99.3047 17.8162 98.3295 19.8053 98.9466 21.6111L105.371 40.4078C105.998 42.2411 107.987 43.2184 109.789 42.6012L133.708 34.4058C135.538 33.7787 136.514 31.7849 135.887 29.952L129.463 11.1553C128.845 9.34954 126.855 8.37646 125.024 9.004ZM106.794 12.0233C105.796 9.10359 107.353 5.91522 110.27 4.91596C113.184 3.91755 116.367 5.48126 117.365 8.40093L118.353 11.2897L107.781 14.9116L106.794 12.0233ZM120.242 28.7004L121.883 33.5005C121.952 33.7036 121.831 33.9109 121.626 33.9813L119.33 34.7676C119.155 34.8277 118.93 34.7389 118.861 34.5359L117.22 29.7357C115.442 29.6636 113.792 28.5351 113.175 26.7293C112.381 24.4076 113.622 21.8691 115.949 21.072C118.274 20.2753 120.807 21.5201 121.601 23.8423C122.218 25.6481 121.605 27.5526 120.242 28.7004Z" fill="#FF8926"/>
<path d="M122.614 9.74313C122.636 9.80108 118.334 11.3438 113.007 13.1878C107.678 15.0326 103.342 16.4809 103.32 16.4229C103.298 16.365 107.599 14.8227 112.928 12.9779C118.255 11.1339 122.592 9.68519 122.614 9.74313Z" fill="#263238"/>
<path d="M127.694 10.5342C127.698 10.5329 127.715 10.5711 127.745 10.6467C127.779 10.7342 127.822 10.845 127.876 10.9832C127.991 11.2961 128.151 11.7314 128.354 12.2842C128.766 13.4333 129.352 15.0682 130.074 17.0822C130.793 19.1155 131.648 21.5287 132.595 24.2075C133.064 25.5523 133.575 26.9495 134.066 28.4252C134.293 29.1669 134.481 29.9597 134.402 30.7809C134.362 31.1882 134.246 31.5981 134.039 31.969C133.828 32.3373 133.534 32.6613 133.192 32.9253C132.504 33.4529 131.697 33.7611 130.918 34.0375C130.136 34.3066 129.365 34.5719 128.608 34.8324C127.093 35.3514 125.632 35.8523 124.24 36.33C121.458 37.2786 118.951 38.1337 116.839 38.8539C114.742 39.5605 113.039 40.1339 111.843 40.537C111.265 40.7267 110.809 40.8765 110.481 40.9838C110.335 41.0293 110.218 41.0658 110.125 41.0946C110.044 41.1186 110.002 41.1289 110.001 41.125C110 41.1216 110.039 41.104 110.117 41.0731C110.208 41.0388 110.323 40.9954 110.465 40.9413C110.79 40.8246 111.241 40.6615 111.813 40.455C113.003 40.0356 114.697 39.4394 116.784 38.705C118.89 37.9719 121.391 37.1018 124.168 36.1364C125.558 35.6548 127.018 35.1501 128.531 34.6264C129.287 34.365 130.057 34.0989 130.838 33.8289C131.611 33.5546 132.396 33.2503 133.046 32.7515C133.368 32.5025 133.64 32.2021 133.835 31.863C134.026 31.5213 134.133 31.1431 134.172 30.7598C134.247 29.9885 134.069 29.218 133.847 28.4875C133.364 27.0263 132.853 25.6167 132.392 24.2736C131.462 21.5896 130.624 19.1704 129.918 17.1329C129.226 15.1094 128.663 13.4668 128.269 12.3125C128.083 11.7541 127.937 11.3141 127.832 10.9982C127.787 10.857 127.751 10.7441 127.724 10.6544C127.7 10.5758 127.69 10.5355 127.694 10.5342Z" fill="#263238"/>
<path d="M115.076 4.61508C115.064 4.63397 114.838 4.49962 114.398 4.32964C113.956 4.16825 113.288 3.97981 112.441 3.95406C111.6 3.92444 110.577 4.04892 109.555 4.47644C108.537 4.89881 107.534 5.64868 106.816 6.66898C106.084 7.68541 105.763 8.86152 105.763 9.92817C105.753 10.9995 105.991 11.9537 106.219 12.7367C106.455 13.5205 106.697 14.1424 106.856 14.5742C107.017 15.006 107.104 15.246 107.088 15.252C107.074 15.2571 106.958 15.0284 106.771 14.606C106.586 14.1828 106.32 13.5681 106.061 12.7822C105.81 11.9971 105.55 11.0309 105.548 9.92688C105.536 8.8289 105.864 7.59527 106.622 6.54321C107.367 5.48557 108.411 4.71424 109.47 4.28715C110.532 3.85576 111.588 3.74502 112.45 3.79567C113.317 3.84246 113.995 4.06008 114.433 4.24937C114.65 4.3511 114.816 4.43437 114.921 4.50434C115.027 4.57087 115.081 4.60821 115.076 4.61508Z" fill="#263238"/>
<path d="M115.28 21.4111C115.277 21.4055 115.354 21.3686 115.507 21.3029C115.658 21.2355 115.889 21.1492 116.198 21.0647C116.505 20.9724 116.899 20.9054 117.363 20.8792C117.826 20.8574 118.371 20.9033 118.935 21.1037C120.08 21.4892 121.135 22.6104 121.653 24.0959C121.903 24.8463 121.925 25.7176 121.674 26.5602C121.407 27.3994 120.917 28.2042 120.209 28.8806L120.238 28.7669C120.833 30.3315 121.481 32.0342 122.156 33.8057L122.197 33.9134L122.084 33.9499C121.759 34.0542 121.41 34.1663 121.059 34.2787C120.304 34.5208 119.56 34.7595 118.829 34.9938L118.719 35.029L118.683 34.923C118.069 33.1434 117.396 31.4655 116.908 29.8619L117.004 29.9349C116.087 29.876 115.263 29.5073 114.606 29.0266C113.947 28.5411 113.442 27.9385 113.101 27.3045C112.766 26.6684 112.598 25.9932 112.626 25.3712C112.643 24.7497 112.792 24.1869 113.002 23.7126C113.42 22.7559 114.043 22.1541 114.505 21.8257C114.975 21.4965 115.28 21.4111 115.28 21.4111C115.29 21.4304 114.995 21.5381 114.546 21.8777C114.107 22.2167 113.513 22.8194 113.122 23.7594C112.731 24.6767 112.562 25.9953 113.26 27.2259C113.595 27.8342 114.088 28.4123 114.726 28.8755C115.361 29.3339 116.153 29.6795 117.016 29.7301L117.091 29.7344L117.112 29.8031C117.607 31.3955 118.283 33.0666 118.902 34.8535L118.755 34.7831C119.485 34.5487 120.23 34.3092 120.985 34.0667C121.336 33.9542 121.684 33.8422 122.009 33.7379L121.937 33.8817C121.267 32.1085 120.622 30.404 120.031 28.8386L120.007 28.7755L120.06 28.7248C120.731 28.09 121.219 27.3028 121.476 26.5044C121.721 25.6987 121.707 24.8707 121.475 24.1479C120.985 22.7061 119.978 21.6098 118.886 21.2248C118.347 21.023 117.819 20.9681 117.365 20.9797C116.911 20.9951 116.522 21.0505 116.216 21.1312C115.601 21.2832 115.288 21.43 115.28 21.4111Z" fill="#263238"/>
<path d="M101.43 145.346L56.6689 145.148C51.2854 145.124 46.9406 140.926 46.9635 135.77L47.4381 28.2871C47.4609 23.1276 51.8469 18.9636 57.2331 18.9877L101.994 19.1855C107.378 19.2096 111.722 23.4079 111.699 28.5639L111.224 136.046C111.202 141.206 106.817 145.37 101.43 145.346Z" fill="#455A64"/>
<path d="M101.93 22.895L93.2522 22.8568C92.0883 22.8516 91.1405 23.7925 91.1356 24.9575L91.1284 26.4654C91.1235 27.6307 90.1757 28.5712 89.0118 28.566L72.0958 28.4914C70.932 28.4862 69.9927 27.5372 69.9976 26.3718L70.0043 24.8639C70.0092 23.6985 69.0699 22.7495 67.9061 22.7443L64.8538 22.7306L57.2582 22.6971C53.4862 22.6804 50.4142 25.5966 50.3981 29.2099L49.9351 134.12C49.919 137.732 52.9619 140.672 56.7321 140.689L101.404 140.886C105.176 140.903 108.247 137.987 108.264 134.374L108.727 29.4627C108.743 25.852 105.701 22.9121 101.93 22.895Z" fill="white"/>
<path d="M96.192 127.226L62.9739 127.08C62.6302 127.078 62.3528 126.72 62.355 126.279L62.3917 117.955C62.3935 117.514 62.6741 117.158 63.0178 117.16L96.2359 117.307C96.5801 117.308 96.8575 117.667 96.8553 118.108L96.8185 126.431C96.8167 126.872 96.5362 127.228 96.192 127.226Z" fill="#016B83"/>
<path d="M70.6974 110.113L74.6414 110.127L74.638 110.767L71.454 110.755L71.4445 112.571L74.4125 112.582L74.4091 113.222L71.4411 113.211L71.4308 115.187L74.6388 115.199L74.6354 115.839L70.6674 115.825L70.6974 110.113ZM75.4677 111.706L76.1077 111.709L76.1043 112.365L76.1203 112.365C76.4056 111.864 76.8549 111.615 77.4682 111.618C77.7402 111.619 77.9667 111.657 78.1476 111.732C78.3285 111.807 78.4747 111.912 78.586 112.046C78.6973 112.18 78.7738 112.34 78.8154 112.527C78.8625 112.708 78.8854 112.911 78.8843 113.135L78.87 115.855L78.19 115.852L78.2047 113.052C78.206 112.796 78.1324 112.593 77.9839 112.444C77.8353 112.294 77.6304 112.218 77.3691 112.217C77.1611 112.217 76.9796 112.248 76.8246 112.311C76.6749 112.375 76.5491 112.465 76.4471 112.582C76.3452 112.699 76.2671 112.837 76.213 112.997C76.1641 113.152 76.1392 113.322 76.1383 113.509L76.126 115.845L75.446 115.842L75.4677 111.706ZM79.889 111.723L80.529 111.725L80.5244 112.597L80.5404 112.597C80.7075 112.262 80.9115 112.014 81.1523 111.855C81.3931 111.696 81.6975 111.623 82.0655 111.635L82.0617 112.355C81.7897 112.354 81.5575 112.39 81.3651 112.464C81.1727 112.538 81.0175 112.647 80.8994 112.79C80.7813 112.934 80.6951 113.11 80.6406 113.317C80.5862 113.52 80.5583 113.754 80.5569 114.021L80.5473 115.861L79.8673 115.859L79.889 111.723ZM70.8976 131.762C70.8962 132.012 70.9271 132.236 70.99 132.434C71.0584 132.626 71.1508 132.789 71.2675 132.923C71.3841 133.051 71.5196 133.151 71.6739 133.22C71.8336 133.29 72.0014 133.326 72.1774 133.326C72.3534 133.327 72.5189 133.293 72.6739 133.224C72.8343 133.155 72.9735 133.057 73.0915 132.93C73.2095 132.797 73.301 132.634 73.366 132.443C73.4364 132.246 73.4722 132.022 73.4735 131.771C73.4749 131.52 73.4413 131.299 73.373 131.107C73.3101 130.909 73.2203 130.743 73.1036 130.61C72.987 130.476 72.8489 130.374 72.6892 130.304C72.5349 130.234 72.3698 130.199 72.1938 130.198C72.0178 130.198 71.8496 130.232 71.6892 130.3C71.5342 130.369 71.3977 130.47 71.2796 130.603C71.1616 130.736 71.0674 130.901 70.997 131.098C70.932 131.29 70.8989 131.511 70.8976 131.762ZM70.1776 131.759C70.1792 131.455 70.2233 131.172 70.31 130.911C70.3967 130.645 70.5259 130.416 70.6976 130.225C70.8693 130.028 71.0808 129.874 71.332 129.763C71.5833 129.652 71.8716 129.597 72.1969 129.598C72.5276 129.6 72.8153 129.657 73.06 129.77C73.3101 129.882 73.52 130.038 73.6896 130.236C73.8593 130.428 73.986 130.658 74.07 130.925C74.1539 131.187 74.1951 131.47 74.1935 131.774C74.1919 132.078 74.1478 132.36 74.0611 132.621C73.9744 132.882 73.8452 133.111 73.6735 133.308C73.5018 133.499 73.2904 133.65 73.0391 133.761C72.7932 133.867 72.5049 133.919 72.1743 133.918C71.8489 133.917 71.5612 133.863 71.3111 133.755C71.061 133.642 70.8512 133.489 70.6815 133.297C70.5119 133.099 70.3851 132.869 70.3011 132.607C70.2172 132.346 70.176 132.063 70.1776 131.759ZM75.0544 128.129L75.7344 128.131L75.7045 133.843L75.0245 133.841L75.0544 128.129ZM76.8278 128.135L77.5078 128.138L77.4779 133.85L76.7979 133.847L76.8278 128.135Z" fill="white"/>
<path d="M69.3208 53.7236L57.7959 53.675L57.7857 55.7006L69.3106 55.7491L69.3208 53.7236Z" fill="#016B83"/>
<path opacity="0.1" d="M69.3208 53.7236L57.7959 53.675L57.7857 55.7006L69.3106 55.7491L69.3208 53.7236Z" fill="black"/>
<path d="M103.117 66.1555C103.115 66.147 103.213 66.1607 103.38 66.0963C103.537 66.0379 103.786 65.8546 103.814 65.5186C103.813 64.8339 103.811 63.839 103.808 62.5616C103.808 61.9181 103.808 61.2043 103.807 60.4231C103.808 60.2274 103.808 60.0282 103.808 59.8243C103.813 59.6157 103.813 59.4221 103.682 59.262C103.564 59.1028 103.363 59.001 103.152 59.0002C102.922 58.9997 102.688 58.9993 102.45 58.9989C100.543 58.9955 98.3739 58.9912 95.9772 58.9869C86.3767 58.9525 73.1278 58.9057 58.4941 58.8538C58.301 58.8525 58.1123 58.9431 58.0003 59.0929C57.8757 59.2448 57.8811 59.4238 57.8837 59.6539C57.8819 60.0896 57.8797 60.5235 57.8779 60.9566C57.8739 61.8224 57.8698 62.6822 57.8663 63.5355C57.8645 63.9626 57.8622 64.3875 57.86 64.8112C57.8672 65.0142 57.8394 65.2572 57.8788 65.4147C57.9232 65.5868 58.0594 65.7328 58.2288 65.8014C58.3171 65.8358 58.3996 65.8478 58.5062 65.8469L58.8343 65.8486L59.4881 65.8516C59.9232 65.8538 60.3566 65.8559 60.7882 65.8581C64.2393 65.8757 67.5686 65.8929 70.7405 65.9087C77.0813 65.9457 82.7924 65.9791 87.5916 66.007C92.3818 66.0431 96.2613 66.0727 98.952 66.0929C100.287 66.1079 101.326 66.1195 102.041 66.1276C102.387 66.1341 102.654 66.1388 102.844 66.1422C103.024 66.1474 103.117 66.1555 103.117 66.1555C103.117 66.1555 103.024 66.1628 102.843 66.1654C102.654 66.1671 102.387 66.1697 102.04 66.1731C101.325 66.1749 100.286 66.1774 98.9511 66.1804C96.26 66.177 92.3809 66.1719 87.5902 66.1659C82.7911 66.1513 77.0799 66.1341 70.7387 66.1152C67.5672 66.1032 64.238 66.0907 60.7868 66.0779C60.3552 66.0761 59.9219 66.0744 59.4867 66.0727L58.8325 66.0701L58.5044 66.0688C58.3924 66.071 58.2535 66.0542 58.1387 66.0062C57.9044 65.9117 57.7175 65.7109 57.6547 65.4718C57.6193 65.3503 57.6274 65.2275 57.627 65.1284L57.6283 64.8112C57.6301 64.3875 57.6319 63.9621 57.6337 63.5355C57.6373 62.6817 57.6409 61.822 57.6444 60.9566C57.6462 60.524 57.648 60.0896 57.6498 59.6539C57.6534 59.5423 57.6431 59.4444 57.6615 59.3109C57.6812 59.1856 57.7318 59.0641 57.8111 58.962C57.9649 58.7547 58.2293 58.628 58.4946 58.631C73.1278 58.7083 86.3767 58.7787 95.9768 58.8293C98.3743 58.8461 100.543 58.8611 102.45 58.8744C102.688 58.8761 102.923 58.8778 103.152 58.88C103.403 58.8821 103.642 59.0058 103.779 59.1946C103.933 59.3796 103.931 59.6329 103.922 59.8252C103.921 60.0291 103.919 60.2287 103.917 60.424C103.91 61.2052 103.904 61.919 103.898 62.562C103.881 63.8411 103.869 64.8374 103.86 65.5224C103.821 65.8804 103.552 66.0641 103.387 66.1178C103.213 66.177 103.117 66.1555 103.117 66.1555Z" fill="#E0E0E0"/>
<path d="M81.9712 61.5544L60.8892 61.4657L60.8796 63.3591L81.9616 63.4478L81.9712 61.5544Z" fill="#016B83"/>
<path opacity="0.2" d="M81.9712 61.5544L60.8892 61.4657L60.8796 63.3591L81.9616 63.4478L81.9712 61.5544Z" fill="white"/>
<path d="M69.2393 72.2079L57.7144 72.1594L57.7042 74.185L69.2291 74.2335L69.2393 72.2079Z" fill="#016B83"/>
<path opacity="0.1" d="M69.2393 72.2079L57.7144 72.1594L57.7042 74.185L69.2291 74.2335L69.2393 72.2079Z" fill="black"/>
<path d="M102.821 84.6389C102.82 84.6311 102.915 84.6393 103.087 84.5908C103.249 84.5397 103.512 84.4109 103.655 84.1045C103.731 83.9534 103.739 83.7701 103.732 83.5602C103.731 83.3516 103.73 83.1241 103.729 82.8781C103.729 82.3841 103.727 81.8153 103.726 81.1766C103.726 80.5358 103.725 79.8241 103.725 79.0459C103.725 78.851 103.725 78.6523 103.725 78.4493C103.735 78.2441 103.709 78.0539 103.595 77.8827C103.487 77.7144 103.312 77.5809 103.107 77.5213C102.907 77.4603 102.667 77.4934 102.43 77.4843C100.53 77.4809 98.3683 77.4766 95.9788 77.4723C86.4118 77.4384 73.2087 77.3912 58.6261 77.3397C58.221 77.3303 57.8468 77.6466 57.8078 78.0303C57.7943 78.4385 57.8006 78.8897 57.7961 79.3155C57.7921 80.1778 57.7881 81.035 57.7845 81.8853C57.7827 82.3107 57.7804 82.7348 57.7787 83.1567C57.7863 83.3675 57.7549 83.5877 57.8069 83.7559C57.8575 83.9336 57.9758 84.092 58.134 84.1959C58.2985 84.3019 58.4764 84.341 58.6915 84.3332L59.3436 84.3363C59.7774 84.3384 60.2089 84.3405 60.6392 84.3427C64.0787 84.3599 67.3962 84.377 70.5566 84.3929C76.8758 84.4298 82.5668 84.4633 87.3494 84.4912C92.123 84.5273 95.9887 84.5565 98.6703 84.5766C100 84.5916 101.036 84.6032 101.748 84.6114C102.094 84.6178 102.359 84.6225 102.549 84.626C102.729 84.6307 102.821 84.6389 102.821 84.6389C102.821 84.6389 102.729 84.6462 102.548 84.6487C102.359 84.6505 102.093 84.653 101.748 84.6565C101.036 84.6582 100 84.6608 98.6699 84.6642C95.9887 84.6608 92.1225 84.6556 87.3485 84.6496C82.5659 84.6354 76.8749 84.6183 70.5557 84.5994C67.3949 84.5874 64.0773 84.5749 60.6383 84.562C60.208 84.5603 59.7765 84.5586 59.3427 84.5569L58.6906 84.5543C58.4715 84.5655 58.2022 84.5148 58.0041 84.3792C57.8011 84.2461 57.6496 84.0431 57.5842 83.8147C57.5174 83.5744 57.5573 83.3653 57.5474 83.1559C57.5492 82.7339 57.5506 82.3098 57.5523 81.8845C57.5559 81.0337 57.56 80.1769 57.5631 79.3142C57.5685 78.8772 57.5595 78.4626 57.5761 78.0037C57.6258 77.5097 58.1071 77.1032 58.627 77.1156C73.2096 77.1929 86.4123 77.2629 95.9792 77.3135C98.3683 77.3303 100.53 77.3453 102.43 77.359C102.665 77.371 102.902 77.3345 103.144 77.4058C103.379 77.4758 103.576 77.6294 103.697 77.8217C103.826 78.0102 103.854 78.251 103.841 78.4493C103.839 78.6523 103.837 78.851 103.836 79.0463C103.828 79.8245 103.822 80.5362 103.816 81.1771C103.809 81.8162 103.803 82.3845 103.798 82.8786C103.794 83.1245 103.792 83.352 103.789 83.5602C103.794 83.7649 103.781 83.968 103.697 84.1229C103.539 84.4418 103.262 84.5672 103.093 84.6127C102.915 84.6552 102.821 84.6389 102.821 84.6389Z" fill="#E0E0E0"/>
<path d="M69.1528 91.4885L57.6279 91.4399L57.6177 93.4655L69.1426 93.514L69.1528 91.4885Z" fill="#016B83"/>
<path opacity="0.1" d="M69.1528 91.4885L57.6279 91.4399L57.6177 93.4655L69.1426 93.514L69.1528 91.4885Z" fill="black"/>
<path d="M102.735 103.917C102.735 103.91 102.83 103.918 103.001 103.87C103.164 103.819 103.426 103.689 103.569 103.383C103.646 103.232 103.653 103.048 103.646 102.839C103.646 102.63 103.645 102.402 103.644 102.157C103.643 101.662 103.642 101.094 103.641 100.455C103.64 99.8142 103.64 99.1025 103.64 98.3239C103.64 98.1294 103.64 97.9303 103.64 97.7268C103.65 97.5216 103.624 97.3319 103.509 97.1607C103.401 96.9924 103.227 96.8589 103.022 96.7988C102.822 96.7383 102.582 96.7713 102.345 96.7619C100.445 96.758 98.2827 96.7542 95.8936 96.7499C86.3262 96.716 73.1235 96.6692 58.5409 96.6172C58.1354 96.6078 57.7616 96.9241 57.7226 97.3079C57.7092 97.7161 57.7154 98.1672 57.7114 98.593C57.7074 99.4554 57.7033 100.313 57.6998 101.163C57.698 101.588 57.6957 102.011 57.6939 102.434C57.7016 102.645 57.6697 102.865 57.7217 103.033C57.7724 103.211 57.8907 103.37 58.0489 103.473C58.2133 103.579 58.3912 103.619 58.6064 103.611L59.2584 103.614C59.6922 103.616 60.1238 103.618 60.554 103.62C63.993 103.638 67.3106 103.655 70.4714 103.67C76.7906 103.708 82.4816 103.741 87.2642 103.769C92.0378 103.805 95.9035 103.834 98.5852 103.854C99.9153 103.869 100.951 103.881 101.663 103.889C102.009 103.895 102.275 103.9 102.463 103.904C102.643 103.91 102.735 103.917 102.735 103.917C102.735 103.917 102.643 103.925 102.463 103.927C102.274 103.929 102.008 103.931 101.663 103.935C100.95 103.937 99.9144 103.939 98.5843 103.943C95.903 103.939 92.0374 103.934 87.2629 103.928C82.4803 103.914 76.7893 103.897 70.47 103.878C67.3093 103.866 63.9917 103.853 60.5526 103.84C60.1224 103.839 59.6909 103.837 59.2571 103.835L58.605 103.832C58.3859 103.843 58.1165 103.792 57.9185 103.657C57.7154 103.524 57.564 103.321 57.4985 103.093C57.4322 102.852 57.4717 102.643 57.4618 102.434C57.4636 102.012 57.4654 101.588 57.4672 101.163C57.4708 100.312 57.4743 99.4549 57.4779 98.5926C57.4833 98.1561 57.4743 97.7414 57.4909 97.2821C57.5407 96.7881 58.022 96.3816 58.5418 96.3945C73.1244 96.4717 86.3267 96.5417 95.8941 96.5923C98.2827 96.6091 100.445 96.6241 102.345 96.6374C102.579 96.649 102.817 96.613 103.059 96.6842C103.293 96.7542 103.491 96.9078 103.612 97.1006C103.741 97.289 103.768 97.5298 103.755 97.7281C103.754 97.9311 103.752 98.1299 103.75 98.3247C103.743 99.1034 103.737 99.815 103.731 100.455C103.724 101.095 103.718 101.663 103.712 102.157C103.709 102.403 103.706 102.631 103.703 102.839C103.707 103.044 103.694 103.247 103.611 103.402C103.453 103.72 103.176 103.846 103.007 103.892C102.83 103.933 102.735 103.917 102.735 103.917Z" fill="#E0E0E0"/>
<path d="M81.8906 80.0388L60.8081 79.9501L60.7986 81.8434L81.881 81.9322L81.8906 80.0388Z" fill="#016B83"/>
<path opacity="0.2" d="M81.8906 80.0388L60.8081 79.9501L60.7986 81.8434L81.881 81.9322L81.8906 80.0388Z" fill="white"/>
<path d="M62.7192 100.413C62.717 100.933 62.3024 101.353 61.7933 101.351C61.2842 101.348 60.8737 100.925 60.876 100.405C60.8782 99.8854 61.2928 99.4652 61.8019 99.4678C62.3109 99.4699 62.7214 99.8932 62.7192 100.413Z" fill="#016B83"/>
<path d="M65.5752 100.426C65.5729 100.946 65.1584 101.366 64.6493 101.364C64.1402 101.361 63.7297 100.938 63.7319 100.418C63.7342 99.8981 64.1487 99.4783 64.6578 99.4805C65.1669 99.4822 65.5774 99.9059 65.5752 100.426Z" fill="#016B83"/>
<path d="M68.4311 100.439C68.4289 100.959 68.0143 101.379 67.5052 101.376C66.9962 101.374 66.5857 100.951 66.5879 100.431C66.5901 99.9108 67.0047 99.491 67.5138 99.4932C68.0224 99.4953 68.4334 99.9185 68.4311 100.439Z" fill="#016B83"/>
<path d="M71.2866 100.451C71.2844 100.971 70.8698 101.391 70.3612 101.389C69.8521 101.386 69.4412 100.963 69.4439 100.443C69.4461 99.9231 69.8606 99.5034 70.3697 99.5055C70.8784 99.5081 71.2893 99.9313 71.2866 100.451Z" fill="#016B83"/>
<path d="M74.1435 100.464C74.1412 100.984 73.7267 101.404 73.2176 101.401C72.7085 101.399 72.2976 100.976 72.2998 100.456C72.3025 99.9356 72.717 99.5158 73.2257 99.518C73.7348 99.5205 74.1453 99.9438 74.1435 100.464Z" fill="#016B83"/>
<path d="M76.999 100.476C76.9967 100.997 76.5822 101.417 76.0731 101.414C75.564 101.412 75.1535 100.989 75.1558 100.469C75.158 99.9485 75.5725 99.5292 76.0812 99.5309C76.5907 99.533 77.0012 99.9567 76.999 100.476Z" fill="#016B83"/>
<path d="M79.8554 100.489C79.8527 101.009 79.4382 101.429 78.9296 101.427C78.4205 101.424 78.01 101.001 78.0122 100.481C78.0145 99.9609 78.429 99.5416 78.9376 99.5437C79.4463 99.5459 79.8572 99.9691 79.8554 100.489Z" fill="#016B83"/>
<path d="M82.7109 100.501C82.7087 101.022 82.2942 101.441 81.7855 101.439C81.2764 101.437 80.8655 101.014 80.8682 100.494C80.8704 99.9738 81.285 99.554 81.7936 99.5562C82.3027 99.5583 82.7132 99.9815 82.7109 100.501Z" fill="#016B83"/>
<path d="M85.5668 100.515C85.5646 101.034 85.1501 101.454 84.6414 101.452C84.1323 101.45 83.7214 101.027 83.7236 100.507C83.7263 99.9867 84.1409 99.5674 84.6495 99.5691C85.1586 99.5708 85.5691 99.9945 85.5668 100.515Z" fill="#016B83"/>
<g opacity="0.2">
<path d="M62.7192 100.413C62.717 100.933 62.3024 101.353 61.7933 101.351C61.2842 101.348 60.8737 100.925 60.876 100.405C60.8782 99.8854 61.2928 99.4652 61.8019 99.4678C62.3109 99.4699 62.7214 99.8932 62.7192 100.413Z" fill="white"/>
<path d="M65.5752 100.426C65.5729 100.946 65.1584 101.366 64.6493 101.364C64.1402 101.361 63.7297 100.938 63.7319 100.418C63.7342 99.8981 64.1487 99.4783 64.6578 99.4805C65.1669 99.4822 65.5774 99.9059 65.5752 100.426Z" fill="white"/>
<path d="M68.4311 100.439C68.4289 100.959 68.0143 101.379 67.5052 101.376C66.9962 101.374 66.5857 100.951 66.5879 100.431C66.5901 99.9108 67.0047 99.491 67.5138 99.4932C68.0224 99.4953 68.4334 99.9185 68.4311 100.439Z" fill="white"/>
<path d="M71.2866 100.451C71.2844 100.971 70.8698 101.391 70.3612 101.389C69.8521 101.386 69.4412 100.963 69.4439 100.443C69.4461 99.9231 69.8606 99.5034 70.3697 99.5055C70.8784 99.5081 71.2893 99.9313 71.2866 100.451Z" fill="white"/>
<path d="M74.1435 100.464C74.1412 100.984 73.7267 101.404 73.2176 101.401C72.7085 101.399 72.2976 100.976 72.2998 100.456C72.3025 99.9356 72.717 99.5158 73.2257 99.518C73.7348 99.5205 74.1453 99.9438 74.1435 100.464Z" fill="white"/>
<path d="M76.999 100.476C76.9967 100.997 76.5822 101.417 76.0731 101.414C75.564 101.412 75.1535 100.989 75.1558 100.469C75.158 99.9485 75.5725 99.5292 76.0812 99.5309C76.5907 99.533 77.0012 99.9567 76.999 100.476Z" fill="white"/>
<path d="M79.8554 100.489C79.8527 101.009 79.4382 101.429 78.9296 101.427C78.4205 101.424 78.01 101.001 78.0122 100.481C78.0145 99.9609 78.429 99.5416 78.9376 99.5437C79.4463 99.5459 79.8572 99.9691 79.8554 100.489Z" fill="white"/>
<path d="M82.7109 100.501C82.7087 101.022 82.2942 101.441 81.7855 101.439C81.2764 101.437 80.8655 101.014 80.8682 100.494C80.8704 99.9738 81.285 99.554 81.7936 99.5562C82.3027 99.5583 82.7132 99.9815 82.7109 100.501Z" fill="white"/>
<path d="M85.5668 100.515C85.5646 101.034 85.1501 101.454 84.6414 101.452C84.1323 101.45 83.7214 101.027 83.7236 100.507C83.7263 99.9867 84.1409 99.5674 84.6495 99.5691C85.1586 99.5708 85.5691 99.9945 85.5668 100.515Z" fill="white"/>
</g>
<path d="M81.5112 38.5471C82.1144 38.3046 82.5433 37.7092 82.5469 37.0074C82.5509 36.088 81.8245 35.3394 80.9242 35.3351C80.0243 35.3312 79.2911 36.0734 79.2875 36.9928C79.2844 37.701 79.7164 38.3041 80.3259 38.5471C77.8176 38.9089 77.9315 41.52 77.9315 41.52L83.8622 41.5461C83.8622 41.5461 83.9975 38.9068 81.5112 38.5471Z" fill="#016B83"/>
<path opacity="0.1" d="M81.5112 38.5471C82.1144 38.3046 82.5433 37.7092 82.5469 37.0074C82.5509 36.088 81.8245 35.3394 80.9242 35.3351C80.0243 35.3312 79.2911 36.0734 79.2875 36.9928C79.2844 37.701 79.7164 38.3041 80.3259 38.5471C77.8176 38.9089 77.9315 41.52 77.9315 41.52L83.8622 41.5461C83.8622 41.5461 83.9975 38.9068 81.5112 38.5471Z" fill="black"/>
<path d="M91.1517 43.2511L70.0024 43.1609L69.9904 45.5831L91.1396 45.6733L91.1517 43.2511Z" fill="#016B83"/>
<path opacity="0.2" d="M91.1517 43.2511L70.0024 43.1609L69.9904 45.5831L91.1396 45.6733L91.1517 43.2511Z" fill="white"/>
<path d="M22.0369 30.607C22.0369 30.6113 21.9661 30.6186 21.829 30.6293C21.6806 30.6396 21.4785 30.6538 21.219 30.6718C20.9497 30.6761 20.6221 30.7323 20.2358 30.7976C20.0436 30.8349 19.8311 30.8499 19.6142 30.9113C19.3964 30.9693 19.1648 31.0306 18.9196 31.0959C17.9525 31.3882 16.7878 31.8526 15.615 32.666C14.4454 33.473 13.2753 34.6272 12.3633 36.133C11.8838 36.873 11.536 37.7276 11.2237 38.626C10.9696 39.5402 10.7446 40.5116 10.7276 41.5353C10.6801 42.0457 10.7338 42.5642 10.7562 43.0913C10.7706 43.3549 10.8297 43.6158 10.8651 43.8815C10.9028 44.1472 10.9436 44.4142 11.0224 44.6765C11.2492 45.7436 11.7032 46.7896 12.2772 47.7919C13.4249 49.8041 15.3537 51.5378 17.7356 52.5427C18.9272 53.0462 20.2448 53.3179 21.5847 53.3707C22.926 53.4522 24.3 53.2458 25.6023 52.817L25.9962 52.6783L26.0482 52.6603L26.0953 52.683C28.0236 53.6209 29.9148 54.5403 31.7473 55.4314L31.5792 55.5688C30.9755 53.7746 30.3907 52.0353 29.8292 50.366L29.8077 50.3016L29.8574 50.254C31.2821 48.8877 32.2747 47.2279 32.825 45.5285C33.3767 43.824 33.4708 42.0882 33.2557 40.4974C33.0406 38.9033 32.4965 37.4537 31.771 36.2338C31.0459 35.0105 30.1442 34.0168 29.2188 33.2408C28.2827 32.4703 27.312 31.9483 26.4421 31.5487C25.5512 31.1916 24.7571 30.9628 24.097 30.8409C23.7672 30.7868 23.4736 30.7392 23.2178 30.6975C22.9641 30.6804 22.7481 30.6662 22.5693 30.6542C22.4026 30.6417 22.2713 30.6323 22.1718 30.625C22.0826 30.616 22.0369 30.6104 22.0369 30.607C22.0369 30.604 22.0826 30.6031 22.1722 30.6044C22.2717 30.607 22.4035 30.6108 22.5711 30.6151C22.7508 30.622 22.9686 30.6306 23.224 30.6405C23.4822 30.6774 23.7784 30.7194 24.1114 30.7671C24.7782 30.8787 25.5826 31.098 26.4874 31.4491C27.3702 31.8428 28.3579 32.3621 29.3125 33.1347C30.2563 33.9125 31.1772 34.9139 31.9207 36.1506C32.6642 37.3838 33.2252 38.853 33.4511 40.4717C33.677 42.0865 33.5882 43.8515 33.0325 45.5878C32.4782 47.3189 31.4716 49.0131 30.0215 50.4089L30.0497 50.2969C30.6135 51.9649 31.2014 53.7038 31.8078 55.4971L31.8965 55.7594L31.6397 55.6349C29.8063 54.7447 27.9152 53.8265 25.9859 52.8895L26.085 52.8942L25.6825 53.0359C24.3511 53.4745 22.9457 53.6844 21.5749 53.6012C20.2058 53.5467 18.8587 53.2672 17.642 52.7513C15.209 51.7224 13.2466 49.9488 12.0827 47.8962C11.5002 46.8737 11.0426 45.8071 10.8145 44.7207C10.7356 44.4537 10.6953 44.182 10.6577 43.9116C10.6227 43.6416 10.564 43.3755 10.5501 43.1076C10.529 42.5719 10.4766 42.0444 10.5272 41.5263C10.5492 40.4863 10.7818 39.4999 11.0453 38.5732C11.3671 37.6623 11.7256 36.7974 12.2163 36.0493C13.1507 34.5276 14.3454 33.3665 15.537 32.56C16.7313 31.747 17.914 31.2903 18.8936 31.0087C19.1414 30.9469 19.3763 30.8881 19.5968 30.8332C19.8159 30.7748 20.0306 30.7628 20.2246 30.7293C20.6149 30.6705 20.9448 30.6216 21.2159 30.625C21.4767 30.6164 21.6802 30.6104 21.8294 30.6053C21.9665 30.6027 22.0369 30.6031 22.0369 30.607Z" fill="#FF8926"/>
<path d="M24.5927 40.6292H23.7645L21.9571 38.2165V36.633C21.9571 36.633 20.6773 36.5575 20.8274 38.6311C20.978 40.7048 20.8153 40.1768 20.8153 40.1768C20.8153 40.1768 18.0973 40.1867 17.8714 40.4129C17.707 40.5773 17.633 43.1634 17.6043 44.5658C17.59 45.2719 18.0422 45.9286 18.7278 46.0956C18.8251 46.1196 18.9237 46.1333 19.0205 46.1333C19.6985 46.1333 23.1622 45.6054 23.1622 45.6054H24.5927V40.6292Z" fill="#FF8926"/>
<path d="M26.9631 40.1945L26.454 45.62H25.0356V40.3039L26.9631 40.1945Z" fill="#FF8926"/>
<path d="M35.2204 175.832V172.159L28.3499 172.115L28.293 177.663L28.7187 177.694C30.6139 177.811 38.3632 177.982 39.6328 177.605C41.0494 177.186 35.2204 175.832 35.2204 175.832Z" fill="#575757"/>
<path d="M39.7956 177.261C39.7956 177.323 37.2255 177.373 34.0562 177.373C30.8856 177.373 28.3164 177.323 28.3164 177.261C28.3164 177.199 30.8856 177.149 34.0562 177.149C37.2255 177.15 39.7956 177.2 39.7956 177.261Z" fill="#263238"/>
<path d="M35.3408 176.581C35.2843 176.553 35.3327 176.359 35.4802 176.168C35.6271 175.976 35.8069 175.874 35.8517 175.917C35.8978 175.961 35.8037 176.123 35.6679 176.3C35.5321 176.477 35.3986 176.611 35.3408 176.581Z" fill="#263238"/>
<path d="M35.779 176.824C35.7194 176.802 35.7503 176.584 35.8852 176.356C36.0196 176.126 36.1984 175.989 36.2482 176.026C36.2997 176.065 36.2132 176.252 36.0882 176.465C35.9632 176.678 35.8404 176.846 35.779 176.824Z" fill="#263238"/>
<path d="M30.3863 177.245C30.3594 177.263 30.2572 177.166 30.1084 177.005C29.9588 176.845 29.7629 176.618 29.5057 176.427C29.2507 176.236 28.9697 176.14 28.7622 176.115C28.5534 176.088 28.4162 176.12 28.4046 176.087C28.3925 176.063 28.5202 175.972 28.768 175.957C29.0118 175.941 29.3565 176.03 29.6482 176.249C29.9381 176.466 30.1237 176.724 30.2415 176.912C30.3589 177.1 30.4118 177.227 30.3863 177.245Z" fill="#263238"/>
<path d="M35.3622 175.891C35.3958 175.943 35.2779 176.071 35.0816 176.139C34.8858 176.209 34.7092 176.184 34.7002 176.124C34.6899 176.062 34.8293 175.991 35.001 175.93C35.173 175.869 35.3281 175.838 35.3622 175.891Z" fill="#263238"/>
<path d="M35.2542 175.536C35.2605 175.598 35.0772 175.651 34.8455 175.653C34.6134 175.656 34.4288 175.609 34.4337 175.547C34.4382 175.485 34.621 175.433 34.8424 175.43C35.0633 175.427 35.248 175.475 35.2542 175.536Z" fill="#263238"/>
<path d="M52.1384 175.832L52.1388 172.159L45.2683 172.115L45.2114 177.607L45.6372 177.637C47.5324 177.754 55.2816 177.982 56.5517 177.605C57.9678 177.186 52.1384 175.832 52.1384 175.832Z" fill="#575757"/>
<path d="M56.714 177.27C56.714 177.331 54.1444 177.382 50.9747 177.382C47.8041 177.382 45.2349 177.331 45.2349 177.27C45.2349 177.208 47.8041 177.157 50.9747 177.157C54.1439 177.157 56.714 177.208 56.714 177.27Z" fill="#263238"/>
<path d="M52.2592 176.581C52.2028 176.553 52.2512 176.359 52.3991 176.168C52.546 175.976 52.7258 175.874 52.7706 175.917C52.8167 175.961 52.7226 176.123 52.5868 176.3C52.4506 176.477 52.3166 176.611 52.2592 176.581Z" fill="#263238"/>
<path d="M52.6974 176.824C52.6378 176.802 52.6687 176.584 52.8036 176.356C52.9381 176.126 53.1169 175.989 53.1666 176.026C53.2182 176.065 53.1317 176.252 53.0071 176.465C52.8816 176.678 52.7584 176.846 52.6974 176.824Z" fill="#263238"/>
<path d="M47.3043 177.245C47.2774 177.263 47.1752 177.166 47.0264 177.005C46.8772 176.845 46.6809 176.618 46.4237 176.427C46.1687 176.236 45.8881 176.14 45.6802 176.115C45.4713 176.088 45.3342 176.12 45.3226 176.087C45.3105 176.063 45.4382 175.972 45.6856 175.957C45.9293 175.941 46.2744 176.03 46.5657 176.249C46.8561 176.466 47.0407 176.724 47.159 176.912C47.2774 177.1 47.3302 177.227 47.3043 177.245Z" fill="#263238"/>
<path d="M52.2806 175.891C52.3142 175.943 52.1964 176.071 52.0005 176.139C51.8042 176.209 51.6281 176.184 51.6187 176.124C51.6084 176.062 51.7478 175.991 51.9194 175.93C52.0915 175.869 52.2466 175.838 52.2806 175.891Z" fill="#263238"/>
<path d="M52.1722 175.536C52.1785 175.598 51.9952 175.651 51.7635 175.653C51.5314 175.656 51.3472 175.609 51.3516 175.547C51.3561 175.485 51.5394 175.433 51.7608 175.43C51.9817 175.427 52.1659 175.475 52.1722 175.536Z" fill="#263238"/>
<path d="M77.4481 66.8505C77.2689 66.6737 76.8279 66.7569 76.8279 66.7569C76.8279 66.7569 76.905 66.2551 76.8234 66.0126C76.7423 65.7701 76.1777 65.8169 76.1777 65.8169C76.1777 65.8169 76.1427 65.5834 76.192 65.2065C76.2046 65.1121 76.1499 65.0426 76.0607 64.9906C75.7932 64.8357 75.2164 64.843 75.2164 64.843C74.8704 64.606 76.2704 62.7311 76.7894 62.131C77.3025 61.5383 77.216 61.0631 76.7531 61.064C76.4376 61.0644 74.8032 62.8668 74.3044 63.472C73.8061 64.0768 72.4688 65.7598 72.4236 64.4167C72.3779 63.0736 71.8145 62.0576 71.4623 61.8847C71.1101 61.7117 70.73 62.1177 70.925 62.4907C71.0827 62.7921 71.1822 63.3728 71.2387 63.8119C71.2853 64.1742 71.2696 64.5416 71.1871 64.8975C70.9532 65.9036 70.7018 66.5569 70.5839 66.8363L70.5494 66.8179C70.5494 66.8179 60.7678 75.8014 60.0629 76.4427C59.4283 77.0195 46.7181 75.7602 44.1717 75.5013C43.4758 75.4266 42.4451 75.2927 41.5519 75.3305C40.4472 75.3769 40.2509 75.5271 39.1454 75.5413C35.7601 75.5846 32.939 75.9001 30.8395 76.2405C28.3012 76.6517 26.22 78.3824 25.4344 80.7307C22.8643 88.4128 17.0501 106.6 16.014 116.817C15.198 118.287 14.286 120.004 13.9154 120.969C13.1952 122.847 13.37 122.911 13.6129 122.955C14.2645 123.07 15.0102 119.698 15.2885 120.511C15.5672 121.326 13.8759 124.535 14.5621 124.629C15.4565 124.751 16.1695 121.207 16.2529 120.911C16.334 120.624 16.7853 120.721 16.6952 120.984C16.5652 121.362 15.3042 125.367 16.1816 125.495C16.6679 125.567 16.7203 124.718 16.7203 124.718C16.7203 124.718 17.6121 120.888 18.024 120.962C18.4425 121.037 17.998 123.302 17.7914 124.056C17.5875 124.801 17.8747 125.197 18.2942 125.009C18.5801 124.882 19.2689 122.587 19.4544 121.837C19.6404 121.087 20.1114 119.021 20.7442 120.22C21.377 121.42 22.3346 122.113 22.7304 122.128C23.1256 122.143 23.2914 121.622 22.9504 121.362C22.6748 121.152 22.3288 120.666 22.0841 120.29C21.8825 119.981 21.7346 119.641 21.653 119.285C21.338 117.912 21.3407 117.113 21.3407 117.113L21.2676 116.672C22.271 111.91 25.1638 97.9405 29.3189 89.0158L31.03 92.3883L31.7725 94.8848L27.2127 105.675L46.6679 105.43L43.7675 94.7251L47.2913 83.5628H47.2908C51.1045 83.6444 60.8996 83.7804 62.5456 83.0756C64.5976 82.1974 75.2182 69.3744 75.2182 69.3744H75.2177C75.9352 68.8271 76.6648 68.2386 77.203 67.7249C77.2039 67.724 77.8371 67.2334 77.4481 66.8505Z" fill="#FFBE9D"/>
<path d="M26.3659 97.7307C26.9292 95.8854 29.8296 86.7607 29.8296 86.7607C29.8296 86.7607 31.2529 94.1998 30.8787 95.0956C30.4476 96.1279 29.6553 97.3092 29.6553 97.3092C26.3659 102.108 26.7975 104.506 26.7975 104.506L46.6681 103.925C46.7165 101.264 45.0714 95.0754 44.7277 94.0895C44.3835 93.1035 45.5245 89.8675 45.5245 89.8675C45.5245 89.8675 47.7701 87.6831 47.6832 86.5589C47.5079 84.2943 47.2915 83.5629 47.2915 83.5629L59.3824 83.9891L59.0024 76.1311L41.622 74.4652C41.0206 76.1045 35.5475 75.3014 35.5475 75.3014C29.6387 75.4872 29.2811 76.5281 26.8167 78.3554C24.3529 80.1826 20.2949 95.8764 20.2949 95.8764L26.3659 97.7307Z" fill="#12486B"/>
<path d="M38.1177 95.8746C38.1173 95.9042 37.7175 95.9296 37.0704 95.9253C36.4237 95.9214 35.5297 95.8828 34.5474 95.7888C33.5646 95.6935 32.6808 95.5609 32.0458 95.4411C31.4113 95.3218 31.0245 95.2209 31.0303 95.1917C31.0366 95.1604 31.4332 95.2063 32.0723 95.2853C32.7113 95.3647 33.5933 95.472 34.5707 95.566C35.5476 95.66 36.434 95.7231 37.0767 95.7673C37.7198 95.8119 38.1182 95.8424 38.1177 95.8746Z" fill="#263238"/>
<path d="M39.4779 94.256C39.4864 94.2835 39.0763 94.4325 38.3929 94.6102C37.71 94.7874 36.7505 94.9836 35.6767 95.1064C34.6025 95.2278 33.6215 95.2532 32.9139 95.2334C32.2059 95.2141 31.7712 95.1604 31.773 95.1325C31.7743 95.0995 32.2108 95.0965 32.9135 95.0754C33.6162 95.0544 34.5851 95.0051 35.6489 94.8844C36.7119 94.763 37.6665 94.5934 38.3548 94.4565C39.0432 94.3191 39.4685 94.2238 39.4779 94.256Z" fill="#263238"/>
<path d="M46.1617 87.0359C46.1927 87.0423 46.1416 87.4132 46.026 88.0068C45.9103 88.6004 45.7288 89.416 45.4998 90.3105C45.2704 91.2055 45.0378 92.0094 44.8536 92.5867C44.6694 93.1645 44.5359 93.516 44.505 93.5079C44.4736 93.4993 44.5511 93.1332 44.6941 92.546C44.8635 91.8759 45.0584 91.1067 45.2731 90.2577C45.4927 89.41 45.6916 88.6421 45.8651 87.9729C46.0215 87.3883 46.1299 87.0294 46.1617 87.0359Z" fill="#263238"/>
<path d="M26.5741 96.6375C26.557 96.6971 25.1866 96.3911 23.5132 95.9537C21.8394 95.5159 20.4968 95.1137 20.5138 95.0536C20.5309 94.9939 21.9008 95.3004 23.5746 95.7378C25.248 96.1752 26.5911 96.5782 26.5741 96.6375Z" fill="#263238"/>
<path d="M47.5107 83.462C47.5107 83.4723 47.3265 83.4907 46.9962 83.4594C46.6677 83.4272 46.1869 83.3538 45.6298 83.1473C45.0723 82.9473 44.4387 82.6129 43.8467 82.1073C43.2547 81.6038 42.7254 80.911 42.388 80.0959C42.0451 79.2812 41.9326 78.4322 41.9864 77.6763C42.0384 76.9217 42.2472 76.2396 42.5999 75.7619C42.949 75.2777 43.412 75.0434 43.7342 74.9622C43.8973 74.9206 44.0291 74.9107 44.1169 74.9129C44.2052 74.915 44.2504 74.9245 44.2504 74.9313C44.2513 74.9524 44.0645 74.9425 43.7615 75.0451C43.4639 75.1472 43.0454 75.388 42.7371 75.8503C42.1271 76.7689 41.9568 78.4459 42.6053 80.0135C42.9302 80.7973 43.4299 81.4626 43.9919 81.9554C44.5534 82.4503 45.1575 82.7881 45.6917 83.001C46.7681 83.4285 47.5187 83.4143 47.5107 83.462Z" fill="#263238"/>
<path d="M57.9564 83.832C57.8923 83.832 57.8435 82.0609 57.8479 79.8766C57.8524 77.6913 57.9084 75.9211 57.9725 75.9211C58.0371 75.9216 58.0855 77.6922 58.081 79.877C58.0769 82.0614 58.0209 83.8324 57.9564 83.832Z" fill="#263238"/>
<path d="M41.5162 74.9437C41.5651 73.9857 41.67 72.9036 41.67 72.9036C41.67 72.9036 44.1428 72.6426 44.2929 70.1955C44.4431 67.7484 44.2929 62.1061 44.2929 62.1061L39.7887 59.9093L34.834 63.6544L35.5846 75.8881L40.1436 76.1658C40.8624 76.2096 41.4795 75.661 41.5162 74.9437Z" fill="#FFBE9D"/>
<path d="M41.9615 68.2602C41.9687 68.2619 41.9691 68.3061 41.9225 68.3653C41.8768 68.4229 41.7769 68.4881 41.638 68.4855C41.3507 68.4722 41.0746 68.1683 40.9729 67.7975C40.9218 67.609 40.9223 67.418 40.9608 67.2536C40.9913 67.0918 41.089 66.9291 41.2297 66.8849C41.2969 66.8609 41.3668 66.8634 41.4202 66.8892C41.4726 66.9145 41.5049 66.9527 41.5214 66.9879C41.5551 67.0609 41.5291 67.1051 41.5223 67.1017C41.512 67.1012 41.5147 67.0609 41.4771 67.015C41.4417 66.9682 41.3574 66.9257 41.2642 66.972C41.1692 67.0132 41.1042 67.1296 41.08 67.2785C41.0518 67.4262 41.0554 67.5957 41.1006 67.7636C41.1903 68.0958 41.4309 68.3679 41.6447 68.3924C41.7504 68.4053 41.8383 68.3662 41.8858 68.3293C41.9351 68.2907 41.9521 68.2559 41.9615 68.2602Z" fill="#EB996E"/>
<path d="M45.8285 60.7854C45.4843 59.6591 44.234 59.0994 43.0948 58.7903C41.3618 58.3199 39.4846 58.1117 37.7915 58.7088C36.0984 59.3059 34.062 60.3562 34.0625 62.1478C33.0631 62.0689 32.4922 62.9076 32.0956 63.9468C31.8612 64.5606 31.7071 65.2439 31.6708 65.9208L31.6542 65.9157C31.5256 68.2606 30.8435 71.4915 29.2562 73.226C28.3796 74.1836 27.1176 74.8451 26.6067 76.0379C26.1626 77.0745 26.3925 78.2996 25.9726 79.346C25.602 80.2698 24.7815 80.9256 24.193 81.7292C22.9118 83.4796 22.8244 85.9524 23.766 87.9059C24.7075 89.8593 26.5731 91.2887 28.644 91.9437C30.7149 92.5987 32.9708 92.5266 35.0784 92.0012C36.6344 91.6132 38.1482 90.9711 39.3882 89.9559C40.6282 88.9408 41.5796 87.5299 41.8633 85.9546C42.1788 84.2011 41.6666 82.4207 41.2897 80.6793C40.0976 75.17 40.4382 74.8837 41.9426 69.7732C41.9767 69.6831 41.9978 69.5891 42.0238 69.4964C42.0435 69.4285 42.0627 69.3637 42.0829 69.2942L42.0798 69.2933C42.1219 69.0933 42.1492 68.8899 42.1501 68.6821C41.7145 68.8465 41.1884 68.737 40.8541 68.4134C40.5202 68.0898 40.3957 67.5678 40.5476 67.1287C40.7223 66.6235 41.2063 66.2861 41.7033 66.0856C42.2003 65.8852 42.735 65.786 43.223 65.5641C44.2577 65.0924 44.9752 64.1137 45.4632 63.0883C45.8061 62.3693 46.0611 61.546 45.8285 60.7854Z" fill="#263238"/>
<path d="M42.1385 68.3644C42.1542 68.358 42.2411 68.5177 42.3742 68.7885C42.5073 69.0594 42.6857 69.4418 42.8842 69.8814L42.9214 69.9646L42.8264 69.9724C42.6771 69.9848 42.5261 69.9973 42.3702 70.0101C42.0574 70.0295 41.7965 70.0655 41.4936 70.0625C41.4456 70.0543 41.3923 70.0123 41.378 69.9651C41.3618 69.9187 41.3663 69.8797 41.3713 69.8457C41.3843 69.7784 41.3999 69.7286 41.4134 69.6715L41.4927 69.3676C41.5917 68.9967 41.6626 68.7692 41.6814 68.7735C41.7002 68.7778 41.6634 69.0126 41.5891 69.3882L41.5268 69.6951C41.5039 69.799 41.4645 69.9539 41.5227 69.9419C41.7459 69.9329 42.0636 69.8973 42.3585 69.8762C42.5145 69.8642 42.6655 69.853 42.8147 69.8414L42.7574 69.9324C42.5656 69.4908 42.4029 69.1014 42.2917 68.8216C42.182 68.5422 42.1228 68.3709 42.1385 68.3644Z" fill="#12486B"/>
<path d="M26.7979 104.506L46.6685 103.926L55.311 136.264L53.7192 173.358H43.2017L44.5049 137.054L36.8184 114.542L38.0028 174.796L27.3845 174.947L26.2659 118.31C26.2193 116.736 25.6784 113.184 25.8796 111.623L26.7979 104.506Z" fill="#263238"/>
<path d="M39.465 114.999C39.461 115.028 39.0881 115.011 38.4903 114.943C37.8925 114.876 37.0701 114.755 36.1694 114.582C35.2686 114.408 34.4615 114.215 33.8829 114.055C33.3044 113.896 32.9535 113.775 32.9616 113.745C32.9795 113.683 34.4221 114.018 36.2155 114.363C38.0077 114.71 39.4735 114.935 39.465 114.999Z" fill="#455A64"/>
<path d="M53.6236 171.323C53.6236 171.385 51.2421 171.435 48.3059 171.435C45.3683 171.435 42.9878 171.385 42.9878 171.323C42.9878 171.262 45.3683 171.212 48.3059 171.212C51.2421 171.212 53.6236 171.262 53.6236 171.323Z" fill="#455A64"/>
<path d="M37.9078 173.231C37.9078 173.293 35.5981 173.343 32.7488 173.343C29.8991 173.343 27.5894 173.293 27.5894 173.231C27.5894 173.169 29.8991 173.119 32.7488 173.119C35.5981 173.119 37.9078 173.169 37.9078 173.231Z" fill="#455A64"/>
<path d="M36.5402 173.076C36.4757 173.077 36.1965 159.911 35.9164 143.672C35.6363 127.428 35.4616 114.262 35.5261 114.261C35.5906 114.26 35.8698 127.424 36.1499 143.668C36.43 159.907 36.6048 173.075 36.5402 173.076Z" fill="#455A64"/>
<path d="M52.2111 171.323C52.207 171.323 52.2057 171.264 52.2061 171.148C52.2084 171.021 52.212 170.851 52.216 170.634C52.2299 170.17 52.2501 169.506 52.2756 168.658C52.3383 166.93 52.428 164.45 52.5391 161.39C52.7842 155.245 53.1226 146.774 53.4963 137.417C53.4999 137.331 53.5035 137.245 53.5066 137.165L53.5102 137.197C51.1552 128.164 49.0266 120 47.4832 114.081C46.7258 111.133 46.1123 108.744 45.6848 107.079C45.4795 106.261 45.3195 105.621 45.2075 105.174C45.1573 104.964 45.1183 104.799 45.0892 104.677C45.0636 104.564 45.0524 104.507 45.0565 104.506C45.0601 104.505 45.0789 104.561 45.112 104.672C45.1465 104.792 45.1931 104.956 45.2527 105.163C45.3751 105.608 45.5494 106.245 45.7726 107.059C46.2172 108.719 46.8549 111.102 47.6422 114.043C49.2027 119.958 51.3551 128.117 53.7361 137.143L53.7401 137.158L53.7397 137.174C53.7365 137.254 53.7325 137.34 53.7294 137.427C53.3292 146.782 52.9666 155.251 52.7036 161.397C52.5615 164.455 52.4463 166.933 52.3661 168.661C52.3213 169.509 52.2868 170.172 52.2626 170.636C52.2487 170.853 52.238 171.023 52.2299 171.149C52.2214 171.265 52.2151 171.324 52.2111 171.323Z" fill="#455A64"/>
<path d="M48.7833 136.41C48.794 136.471 47.7539 136.693 46.4596 136.906C45.4934 137.065 44.659 137.174 44.2947 137.194L44.2942 137.107C44.4152 137.138 44.4802 137.163 44.4775 137.179C44.4753 137.194 44.4049 137.199 44.2799 137.194L44.0083 137.183L44.2794 137.107C44.6299 137.008 45.4545 136.845 46.4207 136.686C47.714 136.473 48.7721 136.349 48.7833 136.41Z" fill="#455A64"/>
<path d="M48.5822 137.644C48.5733 137.707 47.6398 137.638 46.4903 137.553C45.3408 137.466 44.4073 137.396 44.4087 137.333C44.41 137.272 45.3516 137.243 46.5087 137.33C47.6649 137.415 48.5908 137.584 48.5822 137.644Z" fill="#455A64"/>
<path opacity="0.2" d="M26.7095 105.189C27.1899 105.837 27.8751 106.064 28.6714 106.189C29.4673 106.314 30.2798 106.23 31.0811 106.145C36.2101 105.6 41.6452 105.097 46.6684 103.925C40.1663 104.274 33.2999 104.156 26.7978 104.505C26.7978 104.505 26.7422 104.934 26.7292 105.037" fill="black"/>
<g opacity="0.2">
<path d="M33.4121 113.967L37.0752 127.588L36.8189 114.541L33.4121 113.967Z" fill="black"/>
</g>
</svg>
