<svg width="32" height="32" viewBox="0 0 32 32" fill="none" xmlns="http://www.w3.org/2000/svg">
<path d="M16.0022 8.40509C14.0466 8.40509 12.2099 9.13778 10.828 10.4654C9.44618 11.7929 8.68352 13.5574 8.68352 15.4362C8.68352 17.315 9.44618 19.0795 10.828 20.4071C11.8356 21.375 12.4548 22.6119 12.6297 23.9495C12.3009 24.0638 12.063 24.3629 12.063 24.7192C12.063 25.1729 12.4443 25.5393 12.9166 25.5393H19.0843C19.5566 25.5393 19.9379 25.1729 19.9379 24.7192C19.9379 24.3629 19.7 24.0638 19.3712 23.9495C19.5461 22.6119 20.1653 21.375 21.1729 20.4071C22.5547 19.0795 23.3174 17.315 23.3174 15.4362C23.3174 13.5574 22.5547 11.7929 21.1729 10.4654C19.791 9.13442 17.9543 8.40509 16.0022 8.40509ZM20.4837 19.7383C19.3047 20.8709 18.584 22.3228 18.3986 23.8924H13.6058C13.4169 22.3228 12.6997 20.8709 11.5207 19.7383C10.3243 18.5888 9.66308 17.0596 9.66308 15.4329C9.66308 13.8062 10.3208 12.2769 11.5207 11.1275C12.7172 9.97802 14.309 9.3428 16.0022 9.3428C17.6954 9.3428 19.2872 9.97466 20.4837 11.1275C21.6801 12.2769 22.3413 13.8062 22.3413 15.4329C22.3413 17.0596 21.6801 18.5888 20.4837 19.7383Z" fill="#F18903" stroke="#F18903" stroke-width="0.5"/>
<path d="M18.5946 26.0468H13.4064C12.9341 26.0468 12.5528 26.4132 12.5528 26.8669C12.5528 27.3206 12.9341 27.687 13.4064 27.687H18.5946C19.0668 27.687 19.4482 27.3206 19.4482 26.8669C19.4482 26.4132 19.0668 26.0468 18.5946 26.0468Z" fill="#F18903"/>
<path d="M18.1083 28.2011H13.8962C13.4239 28.2011 13.0426 28.5675 13.0426 29.0212C13.0426 29.4749 13.4239 29.8413 13.8962 29.8413H18.1083C18.5806 29.8413 18.9619 29.4749 18.9619 29.0212C18.9619 28.5675 18.5806 28.2011 18.1083 28.2011Z" fill="#F18903"/>
<path d="M17.5274 30.3926H14.4768C15.3164 31.2026 16.6843 31.2026 17.5274 30.3926Z" fill="#F18903"/>
<path d="M15.8658 5.83736C15.8728 5.8945 15.9183 5.94155 15.9812 5.94827C16.0547 5.95835 16.1247 5.90794 16.1352 5.83736L16.7264 1.8042C16.7369 1.74035 16.7369 1.67313 16.7264 1.60591C16.6704 1.2194 16.2996 0.95052 15.8973 1.00766C15.495 1.06143 15.2151 1.41769 15.2745 1.8042L15.8658 5.83736Z" fill="#F18903"/>
<path d="M5.47204 6.28439L8.8585 8.73453C8.90398 8.76814 8.97395 8.7715 9.02293 8.73453C9.0824 8.69084 9.0964 8.61018 9.05092 8.55304L6.50057 5.29963C6.46209 5.24922 6.40961 5.1988 6.35714 5.16183C6.03178 4.92656 5.57349 4.99042 5.3286 5.29963C5.08371 5.60884 5.15018 6.05249 5.47204 6.28439Z" fill="#F18903"/>
<path d="M6.15064 15.4296C6.16113 15.359 6.10866 15.2918 6.03519 15.2817L1.83709 14.7137C1.77062 14.7036 1.70066 14.7036 1.63069 14.7137C1.22837 14.7675 0.948497 15.1237 1.00797 15.5102C1.06394 15.8967 1.43478 16.1656 1.83709 16.1085L6.03519 15.5405C6.09466 15.5338 6.14364 15.4901 6.15064 15.4296Z" fill="#F18903"/>
<path d="M23.1459 8.73454L26.5324 6.2844C26.5849 6.24743 26.6374 6.19701 26.6758 6.1466C26.9207 5.83403 26.8543 5.39374 26.5324 5.15847C26.2071 4.92321 25.7488 4.98706 25.5039 5.29627L22.9535 8.54968C22.9185 8.59338 22.915 8.6606 22.9535 8.70765C22.999 8.76479 23.083 8.77823 23.1459 8.73454Z" fill="#F18903"/>
<path d="M30.9927 15.3153C30.9368 14.9287 30.5659 14.6599 30.1636 14.717L25.9655 15.285C25.9061 15.2917 25.8571 15.3354 25.8501 15.3959C25.8396 15.4665 25.8921 15.5337 25.9655 15.5438L30.1636 16.1118C30.2301 16.1219 30.3001 16.1219 30.37 16.1118C30.7689 16.058 31.0487 15.6984 30.9927 15.3153Z" fill="#F18903"/>
<path d="M19.8784 6.59016L20.704 5.41719C20.732 5.38022 20.753 5.33316 20.76 5.28611C20.7984 5.09454 20.669 4.90632 20.4661 4.86935C20.2667 4.83238 20.0708 4.95674 20.0323 5.15167L19.7524 6.54311C19.7489 6.56664 19.7594 6.59352 19.7804 6.61033C19.8154 6.63049 19.8574 6.62041 19.8784 6.59016Z" fill="#F18903"/>
<path d="M12.1257 6.59023C12.1397 6.6104 12.1677 6.62384 12.1957 6.61712C12.2342 6.6104 12.2587 6.57679 12.2517 6.53982L11.9718 5.14838C11.9613 5.10469 11.9438 5.05763 11.9158 5.0173C11.8004 4.85598 11.5695 4.81228 11.4016 4.9232C11.2336 5.03411 11.1882 5.25593 11.3036 5.41726L12.1257 6.59023Z" fill="#F18903"/>
<path d="M5.59784 10.8956C5.55935 10.8687 5.51037 10.8485 5.4614 10.8418C5.26199 10.8049 5.06608 10.9292 5.02759 11.1241C4.98911 11.3157 5.11855 11.5039 5.32146 11.5409L6.7698 11.8098C6.79429 11.8131 6.82228 11.8031 6.83977 11.7829C6.86076 11.7526 6.85377 11.7123 6.82228 11.6921L5.59784 10.8956Z" fill="#F18903"/>
<path d="M6.76983 19.0158L5.32149 19.2847C5.27601 19.2948 5.22703 19.3116 5.18505 19.3385C5.01713 19.4494 4.97165 19.6712 5.08709 19.8325C5.20254 19.9938 5.43344 20.0375 5.60136 19.9266L6.82231 19.1334C6.8433 19.12 6.85729 19.0931 6.85029 19.0662C6.8433 19.0326 6.80482 19.0091 6.76983 19.0158Z" fill="#F18903"/>
<path d="M26.4064 10.8957L25.1855 11.6888C25.1645 11.7023 25.1505 11.7292 25.1575 11.7561C25.1645 11.793 25.1995 11.8166 25.238 11.8098L26.6863 11.541C26.7318 11.5309 26.7808 11.5141 26.8228 11.4872C26.9907 11.3763 27.0362 11.1544 26.9207 10.9931C26.8053 10.8318 26.5744 10.7847 26.4064 10.8957Z" fill="#F18903"/>
<path d="M26.6828 19.2881L25.2345 19.0192C25.21 19.0158 25.182 19.0259 25.1645 19.0461C25.1435 19.0763 25.1505 19.1167 25.182 19.1368L26.403 19.93C26.4414 19.9569 26.4904 19.9771 26.5394 19.9838C26.7388 20.0208 26.9347 19.893 26.9732 19.7015C27.0152 19.5099 26.8822 19.325 26.6828 19.2881Z" fill="#F18903"/>
</svg>
