<svg width="184" height="44" viewBox="0 0 184 44" fill="none" xmlns="http://www.w3.org/2000/svg">
<path d="M56.9914 20.8333H60.1714C60.7314 20.8333 61.1914 20.6999 61.5514 20.4333C61.9114 20.1666 62.0914 19.7333 62.0914 19.1333C62.0914 18.7999 62.0314 18.5266 61.9114 18.3133C61.7914 18.0999 61.6314 17.9333 61.4314 17.8133C61.2314 17.6933 60.9981 17.6133 60.7314 17.5733C60.4781 17.5199 60.2114 17.4933 59.9314 17.4933H56.9914V20.8333ZM53.8514 15.0533H60.5714C61.2514 15.0533 61.8714 15.1133 62.4314 15.2333C62.9914 15.3533 63.4714 15.5533 63.8714 15.8333C64.2714 16.0999 64.5781 16.4599 64.7914 16.9133C65.0181 17.3666 65.1314 17.9266 65.1314 18.5933C65.1314 19.3133 64.9647 19.9133 64.6314 20.3933C64.3114 20.8733 63.8314 21.2666 63.1914 21.5733C64.0714 21.8266 64.7247 22.2733 65.1514 22.9133C65.5914 23.5399 65.8114 24.2999 65.8114 25.1933C65.8114 25.9133 65.6714 26.5399 65.3914 27.0733C65.1114 27.5933 64.7314 28.0199 64.2514 28.3533C63.7847 28.6866 63.2447 28.9333 62.6314 29.0933C62.0314 29.2533 61.4114 29.3333 60.7714 29.3333H53.8514V15.0533ZM56.9914 26.8933H60.3514C60.6581 26.8933 60.9514 26.8666 61.2314 26.8133C61.5114 26.7466 61.7581 26.6466 61.9714 26.5133C62.1847 26.3666 62.3514 26.1733 62.4714 25.9333C62.6047 25.6933 62.6714 25.3866 62.6714 25.0133C62.6714 24.2799 62.4647 23.7599 62.0514 23.4533C61.6381 23.1333 61.0914 22.9733 60.4114 22.9733H56.9914V26.8933ZM67.6334 18.9933H70.3334V20.9133H70.3734C70.5068 20.5933 70.6868 20.2999 70.9134 20.0333C71.1401 19.7533 71.4001 19.5199 71.6934 19.3333C71.9868 19.1333 72.3001 18.9799 72.6334 18.8733C72.9668 18.7666 73.3134 18.7133 73.6734 18.7133C73.8601 18.7133 74.0668 18.7466 74.2934 18.8133V21.4533C74.1601 21.4266 74.0001 21.4066 73.8134 21.3933C73.6268 21.3666 73.4468 21.3533 73.2734 21.3533C72.7534 21.3533 72.3134 21.4399 71.9534 21.6133C71.5934 21.7866 71.3001 22.0266 71.0734 22.3333C70.8601 22.6266 70.7068 22.9733 70.6134 23.3733C70.5201 23.7733 70.4734 24.2066 70.4734 24.6733V29.3333H67.6334V18.9933ZM78.3269 17.3933H75.4869V15.0533H78.3269V17.3933ZM75.4869 18.9933H78.3269V29.3333H75.4869V18.9933ZM85.3831 26.8933C85.7831 26.8933 86.1365 26.8133 86.4431 26.6533C86.7498 26.4933 87.0031 26.2799 87.2031 26.0133C87.4031 25.7466 87.5498 25.4466 87.6431 25.1133C87.7498 24.7666 87.8031 24.4066 87.8031 24.0333C87.8031 23.6066 87.7631 23.2066 87.6831 22.8333C87.6031 22.4466 87.4698 22.1066 87.2831 21.8133C87.0965 21.5199 86.8498 21.2866 86.5431 21.1133C86.2365 20.9399 85.8498 20.8533 85.3831 20.8533C84.9831 20.8533 84.6365 20.9333 84.3431 21.0933C84.0631 21.2533 83.8231 21.4733 83.6231 21.7533C83.4365 22.0199 83.2965 22.3333 83.2031 22.6933C83.1231 23.0399 83.0831 23.4066 83.0831 23.7933C83.0831 24.1666 83.1165 24.5399 83.1831 24.9133C83.2631 25.2733 83.3898 25.5999 83.5631 25.8933C83.7498 26.1866 83.9898 26.4266 84.2831 26.6133C84.5765 26.7999 84.9431 26.8933 85.3831 26.8933ZM90.5031 28.6733C90.5031 29.0866 90.4431 29.5599 90.3231 30.0933C90.2165 30.6266 89.9765 31.1199 89.6031 31.5733C89.2298 32.0399 88.6898 32.4333 87.9831 32.7533C87.2765 33.0733 86.3298 33.2333 85.1431 33.2333C84.6365 33.2333 84.1165 33.1666 83.5831 33.0333C83.0631 32.9133 82.5831 32.7199 82.1431 32.4533C81.7165 32.1866 81.3565 31.8399 81.0631 31.4133C80.7831 30.9999 80.6231 30.4999 80.5831 29.9133H83.4031C83.5365 30.4466 83.7965 30.8133 84.1831 31.0133C84.5698 31.2266 85.0165 31.3333 85.5231 31.3333C86.3231 31.3333 86.9031 31.0933 87.2631 30.6133C87.6365 30.1333 87.8165 29.5266 87.8031 28.7933V27.4333H87.7631C87.4565 27.9799 87.0165 28.3866 86.4431 28.6533C85.8831 28.9066 85.2898 29.0333 84.6631 29.0333C83.8898 29.0333 83.2231 28.8999 82.6631 28.6333C82.1031 28.3533 81.6431 27.9799 81.2831 27.5133C80.9231 27.0333 80.6565 26.4799 80.4831 25.8533C80.3231 25.2133 80.2431 24.5399 80.2431 23.8333C80.2431 23.1666 80.3365 22.5266 80.5231 21.9133C80.7231 21.2866 81.0098 20.7399 81.3831 20.2733C81.7565 19.7933 82.2165 19.4133 82.7631 19.1333C83.3231 18.8533 83.9631 18.7133 84.6831 18.7133C85.3631 18.7133 85.9565 18.8399 86.4631 19.0933C86.9831 19.3466 87.4165 19.7733 87.7631 20.3733H87.8031V18.9933H90.5031V28.6733ZM92.7897 15.0533H95.6297V20.4333H95.6897C96.0497 19.8333 96.5097 19.3999 97.0697 19.1333C97.6297 18.8533 98.1764 18.7133 98.7097 18.7133C99.4697 18.7133 100.09 18.8199 100.57 19.0333C101.063 19.2333 101.45 19.5199 101.73 19.8933C102.01 20.2533 102.203 20.6999 102.31 21.2333C102.43 21.7533 102.49 22.3333 102.49 22.9733V29.3333H99.6497V23.4933C99.6497 22.6399 99.5164 22.0066 99.2497 21.5933C98.983 21.1666 98.5097 20.9533 97.8297 20.9533C97.0564 20.9533 96.4964 21.1866 96.1497 21.6533C95.803 22.1066 95.6297 22.8599 95.6297 23.9133V29.3333H92.7897V15.0533ZM108.245 18.9933H110.325V20.8933H108.245V26.0133C108.245 26.4933 108.325 26.8133 108.485 26.9733C108.645 27.1333 108.965 27.2133 109.445 27.2133C109.605 27.2133 109.758 27.2066 109.905 27.1933C110.052 27.1799 110.192 27.1599 110.325 27.1333V29.3333C110.085 29.3733 109.818 29.3999 109.525 29.4133C109.232 29.4266 108.945 29.4333 108.665 29.4333C108.225 29.4333 107.805 29.3999 107.405 29.3333C107.018 29.2799 106.672 29.1666 106.365 28.9933C106.072 28.8199 105.838 28.5733 105.665 28.2533C105.492 27.9333 105.405 27.5133 105.405 26.9933V20.8933H103.685V18.9933H105.405V15.8933H108.245V18.9933ZM111.976 15.0533H115.116V26.6933H122.076V29.3333H111.976V15.0533ZM130.492 23.0533C130.359 22.3333 130.119 21.7866 129.772 21.4133C129.439 21.0399 128.925 20.8533 128.232 20.8533C127.779 20.8533 127.399 20.9333 127.092 21.0933C126.799 21.2399 126.559 21.4266 126.372 21.6533C126.199 21.8799 126.072 22.1199 125.992 22.3733C125.925 22.6266 125.885 22.8533 125.872 23.0533H130.492ZM125.872 24.8533C125.912 25.7733 126.145 26.4399 126.572 26.8533C126.999 27.2666 127.612 27.4733 128.412 27.4733C128.985 27.4733 129.479 27.3333 129.892 27.0533C130.305 26.7599 130.559 26.4533 130.652 26.1333H133.152C132.752 27.3733 132.139 28.2599 131.312 28.7933C130.485 29.3266 129.485 29.5933 128.312 29.5933C127.499 29.5933 126.765 29.4666 126.112 29.2133C125.459 28.9466 124.905 28.5733 124.452 28.0933C123.999 27.6133 123.645 27.0399 123.392 26.3733C123.152 25.7066 123.032 24.9733 123.032 24.1733C123.032 23.3999 123.159 22.6799 123.412 22.0133C123.665 21.3466 124.025 20.7733 124.492 20.2933C124.959 19.7999 125.512 19.4133 126.152 19.1333C126.805 18.8533 127.525 18.7133 128.312 18.7133C129.192 18.7133 129.959 18.8866 130.612 19.2333C131.265 19.5666 131.799 20.0199 132.212 20.5933C132.639 21.1666 132.945 21.8199 133.132 22.5533C133.319 23.2866 133.385 24.0533 133.332 24.8533H125.872ZM142.356 24.1333C142.356 23.7066 142.316 23.2999 142.236 22.9133C142.156 22.5133 142.016 22.1666 141.816 21.8733C141.63 21.5666 141.383 21.3199 141.076 21.1333C140.77 20.9466 140.383 20.8533 139.916 20.8533C139.45 20.8533 139.056 20.9466 138.736 21.1333C138.416 21.3199 138.156 21.5666 137.956 21.8733C137.77 22.1799 137.63 22.5333 137.536 22.9333C137.456 23.3199 137.416 23.7266 137.416 24.1533C137.416 24.5533 137.463 24.9533 137.556 25.3533C137.65 25.7533 137.796 26.1133 137.996 26.4333C138.21 26.7399 138.47 26.9933 138.776 27.1933C139.096 27.3799 139.476 27.4733 139.916 27.4733C140.383 27.4733 140.77 27.3799 141.076 27.1933C141.396 27.0066 141.65 26.7599 141.836 26.4533C142.023 26.1333 142.156 25.7733 142.236 25.3733C142.316 24.9733 142.356 24.5599 142.356 24.1333ZM142.396 28.0133H142.356C142.023 28.5733 141.583 28.9799 141.036 29.2333C140.503 29.4733 139.896 29.5933 139.216 29.5933C138.443 29.5933 137.763 29.4466 137.176 29.1533C136.59 28.8466 136.103 28.4399 135.716 27.9333C135.343 27.4133 135.056 26.8199 134.856 26.1533C134.67 25.4866 134.576 24.7933 134.576 24.0733C134.576 23.3799 134.67 22.7133 134.856 22.0733C135.056 21.4199 135.343 20.8466 135.716 20.3533C136.103 19.8599 136.583 19.4666 137.156 19.1733C137.73 18.8666 138.396 18.7133 139.156 18.7133C139.77 18.7133 140.35 18.8466 140.896 19.1133C141.456 19.3666 141.896 19.7466 142.216 20.2533H142.256V15.0533H145.096V29.3333H142.396V28.0133ZM152.063 26.8933C152.463 26.8933 152.816 26.8133 153.123 26.6533C153.429 26.4933 153.683 26.2799 153.883 26.0133C154.083 25.7466 154.229 25.4466 154.323 25.1133C154.429 24.7666 154.483 24.4066 154.483 24.0333C154.483 23.6066 154.443 23.2066 154.363 22.8333C154.283 22.4466 154.149 22.1066 153.963 21.8133C153.776 21.5199 153.529 21.2866 153.223 21.1133C152.916 20.9399 152.529 20.8533 152.063 20.8533C151.663 20.8533 151.316 20.9333 151.023 21.0933C150.743 21.2533 150.503 21.4733 150.303 21.7533C150.116 22.0199 149.976 22.3333 149.883 22.6933C149.803 23.0399 149.763 23.4066 149.763 23.7933C149.763 24.1666 149.796 24.5399 149.863 24.9133C149.943 25.2733 150.069 25.5999 150.243 25.8933C150.429 26.1866 150.669 26.4266 150.963 26.6133C151.256 26.7999 151.623 26.8933 152.063 26.8933ZM157.183 28.6733C157.183 29.0866 157.123 29.5599 157.003 30.0933C156.896 30.6266 156.656 31.1199 156.283 31.5733C155.909 32.0399 155.369 32.4333 154.663 32.7533C153.956 33.0733 153.009 33.2333 151.823 33.2333C151.316 33.2333 150.796 33.1666 150.263 33.0333C149.743 32.9133 149.263 32.7199 148.823 32.4533C148.396 32.1866 148.036 31.8399 147.743 31.4133C147.463 30.9999 147.303 30.4999 147.263 29.9133H150.083C150.216 30.4466 150.476 30.8133 150.863 31.0133C151.249 31.2266 151.696 31.3333 152.203 31.3333C153.003 31.3333 153.583 31.0933 153.943 30.6133C154.316 30.1333 154.496 29.5266 154.483 28.7933V27.4333H154.443C154.136 27.9799 153.696 28.3866 153.123 28.6533C152.563 28.9066 151.969 29.0333 151.343 29.0333C150.569 29.0333 149.903 28.8999 149.343 28.6333C148.783 28.3533 148.323 27.9799 147.963 27.5133C147.603 27.0333 147.336 26.4799 147.163 25.8533C147.003 25.2133 146.923 24.5399 146.923 23.8333C146.923 23.1666 147.016 22.5266 147.203 21.9133C147.403 21.2866 147.689 20.7399 148.063 20.2733C148.436 19.7933 148.896 19.4133 149.443 19.1333C150.003 18.8533 150.643 18.7133 151.363 18.7133C152.043 18.7133 152.636 18.8399 153.143 19.0933C153.663 19.3466 154.096 19.7733 154.443 20.3733H154.483V18.9933H157.183V28.6733ZM166.429 23.0533C166.296 22.3333 166.056 21.7866 165.709 21.4133C165.376 21.0399 164.863 20.8533 164.169 20.8533C163.716 20.8533 163.336 20.9333 163.029 21.0933C162.736 21.2399 162.496 21.4266 162.309 21.6533C162.136 21.8799 162.009 22.1199 161.929 22.3733C161.863 22.6266 161.823 22.8533 161.809 23.0533H166.429ZM161.809 24.8533C161.849 25.7733 162.083 26.4399 162.509 26.8533C162.936 27.2666 163.549 27.4733 164.349 27.4733C164.923 27.4733 165.416 27.3333 165.829 27.0533C166.243 26.7599 166.496 26.4533 166.589 26.1333H169.089C168.689 27.3733 168.076 28.2599 167.249 28.7933C166.423 29.3266 165.423 29.5933 164.249 29.5933C163.436 29.5933 162.703 29.4666 162.049 29.2133C161.396 28.9466 160.843 28.5733 160.389 28.0933C159.936 27.6133 159.583 27.0399 159.329 26.3733C159.089 25.7066 158.969 24.9733 158.969 24.1733C158.969 23.3999 159.096 22.6799 159.349 22.0133C159.603 21.3466 159.963 20.7733 160.429 20.2933C160.896 19.7999 161.449 19.4133 162.089 19.1333C162.743 18.8533 163.463 18.7133 164.249 18.7133C165.129 18.7133 165.896 18.8866 166.549 19.2333C167.203 19.5666 167.736 20.0199 168.149 20.5933C168.576 21.1666 168.883 21.8199 169.069 22.5533C169.256 23.2866 169.323 24.0533 169.269 24.8533H161.809ZM170.954 18.9933H173.654V20.9133H173.694C173.827 20.5933 174.007 20.2999 174.234 20.0333C174.46 19.7533 174.72 19.5199 175.014 19.3333C175.307 19.1333 175.62 18.9799 175.954 18.8733C176.287 18.7666 176.634 18.7133 176.994 18.7133C177.18 18.7133 177.387 18.7466 177.614 18.8133V21.4533C177.48 21.4266 177.32 21.4066 177.134 21.3933C176.947 21.3666 176.767 21.3533 176.594 21.3533C176.074 21.3533 175.634 21.4399 175.274 21.6133C174.914 21.7866 174.62 22.0266 174.394 22.3333C174.18 22.6266 174.027 22.9733 173.934 23.3733C173.84 23.7733 173.794 24.2066 173.794 24.6733V29.3333H170.954V18.9933Z" fill="white"/>
<path d="M22.0032 10.8608C19.135 10.8608 16.4412 11.9355 14.4145 13.8826C12.3877 15.8297 11.2692 18.4176 11.2692 21.1732C11.2692 23.9287 12.3877 26.5166 14.4145 28.4638C15.8922 29.8834 16.8004 31.6975 17.0569 33.6594C16.5746 33.827 16.2257 34.2657 16.2257 34.7882C16.2257 35.4537 16.785 35.991 17.4777 35.991H26.5237C27.2163 35.991 27.7756 35.4537 27.7756 34.7882C27.7756 34.2657 27.4267 33.827 26.9444 33.6594C27.2009 31.6975 28.1091 29.8834 29.5869 28.4638C31.6136 26.5166 32.7322 23.9287 32.7322 21.1732C32.7322 18.4176 31.6136 15.8297 29.5869 13.8826C27.5601 11.9305 24.8663 10.8608 22.0032 10.8608ZM28.5761 27.4828C26.8469 29.144 25.7899 31.2735 25.518 33.5756H18.4885C18.2114 31.2735 17.1596 29.144 15.4304 27.4828C13.6756 25.797 12.7059 23.5541 12.7059 21.1682C12.7059 18.7824 13.6705 16.5395 15.4304 14.8537C17.1852 13.1678 19.5198 12.2361 22.0032 12.2361C24.4866 12.2361 26.8213 13.1629 28.5761 14.8537C30.3309 16.5395 31.3006 18.7824 31.3006 21.1682C31.3006 23.5541 30.3309 25.797 28.5761 27.4828Z" fill="white"/>
<path d="M25.8053 36.7353H18.196C17.5034 36.7353 16.9441 37.2726 16.9441 37.9381C16.9441 38.6035 17.5034 39.1408 18.196 39.1408H25.8053C26.498 39.1408 27.0573 38.6035 27.0573 37.9381C27.0573 37.2726 26.498 36.7353 25.8053 36.7353Z" fill="white"/>
<path d="M25.0922 39.895H18.9145C18.2218 39.895 17.6625 40.4323 17.6625 41.0977C17.6625 41.7632 18.2218 42.3005 18.9145 42.3005H25.0922C25.7849 42.3005 26.3442 41.7632 26.3442 41.0977C26.3442 40.4323 25.7849 39.895 25.0922 39.895Z" fill="white"/>
<path d="M24.2403 43.1091H19.766C20.9975 44.2971 23.0037 44.2971 24.2403 43.1091Z" fill="white"/>
<path d="M21.8031 7.09479C21.8134 7.17859 21.8801 7.2476 21.9725 7.25746C22.0802 7.27225 22.1828 7.19831 22.1982 7.09479L23.0654 1.1795C23.0808 1.08584 23.0808 0.987253 23.0654 0.888665C22.9833 0.321782 22.4394 -0.0725702 21.8493 0.0112298C21.2592 0.0901003 20.8488 0.612618 20.936 1.1795L21.8031 7.09479Z" fill="white"/>
<path d="M6.55895 7.75043L11.5258 11.344C11.5925 11.3933 11.6951 11.3982 11.7669 11.344C11.8542 11.2799 11.8747 11.1616 11.808 11.0778L8.06747 6.30611C8.01103 6.23217 7.93406 6.15823 7.8571 6.104C7.37991 5.75894 6.70775 5.8526 6.34858 6.30611C5.98941 6.75961 6.0869 7.4103 6.55895 7.75043Z" fill="white"/>
<path d="M7.55427 21.1634C7.56966 21.0598 7.4927 20.9612 7.38495 20.9465L1.22774 20.1134C1.13025 20.0986 1.02763 20.0986 0.925008 20.1134C0.334943 20.1923 -0.0755381 20.7148 0.011689 21.2817C0.0937851 21.8485 0.637672 22.2429 1.22774 22.1591L7.38495 21.326C7.47217 21.3162 7.54401 21.2521 7.55427 21.1634Z" fill="white"/>
<path d="M32.4807 11.344L37.4475 7.75047C37.5245 7.69625 37.6014 7.62231 37.6579 7.54837C38.017 7.08993 37.9196 6.44418 37.4475 6.09912C36.9703 5.75406 36.2982 5.84772 35.939 6.30123L32.1985 11.0729C32.1472 11.137 32.142 11.2356 32.1985 11.3046C32.2652 11.3884 32.3883 11.4081 32.4807 11.344Z" fill="white"/>
<path d="M43.9894 20.9957C43.9073 20.4288 43.3634 20.0345 42.7734 20.1183L36.6162 20.9514C36.5289 20.9612 36.4571 21.0253 36.4468 21.114C36.4315 21.2175 36.5084 21.3161 36.6162 21.3309L42.7734 22.164C42.8709 22.1788 42.9735 22.1788 43.0761 22.164C43.661 22.0851 44.0715 21.5577 43.9894 20.9957Z" fill="white"/>
<path d="M27.6883 8.19891L28.8992 6.47855C28.9403 6.42433 28.971 6.35532 28.9813 6.2863C29.0378 6.00533 28.8479 5.72928 28.5503 5.67506C28.2578 5.62083 27.9705 5.80322 27.9141 6.08913L27.5036 8.1299C27.4985 8.16441 27.5138 8.20384 27.5446 8.22849C27.5959 8.25807 27.6575 8.24328 27.6883 8.19891Z" fill="white"/>
<path d="M16.3177 8.19901C16.3383 8.22858 16.3793 8.2483 16.4204 8.23844C16.4768 8.22858 16.5127 8.17929 16.5025 8.12507L16.092 6.08429C16.0766 6.02021 16.0509 5.9512 16.0099 5.89204C15.8406 5.65543 15.5019 5.59135 15.2556 5.75402C15.0093 5.91669 14.9426 6.24203 15.112 6.47864L16.3177 8.19901Z" fill="white"/>
<path d="M6.74351 14.5136C6.68707 14.4741 6.61524 14.4446 6.5434 14.4347C6.25094 14.3805 5.9636 14.5629 5.90716 14.8488C5.85072 15.1297 6.04057 15.4058 6.33816 15.46L8.4624 15.8544C8.49832 15.8593 8.53937 15.8445 8.56502 15.8149C8.59581 15.7706 8.58555 15.7114 8.53937 15.6818L6.74351 14.5136Z" fill="white"/>
<path d="M8.46242 26.4231L6.33818 26.8175C6.27148 26.8323 6.19964 26.8569 6.13807 26.8964C5.89178 27.059 5.82508 27.3844 5.9944 27.621C6.16373 27.8576 6.50237 27.9217 6.74866 27.759L8.53938 26.5957C8.57017 26.5759 8.59069 26.5365 8.58043 26.4971C8.57017 26.4478 8.51373 26.4133 8.46242 26.4231Z" fill="white"/>
<path d="M37.2628 14.5136L35.4721 15.6769C35.4413 15.6966 35.4208 15.7361 35.4311 15.7755C35.4413 15.8297 35.4926 15.8642 35.5491 15.8544L37.6733 15.46C37.74 15.4452 37.8118 15.4206 37.8734 15.3812C38.1197 15.2185 38.1864 14.8932 38.0171 14.6565C37.8478 14.4199 37.5091 14.3509 37.2628 14.5136Z" fill="white"/>
<path d="M37.6682 26.8225L35.5439 26.4282C35.508 26.4233 35.467 26.438 35.4413 26.4676C35.4105 26.512 35.4208 26.5711 35.467 26.6007L37.2577 27.7641C37.3141 27.8035 37.386 27.8331 37.4578 27.8429C37.7503 27.8971 38.0376 27.7098 38.094 27.4289C38.1556 27.1479 37.9606 26.8768 37.6682 26.8225Z" fill="white"/>
</svg>
