<svg width="110" height="104" viewBox="0 0 110 104" fill="none" xmlns="http://www.w3.org/2000/svg">
<g opacity="0.04">
<g clip-path="url(#clip0_18449_83001)">
<path d="M115.492 55.4772L82.0592 42.4756C81.6847 42.3371 81.2916 42.2556 80.8929 42.2337L97.1868 25.9399C97.9217 25.2026 98.3345 24.204 98.3345 23.1629C98.3345 22.1219 97.9217 21.1233 97.1868 20.386L74.9418 -1.88258C74.2046 -2.61696 73.2064 -3.0293 72.1658 -3.0293C71.1253 -3.0293 70.1271 -2.61696 69.3899 -1.88258L59.6372 7.87209L58.5536 6.95169C57.3806 5.89692 55.9301 5.20009 54.3737 4.94358C52.8172 4.68708 51.2198 4.88162 49.7704 5.50422C42.4592 8.19947 34.8042 9.84939 27.0318 10.4052C26.6002 9.33043 25.8537 8.41137 24.8902 7.7687C23.9267 7.12603 22.7914 6.78981 21.6333 6.80419H3.93333C2.89015 6.80419 1.88969 7.21859 1.15205 7.95624C0.414404 8.69388 0 9.69434 0 10.7375L0 40.2375C0 41.2807 0.414404 42.2812 1.15205 43.0188C1.88969 43.7565 2.89015 44.1709 3.93333 44.1709H18.6165C19.9231 44.1687 21.1921 43.7328 22.2243 42.9316C23.2565 42.1304 23.9936 41.0092 24.3198 39.7439C25.1242 40.3339 25.9049 40.8865 26.729 41.3979C26.4987 42.0871 26.464 42.8267 26.6285 43.5346C26.7931 44.2424 27.1505 44.8908 27.6612 45.4079L43.2667 61.0016V65.8101C43.2667 66.8533 43.6811 67.8537 44.4187 68.5914C45.1564 69.329 46.1568 69.7434 47.2 69.7434V91.9274C46.6043 92.2697 46.1091 92.7626 45.7639 93.3567C45.4187 93.9507 45.2357 94.625 45.2333 95.3121V99.7941C44.6374 100.137 44.1419 100.63 43.7967 101.224C43.4515 101.819 43.2687 102.493 43.2667 103.181V111.047C43.2667 112.091 43.6811 113.091 44.4187 113.829C45.1564 114.566 46.1568 114.981 47.2 114.981H114.067C115.11 114.981 116.11 114.566 116.848 113.829C117.586 113.091 118 112.091 118 111.047V103.181C117.998 102.493 117.815 101.819 117.47 101.224C117.125 100.63 116.629 100.137 116.033 99.7941V95.3121C116.031 94.625 115.848 93.9507 115.503 93.3567C115.158 92.7626 114.662 92.2697 114.067 91.9274V69.7434C115.11 69.7434 116.11 69.329 116.848 68.5914C117.586 67.8537 118 66.8533 118 65.8101V59.147C118.004 58.3531 117.766 57.5769 117.318 56.9214C116.87 56.2659 116.233 55.7622 115.492 55.4772ZM90.2346 27.3283C89.1313 26.22 88.5119 24.7199 88.5119 23.156C88.5119 21.5922 89.1313 20.092 90.2346 18.9838L94.4 23.157L90.2346 27.3283ZM72.1629 0.900257L76.3362 5.07549C75.2282 6.17869 73.7284 6.79806 72.1649 6.79806C70.6013 6.79806 69.1015 6.17869 67.9936 5.07549L72.1629 0.900257ZM51.3025 9.13076C52.0741 8.79972 52.9247 8.69786 53.7526 8.83736C54.5806 8.97686 55.3508 9.35182 55.9713 9.91742L68.7114 20.6889C69.3689 21.3137 69.7521 22.1736 69.7771 23.0802C69.8022 23.9869 69.4671 24.8666 68.8451 25.5269C68.2069 26.1191 67.3701 26.4509 66.4995 26.4571C65.6289 26.4633 64.7874 26.1434 64.1409 25.5603C64.1409 25.5603 57.7079 20.0104 56.4433 18.8874C55.3167 17.8928 53.8529 17.3656 52.3507 17.4135C50.8486 17.4614 49.4214 18.0807 48.3603 19.145L29.205 38.3004C27.7124 37.3831 26.2803 36.3708 24.9177 35.2697L27.3839 14.3228C35.5611 13.7248 43.6132 11.9769 51.3025 9.13076ZM67.9877 38.4577C66.5042 39.8909 64.5173 40.6842 62.4546 40.6666C60.392 40.6491 58.4188 39.8221 56.96 38.3638C55.5012 36.9055 54.6735 34.9326 54.6552 32.87C54.6369 30.8074 55.4295 28.8201 56.8622 27.3362C57.3908 26.8212 57.9925 26.3872 58.648 26.048C60.3039 27.4699 61.5331 28.5083 61.537 28.5083C62.6097 29.4788 63.9464 30.1091 65.3777 30.3191C66.809 30.5292 68.2704 30.3097 69.5767 29.6883C70.2298 31.1393 70.4275 32.7541 70.1438 34.3197C69.8601 35.8854 69.1083 37.3282 67.9877 38.4577ZM18.6243 40.2415H3.93333V10.7415H21.6333C21.9103 10.7416 22.184 10.8003 22.4367 10.9136C22.6894 11.0268 22.9153 11.1922 23.0997 11.3988C23.284 11.6055 23.4227 11.8487 23.5065 12.1126C23.5904 12.3766 23.6175 12.6552 23.5862 12.9304L20.5772 38.497C20.5225 38.9782 20.2922 39.4222 19.9304 39.7441C19.5686 40.066 19.1007 40.2431 18.6165 40.2415H18.6243ZM34.6133 38.4577C35.7194 39.5641 36.3408 41.0645 36.3408 42.629C36.3408 44.1935 35.7194 45.6939 34.6133 46.8003L30.4381 42.627L34.6133 38.4577ZM45.7742 55.4753C45.2219 55.7043 44.7294 56.0568 44.3346 56.5058L37.3942 49.5792C39.2327 47.733 40.265 45.2335 40.265 42.628C40.265 40.0225 39.2327 37.5231 37.3942 35.6768L51.1451 21.9259C51.4967 21.5702 51.9707 21.3618 52.4705 21.3432C52.9703 21.3246 53.4584 21.4971 53.8355 21.8256C54.3921 22.3232 54.9644 22.8306 55.5367 23.336C53.6769 24.6634 52.2425 26.5023 51.4077 28.6293C50.5729 30.7562 50.3736 33.0798 50.834 35.3179C51.2943 37.556 52.3946 39.6122 54.0011 41.237C55.6077 42.8618 57.6514 43.9852 59.8841 44.4708C62.1168 44.9565 64.4425 44.7834 66.5788 43.9727C68.715 43.1619 70.57 41.7484 71.9184 39.9038C73.2667 38.0591 74.0505 35.8626 74.1746 33.5811C74.2986 31.2995 73.7576 29.031 72.6172 27.051C73.3798 25.812 73.7589 24.375 73.7067 22.921C73.6755 21.9354 73.4443 20.9664 73.0271 20.0728C72.6099 19.1793 72.0155 18.3799 71.2799 17.7231L62.6462 10.4307L65.2029 7.87406C67.0485 9.71524 69.549 10.7492 72.156 10.7492C74.763 10.7492 77.2635 9.71524 79.1092 7.87406L87.4478 16.2186C85.6081 18.065 84.5751 20.5653 84.5751 23.1718C84.5751 25.7783 85.6081 28.2785 87.4478 30.1249L72.4599 45.1149L45.7742 55.4753ZM55.0667 69.7434V91.3768H51.1333V69.7434H55.0667ZM112.1 99.2434H104.233V95.3101H112.1V99.2434ZM102.267 91.9235C101.671 92.2658 101.176 92.7587 100.831 93.3527C100.485 93.9468 100.302 94.6211 100.3 95.3081V99.2415H88.5V95.3081C88.4976 94.6211 88.3146 93.9468 87.9694 93.3527C87.6243 92.7587 87.129 92.2658 86.5333 91.9235V69.7434H102.267V91.9235ZM76.7 95.3121H84.5667V99.2454H76.7V95.3121ZM82.6 91.3787H78.6667V69.7454H82.6V91.3787ZM74.7333 91.9274C74.1376 92.2697 73.6424 92.7626 73.2972 93.3567C72.952 93.9507 72.7691 94.625 72.7667 95.3121V99.2454H60.9667V95.3121C60.9642 94.625 60.7813 93.9507 60.4361 93.3567C60.0909 92.7626 59.5957 92.2697 59 91.9274V69.7434H74.7333V91.9274ZM49.1667 95.3121H57.0333V99.2454H49.1667V95.3121ZM114.067 111.045H47.2V103.179H114.067V111.045ZM110.133 91.3787H106.2V69.7454H110.133V91.3787ZM47.2 65.8121V59.147L80.6333 46.1454L114.067 59.147V65.8121H47.2Z" fill="#12486B"/>
<path d="M84.5667 55.9746H76.7001C76.1785 55.9746 75.6782 56.1818 75.3094 56.5506C74.9406 56.9195 74.7334 57.4197 74.7334 57.9413C74.7334 58.4629 74.9406 58.9631 75.3094 59.3319C75.6782 59.7007 76.1785 59.9079 76.7001 59.9079H84.5667C85.0883 59.9079 85.5886 59.7007 85.9574 59.3319C86.3262 58.9631 86.5334 58.4629 86.5334 57.9413C86.5334 57.4197 86.3262 56.9195 85.9574 56.5506C85.5886 56.1818 85.0883 55.9746 84.5667 55.9746Z" fill="#12486B"/>
</g>
</g>
<defs>
<clipPath id="clip0_18449_83001">
<rect width="110" height="104" rx="12" fill="white"/>
</clipPath>
</defs>
</svg>
