<svg width="150" height="96" viewBox="0 0 150 96" fill="none" xmlns="http://www.w3.org/2000/svg">
<path d="M36.9879 85.6375C38.3379 85.6605 39.6721 85.6121 40.9866 85.4962C45.1142 85.132 49.2348 86.0711 52.8263 88.1377C59.6124 92.0426 67.4826 94.2763 75.8741 94.2763C87.9497 94.2763 98.9441 89.6506 107.184 82.0748C110.981 78.5838 115.935 76.6683 121.093 76.704C121.305 76.7056 121.518 76.7045 121.732 76.7014C137.474 76.4657 150.172 63.4192 149.998 47.6765C149.825 31.972 137.04 19.2947 121.294 19.2947C121.204 19.2947 121.113 19.2952 121.023 19.296C115.889 19.3439 110.964 17.3994 107.184 13.9247C98.9441 6.34913 87.9497 1.72314 75.8741 1.72314C67.4823 1.72314 59.6124 3.95685 52.8263 7.86181C49.2839 9.90019 45.2208 10.8954 41.1512 10.5182C39.9965 10.4111 38.8269 10.3566 37.6443 10.3566C17.0597 10.3566 0.334232 26.8778 0.00488527 47.3834C-0.327048 68.0727 16.2983 85.2833 36.9879 85.6375Z" fill="#F8EADA"/>
<path d="M79.2523 87.2825C78.9923 89.5057 80.5924 91.31 82.813 91.3019L118.408 91.0992C120.626 91.0858 122.654 89.256 122.914 87.0328L131.382 14.5185C131.642 12.2953 130.042 10.491 127.822 10.4991L92.2262 10.7018C90.0082 10.7152 87.9806 12.5437 87.7206 14.7682L79.2523 87.2825Z" fill="#FDC47F"/>
<path d="M120.511 84.0822L82.5493 84.2997C82.432 84.3003 82.316 84.2759 82.2088 84.2283C82.1016 84.1806 82.0058 84.1106 81.9276 84.023C81.8495 83.9355 81.7907 83.8323 81.7554 83.7203C81.72 83.6083 81.7088 83.49 81.7224 83.3734L89.6024 15.9042C89.626 15.7032 89.7221 15.5177 89.8726 15.3827C90.0232 15.2477 90.2179 15.1725 90.4199 15.1712L128.382 14.9551C128.499 14.9545 128.615 14.9788 128.722 15.0264C128.829 15.074 128.925 15.1438 129.003 15.2313C129.081 15.3187 129.14 15.4217 129.175 15.5336C129.211 15.6454 129.222 15.7635 129.209 15.8801L121.329 83.3492C121.305 83.5502 121.209 83.7357 121.059 83.8707C120.908 84.0057 120.713 84.0809 120.511 84.0822Z" fill="white"/>
<path d="M105.781 13.667C105.665 13.6546 105.558 13.5998 105.48 13.513C105.402 13.4263 105.359 13.3138 105.359 13.1972C105.359 13.0805 105.402 12.968 105.48 12.8813C105.558 12.7946 105.665 12.7397 105.781 12.7273L113.676 12.683C113.74 12.6781 113.805 12.6866 113.866 12.708C113.927 12.7294 113.983 12.7632 114.031 12.8073C114.078 12.8514 114.116 12.9049 114.142 12.9643C114.168 13.0238 114.182 13.088 114.182 13.1529C114.182 13.2177 114.168 13.2819 114.142 13.3414C114.116 13.4008 114.078 13.4543 114.031 13.4984C113.983 13.5425 113.927 13.5763 113.866 13.5977C113.805 13.6191 113.74 13.6276 113.676 13.6227L105.781 13.6684V13.667Z" fill="#472F11"/>
<path d="M103.234 87.5931C103.376 86.3755 102.506 85.3927 101.291 85.3994C100.685 85.4183 100.106 85.6516 99.6555 86.0579C99.2053 86.4642 98.9134 87.0172 98.8316 87.6186C98.6895 88.8363 99.5593 89.819 100.775 89.8123C101.38 89.7934 101.96 89.5601 102.41 89.1538C102.86 88.7475 103.152 88.1946 103.234 87.5931Z" stroke="#E9AE67" stroke-width="2.45119" stroke-linecap="round" stroke-linejoin="round"/>
<path d="M81.5625 91.0991C81.9662 91.237 82.3903 91.3055 82.8169 91.3018L118.412 91.0991C120.63 91.0857 122.658 89.2559 122.918 87.0327L131.386 14.5184C131.579 12.8658 130.743 11.4427 129.391 10.8252C130.559 11.4341 131.687 12.1156 132.77 12.8658C134.498 14.0955 135.002 15.3548 134.799 17.0799L126.469 88.4128C126.209 90.636 124.182 92.4658 121.964 92.4792L86.9954 92.6793C86.4272 92.6793 85.9233 92.6981 85.1567 92.3987C84.5859 92.1772 81.5625 91.0991 81.5625 91.0991Z" fill="#472F11"/>
<path d="M73.1375 87.2825C73.3962 89.5057 71.7974 91.31 69.5755 91.3019L33.9814 91.0992C31.7622 91.0858 29.7359 89.256 29.4759 87.0328L21.0062 14.5185C20.7462 12.2953 22.3463 10.491 24.567 10.4991L60.169 10.7045C62.387 10.7179 64.4146 12.5464 64.6746 14.7709L73.1375 87.2825Z" fill="#FDC47F"/>
<path d="M31.8788 84.0822L69.8395 84.2997C69.9567 84.3003 70.0728 84.2759 70.18 84.2283C70.2871 84.1806 70.383 84.1106 70.4611 84.023C70.5393 83.9355 70.598 83.8323 70.6334 83.7203C70.6688 83.6083 70.68 83.49 70.6663 83.3734L62.7863 15.9042C62.7628 15.7032 62.6667 15.5177 62.5161 15.3827C62.3656 15.2477 62.1709 15.1725 61.9688 15.1712L24.0081 14.9551C23.891 14.9545 23.7751 14.9788 23.668 15.0264C23.5609 15.074 23.4652 15.1438 23.387 15.2313C23.3089 15.3187 23.2501 15.4217 23.2147 15.5336C23.1792 15.6454 23.1678 15.7635 23.1813 15.8801L31.0613 83.3492C31.0848 83.5502 31.1809 83.7357 31.3315 83.8707C31.482 84.0057 31.6767 84.0809 31.8788 84.0822Z" fill="white"/>
<path d="M46.6148 13.667L38.7201 13.6214C38.6018 13.6124 38.4913 13.559 38.4106 13.4719C38.33 13.3848 38.2852 13.2703 38.2852 13.1515C38.2852 13.0327 38.33 12.9183 38.4106 12.8311C38.4913 12.744 38.6018 12.6906 38.7201 12.6816L46.6161 12.7259C46.7319 12.7384 46.839 12.7932 46.9168 12.88C46.9946 12.9667 47.0377 13.0792 47.0377 13.1958C47.0377 13.3124 46.9946 13.4249 46.9168 13.5117C46.839 13.5984 46.7319 13.6533 46.6161 13.6657L46.6148 13.667Z" fill="#472F11"/>
<path d="M49.16 87.5931C49.0166 86.3755 49.8864 85.3927 51.1019 85.3994C51.7076 85.4181 52.2871 85.6513 52.7374 86.0576C53.1876 86.4639 53.4795 87.017 53.561 87.6186C53.7031 88.8363 52.8333 89.819 51.6178 89.8123C51.0122 89.7936 50.4329 89.5604 49.9828 89.154C49.5328 88.7477 49.2412 88.1946 49.16 87.5931Z" stroke="#E9AE67" stroke-width="2.45119" stroke-linecap="round" stroke-linejoin="round"/>
<path d="M70.8313 91.0991C70.4276 91.2372 70.0035 91.3057 69.5769 91.3018L33.9829 91.0991C31.7636 91.0857 29.7373 89.2559 29.4773 87.0327L21.0077 14.5184C20.8147 12.8658 21.6509 11.4427 23.0031 10.8252C21.8351 11.4341 20.7063 12.1156 19.6233 12.8658C17.8972 14.0955 17.3933 15.3548 17.5943 17.0799L25.926 88.4101C26.1846 90.6333 28.2122 92.4631 30.4302 92.4765L65.397 92.6793C65.9639 92.6793 66.4691 92.6981 67.2344 92.3987C67.8093 92.1772 70.8313 91.0991 70.8313 91.0991Z" fill="#472F11"/>
<path d="M38.0478 52.7193C39.4783 51.1542 39.1277 48.5002 37.2647 46.7912C35.4017 45.0822 32.7317 44.9655 31.3012 46.5305C29.8706 48.0956 30.2212 50.7497 32.0842 52.4586C33.9473 54.1676 36.6172 54.2843 38.0478 52.7193Z" fill="#F8E5CE"/>
<path d="M35.2846 49.5049C35.3977 49.4037 35.4842 49.2762 35.5365 49.1336C35.5888 48.9911 35.6054 48.8378 35.5848 48.6873V48.6739C35.5848 48.6497 35.5353 48.3692 35.5312 48.3437C35.4227 47.7315 34.8612 47.2334 34.2635 47.2334C33.6658 47.2334 33.2798 47.7315 33.3884 48.345L33.4487 48.6873C33.537 49.0238 33.7472 49.3152 34.0383 49.5049C33.6363 49.5345 32.3189 50.0567 32.8684 51.375H37.1193C37.1193 50.0204 35.6894 49.5318 35.2846 49.5049Z" fill="white"/>
<path d="M111 53.4595C110.969 53.6474 110.979 53.8399 111.031 54.0233C111.082 54.2067 111.173 54.3765 111.297 54.5206C111.422 54.6647 111.576 54.7796 111.75 54.857C111.924 54.9344 112.113 54.9725 112.303 54.9685L120.594 54.9886C121.01 54.9762 121.407 54.8185 121.719 54.5429C122.03 54.2672 122.235 53.891 122.299 53.4796L123.394 45.1561C123.425 44.9678 123.414 44.775 123.362 44.5914C123.31 44.4078 123.218 44.2379 123.094 44.0938C122.969 43.9497 122.814 43.835 122.639 43.7578C122.465 43.6806 122.276 43.6428 122.086 43.6471L113.794 43.627C113.381 43.6402 112.985 43.7972 112.675 44.0712C112.364 44.3451 112.159 44.7187 112.094 45.1279L111 53.4595Z" fill="#FBC27D"/>
<path d="M110.998 53.4595C110.967 53.6474 110.977 53.8399 111.029 54.0233C111.08 54.2067 111.171 54.3765 111.296 54.5206C111.42 54.6647 111.574 54.7796 111.748 54.857C111.922 54.9344 112.111 54.9725 112.301 54.9685L120.592 54.9886C121.008 54.9762 121.406 54.8185 121.717 54.5429C122.028 54.2672 122.233 53.891 122.297 53.4796L123.392 45.1561C123.423 44.9678 123.412 44.775 123.36 44.5914C123.308 44.4078 123.217 44.2379 123.092 44.0938C122.967 43.9497 122.812 43.835 122.637 43.7578C122.463 43.6806 122.274 43.6428 122.084 43.6471L113.792 43.627C113.379 43.6402 112.983 43.7972 112.673 44.0712C112.362 44.3451 112.157 44.7187 112.092 45.1279L110.998 53.4595Z" fill="#F04E39"/>
<path d="M30.1272 54.6686C30.0958 54.8565 30.1062 55.049 30.1576 55.2324C30.209 55.4159 30.3001 55.5857 30.4245 55.7298C30.5489 55.8739 30.7035 55.9887 30.8772 56.0661C31.051 56.1435 31.2397 56.1816 31.4298 56.1776L39.7215 56.0661C40.1369 56.0537 40.5348 55.896 40.8462 55.6204C41.1576 55.3447 41.3628 54.9685 41.4262 54.5571L40.4758 46.2537C40.5068 46.0654 40.496 45.8726 40.4441 45.689C40.3922 45.5054 40.3006 45.3355 40.1757 45.1915C40.0508 45.0474 39.8957 44.9326 39.7215 44.8554C39.5473 44.7782 39.3583 44.7404 39.1678 44.7447L30.8764 44.7246C30.463 44.7378 30.0671 44.8949 29.7568 45.1688C29.4464 45.4427 29.241 45.8164 29.1758 46.2255L30.1272 54.6686Z" fill="#F04E39"/>
<g style="mix-blend-mode:screen">
<path d="M115.714 47.252L116.159 47.7648L114.827 48.9435H121.555L121.459 49.6685H114.732L115.755 50.8472L115.176 51.36L113.395 49.306L115.714 47.252Z" fill="white"/>
</g>
<g style="mix-blend-mode:screen">
<path d="M36.3209 48.3506L35.8759 48.8634L37.208 50.0421H30.4805L30.5757 50.7671H37.3032L36.2806 51.9458L36.8596 52.4587L38.6406 50.4046L36.3209 48.3506Z" fill="white"/>
</g>
<path d="M101.798 67.714C101.606 67.7227 101.414 67.6886 101.236 67.6142C101.059 67.5397 100.9 67.4269 100.771 67.2837C100.642 67.1404 100.546 66.9704 100.491 66.7858C100.435 66.6011 100.421 66.4065 100.45 66.2158L104.568 29.7076C104.623 29.2909 104.823 28.9069 105.132 28.6227C105.441 28.3386 105.84 28.1723 106.259 28.153C106.452 28.1434 106.644 28.1769 106.823 28.2509C107.001 28.325 107.16 28.4378 107.29 28.5811C107.419 28.7245 107.515 28.8949 107.571 29.0799C107.626 29.265 107.64 29.4601 107.612 29.6512L103.493 66.1594C103.438 66.5767 103.238 66.9612 102.928 67.2454C102.618 67.5297 102.218 67.6956 101.798 67.714Z" fill="#F8E5CE"/>
<g style="mix-blend-mode:multiply">
<path d="M45.3184 64.0562C54.1458 64.6965 68.153 63.9447 70.3401 63.3339C70.0854 61.1496 69.7022 57.8806 69.7022 57.8806L45.3184 64.0562ZM103.823 63.0708C94.9959 63.7111 84.961 63.6534 82.0569 63.2654C82.3115 61.0812 83.0379 54.8613 83.0379 54.8613L103.823 63.0708Z" fill="#FFF4E7"/>
</g>
<path d="M103.823 63.0722C94.7826 59.9025 85.7796 57.9371 76.1574 58.1116C65.5703 58.3049 55.8892 63.4239 45.3181 64.0589C43.9981 53.7015 41.5189 43.5508 40.1211 33.2054C52.2828 32.6899 63.9755 28.3925 76.148 28.2381C86.7552 28.1039 97.1466 30.3539 107.171 33.6672C106.055 43.4684 104.939 53.2701 103.823 63.0722Z" fill="#FBF9F6"/>
<path d="M40.1211 33.2044C41.5189 43.5498 43.9981 53.7005 45.3181 64.0579C55.8891 63.4229 65.5663 58.304 76.1574 58.1106C85.7796 57.9361 94.7853 59.9015 103.823 63.0712C104.939 53.2682 106.056 43.4679 107.174 33.6703C97.1493 30.357 86.7579 28.1056 76.1507 28.2412C63.9742 28.3915 52.2828 32.6889 40.1211 33.2044ZM101.112 32.5815C100.932 35.535 102.912 38.2388 105.669 39.1907C105.027 44.8408 104.385 50.4914 103.741 56.1425C100.875 55.1383 98.5055 57.4743 98.2817 60.2439C91.0342 58.1898 83.709 57.0447 76.156 57.195C67.673 57.3655 59.7139 60.7003 51.5082 62.4912C51.129 59.3457 48.3589 57.2273 45.2686 57.293C44.2554 51.5203 43.0882 45.7757 42.0522 40.0069C45.294 39.8163 47.394 36.7688 47.0603 33.6582C56.7093 32.1653 66.3342 29.2964 76.1413 29.1474C84.615 29.0171 92.9506 30.4308 101.112 32.5815Z" fill="#FBC27D"/>
<path d="M64.6404 44.435C64.3377 38.6984 69.1773 32.9312 75.0396 32.8397C80.725 32.7542 84.8151 37.9502 84.6405 43.4048C84.4697 48.7118 80.4906 53.2621 75.0396 53.278C69.7961 53.2975 64.9346 50.0215 64.6404 44.435Z" fill="#FBC27D"/>
<path d="M73.5976 51.2644V49.4772C70.9487 49.174 69.9593 47.7378 69.8955 45.3442H72.1296C72.1774 46.924 72.9274 47.7059 74.6987 47.7059C76.2147 47.7059 76.9327 46.9719 76.9327 46.0463C76.9327 45.6155 76.7891 45.3282 76.5178 45.0889C75.9913 44.658 75.0498 44.4665 74.0444 44.2751C73.1508 44.0836 72.2413 43.8602 71.5072 43.3974C70.7732 42.9506 70.3104 42.2006 70.3104 40.9559C70.3104 39.3123 71.3796 37.9878 73.6455 37.7485V35.8655H75.6402V37.8282C77.6987 38.1634 78.6721 39.4559 78.7359 41.3868H76.5657C76.4859 40.0782 75.8317 39.4719 74.3157 39.4719C72.9434 39.4719 72.4168 40.1102 72.4168 40.924C72.4168 41.307 72.5444 41.6102 72.8157 41.8176C73.3264 42.2165 74.22 42.3921 75.2093 42.5995C76.103 42.791 77.0444 43.0304 77.7944 43.4931C78.5285 43.9878 79.0232 44.7538 79.0232 46.0304C79.0391 47.7378 77.8423 49.158 75.6242 49.4772V51.2644H73.5976Z" fill="#F04E39"/>
</svg>
