<svg width="96" height="96" viewBox="0 0 96 96" fill="none" xmlns="http://www.w3.org/2000/svg">
<path d="M0 48C0 21.4903 21.4903 0 48 0C74.5097 0 96 21.4903 96 48C96 74.5097 74.5097 96 48 96C21.4903 96 0 74.5097 0 48Z" fill="#F8F7FA"/>
<path d="M32 36C32 34.9391 32.4214 33.9217 33.1716 33.1716C33.9217 32.4214 34.9391 32 36 32H60C61.0609 32 62.0783 32.4214 62.8284 33.1716C63.5786 33.9217 64 34.9391 64 36V60C64 61.0609 63.5786 62.0783 62.8284 62.8284C62.0783 63.5786 61.0609 64 60 64H36C34.9391 64 33.9217 63.5786 33.1716 62.8284C32.4214 62.0783 32 61.0609 32 60V36Z" stroke="#78787A" stroke-width="3" stroke-linecap="round" stroke-linejoin="round"/>
<path d="M32 50H38L44 56H52L58 50H64" stroke="#78787A" stroke-width="3" stroke-linecap="round" stroke-linejoin="round"/>
</svg>
