<svg width="190" height="165" viewBox="0 0 190 165" fill="none" xmlns="http://www.w3.org/2000/svg">
<path d="M47.0275 133.501C48.7312 133.53 50.415 133.469 52.074 133.323C57.2831 132.863 62.4834 134.049 67.016 136.657C75.5803 141.585 85.5127 144.404 96.103 144.404C111.343 144.404 125.218 138.566 135.617 129.005C140.409 124.599 146.66 122.182 153.17 122.227C153.438 122.229 153.707 122.227 153.977 122.223C173.844 121.926 189.869 105.461 189.65 85.5922C189.431 65.7722 173.296 49.7726 153.425 49.7726C153.31 49.7726 153.196 49.7733 153.082 49.7743C146.603 49.8347 140.387 47.3806 135.617 42.9953C125.218 33.4345 111.343 27.5962 96.103 27.5962C85.5124 27.5962 75.5803 30.4153 67.016 35.3436C62.5454 37.9161 57.4176 39.1722 52.2817 38.6962C50.8245 38.561 49.3483 38.4921 47.8558 38.4921C21.8776 38.4921 0.769466 59.3429 0.353822 85.2223C-0.0650882 111.333 20.9166 133.054 47.0275 133.501Z" fill="#F8EADA"/>
<rect x="45.4531" y="8.66602" width="93.7547" height="133.935" fill="white"/>
<path d="M49.2064 6.93997C49.137 7.4069 49.4167 8.11781 48.9961 8.41227C48.302 8.89813 45.879 8.33234 44.9998 8.41227C44.9914 8.41227 44.9998 8.6226 44.9998 8.6226C45.0524 8.67518 45.2102 8.6226 45.2102 8.6226C45.9715 8.6226 48.4008 8.20615 48.9961 8.6226C49.7028 9.11687 48.9982 10.9152 49.2064 11.7775C49.4146 12.6399 49.0508 14.2152 49.2064 15.1428C49.6586 16.634 51.5642 17.4606 52.5548 15.9673C53.5434 14.4718 52.8956 12.2466 52.782 10.7259C52.6705 11.9121 52.8977 17.4522 50.4536 16.2091C48.0075 14.9661 50.5735 10.5934 49.6271 8.6226C72.1322 8.6226 94.6373 8.6226 117.142 8.6226C117.142 8.6226 117.142 8.51743 117.142 8.41227C110.258 9.03274 103.236 8.12412 96.3199 8.41227C89.4043 8.70042 82.4235 8.26083 75.4974 8.41227C68.5713 8.5637 61.6052 8.29869 54.6749 8.41227C54.6749 7.9222 54.6749 7.43003 54.6749 6.93997C53.8105 3.97013 49.9783 3.8208 49.2064 6.93997ZM54.2543 8.41227C52.7126 8.41227 51.1688 8.41227 49.6271 8.41227C48.281 4.08371 55.5099 4.12157 54.2543 8.41227Z" fill="#2E3F46"/>
<path d="M54.2541 8.41192C55.5097 4.12123 48.2808 4.08337 49.6269 8.41192C51.1686 8.41192 52.7124 8.41192 54.2541 8.41192Z" fill="#F8F8F9"/>
<path d="M48.9953 8.41175C49.4159 8.11729 49.1362 7.40638 49.2056 6.93945C49.111 7.31804 48.8375 7.88383 48.9953 8.41175Z" fill="#8A9398"/>
<path d="M45.4889 8.41927C47.498 8.41927 42.4751 8.49893 44.4841 8.49893C44.4841 16.0511 44.4841 23.6008 44.4841 31.153C44.4841 44.1898 44.4841 57.2243 44.4841 70.2611C44.4841 76.3014 44.4841 82.344 44.4841 88.3843C44.4841 93.1083 44.6599 97.9825 44.4841 102.692C44.3067 107.402 44.9546 112.345 44.4841 117C44.7202 116.855 45.0718 116.921 45.3213 116.762C44.7035 114.024 45.6008 110.592 45.3213 107.7C45.0417 104.807 45.4468 101.6 45.3213 98.6383C45.1957 95.6766 45.3798 92.5694 45.3213 89.5767C45.2627 86.5839 45.3497 83.5197 45.3213 80.515C45.2928 77.5104 45.338 74.4604 45.3213 71.4534C45.3045 68.4464 45.3363 65.3916 45.3213 62.3918C45.3062 59.3919 45.3464 56.3109 45.3213 53.3301C45.2961 50.3493 45.2995 47.2851 45.4887 44.507C45.487 39.6542 45.8168 34.5487 45.4887 29.7222C45.0383 23.1048 45.6025 16.2204 45.4887 9.45278C45.8771 12.0187 45.5456 15.0543 45.6561 17.799C45.9909 17.799 46.3258 17.799 46.6606 17.799C46.5903 16.7069 46.6606 15.5575 46.6606 14.4605C46.6606 12.7126 46.6606 10.9623 46.6606 9.21432C47.044 10.7453 46.7209 12.7484 46.828 14.4605C46.828 15.5575 46.8967 16.7069 46.828 17.799C47.2181 17.799 47.6099 17.799 48 17.799C48 14.699 48 11.599 48 8.49893C46.5133 8.97347 46.3239 8.15765 44.9326 8.49866C43.5413 8.83966 46.5621 7.28895 45.4889 8.41927Z" fill="#404042"/>
<path d="M49.2053 15.1452C49.0496 14.2176 49.4135 12.6423 49.2053 11.7799C48.9971 10.9176 49.7017 9.11927 48.995 8.625C49.2116 10.7409 48.6143 13.1954 49.2053 15.1452Z" fill="#8D969A"/>
<path d="M138.385 13.6702C138.385 13.6618 138.595 13.6702 138.595 13.6702C138.46 12.16 138.866 10.3933 138.385 9.04297C138.385 10.5847 138.385 12.1285 138.385 13.6702Z" fill="#959B9E"/>
<path d="M44.8339 29.7128C44.5205 25.8851 44.7329 21.4301 45.0442 17.7884C44.9054 15.0435 45.3218 12.0075 44.8339 9.44141C44.9769 16.2097 44.2681 23.0948 44.8339 29.7128Z" fill="#7B8A8F"/>
<path d="M46.3068 17.7884C46.412 17.7884 46.5172 17.7884 46.5172 17.7884C46.6034 16.6961 46.5172 15.5466 46.5172 14.4496C46.5172 14.4496 46.3068 14.44 46.3068 14.4496C46.3068 15.5466 46.2185 16.6961 46.3068 17.7884Z" fill="#677276"/>
<path d="M63.2978 14.7225C57.5937 13.7003 52.8571 19.3455 54.933 24.5596C57.0089 29.7736 63.7016 30.251 67.1005 26.5177C70.5015 22.7865 68.4045 15.6374 63.2978 14.7225ZM62.8771 17.2464C62.549 18.6662 62.0274 20.0459 61.6151 21.453C62.6331 21.371 63.5186 21.819 64.5597 21.6633C63.1484 23.6404 61.4679 25.5166 59.9325 27.3422C60.4289 25.9225 60.9905 24.5196 61.6151 23.1356C60.6329 23.1356 59.6528 23.1356 58.6705 23.1356C60.065 21.167 61.3943 19.0889 62.8771 17.2464Z" fill="#F04E39"/>
<path d="M93.1328 46.051C93.7168 46.051 94.3052 46.029 94.8892 46.051C94.3257 45.9705 93.6978 45.9968 93.1328 46.051Z" fill="#FDC47F"/>
<path d="M94.89 46.0508C94.306 46.0288 93.7176 46.0508 93.1336 46.0508C91.6011 46.0508 90.4506 46.4416 89.0382 46.9319C87.6272 47.4237 87.2042 47.8935 85.7786 48.6488C84.353 49.404 85.2766 51.3449 86.5836 50.332C87.8922 49.3191 88.3796 49.0762 89.7642 48.5361C91.1488 47.9945 92.3695 47.8438 93.8654 47.8072C95.3613 47.772 96.6844 48.0633 98.0778 48.5712C99.4712 49.0806 99.8942 49.4318 101.228 50.3979C102.561 51.3624 103.473 49.4494 102.025 48.722C100.578 47.9945 100.284 47.3608 98.8521 46.9187C97.4206 46.4752 96.3931 46.1079 94.89 46.0508Z" fill="#FDC47F"/>
<path d="M93.1339 52.1979C93.6755 52.1203 94.2082 52.1115 94.7439 52.1979C96.6116 52.2989 96.9834 53.3044 98.6636 53.8401C100.344 54.3758 99.817 51.7544 98.2114 51.3651C96.6072 50.9743 95.5197 50.2292 93.7194 50.2951C91.9191 50.361 91.0057 50.9743 89.362 51.4997C87.7183 52.0252 87.6129 54.4915 89.2918 53.7713C90.9721 53.0512 91.2531 52.2696 93.1339 52.1979Z" fill="#FDC47F"/>
<path d="M94.596 54.1003C91.5954 53.3567 90.6236 57.736 93.4148 58.5015C96.2045 59.267 97.2262 54.7516 94.596 54.1003Z" fill="#FDC47F"/>
<path d="M136.914 27.1316C136.914 27.1232 137.124 27.1316 137.124 27.1316C137.177 27.0791 137.124 26.9213 137.124 26.9213C137.124 23.4867 137.124 20.0499 137.124 16.6152C136.813 19.8269 136.601 23.7559 136.914 27.1316Z" fill="#243B44"/>
<path d="M137.123 26.9213C137.489 26.833 138.173 26.8393 138.385 27.1316C138.932 27.8846 138.145 29.5105 138.385 30.4969C138.625 31.4833 138.259 32.9977 138.385 34.0725C138.511 35.1473 138.299 36.3167 138.385 37.4377C138.471 38.5588 138.282 39.8775 138.385 41.0133C138.49 41.0133 138.595 41.0133 138.595 41.0133C138.595 36.3861 138.595 31.7589 138.595 27.1316C142.102 27.1316 145.606 27.1316 149.112 27.1316C149.112 23.6255 149.112 20.1214 149.112 16.6152C146.098 16.6152 143.082 16.6152 140.068 16.6152C139.578 16.6152 139.085 16.6152 138.595 16.6152C138.595 16.6152 138.49 16.6152 138.385 16.6152C137.964 16.6152 137.544 16.6152 137.123 16.6152C137.123 20.0499 137.123 23.4867 137.123 26.9213ZM143.012 19.3495C143.725 19.4736 144.146 21.0826 144.646 21.7115C145.147 22.3404 145.286 24.1176 144.533 24.8664C143.78 25.6131 142.444 25.6404 141.593 24.9758C140.741 24.3111 140.734 22.435 141.187 21.7304C141.641 21.0279 142.072 19.1875 143.012 19.3495Z" fill="#FDC47F"/>
<path d="M62.8765 17.2461C61.3937 19.0886 60.0644 21.1666 58.6699 23.1353C59.6522 23.1353 60.6323 23.1353 61.6145 23.1353C60.9898 24.5192 60.4283 25.9221 59.9319 27.3419C61.4673 25.5162 63.1478 23.6401 64.5591 21.663C63.518 21.8186 62.6325 21.3706 61.6145 21.4527C62.0268 20.0456 62.5484 18.6658 62.8765 17.2461Z" fill="#FFF9F8"/>
<path d="M143.013 19.3499C142.073 19.1879 141.641 21.0283 141.187 21.7308C140.735 22.4354 140.741 24.3115 141.593 24.9762C142.445 25.6408 143.78 25.6135 144.533 24.8668C145.286 24.118 145.148 22.3408 144.647 21.7119C144.146 21.083 143.726 19.474 143.013 19.3499Z" fill="#FAFAFB"/>
<path d="M76.1271 23.3468C78.2472 20.6357 73.9502 20.5495 72.1309 20.8229C72.1309 22.5055 72.1309 24.1881 72.1309 25.8708C73.3907 25.8476 74.9598 25.9991 76.1103 25.6436C77.2587 25.2882 77.3112 23.5025 76.1271 23.3468ZM73.6032 22.7158C73.2035 21.9124 74.6043 21.416 75.1217 22.0386C75.6391 22.6591 74.0806 22.9094 73.6032 22.7158ZM73.6032 24.8191C73.1131 23.8895 74.6569 23.1744 75.3321 23.9315C76.0072 24.6887 74.2089 25.1094 73.6032 24.8191Z" fill="#20333A"/>
<path d="M79.0725 25.8701C79.0725 24.1875 79.0725 22.5049 79.0725 20.8223C78.6519 20.8223 78.2312 20.8223 77.8105 20.8223C77.8105 22.5049 77.8105 24.1875 77.8105 25.8701C78.1345 25.7229 78.7823 26.0636 79.0725 25.8701Z" fill="#1B2F36"/>
<path d="M79.0723 25.8701C79.5434 25.5547 79.2847 23.9099 79.2826 23.3462C79.2805 22.7825 79.5476 21.1399 79.0723 20.8223C79.0723 22.5049 79.0723 24.1875 79.0723 25.8701Z" fill="#8C979B"/>
<path d="M84.1193 24.8181C83.4147 24.6562 82.3252 25.1273 81.8057 24.6078C81.0148 23.4552 82.6869 20.1404 80.123 20.8219C80.123 22.5045 80.123 24.1871 80.123 25.8698C81.4544 25.8698 82.7879 25.8698 84.1193 25.8698C83.9994 25.5942 84.277 25.0684 84.1193 24.8181Z" fill="#24363D"/>
<path d="M84.7508 25.8701C84.7508 24.1875 84.7508 22.5049 84.7508 20.8223C84.2754 21.1399 84.5405 22.7783 84.5405 23.3462C84.5405 23.9141 84.2796 25.5399 84.7508 25.8701Z" fill="#727D81"/>
<path d="M84.752 25.8708C86.0139 25.8708 87.2759 25.8708 88.5379 25.8708C88.418 25.5952 88.6956 25.0694 88.5379 24.8191C87.8333 24.6572 86.7438 25.1283 86.2243 24.6088C85.7363 23.5551 86.1506 22.0491 86.0139 20.8229C85.6921 20.9701 85.0422 20.6294 84.752 20.8229C84.752 22.5055 84.752 24.1881 84.752 25.8708Z" fill="#1E3138"/>
<path d="M73.6039 22.7157C74.0814 22.9092 75.6399 22.6589 75.1225 22.0384C74.6051 21.4159 73.2043 21.9122 73.6039 22.7157Z" fill="#FCFDFC"/>
<path d="M125.555 22.2949C114.758 22.2949 103.96 22.2949 93.1641 22.2949C93.1641 23.3466 93.1641 24.3982 93.1641 25.4498C103.96 25.4498 114.758 25.4498 125.555 25.4498C125.555 24.3982 125.555 23.3466 125.555 22.2949Z" fill="#E1E1E1"/>
<path d="M73.6042 24.8189C74.2099 25.1091 76.0083 24.6885 75.3331 23.9313C74.6579 23.1741 73.1141 23.8892 73.6042 24.8189Z" fill="#F0F1F2"/>
<path d="M84.1203 24.819C83.6975 24.1481 82.3598 24.9957 81.8066 24.6087C82.3262 25.1282 83.4157 24.6571 84.1203 24.819Z" fill="#758084"/>
<path d="M88.5382 24.8181C88.1155 24.1492 86.7778 24.9948 86.2246 24.6078C86.7441 25.1273 87.8336 24.6561 88.5382 24.8181Z" fill="#768084"/>
<path d="M137.123 27.1312C137.527 27.2153 137.977 27.0681 138.385 27.1312C138.173 26.8388 137.489 26.8325 137.123 26.9209C137.123 26.9209 137.176 27.0786 137.123 27.1312Z" fill="#788D93"/>
<path d="M63.719 34.0742C61.0542 34.0742 58.3914 34.0742 55.7266 34.0742C55.7266 35.0565 55.7266 36.0366 55.7266 37.0188C58.3914 37.0188 61.0542 37.0188 63.719 37.0188C63.719 36.0366 63.719 35.0565 63.719 34.0742Z" fill="#E1E1E1"/>
<path d="M126.395 34.0742C123.802 34.0742 121.207 34.0742 118.613 34.0742C118.613 35.0565 118.613 36.0366 118.613 37.0188C121.207 37.0188 123.802 37.0188 126.395 37.0188C126.395 36.0366 126.395 35.0565 126.395 34.0742Z" fill="#E1E1E1"/>
<path d="M76.5465 39.1211C69.5342 39.1211 62.526 39.1211 55.5137 39.1211C55.5137 40.1727 55.5137 41.2244 55.5137 42.276C62.5239 42.276 69.5363 42.276 76.5465 42.276C76.5465 41.2244 76.5465 40.1727 76.5465 39.1211Z" fill="#E1E1E1"/>
<path d="M126.607 39.1211C119.597 39.1211 112.584 39.1211 105.574 39.1211C105.574 40.1727 105.574 41.2244 105.574 42.276C112.584 42.276 119.597 42.276 126.607 42.276C126.607 41.2244 126.607 40.1727 126.607 39.1211Z" fill="#E1E1E1"/>
<path d="M137.123 41.2244C137.123 44.6128 137.428 48.1589 137.123 51.5305C137.544 51.5305 137.964 51.5305 138.385 51.5305C138.49 51.5305 138.595 51.5305 138.595 51.5305C138.701 51.5305 138.806 51.5305 138.806 51.5305C142.24 51.5305 145.677 51.5305 149.112 51.5305C149.112 48.0958 149.112 44.659 149.112 41.2244C147.427 41.0351 145.282 41.4768 143.643 41.2244C142.005 40.972 140.015 41.8259 138.595 41.014C138.595 41.014 138.49 41.014 138.385 41.014C137.994 41.014 137.506 40.9341 137.123 41.014C137.123 41.014 137.123 41.1192 137.123 41.2244ZM145.536 43.538C147.065 45.3552 147.227 47.6289 147.008 50.0582C144.274 50.0582 141.54 50.0582 138.806 50.0582C138.427 47.5027 138.957 45.2816 140.699 43.538C142.312 43.538 143.923 43.538 145.536 43.538Z" fill="#FDC47F"/>
<path d="M145.536 43.5391C143.922 43.5391 142.311 43.5391 140.698 43.5391C138.957 45.2827 138.427 47.5037 138.805 50.0592C141.539 50.0592 144.274 50.0592 147.008 50.0592C147.227 47.6299 147.065 45.3563 145.536 43.5391ZM146.377 45.8527C144.389 45.9894 142.267 46.1471 141.539 43.9597C143.434 43.8819 145.811 43.5664 146.377 45.8527ZM141.119 44.17C142.686 45.5835 142.419 47.6636 142.381 49.6386C141.329 49.6386 140.277 49.6386 139.226 49.6386C139.013 47.5269 139.146 45.3374 141.119 44.17ZM146.587 46.2733C146.587 47.3944 146.587 48.5175 146.587 49.6386C145.325 49.6386 144.063 49.6386 142.801 49.6386C142.801 48.5175 142.801 47.3944 142.801 46.2733C144.063 46.2733 145.325 46.2733 146.587 46.2733Z" fill="#FFF4F3"/>
<path d="M146.377 45.8505C145.811 43.5643 143.434 43.8797 141.539 43.9576C142.267 46.145 144.389 45.9872 146.377 45.8505Z" fill="#FDC47F"/>
<path d="M141.12 44.168C139.147 45.3353 139.014 47.5248 139.227 49.6365C140.278 49.6365 141.33 49.6365 142.382 49.6365C142.419 47.6615 142.687 45.5814 141.12 44.168Z" fill="#FDC47F"/>
<path d="M146.589 46.2715C145.327 46.2715 144.065 46.2715 142.803 46.2715C142.803 47.3925 142.803 48.5157 142.803 49.6367C144.065 49.6367 145.327 49.6367 146.589 49.6367C146.589 48.5157 146.589 47.3925 146.589 46.2715Z" fill="#FDC47F"/>
<path d="M44.9219 73.7663C45.4731 73.6753 46.0875 73.8362 46.6445 73.7663C47.4197 72.8989 46.2856 70.9168 46.6445 69.8022C47.0034 68.6877 46.4636 67.0624 46.6445 65.8382C46.8254 64.614 46.5239 63.1427 46.6445 61.8742C46.7651 60.6057 46.501 59.188 46.6445 57.9102C46.0703 57.9102 45.4961 57.9102 44.9219 57.9102C45.499 63.0984 44.9219 68.5524 44.9219 73.7663Z" fill="#404042"/>
<path d="M138.385 65.8342C138.183 66.1118 137.47 66.1266 137.123 66.0445C137.127 69.4098 137.123 72.775 137.123 76.1403C137.544 76.1403 137.964 76.1403 138.385 76.1403C138.49 76.1403 138.595 76.1403 138.595 76.1403C139.085 76.1403 139.578 76.1403 140.068 76.1403C143.082 76.1403 146.098 76.1403 149.112 76.1403C149.015 75.0866 149.24 73.8078 149.112 72.775C148.983 71.7423 149.358 70.3605 149.112 69.4098C148.866 68.4591 149.64 66.7975 149.112 66.0445C147.61 65.7627 145.271 66.421 143.854 66.0445C142.436 65.6681 139.563 66.8396 138.595 65.8342C138.175 61.1039 139.007 70.7726 138.576 66.0444C138.576 66.0444 138.343 66.5339 138.382 66.1077C138.277 67.2603 138.684 64.689 138.595 65.8332C138.507 66.9774 138.518 64.73 138.385 65.8342C138.253 66.9384 138.651 64.8056 138.388 65.811C138.125 66.8164 138.953 65.0518 138.385 65.8342ZM144.695 68.1478C145.948 68.3729 148.127 70.4804 146.64 70.1964C145.155 69.9125 143.448 68.2025 141.956 69.1953C140.463 70.188 138.349 70.3962 139.594 69.1469C140.84 67.8996 143.138 67.8681 144.695 68.1478ZM143.854 70.0408C144.268 70.0934 146.596 71.2039 146.001 71.7718C145.406 72.3397 143.399 70.4152 142.592 71.0924C141.784 71.7697 139.948 72.0936 140.543 71.145C141.138 70.1985 142.869 69.9188 143.854 70.0408ZM143.854 71.9337C145.042 72.5142 143.902 74.7711 142.661 73.9676C141.42 73.1642 142.575 71.3091 143.854 71.9337Z" fill="#FDC47F"/>
<path d="M63.5352 62.0101C62.8236 61.8577 62.7024 63.4759 62.9366 63.9211C63.1718 64.3652 63.399 65.3666 64.0723 65.509C64.7456 65.6513 64.894 64.0139 64.6376 63.6333C64.3822 63.2518 64.0571 62.1211 63.5352 62.0101Z" fill="#F79B90"/>
<path d="M66.8745 63.0066C65.7501 62.8701 66.1225 64.9017 65.6415 65.5458C65.1595 66.1889 64.7988 67.136 64.2113 67.7971C63.6248 68.4583 63.2008 69.1966 62.6882 69.9601C62.1746 70.7226 61.9172 71.9927 62.0237 72.9378C62.1303 73.8839 62.5996 74.7206 63.1513 75.477C63.7018 76.2335 64.2514 76.7602 65.0572 77.2759C65.863 77.7915 67.1456 78.1286 68.1381 77.9531C69.1295 77.7765 70.1062 77.4464 70.8561 76.8264C71.6071 76.2074 72.0448 75.5523 72.4309 74.7125C72.8158 73.8718 73.0468 72.5786 72.992 71.6346C72.9371 70.6905 72.7125 69.4635 72.3349 68.6479C71.9573 67.8322 71.4943 66.9865 70.9616 66.3424C70.429 65.6983 69.7782 64.9358 69.1158 64.4864C68.4524 64.0369 67.6339 63.0989 66.8745 63.0066ZM69.1949 67.2202C70.0524 67.3507 70.2549 68.4141 70.3551 69.1264C70.4553 69.8387 70.5735 71.3296 70.4258 72.1031C70.2781 72.8766 69.9216 73.7223 69.5841 74.4136C69.2477 75.1038 68.9091 75.7168 68.3775 76.2746C67.8459 76.8314 67.0063 77.4715 66.3387 76.8595C65.671 76.2475 65.2407 75.9897 64.8789 75.1379C64.5171 74.2872 64.418 73.5819 64.3431 72.5375C64.2682 71.4931 65.1089 71.4831 65.6879 72.4622C66.267 73.4404 66.9578 72.0329 67.0137 71.3657C67.0696 70.6985 67.5675 69.5819 67.7162 68.9238C67.8638 68.2646 68.253 67.0768 69.1949 67.2202Z" fill="#FDC47F"/>
<path d="M69.5215 67.012C68.4506 66.8671 68.0081 68.0669 67.8402 68.7327C67.6712 69.3975 67.1052 70.5253 67.0416 71.1992C66.978 71.8731 66.1926 73.2949 65.5342 72.3068C64.8759 71.3178 63.9202 71.3279 64.0053 72.3828C64.0905 73.4377 64.2032 74.1501 64.6145 75.0095C65.0258 75.8698 65.5151 76.1302 66.2741 76.7484C67.0332 77.3665 67.9877 76.72 68.5921 76.1576C69.1965 75.5942 69.5814 74.975 69.964 74.2778C70.3477 73.5796 70.753 72.7254 70.9209 71.944C71.0888 71.1627 70.9545 69.6569 70.8405 68.9374C70.7266 68.2179 70.4964 67.1438 69.5215 67.012Z" fill="#F79B90"/>
<path d="M137.123 66.0428C137.47 66.1248 138.183 66.1101 138.385 65.8325C137.977 65.8956 137.527 65.7505 137.123 65.8325C137.123 65.8325 137.123 65.9377 137.123 66.0428Z" fill="#647C84"/>
<path d="M149.112 66.0428C148.607 65.3214 146.674 66.0154 145.747 65.8325C144.819 65.6495 143.2 65.9061 142.171 65.8325C141.143 65.7588 139.858 65.8325 138.806 65.8325C138.806 65.8325 138.596 65.8409 138.596 65.8325C139.563 66.8378 142.436 65.6663 143.854 66.0428C145.272 66.4193 147.61 65.7609 149.112 66.0428Z" fill="#6A838A"/>
<path d="M144.696 68.1454C143.14 67.8657 140.841 67.8972 139.596 69.1445C138.351 70.3938 140.464 70.1856 141.958 69.1929C143.449 68.2001 145.157 69.9101 146.642 70.194C148.129 70.478 145.95 68.3705 144.696 68.1454Z" fill="#F0F2F3"/>
<path d="M143.855 70.0386C142.871 69.9166 141.14 70.1964 140.544 71.1429C139.949 72.0914 141.785 71.7675 142.593 71.0903C143.401 70.413 145.407 72.3375 146.002 71.7696C146.598 71.2018 144.269 70.0912 143.855 70.0386Z" fill="#E8ECED"/>
<path d="M143.855 71.9309C142.576 71.3063 141.421 73.1614 142.662 73.9648C143.903 74.7683 145.043 72.5114 143.855 71.9309Z" fill="#F0F3F4"/>
<path d="M45.0456 116.523C45.4578 116.475 45.9079 116.418 46.3076 116.285C45.6513 113.962 46.5768 111.121 46.3076 108.653C46.0383 106.185 46.3959 103.311 46.3076 100.783C46.2192 98.2549 46.2592 95.7031 46.3076 93.1513C46.3559 90.5995 46.1035 87.8331 46.3076 85.2812C45.8869 85.2812 45.4662 85.2812 45.0456 85.2812C45.0456 90.4803 45.1949 95.8391 45.0456 101.021C44.8963 106.204 45.4557 111.374 45.0456 116.523Z" fill="#404042"/>
<path d="M46.3067 116.285C46.3803 116.261 46.4623 116.075 46.517 116.046C47.1438 111.112 46.4413 105.791 46.517 100.783C46.5927 95.7747 46.9188 90.2823 46.517 85.2812C46.517 85.2812 46.4119 85.2812 46.3067 85.2812C46.1027 87.8331 46.3551 90.5995 46.3067 93.1513C46.2583 95.7031 46.2184 98.2549 46.3067 100.783C46.395 103.311 46.0375 106.185 46.3067 108.653C46.5759 111.121 45.6505 113.962 46.3067 116.285Z" fill="#35464D"/>
<path d="M138.598 103.271C138.684 103.231 138.808 103.271 138.808 103.271C138.808 94.2963 138.808 85.3237 138.808 76.349C139.235 76.5425 139.788 76.1723 140.07 76.1387C139.58 76.1387 139.088 76.1387 138.598 76.1387C138.999 80.5493 138.673 85.3931 138.598 89.81C138.522 94.2269 139.224 98.9193 138.598 103.271Z" fill="#B1B5B8"/>
<path d="M80.7549 83C73.6731 83 66.5935 83 59.5117 83C59.5117 83.7004 59.5117 84.4029 59.5117 85.1033C66.5935 85.1033 73.6731 85.1033 80.7549 85.1033C80.7549 84.4029 80.7549 83.7004 80.7549 83Z" fill="#E1E1E1"/>
<path d="M104.15 92C89.269 92 74.3926 92 59.5117 92C59.5117 92.7004 59.5117 93.4029 59.5117 94.1033C74.3926 94.1033 89.269 94.1033 104.15 94.1033C104.15 93.4029 104.15 92.7004 104.15 92Z" fill="#E1E1E1"/>
<path d="M88.3267 87.418C78.721 87.418 69.1174 87.418 59.5117 87.418C59.5117 88.1184 59.5117 88.8209 59.5117 89.5213C69.1174 89.5213 78.721 89.5213 88.3267 89.5213C88.3267 88.8209 88.3267 88.1184 88.3267 87.418Z" fill="#E1E1E1"/>
<path d="M120.061 96.418C99.8761 96.418 79.6961 96.418 59.5117 96.418C59.5117 97.1184 59.5117 97.8209 59.5117 98.5213C79.6961 98.5213 99.8761 98.5213 120.061 98.5213C120.061 97.8209 120.061 97.1184 120.061 96.418Z" fill="#E1E1E1"/>
<path d="M71.0801 118.623C72.3336 117.87 74.6094 118.949 76.128 118.623C77.6465 118.297 79.7603 118.777 81.3862 118.623C83.012 118.47 84.7556 118.691 86.434 118.623C88.1125 118.556 89.9928 118.655 91.6922 118.623C93.3917 118.592 95.0281 118.636 96.7401 118.623C98.4522 118.611 100.282 118.63 101.998 118.623C103.715 118.617 105.328 118.626 107.046 118.623C108.765 118.621 110.584 118.626 112.304 118.623C114.025 118.621 115.628 118.623 117.352 118.623C119.077 118.623 120.877 118.623 122.611 118.623C122.768 117.98 123.006 117.353 123.241 116.73C122.03 117.42 119.826 116.417 118.404 116.73C116.982 117.044 115.072 116.583 113.566 116.73C112.06 116.878 110.485 116.667 108.939 116.73C107.393 116.794 105.664 116.703 104.102 116.73C102.539 116.758 101.043 116.724 99.4744 116.73C97.9053 116.737 96.2059 116.737 94.6368 116.73C93.0678 116.724 91.5682 116.758 90.0096 116.73C88.4511 116.703 86.7096 116.791 85.1721 116.73C83.6346 116.669 82.0256 116.876 80.5449 116.73C79.0641 116.585 77.0786 117.04 75.7073 116.73C74.336 116.421 72.178 117.448 71.0801 116.73C71.1474 117.294 71.16 118.062 71.0801 118.623Z" fill="#E1E0E0"/>
<path d="M70.2402 121.359C71.9334 120.764 74.1061 121.624 75.9191 121.359C77.7321 121.094 79.7197 121.472 81.598 121.359C83.4762 121.245 85.5837 121.407 87.4872 121.359C89.3906 121.31 91.252 121.369 93.166 121.359C95.08 121.348 97.1433 121.34 99.0552 121.359C100.967 121.378 102.835 121.296 104.734 121.359C106.633 121.422 108.758 121.214 110.623 121.359C112.489 121.504 114.516 121.022 116.302 121.359C118.088 121.695 120.57 120.639 122.191 121.359C122.156 120.452 122.404 119.478 122.612 118.625C120.879 118.625 119.078 118.625 117.354 118.625C115.629 118.625 114.026 118.622 112.306 118.625C110.585 118.627 108.766 118.622 107.048 118.625C105.329 118.627 103.716 118.618 102 118.625C100.284 118.631 98.4537 118.612 96.7416 118.625C95.0295 118.637 93.3932 118.593 91.6937 118.625C89.9943 118.656 88.1139 118.557 86.4355 118.625C84.7571 118.692 83.0135 118.471 81.3876 118.625C79.7618 118.778 77.648 118.299 76.1294 118.625C74.6109 118.951 72.3351 117.872 71.0815 118.625C70.9869 119.287 70.6041 120.707 70.2402 121.359Z" fill="#FEFEFE"/>
<path d="M68.7656 123.251C86.5026 123.251 104.242 123.251 121.979 123.251C121.979 122.665 121.996 122.235 122.189 121.779C122.189 121.674 122.193 121.464 122.189 121.358C120.567 120.639 118.086 121.695 116.3 121.358C114.514 121.022 112.487 121.504 110.621 121.358C108.755 121.213 106.631 121.421 104.732 121.358C102.832 121.295 100.965 121.377 99.0529 121.358C97.141 121.339 95.0777 121.348 93.1637 121.358C91.2497 121.369 89.3883 121.31 87.4848 121.358C85.5814 121.407 83.4739 121.245 81.5956 121.358C79.7174 121.472 77.7298 121.093 75.9168 121.358C74.1038 121.623 71.9311 120.763 70.2379 121.358C69.9687 121.842 69.201 122.841 68.7656 123.251Z" fill="#E0E0E0"/>
<path d="M121.98 123.252C121.98 123.767 122.155 124.362 122.191 124.724C122.191 123.742 122.191 122.762 122.191 121.779C121.997 122.236 121.98 122.665 121.98 123.252Z" fill="#F7B1A6"/>
<path d="M71.0812 125.776C73.5904 126.527 76.6549 125.427 79.284 125.776C81.9131 126.125 84.8072 125.593 87.4868 125.776C90.1664 125.959 92.9974 125.639 95.6896 125.776C95.6896 126.407 95.6896 127.038 95.6896 127.669C88.0484 127.669 80.405 127.669 72.7638 127.669C75.3614 131.095 78.5773 134.122 81.1769 137.554C79.7741 137.554 78.3733 137.554 76.9704 137.554C76.9704 138.326 76.9704 139.096 76.9704 139.868C86.8558 139.868 96.7412 139.868 106.627 139.868C114.44 139.868 122.616 139.165 130.394 139.868C129.933 138.295 127.365 137.668 126.461 136.019C125.556 134.368 124.216 133.091 123.52 131.177C122.824 129.263 122.191 126.895 122.191 124.724C122.155 124.362 121.981 123.767 121.981 123.252C104.244 123.252 86.5046 123.252 68.7676 123.252C69.4175 124.196 70.3408 124.928 71.0812 125.776Z" fill="#FEFEFE"/>
<path d="M72.7627 127.669C80.4039 127.669 88.0473 127.669 95.6885 127.669C95.6885 127.038 95.6885 126.407 95.6885 125.776C92.9963 125.639 90.1653 125.959 87.4857 125.776C84.8061 125.593 81.912 126.125 79.2829 125.776C76.6538 125.426 73.5893 126.526 71.0801 125.776C71.6185 126.392 72.2137 127.038 72.7627 127.669Z" fill="#E1E1E1"/>
<path d="M130.393 150.175C130.498 150.164 130.603 150.175 130.603 150.175C130.664 150.074 130.639 149.451 130.603 149.333C130.58 149.26 130.464 149.155 130.393 149.123C130.329 149.174 130.359 150.078 130.393 150.175Z" fill="#7B888C"/>
<path d="M132.663 111.917C132.663 111.917 132.582 111.891 132.526 111.917C132.491 111.933 132.437 112.04 132.39 112.054C132.13 112.13 131.838 112.163 131.57 112.19C131.57 112.19 131.49 112.164 131.434 112.19C131.398 112.207 131.344 112.306 131.297 112.327C131.094 112.418 130.807 112.38 130.615 112.463C130.608 112.511 130.523 112.576 130.478 112.6C126.817 114.51 124.074 116.654 122.56 120.655C122.407 121.059 122.253 121.466 122.15 121.883C122.015 122.438 121.854 123.07 121.877 123.658C121.88 123.726 121.877 123.863 121.877 123.931C121.877 124.569 121.877 125.205 121.877 125.842C121.877 127.251 122.288 128.789 122.74 130.031C123.192 131.273 124.062 132.102 124.649 133.174C125.236 134.244 126.903 134.651 127.202 135.672C127.219 135.735 127.202 135.809 127.202 135.809C127.568 136.187 128.516 135.983 129.068 136.127C129.62 136.27 130.547 136.393 131.161 136.355C131.048 135.39 131.732 134.276 131.752 133.26C131.772 132.244 132.35 131.114 132.39 130.075C129.812 129.23 129.417 126.839 129.113 124.477C128.809 122.115 132.04 119.394 133.198 122.167C134.357 124.939 132.639 127.24 132.663 129.938C134.016 130.6 135.171 130.211 135.255 128.845C135.341 127.479 135.942 126.592 136.121 125.341C136.298 124.091 136.768 123.354 137.543 122.395C138.32 121.438 139.812 121.913 140.277 123.007C140.741 124.1 140.651 125.642 140.201 126.692C139.754 127.743 139.231 128.456 138.362 129.221C137.496 129.987 136.428 130.479 135.257 130.484C134.81 132.566 134.401 134.659 134.028 136.764C135.319 137.315 137.07 136.93 138.397 137.447C139.457 136.235 141.421 135.801 142.731 134.546C144.043 133.293 145.104 132.316 145.937 130.652C146.77 128.988 147.429 127.114 147.544 125.16C147.658 123.206 147.249 120.866 146.441 119.164C145.634 117.461 144.877 116.369 143.482 115.023C142.085 113.677 140.778 113.209 138.973 112.433C137.169 111.656 134.665 111.917 132.663 111.917ZM137.577 113.282C139.326 113.566 140.667 114.361 142.117 115.569C143.565 116.779 143.998 117.992 144.674 119.838C145.35 121.685 143.137 123.717 141.526 122.304C139.913 120.891 140.008 119.786 138.567 118.436C137.127 117.087 134.877 118.279 133.902 116.275C132.927 114.271 135.965 113.02 137.577 113.282ZM144.677 124.068C146.778 124.513 145.904 128.24 143.766 127.572C141.628 126.905 142.466 123.601 144.677 124.068Z" fill="#FDC47F"/>
<path d="M137.577 113.283C135.965 113.02 132.927 114.271 133.902 116.275C134.876 118.279 137.126 117.088 138.567 118.436C140.007 119.787 139.913 120.891 141.525 122.304C143.136 123.717 145.349 121.686 144.673 119.838C143.998 117.993 143.565 116.779 142.116 115.569C140.666 114.361 139.326 113.567 137.577 113.283Z" fill="#FDC47F"/>
<path d="M131.16 136.354C131.228 136.35 131.37 136.336 131.433 136.354C132.066 135.794 131.685 134.149 132.106 133.341C132.526 132.531 132.181 131.044 132.662 130.21C133.347 130.504 134.11 130.505 134.846 130.62C134.633 132.703 133.968 134.676 133.754 136.763C133.822 136.761 133.969 136.739 134.027 136.763C134.399 134.658 134.809 132.565 135.255 130.483C136.427 130.478 137.494 129.986 138.361 129.221C139.23 128.455 139.753 127.742 140.2 126.691C140.65 125.641 140.74 124.1 140.275 123.006C139.811 121.912 138.319 121.437 137.542 122.394C136.767 123.353 136.297 124.09 136.12 125.341C135.941 126.591 135.34 127.478 135.254 128.844C135.169 130.21 134.014 130.599 132.662 129.937C132.638 127.24 134.356 124.938 133.197 122.166C132.039 119.394 128.807 122.114 129.112 124.476C129.416 126.838 129.811 129.229 132.388 130.074C132.349 131.113 131.771 132.243 131.751 133.259C131.73 134.275 131.046 135.389 131.16 136.354ZM132.388 129.664C130.039 128.86 129.665 126.635 129.385 124.476C129.105 122.318 132.115 119.822 133.041 122.458C133.965 125.096 132.368 127.148 132.388 129.664ZM135.255 130.21C135.507 128.609 136.33 126.485 136.529 124.931C136.727 123.377 138.417 121.264 139.727 122.736C141.036 124.207 140.106 126.326 139.317 127.719C138.527 129.111 136.8 130.107 135.255 130.21Z" fill="#FFF1EF"/>
<path d="M132.389 129.665C132.369 127.149 133.966 125.097 133.042 122.459C132.116 119.823 129.106 122.319 129.385 124.477C129.665 126.636 130.039 128.861 132.389 129.665Z" fill="#F79B90"/>
<path d="M135.256 130.21C136.8 130.107 138.527 129.111 139.317 127.719C140.107 126.326 141.036 124.207 139.727 122.736C138.418 121.264 136.728 123.377 136.53 124.931C136.33 126.485 135.507 128.609 135.256 130.21Z" fill="#FFD7B6"/>
<path d="M144.676 124.068C142.465 123.602 141.627 126.905 143.765 127.573C145.903 128.241 146.777 124.514 144.676 124.068Z" fill="#F79B90"/>
<path d="M131.436 136.355C132.118 136.551 132.976 136.794 133.756 136.764C133.971 134.677 134.636 132.704 134.849 130.621C134.113 130.506 133.35 130.504 132.664 130.211C132.184 131.045 132.529 132.532 132.109 133.341C131.688 134.15 132.069 135.795 131.436 136.355Z" fill="#FFD7B6"/>
<path d="M126.517 136.219C126.797 137.082 126.491 138.038 126.381 138.95C126.27 139.862 126.983 140.133 127.336 140.725C128.622 141.242 130.362 141.131 131.735 141.377C133.109 141.623 134.756 141.949 136.074 142.09C137.009 142.19 138.167 141.268 138.131 140.325C138.097 139.381 139.376 137.83 138.395 137.448C137.068 136.931 135.318 137.316 134.026 136.765C133.969 136.741 133.821 136.763 133.753 136.765C132.972 136.795 132.115 136.552 131.432 136.356C131.369 136.338 131.227 136.352 131.159 136.356C130.545 136.394 129.618 136.271 129.066 136.128C128.515 135.985 127.566 136.188 127.2 135.81C126.803 135.778 126.633 135.89 126.517 136.219Z" fill="#E0E0E0"/>
<path d="M127.338 141.132C127.525 141.512 128.897 141.353 129.395 141.532C129.894 141.711 130.971 141.684 131.571 141.813C132.172 141.945 133.111 142.076 133.755 142.088C134.398 142.1 135.424 142.65 136.075 142.361C136.041 142.332 136.11 142.127 136.075 142.088C134.758 141.947 133.11 141.621 131.737 141.375C130.363 141.13 128.624 141.24 127.338 140.723C127.356 140.751 127.357 141.106 127.338 141.132Z" fill="#ABABAB"/>
<path d="M127.338 141.132C127.525 141.512 128.897 141.353 129.395 141.532C129.894 141.711 130.971 141.684 131.571 141.813C132.172 141.945 133.111 142.076 133.755 142.088C134.398 142.1 135.424 142.65 136.075 142.361C136.041 142.332 136.11 142.127 136.075 142.088C134.758 141.947 133.11 141.621 131.737 141.375C130.363 141.13 128.624 141.24 127.338 140.723C127.356 140.751 127.357 141.106 127.338 141.132Z" fill="black" fill-opacity="0.2"/>
<path d="M127.338 141.132C127.525 141.512 128.897 141.353 129.395 141.532C129.894 141.711 130.971 141.684 131.571 141.813C132.172 141.945 133.111 142.076 133.755 142.088C134.398 142.1 135.424 142.65 136.075 142.361C136.041 142.332 136.11 142.127 136.075 142.088C134.758 141.947 133.11 141.621 131.737 141.375C130.363 141.13 128.624 141.24 127.338 140.723C127.356 140.751 127.357 141.106 127.338 141.132Z" fill="black" fill-opacity="0.2"/>
<path d="M127.338 141.132C127.525 141.512 128.897 141.353 129.395 141.532C129.894 141.711 130.971 141.684 131.571 141.813C132.172 141.945 133.111 142.076 133.755 142.088C134.398 142.1 135.424 142.65 136.075 142.361C136.041 142.332 136.11 142.127 136.075 142.088C134.758 141.947 133.11 141.621 131.737 141.375C130.363 141.13 128.624 141.24 127.338 140.723C127.356 140.751 127.357 141.106 127.338 141.132Z" stroke="#C0C0C0"/>
<path d="M127.2 141.679C127.247 141.699 127.322 141.768 127.337 141.815C128.673 142.112 130.223 142.203 131.57 142.36C132.918 142.517 134.548 143.011 135.801 143.044C136.164 143.129 136.607 142.939 136.484 142.498C136.291 142.544 136.189 142.457 136.074 142.362C135.423 142.651 134.396 142.101 133.753 142.088C133.11 142.076 132.171 141.945 131.57 141.814C130.97 141.684 129.893 141.712 129.394 141.533C128.896 141.354 127.524 141.512 127.337 141.133C127.181 141.347 126.594 141.413 127.2 141.679Z" fill="#E0E0E0"/>
<path d="M127.338 142.363C128.623 142.275 130.148 142.683 131.434 142.909C132.721 143.132 134.399 143.081 135.666 143.455C135.666 143.455 135.824 143.026 135.802 143.045C134.549 143.012 132.919 142.518 131.571 142.361C130.224 142.204 128.674 142.113 127.338 141.816C127.361 141.893 127.377 142.297 127.338 142.363Z" fill="#ABABAB"/>
<path d="M127.338 142.363C128.623 142.275 130.148 142.683 131.434 142.909C132.721 143.132 134.399 143.081 135.666 143.455C135.666 143.455 135.824 143.026 135.802 143.045C134.549 143.012 132.919 142.518 131.571 142.361C130.224 142.204 128.674 142.113 127.338 141.816C127.361 141.893 127.377 142.297 127.338 142.363Z" fill="black" fill-opacity="0.2"/>
<path d="M127.338 142.363C128.623 142.275 130.148 142.683 131.434 142.909C132.721 143.132 134.399 143.081 135.666 143.455C135.666 143.455 135.824 143.026 135.802 143.045C134.549 143.012 132.919 142.518 131.571 142.361C130.224 142.204 128.674 142.113 127.338 141.816C127.361 141.893 127.377 142.297 127.338 142.363Z" fill="black" fill-opacity="0.2"/>
<path d="M127.338 142.363C128.623 142.275 130.148 142.683 131.434 142.909C132.721 143.132 134.399 143.081 135.666 143.455C135.666 143.455 135.824 143.026 135.802 143.045C134.549 143.012 132.919 142.518 131.571 142.361C130.224 142.204 128.674 142.113 127.338 141.816C127.361 141.893 127.377 142.297 127.338 142.363Z" stroke="#C0C0C0"/>
<path d="M127.203 142.908C128.452 143.287 130.008 143.234 131.301 143.451C132.595 143.668 134.167 144.03 135.394 144.136C136.163 144.203 136.442 143.683 135.667 143.454C134.4 143.08 132.722 143.132 131.435 142.908C130.149 142.683 128.624 142.274 127.339 142.362C127.339 142.362 127.271 142.355 127.203 142.362C126.389 142.439 127.155 142.796 127.203 142.908Z" fill="#E0E0E0"/>
<path d="M128.839 144.82C130.231 145.113 131.795 145.39 133.208 145.502C134.195 145.58 135.264 145.245 135.393 144.137C134.165 144.03 132.594 143.669 131.3 143.452C130.007 143.234 128.45 143.288 127.201 142.908C127.638 143.944 127.536 144.545 128.839 144.82Z" fill="#ABABAB"/>
<path d="M128.839 144.82C130.231 145.113 131.795 145.39 133.208 145.502C134.195 145.58 135.264 145.245 135.393 144.137C134.165 144.03 132.594 143.669 131.3 143.452C130.007 143.234 128.45 143.288 127.201 142.908C127.638 143.944 127.536 144.545 128.839 144.82Z" fill="black" fill-opacity="0.2"/>
<path d="M128.839 144.82C130.231 145.113 131.795 145.39 133.208 145.502C134.195 145.58 135.264 145.245 135.393 144.137C134.165 144.03 132.594 143.669 131.3 143.452C130.007 143.234 128.45 143.288 127.201 142.908C127.638 143.944 127.536 144.545 128.839 144.82Z" fill="black" fill-opacity="0.2"/>
<path d="M128.839 144.82C130.231 145.113 131.795 145.39 133.208 145.502C134.195 145.58 135.264 145.245 135.393 144.137C134.165 144.03 132.594 143.669 131.3 143.452C130.007 143.234 128.45 143.288 127.201 142.908C127.638 143.944 127.536 144.545 128.839 144.82Z" stroke="#C0C0C0"/>
<path d="M133.209 145.503C131.796 145.391 130.231 145.114 128.84 144.82C129.288 145.118 129.281 145.816 129.932 145.913C130.583 146.009 131.211 145.882 131.843 146.186C132.475 146.489 132.817 145.648 133.209 145.503Z" fill="#E0E0E0"/>
<path d="M116.889 70.4955C118.754 70.4408 121.137 70.4429 122.988 70.4955C125.714 70.3104 124.807 68.796 122.568 69.0232C120.328 69.2503 119.164 69.0211 116.889 69.0232C114.613 69.0253 114.36 70.323 116.889 70.4955Z" fill="#FDC47F"/>
<path d="M117.52 71.7581C117.22 72.1745 117.52 73.9518 117.52 74.4923C118.98 74.3619 120.688 74.3598 122.148 74.4923C122.148 73.9455 122.448 72.1829 122.148 71.7581C121.658 71.4194 121.037 71.5835 120.465 71.5477C120.465 71.1965 120.465 70.8473 120.465 70.4961C120.044 70.4961 119.624 70.4961 119.203 70.4961C119.203 70.8473 119.203 71.1965 119.203 71.5477C118.747 71.6298 117.876 71.411 117.52 71.7581Z" fill="#FDC47F"/>
<path d="M124.25 74.4904C124.158 74.8816 124.475 75.9437 124.46 76.5936C124.446 77.2436 124.282 78.3877 124.25 78.9073C123.718 80.7056 125.619 80.4258 126.774 80.3796C126.774 78.2069 126.774 76.0321 126.774 73.8594C125.933 73.8594 125.091 73.8594 124.25 73.8594C124.21 74.0592 124.301 74.2927 124.25 74.4904Z" fill="#FDC47F"/>
<path d="M117.52 74.7035C118.12 74.8212 117.918 75.2272 117.941 75.7551C119.203 75.7551 120.465 75.7551 121.727 75.7551C121.75 75.2293 121.577 74.8149 122.147 74.7035C122.147 74.7035 122.147 74.5983 122.147 74.4931C120.688 74.3606 118.98 74.3627 117.52 74.4931C117.52 74.4931 117.501 74.6992 117.52 74.7035Z" fill="#FDC47F"/>
<path d="M124.25 75.7542C124.25 76.6649 124.25 77.5777 124.25 78.4884C124.25 78.5936 124.256 78.8039 124.25 78.9091C124.282 78.3896 124.446 77.2454 124.46 76.5955C124.475 75.9456 124.158 74.8834 124.25 74.4922C124.158 74.8582 124.25 75.3756 124.25 75.7542Z" fill="#FDC47F"/>
<path d="M112.053 79.7501C112.892 79.7165 113.737 79.7501 114.577 79.7501C115.214 79.4599 114.854 78.1538 116.049 78.4882C117.244 78.8226 117.298 78.036 118.783 78.4882C120.268 78.9404 122.815 77.8509 124.252 78.4882C124.252 77.5775 124.252 76.6646 124.252 75.7539C123.41 75.7539 122.569 75.7539 121.728 75.7539C120.466 75.7539 119.204 75.7539 117.942 75.7539C115.128 75.7539 112.265 76.4185 112.053 79.7501Z" fill="#FDC47F"/>
<path d="M111 79.9601C112.113 80.4481 114.353 79.4028 115.207 79.7498C115.019 79.7098 114.767 79.7498 114.576 79.7498C113.736 79.7498 112.891 79.7162 112.052 79.7498C111.681 79.7645 111.229 79.6489 111 79.9601Z" fill="#FDC47F"/>
<path d="M111 79.9601C111 80.732 111 81.5018 111 82.2737C112.542 82.2737 114.086 82.2737 115.627 82.2737C115.413 81.5692 116.092 79.9349 115.207 79.7498C114.353 79.4028 112.113 80.4481 111 79.9601Z" fill="#FDC47F"/>
<path d="M112.767 84C110.963 85.5396 109.669 91.0271 113.396 90.7284C117.125 90.4318 114.765 84.8266 112.767 84Z" fill="#F79B90"/>
<rect x="44" y="9" width="3" height="131" fill="#404042"/>
<path d="M60.0156 119.421C61.7721 119.421 63.5285 119.421 65.285 119.421C65.285 119.142 65.285 118.863 65.285 118.585C63.7795 118.585 62.2739 118.585 60.7684 118.585C60.801 118.444 60.9792 118.391 61.0193 118.25C60.8713 118.575 60.2875 119.149 60.0156 119.421Z" fill="#E0E0E0"/>
<path d="M53.5753 119.255C53.8965 119.689 53.5352 120.648 53.5753 121.095C53.6355 121.219 53.6816 121.328 53.7426 121.429C53.6523 121.101 53.7677 120.5 53.7426 120.175C53.7175 119.849 53.6339 119.319 53.9099 119.171C53.9099 119.171 53.8681 119.171 53.8263 119.171C53.7426 119.171 53.659 119.169 53.5753 119.171C53.5753 119.171 53.5553 119.228 53.5753 119.255Z" fill="#526066"/>
<path d="M53.4076 119.339C53.421 119.436 53.6151 119.817 53.5749 120.092C53.5348 120.366 53.4929 120.724 53.4913 120.928C53.5122 120.984 53.549 121.042 53.5749 121.095C53.5348 120.649 53.8961 119.689 53.5749 119.255C53.5933 119.24 53.375 119.348 53.4076 119.339Z" fill="#A7AEB1"/>
<path d="M44.2913 125.026C44.318 125.006 44.3749 125.026 44.3749 125.026C44.3749 124.775 44.3749 124.524 44.3749 124.273C44.3557 124.475 44.267 124.759 44.2913 125.026Z" fill="#808A8E"/>
<path d="M39.0215 125.191C39.0641 125.155 39.1344 125.119 39.1888 125.108C39.9574 124.944 41.0364 125.286 41.7816 125.108C42.5269 124.93 43.7045 125.458 44.2909 125.024C43.4603 125.121 42.332 124.894 41.5307 125.024C40.7294 125.154 39.6112 124.692 39.0215 125.191Z" fill="#CCE1E6"/>
<path d="M53.6573 128.036C53.659 128.007 53.7334 127.973 53.741 127.952C53.7142 127.864 53.6255 127.84 53.741 127.785C53.7184 127.662 53.5737 127.71 53.49 127.701C53.444 127.848 53.6197 127.943 53.6573 128.036Z" fill="#735455"/>
<path d="M53.7414 127.952C54.1102 129.174 54.9826 130.457 55.5815 131.465C56.617 130.574 57.6574 129.611 58.7598 128.789C57.1757 128.503 55.4184 127.798 53.7414 127.785C53.626 127.84 53.7146 127.865 53.7414 127.952Z" fill="#0066A5"/>
<path d="M53.6582 128.037C54.6602 130.489 55.9926 132.956 57.1711 135.314C57.1335 135.171 57.1987 134.989 57.1711 134.895C57.0222 134.387 56.5154 133.721 56.2778 133.196C56.0411 132.67 55.827 131.878 55.5819 131.466C54.9831 130.458 54.1107 129.175 53.7418 127.953C53.7343 127.974 53.6599 128.008 53.6582 128.037Z" fill="#364E57"/>
<path d="M57.1722 134.895C57.1998 134.989 57.1345 135.171 57.1722 135.313C57.2508 135.471 57.2784 135.635 57.3395 135.815C57.7 136.165 58.5029 135.802 59.0123 135.899C59.5217 135.996 60.2937 135.853 60.8524 135.899C61.4111 135.944 62.0242 135.88 62.6089 135.899C63.1935 135.917 63.8501 135.891 64.449 135.899C65.0478 135.906 65.6868 135.899 66.2891 135.899C66.2891 135.899 66.3309 135.899 66.3727 135.899C66.9306 135.899 67.4876 135.899 68.0455 135.899C67.0117 134.534 65.7328 133.33 64.6999 131.967C64.4816 131.716 64.2449 131.46 64.0307 131.215C63.7363 130.878 63.3691 130.586 63.1107 130.211C62.6808 130.616 62.102 131.001 61.6679 131.445C61.2338 131.89 60.6517 132.245 60.2042 132.657C59.7567 133.069 59.1018 133.397 58.697 133.827C58.2921 134.257 57.4699 134.416 57.1722 134.895Z" fill="#0066A5"/>
<path d="M48.8066 135.982C48.8066 136.373 48.8066 136.762 48.8066 137.153C49.5067 137.365 50.6007 136.834 51.2322 137.237C50.9462 136.793 50.5489 136.354 50.3122 135.898C49.8998 136.019 49.2851 136.026 48.8066 135.982Z" fill="#6C6D6D"/>
<path d="M56.3331 141.001C56.277 141.973 56.3749 142.954 56.3331 143.928C55.9567 143.982 55.4691 143.819 55.1621 144.012C55.5803 144.012 55.9985 144.012 56.4167 144.012C56.5263 142.911 56.2704 141.762 56.4167 140.666C56.3816 140.775 56.3423 140.846 56.3331 141.001Z" fill="#5E7279"/>
<path d="M63.6137 143.93C62.3315 143.93 61.0484 143.93 59.7662 143.93C59.655 143.93 59.5429 143.93 59.4316 143.93C59.6173 144.195 60.5198 143.966 60.8535 144.013C61.1873 144.06 61.9459 144.045 62.2754 144.013C62.605 143.982 63.4355 144.184 63.6137 143.93Z" fill="#5E7178"/>
<path d="M43.8887 116.694C44.1045 116.749 44.3604 117.309 44.4742 117.447C45.4051 118.58 46.5242 119.671 47.5061 120.772C48.4873 121.872 49.4215 123.144 50.4754 124.159C51.5293 125.174 52.328 126.659 53.5074 127.484C54.0051 127.439 54.5144 127.517 55.0129 127.484C54.9644 127.341 54.8406 127.224 54.8456 127.066C55.5817 126.801 55.8861 126.309 55.3408 125.818C54.7955 125.326 54.6357 124.882 54.1698 124.396C53.7031 123.911 53.4672 123.425 53.0265 122.946C52.5857 122.468 52.2988 121.979 51.8973 121.483C51.4958 120.987 51.1613 120.528 50.7681 120.019C50.3759 119.509 50.0999 119.015 49.7243 118.47C49.3488 117.924 49.0744 117.311 49.0744 116.61C49.0744 116.61 49.0175 116.59 48.9908 116.61C48.4044 117.045 47.2268 116.516 46.4815 116.694C45.7363 116.872 44.6573 116.53 43.8887 116.694Z" fill="#F79B90"/>
<path d="M43.7209 116.777C43.5428 116.926 43.4541 117.189 43.3027 117.363C43.4809 117.369 43.8046 117.915 43.9719 118.032C44.0714 117.901 44.2939 117.452 44.4737 117.446C44.36 117.308 44.104 116.749 43.8882 116.694C43.8339 116.705 43.7636 116.741 43.7209 116.777Z" fill="#F79B90"/>
<path d="M36.1941 127.484C36.4074 126.78 37.3885 126.294 37.7623 125.623C38.1362 124.953 38.8254 124.352 39.2821 123.713C39.7388 123.074 40.3552 122.474 40.8571 121.859C41.3589 121.245 41.8281 120.523 42.3768 119.949C42.9255 119.375 43.322 118.569 43.9727 118.116C43.9534 118.104 43.9727 118.032 43.9727 118.032C43.8054 117.915 43.4817 117.369 43.3036 117.363C40.4665 120.672 37.6469 124.084 34.9395 127.484C35.3209 127.383 35.8252 127.619 36.1941 127.484Z" fill="#F79B90"/>
<path d="M36.1938 127.482C36.1862 128.472 36.2038 129.507 36.1938 130.493C36.1837 131.479 36.213 132.534 36.1938 133.504C36.1745 134.474 36.2373 135.493 36.1938 136.432C36.1503 137.37 36.2866 138.567 36.1938 139.443C36.1009 140.318 37.0621 141.345 36.1378 141.508C35.2136 141.67 37.0578 141.761 36.1938 142.036C35.0788 142.036 37.3087 142.036 36.1938 142.036C36.1938 142.537 36.1938 143.039 36.1938 143.541C38.2145 143.687 40.283 143.346 42.2996 143.541C42.2477 142.968 42.3146 142.358 42.2996 141.785C42.2845 141.212 42.2879 140.594 42.2996 140.028C42.3113 139.463 42.2577 138.725 42.2996 138.188C42.3414 137.651 42.1925 136.892 42.2996 136.432C42.4066 135.972 42.0302 134.923 42.3832 134.675C42.6115 134.515 43.2614 134.719 43.5542 134.675C43.8469 134.632 44.4324 134.632 44.7252 134.675C45.0179 134.719 45.6678 134.515 45.8961 134.675C46.2357 134.913 45.8945 135.891 45.9798 136.348C46.0651 136.805 45.9564 137.676 45.9798 138.188C46.0032 138.7 46.0099 139.432 45.9798 139.945C45.9497 140.457 46.0751 141.326 45.9798 141.785C45.8844 142.243 46.2424 143.299 45.8961 143.541C45.5783 143.764 44.7963 143.457 44.3906 143.541C43.9849 143.625 43.315 143.541 42.8851 143.541C42.906 143.562 42.8851 143.625 42.8851 143.625C43.7783 143.642 44.7586 143.675 45.6452 143.625C46.531 143.575 47.4142 143.515 48.3217 143.541C49.2292 143.567 50.0924 143.544 50.9982 143.541C51.9041 143.539 52.794 143.534 53.6747 143.625C54.5555 143.716 55.4538 143.583 56.3513 143.625C57.2487 143.667 58.2047 143.601 59.1114 143.625C60.0181 143.649 60.8721 143.603 61.7879 143.625C62.7038 143.647 63.6172 143.591 64.5481 143.625C65.479 143.658 66.2602 143.555 67.2246 143.625C68.189 143.695 68.9526 143.476 69.9847 143.625C71.0169 143.774 71.3096 143.102 71.0721 142.036C70.878 142.455 71.0436 143.053 70.9884 143.541C65.1612 143.541 59.3347 143.541 53.5075 143.541C53.5075 138.605 53.5 132.418 53.5 127.482C52.4562 126.945 52.3782 126.304 51.5 125.498C50.6218 124.692 50.3523 123.809 49.5 122.998C48.6469 122.188 47.874 120.758 47 119.998C46.126 119.239 45.4426 118.112 44.5 117.498C43.8493 117.951 42.9252 119.373 42.3765 119.948C41.8278 120.521 41.3586 121.243 40.8568 121.857C40.3549 122.472 39.7385 123.072 39.2818 123.712C38.8251 124.351 38.1359 124.951 37.762 125.621C37.3882 126.292 36.4071 126.779 36.1938 127.482ZM46.2307 130.911C45.9555 131.105 45.3399 130.849 44.9761 130.911C44.6122 130.974 44.0326 130.918 43.6378 130.911C43.243 130.905 42.6918 130.992 42.2996 130.911C42.1925 130.89 42.0729 130.928 41.965 130.911C41.965 129.211 41.965 127.51 41.965 125.809C43.3869 125.809 44.8088 125.809 46.2307 125.809C46.5285 126.017 46.2667 127.091 46.3143 127.482C46.362 127.873 46.3612 128.847 46.3143 129.239C46.2675 129.63 46.5268 130.705 46.2307 130.911Z" fill="#E0E0E0"/>
<path d="M53.5254 127.766H70.6005L71.0705 143.588H53.5254V127.766Z" fill="#FDC47F"/>
<path d="M42.2975 130.913C42.6262 130.72 42.2849 129.793 42.3811 129.407C42.4773 129.022 42.3309 128.272 42.3811 127.818C42.4313 127.364 42.3435 126.702 42.3811 126.229C43.6633 126.229 44.9464 126.229 46.2286 126.229C46.2286 126.089 46.2286 125.95 46.2286 125.811C44.8067 125.811 43.3848 125.811 41.9629 125.811C41.9629 127.511 41.9629 129.212 41.9629 130.913C42.0708 130.929 42.1904 130.891 42.2975 130.913Z" fill="#233E46"/>
<path d="M46.2305 126.229C46.2305 127.79 46.2305 129.351 46.2305 130.913C46.5266 130.706 46.2673 129.631 46.3141 129.24C46.3609 128.848 46.3618 127.874 46.3141 127.483C46.2664 127.093 46.5282 126.019 46.2305 125.811C46.2305 125.95 46.2305 126.089 46.2305 126.229Z" fill="#778B92"/>
<path d="M42.2988 130.912C42.6911 130.993 43.2423 130.905 43.6371 130.912C44.0319 130.919 44.6115 130.975 44.9753 130.912C45.3392 130.849 45.9548 131.105 46.23 130.912C46.23 129.351 46.23 127.79 46.23 126.228C44.9477 126.228 43.6647 126.228 42.3825 126.228C42.3448 126.702 42.4327 127.363 42.3825 127.817C42.3323 128.272 42.4787 129.021 42.3825 129.407C42.2863 129.792 42.6275 130.72 42.2988 130.912Z" fill="#F79B90"/>
<path d="M62.2063 128.82C65.0895 128.625 68.0687 128.793 70.9887 128.737C71.0589 128.333 70.9485 127.925 70.9887 127.482C70.3864 127.482 69.7474 127.49 69.1485 127.482C68.5497 127.475 67.8931 127.5 67.3084 127.482C66.7238 127.464 66.1107 127.527 65.552 127.482C64.9933 127.437 64.2213 127.579 63.7119 127.482C63.2025 127.385 62.3996 127.748 62.0391 127.398C62.1938 127.857 62.2423 128.292 62.2063 128.82Z" fill="#FDC47F"/>
<path d="M53.5059 127.567C53.9843 127.61 54.599 127.604 55.0114 127.483C54.5129 127.517 54.0035 127.438 53.5059 127.483C53.5059 127.483 53.5059 127.525 53.5059 127.567Z" fill="#9C6F6A"/>
<path d="M64.1303 135.514C64.2416 135.514 64.3537 135.514 64.4649 135.514C64.4649 134.12 64.4649 132.727 64.4649 131.332C65.7471 131.332 67.0302 131.332 68.3124 131.332C68.3124 131.193 68.3124 131.054 68.3124 130.914C66.9181 130.914 65.5246 130.914 64.1303 130.914C64.1713 131.403 64.076 132.026 64.1303 132.503C64.1847 132.98 64.0208 133.577 64.1303 134.009C64.2399 134.44 63.892 135.174 64.1303 135.514Z" fill="#233E45"/>
<path d="M64.4629 135.514C65.7451 135.514 67.0282 135.514 68.3104 135.514C68.5245 135.208 68.2234 134.482 68.3104 134.092C68.3974 133.702 68.292 133.087 68.3104 132.67C68.3288 132.254 68.3606 131.749 68.3104 131.332C67.0282 131.332 65.7451 131.332 64.4629 131.332C64.4629 132.726 64.4629 134.12 64.4629 135.514Z" fill="#F79B90"/>
<path d="M57.2852 135.553C58.5674 135.553 59.8504 135.553 61.1326 135.553C61.3468 135.247 61.0457 134.521 61.1326 134.131C61.2196 133.741 61.1142 133.126 61.1326 132.709C61.151 132.293 61.1828 131.788 61.1326 131.371C59.8504 131.371 58.5674 131.371 57.2852 131.371C57.2852 132.765 57.2852 134.159 57.2852 135.553Z" fill="#F79B90"/>
<path d="M59.7793 135.597C59.7793 135.597 59.8211 135.597 59.8629 135.597C60.1699 135.405 60.6575 135.567 61.0339 135.513C61.0757 134.54 60.9779 133.559 61.0339 132.586C60.752 133.572 60.1657 134.612 59.7793 135.597Z" fill="#F79B90"/>
<path d="M42.2996 143.544C42.2996 143.548 42.3833 143.544 42.3833 143.544C42.6484 140.613 42.1842 137.615 42.3833 134.678C42.0303 134.925 42.4067 135.974 42.2996 136.434C42.1926 136.894 42.3415 137.654 42.2996 138.191C42.2578 138.728 42.3114 139.465 42.2996 140.031C42.2879 140.596 42.2846 141.214 42.2996 141.787C42.3147 142.36 42.2478 142.971 42.2996 143.544Z" fill="#6B7B81"/>
<path d="M42.3813 143.542C42.521 143.542 42.6598 143.542 42.7995 143.542C42.7317 142.787 42.8338 142.043 42.7995 141.283C42.7652 140.523 42.8237 139.702 42.7995 138.941C42.7752 138.181 42.8313 137.439 42.7995 136.683C42.7677 135.927 42.6054 134.94 43.5523 135.094C44.4991 135.248 44.9884 134.978 45.8942 135.094C45.8942 134.954 45.8942 134.815 45.8942 134.676C45.6659 134.516 45.016 134.719 44.7232 134.676C44.4305 134.632 43.845 134.632 43.5523 134.676C43.2595 134.719 42.6096 134.516 42.3813 134.676C42.1822 137.613 42.6464 140.611 42.3813 143.542Z" fill="#223C44"/>
<path d="M45.8965 135.094C45.8965 137.91 45.8965 140.726 45.8965 143.542C46.2428 143.299 45.8848 142.244 45.9801 141.785C46.0755 141.327 45.95 140.458 45.9801 139.945C46.0102 139.432 46.0035 138.701 45.9801 138.189C45.9567 137.677 46.0654 136.805 45.9801 136.349C45.8948 135.892 46.2361 134.913 45.8965 134.676C45.8965 134.815 45.8965 134.954 45.8965 135.094Z" fill="#A3AEB2"/>
<path d="M42.8019 143.544C42.8437 143.544 42.8855 143.544 42.8855 143.544C43.3154 143.544 43.9854 143.627 44.391 143.544C44.7967 143.46 45.5787 143.766 45.8966 143.544C45.8966 140.728 45.8966 137.912 45.8966 135.096C44.9907 134.981 44.5014 135.25 43.5546 135.096C42.6078 134.942 42.7701 135.929 42.8019 136.685C42.8336 137.441 42.7776 138.183 42.8019 138.944C42.8261 139.704 42.7676 140.525 42.8019 141.286C42.8362 142.046 42.7341 142.789 42.8019 143.544Z" fill="#F79B90"/>
<path d="M64.4635 141.785C64.4635 140.364 64.4635 138.942 64.4635 137.52C65.7457 137.52 67.0287 137.52 68.311 137.52C68.311 137.38 68.311 137.241 68.311 137.102C66.9167 137.102 65.5232 137.102 64.1289 137.102C64.1289 138.663 64.1289 140.224 64.1289 141.785C64.2368 141.802 64.3564 141.764 64.4635 141.785Z" fill="#264048"/>
<path d="M64.4648 141.785C65.7471 141.785 67.0301 141.785 68.3123 141.785C68.1852 140.378 68.4813 138.921 68.3123 137.52C67.0301 137.52 65.7471 137.52 64.4648 137.52C64.4648 138.941 64.4648 140.363 64.4648 141.785Z" fill="#F79B90"/>
<path d="M57.5996 142.215C58.8818 142.215 60.1649 142.215 61.4471 142.215C61.32 140.808 61.6161 139.35 61.4471 137.949C60.1649 137.949 58.8818 137.949 57.5996 137.949C57.5996 139.371 57.5996 140.793 57.5996 142.215Z" fill="#F79B90"/>
<path d="M42.8843 143.627C42.8843 143.627 42.9052 143.564 42.8843 143.543C42.8843 143.543 42.8425 143.543 42.8007 143.543C42.661 143.543 42.5221 143.543 42.3825 143.543C42.3825 143.543 42.2988 143.547 42.2988 143.543C42.4402 143.556 42.6827 143.622 42.8843 143.627Z" fill="#9A9FA2"/>
<path d="M44.752 116.645L63.5503 117.114L72.4795 127.61H54.6211L44.752 116.645Z" fill="#F79B90"/>
</svg>
