<svg width="42" height="42" viewBox="0 0 42 42" fill="none" xmlns="http://www.w3.org/2000/svg">
<path d="M40.5 21C40.5 31.7696 31.7696 40.5 21 40.5C10.2304 40.5 1.5 31.7696 1.5 21C1.5 10.2304 10.2304 1.5 21 1.5C31.7696 1.5 40.5 10.2304 40.5 21Z" fill="white" stroke="#12486B"/>
<path d="M21 15.1665V26.8332" stroke="#12486B" stroke-width="2" stroke-linecap="round" stroke-linejoin="round"/>
<path d="M15.1666 21H26.8333" stroke="#12486B" stroke-width="2" stroke-linecap="round" stroke-linejoin="round"/>
<path d="M21 40.1668C31.5855 40.1668 40.1667 31.5856 40.1667 21.0002C40.1667 10.4147 31.5855 1.8335 21 1.8335C10.4145 1.8335 1.83333 10.4147 1.83333 21.0002C1.83333 31.5856 10.4145 40.1668 21 40.1668Z" stroke="#12486B" stroke-width="2"/>
</svg>
