<svg width="16" height="16" viewBox="0 0 16 16" fill="none" xmlns="http://www.w3.org/2000/svg">
<path fill-rule="evenodd" clip-rule="evenodd" d="M8 0C12.4155 0 16 3.58453 16 8C16 12.4155 12.4155 16 8 16C3.58453 16 0 12.4155 0 8C0 3.58453 3.58453 0 8 0ZM8 1.06667C4.17333 1.06667 1.06667 4.17333 1.06667 8C1.06667 11.8267 4.17333 14.9333 8 14.9333C11.8267 14.9333 14.9333 11.8267 14.9333 8C14.9333 4.17333 11.8267 1.06667 8 1.06667Z" fill="#001F31"/>
<path fill-rule="evenodd" clip-rule="evenodd" d="M8.53313 3.73255V7.46748L12.2681 7.47975C12.5625 7.48082 12.8009 7.72029 12.7998 8.01469C12.7987 8.30909 12.5593 8.54749 12.2649 8.54642L7.9982 8.53255C7.70433 8.53149 7.46647 8.29309 7.46647 7.99922V3.73255C7.46647 3.43815 7.7054 3.19922 7.9998 3.19922C8.2942 3.19922 8.53313 3.43815 8.53313 3.73255Z" fill="#001F31"/>
</svg>
