<svg width="44" height="51" viewBox="0 0 44 51" fill="none" xmlns="http://www.w3.org/2000/svg">
<g opacity="0.5">
<path d="M6.36109 15.3395H25.3956H32.6563H51.6918C53.6887 15.3395 53.939 14.4717 52.2492 13.4137L32.1023 0.795036C30.4126 -0.265012 27.6407 -0.265012 25.9505 0.795036L5.80572 13.4137C4.11224 14.4717 4.36297 15.3395 6.36144 15.3395H6.36109ZM29.0249 4.53925C31.2828 4.53925 33.1093 6.36889 33.1093 8.62362C33.1093 10.8783 31.2834 12.708 29.0249 12.708C26.7703 12.708 24.9405 10.8783 24.9405 8.62362C24.9405 6.36889 26.7702 4.53925 29.0249 4.53925Z" fill="#FFEED6"/>
<path d="M54.7635 47.6756H51.2801L50.4799 27.5533C51.8521 27.4517 52.943 26.3135 52.943 24.9105V23.4021H54.9068C56.2664 23.4021 57.3645 22.304 57.3645 20.9443C57.3645 19.5884 56.2644 18.4883 54.9068 18.4883H3.17835C1.81871 18.4883 0.722316 19.5884 0.722316 20.9443C0.722316 22.304 1.81871 23.4021 3.17835 23.4021H5.14426V24.9105C5.14426 26.3119 6.2336 27.448 7.60575 27.5533L6.80685 47.6756H3.32341C1.48832 47.6756 0 49.1639 0 51.0012C0 52.8363 1.48832 54.3246 3.32341 54.3246H54.7641C56.5992 54.3246 58.0859 52.8363 58.0859 51.0012C58.0859 49.1661 56.5993 47.6756 54.7641 47.6756H54.7635ZM43.2808 47.6756H14.8045L13.9985 27.5533C15.3761 27.4517 16.4653 26.3119 16.4653 24.9105V23.4021H41.6214V24.9105C41.6214 26.3119 42.7108 27.448 44.0862 27.5533L43.2808 47.6756Z" fill="#FFEED6"/>
</g>
</svg>
