<svg width="43" height="52" viewBox="0 0 43 52" fill="none" xmlns="http://www.w3.org/2000/svg">
<g opacity="0.5" clip-path="url(#clip0_19862_108260)">
<path d="M7.125 40.7481C7.125 51.1068 14.524 56.615 28.5 56.615C42.476 56.615 49.875 51.1068 49.875 40.7481C49.875 33.678 42.5582 25.128 35.899 18.8799C36.9678 18.3044 37.5433 17.3179 37.5433 16.2491C37.5433 14.9337 36.7211 13.865 35.5702 13.4539C37.05 11.3986 37.8721 9.58998 37.8721 8.02796C37.8721 7.94575 37.8721 7.86354 37.8721 7.78133C34.5837 -2.24848 28.0889 4.16402 19.7034 7.28806C19.3745 7.37027 19.1279 7.69911 19.1279 8.02796C19.1279 9.58998 19.8678 11.3986 21.4298 13.4539C20.1966 13.865 19.4567 15.0159 19.4567 16.2491C19.4567 17.4001 20.1144 18.3866 21.101 18.8799C14.524 25.128 7.125 33.678 7.125 40.7481ZM36.2279 8.19238C36.1457 9.50777 35.3236 11.3164 33.6793 13.2895H23.4029C21.9231 11.4808 21.0187 9.91883 20.8543 8.60344C29.4043 5.23277 33.6793 0.382288 36.2279 8.19238ZM22.4986 14.9337C24.8827 14.9337 32.1995 14.9337 34.5837 14.9337C35.3236 14.9337 35.899 15.5092 35.899 16.2491C35.899 16.989 35.2413 17.5645 34.5837 17.5645C31.5418 17.5645 24.8827 17.5645 22.4986 17.5645C21.7587 17.5645 21.1832 16.989 21.1832 16.2491C21.1832 15.5092 21.7587 14.9337 22.4986 14.9337ZM23.1562 19.2087H33.8437C39.3519 24.3058 48.2308 33.5957 48.2308 40.7481C48.2308 50.2025 41.5716 54.9707 28.5 54.9707C15.4284 54.9707 8.76923 50.2025 8.76923 40.7481C8.76923 33.5957 17.6481 24.3058 23.1562 19.2087Z" fill="#FFEED6" stroke="#FFEED6" stroke-width="4.52381"/>
</g>
<defs>
<clipPath id="clip0_19862_108260">
<rect width="57" height="57" fill="#FFEED6"/>
</clipPath>
</defs>
</svg>
