<svg width="54" height="53" viewBox="0 0 54 53" fill="none" xmlns="http://www.w3.org/2000/svg">
<g opacity="0.5">
<path d="M62.9515 46.7107C62.7367 46.6729 62.5403 46.566 62.3932 46.407C62.2461 46.248 62.1567 46.0458 62.1391 45.8325L60.4804 27.2199C60.4366 26.6926 60.1834 26.2016 59.7755 25.853L51.8055 18.9768C51.5591 18.766 51.2666 18.614 50.9512 18.5327C50.6358 18.4513 50.306 18.443 49.988 18.5082L37.269 21.1107C37.0162 21.1624 36.7519 21.1137 36.5337 20.9753C36.3156 20.8369 36.1612 20.62 36.1042 20.3718C36.0757 20.2478 36.0724 20.1197 36.0944 19.9949C36.1165 19.8701 36.1635 19.751 36.2327 19.6445C36.3019 19.5379 36.392 19.446 36.4977 19.3741C36.6035 19.3021 36.7229 19.2515 36.8491 19.2251L49.5606 16.611C50.1753 16.4892 50.8115 16.5079 51.4201 16.6657C52.0287 16.8234 52.5935 17.116 53.0709 17.5209L61.0408 24.3971C61.8425 25.0767 62.343 26.0359 62.4343 27.0683L64.1409 45.6914C64.1635 45.9459 64.0823 46.198 63.9151 46.3922C63.748 46.5863 63.5086 46.7068 63.2495 46.727C63.15 46.7365 63.0495 46.731 62.9515 46.7107Z" fill="#FFEED6" stroke="#FFEED6" stroke-width="3.5"/>
<path d="M46.6108 54.518L46.467 54.4864C42.9568 53.0768 39.8169 50.8962 37.2903 48.1133C32.3306 42.6838 29.3725 35.783 28.8966 28.532L28.4149 21.9428C28.3389 20.6883 28.757 19.4572 29.5826 18.5044C30.4083 17.5517 31.5782 16.9503 32.8503 16.8248C34.1223 16.6994 35.3989 17.0594 36.4158 17.8303C37.4327 18.6013 38.1119 19.7242 38.3128 20.9664L39.0233 25.7831C39.4984 25.9211 40.0011 25.9346 40.481 25.8223C40.9609 25.71 41.4013 25.4758 41.7583 25.1431C41.8868 25.0246 42.0457 24.9428 42.2184 24.9061C42.3911 24.8695 42.571 24.8795 42.7392 24.9351C42.7392 24.9351 45.7965 25.8931 47.7837 24.1723C47.9327 24.0446 48.1181 23.9646 48.3154 23.943C48.5126 23.9214 48.7124 23.9591 48.8883 24.0512C49.0643 24.1433 49.208 24.2854 49.3006 24.4587C49.3932 24.632 49.4302 24.8284 49.4068 25.0219C49.3545 26.1069 49.548 27.1919 49.9734 28.1986C50.3988 29.2054 51.0456 30.1089 51.867 30.8441C52.0162 30.9833 52.1177 31.1645 52.1572 31.3623C52.1966 31.56 52.1721 31.7645 52.0871 31.9468C52.0025 32.1286 51.8621 32.2794 51.6853 32.3783C51.5086 32.4772 51.3043 32.5192 51.101 32.4985C49.991 32.3761 48.8804 32.689 48.0114 33.3691C47.1423 34.0491 46.5853 35.0411 46.4616 36.1289C46.4288 36.322 46.3367 36.5002 46.1976 36.6396C46.0584 36.7791 45.8789 36.8731 45.683 36.9093C45.4871 36.9455 45.2841 36.922 45.1011 36.842C44.9181 36.762 44.7638 36.6293 44.6589 36.4616C44.0491 35.5718 43.221 34.8461 42.2518 34.3521C41.2826 33.8582 40.204 33.6121 39.1163 33.6368C38.8705 33.6505 38.6277 33.5729 38.436 33.4194C38.2444 33.2659 38.1179 33.0477 38.0818 32.8082L37.1638 26.6945C37.1637 26.675 37.168 26.6558 37.1762 26.6381L36.345 21.2727C36.2653 20.5652 35.9295 19.9072 35.3989 19.4186C34.8684 18.93 34.1783 18.6432 33.4544 18.6106C32.7305 18.578 32.0209 18.8016 31.455 19.2408C30.8891 19.68 30.5044 20.3055 30.3711 21.0034C30.3092 21.2804 30.2906 21.5653 30.316 21.8485L30.8676 28.394C31.3121 35.2004 34.0866 41.6789 38.7406 46.7769C41.0594 49.3441 43.9424 51.3601 47.1681 52.6699C47.292 52.7069 47.4075 52.7674 47.508 52.8479C47.6085 52.9285 47.692 53.0276 47.7537 53.1395C47.8155 53.2515 47.8543 53.3741 47.8679 53.5003C47.8815 53.6266 47.8697 53.754 47.8331 53.8754C47.7965 53.9967 47.7359 54.1096 47.6546 54.2075C47.5734 54.3055 47.4732 54.3867 47.3597 54.4463C47.2462 54.506 47.1217 54.543 46.9932 54.5553C46.8647 54.5676 46.7348 54.5549 46.6108 54.518ZM41.1303 31.9317C42.6086 32.2703 43.968 32.9985 45.0613 34.0376C45.4315 33.213 45.9944 32.4869 46.7046 31.9175C47.4149 31.3481 48.2527 30.9514 49.1507 30.7592C48.266 29.5313 47.6945 28.1145 47.4848 26.629C45.9433 27.2101 44.2543 27.3163 42.6416 26.9335C41.6861 27.6509 40.4788 27.9691 39.2793 27.8199L39.8819 31.7557C40.3019 31.7815 40.7193 31.8403 41.1303 31.9317Z" fill="#FFEED6" stroke="#FFEED6" stroke-width="3.5"/>
<path d="M47.6378 63.8843C47.4944 63.8533 47.3596 63.7912 47.2434 63.7025C47.1271 63.6139 47.0324 63.5009 46.9661 63.372L44.7433 59.0307C44.1378 57.8409 44.0354 56.4681 44.4584 55.2129C44.8814 53.9577 45.7954 52.9226 47.0002 52.3343L61.6288 45.2547C62.836 44.673 64.2326 44.5855 65.5141 45.0112C66.7955 45.437 67.8578 46.3415 68.4693 47.5275L70.6537 51.8604C70.7122 51.974 70.7474 52.0977 70.7572 52.2244C70.767 52.351 70.7512 52.4781 70.7108 52.5983C70.6703 52.7185 70.606 52.8295 70.5215 52.9248C70.437 53.0202 70.334 53.098 70.2184 53.1539L48.2779 63.8083C48.08 63.9039 47.8544 63.9307 47.6378 63.8843ZM46.4979 58.1849L48.2777 61.6603L68.4444 51.8475L66.6743 48.3742C66.2975 47.6429 65.6426 47.0852 64.8525 46.8229C64.0624 46.5605 63.2014 46.6148 62.4573 46.974L47.8884 54.0568C47.1466 54.4205 46.5841 55.0587 46.3236 55.8321C46.0631 56.6056 46.1258 57.4514 46.4979 58.1849Z" fill="#FFEED6" stroke="#FFEED6" stroke-width="3.5"/>
<path d="M20.0716 32.8239C17.2199 32.1954 14.6091 30.7674 12.5575 28.714C10.506 26.6605 9.10238 24.0704 8.51795 21.2596C7.93352 18.4487 8.19351 15.5386 9.2662 12.8842C10.3389 10.2297 12.1779 7.94573 14.559 6.31073C16.9401 4.67572 19.7603 3.76038 22.6756 3.67636C25.5909 3.59233 28.4754 4.34326 30.9772 5.83753C33.4789 7.33181 35.4899 9.50486 36.7648 12.0916C38.0396 14.6784 38.5233 17.5671 38.1568 20.4053C38.1236 20.6594 37.9888 20.8892 37.7822 21.0442C37.5755 21.1993 37.3139 21.2669 37.0549 21.2321C36.7959 21.1974 36.5606 21.0631 36.4009 20.8589C36.2412 20.6547 36.1701 20.3973 36.2033 20.1433C36.5766 17.2856 35.9585 14.3795 34.4486 11.8927C32.9387 9.40587 30.6247 7.48301 27.8791 6.43353C25.1335 5.38405 22.1159 5.26899 19.312 6.10687C16.5081 6.94475 14.0809 8.68684 12.4211 11.0528C10.7613 13.4187 9.96532 16.2709 10.1613 19.1503C10.3574 22.0297 11.534 24.7689 13.5018 26.9271C15.4696 29.0852 18.1142 30.5368 21.01 31.0482C23.9057 31.5596 26.8842 31.1011 29.4662 29.7465C29.6954 29.6257 29.9649 29.5997 30.2154 29.6742C30.4658 29.7487 30.6767 29.9175 30.8017 30.1436C30.9266 30.3697 30.9554 30.6345 30.8817 30.8797C30.8079 31.125 30.6377 31.3306 30.4085 31.4513C27.2507 33.1068 23.5842 33.5936 20.0716 32.8239Z" fill="#FFEED6" stroke="#FFEED6" stroke-width="3.5"/>
</g>
</svg>
