<svg width="24" height="24" viewBox="0 0 24 24" fill="none" xmlns="http://www.w3.org/2000/svg">
<path d="M21.6681 14.1636C21.2337 13.8367 20.6337 14.1292 20.5665 14.1636C20.543 14.1762 20.5194 14.1913 20.5001 14.2107L17.7658 16.6527C17.1397 16.8594 15.5952 17.33 15.0146 17.33C14.6407 17.33 13.5559 16.8392 12.5971 16.351C13.4702 16.2518 14.6189 16.0779 15.1248 15.8023C15.6155 15.5359 15.8541 15.0922 15.7205 14.699C15.6104 14.3763 15.176 13.873 13.4837 14.1334C12.4191 14.2973 11.9863 14.1015 11.4401 13.8519C10.9133 13.6108 10.315 13.3377 9.12333 13.2923C6.99989 13.2125 6.11599 14.6326 5.85118 15.1964H5.80413V14.7427C5.80413 14.5645 5.65959 14.42 5.48145 14.42H2.32268C2.14453 14.42 2 14.5645 2 14.7427V20.1827C2 20.3609 2.14453 20.5054 2.32268 20.5054H5.47629C5.65443 20.5054 5.79896 20.3609 5.79896 20.1827V19.6987H6.06366C6.0914 19.6987 7.37117 19.7055 8.74596 20.4281C9.18039 20.6558 9.80894 20.7466 10.5375 20.7466C11.8198 20.7466 13.4112 20.471 14.8095 20.1895C15.0027 20.1508 15.1834 20.1139 15.233 20.108C15.4162 20.0861 18.5716 19.5055 19.1823 18.9618C19.6689 18.5291 21.6519 16.0065 21.8756 15.72C21.9075 15.6788 21.9294 15.6318 21.9378 15.5822C22.0756 14.8746 21.9848 14.41 21.6622 14.1671L21.6681 14.1636ZM18.7574 18.4769C18.3834 18.8105 15.6601 19.408 15.1651 19.4643C15.092 19.4727 14.9584 19.4987 14.6853 19.555C13.5753 19.7785 10.1982 20.4609 9.04689 19.8558C7.55368 19.071 6.18993 19.0533 6.06709 19.0533H5.79568V15.8417H6.05787C6.19736 15.8417 6.32257 15.7492 6.36542 15.6156C6.38895 15.545 6.95951 13.856 9.09138 13.9358C10.156 13.977 10.6703 14.2115 11.1652 14.4367C11.7593 14.7081 12.3181 14.9635 13.5769 14.7703C14.7474 14.5896 15.0785 14.8308 15.1046 14.9039C15.1214 14.9551 15.0382 15.1106 14.8122 15.235C14.2206 15.5576 12.1938 15.7559 11.4628 15.8047C11.3208 15.8131 11.2006 15.9164 11.1704 16.0568C11.1401 16.1963 11.2023 16.3408 11.3292 16.4097C11.7981 16.6702 14.1861 17.9735 15.0096 17.9735C15.8331 17.9735 17.8035 17.3172 18.0279 17.2424C18.0691 17.2298 18.1077 17.2055 18.1397 17.1777L20.8891 14.7232C21.016 14.6669 21.2076 14.6283 21.2765 14.6804C21.3328 14.7232 21.4008 14.9174 21.3193 15.382C20.6824 16.1912 19.1187 18.1525 18.753 18.4778L18.7574 18.4769ZM2.64555 19.8601V15.0653H5.15382V19.8601H2.64555Z" fill="#FF8926" stroke="#FF8926" stroke-width="0.35"/>
<path d="M17.9042 3.11311C17.2243 3.41393 16.7294 4.25927 16.437 4.90968C16.1446 4.26013 15.6496 3.41479 14.9698 3.11311C14.6152 2.95597 14.2362 2.9627 13.8791 3.13244C12.6313 3.71981 12.6657 4.46179 12.7388 4.75253C12.8094 5.03403 12.9926 5.28191 13.2682 5.48358H12.2657C12.0876 5.48358 11.9431 5.62811 11.9431 5.80625V8.18932C11.9431 8.36746 12.0876 8.51199 12.2657 8.51199H12.6355V13.4169C12.6355 13.595 12.78 13.7395 12.9581 13.7395H19.9124C20.0906 13.7395 20.2351 13.595 20.2351 13.4169V8.51199H20.6049C20.783 8.51199 20.9275 8.36746 20.9275 8.18932V5.80625C20.9275 5.62811 20.783 5.48358 20.6049 5.48358H19.6024C19.878 5.27939 20.0603 5.03403 20.1318 4.75253C20.2049 4.46177 20.2393 3.71979 18.9915 3.13244C18.6318 2.9627 18.2554 2.95597 17.8991 3.11311H17.9042ZM19.5108 4.59539C19.4184 4.96344 18.631 5.49704 16.906 5.49704H16.8934C17.1404 4.87354 17.6093 3.95004 18.1689 3.703C18.3563 3.62149 18.5328 3.62569 18.7235 3.71561C19.2806 3.97779 19.5815 4.31559 19.5134 4.59539L19.5108 4.59539ZM13.2834 13.0951V8.51289H15.1657V13.0951H13.2834ZM12.5885 6.12896H14.8967V7.8667H12.5885V6.12896ZM13.3649 4.59542C13.2943 4.31559 13.5968 3.97779 14.1548 3.71563C14.2556 3.66857 14.3531 3.64505 14.4472 3.64505C14.5355 3.64505 14.6212 3.66437 14.7094 3.70303C15.2665 3.94839 15.7354 4.87356 15.985 5.49706C14.2599 5.49286 13.4574 4.96346 13.3666 4.59542L13.3649 4.59542ZM16.895 6.13989C17.0395 6.13989 17.179 6.13569 17.3168 6.12897H17.3319V7.8667H15.5421V6.12897H15.5572C15.695 6.13569 15.8345 6.13989 15.979 6.13989C16.1236 6.13989 16.2799 6.13569 16.437 6.12897C16.5916 6.13737 16.7446 6.13989 16.895 6.13989ZM15.811 8.51284H17.063V13.095H15.811V8.51284ZM19.5932 13.095H17.7109V8.51284H19.5932V13.095ZM20.2856 7.86749H17.9774V6.12976H20.2856V7.86749Z" fill="#FF8926" stroke="#FF8926" stroke-width="0.35"/>
</svg>
