<svg width="24" height="24" viewBox="0 0 24 24" fill="none" xmlns="http://www.w3.org/2000/svg">
<path d="M22.1829 7.74399C22.1829 7.56394 22.1114 7.39127 21.984 7.26396C21.8567 7.13665 21.6841 7.06513 21.504 7.06513H16.3175L16.9217 6.46094C17.3031 6.07909 17.5173 5.56146 17.5173 5.02177C17.5173 4.48207 17.3031 3.96445 16.9217 3.58259C16.534 3.21242 16.0186 3.00588 15.4825 3.00588C14.9465 3.00588 14.4311 3.21242 14.0434 3.58259L12.0068 5.61916L9.97022 3.58259C9.58298 3.20886 9.06582 3 8.52765 3C7.98948 3 7.47231 3.20886 7.08508 3.58259C6.70576 3.96417 6.49286 4.48034 6.49286 5.01837C6.49286 5.55641 6.70576 6.07258 7.08508 6.45416L7.68926 7.05834H2.496C2.31595 7.05834 2.14328 7.12986 2.01597 7.25717C1.88866 7.38448 1.81714 7.55715 1.81714 7.7372V10.4526C1.81714 10.6327 1.88866 10.8053 2.01597 10.9327C2.14328 11.06 2.31595 11.1315 2.496 11.1315H3.17485V21.3211C3.17485 21.5012 3.24638 21.6739 3.37369 21.8012C3.501 21.9285 3.67367 22 3.85371 22H20.1463C20.3263 22 20.499 21.9285 20.6263 21.8012C20.7536 21.6739 20.8252 21.5012 20.8252 21.3211V11.1383H21.504C21.6841 11.1383 21.8567 11.0668 21.984 10.9394C22.1114 10.8121 22.1829 10.6395 22.1829 10.4594V7.74399ZM15.0006 4.53299C15.1277 4.40655 15.2998 4.33558 15.4792 4.33558C15.6585 4.33558 15.8306 4.40655 15.9577 4.53299C16.0842 4.66018 16.1552 4.83224 16.1552 5.01158C16.1552 5.19093 16.0842 5.36299 15.9577 5.49018L14.4032 7.06513H12.482L15.0006 4.53299ZM12.6789 20.6423H11.3211V8.42284H12.6789V20.6423ZM8.04227 5.49018C7.91788 5.36328 7.84821 5.19267 7.84821 5.01498C7.84821 4.83728 7.91788 4.66668 8.04227 4.53978C8.10537 4.47615 8.18046 4.42565 8.26318 4.39118C8.34591 4.35672 8.43464 4.33897 8.52425 4.33897C8.61387 4.33897 8.7026 4.35672 8.78533 4.39118C8.86805 4.42565 8.94313 4.47615 9.00624 4.53978L11.518 7.06513H9.59685L8.04227 5.49018ZM3.17485 8.42284H9.96343V9.78056H3.17485V8.42284ZM4.53257 11.1383H9.96343V20.6423H4.53257V11.1383ZM19.4674 20.6423H14.0366V11.1383H19.4674V20.6423ZM20.8252 9.78056H14.0366V8.42284H20.8252V9.78056Z" fill="#FF8926"/>
</svg>
