<svg width="24" height="24" viewBox="0 0 24 24" fill="none" xmlns="http://www.w3.org/2000/svg">
<g clip-path="url(#clip0_10662_10322)">
<path fill-rule="evenodd" clip-rule="evenodd" d="M13.4295 2.78571C11.6543 2.78571 10.2152 4.22479 10.2152 6C10.2152 7.7752 11.6543 9.21429 13.4295 9.21429C15.2046 9.21429 16.6437 7.7752 16.6437 6C16.6437 4.22479 15.2046 2.78571 13.4295 2.78571ZM8.92944 6C8.92944 3.51471 10.9442 1.5 13.4295 1.5C15.9147 1.5 17.9294 3.51471 17.9294 6C17.9294 8.48527 15.9147 10.5 13.4295 10.5C10.9442 10.5 8.92944 8.48527 8.92944 6Z" fill="#E40021" stroke="#E40021" stroke-width="0.4"/>
<path fill-rule="evenodd" clip-rule="evenodd" d="M10.0223 12.5013C10.0223 12.2245 10.2809 12 10.5999 12H14.8011C18.3579 12 21.4267 14.1656 22.1524 17.1876L22.4135 18.2747C22.9368 20.454 21.02 22.5 18.455 22.5H8.54214C6.03646 22.5 4.13476 20.5413 4.55955 18.3982C4.73074 17.5346 5.03853 16.6955 5.4742 15.9049L6.40896 14.2086C6.5466 13.9589 6.8915 13.8532 7.1793 13.9727C7.46709 14.0921 7.58883 14.3915 7.45117 14.6413L6.51641 16.3375C6.12663 17.0449 5.85126 17.7954 5.69811 18.5682C5.39475 20.0986 6.7528 21.4973 8.54214 21.4973H18.455C20.2872 21.4973 21.6563 20.0359 21.2824 18.4793L21.0215 17.3922C20.4074 14.8351 17.8106 13.0027 14.8011 13.0027H10.5999C10.2809 13.0027 10.0223 12.7783 10.0223 12.5013Z" fill="#E40021" stroke="#E40021" stroke-width="0.4"/>
</g>
<path d="M1 11H7" stroke="#E40021" stroke-width="1.4" stroke-linecap="round" stroke-linejoin="round"/>
<defs>
<clipPath id="clip0_10662_10322">
<rect width="24" height="24" fill="white"/>
</clipPath>
</defs>
</svg>
