<svg width="24" height="24" viewBox="0 0 24 24" fill="none" xmlns="http://www.w3.org/2000/svg">
<g clip-path="url(#clip0_10313_14359)">
<path fill-rule="evenodd" clip-rule="evenodd" d="M13.4295 2.78571C11.6543 2.78571 10.2152 4.22479 10.2152 6C10.2152 7.7752 11.6543 9.21429 13.4295 9.21429C15.2046 9.21429 16.6437 7.7752 16.6437 6C16.6437 4.22479 15.2046 2.78571 13.4295 2.78571ZM8.92944 6C8.92944 3.51471 10.9442 1.5 13.4295 1.5C15.9147 1.5 17.9294 3.51471 17.9294 6C17.9294 8.48527 15.9147 10.5 13.4295 10.5C10.9442 10.5 8.92944 8.48527 8.92944 6Z" fill="#E40021" stroke="#E40021" stroke-width="0.4"/>
<path fill-rule="evenodd" clip-rule="evenodd" d="M10.0223 12.5013C10.0223 12.2245 10.2809 12 10.5999 12H14.8011C18.3579 12 21.4267 14.1656 22.1524 17.1876L22.4135 18.2747C22.9368 20.454 21.02 22.5 18.455 22.5H8.54214C6.03646 22.5 4.13476 20.5413 4.55955 18.3982C4.73074 17.5346 5.03853 16.6955 5.4742 15.9049L6.40896 14.2086C6.5466 13.9589 6.8915 13.8532 7.1793 13.9727C7.46709 14.0921 7.58883 14.3915 7.45117 14.6413L6.51641 16.3375C6.12663 17.0449 5.85126 17.7954 5.69811 18.5682C5.39475 20.0986 6.7528 21.4973 8.54214 21.4973H18.455C20.2872 21.4973 21.6563 20.0359 21.2824 18.4793L21.0215 17.3922C20.4074 14.8351 17.8106 13.0027 14.8011 13.0027H10.5999C10.2809 13.0027 10.0223 12.7783 10.0223 12.5013Z" fill="#E40021" stroke="#E40021" stroke-width="0.4"/>
</g>
<path d="M6.02316 6.35L6.02363 6.35C6.24775 6.3505 6.47043 6.40784 6.66423 6.51793C6.85894 6.62746 7.01929 6.7854 7.12835 6.97629L7.14811 7.01087V7.0134L8.32861 9.09631L8.3287 9.09647C8.54845 9.48533 8.53153 9.95677 8.29365 10.3347L6.96158 12.4541C6.72449 12.8316 6.30069 13.0634 5.84466 13.0644M6.02316 6.35L5.84434 12.9144M6.02316 6.35L3.49042 6.35229L3.49024 6.35229M6.02316 6.35L3.49024 6.35229M5.84466 13.0644L5.84434 12.9144M5.84466 13.0644L5.84497 13.0644L5.84434 12.9144M5.84466 13.0644L5.8421 13.0644M5.84434 12.9144H5.84196M5.8421 13.0644L5.84196 12.9144M5.8421 13.0644L3.31122 13.0667M5.8421 13.0644L5.84133 13.0644L5.84196 12.9144M5.84196 12.9144L3.31122 13.0667M3.31122 13.0667L3.311 12.9167L3.31114 13.0667C3.31116 13.0667 3.31119 13.0667 3.31122 13.0667ZM3.49024 6.35229C3.03365 6.35327 2.61014 6.58775 2.37335 6.96471M3.49024 6.35229L2.37335 6.96471M7.40778 9.29256L6.33454 7.40135C6.33451 7.40129 6.33447 7.40123 6.33444 7.40117C6.30408 7.3481 6.2604 7.30457 6.20757 7.27487L6.19122 7.26568L6.18968 7.26421C6.1408 7.23947 6.08457 7.22619 6.02319 7.22602L3.49088 7.22827C3.49085 7.22827 3.49082 7.22827 3.49079 7.22827C3.35524 7.22859 3.22178 7.30063 3.14706 7.41957L3.14705 7.41957L1.81668 9.53688L1.80715 9.55205L1.80576 9.5534C1.74107 9.66664 1.74287 9.79787 1.80045 9.90088L1.81952 9.93499V9.93675L3.00056 12.0174L3.00065 12.0175C3.06182 12.1256 3.17456 12.1925 3.30906 12.1924H3.30909L5.84164 12.1901L5.84183 12.1901M7.40778 9.29256L5.84196 12.3401L5.84183 12.1901M7.40778 9.29256H7.40594L7.53241 9.51636C7.59281 9.62324 7.59219 9.76162 7.51828 9.87904L7.51823 9.87912L6.18549 11.9992L6.18546 11.9993C6.1109 12.118 5.97764 12.1897 5.84183 12.1901M7.40778 9.29256L5.84183 12.1901M2.37335 6.96471C2.37334 6.96473 2.37333 6.96475 2.37331 6.96477L2.37335 6.96471ZM2.2039 12.4399L2.33441 12.366L2.20387 12.4399C2.20388 12.4399 2.20389 12.4399 2.2039 12.4399ZM1.04065 9.08421L1.04061 9.08427L1.1676 9.16412L1.04065 9.08421ZM7.14811 7.05295L6.9982 7.0529L7 7.05188L7.14811 7.05189V7.05189V7.0519V7.0519V7.05191V7.05191V7.05192V7.05192V7.05192V7.05193V7.05193V7.05193V7.05194V7.05194V7.05195V7.05195V7.05195V7.05196V7.05196V7.05197V7.05197V7.05197V7.05198V7.05198V7.05199V7.05199V7.052V7.052V7.052V7.05201V7.05201V7.05202V7.05202V7.05203V7.05203V7.05203V7.05204V7.05204V7.05205V7.05205V7.05206V7.05206V7.05207V7.05207V7.05208V7.05208V7.05209V7.05209V7.0521V7.0521V7.05211V7.05211V7.05212V7.05212V7.05213V7.05213V7.05214V7.05214V7.05215V7.05215V7.05216V7.05216V7.05217V7.05217V7.05218V7.05218V7.05219V7.05219V7.0522V7.0522V7.05221V7.05221V7.05222V7.05222V7.05223V7.05223V7.05224V7.05224V7.05225V7.05226V7.05226V7.05227V7.05227V7.05228V7.05228V7.05229V7.05229V7.0523V7.0523V7.05231V7.05231V7.05232V7.05233V7.05233V7.05234V7.05234V7.05235V7.05235V7.05236V7.05236V7.05237V7.05238V7.05238V7.05239V7.05239V7.0524V7.0524V7.05241V7.05241V7.05242V7.05242V7.05243V7.05244V7.05244V7.05245V7.05245V7.05246V7.05246V7.05247V7.05247V7.05248V7.05248V7.05249V7.0525V7.0525V7.05251V7.05251V7.05252V7.05252V7.05253V7.05253V7.05254V7.05254V7.05255V7.05255V7.05256V7.05257V7.05257V7.05258V7.05258V7.05259V7.05259V7.0526V7.0526V7.05261V7.05261V7.05262V7.05262V7.05263V7.05263V7.05264V7.05264V7.05265V7.05265V7.05266V7.05266V7.05267V7.05267V7.05268V7.05268V7.05269V7.05269V7.0527V7.0527V7.05271V7.05271V7.05272V7.05272V7.05273V7.05273V7.05273V7.05274V7.05274V7.05275V7.05275V7.05276V7.05276V7.05277V7.05277V7.05278V7.05278V7.05278V7.05279V7.05279V7.0528V7.0528V7.0528V7.05281V7.05281V7.05282V7.05282V7.05283V7.05283V7.05283V7.05284V7.05284V7.05284V7.05285V7.05285V7.05286V7.05286V7.05286V7.05287V7.05287V7.05288V7.05288V7.05289V7.05289V7.0529V7.05295ZM7.14811 7.05187L7.00019 7.05178L7.14811 7.05187ZM4.66626 8.17199C3.78805 8.17199 3.05611 8.85585 3.05611 9.70803C3.05611 10.5602 3.78805 11.2441 4.66626 11.2441C5.54447 11.2441 6.27641 10.5602 6.27641 9.70803C6.27641 8.85585 5.54447 8.17199 4.66626 8.17199ZM4.66626 9.04801C5.06575 9.04801 5.36959 9.34737 5.36959 9.70803C5.36959 10.0687 5.06575 10.3681 4.66626 10.3681C4.26677 10.3681 3.96293 10.0687 3.96293 9.70803C3.96293 9.34737 4.26677 9.04801 4.66626 9.04801Z" fill="#E40021" stroke="#E40021" stroke-width="0.3"/>
<defs>
<clipPath id="clip0_10313_14359">
<rect width="24" height="24" fill="white"/>
</clipPath>
</defs>
</svg>
