<svg width="25" height="24" viewBox="0 0 25 24" fill="none" xmlns="http://www.w3.org/2000/svg">
<g clip-path="url(#clip0_10313_14253)">
<path d="M17.9263 7.19322C18.0277 7.23547 18.1364 7.25742 18.2462 7.25781L22.7113 7.25781C22.9334 7.25781 23.1463 7.16961 23.3033 7.0126C23.4603 6.85559 23.5485 6.64265 23.5485 6.4206C23.5485 6.19856 23.4603 5.98561 23.3033 5.82861C23.1463 5.6716 22.9334 5.58339 22.7113 5.58339H20.2673L24.4195 1.43114C24.4977 1.35351 24.5598 1.2612 24.6023 1.15952C24.6447 1.05783 24.6667 0.948768 24.6669 0.838579C24.6671 0.728391 24.6455 0.619246 24.6034 0.517407C24.5614 0.415567 24.4996 0.323036 24.4217 0.245121C24.3438 0.167206 24.2512 0.10544 24.1494 0.063365C24.0476 0.0212903 23.9384 -0.000264645 23.8282 -6.38962e-05C23.718 0.000136852 23.609 0.022089 23.5073 0.0645347C23.4056 0.10698 23.3133 0.169083 23.2357 0.247281L19.0834 4.39953V1.95549C19.0834 1.73345 18.9952 1.5205 18.8382 1.36349C18.6812 1.20649 18.4682 1.11828 18.2462 1.11828C18.0242 1.11828 17.8112 1.20649 17.6542 1.36349C17.4972 1.5205 17.409 1.73345 17.409 1.95549V6.4206C17.4096 6.586 17.459 6.74753 17.551 6.88497C17.643 7.0224 17.7736 7.12963 17.9263 7.19322Z" fill="#E40021"/>
<path d="M10.3094 11.6395C8.81064 11.6395 7.5915 12.8586 7.5915 14.3574C7.5915 15.8561 8.81064 17.0752 10.3094 17.0752C11.8081 17.0752 13.0272 15.8561 13.0272 14.3574C13.0272 12.8586 11.8081 11.6395 10.3094 11.6395ZM10.3094 16.4669C9.14626 16.4669 8.19984 15.5204 8.19984 14.3574C8.19984 13.1942 9.14626 12.2478 10.3094 12.2478C11.4725 12.2478 12.4189 13.1942 12.4189 14.3574C12.4189 15.5204 11.4725 16.4669 10.3094 16.4669Z" fill="#E40021" stroke="#E40021" stroke-width="0.15"/>
<path d="M17.7417 14.9108V14.8545V13.3799V13.3052V13.3049V11.7742V11.6996V11.6992V10.1686V10.0936H17.7407C17.7414 10.0859 17.7417 10.0781 17.7417 10.0706V8.5396C17.7417 8.25972 17.5914 8.01919 17.3491 7.8193C17.1073 7.61985 16.7676 7.45503 16.3702 7.32358C15.5748 7.06048 14.5293 6.925 13.5184 6.925C12.5073 6.925 11.4618 7.06048 10.6664 7.32358C10.269 7.45503 9.9293 7.61985 9.68752 7.8193C9.4452 8.01919 9.29486 8.25972 9.29486 8.5396V10.0706C9.29486 10.0782 9.29501 10.0859 9.2953 10.0936H9.29486V10.1686V10.7849C7.7375 11.2279 6.59175 12.6593 6.59175 14.3574C6.59175 16.4074 8.25949 18.075 10.3095 18.075C10.7152 18.075 11.1044 18.007 11.4697 17.8865C12.0907 18.0092 12.7959 18.075 13.5184 18.075C14.5293 18.075 15.5748 17.9395 16.3702 17.6764C16.7676 17.545 17.1073 17.3802 17.3491 17.1808C17.5914 16.9809 17.7417 16.7404 17.7417 16.4605V14.9295V14.9108ZM13.6806 15.9154C13.8264 15.6011 13.9292 15.2636 13.9823 14.9094C14.6274 14.884 15.2656 14.8046 15.827 14.6733C16.3419 14.5529 16.7968 14.3879 17.1334 14.1777V14.9108C17.1334 14.9852 17.0731 15.0888 16.9119 15.2074C16.7549 15.323 16.5186 15.4403 16.2082 15.5454C15.6103 15.7478 14.7489 15.9011 13.6806 15.9154ZM14.0266 14.2987C14.0211 13.9547 13.9675 13.6225 13.8742 13.3073C14.5289 13.2869 15.1828 13.2105 15.7607 13.0805C16.3024 12.9586 16.7823 12.7884 17.1334 12.5693V13.3052C17.1334 13.3713 17.0812 13.4654 16.9381 13.5759C16.799 13.6835 16.5891 13.7943 16.3125 13.8963C15.7745 14.0948 14.9958 14.2557 14.0266 14.2987ZM16.2155 12.3314C15.6087 12.5379 14.7283 12.6939 13.6342 12.7043C13.4399 12.3148 13.1808 11.9634 12.8688 11.666C13.083 11.6782 13.3001 11.6852 13.5184 11.6852C14.2465 11.6852 14.9907 11.6146 15.6462 11.477C16.235 11.3534 16.7579 11.1746 17.1334 10.9403V11.6996C17.1334 11.7736 17.0736 11.8766 16.9137 11.9947C16.758 12.1097 16.5236 12.2265 16.2155 12.3314ZM13.5184 11.0769C12.9023 11.0769 12.2929 11.0264 11.7532 10.9318C11.4271 10.7939 11.0775 10.7016 10.7123 10.662C10.4532 10.5657 10.247 10.4573 10.1067 10.3498C9.96037 10.2376 9.9032 10.1402 9.9032 10.0706V9.4093C10.2787 9.64357 10.8016 9.82237 11.3905 9.94597C12.046 10.0836 12.7902 10.1542 13.5184 10.1542C14.2465 10.1542 14.9907 10.0836 15.6462 9.94597C16.235 9.82237 16.7579 9.64357 17.1334 9.4093V10.0706C17.1334 10.1455 17.0723 10.2499 16.909 10.3695C16.7501 10.4859 16.511 10.6039 16.1968 10.7094C15.5693 10.9202 14.6552 11.0769 13.5184 11.0769ZM7.20008 14.3574C7.20008 12.6429 8.59499 11.248 10.3095 11.248C12.0238 11.248 13.4187 12.6429 13.4187 14.3574C13.4187 16.0718 12.0238 17.4667 10.3095 17.4667C8.59499 17.4667 7.20008 16.0718 7.20008 14.3574ZM13.5184 17.4667C13.143 17.4667 12.775 17.4464 12.4217 17.4102C12.7714 17.1679 13.0779 16.8681 13.3265 16.5228C13.3286 16.5229 13.3306 16.5229 13.3326 16.5229C13.3937 16.5242 13.4556 16.5254 13.5184 16.5254C14.2465 16.5254 14.9907 16.4548 15.6462 16.3172C16.235 16.1936 16.7579 16.0148 17.1334 15.7805V16.4605C17.1334 16.5354 17.0723 16.6399 16.909 16.7594C16.7501 16.8758 16.511 16.9938 16.1968 17.0993C15.5693 17.31 14.6552 17.4667 13.5184 17.4667ZM13.5184 9.54587C12.3815 9.54587 11.4673 9.38922 10.8398 9.17845C10.5256 9.07294 10.2865 8.9549 10.1276 8.83852C9.96431 8.71896 9.9032 8.6145 9.9032 8.5396C9.9032 8.46471 9.96431 8.36024 10.1276 8.24069C10.2865 8.1243 10.5256 8.00627 10.8398 7.90075C11.4673 7.68998 12.3815 7.53333 13.5184 7.53333C14.6552 7.53333 15.5693 7.68998 16.1968 7.90075C16.511 8.00627 16.7501 8.1243 16.909 8.24068C17.0723 8.36024 17.1334 8.46471 17.1334 8.5396C17.1334 8.6145 17.0723 8.71896 16.909 8.83852C16.7501 8.9549 16.511 9.07294 16.1968 9.17845C15.5693 9.38922 14.6552 9.54587 13.5184 9.54587Z" fill="#E40021" stroke="#E40021" stroke-width="0.15"/>
<path d="M23.8295 11.1628C23.6075 11.1628 23.3946 11.2511 23.2376 11.4081C23.0806 11.5651 22.9924 11.778 22.9923 12C22.9923 14.0422 22.3867 16.0385 21.2522 17.7366C20.1176 19.4346 18.5049 20.7581 16.6182 21.5396C14.7314 22.3211 12.6553 22.5256 10.6523 22.1272C8.64936 21.7288 6.80952 20.7453 5.36546 19.3013C3.92141 17.8572 2.93799 16.0174 2.53957 14.0144C2.14116 12.0115 2.34564 9.93532 3.12716 8.04857C3.90868 6.16182 5.23213 4.54918 6.93017 3.41459C8.6282 2.28 10.6245 1.67442 12.6667 1.67442C12.8888 1.67442 13.1017 1.58621 13.2587 1.42921C13.4158 1.2722 13.504 1.05925 13.504 0.837209C13.504 0.615167 13.4158 0.40222 13.2587 0.245213C13.1017 0.0882057 12.8888 0 12.6667 0C10.2934 0 7.9733 0.703788 5.99991 2.02236C4.02652 3.34094 2.48845 5.21508 1.5802 7.4078C0.671947 9.60051 0.434308 12.0133 0.89733 14.3411C1.36035 16.6689 2.50324 18.807 4.18147 20.4853C5.8597 22.1635 7.9979 23.3064 10.3257 23.7694C12.6534 24.2324 15.0662 23.9948 17.259 23.0865C19.4517 22.1783 21.3258 20.6402 22.6444 18.6668C23.963 16.6934 24.6667 14.3734 24.6667 12C24.6667 11.778 24.5785 11.5651 24.4215 11.4081C24.2645 11.2511 24.0516 11.1628 23.8295 11.1628Z" fill="#E40021"/>
</g>
<defs>
<clipPath id="clip0_10313_14253">
<rect width="24" height="24" fill="white" transform="translate(0.666748)"/>
</clipPath>
</defs>
</svg>
