<svg width="25" height="24" viewBox="0 0 25 24" fill="none" xmlns="http://www.w3.org/2000/svg">
<path d="M8.27737 22.9333H1.40004V15.9786C1.40004 15.8372 1.34385 15.7015 1.24383 15.6015C1.14381 15.5015 1.00816 15.4453 0.866707 15.4453C0.725258 15.4453 0.589603 15.5015 0.489584 15.6015C0.389564 15.7015 0.333374 15.8372 0.333374 15.9786V23.4666C0.333374 23.6081 0.389564 23.7437 0.489584 23.8438C0.589603 23.9438 0.725258 24 0.866707 24H8.27737C8.41882 24 8.55448 23.9438 8.6545 23.8438C8.75452 23.7437 8.81071 23.6081 8.81071 23.4666C8.81071 23.3252 8.75452 23.1895 8.6545 23.0895C8.55448 22.9895 8.41882 22.9333 8.27737 22.9333Z" fill="#FF000D"/>
<path d="M23.8001 15.4453C23.6586 15.4453 23.523 15.5015 23.423 15.6015C23.3229 15.7015 23.2668 15.8372 23.2668 15.9786V22.9333H16.2881C16.1466 22.9333 16.011 22.9895 15.911 23.0895C15.811 23.1895 15.7548 23.3252 15.7548 23.4666C15.7548 23.6081 15.811 23.7437 15.911 23.8438C16.011 23.9438 16.1466 24 16.2881 24H23.8001C23.9415 24 24.0772 23.9438 24.1772 23.8438C24.2772 23.7437 24.3334 23.6081 24.3334 23.4666V15.9786C24.3334 15.8372 24.2772 15.7015 24.1772 15.6015C24.0772 15.5015 23.9415 15.4453 23.8001 15.4453Z" fill="#FF000D"/>
<path d="M23.8 0H16.3494C16.2079 0 16.0723 0.0561903 15.9722 0.15621C15.8722 0.256229 15.816 0.391884 15.816 0.533333C15.816 0.674782 15.8722 0.810437 15.9722 0.910457C16.0723 1.01048 16.2079 1.06667 16.3494 1.06667H23.2667V7.90933C23.2667 8.05078 23.3229 8.18644 23.4229 8.28646C23.5229 8.38648 23.6586 8.44267 23.8 8.44267C23.9415 8.44267 24.0771 8.38648 24.1772 8.28646C24.2772 8.18644 24.3334 8.05078 24.3334 7.90933V0.533333C24.3334 0.391884 24.2772 0.256229 24.1772 0.15621C24.0771 0.0561903 23.9415 0 23.8 0Z" fill="#FF000D"/>
<path d="M0.866707 8.53333C1.00816 8.53333 1.14381 8.47714 1.24383 8.37712C1.34385 8.2771 1.40004 8.14145 1.40004 8V1.06667H8.30937C8.45082 1.06667 8.58648 1.01048 8.6865 0.910457C8.78652 0.810437 8.84271 0.674782 8.84271 0.533333C8.84271 0.391884 8.78652 0.256229 8.6865 0.15621C8.58648 0.0561903 8.45082 0 8.30937 0H0.866707C0.725258 0 0.589603 0.0561903 0.489584 0.15621C0.389564 0.256229 0.333374 0.391884 0.333374 0.533333V8C0.333374 8.14145 0.389564 8.2771 0.489584 8.37712C0.589603 8.47714 0.725258 8.53333 0.866707 8.53333Z" fill="#FF000D"/>
<path d="M4.06665 4.00001V8.26667C4.06665 8.40812 4.12284 8.54378 4.22286 8.6438C4.32288 8.74382 4.45853 8.80001 4.59998 8.80001H8.86665C9.0081 8.80001 9.14375 8.74382 9.24377 8.6438C9.34379 8.54378 9.39998 8.40812 9.39998 8.26667V4.00001C9.39998 3.85856 9.34379 3.7229 9.24377 3.62288C9.14375 3.52287 9.0081 3.46667 8.86665 3.46667H4.59998C4.45853 3.46667 4.32288 3.52287 4.22286 3.62288C4.12284 3.7229 4.06665 3.85856 4.06665 4.00001ZM5.13332 4.53334H8.33332V7.73334H5.13332V4.53334Z" fill="#FF000D"/>
<path d="M15.8001 8.80001H20.0667C20.2082 8.80001 20.3438 8.74382 20.4438 8.6438C20.5439 8.54378 20.6001 8.40812 20.6001 8.26667V4.00001C20.6001 3.85856 20.5439 3.7229 20.4438 3.62288C20.3438 3.52287 20.2082 3.46667 20.0667 3.46667H15.8001C15.6586 3.46667 15.523 3.52287 15.4229 3.62288C15.3229 3.7229 15.2667 3.85856 15.2667 4.00001V8.26667C15.2667 8.40812 15.3229 8.54378 15.4229 8.6438C15.523 8.74382 15.6586 8.80001 15.8001 8.80001ZM16.3334 4.53334H19.5334V7.73334H16.3334V4.53334Z" fill="#FF000D"/>
<path d="M8.86665 15.2H4.59998C4.45853 15.2 4.32288 15.2561 4.22286 15.3562C4.12284 15.4562 4.06665 15.5918 4.06665 15.7333V20C4.06665 20.1414 4.12284 20.2771 4.22286 20.3771C4.32288 20.4771 4.45853 20.5333 4.59998 20.5333H8.86665C9.0081 20.5333 9.14375 20.4771 9.24377 20.3771C9.34379 20.2771 9.39998 20.1414 9.39998 20V15.7333C9.39998 15.5918 9.34379 15.4562 9.24377 15.3562C9.14375 15.2561 9.0081 15.2 8.86665 15.2ZM8.33332 19.4666H5.13332V16.2666H8.33332V19.4666Z" fill="#FF000D"/>
<path d="M7.80008 5.06665H5.66675V7.19998H7.80008V5.06665Z" fill="#FF000D"/>
<path d="M7.80008 16.8H5.66675V18.9334H7.80008V16.8Z" fill="#FF000D"/>
<path d="M19 5.06665H16.8667V7.19998H19V5.06665Z" fill="#FF000D"/>
<path d="M12.3334 7.73329H11.2667V6.66663H10.2001V7.73329V8.79996H11.2667H12.3334H13.4001V7.73329H12.3334Z" fill="#FF000D"/>
<path d="M9.13332 9.8667H8.06665V10.9334H9.13332V9.8667Z" fill="#FF000D"/>
<path d="M10.2001 10.9333H9.13342V12H10.2001V10.9333Z" fill="#FF000D"/>
<path d="M11.2667 9.8667H10.2001V10.9334H11.2667H12.3334V9.8667H11.2667Z" fill="#FF000D"/>
<path d="M13.4 10.9333H12.3334V12H13.4V10.9333Z" fill="#FF000D"/>
<path d="M8.06665 13.0667V14.1333H9.13332V13.0667V12H8.06665V13.0667Z" fill="#FF000D"/>
<path d="M12.3334 12H11.2667V13.0667H12.3334V12Z" fill="#FF000D"/>
<path d="M11.2667 13.0667H10.2001V14.1333H11.2667V13.0667Z" fill="#FF000D"/>
<path d="M3.80005 13.0667V14.1333H4.86672H5.93338V13.0667H4.86672H3.80005Z" fill="#FF000D"/>
<path d="M19.8001 9.8667H18.7334V10.9334H19.8001V9.8667Z" fill="#FF000D"/>
<path d="M18.7334 19.4667V20.5334H19.8001H20.8667V19.4667H19.8001V18.4H18.7334V19.4667Z" fill="#FF000D"/>
<path d="M15.5334 10.9334V9.86672H14.4667V8.80005H13.4V9.86672V10.9334H14.4667H15.5334Z" fill="#FF000D"/>
<path d="M14.4667 15.2H13.4V16.2666H14.4667V15.2Z" fill="#FF000D"/>
<path d="M13.4 16.2667H12.3334V17.3334H13.4V16.2667Z" fill="#FF000D"/>
<path d="M12.3334 17.3334H11.2667V18.4H12.3334V17.3334Z" fill="#FF000D"/>
<path d="M12.3334 14.1333H11.2667V15.2H10.2001V16.2666H11.2667H12.3334V15.2V14.1333Z" fill="#FF000D"/>
<path d="M13.4 13.0667H12.3334V14.1333H13.4V13.0667Z" fill="#FF000D"/>
<path d="M20.8667 10.9333H19.8V12H20.8667V10.9333Z" fill="#FF000D"/>
<path d="M19.8001 12H18.7334V13.0667H19.8001V12Z" fill="#FF000D"/>
<path d="M20.8667 13.0667H19.8V14.1333H20.8667V13.0667Z" fill="#FF000D"/>
<path d="M13.4 7.73331H14.4667V6.66664V5.59998H13.4V6.66664V7.73331Z" fill="#FF000D"/>
<path d="M12.3334 5.59998H11.2667V6.66664H12.3334V5.59998Z" fill="#FF000D"/>
<path d="M12.3334 19.4667H11.2667V20.5333H12.3334V19.4667Z" fill="#FF000D"/>
<path d="M11.2667 18.4H10.2001V19.4667H11.2667V18.4Z" fill="#FF000D"/>
<path d="M13.4001 4.53334V3.46667H12.3334H11.2667V4.53334H12.3334V5.60001H13.4001V4.53334Z" fill="#FF000D"/>
<path d="M15.5333 14.1333H14.4667V15.2H15.5333V14.1333Z" fill="#FF000D"/>
<path d="M15.5334 17.3334H14.4667V18.4H13.4H12.3334V19.4667H13.4V20.5334H14.4667V19.4667H15.5334V18.4V17.3334Z" fill="#FF000D"/>
<path d="M17.6668 17.3334H16.6001V18.4V19.4667H17.6668V18.4H18.7334V17.3334H17.6668Z" fill="#FF000D"/>
<path d="M16.6 13.0667H15.5333V14.1333H16.6V13.0667Z" fill="#FF000D"/>
<path d="M15.5333 12H14.4667V13.0667H15.5333V12Z" fill="#FF000D"/>
<path d="M17.6668 12V10.9334V9.8667H16.6001V10.9334V12V13.0667H17.6668V12Z" fill="#FF000D"/>
<path d="M4.86672 10.9333H3.80005V12H4.86672V10.9333Z" fill="#FF000D"/>
<path d="M16.6 19.4667H15.5333V20.5333H16.6V19.4667Z" fill="#FF000D"/>
<path d="M19.8 18.4001H20.8667V17.3334V16.2667H19.8V17.3334V18.4001Z" fill="#FF000D"/>
<path d="M7.00003 10.9334V9.8667H5.93337H4.8667V10.9334H5.93337V12V13.0667H7.00003V12H8.0667V10.9334H7.00003Z" fill="#FF000D"/>
<path d="M16.6001 14.1333V15.2H17.6668V16.2666H18.7334H19.8001V15.2H18.7334V14.1333V13.0667H17.6668V14.1333H16.6001Z" fill="#FF000D"/>
<path d="M16.6 15.2H15.5333V16.2666V17.3333H16.6V16.2666V15.2Z" fill="#FF000D"/>
</svg>
