<svg width="24" height="24" viewBox="0 0 24 24" fill="none" xmlns="http://www.w3.org/2000/svg">
<g clip-path="url(#clip0_10313_14240)">
<path d="M23.4829 0.0645879C23.3815 0.0223381 23.2728 0.000394231 23.163 0H18.6979C18.4758 0 18.2629 0.0882057 18.1059 0.245213C17.9489 0.40222 17.8607 0.615167 17.8607 0.837209C17.8607 1.05925 17.9489 1.2722 18.1059 1.42921C18.2629 1.58621 18.4758 1.67442 18.6979 1.67442H21.1419L16.9897 5.82667C16.9115 5.9043 16.8494 5.99661 16.8069 6.0983C16.7645 6.19998 16.7425 6.30904 16.7423 6.41923C16.7421 6.52942 16.7637 6.63857 16.8057 6.74041C16.8478 6.84225 16.9096 6.93478 16.9875 7.01269C17.0654 7.09061 17.1579 7.15237 17.2598 7.19445C17.3616 7.23652 17.4708 7.25808 17.581 7.25788C17.6911 7.25768 17.8002 7.23572 17.9019 7.19328C18.0036 7.15083 18.0959 7.08873 18.1735 7.01053L22.3258 2.85829V5.30232C22.3258 5.52437 22.414 5.73731 22.571 5.89432C22.728 6.05133 22.9409 6.13953 23.163 6.13953C23.385 6.13953 23.598 6.05133 23.755 5.89432C23.912 5.73731 24.0002 5.52437 24.0002 5.30232V0.837209C23.9996 0.671816 23.9502 0.510283 23.8581 0.372845C23.7661 0.235408 23.6356 0.128178 23.4829 0.0645879Z" fill="#E40021"/>
<path d="M9.64267 11.6395C8.14389 11.6395 6.92476 12.8586 6.92476 14.3574C6.92476 15.8561 8.14389 17.0752 9.64267 17.0752C11.1413 17.0752 12.3605 15.8561 12.3605 14.3574C12.3605 12.8586 11.1413 11.6395 9.64267 11.6395ZM9.64267 16.4669C8.47951 16.4669 7.53309 15.5204 7.53309 14.3574C7.53309 13.1942 8.47951 12.2478 9.64267 12.2478C10.8057 12.2478 11.7521 13.1942 11.7521 14.3574C11.7521 15.5204 10.8057 16.4669 9.64267 16.4669Z" fill="#E40021" stroke="#E40021" stroke-width="0.15"/>
<path d="M17.075 14.9108V14.8545V13.3799V13.3052V13.3049V11.7742V11.6996V11.6992V10.1686V10.0936H17.074C17.0746 10.0859 17.075 10.0781 17.075 10.0706V8.5396C17.075 8.25972 16.9247 8.01919 16.6823 7.8193C16.4406 7.61985 16.1009 7.45503 15.7035 7.32358C14.9081 7.06048 13.8626 6.925 12.8516 6.925C11.8406 6.925 10.7951 7.06048 9.99963 7.32358C9.60225 7.45503 9.26255 7.61985 9.02078 7.8193C8.77845 8.01919 8.62811 8.25972 8.62811 8.5396V10.0706C8.62811 10.0782 8.62826 10.0859 8.62855 10.0936H8.62811V10.1686V10.7849C7.07075 11.2279 5.925 12.6593 5.925 14.3574C5.925 16.4074 7.59274 18.075 9.64272 18.075C10.0484 18.075 10.4377 18.007 10.803 17.8865C11.424 18.0092 12.1292 18.075 12.8516 18.075C13.8626 18.075 14.9081 17.9395 15.7035 17.6764C16.1009 17.545 16.4406 17.3802 16.6823 17.1808C16.9247 16.9809 17.075 16.7404 17.075 16.4605V14.9295V14.9108ZM13.0138 15.9154C13.1596 15.6011 13.2625 15.2636 13.3155 14.9094C13.9607 14.884 14.5989 14.8046 15.1603 14.6733C15.6751 14.5529 16.1301 14.3879 16.4667 14.1777V14.9108C16.4667 14.9852 16.4064 15.0888 16.2451 15.2074C16.0881 15.323 15.8519 15.4403 15.5414 15.5454C14.9435 15.7478 14.0822 15.9011 13.0138 15.9154ZM13.3599 14.2987C13.3544 13.9547 13.3007 13.6225 13.2074 13.3073C13.8621 13.2869 14.5161 13.2105 15.0939 13.0805C15.6356 12.9586 16.1155 12.7884 16.4667 12.5693V13.3052C16.4667 13.3713 16.4144 13.4654 16.2714 13.5759C16.1322 13.6835 15.9223 13.7943 15.6458 13.8963C15.1078 14.0948 14.329 14.2557 13.3599 14.2987ZM15.5487 12.3314C14.942 12.5379 14.0616 12.6939 12.9674 12.7043C12.7731 12.3148 12.514 11.9634 12.2021 11.666C12.4162 11.6782 12.6333 11.6852 12.8516 11.6852C13.5798 11.6852 14.3239 11.6146 14.9794 11.477C15.5682 11.3534 16.0912 11.1746 16.4667 10.9403V11.6996C16.4667 11.7736 16.4069 11.8766 16.247 11.9947C16.0913 12.1097 15.8569 12.2265 15.5487 12.3314ZM12.8516 11.0769C12.2356 11.0769 11.6261 11.0264 11.0864 10.9318C10.7604 10.7939 10.4107 10.7016 10.0455 10.662C9.78647 10.5657 9.58027 10.4573 9.43994 10.3498C9.29362 10.2376 9.23645 10.1402 9.23645 10.0706V9.4093C9.61192 9.64357 10.1349 9.82237 10.7237 9.94597C11.3792 10.0836 12.1234 10.1542 12.8516 10.1542C13.5798 10.1542 14.3239 10.0836 14.9794 9.94597C15.5682 9.82237 16.0912 9.64357 16.4667 9.4093V10.0706C16.4667 10.1455 16.4056 10.2499 16.2423 10.3695C16.0833 10.4859 15.8442 10.6039 15.5301 10.7094C14.9026 10.9202 13.9884 11.0769 12.8516 11.0769ZM6.53333 14.3574C6.53333 12.6429 7.92824 11.248 9.64272 11.248C11.3571 11.248 12.752 12.6429 12.752 14.3574C12.752 16.0718 11.3571 17.4667 9.64272 17.4667C7.92824 17.4667 6.53333 16.0718 6.53333 14.3574ZM12.8516 17.4667C12.4762 17.4667 12.1082 17.4464 11.755 17.4102C12.1047 17.1679 12.4112 16.8681 12.6598 16.5228C12.6618 16.5229 12.6638 16.5229 12.6659 16.5229C12.7269 16.5242 12.7889 16.5254 12.8516 16.5254C13.5798 16.5254 14.3239 16.4548 14.9794 16.3172C15.5682 16.1936 16.0912 16.0148 16.4667 15.7805V16.4605C16.4667 16.5354 16.4056 16.6399 16.2423 16.7594C16.0833 16.8758 15.8442 16.9938 15.5301 17.0993C14.9026 17.31 13.9884 17.4667 12.8516 17.4667ZM12.8516 9.54587C11.7148 9.54587 10.8005 9.38922 10.1731 9.17845C9.8589 9.07294 9.61978 8.9549 9.46084 8.83852C9.29756 8.71896 9.23645 8.6145 9.23645 8.5396C9.23645 8.46471 9.29756 8.36024 9.46084 8.24069C9.61978 8.1243 9.8589 8.00627 10.1731 7.90075C10.8005 7.68998 11.7148 7.53333 12.8516 7.53333C13.9884 7.53333 14.9026 7.68998 15.5301 7.90075C15.8442 8.00627 16.0833 8.1243 16.2423 8.24068C16.4056 8.36024 16.4667 8.46471 16.4667 8.5396C16.4667 8.6145 16.4056 8.71896 16.2423 8.83852C16.0833 8.9549 15.8442 9.07294 15.5301 9.17845C14.9026 9.38922 13.9884 9.54587 12.8516 9.54587Z" fill="#E40021" stroke="#E40021" stroke-width="0.15"/>
<path d="M23.1628 11.1628C22.9408 11.1628 22.7279 11.2511 22.5709 11.4081C22.4139 11.5651 22.3256 11.778 22.3256 12C22.3256 14.0422 21.72 16.0385 20.5854 17.7366C19.4508 19.4346 17.8382 20.7581 15.9514 21.5396C14.0647 22.3211 11.9885 22.5256 9.98558 22.1272C7.98262 21.7288 6.14277 20.7453 4.69872 19.3013C3.25466 17.8572 2.27124 16.0174 1.87283 14.0144C1.47441 12.0115 1.67889 9.93532 2.46041 8.04857C3.24193 6.16182 4.56539 4.54918 6.26342 3.41459C7.96145 2.28 9.9578 1.67442 12 1.67442C12.222 1.67442 12.435 1.58621 12.592 1.42921C12.749 1.2722 12.8372 1.05925 12.8372 0.837209C12.8372 0.615167 12.749 0.40222 12.592 0.245213C12.435 0.0882057 12.222 0 12 0C9.62663 0 7.30655 0.703788 5.33316 2.02236C3.35977 3.34094 1.8217 5.21508 0.913451 7.4078C0.00519941 9.60051 -0.232441 12.0133 0.230582 14.3411C0.693605 16.6689 1.83649 18.807 3.51472 20.4853C5.19295 22.1635 7.33115 23.3064 9.65892 23.7694C11.9867 24.2324 14.3995 23.9948 16.5922 23.0865C18.7849 22.1783 20.6591 20.6402 21.9776 18.6668C23.2962 16.6934 24 14.3734 24 12C23.9999 11.778 23.9117 11.5651 23.7547 11.4081C23.5977 11.2511 23.3848 11.1628 23.1628 11.1628Z" fill="#E40021"/>
</g>
<defs>
<clipPath id="clip0_10313_14240">
<rect width="24" height="24" fill="white"/>
</clipPath>
</defs>
</svg>
