<svg width="24" height="10" viewBox="0 0 24 10" fill="none" xmlns="http://www.w3.org/2000/svg">
<path d="M1.7359 0H22.2641C23.2202 0 24 0.779825 24 1.7359V7.7916C24 8.74768 23.2202 9.5275 22.2641 9.5275H1.7359C0.779825 9.5275 0 8.74768 0 7.7916V1.7359C0 0.779825 0.779825 0 1.7359 0ZM22.2641 1.10905H1.7359C1.39338 1.10905 1.10905 1.39171 1.10905 1.7359V7.7916C1.10905 8.13579 1.39171 8.41846 1.7359 8.41846H22.2641C22.6083 8.41846 22.891 8.13579 22.891 7.7916V1.7359C22.891 1.39338 22.6066 1.10905 22.2641 1.10905Z" fill="#FF000D"/>
<path d="M3.39697 3.21238C3.39697 2.90644 3.64638 2.65869 3.95067 2.65869C4.25661 2.65869 4.50436 2.9081 4.50436 3.21238V6.3134C4.50436 6.61934 4.25495 6.86709 3.95067 6.86709C3.64472 6.86709 3.39697 6.61768 3.39697 6.3134V3.21238Z" fill="#FF000D"/>
<path d="M5.46375 3.21238C5.46375 2.90644 5.71316 2.65869 6.01744 2.65869C6.32338 2.65869 6.57113 2.9081 6.57113 3.21238V6.3134C6.57113 6.61934 6.32172 6.86709 6.01744 6.86709C5.71149 6.86709 5.46375 6.61768 5.46375 6.3134V3.21238Z" fill="#FF000D"/>
<path d="M7.53052 3.21238C7.53052 2.90644 7.77993 2.65869 8.08421 2.65869C8.39015 2.65869 8.6379 2.9081 8.6379 3.21238V6.3134C8.6379 6.61934 8.38849 6.86709 8.08421 6.86709C7.77827 6.86709 7.53052 6.61768 7.53052 6.3134V3.21238Z" fill="#FF000D"/>
<path d="M9.59729 3.21238C9.59729 2.90644 9.8467 2.65869 10.151 2.65869C10.4569 2.65869 10.7047 2.9081 10.7047 3.21238V6.3134C10.7047 6.61934 10.4553 6.86709 10.151 6.86709C9.84504 6.86709 9.59729 6.61768 9.59729 6.3134V3.21238Z" fill="#FF000D"/>
<path fill-rule="evenodd" clip-rule="evenodd" d="M17.3972 3.7229C17.9725 3.7229 18.4397 4.19013 18.4397 4.76378C18.4397 5.33908 17.9725 5.80465 17.3972 5.80465C16.8219 5.80465 16.3563 5.33742 16.3563 4.76378C16.3563 4.18847 16.8236 3.7229 17.3972 3.7229Z" fill="#FF000D"/>
<path fill-rule="evenodd" clip-rule="evenodd" d="M20.0892 3.7229C20.6645 3.7229 21.1318 4.19013 21.1318 4.76378C21.1318 5.33908 20.6645 5.80465 20.0892 5.80465C19.5139 5.80465 19.0483 5.33742 19.0483 4.76378C19.0483 4.18847 19.5156 3.7229 20.0892 3.7229Z" fill="#FF000D"/>
</svg>
