<svg width="20" height="20" viewBox="0 0 20 20" fill="none" xmlns="http://www.w3.org/2000/svg">
<path d="M4.1665 5H17.1665C18.2711 5 19.1665 5.89543 19.1665 7V13C19.1665 14.1046 18.2711 15 17.1665 15H4.1665V5Z" stroke="black" stroke-width="1.5" stroke-linecap="round" stroke-linejoin="round"/>
<path d="M7.5 8.33325H15.8333" stroke="black" stroke-width="1.5" stroke-linecap="round" stroke-linejoin="round"/>
<path d="M7.5 11.6667H10.8333" stroke="black" stroke-width="1.5" stroke-linecap="round" stroke-linejoin="round"/>
<path d="M4.16683 14.9999V4.99992C4.16683 4.07944 3.42064 3.33325 2.50016 3.33325V3.33325C1.57969 3.33325 0.833496 4.07945 0.833496 4.99992V14.9999" stroke="black" stroke-width="1.5" stroke-linecap="round" stroke-linejoin="round"/>
<path d="M4.16683 14.9999V14.9999C4.16683 14.0794 3.42064 13.3333 2.50016 13.3333V13.3333C1.57969 13.3333 0.833496 14.0794 0.833496 14.9999V15.4999C0.833496 16.6045 1.72893 17.4999 2.83349 17.4999H14.6668C15.7714 17.4999 16.6668 16.6045 16.6668 15.4999V14.9999" stroke="black" stroke-width="1.5" stroke-linecap="round" stroke-linejoin="round"/>
</svg>
