<svg width="20" height="20" viewBox="0 0 20 20" fill="none" xmlns="http://www.w3.org/2000/svg">
<path d="M17.5026 11.6667L15.0026 9.16667H9.16927C8.94826 9.16667 8.7363 9.07887 8.58002 8.92259C8.42374 8.76631 8.33594 8.55435 8.33594 8.33333V3.33333C8.33594 3.11232 8.42374 2.90036 8.58002 2.74408C8.7363 2.5878 8.94826 2.5 9.16927 2.5H16.6693C16.8903 2.5 17.1022 2.5878 17.2585 2.74408C17.4148 2.90036 17.5026 3.11232 17.5026 3.33333V11.6667Z" stroke="black" stroke-width="1.5" stroke-linecap="round" stroke-linejoin="round"/>
<path d="M11.6667 12.4987V14.1654C11.6667 14.3864 11.5789 14.5983 11.4226 14.7546C11.2663 14.9109 11.0543 14.9987 10.8333 14.9987H5L2.5 17.4987V9.16536C2.5 8.94435 2.5878 8.73239 2.74408 8.57611C2.90036 8.41983 3.11232 8.33203 3.33333 8.33203H5" stroke="black" stroke-width="1.5" stroke-linecap="round" stroke-linejoin="round"/>
</svg>
