<svg width="20" height="20" viewBox="0 0 20 20" fill="none" xmlns="http://www.w3.org/2000/svg">
<path d="M7.49984 3.33325H5.83317C5.39114 3.33325 4.96722 3.50885 4.65466 3.82141C4.3421 4.13397 4.1665 4.55789 4.1665 4.99992V14.9999C4.1665 15.4419 4.3421 15.8659 4.65466 16.1784C4.96722 16.491 5.39114 16.6666 5.83317 16.6666H14.1665C14.6085 16.6666 15.0325 16.491 15.345 16.1784C15.6576 15.8659 15.8332 15.4419 15.8332 14.9999V4.99992C15.8332 4.55789 15.6576 4.13397 15.345 3.82141C15.0325 3.50885 14.6085 3.33325 14.1665 3.33325H12.4998" stroke="black" stroke-width="1.5" stroke-linecap="round" stroke-linejoin="round"/>
<path d="M7.5 3.33341C7.5 2.89139 7.6756 2.46746 7.98816 2.1549C8.30072 1.84234 8.72464 1.66675 9.16667 1.66675H10.8333C11.2754 1.66675 11.6993 1.84234 12.0118 2.1549C12.3244 2.46746 12.5 2.89139 12.5 3.33341C12.5 3.77544 12.3244 4.19937 12.0118 4.51193C11.6993 4.82449 11.2754 5.00008 10.8333 5.00008H9.16667C8.72464 5.00008 8.30072 4.82449 7.98816 4.51193C7.6756 4.19937 7.5 3.77544 7.5 3.33341Z" stroke="black" stroke-width="1.5" stroke-linecap="round" stroke-linejoin="round"/>
<path d="M7.5 10.8333L10 13.3333L12.5 10.8333" stroke="black" stroke-width="1.5" stroke-linecap="round" stroke-linejoin="round"/>
<path d="M10 8.33325V13.3333" stroke="black" stroke-width="1.5" stroke-linecap="round" stroke-linejoin="round"/>
</svg>
