<svg width="20" height="20" viewBox="0 0 20 20" fill="none" xmlns="http://www.w3.org/2000/svg">
<path d="M4.16406 10.8346C4.16406 10.3926 4.33966 9.96869 4.65222 9.65612C4.96478 9.34356 5.3887 9.16797 5.83073 9.16797H14.1641C14.6061 9.16797 15.03 9.34356 15.3426 9.65612C15.6551 9.96869 15.8307 10.3926 15.8307 10.8346V15.8346C15.8307 16.2767 15.6551 16.7006 15.3426 17.0131C15.03 17.3257 14.6061 17.5013 14.1641 17.5013H5.83073C5.3887 17.5013 4.96478 17.3257 4.65222 17.0131C4.33966 16.7006 4.16406 16.2767 4.16406 15.8346V10.8346Z" stroke="black" stroke-width="1.5" stroke-linecap="round" stroke-linejoin="round"/>
<path d="M9.16406 13.3333C9.16406 13.5543 9.25186 13.7663 9.40814 13.9226C9.56442 14.0789 9.77638 14.1667 9.9974 14.1667C10.2184 14.1667 10.4304 14.0789 10.5867 13.9226C10.7429 13.7663 10.8307 13.5543 10.8307 13.3333C10.8307 13.1123 10.7429 12.9004 10.5867 12.7441C10.4304 12.5878 10.2184 12.5 9.9974 12.5C9.77638 12.5 9.56442 12.5878 9.40814 12.7441C9.25186 12.9004 9.16406 13.1123 9.16406 13.3333Z" stroke="black" stroke-width="1.5" stroke-linecap="round" stroke-linejoin="round"/>
<path d="M6.66406 9.16667V5.83333C6.66406 4.94928 7.01525 4.10143 7.64037 3.47631C8.26549 2.85119 9.11334 2.5 9.9974 2.5C10.8815 2.5 11.7293 2.85119 12.3544 3.47631C12.9795 4.10143 13.3307 4.94928 13.3307 5.83333V9.16667" stroke="black" stroke-width="1.5" stroke-linecap="round" stroke-linejoin="round"/>
</svg>
