<svg width="20" height="20" viewBox="0 0 20 20" fill="none" xmlns="http://www.w3.org/2000/svg">
<path d="M6.66406 17.5H13.3307" stroke="black" stroke-width="1.5" stroke-linecap="round" stroke-linejoin="round"/>
<path d="M10 14.168V17.5013" stroke="black" stroke-width="1.5" stroke-linecap="round" stroke-linejoin="round"/>
<path d="M5.83594 3.33203H14.1693" stroke="black" stroke-width="1.5" stroke-linecap="round" stroke-linejoin="round"/>
<path d="M14.1693 3.33203V9.9987C14.1693 11.1038 13.7303 12.1636 12.9489 12.945C12.1675 13.7264 11.1077 14.1654 10.0026 14.1654C8.89754 14.1654 7.83773 13.7264 7.05633 12.945C6.27492 12.1636 5.83594 11.1038 5.83594 9.9987V3.33203" stroke="black" stroke-width="1.5" stroke-linecap="round" stroke-linejoin="round"/>
<path d="M2.5 7.4987C2.5 7.94073 2.67559 8.36465 2.98816 8.67721C3.30072 8.98977 3.72464 9.16536 4.16667 9.16536C4.60869 9.16536 5.03262 8.98977 5.34518 8.67721C5.65774 8.36465 5.83333 7.94073 5.83333 7.4987C5.83333 7.05667 5.65774 6.63275 5.34518 6.32019C5.03262 6.00763 4.60869 5.83203 4.16667 5.83203C3.72464 5.83203 3.30072 6.00763 2.98816 6.32019C2.67559 6.63275 2.5 7.05667 2.5 7.4987Z" stroke="black" stroke-width="1.5" stroke-linecap="round" stroke-linejoin="round"/>
<path d="M14.1641 7.4987C14.1641 7.94073 14.3397 8.36465 14.6522 8.67721C14.9648 8.98977 15.3887 9.16536 15.8307 9.16536C16.2728 9.16536 16.6967 8.98977 17.0092 8.67721C17.3218 8.36465 17.4974 7.94073 17.4974 7.4987C17.4974 7.05667 17.3218 6.63275 17.0092 6.32019C16.6967 6.00763 16.2728 5.83203 15.8307 5.83203C15.3887 5.83203 14.9648 6.00763 14.6522 6.32019C14.3397 6.63275 14.1641 7.05667 14.1641 7.4987Z" stroke="black" stroke-width="1.5" stroke-linecap="round" stroke-linejoin="round"/>
</svg>
