<svg width="20" height="20" viewBox="0 0 20 20" fill="none" xmlns="http://www.w3.org/2000/svg">
<path d="M11.6641 2.5V5.83333C11.6641 6.05435 11.7519 6.26631 11.9081 6.42259C12.0644 6.57887 12.2764 6.66667 12.4974 6.66667H15.8307" stroke="#78787A" stroke-width="1.5" stroke-linecap="round" stroke-linejoin="round"/>
<path d="M14.1641 17.5H5.83073C5.3887 17.5 4.96478 17.3244 4.65222 17.0118C4.33966 16.6993 4.16406 16.2754 4.16406 15.8333V4.16667C4.16406 3.72464 4.33966 3.30072 4.65222 2.98816C4.96478 2.67559 5.3887 2.5 5.83073 2.5H11.6641L15.8307 6.66667V15.8333C15.8307 16.2754 15.6551 16.6993 15.3426 17.0118C15.03 17.3244 14.6061 17.5 14.1641 17.5Z" stroke="#78787A" stroke-width="1.5" stroke-linecap="round" stroke-linejoin="round"/>
<path d="M7.5 5.83337H8.33333" stroke="#78787A" stroke-width="1.5" stroke-linecap="round" stroke-linejoin="round"/>
<path d="M7.5 10.8334H12.5" stroke="#78787A" stroke-width="1.5" stroke-linecap="round" stroke-linejoin="round"/>
<path d="M10.8359 14.1666H12.5026" stroke="#78787A" stroke-width="1.5" stroke-linecap="round" stroke-linejoin="round"/>
</svg>
