<svg width="24" height="24" viewBox="0 0 24 24" fill="none" xmlns="http://www.w3.org/2000/svg">
<path d="M14 3V7C14 7.26522 14.1054 7.51957 14.2929 7.70711C14.4804 7.89464 14.7348 8 15 8H19" stroke="black" stroke-width="1.5" stroke-linecap="round" stroke-linejoin="round"/>
<path d="M14 21C10.0948 21 7 21 7 21C6.46957 21 5.96086 20.7893 5.58579 20.4142C5.21071 20.0391 5 19.5304 5 19V5C5 4.46957 5.21071 3.96086 5.58579 3.58579C5.96086 3.21071 6.46957 3 7 3H14L19 8V12.5" stroke="black" stroke-width="1.5" stroke-linecap="round" stroke-linejoin="round"/>
<path d="M9 7H10" stroke="black" stroke-width="1.5" stroke-linecap="round" stroke-linejoin="round"/>
<path d="M9 13H11" stroke="black" stroke-width="1.5" stroke-linecap="round" stroke-linejoin="round"/>
<path d="M16 17C16 17.1313 16.0259 17.2614 16.0761 17.3827C16.1264 17.504 16.2 17.6142 16.2929 17.7071C16.3858 17.8 16.496 17.8736 16.6173 17.9239C16.7386 17.9741 16.8687 18 17 18C17.1313 18 17.2614 17.9741 17.3827 17.9239C17.504 17.8736 17.6142 17.8 17.7071 17.7071C17.8 17.6142 17.8736 17.504 17.9239 17.3827C17.9741 17.2614 18 17.1313 18 17C18 16.7348 17.8946 16.4804 17.7071 16.2929C17.5196 16.1054 17.2652 16 17 16C16.7348 16 16.4804 16.1054 16.2929 16.2929C16.1054 16.4804 16 16.7348 16 17Z" stroke="black" stroke-width="1.5" stroke-linecap="round" stroke-linejoin="round"/>
<path d="M22 17L19.5 21.3301L14.5 21.3301L12 17L14.5 12.6699L19.5 12.6699L22 17Z" stroke="black" stroke-width="1.5" stroke-linecap="round" stroke-linejoin="round"/>
</svg>
