<svg width="20" height="20" viewBox="0 0 20 20" fill="none" xmlns="http://www.w3.org/2000/svg">
<g clip-path="url(#clip0_313_2855)">
<path d="M12.8995 1C13.4299 1 13.9386 1.21071 14.3137 1.58579L18.4142 5.68629C18.7893 6.06136 19 6.57007 19 7.1005V12.8995C19 13.4299 18.7893 13.9386 18.4142 14.3137L14.3137 18.4142C13.9386 18.7893 13.4299 19 12.8995 19H7.10051C6.57007 19 6.06136 18.7893 5.68629 18.4142L1.58579 14.3137C1.21071 13.9386 1 13.4299 1 12.8995L1 7.10051C1 6.57007 1.21071 6.06136 1.58579 5.68629L5.68629 1.58579C6.06136 1.21071 6.57007 1 7.1005 1L12.8995 1Z" stroke="#DE3924" stroke-width="1.5" stroke-linecap="round" stroke-linejoin="round"/>
<path d="M5.8335 9.16659C5.8335 8.94557 5.92129 8.73361 6.07757 8.57733C6.23385 8.42105 6.44582 8.33325 6.66683 8.33325H13.3335C13.5545 8.33325 13.7665 8.42105 13.9228 8.57733C14.079 8.73361 14.1668 8.94557 14.1668 9.16659V10.8333C14.1668 11.0543 14.079 11.2662 13.9228 11.4225C13.7665 11.5788 13.5545 11.6666 13.3335 11.6666H6.66683C6.44582 11.6666 6.23385 11.5788 6.07757 11.4225C5.92129 11.2662 5.8335 11.0543 5.8335 10.8333V9.16659Z" stroke="#DE3924" stroke-width="1.5" stroke-linecap="round" stroke-linejoin="round"/>
</g>
<defs>
<clipPath id="clip0_313_2855">
<rect width="20" height="20" fill="white"/>
</clipPath>
</defs>
</svg>
