<svg width="22" height="22" viewBox="0 0 22 22" fill="none" xmlns="http://www.w3.org/2000/svg">
<path d="M3.93306 0C1.77255 0 0 1.79893 0 4.04493V16.9564C0 19.2024 1.77255 21.0014 3.93306 21.0014H8.65558C9.08895 21.0014 9.44025 20.6356 9.44025 20.1843C9.44025 19.7331 9.08895 19.3673 8.65558 19.3673H3.93306C2.61631 19.3673 1.56935 18.2762 1.56935 16.9564V4.04493C1.56935 2.72516 2.61631 1.63411 3.93306 1.63411H12.7486C14.0653 1.63411 15.1122 2.72516 15.1122 4.04493V7.11142C15.1122 7.56266 15.4635 7.92848 15.8969 7.92848C16.3303 7.92848 16.6816 7.56266 16.6816 7.11142V4.04493C16.6816 1.79893 14.909 0 12.7486 0H3.93306Z" fill="#FF8926"/>
<path d="M11.2954 4.66016C10.862 4.66016 10.5107 5.02596 10.5107 5.47721C10.5107 5.92846 10.862 6.29427 11.2954 6.29427H12.7485C13.1819 6.29427 13.5332 5.92846 13.5332 5.47721C13.5332 5.02596 13.1819 4.66016 12.7485 4.66016H11.2954Z" fill="#FF8926"/>
<path d="M18.8641 14.0313C18.5779 13.7432 18.1216 13.7512 17.8448 14.0492L15.3995 16.6825L14.3942 15.6702C14.108 15.3821 13.6516 15.3901 13.3749 15.688C13.0983 15.986 13.1059 16.4612 13.3921 16.7493L14.9157 18.2832C15.0531 18.4216 15.2377 18.4975 15.4288 18.4941C15.6199 18.4908 15.802 18.4085 15.9348 18.2654L18.8811 15.0926C19.1579 14.7946 19.1501 14.3193 18.8641 14.0313Z" fill="#FF8926"/>
<path fill-rule="evenodd" clip-rule="evenodd" d="M21.9998 15.9468C21.9998 19.2894 19.3975 21.9991 16.1874 21.9991C12.9773 21.9991 10.375 19.2894 10.375 15.9468C10.375 12.6043 12.9773 9.89453 16.1874 9.89453C19.3975 9.89453 21.9998 12.6043 21.9998 15.9468ZM16.1874 20.365C18.5307 20.365 20.4304 18.3868 20.4304 15.9468C20.4304 13.5068 18.5307 11.5286 16.1874 11.5286C13.8441 11.5286 11.9443 13.5068 11.9443 15.9468C11.9443 18.3868 13.8441 20.365 16.1874 20.365Z" fill="#FF8926"/>
<path fill-rule="evenodd" clip-rule="evenodd" d="M6.88752 4.23828C6.62994 4.23828 6.38876 4.36992 6.24221 4.59049L4.23173 7.61662C3.58405 8.59151 3.67056 9.7191 4.23173 10.5638C4.78112 11.3906 5.75806 11.9247 6.88752 11.9247C8.01699 11.9247 8.99394 11.3906 9.54333 10.5638C10.1045 9.7191 10.1909 8.59151 9.54333 7.61662L7.53283 4.5905C7.38629 4.36992 7.14511 4.23828 6.88752 4.23828ZM5.52235 8.54631L6.88752 6.49148L8.25274 8.54631C8.49907 8.91705 8.4728 9.3027 8.25274 9.634C8.02007 9.98419 7.54487 10.2906 6.88752 10.2906C6.23018 10.2906 5.75498 9.98419 5.52235 9.634C5.30219 9.3027 5.27602 8.91705 5.52235 8.54631Z" fill="#FF8926"/>
</svg>
