<svg width="17" height="22" viewBox="0 0 17 22" fill="none" xmlns="http://www.w3.org/2000/svg">
<path d="M11.9167 0H4.58334C3.36776 0 2.20197 0.44574 1.34243 1.23916C0.482888 2.03259 2.53742e-06 3.1087 2.53742e-06 4.23077V9.8718C-0.00110983 10.8467 0.363541 11.7919 1.03198 12.5467C1.70041 13.3015 2.63139 13.8194 3.66667 14.0123V18.8974C3.66667 19.7203 4.02078 20.5094 4.65112 21.0913C5.28145 21.6731 6.13636 22 7.02778 22H9.47222C10.3636 22 11.2186 21.6731 11.8489 21.0913C12.4792 20.5094 12.8333 19.7203 12.8333 18.8974V14.0123C13.8686 13.8194 14.7996 13.3015 15.468 12.5467C16.1365 11.7919 16.5011 10.8467 16.5 9.8718V4.23077C16.5 3.1087 16.0171 2.03259 15.1576 1.23916C14.298 0.44574 13.1322 0 11.9167 0ZM11 18.8974C11 19.2715 10.839 19.6302 10.5525 19.8946C10.266 20.1591 9.87742 20.3077 9.47222 20.3077H7.02778C6.62259 20.3077 6.23399 20.1591 5.94748 19.8946C5.66096 19.6302 5.5 19.2715 5.5 18.8974V13.2564C5.5 12.8824 5.66096 12.5237 5.94748 12.2592C6.23399 11.9947 6.62259 11.8462 7.02778 11.8462H9.47222C9.87742 11.8462 10.266 11.9947 10.5525 12.2592C10.839 12.5237 11 12.8824 11 13.2564V18.8974ZM14.6667 9.8718C14.6644 10.4254 14.4661 10.9632 14.102 11.4031C13.738 11.8431 13.228 12.1611 12.65 12.3087C12.437 11.6845 12.0142 11.1391 11.4428 10.7516C10.8714 10.3642 10.1812 10.1548 9.47222 10.1538H7.02778C6.31879 10.1548 5.62856 10.3642 5.05717 10.7516C4.48579 11.1391 4.06296 11.6845 3.85 12.3087C3.27196 12.1611 2.76205 11.8431 2.39797 11.4031C2.03389 10.9632 1.83561 10.4254 1.83334 9.8718V4.23077C1.83334 3.55753 2.12307 2.91186 2.63879 2.43581C3.15452 1.95975 3.85399 1.69231 4.58334 1.69231H11.9167C12.646 1.69231 13.3455 1.95975 13.8612 2.43581C14.3769 2.91186 14.6667 3.55753 14.6667 4.23077V9.8718Z" fill="#FF8926"/>
<path d="M8.24982 3.38309C7.31739 3.3782 6.3974 3.58071 5.56769 3.97347C4.73799 4.36623 4.02297 4.93769 3.48315 5.6395C3.35814 5.81927 3.31254 6.03644 3.35574 6.24631C3.39894 6.45618 3.52765 6.64278 3.71537 6.7677C3.86537 6.86684 4.04428 6.92188 4.22871 6.92565C4.37689 6.9248 4.52276 6.89165 4.65444 6.82891C4.78612 6.76618 4.89989 6.67563 4.98649 6.56463C5.35217 6.07824 5.84001 5.68083 6.4083 5.40636C6.9766 5.13189 7.60844 4.98852 8.24982 4.98852C8.8912 4.98852 9.52304 5.13189 10.0913 5.40636C10.6596 5.68083 11.1475 6.07824 11.5132 6.56463C11.5765 6.66581 11.6619 6.75378 11.7639 6.82299C11.8659 6.89221 11.9823 6.94117 12.1058 6.96679C12.2294 6.9924 12.3573 6.99413 12.4816 6.97185C12.6059 6.94956 12.7238 6.90376 12.8279 6.83732C12.9321 6.77089 13.0202 6.68525 13.0867 6.58582C13.1532 6.48639 13.1967 6.37532 13.2144 6.25961C13.2322 6.14389 13.2237 6.02605 13.1896 5.9135C13.1556 5.80095 13.0966 5.69613 13.0165 5.60565C12.4727 4.91008 11.7559 4.34518 10.9264 3.95843C10.097 3.57167 9.17905 3.37436 8.24982 3.38309Z" fill="#FF8926"/>
<path d="M8.2497 5.64062C7.6026 5.64278 6.96972 5.81608 6.42602 6.14001C5.88232 6.46393 5.45058 6.92489 5.18193 7.46832C5.13109 7.5704 5.10279 7.6808 5.09867 7.79308C5.09455 7.90536 5.11469 8.01728 5.15793 8.1223C5.20116 8.22731 5.26662 8.32334 5.35048 8.40476C5.43434 8.48618 5.53493 8.55137 5.64637 8.59652C5.76398 8.65052 5.89393 8.6776 6.02526 8.6755C6.20008 8.67219 6.37044 8.62399 6.51724 8.53631C6.66404 8.44863 6.78147 8.32493 6.85637 8.17909C6.97712 7.93127 7.17286 7.72093 7.42004 7.57337C7.66723 7.42581 7.95533 7.3473 8.2497 7.3473C8.54408 7.3473 8.83218 7.42581 9.07937 7.57337C9.32655 7.72093 9.52229 7.93127 9.64304 8.17909C9.69279 8.28057 9.76372 8.37202 9.85176 8.44821C9.93981 8.5244 10.0432 8.58383 10.1562 8.62312C10.2691 8.6624 10.3893 8.68077 10.5099 8.67718C10.6305 8.67358 10.7492 8.64809 10.8591 8.60216C10.9691 8.55623 11.0682 8.49077 11.1507 8.40949C11.2332 8.32822 11.2976 8.23274 11.3402 8.1285C11.3827 8.02426 11.4026 7.91331 11.3987 7.80197C11.3949 7.69063 11.3672 7.58109 11.3175 7.4796C11.0519 6.93322 10.6212 6.46913 10.0771 6.14296C9.53295 5.81679 8.89848 5.64238 8.2497 5.64062Z" fill="#FF8926"/>
</svg>
