<svg width="24" height="24" viewBox="0 0 24 24" fill="none" xmlns="http://www.w3.org/2000/svg">
<path d="M3.00006 12C3.00006 13.1819 3.23285 14.3522 3.68514 15.4442C4.13744 16.5361 4.80037 17.5282 5.6361 18.364C6.47183 19.1997 7.46398 19.8626 8.55591 20.3149C9.64784 20.7672 10.8182 21 12.0001 21C13.182 21 14.3523 20.7672 15.4442 20.3149C16.5361 19.8626 17.5283 19.1997 18.364 18.364C19.1997 17.5282 19.8627 16.5361 20.315 15.4442C20.7673 14.3522 21.0001 13.1819 21.0001 12" stroke="black" stroke-width="1.5" stroke-linecap="round" stroke-linejoin="round"/>
<path d="M15.0001 12L12.0001 15L9.00006 12" stroke="black" stroke-width="1.5" stroke-linecap="round" stroke-linejoin="round"/>
<path d="M12.0001 15L12.0001 1" stroke="black" stroke-width="1.5" stroke-linecap="round" stroke-linejoin="round"/>
</svg>
