<svg width="25" height="24" viewBox="0 0 25 24" fill="none" xmlns="http://www.w3.org/2000/svg">
<path d="M3.66663 12C3.66663 13.1819 3.89942 14.3522 4.35171 15.4442C4.804 16.5361 5.46694 17.5282 6.30267 18.364C7.13839 19.1997 8.13054 19.8626 9.22247 20.3149C10.3144 20.7672 11.4847 21 12.6666 21C13.8485 21 15.0188 20.7672 16.1108 20.3149C17.2027 19.8626 18.1949 19.1997 19.0306 18.364C19.8663 17.5282 20.5292 16.5361 20.9815 15.4442C21.4338 14.3522 21.6666 13.1819 21.6666 12" stroke="black" stroke-width="1.5" stroke-linecap="round" stroke-linejoin="round"/>
<path d="M9.66663 4L12.6666 0.999999L15.6666 4" stroke="black" stroke-width="1.5" stroke-linecap="round" stroke-linejoin="round"/>
<path d="M12.6666 15L12.6666 1" stroke="black" stroke-width="1.5" stroke-linecap="round" stroke-linejoin="round"/>
</svg>
