<svg width="24" height="24" viewBox="0 0 24 24" fill="none" xmlns="http://www.w3.org/2000/svg">
<path d="M14.4448 14.5694L14.4449 14.5694L14.4419 14.5665C14.3461 14.4768 14.1921 14.3548 14.0087 14.3017C13.8506 14.256 13.6737 14.2634 13.5069 14.3725L12.649 13.5152C12.9061 13.2866 13.2251 13.1371 13.5676 13.0867C13.9585 13.0292 14.3575 13.1041 14.7009 13.2996L14.7999 13.356L14.8808 13.2757L15.6473 12.5144L15.7286 12.4336L15.672 12.3339C15.4767 11.9904 15.4019 11.5916 15.4593 11.2007C15.5095 10.8583 15.6587 10.5393 15.8869 10.282L16.7441 11.1391C16.6974 11.2107 16.6685 11.2857 16.6554 11.3621C16.6352 11.4796 16.6539 11.5903 16.6873 11.685C16.7526 11.8704 16.8814 12.0152 16.9415 12.0761L17.3583 12.5001L14.869 14.9894L14.4448 14.5694Z" fill="#FF8926" stroke="white" stroke-width="0.3"/>
<mask id="path-2-inside-1_13487_31442" fill="white">
<path d="M19.9958 12.402L20.709 11.6895L18.648 9.62849L18.9 9.37499C19.2643 9.01021 19.4689 8.51576 19.4689 8.00024C19.4689 7.48471 19.2643 6.99026 18.9 6.62549L18.8355 6.56024C18.5271 6.25429 18.1243 6.06161 17.6925 6.01349C17.6444 5.58061 17.4508 5.17687 17.1435 4.86824L17.082 4.80674C16.7737 4.50012 16.3705 4.30712 15.9383 4.25924C15.8904 3.82799 15.698 3.42564 15.3923 3.11774L15.3278 3.05249C15.0195 2.74625 14.6166 2.55352 14.1848 2.50574C14.1366 2.07286 13.9431 1.66912 13.6358 1.36049L13.575 1.30124C13.3949 1.12016 13.1806 0.97656 12.9447 0.878727C12.7087 0.780894 12.4557 0.730766 12.2003 0.731237C11.9446 0.730641 11.6914 0.780783 11.4553 0.878755C11.2192 0.976728 11.0049 1.12058 10.8248 1.30199L10.575 1.55249L9.93227 0.909737L3.29102 7.55774L5.33477 9.59999C5.04971 9.94497 4.89283 10.378 4.89077 10.8255V10.9155C4.89138 11.378 5.05589 11.8254 5.35508 12.1781C5.65427 12.5309 6.06878 12.7662 6.52502 12.8422L9.83252 16.6522V17.9887H8.92502V23.25H19.665V17.9887H19.05V16.689C20.133 15.4815 20.0745 13.305 19.9958 12.402ZM17.8388 7.68674C17.9223 7.77028 17.9692 7.88359 17.9692 8.00174C17.9692 8.11988 17.9223 8.23319 17.8388 8.31674L17.595 8.56049L16.902 7.86674L17.1458 7.62299C17.2298 7.54098 17.3426 7.49508 17.46 7.49508C17.5774 7.49508 17.6902 7.54098 17.7743 7.62299L17.8388 7.68674ZM16.0853 5.93249C16.1688 6.01603 16.2157 6.12934 16.2157 6.24749C16.2157 6.36563 16.1688 6.47894 16.0853 6.56249L15.8415 6.80624L15.15 6.11399L15.3945 5.87024C15.4357 5.82879 15.4846 5.79592 15.5386 5.77352C15.5925 5.75112 15.6504 5.73963 15.7088 5.73974C15.7675 5.73971 15.8257 5.75137 15.8799 5.77403C15.9341 5.7967 15.9833 5.82991 16.0245 5.87174L16.0853 5.93249ZM14.3318 4.17899C14.4153 4.26253 14.4622 4.37584 14.4622 4.49399C14.4622 4.61213 14.4153 4.72544 14.3318 4.80899L14.088 5.05274L13.395 4.35899L13.6388 4.11524C13.7222 4.03216 13.8352 3.98552 13.953 3.98552C14.0708 3.98552 14.1838 4.03216 14.2673 4.11524L14.3318 4.17899ZM11.8853 2.36174C11.9264 2.32019 11.9753 2.2872 12.0293 2.26467C12.0832 2.24214 12.1411 2.23052 12.1995 2.23049C12.3182 2.23138 12.4316 2.2791 12.5153 2.36324L12.5775 2.42474C12.6611 2.50828 12.708 2.62159 12.708 2.73974C12.708 2.85788 12.6611 2.97119 12.5775 3.05474L12.3338 3.29849L11.6408 2.60549L11.8853 2.36174ZM9.93077 3.03224L18.588 11.6887L14.0625 16.2075L10.7093 12.855C11.1907 12.8079 11.6374 12.5836 11.9627 12.2256C12.288 11.8676 12.4686 11.4015 12.4695 10.9177V10.8277C12.4689 10.309 12.2626 9.8116 11.8957 9.44476C11.5289 9.07793 11.0315 8.87158 10.5128 8.87099H8.36177C8.56323 8.57396 8.67801 8.2267 8.69324 7.86811C8.70848 7.50953 8.62356 7.15378 8.44802 6.84074L9.21602 6.07499C9.58852 6.28703 10.0213 6.36834 10.4453 6.30595C10.8694 6.24357 11.2604 6.04108 11.556 5.73074L10.4955 4.66799C10.1843 4.97924 9.83102 4.73399 9.65252 4.56599L9.12227 4.04099L6.43652 6.74249L6.93602 7.27274C7.10927 7.45574 7.35302 7.81049 7.04327 8.12024L7.79327 8.87024H6.84827C6.81002 8.87024 6.77327 8.87924 6.73652 8.88149L5.41127 7.55774L9.93077 3.03224ZM6.39077 10.8285C6.39096 10.7074 6.43915 10.5913 6.52476 10.5057C6.61038 10.4201 6.72644 10.3719 6.84752 10.3717H10.512C10.6331 10.3719 10.7492 10.4201 10.8348 10.5057C10.9204 10.5913 10.9686 10.7074 10.9688 10.8285V10.9185C10.9686 11.0396 10.9204 11.1556 10.8348 11.2412C10.7492 11.3269 10.6331 11.375 10.512 11.3752H6.84827C6.72719 11.375 6.61113 11.3269 6.52551 11.2412C6.4399 11.1556 6.39171 11.0396 6.39152 10.9185L6.39077 10.8285ZM8.53727 12.8752H8.60777L13.725 17.9887H11.3303V16.0927L8.53727 12.8752ZM10.425 21.75V19.4887H12.3C12.9559 19.4894 13.5919 19.7139 14.1029 20.1251C14.6138 20.5363 14.9692 21.1095 15.1103 21.75H10.425ZM18.165 21.75H16.6283C16.5098 20.9114 16.1493 20.1256 15.591 19.4887H18.1673L18.165 21.75ZM14.4 17.9887L18.5018 13.8922C18.5134 14.5874 18.2719 15.2632 17.8223 15.7935L17.5493 16.0185V17.9887H14.4Z"/>
</mask>
<path d="M19.9958 12.402L20.709 11.6895L18.648 9.62849L18.9 9.37499C19.2643 9.01021 19.4689 8.51576 19.4689 8.00024C19.4689 7.48471 19.2643 6.99026 18.9 6.62549L18.8355 6.56024C18.5271 6.25429 18.1243 6.06161 17.6925 6.01349C17.6444 5.58061 17.4508 5.17687 17.1435 4.86824L17.082 4.80674C16.7737 4.50012 16.3705 4.30712 15.9383 4.25924C15.8904 3.82799 15.698 3.42564 15.3923 3.11774L15.3278 3.05249C15.0195 2.74625 14.6166 2.55352 14.1848 2.50574C14.1366 2.07286 13.9431 1.66912 13.6358 1.36049L13.575 1.30124C13.3949 1.12016 13.1806 0.97656 12.9447 0.878727C12.7087 0.780894 12.4557 0.730766 12.2003 0.731237C11.9446 0.730641 11.6914 0.780783 11.4553 0.878755C11.2192 0.976728 11.0049 1.12058 10.8248 1.30199L10.575 1.55249L9.93227 0.909737L3.29102 7.55774L5.33477 9.59999C5.04971 9.94497 4.89283 10.378 4.89077 10.8255V10.9155C4.89138 11.378 5.05589 11.8254 5.35508 12.1781C5.65427 12.5309 6.06878 12.7662 6.52502 12.8422L9.83252 16.6522V17.9887H8.92502V23.25H19.665V17.9887H19.05V16.689C20.133 15.4815 20.0745 13.305 19.9958 12.402ZM17.8388 7.68674C17.9223 7.77028 17.9692 7.88359 17.9692 8.00174C17.9692 8.11988 17.9223 8.23319 17.8388 8.31674L17.595 8.56049L16.902 7.86674L17.1458 7.62299C17.2298 7.54098 17.3426 7.49508 17.46 7.49508C17.5774 7.49508 17.6902 7.54098 17.7743 7.62299L17.8388 7.68674ZM16.0853 5.93249C16.1688 6.01603 16.2157 6.12934 16.2157 6.24749C16.2157 6.36563 16.1688 6.47894 16.0853 6.56249L15.8415 6.80624L15.15 6.11399L15.3945 5.87024C15.4357 5.82879 15.4846 5.79592 15.5386 5.77352C15.5925 5.75112 15.6504 5.73963 15.7088 5.73974C15.7675 5.73971 15.8257 5.75137 15.8799 5.77403C15.9341 5.7967 15.9833 5.82991 16.0245 5.87174L16.0853 5.93249ZM14.3318 4.17899C14.4153 4.26253 14.4622 4.37584 14.4622 4.49399C14.4622 4.61213 14.4153 4.72544 14.3318 4.80899L14.088 5.05274L13.395 4.35899L13.6388 4.11524C13.7222 4.03216 13.8352 3.98552 13.953 3.98552C14.0708 3.98552 14.1838 4.03216 14.2673 4.11524L14.3318 4.17899ZM11.8853 2.36174C11.9264 2.32019 11.9753 2.2872 12.0293 2.26467C12.0832 2.24214 12.1411 2.23052 12.1995 2.23049C12.3182 2.23138 12.4316 2.2791 12.5153 2.36324L12.5775 2.42474C12.6611 2.50828 12.708 2.62159 12.708 2.73974C12.708 2.85788 12.6611 2.97119 12.5775 3.05474L12.3338 3.29849L11.6408 2.60549L11.8853 2.36174ZM9.93077 3.03224L18.588 11.6887L14.0625 16.2075L10.7093 12.855C11.1907 12.8079 11.6374 12.5836 11.9627 12.2256C12.288 11.8676 12.4686 11.4015 12.4695 10.9177V10.8277C12.4689 10.309 12.2626 9.8116 11.8957 9.44476C11.5289 9.07793 11.0315 8.87158 10.5128 8.87099H8.36177C8.56323 8.57396 8.67801 8.2267 8.69324 7.86811C8.70848 7.50953 8.62356 7.15378 8.44802 6.84074L9.21602 6.07499C9.58852 6.28703 10.0213 6.36834 10.4453 6.30595C10.8694 6.24357 11.2604 6.04108 11.556 5.73074L10.4955 4.66799C10.1843 4.97924 9.83102 4.73399 9.65252 4.56599L9.12227 4.04099L6.43652 6.74249L6.93602 7.27274C7.10927 7.45574 7.35302 7.81049 7.04327 8.12024L7.79327 8.87024H6.84827C6.81002 8.87024 6.77327 8.87924 6.73652 8.88149L5.41127 7.55774L9.93077 3.03224ZM6.39077 10.8285C6.39096 10.7074 6.43915 10.5913 6.52476 10.5057C6.61038 10.4201 6.72644 10.3719 6.84752 10.3717H10.512C10.6331 10.3719 10.7492 10.4201 10.8348 10.5057C10.9204 10.5913 10.9686 10.7074 10.9688 10.8285V10.9185C10.9686 11.0396 10.9204 11.1556 10.8348 11.2412C10.7492 11.3269 10.6331 11.375 10.512 11.3752H6.84827C6.72719 11.375 6.61113 11.3269 6.52551 11.2412C6.4399 11.1556 6.39171 11.0396 6.39152 10.9185L6.39077 10.8285ZM8.53727 12.8752H8.60777L13.725 17.9887H11.3303V16.0927L8.53727 12.8752ZM10.425 21.75V19.4887H12.3C12.9559 19.4894 13.5919 19.7139 14.1029 20.1251C14.6138 20.5363 14.9692 21.1095 15.1103 21.75H10.425ZM18.165 21.75H16.6283C16.5098 20.9114 16.1493 20.1256 15.591 19.4887H18.1673L18.165 21.75ZM14.4 17.9887L18.5018 13.8922C18.5134 14.5874 18.2719 15.2632 17.8223 15.7935L17.5493 16.0185V17.9887H14.4Z" fill="#FF8926" stroke="white" stroke-width="0.6" mask="url(#path-2-inside-1_13487_31442)"/>
</svg>
