<svg width="24" height="24" viewBox="0 0 24 24" fill="none" xmlns="http://www.w3.org/2000/svg">
<g clip-path="url(#clip0_13190_17743)">
<path d="M22.875 0.75H4.125C4.02554 0.75 3.93016 0.789509 3.85984 0.859835C3.78951 0.930161 3.75 1.02554 3.75 1.125V5.60475L2.50687 6.01913C2.44626 6.03937 2.39181 6.07476 2.34869 6.12193C2.30558 6.16911 2.27522 6.22651 2.2605 6.2887C2.24578 6.35089 2.24718 6.41581 2.26457 6.47731C2.28196 6.53881 2.31476 6.59485 2.35988 6.64013L2.84475 7.125L0.859875 9.10987C0.789573 9.1802 0.75008 9.27556 0.75008 9.375C0.75008 9.47444 0.789573 9.5698 0.859875 9.64013L2.35988 11.1401C2.39462 11.1751 2.43593 11.2028 2.48143 11.2217C2.52693 11.2406 2.57572 11.2504 2.625 11.2504C2.67428 11.2504 2.72307 11.2406 2.76857 11.2217C2.81407 11.2028 2.85538 11.1751 2.89012 11.1401L4.875 9.15525L5.35988 9.64013C5.4051 9.68516 5.46106 9.71792 5.52247 9.73531C5.58388 9.75269 5.64871 9.75413 5.71084 9.7395C5.77296 9.72486 5.83032 9.69462 5.87751 9.65164C5.92469 9.60866 5.96014 9.55436 5.9805 9.49387L6.1455 9H22.875C22.9745 9 23.0698 8.96049 23.1402 8.89017C23.2105 8.81984 23.25 8.72446 23.25 8.625V1.125C23.25 1.02554 23.2105 0.930161 23.1402 0.859835C23.0698 0.789509 22.9745 0.75 22.875 0.75ZM5.14012 8.35987C5.0698 8.28957 4.97444 8.25008 4.875 8.25008C4.77556 8.25008 4.6802 8.28957 4.60988 8.35987L2.625 10.3448L1.65525 9.375L3.64012 7.39013C3.71043 7.3198 3.74992 7.22444 3.74992 7.125C3.74992 7.02556 3.71043 6.9302 3.64012 6.85987L3.31987 6.53925L4.24013 6.23212H4.24388L6.53213 5.46825L5.4615 8.68125L5.14012 8.35987ZM22.5 8.25H6.39637L7.48087 4.9935C7.50261 4.92745 7.50559 4.85666 7.48949 4.78901C7.47338 4.72137 7.43882 4.65952 7.38965 4.61035C7.34048 4.56118 7.27863 4.52662 7.21099 4.51051C7.14334 4.49441 7.07255 4.49739 7.0065 4.51912L4.5 5.355V1.5H22.5V8.25ZM21.1553 19.125L21.6401 18.6401C21.6851 18.5948 21.7179 18.5388 21.7352 18.4773C21.7525 18.4158 21.7539 18.3509 21.7392 18.2888C21.7245 18.2266 21.6941 18.1692 21.6511 18.1221C21.608 18.0749 21.5537 18.0395 21.4931 18.0191L20.25 17.6047V13.125C20.25 13.0255 20.2105 12.9302 20.1402 12.8598C20.0698 12.7895 19.9745 12.75 19.875 12.75H1.125C1.02554 12.75 0.930161 12.7895 0.859835 12.8598C0.789509 12.9302 0.75 13.0255 0.75 13.125V20.625C0.75 20.7245 0.789509 20.8198 0.859835 20.8902C0.930161 20.9605 1.02554 21 1.125 21H17.8549L18.0195 21.4939C18.0399 21.5544 18.0753 21.6087 18.1225 21.6516C18.1697 21.6946 18.227 21.7249 18.2892 21.7395C18.3513 21.7541 18.4161 21.7527 18.4775 21.7353C18.5389 21.7179 18.5949 21.6852 18.6401 21.6401L19.125 21.1553L21.1099 23.1401C21.1446 23.1751 21.1859 23.2028 21.2314 23.2217C21.2769 23.2406 21.3257 23.2504 21.375 23.2504C21.4243 23.2504 21.4731 23.2406 21.5186 23.2217C21.5641 23.2028 21.6054 23.1751 21.6401 23.1401L23.1401 21.6401C23.2104 21.5698 23.2499 21.4744 23.2499 21.375C23.2499 21.2756 23.2104 21.1802 23.1401 21.1099L21.1553 19.125ZM17.604 20.25H1.5V13.5H19.5V17.355L16.9935 16.5191C16.9274 16.4971 16.8565 16.4939 16.7887 16.5099C16.7209 16.5259 16.659 16.5604 16.6097 16.6097C16.5604 16.659 16.5259 16.7209 16.5099 16.7887C16.4939 16.8565 16.4971 16.9274 16.5191 16.9935L17.604 20.25ZM21.375 22.3447L19.3901 20.3599C19.3554 20.3249 19.3141 20.2972 19.2686 20.2783C19.2231 20.2594 19.1743 20.2496 19.125 20.2496C19.0757 20.2496 19.0269 20.2594 18.9814 20.2783C18.9359 20.2972 18.8946 20.3249 18.8599 20.3599L18.5385 20.6816L17.4679 17.4679L19.7565 18.2321H19.7599L20.6801 18.5392L20.3599 18.8599C20.2896 18.9302 20.2501 19.0256 20.2501 19.125C20.2501 19.2244 20.2896 19.3198 20.3599 19.3901L22.3447 21.375L21.375 22.3447Z" fill="#FF8926"/>
<path d="M10.1589 4.54167H17.1484C17.2362 4.54167 17.3073 4.47054 17.3073 4.38281V3.42969C17.3073 3.34196 17.2362 3.27083 17.1484 3.27083H10.1589C10.0711 3.27083 10 3.34196 10 3.42969V4.38281C10 4.47054 10.0711 4.54167 10.1589 4.54167ZM10.3177 3.58854H16.9896V4.22396H10.3177V3.58854ZM13.0182 5.17708H10.1589C10.0711 5.17708 10 5.24821 10 5.33594V7.24219C10 7.32991 10.0711 7.40104 10.1589 7.40104H13.0182C13.106 7.40104 13.1771 7.32991 13.1771 7.24219V5.33594C13.1771 5.24821 13.106 5.17708 13.0182 5.17708ZM12.8594 7.08333H10.3177V5.49479H12.8594V7.08333ZM15.0833 5.33594V7.24219C15.0833 7.32991 15.1544 7.40104 15.2422 7.40104H17.4661C17.554 7.40104 17.625 7.32991 17.625 7.24219V5.33594C17.625 5.24821 17.554 5.17708 17.4661 5.17708H15.2422C15.1544 5.17708 15.0833 5.24821 15.0833 5.33594ZM15.401 5.49479H17.3073V7.08333H15.401V5.49479ZM14.2891 2.31771H17.1484C17.2362 2.31771 17.3073 2.24658 17.3073 2.15885C17.3073 2.07113 17.2362 2 17.1484 2H14.2891C14.2013 2 14.1302 2.07113 14.1302 2.15885C14.1302 2.24658 14.2013 2.31771 14.2891 2.31771Z" fill="#FF8926"/>
<path d="M5.15885 16.5417H12.1484C12.2362 16.5417 12.3073 16.4705 12.3073 16.3828V15.4297C12.3073 15.342 12.2362 15.2708 12.1484 15.2708H5.15885C5.07105 15.2708 5 15.342 5 15.4297V16.3828C5 16.4705 5.07105 16.5417 5.15885 16.5417ZM5.31771 15.5885H11.9896V16.224H5.31771V15.5885ZM8.01823 17.1771H5.15885C5.07105 17.1771 5 17.2482 5 17.3359V19.2422C5 19.3299 5.07105 19.401 5.15885 19.401H8.01823C8.10603 19.401 8.17708 19.3299 8.17708 19.2422V17.3359C8.17708 17.2482 8.10603 17.1771 8.01823 17.1771ZM7.85938 19.0833H5.31771V17.4948H7.85938V19.0833ZM10.0833 17.3359V19.2422C10.0833 19.3299 10.1544 19.401 10.2422 19.401H12.4661C12.554 19.401 12.625 19.3299 12.625 19.2422V17.3359C12.625 17.2482 12.554 17.1771 12.4661 17.1771H10.2422C10.1544 17.1771 10.0833 17.2482 10.0833 17.3359ZM10.401 17.4948H12.3073V19.0833H10.401V17.4948ZM9.28906 14.3177H12.1484C12.2362 14.3177 12.3073 14.2466 12.3073 14.1589C12.3073 14.0711 12.2362 14 12.1484 14H9.28906C9.20126 14 9.13021 14.0711 9.13021 14.1589C9.13021 14.2466 9.20126 14.3177 9.28906 14.3177Z" fill="#FF8926"/>
</g>
<defs>
<clipPath id="clip0_13190_17743">
<rect width="24" height="24" fill="white"/>
</clipPath>
</defs>
</svg>
