<svg width="22" height="22" viewBox="0 0 22 22" fill="none" xmlns="http://www.w3.org/2000/svg">
<g clip-path="url(#clip0_17236_74126)">
<path d="M3.93306 0C1.77255 0 0 1.79893 0 4.04493V16.9564C0 19.2024 1.77255 21.0014 3.93306 21.0014H8.65558C9.08895 21.0014 9.44025 20.6356 9.44025 20.1843C9.44025 19.7331 9.08895 19.3673 8.65558 19.3673H3.93306C2.61631 19.3673 1.56935 18.2762 1.56935 16.9564V4.04493C1.56935 2.72516 2.61631 1.63411 3.93306 1.63411H12.7486C14.0653 1.63411 15.1122 2.72516 15.1122 4.04493V7.11142C15.1122 7.56266 15.4635 7.92848 15.8969 7.92848C16.3303 7.92848 16.6816 7.56266 16.6816 7.11142V4.04493C16.6816 1.79893 14.909 0 12.7486 0H3.93306Z" fill="#FF8926"/>
<path d="M11.2954 4.65829C10.862 4.65829 10.5107 5.02409 10.5107 5.47534C10.5107 5.92659 10.862 6.2924 11.2954 6.2924H12.7485C13.1819 6.2924 13.5332 5.92659 13.5332 5.47534C13.5332 5.02409 13.1819 4.65829 12.7485 4.65829H11.2954Z" fill="#FF8926"/>
<path fill-rule="evenodd" clip-rule="evenodd" d="M21.6248 16.0523C21.6248 19.3948 19.0225 22.1045 15.8124 22.1045C12.6023 22.1045 10 19.3948 10 16.0523C10 12.7097 12.6023 10 15.8124 10C19.0225 10 21.6248 12.7097 21.6248 16.0523ZM15.8124 20.4704C18.1557 20.4704 20.0554 18.4923 20.0554 16.0523C20.0554 13.6122 18.1557 11.6341 15.8124 11.6341C13.4691 11.6341 11.5693 13.6122 11.5693 16.0523C11.5693 18.4923 13.4691 20.4704 15.8124 20.4704Z" fill="#FF8926"/>
<path fill-rule="evenodd" clip-rule="evenodd" d="M6.88777 4.23656C6.63019 4.23656 6.38901 4.3682 6.24245 4.58877L4.23198 7.61491C3.58429 8.58979 3.6708 9.71738 4.23198 10.562C4.78137 11.3889 5.7583 11.9229 6.88777 11.9229C8.01723 11.9229 8.99418 11.3889 9.54357 10.562C10.1047 9.71738 10.1912 8.58979 9.54357 7.61491L7.53307 4.58878C7.38653 4.3682 7.14535 4.23656 6.88777 4.23656ZM5.5226 8.5446L6.88777 6.48976L8.25298 8.5446C8.49931 8.91533 8.47304 9.30098 8.25298 9.63229C8.02031 9.98247 7.54512 10.2888 6.88777 10.2888C6.23042 10.2888 5.75522 9.98247 5.5226 9.63229C5.30244 9.30098 5.27627 8.91533 5.5226 8.5446Z" fill="#FF8926"/>
<path d="M16 14V18.2M14 16.2H18" stroke="#FF8926" stroke-width="1.3" stroke-linecap="round"/>
</g>
<defs>
<clipPath id="clip0_17236_74126">
<rect width="22" height="22" fill="white"/>
</clipPath>
</defs>
</svg>
