<svg width="25" height="24" viewBox="0 0 25 24" fill="none" xmlns="http://www.w3.org/2000/svg">
<path d="M12.3334 22L12.3334 15" stroke="black" stroke-width="1.5" stroke-linecap="round" stroke-linejoin="round"/>
<path d="M9.33337 19L12.3334 22L15.3334 19" stroke="black" stroke-width="1.5" stroke-linecap="round" stroke-linejoin="round"/>
<path d="M3.33337 12H21.3334" stroke="black" stroke-width="1.5" stroke-linecap="round" stroke-linejoin="round"/>
<path d="M9.33337 12C9.33337 11.2044 9.64944 10.4413 10.2121 9.87868C10.7747 9.31607 11.5377 9 12.3334 9C13.129 9 13.8921 9.31607 14.4547 9.87868C15.0173 10.4413 15.3334 11.2044 15.3334 12" stroke="black" stroke-width="1.5" stroke-linecap="round" stroke-linejoin="round"/>
<path d="M18.3334 12V5C18.3334 4.46957 18.1227 3.96086 17.7476 3.58579C17.3725 3.21071 16.8638 3 16.3334 3H8.33337C7.80294 3 7.29423 3.21071 6.91916 3.58579C6.54409 3.96086 6.33337 4.46957 6.33337 5V12" stroke="black" stroke-width="1.5" stroke-linecap="round" stroke-linejoin="round"/>
<path d="M12.3334 6H12.3434" stroke="black" stroke-width="1.5" stroke-linecap="round" stroke-linejoin="round"/>
</svg>
