<svg width="24" height="24" viewBox="0 0 24 24" fill="none" xmlns="http://www.w3.org/2000/svg">
<path d="M21.0001 5V19C21.0001 19.5304 20.7893 20.0391 20.4143 20.4142C20.0392 20.7893 19.5305 21 19.0001 21H7.00006C6.46963 21 5.96092 20.7893 5.58585 20.4142C5.21077 20.0391 5.00006 19.5304 5.00006 19V5C5.00006 4.46957 5.21077 3.96086 5.58585 3.58579C5.96092 3.21071 6.46963 3 7.00006 3H19.0001C19.5305 3 20.0392 3.21071 20.4143 3.58579C20.7893 3.96086 21.0001 4.46957 21.0001 5Z" stroke="black" stroke-width="1.5" stroke-linecap="round" stroke-linejoin="round"/>
<path d="M10.0001 16H16.0001" stroke="black" stroke-width="1.5" stroke-linecap="round" stroke-linejoin="round"/>
<path d="M11.0001 11C11.0001 11.5304 11.2108 12.0391 11.5858 12.4142C11.9609 12.7893 12.4696 13 13.0001 13C13.5305 13 14.0392 12.7893 14.4143 12.4142C14.7893 12.0391 15.0001 11.5304 15.0001 11C15.0001 10.4696 14.7893 9.96086 14.4143 9.58579C14.0392 9.21071 13.5305 9 13.0001 9C12.4696 9 11.9609 9.21071 11.5858 9.58579C11.2108 9.96086 11.0001 10.4696 11.0001 11Z" stroke="black" stroke-width="1.5" stroke-linecap="round" stroke-linejoin="round"/>
<path d="M3.00006 8H6.00006" stroke="black" stroke-width="1.5" stroke-linecap="round" stroke-linejoin="round"/>
<path d="M3.00006 12H6.00006" stroke="black" stroke-width="1.5" stroke-linecap="round" stroke-linejoin="round"/>
<path d="M3.00006 16H6.00006" stroke="black" stroke-width="1.5" stroke-linecap="round" stroke-linejoin="round"/>
</svg>
