<svg width="25" height="24" viewBox="0 0 25 24" fill="none" xmlns="http://www.w3.org/2000/svg">
<path d="M12.3334 15.0001L20.7184 6.58511C21.1122 6.19126 21.3335 5.65709 21.3335 5.10011C21.3335 4.54312 21.1122 4.00895 20.7184 3.61511C20.3245 3.22126 19.7904 3 19.2334 3C18.6764 3 18.1422 3.22126 17.7484 3.61511L9.33337 12.0001V15.0001H12.3334Z" stroke="black" stroke-width="1.5" stroke-linecap="round" stroke-linejoin="round"/>
<path d="M16.3334 5L19.3334 8" stroke="black" stroke-width="1.5" stroke-linecap="round" stroke-linejoin="round"/>
<path d="M21.3334 12C21.3334 13.1819 21.1006 14.3522 20.6483 15.4442C20.196 16.5361 19.5331 17.5282 18.6973 18.364C17.8616 19.1997 16.8695 19.8626 15.7775 20.3149C14.6856 20.7672 13.5153 21 12.3334 21C11.1515 21 9.98115 20.7672 8.88922 20.3149C7.79729 19.8626 6.80514 19.1997 5.96941 18.364C5.13369 17.5282 4.47075 16.5361 4.01846 15.4442C3.56617 14.3522 3.33337 13.1819 3.33337 12C3.33337 10.8181 3.56617 9.64778 4.01846 8.55585C4.47075 7.46392 5.13369 6.47177 5.96941 5.63604C6.80514 4.80031 7.79729 4.13738 8.88922 3.68508C9.98115 3.23279 11.1515 3 12.3334 3" stroke="black" stroke-width="1.5" stroke-linecap="round" stroke-linejoin="round"/>
</svg>
