<svg width="25" height="24" viewBox="0 0 25 24" fill="none" xmlns="http://www.w3.org/2000/svg">
<path d="M3.66797 12C3.66797 13.1819 3.90076 14.3522 4.35305 15.4442C4.80535 16.5361 5.46828 17.5282 6.30401 18.364C7.13973 19.1997 8.13189 19.8626 9.22382 20.3149C10.3157 20.7672 11.4861 21 12.668 21C13.8499 21 15.0202 20.7672 16.1121 20.3149C17.204 19.8626 18.1962 19.1997 19.0319 18.364C19.8677 17.5282 20.5306 16.5361 20.9829 15.4442C21.4352 14.3522 21.668 13.1819 21.668 12C21.668 10.8181 21.4352 9.64778 20.9829 8.55585C20.5306 7.46392 19.8677 6.47177 19.0319 5.63604C18.1962 4.80031 17.204 4.13738 16.1121 3.68508C15.0202 3.23279 13.8499 3 12.668 3C11.4861 3 10.3157 3.23279 9.22382 3.68508C8.13189 4.13738 7.13973 4.80031 6.30401 5.63604C5.46828 6.47177 4.80535 7.46392 4.35305 8.55585C3.90076 9.64778 3.66797 10.8181 3.66797 12Z" stroke="black" stroke-width="1.5" stroke-linecap="round" stroke-linejoin="round"/>
<path d="M12.668 12L15.668 14" stroke="black" stroke-width="1.5" stroke-linecap="round" stroke-linejoin="round"/>
<path d="M12.668 7V12" stroke="black" stroke-width="1.5" stroke-linecap="round" stroke-linejoin="round"/>
</svg>
