<svg width="22" height="22" viewBox="0 0 22 22" fill="none" xmlns="http://www.w3.org/2000/svg">
<path d="M11.6906 4.44854C12.0492 4.71142 12.1267 5.21511 11.8637 5.57357L10.4421 7.51223H13.1464C13.4497 7.51223 13.7273 7.68274 13.8643 7.9533C14.0015 8.22384 13.9748 8.5485 13.7954 8.79307L11.4345 12.0126C11.1717 12.371 10.6679 12.4485 10.3095 12.1857C9.95103 11.9228 9.87344 11.4191 10.1364 11.0607L11.558 9.122H8.85371C8.55041 9.122 8.27286 8.95147 8.13576 8.68093C7.99865 8.41038 8.02528 8.08572 8.20465 7.84114L10.5656 4.62163C10.8286 4.26315 11.3322 4.18566 11.6906 4.44854Z" fill="#FF8926"/>
<path fill-rule="evenodd" clip-rule="evenodd" d="M2.68292 8.31707C2.68292 3.72368 6.4066 0 11 0C15.5934 0 19.3171 3.72368 19.3171 8.31707C19.3171 11.0987 17.9507 13.5612 15.8562 15.0699C15.3261 15.4517 15.0244 15.9666 15.0244 16.463V17.439C15.0244 18.1799 14.4238 18.7805 13.6829 18.7805H8.31707C7.57619 18.7805 6.97561 18.1799 6.97561 17.439V16.463C6.97561 15.9666 6.67388 15.4517 6.14382 15.0699C4.04925 13.5612 2.68292 11.0987 2.68292 8.31707ZM11 1.60976C7.29565 1.60976 4.29268 4.61272 4.29268 8.31707C4.29268 10.5592 5.39202 12.5445 7.08465 13.7637C7.89927 14.3504 8.58536 15.302 8.58536 16.463V17.1707H13.4146V16.463C13.4146 15.302 14.1007 14.3504 14.9154 13.7637C16.608 12.5445 17.7073 10.5592 17.7073 8.31707C17.7073 4.61272 14.7044 1.60976 11 1.60976Z" fill="#FF8926"/>
<path d="M7.78046 20.3903C7.33595 20.3903 6.97559 20.7507 6.97559 21.1952C6.97559 21.6397 7.33595 22 7.78046 22H14.2195C14.664 22 15.0244 21.6397 15.0244 21.1952C15.0244 20.7507 14.664 20.3903 14.2195 20.3903H7.78046Z" fill="#FF8926"/>
</svg>
