<svg width="22" height="22" viewBox="0 0 16 22" fill="none" xmlns="http://www.w3.org/2000/svg">
<path d="M7.8562 22C5.68711 22 3.7232 21.1205 2.30076 19.6992C0.878501 18.278 0 16.314 0 14.1438C0 10.8942 1.56903 8.9311 3.40531 6.63327C4.74616 4.9557 6.23887 3.08824 7.30519 0.375358C7.42379 0.0718032 7.76655 -0.0779544 8.06911 0.0406423C8.22892 0.102962 8.34652 0.227597 8.40382 0.375358C9.47027 3.08927 10.9629 4.95583 12.3037 6.63224C14.1411 8.931 15.709 10.8931 15.709 14.1435C15.709 16.3126 14.8295 18.2765 13.4082 19.699C11.987 21.1212 10.023 21.9997 7.85281 21.9997L7.8562 22ZM10.8966 14.1449C10.8966 13.8182 11.161 13.5538 11.4877 13.5538C11.8144 13.5538 12.0787 13.8182 12.0787 14.1449C12.0787 15.3108 11.6063 16.3662 10.8424 17.131C10.0785 17.8949 9.02207 18.3683 7.85623 18.3683C7.52957 18.3683 7.2652 18.104 7.2652 17.7773C7.2652 17.4506 7.52954 17.1863 7.85623 17.1863C8.69652 17.1863 9.45642 16.8455 10.0072 16.2957C10.558 15.7449 10.8978 14.985 10.8978 14.1447L10.8966 14.1449ZM3.13601 18.864C4.34418 20.0712 6.01279 20.819 7.85517 20.819C9.69755 20.819 11.367 20.0722 12.5743 18.864C13.7815 17.6558 14.5293 15.9872 14.5293 14.1449C14.5293 11.3002 13.0819 9.48899 11.3862 7.36819C10.2042 5.88963 8.90857 4.26934 7.8551 2.06801C6.8017 4.26926 5.50609 5.88966 4.32396 7.36819C2.6283 9.48904 1.18085 11.2992 1.18085 14.1449C1.18085 15.9873 1.92781 17.6567 3.13601 18.864Z" fill="#FF8926"/>
</svg>
