<svg width="40" height="40" viewBox="0 0 40 40" fill="none" xmlns="http://www.w3.org/2000/svg">
<g clip-path="url(#clip0_15051_17678)">
<rect width="40" height="40" rx="20" fill="white"/>
<path d="M35.9643 22.0076L36.643 23.1355C36.8534 23.4735 37.2001 23.6269 37.632 23.6269H39.3782L37.3339 21.1495L37.0438 20.9844L36.2785 21.2341L35.8906 21.7954L35.9643 22.0076Z" fill="url(#paint0_linear_15051_17678)"/>
<path d="M37.336 21.1501L36.9092 20.6328L35.7812 21.2395L35.9009 21.8519L35.9664 22.0082C35.9407 21.5931 36.6534 21.1112 37.336 21.1501Z" fill="url(#paint1_linear_15051_17678)"/>
<path d="M35.9618 22.0141L35.3515 21.005C35.278 20.8905 35.2578 20.7904 35.2578 20.6737C35.2578 20.5453 35.3125 20.4749 35.5227 20.3635C35.7675 20.2463 36.2603 20.1953 36.7684 20.1953C37.594 20.1953 37.7919 20.4603 37.8762 20.7462C37.8762 20.7462 37.7596 20.6999 37.4854 20.6999C36.6157 20.6999 35.9205 21.122 35.9205 21.7613C35.9205 21.8954 35.9618 22.0141 35.9618 22.0141Z" fill="url(#paint2_linear_15051_17678)"/>
<path d="M33.3438 17.7188H34.1646C34.5108 17.7188 34.6528 17.8604 34.7929 17.9993C34.9532 18.145 35.4393 18.803 36.467 20.0872H35.3547C34.8999 20.0872 34.756 20.0097 34.5801 19.7414L33.3438 17.7188Z" fill="url(#paint3_linear_15051_17678)"/>
<path d="M39.8925 23.3594L39.952 23.5728H39.9531L40.0134 23.3594H40.064L40.1031 23.6267H40.0627L40.0349 23.4086H40.034L39.9717 23.6267H39.9284L39.8678 23.4095H39.8671L39.8393 23.6267H39.8009L39.8398 23.3594H39.8925ZM39.7667 23.3594V23.3937H39.688V23.6266H39.6491V23.3937H39.5703V23.3594H39.7667Z" fill="#334357"/>
<mask id="mask0_15051_17678" style="mask-type:luminance" maskUnits="userSpaceOnUse" x="0" y="16" width="41" height="8">
<path d="M0.453125 23.9062H40.4531V16.9192H0.453125V23.9062Z" fill="white"/>
</mask>
<g mask="url(#mask0_15051_17678)">
<path d="M20.5004 20.0813H20.4912L20.024 21.4019H20.9687L20.5004 20.0813ZM21.3366 22.4424L21.1078 21.7936H19.8847L19.6555 22.4424H19.1334L20.229 19.5548H20.8108L21.8895 22.4424H21.3366ZM25.7681 19.4391H26.2788V19.9218H25.7681V19.4391ZM25.7738 20.2429H26.2729V22.4424H25.7738V20.2429ZM22.0883 19.4389H22.5993V19.9218H22.0883V19.4389ZM22.0942 20.2429H22.5934V22.4424H22.0942V20.2429ZM25.229 19.4417H24.7298V22.4424H25.229V19.4417ZM23.638 21.3698V22.4424H23.1373V20.8081C23.1373 20.651 23.1194 20.352 23.1133 20.2433H23.5164C23.5599 20.2433 23.5724 20.2617 23.5737 20.3046C23.5745 20.3695 23.578 20.5771 23.578 20.5771H23.5894C23.6288 20.482 23.7707 20.1972 24.1854 20.1972C24.3243 20.1972 24.4271 20.242 24.444 20.2488C24.444 20.3435 24.4341 20.5513 24.4291 20.6062C24.426 20.6423 24.4103 20.6541 24.3923 20.6541C24.3753 20.6541 24.3674 20.6502 24.358 20.6464C24.3269 20.6333 24.2543 20.6112 24.1535 20.6112C23.8871 20.6112 23.638 20.8035 23.638 21.3698ZM28.1839 22.4424V21.022C28.1839 20.7508 28.0601 20.5854 27.8278 20.5854C27.5207 20.5854 27.3169 20.9122 27.3169 21.3531V22.4424H26.8175V20.8267C26.8175 20.6488 26.8014 20.3897 26.793 20.2433H27.1942C27.2395 20.2433 27.2524 20.2619 27.2528 20.3026C27.2541 20.3496 27.258 20.5771 27.258 20.5771H27.2694C27.3296 20.4737 27.4833 20.197 27.9435 20.197C28.4179 20.197 28.683 20.5213 28.683 20.8855V22.4424H28.1839ZM29.5654 21.1167H30.4892C30.5083 20.7621 30.3221 20.5635 30.0413 20.5635C29.7473 20.5635 29.5787 20.7761 29.5654 21.1167ZM30.797 21.9594C30.8248 21.9594 30.8329 21.9837 30.835 22.0086C30.8436 22.1025 30.8517 22.3146 30.8504 22.3687C30.797 22.3857 30.5286 22.4844 30.1682 22.4844C29.468 22.4844 29.0468 22.1222 29.0468 21.3424C29.0468 20.6729 29.4059 20.1972 30.0516 20.1972C30.6854 20.1972 30.9868 20.6211 30.9868 21.1473C30.9868 21.2092 30.9801 21.3138 30.9691 21.4527H29.559C29.559 21.8282 29.7983 22.0977 30.2406 22.0977C30.4842 22.0977 30.678 22.0104 30.755 21.9732C30.7703 21.9658 30.7793 21.9594 30.797 21.9594ZM31.9663 22.4844C32.6161 22.4844 32.9271 22.2186 32.9271 21.8236C32.9271 21.4347 32.6509 21.2711 32.3582 21.1744C32.2742 21.1473 32.192 21.1198 32.1152 21.0939C31.9149 21.0277 31.811 20.9406 31.811 20.8107C31.811 20.6736 31.9361 20.5775 32.1959 20.5775C32.4269 20.5775 32.6157 20.6718 32.6905 20.7079C32.7029 20.7136 32.7141 20.7217 32.734 20.7217C32.7497 20.7217 32.7692 20.7118 32.7718 20.6729C32.7769 20.5992 32.7856 20.4656 32.7856 20.3372C32.725 20.3094 32.5065 20.1972 32.155 20.1972C31.6181 20.1972 31.288 20.4765 31.288 20.845C31.288 21.2024 31.5323 21.3656 31.8011 21.4546C31.863 21.4756 31.9779 21.5132 32.045 21.536C32.3256 21.6292 32.4057 21.7138 32.4057 21.845C32.4057 22.0163 32.2233 22.1009 31.9094 22.1009C31.652 22.1009 31.475 22.0065 31.4039 21.9732C31.3895 21.9669 31.381 21.9594 31.3611 21.9594C31.3241 21.9594 31.3235 22.0087 31.323 22.0167C31.3215 22.0404 31.3097 22.2683 31.3097 22.3442C31.3685 22.3695 31.6235 22.4844 31.9663 22.4844ZM2.53889 20.0813H2.5297L2.06229 21.4019H3.0063L2.53889 20.0813ZM3.37485 22.4424L3.14585 21.7936H1.92275L1.69375 22.4424H1.17188L2.26746 19.5546H2.84882L3.92756 22.4424H3.37485ZM11.533 19.4389H12.0435V19.9216H11.533V19.4389ZM11.5389 20.2429H12.0376V22.4424H11.5389V20.2429ZM10.4672 21.3698V22.4424H9.96737V20.8081C9.96737 20.6508 9.94943 20.3518 9.94287 20.2429H10.3462C10.3897 20.2429 10.4026 20.2617 10.4028 20.3044C10.4042 20.3691 10.4081 20.5771 10.4081 20.5771H10.4192C10.4588 20.482 10.6004 20.1972 11.0153 20.1972C11.1537 20.1972 11.2574 20.2418 11.2745 20.2486C11.2745 20.3433 11.2642 20.5511 11.2594 20.6062C11.2561 20.6421 11.2401 20.6537 11.2224 20.6537C11.2056 20.6537 11.197 20.6502 11.1878 20.6464C11.1563 20.6331 11.0839 20.611 10.984 20.611C10.7174 20.611 10.4672 20.8035 10.4672 21.3698ZM6.78014 22.4424V21.0351C6.78014 20.7816 6.67297 20.585 6.41422 20.585C6.12288 20.585 5.9549 20.9039 5.9549 21.3505V22.4424H5.456V21.0307C5.456 20.8002 5.35976 20.585 5.09204 20.585C4.79655 20.585 4.63119 20.9032 4.63119 21.3663V22.4424H4.13119V20.8404C4.13119 20.6335 4.11282 20.3409 4.10691 20.2429H4.50652C4.55158 20.2429 4.56645 20.2578 4.56733 20.3044C4.56842 20.3628 4.57192 20.5771 4.57192 20.5771H4.58329C4.61369 20.5143 4.77795 20.197 5.2364 20.197C5.66356 20.197 5.82695 20.5034 5.86741 20.5979C5.90678 20.5148 6.09641 20.197 6.52664 20.197C6.97415 20.197 7.27949 20.4371 7.27949 20.9196V22.4424H6.78014ZM8.16116 21.1163H9.08526C9.10429 20.7624 8.91881 20.5633 8.63732 20.5633C8.34335 20.5633 8.17516 20.7761 8.16116 21.1163ZM9.39344 21.9594C9.42078 21.9594 9.42909 21.9837 9.43128 22.0086C9.43981 22.1025 9.4479 22.3149 9.44659 22.3687C9.39344 22.3857 9.12507 22.4844 8.76461 22.4844C8.06426 22.4844 7.643 22.1217 7.643 21.342C7.643 20.6733 8.00193 20.1972 8.64825 20.1972C9.28145 20.1972 9.58351 20.6208 9.58351 21.1473C9.58351 21.2092 9.57651 21.3138 9.56536 21.4522H8.15525C8.15525 21.8282 8.39475 22.0977 8.83635 22.0977C9.08023 22.0977 9.27445 22.0104 9.35123 21.9728C9.36654 21.9653 9.37529 21.9594 9.39344 21.9594ZM15.6559 21.3265H15.571C14.9437 21.3265 14.8204 21.5445 14.8204 21.7661C14.8204 21.9472 14.9398 22.1187 15.1743 22.1187C15.4857 22.1187 15.6559 21.8179 15.6559 21.5014V21.3265ZM15.7762 22.4424C15.736 22.4424 15.7025 22.429 15.6981 22.3706C15.6933 22.2989 15.6835 22.16 15.6835 22.16H15.6767C15.6472 22.2005 15.4652 22.4844 15.0083 22.4844C14.5706 22.4844 14.3195 22.1471 14.3195 21.7768C14.3195 21.2635 14.818 21.0056 15.5575 21.0056H15.6559V20.9249C15.6559 20.6946 15.4921 20.5712 15.1859 20.5712C14.9103 20.5712 14.6815 20.6679 14.5925 20.7132C14.5866 20.716 14.5704 20.7254 14.5555 20.7254C14.5319 20.7254 14.5185 20.7107 14.5172 20.6847C14.5133 20.602 14.5048 20.443 14.5035 20.3422C14.5936 20.3079 14.8923 20.197 15.2211 20.197C15.8746 20.197 16.1553 20.5003 16.1553 20.9848V21.8424C16.1553 22.1552 16.1843 22.3599 16.1946 22.4424H15.7762ZM14.0507 21.9594C14.0638 21.9594 14.0824 21.9682 14.0868 22.0067C14.0964 22.1114 14.1003 22.2829 14.1008 22.3367C14.001 22.3859 13.785 22.4844 13.5199 22.4844C12.8536 22.4844 12.4451 22.0977 12.4451 21.3411C12.4451 20.6322 12.8084 20.1972 13.5199 20.1972C13.7559 20.1972 13.9731 20.2794 14.1008 20.345C14.1008 20.4233 14.0931 20.6007 14.0868 20.6753C14.0837 20.7066 14.0686 20.7217 14.0507 20.7217C14.0308 20.7217 14.024 20.7164 14.0122 20.7112C13.8514 20.6324 13.7003 20.5944 13.5643 20.5944C13.1402 20.5944 12.9656 20.8719 12.9656 21.3411C12.9656 21.7593 13.1052 22.0872 13.5643 22.0872C13.7397 22.0872 13.8996 22.0246 13.9986 21.9769C14.0253 21.9645 14.0299 21.9594 14.0507 21.9594ZM17.9538 22.4424V21.022C17.9538 20.7506 17.83 20.5852 17.5982 20.5852C17.2909 20.5852 17.0866 20.9118 17.0866 21.3531V22.4424H16.5877V20.8267C16.5877 20.6488 16.5715 20.3897 16.5636 20.2429H16.9641C17.0098 20.2429 17.0229 20.2619 17.0231 20.3026C17.0242 20.3492 17.028 20.5771 17.028 20.5771H17.0389C17.0997 20.4734 17.2532 20.1967 17.7134 20.1967C18.1885 20.1967 18.4536 20.5213 18.4536 20.8851V22.4424H17.9538Z" fill="#334357"/>
</g>
</g>
<defs>
<linearGradient id="paint0_linear_15051_17678" x1="35.8892" y1="21.1712" x2="35.8892" y2="23.6207" gradientUnits="userSpaceOnUse">
<stop stop-color="#EB2023"/>
<stop offset="0.0963" stop-color="#E92026"/>
<stop offset="0.2039" stop-color="#E31E27"/>
<stop offset="0.2986" stop-color="#E01E26"/>
<stop offset="0.4043" stop-color="#D81F27"/>
<stop offset="0.5" stop-color="#CF2027"/>
<stop offset="0.6" stop-color="#C62127"/>
<stop offset="0.7" stop-color="#B92025"/>
<stop offset="0.8" stop-color="#AE1F23"/>
<stop offset="0.9" stop-color="#A01D22"/>
<stop offset="1" stop-color="#901C1C"/>
</linearGradient>
<linearGradient id="paint1_linear_15051_17678" x1="35.9593" y1="22.0041" x2="37.3203" y2="21.1325" gradientUnits="userSpaceOnUse">
<stop stop-color="#6C221F"/>
<stop offset="0.2491" stop-color="#7F2620"/>
<stop offset="0.4983" stop-color="#982B24"/>
<stop offset="0.7491" stop-color="#B53125"/>
<stop offset="1" stop-color="#CB3327"/>
</linearGradient>
<linearGradient id="paint2_linear_15051_17678" x1="35.8478" y1="21.7752" x2="37.8417" y2="20.6216" gradientUnits="userSpaceOnUse">
<stop stop-color="#E7EBEE"/>
<stop offset="0.2491" stop-color="#DFE4E8"/>
<stop offset="0.4983" stop-color="#CAD1D7"/>
<stop offset="0.7491" stop-color="#A8B5BD"/>
<stop offset="1" stop-color="#93A6AD"/>
</linearGradient>
<linearGradient id="paint3_linear_15051_17678" x1="34.7202" y1="17.7195" x2="34.7202" y2="20.0859" gradientUnits="userSpaceOnUse">
<stop stop-color="#05AEE9"/>
<stop offset="0.0963" stop-color="#00A9E0"/>
<stop offset="0.2039" stop-color="#07A3DC"/>
<stop offset="0.2986" stop-color="#089DD5"/>
<stop offset="0.4043" stop-color="#0A92CC"/>
<stop offset="0.5" stop-color="#0F87C3"/>
<stop offset="0.6" stop-color="#127CB8"/>
<stop offset="0.7" stop-color="#0E70AD"/>
<stop offset="0.8" stop-color="#0F63A3"/>
<stop offset="0.9" stop-color="#135393"/>
<stop offset="1" stop-color="#184485"/>
</linearGradient>
<clipPath id="clip0_15051_17678">
<rect width="40" height="40" rx="20" fill="white"/>
</clipPath>
</defs>
</svg>
