<svg width="39" height="39" viewBox="0 0 39 39" fill="none" xmlns="http://www.w3.org/2000/svg">
<path fill-rule="evenodd" clip-rule="evenodd" d="M0 19.3848C0 8.67969 8.67818 0 19.3832 0V0C30.0883 0 38.7665 8.67969 38.7665 19.3848V19.3848C38.7665 30.0898 30.0883 38.7695 19.3832 38.7695V38.7695C8.67818 38.7695 0 30.0898 0 19.3848V19.3848Z" fill="#0F5197"/>
<path fill-rule="evenodd" clip-rule="evenodd" d="M22.5714 20.4348L32.8558 7H31.3315L21.0132 20.4348H22.5714Z" fill="#E8262A"/>
<path fill-rule="evenodd" clip-rule="evenodd" d="M13.0143 23.1696C12.7366 23.7928 11.0067 25.9044 11.0067 25.9044H13.7415C13.7415 25.9044 13.2221 24.2762 13.1182 23.8967C13.0483 23.619 13.0483 23.2395 13.0483 23.2035L13.0143 23.1696ZM23.4704 23.1696C23.1927 23.7928 21.4627 25.9044 21.4627 25.9044H24.1976C24.1976 25.9044 23.6782 24.2762 23.5743 23.8967C23.5044 23.619 23.5044 23.2395 23.5044 23.2035L23.4704 23.1696ZM26.5191 26.3221C26.9685 27.6386 27.9734 31.1007 28.355 31.3784H25.7919C25.7919 31.3784 25.758 30.859 25.6541 30.4774C25.5502 30.0618 24.6153 27.0832 24.6153 27.0832H20.5299L19.9066 27.9842C19.9066 27.9842 20.6677 30.4074 20.7038 30.5113C20.8077 30.7191 21.1532 31.3763 21.1532 31.3763H18.694L18.624 30.8569C18.5901 30.7191 18.3823 30.0597 18.3823 30.0597C18.3823 30.0597 17.829 30.6491 17.6891 30.9247C17.5152 31.2363 17.4474 31.3741 17.4474 31.3741H15.5075L15.4376 30.8547C15.4036 30.7169 15.1959 29.9898 15.1959 29.9898C15.1959 29.9898 14.6425 30.647 14.5026 30.9247C14.3288 31.2024 14.2609 31.3741 14.2609 31.3741H12.3571C12.3571 31.3741 12.9105 30.8547 13.0843 30.647C13.396 30.2654 14.6086 28.7071 14.6086 28.7071L14.1231 27.0789H10.0717C10.0717 27.0789 7.75238 30.1254 7.68242 30.1954C7.57853 30.2993 6.88528 31.2681 6.88528 31.372H5.67261V30.6109C5.77649 30.541 7.47253 28.3955 9.06681 26.3178C10.4872 24.4819 11.8017 22.6819 11.9056 22.5441C12.1833 22.1286 12.5988 21.2276 12.5988 21.2276H14.7104C14.7104 21.2276 14.7803 22.0586 14.8143 22.2325C14.8842 22.4063 16.1647 26.5956 16.1987 26.6655L16.8919 25.7645L15.6792 22.0247C15.6792 22.0247 15.4015 21.3315 15.2976 21.2276H17.7569C17.7569 21.2276 17.723 21.6092 17.8269 21.8848C17.9307 22.1964 18.4502 24.1003 18.4502 24.1003C18.4502 24.1003 20.1123 21.9887 20.2162 21.8488C20.4239 21.6071 20.4239 21.2255 20.4239 21.2255H22.4677C22.4677 21.2255 22.086 21.5032 21.4288 22.3343L19.0734 25.3468L19.3512 26.3157L19.3851 26.4535L19.5229 26.3157C20.0762 25.5885 22.6055 22.2982 22.7433 21.9866C22.8811 21.7788 23.0549 21.5011 23.1588 21.2255H25.1665C25.1665 21.2255 25.2004 21.8148 25.2704 21.9866L26.5169 26.3157L26.5191 26.3221ZM17.1336 29.5064L17.8608 28.5015C17.7908 28.3976 17.3753 27.151 17.3753 27.151L16.6481 28.0859L17.1336 29.5064Z" fill="white"/>
</svg>
