<svg width="40" height="40" viewBox="0 0 40 40" fill="none" xmlns="http://www.w3.org/2000/svg">
<rect width="40" height="40" rx="20" fill="white"/>
<g clip-path="url(#clip0_15045_19087)">
<path d="M3 10.25V18.884H7.49179C9.25973 18.884 10.8935 18.2595 10.8935 16.4251C10.8935 15.185 10.0058 14.6189 9.02952 14.3226C9.62436 14.0825 10.2992 13.578 10.2992 12.5205C10.2992 11.1669 8.96472 10.25 7.16806 10.25H3ZM5.75173 12.2609H6.76339C7.17522 12.2609 7.48926 12.5855 7.48926 12.915C7.48926 13.2212 7.16294 13.5488 6.76339 13.5488H5.75173V12.2609ZM5.75173 15.3408H7.08712C7.55331 15.3408 7.94451 15.6971 7.94451 16.1044C7.94451 16.5369 7.57863 16.896 7.00619 16.896H5.75173V15.3408Z" fill="#1C252C"/>
<path d="M5.22656 19.8203V28.4543H9.71835C11.4863 28.4543 13.1201 27.8298 13.1201 25.9954C13.1201 24.7553 12.2324 24.1892 11.2561 23.8929C11.8509 23.6528 12.5257 23.1483 12.5257 22.0908C12.5257 20.7373 11.1913 19.8203 9.39462 19.8203H5.22656ZM7.97829 21.8312H8.98995C9.40178 21.8312 9.71582 22.1558 9.71582 22.4853C9.71582 22.7915 9.38951 23.1191 8.98995 23.1191H7.97829V21.8312ZM7.97829 24.9111H9.31368C9.77987 24.9111 10.1711 25.2674 10.1711 25.6747C10.1711 26.1072 9.80519 26.4663 9.23275 26.4663H7.97829V24.9111Z" fill="#1C252C"/>
<path d="M11.1094 18.884V10.25H18.0292V12.3352H13.853V13.4674H17.2441V15.4222H13.853V16.8069H18.0292V18.884H11.1094Z" fill="#1C252C"/>
<path d="M21.7793 19.1278C23.7271 19.1278 25.2851 18.0097 25.2851 16.1977C25.2851 13.2733 21.505 13.7233 21.505 12.8128C21.505 12.4611 21.8725 12.2745 22.2494 12.2745C22.899 12.2745 23.3683 12.7052 23.3683 12.7052L24.9946 11.1468C24.3441 10.5238 23.3168 10 21.933 10C19.8546 10 18.4949 11.2414 18.4949 12.739C18.4949 15.7005 22.2205 15.2707 22.2205 16.1999C22.2205 16.5257 21.9091 16.8534 21.3443 16.8534C20.7031 16.8534 20.1952 16.4638 19.7998 16.1333L18.1641 17.7028C18.8227 18.3485 19.8802 19.1278 21.7793 19.1278Z" fill="#1C252C"/>
<path d="M27.3989 18.884V12.327H25.1328V10.25H32.4168V12.327H30.1507V18.884H27.3989Z" fill="#1C252C"/>
<path d="M13.2109 19.8203H15.9546V24.9925C15.9546 25.5178 16.474 26.0018 17.0155 26.0018C17.5263 26.0018 18.0426 25.5647 18.0426 24.9649V19.8203H20.7782V24.9297C20.7782 26.9572 19.1056 28.5744 16.943 28.5744C14.768 28.5744 13.2109 26.8144 13.2109 24.8193V19.8203Z" fill="#1C252C"/>
<path d="M24.1622 28.4543V25.3691L20.9375 19.8203H23.7134L25.5381 22.7933L27.369 19.8203H30.1513L26.9139 25.4008V28.4543H24.1622Z" fill="#1C252C"/>
<path d="M30.1499 24.5391L28.5312 26.1681V28.3673L30.1499 29.9964H36.9969V24.5391H30.1499Z" fill="#FFED31"/>
<path d="M29.8846 27.2728C29.8846 27.4752 29.7216 27.6393 29.5204 27.6393C29.3193 27.6393 29.1562 27.4752 29.1562 27.2728C29.1562 27.0704 29.3193 26.9062 29.5204 26.9062C29.7216 26.9062 29.8846 27.0704 29.8846 27.2728Z" fill="#1C252C"/>
</g>
<defs>
<clipPath id="clip0_15045_19087">
<rect width="34" height="20" fill="white" transform="translate(3 10)"/>
</clipPath>
</defs>
</svg>
