<svg width="36" height="36" viewBox="0 0 36 36" fill="none" xmlns="http://www.w3.org/2000/svg">
<g clip-path="url(#clip0_22686_263988)">
<path fill-rule="evenodd" clip-rule="evenodd" d="M25.4146 34.3636C26.0448 34.3636 26.5563 33.8522 26.5563 33.222V4.3002C26.5563 2.82975 25.3629 1.63635 23.8925 1.63635H11.7148C10.2444 1.63635 9.05096 2.82975 9.05096 4.3002V33.222C9.05096 33.8522 9.56241 34.3636 10.1927 34.3636H25.4146ZM24.273 32.0803H11.3343V4.3002C11.3343 4.09014 11.5048 3.91965 11.7148 3.91965H23.8925C24.1025 3.91965 24.273 4.09014 24.273 4.3002V32.0803Z" fill="#FF8926"/>
<path fill-rule="evenodd" clip-rule="evenodd" d="M31.5034 34.3636C32.1336 34.3636 32.6451 33.8522 32.6451 33.222V10.389C32.6451 8.91859 31.4517 7.72516 29.9812 7.72516H25.4146C24.7845 7.72516 24.273 8.23664 24.273 8.8668V33.222C24.273 33.8522 24.7845 34.3636 25.4146 34.3636H31.5034ZM30.3618 32.0803H26.5563V10.0085H29.9812C30.1913 10.0085 30.3618 10.1789 30.3618 10.389V32.0803Z" fill="#FF8926"/>
<path fill-rule="evenodd" clip-rule="evenodd" d="M10.1927 34.3636C10.8228 34.3636 11.3343 33.8522 11.3343 33.222V8.8668C11.3343 8.23664 10.8228 7.72516 10.1927 7.72516H5.62606C4.15562 7.72516 2.96222 8.91859 2.96222 10.389V33.222C2.96222 33.8522 3.47367 34.3636 4.10387 34.3636H10.1927ZM9.05099 32.0803H5.24552V10.389C5.24552 10.1789 5.416 10.0085 5.62606 10.0085H9.05099V32.0803Z" fill="#FF8926"/>
<path fill-rule="evenodd" clip-rule="evenodd" d="M2.778 34.3636H33.0257C33.6558 34.3636 34.1673 33.8522 34.1673 33.2219C34.1673 32.5918 33.6558 32.0803 33.0257 32.0803H2.778C2.14781 32.0803 1.63635 32.5918 1.63635 33.2219C1.63635 33.8522 2.14781 34.3636 2.778 34.3636Z" fill="#FF8926"/>
<path fill-rule="evenodd" clip-rule="evenodd" d="M13.6176 23.3277V33.222C13.6176 33.8522 14.129 34.3637 14.7592 34.3637H20.848C21.4782 34.3637 21.9897 33.8522 21.9897 33.222V23.3277C21.9897 22.8224 21.7887 22.3398 21.4326 21.9821C21.0748 21.6259 20.5908 21.4249 20.0869 21.4249C18.9163 21.4249 16.6909 21.4249 15.5203 21.4249C15.0165 21.4249 14.5324 21.6259 14.1747 21.9821C13.8185 22.3398 13.6176 22.8224 13.6176 23.3277ZM19.7064 23.7082V32.0804H15.9009V23.7082H19.7064Z" fill="#FF8926"/>
<path d="M15.1398 18.7611H14.3787C13.9586 18.7611 13.6176 18.4201 13.6176 18V17.2389C13.6176 16.8188 13.9586 16.4778 14.3787 16.4778H15.1398C15.5599 16.4778 15.9009 16.8188 15.9009 17.2389V18C15.9009 18.4201 15.5599 18.7611 15.1398 18.7611Z" fill="#FF8926"/>
<path d="M21.2286 18.7611H20.4675C20.0474 18.7611 19.7064 18.4201 19.7064 18V17.2389C19.7064 16.8188 20.0474 16.4778 20.4675 16.4778H21.2286C21.6487 16.4778 21.9897 16.8188 21.9897 17.2389V18C21.9897 18.4201 21.6487 18.7611 21.2286 18.7611Z" fill="#FF8926"/>
<path d="M15.1398 14.1945H14.3787C13.9586 14.1945 13.6176 13.8536 13.6176 13.4334V12.6723C13.6176 12.2522 13.9586 11.9112 14.3787 11.9112H15.1398C15.5599 11.9112 15.9009 12.2522 15.9009 12.6723V13.4334C15.9009 13.8536 15.5599 14.1945 15.1398 14.1945Z" fill="#FF8926"/>
<path d="M21.2286 14.1945H20.4675C20.0474 14.1945 19.7064 13.8536 19.7064 13.4334V12.6723C19.7064 12.2522 20.0474 11.9112 20.4675 11.9112H21.2286C21.6487 11.9112 21.9897 12.2522 21.9897 12.6723V13.4334C21.9897 13.8536 21.6487 14.1945 21.2286 14.1945Z" fill="#FF8926"/>
<path d="M15.1398 9.62787H14.3787C13.9586 9.62787 13.6176 9.28694 13.6176 8.8668V8.10571C13.6176 7.68558 13.9586 7.3446 14.3787 7.3446H15.1398C15.5599 7.3446 15.9009 7.68558 15.9009 8.10571V8.8668C15.9009 9.28694 15.5599 9.62787 15.1398 9.62787Z" fill="#FF8926"/>
<path d="M21.2286 9.62787H20.4675C20.0474 9.62787 19.7064 9.28694 19.7064 8.8668V8.10571C19.7064 7.68558 20.0474 7.3446 20.4675 7.3446H21.2286C21.6487 7.3446 21.9897 7.68558 21.9897 8.10571V8.8668C21.9897 9.28694 21.6487 9.62787 21.2286 9.62787Z" fill="#FF8926"/>
</g>
<defs>
<clipPath id="clip0_22686_263988">
<rect width="36" height="36" fill="white"/>
</clipPath>
</defs>
</svg>
