<svg width="40" height="40" viewBox="0 0 40 40" fill="none" xmlns="http://www.w3.org/2000/svg">
<rect width="40" height="40" rx="20" fill="#008746"/>
<path d="M4 24.0001V16H7.56005C8.42007 16 9.77009 16 10.5601 16.86C11.3501 17.72 11.3851 19.16 11.3851 19.9751C11.3851 23.3951 9.60508 24.0101 7.28505 24.0001H4ZM6.34004 22.5501H7.11505C7.38607 22.5631 7.6577 22.5463 7.92506 22.5001C8.25551 22.4316 8.55322 22.2537 8.77006 21.9951C8.98691 21.7366 9.11022 21.4124 9.12008 21.0751C9.17208 20.7091 9.19715 20.3397 9.19508 19.9701C9.20413 19.5583 9.17568 19.1466 9.11008 18.74C9.06936 18.3988 8.93235 18.0763 8.71507 17.81C8.50529 17.6349 8.26138 17.5054 7.99883 17.4296C7.73629 17.3539 7.46086 17.3336 7.19005 17.37H6.34004V22.5501Z" fill="white"/>
<path d="M18.5601 24.0001H12.98V16H18.2801V17.355H15.215V19.06H18.1801V20.3901H15.21V22.4201H18.5601V24.0001Z" fill="white"/>
<path d="M25.1501 24.0001H21.8051L19.5601 16H21.9501L23.1951 21.0551C23.3401 21.6301 23.3751 21.7901 23.5001 22.4901C23.6551 21.7451 23.7051 21.6151 23.8401 21.1101L25.2101 16H27.3952L25.1501 24.0001Z" fill="white"/>
<path d="M33.2603 18.925L36.0003 24.0001H33.6853L31.8753 20.6001L30.9002 21.7951V24.0001H28.5952V16H30.9002V19.32L33.3953 16H35.6603L33.2603 18.925Z" fill="white"/>
</svg>
