<svg width="40" height="40" viewBox="0 0 40 40" fill="none" xmlns="http://www.w3.org/2000/svg">
<g clip-path="url(#clip0_324_33298)">
<path d="M38.6648 23.6799C38.424 24.4192 38.224 24.9954 38.1437 25.2079C37.9712 25.6712 37.6426 25.7366 37.2139 25.7366C36.4447 25.7366 35.8592 25.5472 35.5742 25.3155C35.5184 25.267 35.4465 25.1636 35.4939 25.0134C35.582 24.7399 35.7504 24.2491 35.9392 23.6799M30.7894 23.6799C30.0882 24.4349 29.5511 25.0667 29.3187 25.3318C29.07 25.6172 28.7056 25.6763 28.2767 25.6763C27.7517 25.6763 27.1866 25.3896 27.1346 25.362C26.9662 25.2737 26.9621 25.1752 27.0104 24.97L27.1503 24.3865C27.1904 24.2179 27.2584 23.9752 27.3466 23.6806H30.7893L30.7894 23.6799ZM25.3428 23.6799C23.9163 25.7527 22.1088 25.7366 20.1008 25.7366C19.0071 25.7366 16.5742 25.7489 16.5419 23.6799H25.3428ZM5.10884 23.6799C5.45753 23.8911 5.87431 24.0256 6.34341 24.0256C6.88026 24.0256 7.32523 23.868 7.66578 23.6799H12.5913C12.3868 24.6166 9.54137 25.9915 7.13695 25.9915C4.62013 25.9915 2.27185 25.0548 0.997368 23.6786H5.10909L5.10884 23.6799ZM16.3061 20.1562C16.3061 20.4413 15.9856 21.2252 15.9373 21.3411C15.6447 22.0766 14.8837 22.1956 14.3424 22.1956C13.5368 22.1956 13.2603 21.8993 13.2603 21.431C13.2603 21.0692 13.5569 20.4432 13.5971 20.3511C13.9618 19.4998 14.6109 19.4064 15.2522 19.4064C15.7971 19.4064 16.3061 19.6381 16.3061 20.1562ZM9.40515 18.3566C9.40515 17.8145 9.38101 17.0366 8.96832 17.0366C7.6174 17.0366 5.24915 19.1492 5.01273 19.3919C4.83619 19.5717 4.96476 19.5572 5.2012 19.5572H8.23513C9.30884 19.557 9.40515 19.3711 9.40515 18.3566ZM22.6063 18.5522C22.3253 18.5522 21.9048 18.5971 21.7122 18.8664C20.9992 19.8782 20.5263 22.4085 20.5263 23.1112C20.5263 23.5914 20.8549 23.5612 21.288 23.5612C21.5442 23.5612 21.9528 23.5679 22.1817 23.3217C22.811 22.6521 23.352 19.6226 23.352 19.0759C23.352 18.6866 23.3234 18.5522 22.6063 18.5522ZM27.3469 23.6801C27.8157 22.1122 28.8819 19.0316 29.6552 17.2322C29.6954 17.1413 29.7311 17.0659 29.9318 17.0344C30.024 17.02 30.3291 16.9474 30.7534 16.9474C31.0657 16.9474 31.6712 16.9704 31.9716 17.1365C31.9716 17.1365 31.976 17.1317 31.976 17.652C31.976 17.8777 31.9999 18.6424 32.7013 18.6424C33.8917 18.6424 36.0434 16.5577 37.9471 16.5577C39.6223 16.5577 39.9989 17.6145 39.9989 18.4324C39.9989 19.391 39.2215 21.9716 38.6643 23.6809H35.9396C36.3604 22.4007 36.8856 20.726 36.8856 20.2495C36.8856 19.8707 36.7771 19.5878 36.4087 19.5878C34.858 19.5878 32.3971 21.9527 30.7899 23.6822L27.3469 23.6795L27.3469 23.6801ZM16.5425 23.6801V23.6364C16.5425 22.6913 17.3481 20.9594 18.0054 19.3165C18.2898 18.6186 19.4843 16.272 23.5599 16.272C25.2432 16.272 27.3276 16.5417 27.3276 18.4164C27.3276 19.5717 26.2135 22.1075 25.8528 22.8115C25.6885 23.1351 25.5198 23.4237 25.3439 23.6799L16.5425 23.6801ZM7.66556 23.6801C8.05847 23.464 8.31091 23.2104 8.39494 23.117C8.39494 23.117 9.71764 22.9623 10.5631 22.9623C11.3887 22.9623 12.5988 23.0965 12.5988 23.5774C12.5988 23.6104 12.5947 23.6451 12.591 23.6788H7.66548L7.66556 23.6801ZM0.997148 23.6801C0.367796 23.0014 -0.000976562 22.2178 -0.000976562 21.3867C-0.000976562 17.1687 7.9502 13.9919 10.2707 13.9919C12.3586 13.9919 12.643 17.397 12.643 18.6417C12.643 21.3007 11.0481 21.8513 9.27251 21.8513H8.03009C6.7836 21.8513 4.27891 21.7765 4.27891 21.7765C4.07854 21.7722 3.92614 21.7316 3.92614 21.8513C3.92614 22.44 4.36705 23.2326 5.10865 23.6801L0.997148 23.6801Z" fill="#EA1C0A"/>
</g>
<defs>
<clipPath id="clip0_324_33298">
<rect width="40" height="12" fill="white" transform="translate(0 14)"/>
</clipPath>
</defs>
</svg>
