<svg width="40" height="40" viewBox="0 0 40 40" fill="none" xmlns="http://www.w3.org/2000/svg">
<g clip-path="url(#clip0_324_33323)">
<path d="M12.6466 20.4941C12.292 20.1015 12.0557 19.6304 12.0557 19.0415C12.0557 17.903 12.9618 17 14.1043 17H17.8077V18.217H14.1043C13.6709 18.217 13.277 18.5704 13.277 19.0415C13.277 19.4734 13.6316 19.866 14.1043 19.866H16.5469V21.083H14.1043C13.6709 21.083 13.277 21.4363 13.277 21.9075C13.277 22.3393 13.6316 22.7319 14.1043 22.7319H17.8077V23.949H14.1043C12.9618 23.949 12.0557 23.046 12.0557 21.9075C12.0557 21.3971 12.2526 20.8867 12.6466 20.4941ZM22.102 20.2978C22.5353 20.2978 22.9293 20.6511 22.9293 21.1223V23.9882H24.1506V21.1223C24.1506 19.9837 23.2445 19.0808 22.102 19.0808H18.7926V23.9882H20.0139V20.2978H22.102ZM36.3638 23.3993C36.7577 23.7527 37.3093 23.9882 37.8608 23.9882C39.0034 23.9882 39.9883 23.046 39.9883 21.9075V17.0393H38.767V21.9075C38.767 22.3393 38.3336 22.7712 37.9002 22.7712C37.4669 22.7712 37.0335 22.3786 37.0335 21.9075V19.0808H35.7728V21.9075C35.7728 22.3393 35.3394 22.7712 34.9061 22.7712C34.4727 22.7712 34.0393 22.3786 34.0393 21.9075V17.0393H32.818V21.9075C32.818 23.046 33.8029 23.9882 34.9455 23.9882C35.4576 23.9882 36.0092 23.7527 36.3638 23.3993ZM26.6326 18.2563H29.5086C29.942 18.2563 30.336 18.6096 30.336 19.0808C30.336 19.5126 29.9814 19.9052 29.5086 19.9052H27.854V21.1223H29.5086C29.942 21.1223 30.336 21.4756 30.336 21.9467C30.336 22.3786 29.9814 22.7712 29.5086 22.7712H25.3719V23.9882H29.4692C30.6118 23.9882 31.5179 23.0852 31.5179 21.9467C31.5179 21.3971 31.2815 20.8867 30.9269 20.4941C31.2815 20.1015 31.5179 19.6304 31.5179 19.0415C31.5179 17.903 30.6118 17 29.4692 17H25.3719V21.5149H26.5932L26.6326 18.2563Z" fill="#000099"/>
<path d="M10.1251 21.0438V19.9838H0.512164C0.236383 19.9838 0 20.2193 0 20.4941C0 20.769 0.236383 21.0045 0.512164 21.0045H10.1251V21.0438Z" fill="#FF9900"/>
</g>
<defs>
<clipPath id="clip0_324_33323">
<rect width="40" height="7" fill="white" transform="translate(0 17)"/>
</clipPath>
</defs>
</svg>
