<svg width="36" height="36" viewBox="0 0 36 36" fill="none" xmlns="http://www.w3.org/2000/svg">
<g clip-path="url(#clip0_22686_264005)">
<path d="M19.6013 34.4824L19.6052 34.482C20.1524 34.4136 20.6161 33.9304 20.5448 33.3241L20.5446 33.3226C20.4762 32.7754 19.993 32.3117 19.3867 32.3831C18.9209 32.4379 18.4531 32.4381 17.9999 32.4381C10.0157 32.4381 3.53365 25.956 3.53365 17.9718C3.53365 9.98755 10.0157 3.50549 17.9999 3.50549C25.9842 3.50549 32.4662 9.98755 32.4662 17.9718C32.4662 18.414 32.4387 18.8574 32.4106 19.308C32.3429 19.9116 32.8054 20.3919 33.3508 20.46C33.9269 20.532 34.4413 20.0711 34.5101 19.5207L34.5104 19.5179C34.5681 18.9988 34.5681 18.5097 34.5681 18.0052V18C34.5681 8.85879 27.1412 1.43182 17.9999 1.43182C8.85873 1.43182 1.43176 8.85879 1.43176 18C1.43176 27.1412 8.85873 34.5682 17.9999 34.5682C18.5435 34.5682 19.0586 34.5395 19.6013 34.4824Z" fill="#FF8926" stroke="#FF8926" stroke-width="0.5"/>
<path d="M18 7.07446C17.4074 7.07446 16.9491 7.53282 16.9491 8.1254V14.8585C15.6422 15.2953 14.692 16.5222 14.692 18C14.692 19.834 16.1661 21.308 18 21.308C19.4496 21.308 20.7024 20.3588 21.1414 19.051H25.0533C25.6459 19.051 26.1043 18.5926 26.1043 18C26.1043 17.4074 25.6459 16.9491 25.0533 16.9491H21.1432C20.8215 15.9557 20.0385 15.2006 19.051 14.8602V8.1254C19.051 7.53282 18.5926 7.07446 18 7.07446ZM19.2061 18C19.2061 18.677 18.677 19.2061 18 19.2061C17.323 19.2061 16.7939 18.677 16.7939 18C16.7939 17.323 17.323 16.7939 18 16.7939C18.677 16.7939 19.2061 17.323 19.2061 18Z" fill="#FF8926" stroke="#FF8926" stroke-width="0.5"/>
<path d="M19.9521 31.2242C20.3594 31.6314 21.0579 31.6422 21.4786 31.2242L25.0306 27.6722L27.5038 30.1454C27.9246 30.5661 28.607 30.5661 29.0304 30.1454L32.5824 26.5933V27.2245C32.5824 27.8205 33.0652 28.3033 33.6612 28.3033C34.2572 28.3033 34.7401 27.8205 34.7401 27.2245V23.988C34.7401 23.3919 34.2572 22.9091 33.6612 22.9091H30.4247C29.8287 22.9091 29.3459 23.3919 29.3459 23.988C29.3459 24.584 29.8287 25.0667 30.4247 25.0667H31.0559L28.267 27.8556L25.7938 25.3824C25.3731 24.9616 24.6907 24.9616 24.2673 25.3824L19.952 29.6977C19.5312 30.1184 19.5314 30.8008 19.9521 31.2242Z" fill="#FF8926"/>
</g>
<defs>
<clipPath id="clip0_22686_264005">
<rect width="36" height="36" fill="white"/>
</clipPath>
</defs>
</svg>
