<svg width="36" height="36" viewBox="0 0 36 36" fill="none" xmlns="http://www.w3.org/2000/svg">
<g clip-path="url(#clip0_22686_264001)">
<path d="M23.2263 10.4174C23.2313 9.78677 22.9197 9.20062 22.4073 8.84897L25.4873 3.98328L25.4892 3.98023C25.6166 3.77101 25.6513 3.51659 25.5838 3.28129C25.5207 3.03592 25.3525 2.83327 25.1225 2.72686C23.0877 1.74792 21.7205 1.38864 20.6603 1.4359C19.587 1.48375 18.8575 1.94716 18.1061 2.52504C17.5607 2.94486 17.0422 3.34377 16.1141 3.47089C15.1744 3.59959 13.7942 3.45125 11.5369 2.70024C11.1835 2.5832 10.7987 2.70295 10.5708 2.99249C10.3415 3.28369 10.3211 3.68687 10.5178 4.00021L10.5185 4.00122L13.6073 8.85887C13.0971 9.21584 12.7862 9.80346 12.7862 10.4341V10.8484V10.8498C12.7895 11.3107 12.9584 11.7523 13.2575 12.096C10.2747 13.9898 7.99984 16.8208 6.79636 20.1481C5.61031 22.9522 5.59636 26.113 6.75454 28.9255C6.29863 29.6018 6.1741 30.4503 6.42022 31.2311C6.65739 32.3358 7.61202 33.1388 8.7418 33.1808L8.74941 33.181H9.12684H9.13453L9.14214 33.1804C9.88669 33.1244 10.6361 33.1969 11.3552 33.396C13.5663 34.2047 15.9046 34.6012 18.2592 34.5661C20.4821 34.5958 22.6943 34.2361 24.793 33.5045C25.6762 33.2368 26.6004 33.1276 27.5214 33.1806L27.5318 33.181C28.7075 33.1886 29.7309 32.3794 29.9965 31.2347C30.2767 30.4015 30.1375 29.4861 29.6274 28.775C31.3962 22.5541 28.3419 15.1238 22.8902 11.9393C23.112 11.621 23.2309 11.2389 23.2263 10.8473V10.4174ZM14.6641 10.2721H21.314C21.3569 10.2721 21.396 10.2884 21.4265 10.3184C21.4566 10.3498 21.4708 10.3886 21.4694 10.4271L21.4662 10.5149L21.4707 10.5194L21.4693 10.8479C21.4693 10.8893 21.4534 10.9291 21.4239 10.9587C21.3951 10.9874 21.3557 11.0041 21.314 11.0041H14.6641C14.5776 11.0041 14.5088 10.9348 14.5088 10.8488V10.4203C14.5121 10.3373 14.579 10.2721 14.6641 10.2721ZM28.1398 29.8938L28.1448 29.8972L28.15 29.9002C28.2357 29.9506 28.3049 30.0629 28.332 30.2474C28.3585 30.4273 28.3385 30.6412 28.2826 30.8333C28.2631 30.8939 28.1941 31.0734 28.0699 31.2322C27.9514 31.3836 27.8037 31.4916 27.6181 31.4978L27.5905 31.4963C26.432 31.4336 25.2716 31.5788 24.1648 31.9286L24.1617 31.9295C20.1971 33.2512 15.9043 33.2147 11.9637 31.8237L11.9549 31.8207C11.0223 31.5386 10.0466 31.4286 9.07448 31.496H8.72176C8.57277 31.496 8.44276 31.4235 8.33009 31.2936C8.21555 31.1615 8.13093 30.9823 8.08323 30.8103C8.03746 30.6452 8.02329 30.4337 8.0515 30.2474C8.08115 30.0514 8.14819 29.9378 8.21179 29.8964C8.60492 29.65 8.74393 29.1419 8.52499 28.7292L8.52253 28.7247C7.35589 26.6516 7.28294 23.7701 8.37477 20.8064L8.37616 20.8024C9.60989 17.2254 12.2786 14.3229 15.7394 12.7966H20.6472C23.4777 13.9077 25.7682 16.3947 27.1008 19.3772C28.4386 22.3717 28.7998 25.8418 27.7891 28.8763L27.7786 28.9078V28.9124C27.674 29.2818 27.8187 29.6791 28.1398 29.8938ZM20.7446 3.20443C21.3168 3.15764 22.1146 3.33432 23.4791 3.9377L20.5464 8.56015L15.4773 8.55851L13.228 4.98785C14.9135 5.33215 16.1019 5.29829 17.0105 5.07308C17.9825 4.83216 18.6157 4.37576 19.1684 3.97746C19.1808 3.96846 19.1933 3.9595 19.2057 3.95057C19.2269 3.93532 19.2477 3.92023 19.2684 3.90532C19.8056 3.51785 20.1756 3.25095 20.7446 3.20443Z" fill="#FF8926" stroke="#FF8926" stroke-width="0.5"/>
<path d="M10.1338 27.1333C10.5411 27.5405 11.2397 27.5513 11.6604 27.1333L15.2124 23.5812L17.6856 26.0544C18.1064 26.4751 18.7887 26.4751 19.2121 26.0544L22.7642 22.5024V23.1335C22.7642 23.7296 23.2469 24.2124 23.843 24.2124C24.439 24.2124 24.9218 23.7296 24.9218 23.1335V19.897C24.9218 19.301 24.439 18.8182 23.843 18.8182H20.6065C20.0104 18.8182 19.5276 19.301 19.5276 19.897C19.5276 20.4931 20.0104 20.9758 20.6065 20.9758H21.2376L18.4488 23.7647L15.9756 21.2915C15.5549 20.8707 14.8724 20.8707 14.4491 21.2915L10.1338 25.6068C9.71297 26.0275 9.71313 26.7099 10.1338 27.1333Z" fill="#FF8926"/>
</g>
<defs>
<clipPath id="clip0_22686_264001">
<rect width="36" height="36" fill="white"/>
</clipPath>
</defs>
</svg>
