<svg width="36" height="36" viewBox="0 0 36 36" fill="none" xmlns="http://www.w3.org/2000/svg">
<g clip-path="url(#clip0_22686_264010)">
<path d="M8.11992 34.6804H30.6943C31.3841 34.6804 31.9485 34.116 31.9485 33.4262V3.32697C31.9485 2.63719 31.3841 2.07284 30.6943 2.07284H23.2824C22.5926 2.07284 22.0282 2.63719 22.0282 3.32697C22.0282 4.01675 22.5926 4.5811 23.2824 4.5811H29.4402V27.1555H8.12032C7.68136 27.1555 7.25499 27.2433 6.86619 27.3813V5.83504C6.86619 5.14526 7.43054 4.5809 8.12032 4.5809H13.2622C13.952 4.5809 14.5163 4.01655 14.5163 3.32677C14.5163 2.63699 13.952 2.07263 13.2622 2.07263H8.12032C6.05101 2.07263 4.35791 3.76574 4.35791 5.83504V30.9178C4.35791 32.987 6.05061 34.6804 8.11992 34.6804ZM8.11992 29.6638H29.4398V32.1721H8.11992C7.43014 32.1721 6.86578 31.6078 6.86578 30.9179C6.86578 30.2281 7.43014 29.6638 8.11992 29.6638Z" fill="#FF8926"/>
<path d="M9.7413 20.5176C10.2147 20.9911 11.0268 21.0036 11.5159 20.5176L15.6451 16.3884L18.5201 19.2635C19.0093 19.7526 19.8026 19.7526 20.2947 19.2635L24.4239 15.1343V15.868C24.4239 16.5609 24.9852 17.1221 25.6781 17.1221C26.371 17.1221 26.9322 16.5609 26.9322 15.868V12.1055C26.9322 11.4126 26.371 10.8514 25.6781 10.8514H21.9157C21.2228 10.8514 20.6616 11.4126 20.6616 12.1055C20.6616 12.7985 21.2228 13.3597 21.9157 13.3597H22.6494L19.4074 16.6016L16.5323 13.7265C16.0432 13.2374 15.2499 13.2374 14.7577 13.7265L9.74114 18.7431C9.25203 19.2322 9.25219 20.0255 9.7413 20.5176Z" fill="#FF8926"/>
<path d="M18.0061 4.45507C18.6958 4.52405 19.3104 4.0224 19.3793 3.33265C19.4483 2.64291 18.9467 2.02835 18.2569 1.95941C17.5672 1.89042 16.9526 2.39208 16.8836 3.08183C16.8148 3.77157 17.3164 4.38612 18.0061 4.45507Z" fill="#FF8926"/>
</g>
<defs>
<clipPath id="clip0_22686_264010">
<rect width="36" height="36" fill="white"/>
</clipPath>
</defs>
</svg>
