<?xml version="1.0" encoding="utf-8"?>
<!-- Generator: Adobe Illustrator 23.0.1, SVG Export Plug-In . SVG Version: 6.00 Build 0)  -->
<svg version="1.1" id="Layer_1" xmlns="http://www.w3.org/2000/svg" xmlns:xlink="http://www.w3.org/1999/xlink" x="0px" y="0px"
	 width="399.3px" height="65px" viewBox="0 0 399.3 65" style="enable-background:new 0 0 399.3 65;" xml:space="preserve">
<style type="text/css">
	.st0{fill:#54575A;}
	.st1{fill-rule:evenodd;clip-rule:evenodd;fill:#004B84;}
	.st2{fill-rule:evenodd;clip-rule:evenodd;fill:#EEB210;}
	.st3{fill:#004B84;}
	.st4{fill:url(#SVGID_1_);}
	.st5{fill:url(#SVGID_2_);}
	.st6{fill:url(#SVGID_3_);}
	.st7{fill:#565656;}
</style>
<g>
	<polygon class="st0" points="248.4,64.9 247.6,64.9 247.7,64.8 247.6,64.9 247.6,0 248.4,0 248.4,0.1 248.4,0 	"/>
	<path class="st1" d="M14.4,45.3C7.8,40.1,4.6,31.4,7,22.9C10.1,11.5,21.9,4.9,33.2,8l-0.8-0.3C18.8,3.9,4.7,11.9,0.9,25.5
		c-2.7,9.6,0.6,19.4,7.5,25.7L14.4,45.3z"/>
	<path class="st1" d="M36.3,19.1c6.5,5.2,9.7,13.9,7.4,22.4c-3.1,11.3-14.9,18-26.2,14.9l0.8,0.3c13.6,3.8,27.7-4.2,31.5-17.8
		c2.7-9.6-0.6-19.4-7.5-25.7L36.3,19.1z"/>
	<path class="st2" d="M31.4,29.2c-2.9-1.1-3.3-3.5-1-5.4l17.1-12.9c2.3-1.9,2-2.3-0.8-0.9L6.2,27.1c-2.7,1.3-2.6,3.3,0.2,4.5
		l13.1,3.5c2.9,1.1,3.3,3.5,1,5.4l-17.1,13c-2.3,1.8-2,2.3,0.8,0.9l40.3-17.2c2.7-1.3,2.6-3.3-0.2-4.5L31.4,29.2z"/>
	<path class="st1" d="M29.7,12.8c1,0.6,2.2,0.2,2.8-0.7c0.6-1,0.2-2.2-0.8-2.8C30.8,8.7,29.5,9,29,10C28.4,11,28.7,12.2,29.7,12.8z"
		/>
	<path class="st1" d="M34.9,12.3c1,0.6,2.2,0.2,2.8-0.7c0.6-1,0.2-2.2-0.7-2.8c-1-0.6-2.2-0.2-2.8,0.7
		C33.5,10.5,33.9,11.7,34.9,12.3z"/>
	<path class="st1" d="M31.1,17.4c1,0.6,2.2,0.2,2.8-0.7c0.6-1,0.2-2.2-0.7-2.8s-2.2-0.2-2.8,0.8C29.8,15.6,30.1,16.8,31.1,17.4z"/>
	<path class="st1" d="M36.3,16.9c1,0.6,2.2,0.2,2.8-0.8c0.6-1,0.2-2.2-0.7-2.8s-2.2-0.2-2.8,0.7C34.9,15.1,35.3,16.3,36.3,16.9z"/>
	<path class="st1" d="M21,51.6c-1-0.6-2.2-0.2-2.8,0.7c-0.6,1-0.2,2.2,0.7,2.8c1,0.6,2.2,0.2,2.8-0.7C22.3,53.4,22,52.2,21,51.6z"/>
	<path class="st1" d="M15.9,52.1c-1-0.6-2.2-0.2-2.8,0.7c-0.6,1-0.2,2.2,0.7,2.8c1,0.6,2.2,0.2,2.8-0.7
		C17.2,53.9,16.8,52.7,15.9,52.1z"/>
	<path class="st1" d="M19.6,47c-1-0.6-2.2-0.2-2.8,0.8c-0.6,1-0.2,2.2,0.7,2.8s2.2,0.2,2.8-0.7C20.9,48.8,20.6,47.6,19.6,47z"/>
	<path class="st1" d="M14.5,47.5c-1-0.6-2.2-0.2-2.8,0.7c-0.6,1-0.2,2.2,0.7,2.8s2.2,0.2,2.8-0.7C15.8,49.3,15.4,48.1,14.5,47.5z"/>
	<path class="st3" d="M71.5,23.6c-0.1,0.8-0.6,1.1-1.5,1.1h-3.4c-2.5,0-3.3,0.4-4,2.2c-0.5,1.2-1,3.2-1.5,5.7
		c-0.4,2.2-0.7,3.9-0.7,4.9c0,2,0.7,2.5,3.3,2.5c1.9,0,2.3-0.4,2.8-3.1l0.7-3.8h-2.3c-0.9,0-1.1-0.2-1.1-0.8c0-0.2,0-0.4,0.1-0.7
		l0.5-2.2h5.6c1.1,0,1.4,0.3,1.4,1c0,0.2-0.1,0.4-0.1,0.9L69.3,41c-0.5,2.5-1.1,3-3.7,3h-1.9c-3.9,0-4.7-0.2-5.9-1.2
		c-1.1-1-1.7-2.6-1.7-4.6c0-3,1.3-9.4,2.7-13.1c1.1-2.9,2.9-4.2,6.1-4.2H72L71.5,23.6z"/>
	<path class="st3" d="M78.9,42.8c-0.6,1-1,1.1-2.9,1.1c-3,0-4.1-0.8-4.1-2.8c0-0.4,0.1-0.9,0.4-2.4l2.2-11.1c0.1-0.5,0.1-0.7,0.1-1
		c0-0.4-0.1-0.6-0.4-0.7l0.1-0.4h3.5c0.6,0,0.9,0.2,0.9,0.7c0,0.1,0,0.3-0.1,0.6l-2.2,11.3c-0.1,0.3-0.1,0.5-0.1,0.8
		c0,0.7,0.5,1.1,1.7,1.1c1.7,0,2.4-0.5,2.7-2.4l1.9-9.9c0.1-0.5,0.1-0.7,0.1-1c0-0.4-0.1-0.6-0.5-0.7l0.1-0.4h3.6
		c0.5,0,0.8,0.2,0.8,0.7c0,0.1,0,0.3-0.1,0.5l-2.9,14.9c-0.1,0.5-0.1,0.8-0.1,1c0,0.4,0.1,0.6,0.5,0.7L84,43.8h-3.5
		c-0.6,0-0.9-0.3-0.9-0.9c0-0.1,0-0.3,0.1-0.5l0.2-1.1L78.9,42.8z"/>
	<path class="st3" d="M91.9,32.5c0.6-2.9,1.4-3.8,3.3-3.8c1.4,0,2.1,0.6,2.1,1.9c0,0.5-0.1,1-0.2,1.8H91.9z M91.3,35.5h6.4
		c2.2,0,2.8-1.3,2.8-5.5c0-3.3-1.4-4.7-4.8-4.7c-2.7,0-4.3,0.6-5.5,2.1c-1.7,2-3.2,7.5-3.2,11.5c0,3.7,1.5,5,5.8,5
		c2,0,3.1-0.2,4-0.5c0.8-0.3,1-0.6,1.3-2.7l0.5-2.5h-0.3c-0.9,1.3-1.9,1.7-4.5,1.7c-2.3,0-3-0.5-3-2c0-0.4,0.1-0.8,0.1-1.1
		L91.3,35.5z"/>
	<path class="st3" d="M104.2,20.9h3.5c0.6,0,0.8,0.2,0.8,0.7c0,0.2,0,0.3,0,0.5l-3.9,19.5c-0.1,0.5-0.1,0.8-0.1,1
		c0,0.4,0.1,0.6,0.5,0.7l-0.1,0.4h-3.5c-0.6,0-0.8-0.2-0.8-0.8c0-0.2,0-0.5,0.1-0.8l3.8-19.2c0.1-0.5,0.1-0.8,0.1-1
		c0-0.4-0.1-0.6-0.5-0.7L104.2,20.9z"/>
	<path class="st3" d="M111.9,39.9l1.7-8.5c0.3-1.7,0.9-2.2,2.6-2.2c1.5,0,2,0.5,2,1.8c0,0.7-0.2,2-0.4,3.3c-0.3,1.5-0.6,2.8-1,3.7
		c-0.6,1.4-1.4,1.9-3.3,1.9H111.9z M111.2,43.8h3.5c2.5,0,3.6-0.6,4.8-2.8c1.5-2.6,2.6-7.3,2.6-10.9c0-3.4-1.2-4.7-4.1-4.7
		c-1.9,0-2.4,0.2-2.9,1.3l-1,2.1l0.4-2c0-0.2,0.1-0.4,0.1-0.5c0-0.5-0.2-0.6-0.9-0.6h-3.4l-0.1,0.4c0.3,0.1,0.5,0.3,0.5,0.7
		c0,0.2-0.1,0.5-0.1,1l-3.8,19.4c-0.1,0.3-0.1,0.5-0.1,0.6c0,0.5,0.3,0.8,1,0.8h3.3l0.1-0.4c-0.3-0.1-0.5-0.3-0.5-0.7
		c0-0.2,0-0.5,0.1-1L111.2,43.8z"/>
	<path class="st3" d="M130.2,26.5c0.6-1.1,0.9-1.2,3.1-1.2c2.8,0,3.8,0.8,3.8,2.8c0,0.4-0.1,0.9-0.1,1.4l-0.2,1.1l-2.2,11
		c-0.1,0.5-0.1,0.8-0.1,1c0,0.4,0.1,0.6,0.5,0.7l-0.1,0.4h-3.6c-0.5,0-0.8-0.3-0.8-0.8c0-0.1,0-0.4,0.1-0.7l2.1-10.7
		c0.1-0.6,0.2-1.1,0.2-1.3c0-0.9-0.5-1.2-1.7-1.2c-1.7,0-2.3,0.5-2.7,2.6l-2,10c-0.1,0.5-0.1,0.8-0.1,1c0,0.4,0.1,0.6,0.5,0.7
		l-0.1,0.4h-3.6c-0.5,0-0.8-0.2-0.8-0.8c0-0.1,0-0.4,0.1-0.6l3.8-19.3c0.1-0.5,0.1-0.8,0.1-1c0-0.4-0.1-0.6-0.5-0.7l0.1-0.4h3.7
		c0.6,0,0.8,0.2,0.8,0.7c0,0.1,0,0.1-0.1,0.5l-1.2,6.1L130.2,26.5z"/>
	<path class="st3" d="M148.7,33l-1.7,8.5c-0.1,0.4-0.1,0.7-0.1,0.9c0,0.6,0.1,0.8,0.5,1l-0.1,0.4h-3.9c-0.6,0-0.9-0.2-0.9-0.7
		c0-0.1,0-0.3,0.1-0.7l3.8-19.1c0.1-0.4,0.1-0.6,0.1-0.9c0-0.6-0.1-0.8-0.5-0.9l0.1-0.5h3.9c0.7,0,0.9,0.2,0.9,0.7
		c0,0.1,0,0.3-0.1,0.4l-1.4,7.3h5.6l1.2-6.1c0.1-0.4,0.1-0.6,0.1-0.9c0-0.6-0.1-0.8-0.5-0.9l0.1-0.5h4c0.5,0,0.8,0.3,0.8,0.7
		c0,0.1,0,0.2,0,0.4l-3.8,19.4c-0.1,0.4-0.1,0.7-0.1,0.9c0,0.6,0.1,0.8,0.5,1l-0.1,0.4H153c-0.4,0-0.7-0.3-0.7-0.7
		c0-0.1,0-0.3,0.1-0.7l1.8-9.4H148.7z"/>
	<path class="st3" d="M170.3,27.3c0.1-0.3,0.2-0.5,0.2-0.7c0-0.3-0.1-0.5-0.5-0.6l0.1-0.4h3c0.9,0,1.2,0.2,1.2,0.6
		c0,0.1-0.1,0.3-0.1,0.5l-9.9,19.8c-0.1,0.2-0.2,0.5-0.2,0.7c0,0.3,0.2,0.5,0.6,0.7l-0.1,0.4h-3.4c-0.6,0-0.9-0.2-0.9-0.7
		c0-0.2,0.1-0.4,0.2-0.7l3.2-6.3l-2.8-13.1c-0.2-1-0.4-1.3-0.9-1.5l0.1-0.4h3.3c0.8,0,0.9,0.1,1.1,1l1.8,9L170.3,27.3z"/>
	<path class="st3" d="M183.5,29.2l-1.7,8.6c-0.3,1.5-1,2.1-2.5,2.1c-1.5,0-2.2-0.6-2.2-2.1c0-0.3,0.1-0.9,0.2-1.6
		c0.3-1.9,0.7-3.5,1.2-4.8c0.7-1.7,1.4-2.3,3.4-2.3H183.5z M181.3,40.4l-0.4,1.9c-0.1,0.3-0.1,0.6-0.1,0.7c0,0.5,0.2,0.8,0.8,0.8
		h3.6l0.1-0.4c-0.3-0.1-0.5-0.3-0.5-0.7c0-0.2,0-0.5,0.1-1l3.8-19.4c0.1-0.3,0.1-0.5,0.1-0.6c0-0.5-0.2-0.8-0.9-0.8h-3.4l-0.1,0.4
		c0.4,0.1,0.5,0.3,0.5,0.7c0,0.2,0,0.5-0.1,1l-0.5,2.5h-2.4c-3.2,0-4.9,0.9-6.2,3.3c-1.3,2.4-2.5,7.4-2.5,10.7c0,3,1.3,4.4,4,4.4
		c2.1,0,2.4-0.1,2.9-1.1L181.3,40.4z"/>
	<path class="st3" d="M199.3,27.9c-0.2,1-0.6,1.3-1.7,1.3h-1.5c-1.6,0-2.1,0.5-2.5,2.7l-1.9,9.7c-0.1,0.5-0.1,0.8-0.1,1
		c0,0.4,0.2,0.6,0.5,0.7l-0.1,0.4h-3.6c-0.5,0-0.7-0.2-0.7-0.7c0-0.1,0-0.3,0.1-0.6l2.9-14.9c0.1-0.5,0.1-0.7,0.1-1
		c0-0.4-0.1-0.6-0.5-0.7l0.1-0.4h3.5c0.6,0,0.8,0.2,0.8,0.7c0,0.2,0,0.3-0.1,0.5l-0.3,1.4l1.1-1.8c0.3-0.5,0.4-0.6,0.6-0.7
		c0.1-0.1,0.2-0.1,0.4-0.1s0.3,0,0.5,0h2.9L199.3,27.9z"/>
	<path class="st3" d="M207,28.5c1.4,0,2.1,0.7,2.1,2.1c0,5.5-2.1,10.1-4.6,10.1c-1.4,0-2.1-0.8-2.1-2.2
		C202.4,33,204.5,28.5,207,28.5z M207.9,25.2h-0.3c-3.3,0-5.3,0.8-6.4,2.6c-0.8,1.3-1.4,3.5-2.1,6.5c-0.4,2.2-0.7,4-0.7,5.2
		c0,3.2,1.7,4.7,5.2,4.7c3.9,0,6-1.2,7.1-3.9c0.6-1.4,1.2-3.7,1.7-6c0.3-1.8,0.6-3.5,0.6-4.4C213,26.6,211.5,25.2,207.9,25.2z"/>
	
		<linearGradient id="SVGID_1_" gradientUnits="userSpaceOnUse" x1="60.0833" y1="68.5478" x2="61.0833" y2="68.5478" gradientTransform="matrix(19.4417 0 0 -19.4417 -788.2355 1339.1304)">
		<stop  offset="0" style="stop-color:#71802E"/>
		<stop  offset="8.621209e-03" style="stop-color:#74832E"/>
		<stop  offset="0.1398" style="stop-color:#99A82C"/>
		<stop  offset="0.2613" style="stop-color:#B3C42B"/>
		<stop  offset="0.3685" style="stop-color:#C3D42A"/>
		<stop  offset="0.45" style="stop-color:#C9DA2A"/>
		<stop  offset="1" style="stop-color:#E1E319"/>
	</linearGradient>
	<path class="st4" d="M379.9,6.1c0,0,1.2,2.5,6.2,0.3s13.3-5.9,13.3-5.9l-2.8,7.3c0,0-6.5,2.9-8.2,3.7c-5,2.2-6.2-0.3-6.2-0.3
		L379.9,6.1z"/>
	
		<linearGradient id="SVGID_2_" gradientUnits="userSpaceOnUse" x1="60.0832" y1="68.5478" x2="61.0832" y2="68.5478" gradientTransform="matrix(12.0986 0 0 -12.0986 -359.0827 833.6397)">
		<stop  offset="0" style="stop-color:#71802E"/>
		<stop  offset="8.621209e-03" style="stop-color:#74832E"/>
		<stop  offset="0.1398" style="stop-color:#99A82C"/>
		<stop  offset="0.2613" style="stop-color:#B3C42B"/>
		<stop  offset="0.3685" style="stop-color:#C3D42A"/>
		<stop  offset="0.45" style="stop-color:#C9DA2A"/>
		<stop  offset="1" style="stop-color:#E1E319"/>
	</linearGradient>
	<path class="st5" d="M379.9,6.3c0,0-1.2-2.5-6.2-0.3l-5.9,2.6l2.8-7.3l0.9-0.4c5-2.2,6.2,0.3,6.2,0.3L379.9,6.3z"/>
	
		<linearGradient id="SVGID_3_" gradientUnits="userSpaceOnUse" x1="60.0833" y1="68.5478" x2="61.0833" y2="68.5478" gradientTransform="matrix(22.2101 0 0 -22.2101 -972.2258 1539.1254)">
		<stop  offset="0" style="stop-color:#71802E"/>
		<stop  offset="8.621209e-03" style="stop-color:#74832E"/>
		<stop  offset="0.1398" style="stop-color:#99A82C"/>
		<stop  offset="0.2613" style="stop-color:#B3C42B"/>
		<stop  offset="0.3685" style="stop-color:#C3D42A"/>
		<stop  offset="0.45" style="stop-color:#C9DA2A"/>
		<stop  offset="1" style="stop-color:#E1E319"/>
	</linearGradient>
	<path class="st6" d="M384.4,16.4c0,0-1.2-2.5-6.2-0.3l-16,7.1l2.8-7.3l11-4.9c5-2.2,6.2,0.3,6.2,0.3L384.4,16.4z"/>
	<path class="st7" d="M366.1,44.9h-3.8v-17l3.8-0.9v3.3h0c1.1-1.9,2.1-3.9,6-3.9v4c-1.9,0-3.4,0.5-4.5,1.6c-1.5,1.5-1.5,3.2-1.5,6.3
		V44.9z"/>
	<path class="st7" d="M389.7,32.7c0-2.2-0.2-6.3-7.6-6.3c-5.7,0-7.4,2.8-7.7,5.4h3.8c0.1-0.9,1-2.6,4.2-2.6c3.4,0,3.4,2.4,3.4,3.4
		c0,0-2.9,0.7-6.2,1.5c-5.3,1.2-6,4.1-6,5.8c0,2.8,1.9,5.6,8.1,5.6c8,0,8-3.2,8-7.8V32.7z M385.8,38.6c0,2.5,0,3.6-4.1,3.6
		c-3.8,0-4.1-1.3-4.1-2.7c0-1.2,0.4-2.2,3.4-2.8c2.4-0.5,4.8-1.1,4.8-1.1V38.6z"/>
	<path class="st7" d="M335,32.6c0-0.9,0-3.4,3.4-3.4c3.2,0,3.6,1.6,3.9,3.6l3.7-0.9c-0.3-2.6-1.5-5.5-7.2-5.5
		c-7.4,0-7.6,4.1-7.6,6.3v4.9c0,4.6,0,7.8,7.4,7.8c5.7,0,7.3-2.7,7.4-5.5H342c-0.2,1.2-0.6,2.3-3.5,2.3c-3.1,0-3.5-1.1-3.5-3.6V32.6
		z"/>
	<path class="st7" d="M357.7,44.9c-0.9,0.2-1.9,0.2-2.9,0.2c-2.5,0-4.9-0.3-4.9-4.7V23.3l3.8-0.9V27h4.7v1.9l-4.7,1.1v8.5
		c0,2.2,0,3.5,2.4,3.5c0.6,0,1.1-0.1,1.6-0.1V44.9z"/>
	<polygon class="st7" points="307.1,19.1 303.3,20.1 303.3,44.9 307.1,44.9 	"/>
	<path class="st7" d="M311.5,39.2c0,2.2,0.2,6.3,7.6,6.3c5.7,0,7.4-2.8,7.7-5.4h-3.8c-0.1,0.9-1,2.6-4.2,2.6c-3.4,0-3.4-2.4-3.4-3.3
		c0,0,2.9-0.7,6.2-1.5c5.3-1.2,6-4.1,6-5.8c0-2.8-1.9-5.6-8.1-5.6c-8,0-8,3.2-8,7.8V39.2z M315.3,33c0-2.5,0-3.6,4.1-3.6
		c3.8,0,4.2,1.3,4.2,2.6c0,1.2-0.5,2.3-3.5,3c-2.4,0.5-4.8,1.1-4.8,1.1V33z"/>
	<path class="st7" d="M298.9,32.7c0-2.2-0.2-6.3-7.6-6.3c-5.7,0-7.4,2.8-7.7,5.4h3.8c0.1-0.9,1-2.6,4.2-2.6c3.4,0,3.4,2.4,3.4,3.4
		c0,0-2.9,0.7-6.2,1.5c-5.3,1.2-6,4.1-6,5.8c0,2.8,1.9,5.6,8.1,5.6c8,0,8-3.2,8-7.8V32.7z M295,38.6c0,2.5,0,3.6-4.1,3.6
		c-3.8,0-4.1-1.3-4.1-2.7c0-1.2,0.4-2.2,3.4-2.8c2.4-0.5,4.8-1.1,4.8-1.1V38.6z"/>
	<path class="st7" d="M350.2,52.6H349l0,0l0,0v-1.7h1.2l0,0l0,0V52.6z M350.2,54.8L350.2,54.8L350.2,54.8H349v10l0,0l0,0h1.2V54.8z"
		/>
	<path class="st7" d="M359.4,52.6h-1.2l0,0l0,0v-1.7h1.2l0,0l0,0V52.6z M359.4,54.8L359.4,54.8L359.4,54.8h-1.2v10l0,0l0,0h1.2V54.8
		z"/>
	<path class="st7" d="M370,52.6h-1.2l0,0l0,0v-1.7h1.2l0,0l0,0V52.6z M370,54.8L370,54.8L370,54.8h-1.2v10l0,0l0,0h1.2V54.8z"/>
	<polygon class="st7" points="354.8,64.8 353.6,64.8 353.6,64.8 353.6,64.8 353.6,50.9 354.8,50.9 354.8,50.9 354.8,50.9 	"/>
	<path class="st7" d="M339.7,54.8v10h-1.2v-1.6c-1.1,1.1-2,1.8-3.5,1.8c-2.1,0-3-1.2-3-3.4v-6.8h1.2v6.7c0,1.7,0.5,2.6,2.1,2.6
		c1.3,0,2-0.8,3.3-1.9v-7.4H339.7z"/>
	<path class="st7" d="M343.3,54.8v-3.3h1.2v3.3h2.2v0.9h-2.2V63c0,0.7,0.3,1,1,1c0.4,0,0.8-0.1,1.2-0.2v1c-0.4,0.1-0.8,0.2-1.2,0.2
		c-1.7,0-2.2-0.5-2.2-1.8v-7.5h-1.5v-0.9H343.3z"/>
	<path class="st7" d="M363.2,54.8v-3.3h1.2v3.3h2.2v0.9h-2.2V63c0,0.7,0.3,1,1,1c0.4,0,0.8-0.1,1.2-0.2v1c-0.4,0.1-0.8,0.2-1.2,0.2
		c-1.7,0-2.2-0.5-2.2-1.8v-7.5h-1.5v-0.9H363.2z"/>
	<path class="st7" d="M373.4,59.8c0,2.3,1,4.2,3.3,4.2c1.3,0,2-0.4,3-2l1,0.5c-1.1,1.8-2.1,2.4-4.1,2.4c-2.7,0-4.4-1.7-4.4-5.2
		c0-3.1,1.6-5.2,4.2-5.2c2.8,0,4.1,2.1,4.1,5.2H373.4z M379.4,58.9c-0.2-2.1-1.2-3.4-3-3.4c-2.1,0-3,2.1-3,3.4H379.4z"/>
	<path class="st7" d="M383.1,62.4c1,1.3,1.8,1.7,3.2,1.7c1.3,0,2.3-0.8,2.3-1.9c0-2.9-6-1.3-6-4.8c0-1.9,1.5-2.7,3.2-2.7
		c1.7,0,2.8,0.7,3.5,1.8l-0.9,0.6c-0.7-0.9-1.4-1.5-2.7-1.5c-1.1,0-2,0.5-2,1.8c0,2.4,6,1,6,4.9c0,1.8-1.7,2.8-3.5,2.8
		c-1.6,0-3-0.6-4-2L383.1,62.4z"/>
</g>
</svg>
