<svg width="103" height="98" viewBox="0 0 103 98" fill="none" xmlns="http://www.w3.org/2000/svg">
<path d="M74.2646 4.95702C74.2646 5.01426 74.2646 5.0715 74.2646 5.0715C74.2646 5.12874 74.2646 5.18598 74.2646 5.18598C74.2646 6.36859 74.2646 7.55234 74.2646 8.73495C76.2109 8.73495 78.1571 8.73495 80.1033 8.73495C80.1033 7.55234 80.1033 6.36859 80.1033 5.18598C80.1033 5.12874 80.1033 5.0715 80.1033 5.0715C80.1033 3.54544 80.1033 2.01824 80.1033 0.492188C78.1571 0.492188 76.2109 0.492188 74.2646 0.492188C74.2646 1.98046 74.2646 3.46874 74.2646 4.95702ZM77.3557 1.7515C77.3477 2.26438 77.2298 2.74864 77.1267 3.23977C77.5079 3.23977 77.8903 3.23977 78.2715 3.23977C77.8056 3.96674 77.3339 4.67424 76.8978 5.41495C76.6814 4.99938 77.2103 4.43955 77.1267 3.92667C76.7833 3.92667 76.4398 3.92667 76.0964 3.92667C76.5509 3.2226 76.8497 2.39489 77.3557 1.7515Z" fill="#12486B"/>
<path d="M77.356 1.75C76.85 2.39339 76.5512 3.2211 76.0967 3.92517C76.4401 3.92517 76.7836 3.92517 77.127 3.92517C77.2106 4.43806 76.6817 4.99788 76.8981 5.41345C77.3342 4.67275 77.8059 3.96524 78.2719 3.23828C77.8906 3.23828 77.5083 3.23828 77.127 3.23828C77.2301 2.74715 77.348 2.26288 77.356 1.75Z" fill="#FFF8F8"/>
<path d="M22.0605 2.78206C22.5173 2.78206 22.9776 2.76488 23.4343 2.78206C22.9936 2.71909 22.5025 2.7397 22.0605 2.78206Z" fill="#97A8AE"/>
<path d="M23.4343 2.78107C22.9775 2.7639 22.5173 2.78107 22.0605 2.78107C20.8619 2.78107 19.962 3.08674 18.8573 3.47026C17.7537 3.85492 17.4228 4.22241 16.3077 4.81314C15.1927 5.40387 15.9151 6.92191 16.9374 6.12969C17.9609 5.33747 18.3421 5.14743 19.4251 4.72499C20.5081 4.3014 21.4629 4.18348 22.6329 4.15486C23.8029 4.12739 24.8379 4.35521 25.9277 4.75246C27.0176 5.15086 27.3485 5.42562 28.3914 6.18121C29.4343 6.93565 30.1476 5.43936 29.0153 4.87038C27.8831 4.3014 27.653 3.80569 26.5333 3.45995C25.4137 3.11307 24.61 2.82572 23.4343 2.78107Z" fill="#E0E0E0"/>
<path d="M37.2868 4.27038C37.249 4.52454 37.4013 4.91149 37.1723 5.07176C36.7945 5.33622 35.4757 5.02826 34.9972 5.07176C34.9926 5.07176 34.9972 5.18625 34.9972 5.18625C35.0258 5.21487 35.1116 5.18625 35.1116 5.18625C35.5261 5.18625 36.8483 4.95957 37.1723 5.18625C37.557 5.45528 37.1735 6.43411 37.2868 6.90349C37.4001 7.37287 37.2021 8.23034 37.2868 8.73521C37.5329 9.5469 38.5702 9.99681 39.1094 9.18399C39.6474 8.37001 39.2948 7.15879 39.233 6.33107C39.1723 6.97676 39.296 9.99224 37.9657 9.31564C36.6343 8.63905 38.0309 6.25895 37.5158 5.18625C49.7654 5.18625 62.0151 5.18625 74.2648 5.18625C74.2648 5.18625 74.2648 5.12901 74.2648 5.07176C70.5177 5.40949 66.6951 4.91492 62.931 5.07176C59.1668 5.22861 55.3671 4.98934 51.5972 5.07176C47.8272 5.15419 44.0356 5.00994 40.2634 5.07176C40.2634 4.80502 40.2634 4.53713 40.2634 4.27038C39.7928 2.65389 37.707 2.5726 37.2868 4.27038ZM40.0344 5.07176C39.1952 5.07176 38.3549 5.07176 37.5158 5.07176C36.7831 2.71571 40.7179 2.73631 40.0344 5.07176Z" fill="#2E3F46"/>
<path d="M40.0348 5.07182C40.7183 2.73637 36.7835 2.71577 37.5162 5.07182C38.3553 5.07182 39.1956 5.07182 40.0348 5.07182Z" fill="#F8F8F9"/>
<path d="M37.1726 5.07091C37.4016 4.91063 37.2493 4.52368 37.2871 4.26953C37.2356 4.4756 37.0868 4.78356 37.1726 5.07091Z" fill="#8A9398"/>
<path d="M74.2651 5.07091C74.2651 5.07091 74.2651 5.01367 74.2651 4.95643C62.969 4.95643 51.673 4.95643 40.3782 4.95643C40.4583 4.70571 40.3152 4.44698 40.2637 4.26953C40.2637 4.53628 40.2637 4.80417 40.2637 5.07091C44.0359 5.00909 47.8276 5.15334 51.5975 5.07091C55.3674 4.98848 59.1671 5.22775 62.9313 5.07091C66.6955 4.91407 70.518 5.40864 74.2651 5.07091Z" fill="#CFD2D4"/>
<path d="M80.2178 5.07044C81.5916 5.07044 82.9654 5.07044 84.3392 5.07044C84.3392 8.69611 84.3392 12.3206 84.3392 15.9463C84.3392 22.2051 84.3392 28.4627 84.3392 34.7215C84.3392 37.6213 84.3392 40.5223 84.3392 43.4222C84.3392 45.6901 84.4594 48.0301 84.3392 50.2911C84.2178 52.5522 84.6609 54.9254 84.3392 57.1601C84.5006 57.0903 84.741 57.1223 84.9116 57.0456C84.4891 55.7314 85.1028 54.084 84.9116 52.6953C84.7204 51.3066 84.9974 49.7668 84.9116 48.3449C84.8257 46.9231 84.9516 45.4313 84.9116 43.9946C84.8715 42.5578 84.931 41.0867 84.9116 39.6442C84.8921 38.2018 84.923 36.7375 84.9116 35.2939C84.9001 33.8503 84.9219 32.3837 84.9116 30.9435C84.9013 29.5034 84.9287 28.0242 84.9116 26.5932C84.8944 25.1622 84.8967 23.6911 85.0261 22.3573C85.0249 20.0276 85.2504 17.5765 85.0261 15.2594C84.7181 12.0825 85.1039 8.77739 85.0261 5.52837C85.2917 6.7602 85.065 8.21757 85.1405 9.53526C85.3695 9.53526 85.5985 9.53526 85.8274 9.53526C85.7793 9.01093 85.8274 8.45913 85.8274 7.93251C85.8274 7.09335 85.8274 6.25304 85.8274 5.41388C86.0896 6.14886 85.8686 7.11052 85.9419 7.93251C85.9419 8.45913 85.9889 9.01093 85.9419 9.53526C86.2087 9.53526 86.4765 9.53526 86.7433 9.53526C86.7433 8.04699 86.7433 6.55871 86.7433 5.07044C85.7267 5.29826 84.3746 4.79224 83.4233 4.95595C82.4719 5.11966 80.9516 4.52779 80.2178 5.07044Z" fill="#E0E0E0"/>
<path d="M34.8826 43.88C34.8826 44.1089 34.8826 44.3379 34.8826 44.5669C34.8849 44.5783 34.997 44.5669 34.997 44.5669C34.997 31.4391 34.9925 18.3125 34.997 5.1848C34.997 5.1848 34.9925 5.07031 34.997 5.07031C34.4326 5.61296 35.0692 7.22373 34.8826 8.04687C34.696 8.87 34.9673 10.1076 34.8826 11.0234C34.7978 11.9393 34.9203 13.0417 34.8826 14C34.8448 14.9582 34.8997 15.9977 34.8826 16.9765C34.8654 17.9554 34.8906 18.9628 34.8826 19.9531C34.8746 20.9434 34.886 21.929 34.8826 22.9296C34.8791 23.9302 34.8837 25.0189 34.8826 26.0207C34.8814 27.0224 34.8837 28.0001 34.8826 28.9972C34.8814 29.9944 34.8826 30.9801 34.8826 31.9738C34.8826 32.9675 34.8826 33.9578 34.8826 34.9503C34.8826 35.9429 34.8826 36.9343 34.8826 37.9269C34.8826 38.9194 34.8826 39.9109 34.8826 40.9034C34.8826 41.896 34.8826 42.8874 34.8826 43.88Z" fill="#ACB1B5"/>
<path d="M80.1035 5.1858C81.4659 5.30944 82.8591 5.09307 84.2249 5.1858C84.2249 8.77254 84.2249 12.3604 84.2249 15.9472C84.2249 15.9426 84.3394 15.9472 84.3394 15.9472C84.3394 12.3215 84.3394 8.69698 84.3394 5.07131C82.9656 5.07131 81.5918 5.07131 80.218 5.07131C80.218 5.07131 80.1321 5.04269 80.1035 5.07131C80.1035 5.07131 80.1035 5.12856 80.1035 5.1858Z" fill="#36464D"/>
<path d="M34.9973 44.5696C34.9973 44.8913 35.0591 45.2462 34.8828 45.4854C34.8828 45.5427 34.8828 45.5999 34.8828 45.5999C34.892 45.6492 34.9721 45.7888 34.9973 45.8289C35.0202 45.8644 35.1083 45.9193 35.1118 45.9434C35.548 44.5822 34.9194 42.9222 35.1118 41.4785C35.3041 40.0349 35.0236 38.3772 35.1118 36.8992C35.1999 35.4213 35.074 33.9295 35.1118 32.4344C35.1496 30.9393 35.0958 29.3571 35.1118 27.8551C35.1278 26.3531 35.1095 24.8957 35.1118 23.3903C35.1141 21.8848 35.1209 20.3187 35.1118 18.811C35.1026 17.3032 35.1393 15.8562 35.1118 14.3461C35.0843 12.8361 35.1725 11.2803 35.1118 9.76681C35.0511 8.25335 35.248 6.69638 35.1118 5.1875C35.1118 5.1875 35.0259 5.21612 34.9973 5.1875C34.9927 18.3152 34.9973 31.4418 34.9973 44.5696Z" fill="#556469"/>
<path d="M35.1115 45.9426C35.1287 46.0547 35.0978 46.1738 35.1115 46.286C36.6616 46.3593 38.3068 46.2436 39.6909 46.8584C40.0011 46.8412 40.5449 46.3181 40.8357 46.1715C41.1677 45.4457 40.5873 44.302 40.8357 43.5384C53.7345 43.5384 66.6321 43.5384 79.5309 43.5384C79.5309 45.2179 79.5309 46.8962 79.5309 48.5757C79.2699 47.9174 79.4885 47.0313 79.4164 46.286C77.4702 46.286 75.524 46.286 73.5778 46.286C73.5778 51.0176 73.5778 55.7503 73.5778 60.4819C73.311 55.8533 73.54 51.0004 73.4633 46.286C64.9538 46.286 56.4431 46.286 47.9336 46.286C47.4997 46.7199 46.9651 47.3438 46.4453 47.6598C46.2061 47.93 46.0664 48.4692 45.7585 48.6901C45.4081 49.005 44.9914 48.9191 44.4991 48.9191C44.2725 48.9191 44.0389 48.9031 43.8122 48.9191C43.7813 48.942 43.7642 49.2156 43.6978 49.2626C48.7739 48.8275 53.9531 49.5888 59.0385 49.2626C59.0385 49.6438 59.0385 50.0262 59.0385 50.4074C54.1729 50.4841 49.1563 50.2551 44.3847 50.5219C44.8048 50.7382 45.2124 50.7108 45.0716 51.2088C45.0166 51.4011 44.7728 51.4744 44.7281 51.6667C46.7888 51.6667 48.8495 51.6667 50.9102 51.6667C50.9102 52.0479 50.9102 52.4303 50.9102 52.8115C48.506 52.8115 46.1019 52.8115 43.6978 52.8115C42.5415 53.9678 41.4848 55.2592 40.2633 56.3605C39.4699 55.3656 38.7086 54.3227 38.546 53.0405C37.5787 52.5242 36.6479 51.4538 35.455 51.6667C35.558 51.9369 35.6462 52.404 35.3405 52.4681C34.9627 52.6707 35.0772 53.3965 35.1115 53.8419C35.1459 54.2872 34.9879 55.1092 35.1115 55.5591C35.763 56.633 37.7801 56.6833 38.9158 57.3645C40.0515 58.0457 41.6932 58.3319 42.9216 58.9684C44.1511 59.6038 45.6302 59.9953 46.9067 60.5941C48.1821 61.1917 49.0338 62.6811 49.1929 64.0308C49.7905 64.4212 50.9651 63.8625 51.7116 64.0308C52.458 64.1991 53.5387 63.9518 54.3447 64.0308C55.1506 64.1098 56.0264 63.9976 56.8633 64.0308C57.7002 64.064 58.6481 64.016 59.4964 64.0308C60.3447 64.0457 61.161 64.0274 62.015 64.0308C62.869 64.0343 63.7941 64.0343 64.6481 64.0308C65.5022 64.0274 66.3161 64.0457 67.1667 64.0308C68.0173 64.016 68.9584 64.0652 69.7998 64.0308C70.6413 63.9965 71.4988 64.111 72.3185 64.0308C73.1382 63.9507 74.1777 64.2014 74.9516 64.0308C75.7255 63.8603 76.9253 64.4063 77.5847 64.0308C78.8543 60.6765 81.1542 58.878 84.2247 57.2764C83.7805 55.8911 84.4181 54.1636 84.2247 52.697C84.0323 51.2305 84.2945 49.6255 84.2247 48.1177C84.1548 46.61 84.2247 44.9466 84.2247 43.4239C84.2247 40.5241 84.2247 37.6231 84.2247 34.7232C84.2247 28.4645 84.2247 22.2068 84.2247 15.9481C84.2247 12.3613 84.2247 8.77343 84.2247 5.18668C82.8589 5.09395 81.4656 5.31032 80.1033 5.18668C80.1033 6.36929 80.1033 7.55304 80.1033 8.73565C78.1571 8.73565 76.2109 8.73565 74.2647 8.73565C74.2647 7.55304 74.2647 6.36929 74.2647 5.18668C62.015 5.18668 49.7653 5.18668 37.5157 5.18668C38.0309 6.25939 36.6342 8.63948 37.9656 9.31608C39.2959 9.99267 39.1723 6.97719 39.2329 6.33151C39.2948 7.15922 39.6474 8.37045 39.1093 9.18442C38.5701 9.99725 37.5329 9.54733 37.2867 8.73565C36.965 7.67439 37.2902 6.33838 37.1722 5.18668C36.8483 4.96001 35.526 5.18668 35.1115 5.18668C35.2478 6.69557 35.0509 8.25253 35.1115 9.76599C35.1722 11.2795 35.0841 12.8353 35.1115 14.3453C35.139 15.8553 35.1024 17.3024 35.1115 18.8101C35.1207 20.3179 35.1138 21.884 35.1115 23.3894C35.1093 24.8949 35.1276 26.3523 35.1115 27.8543C35.0955 29.3563 35.1493 30.9384 35.1115 32.4336C35.0738 33.9287 35.1997 35.4204 35.1115 36.8984C35.0234 38.3764 35.3039 40.0341 35.1115 41.4777C34.9192 42.9214 35.5477 44.5814 35.1115 45.9426ZM44.9571 8.50668C47.7367 9.00468 48.8781 12.896 47.0269 14.9269C45.1769 16.9589 41.534 16.6991 40.4041 13.861C39.2741 11.023 41.8523 7.9503 44.9571 8.50668ZM51.9405 13.2005C52.5851 13.2852 52.5564 14.2572 51.9314 14.4506C51.3051 14.6441 50.4511 14.5617 49.7653 14.5743C49.7653 13.6584 49.7653 12.7425 49.7653 11.8267C50.7556 11.6779 53.0945 11.7248 51.9405 13.2005ZM53.5433 14.5743C53.3853 14.6796 53.0327 14.4941 52.8564 14.5743C52.8564 13.6584 52.8564 12.7425 52.8564 11.8267C53.0853 11.8267 53.3143 11.8267 53.5433 11.8267C53.802 11.9996 53.6566 12.8937 53.6578 13.2005C53.6589 13.5073 53.7997 14.4025 53.5433 14.5743ZM55.0316 13.8874C55.3326 14.098 56.0608 13.6367 56.2909 14.0019C56.3767 14.1381 56.2256 14.4243 56.2909 14.5743C55.5662 14.5743 54.8404 14.5743 54.1157 14.5743C54.1157 13.6584 54.1157 12.7425 54.1157 11.8267C55.5112 11.4558 54.6011 13.26 55.0316 13.8874ZM57.4357 13.8874C57.7368 14.098 58.4649 13.6378 58.695 14.0019C58.7809 14.1381 58.6298 14.4243 58.695 14.5743C58.0081 14.5743 57.3212 14.5743 56.6343 14.5743C56.3779 14.3945 56.5198 13.5096 56.5198 13.2005C56.5198 12.8914 56.3756 11.9996 56.6343 11.8267C56.7923 11.7214 57.1461 11.9068 57.3212 11.8267C57.3956 12.4941 57.1701 13.3138 57.4357 13.8874ZM78.844 12.6281C78.844 13.2005 78.844 13.7729 78.844 14.3453C72.9676 14.3453 67.09 14.3453 61.2136 14.3453C61.2136 13.7729 61.2136 13.2005 61.2136 12.6281C67.09 12.6281 72.9676 12.6281 78.844 12.6281ZM45.186 19.0391C45.186 19.5737 45.186 20.1072 45.186 20.6419C43.7355 20.6419 42.2862 20.6419 40.8357 20.6419C40.8357 20.1072 40.8357 19.5737 40.8357 19.0391C42.2862 19.0391 43.7355 19.0391 45.186 19.0391ZM79.3019 19.0391C79.3019 19.5737 79.3019 20.1072 79.3019 20.6419C77.8903 20.6419 76.4776 20.6419 75.066 20.6419C75.066 20.1072 75.066 19.5737 75.066 19.0391C76.4776 19.0391 77.8903 19.0391 79.3019 19.0391ZM52.1695 21.7867C52.1695 22.3591 52.1695 22.9315 52.1695 23.5039C48.3538 23.5039 44.5369 23.5039 40.7212 23.5039C40.7212 22.9315 40.7212 22.3591 40.7212 21.7867C44.5381 21.7867 48.3526 21.7867 52.1695 21.7867ZM79.4164 21.7867C79.4164 22.3591 79.4164 22.9315 79.4164 23.5039C75.6007 23.5039 71.7838 23.5039 67.9681 23.5039C67.9681 22.9315 67.9681 22.3591 67.9681 21.7867C71.7838 21.7867 75.6007 21.7867 79.4164 21.7867ZM52.5129 40.2184C52.0653 39.9047 52.5084 38.642 52.3985 38.0432C52.2885 37.4445 52.4294 36.31 52.3985 35.6391C52.3675 34.9682 52.3595 34.0203 52.3985 33.3494C52.4374 32.6786 52.276 31.5463 52.3985 30.9453C52.5209 30.3443 52.055 28.9762 52.5129 28.6557C53.1277 28.2252 54.5702 28.9785 55.2605 28.6557C55.2605 32.5103 55.2605 36.3638 55.2605 40.2184C54.3447 40.2184 53.4288 40.2184 52.5129 40.2184ZM72.7764 29.5715C72.7764 33.1205 72.7764 36.6695 72.7764 40.2184C71.8228 40.2184 70.868 40.2184 69.9143 40.2184C69.9143 36.6695 69.9143 33.1205 69.9143 29.5715C70.868 29.5715 71.8228 29.5715 72.7764 29.5715ZM59.6109 31.7467C59.6109 34.571 59.6109 37.3941 59.6109 40.2184C58.695 40.2184 57.7791 40.2184 56.8633 40.2184C56.8633 37.3941 56.8633 34.571 56.8633 31.7467C57.7791 31.7467 58.695 31.7467 59.6109 31.7467ZM50.9102 32.5481C50.9102 35.1045 50.9102 37.662 50.9102 40.2184C49.9565 40.2184 49.0017 40.2184 48.0481 40.2184C48.0447 39.0301 48.0538 37.986 48.0481 36.7839C48.0424 35.5819 48.0584 34.4748 48.0481 33.235C48.0378 31.9951 50.0264 32.7473 50.9102 32.5481ZM46.5598 33.6929C46.901 34.1794 46.4007 35.2544 46.5598 35.8681C46.719 36.4817 46.4774 37.3758 46.5598 38.0432C46.6423 38.7107 46.498 39.5372 46.5598 40.2184C45.6062 40.2184 44.6514 40.2184 43.6978 40.2184C43.6978 38.0432 43.6978 35.8681 43.6978 33.6929C43.8752 33.4387 44.7499 33.5635 45.0716 33.5784C45.3933 33.5933 46.3686 33.4204 46.5598 33.6929ZM64.0757 40.2184C63.1221 40.2184 62.1673 40.2184 61.2136 40.2184C61.2136 38.1577 61.2136 36.097 61.2136 34.0363C62.0665 33.9562 62.4935 34.1428 63.3888 34.0363C64.2841 33.9299 64.0883 34.9213 64.0757 35.6391C64.0631 36.3569 64.0826 37.1892 64.0757 37.9288C64.0688 38.6683 64.0803 39.4731 64.0757 40.2184ZM77.1267 34.0363C77.1267 36.097 77.1267 38.1577 77.1267 40.2184C76.1731 40.2184 75.2183 40.2184 74.2647 40.2184C74.2647 38.1577 74.2647 36.097 74.2647 34.0363C75.2183 34.0363 76.1731 34.0363 77.1267 34.0363ZM68.426 37.1274C68.426 38.1577 68.426 39.1881 68.426 40.2184C67.4724 40.2184 66.5176 40.2184 65.564 40.2184C65.564 39.1881 65.564 38.1577 65.564 37.1274C66.5176 37.1274 67.4724 37.1274 68.426 37.1274ZM54.4591 54.0708C54.4591 54.4521 54.4591 54.8344 54.4591 55.2157C50.6045 55.2157 46.751 55.2157 42.8964 55.2157C42.8964 54.8344 42.8964 54.4521 42.8964 54.0708C46.751 54.0708 50.6045 54.0708 54.4591 54.0708ZM58.5805 56.475C58.5805 56.8562 58.5805 57.2386 58.5805 57.6198C53.3521 57.6198 48.1248 57.6198 42.8964 57.6198C42.8964 57.2386 42.8964 56.8562 42.8964 56.475C48.1248 56.475 53.3521 56.475 58.5805 56.475Z" fill="#FEFEFE"/>
<path d="M37.2865 8.73647C37.2017 8.2316 37.3998 7.37412 37.2865 6.90474C37.1731 6.43536 37.5566 5.45653 37.172 5.1875C37.2899 6.3392 36.9648 7.67521 37.2865 8.73647Z" fill="#8D969A"/>
<path d="M85.8281 7.93268C85.8281 7.9281 85.9426 7.93268 85.9426 7.93268C85.8693 7.1107 86.0903 6.14904 85.8281 5.41406C85.8281 6.25322 85.8281 7.09353 85.8281 7.93268Z" fill="#959B9E"/>
<path d="M85.0264 15.2623C84.8558 13.4248 84.9715 11.2863 85.1409 9.53815C85.0653 8.22045 85.292 6.76308 85.0264 5.53125C85.1043 8.78027 84.7184 12.0854 85.0264 15.2623Z" fill="#7B8A8F"/>
<path d="M22.0603 7.58913C22.4839 7.52846 22.9006 7.52159 23.3196 7.58913C24.7804 7.66813 25.0712 8.45463 26.3855 8.87363C27.6998 9.29264 27.2876 7.24225 26.0317 6.93773C24.777 6.63206 23.9264 6.04934 22.5183 6.10086C21.1101 6.15238 20.3958 6.63206 19.1101 7.04305C17.8245 7.45404 17.742 9.38308 19.0552 8.81983C20.3694 8.25657 20.5892 7.64523 22.0603 7.58913Z" fill="#E0E0E0"/>
<path d="M85.828 9.53448C85.8853 9.53448 85.9425 9.53448 85.9425 9.53448C85.9894 9.01015 85.9425 8.45834 85.9425 7.93172C85.9425 7.93172 85.828 7.92714 85.828 7.93172C85.828 8.45834 85.7799 9.01015 85.828 9.53448Z" fill="#677276"/>
<path d="M44.9575 8.50724C41.8528 7.95085 39.2746 11.0236 40.4046 13.8616C41.5345 16.6996 45.1773 16.9595 47.0274 14.9274C48.8786 12.8965 47.7372 9.00524 44.9575 8.50724ZM44.7286 9.88103C44.55 10.6538 44.2661 11.4048 44.0417 12.1707C44.5958 12.126 45.0777 12.3699 45.6444 12.2852C44.8763 13.3613 43.9615 14.3825 43.1258 15.3762C43.396 14.6034 43.7017 13.8398 44.0417 13.0866C43.507 13.0866 42.9735 13.0866 42.4389 13.0866C43.1979 12.015 43.9215 10.8839 44.7286 9.88103Z" fill="#FF8926"/>
<path d="M23.2057 9.07792C20.8588 8.49634 20.0986 11.9217 22.2818 12.5204C24.4638 13.1192 25.2629 9.58736 23.2057 9.07792Z" fill="#E0E0E0"/>
<path d="M85.0263 15.2593C85.0263 15.2547 85.1408 15.2593 85.1408 15.2593C85.1694 15.2307 85.1408 15.1448 85.1408 15.1448C85.1408 13.2753 85.1408 11.4047 85.1408 9.53516C84.9713 11.2833 84.8557 13.4218 85.0263 15.2593Z" fill="#243B44"/>
<path d="M85.1406 15.1448C85.3398 15.0967 85.7119 15.1002 85.8275 15.2593C86.1252 15.6691 85.697 16.5541 85.8275 17.091C85.958 17.6279 85.7588 18.4522 85.8275 19.0372C85.8962 19.6222 85.7806 20.2588 85.8275 20.869C85.8745 21.4791 85.7714 22.197 85.8275 22.8152C85.8848 22.8152 85.942 22.8152 85.942 22.8152C85.942 20.2965 85.942 17.7779 85.942 15.2593C87.8504 15.2593 89.7577 15.2593 91.6661 15.2593C91.6661 13.3509 91.6661 11.4436 91.6661 9.53516C90.0256 9.53516 88.3839 9.53516 86.7434 9.53516C86.4766 9.53516 86.2087 9.53516 85.942 9.53516C85.942 9.53516 85.8848 9.53516 85.8275 9.53516C85.5986 9.53516 85.3696 9.53516 85.1406 9.53516C85.1406 11.4047 85.1406 13.2753 85.1406 15.1448ZM88.3461 11.0234C88.7342 11.091 88.9632 11.9668 89.2357 12.3091C89.5081 12.6514 89.5837 13.6188 89.1739 14.0263C88.764 14.4327 88.037 14.4476 87.5734 14.0858C87.1097 13.7241 87.1063 12.7029 87.3524 12.3194C87.5997 11.937 87.8344 10.9353 88.3461 11.0234Z" fill="#12486B"/>
<path d="M44.7281 9.87891C43.921 10.8818 43.1975 12.0129 42.4385 13.0844C42.9731 13.0844 43.5066 13.0844 44.0412 13.0844C43.7012 13.8377 43.3956 14.6013 43.1254 15.3741C43.9611 14.3804 44.8758 13.3592 45.644 12.283C45.0773 12.3678 44.5953 12.1239 44.0412 12.1686C44.2656 11.4027 44.5495 10.6517 44.7281 9.87891Z" fill="#FFF9F8"/>
<path d="M88.3466 11.025C87.8349 10.9368 87.6002 11.9386 87.3529 12.3209C87.1067 12.7045 87.1102 13.7256 87.5738 14.0874C88.0375 14.4492 88.7645 14.4343 89.1743 14.0279C89.5842 13.6203 89.5086 12.6529 89.2361 12.3106C88.9637 11.9683 88.7347 11.0925 88.3466 11.025Z" fill="#FAFAFB"/>
<path d="M51.9408 13.2C53.0948 11.7243 50.7559 11.6774 49.7656 11.8262C49.7656 12.7421 49.7656 13.6579 49.7656 14.5738C50.4514 14.5612 51.3054 14.6436 51.9316 14.4502C52.5567 14.2567 52.5853 13.2847 51.9408 13.2ZM50.567 12.8566C50.3495 12.4192 51.1119 12.1491 51.3936 12.4879C51.6752 12.8257 50.8269 12.9619 50.567 12.8566ZM50.567 14.0014C50.3003 13.4954 51.1406 13.1061 51.5081 13.5183C51.8755 13.9304 50.8967 14.1594 50.567 14.0014Z" fill="#20333A"/>
<path d="M53.5433 14.5718C53.5433 13.6559 53.5433 12.7401 53.5433 11.8242C53.3144 11.8242 53.0854 11.8242 52.8564 11.8242C52.8564 12.7401 52.8564 13.6559 52.8564 14.5718C53.0327 14.4917 53.3854 14.6771 53.5433 14.5718Z" fill="#1B2F36"/>
<path d="M53.5439 14.5718C53.8004 14.4001 53.6596 13.5048 53.6584 13.198C53.6573 12.8912 53.8027 11.9971 53.5439 11.8242C53.5439 12.7401 53.5439 13.6559 53.5439 14.5718Z" fill="#8C979B"/>
<path d="M56.2914 14.0023C55.9079 13.9141 55.3148 14.1706 55.0321 13.8878C54.6016 13.2604 55.5118 11.4562 54.1162 11.8271C54.1162 12.743 54.1162 13.6588 54.1162 14.5747C54.8409 14.5747 55.5667 14.5747 56.2914 14.5747C56.2261 14.4247 56.3772 14.1385 56.2914 14.0023Z" fill="#24363D"/>
<path d="M56.6341 14.5718C56.6341 13.6559 56.6341 12.7401 56.6341 11.8242C56.3753 11.9971 56.5196 12.8889 56.5196 13.198C56.5196 13.5071 56.3776 14.3921 56.6341 14.5718Z" fill="#727D81"/>
<path d="M56.6348 14.5739C57.3217 14.5739 58.0086 14.5739 58.6955 14.5739C58.6302 14.4239 58.7813 14.1377 58.6955 14.0014C58.3119 13.9133 57.7189 14.1697 57.4361 13.887C57.1705 13.3134 57.3961 12.4937 57.3217 11.8263C57.1465 11.9064 56.7928 11.7209 56.6348 11.8263C56.6348 12.7421 56.6348 13.658 56.6348 14.5739Z" fill="#1E3138"/>
<path d="M50.5668 12.8573C50.8267 12.9626 51.675 12.8264 51.3934 12.4887C51.1118 12.1498 50.3493 12.42 50.5668 12.8573Z" fill="#FCFDFC"/>
<path d="M78.8442 12.6289C72.9678 12.6289 67.0903 12.6289 61.2139 12.6289C61.2139 13.2013 61.2139 13.7737 61.2139 14.3461C67.0903 14.3461 72.9678 14.3461 78.8442 14.3461C78.8442 13.7737 78.8442 13.2013 78.8442 12.6289Z" fill="#E1E1E1"/>
<path d="M50.567 14C50.8967 14.158 51.8756 13.929 51.5081 13.5168C51.1406 13.1047 50.3003 13.494 50.567 14Z" fill="#F0F1F2"/>
<path d="M56.2915 14.0015C56.0614 13.6363 55.3333 14.0976 55.0322 13.887C55.315 14.1698 55.908 13.9133 56.2915 14.0015Z" fill="#758084"/>
<path d="M58.6949 14.001C58.4647 13.6369 57.7366 14.0971 57.4355 13.8865C57.7183 14.1693 58.3113 13.9128 58.6949 14.001Z" fill="#768084"/>
<path d="M85.1406 15.2588C85.3604 15.3046 85.6054 15.2244 85.8275 15.2588C85.7119 15.0996 85.3398 15.0962 85.1406 15.1443C85.1406 15.1443 85.1692 15.2301 85.1406 15.2588Z" fill="#788D93"/>
<path d="M85.0264 22.3578C85.0264 22.549 85.0264 22.739 85.0264 22.9302C85.0321 22.9474 85.1409 22.9302 85.1409 22.9302C85.1409 22.873 85.1409 22.8157 85.1409 22.8157C85.1409 20.3314 85.3641 17.7327 85.1409 15.2598C85.1409 15.2598 85.0264 15.2553 85.0264 15.2598C85.2508 17.577 85.0252 20.0281 85.0264 22.3578Z" fill="#46555B"/>
<path d="M85.1406 22.8147C85.349 22.7712 85.6146 22.8147 85.8275 22.8147C85.7714 22.1965 85.8745 21.4787 85.8275 20.8685C85.7806 20.2583 85.8962 19.6218 85.8275 19.0368C85.7588 18.4518 85.958 17.6275 85.8275 17.0906C85.697 16.5536 86.1252 15.6687 85.8275 15.2588C85.6054 15.2245 85.3604 15.3046 85.1406 15.2588C85.3639 17.7317 85.1406 20.3304 85.1406 22.8147Z" fill="#E1E1E1"/>
<path d="M84.2246 34.7225C84.2246 34.7179 84.3391 34.7225 84.3391 34.7225C84.3391 28.4638 84.3391 22.2061 84.3391 15.9473C84.3391 15.9473 84.2246 15.9428 84.2246 15.9473C84.2246 22.2061 84.2246 28.4638 84.2246 34.7225Z" fill="#4D5C61"/>
<path d="M45.1863 19.0391C43.7358 19.0391 42.2864 19.0391 40.8359 19.0391C40.8359 19.5737 40.8359 20.1072 40.8359 20.6418C42.2864 20.6418 43.7358 20.6418 45.1863 20.6418C45.1863 20.1072 45.1863 19.5737 45.1863 19.0391Z" fill="#E1E1E1"/>
<path d="M79.3023 19.0391C77.8907 19.0391 76.478 19.0391 75.0664 19.0391C75.0664 19.5737 75.0664 20.1072 75.0664 20.6418C76.478 20.6418 77.8907 20.6418 79.3023 20.6418C79.3023 20.1072 79.3023 19.5737 79.3023 19.0391Z" fill="#E1E1E1"/>
<path d="M26.6406 33.5775C26.597 33.2478 26.4505 32.9113 26.5261 32.5472C25.5759 32.9216 24.7871 32.1362 24.8088 31.1734C24.8306 30.2106 25.9823 29.5878 26.6406 30.4865C27.7327 29.3692 28.3715 27.4115 30.075 27.3955C29.8472 27.1757 29.4671 27.2512 29.2737 27.052C29.988 26.2484 30.5994 25.3096 31.2199 24.4189C33.687 25.2627 34.027 28.0698 33.853 30.372C34.1243 28.8574 34.4002 27.012 33.4809 25.5924C32.5616 24.1728 31.474 23.6141 29.8461 23.5031C29.5095 23.4802 29.1523 23.4905 28.8157 23.5031C28.3235 23.4458 27.8918 23.637 27.4419 23.732C28.3246 21.5259 24.7619 19.9942 23.7785 22.1293C23.3686 20.5391 20.818 21.3702 21.6033 22.9306C20.3909 22.7978 20.0349 24.7017 21.2599 24.8769C20.6737 25.7629 20.7344 27.8946 22.2902 27.281C21.7991 28.1545 22.7504 29.1722 23.664 28.9982C23.5117 30.957 24.8249 32.9009 26.6406 33.5775ZM27.4419 23.732C25.5633 24.6055 23.8231 26.4464 23.7785 28.6548C23.5198 26.5689 25.3915 24.2896 27.4419 23.732Z" fill="#1B2F36"/>
<path d="M52.17 21.7852C48.3531 21.7852 44.5385 21.7852 40.7217 21.7852C40.7217 22.3576 40.7217 22.93 40.7217 23.5024C44.5374 23.5024 48.3542 23.5024 52.17 23.5024C52.17 22.93 52.17 22.3576 52.17 21.7852Z" fill="#E1E1E1"/>
<path d="M79.417 21.7852C75.6013 21.7852 71.7845 21.7852 67.9688 21.7852C67.9688 22.3576 67.9688 22.93 67.9688 23.5024C71.7845 23.5024 75.6013 23.5024 79.417 23.5024C79.417 22.93 79.417 22.3576 79.417 21.7852Z" fill="#E1E1E1"/>
<path d="M84.9116 57.0477C84.9505 57.0305 84.9963 56.9469 85.0261 56.9332C85.4691 53.8524 84.836 50.6675 85.0261 47.5456C85.2161 44.4236 84.9551 41.1872 85.0261 38.0435C85.0971 34.8998 85.0261 31.6909 85.0261 28.5414C85.0261 26.6719 85.0249 24.8013 85.0261 22.9318C85.0261 22.7406 85.0261 22.5506 85.0261 22.3594C84.8967 23.6931 84.8944 25.1642 84.9116 26.5952C84.9288 28.0263 84.9013 29.5054 84.9116 30.9456C84.9219 32.3858 84.9002 33.8523 84.9116 35.2959C84.923 36.7396 84.8921 38.2038 84.9116 39.6463C84.9311 41.0888 84.8715 42.5599 84.9116 43.9966C84.9517 45.4334 84.8257 46.9251 84.9116 48.347C84.9975 49.7688 84.7204 51.3086 84.9116 52.6973C85.1028 54.086 84.4892 55.7334 84.9116 57.0477Z" fill="#B1B5B8"/>
<path d="M85.1406 22.9307C85.1406 24.775 85.3066 26.7052 85.1406 28.5403C85.3696 28.5403 85.5986 28.5403 85.8275 28.5403C85.8848 28.5403 85.942 28.5403 85.942 28.5403C85.9992 28.5403 86.0565 28.5403 86.0565 28.5403C87.926 28.5403 89.7966 28.5403 91.6661 28.5403C91.6661 26.6708 91.6661 24.8002 91.6661 22.9307C90.7491 22.8277 89.5814 23.0681 88.6896 22.9307C87.7978 22.7933 86.7148 23.2581 85.942 22.8162C85.942 22.8162 85.8848 22.8162 85.8275 22.8162C85.6146 22.8162 85.349 22.7727 85.1406 22.8162C85.1406 22.8162 85.1406 22.8735 85.1406 22.9307ZM89.7199 24.19C90.5522 25.1791 90.6404 26.4167 90.5213 27.739C89.033 27.739 87.5448 27.739 86.0565 27.739C85.8504 26.348 86.1389 25.1391 87.0868 24.19C87.9649 24.19 88.8419 24.19 89.7199 24.19Z" fill="#12486B"/>
<path d="M85.0259 28.5393C85.0259 28.5348 85.1404 28.5393 85.1404 28.5393C85.3064 26.7042 85.1404 24.774 85.1404 22.9297C85.1404 22.9297 85.0316 22.9469 85.0259 22.9297C85.0248 24.7992 85.0259 26.6698 85.0259 28.5393Z" fill="#3F373C"/>
<path d="M6.03336 23.0466C5.22626 22.8737 5.08888 24.7089 5.35448 25.2138C5.62122 25.7175 5.87881 26.8532 6.64241 27.0146C7.40601 27.176 7.5743 25.3191 7.28351 24.8875C6.99387 24.4547 6.62524 23.1725 6.03336 23.0466Z" fill="#FF7963"/>
<path d="M28.8154 23.5044C29.152 23.4918 29.5092 23.4815 29.8458 23.5044C29.4897 23.4403 29.1738 23.4529 28.8154 23.5044Z" fill="#7F898D"/>
<path d="M27.4414 23.7305C25.391 24.288 23.5192 26.5674 23.7779 28.6532C23.8226 26.4449 25.5627 24.604 27.4414 23.7305Z" fill="#2A4650"/>
<path d="M9.58185 24.1911C8.36146 24.0354 8.76558 26.3537 8.24354 27.0886C7.72036 27.8225 7.32882 28.9032 6.69116 29.6576C6.05463 30.4121 5.59441 31.2547 5.03802 32.1259C4.48049 32.9959 4.20115 34.4453 4.31678 35.5237C4.43241 36.6033 4.94186 37.5581 5.5406 38.4213C6.1382 39.2845 6.73466 39.8855 7.60931 40.474C8.48396 41.0624 9.87607 41.4471 10.9533 41.2467C12.0295 41.0452 13.0896 40.6686 13.9036 39.9611C14.7187 39.2547 15.1938 38.5071 15.6128 37.5489C16.0307 36.5896 16.2814 35.1139 16.2218 34.0366C16.1623 32.9593 15.9185 31.5592 15.5086 30.6284C15.0988 29.6977 14.5962 28.7326 14.0181 27.9976C13.4399 27.2626 12.7336 26.3926 12.0146 25.8797C11.2945 25.3668 10.4061 24.2964 9.58185 24.1911ZM12.1005 28.9994C13.0312 29.1482 13.251 30.3617 13.3598 31.1745C13.4685 31.9874 13.5968 33.6886 13.4365 34.5712C13.2762 35.4539 12.8893 36.419 12.5229 37.2078C12.1577 37.9954 11.7902 38.6949 11.2132 39.3314C10.6362 39.9668 9.72495 40.6972 9.00027 39.9989C8.2756 39.3005 7.80851 39.0063 7.41583 38.0343C7.02316 37.0635 6.91554 36.2587 6.83426 35.0669C6.75298 33.8752 7.6654 33.8637 8.29391 34.9811C8.92242 36.0973 9.67229 34.4911 9.73296 33.7298C9.79364 32.9685 10.334 31.6943 10.4954 30.9433C10.6557 30.1911 11.0781 28.8356 12.1005 28.9994Z" fill="#FF8926"/>
<path d="M89.7196 24.1914C88.8415 24.1914 87.9646 24.1914 87.0865 24.1914C86.1386 25.1405 85.8501 26.3494 86.0561 27.7404C87.5444 27.7404 89.0327 27.7404 90.521 27.7404C90.64 26.4181 90.5519 25.1805 89.7196 24.1914ZM90.1775 25.4507C89.0957 25.5251 87.9405 25.611 87.5444 24.4204C88.5759 24.378 89.8696 24.2063 90.1775 25.4507ZM87.3155 24.5349C88.1684 25.3042 88.023 26.4364 88.0024 27.5114C87.4299 27.5114 86.8575 27.5114 86.2851 27.5114C86.1695 26.362 86.2416 25.1702 87.3155 24.5349ZM90.292 25.6797C90.292 26.2899 90.292 26.9012 90.292 27.5114C89.6051 27.5114 88.9182 27.5114 88.2313 27.5114C88.2313 26.9012 88.2313 26.2899 88.2313 25.6797C88.9182 25.6797 89.6051 25.6797 90.292 25.6797Z" fill="#FFF4F3"/>
<path d="M26.6398 33.5766C26.697 34.0025 26.8607 34.6424 26.7543 35.0649C27.5453 34.8542 28.4532 36.0551 29.2981 36.07C30.143 36.0838 30.7818 37.1885 30.9901 37.9269C31.2294 37.5594 31.0508 36.9046 31.3336 36.5531C31.3576 36.37 31.3336 36.1662 31.3336 35.9807C30.0834 36.117 28.7085 35.6602 28.1281 34.4925C29.1378 34.9355 30.2002 35.2583 31.3336 35.2938C33.6816 35.0454 33.8522 32.1444 33.8522 30.3711C34.0262 28.0688 33.6862 25.2617 31.2191 24.418C30.5986 25.3086 29.9873 26.2474 29.2729 27.0511C29.4664 27.2503 29.8464 27.1747 30.0743 27.3945C28.3708 27.4105 27.7319 29.3682 26.6398 30.4856C25.9815 29.5869 24.8298 30.2097 24.8081 31.1725C24.7863 32.1353 25.5751 32.9206 26.5253 32.5462C26.4497 32.9103 26.5963 33.2469 26.6398 33.5766ZM33.0508 27.1656C32.9627 27.5651 32.0583 27.4334 31.7915 27.28C32.1601 26.9973 32.6375 27.0076 33.0508 27.1656ZM33.2798 28.4249C32.997 28.5016 32.2987 28.4214 32.0205 28.4249C32.317 28.0814 32.9569 28.1123 33.2798 28.4249ZM29.8453 28.4249C29.5637 28.5691 28.9466 28.6367 28.7005 28.5393C29.0416 28.276 29.4629 28.2692 29.8453 28.4249ZM31.3336 31.2869C32.6101 31.0087 31.1046 29.5205 31.1046 28.6538C31.3977 29.3316 32.9272 31.3968 31.3336 31.2869ZM33.0508 29.6842C33.242 29.8754 32.8917 30.4867 32.5677 30.1673C32.2426 29.8467 32.807 29.4403 33.0508 29.6842ZM30.0743 29.7987C30.357 29.9406 30.0995 30.5554 29.7675 30.3321C29.4355 30.1089 29.685 29.604 30.0743 29.7987ZM25.9529 30.829C25.1824 30.4981 25.4022 32.1227 26.0674 32.0883C24.8996 32.4329 25.2202 29.9544 25.9529 30.829ZM30.3032 31.6304C30.894 31.4827 31.1584 31.9796 31.3336 32.4318C30.9478 32.8828 29.7262 32.6493 30.1887 31.9738C30.2323 31.6693 30.1613 31.6659 30.3032 31.6304Z" fill="#BF735F"/>
<path d="M90.178 25.4492C89.8701 24.2048 88.5764 24.3765 87.5449 24.4189C87.941 25.6095 89.0962 25.5237 90.178 25.4492Z" fill="#12486B"/>
<path d="M87.3159 24.5352C86.2421 25.1705 86.17 26.3623 86.2856 27.5117C86.858 27.5117 87.4304 27.5117 88.0028 27.5117C88.0234 26.4367 88.1688 25.3045 87.3159 24.5352Z" fill="#12486B"/>
<path d="M90.2931 25.6797C89.6062 25.6797 88.9193 25.6797 88.2324 25.6797C88.2324 26.2899 88.2324 26.9012 88.2324 27.5114C88.9193 27.5114 89.6062 27.5114 90.2931 27.5114C90.2931 26.9012 90.2931 26.2899 90.2931 25.6797Z" fill="#12486B"/>
<path d="M33.0513 27.1651C32.638 27.0071 32.1606 26.9968 31.792 27.2796C32.0587 27.433 32.9632 27.5646 33.0513 27.1651Z" fill="#263237"/>
<path d="M33.2798 28.4258C32.957 28.1133 32.317 28.0824 32.0205 28.4258C32.2987 28.4224 32.997 28.5025 33.2798 28.4258Z" fill="#3F3D3E"/>
<path d="M29.845 28.4274C29.4627 28.2717 29.0414 28.2786 28.7002 28.5419C28.9463 28.6392 29.5634 28.5717 29.845 28.4274Z" fill="#2D353A"/>
<path d="M85.0259 56.9328C85.0728 56.9111 85.1404 56.9328 85.1404 56.9328C85.3636 54.4611 85.0591 51.9792 85.1404 49.4914C85.2217 47.0037 85.1404 44.4313 85.1404 41.9356C85.1404 40.1039 85.1427 38.2721 85.1404 36.4404C85.1404 36.3832 85.1404 36.3259 85.1404 36.3259C85.1404 33.7661 85.3705 31.0883 85.1404 28.5411C85.1404 28.5411 85.0259 28.5365 85.0259 28.5411C85.0259 31.6905 85.0969 34.8995 85.0259 38.0432C84.9549 41.1869 85.2159 44.4233 85.0259 47.5452C84.8359 50.6672 85.4689 53.8521 85.0259 56.9328Z" fill="#304249"/>
<path d="M85.1406 36.3239C85.3604 36.2792 85.6054 36.3582 85.8275 36.3239C86.1366 35.898 85.6844 34.9249 85.8275 34.3777C85.9706 33.8305 85.7554 33.0325 85.8275 32.4315C85.8996 31.8304 85.7794 31.1081 85.8275 30.4853C85.8756 29.8625 85.7703 29.1664 85.8275 28.5391C85.5986 28.5391 85.3696 28.5391 85.1406 28.5391C85.3707 31.0863 85.1406 33.7641 85.1406 36.3239Z" fill="#E1E1E1"/>
<path d="M85.8275 36.3239C85.7176 36.475 85.3295 36.483 85.1406 36.4384C85.1429 38.2701 85.1406 40.1018 85.1406 41.9335C85.3696 41.9335 85.5986 41.9335 85.8275 41.9335C85.8848 41.9335 85.942 41.9335 85.942 41.9335C86.2087 41.9335 86.4766 41.9335 86.7434 41.9335C88.3839 41.9335 90.0256 41.9335 91.6661 41.9335C91.6135 41.36 91.736 40.6639 91.6661 40.1018C91.5963 39.5397 91.8001 38.7876 91.6661 38.2701C91.5322 37.7526 91.9535 36.8482 91.6661 36.4384C90.8487 36.285 89.5757 36.6433 88.8041 36.4384C88.0325 36.2335 86.4686 36.8711 85.942 36.3239C85.713 33.7492 86.1767 31.1126 85.942 28.5391C85.942 28.5391 85.8848 28.5391 85.8275 28.5391C85.7703 29.1664 85.8756 29.8625 85.8275 30.4853C85.7794 31.1081 85.8996 31.8304 85.8275 32.4315C85.7554 33.0325 85.9706 33.8305 85.8275 34.3777C85.6844 34.9249 86.1366 35.898 85.8275 36.3239ZM89.262 37.5832C89.9443 37.7057 91.1304 38.8528 90.321 38.6983C89.5127 38.5437 88.5831 37.613 87.7714 38.1533C86.9586 38.6937 85.8081 38.807 86.4858 38.127C87.1635 37.4481 88.4148 37.4309 89.262 37.5832ZM88.8041 38.6135C89.0296 38.6422 90.2969 39.2466 89.9729 39.5557C89.649 39.8648 88.5568 38.8173 88.1172 39.186C87.6776 39.5546 86.6781 39.7309 87.0021 39.2146C87.3261 38.6994 88.2683 38.5471 88.8041 38.6135ZM88.8041 39.6439C89.4509 39.9599 88.8304 41.1883 88.155 40.7509C87.4795 40.3136 88.108 39.3039 88.8041 39.6439Z" fill="#12486B"/>
<path d="M85.9425 36.3239C85.9425 36.3285 86.0569 36.3239 86.0569 36.3239C86.279 33.8659 86.2722 30.9982 86.0569 28.5391C86.0569 28.5391 85.9997 28.5391 85.9425 28.5391C86.1771 31.1126 85.7135 33.7492 85.9425 36.3239Z" fill="#B1B5B8"/>
<path d="M31.3335 31.2894C32.9271 31.3993 31.3976 29.334 31.1045 28.6562C31.1045 29.5229 32.6099 31.0112 31.3335 31.2894Z" fill="#433E3F"/>
<path d="M52.5128 40.219C52.5128 36.3644 52.5128 32.5109 52.5128 28.6562C52.0549 28.9768 52.5208 30.3449 52.3983 30.9459C52.2758 31.5469 52.4372 32.6792 52.3983 33.35C52.3594 34.0209 52.3674 34.9688 52.3983 35.6397C52.4292 36.3106 52.2884 37.4451 52.3983 38.0438C52.5082 38.6426 52.0652 39.9053 52.5128 40.219Z" fill="#FEB9AF"/>
<path d="M52.5137 40.219C53.4295 40.219 54.3454 40.219 55.2613 40.219C55.2613 36.3643 55.2613 32.5108 55.2613 28.6562C54.5709 28.9791 53.1284 28.2258 52.5137 28.6562C52.5137 32.5108 52.5137 36.3643 52.5137 40.219Z" fill="#FF8926"/>
<path d="M12.1004 28.998C11.0781 28.8342 10.6556 30.1897 10.4953 30.9419C10.3339 31.6929 9.79356 32.9671 9.73288 33.7284C9.67221 34.4897 8.92235 36.0959 8.29383 34.9797C7.66532 33.8623 6.7529 33.8738 6.83418 35.0655C6.91546 36.2573 7.02308 37.0621 7.41575 38.0329C7.80843 39.0049 8.27552 39.2991 9.00019 39.9975C9.72487 40.6958 10.6362 39.9654 11.2131 39.33C11.7901 38.6935 12.1576 37.994 12.5228 37.2064C12.8892 36.4176 13.2761 35.4525 13.4364 34.5698C13.5967 33.6872 13.4685 31.986 13.3597 31.1731C13.2509 30.3603 13.0311 29.1468 12.1004 28.998Z" fill="#FE9C8F"/>
<path d="M72.7761 29.5703C71.8225 29.5703 70.8677 29.5703 69.9141 29.5703C69.9141 33.1193 69.9141 36.6682 69.9141 40.2172C70.8677 40.2172 71.8225 40.2172 72.7761 40.2172C72.7761 36.6682 72.7761 33.1193 72.7761 29.5703Z" fill="#3A5B66"/>
<path d="M33.0512 29.6838C32.8074 29.44 32.243 29.8464 32.5681 30.1669C32.8921 30.4863 33.2424 29.875 33.0512 29.6838Z" fill="#273338"/>
<path d="M30.0747 29.8016C29.6854 29.6069 29.4359 30.1118 29.7679 30.335C30.0999 30.5583 30.3575 29.9435 30.0747 29.8016Z" fill="#233137"/>
<path d="M25.9534 30.8287C25.2207 29.9541 24.9001 32.4326 26.0679 32.088C25.4027 32.1224 25.1829 30.4979 25.9534 30.8287Z" fill="#955545"/>
<path d="M30.1895 31.9763C30.2684 32.2464 31.0423 32.6483 31.2198 32.3197C30.7905 32.3575 30.4287 32.0186 30.3039 31.6328C30.162 31.6683 30.233 31.6717 30.1895 31.9763Z" fill="#2B3337"/>
<path d="M30.189 31.9754C29.7265 32.6509 30.948 32.8844 31.3338 32.4334C31.1587 31.9812 30.8942 31.4843 30.3035 31.632C30.4283 32.0178 30.79 32.3567 31.2194 32.3189C31.0419 32.6475 30.268 32.2456 30.189 31.9754Z" fill="#7B453A"/>
<path d="M59.6109 31.7461C58.695 31.7461 57.7791 31.7461 56.8633 31.7461C56.8633 34.5704 56.8633 37.3935 56.8633 40.2178C57.7791 40.2178 58.695 40.2178 59.6109 40.2178C59.6109 37.3935 59.6109 34.5704 59.6109 31.7461Z" fill="#FF8926"/>
<path d="M50.9102 32.5472C50.0264 32.7464 48.0378 31.9942 48.0481 33.2341C48.0585 34.4739 48.0424 35.581 48.0481 36.783C48.0539 37.9851 48.0447 39.0292 48.0481 40.2175C49.0018 40.2175 49.9566 40.2175 50.9102 40.2175C50.9102 37.6611 50.9102 35.1036 50.9102 32.5472Z" fill="#FF8926"/>
<path d="M43.6982 33.6933C44.6519 33.6933 45.6067 33.6933 46.5603 33.6933C46.3691 33.4209 45.3937 33.5937 45.072 33.5788C44.7503 33.564 43.8757 33.4392 43.6982 33.6933Z" fill="#FFB9AF"/>
<path d="M46.5603 33.6914C45.6067 33.6914 44.6519 33.6914 43.6982 33.6914C43.6982 35.8666 43.6982 38.0418 43.6982 40.2169C44.6519 40.2169 45.6067 40.2169 46.5603 40.2169C46.4985 39.5358 46.6427 38.7092 46.5603 38.0418C46.4779 37.3743 46.7194 36.4802 46.5603 35.8666C46.4012 35.253 46.9015 34.178 46.5603 33.6914Z" fill="#FF8926"/>
<path d="M64.0759 40.2183C64.0805 39.473 64.0691 38.6682 64.0759 37.9287C64.0828 37.1891 64.0633 36.3568 64.0759 35.639C64.0885 34.9212 64.2843 33.9298 63.389 34.0363C62.4938 34.1427 62.0668 33.9561 61.2139 34.0363C61.2139 36.097 61.2139 38.1576 61.2139 40.2183C62.1675 40.2183 63.1223 40.2183 64.0759 40.2183Z" fill="#FF8926"/>
<path d="M77.1267 34.0352C76.1731 34.0352 75.2183 34.0352 74.2646 34.0352C74.2646 36.0958 74.2646 38.1565 74.2646 40.2172C75.2183 40.2172 76.1731 40.2172 77.1267 40.2172C77.1267 38.1565 77.1267 36.0958 77.1267 34.0352Z" fill="#FF8926"/>
<path d="M31.3334 35.9805C31.3334 35.8122 31.2613 35.4412 31.3334 35.2936C30.2001 35.2581 29.1377 34.9352 28.1279 34.4922C28.7084 35.6599 30.0833 36.1167 31.3334 35.9805Z" fill="#7F4438"/>
<path d="M84.2246 43.4215C84.2246 43.4169 84.3391 43.4215 84.3391 43.4215C84.3391 40.5216 84.3391 37.6206 84.3391 34.7208C84.3391 34.7208 84.2246 34.7162 84.2246 34.7208C84.2246 37.6206 84.2246 40.5216 84.2246 43.4215Z" fill="#667177"/>
<path d="M23.8921 37.3574C23.6104 37.6024 23.4032 37.9401 23.0907 38.1588C23.0907 38.1588 23.1102 38.224 23.0907 38.2733C22.9762 38.5663 22.769 38.8262 22.6328 39.0747C22.5847 39.2017 22.5515 39.2887 22.5183 39.4181C22.4668 39.6207 22.3351 39.8348 22.2893 39.9905C22.279 40.1016 22.287 40.2229 22.2893 40.334C22.2939 40.5858 22.1931 40.8526 22.1748 41.0209C22.1462 41.2807 22.1748 41.5601 22.1748 41.8222C22.1748 42.2802 22.1748 42.7381 22.1748 43.196C22.1748 44.532 22.1748 45.8669 22.1748 47.2029C22.1748 47.4697 22.1748 47.7376 22.1748 48.0043C22.1748 48.1955 22.1748 48.3855 22.1748 48.5767C22.1748 48.8435 22.1748 49.1114 22.1748 49.3781C22.2435 50.1039 22.6041 50.9923 22.5183 51.7822C22.5183 51.7822 22.5171 51.8395 22.5183 51.8967C22.8663 52.302 23.006 52.7714 23.4341 53.156C24.1199 53.2224 24.7495 53.385 25.4948 53.385C25.8761 53.385 26.2584 53.385 26.6397 53.385C28.7484 53.385 31.045 53.3117 33.0507 52.8126C33.1434 52.7897 33.2407 52.7096 33.3941 52.6981C33.5327 52.6878 33.7193 52.737 33.8521 52.6981C33.9024 52.6832 33.9872 52.6054 34.081 52.5836C34.3466 52.5229 34.5996 52.4783 34.8824 52.4691C34.9969 52.4657 35.1114 52.4691 35.2259 52.4691C35.3484 52.2287 35.3117 52.049 35.3404 51.7822C35.3255 51.733 35.2476 51.6472 35.2259 51.5533C35.0347 50.7233 34.9637 49.8669 34.7679 49.0347C34.31 49.0347 33.8521 49.0347 33.3941 49.0347C32.8881 49.0347 31.4376 49.2648 31.1045 48.9202C30.318 48.9912 29.4914 48.9202 28.7003 48.9202C28.3901 48.9202 27.9242 49.0106 27.67 48.8057C26.5824 48.7828 26.5767 49.5281 26.0672 50.294C26.0867 49.7834 26.4622 49.3838 26.6397 48.9202C26.7255 48.8297 26.3317 49.0095 26.2962 49.0347C26.026 49.5132 25.6895 49.9849 25.3803 50.4085C25.4719 49.9024 25.8142 49.385 26.1817 49.0347C26.2871 48.9248 26.4187 48.5973 26.6397 48.6912C26.5355 47.9288 26.6248 47.0575 26.6397 46.2871C26.6591 45.3048 26.8423 44.3237 26.7541 43.3105C27.0403 44.2161 26.7976 45.3288 26.7541 46.2871C26.7106 47.4285 26.3477 48.6374 27.67 48.6912C28.0398 48.7061 28.3558 48.7759 28.7003 48.8057C29.488 48.8755 30.3134 48.8057 31.1045 48.8057C32.0604 48.8057 33.0976 48.8011 33.9666 48.9202C34.1188 48.9179 34.2722 48.9202 34.4245 48.9202C34.3455 48.4187 34.5573 47.6391 34.6535 47.2029C34.6409 47.0953 34.65 46.9682 34.6535 46.8595C34.6649 46.5126 34.697 45.8509 34.8824 45.6002C34.8824 45.6002 34.8824 45.5429 34.8824 45.4857C34.8824 45.18 34.8824 44.8755 34.8824 44.5698C34.8824 44.3409 34.8824 44.1119 34.8824 43.8829C34.452 41.3071 31.9104 38.9602 31.3335 36.556C31.0507 36.9075 31.2293 37.5623 30.99 37.9298C30.7816 37.1914 30.1428 36.0867 29.2979 36.0729C28.4531 36.058 27.5452 34.8571 26.7541 35.0678C26.429 36.3568 24.8423 36.6511 23.8921 37.3574ZM26.6397 36.556C27.5681 36.5411 28.3661 37.6699 29.2728 37.8153C29.1342 36.7403 30.136 36.303 30.4176 37.4719C30.6397 37.6242 30.8274 37.892 30.8755 38.1588C30.7381 38.0821 30.5802 37.971 30.5321 37.8153C30.3054 37.6516 30.073 37.5131 29.8452 37.3574C29.8188 37.7501 29.757 38.1382 29.6162 38.5022C28.6637 38.113 27.7398 37.4776 26.9831 36.785C26.8629 36.7312 26.7587 36.7163 26.6397 36.6705C26.445 36.595 26.2882 36.4358 26.0672 36.4415C26.1794 36.2126 26.5515 36.4015 26.6397 36.556ZM33.5086 45.6002C32.9786 46.4576 32.3249 47.3495 31.6769 48.1188C32.1108 47.2052 32.7553 46.3042 33.5086 45.6002Z" fill="#A8F3EE"/>
<path d="M85.1406 36.4411C85.3295 36.4857 85.7176 36.4777 85.8275 36.3266C85.6054 36.3609 85.3604 36.2819 85.1406 36.3266C85.1406 36.3266 85.1406 36.3838 85.1406 36.4411Z" fill="#647C84"/>
<path d="M91.6665 36.4406C91.3918 36.0479 90.3397 36.4257 89.8348 36.3261C89.3299 36.2265 88.4484 36.3662 87.8886 36.3261C87.3288 36.286 86.6293 36.3261 86.0569 36.3261C86.0569 36.3261 85.9424 36.3307 85.9424 36.3261C86.469 36.8733 88.0328 36.2356 88.8045 36.4406C89.5761 36.6455 90.8491 36.2872 91.6665 36.4406Z" fill="#6A838A"/>
<path d="M68.4265 37.125C67.4729 37.125 66.5181 37.125 65.5645 37.125C65.5645 38.1553 65.5645 39.1857 65.5645 40.216C66.5181 40.216 67.4729 40.216 68.4265 40.216C68.4265 39.1857 68.4265 38.1553 68.4265 37.125Z" fill="#FF8926"/>
<path d="M89.2626 37.5859C88.4155 37.4336 87.1642 37.4508 86.4864 38.1297C85.8087 38.8097 86.9592 38.6964 87.7721 38.156C88.5837 37.6157 89.5133 38.5464 90.3216 38.701C91.131 38.8555 89.9449 37.7084 89.2626 37.5859Z" fill="#F0F2F3"/>
<path d="M88.8039 38.6162C88.2681 38.5498 87.326 38.7021 87.002 39.2172C86.678 39.7336 87.6774 39.5573 88.117 39.1886C88.5566 38.82 89.6488 39.8675 89.9728 39.5584C90.2968 39.2493 89.0295 38.6448 88.8039 38.6162Z" fill="#E8ECED"/>
<path d="M88.8046 39.6468C88.1085 39.3068 87.48 40.3166 88.1554 40.7539C88.8309 41.1912 89.4514 39.9628 88.8046 39.6468Z" fill="#F0F3F4"/>
<path d="M85.1411 56.9308C85.3655 56.9079 85.6105 56.8805 85.828 56.8164C85.4708 55.7013 85.9746 54.3378 85.828 53.1529C85.6815 51.968 85.8761 50.5885 85.828 49.375C85.7799 48.1615 85.8017 46.9365 85.828 45.7115C85.8544 44.4866 85.717 43.1586 85.828 41.9336C85.5991 41.9336 85.3701 41.9336 85.1411 41.9336C85.1411 44.4293 85.2224 47.0017 85.1411 49.4895C85.0599 51.9772 85.3644 54.4592 85.1411 56.9308Z" fill="#E0E0E0"/>
<path d="M85.8281 56.8164C85.8681 56.8049 85.9128 56.7156 85.9425 56.7019C86.2837 54.3332 85.9013 51.7791 85.9425 49.375C85.9838 46.9708 86.1612 44.3343 85.9425 41.9336C85.9425 41.9336 85.8853 41.9336 85.8281 41.9336C85.717 43.1586 85.8544 44.4866 85.8281 45.7115C85.8017 46.9365 85.78 48.1615 85.8281 49.375C85.8761 50.5885 85.6815 51.968 85.8281 53.1529C85.9746 54.3378 85.4709 55.7013 85.8281 56.8164Z" fill="#35464D"/>
<path d="M85.9426 56.7019C85.9895 56.6801 86.0571 56.7019 86.0571 56.7019C86.0571 51.8169 86.0571 46.9331 86.0571 42.0481C86.2895 42.1534 86.5906 41.9519 86.744 41.9336C86.4772 41.9336 86.2094 41.9336 85.9426 41.9336C86.1613 44.3343 85.9838 46.9708 85.9426 49.375C85.9014 51.7791 86.2838 54.3332 85.9426 56.7019Z" fill="#B1B5B8"/>
<path d="M84.2243 57.2763C84.2621 57.2569 84.3331 57.2019 84.3388 57.1618C84.6605 54.9271 84.2175 52.5539 84.3388 50.2929C84.459 48.0318 84.3388 45.6918 84.3388 43.4239C84.3388 43.4239 84.2243 43.4193 84.2243 43.4239C84.2243 44.9465 84.1545 46.61 84.2243 48.1177C84.2942 49.6254 84.032 51.2305 84.2243 52.697C84.4178 54.1635 83.7801 55.8911 84.2243 57.2763Z" fill="#8B9298"/>
<path d="M40.836 46.1722C41.6672 45.752 43.2253 45.3353 44.0415 46.0577C44.3621 45.7738 44.915 45.72 45.3008 45.5998C44.962 45.9008 44.4697 46.021 44.0415 46.1722C43.9854 46.7251 43.2871 46.5511 42.8967 46.6301C42.5246 46.7537 41.9923 47.2025 41.6374 47.4315C41.3649 47.6066 41.105 47.7475 40.836 47.8894C40.4834 48.1413 40.1972 48.5752 39.8057 48.8053C39.8973 49.048 40.5899 49.578 40.836 49.6067C40.8097 49.5666 40.836 49.4922 40.836 49.4922C40.6219 49.1773 41.6488 49.2529 41.7519 49.2632C41.927 49.23 41.8583 49.2311 41.9808 49.1487C41.9488 49.119 43.9305 48.74 44.385 48.8053C44.7032 48.7744 45.1303 48.6633 45.5298 48.6908C45.5115 48.5546 46.1045 47.9169 46.2167 47.7749C47.1257 46.6232 48.5796 45.4441 49.4222 44.5694C49.2619 45.2655 48.2957 45.6169 47.9339 46.2866C56.4434 46.2866 64.9541 46.2866 73.4636 46.2866C73.5403 51.0011 73.3113 55.854 73.5781 60.4825C73.5781 55.7509 73.5781 51.0182 73.5781 46.2866C75.5243 46.2866 77.4705 46.2866 79.4167 46.2866C79.4888 47.0319 79.2702 47.918 79.5312 48.5763C79.5312 46.8968 79.5312 45.2185 79.5312 43.5391C66.6324 43.5391 53.7348 43.5391 40.836 43.5391C40.5876 44.3027 41.168 45.4463 40.836 46.1722ZM49.0788 44.6839C48.7708 44.8522 48.3266 44.914 47.9339 44.9129C48.2339 44.7125 48.6815 44.6633 49.0788 44.6839ZM47.8195 44.9129C47.5859 45.0731 47.2219 45.1441 46.9036 45.1418C47.1257 44.9392 47.4966 44.89 47.8195 44.9129ZM46.7891 45.1418C46.5418 45.4109 46.1114 45.42 45.7588 45.4853C46.0061 45.2162 46.4365 45.2071 46.7891 45.1418ZM46.6746 45.7142C46.7628 46.1779 46.2522 46.3759 45.8733 46.2866C45.7851 45.823 46.2957 45.6249 46.6746 45.7142ZM45.7588 46.5156C45.3615 46.9644 44.8956 47.586 44.385 48.0039C44.6781 47.4372 45.1451 46.8007 45.7588 46.5156Z" fill="#E3E3E3"/>
<path d="M46.2168 47.7719C46.2843 47.7158 46.3759 47.6998 46.4458 47.6574C46.9655 47.3415 47.5001 46.7175 47.934 46.2836C48.2958 45.6139 49.262 45.2625 49.4223 44.5664C48.5797 45.4411 47.1258 46.6202 46.2168 47.7719Z" fill="#8E979A"/>
<path d="M49.0784 44.684C48.6812 44.6634 48.2335 44.7126 47.9336 44.913C48.3263 44.9141 48.7705 44.8523 49.0784 44.684Z" fill="#91999C"/>
<path d="M47.8192 44.9114C47.4963 44.8885 47.1254 44.9377 46.9033 45.1404C47.2216 45.1427 47.5856 45.0717 47.8192 44.9114Z" fill="#707B80"/>
<path d="M46.7891 45.1406C46.4365 45.2059 46.0061 45.215 45.7588 45.4841C46.1114 45.4188 46.5419 45.4097 46.7891 45.1406Z" fill="#657176"/>
<path d="M44.042 46.0556C44.0706 46.0808 44.042 46.1701 44.042 46.1701C44.4702 46.019 44.9624 45.8987 45.3013 45.5977C44.9155 45.7179 44.3625 45.7717 44.042 46.0556Z" fill="#5E6C71"/>
<path d="M40.8359 46.1714C40.5451 46.3179 40.0013 46.8411 39.6911 46.8583C39.3808 47.3448 39.5114 48.295 39.5766 48.8045C38.0219 48.0649 36.4134 48.508 34.8828 49.0334C35.319 49.4902 35.2915 51.0609 35.2263 51.5521C35.248 51.6459 35.3259 51.7318 35.3407 51.781C35.3453 51.741 35.4152 51.6734 35.4552 51.6666C36.6481 51.4536 37.5789 52.524 38.5463 53.0403C38.5508 53.0003 38.6207 52.9316 38.6607 52.9259C39.5732 52.7954 40.331 50.99 40.2635 50.2928C40.639 50.3511 41.1736 49.9974 40.8359 49.6059C40.5898 49.5772 39.8972 49.0472 39.8056 48.8045C39.6796 48.469 40.5543 48.0374 40.8359 47.8886C41.105 47.7467 41.3648 47.6058 41.6373 47.4307C42.0437 47.0998 42.3471 46.7415 42.8966 46.6293C43.287 46.5503 43.9853 46.7243 44.0414 46.1714C44.0414 46.1714 44.0701 46.0821 44.0414 46.0569C43.2252 45.3345 41.6671 45.7512 40.8359 46.1714Z" fill="#C17561"/>
<path d="M46.6747 45.7123C46.2958 45.623 45.7852 45.8211 45.8733 46.2847C46.2523 46.374 46.7629 46.176 46.6747 45.7123Z" fill="#FF8926"/>
<path d="M45.7586 46.5156C45.1449 46.8007 44.6778 47.4372 44.3848 48.0039C44.8954 47.586 45.3613 46.9644 45.7586 46.5156Z" fill="#667378"/>
<path d="M41.6377 47.4303C41.9926 47.2013 42.5249 46.7525 42.897 46.6289C42.3475 46.7411 42.0441 47.0994 41.6377 47.4303Z" fill="#4A4B4C"/>
<path d="M46.2166 47.7746C46.1044 47.9166 45.5114 48.5543 45.5297 48.6905C45.6064 48.6962 45.6121 48.7958 45.7587 48.6905C46.0666 48.4695 46.2063 47.9303 46.4456 47.6602C46.3757 47.7025 46.2842 47.7185 46.2166 47.7746Z" fill="#5E6B70"/>
<path d="M39.8053 48.8026C40.1968 48.5725 40.483 48.1386 40.8356 47.8867C40.554 48.0355 39.6794 48.4671 39.8053 48.8026Z" fill="#44494C"/>
<path d="M44.3848 48.8024C44.4248 48.8081 44.4729 48.9112 44.4992 48.9169C44.9915 48.9169 45.4082 49.0028 45.7586 48.6879C45.612 48.7932 45.6063 48.6936 45.5296 48.6879C45.13 48.6604 44.703 48.7715 44.3848 48.8024Z" fill="#879194"/>
<path d="M41.9809 49.1479C42.0209 49.1215 42.0953 49.1479 42.0953 49.1479C42.6494 49.0563 43.2505 48.959 43.8126 48.9189C44.0393 48.9029 44.2728 48.9189 44.4995 48.9189C44.4731 48.9132 44.4251 48.8101 44.385 48.8044C43.9305 48.7392 41.9488 49.1181 41.9809 49.1479Z" fill="#43494D"/>
<path d="M42.0957 49.1469C42.2651 49.5201 42.8959 49.3759 43.2405 49.3759C43.2978 49.3759 43.355 49.3759 43.355 49.3759C43.4729 49.266 43.521 49.2763 43.6985 49.2614C43.7649 49.2145 43.782 48.9409 43.8129 48.918C43.2508 48.958 42.6498 49.0553 42.0957 49.1469Z" fill="#BB7663"/>
<path d="M40.8359 49.4903C41.1427 49.4022 41.4312 49.322 41.7518 49.2614C41.6487 49.2511 40.6218 49.1755 40.8359 49.4903Z" fill="#45555B"/>
<path d="M41.7522 49.2629C41.4316 49.3236 41.1431 49.4037 40.8363 49.4919C40.8363 49.4919 40.81 49.5663 40.8363 49.6064C41.174 49.9979 40.6394 50.3516 40.2639 50.2932C40.3314 50.9904 39.5736 52.7958 38.6611 52.9264C39.1191 54.0185 39.3137 55.2618 40.2639 56.1319C41.9663 54.5222 43.5358 52.6585 45.0722 50.9801C44.3315 50.6848 43.4866 50.2257 43.2404 49.3774C42.8959 49.3774 42.2651 49.5216 42.0956 49.1484C42.0956 49.1484 42.0212 49.1221 41.9811 49.1484C41.8586 49.2308 41.9273 49.2297 41.7522 49.2629Z" fill="#FCFCFC"/>
<path d="M43.3545 49.3776C43.643 49.8791 43.8468 50.2443 44.3848 50.5224C49.1565 50.2557 54.1731 50.4847 59.0386 50.408C59.0386 50.0267 59.0386 49.6444 59.0386 49.2631C53.9533 49.5894 48.7741 48.8281 43.6979 49.2631C43.5205 49.278 43.4724 49.2677 43.3545 49.3776Z" fill="#E0E0E0"/>
<path d="M38.6614 52.924C38.6213 52.9297 38.5515 52.9984 38.5469 53.0384C38.7094 54.3207 39.4708 55.3636 40.2641 56.3585C41.4856 55.2571 42.5423 53.9658 43.6986 52.8095C44.0707 52.4374 44.8698 51.6509 45.0724 51.2067C45.2132 50.7087 44.8056 50.7362 44.3855 50.5198C43.8474 50.2416 43.6436 49.8764 43.3552 49.375C43.3552 49.375 43.2979 49.375 43.2407 49.375C43.4868 50.2233 44.3317 50.6824 45.0724 50.9778C43.536 52.6561 41.9665 54.5199 40.2641 56.1295C39.3139 55.2594 39.1193 54.0161 38.6614 52.924Z" fill="#5F6C72"/>
<path d="M43.6982 52.8098C46.1024 52.8098 48.5065 52.8098 50.9107 52.8098C50.9107 52.4286 50.9107 52.0462 50.9107 51.665C48.85 51.665 46.7893 51.665 44.7286 51.665C44.7732 51.4726 45.0171 51.3994 45.072 51.207C44.8694 51.6512 44.0703 52.4377 43.6982 52.8098Z" fill="#E0E0E0"/>
<path d="M34.8823 52.5809C35.3219 53.175 34.8274 54.4881 34.8823 55.0995C34.9648 55.2689 35.0277 55.4189 35.1113 55.5574C34.9877 55.1075 35.1456 54.2855 35.1113 53.8402C35.0769 53.3948 34.9625 52.669 35.3403 52.4664C35.3403 52.4664 35.283 52.4664 35.2258 52.4664C35.1113 52.4664 34.9968 52.4629 34.8823 52.4664C34.8823 52.4664 34.8549 52.5442 34.8823 52.5809Z" fill="#526066"/>
<path d="M34.654 52.6946C34.6723 52.8274 34.9379 53.3494 34.8829 53.7249C34.828 54.1004 34.7707 54.5904 34.7685 54.8698C34.7971 54.9465 34.8474 55.0255 34.8829 55.0987C34.828 54.4874 35.3225 53.1743 34.8829 52.5801C34.9081 52.5595 34.6093 52.7072 34.654 52.6946Z" fill="#A7AEB1"/>
<path d="M34.1956 53.1532C34.1681 53.6352 34.5997 54.4148 34.768 54.8705C34.7703 54.5911 34.8275 54.1012 34.8825 53.7257C34.9374 53.3502 34.6718 52.8281 34.6535 52.6953C34.5699 52.7182 34.3959 52.7056 34.3101 52.6953C34.4165 52.8361 34.2025 53.0388 34.1956 53.1532Z" fill="#F7F6F6"/>
<path d="M26.6404 53.3837C26.2809 53.4181 25.8482 53.4181 25.4956 53.3837C24.7503 53.3837 24.1206 53.2212 23.4349 53.1548C23.4349 53.1548 23.4177 53.2635 23.4349 53.2693C24.0931 53.4879 23.041 55.2933 22.8991 56.0535C22.7571 56.8148 22.29 58.5378 22.29 59.4513C22.29 59.7948 22.29 60.1382 22.29 60.4817C22.29 61.4399 22.6655 62.2802 23.1796 63.0266C23.6936 63.7731 24.0714 64.4485 24.6083 65.1469C25.1464 65.8441 25.6043 66.4714 26.1538 67.1503C26.7034 67.8292 27.096 68.4989 27.6994 69.1537C28.3027 69.8086 28.6255 70.4737 29.2643 71.1377C29.902 71.8029 30.1207 72.4108 30.8671 73.0839C31.6135 73.7571 31.1968 74.4303 30.1894 74.792C30.1825 75.0084 30.3519 75.1687 30.4183 75.3644C30.7423 75.9884 31.2861 76.5883 31.6776 77.1962C32.5488 78.5471 33.3972 79.6404 32.5946 81.2042C31.791 82.768 31.7944 84.0915 31.1819 85.6301C30.5706 87.1699 30.2672 88.5861 29.7314 90.1327C30.9026 90.3823 29.4017 91.9255 29.388 92.7658C30.2283 93.1448 31.1957 93.3978 32.0234 93.7939C32.8522 94.1888 33.7864 94.4556 34.566 94.9147C35.3457 95.3737 36.6176 95.3795 37.2873 95.9713C37.135 95.6794 36.9335 95.4161 36.7149 95.17C36.4435 94.8643 35.9902 94.1705 35.57 94.0251C35.3365 94.0251 35.23 94.4693 34.9976 94.4831C34.937 94.3365 35.1087 94.2701 35.1121 94.1396C35.1362 93.9942 35.3296 93.945 35.3411 93.7962C35.1201 93.7206 35.0354 93.4081 34.7687 93.4527C34.6931 93.5374 34.1894 93.5695 34.0818 93.6817C34.1882 93.4333 34.4309 93.3256 34.6542 93.2238C34.5122 93.0704 34.1527 92.8013 34.0818 92.6513C33.8425 92.7383 33.5277 92.6811 33.2804 92.7658C33.3926 92.4189 33.8116 92.5712 34.0818 92.5369C34.0783 92.1568 34.3336 92.024 34.6542 92.1934C35.0434 91.1482 35.5208 90.143 35.9135 89.1024C36.8294 89.1024 37.7452 89.1024 38.6611 89.1024C38.5649 88.0709 36.7847 89.0211 36.1425 88.53C36.4355 87.8511 36.6748 87.155 36.9438 86.4693C37.4727 85.1207 38.2753 83.6976 38.6611 82.3479C38.6737 82.1361 38.7275 82.0388 38.7756 81.89C39.261 80.4017 40.1562 78.7783 40.2638 77.1962C40.3131 76.4726 40.2467 75.8773 40.0349 75.25C39.9513 75.0038 39.9135 74.7794 39.8059 74.5631C38.1928 71.3358 36.3691 67.9597 34.9976 64.6031C34.9461 64.476 34.7057 64.3455 34.7687 64.1451C34.8831 64.1577 35.0812 64.0913 35.1121 64.2596C37.4075 64.2768 39.8128 65.2419 41.9811 65.6334C40.4722 66.7588 39.048 68.0765 37.6307 69.2969C37.9662 69.8601 38.2592 70.9454 38.5832 71.6644C38.9084 72.3833 39.6021 73.2946 39.8059 73.9906C40.2135 73.3358 41.3388 73.1171 41.8929 72.5287C42.447 71.9403 43.3434 71.4915 43.9559 70.9282C44.5684 70.3638 45.3652 69.8773 45.9594 69.2682C46.5535 68.6603 47.3457 68.1337 47.9342 67.5796C48.1712 67.3564 48.589 66.8126 48.7356 66.5493C48.9336 66.1944 49.142 65.4216 49.1935 65.061C49.237 64.7553 49.2301 64.3375 49.1935 64.0306C49.0344 62.6809 48.1826 61.1915 46.9073 60.5939C45.6308 59.9951 44.1517 59.6036 42.9221 58.9682C41.6937 58.3317 40.052 58.0455 38.9164 57.3643C37.7807 56.6831 35.7635 56.6328 35.1121 55.5589C35.0285 55.4204 34.9656 55.2704 34.8831 55.101C34.8477 55.0277 34.7973 54.9487 34.7687 54.872C34.6004 54.4164 34.1688 53.6368 34.1962 53.1548C33.7154 53.1926 33.3124 52.9556 32.8225 53.0403C32.9129 53.022 33.1522 52.7438 33.0514 52.8113C31.0457 53.3105 28.7492 53.3837 26.6404 53.3837ZM31.6776 91.2775C32.0669 91.4069 31.8081 92.1282 31.3708 91.9255C30.9335 91.7229 31.2518 91.1356 31.6776 91.2775Z" fill="#1A2E34"/>
<path d="M26.6399 53.3828C26.2587 53.3828 25.8763 53.3828 25.4951 53.3828C25.8477 53.4172 26.2805 53.4172 26.6399 53.3828Z" fill="#7F4845"/>
<path d="M54.4592 54.0703C50.6046 54.0703 46.7511 54.0703 42.8965 54.0703C42.8965 54.4515 42.8965 54.8339 42.8965 55.2151C46.7511 55.2151 50.6046 55.2151 54.4592 55.2151C54.4592 54.8339 54.4592 54.4515 54.4592 54.0703Z" fill="#E1E1E1"/>
<path d="M58.5806 56.4727C53.3522 56.4727 48.1249 56.4727 42.8965 56.4727C42.8965 56.8539 42.8965 57.2363 42.8965 57.6175C48.1249 57.6175 53.3522 57.6175 58.5806 57.6175C58.5806 57.2363 58.5806 56.8539 58.5806 56.4727Z" fill="#E1E1E1"/>
<path d="M86.0568 56.7032C86.0568 56.7032 85.9892 56.6815 85.9423 56.7032C85.9125 56.717 85.8679 56.8063 85.8278 56.8177C85.6103 56.8818 85.3653 56.9093 85.1409 56.9322C85.1409 56.9322 85.0734 56.9105 85.0264 56.9322C84.9967 56.946 84.9509 57.0295 84.9119 57.0467C84.7414 57.1234 84.5009 57.0913 84.3395 57.1612C84.3338 57.2012 84.2628 57.2562 84.225 57.2757C81.1546 58.8773 78.8547 60.6758 77.585 64.0301C77.4568 64.369 77.3275 64.7102 77.2416 65.0605C77.1283 65.5253 76.9932 66.0553 77.0126 66.5488C77.0149 66.606 77.0126 66.7205 77.0126 66.7777C77.0126 67.3124 77.0126 67.8459 77.0126 68.3805C77.0126 69.562 77.3572 70.851 77.7362 71.8928C78.1151 72.9346 78.8444 73.6295 79.3366 74.5282C79.8289 75.4258 81.2267 75.7669 81.4775 76.6233C81.4923 76.6759 81.4775 76.7377 81.4775 76.7377C81.7843 77.0549 82.5799 76.8843 83.0424 77.0045C83.5049 77.1247 84.2823 77.2277 84.7975 77.1957C84.7024 76.3863 85.276 75.4521 85.2932 74.6003C85.3103 73.7486 85.7946 72.8007 85.8278 71.9295C83.6664 71.2208 83.3355 69.2162 83.0802 67.2357C82.8249 65.2551 85.5347 62.9735 86.5055 65.2986C87.4775 67.6226 86.0373 69.5528 86.0568 71.815C87.1913 72.3702 88.1598 72.0439 88.2308 70.898C88.3029 69.7531 88.8066 69.009 88.9566 67.9603C89.1054 66.9117 89.4993 66.2935 90.1495 65.4898C90.8009 64.6873 92.0522 65.0857 92.4415 66.0027C92.8307 66.9197 92.7552 68.2122 92.3785 69.0926C92.003 69.9741 91.5645 70.5717 90.8364 71.2139C90.1095 71.8562 89.2142 72.2683 88.2319 72.2729C87.8576 74.0188 87.5141 75.7738 87.2016 77.5391C88.2846 78.0005 89.7523 77.6776 90.865 78.1115C91.7546 77.0949 93.4008 76.7309 94.4999 75.6788C95.6001 74.6278 96.4896 73.8093 97.1879 72.4137C97.8863 71.0182 98.4392 69.4463 98.5354 67.8081C98.6316 66.1698 98.2881 64.2076 97.6104 62.78C96.9338 61.3524 96.2995 60.4365 95.1295 59.3077C93.9584 58.1789 92.8616 57.7863 91.3482 57.136C89.8358 56.4846 87.7362 56.7032 86.0568 56.7032ZM90.1781 57.8481C91.6447 58.0862 92.7689 58.7525 93.9847 59.7657C95.1994 60.78 95.5623 61.7977 96.129 63.3455C96.6957 64.8945 94.8399 66.598 93.489 65.4131C92.1369 64.2282 92.2159 63.302 91.0081 62.1698C89.8004 61.0387 87.9137 62.0381 87.0963 60.3575C86.2789 58.6769 88.8261 57.6283 90.1781 57.8481ZM96.1313 66.8922C97.8931 67.2654 97.1605 70.3908 95.3677 69.831C93.5749 69.2712 94.2778 66.5007 96.1313 66.8922Z" fill="#FF8926"/>
<path d="M90.1777 57.8493C88.8257 57.6295 86.2784 58.6782 87.0958 60.3588C87.9132 62.0394 89.7999 61.0399 91.0077 62.171C92.2155 63.3033 92.1365 64.2294 93.4885 65.4143C94.8394 66.5992 96.6952 64.8957 96.1285 63.3468C95.5618 61.799 95.1989 60.7812 93.9843 59.7669C92.7684 58.7537 91.6442 58.0874 90.1777 57.8493Z" fill="#FFD7B6"/>
<path d="M22.1756 60.4796C22.2123 60.4521 22.2901 60.4796 22.2901 60.4796C22.2901 60.1361 22.2901 59.7927 22.2901 59.4492C22.2638 59.7251 22.1424 60.1144 22.1756 60.4796Z" fill="#808A8E"/>
<path d="M14.9629 60.7088C15.0213 60.6596 15.1174 60.6104 15.1919 60.5944C16.244 60.37 17.7208 60.8382 18.7408 60.5944C19.7609 60.3505 21.3728 61.074 22.1753 60.4799C21.0385 60.6127 19.4941 60.3024 18.3974 60.4799C17.3006 60.6573 15.77 60.0254 14.9629 60.7088Z" fill="#CCE1E6"/>
<path d="M15.1914 60.5954C15.4868 60.671 15.8371 61.4369 15.9928 61.6258C17.267 63.177 18.7988 64.6699 20.1428 66.1765C21.4857 67.6831 22.7644 69.4232 24.2069 70.813C25.6494 72.2017 26.7427 74.2349 28.3569 75.3637C29.0381 75.3019 29.7353 75.4095 30.4176 75.3637C30.3512 75.168 30.1818 75.0077 30.1887 74.7913C31.1961 74.4295 31.6128 73.7564 30.8664 73.0832C30.12 72.4101 29.9013 71.8022 29.2636 71.137C28.6248 70.473 28.302 69.8079 27.6987 69.153C27.0953 68.4982 26.7027 67.8285 26.1531 67.1496C25.6036 66.4707 25.1457 65.8433 24.6076 65.1461C24.0707 64.4478 23.6929 63.7723 23.1789 63.0259C22.6648 62.2795 22.2893 61.4392 22.2893 60.481C22.2893 60.481 22.2115 60.4535 22.1749 60.481C21.3723 61.0751 19.7604 60.3516 18.7404 60.5954C17.7203 60.8393 16.2435 60.3711 15.1914 60.5954Z" fill="#12486B"/>
<path d="M14.963 60.7121C14.7192 60.9159 14.5978 61.2754 14.3906 61.5135C14.6345 61.5215 15.0775 62.2691 15.3065 62.4294C15.4427 62.2508 15.7472 61.636 15.9934 61.628C15.8377 61.4391 15.4874 60.6732 15.192 60.5977C15.1176 60.6137 15.0214 60.6629 14.963 60.7121Z" fill="#12486B"/>
<path d="M4.65962 75.3641C4.95156 74.4013 6.29444 73.735 6.80618 72.8169C7.31791 71.8999 8.26125 71.0779 8.88633 70.2033C9.5114 69.3286 10.3551 68.5066 11.042 67.6652C11.7289 66.8249 12.3712 65.8369 13.1222 65.0515C13.8732 64.265 14.4158 63.1626 15.3065 62.5421C15.2802 62.5249 15.3065 62.4276 15.3065 62.4276C15.0776 62.2673 14.6345 61.5197 14.3907 61.5117C10.5074 66.0407 6.64819 70.7104 2.94238 75.3641C3.46442 75.2256 4.15476 75.5485 4.65962 75.3641Z" fill="#12486B"/>
<path d="M15.3066 62.4264C15.3066 62.4264 15.2803 62.5237 15.3066 62.5409C16.5968 63.3812 17.3444 65.1362 18.5408 66.1757C19.7371 67.2163 20.5786 68.7309 21.7463 69.8391C22.9129 70.9485 23.7497 72.399 24.9518 73.5026C26.1539 74.6062 26.9289 76.3452 28.3577 77.0802C28.3577 83.8358 28.3577 90.588 28.3577 97.3436C36.3337 97.3436 44.3085 97.3436 52.2846 97.3436C52.3601 96.6762 52.1334 95.8565 52.399 95.2829C52.96 94.722 54.4082 95.3379 55.2611 95.1685C56.114 94.999 57.4019 95.2452 58.3521 95.1685C59.3024 95.0918 60.4495 95.2028 61.4432 95.1685C62.4369 95.1341 63.5199 95.1845 64.5342 95.1685C65.5485 95.1524 66.6029 95.1765 67.6253 95.1685C68.6476 95.1604 69.6905 95.1742 70.7163 95.1685C71.7421 95.1627 72.7816 95.1765 73.8073 95.1685C74.8331 95.1604 75.876 95.1845 76.8984 95.1685C77.9207 95.1524 78.9762 95.2028 79.9894 95.1685C81.0026 95.1341 82.0478 95.1936 82.9659 95.2829C86.8206 95.2829 90.6741 95.2829 94.5287 95.2829C93.4079 95.1742 91.978 95.1616 90.8652 95.054C90.0639 95.054 89.2625 95.054 88.4611 95.054C87.6597 95.054 86.8584 95.054 86.057 95.054C85.2556 95.054 84.4542 95.054 83.6528 95.054C82.8515 95.054 82.0501 95.054 81.2487 95.054C80.4473 95.054 79.6459 95.054 78.8446 95.054C78.0432 95.054 77.2418 95.054 76.4404 95.054C75.639 95.054 74.8377 95.054 74.0363 95.054C73.2349 95.054 72.4335 95.0551 71.6321 95.054C70.8308 95.0528 70.0282 95.0551 69.228 95.054C68.4278 95.0528 67.623 95.0574 66.8239 95.054C66.0248 95.0505 65.2165 95.0608 64.4197 95.054C63.6229 95.0471 62.8055 95.07 62.0156 95.054C61.2257 95.0379 60.3888 95.0883 59.6115 95.054C58.8341 95.0196 57.9549 95.1307 57.2073 95.054C56.4597 94.9773 55.4855 95.2234 54.8032 95.054C54.1209 94.8845 52.9371 95.4306 52.399 95.054C51.8999 94.7048 52.4254 93.3241 52.2846 92.6498C52.1437 91.9755 52.3464 90.7964 52.2846 90.0167C52.2239 89.2371 52.3075 88.2045 52.2846 87.3836C52.2617 86.5628 52.28 85.7042 52.2846 84.865C52.2891 84.0258 52.2537 83.0745 52.2846 82.2319C52.3155 81.3893 52.2067 80.4208 52.2846 79.5988C52.3624 78.7768 52.0545 77.7694 52.399 77.0802C52.399 76.9657 52.399 76.8512 52.399 76.7367C57.7797 76.7367 63.1604 76.7367 68.5411 76.7367C68.5365 76.7367 68.5411 76.6222 68.5411 76.6222C63.1604 76.6222 57.7797 76.6222 52.399 76.6222C52.399 76.2021 52.399 75.7831 52.399 75.3629C52.3418 75.3629 52.2846 75.3629 52.2846 75.3629C52.2296 75.9685 52.3807 76.5272 52.2846 77.0802C48.288 77.1569 44.2101 76.9279 40.2639 77.1947C40.1563 78.7768 39.261 80.4002 38.7756 81.8885C38.5752 83.3882 38.9256 84.9612 38.7756 86.4678C38.2032 86.4678 37.6308 86.4678 37.0583 86.4678C37.0011 86.4678 36.9439 86.4678 36.9439 86.4678C36.6748 87.1535 36.4356 87.8496 36.1425 88.5285C37.0206 88.5285 37.8975 88.5285 38.7756 88.5285C38.7756 88.7196 38.7756 88.9097 38.7756 89.1009C38.8454 89.6813 38.7859 90.477 38.7756 91.0471C38.7653 91.6172 38.8718 92.485 38.7756 92.9933C38.6794 93.5016 39.0584 94.6613 38.6611 94.9395C38.2719 95.212 36.6164 94.5606 36.7149 95.1685C36.9336 95.4146 37.1351 95.6779 37.2873 95.9698C37.3709 96.1313 37.6067 96.2915 37.5163 96.5423C34.7149 95.5577 31.9707 94.414 29.159 93.4512C29.2037 93.2142 29.2838 92.9864 29.388 92.7643C29.4017 91.924 30.9026 90.3808 29.7315 90.1312C30.2672 88.5846 30.5706 87.1684 31.182 85.6286C31.7944 84.09 31.791 82.7665 32.5947 81.2027C33.3972 79.6389 32.5489 78.5456 31.6777 77.1947C30.8133 76.6429 29.3159 77.3698 28.3577 77.0802C28.3577 76.5455 28.3577 76.0121 28.3577 75.4774C28.3577 75.4202 28.3577 75.3629 28.3577 75.3629C26.7435 74.2341 25.6501 72.2009 24.2077 70.8122C22.7652 69.4224 21.4864 67.6823 20.1435 66.1757C18.7995 64.6691 17.2677 63.1762 15.9935 61.625C15.7474 61.633 15.4429 62.2478 15.3066 62.4264ZM48.6211 80.6291C48.6898 81.1993 48.6463 81.8907 48.6211 82.4609C48.5959 83.031 48.7402 83.8736 48.6211 84.4071C48.502 84.9406 48.9142 85.9343 48.6211 86.3533C48.3773 86.7013 47.2404 86.4243 46.7894 86.4678C46.3383 86.5113 45.3 86.5319 44.8432 86.4678C44.3864 86.4037 43.1511 86.7162 42.897 86.3533C42.5707 85.8873 43.0469 84.8833 42.897 84.2926C42.747 83.7019 42.9714 82.8845 42.897 82.2319C42.8226 81.5794 42.9531 80.7265 42.897 80.0567C44.8054 80.0567 46.7127 80.0567 48.6211 80.0567C48.6211 80.2479 48.6211 80.438 48.6211 80.6291ZM48.6211 89.1009C48.8524 91.0185 48.4471 93.0139 48.6211 94.9395C46.8661 94.9395 45.1099 94.9395 43.3549 94.9395C43.2084 94.9097 43.0447 94.9624 42.897 94.9395C42.897 92.8021 42.897 90.6658 42.897 88.5285C44.8054 88.5285 46.7127 88.5285 48.6211 88.5285C48.6211 88.7196 48.6211 88.9097 48.6211 89.1009Z" fill="#9C9C9C"/>
<path d="M4.65939 75.365C4.64909 76.7205 4.67313 78.1367 4.65939 79.4864C4.64565 80.8362 4.68572 82.2798 4.65939 83.6078C4.63306 84.9358 4.71892 86.3302 4.65939 87.6147C4.59986 88.8992 4.78647 90.5374 4.65939 91.7361C4.53231 92.9347 5.23753 94.9485 3.97249 95.1706C2.70746 95.3927 1.26269 94.9095 0.0800781 95.285C1.60613 95.285 3.13333 95.285 4.65939 95.285C4.65939 95.9719 4.65939 96.6588 4.65939 97.3457C7.42529 97.5461 10.2565 97.079 13.0166 97.3457C12.9457 96.5615 13.0372 95.7258 13.0166 94.9416C12.996 94.1574 13.0006 93.3114 13.0166 92.5375C13.0327 91.7636 12.9594 90.7538 13.0166 90.0188C13.0739 89.2839 12.8701 88.2444 13.0166 87.6147C13.1632 86.985 12.648 85.5494 13.1311 85.2106C13.4437 84.9919 14.3332 85.2701 14.7339 85.2106C15.1346 85.151 15.9359 85.151 16.3366 85.2106C16.7373 85.2701 17.6269 84.9919 17.9394 85.2106C18.4042 85.5357 17.9371 86.8751 18.0539 87.5002C18.1706 88.1253 18.0218 89.3182 18.0539 90.0188C18.0859 90.7195 18.0951 91.7212 18.0539 92.423C18.0127 93.1248 18.1844 94.3142 18.0539 94.9416C17.9234 95.569 18.4134 97.0137 17.9394 97.3457C17.5044 97.6503 16.4339 97.2313 15.8787 97.3457C15.3235 97.4602 14.4065 97.3457 13.818 97.3457C13.8466 97.3744 13.818 97.4602 13.818 97.4602C15.0407 97.4843 16.3824 97.5289 17.5959 97.4602C18.8083 97.3915 20.0173 97.3102 21.2594 97.3457C22.5015 97.3812 23.683 97.3492 24.9228 97.3457C26.1627 97.3423 27.3808 97.3354 28.5863 97.4602C29.7918 97.585 31.0213 97.403 32.2497 97.4602C33.4781 97.5175 34.7867 97.427 36.0277 97.4602C37.2687 97.4934 38.4375 97.4305 39.6911 97.4602C40.9447 97.49 42.1949 97.4144 43.4691 97.4602C44.7432 97.506 45.8125 97.3641 47.1325 97.4602C48.4525 97.5564 49.4977 97.2564 50.9104 97.4602C52.3232 97.664 52.7238 96.7447 52.3987 95.285C52.1331 95.8586 52.3598 96.6783 52.2842 97.3457C44.3082 97.3457 36.3333 97.3457 28.3573 97.3457C28.3573 90.5901 28.3573 83.8379 28.3573 77.0823C26.9286 76.3473 26.1535 74.6083 24.9515 73.5047C23.7494 72.4011 22.9125 70.9506 21.7459 69.8412C20.5782 68.7331 19.7368 67.2184 18.5404 66.1778C17.3441 65.1383 16.5965 63.3833 15.3063 62.543C14.4156 63.1635 13.873 64.2659 13.122 65.0524C12.371 65.8378 11.7287 66.8258 11.0418 67.6661C10.3549 68.5075 9.51117 69.3295 8.88609 70.2042C8.26102 71.0788 7.31768 71.9008 6.80594 72.8178C6.2942 73.736 4.95132 74.4022 4.65939 75.365ZM18.3973 80.0588C18.0207 80.3233 17.1781 79.973 16.6801 80.0588C16.1821 80.1447 15.3887 80.068 14.8484 80.0588C14.308 80.0497 13.5536 80.1699 13.0166 80.0588C12.8701 80.0291 12.7064 80.0817 12.5587 80.0588C12.5587 77.7314 12.5587 75.4028 12.5587 73.0754C14.5049 73.0754 16.4511 73.0754 18.3973 73.0754C18.8049 73.3604 18.4466 74.8304 18.5118 75.365C18.5771 75.8997 18.5759 77.2334 18.5118 77.7692C18.4477 78.305 18.8026 79.7761 18.3973 80.0588Z" fill="#E0E0E0"/>
<path d="M49.1934 65.0604C49.8757 64.6506 51.1144 65.2379 51.9409 65.0604C52.7675 64.883 53.9181 65.144 54.803 65.0604C55.688 64.9769 56.637 65.0971 57.5506 65.0604C58.4642 65.0238 59.4877 65.0776 60.4127 65.0604C61.3377 65.0433 62.2284 65.0673 63.1603 65.0604C64.0922 65.0536 65.0882 65.0639 66.0223 65.0604C66.9565 65.057 67.8346 65.0616 68.7699 65.0604C69.7052 65.0593 70.6955 65.0616 71.632 65.0604C72.5685 65.0593 73.4408 65.0604 74.3796 65.0604C75.3183 65.0604 76.2983 65.0604 77.2416 65.0604C77.3275 64.7101 77.4569 64.369 77.5851 64.0301C76.9257 64.4056 75.7259 63.8595 74.952 64.0301C74.1781 64.2007 73.1386 63.95 72.3189 64.0301C71.4992 64.1102 70.6417 63.9958 69.8003 64.0301C68.9588 64.0644 68.0178 64.0152 67.1672 64.0301C66.3166 64.045 65.5026 64.0267 64.6485 64.0301C63.7945 64.0335 62.8695 64.0335 62.0154 64.0301C61.1614 64.0267 60.3451 64.045 59.4968 64.0301C58.6485 64.0152 57.7006 64.0633 56.8637 64.0301C56.0268 63.9969 55.151 64.1091 54.3451 64.0301C53.5391 63.9511 52.4584 64.1984 51.712 64.0301C50.9656 63.8618 49.791 64.4205 49.1934 64.0301C49.23 64.3369 49.2369 64.7548 49.1934 65.0604Z" fill="#E1E0E0"/>
<path d="M34.9972 64.6013C34.9995 64.5624 35.1014 64.5154 35.1117 64.4868C35.0751 64.3666 34.9537 64.3334 35.1117 64.2578C35.0808 64.0896 34.8827 64.156 34.7682 64.1434C34.7053 64.3437 34.9457 64.4742 34.9972 64.6013Z" fill="#735455"/>
<path d="M35.1113 64.4868C35.6162 66.1594 36.8102 67.9155 37.6299 69.2951C39.0472 68.0747 40.4714 66.757 41.9803 65.6316C39.812 65.2401 37.4067 64.275 35.1113 64.2578C34.9533 64.3334 35.0747 64.3666 35.1113 64.4868Z" fill="#12486B"/>
<path d="M84.7976 77.1948C84.8548 77.1913 84.9739 77.1799 85.0266 77.1948C85.5578 76.7254 85.2384 75.3459 85.591 74.6681C85.9436 73.9893 85.6539 72.7425 86.0569 72.043C86.6316 72.2892 87.2716 72.2903 87.8886 72.3865C87.71 74.1335 87.1525 75.7878 86.9728 77.5382C87.03 77.5359 87.1537 77.5176 87.2017 77.5382C87.5143 75.7729 87.8577 74.0179 88.2321 72.272C89.2143 72.2674 90.1096 71.8553 90.8366 71.213C91.5647 70.5708 92.0031 69.9732 92.3786 69.0917C92.7553 68.2113 92.8309 66.9188 92.4416 66.0018C92.0524 65.0848 90.8011 64.6864 90.1497 65.4889C89.4994 66.2926 89.1056 66.9108 88.9568 67.9594C88.8068 69.0081 88.3031 69.7522 88.2309 70.8971C88.16 72.043 87.1914 72.3693 86.0569 71.8141C86.0374 69.5519 87.4776 67.6217 86.5057 65.2977C85.5349 62.9726 82.8251 65.2542 83.0804 67.2348C83.3357 69.2153 83.6665 71.2199 85.8279 71.9286C85.7947 72.7998 85.3105 73.7477 85.2933 74.5994C85.2761 75.4512 84.7026 76.3854 84.7976 77.1948ZM85.8279 71.5851C83.8577 70.9108 83.544 69.0447 83.3093 67.2348C83.0746 65.4248 85.599 63.332 86.3752 65.5427C87.1502 67.7545 85.8108 69.4752 85.8279 71.5851ZM88.2321 72.043C88.4427 70.7002 89.1331 68.9188 89.3002 67.616C89.4662 66.3132 90.8835 64.541 91.9814 65.7751C93.0793 67.0092 92.2997 68.786 91.6379 69.9537C90.9751 71.1215 89.5269 71.956 88.2321 72.043Z" fill="#FFF1EF"/>
<path d="M34.9971 64.6028C36.3686 67.9594 38.1923 71.3355 39.8053 74.5628C39.7538 74.3681 39.8431 74.1186 39.8053 73.9904C39.6016 73.2943 38.9078 72.383 38.5827 71.6641C38.2587 70.9451 37.9656 69.8598 37.6302 69.2966C36.8105 67.917 35.6164 66.1609 35.1116 64.4883C35.1012 64.5169 34.9994 64.5638 34.9971 64.6028Z" fill="#364E57"/>
<path d="M85.8279 71.5842C85.8107 69.4743 87.1502 67.7536 86.3751 65.5418C85.5989 63.3311 83.0746 65.4239 83.3093 67.2338C83.544 69.0438 83.8577 70.9099 85.8279 71.5842Z" fill="#FF8926"/>
<path d="M48.7354 66.547C49.6569 66.223 50.8395 66.6913 51.8264 66.547C52.8132 66.4028 53.8951 66.6088 54.9174 66.547C55.9398 66.4852 57.0869 66.5733 58.1229 66.547C59.159 66.5207 60.1722 66.5527 61.214 66.547C62.2558 66.5413 63.3788 66.5367 64.4195 66.547C65.4601 66.5573 66.4767 66.5127 67.5105 66.547C68.5443 66.5814 69.7006 66.468 70.716 66.547C71.7315 66.626 72.8351 66.3638 73.8071 66.547C74.779 66.7302 76.1299 66.1555 77.0126 66.547C76.9931 66.0536 77.1282 65.5235 77.2416 65.0587C76.2982 65.0587 75.3183 65.0587 74.3795 65.0587C73.4407 65.0587 72.5684 65.0576 71.6319 65.0587C70.6954 65.0599 69.7052 65.0576 68.7698 65.0587C67.8345 65.0599 66.9564 65.0553 66.0223 65.0587C65.0881 65.0622 64.0921 65.0519 63.1602 65.0587C62.2283 65.0656 61.3376 65.0416 60.4126 65.0587C59.4876 65.0759 58.4641 65.0221 57.5505 65.0587C56.637 65.0954 55.6879 64.9752 54.8029 65.0587C53.918 65.1423 52.7674 64.8813 51.9409 65.0587C51.1143 65.2362 49.8756 64.6489 49.1933 65.0587C49.1418 65.4194 48.9334 66.1921 48.7354 66.547Z" fill="#FEFEFE"/>
<path d="M88.2324 72.0445C89.5272 71.9575 90.9754 71.1229 91.6383 69.9551C92.3 68.7874 93.0796 67.0107 91.9817 65.7765C90.8838 64.5424 89.4665 66.3146 89.3005 67.6174C89.1334 68.9202 88.4431 70.7016 88.2324 72.0445Z" fill="#FFD7B6"/>
<path d="M47.9336 67.5803C57.5879 67.5803 67.2434 67.5803 76.8977 67.5803C76.8977 67.2609 76.9069 67.0273 77.0122 66.7789C77.0122 66.7217 77.0145 66.6072 77.0122 66.5499C76.1296 66.1584 74.7787 66.7331 73.8067 66.5499C72.8347 66.3668 71.7311 66.6289 70.7157 66.5499C69.7002 66.471 68.5439 66.5843 67.5102 66.5499C66.4764 66.5156 65.4598 66.5603 64.4191 66.5499C63.3785 66.5396 62.2554 66.5442 61.2136 66.5499C60.1718 66.5557 59.1586 66.5236 58.1226 66.5499C57.0865 66.5763 55.9394 66.4881 54.917 66.5499C53.8947 66.6118 52.8129 66.4057 51.826 66.5499C50.8392 66.6942 49.6566 66.226 48.735 66.5499C48.5884 66.8133 48.1706 67.3571 47.9336 67.5803Z" fill="#E0E0E0"/>
<path d="M76.8984 67.5787C76.8984 67.8592 76.9935 68.1832 77.0129 68.3801C77.0129 67.8455 77.0129 67.312 77.0129 66.7773C76.9076 67.0258 76.8984 67.2593 76.8984 67.5787Z" fill="#F7B1A6"/>
<path d="M96.1313 66.8932C94.2778 66.5017 93.5749 69.2722 95.3677 69.832C97.1605 70.3918 97.8932 67.2664 96.1313 66.8932Z" fill="#FF8926"/>
<path d="M39.8055 73.9892C39.8433 74.1174 39.754 74.367 39.8055 74.5616C39.9131 74.7779 39.9509 75.0023 40.0345 75.2485C40.5279 75.727 41.627 75.2302 42.3242 75.363C43.0214 75.4958 44.078 75.3011 44.8428 75.363C45.6075 75.4248 46.4467 75.3378 47.2469 75.363C48.0471 75.3881 48.9458 75.3527 49.7655 75.363C50.5852 75.3733 51.4599 75.363 52.2842 75.363C52.2842 75.363 52.3414 75.363 52.3986 75.363C53.1622 75.363 53.9247 75.363 54.6883 75.363C53.2733 73.4946 51.5228 71.8472 50.109 69.9823C49.8102 69.6388 49.4862 69.2874 49.1931 68.9519C48.7901 68.4906 48.2876 68.0922 47.9338 67.5781C47.3454 68.1322 46.5531 68.6588 45.959 69.2667C45.3648 69.8758 44.568 70.3623 43.9555 70.9267C43.343 71.49 42.4466 71.9388 41.8926 72.5272C41.3385 73.1157 40.2131 73.3343 39.8055 73.9892Z" fill="#12486B"/>
<path d="M49.1929 68.9519C50.5587 69.3606 52.2267 68.7619 53.6577 68.9519C55.0888 69.142 56.6641 68.8523 58.1226 68.9519C59.5811 69.0515 61.122 68.8775 62.5874 68.9519C62.5874 69.2954 62.5874 69.6388 62.5874 69.9823C58.4282 69.9823 54.2679 69.9823 50.1088 69.9823C51.5226 71.8472 53.2731 73.4946 54.6881 75.363C53.9245 75.363 53.162 75.363 52.3984 75.363C52.3984 75.7831 52.3984 76.2021 52.3984 76.6223C57.7791 76.6223 63.1598 76.6223 68.5405 76.6223C72.7935 76.6223 77.2435 76.2399 81.4771 76.6223C81.2263 75.7659 79.8285 75.4248 79.3362 74.5272C78.8439 73.6285 78.1147 72.9336 77.7358 71.8918C77.3568 70.85 77.0122 69.561 77.0122 68.3795C76.9928 68.1826 76.8977 67.8586 76.8977 67.5781C67.2434 67.5781 57.5879 67.5781 47.9336 67.5781C48.2873 68.0922 48.7899 68.4906 49.1929 68.9519Z" fill="#FEFEFE"/>
<path d="M50.1092 69.9828C54.2684 69.9828 58.4287 69.9828 62.5878 69.9828C62.5878 69.6394 62.5878 69.2959 62.5878 68.9525C61.1225 68.878 59.5815 69.0521 58.123 68.9525C56.6645 68.8529 55.0892 69.1425 53.6582 68.9525C52.2272 68.7624 50.5591 69.3612 49.1934 68.9525C49.4864 69.2879 49.8104 69.6394 50.1092 69.9828Z" fill="#E1E1E1"/>
<path d="M85.0264 77.1947C85.5988 77.3595 86.3177 77.5633 86.9726 77.5381C87.1523 75.7877 87.7098 74.1334 87.8884 72.3864C87.2714 72.2903 86.6314 72.2891 86.0567 72.043C85.6537 72.7425 85.9434 73.9892 85.5908 74.6681C85.2382 75.3458 85.5576 76.7253 85.0264 77.1947Z" fill="#FFD7B6"/>
<path d="M13.0165 80.0577C13.4664 79.7944 12.9994 78.5247 13.131 77.997C13.2627 77.4692 13.0623 76.4434 13.131 75.8218C13.1997 75.2002 13.0795 74.2946 13.131 73.6466C14.886 73.6466 16.6422 73.6466 18.3972 73.6466C18.3972 73.4554 18.3972 73.2654 18.3972 73.0742C16.451 73.0742 14.5048 73.0742 12.5586 73.0742C12.5586 75.4017 12.5586 77.7302 12.5586 80.0577C12.7063 80.0806 12.87 80.0279 13.0165 80.0577Z" fill="#233E46"/>
<path d="M18.3975 73.6466C18.3975 75.784 18.3975 77.9203 18.3975 80.0577C18.8027 79.7749 18.4478 78.3038 18.5119 77.768C18.5761 77.2322 18.5772 75.8985 18.5119 75.3639C18.4467 74.8292 18.805 73.3593 18.3975 73.0742C18.3975 73.2654 18.3975 73.4554 18.3975 73.6466Z" fill="#778B92"/>
<path d="M13.0166 80.0595C13.5535 80.1705 14.308 80.0503 14.8483 80.0595C15.3887 80.0686 16.1821 80.1453 16.6801 80.0595C17.1781 79.9736 18.0206 80.3239 18.3973 80.0595C18.3973 77.9221 18.3973 75.7858 18.3973 73.6484C16.6423 73.6484 14.8861 73.6484 13.1311 73.6484C13.0796 74.2964 13.1998 75.202 13.1311 75.8236C13.0624 76.4453 13.2627 77.471 13.1311 77.9988C12.9994 78.5265 13.4665 79.7962 13.0166 80.0595Z" fill="#014B5C"/>
<path d="M40.2631 77.1962C44.2094 76.9295 48.2872 77.1584 52.2838 77.0817C52.38 76.5288 52.2289 75.9701 52.2838 75.3645C51.4596 75.3645 50.5849 75.3748 49.7652 75.3645C48.9455 75.3542 48.0468 75.3897 47.2466 75.3645C46.4464 75.3393 45.6072 75.4263 44.8425 75.3645C44.0777 75.3027 43.021 75.4973 42.3238 75.3645C41.6266 75.2317 40.5276 75.7285 40.0342 75.25C40.246 75.8774 40.3124 76.4727 40.2631 77.1962Z" fill="#706D6D"/>
<path d="M28.3574 75.4779C29.0123 75.5375 29.8537 75.5283 30.4181 75.3635C29.7358 75.4092 29.0386 75.3016 28.3574 75.3635C28.3574 75.3635 28.3574 75.4207 28.3574 75.4779Z" fill="#9C6F6A"/>
<path d="M28.3574 75.4778C28.3574 76.0124 28.3574 76.5459 28.3574 77.0805C29.3156 77.3702 30.8131 76.6432 31.6774 77.195C31.2859 76.5871 30.7421 75.9872 30.4181 75.3633C29.8537 75.5281 29.0123 75.5373 28.3574 75.4778Z" fill="#6C6D6D"/>
<path d="M68.5411 76.7376C72.6625 76.7376 76.7839 76.7376 80.9052 76.7376C80.9327 76.8429 80.872 76.978 80.9052 77.081C81.0026 76.8051 81.1445 76.7112 81.4777 76.7376C81.4777 76.7376 81.4925 76.6757 81.4777 76.6231C77.2441 76.2407 72.7941 76.6231 68.5411 76.6231C68.5411 76.6231 68.5365 76.7376 68.5411 76.7376Z" fill="#C1C5C9"/>
<path d="M80.9054 77.0821C81.1401 77.8056 80.8836 78.607 80.7909 79.3717C80.6982 80.1365 81.2958 80.3643 81.5923 80.86C82.6707 81.2939 84.1292 81.2012 85.2809 81.4072C86.4326 81.6133 87.8144 81.8869 88.9192 82.0048C89.7034 82.0884 90.6742 81.3156 90.6445 80.5246C90.6158 79.7335 91.6885 78.433 90.8654 78.1124C89.7526 77.6785 88.285 78.0014 87.202 77.54C87.1539 77.5194 87.0302 77.5377 86.973 77.54C86.3181 77.5652 85.5992 77.3614 85.0268 77.1966C84.9741 77.1817 84.8551 77.1931 84.7978 77.1966C84.2826 77.2286 83.5053 77.1256 83.0428 77.0054C82.5803 76.8852 81.7846 77.0557 81.4778 76.7386C81.1447 76.7123 81.0027 76.8062 80.9054 77.0821Z" fill="#E0E0E0"/>
<path d="M52.399 95.0558C52.4345 93.5573 52.352 91.9659 52.399 90.4765C52.4459 88.9871 52.3062 87.4771 52.399 86.0117C52.4917 84.5463 52.1998 82.9745 52.399 81.5469C52.5982 80.1193 51.9605 78.4306 52.399 77.082C52.0544 77.7712 52.3623 78.7787 52.2845 79.6007C52.2066 80.4226 52.3154 81.3912 52.2845 82.2338C52.2536 83.0764 52.2891 84.0277 52.2845 84.8669C52.2799 85.706 52.2616 86.5646 52.2845 87.3855C52.3074 88.2063 52.2238 89.239 52.2845 90.0186C52.3463 90.7982 52.1437 91.9774 52.2845 92.6517C52.4253 93.326 51.8998 94.7067 52.399 95.0558Z" fill="#C2C2C2"/>
<path d="M42.8962 86.3551C43.0485 86.3551 43.2019 86.3551 43.3541 86.3551C43.3541 84.4467 43.3541 82.5394 43.3541 80.631C45.1092 80.631 46.8653 80.631 48.6203 80.631C48.6203 80.4398 48.6203 80.2498 48.6203 80.0586C46.7119 80.0586 44.8046 80.0586 42.8962 80.0586C42.9523 80.7283 42.8218 81.5812 42.8962 82.2338C42.9706 82.8863 42.7462 83.7037 42.8962 84.2945C43.0462 84.8852 42.5699 85.8892 42.8962 86.3551Z" fill="#233E45"/>
<path d="M43.3545 86.353C45.1095 86.353 46.8657 86.353 48.6207 86.353C48.9138 85.934 48.5016 84.9403 48.6207 84.4068C48.7398 83.8733 48.5955 83.0308 48.6207 82.4606C48.6459 81.8905 48.6894 81.199 48.6207 80.6289C46.8657 80.6289 45.1095 80.6289 43.3545 80.6289C43.3545 82.5373 43.3545 84.4446 43.3545 86.353Z" fill="#014B5C"/>
<path d="M81.5918 81.2028C81.7486 81.5211 82.8992 81.3883 83.3171 81.5383C83.7349 81.6882 84.6382 81.6653 85.1419 81.7741C85.6456 81.884 86.4333 81.9939 86.9725 82.0042C87.5117 82.0145 88.3726 82.4759 88.9187 82.2332C88.8901 82.2091 88.9473 82.0374 88.9187 82.0042C87.8139 81.8863 86.4321 81.6127 85.2804 81.4066C84.1287 81.2005 82.6702 81.2933 81.5918 80.8594C81.6067 80.8834 81.6078 81.1811 81.5918 81.2028Z" fill="#ABABAB"/>
<path d="M81.5918 81.2028C81.7486 81.5211 82.8992 81.3883 83.3171 81.5383C83.7349 81.6882 84.6382 81.6653 85.1419 81.7741C85.6456 81.884 86.4333 81.9939 86.9725 82.0042C87.5117 82.0145 88.3726 82.4759 88.9187 82.2332C88.8901 82.2091 88.9473 82.0374 88.9187 82.0042C87.8139 81.8863 86.4321 81.6127 85.2804 81.4066C84.1287 81.2005 82.6702 81.2933 81.5918 80.8594C81.6067 80.8834 81.6078 81.1811 81.5918 81.2028Z" fill="black" fill-opacity="0.2"/>
<path d="M81.5918 81.2028C81.7486 81.5211 82.8992 81.3883 83.3171 81.5383C83.7349 81.6882 84.6382 81.6653 85.1419 81.7741C85.6456 81.884 86.4333 81.9939 86.9725 82.0042C87.5117 82.0145 88.3726 82.4759 88.9187 82.2332C88.8901 82.2091 88.9473 82.0374 88.9187 82.0042C87.8139 81.8863 86.4321 81.6127 85.2804 81.4066C84.1287 81.2005 82.6702 81.2933 81.5918 80.8594C81.6067 80.8834 81.6078 81.1811 81.5918 81.2028Z" fill="black" fill-opacity="0.2"/>
<path d="M81.5918 81.2028C81.7486 81.5211 82.8992 81.3883 83.3171 81.5383C83.7349 81.6882 84.6382 81.6653 85.1419 81.7741C85.6456 81.884 86.4333 81.9939 86.9725 82.0042C87.5117 82.0145 88.3726 82.4759 88.9187 82.2332C88.8901 82.2091 88.9473 82.0374 88.9187 82.0042C87.8139 81.8863 86.4321 81.6127 85.2804 81.4066C84.1287 81.2005 82.6702 81.2933 81.5918 80.8594C81.6067 80.8834 81.6078 81.1811 81.5918 81.2028Z" stroke="#C0C0C0"/>
<path d="M81.4773 81.6611C81.5162 81.6782 81.5792 81.7355 81.5917 81.7755C82.7125 82.024 84.0119 82.1007 85.1419 82.2323C86.2718 82.364 87.6387 82.7784 88.6897 82.8059C88.9942 82.8769 89.3651 82.7177 89.2621 82.348C89.1007 82.3869 89.0148 82.3136 88.9186 82.2335C88.3726 82.4762 87.5117 82.0148 86.9724 82.0045C86.4332 81.9942 85.6456 81.8843 85.1419 81.7744C84.6381 81.6656 83.7349 81.6885 83.317 81.5386C82.8991 81.3886 81.7486 81.5214 81.5917 81.2031C81.4612 81.3829 80.969 81.4378 81.4773 81.6611Z" fill="#E0E0E0"/>
<path d="M64.0759 82.1187C65.0914 82.0889 66.3885 82.0901 67.3959 82.1187C68.8796 82.0179 68.3862 81.1937 67.167 81.3173C65.9477 81.4409 65.3147 81.3161 64.0759 81.3173C62.8372 81.3184 62.6999 82.0248 64.0759 82.1187Z" fill="#E0E0E0"/>
<path d="M81.4772 82.2326C81.5345 82.2268 81.5917 82.2326 81.5917 82.2326C81.6249 82.1776 81.6112 81.8387 81.5917 81.7746C81.5791 81.7346 81.5161 81.6773 81.4772 81.6602C81.4429 81.6876 81.4589 82.1799 81.4772 82.2326Z" fill="#7B888C"/>
<path d="M81.5918 82.2314C82.6691 82.1581 83.9479 82.5004 85.0263 82.6893C86.1059 82.8771 87.5128 82.8335 88.5752 83.1472C88.5752 83.1472 88.708 82.7878 88.6897 82.8038C87.6388 82.7763 86.2719 82.3619 85.1419 82.2302C84.012 82.0986 82.7126 82.0219 81.5918 81.7734C81.6113 81.8375 81.625 82.1764 81.5918 82.2314Z" fill="#ABABAB"/>
<path d="M81.5918 82.2314C82.6691 82.1581 83.9479 82.5004 85.0263 82.6893C86.1059 82.8771 87.5128 82.8335 88.5752 83.1472C88.5752 83.1472 88.708 82.7878 88.6897 82.8038C87.6388 82.7763 86.2719 82.3619 85.1419 82.2302C84.012 82.0986 82.7126 82.0219 81.5918 81.7734C81.6113 81.8375 81.625 82.1764 81.5918 82.2314Z" fill="black" fill-opacity="0.2"/>
<path d="M81.5918 82.2314C82.6691 82.1581 83.9479 82.5004 85.0263 82.6893C86.1059 82.8771 87.5128 82.8335 88.5752 83.1472C88.5752 83.1472 88.708 82.7878 88.6897 82.8038C87.6388 82.7763 86.2719 82.3619 85.1419 82.2302C84.012 82.0986 82.7126 82.0219 81.5918 81.7734C81.6113 81.8375 81.625 82.1764 81.5918 82.2314Z" fill="black" fill-opacity="0.2"/>
<path d="M81.5918 82.2314C82.6691 82.1581 83.9479 82.5004 85.0263 82.6893C86.1059 82.8771 87.5128 82.8335 88.5752 83.1472C88.5752 83.1472 88.708 82.7878 88.6897 82.8038C87.6388 82.7763 86.2719 82.3619 85.1419 82.2302C84.012 82.0986 82.7126 82.0219 81.5918 81.7734C81.6113 81.8375 81.625 82.1764 81.5918 82.2314Z" stroke="#C0C0C0"/>
<path d="M38.6604 82.3486C38.5837 83.68 38.7176 85.0229 38.6604 86.3555C38.1452 86.4287 37.4778 86.2066 37.0576 86.4699C37.63 86.4699 38.2024 86.4699 38.7749 86.4699C38.9248 84.9633 38.5745 83.3903 38.7749 81.8906C38.7268 82.0395 38.673 82.1368 38.6604 82.3486Z" fill="#5E7279"/>
<path d="M64.0762 82.1196C64.4917 82.1482 64.9188 82.1196 65.3355 82.1196C65.5644 82.1196 65.7934 82.1196 66.0224 82.1196C66.4769 82.1196 66.9428 82.1505 67.3962 82.1196C66.3887 82.0909 65.0916 82.0898 64.0762 82.1196Z" fill="#1B2F36"/>
<path d="M64.4194 82.8041C64.2557 83.0308 64.4194 83.9981 64.4194 84.2924C65.214 84.2214 66.1436 84.2202 66.9381 84.2924C66.9381 83.9947 67.1018 83.0353 66.9381 82.8041C66.6713 82.6198 66.3336 82.7091 66.0222 82.6896C66.0222 82.4984 66.0222 82.3084 66.0222 82.1172C65.7932 82.1172 65.5643 82.1172 65.3353 82.1172C65.3353 82.3084 65.3353 82.4984 65.3353 82.6896C65.0869 82.7342 64.6129 82.6152 64.4194 82.8041Z" fill="#E0E0E0"/>
<path d="M81.4774 82.6907C82.5249 83.009 83.83 82.9643 84.9142 83.1463C85.9995 83.3284 87.3172 83.6318 88.3464 83.7211C88.9909 83.7771 89.2256 83.341 88.5753 83.1486C87.5129 82.835 86.1059 82.8785 85.0264 82.6907C83.9479 82.5018 82.6692 82.1595 81.5919 82.2328C81.5919 82.2328 81.5346 82.2271 81.4774 82.2328C80.7951 82.298 81.4373 82.5968 81.4774 82.6907Z" fill="#E0E0E0"/>
<path d="M36.9434 86.469C36.9434 86.469 37.0006 86.469 37.0578 86.469C37.478 86.2057 38.1454 86.4278 38.6606 86.3546C38.7178 85.022 38.5839 83.6791 38.6606 82.3477C38.2748 83.6974 37.4723 85.1204 36.9434 86.469Z" fill="#014B5C"/>
<path d="M82.8513 84.2942C84.0179 84.5403 85.3299 84.7727 86.5148 84.8666C87.3425 84.9318 88.2389 84.6514 88.3465 83.7218C87.3173 83.6325 85.9996 83.3291 84.9143 83.147C83.8302 82.965 82.5251 83.0097 81.4775 82.6914C81.8439 83.5603 81.758 84.0641 82.8513 84.2942Z" fill="#ABABAB"/>
<path d="M82.8513 84.2942C84.0179 84.5403 85.3299 84.7727 86.5148 84.8666C87.3425 84.9318 88.2389 84.6514 88.3465 83.7218C87.3173 83.6325 85.9996 83.3291 84.9143 83.147C83.8302 82.965 82.5251 83.0097 81.4775 82.6914C81.8439 83.5603 81.758 84.0641 82.8513 84.2942Z" fill="black" fill-opacity="0.2"/>
<path d="M82.8513 84.2942C84.0179 84.5403 85.3299 84.7727 86.5148 84.8666C87.3425 84.9318 88.2389 84.6514 88.3465 83.7218C87.3173 83.6325 85.9996 83.3291 84.9143 83.147C83.8302 82.965 82.5251 83.0097 81.4775 82.6914C81.8439 83.5603 81.758 84.0641 82.8513 84.2942Z" fill="black" fill-opacity="0.2"/>
<path d="M82.8513 84.2942C84.0179 84.5403 85.3299 84.7727 86.5148 84.8666C87.3425 84.9318 88.2389 84.6514 88.3465 83.7218C87.3173 83.6325 85.9996 83.3291 84.9143 83.147C83.8302 82.965 82.5251 83.0097 81.4775 82.6914C81.8439 83.5603 81.758 84.0641 82.8513 84.2942Z" stroke="#C0C0C0"/>
<path d="M64.4196 84.4074C64.4093 84.4052 64.4196 84.293 64.4196 84.293C64.4196 83.9987 64.2558 83.0314 64.4196 82.8047C64.2066 83.0119 64.1986 84.1945 64.4196 84.4074Z" fill="#698188"/>
<path d="M66.9385 84.293C66.9385 84.3502 66.9385 84.4074 66.9385 84.4074C67.1548 84.1991 67.156 83.0199 66.9385 82.8047C67.1022 83.0359 66.9385 83.9953 66.9385 84.293Z" fill="#7D9197"/>
<path d="M68.0833 84.2927C68.0329 84.5056 68.2057 85.0837 68.1977 85.4375C68.1897 85.7912 68.1004 86.414 68.0833 86.6968C67.7936 87.6756 68.8285 87.5234 69.457 87.4982C69.457 86.3156 69.457 85.1318 69.457 83.9492C68.9991 83.9492 68.5412 83.9492 68.0833 83.9492C68.0615 84.058 68.1107 84.1851 68.0833 84.2927Z" fill="#E0E0E0"/>
<path d="M64.4196 84.4064C64.7459 84.4705 64.636 84.6915 64.6486 84.9788C65.3355 84.9788 66.0224 84.9788 66.7093 84.9788C66.7219 84.6926 66.628 84.4671 66.9382 84.4064C66.9382 84.4064 66.9382 84.3492 66.9382 84.2919C66.1437 84.2198 65.2141 84.221 64.4196 84.2919C64.4196 84.2919 64.4093 84.4041 64.4196 84.4064Z" fill="#E0E0E0"/>
<path d="M68.0829 84.9799C68.0829 85.4756 68.0829 85.9724 68.0829 86.4681C68.0829 86.5254 68.0864 86.6399 68.0829 86.6971C68.1001 86.4143 68.1894 85.7915 68.1974 85.4378C68.2054 85.084 68.0326 84.5059 68.0829 84.293C68.0326 84.4922 68.0829 84.7738 68.0829 84.9799Z" fill="#20333A"/>
<path d="M86.515 84.8654C85.3301 84.7715 84.0181 84.5391 82.8516 84.293C83.2271 84.5425 83.2213 85.1275 83.7674 85.2088C84.3135 85.2901 84.8401 85.1836 85.3702 85.4378C85.9002 85.6919 86.1864 84.9867 86.515 84.8654Z" fill="#E0E0E0"/>
<path d="M61.4434 87.1556C61.9001 87.1373 62.3604 87.1556 62.8172 87.1556C63.164 86.9977 62.9683 86.2867 63.6185 86.4687C64.2688 86.6508 64.2986 86.2226 65.1068 86.4687C65.9151 86.7149 67.3014 86.1219 68.0834 86.4687C68.0834 85.973 68.0834 85.4762 68.0834 84.9805C67.6254 84.9805 67.1675 84.9805 66.7096 84.9805C66.0227 84.9805 65.3358 84.9805 64.6489 84.9805C63.1171 84.9805 61.559 85.3422 61.4434 87.1556Z" fill="#E0E0E0"/>
<path d="M13.0163 97.3461C13.0163 97.3518 13.1308 97.3461 13.1308 97.3461C13.4937 93.3346 12.8583 89.2316 13.1308 85.2109C12.6477 85.5498 13.1628 86.9854 13.0163 87.6151C12.8698 88.2447 13.0735 89.2842 13.0163 90.0192C12.9591 90.7542 13.0323 91.7639 13.0163 92.5378C13.0003 93.3117 12.9957 94.1578 13.0163 94.942C13.0369 95.7262 12.9453 96.5619 13.0163 97.3461Z" fill="#6B7B81"/>
<path d="M13.1306 97.3454C13.3218 97.3454 13.5119 97.3454 13.703 97.3454C13.6103 96.3128 13.75 95.295 13.703 94.2544C13.6561 93.2137 13.7362 92.0895 13.703 91.0489C13.6698 90.0082 13.7465 88.9927 13.703 87.9578C13.6595 86.9229 13.4374 85.572 14.7334 85.7826C16.0293 85.9933 16.6991 85.6247 17.9389 85.7826C17.9389 85.5915 17.9389 85.4014 17.9389 85.2102C17.6264 84.9916 16.7368 85.2698 16.3361 85.2102C15.9355 85.1507 15.1341 85.1507 14.7334 85.2102C14.3327 85.2698 13.4432 84.9916 13.1306 85.2102C12.8582 89.2309 13.4935 93.3339 13.1306 97.3454Z" fill="#223C44"/>
<path d="M17.9395 85.7834C17.9395 89.638 17.9395 93.4915 17.9395 97.3461C18.4134 97.0141 17.9234 95.5693 18.0539 94.942C18.1844 94.3146 18.0127 93.1251 18.0539 92.4234C18.0951 91.7216 18.086 90.7198 18.0539 90.0192C18.0219 89.3186 18.1707 88.1257 18.0539 87.5006C17.9372 86.8755 18.4043 85.5361 17.9395 85.2109C17.9395 85.4021 17.9395 85.5922 17.9395 85.7834Z" fill="#A3AEB2"/>
<path d="M13.7037 97.3456C13.7609 97.3456 13.8182 97.3456 13.8182 97.3456C14.4066 97.3456 15.3236 97.46 15.8789 97.3456C16.4341 97.2311 17.5045 97.6501 17.9395 97.3456C17.9395 93.4909 17.9395 89.6374 17.9395 85.7828C16.6997 85.6248 16.03 85.9935 14.734 85.7828C13.4381 85.5722 13.6602 86.9231 13.7037 87.958C13.7472 88.9929 13.6705 90.0084 13.7037 91.049C13.7369 92.0897 13.6567 93.2139 13.7037 94.2545C13.7506 95.2952 13.611 96.3129 13.7037 97.3456Z" fill="#016B83"/>
<path d="M48.6206 86.3555C46.8656 86.3555 45.1094 86.3555 43.3544 86.3555C43.2022 86.3555 43.0487 86.3555 42.8965 86.3555C43.1506 86.7184 44.3859 86.4058 44.8427 86.47C45.2995 86.5341 46.3378 86.5135 46.7889 86.47C47.24 86.4264 48.3768 86.7035 48.6206 86.3555Z" fill="#5E7178"/>
<path d="M60.8701 87.2709C61.4757 87.5365 62.695 86.9675 63.1598 87.1564C63.0579 87.1347 62.9205 87.1564 62.8163 87.1564C62.3595 87.1564 61.8993 87.1381 61.4425 87.1564C61.241 87.1644 60.9949 87.1015 60.8701 87.2709Z" fill="#1F343D"/>
<path d="M60.8701 87.2709C60.8701 87.6911 60.8701 88.1101 60.8701 88.5302C61.7093 88.5302 62.5496 88.5302 63.3887 88.5302C63.272 88.1467 63.6417 87.2572 63.1598 87.1564C62.695 86.9675 61.4757 87.5365 60.8701 87.2709Z" fill="#E0E0E0"/>
<path d="M34.0811 92.5381C34.1956 92.5748 34.1681 92.6206 34.0811 92.6526C34.1521 92.8026 34.5115 93.0716 34.6535 93.225C34.7909 93.3727 34.6856 93.3384 34.768 93.454C35.0347 93.4094 35.1194 93.7219 35.3404 93.7975C35.329 93.9463 35.1355 93.9955 35.1114 94.1409C35.3015 93.9383 35.3931 93.9657 35.5694 94.0264C35.9895 94.1718 36.4429 94.8656 36.7142 95.1713C36.6157 94.5633 38.2712 95.2148 38.6604 94.9423C38.5036 93.0201 38.8195 90.9297 38.7749 89.1037C38.7749 88.9125 38.7749 88.7224 38.7749 88.5312C37.8968 88.5312 37.0199 88.5312 36.1418 88.5312C36.784 89.0224 38.5642 88.0722 38.6604 89.1037C37.7445 89.1037 36.8287 89.1037 35.9128 89.1037C35.5201 90.1443 35.0427 91.1495 34.6535 92.1947C34.333 92.0253 34.0777 92.1581 34.0811 92.5381Z" fill="#016B83"/>
<path d="M43.3544 94.9423C43.3544 92.9961 43.3544 91.0499 43.3544 89.1037C45.1094 89.1037 46.8656 89.1037 48.6206 89.1037C48.6206 88.9125 48.6206 88.7224 48.6206 88.5312C46.7122 88.5312 44.8049 88.5312 42.8965 88.5312C42.8965 90.6686 42.8965 92.8049 42.8965 94.9423C43.0442 94.9652 43.2079 94.9125 43.3544 94.9423Z" fill="#264048"/>
<path d="M38.6612 94.9402C39.0585 94.662 38.6795 93.5023 38.7757 92.994C38.8719 92.4857 38.7654 91.6179 38.7757 91.0478C38.786 90.4776 38.8455 89.682 38.7757 89.1016C38.8204 90.9276 38.5044 93.018 38.6612 94.9402Z" fill="#5E7279"/>
<path d="M43.3545 94.9402C45.1095 94.9402 46.8657 94.9402 48.6207 94.9402C48.4467 93.0146 48.852 91.0191 48.6207 89.1016C46.8657 89.1016 45.1095 89.1016 43.3545 89.1016C43.3545 91.0478 43.3545 92.994 43.3545 94.9402Z" fill="#014B5C"/>
<path d="M61.9004 89.332C60.9182 90.17 60.2141 93.1569 62.2427 92.9943C64.2725 92.8329 62.988 89.7819 61.9004 89.332Z" fill="#E0E0E0"/>
<path d="M31.6775 91.2758C31.2516 91.1338 30.9333 91.7211 31.3706 91.9238C31.808 92.1264 32.0667 91.4052 31.6775 91.2758Z" fill="#CBCDCE"/>
<path d="M34.0817 92.6504C34.1687 92.6184 34.1961 92.5726 34.0817 92.5359C33.8115 92.5703 33.3925 92.418 33.2803 92.7649C33.5276 92.6802 33.8424 92.7374 34.0817 92.6504Z" fill="#D6DADC"/>
<path d="M37.2865 95.9711C36.6168 95.3793 35.3449 95.3735 34.5652 94.9145C33.7856 94.4554 32.8514 94.1886 32.0226 93.7937C31.1949 93.3976 30.2275 93.1446 29.3872 92.7656C29.283 92.9877 29.2029 93.2155 29.1582 93.4525C31.9699 94.4153 34.7141 95.559 37.5154 96.5436C37.6059 96.2928 37.3701 96.1326 37.2865 95.9711Z" fill="#395A64"/>
<path d="M34.768 93.4516C34.6855 93.336 34.7908 93.3703 34.6535 93.2227C34.4302 93.3245 34.1875 93.4322 34.0811 93.6806C34.1887 93.5684 34.6924 93.5363 34.768 93.4516Z" fill="#C3C8CA"/>
<path d="M35.1118 94.1393C35.1084 94.2698 34.9367 94.3362 34.9973 94.4827C35.2297 94.469 35.3362 94.0248 35.5698 94.0248C35.3935 93.9641 35.3019 93.9366 35.1118 94.1393Z" fill="#D6D9DB"/>
<path d="M94.5287 95.2837C97.3347 95.2081 100.28 95.4359 103 95.1692C98.9454 95.1108 94.9397 95.0547 90.8652 95.0547C91.978 95.1623 93.4079 95.1749 94.5287 95.2837Z" fill="#BDC2C5"/>
<path d="M52.3984 95.2844C62.5874 95.2844 72.7764 95.2844 82.9653 95.2844C82.0472 95.1951 81.002 95.1355 79.9888 95.1699C78.9756 95.2042 77.9201 95.1538 76.8978 95.1699C75.8754 95.1859 74.8325 95.1619 73.8067 95.1699C72.781 95.1779 71.7415 95.1642 70.7157 95.1699C69.6899 95.1756 68.647 95.1619 67.6247 95.1699C66.6023 95.1779 65.5479 95.1538 64.5336 95.1699C63.5193 95.1859 62.4363 95.1355 61.4426 95.1699C60.4489 95.2042 59.3018 95.0932 58.3515 95.1699C57.4013 95.2466 56.1134 95.0004 55.2605 95.1699C54.4076 95.3393 52.9594 94.7234 52.3984 95.2844Z" fill="#727D81"/>
<path d="M13.818 97.4582C13.818 97.4582 13.8466 97.3724 13.818 97.3438C13.818 97.3438 13.7607 97.3438 13.7035 97.3438C13.5123 97.3438 13.3223 97.3438 13.1311 97.3438C13.1311 97.3438 13.0166 97.3495 13.0166 97.3438C13.2101 97.3621 13.5421 97.4525 13.818 97.4582Z" fill="#9A9FA2"/>
</svg>
