<?xml version="1.0" standalone="no"?>
<!DOCTYPE svg PUBLIC "-//W3C//DTD SVG 20010904//EN"
 "http://www.w3.org/TR/2001/REC-SVG-20010904/DTD/svg10.dtd">
<svg version="1.0" xmlns="http://www.w3.org/2000/svg"
 width="40" height="40" viewBox="0 0 1024.000000 406.000000"
 preserveAspectRatio="xMidYMid meet">

<g transform="translate(0.000000,406.000000) scale(0.100000,-0.100000)"
fill="#000000" stroke="none">
<path d="M678 3217 c-52 -15 -107 -53 -136 -94 -64 -94 -75 -211 -69 -738 5
-447 8 -476 66 -557 72 -101 243 -135 384 -76 65 28 113 87 140 173 21 68 22
82 22 565 0 457 -1 499 -19 552 -23 71 -72 129 -132 158 -56 28 -187 36 -256
17z m183 -185 c45 -50 50 -120 47 -597 -3 -423 -3 -431 -26 -476 -35 -72 -103
-94 -160 -52 -58 43 -57 34 -57 568 0 538 0 540 59 577 44 27 103 19 137 -20z"/>
<path d="M4477 3216 c-70 -19 -117 -61 -157 -141 l-35 -70 0 -535 0 -535 27
-58 c51 -109 130 -152 275 -151 70 1 91 6 140 30 69 35 115 91 140 172 16 51
18 108 18 557 0 464 -1 504 -19 558 -23 71 -81 139 -138 162 -57 23 -189 29
-251 11z m179 -177 c47 -44 49 -63 49 -564 0 -440 -1 -473 -19 -513 -23 -51
-57 -75 -108 -75 -47 0 -81 29 -103 87 -14 36 -15 105 -13 521 3 436 5 483 21
512 9 18 30 39 45 48 36 20 97 13 128 -16z"/>
<path d="M1219 3216 c-2 -2 -3 -335 -1 -740 l2 -736 78 0 77 0 -1 628 c-1 345
3 618 7 607 4 -11 51 -281 104 -600 54 -319 99 -592 102 -607 l6 -28 128 0
129 0 0 740 0 740 -85 0 -85 0 -2 -612 -3 -613 -105 610 -106 610 -120 3 c-66
1 -122 1 -125 -2z"/>
<path d="M1930 3130 l0 -90 105 0 105 0 0 -650 0 -650 95 0 95 0 0 650 0 650
105 0 105 0 0 90 0 90 -305 0 -305 0 0 -90z"/>
<path d="M2715 3208 c-5 -12 -34 -164 -215 -1098 -33 -168 -62 -320 -66 -337
l-6 -33 90 0 90 0 6 28 c3 15 14 88 26 162 11 74 23 145 25 158 5 22 8 22 144
22 l139 0 6 -27 c3 -16 14 -89 26 -163 11 -74 23 -145 25 -157 5 -22 10 -23
96 -23 89 0 91 0 86 23 -3 12 -62 339 -132 727 -69 388 -127 711 -130 718 -3
8 -34 12 -105 12 -71 0 -102 -4 -105 -12z m155 -575 c27 -177 50 -327 50 -332
0 -7 -39 -11 -110 -11 -79 0 -110 3 -110 12 0 22 101 653 107 668 8 20 4 41
63 -337z"/>
<path d="M3280 2481 l0 -741 90 0 90 0 0 321 0 321 69 -4 c80 -4 105 -20 121
-77 5 -20 10 -154 10 -298 l0 -263 90 0 90 0 0 283 c0 324 -7 368 -64 412 -18
13 -47 28 -65 31 l-33 7 48 26 c53 29 88 72 106 135 20 65 16 367 -5 438 -20
66 -61 112 -115 129 -20 6 -126 14 -234 16 l-198 5 0 -741z m354 540 c37 -41
44 -327 11 -408 -17 -41 -41 -52 -120 -60 l-65 -6 0 247 0 246 78 0 c65 0 82
-3 96 -19z"/>
<path d="M3970 2480 l0 -740 90 0 90 0 0 740 0 740 -90 0 -90 0 0 -740z"/>
<path d="M5117 1586 c-100 -37 -107 -68 -107 -445 1 -309 5 -347 47 -393 35
-39 74 -52 158 -52 44 -1 106 3 138 7 l57 8 0 220 0 219 -95 0 -95 0 0 -39 c0
-40 0 -40 43 -43 l42 -3 3 -141 c3 -140 2 -142 -20 -148 -53 -14 -108 -6 -133
18 -42 42 -47 89 -43 376 3 228 6 269 21 297 20 38 44 53 87 53 44 0 77 -39
85 -101 l7 -49 49 0 49 0 0 58 c0 70 -23 119 -69 146 -44 25 -170 32 -224 12z"/>
<path d="M8575 1582 c-48 -23 -69 -45 -90 -95 -12 -30 -15 -90 -15 -350 0
-308 0 -315 23 -357 27 -52 74 -79 149 -87 100 -10 175 26 209 101 17 37 19
71 19 356 0 308 -1 317 -22 360 -31 60 -72 82 -162 87 -55 3 -80 0 -111 -15z
m160 -86 c33 -33 37 -73 33 -383 -3 -258 -4 -273 -24 -300 -42 -56 -106 -56
-148 0 -20 27 -21 42 -24 300 -2 150 0 292 3 316 9 60 42 91 95 91 30 0 47 -6
65 -24z"/>
<path d="M5530 1145 l0 -445 160 0 160 0 0 40 0 40 -110 0 -110 0 2 168 3 167
100 3 100 3 -3 39 -4 40 -99 0 -99 0 0 155 0 155 110 0 110 0 0 40 0 40 -160
0 -160 0 0 -445z"/>
<path d="M5950 1145 l0 -445 45 0 45 0 0 392 c0 215 2 389 5 387 2 -3 36 -171
75 -375 39 -203 73 -377 76 -386 5 -15 18 -18 90 -18 l84 0 0 445 0 445 -45 0
-45 0 0 -375 c0 -206 -3 -375 -7 -375 -5 0 -39 159 -77 353 -37 193 -70 362
-73 375 -5 21 -10 22 -89 22 l-84 0 0 -445z"/>
<path d="M6490 1145 l0 -445 160 0 160 0 0 40 0 39 -107 3 -108 3 0 165 0 165
103 3 102 3 0 39 0 40 -105 0 -106 0 3 153 3 152 108 3 107 3 0 39 0 40 -160
0 -160 0 0 -445z"/>
<path d="M6880 1145 l0 -445 55 0 55 0 0 200 0 200 39 0 c55 0 97 -17 110 -46
7 -15 11 -88 11 -189 l0 -165 56 0 57 0 -6 186 c-6 211 -12 231 -80 248 l-37
9 40 18 c63 28 75 62 75 214 0 200 -17 215 -240 215 l-135 0 0 -445z m233 356
c33 -13 37 -30 39 -143 3 -144 -21 -178 -123 -178 l-39 0 0 165 0 165 49 0
c27 0 61 -4 74 -9z"/>
<path d="M7421 1165 c-51 -234 -95 -434 -98 -445 -5 -18 0 -20 50 -20 64 0 58
-10 82 133 l17 97 98 0 c71 0 99 -4 103 -13 3 -7 13 -59 23 -115 l17 -102 54
0 c36 0 53 4 53 13 0 6 -39 207 -87 445 l-88 432 -65 0 -66 0 -93 -425z m194
95 c20 -113 38 -213 41 -222 5 -16 -3 -18 -80 -18 -47 0 -86 3 -86 8 0 4 18
104 40 222 22 118 40 220 41 225 2 21 9 -15 44 -215z"/>
<path d="M7770 1550 l0 -40 75 0 75 0 0 -405 0 -405 55 0 55 0 0 405 0 405 75
0 75 0 0 40 0 40 -205 0 -205 0 0 -40z"/>
<path d="M8250 1145 l0 -445 55 0 55 0 0 445 0 445 -55 0 -55 0 0 -445z"/>
<path d="M8990 1145 l0 -445 45 0 45 0 0 392 c0 216 4 388 8 383 5 -6 21 -75
36 -155 15 -80 47 -252 73 -382 l45 -238 89 0 89 0 0 445 0 445 -50 0 -50 0
-1 -382 c0 -211 -3 -377 -6 -369 -3 7 -38 178 -77 380 l-72 366 -87 3 -87 3 0
-446z"/>
</g>
</svg>
