<svg width="36" height="36" viewBox="0 0 36 36" fill="none" xmlns="http://www.w3.org/2000/svg">
<g clip-path="url(#clip0_22686_264015)">
<path d="M30.8571 3.97401H29.6883V2.80518C29.6883 2.15939 29.1652 1.63635 28.5194 1.63635C27.8736 1.63635 27.3507 2.15939 27.3507 2.80518V3.97401H8.64932V2.80518C8.64932 2.15939 8.1263 1.63635 7.48051 1.63635C6.83471 1.63635 6.31168 2.15939 6.31168 2.80518V3.97401H5.14284C3.20988 3.97401 1.63635 5.54754 1.63635 7.48051V30.8571C1.63635 32.7901 3.20988 34.3636 5.14284 34.3636H30.8571C32.7901 34.3636 34.3636 32.7901 34.3636 30.8571V7.48051C34.3636 5.54754 32.7901 3.97401 30.8571 3.97401ZM5.14284 6.31168H6.31168V7.48051C6.31168 8.1263 6.83471 8.64932 7.48051 8.64932C8.1263 8.64932 8.64932 8.1263 8.64932 7.48051V6.31168H27.3507V7.48051C27.3507 8.1263 27.8736 8.64932 28.5194 8.64932C29.1652 8.64932 29.6883 8.1263 29.6883 7.48051V6.31168H30.8571C31.5029 6.31168 32.026 6.83618 32.026 7.48051V10.987H3.97401V7.48051C3.97401 6.83618 4.49705 6.31168 5.14284 6.31168ZM30.8571 32.026H5.14284C4.49705 32.026 3.97401 31.5015 3.97401 30.8571V13.3247H32.026V30.8571C32.026 31.5015 31.5029 32.026 30.8571 32.026Z" fill="#FF8926"/>
<path d="M8.5559 27.0351C9.03847 27.5178 9.8663 27.5305 10.3648 27.0351L14.574 22.826L17.5047 25.7567C18.0032 26.2553 18.8119 26.2553 19.3136 25.7567L23.5227 21.5476V22.2955C23.5227 23.0018 24.0948 23.5739 24.8011 23.5739C25.5075 23.5739 26.0796 23.0018 26.0796 22.2955V18.4602C26.0796 17.7539 25.5075 17.1818 24.8011 17.1818H20.9659C20.2596 17.1818 19.6875 17.7539 19.6875 18.4602C19.6875 19.1666 20.2596 19.7386 20.9659 19.7386H21.7137L18.409 23.0434L15.4783 20.1126C14.9798 19.614 14.1711 19.614 13.6694 20.1126L8.55574 25.2263C8.05718 25.7249 8.0573 26.5334 8.5559 27.0351Z" fill="#FF8926"/>
</g>
<defs>
<clipPath id="clip0_22686_264015">
<rect width="36" height="36" fill="white"/>
</clipPath>
</defs>
</svg>
