<svg width="40" height="40" viewBox="0 0 40 40" fill="none" xmlns="http://www.w3.org/2000/svg">
<g clip-path="url(#clip0_15051_17509)">
<rect width="40" height="40" rx="20" fill="white"/>
<g clip-path="url(#clip1_15051_17509)">
<path d="M2.14933 24.4755C1.61413 24.4755 1.08968 24.4088 0.663316 24.2954L0.729484 23.1419C1.1443 23.2984 1.7231 23.4221 2.25857 23.4221C3.06726 23.4221 3.72257 23.0748 3.72257 22.2571C3.72257 20.6652 0.5 21.3384 0.5 18.8943C0.5 17.5947 1.49402 16.6875 3.20952 16.6875C3.64621 16.6875 4.09403 16.743 4.54213 16.8212L4.47624 17.9085C4.05069 17.7743 3.58072 17.6957 3.14389 17.6957C2.22623 17.6957 1.75653 18.1324 1.75653 18.7601C1.75653 20.2731 4.97936 19.7133 4.97936 22.0769C4.97868 23.467 3.90844 24.4755 2.14933 24.4755Z" fill="black"/>
<path d="M7.8551 24.4393C7.54953 24.4393 7.32005 24.4287 7.03581 24.3725V26.7973H5.86719V18.7922H6.97045C6.97045 19.084 6.95931 19.5321 6.90469 19.8341H6.9267C7.23241 19.1278 7.8551 18.6797 8.6854 18.6797C9.9744 18.6797 10.6843 19.6205 10.6843 21.3018C10.6845 23.2637 9.66897 24.4393 7.8551 24.4393ZM8.3797 19.6663C7.50564 19.6663 7.03581 20.7195 7.03581 21.671V23.3869C7.2873 23.4653 7.56026 23.4989 7.88798 23.4989C8.81638 23.4989 9.45008 22.9161 9.45008 21.4142C9.45008 20.2939 9.11163 19.6663 8.3797 19.6663Z" fill="black"/>
<path d="M14.4314 19.8583C13.3501 19.6569 12.8257 20.4303 12.8257 22.1001V24.3632H11.6562V18.7942H12.7712C12.7712 19.1072 12.7378 19.6013 12.6614 20.0268H12.6834C12.9241 19.2759 13.4701 18.5805 14.4864 18.6817L14.4314 19.8583Z" fill="black"/>
<path d="M16.0978 17.963C15.6826 17.963 15.3438 17.6265 15.3438 17.2115C15.3438 16.7974 15.6826 16.4609 16.0978 16.4609C16.5019 16.4609 16.8406 16.7861 16.8406 17.2115C16.8406 17.6265 16.5019 17.963 16.0978 17.963ZM16.6766 24.3611H15.5082V18.7921H16.6766V24.3611Z" fill="black"/>
<path d="M21.4842 24.3614V20.7754C21.4842 20.0809 21.2975 19.6779 20.6755 19.6779C19.8562 19.6779 19.2547 20.5622 19.2547 21.6712V24.3614H18.0859V18.7923H19.2005C19.2005 19.0841 19.1785 19.5653 19.1238 19.8789L19.1351 19.8893C19.4517 19.1729 20.1075 18.6797 21.0251 18.6797C22.2593 18.6797 22.6419 19.4756 22.6419 20.4618V24.3614H21.4842Z" fill="black"/>
<path d="M25.8656 24.4609C24.7074 24.4609 24.3575 24.0018 24.3575 22.7586V19.7211H23.3203V18.7913H24.3575V17.0205L25.5156 16.6953V18.7913H26.9465V19.7211H25.527V22.3883C25.527 23.2181 25.6907 23.4417 26.2368 23.4417C26.477 23.4417 26.7393 23.4081 26.9467 23.352V24.3382C26.63 24.4061 26.2258 24.4609 25.8656 24.4609Z" fill="black"/>
<path d="M32.2578 22.8188C33.8502 20.7162 35.1028 18.2461 35.1028 16.4722C35.1028 15.5451 34.4554 14.898 33.6112 14.4062C33.6278 16.3339 32.9768 20.8541 32.2578 22.8188Z" fill="#FFDD05"/>
<path d="M27.0312 28.0014C30.7635 26.7207 36.1739 23.7369 39.9369 21.0711C40.2526 20.8483 40.4987 20.6412 40.4987 20.2789C40.4987 19.6491 39.3742 18.8049 38.8286 18.4688C35.8677 21.626 29.9749 26.3567 27.0312 28.0014Z" fill="#FFDD05"/>
<path d="M30.4922 25.3157C32.7936 23.6837 36.1369 20.6132 37.2684 18.9425C37.5351 18.5495 37.7326 18.3218 37.7326 17.9105C37.7326 17.2361 36.9659 16.7423 36.4142 16.3984C35.0927 19.5934 32.1236 23.5718 30.4922 25.3157Z" fill="#FFDD05"/>
<path d="M32.5902 20.7875C32.8879 18.7699 32.7129 16.3342 32.3329 14.8066C32.1264 13.9747 31.3952 13.0357 30.7188 12.7422C31.6054 15.3237 32.3666 18.9997 32.5902 20.7875Z" fill="#FFDD05"/>
<path d="M31.9365 17.961C31.2392 16.0279 29.5016 11.9983 26.9453 11C28.6093 12.8839 31.0781 16.622 31.9365 17.961Z" fill="#FFDD05"/>
</g>
</g>
<defs>
<clipPath id="clip0_15051_17509">
<rect width="40" height="40" rx="20" fill="white"/>
</clipPath>
<clipPath id="clip1_15051_17509">
<rect width="40" height="17" fill="white" transform="translate(0.5 11)"/>
</clipPath>
</defs>
</svg>
