<svg width="40" height="40" viewBox="0 0 40 40" fill="none" xmlns="http://www.w3.org/2000/svg">
<path d="M26.1848 15.3856L21.217 24.6243H22.9826L27.945 15.3856H26.1848Z" fill="#52AE32"/>
<path d="M23.2834 15.3856L18.3162 24.6243H20.0817L25.0446 15.3856H23.2834Z" fill="#005297"/>
<path d="M12.5706 16.7997V23.2003H14.1855L16.268 19.5071V23.2003H17.9347L21.3957 16.7997H19.8485L17.9122 20.2737V16.7997H16.151L14.1855 20.2041V16.7997H12.5706Z" fill="black"/>
<path d="M24.8987 23.2003H26.4648L28.3827 19.7759V23.2003H30.0657L32.1089 19.7859V23.2003H33.7437V16.7997H32.1089L30.0657 20.4925V16.7997H28.3435L24.8987 23.2003Z" fill="black"/>
<path d="M7.9632 21.0104C7.97458 21.6144 8.46137 22.1008 9.05966 22.1008C9.66326 22.1008 10.1523 21.7908 10.1523 21.4083C10.1523 21.187 10.031 20.9206 9.53462 20.7911C9.53462 20.7911 9.17009 20.6764 8.93648 20.606C8.59957 20.5051 8.40176 20.4765 8.07 20.3583C7.85049 20.28 7.73338 20.2218 7.51555 20.1343C6.84217 19.7676 6.46612 19.1704 6.50829 18.4918C6.45019 17.377 7.66057 16.5309 9.08226 16.5309C10.5033 16.5309 11.6558 17.4085 11.6558 18.4918V18.6708H9.97681L9.98197 18.5468C9.98197 18.1866 9.57876 17.8948 9.08196 17.8948L8.97213 17.8997C8.53616 17.8997 8.18134 18.1013 8.18134 18.3504V18.4223C8.18134 18.6034 8.33683 18.769 8.57105 18.8649C8.83909 18.9747 8.97471 19.0096 9.24715 19.0895C9.55312 19.1781 9.72894 19.2199 10.0307 19.3231C10.3521 19.4331 10.8431 19.6411 10.8431 19.6411C11.3924 19.8857 11.8305 20.4657 11.8305 21.0152C11.9087 22.4637 10.9257 23.3494 9.06224 23.3494C7.20852 23.3494 6.29395 22.4862 6.29395 21.0098L7.9632 21.0104Z" fill="black"/>
</svg>
