<svg width="40" height="40" viewBox="0 0 40 40" fill="none" xmlns="http://www.w3.org/2000/svg">
<rect width="40" height="40" rx="20" fill="white"/>
<path d="M20.0711 25.1515C15.124 25.1515 11.1092 21.1292 11.1092 16.1639C11.1092 11.1897 15.124 7.17028 20.0711 7.17028C25.0226 7.17028 29.0324 11.1897 29.0324 16.1639C29.0324 21.1292 25.0226 25.1515 20.0711 25.1515ZM20.0711 2.67969C12.6547 2.67969 6.64062 8.71627 6.64062 16.1639C6.64062 23.6059 12.6547 29.6406 20.0711 29.6406C27.4907 29.6406 33.5142 23.6059 33.5142 16.1639C33.5142 8.71627 27.4907 2.67969 20.0711 2.67969Z" fill="#CC0000"/>
<path d="M20.0707 11.5469C17.5285 11.5469 15.4688 13.6088 15.4688 16.1676C15.4688 18.7179 17.5285 20.786 20.0707 20.786C22.6153 20.786 24.6795 18.7178 24.6795 16.1676C24.6795 13.6089 22.6153 11.5469 20.0707 11.5469Z" fill="#CC0000"/>
<path d="M7.92663 33.1595H6.44531V32.2422H10.4949V33.1595H9.01358V37.2025H7.92663V33.1595Z" fill="#CC0000"/>
<path d="M10.0234 37.2025H11.1236L11.5116 36.0976H13.36L13.734 37.2025H14.8622L13.0138 32.2422H11.8995L10.0234 37.2025ZM12.4393 33.4644H12.453L13.0757 35.2848H11.7959L12.4393 33.4644Z" fill="#CC0000"/>
<path d="M15.2891 37.2022H16.3765V35.2641H17.4627C18.0101 35.2641 18.2105 35.4931 18.2864 36.0139C18.3425 36.41 18.3284 36.8894 18.46 37.2023H19.5463C19.3527 36.9245 19.3598 36.3402 19.3388 36.0277C19.304 35.5268 19.1523 35.0064 18.6189 34.8676V34.8538C19.1664 34.6317 19.4016 34.1945 19.4016 33.6102C19.4016 32.8605 18.8404 32.2422 17.9545 32.2422H15.2891L15.2891 37.2022ZM16.3765 33.0894H17.5674C18.0512 33.0894 18.3145 33.2979 18.3145 33.7768C18.3145 34.2767 18.0512 34.4855 17.5674 34.4855H16.3765V33.0894Z" fill="#CC0000"/>
<path d="M23.7239 36.6398C23.3428 37.1337 22.8452 37.3219 22.3673 37.3219C20.8377 37.3219 19.9375 36.1738 19.9375 34.7427C19.9375 33.2707 20.8376 32.125 22.3673 32.125C23.3777 32.125 24.3334 32.7502 24.4514 33.8746H23.4124C23.2876 33.3253 22.8792 33.0415 22.3673 33.0415C21.3911 33.0415 21.0237 33.8746 21.0237 34.7427C21.0237 35.5698 21.3911 36.403 22.3673 36.403C23.0736 36.403 23.4812 36.0212 23.5438 35.3331H22.4506V34.5212H24.5269V37.2028H23.8341L23.7239 36.6398Z" fill="#CC0000"/>
<path d="M25.2656 32.2422H28.961V33.1595H26.3524V34.2219H28.7471V35.0702H26.3524V36.2851H29.0171V37.2025H25.2656V32.2422Z" fill="#CC0000"/>
<path d="M30.9814 33.1595H29.5V32.2422H33.5501V33.1595H32.068V37.2025H30.9814V33.1595Z" fill="#CC0000"/>
</svg>
