<svg width="24" height="24" viewBox="0 0 24 24" fill="none" xmlns="http://www.w3.org/2000/svg">
<path d="M12.2534 11.4079L12.2534 11.4079C11.9637 11.8415 11.4493 12.0835 10.9214 12.0959C10.9053 12.132 10.8858 12.1672 10.863 12.2014C10.863 12.2014 10.863 12.2014 10.863 12.2014L9.86963 13.6884C9.84882 13.7196 9.82586 13.7489 9.80105 13.7762L13.3632 15.5538C13.3632 15.5538 13.3632 15.5538 13.3632 15.5538C14.0336 15.8882 14.5131 16.4457 14.6733 17.0719C14.6733 17.0719 14.6733 17.0719 14.6733 17.0719L14.5764 17.0967C14.7317 17.7041 14.5622 18.3735 13.958 18.8717L14.0216 18.9489C12.3395 20.336 10.0279 20.9918 7.75162 20.7657V22.2207H9.88649C10.339 22.2207 10.7315 22.5406 10.7315 22.9646C10.7315 23.3887 10.339 23.7085 9.88649 23.7085H3.92626C3.47375 23.7085 3.08124 23.3887 3.08124 22.9646C3.08124 22.5406 3.47375 22.2207 3.92626 22.2207H6.06157V20.4619C6.06157 20.4508 6.06185 20.4397 6.0624 20.4287C5.61533 20.2925 5.17636 20.1188 4.75073 19.9064L4.79538 19.8169L4.75072 19.9064C1.6829 18.3755 0.264487 15.3068 1.06489 12.4589C1.27384 11.7155 1.8932 11.2333 2.60412 11.0391C3.29901 10.8493 4.09007 10.9264 4.76043 11.2609L4.71578 11.3504L4.76043 11.2609L8.349 13.0516C8.36612 13.0112 8.38742 12.9716 8.41292 12.9334L8.41293 12.9334L9.40623 11.4464L9.40629 11.4463L9.48945 11.5019L12.2534 11.4079ZM12.2534 11.4079C12.7028 10.735 12.4285 9.88234 11.6694 9.50359M12.2534 11.4079L11.6694 9.50359M11.6694 9.50359C10.9169 9.12806 9.94875 9.34643 9.50623 10.0089M11.6694 9.50359C11.6694 9.50359 11.6694 9.50359 11.6694 9.50359L11.6248 9.59307L9.50623 10.0089M9.50623 10.0089C9.21857 10.4395 9.22665 10.9492 9.4747 11.3587L9.50623 10.0089ZM9.50623 10.0089L9.58938 10.0645M9.50623 10.0089C9.50623 10.0089 9.50623 10.0089 9.50622 10.0089L9.58938 10.0645M9.58938 10.0645C9.30875 10.4845 9.33309 10.9843 9.60289 11.3726L9.58938 10.0645ZM3.10583 12.4601L3.10584 12.4601C3.33779 12.3967 3.64629 12.4155 3.9261 12.5551L12.5289 16.848L12.5735 16.7585L12.5289 16.848C12.8087 16.9876 12.975 17.2053 13.0246 17.3994L13.0246 17.3994C13.0478 17.4902 13.0463 17.5728 13.022 17.6474C12.9976 17.7219 12.9483 17.7947 12.8659 17.8628C10.9536 19.4395 7.99239 19.8134 5.58507 18.6121L5.54042 18.7016L5.58507 18.6121C3.1803 17.4122 2.08602 15.0207 2.70537 12.817L2.6091 12.79L2.70537 12.817C2.75555 12.6385 2.89059 12.5189 3.10583 12.4601Z" fill="#FF8926" stroke="#FF8926" stroke-width="0.2"/>
<path d="M18.2478 12.272L18.2478 12.272L19.6909 12.6349L19.8444 12.6711C19.8444 12.6711 19.8444 12.6711 19.8444 12.6711C20.7952 9.86784 19.8199 6.71903 17.0684 4.71909C14.3063 2.71151 10.5316 2.4266 7.49318 3.73405L7.56138 3.85815L7.49318 3.73405C7.07757 3.91288 6.91197 4.34762 7.11583 4.70158C7.31875 5.05392 7.81527 5.20019 8.22867 5.0223C10.6917 3.96246 13.7531 4.19392 15.9943 5.82298C18.2271 7.44582 19.0185 9.99947 18.2478 12.272Z" fill="#FF8926" stroke="#FF8926" stroke-width="0.3"/>
<path d="M9.46002 8.03768L9.46003 8.03768L16.0345 12.1136L16.1881 12.1499C16.1881 12.1499 16.1881 12.1499 16.1881 12.1499C16.7627 10.4556 16.1735 8.55268 14.511 7.34429C12.8421 6.13125 10.5609 5.9592 8.72451 6.74943C8.30892 6.92825 8.14335 7.36298 8.3472 7.71692C8.55012 8.06927 9.04663 8.21554 9.46002 8.03768Z" fill="#FF8926" stroke="#FF8926" stroke-width="0.3"/>
</svg>
