<svg width="40" height="40" viewBox="0 0 40 40" fill="none" xmlns="http://www.w3.org/2000/svg">
<path fill-rule="evenodd" clip-rule="evenodd" d="M0 17.0056C0 25.7581 6.42648 33.0112 15.7604 33.0112C25.044 33.0112 31.4705 25.7581 31.4705 17.0056C31.4705 7.71456 25.1613 1 15.7604 1C6.30918 1 0 7.71456 0 17.0056ZM6.0662 17.0056C6.0662 11.1907 9.64391 5.55646 15.7604 5.55646C21.8266 5.55646 25.4043 11.1907 25.4043 17.0056C25.4043 22.4609 22.4382 28.4555 15.7604 28.4555C9.03226 28.4555 6.0662 22.4609 6.0662 17.0056Z" fill="#04256C"/>
<path d="M40 39V36.8659H34.4114C36.6486 34.6938 39.5644 32.056 39.5644 29.1854C39.5644 26.5278 37.8802 25.2288 35.2745 25.2288C33.8836 25.2288 32.4508 25.5784 31.2108 26.1989L31.4286 28.4489C32.3251 27.8665 33.4311 27.362 34.5874 27.362C35.7018 27.362 36.8245 27.9444 36.8245 29.1854C36.8245 31.6683 32.1743 35.5089 30.9008 36.7309V39H40Z" fill="#04256C"/>
</svg>
