<svg width="24" height="24" viewBox="0 0 17 24" fill="none" xmlns="http://www.w3.org/2000/svg">
<path d="M12.8751 5.9H12.875H12.35V2.0943C12.5 2.07709 12.6423 2.02134 12.7544 1.93164C12.8918 1.82173 12.975 1.66725 12.975 1.5C12.975 1.33275 12.8918 1.17827 12.7544 1.06836C12.6176 0.95891 12.4359 0.9 12.25 0.9H4.75C4.56405 0.9 4.3824 0.95891 4.24559 1.06836C4.1082 1.17827 4.025 1.33275 4.025 1.5C4.025 1.66725 4.1082 1.82173 4.24559 1.93164C4.35771 2.02134 4.49996 2.0771 4.65 2.0943V5.9H4.125H4.1249C3.27625 5.90081 2.45933 6.1707 1.85392 6.65502C1.24793 7.13981 0.901044 7.80247 0.9 8.49985V8.5L0.899999 18.5L0.900001 18.5004C0.902111 19.0406 1.11261 19.5642 1.49791 20C1.85762 20.4069 2.35339 20.7191 2.92336 20.9029C2.82751 21.0909 2.77662 21.2934 2.775 21.4992V21.5C2.775 21.9325 2.98989 22.3413 3.3617 22.6387C3.73294 22.9357 4.23253 23.1 4.75 23.1C5.26747 23.1 5.76706 22.9357 6.1383 22.6387C6.51011 22.3413 6.725 21.9325 6.72501 21.5L6.72499 21.4988C6.72335 21.3636 6.70041 21.2296 6.65714 21.1H10.3429C10.2996 21.2296 10.2766 21.3636 10.275 21.4988V21.5C10.275 21.9325 10.4899 22.3413 10.8617 22.6387C11.2329 22.9357 11.7325 23.1 12.25 23.1C12.7675 23.1 13.2671 22.9357 13.6383 22.6387C14.0101 22.3413 14.225 21.9325 14.225 21.5L14.225 21.4992C14.2234 21.2934 14.1725 21.0909 14.0766 20.9029C14.6466 20.7191 15.1424 20.4069 15.5021 20C15.8874 19.5642 16.0979 19.0406 16.1 18.5004V18.5V8.5L16.1 8.49985C16.099 7.80247 15.7521 7.13981 15.1461 6.65502C14.5407 6.1707 13.7238 5.90081 12.8751 5.9ZM6.1 2.1H10.9V5.9H6.1V2.1ZM5.275 21.5C5.275 21.5734 5.24792 21.6478 5.19292 21.7137C5.1376 21.7799 5.05649 21.8343 4.95772 21.867C4.85903 21.8997 4.74955 21.9085 4.64378 21.8916C4.53796 21.8748 4.44312 21.8335 4.37053 21.7755C4.29809 21.7175 4.25224 21.6466 4.23405 21.5734C4.21599 21.5008 4.22489 21.4251 4.26138 21.3546C4.29818 21.2836 4.36251 21.2192 4.44991 21.1725C4.53731 21.1257 4.6418 21.1 4.75 21.1C4.89557 21.1 5.03186 21.1464 5.12947 21.2245C5.2265 21.3022 5.275 21.402 5.275 21.5ZM12.25 21.9C12.1418 21.9 12.0373 21.8743 11.9499 21.8275C11.8625 21.7808 11.7982 21.7164 11.7614 21.6454C11.7249 21.5749 11.716 21.4992 11.7341 21.4266C11.7522 21.3534 11.7981 21.2825 11.8705 21.2245C11.9431 21.1665 12.038 21.1252 12.1438 21.1084C12.2496 21.0915 12.359 21.1003 12.4577 21.133C12.5565 21.1657 12.6376 21.2201 12.6929 21.2863C12.7479 21.3522 12.775 21.4266 12.775 21.5C12.775 21.598 12.7265 21.6978 12.6295 21.7755C12.5319 21.8536 12.3956 21.9 12.25 21.9ZM14.65 18.5C14.65 18.8632 14.4698 19.2174 14.1384 19.4826C13.8063 19.7482 13.3521 19.9 12.875 19.9H4.125C3.64791 19.9 3.19367 19.7482 2.86164 19.4826C2.53019 19.2174 2.35 18.8632 2.35 18.5V8.5C2.35 8.13682 2.53019 7.78259 2.86164 7.51743C3.19367 7.2518 3.64791 7.1 4.125 7.1H12.875C13.3521 7.1 13.8063 7.2518 14.1384 7.51743C14.4698 7.78259 14.65 8.13682 14.65 8.5V18.5Z" fill="#FF8926" stroke="#FF8926" stroke-width="0.2"/>
<path d="M8.5 9.89991C8.31405 9.89991 8.1324 9.95882 7.99559 10.0683C7.8582 10.1782 7.775 10.3327 7.775 10.4999V16.9999C7.775 17.1672 7.8582 17.3216 7.99559 17.4315C8.1324 17.541 8.31405 17.5999 8.5 17.5999C8.68595 17.5999 8.8676 17.541 9.00441 17.4315C9.1418 17.3216 9.225 17.1672 9.225 16.9999V10.4999C9.225 10.3327 9.1418 10.1782 9.00441 10.0683C8.8676 9.95882 8.68595 9.89991 8.5 9.89991Z" fill="#FF8926" stroke="#FF8926" stroke-width="0.2"/>
<path d="M11.625 10.3999C11.4391 10.3999 11.2574 10.4588 11.1206 10.5683C10.9832 10.6782 10.9 10.8327 10.9 10.9999V16.4999C10.9 16.6672 10.9832 16.8216 11.1206 16.9315C11.2574 17.041 11.4391 17.0999 11.625 17.0999C11.8109 17.0999 11.9926 17.041 12.1294 16.9315C12.2668 16.8216 12.35 16.6672 12.35 16.4999V10.9999C12.35 10.8327 12.2668 10.6782 12.1294 10.5683C11.9926 10.4588 11.8109 10.3999 11.625 10.3999Z" fill="#FF8926" stroke="#FF8926" stroke-width="0.2"/>
<path d="M5.375 10.3999C5.18905 10.3999 5.0074 10.4588 4.87059 10.5683C4.7332 10.6782 4.65 10.8327 4.65 10.9999V16.4999C4.65 16.6672 4.7332 16.8216 4.87059 16.9315C5.0074 17.041 5.18905 17.0999 5.375 17.0999C5.56095 17.0999 5.7426 17.041 5.87941 16.9315C6.0168 16.8216 6.1 16.6672 6.1 16.4999V10.9999C6.1 10.8327 6.0168 10.6782 5.87941 10.5683C5.7426 10.4588 5.56095 10.3999 5.375 10.3999Z" fill="#FF8926" stroke="#FF8926" stroke-width="0.2"/>
</svg>
