<svg width="22" height="22" viewBox="0 0 22 22" fill="none" xmlns="http://www.w3.org/2000/svg">
<path d="M13.468 5.28136C13.711 5.45554 13.7635 5.7893 13.5853 6.02682L12.6219 7.31142H14.4545C14.6601 7.31142 14.8482 7.4244 14.9411 7.60368C15.034 7.78295 15.0159 7.99807 14.8944 8.16013L13.2944 10.2934C13.1163 10.531 12.7749 10.5823 12.532 10.4081C12.2891 10.2339 12.2365 9.9002 12.4147 9.66269L13.3781 8.37808H11.5455C11.3399 8.37808 11.1518 8.26509 11.0589 8.08582C10.966 7.90655 10.984 7.69143 11.1056 7.52936L12.7056 5.39605C12.8838 5.15852 13.2251 5.10717 13.468 5.28136Z" fill="#FF8926"/>
<path d="M5.57532 16.274C5.15922 16.274 4.8219 16.6113 4.8219 17.0274C4.8219 17.4435 5.15922 17.7808 5.57532 17.7808H12.8082C13.2243 17.7808 13.5616 17.4435 13.5616 17.0274C13.5616 16.6113 13.2243 16.274 12.8082 16.274H5.57532Z" fill="#FF8926"/>
<path d="M5.72596 13.4109C5.30985 13.4109 4.97253 13.7482 4.97253 14.1643C4.97253 14.5805 5.30985 14.9178 5.72596 14.9178H12.9588C13.375 14.9178 13.7123 14.5805 13.7123 14.1643C13.7123 13.7482 13.375 13.4109 12.9588 13.4109H5.72596Z" fill="#FF8926"/>
<path fill-rule="evenodd" clip-rule="evenodd" d="M10.6054 20.7504L11.8931 21.268C12.0969 21.3627 12.313 21.3973 12.5025 21.3973C12.7027 21.3973 12.9329 21.3586 13.1465 21.2513L13.1641 21.2421L14.4266 20.5656L15.3779 21.0001C15.4019 21.011 15.4265 21.0207 15.4516 21.0291C15.9357 21.1913 16.4531 21.1168 16.854 20.8258C17.259 20.532 17.4926 20.0568 17.4926 19.5248V4.25262C17.4926 3.01264 17.9255 2.53858 18.2156 2.33814C18.3815 2.22357 18.5497 2.16499 18.6771 2.13565C18.74 2.12116 18.7898 2.11456 18.8196 2.11162C18.8338 2.11022 18.843 2.10969 18.8465 2.10953L18.8658 2.10901C18.9201 2.11741 18.9762 2.11997 19.0333 2.11606C19.4808 2.08537 19.7571 2.1686 19.9287 2.26276C20.1014 2.35742 20.2202 2.49178 20.3064 2.64529C20.3954 2.80391 20.4445 2.97553 20.47 3.11542C20.4824 3.18342 20.4882 3.23871 20.491 3.27391C20.4923 3.29136 20.4929 3.30341 20.493 3.30908L20.4932 3.31093V5.42467H18.8356C18.4195 5.42467 18.0822 5.76199 18.0822 6.1781C18.0822 6.5942 18.4195 6.93152 18.8356 6.93152H21.2466C21.6627 6.93152 22 6.5942 22 6.1781V3.3054H21.2466C22 3.3054 22 3.3054 22 3.3054V3.30371V3.30182V3.29742L21.9998 3.28626L21.9989 3.25472C21.9981 3.22976 21.9964 3.19692 21.9934 3.15736C21.9872 3.07852 21.9754 2.97125 21.9524 2.84515C21.9072 2.59683 21.8147 2.25409 21.6205 1.90806C21.4235 1.55691 21.1178 1.19629 20.6534 0.941589C20.1925 0.688764 19.6258 0.568059 18.9495 0.611456C18.912 0.60573 18.8736 0.602753 18.8345 0.602753H4.68434C2.08101 0.602753 0 2.69889 0 5.30587V19.6126C0 20.711 1.08421 21.3495 2.04095 21.0291C2.05499 21.0244 2.06889 21.0194 2.08263 21.0138L3.32418 20.5147L3.34247 20.5258L4.39071 21.1403C4.4356 21.1665 4.48308 21.1881 4.53241 21.2046L4.55418 21.212C4.66839 21.2506 4.87457 21.32 5.08533 21.3393C5.30703 21.3595 5.6073 21.3313 5.87647 21.1325L6.91098 20.6528L8.10232 21.2513C8.3159 21.3586 8.54603 21.3973 8.74624 21.3973C8.93887 21.3973 9.15923 21.3615 9.36573 21.2632L10.5729 20.7434L10.5807 20.74L10.594 20.7457L10.6054 20.7504ZM4.68434 2.1096H16.4603C16.1697 2.64523 15.9857 3.34695 15.9857 4.25262V19.5248C15.9857 19.57 15.9765 19.5926 15.973 19.5995C15.9713 19.6029 15.9692 19.6058 15.9692 19.6058L15.9675 19.6062C15.9675 19.6062 15.9646 19.6065 15.9615 19.6064C15.9591 19.6064 15.9558 19.6063 15.952 19.6057L15.0528 19.195C14.8437 19.0935 14.6197 19.0566 14.4243 19.0566C14.2241 19.0566 13.9939 19.0953 13.7803 19.2026L13.7626 19.2117L12.5001 19.8884C12.4926 19.8851 12.4853 19.882 12.4777 19.879L11.19 19.3613C10.9864 19.2668 10.7701 19.2321 10.5807 19.2321C10.3881 19.2321 10.1679 19.2679 9.96124 19.3662L8.75407 19.8861L8.74732 19.889L7.55581 19.2903C7.34223 19.183 7.1121 19.1444 6.91186 19.1444C6.71564 19.1444 6.49076 19.1815 6.28085 19.2839L5.15355 19.8068L5.13428 19.816C5.11891 19.8113 5.10247 19.806 5.08429 19.8001L4.17063 19.2647C3.7384 18.9029 3.18079 18.9266 2.80939 19.0977L1.54995 19.6039C1.53442 19.6076 1.52348 19.6073 1.51681 19.6064C1.51274 19.6058 1.50944 19.605 1.50685 19.604V5.30587C1.50685 3.52432 2.91998 2.1096 4.68434 2.1096Z" fill="#FF8926"/>
<path fill-rule="evenodd" clip-rule="evenodd" d="M3.77032 8.42939C3.74551 7.74874 3.86457 7.39797 4.18621 6.86753C4.21755 6.8158 4.31431 6.84664 4.31168 6.90579C4.29372 7.32387 4.43052 7.70188 4.79448 7.76633C4.73283 7.48829 4.75639 7.18564 4.84869 6.88502C5.11119 6.02936 5.92946 5.18928 6.91804 4.97542C7.006 4.95641 7.07429 5.04001 7.04146 5.11793C6.75037 5.80993 6.24732 6.75993 7.71058 7.74238C9.67871 8.88001 7.96302 11.0001 6.24732 11.0001C4.53163 11.0001 3.81859 9.752 3.77032 8.42939ZM6.057 7.43041C6.0435 7.40687 5.97579 7.42246 5.97899 7.44896C6.00312 7.64952 6.02886 7.83852 6.05631 8.01905C6.13535 8.53899 5.64798 8.9964 5.09152 8.89792C5.05835 8.89209 5.02575 8.91245 5.02461 8.94372C5.09152 9.92733 6.67156 10.1434 7.09419 9.46282C7.49486 8.78174 6.45103 8.11625 6.057 7.43041Z" fill="#FF8926"/>
</svg>
