<svg width="40" height="40" viewBox="0 0 40 40" fill="none" xmlns="http://www.w3.org/2000/svg">
<rect width="40" height="40" rx="20" fill="white"/>
<g clip-path="url(#clip0_15051_17654)">
<path d="M33.8399 23.7969H35.8098V20.1847C35.8098 19.3604 36.2896 18.7773 36.9971 18.7773C37.6792 18.7773 38.0326 19.2589 38.0326 19.9435V23.7969H40.0025V19.5635C40.0025 18.1307 39.144 17.1167 37.7544 17.1167C36.8706 17.1167 36.2517 17.4968 35.7845 18.1942H35.7466V17.3071H33.8399V23.7969ZM29.9754 17.1294C27.917 17.1294 26.54 18.6123 26.54 20.5647C26.54 22.5045 27.9163 24 29.9754 24C32.0344 24 33.4107 22.5045 33.4107 20.5647C33.4107 18.613 32.0344 17.1294 29.9754 17.1294ZM29.9627 22.5419C29.0283 22.5419 28.5359 21.7563 28.5359 20.5647C28.5359 19.3604 29.0283 18.5876 29.9627 18.5876C30.8971 18.5876 31.4148 19.3611 31.4148 20.5647C31.4155 21.7563 30.8977 22.5419 29.9627 22.5419ZM20.9332 23.7969H26.4648V22.2379H23.333V22.1999L26.3257 18.828V17.3071H20.9332V18.8661H23.9639V18.9042L20.9332 22.3014V23.7969ZM18.4069 23.7969H20.3895V17.3071H18.4069V23.7969ZM13.8103 23.7969H15.7802V20.8185C15.7802 19.4619 16.5888 18.8661 17.826 19.0311H17.8639V17.3198C17.7627 17.2817 17.6489 17.269 17.4599 17.269C16.6893 17.269 16.1715 17.6237 15.7296 18.3845H15.6917V17.3071H13.8103V23.7969ZM10.1853 22.5552C9.31418 22.5552 8.78377 21.9848 8.68262 21.1104H13.3425C13.3551 19.7157 12.9891 18.6003 12.2184 17.9036C11.6754 17.3966 10.9553 17.1174 10.0462 17.1174C8.10164 17.1174 6.75 18.6003 6.75 20.54C6.75 22.4918 8.03841 23.988 10.1727 23.988C10.9813 23.988 11.6248 23.7722 12.1552 23.4049C12.7235 23.0121 13.1275 22.4417 13.2413 21.8712H11.3473C11.1583 22.3014 10.7663 22.5552 10.1853 22.5552ZM10.0848 18.5368C10.7796 18.5368 11.2594 19.0565 11.3353 19.8173H8.69593C8.847 19.0438 9.2636 18.5368 10.0848 18.5368ZM18.4069 15H20.3895V16.7621H18.4069V15Z" fill="#F50A23"/>
<path d="M0 17.3047L2.45171 23.7144C2.47034 23.7631 2.51693 23.7952 2.56884 23.7952H4.55802C4.50611 23.7952 4.45953 23.7631 4.4409 23.7144L1.98919 17.3047H0Z" fill="url(#paint0_radial_15051_17654)"/>
<path d="M7.12834 17.3047L4.67663 23.7144C4.65799 23.7631 4.61141 23.7952 4.5595 23.7952H2.57031C2.62222 23.7952 2.66881 23.7631 2.68744 23.7144L5.13915 17.3047H7.12834Z" fill="#F50A23"/>
</g>
<defs>
<radialGradient id="paint0_radial_15051_17654" cx="0" cy="0" r="1" gradientUnits="userSpaceOnUse" gradientTransform="translate(3.5278 21.5576) rotate(-90) scale(3.07925 2.78329)">
<stop stop-color="#F5FF1E"/>
<stop offset="1" stop-color="#F50A23"/>
</radialGradient>
<clipPath id="clip0_15051_17654">
<rect width="40" height="9" fill="white" transform="translate(0 15)"/>
</clipPath>
</defs>
</svg>
