<svg width="40" height="40" viewBox="0 0 40 40" fill="none" xmlns="http://www.w3.org/2000/svg">
<path d="M39 20C39 31.0454 30.272 40 19.5018 40C8.73156 40 0 31.0454 0 20C0 8.95461 8.73156 0 19.5018 0C30.272 0 39 8.95461 39 20Z" fill="#EE3023"/>
<path d="M19.6561 31.1517C14.2996 31.1704 8.72463 26.4815 8.69955 18.949C8.68161 13.9701 11.3043 9.17491 14.6508 6.33089C17.9184 3.56037 22.3934 1.77824 26.4493 1.76355C26.9724 1.76355 27.5206 1.80757 27.8538 1.92516C24.3067 2.67842 21.4834 6.06624 21.4941 9.90606C21.4941 10.0346 21.5048 10.1706 21.5191 10.2331C27.456 11.7175 30.1503 15.392 30.1682 20.4737C30.1825 25.5592 26.2702 31.1297 19.6561 31.1517Z" fill="white"/>
</svg>
