<?xml version="1.0" encoding="iso-8859-1"?>
<!-- Uploaded to: SVG Repo, www.svgrepo.com, Generator: SVG Repo Mixer Tools -->
<svg fill="#000000" height="800px" width="800px" version="1.1" id="Capa_1" xmlns="http://www.w3.org/2000/svg" xmlns:xlink="http://www.w3.org/1999/xlink" 
	 viewBox="0 0 488.964 488.964" xml:space="preserve">
<g>
	<g>
		<g>
			<g>
				<path d="M8.382,483.853c-8.3-7.3-8.3-20.8-1-29.1l39.5-41.6c13.5-13.5,31.2-21.8,49.9-21.8s36.4,7.3,49.9,21.8
					c11.4,11.4,30.2,11.4,41.6,0c13.7-14.7,33.7-24.2,52-23.9l0,0c18.7,0,36.4,7.3,49.9,21.8c0,0,14,17.8,28.1,16.6l0,0
					c14,0.8,26-14.6,26-14.6c13.5-13.5,31.2-21.8,49.9-21.8s36.4,7.3,49.9,21.8l37.5,38.5c7.3,8.3,7.3,20.8-1,29.1
					c-8.3,8.3-20.8,7.3-29.1-1l-37.5-38.5c-11.5-13.4-32.5-9.6-42.7,5.2c-13.5,13.5-31.2,21.8-49.9,21.8l0,0
					c-18.3,0.6-40.9-8.2-57.2-29.1c-9.9-11.4-28.7-13.4-41.6,0c-11.5,13.6-33.4,24.4-52,23.9c-18.7-0.5-37.5-7.3-49.9-21.8
					c-11.4-11.4-30.2-11.4-41.6,0l-39.5,41.6C33.382,486.953,22.682,493.753,8.382,483.853z"/>
			</g>
			<g>
				<path d="M246.682,349.653c-101-6.7-130-87.4-130-134.2c0-67.6,102-193.5,114.4-208.1c8.3-10.2,24-9.4,31.2,0
					c11.4,14.6,118.2,139.5,114.4,208.1C369.882,337.553,267.382,350.953,246.682,349.653z M246.682,53.153
					c-39.5,51-86.3,127-88.4,162.3c-1.8,30.9,24.3,93.4,88.4,93.4c14.4,0,84.9-9.6,89.5-92.4
					C335.082,180.053,286.182,104.153,246.682,53.153z"/>
			</g>
		</g>
	</g>
</g>
</svg>