<?xml version="1.0" encoding="UTF-8"?>
<svg xmlns="http://www.w3.org/2000/svg" xmlns:xlink="http://www.w3.org/1999/xlink" width="20px" height="20px" viewBox="0 0 20 20" version="1.1">
<g id="surface1">
<path style=" stroke:none;fill-rule:nonzero;fill:rgb(93.333333%,30.588235%,22.352941%);fill-opacity:1;" d="M 5.074219 -0.00390625 C 5.117188 -0.00390625 5.160156 -0.00390625 5.207031 -0.00390625 C 5.351562 -0.00390625 5.5 -0.00390625 5.644531 -0.00390625 C 5.75 -0.00390625 5.855469 -0.0078125 5.957031 -0.0078125 C 6.214844 -0.0078125 6.46875 -0.0078125 6.722656 -0.0078125 C 6.929688 -0.0078125 7.136719 -0.0078125 7.34375 -0.0078125 C 7.933594 -0.0078125 8.523438 -0.0078125 9.113281 -0.0078125 C 9.144531 -0.0078125 9.175781 -0.0078125 9.207031 -0.0078125 C 9.257812 -0.0078125 9.257812 -0.0078125 9.304688 -0.0078125 C 9.820312 -0.0078125 10.332031 -0.0078125 10.847656 -0.0078125 C 11.375 -0.0078125 11.90625 -0.0078125 12.433594 -0.0078125 C 12.730469 -0.0078125 13.027344 -0.0078125 13.324219 -0.0078125 C 13.574219 -0.0117188 13.828125 -0.0117188 14.082031 -0.0078125 C 14.207031 -0.0078125 14.335938 -0.0078125 14.464844 -0.0117188 C 16.105469 -0.0117188 17.546875 0.164062 18.773438 1.339844 C 19.757812 2.347656 20.007812 3.714844 20.003906 5.074219 C 20.003906 5.140625 20.003906 5.140625 20.003906 5.207031 C 20.003906 5.351562 20.003906 5.5 20.003906 5.644531 C 20.003906 5.75 20.007812 5.855469 20.007812 5.957031 C 20.007812 6.214844 20.007812 6.46875 20.007812 6.722656 C 20.007812 6.929688 20.007812 7.136719 20.007812 7.34375 C 20.007812 7.933594 20.007812 8.523438 20.007812 9.113281 C 20.007812 9.160156 20.007812 9.160156 20.007812 9.207031 C 20.007812 9.257812 20.007812 9.257812 20.007812 9.304688 C 20.007812 9.820312 20.007812 10.332031 20.007812 10.847656 C 20.007812 11.375 20.007812 11.90625 20.007812 12.433594 C 20.007812 12.730469 20.007812 13.027344 20.007812 13.324219 C 20.011719 13.574219 20.011719 13.828125 20.007812 14.082031 C 20.007812 14.207031 20.007812 14.335938 20.011719 14.464844 C 20.011719 16.105469 19.835938 17.546875 18.664062 18.773438 C 17.652344 19.757812 16.285156 20.007812 14.925781 20.003906 C 14.859375 20.003906 14.859375 20.003906 14.792969 20.003906 C 14.648438 20.003906 14.5 20.003906 14.355469 20.003906 C 14.25 20.003906 14.144531 20.007812 14.042969 20.007812 C 13.785156 20.007812 13.53125 20.007812 13.277344 20.007812 C 13.070312 20.007812 12.863281 20.007812 12.65625 20.007812 C 12.066406 20.007812 11.476562 20.007812 10.886719 20.007812 C 10.855469 20.007812 10.824219 20.007812 10.792969 20.007812 C 10.742188 20.007812 10.742188 20.007812 10.695312 20.007812 C 10.179688 20.007812 9.667969 20.007812 9.152344 20.007812 C 8.625 20.007812 8.09375 20.007812 7.566406 20.007812 C 7.269531 20.007812 6.972656 20.007812 6.675781 20.007812 C 6.425781 20.011719 6.171875 20.011719 5.917969 20.007812 C 5.792969 20.007812 5.664062 20.007812 5.535156 20.011719 C 3.894531 20.011719 2.453125 19.835938 1.226562 18.664062 C 0.242188 17.652344 -0.0078125 16.285156 -0.00390625 14.925781 C -0.00390625 14.859375 -0.00390625 14.859375 -0.00390625 14.792969 C -0.00390625 14.648438 -0.00390625 14.5 -0.00390625 14.355469 C -0.00390625 14.25 -0.0078125 14.144531 -0.0078125 14.042969 C -0.0078125 13.785156 -0.0078125 13.53125 -0.0078125 13.277344 C -0.0078125 13.070312 -0.0078125 12.863281 -0.0078125 12.65625 C -0.0078125 12.066406 -0.0078125 11.476562 -0.0078125 10.886719 C -0.0078125 10.855469 -0.0078125 10.824219 -0.0078125 10.792969 C -0.0078125 10.757812 -0.0078125 10.726562 -0.0078125 10.695312 C -0.0078125 10.179688 -0.0078125 9.667969 -0.0078125 9.152344 C -0.0078125 8.625 -0.0078125 8.09375 -0.0078125 7.566406 C -0.0078125 7.269531 -0.0078125 6.972656 -0.0078125 6.675781 C -0.0117188 6.425781 -0.0117188 6.171875 -0.0078125 5.917969 C -0.0078125 5.792969 -0.0078125 5.664062 -0.0117188 5.535156 C -0.0117188 3.894531 0.164062 2.453125 1.339844 1.226562 C 2.347656 0.242188 3.714844 -0.0078125 5.074219 -0.00390625 Z M 5.074219 -0.00390625 "/>
<path style=" stroke:none;fill-rule:nonzero;fill:rgb(99.607843%,99.607843%,99.607843%);fill-opacity:1;" d="M 4.6875 4.140625 C 5.601562 4.140625 6.519531 4.140625 7.460938 4.140625 C 7.480469 4.703125 7.480469 4.703125 7.5 5.273438 C 7.550781 6.097656 7.632812 6.914062 7.734375 7.734375 C 7.742188 7.785156 7.746094 7.835938 7.753906 7.890625 C 7.792969 8.1875 7.839844 8.484375 7.898438 8.78125 C 7.910156 8.820312 7.917969 8.863281 7.925781 8.902344 C 7.953125 9.035156 7.980469 9.164062 8.007812 9.296875 C 8.015625 9.339844 8.027344 9.382812 8.035156 9.429688 C 8.210938 10.273438 8.417969 11.105469 8.75 11.902344 C 8.792969 12 8.832031 12.09375 8.871094 12.191406 C 9.015625 12.546875 9.175781 12.894531 9.363281 13.234375 C 9.386719 13.28125 9.386719 13.28125 9.414062 13.332031 C 9.515625 13.511719 9.628906 13.679688 9.761719 13.84375 C 9.804688 13.90625 9.804688 13.90625 9.804688 13.984375 C 9.832031 13.984375 9.855469 13.984375 9.882812 13.984375 C 9.894531 13.957031 9.902344 13.925781 9.914062 13.898438 C 9.960938 13.792969 10.007812 13.710938 10.074219 13.617188 C 10.753906 12.554688 11.203125 11.34375 11.484375 10.117188 C 11.496094 10.066406 11.507812 10.019531 11.519531 9.96875 C 11.765625 8.875 11.953125 7.78125 12.058594 6.667969 C 12.070312 6.5625 12.070312 6.5625 12.089844 6.464844 C 12.128906 6.277344 12.132812 6.089844 12.148438 5.902344 C 12.152344 5.859375 12.15625 5.820312 12.15625 5.78125 C 12.199219 5.234375 12.207031 4.691406 12.226562 4.140625 C 13.128906 4.140625 14.03125 4.140625 14.960938 4.140625 C 14.960938 5.640625 14.871094 7.101562 14.554688 8.566406 C 14.53125 8.664062 14.515625 8.761719 14.496094 8.859375 C 14.226562 10.332031 13.753906 11.78125 13.085938 13.125 C 13.070312 13.160156 13.050781 13.195312 13.03125 13.230469 C 12.675781 13.945312 12.269531 14.621094 11.757812 15.234375 C 11.738281 15.257812 11.71875 15.28125 11.699219 15.304688 C 10.851562 16.332031 10.851562 16.332031 10.507812 16.445312 C 10.410156 16.449219 10.3125 16.453125 10.214844 16.453125 C 10.183594 16.453125 10.15625 16.453125 10.125 16.453125 C 10.066406 16.453125 10.003906 16.453125 9.945312 16.453125 C 9.851562 16.453125 9.757812 16.457031 9.667969 16.457031 C 9.609375 16.457031 9.546875 16.457031 9.488281 16.457031 C 9.460938 16.457031 9.433594 16.460938 9.40625 16.460938 C 9.121094 16.457031 8.953125 16.351562 8.757812 16.15625 C 8.722656 16.121094 8.691406 16.089844 8.65625 16.054688 C 8.601562 16 8.601562 16 8.546875 15.945312 C 8.527344 15.925781 8.511719 15.90625 8.492188 15.890625 C 8.203125 15.597656 7.9375 15.296875 7.695312 14.960938 C 7.664062 14.921875 7.632812 14.878906 7.601562 14.839844 C 6.609375 13.523438 6.019531 11.953125 5.546875 10.390625 C 5.535156 10.355469 5.523438 10.316406 5.511719 10.28125 C 5.257812 9.441406 5.097656 8.5625 4.960938 7.695312 C 4.953125 7.65625 4.949219 7.617188 4.941406 7.578125 C 4.851562 6.988281 4.785156 6.402344 4.734375 5.808594 C 4.734375 5.777344 4.730469 5.75 4.730469 5.71875 C 4.683594 5.191406 4.6875 4.675781 4.6875 4.140625 Z M 4.6875 4.140625 "/>
<path style=" stroke:none;fill-rule:nonzero;fill:rgb(94.509804%,45.098039%,38.823529%);fill-opacity:1;" d="M 1.71875 0.898438 C 1.746094 0.910156 1.769531 0.925781 1.796875 0.9375 C 1.511719 1.222656 1.230469 1.503906 0.9375 1.796875 C 0.9375 1.640625 0.992188 1.605469 1.097656 1.492188 C 1.128906 1.460938 1.160156 1.425781 1.191406 1.390625 C 1.554688 1.007812 1.554688 1.007812 1.71875 0.898438 Z M 1.71875 0.898438 "/>
<path style=" stroke:none;fill-rule:nonzero;fill:rgb(95.294118%,52.941176%,47.45098%);fill-opacity:1;" d="M 4.84375 6.796875 C 4.855469 6.796875 4.871094 6.796875 4.882812 6.796875 C 4.910156 7.042969 4.933594 7.285156 4.960938 7.539062 C 4.84375 7.421875 4.84375 7.421875 4.832031 7.273438 C 4.832031 7.214844 4.835938 7.160156 4.835938 7.101562 C 4.835938 7.074219 4.835938 7.042969 4.839844 7.011719 C 4.839844 6.941406 4.839844 6.867188 4.84375 6.796875 Z M 4.84375 6.796875 "/>
<path style=" stroke:none;fill-rule:nonzero;fill:rgb(94.117647%,39.215686%,31.764706%);fill-opacity:1;" d="M 5.117188 8.59375 C 5.183594 8.710938 5.207031 8.804688 5.21875 8.9375 C 5.222656 8.964844 5.226562 8.996094 5.230469 9.03125 C 5.230469 9.054688 5.230469 9.078125 5.234375 9.101562 C 5.207031 9.101562 5.183594 9.101562 5.15625 9.101562 C 5.117188 8.984375 5.113281 8.90625 5.113281 8.78125 C 5.113281 8.746094 5.117188 8.710938 5.117188 8.675781 C 5.117188 8.648438 5.117188 8.621094 5.117188 8.59375 Z M 5.117188 8.59375 "/>
<path style=" stroke:none;fill-rule:nonzero;fill:rgb(93.72549%,37.647059%,30.196078%);fill-opacity:1;" d="M 14.570312 8.476562 C 14.582031 8.476562 14.597656 8.476562 14.609375 8.476562 C 14.625 8.691406 14.625 8.691406 14.550781 8.785156 C 14.523438 8.804688 14.523438 8.804688 14.492188 8.828125 C 14.527344 8.519531 14.527344 8.519531 14.570312 8.476562 Z M 14.570312 8.476562 "/>
</g>
</svg>
