<svg width="95" height="30" viewBox="0 0 95 30" fill="none" xmlns="http://www.w3.org/2000/svg">
<path d="M12.6264 2.20965C12.6877 4.23006 12.248 13.9926 8.63016 18.757C5.01792 13.9926 4.58378 4.23006 4.63944 2.20965H0.00307271C-0.0581518 5.44898 0.743333 17.0371 7.15521 22.6308C7.222 22.6976 7.41124 22.8646 7.68396 22.8646H9.57636C9.86022 22.8646 10.0439 22.6976 10.1107 22.6308C16.5281 17.0371 17.324 5.44898 17.2684 2.20965H12.632H12.6264ZM84.6821 6.74583H76.5059V2.15955L72.0365 3.54545V6.74583H69.6264V9.79592H72.0365V18.4063C72.0365 21.1503 73.3111 23.2041 76.7396 23.2041C78.2535 23.2041 79.7285 22.7866 80.4799 22.2245L79.5392 19.2412C79.1608 19.5083 78.4706 19.6865 78.0309 19.6865C77.2461 19.6865 76.556 19.3915 76.5114 17.8998V9.79035H80.5022C81.2146 15.3562 83.5522 19.564 86.6691 21.9184C85.7285 23.7996 83.7192 25.6419 81.6821 26.5269L83.0791 30C90.8546 26.4824 95.107 16.2189 95.3853 6.73469H90.9938C90.7322 11.833 89.7081 16.0297 88.4502 18.5009C86.3407 16.2468 84.8435 11.7996 84.6821 6.73469M65.5467 0C64.1608 0 62.953 0.957328 62.953 2.44898C62.953 3.94063 64.1608 4.89796 65.5467 4.89796C66.9326 4.89796 68.1348 3.94063 68.1348 2.44898C68.1348 0.957328 66.9326 0 65.5467 0ZM63.3203 22.9091H67.7674V6.74583H63.3203V22.9091ZM26.8751 19.6308C26.8751 19.8646 26.747 20.026 26.5856 20.0983C26.3018 20.2319 25.6617 20.2931 24.9994 20.2931C23.1738 20.2931 21.8101 19.397 21.8101 18.0111C21.8101 16.1855 23.8472 15.2672 26.8751 15.167V19.6308ZM24.7545 6.44527C22.3277 6.44527 20.5021 7.01299 18.5318 7.75325L19.478 10.6085C21.0977 9.99629 22.2665 9.53432 23.8083 9.53432C25.5114 9.53432 26.9864 10.0297 26.9864 11.7551V12.2839C21.543 12.6122 17.4131 14.0037 17.4131 18.1113C17.4131 21.5176 20.068 23.2096 24.9047 23.2096C27.0754 23.2096 30.0754 22.7421 31.055 22.1132C31.2387 21.9796 31.4279 21.8516 31.4279 21.3896V12.0501C31.4279 8.7718 29.5355 6.45083 24.7545 6.45083M58.5003 19.898C56.1571 19.898 54.0309 18.0779 54.0309 14.9388C54.0309 11.7996 56.0569 9.77365 58.2665 9.77365C58.8899 9.77365 59.747 9.96846 60.3816 10.3135L61.4502 7.25788C60.4261 6.72913 59.029 6.46753 57.543 6.46753C52.7229 6.46753 49.4502 9.74583 49.4502 15.0724C49.4502 20.3989 52.9177 23.2152 57.6376 23.2152C59.2573 23.2152 60.4372 22.9814 61.4613 22.4583L60.4038 19.3692C59.7248 19.7254 59.1237 19.9035 58.4947 19.9035M40.6116 6.46197C38.1905 6.46197 35.7359 6.89054 34.3556 7.51948C34.0105 7.68646 33.8491 7.82004 33.8491 8.21521V22.9091H38.3296V10.0408C38.3296 9.94063 38.363 9.90724 38.5188 9.84045C38.8027 9.74583 39.6932 9.53989 40.517 9.53989C42.4372 9.53989 43.0773 10.6642 43.0773 11.8553V22.9035H47.5634V12.1447C47.5634 11.0872 47.4966 10.4583 47.3407 9.96289C46.7118 7.8757 44.7582 6.45083 40.6116 6.45083" fill="white"/>
</svg>
