<svg width="32" height="33" viewBox="0 0 32 33" fill="none" xmlns="http://www.w3.org/2000/svg">
<path d="M4 16.3767C4 17.9526 4.31039 19.513 4.91345 20.9689C5.5165 22.4248 6.40042 23.7477 7.51472 24.862C8.62902 25.9763 9.95189 26.8602 11.4078 27.4633C12.8637 28.0663 14.4241 28.3767 16 28.3767C17.5759 28.3767 19.1363 28.0663 20.5922 27.4633C22.0481 26.8602 23.371 25.9763 24.4853 24.862C25.5996 23.7477 26.4835 22.4248 27.0866 20.9689C27.6896 19.513 28 17.9526 28 16.3767C28 14.8008 27.6896 13.2404 27.0866 11.7845C26.4835 10.3286 25.5996 9.00573 24.4853 7.89143C23.371 6.77712 22.0481 5.89321 20.5922 5.29015C19.1363 4.6871 17.5759 4.37671 16 4.37671C14.4241 4.37671 12.8637 4.6871 11.4078 5.29015C9.95189 5.89321 8.62902 6.77712 7.51472 7.89143C6.40042 9.00573 5.5165 10.3286 4.91345 11.7845C4.31039 13.2404 4 14.8008 4 16.3767Z" stroke="#F04E39" stroke-width="1.5" stroke-linecap="round" stroke-linejoin="round"/>
<path d="M10 13.7101L12.6667 11.0435M12.6667 11.0435L15.3333 13.7101M12.6667 11.0435V21.7101M22 19.0435L19.3333 21.7101M19.3333 21.7101L16.6667 19.0435M19.3333 21.7101L19.3333 11.0435" stroke="#F04E39" stroke-width="1.5" stroke-linecap="round" stroke-linejoin="round"/>
</svg>
