<svg width="20" height="20" viewBox="0 0 20 20" fill="none" xmlns="http://www.w3.org/2000/svg">
<path d="M15.8333 10V4.16667C15.8333 3.72464 15.6577 3.30072 15.3452 2.98816C15.0326 2.67559 14.6087 2.5 14.1667 2.5H5.83332C5.3913 2.5 4.96737 2.67559 4.65481 2.98816C4.34225 3.30072 4.16666 3.72464 4.16666 4.16667V17.5L6.66666 15.8333L8.33332 17.5L9.99999 15.8333M7.49999 5.83333H12.5M7.49999 9.16667H9.99999" stroke="black" stroke-width="1.5" stroke-linecap="round" stroke-linejoin="round"/>
<path d="M10 14.1667C10 14.7138 10.1078 15.2557 10.3172 15.7612C10.5266 16.2667 10.8335 16.726 11.2204 17.1129C11.6073 17.4999 12.0666 17.8068 12.5722 18.0162C13.0777 18.2256 13.6195 18.3333 14.1667 18.3333C14.7138 18.3333 15.2557 18.2256 15.7612 18.0162C16.2667 17.8068 16.726 17.4999 17.1129 17.1129C17.4999 16.726 17.8068 16.2667 18.0162 15.7612C18.2256 15.2557 18.3333 14.7138 18.3333 14.1667C18.3333 13.0616 17.8943 12.0018 17.1129 11.2204C16.3315 10.439 15.2717 10 14.1667 10C13.0616 10 12.0018 10.439 11.2204 11.2204C10.439 12.0018 10 13.0616 10 14.1667Z" stroke="black" stroke-width="1.5" stroke-linecap="round" stroke-linejoin="round"/>
<path d="M14.1667 12.5V14.1667L15.4167 15.4167" stroke="black" stroke-width="1.5" stroke-linecap="round" stroke-linejoin="round"/>
</svg>
