<svg width="20" height="20" viewBox="0 0 20 20" fill="none" xmlns="http://www.w3.org/2000/svg">
<path d="M7.5 12.5L12.5 7.5" stroke="black" stroke-width="1.5" stroke-linecap="round" stroke-linejoin="round"/>
<path d="M7.91667 8.33333C8.14679 8.33333 8.33333 8.14679 8.33333 7.91667C8.33333 7.68655 8.14679 7.5 7.91667 7.5C7.68655 7.5 7.5 7.68655 7.5 7.91667C7.5 8.14679 7.68655 8.33333 7.91667 8.33333Z" stroke="black" stroke-width="1.5" stroke-linecap="round" stroke-linejoin="round"/>
<path d="M12.0833 12.5C12.3134 12.5 12.5 12.3135 12.5 12.0833C12.5 11.8532 12.3134 11.6667 12.0833 11.6667C11.8532 11.6667 11.6667 11.8532 11.6667 12.0833C11.6667 12.3135 11.8532 12.5 12.0833 12.5Z" stroke="black" stroke-width="1.5" stroke-linecap="round" stroke-linejoin="round"/>
<path d="M4.16665 6C4.16665 5.51377 4.35981 5.04746 4.70363 4.70364C5.04744 4.35982 5.51376 4.16667 5.99999 4.16667H6.83332C7.3174 4.16639 7.78173 3.97467 8.12499 3.63334L8.70832 3.05C8.87869 2.87867 9.08125 2.7427 9.30436 2.64993C9.52746 2.55715 9.7667 2.50938 10.0083 2.50938C10.2499 2.50938 10.4892 2.55715 10.7123 2.64993C10.9354 2.7427 11.1379 2.87867 11.3083 3.05L11.8917 3.63334C12.2349 3.97467 12.6992 4.16639 13.1833 4.16667H14.0167C14.5029 4.16667 14.9692 4.35982 15.313 4.70364C15.6568 5.04746 15.85 5.51377 15.85 6V6.83334C15.8503 7.31742 16.042 7.78174 16.3833 8.125L16.9667 8.70834C17.138 8.87871 17.274 9.08127 17.3667 9.30437C17.4595 9.52747 17.5073 9.76671 17.5073 10.0083C17.5073 10.25 17.4595 10.4892 17.3667 10.7123C17.274 10.9354 17.138 11.138 16.9667 11.3083L16.3833 11.8917C16.042 12.2349 15.8503 12.6993 15.85 13.1833V14.0167C15.85 14.5029 15.6568 14.9692 15.313 15.313C14.9692 15.6568 14.5029 15.85 14.0167 15.85H13.1833C12.6992 15.8503 12.2349 16.042 11.8917 16.3833L11.3083 16.9667C11.1379 17.138 10.9354 17.274 10.7123 17.3667C10.4892 17.4595 10.2499 17.5073 10.0083 17.5073C9.7667 17.5073 9.52746 17.4595 9.30436 17.3667C9.08125 17.274 8.87869 17.138 8.70832 16.9667L8.12499 16.3833C7.78173 16.042 7.3174 15.8503 6.83332 15.85H5.99999C5.51376 15.85 5.04744 15.6568 4.70363 15.313C4.35981 14.9692 4.16665 14.5029 4.16665 14.0167V13.1833C4.16638 12.6993 3.97466 12.2349 3.63332 11.8917L3.04999 11.3083C2.87865 11.138 2.74269 10.9354 2.64991 10.7123C2.55713 10.4892 2.50937 10.25 2.50937 10.0083C2.50937 9.76671 2.55713 9.52747 2.64991 9.30437C2.74269 9.08127 2.87865 8.87871 3.04999 8.70834L3.63332 8.125C3.97466 7.78174 4.16638 7.31742 4.16665 6.83334V6Z" stroke="black" stroke-width="1.5" stroke-linecap="round" stroke-linejoin="round"/>
</svg>
