<svg width="375" height="572" viewBox="0 0 375 572" fill="none" xmlns="http://www.w3.org/2000/svg">
<g opacity="0.2">
<path d="M761.081 92.1361C656.163 70.6969 153.468 9.80143 -121.313 281.732C-337.185 495.362 -557.015 147.932 -657.258 355.414" stroke="white" stroke-miterlimit="10"/>
<path d="M757.882 81.6741C642.682 67.7215 166.491 22.671 -111.259 277.609C-330.458 478.807 -552.649 156.94 -654.395 363.643" stroke="white" stroke-miterlimit="10"/>
<path d="M754.69 71.205C629.199 64.7426 179.44 35.5033 -101.2 273.48C-323.795 462.239 -548.281 165.944 -651.531 371.866" stroke="white" stroke-miterlimit="10"/>
<path d="M751.495 60.7389C615.722 61.7658 192.302 48.3011 -91.1424 269.357C-317.196 445.651 -543.915 174.95 -648.667 380.094" stroke="white" stroke-miterlimit="10"/>
<path d="M748.301 50.272C602.242 58.7889 205.079 61.0487 -81.0905 265.227C-310.667 429.032 -539.549 183.952 -645.807 388.315" stroke="white" stroke-miterlimit="10"/>
<path d="M745.11 39.8037C588.774 55.8067 217.771 73.7324 -71.0324 261.105C-304.201 412.383 -535.18 192.962 -642.938 396.545" stroke="white" stroke-miterlimit="10"/>
<path d="M741.916 29.3378C575.301 52.8279 230.376 86.3501 -60.9799 256.981C-297.804 395.682 -530.811 201.969 -640.074 404.772" stroke="white" stroke-miterlimit="10"/>
<path d="M738.723 18.8722C561.831 49.8473 242.893 98.8736 -50.9298 252.857C-291.476 378.921 -526.445 210.974 -637.21 412.997" stroke="white" stroke-miterlimit="10"/>
<path d="M735.53 8.40466C548.363 46.8654 255.331 111.305 -40.8751 248.732C-285.214 362.094 -522.075 219.98 -634.342 421.223" stroke="white" stroke-miterlimit="10"/>
<path d="M732.338 -2.06185C534.896 43.8846 267.693 123.633 -30.8283 244.616C-279.008 345.198 -517.709 228.993 -631.48 429.453" stroke="white" stroke-miterlimit="10"/>
<path d="M729.146 -12.5291C521.431 40.9032 279.982 135.844 -20.7831 240.489C-272.866 328.195 -513.344 237.994 -628.616 437.676" stroke="white" stroke-miterlimit="10"/>
<path d="M725.953 -22.9968C507.968 37.9195 292.212 147.933 -10.7371 236.365C-266.776 311.104 -508.977 246.999 -625.755 445.901" stroke="white" stroke-miterlimit="10"/>
<path d="M722.759 -33.463C494.505 34.9361 304.379 159.897 -0.694045 232.242C-260.732 293.911 -504.612 256.01 -622.889 454.127" stroke="white" stroke-miterlimit="10"/>
<path d="M719.566 -43.9301C481.045 31.9532 316.503 171.727 9.34883 228.122C-254.724 276.606 -500.246 265.011 -620.028 462.353" stroke="white" stroke-miterlimit="10"/>
<path d="M716.372 -54.3984C467.585 28.9681 328.593 183.422 19.3894 224C-248.749 259.19 -495.879 274.026 -617.159 470.581" stroke="white" stroke-miterlimit="10"/>
<path d="M713.179 -64.864C454.129 25.9853 340.66 194.988 29.4303 219.881C-242.794 241.654 -491.515 283.026 -614.298 478.799" stroke="white" stroke-miterlimit="10"/>
<path d="M709.989 -75.331C440.675 23.0005 352.716 206.425 39.4694 215.761C-236.851 224.001 -487.148 292.032 -611.425 487.029" stroke="white" stroke-miterlimit="10"/>
<path d="M706.795 -85.7973C427.22 20.0154 364.766 217.726 49.5006 211.644C-230.918 206.232 -482.788 301.041 -608.572 495.258" stroke="white" stroke-miterlimit="10"/>
<path d="M703.601 -96.2629C413.767 17.0261 376.826 228.91 59.5406 207.523C-224.97 188.345 -478.419 310.048 -605.703 503.482" stroke="white" stroke-miterlimit="10"/>
<path d="M700.409 -106.73C400.319 14.0433 388.908 239.981 69.5748 203.404C-219.008 170.349 -474.048 319.052 -602.837 511.71" stroke="white" stroke-miterlimit="10"/>
<path d="M697.216 -117.198C386.871 11.0598 401.018 250.948 79.6073 199.285C-213.026 152.249 -469.688 328.061 -599.974 519.935" stroke="white" stroke-miterlimit="10"/>
<path d="M694.022 -127.664C373.422 8.07062 413.165 261.823 89.6372 195.167C-207.014 134.052 -465.325 337.066 -597.111 528.16" stroke="white" stroke-miterlimit="10"/>
<path d="M690.829 -138.132C359.977 5.08021 425.359 272.611 99.6732 191.049C-200.956 115.764 -460.954 346.073 -594.241 536.384" stroke="white" stroke-miterlimit="10"/>
<path d="M687.636 -148.597C346.531 2.09176 437.602 283.329 109.696 186.935C-194.865 97.4023 -456.595 355.081 -591.382 544.613" stroke="white" stroke-miterlimit="10"/>
<path d="M684.445 -159.064C333.092 -0.89822 449.907 293.983 119.722 182.818C-188.725 78.9701 -452.23 364.089 -588.516 552.838" stroke="white" stroke-miterlimit="10"/>
<path d="M681.251 -169.533C319.65 -3.88815 462.262 304.589 129.749 178.7C-182.526 60.4749 -447.867 373.095 -585.653 561.063" stroke="white" stroke-miterlimit="10"/>
<path d="M678.058 -179.999C306.212 -6.87669 474.687 315.158 139.77 174.586C-176.275 41.9318 -443.502 382.102 -582.788 569.29" stroke="white" stroke-miterlimit="10"/>
</g>
</svg>
