<svg width="24" height="24" viewBox="0 0 24 24" fill="none" xmlns="http://www.w3.org/2000/svg">
<path d="M5.6784 6.79247H11.0317C11.1331 6.79247 11.2304 6.75039 11.302 6.67546C11.3738 6.60053 11.414 6.49891 11.414 6.39294C11.414 6.28698 11.3738 6.18536 11.302 6.11044C11.2304 6.0355 11.1331 5.99341 11.0317 5.99341H5.6784C5.57698 5.99341 5.47972 6.0355 5.40801 6.11044C5.33631 6.18536 5.29602 6.28698 5.29602 6.39294C5.29602 6.49891 5.33631 6.60053 5.40801 6.67546C5.47972 6.75039 5.57698 6.79247 5.6784 6.79247Z" fill="#FF8926"/>
<path d="M14.8554 8.39027H5.6784C5.57698 8.39027 5.47972 8.43237 5.40801 8.50729C5.33631 8.58222 5.29602 8.68384 5.29602 8.78981C5.29602 8.89576 5.33631 8.99739 5.40801 9.07232C5.47972 9.14724 5.57698 9.18934 5.6784 9.18934H14.8554C14.9569 9.18934 15.0541 9.14724 15.1259 9.07232C15.1975 8.99739 15.2379 8.89576 15.2379 8.78981C15.2379 8.68384 15.1975 8.58222 15.1259 8.50729C15.0541 8.43237 14.9569 8.39027 14.8554 8.39027Z" fill="#FF8926"/>
<path d="M5.6784 11.5883H10.2669C10.3684 11.5883 10.4656 11.5462 10.5373 11.4713C10.609 11.3964 10.6493 11.2947 10.6493 11.1888C10.6493 11.0828 10.609 10.9811 10.5373 10.9062C10.4656 10.8313 10.3684 10.7892 10.2669 10.7892H5.6784C5.57698 10.7892 5.47972 10.8313 5.40801 10.9062C5.33631 10.9811 5.29602 11.0828 5.29602 11.1888C5.29602 11.2947 5.33631 11.3964 5.40801 11.4713C5.47972 11.5462 5.57698 11.5883 5.6784 11.5883Z" fill="#FF8926"/>
<path d="M5.6784 16.1269H10.2669C10.3684 16.1269 10.4656 16.0848 10.5373 16.0098C10.609 15.9349 10.6493 15.8332 10.6493 15.7274C10.6493 15.6214 10.609 15.5197 10.5373 15.4448C10.4656 15.3699 10.3684 15.3278 10.2669 15.3278H5.6784C5.57698 15.3278 5.47972 15.3699 5.40801 15.4448C5.33631 15.5197 5.29602 15.6214 5.29602 15.7274C5.29602 15.8332 5.33631 15.9349 5.40801 16.0098C5.47972 16.0848 5.57698 16.1269 5.6784 16.1269Z" fill="#FF8926"/>
<path d="M14.8541 10.7892H11.7951C11.6936 10.7892 11.5964 10.8313 11.5246 10.9062C11.453 10.9811 11.4127 11.0828 11.4127 11.1888C11.4127 11.2947 11.453 11.3964 11.5246 11.4713C11.5964 11.5462 11.6936 11.5883 11.7951 11.5883H14.8541C14.9555 11.5883 15.0528 11.5462 15.1244 11.4713C15.1962 11.3964 15.2364 11.2947 15.2364 11.1888C15.2364 11.0828 15.1962 10.9811 15.1244 10.9062C15.0528 10.8313 14.9555 10.7892 14.8541 10.7892Z" fill="#FF8926"/>
<path d="M5.80782 13.8782H11.9495C12.0852 13.8782 12.2154 13.836 12.3114 13.7611C12.4073 13.6862 12.4613 13.5845 12.4613 13.4786C12.4613 13.3727 12.4073 13.271 12.3114 13.196C12.2154 13.1211 12.0852 13.0791 11.9495 13.0791H5.80782C5.67208 13.0791 5.5419 13.1211 5.44592 13.196C5.34994 13.271 5.29602 13.3727 5.29602 13.4786C5.29602 13.5845 5.34994 13.6862 5.44592 13.7611C5.5419 13.836 5.67208 13.8782 5.80782 13.8782Z" fill="#FF8926"/>
<path fill-rule="evenodd" clip-rule="evenodd" d="M17.4187 5.73817L13.5949 2.10606C13.5594 2.07235 13.5172 2.04564 13.4707 2.02744C13.4243 2.00924 13.3745 1.99992 13.3242 2H4.26108C3.92675 2.00039 3.60622 2.12671 3.36981 2.35128C3.1334 2.57584 3.00041 2.8803 3 3.19787V18.9613C3 19.2791 3.13282 19.5839 3.36927 19.8088C3.60572 20.0336 3.92648 20.1602 4.26108 20.1606H12.701C12.3552 19.9516 12.0371 19.7076 11.7528 19.4342H4.26108C4.12951 19.434 4.00338 19.3842 3.91034 19.2959C3.81731 19.2075 3.76496 19.0877 3.76476 18.9627V3.19787C3.76496 3.0729 3.81731 2.95309 3.91034 2.86472C4.00338 2.77635 4.12951 2.72662 4.26108 2.72643H12.9418V5.99533C12.9418 6.09166 12.9821 6.18404 13.0538 6.25216C13.1256 6.32028 13.2228 6.35854 13.3242 6.35854H16.7656V11.1725C17.0277 11.219 17.2832 11.2827 17.5304 11.3621V5.99533C17.5304 5.9476 17.5206 5.90032 17.5015 5.8562C17.4823 5.81207 17.4542 5.77197 17.4187 5.73817ZM13.7066 3.24L16.2249 5.63212H13.7066V3.24Z" fill="#FF8926"/>
<path d="M21.8419 16.5288C21.8419 13.6453 19.504 11.3077 16.6201 11.3077C13.7362 11.3077 11.3983 13.6453 11.3983 16.5288C11.3983 19.4124 13.7362 21.75 16.6201 21.75C19.504 21.75 21.8419 19.4124 21.8419 16.5288Z" stroke="#FF8926" stroke-width="0.55"/>
<path d="M19.2425 14.1945C18.7744 14.1251 18.3193 13.9817 17.892 13.77C17.4589 13.555 17.0598 13.2722 16.7087 12.9307C16.6613 12.8844 16.5877 12.8844 16.5403 12.9307C16.1892 13.2722 15.7901 13.555 15.357 13.77C14.9297 13.9817 14.4746 14.1251 14.0065 14.1945C13.9455 14.2035 13.9 14.2584 13.9 14.3229V16.9172C13.9 18.6956 16.4591 20.0875 16.5681 20.1458C16.6034 20.165 16.6455 20.165 16.6808 20.1458C16.7898 20.0875 19.3489 18.6956 19.3489 16.9172V14.3229C19.3489 14.2584 19.3035 14.2036 19.2425 14.1945ZM19.1013 16.9172C19.1013 18.4002 16.9988 19.6694 16.6245 19.8832C16.2502 19.6695 14.1477 18.4002 14.1477 16.9172V14.4341C14.6032 14.356 15.0459 14.2114 15.4629 14.0041C15.8846 13.7953 16.2756 13.5248 16.6245 13.2009C16.9734 13.5248 17.3644 13.7953 17.7861 14.0041C18.2031 14.2114 18.6459 14.356 19.1013 14.4341V16.9172ZM16.6245 16.3983C16.875 16.3983 17.1007 16.2404 17.1967 15.9979C17.2923 15.7556 17.2394 15.4767 17.0623 15.2912C16.8852 15.1057 16.6189 15.0503 16.3877 15.1505C16.1561 15.251 16.0053 15.4874 16.0053 15.7498C16.0056 16.1078 16.2827 16.398 16.6245 16.3983ZM16.6245 15.3606C16.7747 15.3606 16.9103 15.4553 16.9679 15.6009C17.0251 15.7462 16.9936 15.9135 16.8874 16.0251C16.7809 16.1363 16.6211 16.1694 16.4824 16.1094C16.3434 16.0491 16.253 15.907 16.253 15.7498C16.2533 15.5351 16.4196 15.3609 16.6245 15.3606ZM16.996 16.6578H16.253C15.9112 16.6581 15.6341 16.9483 15.6338 17.3064V17.8252C15.6338 17.8596 15.6468 17.8927 15.67 17.917C15.6933 17.9413 15.7248 17.9549 15.7577 17.9549H17.4914C17.5242 17.9549 17.5558 17.9413 17.579 17.917C17.6022 17.8927 17.6152 17.8596 17.6152 17.8252V17.3064C17.6149 16.9483 17.3378 16.6581 16.996 16.6578ZM17.3675 17.6955H15.8815V17.3064C15.8818 17.0917 16.0481 16.9175 16.253 16.9172H16.996C17.201 16.9175 17.3672 17.0917 17.3675 17.3064V17.6955Z" fill="#FF8926" stroke="#FF8926" stroke-width="0.25"/>
</svg>
