<svg width="24" height="24" viewBox="0 0 24 24" fill="none" xmlns="http://www.w3.org/2000/svg">
<path d="M6.68777 7.99903C7.18227 7.99903 7.66566 7.85243 8.07682 7.57778C8.48798 7.30313 8.80844 6.91276 8.99767 6.45604C9.18691 5.99931 9.23642 5.49674 9.13995 5.01188C9.04348 4.52703 8.80535 4.08165 8.45569 3.73209C8.10603 3.38253 7.66054 3.14447 7.17554 3.04803C6.69055 2.95158 6.18784 3.00108 5.73098 3.19027C5.27413 3.37945 4.88365 3.69982 4.60892 4.11086C4.3342 4.5219 4.18756 5.00516 4.18756 5.49951C4.18832 6.16219 4.45198 6.79751 4.92069 7.2661C5.38941 7.73468 6.02491 7.99827 6.68777 7.99903ZM6.68777 3.62488C7.05865 3.62488 7.42119 3.73482 7.72956 3.94081C8.03793 4.1468 8.27827 4.43958 8.4202 4.78212C8.56212 5.12467 8.59926 5.50159 8.5269 5.86524C8.45455 6.22888 8.27596 6.56291 8.01371 6.82508C7.75147 7.08725 7.41735 7.26579 7.0536 7.33813C6.68985 7.41046 6.31282 7.37334 5.97018 7.23145C5.62754 7.08956 5.33468 6.84929 5.12864 6.54101C4.92259 6.23272 4.81261 5.87028 4.81261 5.49951C4.81316 5.0025 5.01089 4.52599 5.36244 4.17455C5.71398 3.8231 6.19062 3.62542 6.68777 3.62488Z" fill="#FF8926" stroke="#FF8926" stroke-width="0.25"/>
<path d="M16.8463 16.7492C16.4136 16.7492 15.9906 16.8775 15.6308 17.1178C15.2711 17.3581 14.9907 17.6997 14.8251 18.0993C14.6595 18.499 14.6162 18.9387 14.7006 19.363C14.785 19.7872 14.9934 20.1769 15.2993 20.4828C15.6053 20.7887 15.9951 20.997 16.4195 21.0813C16.8438 21.1657 17.2837 21.1224 17.6834 20.9569C18.0832 20.7914 18.4249 20.511 18.6653 20.1514C18.9056 19.7917 19.0339 19.3689 19.0339 18.9363C19.0333 18.3564 18.8026 17.8005 18.3925 17.3905C17.9823 16.9805 17.4263 16.7499 16.8463 16.7492ZM16.8463 20.4985C16.5372 20.4985 16.2351 20.4069 15.9781 20.2352C15.7211 20.0636 15.5208 19.8196 15.4026 19.5341C15.2843 19.2487 15.2534 18.9346 15.3136 18.6315C15.3739 18.3285 15.5228 18.0501 15.7413 17.8317C15.9598 17.6132 16.2383 17.4644 16.5414 17.4041C16.8445 17.3438 17.1587 17.3748 17.4443 17.493C17.7298 17.6113 17.9738 17.8115 18.1455 18.0684C18.3172 18.3253 18.4089 18.6273 18.4089 18.9363C18.4084 19.3505 18.2436 19.7475 17.9507 20.0404C17.6577 20.3333 17.2605 20.498 16.8463 20.4985Z" fill="#FF8926" stroke="#FF8926" stroke-width="0.25"/>
<path d="M17.315 7.99903C17.8095 7.99903 18.2929 7.85243 18.7041 7.57778C19.1152 7.30313 19.4357 6.91276 19.6249 6.45604C19.8142 5.99931 19.8637 5.49674 19.7672 5.01188C19.6707 4.52703 19.4326 4.08165 19.083 3.73209C18.7333 3.38253 18.2878 3.14447 17.8028 3.04803C17.3178 2.95158 16.8151 3.00108 16.3582 3.19027C15.9014 3.37945 15.5109 3.69982 15.2362 4.11086C14.9615 4.5219 14.8148 5.00516 14.8148 5.49951C14.8156 6.16219 15.0792 6.79751 15.548 7.2661C16.0167 7.73468 16.6522 7.99827 17.315 7.99903ZM17.315 3.62488C17.6859 3.62488 18.0484 3.73482 18.3568 3.94081C18.6652 4.1468 18.9055 4.43958 19.0475 4.78212C19.1894 5.12467 19.2265 5.50159 19.1542 5.86524C19.0818 6.22888 18.9032 6.56291 18.641 6.82508C18.3787 7.08725 18.0446 7.26579 17.6809 7.33813C17.3171 7.41046 16.9401 7.37334 16.5974 7.23145C16.2548 7.08956 15.9619 6.84929 15.7559 6.54101C15.5498 6.23272 15.4399 5.87028 15.4399 5.49951C15.4404 5.0025 15.6382 4.52599 15.9897 4.17455C16.3412 3.8231 16.8179 3.62542 17.315 3.62488Z" fill="#FF8926" stroke="#FF8926" stroke-width="0.25"/>
<path d="M7.65594 8.47136H8.62543C9.02886 8.46403 9.42622 8.57029 9.77212 8.778C9.94865 8.63823 10.1379 8.51531 10.3374 8.41086C9.87903 8.0573 9.31869 7.86118 8.73982 7.8517C8.42396 8.12912 8.05529 8.33989 7.65594 8.47136Z" fill="#FF8926" stroke="#FF8926" stroke-width="0.25"/>
<path d="M8.76488 13.1579H2.93514C2.84814 13.1526 2.76677 13.1132 2.70872 13.0482C2.65068 12.9832 2.62066 12.8979 2.62521 12.8109V10.7988C2.62521 9.38487 3.45856 8.47135 4.74819 8.47135H5.71737C5.31803 8.33988 4.94937 8.12912 4.63351 7.8517C3.05422 7.90639 2.00015 9.07486 2.00015 10.7988V12.8109C1.99561 13.0636 2.09148 13.3078 2.26674 13.49C2.442 13.6722 2.68236 13.7775 2.93514 13.7828H9.15226C9.00214 13.5883 8.87233 13.3789 8.76488 13.1579Z" fill="#FF8926" stroke="#FF8926" stroke-width="0.25"/>
<path d="M15.3777 8.47135H16.3469C15.9476 8.33988 15.5789 8.12912 15.2631 7.8517C14.6842 7.86123 14.1239 8.05735 13.6655 8.4109C13.865 8.51535 14.0543 8.63828 14.2308 8.77805C14.5768 8.5703 14.9742 8.46403 15.3777 8.47135Z" fill="#FF8926" stroke="#FF8926" stroke-width="0.25"/>
<path d="M19.3665 7.8517C19.0506 8.12912 18.682 8.33989 18.2826 8.47136H19.2521C20.5416 8.47136 21.3748 9.38488 21.3748 10.7988V12.8109C21.3793 12.8979 21.3493 12.9832 21.2913 13.0482C21.2332 13.1132 21.1518 13.1526 21.0648 13.1579H15.2351C15.1276 13.3789 14.9978 13.5883 14.8477 13.7828H21.0648C21.3176 13.7775 21.558 13.6722 21.7332 13.49C21.9085 13.3078 22.0044 13.0636 21.9998 12.8109V10.7988C21.9998 9.07478 20.9458 7.90627 19.3665 7.8517Z" fill="#FF8926" stroke="#FF8926" stroke-width="0.25"/>
<path d="M9.03143 11.5929C9.03143 12.1799 9.20556 12.7538 9.5318 13.2419C9.85804 13.73 10.3217 14.1104 10.8642 14.3351C11.4068 14.5597 12.0037 14.6185 12.5797 14.504C13.1556 14.3895 13.6846 14.1068 14.0998 13.6917C14.5151 13.2766 14.7978 12.7477 14.9124 12.1719C15.027 11.5961 14.9682 10.9993 14.7434 10.457C14.5187 9.91462 14.1382 9.45105 13.6499 9.12491C13.1617 8.79876 12.5876 8.62468 12.0004 8.62468C11.2133 8.62557 10.4586 8.93858 9.90202 9.49502C9.34542 10.0515 9.03233 10.8059 9.03143 11.5929ZM12.0004 9.24956C12.464 9.24956 12.9172 9.38699 13.3027 9.64447C13.6881 9.90196 13.9886 10.2679 14.166 10.6961C14.3434 11.1243 14.3898 11.5955 14.2993 12.05C14.2089 12.5046 13.9857 12.9221 13.6579 13.2498C13.3301 13.5775 12.9124 13.8007 12.4577 13.8911C12.003 13.9815 11.5317 13.9351 11.1034 13.7578C10.6751 13.5804 10.3091 13.2801 10.0515 12.8947C9.79396 12.5094 9.65649 12.0563 9.65649 11.5929C9.65716 10.9716 9.90433 10.3759 10.3438 9.93664C10.7832 9.49734 11.379 9.25024 12.0004 9.24956Z" fill="#FF8926" stroke="#FF8926" stroke-width="0.25"/>
<path d="M11.8128 15.1758C11.6043 15.1647 11.3972 15.1354 11.1938 15.0881L10.7629 18.0511C10.7419 18.1874 10.7521 18.3268 10.7926 18.4587C10.8331 18.5905 10.9029 18.7116 10.9968 18.8127L11.5946 19.3898C11.7055 19.4951 11.8526 19.5538 12.0055 19.5538C12.1585 19.5538 12.3056 19.4951 12.4165 19.3898L13.0141 18.8127C13.1081 18.7122 13.1773 18.5912 13.2162 18.4593C13.2551 18.3273 13.2626 18.1881 13.2381 18.0528L12.7234 15.1081C12.5185 15.1496 12.3104 15.1731 12.1014 15.1783L12.6242 18.1695C12.6328 18.2373 12.617 18.3059 12.5797 18.3632L12.0055 18.9178L11.4314 18.3635C11.3894 18.3003 11.3713 18.2242 11.3803 18.1489L11.8128 15.1758Z" fill="#FF8926" stroke="#FF8926" stroke-width="0.25"/>
<path d="M14.5077 20.4996H7.31728C7.23477 20.501 7.15507 20.4697 7.09562 20.4124C7.03618 20.3552 7.00186 20.2768 7.00018 20.1943V17.2189C7.00018 15.6056 8.03832 14.5632 9.64505 14.5632H9.97785C9.72445 14.3898 9.49415 14.1849 9.29248 13.9533C7.53296 14.1029 6.37512 15.3772 6.37512 17.2189V20.1943C6.37698 20.4424 6.47721 20.6797 6.65383 20.8541C6.83046 21.0285 7.06905 21.1257 7.31728 21.1244H15.0808C14.8595 20.946 14.6663 20.7354 14.5077 20.4996Z" fill="#FF8926" stroke="#FF8926" stroke-width="0.25"/>
<path d="M14.3524 14.5632C15.5587 14.5632 16.4442 15.1511 16.8107 16.1269C16.8208 16.1268 16.8305 16.1254 16.8406 16.1254C17.0596 16.1262 17.2777 16.1527 17.4905 16.2043C17.1422 14.9207 16.1183 14.0734 14.7046 13.9533C14.5029 14.1849 14.2726 14.3898 14.0192 14.5632H14.3524Z" fill="#FF8926" stroke="#FF8926" stroke-width="0.25"/>
<path d="M17.2949 18.3679L16.6063 18.8379L16.4543 18.6678C16.3991 18.606 16.3216 18.5686 16.2389 18.5639C16.1562 18.5592 16.0749 18.5875 16.0131 18.6426C15.9513 18.6978 15.9139 18.7752 15.9091 18.8579C15.9044 18.9407 15.9328 19.0219 15.9879 19.0837L16.3226 19.4587C16.3731 19.5153 16.4425 19.5517 16.5178 19.5609C16.5932 19.5701 16.6693 19.5515 16.732 19.5087L17.6475 18.8838C17.7158 18.837 17.7627 18.7651 17.778 18.6837C17.7933 18.6023 17.7756 18.5183 17.7289 18.4499C17.6822 18.3815 17.6103 18.3345 17.5289 18.3191C17.4475 18.3038 17.3634 18.3213 17.2949 18.3679Z" fill="#FF8926" stroke="#FF8926" stroke-width="0.25"/>
</svg>
