<svg width="24" height="24" viewBox="0 0 24 24" fill="none" xmlns="http://www.w3.org/2000/svg">
<path d="M21.881 15.2053C21.7513 14.9352 21.524 14.7252 21.2455 14.6181C20.967 14.511 20.6584 14.5149 20.3827 14.629L14.5495 17.0708C14.1703 17.1357 13.6841 17.0429 13.1232 16.9347C12.9649 16.9042 12.8006 16.8728 12.6339 16.8436L14.9869 16.2403C15.2752 16.1603 15.5253 15.9785 15.6912 15.7281C15.8571 15.4778 15.9278 15.1757 15.8903 14.8771C15.8528 14.5786 15.7097 14.3037 15.4871 14.1027C15.2645 13.9018 14.9773 13.7882 14.6783 13.7829C14.0747 13.7959 13.4739 13.871 12.8856 14.0072C12.0488 14.1718 11.2584 14.3274 10.4107 14.1411C8.88376 13.8058 7.15297 13.4255 5.67681 14.8289C5.31336 15.175 4.87787 15.5467 4.41657 15.9406L4.28022 16.0574C4.16607 15.9314 4.01022 15.8515 3.84179 15.8327C3.67336 15.8138 3.50385 15.8572 3.36494 15.9549L2.29674 16.7073C2.14549 16.8142 2.04256 16.9771 2.01055 17.1603C1.97854 17.3435 2.02005 17.5319 2.12599 17.6843L4.92583 21.7015C5.03211 21.8536 5.19405 21.9572 5.37612 21.9894C5.55819 22.0216 5.74553 21.9798 5.89703 21.8733L6.96522 21.12C7.10775 21.0191 7.20761 20.8682 7.24517 20.697C7.28274 20.5257 7.2553 20.3466 7.16824 20.1947C7.72072 19.7912 8.10826 19.6776 8.40676 19.8269C9.26914 20.2596 10.6819 20.5824 12.0935 20.6667C12.3019 20.6791 12.5505 20.6884 12.8225 20.6884C13.7445 20.6884 14.9359 20.5787 15.7424 20.0997L21.4255 16.7249C21.6785 16.5766 21.8662 16.3373 21.9507 16.0553C22.0353 15.7733 22.0104 15.4695 21.881 15.2053ZM6.64995 20.6676L5.58176 21.4211C5.54937 21.4432 5.5097 21.4518 5.47116 21.4449C5.43262 21.4381 5.39824 21.4164 5.3753 21.3846L2.57546 17.3672C2.55349 17.3346 2.54501 17.2947 2.55179 17.2559C2.55857 17.2171 2.5801 17.1826 2.6118 17.1595L3.68 16.406C3.70471 16.3888 3.73405 16.3797 3.76408 16.3798C3.788 16.3797 3.8116 16.3853 3.83291 16.3963C3.85423 16.4072 3.87266 16.423 3.88667 16.4425L6.68629 20.4599C6.70826 20.4925 6.71675 20.5324 6.70996 20.5712C6.70318 20.6099 6.68165 20.6445 6.64995 20.6676ZM21.1466 16.2511L15.4626 19.6255C14.0176 20.4835 10.341 20.1837 8.65128 19.3337C8.03772 19.0252 7.39039 19.349 6.85425 19.74L4.60217 16.5064L4.77249 16.3605C5.2396 15.9616 5.68047 15.585 6.05467 15.2291C7.31964 14.0263 8.83193 14.3583 10.2941 14.6796C11.2528 14.8901 12.1367 14.7164 12.9916 14.5483C13.5431 14.4189 14.1065 14.3471 14.6727 14.3341C14.8355 14.3357 14.9924 14.3956 15.1152 14.5031C15.2379 14.6106 15.3186 14.7586 15.3426 14.9206C15.3741 15.0894 15.341 15.2639 15.2498 15.4091C15.1587 15.5543 15.0162 15.6594 14.8512 15.7033L10.8016 16.7443C10.7345 16.7614 10.6763 16.8033 10.6387 16.8618C10.601 16.9202 10.5867 16.9908 10.5986 17.0593C10.6105 17.1279 10.6477 17.1895 10.7028 17.2316C10.7579 17.2738 10.8267 17.2935 10.8956 17.2867C11.6092 17.2471 12.3246 17.3112 13.02 17.4771C13.6494 17.5984 14.1933 17.7031 14.68 17.6082C14.6982 17.6047 14.716 17.5993 14.7331 17.5922L20.5935 15.1387C20.7399 15.0787 20.9035 15.0772 21.051 15.1344C21.1985 15.1917 21.3188 15.3034 21.3872 15.4467C21.4559 15.5865 21.4692 15.7473 21.4245 15.8966C21.3798 16.0459 21.2805 16.1726 21.1466 16.2511ZM12.7277 12.7628C12.772 12.7741 12.8183 12.7741 12.8625 12.7628C14.6841 12.2992 15.9609 11.1327 16.6577 9.29581C17.319 7.55213 17.2938 5.62888 17.1562 4.32263C17.1495 4.25943 17.1214 4.20048 17.0765 4.15574C17.0317 4.111 16.9728 4.08322 16.9099 4.07709C15.4008 3.95161 13.9994 3.24066 13.0019 2.09457C12.9761 2.06487 12.9444 2.04106 12.9087 2.02475C12.873 2.00844 12.8343 2 12.7951 2C12.7559 2 12.7172 2.00844 12.6816 2.02475C12.6459 2.04106 12.6141 2.06487 12.5883 2.09457C11.591 3.24073 10.1896 3.95176 8.68053 4.07731C8.61762 4.08343 8.55874 4.1112 8.51384 4.15594C8.46894 4.20067 8.44076 4.25963 8.43407 4.32285C8.29665 5.6291 8.27127 7.55213 8.93279 9.29581C9.62936 11.1327 10.9062 12.2992 12.7277 12.7628ZM8.95881 4.60128C10.4198 4.42852 11.7759 3.75124 12.7959 2.68496C13.8155 3.75106 15.1711 4.42834 16.6317 4.60128C16.8188 6.70689 16.7237 11.16 12.7952 12.2099C8.86655 11.16 8.7715 6.70668 8.95881 4.60128ZM12.7099 11.6872C12.7651 11.7051 12.8245 11.7051 12.8798 11.6872C14.2084 11.2522 15.1164 10.3485 15.657 8.92457C16.0674 7.75269 16.2432 6.51073 16.1744 5.27019C16.1724 5.20948 16.1505 5.15113 16.1122 5.1042C16.0739 5.05726 16.0212 5.02436 15.9624 5.01059C14.8674 4.75858 13.8436 4.25995 12.9679 3.55225C12.9192 3.51282 12.8585 3.49132 12.7959 3.49132C12.7333 3.49132 12.6726 3.51282 12.6238 3.55225C11.7479 4.26006 10.7236 4.75862 9.62829 5.01037C9.56947 5.02414 9.51682 5.05705 9.47848 5.10398C9.44014 5.15092 9.41827 5.20926 9.41624 5.26998C9.34752 6.51052 9.52344 7.75249 9.93389 8.92436C10.4733 10.3485 11.3814 11.2522 12.7099 11.6872ZM9.95926 5.49692C10.9867 5.23207 11.9512 4.76323 12.7959 4.11798C13.6402 4.76312 14.6042 5.23195 15.6312 5.49692C15.6703 6.59493 15.5053 7.69065 15.1445 8.72771C14.6791 9.95477 13.9099 10.7425 12.7959 11.1332C11.681 10.7425 10.912 9.95477 10.4466 8.72771C10.0855 7.69072 9.92022 6.59498 9.95926 5.49692ZM12.1679 9.00007L10.9386 7.76349C10.9111 7.7384 10.889 7.70795 10.8735 7.67399C10.858 7.64003 10.8496 7.60327 10.8486 7.56593C10.8477 7.52858 10.8543 7.49144 10.8681 7.45674C10.8818 7.42204 10.9024 7.39051 10.9287 7.36406C10.9549 7.33761 10.9862 7.31679 11.0206 7.30286C11.0551 7.28893 11.092 7.28218 11.1291 7.28301C11.1662 7.28385 11.2028 7.29225 11.2366 7.30772C11.2704 7.32319 11.3007 7.34539 11.3257 7.373L12.361 8.41445L14.7634 5.99882C14.8156 5.95102 14.884 5.92524 14.9545 5.92682C15.025 5.92841 15.0922 5.95724 15.1421 6.00734C15.192 6.05743 15.2209 6.12494 15.2227 6.19587C15.2244 6.26679 15.199 6.33567 15.1516 6.38823L12.5561 9.00007C12.5047 9.05154 12.4351 9.08044 12.3625 9.08044C12.29 9.08044 12.2204 9.05154 12.169 9.00007H12.1679Z" fill="#FF8926" stroke="#FF8926" stroke-width="0.25"/>
</svg>
