<svg width="22" height="22" viewBox="0 0 22 22" fill="none" xmlns="http://www.w3.org/2000/svg">
<g clip-path="url(#clip0_25904_3052)">
<path d="M21.526 0.0592056C21.433 0.0204765 21.3334 0.000361379 21.2327 0H17.1397C16.9361 0 16.7409 0.0808552 16.597 0.224778C16.4531 0.368702 16.3722 0.563903 16.3722 0.767442C16.3722 0.97098 16.4531 1.16618 16.597 1.3101C16.7409 1.45403 16.9361 1.53488 17.1397 1.53488H19.38L15.5738 5.34112C15.5021 5.41228 15.4452 5.49689 15.4063 5.5901C15.3674 5.68332 15.3473 5.78329 15.3471 5.8843C15.3469 5.9853 15.3667 6.08535 15.4052 6.17871C15.4438 6.27206 15.5004 6.35688 15.5718 6.4283C15.6433 6.49972 15.7281 6.55634 15.8214 6.59491C15.9148 6.63348 16.0148 6.65324 16.1158 6.65305C16.2168 6.65287 16.3168 6.63275 16.41 6.59384C16.5032 6.55493 16.5879 6.498 16.659 6.42632L20.4652 2.6201V4.86046C20.4652 5.064 20.5461 5.2592 20.69 5.40313C20.8339 5.54705 21.0292 5.6279 21.2327 5.6279C21.4362 5.6279 21.6314 5.54705 21.7754 5.40313C21.9193 5.2592 22.0001 5.064 22.0001 4.86046V0.767442C21.9996 0.615831 21.9543 0.467759 21.8699 0.341775C21.7856 0.215791 21.6659 0.117497 21.526 0.0592056Z" fill="#FF8926"/>
<path d="M10.9999 8.04633C11.2897 8.04663 11.5675 8.16183 11.7724 8.36667C11.9774 8.57152 12.0927 8.84928 12.0931 9.13904C12.0931 9.34258 12.174 9.53778 12.3179 9.6817C12.4618 9.82563 12.657 9.90648 12.8606 9.90648C13.0641 9.90648 13.2593 9.82563 13.4032 9.6817C13.5471 9.53778 13.628 9.34258 13.628 9.13904C13.626 8.57815 13.4442 8.03268 13.1093 7.58273C12.7744 7.13278 12.3041 6.80205 11.7673 6.63911V5.88341C11.7673 5.67987 11.6865 5.48467 11.5426 5.34075C11.3986 5.19682 11.2034 5.11597 10.9999 5.11597C10.7964 5.11597 10.6012 5.19682 10.4572 5.34075C10.3133 5.48467 10.2325 5.67987 10.2325 5.88341V6.63911C9.63039 6.82148 9.11402 7.21437 8.77769 7.74601C8.44137 8.27764 8.30754 8.91253 8.40065 9.53469C8.49376 10.1568 8.80759 10.7247 9.28482 11.1346C9.76206 11.5445 10.3708 11.769 10.9999 11.7671C11.2161 11.7672 11.4273 11.8313 11.607 11.9514C11.7867 12.0715 11.9268 12.2422 12.0095 12.4419C12.0922 12.6416 12.1138 12.8614 12.0716 13.0734C12.0294 13.2854 11.9253 13.4801 11.7725 13.6329C11.6197 13.7858 11.4249 13.8899 11.2129 13.932C11.001 13.9742 10.7812 13.9526 10.5815 13.8699C10.3818 13.7872 10.2111 13.6472 10.091 13.4675C9.97088 13.2878 9.90675 13.0765 9.9067 12.8603C9.9067 12.6568 9.82584 12.4616 9.68192 12.3177C9.538 12.1737 9.3428 12.0929 9.13926 12.0929C8.93572 12.0929 8.74052 12.1737 8.5966 12.3177C8.45267 12.4616 8.37182 12.6568 8.37182 12.8603C8.37384 13.4212 8.55565 13.9667 8.89053 14.4166C9.22542 14.8666 9.69575 15.1973 10.2325 15.3603V16.116C10.2325 16.3195 10.3133 16.5147 10.4572 16.6586C10.6012 16.8026 10.7964 16.8834 10.9999 16.8834C11.2034 16.8834 11.3986 16.8026 11.5426 16.6586C11.6865 16.5147 11.7673 16.3195 11.7673 16.116V15.3603C12.3694 15.1779 12.8858 14.785 13.2221 14.2534C13.5584 13.7217 13.6923 13.0868 13.5992 12.4647C13.5061 11.8425 13.1922 11.2746 12.715 10.8647C12.2378 10.4549 11.629 10.2304 10.9999 10.2322C10.8561 10.2327 10.7136 10.2047 10.5806 10.15C10.4476 10.0953 10.3267 10.0148 10.2249 9.91331C10.1231 9.81178 10.0423 9.69114 9.98712 9.55832C9.93198 9.4255 9.9036 9.2831 9.9036 9.13929C9.9036 8.99548 9.93198 8.85308 9.98712 8.72026C10.0423 8.58744 10.1231 8.4668 10.2249 8.36527C10.3267 8.26374 10.4476 8.1833 10.5806 8.12857C10.7136 8.07384 10.8561 8.04589 10.9999 8.04633Z" fill="#FF8926"/>
<path d="M21.2326 10.2326C21.029 10.2326 20.8339 10.3135 20.69 10.4574C20.546 10.6013 20.4652 10.7965 20.4651 11C20.4651 12.872 19.91 14.702 18.87 16.2585C17.8299 17.8151 16.3517 19.0282 14.6221 19.7446C12.8926 20.461 10.9895 20.6485 9.15345 20.2832C7.3174 19.918 5.63088 19.0166 4.30716 17.6928C2.98344 16.3691 2.08197 14.6826 1.71676 12.8465C1.35154 11.0105 1.53899 9.10738 2.25538 7.37786C2.97177 5.64833 4.18494 4.17008 5.74147 3.13004C7.298 2.09 9.12798 1.53488 11 1.53488C11.2035 1.53488 11.3987 1.45403 11.5427 1.3101C11.6866 1.16618 11.7674 0.97098 11.7674 0.767442C11.7674 0.563904 11.6866 0.368702 11.5427 0.224778C11.3987 0.0808553 11.2035 0 11 0C8.82441 0 6.69767 0.645139 4.88873 1.85383C3.07979 3.06253 1.66989 4.78049 0.83733 6.79048C0.00476612 8.80047 -0.213071 11.0122 0.211367 13.146C0.635804 15.2798 1.68345 17.2398 3.22183 18.7782C4.76021 20.3165 6.72022 21.3642 8.85401 21.7886C10.9878 22.2131 13.1995 21.9952 15.2095 21.1627C17.2195 20.3301 18.9375 18.9202 20.1462 17.1113C21.3549 15.3023 22 13.1756 22 11C21.9999 10.7965 21.9191 10.6013 21.7752 10.4574C21.6313 10.3135 21.4361 10.2326 21.2326 10.2326Z" fill="#FF8926"/>
</g>
<defs>
<clipPath id="clip0_25904_3052">
<rect width="22" height="22" fill="white"/>
</clipPath>
</defs>
</svg>
