<svg width="24" height="24" viewBox="0 0 24 24" fill="none" xmlns="http://www.w3.org/2000/svg">
<g clip-path="url(#clip0_25104_177011)">
<path d="M3.22103 1C1.99315 1 1.00076 1.99232 1.00076 3.22011V5.45856C1.00076 6.68635 1.99315 7.67867 3.22103 7.67867H5.45964C6.68751 7.67867 7.6799 6.68635 7.6799 5.45856V3.22011C7.6799 1.99232 6.68751 1 5.45964 1H3.22103ZM11.7519 1V1.85547H12.6082V1H11.7519ZM18.5411 1C17.3133 1 16.3209 1.99232 16.3209 3.22011V5.45856C16.3209 6.68635 17.3133 7.67867 18.5411 7.67867H20.7797C22.0076 7.67867 23 6.68635 23 5.45856V3.22011C23 1.99232 22.0076 1 20.7797 1H18.5411ZM3.22103 1.85624H5.45964C6.20737 1.85624 6.82436 2.47243 6.82436 3.22087V5.45933C6.82436 6.20701 6.20813 6.82396 5.45964 6.82396H3.22103C2.47329 6.82396 1.8563 6.20777 1.8563 5.45933V3.22087C1.8563 2.47319 2.47253 1.85624 3.22103 1.85624ZM18.5411 1.85624H20.7797C21.5275 1.85624 22.1445 2.47243 22.1445 3.22087V5.45933C22.1445 6.20701 21.5282 6.82396 20.7797 6.82396H18.5411C17.7934 6.82396 17.1764 6.20777 17.1764 5.45933V3.22087C17.1764 2.47319 17.7926 1.85624 18.5411 1.85624ZM9.95979 2.79199V5.30643H10.8161V2.79199H9.95979ZM13.5433 4.44866V5.3049H14.3988V4.44866H13.5433ZM11.7519 6.24064V8.03263H9.95979V8.88887H12.6074V6.24141L11.7519 6.24064ZM2.79211 9.82385V10.6801H3.64765V9.82385H2.79211ZM6.37557 9.82385V10.6801H9.02321V9.82385H6.37557ZM13.5433 9.82385V12.4713H14.3988V9.82385H13.5433ZM18.8745 9.82385V10.6801H21.2087V9.82385H18.8745ZM22.1445 11.5723V13.3627H18.9188V14.2182H23V11.5723H22.1445ZM4.58422 11.6158V12.4721H5.43976V11.6158H4.58422ZM17.1275 11.6158V12.4721H17.983V11.6158H17.1275ZM1 11.6174V14.2648H1.8563V11.6174H1ZM9.95979 11.6174V14.2648H10.8161V11.6174H9.95979ZM6.33123 13.4078V14.2633H7.18752V13.4078H6.33123ZM15.3354 13.4094V14.2648H16.1909V13.4094H15.3354ZM11.7519 15.1562V16.0117H12.6082V15.1562H11.7519ZM3.22103 16.3213C1.99315 16.3213 1.00076 17.3121 1.00076 18.5407V20.7807C1.00076 22.0084 1.99239 23 3.22103 23H5.45964C6.68751 23 7.6799 22.0092 7.6799 20.7807V18.5407C7.6799 17.3129 6.68827 16.3213 5.45964 16.3213H3.22103ZM18.9196 16.9016V17.7571H19.7751V16.9016H18.9196ZM22.1445 16.9016V19.549H23V16.9016H22.1445ZM13.5433 16.9031V17.7586H16.1909V16.9031H13.5433ZM9.95979 16.9475V19.4153H10.8161V16.9475H9.95979ZM3.22103 17.1753H5.45964C6.20737 17.1753 6.82436 17.7915 6.82436 18.5399V20.7784C6.82436 21.526 6.20813 22.143 5.45964 22.143H3.22103C2.47329 22.143 1.8563 21.5268 1.8563 20.7784V18.5399C1.8563 17.7922 2.47253 17.1753 3.22103 17.1753ZM17.1275 18.6943V19.5498H17.983V18.6943H17.1275ZM11.7519 20.3518V22.9992H12.6082V21.2073H14.4003V20.3518H11.7519ZM18.9196 20.4863V22.9992H19.7751V21.3426H21.2087V20.4871L18.9196 20.4863ZM15.2903 22.143V22.9985H16.1458V22.143H15.2903Z" fill="#12486B" stroke="#12486B" stroke-width="0.25"/>
</g>
<defs>
<clipPath id="clip0_25104_177011">
<rect width="24" height="24" fill="white"/>
</clipPath>
</defs>
</svg>
