<svg width="22" height="22" viewBox="0 0 22 22" fill="none" xmlns="http://www.w3.org/2000/svg">
<g clip-path="url(#clip0_25904_3064)">
<path d="M8.06653 10.2667C9.08181 10.2667 10.0743 9.9656 10.9185 9.40155C11.7626 8.83749 12.4206 8.03577 12.8091 7.09778C13.1976 6.15978 13.2993 5.12764 13.1012 4.13187C12.9032 3.1361 12.4143 2.22143 11.6963 1.50352C10.9784 0.785611 10.0638 0.296709 9.068 0.0986378C8.07223 -0.0994329 7.04008 0.00222419 6.10209 0.390754C5.16409 0.779284 4.36238 1.43724 3.79832 2.28141C3.23426 3.12558 2.9332 4.11806 2.9332 5.13334C2.93475 6.4943 3.47608 7.79908 4.43843 8.76143C5.40078 9.72378 6.70556 10.2651 8.06653 10.2667ZM8.06653 1.46667C8.79173 1.46667 9.50064 1.68171 10.1036 2.08461C10.7066 2.48751 11.1766 3.06017 11.4541 3.73016C11.7316 4.40016 11.8042 5.1374 11.6627 5.84867C11.5213 6.55993 11.172 7.21327 10.6593 7.72606C10.1465 8.23885 9.49313 8.58807 8.78186 8.72955C8.0706 8.87103 7.33335 8.79841 6.66336 8.52089C5.99336 8.24337 5.42071 7.77341 5.01781 7.17043C4.61491 6.56745 4.39986 5.85853 4.39986 5.13334C4.40103 4.16123 4.78771 3.22928 5.47509 2.5419C6.16247 1.85452 7.09443 1.46783 8.06653 1.46667Z" fill="#FF8926"/>
<path d="M11.1621 11.7334H4.97127C3.65335 11.7348 2.38979 12.2588 1.45781 13.1907C0.525832 14.1225 0.00155299 15.386 0 16.7039V21.2667C0 21.4612 0.0772617 21.6477 0.214788 21.7853C0.352315 21.9228 0.538841 22.0001 0.733333 22.0001H15.4C15.5945 22.0001 15.781 21.9228 15.9185 21.7853C16.0561 21.6477 16.1333 21.4612 16.1333 21.2667V16.7039C16.1318 15.386 15.6075 14.1225 14.6755 13.1907C13.7435 12.2588 12.48 11.7348 11.1621 11.7334ZM14.6667 20.5334H1.46667V16.7039C1.46783 15.7749 1.83746 14.8842 2.49447 14.2274C3.15148 13.5705 4.04221 13.201 4.97127 13.2001H11.1621C12.0911 13.201 12.9819 13.5705 13.6389 14.2274C14.2959 14.8842 14.6655 15.7749 14.6667 16.7039V20.5334Z" fill="#FF8926"/>
<path d="M21.2666 8.8004H19.0666V6.6004C19.0666 6.40591 18.9893 6.21938 18.8518 6.08185C18.7143 5.94433 18.5278 5.86707 18.3333 5.86707C18.1388 5.86707 17.9522 5.94433 17.8147 6.08185C17.6772 6.21938 17.5999 6.40591 17.5999 6.6004V8.8004H15.3999C15.2054 8.8004 15.0189 8.87766 14.8814 9.01519C14.7439 9.15271 14.6666 9.33924 14.6666 9.53373C14.6666 9.72822 14.7439 9.91475 14.8814 10.0523C15.0189 10.1898 15.2054 10.2671 15.3999 10.2671H17.5999V12.4671C17.5999 12.6616 17.6772 12.8481 17.8147 12.9856C17.9522 13.1231 18.1388 13.2004 18.3333 13.2004C18.5278 13.2004 18.7143 13.1231 18.8518 12.9856C18.9893 12.8481 19.0666 12.6616 19.0666 12.4671V10.2671H21.2666C21.4611 10.2671 21.6476 10.1898 21.7851 10.0523C21.9227 9.91475 21.9999 9.72822 21.9999 9.53373C21.9999 9.33924 21.9227 9.15271 21.7851 9.01519C21.6476 8.87766 21.4611 8.8004 21.2666 8.8004Z" fill="#FF8926"/>
</g>
<defs>
<clipPath id="clip0_25904_3064">
<rect width="22" height="22" fill="white"/>
</clipPath>
</defs>
</svg>
