<svg width="22" height="22" viewBox="0 0 22 22" fill="none" xmlns="http://www.w3.org/2000/svg">
<g clip-path="url(#clip0_25904_492)">
<path d="M3.93306 0C1.77255 0 0 1.79893 0 4.04493V16.9564C0 19.2024 1.77255 21.0014 3.93306 21.0014H8.65558C9.08895 21.0014 9.44025 20.6356 9.44025 20.1843C9.44025 19.7331 9.08895 19.3673 8.65558 19.3673H3.93306C2.61631 19.3673 1.56935 18.2762 1.56935 16.9564V4.04493C1.56935 2.72516 2.61631 1.63411 3.93306 1.63411H12.7486C14.0653 1.63411 15.1122 2.72516 15.1122 4.04493V7.11142C15.1122 7.56266 15.4635 7.92848 15.8969 7.92848C16.3303 7.92848 16.6816 7.56266 16.6816 7.11142V4.04493C16.6816 1.79893 14.909 0 12.7486 0H3.93306Z" fill="#FF8926"/>
<path d="M11.2955 4.65833C10.8622 4.65833 10.5108 5.02412 10.5108 5.47538C10.5108 5.92663 10.8622 6.29244 11.2955 6.29244H12.7486C13.182 6.29244 13.5333 5.92663 13.5333 5.47538C13.5333 5.02412 13.182 4.65833 12.7486 4.65833H11.2955Z" fill="#FF8926"/>
<path fill-rule="evenodd" clip-rule="evenodd" d="M21.6248 16.0523C21.6248 19.3948 19.0225 22.1045 15.8124 22.1045C12.6023 22.1045 10 19.3948 10 16.0523C10 12.7097 12.6023 10 15.8124 10C19.0225 10 21.6248 12.7097 21.6248 16.0523ZM15.8124 20.4704C18.1557 20.4704 20.0554 18.4923 20.0554 16.0523C20.0554 13.6122 18.1557 11.6341 15.8124 11.6341C13.4691 11.6341 11.5693 13.6122 11.5693 16.0523C11.5693 18.4923 13.4691 20.4704 15.8124 20.4704Z" fill="#FF8926"/>
<path fill-rule="evenodd" clip-rule="evenodd" d="M6.8877 4.23657C6.63012 4.23657 6.38894 4.36821 6.24238 4.58878L4.23191 7.61491C3.58422 8.5898 3.67073 9.71739 4.23191 10.562C4.7813 11.3889 5.75823 11.923 6.8877 11.923C8.01716 11.923 8.99411 11.3889 9.5435 10.562C10.1046 9.71739 10.1911 8.5898 9.5435 7.61491L7.533 4.58879C7.38646 4.36821 7.14528 4.23657 6.8877 4.23657ZM5.52253 8.5446L6.8877 6.48977L8.25292 8.5446C8.49925 8.91534 8.47297 9.30099 8.25292 9.63229C8.02025 9.98248 7.54505 10.2888 6.8877 10.2888C6.23035 10.2888 5.75515 9.98248 5.52253 9.63229C5.30237 9.30099 5.2762 8.91534 5.52253 8.5446Z" fill="#FF8926"/>
<path d="M17.2667 14.1026C16.81 13.8128 16.4058 13.6112 15.6667 13.5986M15.6667 13.5986C14.7873 13.5836 14.1666 13.9771 14.1666 14.6667C14.1666 15.9359 17.2667 15.1603 17.2667 16.4295C17.2667 17.1534 16.6908 17.4645 15.6667 17.4411M15.6667 13.5986V12.8334M14 16.9584C14.4297 17.3219 14.8952 17.4235 15.6667 17.4411M15.6667 17.4411L15.6666 18.3334" stroke="#FF8926" stroke-width="1.3" stroke-linecap="round" stroke-linejoin="round"/>
</g>
<defs>
<clipPath id="clip0_25904_492">
<rect width="22" height="22" fill="white"/>
</clipPath>
</defs>
</svg>
