<svg width="22" height="22" viewBox="0 0 22 22" fill="none" xmlns="http://www.w3.org/2000/svg">
<path d="M1.29412 20.7059V16.8235H0.647059C0.289698 16.8235 0 16.5338 0 16.1765V14.5588C0 14.3137 0.138478 14.0897 0.357691 13.9801L5.53416 11.3918C5.71633 11.3008 5.93073 11.3008 6.1129 11.3918L11.2894 13.9801C11.5086 14.0897 11.6471 14.3137 11.6471 14.5588V16.1765C11.6471 16.5338 11.3574 16.8235 11 16.8235H10.3529V20.7059H11C11.3574 20.7059 11.6471 20.9956 11.6471 21.3529C11.6471 21.7103 11.3574 22 11 22H0.647059C0.289698 22 0 21.7103 0 21.3529C0 20.9956 0.289698 20.7059 0.647059 20.7059H1.29412ZM1.29412 15.5294H10.3529V14.9587L5.82353 12.694L1.29412 14.9587V15.5294ZM9.05882 20.7059V16.8235H7.76471V20.7059H9.05882ZM6.47059 16.8235H5.17647V20.7059H6.47059V16.8235ZM3.88235 16.8235H2.58824V20.7059H3.88235V16.8235ZM20.7059 5.5V9.38235H21.3529C21.7103 9.38235 22 9.67205 22 10.0294C22 10.3868 21.7103 10.6765 21.3529 10.6765H11C10.6426 10.6765 10.3529 10.3868 10.3529 10.0294C10.3529 9.67205 10.6426 9.38235 11 9.38235H11.6471V5.5H11C10.6426 5.5 10.3529 5.2103 10.3529 4.85294V3.23529C10.3529 2.99021 10.4914 2.76615 10.7106 2.65655L15.8871 0.068312C16.0693 -0.0227706 16.2837 -0.0227706 16.4658 0.068312L21.6423 2.65655C21.8615 2.76615 22 2.99021 22 3.23529V4.85294C22 5.2103 21.7103 5.5 21.3529 5.5H20.7059ZM19.4118 5.5H18.1176V9.38235H19.4118V5.5ZM16.8235 5.5H15.5294V9.38235H16.8235V5.5ZM14.2353 5.5H12.9412V9.38235H14.2353V5.5ZM11.6471 4.20588H20.7059V3.63519L16.1765 1.37049L11.6471 3.63519V4.20588ZM17.7941 15.4739L17.2811 15.987C17.0284 16.2396 16.6187 16.2396 16.366 15.987C16.1133 15.7343 16.1133 15.3246 16.366 15.0719L17.9836 13.4542C18.2363 13.2015 18.646 13.2015 18.8987 13.4542L20.5164 15.0719C20.769 15.3246 20.769 15.7343 20.5164 15.987C20.2637 16.2396 19.854 16.2396 19.6013 15.987L19.0882 15.4739V15.8529C19.0882 17.8184 17.4949 19.4118 15.5294 19.4118H14.2353C13.8779 19.4118 13.5882 19.1221 13.5882 18.7647C13.5882 18.4073 13.8779 18.1176 14.2353 18.1176H15.5294C16.7802 18.1176 17.7941 17.1037 17.7941 15.8529V15.4739ZM2.91176 6.52609V6.14706C2.91176 4.18157 4.5051 2.58823 6.47059 2.58823H7.76471C8.12207 2.58823 8.41177 2.87793 8.41177 3.23529C8.41177 3.59265 8.12207 3.88235 7.76471 3.88235H6.47059C5.21983 3.88235 4.20588 4.8963 4.20588 6.14706V6.52609L4.71894 6.01305C4.97163 5.76035 5.38131 5.76035 5.634 6.01305C5.88669 6.26574 5.88669 6.67544 5.634 6.92813L4.01635 8.54577C3.76366 8.79847 3.35399 8.79847 3.10129 8.54577L1.48365 6.92813C1.23095 6.67544 1.23095 6.26574 1.48365 6.01305C1.73634 5.76035 2.14601 5.76035 2.39871 6.01305L2.91176 6.52609Z" fill="#FF8926"/>
</svg>
