<svg width="48" height="48" viewBox="0 0 48 48" fill="none" xmlns="http://www.w3.org/2000/svg">
<path d="M30.3905 21.3634L32.0237 21.2924C32.3077 21.2214 32.5917 20.9374 32.5917 20.5823V18.5942H14.9822C14.6272 18.5942 14.3432 18.3101 14.3432 18.0261C14.3432 17.6711 14.6272 17.3871 14.9822 17.3871H18.2485L20.5207 16.322H13.9882C13.5621 16.322 13.2071 16.677 13.2071 17.103V32.1563C13.2071 32.5823 13.5621 32.9374 13.9882 32.9374H31.8107C32.2367 32.9374 32.5917 32.5823 32.5917 32.1563V28.677C32.5917 28.251 32.2367 27.8959 31.8107 27.8959C31.0296 27.8959 30.2485 27.8959 29.3964 27.8959C28.3314 27.8959 27.4793 27.0439 27.4793 25.9078V23.2806C27.4793 21.5054 28.9704 21.3634 30.3905 21.3634ZM21.0178 17.3871H28.8284L27.3373 14.4048L21.0178 17.3871ZM30.1775 17.3871H32.5917V17.103C32.5917 16.677 32.2367 16.322 31.8107 16.322H29.6095L30.1775 17.3871ZM29.0414 15.1149H31.8107C32.8757 15.1149 33.7278 16.038 33.7278 17.103C33.7278 18.2391 33.7278 19.4462 33.7278 20.5823C33.7278 20.8664 33.7278 21.0794 33.5858 21.3634H34.0118C35.0769 21.3634 36 22.2155 36 23.2806V25.9078C36 26.9729 35.0769 27.8959 34.0118 27.8959H33.5858C33.7278 28.109 33.7278 28.393 33.7278 28.677V32.1563C33.7278 33.2214 32.8757 34.0735 31.8107 34.0735H13.9882C12.9231 34.0735 12 33.2214 12 32.1563V17.103C12 16.038 12.9231 15.1149 13.9882 15.1149H23.0059L27.4083 13.0557C27.6923 12.9137 28.0473 13.0557 28.1893 13.3397L29.0414 15.1149ZM34.0118 22.5705C32.4497 22.5705 30.9586 22.5705 29.3964 22.5705C28.9704 22.5705 28.6864 22.8545 28.6864 23.2806V25.9078C28.6864 26.3338 28.9704 26.6888 29.3964 26.6888C30.9586 26.6888 32.4497 26.6888 34.0118 26.6888C34.4379 26.6888 34.7929 26.3338 34.7929 25.9078V23.2806C34.7929 22.8545 34.4379 22.5705 34.0118 22.5705Z" fill="white"/>
<path d="M30.8167 25.5532C31.3265 25.5532 31.7397 25.1399 31.7397 24.6301C31.7397 24.1203 31.3265 23.707 30.8167 23.707C30.3069 23.707 29.8936 24.1203 29.8936 24.6301C29.8936 25.1399 30.3069 25.5532 30.8167 25.5532Z" fill="white"/>
</svg>
