<svg width="22" height="22" viewBox="0 0 22 22" fill="none" xmlns="http://www.w3.org/2000/svg">
<g clip-path="url(#clip0_25904_3136)">
<path fill-rule="evenodd" clip-rule="evenodd" d="M0 2.19996C0 0.984957 0.984957 0 2.19996 0H5.13325C6.34825 0 7.33321 0.984957 7.33321 2.19996V5.86657C7.33321 7.08157 6.34825 8.06654 5.13325 8.06654H2.19996C0.984957 8.06654 0 7.08157 0 5.86657V2.19996ZM2.19996 1.46664C1.79496 1.46664 1.46664 1.79496 1.46664 2.19996V5.86657C1.46664 6.27158 1.79496 6.59989 2.19996 6.59989H5.13325C5.53826 6.59989 5.86657 6.27158 5.86657 5.86657V2.19996C5.86657 1.79496 5.53826 1.46664 5.13325 1.46664H2.19996Z" fill="#FF8926"/>
<path fill-rule="evenodd" clip-rule="evenodd" d="M13.1998 16.1335C13.1998 17.3485 14.1848 18.3334 15.3998 18.3334H19.7997C21.0147 18.3334 21.9997 17.3485 21.9997 16.1335V11.7335C21.9997 10.5185 21.0147 9.53357 19.7997 9.53357H15.3998C14.1848 9.53357 13.1998 10.5185 13.1998 11.7335V16.1335ZM15.3998 16.8668C14.9947 16.8668 14.6664 16.5385 14.6664 16.1335V11.7335C14.6664 11.3285 14.9947 11.0002 15.3998 11.0002H19.7997C20.2047 11.0002 20.533 11.3285 20.533 11.7335V16.1335C20.533 16.5385 20.2047 16.8668 19.7997 16.8668H15.3998Z" fill="#FF8926"/>
<path d="M5.86666 12.4668C6.27167 12.4668 6.59998 12.7951 6.59998 13.2001V15.0334H8.43328C8.8383 15.0334 9.1666 15.3618 9.1666 15.7667C9.1666 16.1718 8.8383 16.5001 8.43328 16.5001H6.59998V18.3334C6.59998 18.7384 6.27167 19.0667 5.86666 19.0667C5.46164 19.0667 5.13334 18.7384 5.13334 18.3334V16.5001H3.30003C2.89503 16.5001 2.56671 16.1718 2.56671 15.7667C2.56671 15.3618 2.89503 15.0334 3.30003 15.0334H5.13334V13.2001C5.13334 12.7951 5.46164 12.4668 5.86666 12.4668Z" fill="#FF8926"/>
<path fill-rule="evenodd" clip-rule="evenodd" d="M2.19996 9.53357C0.984957 9.53357 0 10.5185 0 11.7335V19.8001C0 21.0151 0.984957 22 2.19996 22H9.53318C10.7482 22 11.7331 21.0151 11.7331 19.8001V11.7335C11.7331 10.5185 10.7482 9.53357 9.53318 9.53357H2.19996ZM1.46664 11.7335C1.46664 11.3285 1.79496 11.0002 2.19996 11.0002H9.53318C9.93819 11.0002 10.2665 11.3285 10.2665 11.7335V19.8001C10.2665 20.2051 9.93819 20.5334 9.53318 20.5334H2.19996C1.79496 20.5334 1.46664 20.2051 1.46664 19.8001V11.7335Z" fill="#FF8926"/>
<path fill-rule="evenodd" clip-rule="evenodd" d="M11 8.06654C9.78495 8.06654 8.79999 7.08157 8.79999 5.86657V2.19996C8.79999 0.984957 9.78495 0 11 0H19.7998C21.0148 0 21.9998 0.984957 21.9998 2.19996V5.86657C21.9998 7.08157 21.0148 8.06654 19.7998 8.06654H11ZM10.2666 5.86657C10.2666 6.27158 10.5949 6.59989 11 6.59989H19.7998C20.2048 6.59989 20.5331 6.27158 20.5331 5.86657V2.19996C20.5331 1.79496 20.2048 1.46664 19.7998 1.46664H11C10.5949 1.46664 10.2666 1.79496 10.2666 2.19996V5.86657Z" fill="#FF8926"/>
</g>
<defs>
<clipPath id="clip0_25904_3136">
<rect width="22" height="22" fill="white"/>
</clipPath>
</defs>
</svg>
