<svg width="20" height="20" viewBox="0 0 20 20" fill="none" xmlns="http://www.w3.org/2000/svg">
<path id="Vector" d="M1.50054 20H18.5C18.8976 19.9994 19.2789 19.8433 19.5601 19.5653C19.8414 19.2874 19.9997 18.9107 20 18.5178V17.2002C19.9988 16.8367 19.8622 16.4861 19.6164 16.2159C19.2 15.718 18.1882 15.7741 17.8225 15.7344V8.94729C18.1882 8.90758 19.3702 8.73643 19.6164 8.46585C19.8622 8.19556 19.9988 7.84533 20 7.48182V5.77397C20.0006 5.50397 19.9262 5.23902 19.7854 5.00783C19.6443 4.77665 19.442 4.58787 19.2 4.46228L11.1643 0.284341C10.4354 -0.0947803 9.56458 -0.0947803 8.83575 0.284341L0.800009 4.46228C0.558046 4.58787 0.35567 4.77665 0.214597 5.00783C0.0738207 5.239 -0.000577989 5.50395 1.62919e-05 5.77397V7.48325C0.00150436 7.84649 0.13811 8.19642 0.384242 8.46645C0.630076 8.73645 2.08333 8.9655 2.7482 8.94729V15.718C2.38242 15.7577 0.439281 15.718 0.383631 16.2142C0.137797 16.4847 0.00119618 16.835 0 17.1985V18.516C0 18.9093 0.158034 19.2865 0.439281 19.5648C0.720528 19.8431 1.10262 19.9994 1.50054 20ZM1.00055 7.48321V5.77392C1.00055 5.59069 1.10323 5.42248 1.26721 5.33689L9.30067 1.15805C9.73816 0.930704 10.261 0.930704 10.6986 1.15805L18.7336 5.33689C18.8976 5.42248 19.0002 5.59069 19.0002 5.77392V7.48321C19.0002 7.75586 18.7764 7.97729 18.5002 7.97729H1.50077C1.22458 7.97729 1.00055 7.75586 1.00055 7.48321ZM16.6667 8.94729V15.7344L15.6671 15.718V8.9655L16.6667 8.94729ZM15.6671 8.9655V15.718L10.6986 15.7344V8.9473L15.6671 8.9655ZM9.81536 8.94729V15.718H9.00048V8.9655L9.81536 8.94729ZM9.00048 8.9655V15.718H5.33384V12.3418V8.9655H9.00048ZM5.33384 8.9655V12.3418V15.718H3.75V8.9655H5.33384ZM1.00055 17.2006C1.00055 16.9277 1.22436 16.7065 1.50054 16.7065H18.5C18.7762 16.7065 19 16.9277 19 17.2006V18.5182C19 18.7908 18.7762 19.0122 18.5 19.0122H1.50054C1.22436 19.0122 1.00055 18.7908 1.00055 18.5182V17.2006Z" fill="#818181"/>
</svg>
