<svg width="24" height="24" viewBox="0 0 24 24" fill="none" xmlns="http://www.w3.org/2000/svg">
<g id="Icon">
<path id="Vector" d="M0.964308 9.56447V10.0645V18.946C0.964308 19.0614 0.984756 19.1767 1.02546 19.2857L1.49385 19.1107L1.02546 19.2857C1.06617 19.3947 1.12699 19.4968 1.20665 19.5851C1.28641 19.6736 1.38393 19.7468 1.49516 19.7979C1.60658 19.8491 1.72813 19.8763 1.85235 19.8763H22.1477C22.2719 19.8763 22.3934 19.8491 22.5048 19.7979C22.6161 19.7468 22.7136 19.6736 22.7933 19.5851C22.873 19.4968 22.9338 19.3946 22.9745 19.2857L22.9745 19.2857C23.0152 19.1767 23.0357 19.0614 23.0357 18.946V10.0645V9.56447H22.5357H1.46431H0.964308ZM22.5357 8.94078H23.0357V8.44078V6.05396C23.0357 5.82296 22.9534 5.59234 22.7933 5.41485C22.6317 5.23566 22.4008 5.12369 22.1477 5.12369H1.85235C1.59918 5.12369 1.36826 5.23566 1.20666 5.41485L1.57796 5.74971L1.20666 5.41485C1.0466 5.59233 0.964308 5.82295 0.964308 6.05396V8.44078V8.94078H1.46431H22.5357ZM0.914916 4.93764C1.17337 4.65105 1.51198 4.50089 1.85294 4.5H22.1471C22.488 4.50089 22.8266 4.65105 23.0851 4.93764C23.3452 5.22605 23.4992 5.62704 23.5 6.05485V18.9451C23.4992 19.373 23.3452 19.7739 23.0851 20.0624C22.8267 20.3489 22.4882 20.499 22.1473 20.5C22.1471 20.5 22.1468 20.5 22.1466 20.5H1.85344C1.85319 20.5 1.85293 20.5 1.85268 20.5C1.51181 20.499 1.1733 20.3489 0.914917 20.0624C0.654896 19.774 0.500858 19.3732 0.5 18.9456V6.05444C0.500858 5.62679 0.654896 5.22596 0.914916 4.93764Z" fill="white" stroke="#2D2D2D"/>
<path id="Vector_2" d="M4.15501 16.158H9.3533C9.39722 16.158 9.45122 16.1768 9.4997 16.2306C9.54972 16.2861 9.58545 16.3714 9.58545 16.4698C9.58545 16.5682 9.54972 16.6535 9.4997 16.709C9.45122 16.7628 9.39722 16.7816 9.3533 16.7816H4.15501C4.11108 16.7816 4.05708 16.7628 4.0086 16.709C3.95858 16.6535 3.92285 16.5682 3.92285 16.4698C3.92285 16.3714 3.95858 16.2861 4.0086 16.2306C4.05708 16.1768 4.11109 16.158 4.15501 16.158Z" fill="white" stroke="#2D2D2D"/>
</g>
</svg>
