<svg width="22" height="22" viewBox="0 0 22 22" fill="none" xmlns="http://www.w3.org/2000/svg">
<path d="M2.20927 3C0.992087 3 0 3.98979 0 5.20697V7.32965V10.07V16.8649C0 18.082 0.992087 19.0741 2.20927 19.0741H19.79C21.0071 19.0741 22 18.082 22 16.8649V10.07V7.32965V5.20697C22 3.98979 21.0071 3 19.79 3H2.20927ZM2.20927 3.7847H19.79C20.586 3.7847 21.2153 4.41094 21.2153 5.20697V6.93577H0.784701V5.20697C0.784701 4.41094 1.41324 3.7847 2.20927 3.7847ZM0.784701 7.72124H21.2153V9.6761H0.784701V7.72124ZM0.784701 10.4608H21.2153V16.8649C21.2153 17.6609 20.586 18.2894 19.79 18.2894H2.20927C1.41324 18.2894 0.784701 17.6609 0.784701 16.8649V10.4608ZM3.18555 13.0502C3.13329 13.049 3.08133 13.0583 3.03271 13.0775C2.9841 13.0967 2.9398 13.1254 2.90243 13.1619C2.86507 13.1985 2.83538 13.2421 2.8151 13.2903C2.79483 13.3385 2.78439 13.3902 2.78439 13.4425C2.78439 13.4948 2.79483 13.5465 2.8151 13.5947C2.83538 13.6429 2.86507 13.6865 2.90243 13.7231C2.9398 13.7596 2.9841 13.7883 3.03271 13.8075C3.08133 13.8267 3.13329 13.836 3.18555 13.8349H8.12365C8.2262 13.8326 8.32379 13.7902 8.39551 13.7169C8.46723 13.6436 8.50739 13.5451 8.50739 13.4425C8.50739 13.3399 8.46723 13.2414 8.39551 13.1681C8.32379 13.0948 8.2262 13.0524 8.12365 13.0502H3.18555ZM3.18555 15.1705C3.1333 15.1694 3.08133 15.1787 3.03272 15.1979C2.9841 15.2171 2.93981 15.2458 2.90244 15.2823C2.86508 15.3189 2.83539 15.3625 2.81512 15.4107C2.79485 15.4589 2.78441 15.5106 2.78441 15.5629C2.78441 15.6152 2.79485 15.6669 2.81512 15.7151C2.83539 15.7633 2.86508 15.8069 2.90244 15.8435C2.93981 15.88 2.9841 15.9087 3.03272 15.9279C3.08133 15.9471 3.1333 15.9564 3.18555 15.9552H5.29444C5.34669 15.9564 5.39865 15.9471 5.44727 15.9279C5.49589 15.9087 5.54018 15.88 5.57754 15.8435C5.61491 15.8069 5.6446 15.7633 5.66487 15.7151C5.68514 15.6669 5.69558 15.6152 5.69558 15.5629C5.69558 15.5106 5.68514 15.4589 5.66487 15.4107C5.6446 15.3625 5.61491 15.3189 5.57754 15.2823C5.54018 15.2458 5.49589 15.2171 5.44727 15.1979C5.39865 15.1787 5.34669 15.1694 5.29444 15.1705H3.18555Z" fill="#FF8926"/>
<path d="M18.0391 13.9795C18.0125 13.8762 17.9758 13.7812 17.9291 13.6945C17.8825 13.6078 17.8225 13.5328 17.7491 13.4695C17.6758 13.4062 17.5891 13.3578 17.4891 13.3245C17.3925 13.2878 17.2791 13.2695 17.1491 13.2695C16.9591 13.2695 16.7941 13.3078 16.6541 13.3845C16.5175 13.4612 16.4058 13.5645 16.3191 13.6945C16.2325 13.8212 16.1675 13.9662 16.1241 14.1295C16.0841 14.2928 16.0641 14.4595 16.0641 14.6295C16.0641 14.7995 16.0841 14.9662 16.1241 15.1295C16.1675 15.2928 16.2325 15.4395 16.3191 15.5695C16.4058 15.6962 16.5175 15.7978 16.6541 15.8745C16.7941 15.9512 16.9591 15.9895 17.1491 15.9895C17.2891 15.9895 17.4125 15.9662 17.5191 15.9195C17.6258 15.8695 17.7175 15.8028 17.7941 15.7195C17.8708 15.6328 17.9308 15.5328 17.9741 15.4195C18.0175 15.3062 18.0458 15.1845 18.0591 15.0545H18.6691C18.6558 15.2678 18.6091 15.4628 18.5291 15.6395C18.4525 15.8162 18.3475 15.9695 18.2141 16.0995C18.0808 16.2262 17.9241 16.3245 17.7441 16.3945C17.5641 16.4645 17.3658 16.4995 17.1491 16.4995C16.8825 16.4995 16.6425 16.4512 16.4291 16.3545C16.2191 16.2545 16.0408 16.1195 15.8941 15.9495C15.7475 15.7795 15.6341 15.5812 15.5541 15.3545C15.4775 15.1278 15.4391 14.8862 15.4391 14.6295C15.4391 14.3762 15.4775 14.1362 15.5541 13.9095C15.6341 13.6828 15.7475 13.4845 15.8941 13.3145C16.0408 13.1445 16.2191 13.0095 16.4291 12.9095C16.6425 12.8095 16.8825 12.7595 17.1491 12.7595C17.3491 12.7595 17.5375 12.7878 17.7141 12.8445C17.8908 12.8978 18.0458 12.9778 18.1791 13.0845C18.3158 13.1878 18.4258 13.3145 18.5091 13.4645C18.5925 13.6145 18.6441 13.7862 18.6641 13.9795H18.0391Z" fill="#FF8926"/>
</svg>
