<svg width="22" height="22" viewBox="0 0 22 22" fill="none" xmlns="http://www.w3.org/2000/svg">
<path d="M2.20927 3C0.992087 3 0 3.98979 0 5.20697V7.32965V10.07V16.8649C0 18.082 0.992087 19.0741 2.20927 19.0741H19.79C21.0071 19.0741 22 18.082 22 16.8649V10.07V7.32965V5.20697C22 3.98979 21.0071 3 19.79 3H2.20927ZM2.20927 3.7847H19.79C20.586 3.7847 21.2153 4.41094 21.2153 5.20697V6.93577H0.784701V5.20697C0.784701 4.41094 1.41324 3.7847 2.20927 3.7847ZM0.784701 7.72124H21.2153V9.6761H0.784701V7.72124ZM0.784701 10.4608H21.2153V16.8649C21.2153 17.6609 20.586 18.2894 19.79 18.2894H2.20927C1.41324 18.2894 0.784701 17.6609 0.784701 16.8649V10.4608ZM3.18555 13.0502C3.13329 13.049 3.08133 13.0583 3.03271 13.0775C2.9841 13.0967 2.9398 13.1254 2.90243 13.1619C2.86507 13.1985 2.83538 13.2421 2.8151 13.2903C2.79483 13.3385 2.78439 13.3902 2.78439 13.4425C2.78439 13.4948 2.79483 13.5465 2.8151 13.5947C2.83538 13.6429 2.86507 13.6865 2.90243 13.7231C2.9398 13.7596 2.9841 13.7883 3.03271 13.8075C3.08133 13.8267 3.13329 13.836 3.18555 13.8349H8.12365C8.2262 13.8326 8.32379 13.7902 8.39551 13.7169C8.46723 13.6436 8.50739 13.5451 8.50739 13.4425C8.50739 13.3399 8.46723 13.2414 8.39551 13.1681C8.32379 13.0948 8.2262 13.0524 8.12365 13.0502H3.18555ZM3.18555 15.1705C3.1333 15.1694 3.08133 15.1787 3.03272 15.1979C2.9841 15.2171 2.93981 15.2458 2.90244 15.2823C2.86508 15.3189 2.83539 15.3625 2.81512 15.4107C2.79485 15.4589 2.78441 15.5106 2.78441 15.5629C2.78441 15.6152 2.79485 15.6669 2.81512 15.7151C2.83539 15.7633 2.86508 15.8069 2.90244 15.8435C2.93981 15.88 2.9841 15.9087 3.03272 15.9279C3.08133 15.9471 3.1333 15.9564 3.18555 15.9552H5.29444C5.34669 15.9564 5.39865 15.9471 5.44727 15.9279C5.49589 15.9087 5.54018 15.88 5.57754 15.8435C5.61491 15.8069 5.6446 15.7633 5.66487 15.7151C5.68514 15.6669 5.69558 15.6152 5.69558 15.5629C5.69558 15.5106 5.68514 15.4589 5.66487 15.4107C5.6446 15.3625 5.61491 15.3189 5.57754 15.2823C5.54018 15.2458 5.49589 15.2171 5.44727 15.1979C5.39865 15.1787 5.34669 15.1694 5.29444 15.1705H3.18555Z" fill="#FF8926"/>
<path d="M15.6291 12.8445H17.1091C17.3825 12.8445 17.6191 12.8912 17.8191 12.9845C18.0191 13.0778 18.1825 13.2062 18.3091 13.3695C18.4358 13.5295 18.5291 13.7178 18.5891 13.9345C18.6525 14.1512 18.6841 14.3828 18.6841 14.6295C18.6841 14.8762 18.6525 15.1078 18.5891 15.3245C18.5291 15.5412 18.4358 15.7312 18.3091 15.8945C18.1825 16.0545 18.0191 16.1812 17.8191 16.2745C17.6191 16.3678 17.3825 16.4145 17.1091 16.4145H15.6291V12.8445ZM16.2541 15.9045H16.8691C17.1125 15.9045 17.3108 15.8728 17.4641 15.8095C17.6208 15.7428 17.7425 15.6528 17.8291 15.5395C17.9191 15.4228 17.9791 15.2878 18.0091 15.1345C18.0425 14.9778 18.0591 14.8095 18.0591 14.6295C18.0591 14.4495 18.0425 14.2828 18.0091 14.1295C17.9791 13.9728 17.9191 13.8378 17.8291 13.7245C17.7425 13.6078 17.6208 13.5178 17.4641 13.4545C17.3108 13.3878 17.1125 13.3545 16.8691 13.3545H16.2541V15.9045Z" fill="#FF8926"/>
</svg>
