<svg width="22" height="22" viewBox="0 0 22 22" fill="none" xmlns="http://www.w3.org/2000/svg">
<g clip-path="url(#clip0_23619_180114)">
<path d="M22 15.4476C22.001 16.8894 21.4736 18.2815 20.5186 19.3592C19.5636 20.437 18.2467 21.1262 16.818 21.2962C15.3892 21.4653 13.9486 21.1035 12.7691 20.2787C11.4897 20.8419 9.34785 21.1767 7.00925 21.1767C5.38395 21.2004 3.76178 21.0088 2.18603 20.6082C0.75625 20.2034 0 19.636 0 18.9695V4.63172C0 3.96522 0.75625 3.39886 2.18603 2.99295C3.76192 2.59242 5.38401 2.40292 7.00925 2.42659C8.63456 2.40291 10.2567 2.59349 11.8325 2.9951C13.2623 3.40104 14.0185 3.96737 14.0185 4.63387V9.9496C15.8253 9.25405 17.8578 9.49524 19.452 10.5935C21.0472 11.6917 22 13.507 22 15.4472L22 15.4476ZM13.4073 10.2275V9.05068C12.8595 9.39739 12.2568 9.64612 11.6241 9.78609C10.1127 10.1446 8.56254 10.3169 7.00934 10.2986C4.57515 10.2986 1.81239 9.90454 0.611187 9.05179V11.7899C0.62193 11.806 0.632672 11.8222 0.640192 11.8405C0.971044 12.5479 3.49964 13.3124 7.00809 13.3124H7.00917C8.2789 13.321 9.54541 13.2068 10.7937 12.9732C11.3416 11.7953 12.2601 10.8305 13.4073 10.2275ZM10.2492 15.4476C10.2481 14.836 10.3438 14.2277 10.5307 13.6452C9.36727 13.8358 8.18887 13.9294 7.00928 13.923C4.58048 13.923 1.81316 13.5289 0.611132 12.6761V15.4056C0.619726 15.4196 0.627246 15.4336 0.633691 15.4487C0.688477 15.5822 0.995701 16.0506 2.61347 16.4619C4.05508 16.7946 5.52985 16.954 7.00907 16.9367C8.13701 16.9421 9.26385 16.8538 10.3778 16.6751C10.2919 16.2713 10.2492 15.86 10.2492 15.4476ZM0.611297 5.42339V8.15827C0.62204 8.17334 0.630633 8.18949 0.638153 8.20564C0.953963 8.91627 3.48055 9.68399 7.01045 9.68399C10.869 9.68399 13.198 8.80323 13.3968 8.16796C13.4 8.1572 13.4043 8.14643 13.4097 8.13566L13.4086 5.42449C12.8607 5.77011 12.2581 6.01882 11.6254 6.15882C10.114 6.51737 8.56381 6.68857 7.01061 6.67027C4.57535 6.67027 1.8125 6.27614 0.611297 5.42339ZM0.624188 4.55341C0.629559 4.56203 0.633856 4.57064 0.637079 4.57925C0.952889 5.28988 3.47948 6.0576 7.00938 6.0576C10.8531 6.0576 13.1787 5.18329 13.3924 4.5491C13.3054 4.28961 12.8199 3.9106 11.6661 3.58435C10.1451 3.1989 8.57872 3.01477 7.0093 3.03952C5.43987 3.01584 3.87375 3.19888 2.35245 3.58435C1.19228 3.91275 0.70798 4.29392 0.624188 4.55341ZM12.2171 19.8418C11.4404 19.1484 10.8614 18.2612 10.537 17.2706C9.37145 17.4623 8.1909 17.556 7.00928 17.5506C4.56758 17.5506 1.81233 17.1565 0.611127 16.3037V18.9697C0.611127 19.226 1.06658 19.6545 2.35243 20.0184V20.0195C3.87351 20.405 5.43985 20.588 7.00928 20.5643C9.05352 20.5643 10.9922 20.2908 12.2171 19.8418ZM21.3889 15.4478C21.3889 14.0481 20.8346 12.7065 19.8473 11.7159C18.8602 10.7264 17.5206 10.1708 16.1241 10.1708C14.7287 10.1708 13.3892 10.7264 12.402 11.7159C11.4148 12.7065 10.8594 14.0481 10.8594 15.4478C10.8594 16.8476 11.4148 18.1892 12.402 19.1786C13.3892 20.1681 14.7287 20.7248 16.1241 20.7248C17.5206 20.7227 18.858 20.166 19.8451 19.1776C20.8323 18.1881 21.3878 16.8464 21.3889 15.4478ZM20.4393 15.4478C20.4393 16.5946 19.9849 17.6949 19.176 18.5058C18.3671 19.3176 17.2692 19.7731 16.124 19.7731C14.98 19.7731 13.8821 19.3177 13.0732 18.5069C12.2643 17.695 11.8088 16.5957 11.8088 15.4478C11.8088 14.3011 12.2643 13.2007 13.0732 12.3899C13.8821 11.578 14.9799 11.1225 16.124 11.1225C17.2681 11.1236 18.3648 11.5802 19.1738 12.3909C19.9827 13.2017 20.4382 14.3011 20.4393 15.4478ZM19.828 15.4478C19.828 13.9458 18.9257 12.5925 17.5421 12.0186C16.1574 11.4436 14.5644 11.7613 13.5051 12.8229C12.4459 13.8846 12.129 15.4813 12.7026 16.8682C13.2763 18.2561 14.6266 19.1606 16.1239 19.1606C18.1681 19.1573 19.8258 17.4969 19.828 15.4478Z" fill="#FF8926"/>
<path d="M0.625262 4.55341H0.624188M0.624188 4.55341C0.629559 4.56203 0.633856 4.57064 0.637079 4.57925C0.952889 5.28988 3.47948 6.0576 7.00938 6.0576C10.8531 6.0576 13.1787 5.18329 13.3924 4.5491C13.3054 4.28961 12.8199 3.9106 11.6661 3.58435C10.1451 3.1989 8.57872 3.01477 7.0093 3.03952C5.43987 3.01584 3.87375 3.19888 2.35245 3.58435C1.19228 3.91275 0.70798 4.29392 0.624188 4.55341ZM22 15.4476C22.001 16.8894 21.4736 18.2815 20.5186 19.3592C19.5636 20.437 18.2467 21.1262 16.818 21.2962C15.3892 21.4653 13.9486 21.1035 12.7691 20.2787C11.4897 20.8419 9.34785 21.1767 7.00926 21.1767C5.38395 21.2004 3.76178 21.0088 2.18603 20.6082C0.75625 20.2034 0 19.636 0 18.9695V4.63172C0 3.96522 0.75625 3.39886 2.18603 2.99295C3.76192 2.59242 5.38401 2.40292 7.00926 2.42659C8.63456 2.40291 10.2567 2.59349 11.8325 2.9951C13.2623 3.40104 14.0185 3.96737 14.0185 4.63387V9.9496C15.8253 9.25405 17.8578 9.49524 19.452 10.5935C21.0472 11.6917 22 13.507 22 15.4472L22 15.4476ZM13.4073 10.2275V9.05068C12.8595 9.39739 12.2568 9.64612 11.6241 9.78609C10.1127 10.1446 8.56254 10.3169 7.00934 10.2986C4.57515 10.2986 1.81239 9.90454 0.611187 9.05179V11.7899C0.62193 11.806 0.632672 11.8222 0.640192 11.8405C0.971044 12.5479 3.49964 13.3124 7.00809 13.3124H7.00917C8.2789 13.321 9.54541 13.2068 10.7937 12.9732C11.3416 11.7953 12.2601 10.8305 13.4073 10.2275ZM10.2492 15.4476C10.2481 14.836 10.3438 14.2277 10.5307 13.6452C9.36727 13.8358 8.18887 13.9294 7.00928 13.923C4.58048 13.923 1.81316 13.5289 0.611132 12.6761V15.4056C0.619726 15.4196 0.627246 15.4336 0.633691 15.4487C0.688477 15.5822 0.995701 16.0506 2.61347 16.4619C4.05508 16.7946 5.52985 16.954 7.00907 16.9367C8.13701 16.9421 9.26385 16.8538 10.3778 16.6751C10.2919 16.2713 10.2492 15.86 10.2492 15.4476ZM0.611297 5.42339V8.15827C0.62204 8.17334 0.630633 8.18949 0.638153 8.20564C0.953963 8.91627 3.48055 9.68399 7.01045 9.68399C10.869 9.68399 13.198 8.80323 13.3968 8.16796C13.4 8.1572 13.4043 8.14643 13.4097 8.13566L13.4086 5.42449C12.8607 5.77011 12.2581 6.01882 11.6254 6.15882C10.114 6.51737 8.56381 6.68857 7.01061 6.67027C4.57535 6.67027 1.8125 6.27614 0.611297 5.42339ZM12.2171 19.8418C11.4404 19.1484 10.8614 18.2612 10.537 17.2706C9.37145 17.4623 8.1909 17.556 7.00928 17.5506C4.56758 17.5506 1.81233 17.1565 0.611127 16.3037V18.9697C0.611127 19.226 1.06658 19.6545 2.35243 20.0184V20.0195C3.87351 20.405 5.43985 20.588 7.00928 20.5643C9.05352 20.5643 10.9922 20.2908 12.2171 19.8418ZM21.3889 15.4478C21.3889 14.0481 20.8346 12.7065 19.8473 11.7159C18.8602 10.7264 17.5206 10.1708 16.1241 10.1708C14.7287 10.1708 13.3892 10.7264 12.402 11.7159C11.4148 12.7065 10.8594 14.0481 10.8594 15.4478C10.8594 16.8476 11.4148 18.1892 12.402 19.1786C13.3892 20.1681 14.7287 20.7248 16.1241 20.7248C17.5206 20.7227 18.858 20.166 19.8451 19.1776C20.8323 18.1881 21.3878 16.8464 21.3889 15.4478ZM20.4393 15.4478C20.4393 16.5946 19.9849 17.6949 19.176 18.5058C18.3671 19.3176 17.2692 19.7731 16.124 19.7731C14.98 19.7731 13.8821 19.3177 13.0732 18.5069C12.2643 17.695 11.8088 16.5957 11.8088 15.4478C11.8088 14.3011 12.2643 13.2007 13.0732 12.3899C13.8821 11.578 14.9799 11.1225 16.124 11.1225C17.2681 11.1236 18.3648 11.5802 19.1738 12.3909C19.9827 13.2017 20.4382 14.3011 20.4393 15.4478ZM19.828 15.4478C19.828 13.9458 18.9257 12.5925 17.5421 12.0186C16.1574 11.4436 14.5644 11.7613 13.5051 12.8229C12.4459 13.8846 12.129 15.4813 12.7026 16.8682C13.2763 18.2561 14.6266 19.1606 16.1239 19.1606C18.1681 19.1573 19.8258 17.4969 19.828 15.4478Z" stroke="#FF8926" stroke-width="0.25"/>
<path d="M21.0999 5.61176L18.4336 8.21016C18.2647 8.3744 17.9918 8.3744 17.8229 8.21016L15.1789 5.63161C15.0105 5.46736 15.0105 5.2007 15.1789 5.03644C15.3478 4.8722 15.6207 4.8722 15.7895 5.03644L17.6787 6.87635L17.6783 1.42077C17.6783 1.30912 17.7237 1.20208 17.8046 1.1232C17.8854 1.0443 17.9956 1.00001 18.1101 1.00001C18.2246 1.00001 18.3343 1.0443 18.4152 1.1232C18.4961 1.20209 18.5415 1.30912 18.5415 1.42077V6.9165L20.4921 5.01436V5.01482C20.6604 4.85058 20.9334 4.85058 21.1018 5.01482C21.1831 5.09371 21.2285 5.20167 21.228 5.31378C21.2276 5.42589 21.1817 5.53288 21.0999 5.61176Z" fill="#FF8926" stroke="#FF8926" stroke-width="0.25"/>
</g>
<defs>
<clipPath id="clip0_23619_180114">
<rect width="22" height="22" fill="white"/>
</clipPath>
</defs>
</svg>
