<svg width="20" height="20" viewBox="0 0 20 20" fill="none" xmlns="http://www.w3.org/2000/svg">
<path d="M3.3335 4.16659C3.3335 3.94557 3.42129 3.73361 3.57757 3.57733C3.73385 3.42105 3.94582 3.33325 4.16683 3.33325H7.50016C7.72118 3.33325 7.93314 3.42105 8.08942 3.57733C8.2457 3.73361 8.3335 3.94557 8.3335 4.16659V7.49992C8.3335 7.72093 8.2457 7.93289 8.08942 8.08917C7.93314 8.24545 7.72118 8.33325 7.50016 8.33325H4.16683C3.94582 8.33325 3.73385 8.24545 3.57757 8.08917C3.42129 7.93289 3.3335 7.72093 3.3335 7.49992V4.16659Z" fill="#DE3924" stroke="#DE3924" stroke-width="1.5" stroke-linecap="round" stroke-linejoin="round"/>
<path d="M11.6665 4.16659C11.6665 3.94557 11.7543 3.73361 11.9106 3.57733C12.0669 3.42105 12.2788 3.33325 12.4998 3.33325H15.8332C16.0542 3.33325 16.2661 3.42105 16.4224 3.57733C16.5787 3.73361 16.6665 3.94557 16.6665 4.16659V7.49992C16.6665 7.72093 16.5787 7.93289 16.4224 8.08917C16.2661 8.24545 16.0542 8.33325 15.8332 8.33325H12.4998C12.2788 8.33325 12.0669 8.24545 11.9106 8.08917C11.7543 7.93289 11.6665 7.72093 11.6665 7.49992V4.16659Z" fill="#DE3924" stroke="#DE3924" stroke-width="1.5" stroke-linecap="round" stroke-linejoin="round"/>
<path d="M3.3335 12.5001C3.3335 12.2791 3.42129 12.0671 3.57757 11.9108C3.73385 11.7545 3.94582 11.6667 4.16683 11.6667H7.50016C7.72118 11.6667 7.93314 11.7545 8.08942 11.9108C8.2457 12.0671 8.3335 12.2791 8.3335 12.5001V15.8334C8.3335 16.0544 8.2457 16.2664 8.08942 16.4227C7.93314 16.579 7.72118 16.6667 7.50016 16.6667H4.16683C3.94582 16.6667 3.73385 16.579 3.57757 16.4227C3.42129 16.2664 3.3335 16.0544 3.3335 15.8334V12.5001Z" fill="#DE3924" stroke="#DE3924" stroke-width="1.5" stroke-linecap="round" stroke-linejoin="round"/>
<path d="M11.6665 12.5001C11.6665 12.2791 11.7543 12.0671 11.9106 11.9108C12.0669 11.7545 12.2788 11.6667 12.4998 11.6667H15.8332C16.0542 11.6667 16.2661 11.7545 16.4224 11.9108C16.5787 12.0671 16.6665 12.2791 16.6665 12.5001V15.8334C16.6665 16.0544 16.5787 16.2664 16.4224 16.4227C16.2661 16.579 16.0542 16.6667 15.8332 16.6667H12.4998C12.2788 16.6667 12.0669 16.579 11.9106 16.4227C11.7543 16.2664 11.6665 16.0544 11.6665 15.8334V12.5001Z" fill="#DE3924" stroke="#DE3924" stroke-width="1.5" stroke-linecap="round" stroke-linejoin="round"/>
</svg>
