<svg width="20" height="20" viewBox="0 0 20 20" fill="none" xmlns="http://www.w3.org/2000/svg">
<path d="M2.5 10C2.5 10.9849 2.69399 11.9602 3.0709 12.8701C3.44781 13.7801 4.00026 14.6069 4.6967 15.3033C5.39314 15.9997 6.21993 16.5522 7.12987 16.9291C8.03982 17.306 9.01509 17.5 10 17.5C10.9849 17.5 11.9602 17.306 12.8701 16.9291C13.7801 16.5522 14.6069 15.9997 15.3033 15.3033C15.9997 14.6069 16.5522 13.7801 16.9291 12.8701C17.306 11.9602 17.5 10.9849 17.5 10C17.5 9.01509 17.306 8.03982 16.9291 7.12987C16.5522 6.21993 15.9997 5.39314 15.3033 4.6967C14.6069 4.00026 13.7801 3.44781 12.8701 3.0709C11.9602 2.69399 10.9849 2.5 10 2.5C9.01509 2.5 8.03982 2.69399 7.12987 3.0709C6.21993 3.44781 5.39314 4.00026 4.6967 4.6967C4.00026 5.39314 3.44781 6.21993 3.0709 7.12987C2.69399 8.03982 2.5 9.01509 2.5 10Z" stroke="black" stroke-width="1.5" stroke-linecap="round" stroke-linejoin="round"/>
<path d="M12.3569 12.3571C12.0473 12.6666 11.6799 12.9122 11.2754 13.0797C10.871 13.2472 10.4376 13.3334 9.99984 13.3334C9.5621 13.3334 9.12864 13.2472 8.72423 13.0797C8.31981 12.9122 7.95234 12.6666 7.64281 12.3571C7.33329 12.0476 7.08775 11.6801 6.92024 11.2757C6.75272 10.8713 6.6665 10.4378 6.6665 10.0001C6.6665 9.56234 6.75272 9.12889 6.92024 8.72447C7.08775 8.32005 7.33329 7.95259 7.64281 7.64306C7.95234 7.33353 8.31981 7.088 8.72423 6.92048C9.12864 6.75297 9.5621 6.66675 9.99984 6.66675C10.4376 6.66675 10.871 6.75297 11.2754 6.92048C11.6799 7.088 12.0473 7.33353 12.3569 7.64306C12.6664 7.95259 12.9119 8.32005 13.0794 8.72447C13.247 9.12889 13.3332 9.56234 13.3332 10.0001H6.94428" stroke="black" stroke-width="1.5" stroke-linecap="round" stroke-linejoin="round"/>
</svg>
