<svg width="46" height="46" viewBox="0 0 46 46" fill="none" xmlns="http://www.w3.org/2000/svg">
<path d="M29.2647 33H26.3807C26.0282 33 25.6757 32.8636 25.4194 32.5908C25.163 32.318 25.0348 31.977 25.0348 31.6019V25.4979C25.0348 25.4638 25.0348 25.4638 25.0028 25.4297C25.0028 25.4297 24.9707 25.3956 24.9387 25.3956H21.0613C21.0293 25.3956 21.0293 25.3956 20.9972 25.4297C20.9972 25.4297 20.9652 25.4638 20.9652 25.4979V31.6019C20.9652 31.977 20.837 32.3521 20.5806 32.5908C20.3243 32.8636 20.0038 33 19.6514 33H16.7674C16.2226 33 15.7099 32.7613 15.3254 32.3521C14.9408 31.9429 14.7165 31.3973 14.7165 30.8176V23.3495H14.2038C13.7231 23.3495 13.2745 23.0085 13.0823 22.5311C12.89 22.0537 13.0502 21.474 13.4027 21.133L21.3497 13.665C22.311 12.7783 23.721 12.7783 24.6823 13.665L32.5973 21.133C32.9498 21.474 33.11 22.0537 32.9177 22.5311C32.7575 23.0426 32.3089 23.3495 31.8282 23.3495H31.2835V30.8517C31.2835 31.4314 31.0592 31.977 30.6746 32.3862C30.2901 32.7954 29.7774 33 29.2647 33Z" fill="#12486B"/>
</svg>