<svg width="22" height="22" viewBox="0 0 22 22" fill="none" xmlns="http://www.w3.org/2000/svg">
<g clip-path="url(#clip0_23619_180120)">
<mask id="path-1-inside-1_23619_180120" fill="white">
<path d="M21.8016 15.844C21.6665 15.5722 21.4682 15.3367 21.2234 15.1572C20.9785 14.9777 20.6942 14.8595 20.3943 14.8124C20.418 14.6477 20.4298 14.4815 20.4297 14.3151C20.4295 14.2767 20.4267 14.2384 20.421 14.2004L19.8011 9.997C19.7924 9.00222 19.5464 8.02386 19.0837 7.14318C18.621 6.2625 17.9548 5.5049 17.1405 4.93329C17.2407 4.70657 17.2905 4.46084 17.2865 4.21302C17.2826 3.9652 17.225 3.72118 17.1177 3.49776C17.0103 3.27434 16.8559 3.07683 16.6649 2.91883C16.4739 2.76083 16.251 2.6461 16.0114 2.58253L16.6038 1.07245C16.6505 0.953343 16.6674 0.824629 16.6531 0.697499C16.6387 0.570369 16.5935 0.448669 16.5214 0.342975C16.4493 0.23728 16.3525 0.150789 16.2394 0.0910168C16.1263 0.0312449 16.0002 9.61937e-07 15.8723 0H10.8434C10.7155 9.61937e-07 10.5895 0.0312449 10.4764 0.0910168C10.3632 0.150789 10.2664 0.23728 10.1943 0.342975C10.1222 0.448669 10.077 0.570369 10.0627 0.697499C10.0483 0.824629 10.0652 0.953343 10.1119 1.07245L10.7044 2.58253C10.4647 2.64615 10.2416 2.76098 10.0505 2.91913C9.8595 3.07727 9.70502 3.27496 9.59776 3.49856C9.49051 3.72216 9.43302 3.96636 9.42927 4.21432C9.42551 4.46229 9.47558 4.70811 9.57602 4.93486C8.76138 5.50582 8.09489 6.26304 7.63198 7.14353C7.16908 8.02401 6.92315 9.0023 6.91466 9.997L6.42278 13.3424L4.58882 13.5279C4.46828 13.2441 4.26693 13.0021 4.00986 12.832C3.75278 12.6618 3.45133 12.571 3.14303 12.5709H1.57151C1.15472 12.5709 0.755002 12.7364 0.460286 13.0311C0.16557 13.3258 0 13.7255 0 14.1423V20.4277C0 20.8444 0.16557 21.2441 0.460286 21.5388C0.755002 21.8335 1.15472 21.9991 1.57151 21.9991H3.14303C3.44305 21.9982 3.73655 21.9115 3.98886 21.7491C4.24116 21.5868 4.44171 21.3556 4.56682 21.083L8.12159 21.7971C10.1191 22.1997 12.1911 22.0003 14.0753 21.2244L20.8226 18.4501C21.0641 18.3508 21.2826 18.2027 21.4643 18.0151C21.6461 17.8275 21.7872 17.6045 21.879 17.36C21.9707 17.1154 22.011 16.8546 21.9974 16.5938C21.9839 16.333 21.9167 16.0777 21.8 15.844H21.8016ZM1.57151 20.4277V14.1423H3.14303V20.4277H1.57151ZM14.7196 1.57136L14.3503 2.51418H12.3655L11.9962 1.57136H14.7196ZM11.1578 4.08554H15.558C15.5997 4.08554 15.6396 4.1021 15.6691 4.13156C15.6986 4.16103 15.7151 4.201 15.7151 4.24268C15.7151 4.28435 15.6986 4.32432 15.6691 4.35379C15.6396 4.38326 15.5997 4.39981 15.558 4.39981H11.1578C11.1161 4.39981 11.0761 4.38326 11.0466 4.35379C11.0172 4.32432 11.0006 4.28435 11.0006 4.24268C11.0006 4.201 11.0172 4.16103 11.0466 4.13156C11.0761 4.1021 11.1161 4.08554 11.1578 4.08554ZM8.47753 10.1706C8.48318 10.1329 8.48606 10.0948 8.48618 10.0567C8.48695 9.21644 8.71341 8.39179 9.1419 7.66896C9.57039 6.94612 10.1852 6.35163 10.922 5.9476C11 5.96076 11.0787 5.96864 11.1578 5.97117H15.558C15.637 5.96854 15.7157 5.96066 15.7937 5.9476C16.5312 6.35091 17.1465 6.94524 17.575 7.66824C18.0036 8.39124 18.2297 9.21625 18.2296 10.0567C18.2297 10.0951 18.2326 10.1334 18.2382 10.1714L18.8582 14.3685C18.8469 14.6161 18.7885 14.8593 18.6861 15.0851L13.9959 16.2235C13.9521 15.9 13.8241 15.5936 13.6247 15.3351C13.4253 15.0766 13.1615 14.875 12.8597 14.7504L9.50766 13.3943C9.04011 13.2055 8.53398 13.1319 8.03201 13.1798L8.47753 10.1706ZM20.4085 16.8136C20.3926 16.8556 20.3683 16.8939 20.3371 16.9262C20.3059 16.9585 20.2684 16.984 20.227 17.0013L13.4781 19.7748C11.881 20.4328 10.1244 20.6018 8.43117 20.2603L4.71454 19.5092V15.0953L8.17659 14.7441C8.4298 14.719 8.68533 14.7554 8.92149 14.8502L12.2688 16.207C12.3328 16.2343 12.3849 16.2837 12.4156 16.3461C12.4463 16.4085 12.4536 16.4799 12.4362 16.5472C12.4202 16.6173 12.3775 16.6783 12.3172 16.7173C12.2568 16.7563 12.1837 16.7703 12.1132 16.7562L8.8492 16.0216C8.64591 15.9758 8.43273 16.0125 8.25656 16.1239C8.16933 16.179 8.09382 16.2507 8.03432 16.335C7.97483 16.4193 7.93252 16.5145 7.90982 16.6152C7.88712 16.7158 7.88447 16.82 7.90202 16.9216C7.91956 17.0233 7.95697 17.1205 8.01209 17.2078C8.12342 17.3839 8.30017 17.5086 8.50346 17.5545L11.7683 18.2891C11.9031 18.3199 12.0409 18.3354 12.1792 18.3354C12.5326 18.3339 12.8779 18.229 13.1724 18.0337C13.1842 18.0337 13.1944 18.0337 13.2062 18.0337L19.4082 16.5244L19.4443 16.5158L20.0101 16.3783C20.0833 16.3559 20.1621 16.3602 20.2323 16.3906C20.3026 16.421 20.3597 16.4754 20.3935 16.5441C20.4146 16.5855 20.4269 16.6308 20.4294 16.6772C20.432 16.7237 20.4249 16.7701 20.4085 16.8136Z"/>
</mask>
<path d="M21.8016 15.844C21.6665 15.5722 21.4682 15.3367 21.2234 15.1572C20.9785 14.9777 20.6942 14.8595 20.3943 14.8124C20.418 14.6477 20.4298 14.4815 20.4297 14.3151C20.4295 14.2767 20.4267 14.2384 20.421 14.2004L19.8011 9.997C19.7924 9.00222 19.5464 8.02386 19.0837 7.14318C18.621 6.2625 17.9548 5.5049 17.1405 4.93329C17.2407 4.70657 17.2905 4.46084 17.2865 4.21302C17.2826 3.9652 17.225 3.72118 17.1177 3.49776C17.0103 3.27434 16.8559 3.07683 16.6649 2.91883C16.4739 2.76083 16.251 2.6461 16.0114 2.58253L16.6038 1.07245C16.6505 0.953343 16.6674 0.824629 16.6531 0.697499C16.6387 0.570369 16.5935 0.448669 16.5214 0.342975C16.4493 0.23728 16.3525 0.150789 16.2394 0.0910168C16.1263 0.0312449 16.0002 9.61937e-07 15.8723 0H10.8434C10.7155 9.61937e-07 10.5895 0.0312449 10.4764 0.0910168C10.3632 0.150789 10.2664 0.23728 10.1943 0.342975C10.1222 0.448669 10.077 0.570369 10.0627 0.697499C10.0483 0.824629 10.0652 0.953343 10.1119 1.07245L10.7044 2.58253C10.4647 2.64615 10.2416 2.76098 10.0505 2.91913C9.8595 3.07727 9.70502 3.27496 9.59776 3.49856C9.49051 3.72216 9.43302 3.96636 9.42927 4.21432C9.42551 4.46229 9.47558 4.70811 9.57602 4.93486C8.76138 5.50582 8.09489 6.26304 7.63198 7.14353C7.16908 8.02401 6.92315 9.0023 6.91466 9.997L6.42278 13.3424L4.58882 13.5279C4.46828 13.2441 4.26693 13.0021 4.00986 12.832C3.75278 12.6618 3.45133 12.571 3.14303 12.5709H1.57151C1.15472 12.5709 0.755002 12.7364 0.460286 13.0311C0.16557 13.3258 0 13.7255 0 14.1423V20.4277C0 20.8444 0.16557 21.2441 0.460286 21.5388C0.755002 21.8335 1.15472 21.9991 1.57151 21.9991H3.14303C3.44305 21.9982 3.73655 21.9115 3.98886 21.7491C4.24116 21.5868 4.44171 21.3556 4.56682 21.083L8.12159 21.7971C10.1191 22.1997 12.1911 22.0003 14.0753 21.2244L20.8226 18.4501C21.0641 18.3508 21.2826 18.2027 21.4643 18.0151C21.6461 17.8275 21.7872 17.6045 21.879 17.36C21.9707 17.1154 22.011 16.8546 21.9974 16.5938C21.9839 16.333 21.9167 16.0777 21.8 15.844H21.8016ZM1.57151 20.4277V14.1423H3.14303V20.4277H1.57151ZM14.7196 1.57136L14.3503 2.51418H12.3655L11.9962 1.57136H14.7196ZM11.1578 4.08554H15.558C15.5997 4.08554 15.6396 4.1021 15.6691 4.13156C15.6986 4.16103 15.7151 4.201 15.7151 4.24268C15.7151 4.28435 15.6986 4.32432 15.6691 4.35379C15.6396 4.38326 15.5997 4.39981 15.558 4.39981H11.1578C11.1161 4.39981 11.0761 4.38326 11.0466 4.35379C11.0172 4.32432 11.0006 4.28435 11.0006 4.24268C11.0006 4.201 11.0172 4.16103 11.0466 4.13156C11.0761 4.1021 11.1161 4.08554 11.1578 4.08554ZM8.47753 10.1706C8.48318 10.1329 8.48606 10.0948 8.48618 10.0567C8.48695 9.21644 8.71341 8.39179 9.1419 7.66896C9.57039 6.94612 10.1852 6.35163 10.922 5.9476C11 5.96076 11.0787 5.96864 11.1578 5.97117H15.558C15.637 5.96854 15.7157 5.96066 15.7937 5.9476C16.5312 6.35091 17.1465 6.94524 17.575 7.66824C18.0036 8.39124 18.2297 9.21625 18.2296 10.0567C18.2297 10.0951 18.2326 10.1334 18.2382 10.1714L18.8582 14.3685C18.8469 14.6161 18.7885 14.8593 18.6861 15.0851L13.9959 16.2235C13.9521 15.9 13.8241 15.5936 13.6247 15.3351C13.4253 15.0766 13.1615 14.875 12.8597 14.7504L9.50766 13.3943C9.04011 13.2055 8.53398 13.1319 8.03201 13.1798L8.47753 10.1706ZM20.4085 16.8136C20.3926 16.8556 20.3683 16.8939 20.3371 16.9262C20.3059 16.9585 20.2684 16.984 20.227 17.0013L13.4781 19.7748C11.881 20.4328 10.1244 20.6018 8.43117 20.2603L4.71454 19.5092V15.0953L8.17659 14.7441C8.4298 14.719 8.68533 14.7554 8.92149 14.8502L12.2688 16.207C12.3328 16.2343 12.3849 16.2837 12.4156 16.3461C12.4463 16.4085 12.4536 16.4799 12.4362 16.5472C12.4202 16.6173 12.3775 16.6783 12.3172 16.7173C12.2568 16.7563 12.1837 16.7703 12.1132 16.7562L8.8492 16.0216C8.64591 15.9758 8.43273 16.0125 8.25656 16.1239C8.16933 16.179 8.09382 16.2507 8.03432 16.335C7.97483 16.4193 7.93252 16.5145 7.90982 16.6152C7.88712 16.7158 7.88447 16.82 7.90202 16.9216C7.91956 17.0233 7.95697 17.1205 8.01209 17.2078C8.12342 17.3839 8.30017 17.5086 8.50346 17.5545L11.7683 18.2891C11.9031 18.3199 12.0409 18.3354 12.1792 18.3354C12.5326 18.3339 12.8779 18.229 13.1724 18.0337C13.1842 18.0337 13.1944 18.0337 13.2062 18.0337L19.4082 16.5244L19.4443 16.5158L20.0101 16.3783C20.0833 16.3559 20.1621 16.3602 20.2323 16.3906C20.3026 16.421 20.3597 16.4754 20.3935 16.5441C20.4146 16.5855 20.4269 16.6308 20.4294 16.6772C20.432 16.7237 20.4249 16.7701 20.4085 16.8136Z" fill="#FF8926" stroke="white" stroke-width="0.5" mask="url(#path-1-inside-1_23619_180120)"/>
</g>
<defs>
<clipPath id="clip0_23619_180120">
<rect width="22" height="22" fill="white"/>
</clipPath>
</defs>
</svg>
