<svg width="390" height="105" viewBox="0 0 375 105" fill="none" xmlns="http://www.w3.org/2000/svg">
<g filter="url(#filter0_d_2596_144)">
<path d="M0 38.4545H129.987C136.228 38.4545 142.432 37.4806 148.373 35.5679L168.602 29.0554C180.82 25.1224 193.976 25.2105 206.139 29.3069L223.983 35.3164C230.154 37.3946 236.622 38.4545 243.133 38.4545H375V105H0V38.4545Z" fill="white"/>
<path d="M0.5 38.9545H129.987C136.28 38.9545 142.535 37.9725 148.526 36.0438L168.756 29.5313C180.871 25.6311 193.918 25.7185 205.979 29.7807L223.823 35.7902C230.046 37.8858 236.567 38.9545 243.133 38.9545H374.5V104.5H0.5V38.9545Z" stroke="white"/>
</g>
<defs>
<filter id="filter0_d_2596_144" x="-14" y="0.168701" width="403" height="106.831" filterUnits="userSpaceOnUse" color-interpolation-filters="sRGB">
<feFlood flood-opacity="0" result="BackgroundImageFix"/>
<feColorMatrix in="SourceAlpha" type="matrix" values="0 0 0 0 0 0 0 0 0 0 0 0 0 0 0 0 0 0 127 0" result="hardAlpha"/>
<feOffset dy="-12"/>
<feGaussianBlur stdDeviation="7"/>
<feComposite in2="hardAlpha" operator="out"/>
<feColorMatrix type="matrix" values="0 0 0 0 0 0 0 0 0 0 0 0 0 0 0 0 0 0 0.06 0"/>
<feBlend mode="normal" in2="BackgroundImageFix" result="effect1_dropShadow_2596_144"/>
<feBlend mode="normal" in="SourceGraphic" in2="effect1_dropShadow_2596_144" result="shape"/>
</filter>
</defs>
</svg>
