<svg width="20" height="20" viewBox="0 0 20 20" fill="none" xmlns="http://www.w3.org/2000/svg">
<path d="M9.99984 3.33325C9.77882 3.33325 9.56686 3.42105 9.41058 3.57733C9.2543 3.73361 9.1665 3.94557 9.1665 4.16659C9.1665 4.3876 9.2543 4.59956 9.41058 4.75584C9.56686 4.91212 9.77882 4.99992 9.99984 4.99992C10.2209 4.99992 10.4328 4.91212 10.5891 4.75584C10.7454 4.59956 10.8332 4.3876 10.8332 4.16659C10.8332 3.94557 10.7454 3.73361 10.5891 3.57733C10.4328 3.42105 10.2209 3.33325 9.99984 3.33325Z" stroke="black" stroke-width="1.5" stroke-linecap="round" stroke-linejoin="round"/>
<path d="M9.99984 9.16675C9.77882 9.16675 9.56686 9.25455 9.41058 9.41083C9.2543 9.56711 9.1665 9.77907 9.1665 10.0001C9.1665 10.2211 9.2543 10.4331 9.41058 10.5893C9.56686 10.7456 9.77882 10.8334 9.99984 10.8334C10.2209 10.8334 10.4328 10.7456 10.5891 10.5893C10.7454 10.4331 10.8332 10.2211 10.8332 10.0001C10.8332 9.77907 10.7454 9.56711 10.5891 9.41083C10.4328 9.25455 10.2209 9.16675 9.99984 9.16675Z" stroke="black" stroke-width="1.5" stroke-linecap="round" stroke-linejoin="round"/>
<path d="M9.99984 15C9.77882 15 9.56686 15.0878 9.41058 15.2441C9.2543 15.4004 9.1665 15.6123 9.1665 15.8333C9.1665 16.0543 9.2543 16.2663 9.41058 16.4226C9.56686 16.5789 9.77882 16.6667 9.99984 16.6667C10.2209 16.6667 10.4328 16.5789 10.5891 16.4226C10.7454 16.2663 10.8332 16.0543 10.8332 15.8333C10.8332 15.6123 10.7454 15.4004 10.5891 15.2441C10.4328 15.0878 10.2209 15 9.99984 15Z" stroke="black" stroke-width="1.5" stroke-linecap="round" stroke-linejoin="round"/>
</svg>
