<svg width="32" height="32" viewBox="0 0 32 32" fill="none" xmlns="http://www.w3.org/2000/svg">
<path d="M12 20L20 12" stroke="black" stroke-width="1.5" stroke-linecap="round" stroke-linejoin="round"/>
<path d="M12.6667 13.3333C13.0349 13.3333 13.3333 13.0349 13.3333 12.6667C13.3333 12.2985 13.0349 12 12.6667 12C12.2985 12 12 12.2985 12 12.6667C12 13.0349 12.2985 13.3333 12.6667 13.3333Z" stroke="black" stroke-width="1.5" stroke-linecap="round" stroke-linejoin="round"/>
<path d="M19.3333 20.0003C19.7015 20.0003 20 19.7018 20 19.3337C20 18.9655 19.7015 18.667 19.3333 18.667C18.9651 18.667 18.6666 18.9655 18.6666 19.3337C18.6666 19.7018 18.9651 20.0003 19.3333 20.0003Z" stroke="black" stroke-width="1.5" stroke-linecap="round" stroke-linejoin="round"/>
<path d="M6.66667 9.59964C6.66667 8.82167 6.97572 8.07557 7.52582 7.52546C8.07593 6.97535 8.82204 6.6663 9.6 6.6663H10.9333C11.7079 6.66586 12.4508 6.35911 13 5.81297L13.9333 4.87964C14.2059 4.60551 14.53 4.38796 14.887 4.23951C15.244 4.09107 15.6267 4.01465 16.0133 4.01465C16.3999 4.01465 16.7827 4.09107 17.1397 4.23951C17.4966 4.38796 17.8207 4.60551 18.0933 4.87964L19.0267 5.81297C19.5759 6.35911 20.3188 6.66586 21.0933 6.6663H22.4267C23.2046 6.6663 23.9507 6.97535 24.5009 7.52546C25.051 8.07557 25.36 8.82167 25.36 9.59964V10.933C25.3604 11.7075 25.6672 12.4504 26.2133 12.9996L27.1467 13.933C27.4208 14.2056 27.6383 14.5297 27.7868 14.8866C27.9352 15.2436 28.0117 15.6264 28.0117 16.013C28.0117 16.3996 27.9352 16.7824 27.7868 17.1393C27.6383 17.4963 27.4208 17.8204 27.1467 18.093L26.2133 19.0263C25.6672 19.5755 25.3604 20.3184 25.36 21.093V22.4263C25.36 23.2043 25.051 23.9504 24.5009 24.5005C23.9507 25.0506 23.2046 25.3596 22.4267 25.3596H21.0933C20.3188 25.3601 19.5759 25.6668 19.0267 26.213L18.0933 27.1463C17.8207 27.4204 17.4966 27.638 17.1397 27.7864C16.7827 27.9349 16.3999 28.0113 16.0133 28.0113C15.6267 28.0113 15.244 27.9349 14.887 27.7864C14.53 27.638 14.2059 27.4204 13.9333 27.1463L13 26.213C12.4508 25.6668 11.7079 25.3601 10.9333 25.3596H9.6C8.82204 25.3596 8.07593 25.0506 7.52582 24.5005C6.97572 23.9504 6.66667 23.2043 6.66667 22.4263V21.093C6.66623 20.3184 6.35947 19.5755 5.81334 19.0263L4.88 18.093C4.60587 17.8204 4.38833 17.4963 4.23988 17.1393C4.09143 16.7824 4.01501 16.3996 4.01501 16.013C4.01501 15.6264 4.09143 15.2436 4.23988 14.8866C4.38833 14.5297 4.60587 14.2056 4.88 13.933L5.81334 12.9996C6.35947 12.4504 6.66623 11.7075 6.66667 10.933V9.59964Z" stroke="black" stroke-width="1.5" stroke-linecap="round" stroke-linejoin="round"/>
</svg>
