<svg width="20" height="20" viewBox="0 0 20 20" fill="none" xmlns="http://www.w3.org/2000/svg">
<path d="M2.5 7.50008C2.5 7.27907 2.5878 7.06711 2.74408 6.91083C2.90036 6.75455 3.11232 6.66675 3.33333 6.66675H16.6667C16.8877 6.66675 17.0996 6.75455 17.2559 6.91083C17.4122 7.06711 17.5 7.27907 17.5 7.50008V9.16675C17.5 9.38776 17.4122 9.59972 17.2559 9.756C17.0996 9.91228 16.8877 10.0001 16.6667 10.0001H3.33333C3.11232 10.0001 2.90036 9.91228 2.74408 9.756C2.5878 9.59972 2.5 9.38776 2.5 9.16675V7.50008Z" stroke="black" stroke-width="1.5" stroke-linecap="round" stroke-linejoin="round"/>
<path d="M10 6.66675V17.5001" stroke="black" stroke-width="1.5" stroke-linecap="round" stroke-linejoin="round"/>
<path d="M15.8337 10V15.8333C15.8337 16.2754 15.6581 16.6993 15.3455 17.0118C15.0329 17.3244 14.609 17.5 14.167 17.5H5.83366C5.39163 17.5 4.96771 17.3244 4.65515 17.0118C4.34259 16.6993 4.16699 16.2754 4.16699 15.8333V10" stroke="black" stroke-width="1.5" stroke-linecap="round" stroke-linejoin="round"/>
<path d="M6.25033 6.66679C5.69779 6.66679 5.16789 6.44729 4.77719 6.05659C4.38649 5.66589 4.16699 5.13599 4.16699 4.58345C4.16699 4.03092 4.38649 3.50102 4.77719 3.11031C5.16789 2.71961 5.69779 2.50012 6.25033 2.50012C7.05423 2.48611 7.84201 2.87617 8.51094 3.61942C9.17986 4.36267 9.69889 5.42462 10.0003 6.66679C10.3018 5.42462 10.8208 4.36267 11.4897 3.61942C12.1586 2.87617 12.9464 2.48611 13.7503 2.50012C14.3029 2.50012 14.8328 2.71961 15.2235 3.11031C15.6142 3.50102 15.8337 4.03092 15.8337 4.58345C15.8337 5.13599 15.6142 5.66589 15.2235 6.05659C14.8328 6.44729 14.3029 6.66679 13.7503 6.66679" stroke="black" stroke-width="1.5" stroke-linecap="round" stroke-linejoin="round"/>
</svg>
