<svg width="22" height="22" viewBox="0 0 22 22" fill="none" xmlns="http://www.w3.org/2000/svg">
<path d="M2.20927 3C0.992087 3 0 3.98979 0 5.20697V7.32965V10.07V16.8649C0 18.082 0.992087 19.0741 2.20927 19.0741H19.79C21.0071 19.0741 22 18.082 22 16.8649V10.07V7.32965V5.20697C22 3.98979 21.0071 3 19.79 3H2.20927ZM2.20927 3.7847H19.79C20.586 3.7847 21.2153 4.41094 21.2153 5.20697V6.93577H0.784701V5.20697C0.784701 4.41094 1.41324 3.7847 2.20927 3.7847ZM0.784701 7.72124H21.2153V9.6761H0.784701V7.72124ZM0.784701 10.4608H21.2153V16.8649C21.2153 17.6609 20.586 18.2894 19.79 18.2894H2.20927C1.41324 18.2894 0.784701 17.6609 0.784701 16.8649V10.4608ZM3.18555 13.0502C3.13329 13.049 3.08133 13.0583 3.03271 13.0775C2.9841 13.0967 2.9398 13.1254 2.90243 13.1619C2.86507 13.1985 2.83538 13.2421 2.8151 13.2903C2.79483 13.3385 2.78439 13.3902 2.78439 13.4425C2.78439 13.4948 2.79483 13.5465 2.8151 13.5947C2.83538 13.6429 2.86507 13.6865 2.90243 13.7231C2.9398 13.7596 2.9841 13.7883 3.03271 13.8075C3.08133 13.8267 3.13329 13.836 3.18555 13.8349H8.12365C8.2262 13.8326 8.32379 13.7902 8.39551 13.7169C8.46723 13.6436 8.50739 13.5451 8.50739 13.4425C8.50739 13.3399 8.46723 13.2414 8.39551 13.1681C8.32379 13.0948 8.2262 13.0524 8.12365 13.0502H3.18555ZM3.18555 15.1705C3.1333 15.1694 3.08133 15.1787 3.03272 15.1979C2.9841 15.2171 2.93981 15.2458 2.90244 15.2823C2.86508 15.3189 2.83539 15.3625 2.81512 15.4107C2.79485 15.4589 2.78441 15.5106 2.78441 15.5629C2.78441 15.6152 2.79485 15.6669 2.81512 15.7151C2.83539 15.7633 2.86508 15.8069 2.90244 15.8435C2.93981 15.88 2.9841 15.9087 3.03272 15.9279C3.08133 15.9471 3.1333 15.9564 3.18555 15.9552H5.29444C5.34669 15.9564 5.39865 15.9471 5.44727 15.9279C5.49589 15.9087 5.54018 15.88 5.57754 15.8435C5.61491 15.8069 5.6446 15.7633 5.66487 15.7151C5.68514 15.6669 5.69558 15.6152 5.69558 15.5629C5.69558 15.5106 5.68514 15.4589 5.66487 15.4107C5.6446 15.3625 5.61491 15.3189 5.57754 15.2823C5.54018 15.2458 5.49589 15.2171 5.44727 15.1979C5.39865 15.1787 5.34669 15.1694 5.29444 15.1705H3.18555Z" fill="#FF8926"/>
<path d="M15.7658 12.8445H17.3408C17.5942 12.8445 17.8008 12.8812 17.9608 12.9545C18.1208 13.0278 18.2442 13.1195 18.3308 13.2295C18.4175 13.3395 18.4758 13.4595 18.5058 13.5895C18.5392 13.7195 18.5558 13.8395 18.5558 13.9495C18.5558 14.0595 18.5392 14.1795 18.5058 14.3095C18.4758 14.4362 18.4175 14.5545 18.3308 14.6645C18.2442 14.7745 18.1208 14.8662 17.9608 14.9395C17.8008 15.0095 17.5942 15.0445 17.3408 15.0445H16.3908V16.4145H15.7658V12.8445ZM16.3908 14.5345H17.3058C17.3758 14.5345 17.4475 14.5245 17.5208 14.5045C17.5942 14.4845 17.6608 14.4528 17.7208 14.4095C17.7842 14.3628 17.8342 14.3028 17.8708 14.2295C17.9108 14.1528 17.9308 14.0578 17.9308 13.9445C17.9308 13.8278 17.9142 13.7312 17.8808 13.6545C17.8475 13.5778 17.8025 13.5178 17.7458 13.4745C17.6892 13.4278 17.6242 13.3962 17.5508 13.3795C17.4775 13.3628 17.3992 13.3545 17.3158 13.3545H16.3908V14.5345Z" fill="#FF8926"/>
</svg>
