<svg width="24" height="20" viewBox="0 0 24 20" fill="none" xmlns="http://www.w3.org/2000/svg">
<g id="Group">
<path id="Vector" d="M19.3862 9.78573C19.3862 5.7131 16.0732 2.40006 12.0005 2.40006C7.92788 2.40006 4.61484 5.7131 4.61484 9.78573C4.61484 13.8584 7.92788 17.1714 12.0005 17.1714C16.0732 17.1714 19.3862 13.8584 19.3862 9.78573ZM12.0005 16.1143C8.51105 16.1143 5.67198 13.2752 5.67198 9.78573C5.67198 6.29627 8.51105 3.4572 12.0005 3.4572C15.4902 3.4572 18.3291 6.29627 18.3291 9.78573C18.3291 13.2752 15.4902 16.1143 12.0005 16.1143Z" fill="#818181" stroke="#818181" stroke-width="0.2"/>
<path id="Vector_2" d="M9.80619 8.6507C9.86358 8.87653 9.9988 9.18967 10.3121 9.49638C10.6253 9.80291 11.1119 10.0987 11.8657 10.297L11.8657 10.297C12.2436 10.3964 12.55 10.5302 12.7723 10.6849C12.9953 10.84 13.1262 11.0105 13.1697 11.1817L13.1697 11.1818C13.2201 11.3791 13.152 11.5949 12.9615 11.7744C12.7135 12.0081 12.374 12.0991 12.0171 12.1129C12.0123 12.1121 12.0066 12.1115 12.0001 12.1115C11.9907 12.1115 11.9828 12.1127 11.9771 12.1139C11.6267 12.1217 11.2744 12.0557 11.0056 11.9858C10.8704 11.9506 10.7574 11.9147 10.6777 11.8874C10.6014 11.8613 10.5567 11.8434 10.5528 11.8418C10.5526 11.8418 10.5525 11.8417 10.5526 11.8417L10.5526 11.8417L10.5512 11.8411C10.2827 11.7308 9.97312 11.8575 9.86099 12.1271L9.86097 12.1272C9.74931 12.3962 9.87606 12.7051 10.1453 12.8173C10.1454 12.8173 10.1454 12.8174 10.1455 12.8174L10.1839 12.7251M9.80619 8.6507L11.4716 14.0714C11.4716 14.3633 11.7082 14.6 12.0001 14.6C12.292 14.6 12.5287 14.3633 12.5287 14.0714V13.1133M9.80619 8.6507C9.65833 8.07007 9.85178 7.46341 10.3139 7.02775L9.80619 8.6507ZM10.1839 12.7251C10.2308 12.7447 10.8329 12.9897 11.5716 13.0543M10.1839 12.7251C9.96567 12.6343 9.86273 12.3838 9.95333 12.1655C10.0442 11.947 10.2953 11.8441 10.5131 11.9336L10.1839 12.7251ZM11.5716 13.0543H11.4716V13.145C11.5017 13.1482 11.5322 13.1512 11.5628 13.1539L11.5716 13.0543ZM11.5716 13.0543V14.0714C11.5716 14.3081 11.7635 14.5 12.0001 14.5C12.2368 14.5 12.4287 14.3081 12.4287 14.0714V13.0293M12.4287 13.0293L12.4445 13.128C12.4726 13.1235 12.5007 13.1186 12.5287 13.1133M12.4287 13.0293C12.8525 12.9613 13.2711 12.798 13.6177 12.471L12.5287 13.1133M12.4287 13.0293H12.5287V13.1133M14.1942 10.9208C14.1942 10.9208 14.1942 10.9208 14.1942 10.9208L14.0973 10.9455L14.1942 10.9208ZM14.1942 10.9208C14.1368 10.6951 14.0016 10.3819 13.6882 10.0752C13.3751 9.76861 12.8885 9.47276 12.1346 9.27447L12.1092 9.37118L12.1346 9.27447C11.7568 9.17509 11.4504 9.04128 11.2281 8.8867C11.0051 8.73167 10.8742 8.56121 10.8306 8.39002C10.7804 8.19244 10.8485 7.97662 11.0391 7.7969C11.2872 7.56325 11.627 7.47232 11.9842 7.4588C11.9887 7.45948 11.9941 7.45999 12.0001 7.45999C12.009 7.45999 12.0165 7.4589 12.022 7.45779C12.3727 7.44991 12.7253 7.51586 12.9945 7.58581C13.1298 7.62097 13.243 7.65686 13.3228 7.68415C13.3627 7.69779 13.3942 7.70927 13.4159 7.7174C13.4379 7.72567 13.4493 7.73031 13.4491 7.73023L13.4495 7.73038C13.7192 7.8415 14.0279 7.71369 14.1395 7.44433L14.1396 7.44429C14.2509 7.17519 14.1243 6.86654 13.8553 6.75431C13.8552 6.75426 13.8551 6.75421 13.855 6.75416L13.8165 6.84648C13.7699 6.82685 13.1672 6.58312 12.4287 6.51832L14.1942 10.9208ZM12.5287 6.42765V5.50004C12.5287 5.20816 12.292 4.97147 12.0001 4.97147C11.7082 4.97147 11.4716 5.20816 11.4716 5.50004V6.45957C11.0618 6.53747 10.6555 6.70558 10.3139 7.02773L12.5287 6.42765ZM12.0123 7.45803L12.0124 7.45802L12.0123 7.45803Z" fill="#818181" stroke="#818181" stroke-width="0.2"/>
<path id="Vector_3" d="M2.34753 8.44085L2.39591 8.52836C2.40061 8.52576 2.40383 8.52424 2.4088 8.52189C2.41248 8.52015 2.41713 8.51796 2.42405 8.51453C2.43701 8.50811 2.455 8.49859 2.47307 8.48415L2.47309 8.48413L4.61587 6.76991C4.84402 6.58769 4.88097 6.25501 4.69858 6.02709C4.51633 5.79852 4.18338 5.76236 3.95569 5.94441L3.95567 5.94443L2.3738 8.5417C2.37953 8.53828 2.38315 8.53604 2.38605 8.53424C2.38967 8.532 2.39219 8.53045 2.3963 8.52815L2.34753 8.44085ZM2.34753 8.44085C2.342 8.44394 2.33667 8.44721 2.33137 8.45046C2.32021 8.45732 2.30916 8.46411 2.29657 8.46896L4.55346 6.69177L2.41062 8.40605C2.39769 8.41638 2.38339 8.4232 2.36907 8.43003C2.36184 8.43348 2.3546 8.43694 2.34753 8.44085ZM2.75998 7.02894C2.76768 6.97949 2.77593 6.93021 2.7847 6.88111L2.75998 7.02894ZM2.75998 7.02894L2.64534 7.12064L2.75998 7.02894ZM1.9273 8.55226C1.99177 8.5812 2.06415 8.59999 2.14293 8.59999C2.21004 8.59999 2.27412 8.58485 2.33256 8.56226L1.87859 8.52095L1.87826 8.52075M1.9273 8.55226L1.96824 8.46105L1.92749 8.55235C1.92742 8.55232 1.92736 8.55229 1.9273 8.55226ZM1.9273 8.55226C1.90869 8.54392 1.89447 8.53307 1.88773 8.52791L1.87967 8.52176C1.87888 8.52118 1.87843 8.52087 1.87826 8.52075M1.87826 8.52075C1.83721 8.49648 1.79472 8.46678 1.75717 8.42641C1.75533 8.42515 1.75323 8.42364 1.75106 8.42196C1.74516 8.41742 1.73757 8.41078 1.73018 8.40153L1.87826 8.52075ZM0.0159215 6.25871L1.73012 8.40146L0.0984875 5.51587C-0.12962 5.69812 -0.166519 6.03079 0.0159004 6.25869C0.0159074 6.25869 0.0159145 6.2587 0.0159215 6.25871ZM0.841322 5.59846L0.763241 5.66093L1.7406 6.72237L0.841423 5.59858L0.841322 5.59846Z" fill="#818181" stroke="#818181" stroke-width="0.2"/>
<path id="Vector_4" d="M23.984 13.7413L23.984 13.7413C24.1663 13.9692 24.1291 14.3019 23.9014 14.4841L23.9014 14.4842C23.804 14.562 23.6872 14.6 23.5715 14.6C23.4164 14.6 23.263 14.5321 23.1583 14.4016L23.1582 14.4015L22.2591 13.2777C21.6172 16.9443 18.4191 19.7428 14.5711 19.7428C14.279 19.7428 14.0426 19.5061 14.0426 19.2142C14.0426 18.9224 14.279 18.6857 14.5711 18.6857C17.8897 18.6857 20.6504 16.2781 21.215 13.119L20.0443 14.0556L20.0443 14.0556C19.8156 14.2385 19.4836 14.2007 19.3011 13.973L19.301 13.9729C19.1188 13.745 19.156 13.4123 19.3836 13.2301L19.3836 13.2301L21.5265 11.5159L21.5265 11.5158C21.5452 11.5009 21.5639 11.4927 21.5736 11.4886L21.5845 11.4839C21.5856 11.4835 21.5861 11.4832 21.5864 11.4831C21.5865 11.483 21.5865 11.483 21.5865 11.483L21.5875 11.4824C21.6118 11.4675 21.6443 11.4477 21.6834 11.434L21.6836 11.4339C21.7227 11.4203 21.7604 11.4155 21.7888 11.4119L21.7893 11.4118M23.984 13.7413L21.8028 11.5109M23.984 13.7413L22.2697 11.5985L22.2696 11.5983C22.263 11.59 22.2563 11.5839 22.251 11.5795C22.2478 11.5769 22.2447 11.5746 22.2425 11.5731M23.984 13.7413L22.1737 11.6459M21.7893 11.4118L21.7897 11.4118M21.7893 11.4118C21.7893 11.4119 21.7894 11.4118 21.7897 11.4118M21.7893 11.4118C21.7894 11.4118 21.79 11.4117 21.7915 11.4113L21.803 11.4082C21.8131 11.4054 21.8329 11.4 21.8568 11.4C21.8675 11.4 21.8765 11.4014 21.8832 11.4028C21.8874 11.4037 21.8912 11.4047 21.8938 11.4054M21.7897 11.4118L21.7903 11.4117L21.8028 11.5109M21.7897 11.4118L21.8028 11.5109M21.8938 11.4054C21.891 11.4052 21.8882 11.405 21.8854 11.4048L21.8799 11.5047M21.8938 11.4054C21.895 11.4057 21.8959 11.406 21.8966 11.4062L21.8968 11.4063C21.8982 11.4067 21.8987 11.4068 21.8987 11.4068C21.8987 11.4068 21.8981 11.4067 21.8975 11.4065C21.8957 11.4061 21.8914 11.4052 21.8857 11.4048L21.8799 11.5047M21.8938 11.4054C21.929 11.4083 21.9614 11.4171 21.9847 11.4235C21.9873 11.4242 21.9899 11.4249 21.9923 11.4255L21.9925 11.4256C21.9953 11.4263 21.9988 11.4272 22.0028 11.4282C22.0229 11.4333 22.0561 11.4416 22.085 11.4556L22.0415 11.5456L22.0848 11.4555C22.1127 11.4689 22.1396 11.4893 22.1552 11.5012C22.1585 11.5037 22.1614 11.5059 22.1636 11.5075L22.1638 11.5076V11.5076C22.1657 11.509 22.1677 11.5104 22.1697 11.5119C22.1899 11.5265 22.2176 11.5467 22.2425 11.5731M21.8799 11.5047C21.8761 11.5044 21.8725 11.5034 21.869 11.5023C21.8651 11.5012 21.8611 11.5 21.8568 11.5C21.8457 11.5 21.8355 11.5029 21.8252 11.5058C21.8179 11.5078 21.8106 11.5099 21.8028 11.5109M21.8799 11.5047C21.9073 11.5062 21.9328 11.5131 21.9592 11.5202C21.9616 11.5208 21.964 11.5215 21.9664 11.5221L22.1049 11.5884C22.1066 11.5897 22.1083 11.5909 22.11 11.5921C22.1328 11.6087 22.1549 11.6248 22.1737 11.6459M22.2425 11.5731C22.2415 11.5723 22.2406 11.5717 22.24 11.5713L22.2399 11.5712C22.2386 11.5703 22.2382 11.57 22.2382 11.57C22.2382 11.57 22.2388 11.5704 22.2393 11.5708C22.2408 11.572 22.2442 11.5747 22.2481 11.5791L22.1737 11.6459M22.2425 11.5731C22.2445 11.5751 22.2464 11.5772 22.2483 11.5794L22.1737 11.6459M21.6379 11.5688L21.5861 11.4832L21.5857 11.4835L21.6379 11.5688Z" fill="#818181" stroke="#818181" stroke-width="0.2"/>
</g>
</svg>
