<svg width="78" height="27" viewBox="0 0 78 27" fill="none" xmlns="http://www.w3.org/2000/svg">
<path d="M3.5459 22.9102V4.91016H21.5459V22.9102H3.5459Z" stroke="#F6FFFE" stroke-width="6"/>
<path d="M34.4419 10.0542C34.4419 10.3822 34.4979 10.6622 34.6099 10.8942C34.7219 11.1262 34.8779 11.3182 35.0779 11.4702C35.2779 11.6142 35.5059 11.7222 35.7619 11.7942C36.0259 11.8582 36.3099 11.8902 36.6139 11.8902C36.9419 11.8902 37.2219 11.8542 37.4539 11.7822C37.6859 11.7022 37.8739 11.6022 38.0179 11.4822C38.1619 11.3622 38.2659 11.2262 38.3299 11.0742C38.3939 10.9142 38.4259 10.7542 38.4259 10.5942C38.4259 10.2662 38.3499 10.0262 38.1979 9.87416C38.0539 9.71416 37.8939 9.60216 37.7179 9.53816C37.4139 9.42616 37.0579 9.32216 36.6499 9.22616C36.2499 9.12216 35.7539 8.99016 35.1619 8.83016C34.7939 8.73416 34.4859 8.61016 34.2379 8.45816C33.9979 8.29816 33.8059 8.12216 33.6619 7.93016C33.5179 7.73816 33.4139 7.53416 33.3499 7.31816C33.2939 7.10216 33.2659 6.88216 33.2659 6.65816C33.2659 6.22616 33.3539 5.85416 33.5299 5.54216C33.7139 5.22216 33.9539 4.95816 34.2499 4.75016C34.5459 4.54216 34.8819 4.39016 35.2579 4.29416C35.6339 4.19016 36.0139 4.13816 36.3979 4.13816C36.8459 4.13816 37.2659 4.19816 37.6579 4.31816C38.0579 4.43016 38.4059 4.60216 38.7019 4.83416C39.0059 5.06616 39.2459 5.35416 39.4219 5.69816C39.5979 6.03416 39.6859 6.42616 39.6859 6.87416H38.1859C38.1459 6.32216 37.9579 5.93416 37.6219 5.71016C37.2859 5.47816 36.8579 5.36216 36.3379 5.36216C36.1619 5.36216 35.9819 5.38216 35.7979 5.42216C35.6139 5.45416 35.4459 5.51416 35.2939 5.60216C35.1419 5.68216 35.0139 5.79416 34.9099 5.93816C34.8139 6.08216 34.7659 6.26216 34.7659 6.47816C34.7659 6.78216 34.8579 7.02216 35.0419 7.19816C35.2339 7.36616 35.4819 7.49416 35.7859 7.58216C35.8179 7.59016 35.9419 7.62616 36.1579 7.69016C36.3819 7.74616 36.6299 7.81016 36.9019 7.88216C37.1739 7.95416 37.4379 8.02616 37.6939 8.09816C37.9579 8.16216 38.1459 8.21016 38.2579 8.24216C38.5379 8.33016 38.7819 8.45016 38.9899 8.60216C39.1979 8.75416 39.3699 8.93016 39.5059 9.13016C39.6499 9.32216 39.7539 9.53016 39.8179 9.75416C39.8899 9.97816 39.9259 10.2022 39.9259 10.4262C39.9259 10.9062 39.8259 11.3182 39.6259 11.6622C39.4339 11.9982 39.1779 12.2742 38.8579 12.4902C38.5379 12.7062 38.1739 12.8622 37.7659 12.9582C37.3579 13.0622 36.9419 13.1142 36.5179 13.1142C36.0299 13.1142 35.5699 13.0542 35.1379 12.9342C34.7059 12.8142 34.3299 12.6302 34.0099 12.3822C33.6899 12.1342 33.4339 11.8182 33.2419 11.4342C33.0499 11.0422 32.9499 10.5822 32.9419 10.0542H34.4419ZM41.2151 4.34216H43.3271L45.6911 11.0502H45.7151L48.0191 4.34216H50.1071V12.9102H48.6791V6.29816H48.6551L46.2791 12.9102H45.0431L42.6671 6.29816H42.6431V12.9102H41.2151V4.34216ZM54.1952 4.34216H55.7912L59.0912 12.9102H57.4832L56.6792 10.6422H53.2592L52.4552 12.9102H50.9072L54.1952 4.34216ZM53.6672 9.50216H56.2832L54.9992 5.81816H54.9632L53.6672 9.50216ZM59.9071 4.34216H63.9991C64.9431 4.34216 65.6511 4.54616 66.1231 4.95416C66.5951 5.36216 66.8311 5.93016 66.8311 6.65816C66.8311 7.06616 66.7711 7.40616 66.6511 7.67816C66.5311 7.94216 66.3911 8.15816 66.2311 8.32616C66.0711 8.48616 65.9111 8.60216 65.7511 8.67416C65.5991 8.74616 65.4871 8.79416 65.4151 8.81816V8.84216C65.5431 8.85816 65.6791 8.89816 65.8231 8.96216C65.9751 9.02616 66.1151 9.13016 66.2431 9.27416C66.3711 9.41016 66.4751 9.59016 66.5551 9.81416C66.6431 10.0382 66.6871 10.3182 66.6871 10.6542C66.6871 11.1582 66.7231 11.6182 66.7951 12.0342C66.8751 12.4422 66.9951 12.7342 67.1551 12.9102H65.5471C65.4351 12.7262 65.3671 12.5222 65.3431 12.2982C65.3271 12.0742 65.3191 11.8582 65.3191 11.6502C65.3191 11.2582 65.2951 10.9222 65.2471 10.6422C65.1991 10.3542 65.1111 10.1182 64.9831 9.93416C64.8551 9.74216 64.6791 9.60216 64.4551 9.51416C64.2391 9.42616 63.9591 9.38216 63.6151 9.38216H61.4071V12.9102H59.9071V4.34216ZM61.4071 8.24216H63.8671C64.3471 8.24216 64.7111 8.13016 64.9591 7.90616C65.2071 7.67416 65.3311 7.33016 65.3311 6.87416C65.3311 6.60216 65.2911 6.38216 65.2111 6.21416C65.1311 6.03816 65.0191 5.90216 64.8751 5.80616C64.7391 5.71016 64.5791 5.64616 64.3951 5.61416C64.2191 5.58216 64.0351 5.56616 63.8431 5.56616H61.4071V8.24216ZM67.3294 4.34216H74.2654V5.63816H71.5414V12.9102H70.0414V5.63816H67.3294V4.34216Z" fill="#F6FFFE"/>
<path d="M34.9579 19.9302H37.4059C37.7659 19.9302 38.0659 19.8302 38.3059 19.6302C38.5459 19.4222 38.6659 19.1262 38.6659 18.7422C38.6659 18.3102 38.5579 18.0062 38.3419 17.8302C38.1259 17.6542 37.8139 17.5662 37.4059 17.5662H34.9579V19.9302ZM33.4579 16.3422H37.6219C38.3899 16.3422 39.0059 16.5182 39.4699 16.8702C39.9339 17.2222 40.1659 17.7542 40.1659 18.4662C40.1659 18.8982 40.0579 19.2702 39.8419 19.5822C39.6339 19.8862 39.3339 20.1222 38.9419 20.2902V20.3142C39.4699 20.4262 39.8699 20.6782 40.1419 21.0702C40.4139 21.4542 40.5499 21.9382 40.5499 22.5222C40.5499 22.8582 40.4899 23.1742 40.3699 23.4702C40.2499 23.7582 40.0619 24.0102 39.8059 24.2262C39.5499 24.4342 39.2219 24.6022 38.8219 24.7302C38.4219 24.8502 37.9459 24.9102 37.3939 24.9102H33.4579V16.3422ZM34.9579 23.6862H37.6099C38.0659 23.6862 38.4179 23.5702 38.6659 23.3382C38.9219 23.0982 39.0499 22.7622 39.0499 22.3302C39.0499 21.9062 38.9219 21.5822 38.6659 21.3582C38.4179 21.1262 38.0659 21.0102 37.6099 21.0102H34.9579V23.6862ZM44.1991 16.3422H45.7951L49.0951 24.9102H47.4871L46.6831 22.6422H43.2631L42.4591 24.9102H40.9111L44.1991 16.3422ZM43.6711 21.5022H46.2871L45.0031 17.8182H44.9671L43.6711 21.5022ZM49.851 16.3422H51.435L55.347 22.6542H55.371V16.3422H56.799V24.9102H55.215L51.315 18.6102H51.279V24.9102H49.851V16.3422ZM58.5712 16.3422H60.0712V20.2422L63.8872 16.3422H65.7352L62.3152 19.7622L65.9752 24.9102H64.1032L61.2952 20.8182L60.0712 22.0302V24.9102H58.5712V16.3422Z" fill="#F6FFFE"/>
</svg>
