<svg width="32" height="32" viewBox="0 0 32 32" fill="none" xmlns="http://www.w3.org/2000/svg">
<g clip-path="url(#clip0_27385_50666)">
<path d="M29.4078 1.00006L19.4713 10.0333H16.8742L16.4226 3.93585C17.6872 2.6712 25.6063 1.45172 29.4078 1.00006Z" fill="#00508C"/>
<path d="M15.2934 10.0333L14.9547 4.38751C13.2384 4.56817 8.9702 7.77495 7.05065 9.35576L8.74437 20.6473L9.98643 19.4052C7.45714 12.7206 12.4706 10.372 15.2934 10.0333Z" fill="#00508C"/>
<path d="M29.4078 1.00006L19.4713 10.0333H16.8742L16.4226 3.93585C17.6872 2.6712 25.6063 1.45172 29.4078 1.00006Z" stroke="#00508C" stroke-width="0.235914"/>
<path d="M15.2934 10.0333L14.9547 4.38751C13.2384 4.56817 8.9702 7.77495 7.05065 9.35576L8.74437 20.6473L9.98643 19.4052C7.45714 12.7206 12.4706 10.372 15.2934 10.0333Z" stroke="#00508C" stroke-width="0.235914"/>
<path d="M30.424 9.9204H21.7295L30.8756 1.79053C31.237 3.32617 30.7251 7.85029 30.424 9.9204Z" fill="#00508C" stroke="#00508C" stroke-width="0.235914"/>
<path d="M7.38943 22.1152L5.69571 10.5978C0.908117 14.8434 0.689815 24.938 1.17911 29.4546L7.38943 22.1152Z" fill="#00508C" stroke="#00508C" stroke-width="0.235914"/>
<path d="M8.40569 23.2443L1.74372 31.3742C9.0606 33.3615 17.8153 29.9439 21.278 27.9867L8.40569 23.2443Z" fill="#00508C" stroke="#00508C" stroke-width="0.235914"/>
<path d="M10.7769 20.6473L9.53481 21.8893L22.6329 26.9705C23.2653 26.6092 25.0041 24.0347 25.7946 22.7927H15.4064C13.2384 22.7927 11.4167 21.3624 10.7769 20.6473Z" fill="#00508C" stroke="#00508C" stroke-width="0.235914"/>
<path d="M15.7383 12.3604H18.1029L19.8898 17.614H19.9112L21.6017 12.3604H23.9663V20H22.3935V14.586H22.3721L20.4996 20H19.205L17.3325 14.6395H17.3111V20H15.7383V12.3604Z" fill="#00508C"/>
</g>
<defs>
<clipPath id="clip0_27385_50666">
<rect width="32" height="32" fill="white"/>
</clipPath>
</defs>
</svg>
