<svg width="162" height="46" viewBox="0 0 162 46" fill="none" xmlns="http://www.w3.org/2000/svg">
<path d="M20.05 17.1348H23.413L25.9543 24.6065H25.9848L28.3891 17.1348H31.7521V28H29.5152V20.3H29.4848L26.8217 28H24.9804L22.3174 20.3761H22.2869V28H20.05V17.1348ZM35.8491 18.9152H33.6882V17.1348H35.8491V18.9152ZM33.6882 20.1326H35.8491V28H33.6882V20.1326ZM37.5505 20.1326H39.6049V21.2283H39.6505C39.9244 20.7718 40.2795 20.4421 40.7157 20.2392C41.152 20.0261 41.5984 19.9196 42.0549 19.9196C42.6331 19.9196 43.1049 20.0007 43.4701 20.1631C43.8454 20.3152 44.1397 20.5334 44.3527 20.8174C44.5657 21.0913 44.7128 21.4312 44.794 21.837C44.8853 22.2326 44.931 22.6739 44.931 23.1609V28H42.7701V23.5565C42.7701 22.9073 42.6686 22.4254 42.4657 22.1109C42.2628 21.7862 41.9027 21.6239 41.3853 21.6239C40.7969 21.6239 40.3708 21.8015 40.1071 22.1565C39.8433 22.5015 39.7114 23.0747 39.7114 23.8761V28H37.5505V20.1326ZM49.3101 20.1326H50.8927V21.5783H49.3101V25.4739C49.3101 25.8391 49.371 26.0826 49.4927 26.2044C49.6144 26.3261 49.8579 26.387 50.2231 26.387C50.3449 26.387 50.4615 26.3819 50.5731 26.3717C50.6847 26.3616 50.7913 26.3464 50.8927 26.3261V28C50.7101 28.0304 50.5072 28.0507 50.284 28.0609C50.0608 28.071 49.8427 28.0761 49.6297 28.0761C49.2949 28.0761 48.9753 28.0507 48.671 28C48.3768 27.9594 48.113 27.8732 47.8797 27.7413C47.6565 27.6094 47.4789 27.4217 47.3471 27.1783C47.2152 26.9348 47.1492 26.6152 47.1492 26.2196V21.5783H45.8405V20.1326H47.1492V17.7739H49.3101V20.1326ZM52.1491 17.1348H54.5382V21.3044H58.936V17.1348H61.3251V28H58.936V23.3131H54.5382V28H52.1491V17.1348ZM63.1088 22.5522C63.1392 22.0449 63.266 21.6239 63.4892 21.2892C63.7124 20.9544 63.9965 20.6855 64.3414 20.4826C64.6863 20.2797 65.0718 20.1377 65.4979 20.0565C65.9341 19.9652 66.3704 19.9196 66.8066 19.9196C67.2023 19.9196 67.603 19.95 68.0088 20.0109C68.4146 20.0616 68.7849 20.1681 69.1196 20.3305C69.4544 20.4928 69.7283 20.721 69.9414 21.0152C70.1544 21.2993 70.2609 21.6797 70.2609 22.1565V26.25C70.2609 26.6051 70.2812 26.9449 70.3218 27.2696C70.3624 27.5942 70.4334 27.8377 70.5349 28H68.3436C68.303 27.8783 68.2675 27.7565 68.237 27.6348C68.2167 27.5029 68.2015 27.371 68.1914 27.2391C67.8465 27.5942 67.4407 27.8428 66.974 27.9848C66.5073 28.1268 66.0305 28.1978 65.5436 28.1978C65.1682 28.1978 64.8182 28.1522 64.4936 28.0609C64.1689 27.9696 63.8849 27.8275 63.6414 27.6348C63.3979 27.442 63.2052 27.1986 63.0631 26.9044C62.9313 26.6101 62.8653 26.2602 62.8653 25.8544C62.8653 25.408 62.9414 25.0428 63.0936 24.7587C63.2559 24.4645 63.4588 24.2312 63.7023 24.0587C63.9559 23.8862 64.2399 23.7594 64.5544 23.6783C64.8791 23.587 65.2037 23.516 65.5283 23.4652C65.853 23.4145 66.1725 23.3739 66.487 23.3435C66.8015 23.3131 67.0805 23.2674 67.324 23.2065C67.5675 23.1457 67.7602 23.0594 67.9022 22.9478C68.0443 22.8261 68.1102 22.6536 68.1001 22.4305C68.1001 22.1971 68.0595 22.0145 67.9783 21.8826C67.9073 21.7406 67.8059 21.6341 67.674 21.5631C67.5523 21.4819 67.4052 21.4312 67.2327 21.4109C67.0704 21.3805 66.8928 21.3652 66.7001 21.3652C66.274 21.3652 65.9392 21.4565 65.6957 21.6391C65.4523 21.8218 65.3102 22.1261 65.2696 22.5522H63.1088ZM68.1001 24.15C68.0088 24.2312 67.8921 24.2971 67.7501 24.3478C67.6182 24.3884 67.4711 24.4239 67.3088 24.4544C67.1566 24.4848 66.9943 24.5102 66.8218 24.5304C66.6494 24.5507 66.4769 24.5761 66.3044 24.6065C66.1421 24.637 65.9798 24.6775 65.8175 24.7283C65.6653 24.779 65.5283 24.85 65.4066 24.9413C65.295 25.0225 65.2037 25.129 65.1327 25.2609C65.0617 25.3928 65.0262 25.5602 65.0262 25.7631C65.0262 25.9558 65.0617 26.1181 65.1327 26.25C65.2037 26.3819 65.3001 26.4884 65.4218 26.5696C65.5436 26.6406 65.6856 26.6913 65.8479 26.7217C66.0102 26.7522 66.1776 26.7674 66.3501 26.7674C66.7762 26.7674 67.1059 26.6964 67.3392 26.5544C67.5725 26.4123 67.745 26.2449 67.8566 26.0522C67.9682 25.8493 68.0341 25.6464 68.0544 25.4435C68.0849 25.2406 68.1001 25.0783 68.1001 24.9565V24.15ZM76.2903 28H73.886L71.1925 20.1326H73.4599L75.1186 25.5044H75.149L76.8077 20.1326H78.9534L76.2903 28ZM85.1397 23.2218C85.0382 22.6739 84.8556 22.258 84.5919 21.9739C84.3383 21.6899 83.9477 21.5478 83.4201 21.5478C83.0752 21.5478 82.7861 21.6087 82.5527 21.7305C82.3296 21.842 82.147 21.9841 82.0049 22.1565C81.873 22.329 81.7767 22.5116 81.7158 22.7044C81.6651 22.8971 81.6346 23.0696 81.6245 23.2218H85.1397ZM81.6245 24.5913C81.6549 25.2913 81.8325 25.7986 82.1571 26.113C82.4817 26.4275 82.9484 26.5848 83.5571 26.5848C83.9933 26.5848 84.3687 26.4783 84.6832 26.2652C84.9977 26.042 85.1904 25.8087 85.2614 25.5652H87.1636C86.8593 26.5087 86.3926 27.1833 85.7636 27.5891C85.1346 27.9949 84.3738 28.1978 83.481 28.1978C82.8622 28.1978 82.3042 28.1014 81.8071 27.9087C81.31 27.7058 80.889 27.4217 80.5441 27.0565C80.1991 26.6913 79.9303 26.2551 79.7375 25.7478C79.5549 25.2406 79.4636 24.6826 79.4636 24.0739C79.4636 23.4855 79.56 22.9377 79.7528 22.4305C79.9455 21.9232 80.2194 21.487 80.5745 21.1218C80.9296 20.7464 81.3506 20.4522 81.8375 20.2392C82.3346 20.0261 82.8825 19.9196 83.481 19.9196C84.1506 19.9196 84.7339 20.0515 85.231 20.3152C85.7281 20.5689 86.1339 20.9138 86.4484 21.35C86.773 21.7863 87.0064 22.2833 87.1484 22.8413C87.2904 23.3993 87.3411 23.9826 87.3006 24.5913H81.6245ZM88.5822 20.1326H90.6365V21.2283H90.6821C90.9561 20.7718 91.3111 20.4421 91.7474 20.2392C92.1836 20.0261 92.63 19.9196 93.0865 19.9196C93.6647 19.9196 94.1365 20.0007 94.5017 20.1631C94.8771 20.3152 95.1713 20.5334 95.3843 20.8174C95.5973 21.0913 95.7444 21.4312 95.8256 21.837C95.9169 22.2326 95.9626 22.6739 95.9626 23.1609V28H93.8017V23.5565C93.8017 22.9073 93.7003 22.4254 93.4974 22.1109C93.2945 21.7862 92.9343 21.6239 92.4169 21.6239C91.8285 21.6239 91.4024 21.8015 91.1387 22.1565C90.8749 22.5015 90.743 23.0747 90.743 23.8761V28H88.5822V20.1326Z" fill="#00508C"/>
<path d="M103.694 24.3935C103.694 24.7587 103.76 25.0681 103.892 25.3217C104.024 25.5754 104.197 25.7833 104.41 25.9457C104.633 26.0978 104.891 26.2145 105.186 26.2957C105.48 26.3667 105.784 26.4022 106.099 26.4022C106.312 26.4022 106.54 26.387 106.784 26.3565C107.027 26.3159 107.255 26.2449 107.468 26.1435C107.681 26.042 107.859 25.9051 108.001 25.7326C108.143 25.55 108.214 25.3217 108.214 25.0478C108.214 24.7536 108.118 24.5152 107.925 24.3326C107.742 24.15 107.499 23.9978 107.194 23.8761C106.89 23.7544 106.545 23.6478 106.16 23.5565C105.774 23.4652 105.384 23.3638 104.988 23.2522C104.582 23.1507 104.186 23.029 103.801 22.887C103.415 22.7348 103.07 22.542 102.766 22.3087C102.462 22.0754 102.213 21.7863 102.02 21.4413C101.838 21.0863 101.747 20.6602 101.747 20.1631C101.747 19.6051 101.863 19.1232 102.097 18.7174C102.34 18.3015 102.655 17.9566 103.04 17.6826C103.426 17.4087 103.862 17.2058 104.349 17.0739C104.836 16.9421 105.323 16.8761 105.81 16.8761C106.378 16.8761 106.92 16.9421 107.438 17.0739C107.965 17.1957 108.432 17.3986 108.838 17.6826C109.244 17.9667 109.563 18.3319 109.797 18.7783C110.04 19.2145 110.162 19.7471 110.162 20.3761H107.849C107.828 20.0515 107.757 19.7826 107.636 19.5696C107.524 19.3565 107.372 19.1892 107.179 19.0674C106.986 18.9457 106.763 18.8594 106.51 18.8087C106.266 18.758 105.997 18.7326 105.703 18.7326C105.51 18.7326 105.318 18.7529 105.125 18.7935C104.932 18.8341 104.755 18.9051 104.592 19.0065C104.44 19.108 104.313 19.2348 104.212 19.387C104.11 19.5392 104.06 19.7319 104.06 19.9652C104.06 20.1783 104.1 20.3507 104.181 20.4826C104.263 20.6145 104.42 20.7363 104.653 20.8478C104.897 20.9594 105.226 21.071 105.642 21.1826C106.068 21.2942 106.621 21.4363 107.301 21.6087C107.504 21.6493 107.783 21.7254 108.138 21.837C108.503 21.9384 108.863 22.1058 109.218 22.3391C109.573 22.5725 109.878 22.887 110.131 23.2826C110.395 23.6681 110.527 24.1652 110.527 24.7739C110.527 25.271 110.431 25.7326 110.238 26.1587C110.045 26.5848 109.756 26.9551 109.37 27.2696C108.995 27.5739 108.523 27.8123 107.955 27.9848C107.397 28.1572 106.748 28.2435 106.007 28.2435C105.409 28.2435 104.826 28.1674 104.257 28.0152C103.699 27.8732 103.202 27.6449 102.766 27.3304C102.34 27.0159 102 26.6152 101.747 26.1283C101.493 25.6413 101.371 25.0631 101.381 24.3935H103.694ZM111.629 22.5522C111.659 22.0449 111.786 21.6239 112.009 21.2892C112.233 20.9544 112.517 20.6855 112.862 20.4826C113.206 20.2797 113.592 20.1377 114.018 20.0565C114.454 19.9652 114.891 19.9196 115.327 19.9196C115.722 19.9196 116.123 19.95 116.529 20.0109C116.935 20.0616 117.305 20.1681 117.64 20.3305C117.975 20.4928 118.248 20.721 118.462 21.0152C118.675 21.2993 118.781 21.6797 118.781 22.1565V26.25C118.781 26.6051 118.801 26.9449 118.842 27.2696C118.883 27.5942 118.954 27.8377 119.055 28H116.864C116.823 27.8783 116.788 27.7565 116.757 27.6348C116.737 27.5029 116.722 27.371 116.712 27.2391C116.367 27.5942 115.961 27.8428 115.494 27.9848C115.027 28.1268 114.551 28.1978 114.064 28.1978C113.688 28.1978 113.338 28.1522 113.014 28.0609C112.689 27.9696 112.405 27.8275 112.162 27.6348C111.918 27.442 111.725 27.1986 111.583 26.9044C111.451 26.6101 111.385 26.2602 111.385 25.8544C111.385 25.408 111.462 25.0428 111.614 24.7587C111.776 24.4645 111.979 24.2312 112.222 24.0587C112.476 23.8862 112.76 23.7594 113.075 23.6783C113.399 23.587 113.724 23.516 114.048 23.4652C114.373 23.4145 114.693 23.3739 115.007 23.3435C115.322 23.3131 115.601 23.2674 115.844 23.2065C116.088 23.1457 116.28 23.0594 116.422 22.9478C116.564 22.8261 116.63 22.6536 116.62 22.4305C116.62 22.1971 116.58 22.0145 116.498 21.8826C116.427 21.7406 116.326 21.6341 116.194 21.5631C116.072 21.4819 115.925 21.4312 115.753 21.4109C115.591 21.3805 115.413 21.3652 115.22 21.3652C114.794 21.3652 114.459 21.4565 114.216 21.6391C113.972 21.8218 113.83 22.1261 113.79 22.5522H111.629ZM116.62 24.15C116.529 24.2312 116.412 24.2971 116.27 24.3478C116.138 24.3884 115.991 24.4239 115.829 24.4544C115.677 24.4848 115.514 24.5102 115.342 24.5304C115.17 24.5507 114.997 24.5761 114.825 24.6065C114.662 24.637 114.5 24.6775 114.338 24.7283C114.185 24.779 114.048 24.85 113.927 24.9413C113.815 25.0225 113.724 25.129 113.653 25.2609C113.582 25.3928 113.546 25.5602 113.546 25.7631C113.546 25.9558 113.582 26.1181 113.653 26.25C113.724 26.3819 113.82 26.4884 113.942 26.5696C114.064 26.6406 114.206 26.6913 114.368 26.7217C114.53 26.7522 114.698 26.7674 114.87 26.7674C115.296 26.7674 115.626 26.6964 115.859 26.5544C116.093 26.4123 116.265 26.2449 116.377 26.0522C116.488 25.8493 116.554 25.6464 116.575 25.4435C116.605 25.2406 116.62 25.0783 116.62 24.9565V24.15ZM124.81 28H122.406L119.713 20.1326H121.98L123.639 25.5044H123.669L125.328 20.1326H127.474L124.81 28ZM130.586 18.9152H128.425V17.1348H130.586V18.9152ZM128.425 20.1326H130.586V28H128.425V20.1326ZM132.287 20.1326H134.342V21.2283H134.387C134.661 20.7718 135.016 20.4421 135.453 20.2392C135.889 20.0261 136.335 19.9196 136.792 19.9196C137.37 19.9196 137.842 20.0007 138.207 20.1631C138.582 20.3152 138.877 20.5334 139.09 20.8174C139.303 21.0913 139.45 21.4312 139.531 21.837C139.622 22.2326 139.668 22.6739 139.668 23.1609V28H137.507V23.5565C137.507 22.9073 137.406 22.4254 137.203 22.1109C137 21.7862 136.64 21.6239 136.122 21.6239C135.534 21.6239 135.108 21.8015 134.844 22.1565C134.58 22.5015 134.448 23.0747 134.448 23.8761V28H132.287V20.1326ZM144.975 26.1435C145.28 26.1435 145.548 26.0826 145.782 25.9609C146.015 25.8391 146.208 25.6768 146.36 25.4739C146.512 25.271 146.624 25.0428 146.695 24.7891C146.776 24.5254 146.817 24.2515 146.817 23.9674C146.817 23.6428 146.786 23.3384 146.725 23.0544C146.664 22.7602 146.563 22.5015 146.421 22.2783C146.279 22.0551 146.091 21.8776 145.858 21.7457C145.625 21.6138 145.33 21.5478 144.975 21.5478C144.671 21.5478 144.407 21.6087 144.184 21.7305C143.971 21.8522 143.788 22.0196 143.636 22.2326C143.494 22.4355 143.388 22.6739 143.317 22.9478C143.256 23.2116 143.225 23.4906 143.225 23.7848C143.225 24.0689 143.251 24.3529 143.301 24.637C143.362 24.9109 143.459 25.1594 143.59 25.3826C143.733 25.6058 143.915 25.7884 144.138 25.9304C144.361 26.0725 144.64 26.1435 144.975 26.1435ZM148.871 27.4978C148.871 27.8123 148.825 28.1725 148.734 28.5783C148.653 28.9841 148.47 29.3594 148.186 29.7043C147.902 30.0594 147.491 30.3587 146.954 30.6022C146.416 30.8456 145.696 30.9674 144.793 30.9674C144.407 30.9674 144.011 30.9167 143.606 30.8152C143.21 30.7239 142.845 30.5768 142.51 30.3739C142.185 30.171 141.911 29.9072 141.688 29.5826C141.475 29.2681 141.354 28.8877 141.323 28.4413H143.469C143.57 28.8471 143.768 29.1261 144.062 29.2783C144.356 29.4406 144.696 29.5217 145.082 29.5217C145.69 29.5217 146.132 29.3391 146.406 28.9739C146.69 28.6087 146.827 28.1471 146.817 27.5891V26.5544H146.786C146.553 26.9703 146.218 27.2797 145.782 27.4826C145.356 27.6754 144.904 27.7717 144.427 27.7717C143.839 27.7717 143.332 27.6703 142.906 27.4674C142.48 27.2544 142.13 26.9703 141.856 26.6152C141.582 26.25 141.379 25.829 141.247 25.3522C141.125 24.8652 141.064 24.3529 141.064 23.8152C141.064 23.308 141.135 22.821 141.277 22.3544C141.43 21.8776 141.648 21.4616 141.932 21.1065C142.216 20.7413 142.566 20.4522 142.982 20.2392C143.408 20.0261 143.895 19.9196 144.443 19.9196C144.96 19.9196 145.411 20.016 145.797 20.2087C146.193 20.4015 146.522 20.7261 146.786 21.1826H146.817V20.1326H148.871V27.4978ZM152.285 25.4435C152.285 25.6768 152.33 25.8797 152.422 26.0522C152.523 26.2145 152.65 26.3515 152.802 26.463C152.954 26.5645 153.127 26.6406 153.319 26.6913C153.522 26.742 153.73 26.7674 153.943 26.7674C154.095 26.7674 154.253 26.7522 154.415 26.7217C154.587 26.6812 154.74 26.6254 154.872 26.5544C155.014 26.4732 155.13 26.3717 155.222 26.25C155.313 26.1181 155.358 25.9558 155.358 25.7631C155.358 25.4384 155.14 25.1949 154.704 25.0326C154.278 24.8703 153.679 24.708 152.908 24.5457C152.594 24.4746 152.285 24.3935 151.98 24.3022C151.686 24.2007 151.422 24.0739 151.189 23.9218C150.956 23.7594 150.768 23.5616 150.626 23.3283C150.484 23.0848 150.413 22.7906 150.413 22.4457C150.413 21.9384 150.509 21.5225 150.702 21.1978C150.905 20.8732 151.169 20.6196 151.493 20.437C151.818 20.2442 152.183 20.1123 152.589 20.0413C152.995 19.9602 153.411 19.9196 153.837 19.9196C154.263 19.9196 154.674 19.9602 155.069 20.0413C155.475 20.1225 155.835 20.2594 156.15 20.4522C156.464 20.6449 156.723 20.9036 156.926 21.2283C157.139 21.5428 157.266 21.9435 157.306 22.4305H155.252C155.222 22.0145 155.064 21.7355 154.78 21.5935C154.496 21.4413 154.161 21.3652 153.776 21.3652C153.654 21.3652 153.522 21.3754 153.38 21.3957C153.238 21.4058 153.106 21.4363 152.985 21.487C152.873 21.5377 152.777 21.6138 152.695 21.7152C152.614 21.8065 152.574 21.9334 152.574 22.0957C152.574 22.2884 152.645 22.4457 152.787 22.5674C152.929 22.6891 153.111 22.7906 153.335 22.8718C153.568 22.9428 153.832 23.0087 154.126 23.0696C154.42 23.1304 154.719 23.1964 155.024 23.2674C155.338 23.3384 155.643 23.4247 155.937 23.5261C156.241 23.6275 156.51 23.7645 156.743 23.937C156.977 24.0993 157.164 24.3073 157.306 24.5609C157.448 24.8044 157.519 25.1087 157.519 25.4739C157.519 25.9913 157.413 26.4275 157.2 26.7826C156.997 27.1275 156.728 27.4065 156.393 27.6196C156.058 27.8326 155.673 27.9797 155.237 28.0609C154.811 28.1522 154.374 28.1978 153.928 28.1978C153.472 28.1978 153.025 28.1522 152.589 28.0609C152.153 27.9696 151.762 27.8174 151.417 27.6043C151.082 27.3913 150.803 27.1123 150.58 26.7674C150.367 26.4123 150.251 25.971 150.23 25.4435H152.285Z" fill="#0287C4"/>
<path d="M42.0324 0.630005L27.6801 13.6776H23.9289L23.2765 4.87047C25.1032 3.04381 36.5416 1.28238 42.0324 0.630005Z" fill="#00508C"/>
<path d="M21.6456 13.6776L21.1563 5.52285C18.6772 5.7838 12.5123 10.4157 9.73965 12.699L12.1861 29.0085L13.9801 27.2145C10.3268 17.5592 17.5682 14.1669 21.6456 13.6776Z" fill="#00508C"/>
<path d="M42.0324 0.630005L27.6801 13.6776H23.9289L23.2765 4.87047C25.1032 3.04381 36.5416 1.28238 42.0324 0.630005Z" stroke="#00508C" stroke-width="0.340755"/>
<path d="M21.6456 13.6776L21.1563 5.52285C18.6772 5.7838 12.5123 10.4157 9.73965 12.699L12.1861 29.0085L13.9801 27.2145C10.3268 17.5592 17.5682 14.1669 21.6456 13.6776Z" stroke="#00508C" stroke-width="0.340755"/>
<path d="M43.5003 13.5145H30.942L44.1526 1.77167C44.6745 3.98976 43.9352 10.5244 43.5003 13.5145Z" fill="#00508C" stroke="#00508C" stroke-width="0.340755"/>
<path d="M10.2289 31.1288L7.7825 14.4931C0.867283 20.6255 0.551967 35.2061 1.25871 41.7299L10.2289 31.1288Z" fill="#00508C" stroke="#00508C" stroke-width="0.340755"/>
<path d="M11.6968 32.7597L2.0742 44.5025C12.6427 47.373 25.288 42.4367 30.2896 39.6097L11.6968 32.7597Z" fill="#00508C" stroke="#00508C" stroke-width="0.340755"/>
<path d="M15.1218 29.0085L13.3277 30.8025L32.2467 38.1418C33.1601 37.6199 35.6717 33.9013 36.8134 32.1073H21.8087C18.6772 32.1073 16.046 30.0414 15.1218 29.0085Z" fill="#00508C" stroke="#00508C" stroke-width="0.340755"/>
</svg>
