<svg width="24" height="24" viewBox="0 0 24 24" fill="none" xmlns="http://www.w3.org/2000/svg">
<g clip-path="url(#clip0_2648_147748)">
<path d="M11.7483 7.62538C11.5287 7.62538 11.3823 7.479 11.3823 7.25943C11.3823 6.82028 11.5653 6.56411 11.7117 6.41773C11.8215 6.27135 11.8947 6.19816 11.8947 6.01518C11.8947 5.83221 11.8215 5.75902 11.7117 5.61264C11.5653 5.42966 11.3823 5.21009 11.3823 4.77094C11.3823 4.3318 11.5653 4.07563 11.7117 3.92925C11.8215 3.78287 11.8947 3.70968 11.8947 3.5267C11.8947 3.34372 11.8215 3.27053 11.7117 3.12415C11.5653 2.94117 11.3823 2.7216 11.3823 2.28246C11.3823 2.06289 11.5287 1.9165 11.7483 1.9165C11.9679 1.9165 12.1142 2.06289 12.1142 2.28246C12.1142 2.46543 12.1874 2.53863 12.2972 2.68501C12.4436 2.86798 12.6266 3.08756 12.6266 3.5267C12.6266 3.96584 12.4436 4.22201 12.2972 4.36839C12.1874 4.51478 12.1142 4.58797 12.1142 4.77094C12.1142 4.95392 12.1874 5.02711 12.2972 5.17349C12.4436 5.35647 12.6266 5.57604 12.6266 6.01518C12.6266 6.45433 12.4436 6.7105 12.2972 6.85688C12.1874 7.00326 12.1142 7.07645 12.1142 7.25943C12.1142 7.4424 11.9679 7.62538 11.7483 7.62538Z" fill="#FF8926" stroke="#FF8926" stroke-width="0.5"/>
<path d="M10.0281 6.3824C9.80849 6.3824 9.66211 6.23602 9.66211 6.01645C9.66211 5.72368 9.80849 5.54071 9.88168 5.46752C9.91828 5.39433 9.91828 5.39433 9.91828 5.35773C9.91828 5.32113 9.91828 5.32113 9.88168 5.24794C9.80849 5.13816 9.66211 4.99178 9.66211 4.69901C9.66211 4.40625 9.80849 4.22327 9.88168 4.15008C9.91828 4.07689 9.91828 4.07689 9.91828 4.0403C9.91828 4.0037 9.91828 4.0037 9.88168 3.93051C9.80849 3.82072 9.66211 3.67434 9.66211 3.38158C9.66211 3.16201 9.80849 3.01562 10.0281 3.01562C10.2476 3.01562 10.394 3.16201 10.394 3.38158C10.394 3.41817 10.394 3.41817 10.4306 3.49137C10.5038 3.60115 10.6502 3.74753 10.6502 4.0403C10.6502 4.33306 10.5038 4.51604 10.4306 4.58923C10.394 4.66242 10.394 4.66242 10.394 4.69901C10.394 4.73561 10.394 4.73561 10.4306 4.8088C10.5038 4.91859 10.6502 5.06497 10.6502 5.35773C10.6502 5.65049 10.5038 5.83347 10.4306 5.90666C10.394 5.97985 10.394 5.97985 10.394 6.01645C10.394 6.23602 10.2476 6.3824 10.0281 6.3824Z" fill="#FF8926" stroke="#FF8926" stroke-width="0.5"/>
<path d="M13.6877 6.3824C13.4682 6.3824 13.3218 6.23602 13.3218 6.01645C13.3218 5.72368 13.4682 5.54071 13.5414 5.46752C13.5779 5.39433 13.5779 5.39433 13.5779 5.35773C13.5779 5.32113 13.5779 5.32113 13.5414 5.24794C13.4682 5.13816 13.3218 4.99178 13.3218 4.69901C13.3218 4.40625 13.4682 4.22327 13.5414 4.15008C13.5779 4.07689 13.5779 4.07689 13.5779 4.0403C13.5779 4.0037 13.5779 4.0037 13.5414 3.93051C13.4682 3.82072 13.3218 3.67434 13.3218 3.38158C13.3218 3.16201 13.4682 3.01562 13.6877 3.01562C13.9073 3.01562 14.0537 3.16201 14.0537 3.38158C14.0537 3.41817 14.0537 3.41817 14.0903 3.49137C14.1635 3.60115 14.3099 3.74753 14.3099 4.0403C14.3099 4.33306 14.1635 4.51604 14.0903 4.58923C14.0537 4.66242 14.0537 4.66242 14.0537 4.69901C14.0537 4.73561 14.0537 4.73561 14.0903 4.8088C14.1635 4.91859 14.3099 5.06497 14.3099 5.35773C14.3099 5.65049 14.1635 5.83347 14.0903 5.90666C14.0537 5.97985 14.0537 5.97985 14.0537 6.01645C14.0537 6.23602 13.9073 6.3824 13.6877 6.3824Z" fill="#FF8926" stroke="#FF8926" stroke-width="0.5"/>
<path d="M20.714 21.8602H3.29457C3.14819 21.8602 3.0384 21.787 2.96521 21.6406L1.94054 19.4083C1.90395 19.2985 1.90395 19.1521 1.97714 19.0424C2.05033 18.9326 2.16011 18.8594 2.2699 18.8594H21.7387C21.8484 18.8594 21.9948 18.9326 22.0314 19.0424C22.068 19.1521 22.1046 19.2619 22.068 19.4083L21.0433 21.6406C20.9701 21.787 20.8604 21.8602 20.714 21.8602ZM3.51414 21.1283H20.4578L21.1531 19.6279H2.85543L3.51414 21.1283Z" fill="#FF8926" stroke="#FF8926" stroke-width="0.5"/>
<path d="M20.5673 19.5838C20.3477 19.5838 20.2013 19.4374 20.2013 19.2178C20.2013 14.7166 16.5418 11.0205 12.004 11.0205C7.46615 11.0205 3.80661 14.68 3.80661 19.2178C3.80661 19.4374 3.66023 19.5838 3.44066 19.5838C3.22109 19.5838 3.07471 19.4374 3.07471 19.2178C3.07471 14.2775 7.0636 10.2886 12.004 10.2886C16.9444 10.2886 20.9333 14.2775 20.9333 19.2178C20.9333 19.4374 20.7503 19.5838 20.5673 19.5838Z" fill="#FF8926" stroke="#FF8926" stroke-width="0.5"/>
<path d="M5.89258 15.8259C5.81939 15.8259 5.7462 15.7893 5.67301 15.7527C5.49003 15.6429 5.45343 15.4233 5.56322 15.2403C6.73427 13.5569 8.41766 12.3127 10.3938 11.7272C10.5768 11.654 10.7964 11.7638 10.833 11.9833C10.9061 12.1663 10.7964 12.3859 10.5768 12.4225C8.78361 12.9714 7.21001 14.1059 6.14875 15.6429C6.11215 15.7893 6.00236 15.8259 5.89258 15.8259Z" fill="#FF8926" stroke="#FF8926" stroke-width="0.5"/>
<path d="M12.0043 11.0282C11.1626 11.0282 10.5039 10.3694 10.5039 9.52775C10.5039 8.68606 11.1626 8.02734 12.0043 8.02734C12.846 8.02734 13.5047 8.68606 13.5047 9.52775C13.5047 10.3694 12.846 11.0282 12.0043 11.0282ZM12.0043 8.75925C11.5652 8.75925 11.2358 9.08861 11.2358 9.52775C11.2358 9.9669 11.5652 10.2963 12.0043 10.2963C12.4435 10.2963 12.7728 9.9669 12.7728 9.52775C12.7728 9.08861 12.4435 8.75925 12.0043 8.75925Z" fill="#FF8926" stroke="#FF8926" stroke-width="0.5"/>
</g>
<defs>
<clipPath id="clip0_2648_147748">
<rect width="22" height="22" fill="white" transform="translate(1 1)"/>
</clipPath>
</defs>
</svg>
