<svg width="23" height="24" viewBox="0 0 23 24" fill="none" xmlns="http://www.w3.org/2000/svg">
<path fill-rule="evenodd" clip-rule="evenodd" d="M2.76432 9.07703H6.35063V21.6175H2.76432V9.07703ZM20.7003 21.6187H16.6336V15.128C16.6336 13.4294 15.9976 12.2709 14.5987 12.2709C13.5287 12.2709 12.9338 13.0523 12.6568 13.8077C12.5529 14.0772 12.5692 14.4543 12.5692 14.8325V21.6187H8.54038C8.54038 21.6187 8.5923 10.122 8.54038 9.07703H12.5692V11.0452C12.8072 10.1846 14.0945 8.95646 16.149 8.95646C18.6978 8.95646 20.7003 10.7615 20.7003 14.6445V21.6187ZM4.46664 7.50842H4.44066C3.14245 7.50842 2.30078 6.54977 2.30078 5.33578C2.30078 4.09697 3.16734 3.15723 4.49151 3.15723C5.81461 3.15723 6.62816 4.09461 6.65412 5.33224C6.65412 6.54621 5.81461 7.50842 4.46664 7.50842Z" fill="white"/>
</svg>
