<svg width="23" height="24" viewBox="0 0 23 24" fill="none" xmlns="http://www.w3.org/2000/svg">
<path fill-rule="evenodd" clip-rule="evenodd" d="M17.0761 14.0494C16.624 14.0494 16.2623 13.6865 16.2623 13.2329C16.2623 12.7793 16.624 12.4165 17.0761 12.4165C17.5282 12.4165 17.8898 12.7793 17.8898 13.2329C17.8898 13.6638 17.5282 14.0494 17.0761 14.0494ZM13.0656 14.0494C12.6135 14.0494 12.2519 13.6865 12.2519 13.2329C12.2519 12.7793 12.6135 12.4165 13.0656 12.4165C13.5177 12.4165 13.8794 12.7793 13.8794 13.2329C13.8794 13.6638 13.5177 14.0494 13.0656 14.0494ZM19.0168 18.632C20.2854 17.7158 21.0865 16.3529 21.0865 14.8557C21.0865 12.085 18.416 9.85059 15.0999 9.85059C11.7839 9.85059 9.11328 12.085 9.11328 14.8557C9.11328 17.6265 11.7839 19.861 15.0999 19.861C15.7898 19.861 16.4352 19.7715 17.0583 19.5928C17.1028 19.5705 17.1696 19.5705 17.2364 19.5705C17.3477 19.5705 17.459 19.6152 17.548 19.6598L18.8611 20.4196C18.9056 20.442 18.9279 20.4643 18.9724 20.4643C18.9987 20.4644 19.0248 20.4592 19.0491 20.4492C19.0735 20.4391 19.0957 20.4242 19.1142 20.4056C19.1328 20.3869 19.1476 20.3647 19.1577 20.3402C19.1677 20.3158 19.1728 20.2897 19.1727 20.2632C19.1727 20.2185 19.1504 20.1738 19.1504 20.1067C19.1504 20.0844 18.9724 19.4811 18.8833 19.1012C18.8611 19.0565 18.8611 19.0118 18.8611 18.9672C18.8388 18.8107 18.9056 18.6991 19.0168 18.632Z" fill="white"/>
<path fill-rule="evenodd" clip-rule="evenodd" d="M10.6825 9.32579C10.1635 9.32579 9.75258 8.91352 9.75258 8.39274C9.75258 7.87197 10.1635 7.45967 10.6825 7.45967C11.2016 7.45967 11.6125 7.87197 11.6125 8.39274C11.6125 8.89182 11.2016 9.32579 10.6825 9.32579ZM5.91646 9.32579C5.39742 9.32579 4.98649 8.91352 4.98649 8.39274C4.98649 7.87197 5.39742 7.45967 5.91646 7.45967C6.4355 7.45967 6.84642 7.87197 6.84642 8.39274C6.84642 8.89182 6.4355 9.32579 5.91646 9.32579ZM8.35529 4.31055C4.38469 4.31055 1.15039 6.98702 1.15039 10.3103C1.15039 12.1169 2.10953 13.745 3.64868 14.8379C3.76022 14.9272 3.84944 15.061 3.84944 15.2394C3.84944 15.284 3.82712 15.3509 3.82712 15.3955C3.71558 15.8416 3.51483 16.5776 3.49251 16.5999C3.47024 16.6668 3.44793 16.7114 3.44793 16.7783C3.44793 16.9122 3.55947 17.0237 3.69326 17.0237C3.7379 17.0237 3.78248 17.0015 3.82712 16.9791L5.41085 16.0646C5.52239 15.9977 5.65624 15.9531 5.79004 15.9531C5.857 15.9531 5.92389 15.9531 5.9908 15.9755C6.72692 16.1761 7.52988 16.31 8.33297 16.31H8.73448C8.57831 15.8416 8.48908 15.3509 8.48908 14.8379C8.48908 11.827 11.4334 9.37351 15.0471 9.37351H15.4486C14.9355 6.49627 11.9465 4.31055 8.35529 4.31055Z" fill="white"/>
</svg>
