<svg version="1.1" id="Layer_1" xmlns:x="ns_extend;" xmlns:i="ns_ai;" xmlns:graph="ns_graphs;" xmlns="http://www.w3.org/2000/svg" xmlns:xlink="http://www.w3.org/1999/xlink" x="0px" y="0px" viewBox="0 0 27.7 35.3" style="enable-background:new 0 0 27.7 35.3;" xml:space="preserve">
 <style type="text/css">
  .st0{fill:#0C5288;}
	.st1{fill:#2F97DA;}
 </style>
 <metadata>
  <sfw xmlns="ns_sfw;">
   <slices>
   </slices>
   <sliceSourceBounds bottomLeftOrigin="true" height="35.3" width="27.7" x="77.7" y="22.7">
   </sliceSourceBounds>
  </sfw>
 </metadata>
 <g>
  <path class="st0" d="M27.7,15.8c0-1.2-0.6-2.3-1.5-3.1l0,0l-1.8-1.4c0.4,0.9,0.6,2,0.6,3c0,0.8-0.1,1.7-0.4,2.4
		c0,0.2-0.1,0.3-0.1,0.4l-4.3,13.4v-0.1l-4-12.6c-0.4-1.3-0.6-2.2-0.4-2.9h-4.1V15c1.6,0.8,1,2.7,0.5,4.5l-3.4,11L4.5,17
		c-0.2-0.6-0.5-1.4-0.3-2.1H0V15c1.4,1,1.9,2.9,2.4,4.5l3.4,10.7c1,3,1.2,2.8,3.8,4.7l4.5-14.7l3.2,10c1,3,1.2,2.8,3.8,4.7
		c0,0,0.5,0.4,0.6,0.4l5.8-18.1l0,0C27.6,16.7,27.7,16.3,27.7,15.8">
  </path>
  <path class="st1" d="M4.6,0L4.6,0H4.1v6.6c0,0.9,0.6,1.9,1.4,2.2l14.4,5.7l0,0l0,0c0.9,0.3,2,1,2.6,1.6c0.4,0.3,0.7,0.7,1,1V17
		c0.1-0.3,0.2-0.6,0.3-1l0,0c0.5-1.8,0.2-3.7-0.5-5.3L7.9,4.6C5.8,3.9,4.6,2,4.6,0">
  </path>
 </g>
</svg>