<svg width="190" height="126" viewBox="0 0 190 126" fill="none" xmlns="http://www.w3.org/2000/svg">
<path d="M47.0275 105.905C48.7312 105.934 50.415 105.873 52.074 105.727C57.2831 105.267 62.4834 106.452 67.016 109.061C75.5803 113.989 85.5127 116.808 96.103 116.808C111.343 116.808 125.218 110.97 135.617 101.409C140.409 97.0029 146.66 94.5855 153.17 94.6305C153.438 94.6325 153.707 94.6312 153.977 94.6273C173.844 94.3298 189.869 77.8643 189.65 57.996C189.431 38.176 173.296 22.1764 153.425 22.1764C153.31 22.1764 153.196 22.1771 153.082 22.1781C146.603 22.2385 140.387 19.7844 135.617 15.3991C125.218 5.83829 111.343 0 96.103 0C85.5124 0 75.5803 2.81907 67.016 7.74738C62.5454 10.3199 57.4176 11.576 52.2817 11.1C50.8245 10.9648 49.3483 10.8959 47.8558 10.8959C21.8776 10.8959 0.769466 31.7467 0.353822 57.6261C-0.0650883 83.7372 20.9166 105.458 47.0275 105.905Z" fill="#F6FFFE"/>
<path d="M168.67 125.544H24.7187C24.0768 125.544 23.5566 125.024 23.5566 124.382C23.5566 123.74 24.0771 123.22 24.7187 123.22H168.67C169.312 123.22 169.832 123.74 169.832 124.382C169.832 125.024 169.312 125.544 168.67 125.544Z" fill="#454F6B"/>
<path d="M20.51 125.544H17.8144C17.1725 125.544 16.6523 125.024 16.6523 124.382C16.6523 123.74 17.1725 123.22 17.8144 123.22H20.51C21.1519 123.22 21.6721 123.74 21.6721 124.382C21.6721 125.024 21.1519 125.544 20.51 125.544Z" fill="#454F6B"/>
<path d="M148.34 37.1001L163.437 122.721H54.4547L39.3576 37.1001H148.34Z" fill="white" stroke="#016B83"/>
<path d="M38.7625 36.6L36.6699 24.7324H146.668L148.76 36.6H38.7625Z" fill="#016B83"/>
<path d="M58.353 62.2228H50.4796C49.2372 62.2228 48.0523 61.2155 47.8336 59.9732L46.4452 52.0997C46.2262 50.8574 47.0558 49.8501 48.2982 49.8501H56.1716C57.414 49.8501 58.5989 50.8574 58.8176 52.0997L60.2059 59.9732C60.425 61.2155 59.5954 62.2228 58.353 62.2228Z" fill="#FF8926"/>
<path d="M72.9744 62.2228H65.101C63.8586 62.2228 62.6737 61.2155 62.4546 59.9732L61.0663 52.0997C60.8473 50.8574 61.6769 49.8501 62.9193 49.8501H70.7927C72.0351 49.8501 73.2199 50.8574 73.4387 52.0997L74.827 59.9732C75.0461 61.2155 74.2168 62.2228 72.9744 62.2228Z" fill="#016B83"/>
<path d="M87.5968 62.2228H79.7237C78.4814 62.2228 77.2965 61.2155 77.0777 59.9732L75.6894 52.0997C75.4703 50.8574 76.3 49.8501 77.5423 49.8501H85.4157C86.6581 49.8501 87.843 50.8574 88.0618 52.0997L89.4501 59.9732C89.6688 61.2155 88.8392 62.2228 87.5968 62.2228Z" fill="#016B83"/>
<path d="M102.218 62.2228H94.3448C93.1024 62.2228 91.9175 61.2155 91.6988 59.9732L90.3105 52.0997C90.0914 50.8574 90.921 49.8501 92.1634 49.8501H100.037C101.279 49.8501 102.464 50.8574 102.683 52.0997L104.071 59.9732C104.29 61.2155 103.461 62.2228 102.218 62.2228Z" fill="#016B83"/>
<path d="M116.841 62.2228H108.968C107.726 62.2228 106.541 61.2155 106.322 59.9732L104.934 52.0997C104.714 50.8574 105.544 49.8501 106.786 49.8501H114.66C115.902 49.8501 117.087 50.8574 117.306 52.0997L118.694 59.9732C118.913 61.2155 118.084 62.2228 116.841 62.2228Z" fill="#016B83"/>
<path d="M131.46 62.2233H123.587C122.345 62.2233 121.16 61.216 120.941 59.9736L119.553 52.1002C119.334 50.8579 120.163 49.8506 121.406 49.8506H129.279C130.521 49.8506 131.706 50.8579 131.925 52.1002L133.313 59.9736C133.532 61.216 132.703 62.2233 131.46 62.2233Z" fill="#016B83"/>
<path d="M146.079 62.2233H138.206C136.964 62.2233 135.779 61.216 135.56 59.9736L134.172 52.1002C133.953 50.8579 134.782 49.8506 136.025 49.8506H143.898C145.141 49.8506 146.325 50.8579 146.544 52.1002L147.932 59.9736C148.151 61.216 147.322 62.2233 146.079 62.2233Z" fill="#016B83"/>
<path d="M60.853 76.3966H52.9796C51.7372 76.3966 50.5523 75.3893 50.3336 74.147L48.9452 66.2736C48.7262 65.0312 49.5558 64.0239 50.7982 64.0239H58.6716C59.914 64.0239 61.0989 65.0312 61.3176 66.2736L62.7059 74.147C62.9247 75.3897 62.0954 76.3966 60.853 76.3966Z" fill="#FF8926"/>
<path d="M75.4741 76.3966H67.6007C66.3583 76.3966 65.1737 75.3893 64.9546 74.147L63.5663 66.2736C63.3473 65.0312 64.1769 64.0239 65.4193 64.0239H73.2927C74.5351 64.0239 75.7199 65.0312 75.9387 66.2736L77.327 74.147C77.5461 75.3897 76.7165 76.3966 75.4741 76.3966Z" fill="#016B83"/>
<path d="M90.0952 76.3966H82.2218C80.9794 76.3966 79.7945 75.3893 79.5757 74.147L78.1874 66.2736C77.9683 65.0312 78.798 64.0239 80.0404 64.0239H87.9138C89.1561 64.0239 90.341 65.0312 90.5598 66.2736L91.9481 74.147C92.1669 75.3897 91.3375 76.3966 90.0952 76.3966Z" fill="#016B83"/>
<path d="M104.718 76.3966H96.8448C95.6024 76.3966 94.4175 75.3893 94.1988 74.147L92.8105 66.2736C92.5914 65.0312 93.421 64.0239 94.6634 64.0239H102.537C103.779 64.0239 104.964 65.0312 105.183 66.2736L106.571 74.147C106.79 75.3897 105.961 76.3966 104.718 76.3966Z" fill="#016B83"/>
<path d="M119.34 76.3961H111.466C110.224 76.3961 109.039 75.3889 108.82 74.1465L107.432 66.2731C107.212 65.0307 108.042 64.0234 109.285 64.0234H117.158C118.4 64.0234 119.585 65.0307 119.804 66.2731L121.192 74.1465C121.411 75.3892 120.582 76.3961 119.34 76.3961Z" fill="#016B83"/>
<path d="M133.962 76.3961H126.089C124.847 76.3961 123.662 75.3889 123.443 74.1465L122.055 66.2731C121.836 65.0307 122.665 64.0234 123.908 64.0234H131.781C133.023 64.0234 134.208 65.0307 134.427 66.2731L135.815 74.1465C136.034 75.3892 135.205 76.3961 133.962 76.3961Z" fill="#016B83"/>
<path d="M148.583 76.3961H140.71C139.468 76.3961 138.283 75.3889 138.064 74.1465L136.676 66.2731C136.457 65.0307 137.286 64.0234 138.529 64.0234H146.402C147.644 64.0234 148.829 65.0307 149.048 66.2731L150.436 74.1465C150.655 75.3892 149.826 76.3961 148.583 76.3961Z" fill="#016B83"/>
<path d="M63.351 90.5704H55.4776C54.2353 90.5704 53.0504 89.5632 52.8316 88.3208L51.4433 80.4474C51.2242 79.205 52.0539 78.1978 53.2962 78.1978H61.1696C62.412 78.1978 63.5969 79.205 63.8157 80.4474L65.204 88.3208C65.4231 89.5632 64.5934 90.5704 63.351 90.5704Z" fill="#FF8926"/>
<path d="M77.9744 90.5704H70.101C68.8586 90.5704 67.6737 89.5632 67.4546 88.3208L66.0663 80.4474C65.8473 79.205 66.6769 78.1978 67.9193 78.1978H75.7927C77.035 78.1978 78.2199 79.205 78.4387 80.4474L79.827 88.3208C80.0461 89.5632 79.2168 90.5704 77.9744 90.5704Z" fill="#016B83"/>
<path d="M92.5932 90.5709H84.7198C83.4774 90.5709 82.2925 89.5637 82.0738 88.3213L80.6855 80.4479C80.4664 79.2055 81.296 78.1982 82.5384 78.1982H90.4118C91.6542 78.1982 92.8391 79.2055 93.0578 80.4479L94.4462 88.3213C94.6652 89.5637 93.8356 90.5709 92.5932 90.5709Z" fill="#016B83"/>
<path d="M107.214 90.57H99.3409C98.0985 90.57 96.9136 89.5627 96.6949 88.3203L95.3066 80.4469C95.0875 79.2045 95.9171 78.1973 97.1595 78.1973H105.033C106.275 78.1973 107.46 79.2045 107.679 80.4469L109.067 88.3203C109.286 89.5627 108.457 90.57 107.214 90.57Z" fill="#016B83"/>
<path d="M121.837 90.5704H113.964C112.722 90.5704 111.537 89.5632 111.318 88.3208L109.93 80.4474C109.711 79.205 110.54 78.1978 111.783 78.1978H119.656C120.898 78.1978 122.083 79.205 122.302 80.4474L123.69 88.3208C123.909 89.5632 123.08 90.5704 121.837 90.5704Z" fill="#016B83"/>
<path d="M136.462 90.57H128.589C127.347 90.57 126.162 89.5627 125.943 88.3203L124.555 80.4469C124.336 79.2045 125.165 78.1973 126.408 78.1973H134.281C135.523 78.1973 136.708 79.2045 136.927 80.4469L138.315 88.3203C138.534 89.5627 137.705 90.57 136.462 90.57Z" fill="#016B83"/>
<path d="M151.084 90.57H143.21C141.968 90.57 140.783 89.5627 140.564 88.3203L139.176 80.4469C138.957 79.2045 139.786 78.1973 141.029 78.1973H148.902C150.144 78.1973 151.329 79.2045 151.548 80.4469L152.936 88.3203C153.156 89.5627 152.326 90.57 151.084 90.57Z" fill="#016B83"/>
<path d="M65.8491 104.745H57.9757C56.7333 104.745 55.5484 103.737 55.3296 102.495L53.9413 94.6217C53.7223 93.3793 54.5519 92.3721 55.7943 92.3721H63.6677C64.91 92.3721 66.0949 93.3793 66.3137 94.6217L67.702 102.495C67.9208 103.737 67.0914 104.745 65.8491 104.745Z" fill="#FF8926"/>
<path d="M80.4705 104.745H72.5971C71.3547 104.745 70.1698 103.737 69.9507 102.495L68.5624 94.6217C68.3433 93.3793 69.173 92.3721 70.4154 92.3721H78.2888C79.5311 92.3721 80.716 93.3793 80.9348 94.6217L82.3231 102.495C82.5425 103.737 81.7129 104.745 80.4705 104.745Z" fill="#016B83"/>
<path d="M95.0936 104.744H87.2201C85.9778 104.744 84.7929 103.737 84.5738 102.495L83.1855 94.6212C82.9664 93.3789 83.7961 92.3716 85.0384 92.3716H92.9118C94.1542 92.3716 95.3391 93.3789 95.5579 94.6212L96.9462 102.495C97.1656 103.737 96.3359 104.744 95.0936 104.744Z" fill="#016B83"/>
<path d="M109.715 104.744H101.841C100.599 104.744 99.414 103.737 99.1949 102.495L97.8066 94.6212C97.5875 93.3789 98.4171 92.3716 99.6595 92.3716H107.533C108.775 92.3716 109.96 93.3789 110.179 94.6212L111.567 102.495C111.787 103.737 110.957 104.744 109.715 104.744Z" fill="#016B83"/>
<path d="M124.337 104.744H116.464C115.222 104.744 114.037 103.737 113.818 102.495L112.43 94.6212C112.211 93.3789 113.04 92.3716 114.283 92.3716H122.156C123.398 92.3716 124.583 93.3789 124.802 94.6212L126.19 102.495C126.409 103.737 125.58 104.744 124.337 104.744Z" fill="#016B83"/>
<path d="M138.958 104.745H131.085C129.843 104.745 128.658 103.737 128.439 102.495L127.051 94.6217C126.832 93.3793 127.661 92.3721 128.904 92.3721H136.777C138.019 92.3721 139.204 93.3793 139.423 94.6217L140.811 102.495C141.03 103.737 140.201 104.745 138.958 104.745Z" fill="#016B83"/>
<path d="M153.58 104.745H145.706C144.464 104.745 143.279 103.737 143.06 102.495L141.672 94.6217C141.453 93.3793 142.282 92.3721 143.525 92.3721H151.398C152.641 92.3721 153.825 93.3793 154.044 94.6217L155.432 102.495C155.652 103.737 154.822 104.745 153.58 104.745Z" fill="#016B83"/>
<path d="M68.3491 118.919H60.4757C59.2333 118.919 58.0484 117.911 57.8296 116.669L56.4413 108.796C56.2223 107.553 57.0519 106.546 58.2943 106.546H66.1677C67.41 106.546 68.5949 107.553 68.8137 108.796L70.202 116.669C70.4211 117.911 69.5914 118.919 68.3491 118.919Z" fill="#FF8926"/>
<path d="M82.9702 118.918H75.0968C73.8544 118.918 72.6695 117.911 72.4507 116.668L71.0624 108.795C70.8433 107.553 71.673 106.545 72.9154 106.545H80.7888C82.0311 106.545 83.216 107.553 83.4348 108.795L84.8231 116.668C85.0419 117.911 84.2122 118.918 82.9702 118.918Z" fill="#016B83"/>
<path d="M97.5932 118.919H89.7198C88.4774 118.919 87.2926 117.911 87.0738 116.669L85.6855 108.796C85.4664 107.553 86.296 106.546 87.5384 106.546H95.4118C96.6542 106.546 97.8391 107.553 98.0579 108.796L99.4462 116.669C99.6652 117.911 98.8356 118.919 97.5932 118.919Z" fill="#016B83"/>
<path d="M53.7319 54.3133L54.3085 57.5843H53.2059L52.7759 55.1449H52.215L52.0684 54.313H53.7319V54.3133Z" fill="white"/>
<path d="M69.4001 56.7292L69.5509 57.5843H66.9294L66.8099 56.9068L67.7992 55.8134C67.9866 55.6031 67.9971 55.4771 67.9771 55.3647C67.9491 55.2057 67.8243 55.1078 67.6141 55.1078C67.4178 55.1078 67.2497 55.2152 67.1863 55.4114L66.2812 54.9955C66.4406 54.5468 66.8582 54.2383 67.5638 54.2383C68.3396 54.2383 68.957 54.6402 69.0667 55.2616C69.1235 55.5841 69.0905 55.8738 68.6896 56.3034L68.2974 56.7286H69.4001V56.7292Z" fill="white"/>
<path d="M83.9775 56.5375C84.0765 57.0984 83.7268 57.659 82.68 57.659C82.2314 57.659 81.7233 57.5608 81.3384 57.3645L81.5689 56.5515C81.8781 56.7151 82.2137 56.7899 82.4896 56.7899C82.7371 56.7899 82.9 56.7056 82.8703 56.5375C82.8455 56.3974 82.7234 56.3132 82.4429 56.3132H82.0083L81.8888 55.6357L82.2836 55.1449H81.1154L80.9688 54.313H83.4081L83.5276 54.9905L83.0287 55.6073C83.5648 55.734 83.8975 56.0843 83.9775 56.5375Z" fill="white"/>
<path d="M99.0097 57.023H98.5751L98.6741 57.5839H97.6041L97.5052 57.023H95.809L95.6855 56.3223L96.7189 54.313H97.85L96.9433 56.1682H97.387L97.2988 55.6683H98.3361L98.4243 56.1682H98.8589L99.0097 57.023Z" fill="white"/>
<path d="M113.256 56.5091C113.359 57.0932 113.01 57.6587 111.963 57.6587C111.515 57.6587 111.007 57.5604 110.622 57.3642L110.852 56.5512C111.162 56.7148 111.492 56.7896 111.768 56.7896C112.016 56.7896 112.182 56.7007 112.153 56.5326C112.128 56.3925 112.013 56.2991 111.616 56.2991H110.667L110.48 54.313H112.653L112.8 55.1449H111.534L111.567 55.4675H111.736C112.703 55.4669 113.154 55.9295 113.256 56.5091Z" fill="white"/>
<path d="M128.009 56.5145C128.132 57.2155 127.622 57.6593 126.884 57.6593C125.949 57.6593 125.219 57.1218 125.03 56.0519C124.828 54.9068 125.444 54.2388 126.523 54.2388C126.911 54.2388 127.306 54.3322 127.583 54.4957L127.321 55.2666C127.106 55.1311 126.903 55.0936 126.697 55.0936C126.324 55.0936 126.096 55.2852 126.085 55.6496C126.229 55.5327 126.427 55.4674 126.703 55.4674C127.301 55.4677 127.896 55.8742 128.009 56.5145ZM126.952 56.5658C126.916 56.3601 126.753 56.2292 126.557 56.2292C126.36 56.2292 126.243 56.3601 126.279 56.5658C126.316 56.7715 126.478 56.8975 126.675 56.8975C126.871 56.8979 126.989 56.7715 126.952 56.5658Z" fill="white"/>
<path d="M142.143 54.3135L142.262 54.991L141.631 57.5844H140.425L141.037 55.1686H140.406L140.49 55.6453H139.579L139.344 54.3135H142.143Z" fill="white"/>
<path d="M57.4142 70.9069C57.5262 71.5426 56.996 71.9537 56.1314 71.9537C55.2668 71.9537 54.5916 71.5426 54.4796 70.9069C54.4218 70.5798 54.5403 70.3228 54.7862 70.1546C54.5573 69.996 54.398 69.7808 54.35 69.5098C54.2455 68.9162 54.7336 68.5332 55.528 68.5332C56.3224 68.5332 56.946 68.9165 57.0508 69.5098C57.0985 69.7808 57.0152 69.996 56.8422 70.1546C57.1478 70.3228 57.3568 70.5798 57.4142 70.9069ZM56.3002 70.8697C56.263 70.6594 56.0906 70.5285 55.8803 70.5285C55.67 70.5285 55.5437 70.6594 55.5806 70.8697C55.6178 71.08 55.7902 71.2109 56.0005 71.2109C56.2107 71.2109 56.3371 71.08 56.3002 70.8697ZM55.447 69.5565C55.4784 69.7341 55.6086 69.8369 55.7582 69.8369C55.9077 69.8369 56.0018 69.7341 55.9704 69.5565C55.9391 69.3789 55.8088 69.276 55.6593 69.276C55.5097 69.276 55.4157 69.3789 55.447 69.5565Z" fill="white"/>
<path d="M71.8409 70.1406C72.0427 71.2853 71.4269 71.9537 70.3475 71.9537C69.9596 71.9537 69.5645 71.8603 69.2883 71.6967L69.5495 70.9258C69.765 71.0613 69.9677 71.0986 70.1734 71.0986C70.5473 71.0986 70.7752 70.9069 70.7856 70.5425C70.6426 70.6594 70.4438 70.7247 70.1682 70.7247C69.57 70.7247 68.9751 70.3182 68.8622 69.6779C68.7387 68.9769 69.2491 68.5332 69.9873 68.5332C70.9218 68.5332 71.6522 69.0706 71.8409 70.1406ZM70.5914 69.6267C70.5551 69.4213 70.3928 69.2949 70.1966 69.2949C70 69.2949 69.8822 69.421 69.9184 69.6267C69.9547 69.8324 70.1179 69.9633 70.3141 69.9633C70.5104 69.963 70.6276 69.8321 70.5914 69.6267Z" fill="white"/>
<path d="M83.8781 68.6077L84.455 71.8787H83.3524L82.9224 69.4394H82.3614L82.2148 68.6074L83.8781 68.6077Z" fill="white"/>
<path d="M84.5675 70.2434C84.3765 69.1591 84.8826 68.5332 85.7472 68.5332C86.6118 68.5332 87.3389 69.1594 87.5302 70.2434C87.7213 71.3275 87.2148 71.9537 86.3506 71.9537C85.486 71.9537 84.7588 71.3275 84.5675 70.2434ZM86.4227 70.2434C86.3114 69.6126 86.1181 69.4164 85.9029 69.4164C85.6881 69.4164 85.5637 69.6126 85.675 70.2434C85.7864 70.8743 85.9797 71.0705 86.1948 71.0705C86.4097 71.0705 86.5341 70.8743 86.4227 70.2434Z" fill="white"/>
<path d="M99.1401 68.6082L99.7171 71.8792H98.6141L98.1841 69.4398H97.6232L97.4766 68.6079L99.1401 68.6082Z" fill="white"/>
<path d="M101.093 68.6082L101.67 71.8792H100.567L100.137 69.4398H99.5763L99.4297 68.6079L101.093 68.6082Z" fill="white"/>
<path d="M113.318 68.6077L113.895 71.8787H112.792L112.362 69.4394H111.801L111.654 68.6074L113.318 68.6077Z" fill="white"/>
<path d="M116.763 71.0236L116.914 71.8788H114.293L114.173 71.2013L115.163 70.1078C115.35 69.8975 115.36 69.7715 115.341 69.6592C115.313 69.5002 115.188 69.4022 114.978 69.4022C114.781 69.4022 114.613 69.5096 114.55 69.7059L113.645 69.2899C113.804 68.8413 114.221 68.5327 114.927 68.5327C115.703 68.5327 116.32 68.9346 116.43 69.556C116.487 69.8786 116.453 70.1682 116.053 70.5982L115.66 71.0233H116.763V71.0236Z" fill="white"/>
<path d="M127.925 68.6082L128.502 71.8792H127.399L126.969 69.4398H126.408L126.262 68.6079L127.925 68.6082Z" fill="white"/>
<path d="M131.341 70.8322C131.44 71.3932 131.09 71.9538 130.044 71.9538C129.595 71.9538 129.087 71.8558 128.702 71.6593L128.932 70.846C129.242 71.0095 129.577 71.0843 129.853 71.0843C130.1 71.0843 130.263 71.0001 130.234 70.8319C130.209 70.6918 130.086 70.6076 129.806 70.6076H129.372L129.252 69.9301L129.647 69.4394H128.479L128.332 68.6074H130.771L130.891 69.2849L130.392 69.9017C130.928 70.0287 131.261 70.3791 131.341 70.8322Z" fill="white"/>
<path d="M142.319 68.6082L142.896 71.8792H141.794L141.364 69.4398H140.803L140.656 68.6079L142.319 68.6082Z" fill="white"/>
<path d="M146.371 71.3184H145.936L146.035 71.8794H144.965L144.867 71.3184H143.17L143.047 70.6177L144.08 68.6084H145.211L144.305 70.4636H144.749L144.66 69.9637H145.698L145.786 70.4636H146.221L146.371 71.3184Z" fill="white"/>
<path d="M57.3257 82.9033L57.9023 86.1743H56.7997L56.3697 83.7349H55.8087L55.6621 82.9033H57.3257Z" fill="white"/>
<path d="M60.7887 85.0997C60.8915 85.6839 60.5428 86.2494 59.496 86.2494C59.0474 86.2494 58.5393 86.1511 58.1544 85.9549L58.3849 85.1415C58.6941 85.3054 59.0252 85.3799 59.3008 85.3799C59.5483 85.3799 59.7151 85.2911 59.6854 85.1229C59.6606 84.9829 59.546 84.8895 59.1489 84.8895H58.2004L58.0137 82.9033H60.1866L60.3332 83.7349H59.0667L59.1003 84.0572H59.2684C60.2359 84.0575 60.6865 84.5199 60.7887 85.0997Z" fill="white"/>
<path d="M71.8491 82.9033L72.4257 86.1743H71.3231L70.8931 83.7349H70.3321L70.1855 82.9033H71.8491Z" fill="white"/>
<path d="M75.5363 85.104C75.6597 85.8051 75.1494 86.2491 74.4112 86.2491C73.4767 86.2491 72.7463 85.7117 72.5576 84.6417C72.3558 83.4967 72.9716 82.8286 74.051 82.8286C74.4389 82.8286 74.8337 82.922 75.1102 83.0859L74.849 83.8568C74.6335 83.7213 74.4307 83.6841 74.225 83.6841C73.8512 83.6841 73.6233 83.8754 73.6128 84.2401C73.7559 84.1232 73.9547 84.0579 74.2303 84.0579C74.8284 84.0573 75.4237 84.4638 75.5363 85.104ZM74.48 85.1553C74.4438 84.9496 74.2806 84.8187 74.0843 84.8187C73.8881 84.8187 73.7709 84.9496 73.8071 85.1553C73.8434 85.361 74.0056 85.487 74.2022 85.487C74.3984 85.4874 74.5163 85.361 74.48 85.1553Z" fill="white"/>
<path d="M86.507 82.9038L87.0839 86.1748H85.9813L85.5513 83.7354H84.9904L84.8438 82.9038H86.507Z" fill="white"/>
<path d="M89.6703 82.9038L89.7898 83.5813L89.158 86.1748H87.9525L88.5637 83.7589H87.9329L88.0171 84.2356H87.1059L86.8711 82.9038H89.6703Z" fill="white"/>
<path d="M101.05 82.9033L101.627 86.1743H100.524L100.094 83.7349H99.5333L99.3867 82.9033H101.05Z" fill="white"/>
<path d="M104.774 85.2027C104.886 85.838 104.356 86.2494 103.491 86.2494C102.626 86.2494 101.951 85.838 101.839 85.2027C101.781 84.8755 101.9 84.6185 102.146 84.4501C101.917 84.2914 101.757 84.0762 101.709 83.8052C101.605 83.2119 102.093 82.8286 102.888 82.8286C103.682 82.8286 104.306 83.2119 104.41 83.8052C104.458 84.0762 104.375 84.2914 104.202 84.4501C104.507 84.6182 104.716 84.8752 104.774 85.2027ZM103.66 85.1648C103.623 84.9545 103.45 84.8239 103.24 84.8239C103.029 84.8239 102.903 84.9545 102.94 85.1648C102.977 85.3754 103.15 85.506 103.36 85.506C103.57 85.506 103.697 85.3754 103.66 85.1648ZM102.806 83.8519C102.838 84.0295 102.968 84.1324 103.118 84.1324C103.267 84.1324 103.361 84.0295 103.33 83.8519C103.298 83.6746 103.168 83.5717 103.019 83.5717C102.869 83.5714 102.775 83.6743 102.806 83.8519Z" fill="white"/>
<path d="M115.714 82.9038L116.291 86.1748H115.188L114.758 83.7354H114.197L114.051 82.9038H115.714Z" fill="white"/>
<path d="M119.203 84.4362C119.404 85.5812 118.789 86.2493 117.709 86.2493C117.322 86.2493 116.926 86.1559 116.65 85.992L116.911 85.2211C117.127 85.3566 117.33 85.3938 117.535 85.3938C117.909 85.3938 118.137 85.2025 118.147 84.8378C118.004 84.9547 117.806 85.02 117.53 85.02C116.932 85.02 116.336 84.6135 116.223 83.9732C116.1 83.2722 116.61 82.8281 117.349 82.8281C118.283 82.8288 119.014 83.3662 119.203 84.4362ZM117.953 83.9219C117.917 83.7165 117.754 83.5905 117.558 83.5905C117.362 83.5905 117.244 83.7165 117.28 83.9219C117.317 84.1276 117.48 84.2586 117.676 84.2586C117.872 84.2589 117.989 84.1276 117.953 83.9219Z" fill="white"/>
<path d="M131.31 85.3191L131.461 86.1742H128.84L128.72 85.4967L129.709 84.4032C129.897 84.1929 129.907 84.0669 129.887 83.9546C129.859 83.7956 129.734 83.6976 129.524 83.6976C129.328 83.6976 129.16 83.805 129.096 84.0013L128.191 83.5853C128.351 83.1367 128.768 82.8281 129.474 82.8281C130.25 82.8281 130.867 83.2301 130.977 83.8514C131.034 84.174 131.001 84.4639 130.6 84.8936L130.208 85.3187L131.31 85.3191Z" fill="white"/>
<path d="M131.398 84.5389C131.206 83.4549 131.713 82.8286 132.577 82.8286C133.442 82.8286 134.169 83.4549 134.36 84.5389C134.552 85.6229 134.045 86.2491 133.181 86.2491C132.316 86.2491 131.589 85.6229 131.398 84.5389ZM133.253 84.5389C133.141 83.9081 132.948 83.7118 132.733 83.7118C132.518 83.7118 132.394 83.9081 132.505 84.5389C132.616 85.1697 132.81 85.3659 133.025 85.3659C133.24 85.3659 133.364 85.1697 133.253 84.5389Z" fill="white"/>
<path d="M146.574 85.3191L146.725 86.1742H144.103L143.984 85.4967L144.973 84.4032C145.16 84.1929 145.171 84.0669 145.151 83.9546C145.123 83.7956 144.998 83.6976 144.788 83.6976C144.592 83.6976 144.424 83.805 144.36 84.0013L143.455 83.5853C143.614 83.1367 144.032 82.8281 144.738 82.8281C145.513 82.8281 146.131 83.2301 146.241 83.8514C146.297 84.174 146.264 84.4639 145.863 84.8936L145.471 85.3187L146.574 85.3191Z" fill="white"/>
<path d="M147.923 82.9038L148.5 86.1748H147.397L146.967 83.7354H146.406L146.26 82.9038H147.923Z" fill="white"/>
<path d="M60.9196 99.6145L61.0704 100.47H58.4489L58.3294 99.7921L59.3187 98.6986C59.5058 98.4883 59.5166 98.3623 59.4967 98.25C59.4686 98.091 59.3439 97.993 59.1336 97.993C58.9374 97.993 58.7692 98.1004 58.7059 98.2967L57.8008 97.8807C57.9601 97.4321 58.3777 97.1235 59.0833 97.1235C59.8591 97.1235 60.4765 97.5255 60.5862 98.1468C60.643 98.4691 60.6101 98.759 60.2091 99.189L59.8166 99.6141H60.9196V99.6145Z" fill="white"/>
<path d="M63.7594 99.6145L63.9103 100.47H61.2887L61.1692 99.7921L62.1586 98.6986C62.346 98.4883 62.3564 98.3623 62.3365 98.25C62.3084 98.091 62.1837 97.993 61.9734 97.993C61.7772 97.993 61.609 98.1004 61.5457 98.2967L60.6406 97.8807C60.8 97.4321 61.2176 97.1235 61.9231 97.1235C62.6989 97.1235 63.3164 97.5255 63.4261 98.1468C63.4829 98.4691 63.4499 98.759 63.0489 99.189L62.6568 99.6141H63.7594V99.6145Z" fill="white"/>
<path d="M75.527 99.6145L75.6779 100.47H73.0563L72.9368 99.7921L73.9261 98.6986C74.1132 98.4883 74.124 98.3623 74.1041 98.25C74.076 98.091 73.9513 97.993 73.741 97.993C73.5448 97.993 73.3766 98.1004 73.3133 98.2967L72.4082 97.8807C72.5675 97.4321 72.9851 97.1235 73.6907 97.1235C74.4665 97.1235 75.0839 97.5255 75.1936 98.1468C75.2505 98.4691 75.2175 98.759 74.8165 99.189L74.4241 99.6141H75.527V99.6145Z" fill="white"/>
<path d="M78.3392 99.4227C78.4381 99.9837 78.0884 100.544 77.0416 100.544C76.593 100.544 76.085 100.446 75.7 100.25L75.9305 99.4364C76.2397 99.6004 76.5754 99.6748 76.8509 99.6748C77.0988 99.6748 77.2614 99.5909 77.2317 99.4224C77.2068 99.2823 77.0847 99.1981 76.8043 99.1981H76.3697L76.2502 98.5206L76.6449 98.0299H75.4767L75.3301 97.1982H77.7694L77.8889 97.8757L77.39 98.4925C77.9265 98.6189 78.2592 98.9695 78.3392 99.4227Z" fill="white"/>
<path d="M89.9215 99.6145L90.0724 100.47H87.4508L87.3313 99.7921L88.3207 98.6986C88.5078 98.4883 88.5185 98.3623 88.4986 98.25C88.4705 98.091 88.3458 97.993 88.1355 97.993C87.9393 97.993 87.7711 98.1004 87.7078 98.2967L86.8027 97.8807C86.9621 97.4321 87.3797 97.1235 88.0853 97.1235C88.861 97.1235 89.4785 97.5255 89.5882 98.1468C89.645 98.4691 89.612 98.759 89.2111 99.189L88.8189 99.6141H89.9215V99.6145Z" fill="white"/>
<path d="M93.3711 99.9087H92.9365L93.0354 100.47H91.9654L91.8665 99.9087H90.1703L90.0469 99.2081L91.0803 97.1987H92.2113L91.3046 99.0539H91.7486L91.6605 98.5541H92.6981L92.7863 99.0539H93.2209L93.3711 99.9087Z" fill="white"/>
<path d="M104.756 99.6145L104.906 100.47H102.285L102.165 99.7921L103.155 98.6986C103.342 98.4883 103.353 98.3623 103.333 98.25C103.305 98.091 103.18 97.993 102.97 97.993C102.773 97.993 102.605 98.1004 102.542 98.2967L101.637 97.8807C101.796 97.4321 102.214 97.1235 102.919 97.1235C103.695 97.1235 104.312 97.5255 104.422 98.1468C104.479 98.4691 104.446 98.759 104.045 99.189L103.653 99.6141H104.756V99.6145Z" fill="white"/>
<path d="M107.613 99.3947C107.716 99.9788 107.367 100.544 106.321 100.544C105.872 100.544 105.364 100.446 104.979 100.25L105.209 99.4364C105.519 99.6004 105.85 99.6748 106.125 99.6748C106.373 99.6748 106.54 99.586 106.51 99.4178C106.485 99.2778 106.371 99.1844 105.973 99.1844H105.025L104.838 97.1982H107.011L107.157 98.0299H105.891L105.925 98.3521H106.093C107.06 98.3524 107.511 98.8151 107.613 99.3947Z" fill="white"/>
<path d="M119.281 99.6145L119.432 100.47H116.81L116.691 99.7921L117.68 98.6986C117.867 98.4883 117.878 98.3623 117.858 98.25C117.83 98.091 117.705 97.993 117.495 97.993C117.299 97.993 117.131 98.1004 117.067 98.2967L116.162 97.8807C116.321 97.4321 116.739 97.1235 117.445 97.1235C118.22 97.1235 118.838 97.5255 118.948 98.1468C119.004 98.4691 118.971 98.759 118.57 99.189L118.178 99.6141H119.281V99.6145Z" fill="white"/>
<path d="M122.366 99.3993C122.49 100.1 121.979 100.544 121.241 100.544C120.306 100.544 119.576 100.007 119.388 98.9366C119.186 97.7916 119.802 97.1235 120.881 97.1235C121.269 97.1235 121.664 97.2169 121.94 97.3808L121.679 98.152C121.464 98.0165 121.261 97.979 121.055 97.979C120.681 97.979 120.453 98.1703 120.443 98.535C120.586 98.4181 120.784 98.3528 121.06 98.3528C121.658 98.3525 122.253 98.7593 122.366 99.3993ZM121.31 99.4509C121.274 99.2452 121.11 99.1142 120.914 99.1142C120.718 99.1142 120.601 99.2452 120.637 99.4509C120.673 99.6566 120.836 99.7826 121.032 99.7826C121.228 99.7829 121.346 99.6566 121.31 99.4509Z" fill="white"/>
<path d="M133.939 99.6145L134.09 100.47H131.468L131.349 99.7921L132.338 98.6986C132.526 98.4883 132.536 98.3623 132.516 98.25C132.488 98.091 132.363 97.993 132.153 97.993C131.957 97.993 131.789 98.1004 131.725 98.2967L130.82 97.8807C130.98 97.4321 131.397 97.1235 132.103 97.1235C132.878 97.1235 133.496 97.5255 133.605 98.1468C133.662 98.4691 133.629 98.759 133.228 99.189L132.836 99.6141H133.939V99.6145Z" fill="white"/>
<path d="M136.5 97.1987L136.62 97.8762L135.988 100.47H134.783L135.394 98.0539H134.763L134.847 98.5306H133.936L133.701 97.1987H136.5Z" fill="white"/>
<path d="M148.486 99.6145L148.637 100.47H146.015L145.896 99.7921L146.885 98.6986C147.073 98.4883 147.083 98.3623 147.063 98.25C147.035 98.091 146.91 97.993 146.7 97.993C146.504 97.993 146.336 98.1004 146.272 98.2967L145.367 97.8807C145.527 97.4321 145.944 97.1235 146.65 97.1235C147.425 97.1235 148.043 97.5255 148.153 98.1468C148.209 98.4691 148.176 98.759 147.776 99.189L147.383 99.6141H148.486V99.6145Z" fill="white"/>
<path d="M151.608 99.4976C151.72 100.133 151.189 100.544 150.325 100.544C149.46 100.544 148.785 100.133 148.673 99.4976C148.615 99.1704 148.733 98.9135 148.98 98.745C148.75 98.5863 148.591 98.3711 148.543 98.1001C148.439 97.5069 148.927 97.1235 149.721 97.1235C150.516 97.1235 151.139 97.5069 151.244 98.1001C151.292 98.3711 151.208 98.5863 151.035 98.745C151.341 98.9135 151.55 99.1704 151.608 99.4976ZM150.493 99.46C150.456 99.2498 150.284 99.1192 150.073 99.1192C149.863 99.1192 149.737 99.2498 149.774 99.46C149.811 99.6706 149.983 99.8012 150.193 99.8012C150.404 99.8012 150.53 99.6706 150.493 99.46ZM149.64 98.1471C149.671 98.3248 149.802 98.4276 149.951 98.4276C150.101 98.4276 150.195 98.3248 150.163 98.1471C150.132 97.9695 150.002 97.867 149.852 97.867C149.703 97.867 149.609 97.9695 149.64 98.1471Z" fill="white"/>
<path d="M63.234 113.428L63.3849 114.284H60.7634L60.6439 113.606L61.6332 112.513C61.8203 112.302 61.831 112.176 61.8111 112.064C61.783 111.905 61.6583 111.807 61.448 111.807C61.2518 111.807 61.0837 111.914 61.0203 112.111L60.1152 111.695C60.2746 111.246 60.6922 110.938 61.3978 110.938C62.1735 110.938 62.791 111.339 62.9007 111.961C62.9575 112.283 62.9245 112.573 62.5236 113.003L62.1314 113.428H63.234V113.428Z" fill="white"/>
<path d="M66.1202 112.545C66.322 113.69 65.7062 114.358 64.6268 114.358C64.2389 114.358 63.8441 114.265 63.5676 114.101L63.8288 113.33C64.0443 113.466 64.247 113.503 64.4527 113.503C64.8266 113.503 65.0545 113.312 65.0649 112.947C64.9219 113.064 64.7234 113.129 64.4475 113.129C63.8493 113.129 63.2544 112.723 63.1415 112.083C63.018 111.382 63.5284 110.938 64.2666 110.938C65.2011 110.938 65.9315 111.475 66.1202 112.545ZM64.8707 112.031C64.8344 111.826 64.6721 111.7 64.4756 111.7C64.2793 111.7 64.1615 111.826 64.1977 112.031C64.234 112.237 64.3972 112.368 64.5935 112.368C64.7897 112.368 64.9069 112.237 64.8707 112.031Z" fill="white"/>
<path d="M77.7357 113.236C77.8346 113.797 77.4849 114.358 76.4381 114.358C75.9895 114.358 75.4814 114.26 75.0965 114.063L75.327 113.25C75.6362 113.414 75.9719 113.489 76.2474 113.489C76.4953 113.489 76.6579 113.405 76.6281 113.236C76.6033 113.096 76.4812 113.012 76.2007 113.012H75.7662L75.6467 112.335L76.0414 111.844H74.8732L74.7266 111.012H77.1659L77.2854 111.69L76.7868 112.306C77.323 112.433 77.6557 112.783 77.7357 113.236Z" fill="white"/>
<path d="M77.88 112.648C77.689 111.564 78.1951 110.938 79.0597 110.938C79.924 110.938 80.6514 111.564 80.8427 112.648C81.0338 113.732 80.5273 114.358 79.6631 114.358C78.7982 114.358 78.071 113.732 77.88 112.648ZM79.7349 112.648C79.6236 112.017 79.4303 111.821 79.2151 111.821C79.0003 111.821 78.8759 112.017 78.9872 112.648C79.0985 113.279 79.2918 113.475 79.507 113.475C79.7222 113.475 79.8462 113.279 79.7349 112.648Z" fill="white"/>
<path d="M92.9993 113.237C93.0983 113.798 92.7486 114.359 91.7018 114.359C91.2532 114.359 90.7451 114.261 90.3602 114.064L90.5907 113.251C90.8999 113.415 91.2355 113.49 91.5111 113.49C91.7589 113.49 91.9215 113.406 91.8918 113.237C91.867 113.097 91.7449 113.013 91.4644 113.013H91.0298L90.9103 112.336L91.3051 111.845H90.1368L89.9902 111.013H92.4296L92.5491 111.691L92.0505 112.307C92.5866 112.433 92.9197 112.784 92.9993 113.237Z" fill="white"/>
<path d="M94.4077 111.013L94.9843 114.284H93.8817L93.4517 111.845H92.8907L92.7441 111.013H94.4077Z" fill="white"/>
<path d="M115.414 44.6399H74.9425L74.1426 40.104H114.614L115.414 44.6399Z" fill="#016B83"/>
<path d="M36.6685 24.7319L29.5918 123.22H54.0345L36.6685 24.7319Z" fill="#014B5C"/>
<path d="M36.6685 24.7319L41.8133 120.71L29.5918 123.22H54.0345L36.6685 24.7319Z" fill="#016B83"/>
<path d="M49.6361 30.8179C49.8033 31.766 49.1702 32.5346 48.222 32.5346C47.2738 32.5346 46.3697 31.766 46.2026 30.8179C46.0354 29.8697 46.6685 29.1011 47.6167 29.1011C48.5648 29.1011 49.4689 29.8697 49.6361 30.8179Z" fill="#569EF4"/>
<path d="M45.9913 17.7739C43.0625 17.7739 40.6797 20.8947 40.6797 24.7308H42.8464C42.8464 22.1341 44.2866 19.9406 45.9913 19.9406C47.696 19.9406 49.1362 22.1344 49.1362 24.7308C49.1362 26.7121 48.2968 28.455 47.1423 29.1717C47.0123 29.2523 46.8784 29.3179 46.7413 29.3712C46.3178 29.6761 46.0948 30.2093 46.2019 30.8176C46.2551 31.1193 46.389 31.3985 46.5689 31.6446C47.619 31.4951 48.5786 30.9443 49.3547 30.1101C50.5428 28.8331 51.303 26.8962 51.303 24.7308C51.303 20.8947 48.9201 17.7739 45.9913 17.7739Z" fill="#E4E4E0"/>
<path d="M67.8842 30.8179C68.0513 31.766 67.4182 32.5346 66.4701 32.5346C65.5219 32.5346 64.6178 31.766 64.4506 30.8179C64.2834 29.8697 64.9165 29.1011 65.8647 29.1011C66.8126 29.1011 67.717 29.8697 67.8842 30.8179Z" fill="#569EF4"/>
<path d="M64.2394 17.7739C61.3106 17.7739 58.9277 20.8947 58.9277 24.7308H61.0944C61.0944 22.1341 62.5347 19.9406 64.2394 19.9406C65.9441 19.9406 67.3843 22.1344 67.3843 24.7308C67.3843 26.7121 66.5448 28.455 65.3903 29.1717C65.2604 29.2523 65.1265 29.3179 64.9894 29.3712C64.5659 29.6761 64.3429 30.2093 64.45 30.8176C64.5032 31.1193 64.6367 31.3985 64.817 31.6446C65.8673 31.4951 66.8266 30.9443 67.6027 30.1101C68.7909 28.8331 69.5507 26.8962 69.5507 24.7308C69.551 20.8947 67.1681 17.7739 64.2394 17.7739Z" fill="#E4E4E0"/>
<path d="M86.1302 30.8183C86.2974 31.7665 85.6643 32.5351 84.7161 32.5351C83.768 32.5351 82.8639 31.7665 82.6967 30.8183C82.5295 29.8702 83.1626 29.1016 84.1108 29.1016C85.059 29.1016 85.9631 29.8702 86.1302 30.8183Z" fill="#569EF4"/>
<path d="M82.4855 17.7744C79.5567 17.7744 77.1738 20.8952 77.1738 24.7313H79.3405C79.3405 22.1346 80.7808 19.9411 82.4855 19.9411C84.1902 19.9411 85.6304 22.1349 85.6304 24.7313C85.6304 26.7126 84.7909 28.4555 83.6364 29.1722C83.5065 29.2528 83.3726 29.3184 83.2355 29.3717C82.812 29.6766 82.589 30.2098 82.6961 30.8181C82.7493 31.1198 82.8831 31.3989 83.0631 31.6451C84.1134 31.4956 85.0727 30.9448 85.8488 30.1105C87.037 28.8336 87.7968 26.8967 87.7968 24.7313C87.7971 20.8952 85.4146 17.7744 82.4855 17.7744Z" fill="#E4E4E0"/>
<path d="M104.378 30.8183C104.545 31.7665 103.912 32.5351 102.964 32.5351C102.016 32.5351 101.112 31.7665 100.945 30.8183C100.778 29.8702 101.411 29.1016 102.359 29.1016C103.307 29.1016 104.211 29.8702 104.378 30.8183Z" fill="#569EF4"/>
<path d="M100.734 17.7744C97.8047 17.7744 95.4219 20.8952 95.4219 24.7313H97.5886C97.5886 22.1346 99.0288 19.9411 100.734 19.9411C102.438 19.9411 103.878 22.1349 103.878 24.7313C103.878 26.7126 103.039 28.4555 101.884 29.1722C101.754 29.2528 101.62 29.3184 101.483 29.3717C101.06 29.6766 100.837 30.2098 100.944 30.8181C100.997 31.1198 101.131 31.3989 101.311 31.6451C102.361 31.4956 103.321 30.9448 104.097 30.1105C105.285 28.8336 106.045 26.8967 106.045 24.7313C106.045 20.8952 103.662 17.7744 100.734 17.7744Z" fill="#E4E4E0"/>
<path d="M122.624 30.8183C122.792 31.7665 122.158 32.5351 121.21 32.5351C120.262 32.5351 119.358 31.7665 119.191 30.8183C119.024 29.8702 119.657 29.1016 120.605 29.1016C121.553 29.1016 122.457 29.8702 122.624 30.8183Z" fill="#569EF4"/>
<path d="M118.98 17.7744C116.051 17.7744 113.668 20.8952 113.668 24.7313H115.835C115.835 22.1346 117.275 19.9411 118.98 19.9411C120.684 19.9411 122.125 22.1349 122.125 24.7313C122.125 26.7126 121.285 28.4555 120.131 29.1722C120.001 29.2528 119.867 29.3184 119.73 29.3717C119.306 29.6766 119.083 30.2098 119.19 30.8181C119.243 31.1198 119.377 31.3989 119.557 31.6451C120.608 31.4956 121.567 30.9448 122.343 30.1105C123.531 28.8336 124.291 26.8967 124.291 24.7313C124.291 20.8952 121.908 17.7744 118.98 17.7744Z" fill="#E4E4E0"/>
<path d="M140.874 30.8183C141.042 31.7665 140.408 32.5351 139.46 32.5351C138.512 32.5351 137.608 31.7665 137.441 30.8183C137.274 29.8702 137.907 29.1016 138.855 29.1016C139.803 29.1016 140.707 29.8702 140.874 30.8183Z" fill="#569EF4"/>
<path d="M137.23 17.7744C134.301 17.7744 131.918 20.8952 131.918 24.7313H134.085C134.085 22.1346 135.525 19.9411 137.23 19.9411C138.934 19.9411 140.375 22.1349 140.375 24.7313C140.375 26.7126 139.535 28.4555 138.381 29.1722C138.251 29.2528 138.117 29.3184 137.98 29.3717C137.556 29.6766 137.333 30.2098 137.44 30.8181C137.493 31.1198 137.627 31.3989 137.807 31.6451C138.857 31.4956 139.817 30.9448 140.593 30.1105C141.781 28.8336 142.541 26.8967 142.541 24.7313C142.541 20.8952 140.158 17.7744 137.23 17.7744Z" fill="#E4E4E0"/>
<path opacity="0.7" d="M82.3848 55.2161C83.2069 53.6031 84.0291 51.9902 84.8509 50.3772C85.1163 49.8561 84.1815 49.3657 83.9181 49.8829C83.1246 51.4397 82.3312 52.9961 81.5378 54.5529C79.537 53.0095 77.4682 51.5569 75.3289 50.2081C74.7494 49.8427 74.4095 50.6916 74.9838 51.0537C77.1009 52.3888 79.1465 53.8307 81.1244 55.3636C80.1051 57.3638 79.0854 59.3643 78.066 61.3645C77.8006 61.8856 78.7354 62.3761 78.9989 61.8589C79.9895 59.9155 80.9798 57.9721 81.9704 56.0287C84.5316 58.0704 86.9725 60.2698 89.2754 62.6245C89.7563 63.1163 90.3225 62.4195 89.8458 61.932C87.4956 59.5283 85.0014 57.2913 82.3848 55.2161Z" fill="#402C49"/>
<path opacity="0.7" d="M120.634 93.5946C119.997 93.4692 119.9 94.4131 120.541 94.5392C123.636 95.1488 125.725 98.358 124.882 101.097C123.959 104.097 120.205 105.12 117.107 103.314C114.279 101.665 112.848 98.4289 113.62 95.7123C114.429 92.8639 117.31 91.5908 120.414 92.2415C121.052 92.3754 121.148 91.4311 120.508 91.2969C116.895 90.5394 113.526 92.0486 112.627 95.3865C111.698 98.835 113.915 103.047 117.682 104.612C121.311 106.12 125.18 104.561 125.944 101.105C126.649 97.9166 124.142 94.2855 120.634 93.5946Z" fill="#402C49"/>
<path opacity="0.7" d="M97.0938 65.9097C96.7265 66.3563 97.5411 67.0492 97.9084 66.6022C99.7509 64.3611 103.48 66.2711 104.187 69.1764C104.821 71.7829 103.132 73.8814 100.96 74.6872C98.2686 75.6853 95.8488 74.0218 94.8347 71.1563C93.8725 68.4369 94.7736 65.8731 96.83 64.4655C97.3093 64.1374 96.6683 63.2898 96.1864 63.6199C93.5009 65.4581 92.6209 69.0353 94.3864 72.4487C96.1707 75.8985 99.4574 76.7543 102.335 75.2077C104.914 73.8213 106.338 70.4867 104.417 67.3894C102.668 64.5684 98.9369 63.6682 97.0938 65.9097Z" fill="#402C49"/>
<path opacity="0.7" d="M136.887 75.9707C134.461 74.029 132.121 71.987 129.868 69.852C130.685 68.6171 131.502 67.3822 132.319 66.1477C132.636 65.6674 131.824 64.971 131.504 65.4552C130.699 66.6727 129.893 67.8903 129.088 69.1078C127.717 67.7829 126.379 66.4236 125.079 65.0265C124.616 64.5295 123.851 65.017 124.321 65.5208C125.705 67.0081 127.128 68.4561 128.587 69.8647C127.665 71.2592 126.743 72.6537 125.82 74.0482C125.502 74.5282 126.315 75.225 126.635 74.7408C127.546 73.3626 128.458 71.9847 129.369 70.6065C131.6 72.7177 133.913 74.7401 136.317 76.6632C136.853 77.0926 137.426 76.4014 136.887 75.9707Z" fill="#402C49"/>
</svg>
