<svg width="293" height="217" viewBox="0 0 293 217" fill="none" xmlns="http://www.w3.org/2000/svg">
<g clip-path="url(#clip0_32_4274)">
<path d="M259.683 166.977C259.683 171.366 211.485 170.329 150 170.329C88.5141 170.329 37.0234 171.366 37.0234 166.977C37.0234 162.589 88.5141 161.569 150 161.569C211.485 161.569 259.683 162.589 259.683 166.977Z" fill="#036C83"/>
<mask id="mask0_32_4274" style="mask-type:luminance" maskUnits="userSpaceOnUse" x="37" y="0" width="222" height="164">
<path d="M37.8262 0.101562H258.878V163.747H37.8262V0.101562Z" fill="white"/>
</mask>
<g mask="url(#mask0_32_4274)">
<mask id="mask1_32_4274" style="mask-type:luminance" maskUnits="userSpaceOnUse" x="37" y="0" width="222" height="164">
<path d="M246.144 163.735C227.634 162.044 191.903 161.571 149.999 161.571C113.357 161.571 80.2669 161.934 59.5067 163.155C49.6758 152.112 25.7796 119.63 45.4341 82.5862C57.6706 59.5226 75.9296 53.7996 91.0322 53.7996C105.905 53.7996 117.717 59.3454 117.717 59.3454C117.717 59.3454 112.542 21.9111 161.943 3.62322C168.402 1.23298 174.588 0.158203 180.419 0.158203C222.353 0.158203 246.371 55.635 228.743 75.6192C228.743 75.6192 282.6 108.551 246.144 163.735Z" fill="white"/>
</mask>
<g mask="url(#mask1_32_4274)">
<mask id="mask2_32_4274" style="mask-type:luminance" maskUnits="userSpaceOnUse" x="37" y="0" width="222" height="164">
<path d="M246.144 163.737C227.634 162.046 191.903 161.573 149.999 161.573C113.357 161.573 80.2669 161.936 59.5067 163.157C49.6758 152.114 25.7796 119.632 45.4341 82.5882C57.6706 59.5245 75.9296 53.8016 91.0322 53.8016C105.905 53.8016 117.717 59.3474 117.717 59.3474C117.717 59.3474 112.542 21.9131 161.943 3.62518C168.402 1.23493 174.588 0.160156 180.419 0.160156C222.353 0.160156 246.371 55.637 228.743 75.6211C228.743 75.6211 282.6 108.553 246.144 163.737Z" fill="white"/>
</mask>
<g mask="url(#mask2_32_4274)">
<path d="M281.999 0.160156H25.7793V163.737H281.999V0.160156Z" fill="#D8EEF3"/>
</g>
</g>
</g>
<path d="M243.779 167.168H63.3602C63.3602 167.168 61.8243 165.755 59.5068 163.154C80.267 161.932 113.357 161.569 150 161.569C191.903 161.569 227.634 162.042 246.144 163.733C245.394 164.869 244.604 166.016 243.779 167.168Z" fill="#A8D5DF"/>
<path d="M142.246 136.997H46.416V86.9312C46.416 84.0945 48.7209 81.7949 51.5635 81.7949H137.098C139.941 81.7949 142.246 84.0945 142.246 86.9312V136.997Z" fill="#F4A7CB"/>
<path d="M84.8167 143.69C84.8167 143.69 84.9086 150.027 80.2617 166.155H110.465C110.465 166.155 103.255 159.819 104.546 143.69H84.8167Z" fill="#126C81"/>
<path d="M104.416 148.818C104.366 147.23 104.398 145.527 104.545 143.69H84.8158C84.8158 143.69 84.8377 145.259 84.2891 148.818H104.416Z" fill="#016B83"/>
<path d="M64.8283 160.913L62.6158 166.043C62.5365 166.227 62.6717 166.432 62.8722 167.168H124.498C124.698 166.432 124.833 166.227 124.754 166.043L122.541 160.913C122.498 160.812 122.396 160.745 122.285 160.745H65.0841C64.9729 160.745 64.8722 160.812 64.8283 160.913Z" fill="#016B83"/>
<path d="M144.882 145.703H42.9606C41.6053 145.703 40.5059 144.606 40.5059 143.254V80.2821C40.5059 78.9297 41.6053 77.833 42.9606 77.833H147.386C147.811 77.833 148.156 78.1774 148.156 78.6014V142.436C148.156 144.241 146.69 145.703 144.882 145.703Z" fill="#016B83"/>
<path d="M41.2373 144.925V81.025C41.2373 79.6523 42.3466 78.5389 43.7144 78.5389H148.15C148.117 78.144 147.789 77.833 147.386 77.833H42.9606C41.6053 77.833 40.5059 78.9297 40.5059 80.2821V143.254C40.5059 143.938 40.7878 144.556 41.2414 145C41.2404 144.974 41.2373 144.95 41.2373 144.925Z" fill="#48C1F0"/>
<path d="M142.246 139.455H46.416V81.7949H142.246V139.455Z" fill="#F0F6F9"/>
<path d="M96.904 142.395C96.904 143.267 96.2138 143.974 95.3634 143.974C94.5124 143.974 93.8223 143.267 93.8223 142.395C93.8223 141.523 94.5124 140.816 95.3634 140.816C96.2138 140.816 96.904 141.523 96.904 142.395Z" fill="#016B83"/>
<path d="M112.304 118.899H74.126V87.6309H81.7162L85.2281 90.081H112.304V118.899Z" fill="#EF9A07"/>
<path d="M110.482 99.7382H78.7236V95.8799H110.482V99.7382Z" fill="#EFEEED"/>
<path d="M89.2586 71.5391L87.2492 73.8626L84.9219 76.5524V104.215H109.885V71.5391H89.2586Z" fill="#B0D7ED"/>
<path d="M88.2586 70.5391L83.9219 75.5524V103.215H108.885V70.5391H88.2586Z" fill="#FEFFFF"/>
<path d="M105.486 100.211H98.2285V99.3857H105.486V100.211Z" fill="#ACBBE0"/>
<path d="M101.102 85.917H86.3193V87.1705H101.102V85.917Z" fill="#B8DDF5"/>
<path d="M106.042 83.5381H86.3193V84.7916H106.042V83.5381Z" fill="#B8DDF5"/>
<path d="M106.042 81.1572H86.3193V82.4107H106.042V81.1572Z" fill="#B8DDF5"/>
<path d="M101.102 93.875H86.3193V95.1285H101.102V93.875Z" fill="#B8DDF5"/>
<path d="M106.042 91.4961H86.3193V92.7511H106.042V91.4961Z" fill="#B8DDF5"/>
<path d="M106.042 89.1162H86.3193V90.3697H106.042V89.1162Z" fill="#B8DDF5"/>
<path d="M100.437 79.5265H86.3193V78.1006H100.437V79.5265Z" fill="#B8DDF5"/>
<path d="M83.9219 75.5524H88.2586V70.5391L83.9219 75.5524Z" fill="#B8DDF5"/>
<path d="M112.617 118.902H73.6328L76.0432 98.2061H115.027L112.617 118.902Z" fill="#EF9A07"/>
<path d="M120.46 128.619H68.2003C66.9176 128.619 65.874 129.661 65.874 130.941C65.874 132.22 66.9176 133.262 68.2003 133.262H120.46C121.743 133.262 122.786 132.22 122.786 130.941C122.786 129.661 121.743 128.619 120.46 128.619Z" fill="#016B83"/>
<path d="M120.46 129.202H68.2006C67.2384 129.202 66.459 129.981 66.459 130.942C66.459 131.9 67.2384 132.679 68.2006 132.679H120.46C121.422 132.679 122.202 131.9 122.202 130.942C122.202 129.981 121.422 129.202 120.46 129.202Z" fill="#FFFFEC"/>
<path d="M68.2465 129.896C67.668 129.896 67.1992 130.363 67.1992 130.941C67.1992 131.517 67.668 131.985 68.2465 131.985H97.9297V129.896H68.2465Z" fill="#F9386A"/>
<path d="M231.684 144.492H198.521V117.332H205.115L208.165 119.458H231.684V144.492Z" fill="#EF9A07"/>
<path d="M230.101 127.847H202.514V124.495H230.101V127.847Z" fill="#EFEEED"/>
<path d="M211.665 100.915L209.919 102.933L207.898 105.269V129.299H229.582V100.915H211.665Z" fill="#B0D6EA"/>
<path d="M210.795 100.05L207.029 104.403V128.433H228.714V100.05H210.795Z" fill="white"/>
<path d="M225.761 125.82H219.457V125.103H225.761V125.82Z" fill="#B8DDF5"/>
<path d="M221.953 113.404H209.111V114.493H221.953V113.404Z" fill="#B8DDF5"/>
<path d="M226.243 111.337H209.111V112.425H226.243V111.337Z" fill="#B8DDF5"/>
<path d="M226.243 109.27H209.111V110.358H226.243V109.27Z" fill="#B8DDF5"/>
<path d="M221.953 120.318H209.111V121.408H221.953V120.318Z" fill="#B8DDF5"/>
<path d="M226.243 118.251H209.111V119.341H226.243V118.251Z" fill="#B8DDF5"/>
<path d="M226.243 116.184H209.111V117.273H226.243V116.184Z" fill="#B8DDF5"/>
<path d="M221.374 107.853H209.111V106.615H221.374V107.853Z" fill="#B8DDF5"/>
<path d="M207.029 104.403H210.795V100.05L207.029 104.403Z" fill="#B8DDF5"/>
<path d="M231.956 144.491H198.093L200.185 126.515H234.049L231.956 144.491Z" fill="#EF9A07"/>
<path d="M121.385 37.0498L119.633 39.0743L117.604 41.4203V65.5446H139.373V37.0498H121.385Z" fill="#B0D6EA"/>
<path d="M120.514 36.1807L116.731 40.5522V64.6765H138.501V36.1807H120.514Z" fill="white"/>
<path d="M135.537 62.0516H129.208V61.3301H135.537V62.0516Z" fill="#B8DDF5"/>
<path d="M131.715 49.5898H118.823V50.6834H131.715V49.5898Z" fill="#B8DDF5"/>
<path d="M136.022 47.5117H118.823V48.6058H136.022V47.5117Z" fill="#B8DDF5"/>
<path d="M136.022 45.4385H118.823V46.532H136.022V45.4385Z" fill="#B8DDF5"/>
<path d="M131.715 56.5312H118.823V57.6248H131.715V56.5312Z" fill="#B8DDF5"/>
<path d="M136.022 54.4551H118.823V55.5486H136.022V54.4551Z" fill="#B8DDF5"/>
<path d="M136.022 52.3799H118.823V53.4724H136.022V52.3799Z" fill="#B8DDF5"/>
<path d="M131.135 44.0165H118.823V42.7734H131.135V44.0165Z" fill="#B8DDF5"/>
<path d="M116.731 40.5511H120.514V36.1807L116.731 40.5511Z" fill="#B8DDF5"/>
<path d="M153.709 31.0127L152.024 32.9601L150.073 35.2165V58.4109H171.005V31.0127H153.709Z" fill="#B8DDF5"/>
<path d="M152.87 30.1768L149.235 34.3805V57.5749H170.166V30.1768H152.87Z" fill="white"/>
<path d="M167.317 55.0557H161.231V54.3633H167.317V55.0557Z" fill="#B8DDF5"/>
<path d="M163.641 43.0703H151.245V44.1211H163.641V43.0703Z" fill="#B8DDF5"/>
<path d="M167.782 41.0732H151.245V42.1256H167.782V41.0732Z" fill="#B8DDF5"/>
<path d="M167.782 39.0771H151.245V40.1285H167.782V39.0771Z" fill="#B8DDF5"/>
<path d="M163.641 49.7441H151.245V50.795H163.641V49.7441Z" fill="#B8DDF5"/>
<path d="M167.782 47.748H151.245V48.7989H167.782V47.748Z" fill="#B8DDF5"/>
<path d="M167.782 45.751H151.245V46.8034H167.782V45.751Z" fill="#B8DDF5"/>
<path d="M163.083 37.7112H151.245V36.5166H163.083V37.7112Z" fill="#B8DDF5"/>
<path d="M149.235 34.3805H152.87V30.1768L149.235 34.3805Z" fill="#B8DDF5"/>
<path d="M182.247 48.0176L180.627 49.89L178.751 52.0604V74.3608H198.877V48.0176H182.247Z" fill="#B8DDF5"/>
<path d="M181.441 47.2178L177.945 51.2585V73.561H198.071V47.2178H181.441Z" fill="white"/>
<path d="M195.332 71.135H189.48V70.4697H195.332V71.135Z" fill="#B8DDF5"/>
<path d="M191.796 59.6133H179.879V60.624H191.796V59.6133Z" fill="#B8DDF5"/>
<path d="M195.779 57.6924H179.879V58.7031H195.779V57.6924Z" fill="#B8DDF5"/>
<path d="M195.779 55.7734H179.879V56.7847H195.779V55.7734Z" fill="#B8DDF5"/>
<path d="M191.796 66.0283H179.879V67.039H191.796V66.0283Z" fill="#B8DDF5"/>
<path d="M195.779 64.1113H179.879V65.122H195.779V64.1113Z" fill="#B8DDF5"/>
<path d="M195.779 62.1924H179.879V63.2031H195.779V62.1924Z" fill="#B8DDF5"/>
<path d="M191.26 54.4598H179.879V53.3105H191.26V54.4598Z" fill="#B8DDF5"/>
<path d="M177.945 51.2585H181.441V47.2178L177.945 51.2585Z" fill="#B8DDF5"/>
<path d="M209.246 68.5762L207.778 70.2725L206.08 72.236V92.4333H224.305V68.5762H209.246Z" fill="#B8DDF5"/>
<path d="M208.517 67.8467L205.351 71.5065V91.7038H223.576V67.8467H208.517Z" fill="white"/>
<path d="M221.096 89.508H215.797V88.9053H221.096V89.508Z" fill="#B8DDF5"/>
<path d="M217.894 79.0732H207.101V79.9881H217.894V79.0732Z" fill="#B8DDF5"/>
<path d="M221.5 77.334H207.101V78.2504H221.5V77.334Z" fill="#B8DDF5"/>
<path d="M221.5 75.5967H207.101V76.5131H221.5V75.5967Z" fill="#B8DDF5"/>
<path d="M217.894 84.8848H207.101V85.7996H217.894V84.8848Z" fill="#B8DDF5"/>
<path d="M221.5 83.1475H207.101V84.0623H221.5V83.1475Z" fill="#B8DDF5"/>
<path d="M221.5 81.4082H207.101V82.323H221.5V81.4082Z" fill="#B8DDF5"/>
<path d="M217.409 74.4086H207.101V73.3682H217.409V74.4086Z" fill="#B8DDF5"/>
<path d="M205.351 71.5065H208.517V67.8467L205.351 71.5065Z" fill="#B8DDF5"/>
<path d="M251.871 92.3418C247.606 92.3418 244.147 95.7922 244.147 100.049C244.147 104.305 247.606 107.757 251.871 107.757C256.137 107.757 259.595 104.305 259.595 100.049C259.595 95.7922 256.137 92.3418 251.871 92.3418Z" fill="#F9386A"/>
<path d="M256.304 97.0596C255.636 97.3008 255.013 97.6478 254.414 98.0249C253.813 98.4026 253.251 98.8319 252.7 99.2722C252.147 99.7134 251.619 100.182 251.102 100.663C250.788 100.958 250.481 101.257 250.178 101.563L247.614 99.2216L247.328 99.4576L249.601 103.157L250.04 103.869L250.835 103.142C251.2 102.599 251.613 102.042 252.028 101.509C252.447 100.974 252.88 100.449 253.337 99.9458C253.795 99.4441 254.266 98.9497 254.776 98.5037C255.285 98.0572 255.822 97.6368 256.415 97.3091L256.304 97.0596Z" fill="white"/>
</g>
<defs>
<clipPath id="clip0_32_4274">
<rect width="293" height="217" fill="white"/>
</clipPath>
</defs>
</svg>
