<svg width="51" height="66" viewBox="0 0 51 66" fill="none" xmlns="http://www.w3.org/2000/svg">
<g clip-path="url(#clip0_560_42341)">
<path fill-rule="evenodd" clip-rule="evenodd" d="M45.7887 45.1119V37.399C46.1142 35.9972 46.7278 35.2774 47.416 35.1485C49.8063 34.6974 49.4221 44.5748 45.7887 45.1119ZM44.2628 35.4064L41.0402 35.7608C41.2056 36.357 41.2909 36.9855 41.2909 37.6354C41.2909 39.5851 40.5066 41.3522 39.2368 42.6305C37.967 43.9088 36.2116 44.6983 34.2748 44.6983C32.3381 44.6983 30.5827 43.9088 29.3129 42.6305C28.0431 41.3522 27.2587 39.5851 27.2587 37.6354C27.2587 37.4474 27.2641 37.2594 27.2801 37.0768C27.2801 37.0392 27.1467 36.9586 27.12 36.9317C26.4478 36.3517 25.7542 36.0992 25.1139 36.1368C24.4736 36.1744 23.8441 36.5021 23.2999 37.0929H23.2945C23.2625 37.1251 23.2198 37.1734 23.1718 37.2379C23.1558 37.2594 23.1345 37.2809 23.1131 37.297C23.1184 37.4098 23.1238 37.5226 23.1238 37.6354C23.1238 39.5851 22.3395 41.3522 21.0696 42.6305C19.7998 43.9088 18.0444 44.6983 16.1077 44.6983C14.1709 44.6983 12.4156 43.9088 11.1457 42.6305C9.85455 41.3575 9.07024 39.5904 9.07024 37.6407C9.07024 36.9962 9.15561 36.3678 9.31567 35.7716L6.06106 35.3634V48.9845C7.07479 53.8775 8.32328 54.2857 11.4338 57.3526L16.8333 62.67C17.8097 63.4811 18.9088 63.9537 20.0772 64.233C22.1314 64.7164 29.0248 64.8722 30.9509 64.2438C32.1247 63.8624 33.2291 63.1642 34.2535 62.0792L38.1751 58.2442C41.9632 54.5436 44.5349 52.9483 44.2628 46.8199V35.4064ZM16.0917 30.5724C18.0284 30.5724 19.7838 31.3619 21.0536 32.6402C21.8219 33.4137 22.4195 34.3697 22.761 35.4386C23.4386 34.9391 24.2015 34.649 24.9965 34.6061C25.8769 34.5523 26.7732 34.794 27.6216 35.3526C27.9737 34.3214 28.5553 33.3976 29.3022 32.6402C30.5721 31.3619 32.3274 30.5724 34.2642 30.5724C36.2009 30.5724 37.9563 31.3619 39.2261 32.6402C39.7063 33.1236 40.1171 33.6769 40.4426 34.2838L44.2574 33.8648V27.527C31.4097 18.2618 23.5026 10.5919 12.7944 17.4186C8.98487 19.8463 7.80041 24.8253 6.06106 27.6022V33.8219C6.0984 33.8219 6.13575 33.8219 6.1731 33.8273L9.90257 34.2945C10.228 33.6822 10.6442 33.129 11.1244 32.6402C12.3942 31.3673 14.1496 30.5724 16.0917 30.5724ZM4.5618 45.1119V37.399C4.23634 35.9972 3.62276 35.2774 2.93449 35.1485C0.538879 34.6974 0.928366 44.5748 4.5618 45.1119ZM4.78055 46.4386C4.64717 46.4601 4.50844 46.4654 4.36972 46.444C1.8514 46.0733 0.496196 42.9689 0.170734 39.9986C0.0800316 39.1822 0.0640252 38.3712 0.122715 37.6407C0.181405 36.8619 0.325462 36.1422 0.560221 35.5621C1.06175 34.2945 1.92609 33.5909 3.17992 33.8219C3.77749 33.9347 4.32704 34.2462 4.78589 34.7726V33.7413L3.76148 33.1612C3.4787 30.3522 2.75842 26.8985 2.30491 23.7027C2.23021 23.1871 2.18753 22.6876 2.16085 22.1935C1.05642 22.419 0.160063 21.3824 0 18.4767V13.7931C0.672265 8.19102 3.26529 5.94053 7.51763 6.58506C11.5672 2.32578 17.2815 -0.0536104 25.1459 0.0108428C33.912 -0.161032 41.3816 1.8961 46.8078 7.48741C49.6622 10.3448 50.8734 14.776 50.1424 21.0816C50.1744 22.2794 50.1051 23.5309 49.913 24.8522C49.5075 27.6935 48.9846 30.712 48.8246 32.9303L47.464 33.7843C48.5631 33.7037 49.3315 34.3912 49.7956 35.5621C50.0251 36.1476 50.1691 36.8619 50.2331 37.6407C50.2865 38.3712 50.2705 39.1769 50.1851 39.9986C49.8597 42.9689 48.5045 46.0733 45.9861 46.444C45.8741 46.4601 45.7674 46.4601 45.6607 46.4493V46.8253C45.6607 46.8414 45.6607 46.8575 45.6607 46.8736C45.9008 52.8141 43.7506 54.8497 40.4266 58.0025C40.0158 58.3946 39.5783 58.8028 39.1674 59.2057L35.2672 63.0191C34.6857 63.6315 34.0774 64.1417 33.4425 64.5553C32.7969 64.9742 32.1247 65.2965 31.4204 65.5221C30.38 65.8605 28.2405 66.0001 26.0476 65.9947C23.5933 65.9894 21.0056 65.8175 19.8318 65.5382C19.1596 65.3771 18.5033 65.1622 17.879 64.8668C17.2495 64.5714 16.6359 64.19 16.049 63.7013C16.017 63.6744 15.9903 63.6476 15.9583 63.6207L10.5588 58.3033C10.0946 57.8468 9.63046 57.4117 9.2143 57.0196C6.86137 54.8121 5.74627 53.7648 4.81256 49.2477C4.79122 49.1564 4.78589 49.065 4.78589 48.9737H4.78055V46.4386Z" fill="black"/>
<path d="M38 46.5176V46C29.6232 49.1699 20.3768 49.1699 12 46V59.8511C20.3392 63.2203 29.6608 63.2203 38 59.8511V46.5176ZM29 59.5176H21C20.7348 59.5176 20.4804 59.4122 20.2929 59.2247C20.1054 59.0372 20 58.7828 20 58.5176C20 58.2524 20.1054 57.998 20.2929 57.8105C20.4804 57.6229 20.7348 57.5176 21 57.5176H29C29.2652 57.5176 29.5196 57.6229 29.7071 57.8105C29.8946 57.998 30 58.2524 30 58.5176C30 58.7828 29.8946 59.0372 29.7071 59.2247C29.5196 59.4122 29.2652 59.5176 29 59.5176ZM29 55.5176H21C20.7348 55.5176 20.4804 55.4122 20.2929 55.2247C20.1054 55.0372 20 54.7828 20 54.5176C20 54.2524 20.1054 53.998 20.2929 53.8105C20.4804 53.6229 20.7348 53.5176 21 53.5176H29C29.2652 53.5176 29.5196 53.6229 29.7071 53.8105C29.8946 53.998 30 54.2524 30 54.5176C30 54.7828 29.8946 55.0372 29.7071 55.2247C29.5196 55.4122 29.2652 55.5176 29 55.5176Z" fill="black"/>
<path d="M37.5 46.5C39.8333 50 46.2 42.4 47 34" stroke="black"/>
<path d="M37.5 56.5C39.8333 60 46.2 52.4 47 44" stroke="black"/>
<path d="M13.5 46.5C11.1667 50 4.8 42.4 4 34" stroke="black"/>
<path d="M13.5 56.5C11.1667 60 4.8 52.4 4 44" stroke="black"/>
</g>
<defs>
<clipPath id="clip0_560_42341">
<rect width="50.3505" height="66" fill="white"/>
</clipPath>
</defs>
</svg>
