<svg width="107" height="154" viewBox="0 0 107 154" fill="none" xmlns="http://www.w3.org/2000/svg">
<g clip-path="url(#clip0_560_42289)">
<path fill-rule="evenodd" clip-rule="evenodd" d="M47.0008 81.5745C46.9405 81.7319 46.9081 81.9033 46.9081 82.0792C46.9081 82.8665 47.5478 83.5056 48.336 83.5056C49.1241 83.5056 49.7639 82.8665 49.7639 82.0792C49.7639 81.8523 49.7129 81.6393 49.6155 81.4494C50.2367 81.5189 50.8672 81.6532 51.5024 81.8616C51.7712 81.9496 52.054 81.769 52.1329 81.4633C52.2117 81.1577 52.054 80.8381 51.7805 80.7502C50.7513 80.4121 49.7221 80.2454 48.6929 80.25C47.6684 80.25 46.6531 80.4214 45.6471 80.7548C45.3782 80.8428 45.2206 81.1623 45.2994 81.468C45.3782 81.7736 45.661 81.9496 45.9299 81.8616C46.2822 81.7412 46.6438 81.6439 47.0008 81.5745ZM58.8643 91.934V85.2793C59.1471 84.0706 59.6803 83.45 60.2783 83.3389C62.3552 82.9545 62.0215 91.4709 58.8643 91.934ZM57.5384 76.7721C46.3703 68.7837 39.4997 62.1706 30.1953 68.0566C26.8852 70.1498 25.856 74.4427 24.3446 76.837C24.3446 82.9823 24.3446 89.1183 24.3446 95.2729C25.2255 99.4918 26.3103 99.8437 29.0131 102.488L33.7047 107.073C34.5531 107.772 35.5081 108.18 36.5234 108.42C38.3036 108.837 44.298 108.971 45.9716 108.434C46.9915 108.105 47.9512 107.503 48.8413 106.568L52.2488 103.261C55.5403 100.071 57.7749 98.6952 57.5384 93.4113C57.5384 87.8541 57.5384 82.3247 57.5384 76.7721ZM34.8962 75.7255C35.3459 75.707 35.7214 76.0543 35.7399 76.4989C35.7585 76.9481 35.4108 77.3232 34.9657 77.3417C33.7233 77.3973 32.6616 77.652 31.7715 78.0827C30.9046 78.4995 30.1999 79.0969 29.6389 79.8517C29.3701 80.213 28.8647 80.2871 28.5031 80.0185C28.1415 79.7499 28.0673 79.2451 28.3362 78.8839C29.0548 77.916 29.9588 77.1565 31.0668 76.6193C32.147 76.1006 33.4219 75.795 34.8962 75.7255ZM47.6916 77.1843C47.2419 77.1843 46.8803 76.8184 46.8849 76.3692C46.8849 75.92 47.2511 75.5588 47.7008 75.5634C49.0453 75.5681 50.2692 75.8228 51.3726 76.3368C52.4852 76.8601 53.4588 77.6428 54.284 78.7125C54.5575 79.0691 54.4926 79.5739 54.1356 79.8517C53.7833 80.125 53.2733 80.0601 52.9952 79.7035C52.3322 78.8422 51.558 78.217 50.6818 77.8048C49.7963 77.3927 48.7996 77.1889 47.6916 77.1843ZM47.3021 96.8984C46.6067 97.1346 45.8882 97.3337 45.1464 97.4958C44.3861 97.7042 43.6861 97.8339 43.0648 97.8478C42.3555 97.8617 41.7482 97.732 41.2614 97.4078C41.1131 97.3106 40.9786 97.2041 40.8627 97.0929C40.7468 97.2041 40.6124 97.3106 40.464 97.4078C39.9772 97.732 39.3699 97.8617 38.6606 97.8478C38.0394 97.8339 37.3394 97.7088 36.5791 97.4958C35.8373 97.3337 35.1233 97.1346 34.4233 96.8984C33.7279 96.6622 33.051 96.389 32.3881 96.0834C32.0682 95.9352 31.9384 95.5786 32.1007 95.2822C32.198 95.1062 32.3742 94.9951 32.5689 94.9627C32.9212 94.9071 33.204 94.87 33.4683 94.833L33.4915 94.8284C34.3445 94.7126 34.9982 94.62 35.8002 94.3004C36.0274 94.2124 36.2453 94.1106 36.4678 94.0087C37.7427 93.4205 39.1381 92.7722 40.5336 93.879C40.6541 93.9763 40.7654 94.0735 40.8627 94.18C40.9601 94.0735 41.0713 93.9763 41.1919 93.879C42.5827 92.7722 43.9828 93.4159 45.2577 94.0087C45.4802 94.1106 45.6981 94.2124 45.9252 94.3004C46.7226 94.62 47.3809 94.7126 48.234 94.8284L48.2572 94.833C48.5214 94.87 48.8042 94.9071 49.1565 94.9627C49.3512 94.9951 49.5321 95.1062 49.6248 95.2822C49.787 95.574 49.6572 95.9352 49.3373 96.0834C48.6744 96.3936 47.9975 96.6622 47.3021 96.8984ZM39.1799 91.4709C38.8971 91.2347 38.86 90.8179 39.0964 90.5401C39.3328 90.2576 39.7501 90.2205 40.0282 90.4567C40.3574 90.7346 40.6773 90.8828 40.9786 90.8828C41.2846 90.8874 41.6184 90.7485 41.9754 90.4521C42.2582 90.2205 42.6754 90.2622 42.9072 90.5447C43.139 90.8272 43.0973 91.244 42.8145 91.4755C42.2025 91.9757 41.5859 92.2119 40.9601 92.2072C40.3435 92.198 39.7454 91.9479 39.1799 91.4709ZM37.1029 100.205C36.7645 100.024 36.6347 99.6029 36.8155 99.2649C36.9963 98.9268 37.4182 98.7971 37.7566 98.9777C38.8275 99.5473 39.8845 99.8391 40.923 99.8391C41.9615 99.8391 42.9999 99.5566 44.043 98.9824C44.3815 98.7971 44.8033 98.9222 44.9888 99.2556C45.1742 99.5937 45.049 100.015 44.7152 100.2C43.4682 100.89 42.2025 101.228 40.923 101.224C39.6435 101.224 38.3685 100.881 37.1029 100.205ZM23.0419 91.934V85.2793C22.7591 84.0706 22.226 83.45 21.6279 83.3389C19.5464 82.9545 19.8848 91.4709 23.0419 91.934ZM23.232 93.0778C23.1161 93.0964 22.9956 93.101 22.875 93.0825C20.6868 92.7629 19.5093 90.0862 19.2265 87.5253C19.1477 86.8214 19.1338 86.1221 19.1848 85.4923C19.2357 84.8208 19.3609 84.2002 19.5649 83.7001C20.0007 82.6072 20.7517 82.0005 21.8412 82.1996C22.3604 82.2969 22.8379 82.5655 23.2366 83.0193V82.1302L22.3465 81.63C22.1008 79.208 21.4749 76.2303 21.0809 73.4749C21.016 73.0303 20.9789 72.5996 20.9557 72.1736C19.9961 72.3681 19.2172 71.4743 19.0781 68.9689V64.9307C19.6623 60.1006 21.9154 58.1602 25.6103 58.7159C29.129 55.0435 34.0942 52.992 40.9276 53.0476C48.5446 52.8994 55.035 54.673 59.7498 59.4939C62.2301 61.9576 63.2824 65.7782 62.6473 71.2149C62.6751 72.2477 62.6149 73.3267 62.448 74.4659C62.0956 76.9157 61.6413 79.5183 61.5022 81.4309L60.32 82.1672C61.2751 82.0978 61.9426 82.6905 62.346 83.7001C62.5453 84.2049 62.6705 84.8208 62.7261 85.4923C62.7725 86.1221 62.7586 86.8167 62.6844 87.5253C62.4016 90.0862 61.2241 92.7629 59.0359 93.0825C58.9385 93.0964 58.8458 93.0964 58.7531 93.0871V93.4113C58.7531 93.4252 58.7531 93.4391 58.7531 93.453C58.9617 98.5748 57.0934 100.33 54.2051 103.048C53.8482 103.386 53.468 103.738 53.1157 104.086L49.7268 107.374C49.2214 107.902 48.6929 108.342 48.1413 108.698C47.5803 109.059 46.9962 109.337 46.3842 109.532C45.4802 109.824 43.6211 109.944 41.7157 109.939C39.5832 109.935 37.3347 109.786 36.3148 109.546C35.7307 109.407 35.1604 109.221 34.618 108.967C34.071 108.712 33.5378 108.383 33.0279 107.962C33.0001 107.939 32.9769 107.916 32.9537 107.892L28.2621 103.308C27.8587 102.914 27.4554 102.539 27.0938 102.201C25.0493 100.298 24.0804 99.3991 23.2691 95.4999C23.2505 95.4211 23.2459 95.3424 23.2459 95.2637H23.232V93.0778ZM30.4317 82.0005C30.1675 82.1024 29.8754 81.9449 29.7827 81.6393C29.6899 81.3383 29.8337 81.0095 30.0979 80.903C31.1271 80.5001 32.1563 80.3148 33.1901 80.3241C34.2193 80.3334 35.2439 80.5325 36.2684 80.903C36.5373 81.0002 36.6857 81.3244 36.5976 81.6254C36.5141 81.9264 36.2267 82.0978 35.9625 82.0005C35.624 81.8755 35.2856 81.7736 34.9425 81.6949C34.975 81.8153 34.9935 81.9449 34.9935 82.0792C34.9935 82.8665 34.3538 83.5056 33.5656 83.5056C32.7775 83.5056 32.1378 82.8665 32.1378 82.0792C32.1378 81.8847 32.1748 81.6995 32.2444 81.5328C31.6463 81.6069 31.039 81.7643 30.4317 82.0005Z" fill="black"/>
<path d="M26.7266 81.7976L27.9503 75.9847L36.0579 72.4663H42.7886L51.3551 74.4549L55.6383 77.8203V80.5738L54.5675 88.0695C54.1596 90.364 53.2519 95.198 52.8848 96.177C52.4259 97.4008 48.9075 102.449 48.4486 103.214C47.9897 103.979 40.0351 103.214 38.6584 103.214C37.2816 103.214 32.8454 99.8483 32.0806 99.5424C31.4687 99.2976 30.9078 97.6047 30.7038 96.7889L30.0919 90.9759L26.7266 81.7976Z" fill="#F1F6F9"/>
</g>
<path fill-rule="evenodd" clip-rule="evenodd" d="M47.8728 132.028C47.8728 136.785 44.0167 140.641 39.2597 140.641C34.5026 140.641 30.6465 136.785 30.6465 132.028C30.6465 127.271 34.5026 123.415 39.2597 123.415C44.0167 123.415 47.8728 127.271 47.8728 132.028ZM43.5662 132.028C43.5662 134.406 41.6382 136.334 39.2597 136.334C36.8811 136.334 34.9531 134.406 34.9531 132.028C34.9531 129.649 36.8811 127.721 39.2597 127.721C41.6382 127.721 43.5662 129.649 43.5662 132.028Z" fill="url(#paint0_linear_560_42289)"/>
<path fill-rule="evenodd" clip-rule="evenodd" d="M0.5 39.0056C0.5 29.3164 0.499999 24.4719 2.96724 21.0757C3.76439 19.9789 4.72907 19.0143 5.82552 18.2175C9.22169 15.75 14.0666 15.75 23.7556 15.75H54.763C64.4519 15.75 69.2968 15.75 72.693 18.2175C73.7895 19.0143 74.7541 19.9789 75.5508 21.0757C78.0185 24.4719 78.0185 29.3164 78.0185 39.0056V130.305C78.0185 139.994 78.0185 144.839 75.5508 148.235C74.7541 149.332 73.7895 150.296 72.693 151.093C69.2968 153.561 64.4519 153.561 54.763 153.561H23.7556C14.0666 153.561 9.22169 153.561 5.82552 151.093C4.72907 150.296 3.76439 149.332 2.96724 148.235C0.499999 144.839 0.5 139.994 0.5 130.305V39.0056ZM4.80658 35.5603C4.80658 29.1009 4.80658 25.8712 6.4517 23.6071C6.9827 22.8758 7.62567 22.2328 8.35693 21.7016C10.6213 20.0566 13.8508 20.0566 20.3103 20.0566H58.2082C64.6677 20.0566 67.8972 20.0566 70.1616 21.7016C70.8928 22.2328 71.5358 22.8758 72.0668 23.6071C73.7119 25.8712 73.7119 29.1009 73.7119 35.5603V133.75C73.7119 140.21 73.7119 143.439 72.0668 145.704C71.5358 146.435 70.8928 147.078 70.1616 147.609C67.8972 149.254 64.6677 149.254 58.2082 149.254H20.3103C13.8508 149.254 10.6213 149.254 8.35693 147.609C7.62567 147.078 6.9827 146.435 6.4517 145.704C4.80658 143.439 4.80658 140.21 4.80658 133.75V35.5603Z" fill="url(#paint1_linear_560_42289)"/>
<circle cx="78.5" cy="35" r="28" fill="#F1F6F9"/>
<path d="M80.8934 12.9224C79.9888 12.9224 79.0943 13.1081 78.2629 13.4645L63.3821 19.8411C63.1778 19.9288 63.0037 20.0744 62.8813 20.26C62.7589 20.4456 62.6936 20.663 62.6934 20.8853C62.6934 30.0332 63.2473 37.5614 65.7637 43.7788C68.2801 49.9961 72.826 54.8141 80.4179 58.3182C80.567 58.3868 80.7292 58.4224 80.8934 58.4224C81.0575 58.4224 81.2197 58.3868 81.3688 58.3182C88.9607 54.8141 93.5066 49.9961 96.023 43.7788C98.5394 37.5614 99.0934 30.0332 99.0934 20.8853C99.0931 20.663 99.0278 20.4456 98.9054 20.26C98.783 20.0744 98.6089 19.9288 98.4046 19.8411L83.5238 13.4645C82.6924 13.1081 81.7979 12.9224 80.8934 12.9224ZM80.8934 15.1975C81.4898 15.1975 82.078 15.318 82.6263 15.553L96.7828 21.6185C96.7479 30.2973 96.1655 37.3697 93.9168 42.9256C91.6632 48.4938 87.7174 52.6552 80.8934 55.9365C74.0693 52.6552 70.1235 48.4938 67.8699 42.9256C65.6212 37.3697 65.0388 30.2973 65.0039 21.6185L79.1604 15.553C79.7087 15.318 80.2969 15.1975 80.8934 15.1975Z" fill="url(#paint2_linear_560_42289)" stroke="url(#paint3_linear_560_42289)"/>
<path d="M90.326 29.1807L79.7553 39.7515L73.7345 33.7307C73.5212 33.5175 73.2319 33.3977 72.9303 33.3977C72.6287 33.3977 72.3394 33.5175 72.126 33.7307C71.9128 33.9441 71.793 34.2333 71.793 34.535C71.793 34.8366 71.9128 35.1259 72.126 35.3392L78.951 42.1642C79.1644 42.3775 79.4537 42.4973 79.7553 42.4973C80.0569 42.4973 80.3462 42.3775 80.5595 42.1642L91.9345 30.7892C92.1478 30.5759 92.2676 30.2866 92.2676 29.985C92.2676 29.6833 92.1478 29.3941 91.9345 29.1807C91.7212 28.9675 91.4319 28.8477 91.1303 28.8477C90.8287 28.8477 90.5394 28.9675 90.326 29.1807Z" fill="#4CC139"/>
<defs>
<linearGradient id="paint0_linear_560_42289" x1="26.627" y1="146.311" x2="70.1953" y2="106.619" gradientUnits="userSpaceOnUse">
<stop stop-color="#0072BC"/>
<stop offset="1" stop-color="#E40021"/>
</linearGradient>
<linearGradient id="paint1_linear_560_42289" x1="-17.5877" y1="198.923" x2="266.571" y2="53.3037" gradientUnits="userSpaceOnUse">
<stop stop-color="#0072BC"/>
<stop offset="1" stop-color="#E40021"/>
</linearGradient>
<linearGradient id="paint2_linear_560_42289" x1="54.2" y1="73.3994" x2="164.227" y2="-6.79122" gradientUnits="userSpaceOnUse">
<stop stop-color="#0072BC"/>
<stop offset="1" stop-color="#E40021"/>
</linearGradient>
<linearGradient id="paint3_linear_560_42289" x1="54.2" y1="73.3994" x2="164.227" y2="-6.79122" gradientUnits="userSpaceOnUse">
<stop stop-color="#0072BC"/>
<stop offset="1" stop-color="#E40021"/>
</linearGradient>
<clipPath id="clip0_560_42289">
<rect width="43.75" height="56.9056" fill="white" transform="translate(19.0781 53.0386)"/>
</clipPath>
</defs>
</svg>
