<svg width="75" height="79" viewBox="0 0 75 79" fill="none" xmlns="http://www.w3.org/2000/svg">
<path d="M42.6263 17.163C42.6778 17.1432 42.7322 17.1274 42.7876 17.1156C48.796 15.8639 54.7507 19.1225 56.9471 24.8634C58.3389 28.5011 57.9696 32.4953 55.9353 35.8216C55.6342 36.314 54.9908 36.4689 54.4988 36.1676C54.0063 35.8664 53.8515 35.2231 54.1528 34.731C55.8463 31.962 56.1537 28.6377 54.9954 25.6101C53.1674 20.8322 48.2125 18.1201 43.2138 19.1618C42.6489 19.2794 42.0954 18.9171 41.9776 18.3518C41.8719 17.8427 42.1555 17.3431 42.6263 17.163Z" fill="#F5BF00"/>
<path d="M39.2073 18.4704C39.678 18.2902 40.2229 18.4733 40.4836 18.9231C40.773 19.4223 40.6023 20.0617 40.1035 20.351C35.6843 22.9117 33.8039 28.2394 35.6323 33.0184C37.6748 38.3569 43.6794 41.0383 49.0179 38.9959L49.0195 38.9953C50.0941 38.5842 51.0823 38.0056 51.9568 37.2759C52.4007 36.9065 53.0588 36.9657 53.4284 37.4087C53.798 37.8522 53.7386 38.5108 53.2955 38.8803C52.2437 39.758 51.0561 40.4531 49.766 40.9467C49.766 40.9467 49.7649 40.9471 49.7641 40.9474C43.3494 43.4016 36.1342 40.1796 33.68 33.7649C31.483 28.0225 33.7436 21.6208 39.0554 18.5423C39.1051 18.5144 39.1561 18.4899 39.2073 18.4704Z" fill="#F5BF00"/>
<path d="M50.6137 43.165C51.1528 42.9588 51.7567 43.2285 51.9629 43.7675L54.029 49.1677C54.2352 49.7068 53.9655 50.3107 53.4265 50.5169C52.8874 50.7232 52.2835 50.4535 52.0772 49.9144L50.0112 44.5143C49.8049 43.9752 50.0746 43.3713 50.6137 43.165Z" fill="#F5BF00"/>
<path d="M37.2025 8.11181C37.7415 7.90557 38.3455 8.17526 38.5517 8.71433L40.6188 14.1149C40.8251 14.654 40.5554 15.2579 40.0163 15.4642C39.4772 15.6704 38.8733 15.4007 38.6671 14.8617L36.6 9.46106C36.3937 8.92198 36.6634 8.31806 37.2025 8.11181Z" fill="#F5BF00"/>
<path d="M53.7708 8.56355C54.0207 8.46797 54.3065 8.46778 54.5703 8.58524C55.0974 8.82032 55.3339 9.43824 55.0984 9.96553L52.7417 15.2459C52.5061 15.7728 51.8885 16.009 51.3614 15.7739C50.8343 15.5389 50.5979 14.9209 50.8333 14.3937L53.19 9.11333C53.3078 8.85035 53.5206 8.65928 53.7708 8.56355Z" fill="#F5BF00"/>
<path d="M65.1677 20.6C65.7068 20.3938 66.3107 20.6635 66.517 21.2025C66.7232 21.7416 66.4535 22.3455 65.9144 22.5518L60.5146 24.6186C59.9755 24.8248 59.3716 24.5552 59.1654 24.0161C58.9591 23.477 59.2288 22.8731 59.7679 22.6668L65.1677 20.6Z" fill="#F5BF00"/>
<path d="M59.4358 34.8122C59.6856 34.7167 59.9715 34.7165 60.2353 34.8339L65.515 37.1913C66.0423 37.4268 66.2787 38.0447 66.0431 38.5716C65.8076 39.0989 65.1899 39.3348 64.6628 39.0997L59.3831 36.7423C58.8558 36.5068 58.6194 35.8889 58.855 35.362C58.9726 35.0986 59.186 34.9078 59.4358 34.8122Z" fill="#F5BF00"/>
<circle cx="45.3147" cy="29.3146" r="10.0482" transform="rotate(159.064 45.3147 29.3146)" fill="#F5BF00"/>
<g clip-path="url(#clip0_560_42315)">
<path fill-rule="evenodd" clip-rule="evenodd" d="M30.4224 48.091C30.3568 48.2625 30.3214 48.4492 30.3214 48.6409C30.3214 49.4987 31.0184 50.195 31.8771 50.195C32.7358 50.195 33.4328 49.4987 33.4328 48.6409C33.4328 48.3937 33.3773 48.1616 33.2712 47.9547C33.948 48.0304 34.635 48.1767 35.327 48.4038C35.6199 48.4997 35.9281 48.3029 36.0139 47.9699C36.0998 47.6369 35.9281 47.2887 35.63 47.1929C34.5087 46.8245 33.3874 46.6429 32.266 46.6479C31.1498 46.6479 30.0436 46.8346 28.9475 47.1979C28.6546 47.2938 28.4828 47.6419 28.5687 47.9749C28.6546 48.3079 28.9627 48.4997 29.2556 48.4038C29.6395 48.2726 30.0335 48.1667 30.4224 48.091ZM43.348 59.3779V52.1274C43.6561 50.8105 44.237 50.1344 44.8886 50.0133C47.1515 49.5946 46.7878 58.8734 43.348 59.3779ZM41.9034 42.8587C29.7355 34.1551 22.2498 26.95 12.1124 33.3629C8.50595 35.6435 7.38462 40.3208 5.73798 42.9294C5.73798 49.6248 5.73798 56.3102 5.73798 63.0158C6.69768 67.6123 7.87962 67.9958 10.8244 70.8768L15.936 75.8719C16.8604 76.6338 17.9009 77.0778 19.0071 77.3402C20.9467 77.7943 27.4777 77.9406 29.3011 77.3553C30.4123 76.9971 31.4579 76.3411 32.4277 75.3219L36.1402 71.7194C39.7264 68.243 42.161 66.7445 41.9034 60.9875C41.9034 54.9328 41.9034 48.9084 41.9034 42.8587ZM17.2341 41.7184C17.7241 41.6982 18.1332 42.0767 18.1534 42.561C18.1736 43.0504 17.7948 43.4591 17.3099 43.4793C15.9562 43.5399 14.7995 43.8174 13.8297 44.2866C12.8852 44.7407 12.1174 45.3916 11.5063 46.214C11.2133 46.6076 10.6627 46.6883 10.2688 46.3957C9.87478 46.103 9.79397 45.5531 10.0869 45.1595C10.8698 44.105 11.8548 43.2775 13.062 42.6922C14.2389 42.1271 15.6279 41.7941 17.2341 41.7184ZM31.175 43.3078C30.6851 43.3078 30.2911 42.9092 30.2961 42.4198C30.2961 41.9303 30.6952 41.5368 31.1851 41.5418C32.6499 41.5469 33.9834 41.8244 35.1856 42.3844C36.3978 42.9546 37.4585 43.8073 38.3576 44.9728C38.6556 45.3613 38.5849 45.9113 38.196 46.214C37.8121 46.5117 37.2565 46.4411 36.9534 46.0526C36.2311 45.1141 35.3876 44.4329 34.4329 43.9839C33.4682 43.5348 32.3822 43.3128 31.175 43.3078ZM30.7507 64.7868C29.9931 65.0441 29.2102 65.2611 28.402 65.4377C27.5736 65.6647 26.8109 65.806 26.1341 65.8211C25.3613 65.8363 24.6996 65.695 24.1692 65.3418C24.0076 65.2358 23.8611 65.1198 23.7348 64.9987C23.6086 65.1198 23.4621 65.2358 23.3004 65.3418C22.7701 65.695 22.1084 65.8363 21.3356 65.8211C20.6588 65.806 19.896 65.6698 19.0677 65.4377C18.2595 65.2611 17.4816 65.0441 16.7189 64.7868C15.9613 64.5295 15.2238 64.2318 14.5015 63.8988C14.153 63.7373 14.0116 63.3488 14.1884 63.0259C14.2944 62.8341 14.4864 62.713 14.6985 62.6777C15.0824 62.6172 15.3905 62.5768 15.6784 62.5364L15.7037 62.5314C16.6331 62.4053 17.3453 62.3044 18.2191 61.9562C18.4666 61.8603 18.704 61.7493 18.9465 61.6383C20.3355 60.9976 21.8559 60.2912 23.3762 61.4971C23.5075 61.603 23.6288 61.709 23.7348 61.825C23.8409 61.709 23.9621 61.603 24.0935 61.4971C25.6088 60.2912 27.1342 60.9925 28.5232 61.6383C28.7657 61.7493 29.0031 61.8603 29.2506 61.9562C30.1194 62.3044 30.8366 62.4053 31.766 62.5314L31.7912 62.5364C32.0792 62.5768 32.3873 62.6172 32.7711 62.6777C32.9833 62.713 33.1803 62.8341 33.2813 63.0259C33.4581 63.3437 33.3167 63.7373 32.9681 63.8988C32.2458 64.2368 31.5084 64.5295 30.7507 64.7868ZM21.9013 58.8734C21.5932 58.616 21.5528 58.1619 21.8104 57.8592C22.068 57.5514 22.5226 57.5111 22.8257 57.7684C23.1843 58.0711 23.5328 58.2326 23.8611 58.2326C24.1945 58.2376 24.5582 58.0863 24.9471 57.7633C25.2552 57.5111 25.7098 57.5565 25.9623 57.8642C26.2149 58.172 26.1694 58.6261 25.8613 58.8784C25.1946 59.4233 24.5228 59.6807 23.8409 59.6756C23.1691 59.6655 22.5175 59.3931 21.9013 58.8734ZM19.6384 68.3893C19.2697 68.1925 19.1283 67.7334 19.3253 67.3651C19.5223 66.9967 19.9819 66.8555 20.3506 67.0522C21.5174 67.6728 22.6691 67.9907 23.8005 67.9907C24.9319 67.9907 26.0634 67.6829 27.1999 67.0573C27.5686 66.8555 28.0282 66.9917 28.2303 67.355C28.4323 67.7233 28.2959 68.1824 27.9323 68.3843C26.5735 69.1361 25.1946 69.5044 23.8005 69.4993C22.4064 69.4993 21.0174 69.126 19.6384 68.3893ZM4.31864 59.3779V52.1274C4.01053 50.8105 3.42966 50.1344 2.77807 50.0133C0.510155 49.5946 0.878881 58.8734 4.31864 59.3779ZM4.52573 60.6242C4.39946 60.6444 4.26813 60.6494 4.1368 60.6292C1.75271 60.2811 0.469747 57.3647 0.161633 54.5745C0.0757656 53.8076 0.0606125 53.0457 0.116174 52.3595C0.171735 51.6279 0.308113 50.9518 0.530359 50.4069C1.00516 49.2161 1.82343 48.5552 3.01042 48.7721C3.57614 48.8781 4.09639 49.1707 4.53078 49.6652V48.6964L3.56098 48.1515C3.29328 45.5127 2.61139 42.2684 2.18205 39.2663C2.11134 38.7819 2.07093 38.3127 2.04567 37.8485C1.00011 38.0604 0.151531 37.0866 0 34.3569V29.9572C0.636431 24.6947 3.09124 22.5806 7.11692 23.186C10.9507 19.1849 16.3603 16.9497 23.8056 17.0102C32.1044 16.8488 39.1759 18.7812 44.3128 24.0337C47.0151 26.7179 48.1617 30.8805 47.4697 36.804C47.5 37.9292 47.4343 39.1048 47.2525 40.346C46.8686 43.0151 46.3736 45.8507 46.2221 47.9346L44.9341 48.7368C45.9746 48.6611 46.7019 49.307 47.1414 50.4069C47.3586 50.9569 47.4949 51.6279 47.5555 52.3595C47.6061 53.0457 47.5909 53.8026 47.5101 54.5745C47.202 57.3647 45.919 60.2811 43.5349 60.6292C43.4288 60.6444 43.3278 60.6444 43.2268 60.6343V60.9875C43.2268 61.0026 43.2268 61.0177 43.2268 61.0329C43.4541 66.6133 41.4185 68.5255 38.2717 71.4873C37.8828 71.8556 37.4686 72.2391 37.0847 72.6175L33.3924 76.1999C32.8419 76.7751 32.266 77.2544 31.665 77.6429C31.0538 78.0364 30.4174 78.3392 29.7506 78.5511C28.7657 78.869 26.7402 79.0002 24.6642 78.9951C22.3408 78.9901 19.891 78.8286 18.7798 78.5662C18.1433 78.4149 17.5221 78.213 16.9311 77.9355C16.3351 77.658 15.7542 77.2998 15.1986 76.8406C15.1683 76.8154 15.143 76.7902 15.1178 76.765L10.0061 71.7698C9.56667 71.341 9.12723 70.9323 8.73325 70.564C6.50574 68.4902 5.45007 67.5114 4.56614 63.263C4.54594 63.1772 4.54088 63.0915 4.54088 63.0057H4.52573V60.6242ZM12.37 48.5552C12.0821 48.6662 11.7639 48.4946 11.6629 48.1616C11.5618 47.8336 11.7184 47.4754 12.0063 47.3594C13.1277 46.9204 14.249 46.7186 15.3754 46.7287C16.4967 46.7388 17.613 46.9557 18.7293 47.3594C19.0222 47.4653 19.1839 47.8185 19.0879 48.1465C18.997 48.4744 18.6838 48.6611 18.3959 48.5552C18.0272 48.4189 17.6584 48.3079 17.2847 48.2222C17.32 48.3533 17.3402 48.4946 17.3402 48.6409C17.3402 49.4987 16.6432 50.195 15.7845 50.195C14.9258 50.195 14.2288 49.4987 14.2288 48.6409C14.2288 48.429 14.2692 48.2272 14.345 48.0456C13.6934 48.1263 13.0317 48.2978 12.37 48.5552Z" fill="black"/>
<path d="M8.33301 48.3332L9.66634 41.9998L18.4997 38.1665H25.833L35.1663 40.3332L39.833 43.9998V46.9998L38.6663 55.1665C38.2219 57.6665 37.233 62.9332 36.833 63.9998C36.333 65.3332 32.4997 70.8332 31.9997 71.6665C31.4997 72.4998 22.833 71.6665 21.333 71.6665C19.833 71.6665 14.9997 67.9998 14.1663 67.6665C13.4997 67.3998 12.8886 65.5554 12.6663 64.6665L11.9997 58.3332L8.33301 48.3332Z" fill="#F1F6F9"/>
<path d="M10.6197 34.5762C10.1084 34.3206 7.21098 40.0089 5.82617 42.8851V50.2352C6.59314 52.0248 9.9806 44.8025 11.5785 40.9677C11.4719 38.9437 11.1311 34.8319 10.6197 34.5762Z" fill="#F1F6F9" stroke="#F1F6F9" stroke-width="0.639143"/>
</g>
<defs>
<clipPath id="clip0_560_42315">
<rect width="47.6667" height="62" fill="white" transform="translate(0 17)"/>
</clipPath>
</defs>
</svg>
