<svg width="62" height="89" viewBox="0 0 62 89" fill="none" xmlns="http://www.w3.org/2000/svg">
<g clip-path="url(#clip0_560_42306)">
<path fill-rule="evenodd" clip-rule="evenodd" d="M38.1048 45.7475C38.0346 45.9309 37.9967 46.1306 37.9967 46.3357C37.9967 47.253 38.7422 47.9977 39.6606 47.9977C40.5789 47.9977 41.3244 47.253 41.3244 46.3357C41.3244 46.0712 41.265 45.823 41.1515 45.6018C41.8754 45.6827 42.6101 45.8392 43.3502 46.082C43.6635 46.1846 43.993 45.9741 44.0848 45.618C44.1767 45.2618 43.993 44.8895 43.6743 44.7869C42.475 44.393 41.2758 44.1988 40.0765 44.2042C38.8827 44.2042 37.6996 44.4038 36.5274 44.7923C36.2141 44.8949 36.0304 45.2672 36.1222 45.6234C36.2141 45.9795 36.5436 46.1846 36.8569 46.082C37.2675 45.9417 37.6888 45.8284 38.1048 45.7475ZM51.9286 57.8187V50.0644C52.2581 48.656 52.8793 47.9329 53.5762 47.8034C55.9963 47.3555 55.6074 57.2791 51.9286 57.8187ZM50.3836 40.1516C37.3701 30.8432 29.3643 23.1375 18.5224 29.996C14.6654 32.4351 13.4661 37.4373 11.7051 40.2272C11.7051 47.3879 11.7051 54.5378 11.7051 61.7094C12.7315 66.6253 13.9955 67.0354 17.1449 70.1166L22.6118 75.4589C23.6003 76.2737 24.7132 76.7485 25.8962 77.0291C27.9706 77.5148 34.9554 77.6713 36.9055 77.0453C38.094 76.6622 39.2122 75.9607 40.2494 74.8707L44.2199 71.0178C48.0553 67.2998 50.6591 65.6972 50.3836 59.5401C50.3836 53.0647 50.3836 46.6217 50.3836 40.1516ZM24.0001 38.9321C24.5241 38.9105 24.9616 39.3152 24.9833 39.8333C25.0049 40.3567 24.5997 40.7938 24.0811 40.8154C22.6334 40.8801 21.3963 41.1769 20.3591 41.6787C19.3489 42.1644 18.5278 42.8605 17.8742 43.7401C17.5609 44.161 16.972 44.2473 16.5507 43.9344C16.1293 43.6214 16.0429 43.0332 16.3562 42.6123C17.1935 41.4845 18.2469 40.5995 19.538 39.9736C20.7967 39.3692 22.2822 39.013 24.0001 38.9321ZM38.9097 40.6319C38.3857 40.6319 37.9643 40.2056 37.9697 39.6822C37.9697 39.1587 38.3965 38.7378 38.9205 38.7432C40.4871 38.7486 41.9132 39.0454 43.1989 39.6444C44.4954 40.2542 45.6298 41.1661 46.5914 42.4126C46.9101 42.8281 46.8345 43.4163 46.4185 43.7401C46.008 44.0585 45.4137 43.9829 45.0896 43.5674C44.3171 42.5637 43.415 41.8352 42.394 41.355C41.3622 40.8747 40.2008 40.6373 38.9097 40.6319ZM38.4559 63.6034C37.6456 63.8786 36.8083 64.1107 35.944 64.2995C35.058 64.5424 34.2423 64.6935 33.5185 64.7097C32.6919 64.7258 31.9843 64.5748 31.4171 64.197C31.2442 64.0837 31.0875 63.9596 30.9525 63.8301C30.8174 63.9596 30.6608 64.0837 30.4879 64.197C29.9207 64.5748 29.213 64.7258 28.3865 64.7097C27.6627 64.6935 26.847 64.5478 25.961 64.2995C25.0967 64.1107 24.2648 63.8786 23.4491 63.6034C22.6388 63.3282 21.8501 63.0099 21.0776 62.6537C20.7048 62.481 20.5536 62.0655 20.7427 61.7202C20.8561 61.5151 21.0614 61.3856 21.2883 61.3478C21.6988 61.2831 22.0283 61.2399 22.3363 61.1967L22.3633 61.1913C23.3572 61.0564 24.1189 60.9485 25.0535 60.5762C25.3182 60.4737 25.5721 60.3549 25.8314 60.2362C27.3169 59.5509 28.9429 58.7954 30.5689 60.0851C30.7094 60.1985 30.8391 60.3118 30.9525 60.4359C31.0659 60.3118 31.1956 60.1985 31.336 60.0851C32.9566 58.7954 34.5881 59.5455 36.0736 60.2362C36.3329 60.3549 36.5868 60.4737 36.8515 60.5762C37.7807 60.9485 38.5477 61.0564 39.5417 61.1913L39.5687 61.1967C39.8766 61.2399 40.2062 61.2831 40.6167 61.3478C40.8436 61.3856 41.0543 61.5151 41.1623 61.7202C41.3514 62.0601 41.2001 62.481 40.8274 62.6537C40.0549 63.0153 39.2662 63.3282 38.4559 63.6034ZM28.9916 57.2791C28.662 57.0039 28.6188 56.5183 28.8943 56.1945C29.1698 55.8653 29.656 55.8221 29.9801 56.0974C30.3637 56.4211 30.7364 56.5938 31.0875 56.5938C31.4441 56.5992 31.833 56.4373 32.249 56.092C32.5785 55.8221 33.0647 55.8707 33.3348 56.1999C33.6049 56.529 33.5563 57.0147 33.2267 57.2845C32.5137 57.8673 31.7952 58.1425 31.0659 58.1371C30.3475 58.1263 29.6506 57.8349 28.9916 57.2791ZM26.5715 67.4563C26.1771 67.2459 26.0258 66.7548 26.2365 66.3609C26.4472 65.967 26.9388 65.8159 27.3331 66.0263C28.581 66.6901 29.8127 67.03 31.0227 67.03C32.2328 67.03 33.4428 66.7009 34.6583 66.0317C35.0526 65.8159 35.5442 65.9616 35.7603 66.3501C35.9764 66.744 35.8305 67.2351 35.4416 67.4509C33.9884 68.2549 32.5137 68.6489 31.0227 68.6435C29.5318 68.6435 28.0462 68.2442 26.5715 67.4563ZM10.1871 57.8187V50.0644C9.85757 48.656 9.23634 47.9329 8.53948 47.8034C6.11396 47.3555 6.50831 57.2791 10.1871 57.8187ZM10.4086 59.1516C10.2735 59.1732 10.1331 59.1786 9.99262 59.157C7.44286 58.7847 6.07075 55.6657 5.74122 52.6816C5.64939 51.8613 5.63318 51.0465 5.69261 50.3126C5.75203 49.5302 5.89788 48.8071 6.13557 48.2243C6.64336 46.9508 7.51849 46.2439 8.78797 46.476C9.393 46.5893 9.94941 46.9023 10.414 47.4311V46.395L9.37679 45.8122C9.09048 42.99 8.36121 39.5203 7.90204 36.3095C7.82641 35.7915 7.78319 35.2897 7.75618 34.7932C6.63796 35.0199 5.73042 33.9784 5.56836 31.0591V26.3536C6.24902 20.7254 8.8744 18.4644 13.1798 19.1119C17.28 14.8327 23.0655 12.4422 31.0281 12.507C39.9037 12.3343 47.4665 14.401 52.9604 20.0185C55.8505 22.8892 57.0767 27.3411 56.3366 33.6762C56.369 34.8796 56.2988 36.1369 56.1043 37.4643C55.6938 40.3189 55.1644 43.3516 55.0023 45.5802L53.6248 46.4382C54.7376 46.3572 55.5155 47.048 55.9855 48.2243C56.2178 48.8125 56.3636 49.5302 56.4285 50.3126C56.4825 51.0465 56.4663 51.8559 56.3798 52.6816C56.0503 55.6657 54.6782 58.7847 52.1285 59.157C52.015 59.1732 51.907 59.1732 51.7989 59.1624V59.5401C51.7989 59.5563 51.7989 59.5725 51.7989 59.5887C52.042 65.5569 49.865 67.602 46.4995 70.7696C46.0836 71.1635 45.6406 71.5736 45.2301 71.9783L41.2812 75.8096C40.6924 76.4248 40.0765 76.9374 39.4337 77.3529C38.78 77.7738 38.0994 78.0976 37.3863 78.3242C36.3329 78.6642 34.1667 78.8045 31.9465 78.7991C29.4615 78.7937 26.8416 78.621 25.6531 78.3404C24.9724 78.1785 24.308 77.9627 23.676 77.6659C23.0385 77.3691 22.4173 76.986 21.8231 76.4949C21.7907 76.4679 21.7636 76.441 21.7366 76.414L16.2698 71.0718C15.7998 70.6131 15.3298 70.176 14.9085 69.7821C12.5262 67.5642 11.3971 66.5174 10.4518 61.9738C10.4302 61.8821 10.4248 61.7903 10.4248 61.6986H10.4086V59.1516ZM18.7979 46.2439C18.49 46.3626 18.1497 46.1792 18.0416 45.823C17.9336 45.4723 18.1011 45.0891 18.409 44.965C19.6082 44.4956 20.8075 44.2797 22.0121 44.2905C23.2114 44.3013 24.4052 44.5333 25.5991 44.965C25.9124 45.0783 26.0853 45.4561 25.9826 45.8068C25.8854 46.1576 25.5505 46.3572 25.2425 46.2439C24.8482 46.0982 24.4539 45.9795 24.0541 45.8878C24.0919 46.0281 24.1135 46.1792 24.1135 46.3357C24.1135 47.253 23.368 47.9977 22.4497 47.9977C21.5314 47.9977 20.7859 47.253 20.7859 46.3357C20.7859 46.109 20.8291 45.8932 20.9101 45.6989C20.2133 45.7852 19.5056 45.9687 18.7979 46.2439Z" fill="black"/>
<path d="M14.4805 46.0069L15.9065 39.2335L25.3536 35.1338H33.1965L43.1784 37.451L48.1694 41.3725V44.5809L46.9216 53.3151C46.4463 55.9888 45.3887 61.6215 44.9609 62.7622C44.4262 64.1882 40.3264 70.0704 39.7917 70.9617C39.257 71.8529 29.9881 70.9617 28.3838 70.9617C26.7796 70.9617 21.6104 67.0402 20.7192 66.6837C20.0062 66.3985 19.3526 64.4259 19.1149 63.4752L18.4019 56.7018L14.4805 46.0069Z" fill="#F1F6F9"/>
</g>
<path d="M61 44.5C61 55.4835 57.5912 65.3903 52.1262 72.53C46.662 79.6688 39.1838 84 31 84C22.8162 84 15.338 79.6688 9.87377 72.53C4.40879 65.3903 1 55.4835 1 44.5C1 33.5165 4.40879 23.6097 9.87377 16.47C15.338 9.3312 22.8162 5 31 5C39.1838 5 46.662 9.3312 52.1262 16.47C57.5912 23.6097 61 33.5165 61 44.5Z" stroke="#0072BC" stroke-width="2"/>
<defs>
<clipPath id="clip0_560_42306">
<rect width="50.979" height="66.3083" fill="white" transform="translate(5.56836 12.4961)"/>
</clipPath>
</defs>
</svg>
