<svg width="162" height="138" viewBox="0 0 162 138" fill="none" xmlns="http://www.w3.org/2000/svg">
<path d="M52.3698 113.345L53.3114 111.234H50.9999H15.3333C11.6678 111.234 8.15037 109.768 5.55532 107.155C2.95992 104.541 1.5 100.995 1.5 97.2948V15.4389C1.5 11.7388 2.95992 8.19223 5.55532 5.57896C8.15037 2.96604 11.6678 1.5 15.3333 1.5H131.667C133.487 1.49998 135.29 1.86217 136.972 2.56603C138.654 3.2699 140.182 4.30172 141.468 5.60273C142.754 6.90376 143.773 8.44834 144.465 10.148C145.157 11.8477 145.509 13.6687 145.5 15.5063V15.5135V97.4439C145.5 99.2758 145.141 101.09 144.445 102.781C143.749 104.473 142.73 106.01 141.445 107.304C140.16 108.598 138.635 109.624 136.957 110.323C135.279 111.023 133.482 111.383 131.667 111.383H95.9999H93.6909L94.6294 113.493C96.7667 118.297 99.7917 122.649 103.544 126.318L103.547 126.321C104.314 127.066 104.841 128.028 105.058 129.082C105.272 130.12 105.175 131.199 104.779 132.181C104.099 133.55 103.035 134.688 101.721 135.452C100.393 136.225 98.8678 136.584 97.3387 136.484L97.2897 136.48H97.2406H49.7592H49.7192L49.6793 136.482C48.1281 136.565 46.5873 136.177 45.2568 135.366C43.9356 134.561 42.8817 133.377 42.2311 131.964C41.8452 130.989 41.7533 129.92 41.9677 128.892C42.1843 127.854 42.7033 126.905 43.4567 126.168L43.457 126.167C47.2045 122.497 50.2284 118.146 52.3698 113.345ZM15.3333 8.32643L15.3284 8.32645C13.4325 8.33267 11.6181 9.09386 10.2806 10.4405C8.94344 11.7869 8.19134 13.609 8.18518 15.5086H8.18517V15.5135V74.3229V75.8229H9.68517H137.222H138.722V74.3229V15.5135V15.5089C138.716 13.6294 137.98 11.8248 136.668 10.4818C135.356 9.13846 133.572 8.36376 131.696 8.32673L131.681 8.32644H131.667L15.3333 8.32643ZM94.2036 129.673H97.515L95.3311 127.183C91.9298 123.306 89.3299 118.785 87.6836 113.885L87.6723 113.842C87.591 113.534 87.5572 113.216 87.5723 112.898L87.6467 111.327H86.074H60.9258H59.3478L59.4278 112.903C59.4434 113.211 59.4132 113.52 59.3383 113.819C57.6932 118.745 55.0852 123.289 51.6687 127.183L49.4848 129.673H52.7962H94.2036ZM131.667 104.556L131.671 104.556C133.567 104.55 135.382 103.789 136.719 102.442C138.056 101.096 138.808 99.2738 138.815 97.3742V97.3694V84.0748V82.5748H137.315H9.68517H8.18517V84.0748V97.4626V97.4772L8.18546 97.4918C8.22205 99.371 8.98762 101.163 10.3215 102.484C11.6558 103.806 13.4528 104.551 15.3287 104.556H15.3333L131.667 104.556Z" fill="url(#paint0_linear_874_24820)" stroke="white" stroke-width="3"/>
<circle cx="134" cy="28" r="28" fill="white"/>
<path d="M136.393 5.92236C135.489 5.92236 134.594 6.10815 133.763 6.46448L118.882 12.8411C118.678 12.9288 118.504 13.0744 118.381 13.26C118.259 13.4456 118.194 13.663 118.193 13.8853C118.193 23.0332 118.747 30.5614 121.264 36.7788C123.78 42.9961 128.326 47.8141 135.918 51.3182C136.067 51.3868 136.229 51.4224 136.393 51.4224C136.557 51.4224 136.72 51.3868 136.869 51.3182C144.461 47.8141 149.007 42.9961 151.523 36.7788C154.039 30.5614 154.593 23.0332 154.593 13.8853C154.593 13.663 154.528 13.4456 154.405 13.26C154.283 13.0744 154.109 12.9288 153.905 12.8411L139.024 6.46448C138.192 6.10815 137.298 5.92236 136.393 5.92236ZM136.393 8.19749C136.99 8.19749 137.578 8.318 138.126 8.55298L152.283 14.6185C152.248 23.2973 151.666 30.3697 149.417 35.9256C147.163 41.4938 143.217 45.6552 136.393 48.9365C129.569 45.6552 125.624 41.4938 123.37 35.9256C121.121 30.3697 120.539 23.2973 120.504 14.6185L134.66 8.55298C135.209 8.318 135.797 8.19749 136.393 8.19749Z" fill="url(#paint1_linear_874_24820)" stroke="url(#paint2_linear_874_24820)"/>
<path d="M145.826 22.1807L135.256 32.7515L129.235 26.7307C129.022 26.5175 128.732 26.3977 128.431 26.3977C128.129 26.3977 127.84 26.5175 127.626 26.7307C127.413 26.9441 127.293 27.2333 127.293 27.535C127.293 27.8366 127.413 28.1259 127.626 28.3392L134.451 35.1642C134.665 35.3775 134.954 35.4973 135.256 35.4973C135.557 35.4973 135.847 35.3775 136.06 35.1642L147.435 23.7892C147.648 23.5759 147.768 23.2866 147.768 22.985C147.768 22.6833 147.648 22.3941 147.435 22.1807C147.222 21.9675 146.932 21.8477 146.631 21.8477C146.329 21.8477 146.04 21.9675 145.826 22.1807Z" fill="#4CC139"/>
<g clip-path="url(#clip0_874_24820)">
<path fill-rule="evenodd" clip-rule="evenodd" d="M79.9227 43.5359C79.8624 43.6933 79.83 43.8647 79.83 44.0407C79.83 44.8279 80.4698 45.467 81.2579 45.467C82.046 45.467 82.6858 44.8279 82.6858 44.0407C82.6858 43.8138 82.6348 43.6007 82.5374 43.4109C83.1586 43.4803 83.7891 43.6146 84.4243 43.823C84.6932 43.911 84.976 43.7304 85.0548 43.4247C85.1336 43.1191 84.976 42.7996 84.7024 42.7116C83.6732 42.3735 82.6441 42.2068 81.6149 42.2114C80.5903 42.2114 79.575 42.3828 78.569 42.7162C78.3001 42.8042 78.1425 43.1237 78.2213 43.4294C78.3001 43.735 78.5829 43.911 78.8518 43.823C79.2041 43.7026 79.5657 43.6054 79.9227 43.5359ZM91.7863 53.8954V47.2407C92.0691 46.032 92.6022 45.4114 93.2002 45.3003C95.2772 44.9159 94.9434 53.4323 91.7863 53.8954ZM90.4604 38.7336C79.2922 30.7451 72.4217 24.132 63.1172 30.018C59.8071 32.1112 58.7779 36.4042 57.2665 38.7984C57.2665 44.9437 57.2665 51.0798 57.2665 57.2344C58.1474 61.4532 59.2322 61.8051 61.935 64.4494L66.6266 69.0341C67.475 69.7334 68.4301 70.1409 69.4453 70.3817C71.2256 70.7985 77.2199 70.9328 78.8935 70.3956C79.9134 70.0668 80.8731 69.4648 81.7632 68.5293L85.1707 65.2228C88.4622 62.0321 90.6968 60.6567 90.4604 55.3727C90.4604 49.8155 90.4604 44.2861 90.4604 38.7336ZM67.8181 37.687C68.2678 37.6684 68.6433 38.0158 68.6619 38.4603C68.6804 38.9095 68.3327 39.2846 67.8876 39.3032C66.6452 39.3587 65.5835 39.6134 64.6934 40.0441C63.8265 40.4609 63.1218 41.0583 62.5609 41.8132C62.292 42.1744 61.7867 42.2485 61.425 41.9799C61.0634 41.7113 60.9893 41.2065 61.2582 40.8453C61.9767 39.8774 62.8808 39.1179 63.9888 38.5807C65.0689 38.0621 66.3439 37.7564 67.8181 37.687ZM80.6135 39.1457C80.1638 39.1457 79.8022 38.7799 79.8068 38.3307C79.8068 37.8815 80.1731 37.5202 80.6228 37.5249C81.9672 37.5295 83.1911 37.7842 84.2945 38.2982C85.4071 38.8215 86.3807 39.6042 87.2059 40.6739C87.4794 41.0305 87.4145 41.5353 87.0575 41.8132C86.7052 42.0864 86.1952 42.0216 85.9171 41.665C85.2541 40.8036 84.4799 40.1784 83.6037 39.7663C82.7182 39.3541 81.7215 39.1503 80.6135 39.1457ZM80.2241 58.8598C79.5287 59.096 78.8101 59.2952 78.0683 59.4572C77.308 59.6656 76.608 59.7953 75.9867 59.8092C75.2774 59.8231 74.6701 59.6934 74.1833 59.3692C74.035 59.272 73.9005 59.1655 73.7846 59.0543C73.6687 59.1655 73.5343 59.272 73.3859 59.3692C72.8992 59.6934 72.2918 59.8231 71.5825 59.8092C70.9613 59.7953 70.2613 59.6703 69.501 59.4572C68.7592 59.2952 68.0453 59.096 67.3452 58.8598C66.6498 58.6237 65.973 58.3504 65.31 58.0448C64.9901 57.8966 64.8603 57.54 65.0226 57.2436C65.1199 57.0676 65.2961 56.9565 65.4908 56.9241C65.8432 56.8685 66.126 56.8315 66.3902 56.7944L66.4134 56.7898C67.2664 56.674 67.9201 56.5814 68.7221 56.2619C68.9493 56.1739 69.1672 56.072 69.3897 55.9701C70.6646 55.382 72.06 54.7336 73.4555 55.8404C73.576 55.9377 73.6873 56.0349 73.7846 56.1414C73.882 56.0349 73.9933 55.9377 74.1138 55.8404C75.5046 54.7336 76.9047 55.3773 78.1796 55.9701C78.4021 56.072 78.62 56.1739 78.8472 56.2619C79.6446 56.5814 80.3029 56.674 81.1559 56.7898L81.1791 56.7944C81.4433 56.8315 81.7261 56.8685 82.0785 56.9241C82.2732 56.9565 82.454 57.0676 82.5467 57.2436C82.709 57.5354 82.5791 57.8966 82.2593 58.0448C81.5963 58.3551 80.9195 58.6237 80.2241 58.8598ZM72.1018 53.4323C71.819 53.1961 71.7819 52.7794 72.0183 52.5015C72.2548 52.219 72.672 52.182 72.9502 52.4181C73.2793 52.696 73.5992 52.8442 73.9005 52.8442C74.2065 52.8488 74.5403 52.7099 74.8973 52.4135C75.1801 52.182 75.5973 52.2236 75.8291 52.5061C76.0609 52.7886 76.0192 53.2054 75.7364 53.4369C75.1244 53.9371 74.5079 54.1733 73.882 54.1686C73.2654 54.1594 72.6674 53.9093 72.1018 53.4323ZM70.0248 62.1664C69.6864 61.9858 69.5566 61.5643 69.7374 61.2263C69.9182 60.8882 70.3401 60.7585 70.6785 60.9392C71.7494 61.5088 72.8064 61.8005 73.8449 61.8005C74.8834 61.8005 75.9218 61.518 76.9649 60.9438C77.3034 60.7585 77.7252 60.8836 77.9107 61.217C78.0961 61.5551 77.971 61.9765 77.6372 62.1617C76.3901 62.8517 75.1244 63.1898 73.8449 63.1852C72.5654 63.1852 71.2905 62.8425 70.0248 62.1664ZM55.9638 53.8954V47.2407C55.681 46.032 55.1479 45.4114 54.5498 45.3003C52.4683 44.9159 52.8067 53.4323 55.9638 53.8954ZM56.1539 55.0393C56.038 55.0578 55.9175 55.0624 55.7969 55.0439C53.6087 54.7244 52.4312 52.0476 52.1484 49.4867C52.0696 48.7828 52.0557 48.0835 52.1067 47.4537C52.1577 46.7822 52.2828 46.1617 52.4868 45.6615C52.9226 44.5686 53.6736 43.9619 54.7631 44.1611C55.2823 44.2583 55.7598 44.5269 56.1585 44.9808V44.0916L55.2684 43.5915C55.0227 41.1695 54.3969 38.1917 54.0028 35.4363C53.9379 34.9917 53.9008 34.561 53.8776 34.135C52.918 34.3295 52.1391 33.4357 52 30.9303V26.8921C52.5842 22.062 54.8373 20.1216 58.5322 20.6773C62.0509 17.005 67.0161 14.9534 73.8495 15.009C81.4665 14.8608 87.9569 16.6345 92.6717 21.4553C95.152 23.919 96.2044 27.7396 95.5692 33.1764C95.5971 34.2091 95.5368 35.2881 95.3699 36.4273C95.0176 38.8771 94.5632 41.4797 94.4241 43.3923L93.242 44.1287C94.197 44.0592 94.8646 44.652 95.2679 45.6615C95.4672 46.1663 95.5924 46.7822 95.6481 47.4537C95.6944 48.0835 95.6805 48.7782 95.6063 49.4867C95.3235 52.0476 94.146 54.7244 91.9578 55.0439C91.8604 55.0578 91.7677 55.0578 91.675 55.0485V55.3727C91.675 55.3866 91.675 55.4005 91.675 55.4144C91.8836 60.5363 90.0153 62.2914 87.1271 65.0098C86.7701 65.3479 86.3899 65.6998 86.0376 66.0471L82.6487 69.3351C82.1434 69.8631 81.6149 70.303 81.0632 70.6596C80.5022 71.0208 79.9181 71.2987 79.3061 71.4932C78.4021 71.7849 76.5431 71.9053 74.6377 71.9007C72.5051 71.8961 70.2566 71.7479 69.2367 71.5071C68.6526 71.3681 68.0824 71.1829 67.5399 70.9282C66.9929 70.6735 66.4598 70.3447 65.9498 69.9233C65.922 69.9001 65.8988 69.877 65.8756 69.8538L61.184 65.2691C60.7806 64.8755 60.3773 64.5004 60.0157 64.1623C57.9712 62.259 57.0023 61.3606 56.191 57.4613C56.1725 57.3826 56.1678 57.3038 56.1678 57.2251H56.1539V55.0393ZM63.3536 43.9619C63.0894 44.0638 62.7973 43.9064 62.7046 43.6007C62.6119 43.2997 62.7556 42.9709 63.0198 42.8644C64.049 42.4615 65.0782 42.2763 66.1121 42.2855C67.1412 42.2948 68.1658 42.4939 69.1904 42.8644C69.4592 42.9616 69.6076 43.2858 69.5195 43.5868C69.4361 43.8878 69.1486 44.0592 68.8844 43.9619C68.546 43.8369 68.2075 43.735 67.8645 43.6563C67.8969 43.7767 67.9155 43.9064 67.9155 44.0407C67.9155 44.8279 67.2757 45.467 66.4876 45.467C65.6994 45.467 65.0597 44.8279 65.0597 44.0407C65.0597 43.8462 65.0968 43.6609 65.1663 43.4942C64.5683 43.5683 63.9609 43.7258 63.3536 43.9619Z" fill="black"/>
<path d="M59.6488 43.7588L60.8726 37.9458L68.9801 34.4275H75.7109L84.2774 36.4161L88.5606 39.7815V42.535L87.4898 50.0306C87.0818 52.3252 86.1742 57.1591 85.8071 58.1382C85.3482 59.3619 81.8298 64.41 81.3709 65.1749C80.912 65.9397 72.9574 65.1749 71.5807 65.1749C70.2039 65.1749 65.7677 61.8095 65.0029 61.5035C64.391 61.2588 63.8301 59.5659 63.6261 58.75L63.0142 52.9371L59.6488 43.7588Z" fill="#F1F6F9"/>
</g>
<defs>
<linearGradient id="paint0_linear_874_24820" x1="-34.3" y1="183.425" x2="316.083" y2="-156.606" gradientUnits="userSpaceOnUse">
<stop stop-color="#0072BC"/>
<stop offset="1" stop-color="#E40021"/>
</linearGradient>
<linearGradient id="paint1_linear_874_24820" x1="109.7" y1="66.3994" x2="219.727" y2="-13.7912" gradientUnits="userSpaceOnUse">
<stop stop-color="#0072BC"/>
<stop offset="1" stop-color="#E40021"/>
</linearGradient>
<linearGradient id="paint2_linear_874_24820" x1="109.7" y1="66.3994" x2="219.727" y2="-13.7912" gradientUnits="userSpaceOnUse">
<stop stop-color="#0072BC"/>
<stop offset="1" stop-color="#E40021"/>
</linearGradient>
<clipPath id="clip0_874_24820">
<rect width="43.75" height="56.9056" fill="white" transform="translate(52 15)"/>
</clipPath>
</defs>
</svg>
