<svg width="24" height="24" viewBox="0 0 24 24" fill="none" xmlns="http://www.w3.org/2000/svg">
<g id="Icon">
<path id="Subtract" d="M16.3902 10.9512C16.0098 10.9512 15.6 10.9512 15.2195 10.9805V3.92683H15.1902C15.2195 3.83902 15.2195 3.72195 15.2195 3.63415C15.2195 1.81951 11.2683 1 7.60976 1C3.95122 1 0 1.81951 0 3.63415C0 3.72195 1.11213e-07 3.83902 0.0292684 3.92683H0V15.3415C0 17.1561 3.95122 17.9756 7.60976 17.9756C7.99024 17.9756 8.4 17.9756 8.78049 17.9463V19.439C8.78049 21.2537 12.7317 22.0732 16.3902 22.0732C20.0488 22.0732 24 21.2537 24 19.439V13.5854C24 11.7707 20.0488 10.9512 16.3902 10.9512ZM13.8439 11.0976C13.9317 11.0683 13.9902 11.039 14.0488 10.9805V11.0683C13.9902 11.0683 13.9024 11.0683 13.8439 11.0976ZM7.60976 2.17073C11.7951 2.17073 14.0488 3.19512 14.0488 3.63415C14.0488 4.07317 11.7951 5.09756 7.60976 5.09756C3.42439 5.09756 1.17073 4.07317 1.17073 3.63415C1.17073 3.19512 3.42439 2.17073 7.60976 2.17073ZM1.17073 5.12683C2.60488 5.91707 5.18049 6.26829 7.60976 6.26829C10.039 6.26829 12.6146 5.91707 14.0488 5.12683V6.56098C14.0488 7 11.7951 8.02439 7.60976 8.02439C3.42439 8.02439 1.17073 7 1.17073 6.56098V5.12683ZM1.17073 8.05366C2.60488 8.8439 5.18049 9.19512 7.60976 9.19512C10.039 9.19512 12.6146 8.8439 14.0488 8.05366V9.48781C14.0488 9.92683 11.7951 10.9512 7.60976 10.9512C3.42439 10.9512 1.17073 9.92683 1.17073 9.48781V8.05366ZM1.17073 10.9805C2.60488 11.7707 5.18049 12.122 7.60976 12.122C8.45854 12.122 9.33659 12.0634 10.1561 11.9756C9.30732 12.3854 8.78049 12.9122 8.78049 13.5854V13.8488C8.4 13.878 7.99024 13.878 7.60976 13.878C3.42439 13.878 1.17073 12.8537 1.17073 12.4146V10.9805ZM7.60976 16.8049C3.42439 16.8049 1.17073 15.7805 1.17073 15.3415V13.9073C2.60488 14.6976 5.18049 15.0488 7.60976 15.0488C7.99024 15.0488 8.4 15.0488 8.78049 15.0195V16.7756C8.4 16.8049 7.99024 16.8049 7.60976 16.8049ZM16.3902 20.9024C12.2049 20.9024 9.95122 19.878 9.95122 19.439V18.0049C11.3854 18.7951 13.961 19.1463 16.3902 19.1463C18.8195 19.1463 21.3951 18.7951 22.8293 18.0049V19.439C22.8293 19.878 20.5756 20.9024 16.3902 20.9024ZM16.3902 17.9756C12.2049 17.9756 9.95122 16.9512 9.95122 16.5122V15.078C11.3854 15.8683 13.961 16.2195 16.3902 16.2195C18.8195 16.2195 21.3951 15.8683 22.8293 15.078V16.5122C22.8293 16.9512 20.5756 17.9756 16.3902 17.9756ZM16.3902 15.0488C12.2049 15.0488 9.95122 14.0244 9.95122 13.5854C9.95122 13.1463 12.2049 12.122 16.3902 12.122C20.5756 12.122 22.8293 13.1463 22.8293 13.5854C22.8293 14.0244 20.5756 15.0488 16.3902 15.0488Z" fill="#12486B"/>
</g>
</svg>
