<svg width="375" height="273" viewBox="0 0 375 273" fill="none" xmlns="http://www.w3.org/2000/svg">
<g opacity="0.3">
<path d="M977.289 221.774C904.274 182.107 544.965 23.0958 279.457 162.708C70.8701 272.387 -13.6249 -35.2453 -135 96.0508" stroke="white" stroke-miterlimit="10"/>
<path d="M977.285 213.284C894.944 176.846 551.718 35.5956 287.853 161.923C79.6116 261.622 -12.4228 -27.5717 -134.737 102.806" stroke="white" stroke-miterlimit="10"/>
<path d="M977.286 204.792C885.611 171.583 558.423 48.0518 296.254 161.137C88.3086 250.834 -11.2198 -19.8992 -134.474 109.558" stroke="white" stroke-miterlimit="10"/>
<path d="M977.285 196.301C876.282 166.322 565.072 60.4624 304.652 160.353C96.9617 240.017 -10.0178 -12.2263 -134.211 116.313" stroke="white" stroke-miterlimit="10"/>
<path d="M977.283 187.808C866.951 161.06 571.668 72.8159 313.047 159.564C105.569 229.16 -8.81686 -4.557 -133.95 123.061" stroke="white" stroke-miterlimit="10"/>
<path d="M977.286 179.317C857.632 155.799 578.217 85.104 321.446 158.783C114.139 218.268 -7.61268 3.12012 -133.684 129.82" stroke="white" stroke-miterlimit="10"/>
<path d="M977.285 170.826C848.306 150.537 584.716 97.3221 329.841 157.998C122.668 207.321 -6.40967 10.7936 -133.42 136.574" stroke="white" stroke-miterlimit="10"/>
<path d="M977.285 162.335C838.984 145.275 591.171 109.451 338.234 157.212C131.16 196.314 -5.20753 18.4655 -133.156 143.327" stroke="white" stroke-miterlimit="10"/>
<path d="M977.285 153.844C829.663 140.013 597.587 121.494 346.63 156.428C139.617 185.243 -4.00344 26.1402 -132.891 150.082" stroke="white" stroke-miterlimit="10"/>
<path d="M977.285 145.353C820.342 134.751 603.97 133.442 355.018 155.647C148.048 174.108 -2.80421 33.8167 -132.63 156.838" stroke="white" stroke-miterlimit="10"/>
<path d="M977.285 136.862C811.023 129.49 610.326 145.288 363.408 154.858C156.456 162.879 -1.60305 41.4863 -132.367 163.59" stroke="white" stroke-miterlimit="10"/>
<path d="M977.286 128.37C801.707 124.228 616.666 157.029 371.798 154.072C164.846 151.574 -0.400289 49.1585 -132.105 170.343" stroke="white" stroke-miterlimit="10"/>
<path d="M977.285 119.879C792.39 118.965 622.988 168.663 380.185 153.286C173.225 140.182 0.799389 56.8348 -131.841 177.096" stroke="white" stroke-miterlimit="10"/>
<path d="M977.285 111.388C783.076 113.704 629.308 180.189 388.572 152.503C181.602 128.699 2.00215 64.5044 -131.579 183.85" stroke="white" stroke-miterlimit="10"/>
<path d="M977.285 102.894C773.761 108.44 635.633 191.605 396.957 151.715C189.979 117.124 3.20196 72.1819 -131.313 190.605" stroke="white" stroke-miterlimit="10"/>
<path d="M977.285 94.4043C764.45 103.181 641.97 202.923 405.342 150.932C198.369 105.458 4.40311 79.8507 -131.051 197.353" stroke="white" stroke-miterlimit="10"/>
<path d="M977.286 85.9131C755.14 97.9187 648.328 214.141 413.725 150.147C206.777 93.7016 5.60499 87.5235 -130.782 204.111" stroke="white" stroke-miterlimit="10"/>
<path d="M977.286 77.4219C745.831 92.6569 654.714 225.256 422.103 149.363C215.204 81.8568 6.80189 95.1972 -130.526 210.865" stroke="white" stroke-miterlimit="10"/>
<path d="M977.285 68.9316C736.522 87.3927 661.132 236.288 430.487 148.578C223.668 69.9279 8.00526 102.872 -130.26 217.618" stroke="white" stroke-miterlimit="10"/>
<path d="M977.285 60.4395C727.216 82.1333 667.592 247.239 438.867 147.791C232.167 57.9204 9.20997 110.544 -129.996 224.373" stroke="white" stroke-miterlimit="10"/>
<path d="M977.285 51.9482C717.91 76.8749 674.097 258.121 447.245 147.007C240.705 45.8416 10.406 118.217 -129.733 231.127" stroke="white" stroke-miterlimit="10"/>
<path d="M977.285 43.457C708.606 71.6113 680.651 268.943 455.623 146.221C249.287 33.6974 11.6064 125.888 -129.47 237.88" stroke="white" stroke-miterlimit="10"/>
<path d="M977.286 34.9648C699.304 66.3477 687.259 279.71 464.003 145.437C257.924 21.496 12.8107 133.563 -129.202 244.633" stroke="white" stroke-miterlimit="10"/>
<path d="M977.285 26.4746C690.003 61.0852 693.92 290.436 472.375 144.652C266.602 9.24633 14.0073 141.236 -128.942 251.388" stroke="white" stroke-miterlimit="10"/>
<path d="M977.285 17.9834C680.703 55.8234 700.638 301.13 480.746 143.867C275.331 -3.04344 15.2059 148.909 -128.68 258.142" stroke="white" stroke-miterlimit="10"/>
<path d="M977.285 9.49121C671.404 50.5614 707.408 311.8 489.121 143.082C284.12 -15.3665 16.4054 156.582 -128.416 264.895" stroke="white" stroke-miterlimit="10"/>
<path d="M977.285 1C662.107 45.3005 714.235 322.456 497.489 142.296C292.958 -27.7141 17.6058 164.255 -128.152 271.649" stroke="white" stroke-miterlimit="10"/>
</g>
</svg>
