<svg width="24" height="24" viewBox="0 0 24 24" fill="none" xmlns="http://www.w3.org/2000/svg">
<rect x="0.39502" y="4.39795" width="23.2895" height="16.2982" rx="1" fill="white"/>
<path d="M22.1053 20.974H1.85526C0.828947 20.974 0 20.1392 0 19.1057V5.86834C0 4.83479 0.828947 4 1.85526 4H22.1447C23.1711 4 24 4.83479 24 5.86834V19.1057C23.9605 20.1392 23.1316 20.974 22.1053 20.974ZM2.02631 4.98706C1.43421 4.98706 0.960526 5.46408 0.960526 6.06036V18.9138C0.960526 19.51 1.43421 19.9871 2.02631 19.9871H21.8947C22.4868 19.9871 22.9605 19.51 22.9605 18.9138V6.06036C22.9605 5.46408 22.4868 4.98706 21.8947 4.98706H2.02631Z" fill="#12486B"/>
<path d="M16.4998 12.0935C15.1971 12.0935 14.1313 11.0202 14.1313 9.70835C14.1313 8.39654 15.1971 7.32324 16.4998 7.32324C17.8024 7.32324 18.8682 8.39654 18.8682 9.70835C18.8682 11.0202 17.8024 12.0935 16.4998 12.0935ZM16.4998 8.11828C15.6313 8.11828 14.9208 8.83381 14.9208 9.70835C14.9208 10.5829 15.6313 11.2984 16.4998 11.2984C17.3682 11.2984 18.0787 10.5829 18.0787 9.70835C18.0787 8.83381 17.3682 8.11828 16.4998 8.11828Z" fill="#12486B"/>
<path d="M19.2236 12.0935C18.592 12.0935 18.0394 11.855 17.5657 11.4177C17.4078 11.2587 17.4078 11.0202 17.5657 10.8612C17.7236 10.7021 17.9604 10.7021 18.1183 10.8612C18.3946 11.1394 18.7894 11.2984 19.2236 11.2984C20.092 11.2984 20.8025 10.5829 20.8025 9.70835C20.8025 8.83381 20.092 8.11828 19.2236 8.11828C18.8288 8.11828 18.4341 8.27729 18.1183 8.55555C17.9604 8.71456 17.7236 8.71456 17.5657 8.55555C17.4078 8.39654 17.4078 8.15803 17.5657 7.99902C17.9999 7.56175 18.592 7.32324 19.2236 7.32324C20.5262 7.32324 21.592 8.39654 21.592 9.70835C21.592 11.0202 20.5262 12.0935 19.2236 12.0935Z" fill="#12486B"/>
<path d="M21.1579 17.625H19.1448C18.9079 17.625 18.75 17.425 18.75 17.125C18.75 16.825 18.9079 16.625 19.1448 16.625H21.1579C21.3948 16.625 21.5527 16.825 21.5527 17.125C21.5527 17.425 21.3948 17.625 21.1579 17.625ZM17.1316 17.625H15.1185C14.8816 17.625 14.7237 17.425 14.7237 17.125C14.7237 16.825 14.8816 16.625 15.1185 16.625H17.1316C17.3685 16.625 17.5264 16.825 17.5264 17.125C17.5264 17.425 17.3685 17.625 17.1316 17.625ZM13.1053 17.625H11.0921C10.8553 17.625 10.6974 17.425 10.6974 17.125C10.6974 16.825 10.8553 16.625 11.0921 16.625H13.1053C13.3421 16.625 13.5 16.825 13.5 17.125C13.5 17.425 13.3421 17.625 13.1053 17.625ZM9.07899 17.625H7.06583C6.82899 17.625 6.67109 17.425 6.67109 17.125C6.67109 16.825 6.82899 16.625 7.06583 16.625H9.07899C9.31583 16.625 9.47372 16.825 9.47372 17.125C9.47372 17.425 9.27635 17.625 9.07899 17.625ZM5.05267 17.625H3.03951C2.80267 17.625 2.64478 17.425 2.64478 17.125C2.64478 16.825 2.80267 16.625 3.03951 16.625H5.05267C5.28951 16.625 5.44741 16.825 5.44741 17.125C5.44741 17.425 5.25004 17.625 5.05267 17.625Z" fill="#12486B"/>
<path d="M10.0261 9.59473H4.18404C3.9472 9.59473 3.78931 9.39473 3.78931 9.09473C3.78931 8.79473 3.9472 8.59473 4.18404 8.59473H10.0261C10.263 8.59473 10.4209 8.79473 10.4209 9.09473C10.4209 9.39473 10.2235 9.59473 10.0261 9.59473Z" fill="#12486B"/>
<path d="M8.48667 11.4229H4.18404C3.9472 11.4229 3.78931 11.2229 3.78931 10.9229C3.78931 10.6229 3.9472 10.4229 4.18404 10.4229H8.48667C8.72352 10.4229 8.88141 10.6229 8.88141 10.9229C8.88141 11.2229 8.68404 11.4229 8.48667 11.4229Z" fill="#12486B"/>
</svg>
